G04 #@! TF.GenerationSoftware,KiCad,Pcbnew,7.0.10*
G04 #@! TF.CreationDate,2024-02-29T18:40:53-06:00*
G04 #@! TF.ProjectId,Sabertoothv2,53616265-7274-46f6-9f74-6876322e6b69,rev?*
G04 #@! TF.SameCoordinates,Original*
G04 #@! TF.FileFunction,Paste,Top*
G04 #@! TF.FilePolarity,Positive*
%FSLAX46Y46*%
G04 Gerber Fmt 4.6, Leading zero omitted, Abs format (unit mm)*
G04 Created by KiCad (PCBNEW 7.0.10) date 2024-02-29 18:40:53*
%MOMM*%
%LPD*%
G01*
G04 APERTURE LIST*
G04 Aperture macros list*
%AMRoundRect*
0 Rectangle with rounded corners*
0 $1 Rounding radius*
0 $2 $3 $4 $5 $6 $7 $8 $9 X,Y pos of 4 corners*
0 Add a 4 corners polygon primitive as box body*
4,1,4,$2,$3,$4,$5,$6,$7,$8,$9,$2,$3,0*
0 Add four circle primitives for the rounded corners*
1,1,$1+$1,$2,$3*
1,1,$1+$1,$4,$5*
1,1,$1+$1,$6,$7*
1,1,$1+$1,$8,$9*
0 Add four rect primitives between the rounded corners*
20,1,$1+$1,$2,$3,$4,$5,0*
20,1,$1+$1,$4,$5,$6,$7,0*
20,1,$1+$1,$6,$7,$8,$9,0*
20,1,$1+$1,$8,$9,$2,$3,0*%
%AMFreePoly0*
4,1,21,1.372500,0.787500,0.862500,0.787500,0.862500,0.532500,1.372500,0.532500,1.372500,0.127500,0.862500,0.127500,0.862500,-0.127500,1.372500,-0.127500,1.372500,-0.532500,0.862500,-0.532500,0.862500,-0.787500,1.372500,-0.787500,1.372500,-1.195000,0.612500,-1.195000,0.612500,-1.117500,-0.862500,-1.117500,-0.862500,1.117500,0.612500,1.117500,0.612500,1.195000,1.372500,1.195000,
1.372500,0.787500,1.372500,0.787500,$1*%
G04 Aperture macros list end*
%ADD10RoundRect,0.250000X-0.475000X0.337500X-0.475000X-0.337500X0.475000X-0.337500X0.475000X0.337500X0*%
%ADD11RoundRect,0.230000X-0.375000X0.230000X-0.375000X-0.230000X0.375000X-0.230000X0.375000X0.230000X0*%
%ADD12RoundRect,0.150000X-0.150000X0.825000X-0.150000X-0.825000X0.150000X-0.825000X0.150000X0.825000X0*%
%ADD13R,0.990000X0.405000*%
%ADD14FreePoly0,0.000000*%
%ADD15RoundRect,0.250000X0.450000X-0.350000X0.450000X0.350000X-0.450000X0.350000X-0.450000X-0.350000X0*%
%ADD16R,2.100000X1.400000*%
%ADD17RoundRect,0.250000X-0.450000X0.350000X-0.450000X-0.350000X0.450000X-0.350000X0.450000X0.350000X0*%
%ADD18RoundRect,0.250000X0.337500X0.475000X-0.337500X0.475000X-0.337500X-0.475000X0.337500X-0.475000X0*%
%ADD19RoundRect,0.250000X0.350000X0.450000X-0.350000X0.450000X-0.350000X-0.450000X0.350000X-0.450000X0*%
%ADD20R,0.450000X0.300000*%
G04 APERTURE END LIST*
D10*
X39657157Y-52055500D03*
X39657157Y-54130500D03*
X54897157Y-51547500D03*
X54897157Y-53622500D03*
D11*
X45607157Y-64505000D03*
X44107157Y-64505000D03*
X45607157Y-65645000D03*
X44107157Y-65645000D03*
D12*
X46762157Y-62600000D03*
X45492157Y-62600000D03*
X44222157Y-62600000D03*
X42952157Y-62600000D03*
X42952157Y-67550000D03*
X44222157Y-67550000D03*
X45492157Y-67550000D03*
X46762157Y-67550000D03*
D13*
X61230157Y-62263000D03*
X61230157Y-62923000D03*
X61230157Y-63583000D03*
X61230157Y-64243000D03*
D14*
X63222657Y-63253000D03*
D15*
X61501157Y-53855000D03*
X61501157Y-51855000D03*
X61501157Y-69460000D03*
X61501157Y-67460000D03*
D16*
X50375957Y-66637000D03*
X50375957Y-62237000D03*
D15*
X54643157Y-63745000D03*
X54643157Y-61745000D03*
D13*
X66437157Y-47785000D03*
X66437157Y-48445000D03*
X66437157Y-49105000D03*
X66437157Y-49765000D03*
D14*
X68429657Y-48775000D03*
D10*
X54643157Y-65618000D03*
X54643157Y-67693000D03*
D17*
X50452157Y-43600000D03*
X50452157Y-45600000D03*
D10*
X52992157Y-43520000D03*
X52992157Y-45595000D03*
D18*
X55934657Y-59570000D03*
X53859657Y-59570000D03*
D17*
X39657157Y-62285000D03*
X39657157Y-64285000D03*
D16*
X50452157Y-52245000D03*
X50452157Y-47845000D03*
D13*
X61357157Y-47785000D03*
X61357157Y-48445000D03*
X61357157Y-49105000D03*
X61357157Y-49765000D03*
D14*
X63349657Y-48775000D03*
D13*
X66416157Y-62263000D03*
X66416157Y-62923000D03*
X66416157Y-63583000D03*
X66416157Y-64243000D03*
D14*
X68408657Y-63253000D03*
D15*
X54897157Y-49775000D03*
X54897157Y-47775000D03*
D19*
X51087157Y-59697000D03*
X49087157Y-59697000D03*
D11*
X45657157Y-50175000D03*
X44157157Y-50175000D03*
X45657157Y-51315000D03*
X44157157Y-51315000D03*
D12*
X46812157Y-48270000D03*
X45542157Y-48270000D03*
X44272157Y-48270000D03*
X43002157Y-48270000D03*
X43002157Y-53220000D03*
X44272157Y-53220000D03*
X45542157Y-53220000D03*
X46812157Y-53220000D03*
D20*
X35782157Y-57165000D03*
X35782157Y-57665000D03*
X35782157Y-58165000D03*
X37182157Y-58165000D03*
X37182157Y-57165000D03*
D17*
X39657157Y-47775000D03*
X39657157Y-49775000D03*
D10*
X39657157Y-66301000D03*
X39657157Y-68376000D03*
M02*
