%TF.GenerationSoftware,KiCad,Pcbnew,9.0.6*%
%TF.CreationDate,2026-03-06T01:44:59-06:00*%
%TF.ProjectId,converter,636f6e76-6572-4746-9572-2e6b69636164,rev?*%
%TF.SameCoordinates,Original*%
%TF.FileFunction,Paste,Bot*%
%TF.FilePolarity,Positive*%
%FSLAX46Y46*%
G04 Gerber Fmt 4.6, Leading zero omitted, Abs format (unit mm)*
G04 Created by KiCad (PCBNEW 9.0.6) date 2026-03-06 01:44:59*
%MOMM*%
%LPD*%
G01*
G04 APERTURE LIST*
%ADD10C,0.000000*%
%ADD11R,0.762000X0.812800*%
%ADD12R,0.655599X0.499999*%
%ADD13R,0.968200X1.010000*%
%ADD14R,0.499999X0.655599*%
%ADD15R,1.010000X0.968200*%
%ADD16R,0.609600X0.508000*%
%ADD17R,0.508000X0.558800*%
%ADD18R,0.889000X0.558800*%
%ADD19R,0.508000X0.609600*%
%ADD20R,0.600000X0.540000*%
%ADD21R,0.939800X0.711200*%
%ADD22R,0.558800X0.889000*%
%ADD23R,0.558800X0.508000*%
%ADD24R,0.249999X0.599999*%
%ADD25R,0.599999X0.249999*%
%ADD26R,0.812800X0.762000*%
G04 APERTURE END LIST*
D10*
%TO.C,U1*%
G36*
X120018498Y-137185000D02*
G01*
X118469500Y-137185000D01*
X118469500Y-135996999D01*
X120018498Y-135996999D01*
X120018498Y-137185000D01*
G37*
G36*
X120018498Y-138573004D02*
G01*
X118469500Y-138573004D01*
X118469500Y-137385002D01*
X120018498Y-137385002D01*
X120018498Y-138573004D01*
G37*
%TD*%
D11*
%TO.C,Rfbt1*%
X112118598Y-137446399D03*
X113667998Y-137446399D03*
%TD*%
D12*
%TO.C,Ruv1*%
X124363798Y-143361000D03*
X123258200Y-143361000D03*
%TD*%
D13*
%TO.C,Cilim1*%
X120396000Y-131876800D03*
X119187800Y-131876800D03*
%TD*%
D14*
%TO.C,Rcomp2*%
X112169398Y-135814798D03*
X112169398Y-134709200D03*
%TD*%
D15*
%TO.C,Rvcc1*%
X125277598Y-133056200D03*
X125277598Y-134264400D03*
%TD*%
D12*
%TO.C,Rvin1*%
X124344399Y-141913200D03*
X123238801Y-141913200D03*
%TD*%
D16*
%TO.C,Ccomp1*%
X113707898Y-140443599D03*
X112615698Y-140443599D03*
%TD*%
D14*
%TO.C,Rfbb1*%
X115638200Y-137493600D03*
X115638200Y-136388002D03*
%TD*%
D17*
%TO.C,Rilim1*%
X120548400Y-133502400D03*
X119608600Y-133502400D03*
%TD*%
D18*
%TO.C,Cbst1*%
X123243798Y-138139601D03*
X123243798Y-139993801D03*
%TD*%
D19*
%TO.C,Css1*%
X115130298Y-140716000D03*
X115130298Y-141808200D03*
%TD*%
D20*
%TO.C,Ccomp3*%
X113693398Y-134702799D03*
X113693398Y-135566799D03*
%TD*%
D21*
%TO.C,Ruv2*%
X117975098Y-141695601D03*
X117975098Y-143041801D03*
%TD*%
D22*
%TO.C,Cvin1*%
X121529298Y-141942199D03*
X119675098Y-141942199D03*
%TD*%
D23*
%TO.C,Rcomp1*%
X111218698Y-140131800D03*
X111218698Y-139192000D03*
%TD*%
D16*
%TO.C,Ccomp2*%
X113707898Y-139039600D03*
X112615698Y-139039600D03*
%TD*%
D23*
%TO.C,Rt1*%
X116451098Y-140665200D03*
X116451098Y-141605000D03*
%TD*%
D13*
%TO.C,Cvcc1*%
X123289100Y-136564801D03*
X124497300Y-136564801D03*
%TD*%
D24*
%TO.C,U1*%
X118493998Y-139435001D03*
D25*
X117594000Y-139034999D03*
X117594000Y-138535000D03*
X117594000Y-138034998D03*
X117594000Y-137535000D03*
X117594000Y-137034998D03*
X117594000Y-136534999D03*
X117594000Y-136035000D03*
X117594000Y-135535001D03*
D24*
X118493998Y-135134999D03*
X119994000Y-135134999D03*
D25*
X120893998Y-135535001D03*
X120893998Y-136035000D03*
X120893998Y-136535002D03*
X120893998Y-137035000D03*
X120893998Y-137535002D03*
X120893998Y-138035001D03*
X120893998Y-138535000D03*
X120893998Y-139035002D03*
D24*
X119994000Y-139435001D03*
%TD*%
D26*
%TO.C,Rpgood1*%
X123474198Y-132791200D03*
X123474198Y-134340600D03*
%TD*%
M02*
