M48
; DRILL file {KiCad 9.0.6} date 2026-03-06T01:44:56-0600
; FORMAT={-:-/ absolute / metric / decimal}
; #@! TF.CreationDate,2026-03-06T01:44:56-06:00
; #@! TF.GenerationSoftware,Kicad,Pcbnew,9.0.6
; #@! TF.FileFunction,Plated,1,4,PTH
FMAT,2
METRIC
; #@! TA.AperFunction,Plated,PTH,ComponentDrill
T1C0.203
; #@! TA.AperFunction,Plated,PTH,ViaDrill
T2C0.300
; #@! TA.AperFunction,Plated,PTH,ViaDrill
T3C0.400
; #@! TA.AperFunction,Plated,PTH,ComponentDrill
T4C1.854
%
G90
G05
T1
X118.644Y-137.285
X119.244Y-136.185
X119.244Y-138.385
X119.844Y-137.285
X131.908Y-131.691
X131.908Y-132.596
X132.883Y-131.238
X132.883Y-132.143
X132.883Y-133.048
X133.858Y-131.691
X133.858Y-132.596
T2
X104.0Y-139.0
X105.689Y-134.722
X105.689Y-135.788
X106.172Y-115.773
X106.172Y-116.942
X106.705Y-134.722
X106.705Y-135.788
X107.0Y-139.0
X107.0Y-142.0
X107.442Y-115.773
X107.442Y-116.942
X107.772Y-134.722
X107.772Y-135.788
X108.61Y-115.773
X108.61Y-116.942
X108.814Y-134.722
X108.814Y-135.788
X109.83Y-134.722
X109.83Y-135.788
X109.931Y-115.773
X109.931Y-116.942
X110.0Y-139.0
X110.0Y-142.0
X110.0Y-145.0
X111.252Y-115.773
X111.252Y-116.942
X115.926Y-134.976
X116.434Y-116.865
X116.434Y-119.355
X116.484Y-114.3
X116.942Y-134.214
X117.975Y-140.411
X118.999Y-114.3
X119.024Y-116.84
X119.024Y-119.38
X121.539Y-114.3
X121.539Y-116.865
X121.59Y-119.405
X121.974Y-138.952
X122.022Y-143.361
X122.228Y-135.396
X122.38Y-132.791
X123.495Y-131.47
X124.079Y-114.3
X124.079Y-116.865
X124.104Y-119.405
X126.67Y-143.369
X126.67Y-144.689
X127.305Y-116.459
X127.305Y-117.526
X127.483Y-106.375
X127.483Y-107.442
X127.914Y-143.369
X127.914Y-144.689
X128.473Y-106.401
X128.473Y-107.467
X128.499Y-116.484
X128.499Y-117.551
X129.21Y-143.369
X129.21Y-144.689
X129.388Y-128.422
X129.54Y-106.401
X129.54Y-107.467
X129.718Y-116.51
X129.718Y-117.577
X130.404Y-143.369
X130.404Y-144.689
X130.531Y-106.401
X130.531Y-107.467
X130.658Y-129.896
X130.658Y-130.962
X130.886Y-116.51
X130.886Y-117.577
X131.547Y-106.375
X131.547Y-107.442
X131.724Y-143.369
X131.724Y-144.689
X132.105Y-116.51
X132.105Y-117.577
X132.385Y-135.153
X132.385Y-136.347
X133.68Y-135.153
X133.68Y-136.347
X134.95Y-128.88
X134.976Y-135.153
X134.976Y-136.347
X136.0Y-121.0
X136.0Y-125.0
X136.05Y-128.88
X136.195Y-135.153
X136.195Y-136.347
X136.3Y-139.3
X136.3Y-140.8
X136.3Y-142.3
X136.3Y-143.8
X136.3Y-145.3
X136.45Y-105.1
X136.5Y-106.45
X136.5Y-107.9
X136.55Y-109.35
X136.55Y-110.8
X136.55Y-117.0
X136.6Y-114.0
X136.6Y-115.5
X136.6Y-118.5
X137.8Y-139.3
X137.8Y-140.8
X137.8Y-142.3
X137.8Y-143.8
X137.8Y-145.3
X138.0Y-105.1
X138.0Y-106.45
X138.0Y-107.9
X138.05Y-109.35
X138.05Y-110.8
X138.1Y-114.0
X138.1Y-115.5
X138.15Y-117.0
X138.15Y-118.5
X140.0Y-121.0
X140.0Y-125.0
X140.0Y-129.0
X144.0Y-121.0
X144.0Y-125.0
X144.0Y-129.0
X148.0Y-121.0
X148.0Y-125.0
X148.0Y-129.0
X152.0Y-121.0
X152.0Y-125.0
X152.0Y-129.0
X152.9Y-134.75
X152.95Y-131.75
X152.95Y-133.25
X152.95Y-136.25
X154.45Y-131.75
X154.45Y-133.25
X154.5Y-134.75
X154.5Y-136.25
X156.0Y-117.0
X156.0Y-121.0
X156.0Y-125.0
X156.0Y-129.0
X160.0Y-117.0
X160.0Y-121.0
X160.0Y-125.0
X160.0Y-129.0
X160.0Y-133.0
T3
X117.751Y-128.524
T4
X143.777Y-108.064
X143.777Y-115.684
X143.777Y-134.417
X143.777Y-142.037
M30
