%TF.GenerationSoftware,KiCad,Pcbnew,9.0.6*%
%TF.CreationDate,2026-03-07T13:43:56-06:00*%
%TF.ProjectId,converter,636f6e76-6572-4746-9572-2e6b69636164,rev?*%
%TF.SameCoordinates,Original*%
%TF.FileFunction,Copper,L1,Top*%
%TF.FilePolarity,Positive*%
%FSLAX46Y46*%
G04 Gerber Fmt 4.6, Leading zero omitted, Abs format (unit mm)*
G04 Created by KiCad (PCBNEW 9.0.6) date 2026-03-07 13:43:56*
%MOMM*%
%LPD*%
G01*
G04 APERTURE LIST*
%TA.AperFunction,SMDPad,CuDef*%
%ADD10R,0.299999X0.449999*%
%TD*%
%TA.AperFunction,SMDPad,CuDef*%
%ADD11R,0.299999X0.750001*%
%TD*%
%TA.AperFunction,SMDPad,CuDef*%
%ADD12R,0.950001X1.000000*%
%TD*%
%TA.AperFunction,SMDPad,CuDef*%
%ADD13R,2.692400X1.244600*%
%TD*%
%TA.AperFunction,SMDPad,CuDef*%
%ADD14R,1.219200X2.717800*%
%TD*%
%TA.AperFunction,SMDPad,CuDef*%
%ADD15R,0.399999X0.700001*%
%TD*%
%TA.AperFunction,SMDPad,CuDef*%
%ADD16R,2.550000X2.510000*%
%TD*%
%TA.AperFunction,ComponentPad*%
%ADD17C,0.499999*%
%TD*%
%TA.AperFunction,ComponentPad*%
%ADD18C,2.463800*%
%TD*%
%TA.AperFunction,SMDPad,CuDef*%
%ADD19R,5.994400X1.549400*%
%TD*%
%TA.AperFunction,ViaPad*%
%ADD20C,0.600000*%
%TD*%
%TA.AperFunction,ViaPad*%
%ADD21C,0.800000*%
%TD*%
%TA.AperFunction,Conductor*%
%ADD22C,0.300000*%
%TD*%
G04 APERTURE END LIST*
D10*
%TO.P,M2,1*%
%TO.N,Net-(M1-S1)*%
X132547599Y-128879600D03*
%TO.P,M2,2*%
X133197600Y-128879600D03*
%TO.P,M2,3*%
%TO.N,Net-(U1-LO)*%
X133847599Y-128879600D03*
%TO.P,M2,4*%
%TO.N,GND*%
X133847599Y-126929599D03*
%TO.P,M2,5*%
%TO.N,Net-(M1-S1)*%
X133197600Y-126929599D03*
%TO.P,M2,6*%
X132547599Y-126929599D03*
D11*
%TO.P,M2,7*%
%TO.N,GND*%
X133847601Y-127809600D03*
D12*
%TO.P,M2,8*%
%TO.N,Net-(M1-S1)*%
X132872599Y-127904601D03*
%TD*%
D13*
%TO.P,Cin1,1*%
%TO.N,/Vin*%
X136448800Y-133375400D03*
%TO.P,Cin1,2*%
%TO.N,GND*%
X136448800Y-130403600D03*
%TD*%
D14*
%TO.P,Cout1,1*%
%TO.N,/Vout*%
X129590800Y-109753400D03*
%TO.P,Cout1,2*%
%TO.N,GND*%
X129590800Y-114249200D03*
%TD*%
D15*
%TO.P,M1,1,S1*%
%TO.N,Net-(M1-S1)*%
X133858003Y-129895600D03*
%TO.P,M1,2,S2*%
X133208002Y-129895600D03*
%TO.P,M1,3,S3*%
X132558003Y-129895600D03*
%TO.P,M1,4,G*%
%TO.N,Net-(M1-G)*%
X131908002Y-129895600D03*
%TO.P,M1,5,D5*%
%TO.N,/Vin*%
X131908002Y-132995598D03*
%TO.P,M1,6,D6*%
X132558000Y-132995598D03*
%TO.P,M1,7,D7*%
X133208002Y-132995598D03*
%TO.P,M1,8,D8*%
X133858000Y-132995598D03*
D16*
%TO.P,M1,9,EP*%
X132883001Y-132090599D03*
D17*
%TO.P,M1,V,V*%
X132883001Y-131238099D03*
X133858000Y-131690600D03*
X131908002Y-131690600D03*
X132883001Y-132143098D03*
X133858000Y-132595599D03*
X131908002Y-132595599D03*
X132883001Y-133048098D03*
%TD*%
D18*
%TO.P,J2,1,1*%
%TO.N,GND*%
X143777201Y-115684300D03*
%TO.P,J2,2,2*%
%TO.N,/Vout*%
X143777201Y-108064300D03*
%TD*%
%TO.P,J1,1,1*%
%TO.N,/Vin*%
X143777201Y-142036800D03*
%TO.P,J1,2,2*%
%TO.N,GND*%
X143777201Y-134416800D03*
%TD*%
D19*
%TO.P,2.2uH1,1,1*%
%TO.N,Net-(M1-S1)*%
X108762800Y-124409200D03*
%TO.P,2.2uH1,2,2*%
%TO.N,/Vout*%
X108762800Y-119684800D03*
%TD*%
D17*
%TO.P,U1,V,EP_V*%
%TO.N,GND*%
X118644000Y-137285000D03*
X119243999Y-136185000D03*
X119243999Y-138385000D03*
X119843998Y-137285000D03*
%TD*%
D20*
%TO.N,Net-(U1-SYNCIN)*%
X123330997Y-131470400D03*
%TO.N,/Vout*%
X131546600Y-106375200D03*
X105689400Y-134721600D03*
X109931200Y-115773200D03*
X138050000Y-109350000D03*
X111252000Y-116941600D03*
X138000000Y-107900000D03*
X127482600Y-106375200D03*
X136550000Y-110800000D03*
X109931200Y-116941600D03*
X136550000Y-109350000D03*
X108610400Y-115773200D03*
X138050000Y-110800000D03*
X108813600Y-134721600D03*
X131546600Y-107442000D03*
X130530600Y-107467400D03*
X130530600Y-106400600D03*
X136500000Y-106450000D03*
X128473200Y-106400600D03*
X108610400Y-116941600D03*
X106705400Y-134721600D03*
X107772200Y-135788400D03*
X128473200Y-107467400D03*
X129540000Y-106400600D03*
X138000000Y-105100000D03*
X107442000Y-116941600D03*
X107442000Y-115773200D03*
X109829600Y-134721600D03*
X107772200Y-134721600D03*
X111252000Y-115773200D03*
X136450000Y-105100000D03*
X136500000Y-107900000D03*
X129540000Y-107467400D03*
X138000000Y-106450000D03*
X106705400Y-135788400D03*
X108813600Y-135788400D03*
X106172000Y-115773200D03*
X106172000Y-116941600D03*
X105689400Y-135788400D03*
X127482600Y-107442000D03*
X109829600Y-135788400D03*
D21*
%TO.N,Net-(M1-S1)*%
X117751402Y-128524000D03*
D20*
X126695200Y-128320800D03*
%TO.N,GND*%
X144000000Y-121000000D03*
X121539000Y-116865400D03*
X130886200Y-117576600D03*
X154500000Y-134750000D03*
X132105400Y-117576600D03*
X156000000Y-117000000D03*
X116433600Y-119354600D03*
X121589800Y-119405400D03*
X140000000Y-129000000D03*
X127304800Y-116459000D03*
X138100000Y-114000000D03*
X144000000Y-129000000D03*
X107000000Y-139000000D03*
X132105400Y-116509800D03*
X154500000Y-136250000D03*
X116433600Y-116865400D03*
X119024400Y-116840000D03*
X130886200Y-116509800D03*
X152000000Y-129000000D03*
X136000000Y-125000000D03*
X160000000Y-121000000D03*
X124079000Y-114300000D03*
X148000000Y-125000000D03*
X118999000Y-114300000D03*
X152900000Y-134750000D03*
X138100000Y-115500000D03*
X144000000Y-125000000D03*
X136600000Y-118500000D03*
X138150000Y-117000000D03*
X140000000Y-121000000D03*
X152000000Y-121000000D03*
X136550000Y-117000000D03*
X127304800Y-117525800D03*
X136000000Y-121000000D03*
X154450000Y-133250000D03*
X160000000Y-133000000D03*
X128498600Y-116484400D03*
X152000000Y-125000000D03*
X154450000Y-131750000D03*
X124079000Y-116865400D03*
X104000000Y-139000000D03*
X138150000Y-118500000D03*
X160000000Y-117000000D03*
X119024400Y-119380000D03*
X110000000Y-139000000D03*
X140000000Y-125000000D03*
X148000000Y-129000000D03*
X156000000Y-129000000D03*
X152950000Y-133250000D03*
X110000000Y-145000000D03*
X148000000Y-121000000D03*
X110000000Y-142000000D03*
X152950000Y-131750000D03*
X121539000Y-114300000D03*
X156000000Y-121000000D03*
X129717800Y-116509800D03*
X128498600Y-117551200D03*
X160000000Y-125000000D03*
X152950000Y-136250000D03*
X107000000Y-142000000D03*
X116484400Y-114300000D03*
X160000000Y-129000000D03*
X136600000Y-115500000D03*
X124104400Y-119405400D03*
X129717800Y-117576600D03*
X136600000Y-114000000D03*
X156000000Y-125000000D03*
%TO.N,/Vin*%
X131724400Y-144689401D03*
X129209800Y-144689401D03*
X136300000Y-142300000D03*
X134975600Y-135153400D03*
X129209800Y-143368601D03*
X126669800Y-143368601D03*
X134975600Y-136347200D03*
X136300000Y-140800000D03*
X137800000Y-140800000D03*
X127914400Y-143368601D03*
X137800000Y-142300000D03*
X127914400Y-144689401D03*
X130403600Y-143368601D03*
X133680200Y-136347200D03*
X136194800Y-136347200D03*
X136300000Y-139300000D03*
X136300000Y-145300000D03*
X132384800Y-136347200D03*
X126669800Y-144689401D03*
X130403600Y-144689401D03*
X137800000Y-145300000D03*
X136194800Y-135153400D03*
X131724400Y-143368601D03*
X137800000Y-139300000D03*
X133680200Y-135153400D03*
X132384800Y-135153400D03*
X137800000Y-143800000D03*
X136300000Y-143800000D03*
%TO.N,Net-(M1-G)*%
X130657600Y-130962400D03*
X130657600Y-129895600D03*
X121973798Y-138952401D03*
%TO.N,Net-(U1-LO)*%
X134950000Y-128879600D03*
X122227798Y-135396401D03*
X136050000Y-128879600D03*
%TO.N,Net-(U1-PGOOD)*%
X116941600Y-134213600D03*
X122380198Y-132791200D03*
%TO.N,Net-(U1-EN{slash}UVLO)*%
X122021600Y-143361000D03*
X117975098Y-140411200D03*
%TO.N,Net-(U1-SYNCIN)*%
X115925600Y-134975600D03*
%TD*%
D22*
%TO.N,Net-(M1-G)*%
X130657600Y-129895600D02*
X130657600Y-130962400D01*
X131908002Y-129895600D02*
X130657600Y-129895600D01*
%TO.N,Net-(U1-LO)*%
X133847599Y-128879600D02*
X134950000Y-128879600D01*
X134950000Y-128879600D02*
X136050000Y-128879600D01*
%TD*%
%TA.AperFunction,Conductor*%
%TO.N,/Vout*%
G36*
X161442539Y-100520185D02*
G01*
X161488294Y-100572989D01*
X161499500Y-100624500D01*
X161499500Y-111636000D01*
X161479815Y-111703039D01*
X161427011Y-111748794D01*
X161375500Y-111760000D01*
X132419900Y-111760000D01*
X132352861Y-111740315D01*
X132307106Y-111687511D01*
X132295900Y-111636000D01*
X132295900Y-109296200D01*
X130251200Y-109296200D01*
X130251200Y-111039100D01*
X130231515Y-111106139D01*
X130178711Y-111151894D01*
X130127200Y-111163100D01*
X129054400Y-111163100D01*
X128987361Y-111143415D01*
X128941606Y-111090611D01*
X128930400Y-111039100D01*
X128930400Y-109296200D01*
X126885700Y-109296200D01*
X126885700Y-111636000D01*
X126866015Y-111703039D01*
X126813211Y-111748794D01*
X126761700Y-111760000D01*
X116179599Y-111760000D01*
X112502505Y-120877181D01*
X112459174Y-120931991D01*
X112393089Y-120954674D01*
X112387506Y-120954800D01*
X104698800Y-120954800D01*
X104698800Y-130048000D01*
X110669231Y-130048000D01*
X110736270Y-130067685D01*
X110782025Y-130120489D01*
X110793221Y-130173560D01*
X110694740Y-138002760D01*
X110674214Y-138069546D01*
X110620839Y-138114633D01*
X110570750Y-138125200D01*
X98624500Y-138125200D01*
X98557461Y-138105515D01*
X98511706Y-138052711D01*
X98500500Y-138001200D01*
X98500500Y-104836911D01*
X101039700Y-104836911D01*
X101039700Y-105079488D01*
X101071361Y-105319985D01*
X101134147Y-105554304D01*
X101226973Y-105778405D01*
X101226976Y-105778412D01*
X101348264Y-105988489D01*
X101348266Y-105988492D01*
X101348267Y-105988493D01*
X101495933Y-106180936D01*
X101495939Y-106180943D01*
X101667456Y-106352460D01*
X101667462Y-106352465D01*
X101859911Y-106500136D01*
X102069988Y-106621424D01*
X102294100Y-106714254D01*
X102528411Y-106777038D01*
X102708786Y-106800784D01*
X102768911Y-106808700D01*
X102768912Y-106808700D01*
X103011489Y-106808700D01*
X103059588Y-106802367D01*
X103251989Y-106777038D01*
X103486300Y-106714254D01*
X103710412Y-106621424D01*
X103920489Y-106500136D01*
X104112938Y-106352465D01*
X104284465Y-106180938D01*
X104432136Y-105988489D01*
X104553424Y-105778412D01*
X104646254Y-105554300D01*
X104709038Y-105319989D01*
X104740700Y-105079488D01*
X104740700Y-104836912D01*
X104740700Y-104836911D01*
X155339700Y-104836911D01*
X155339700Y-105079488D01*
X155371361Y-105319985D01*
X155434147Y-105554304D01*
X155526973Y-105778405D01*
X155526976Y-105778412D01*
X155648264Y-105988489D01*
X155648266Y-105988492D01*
X155648267Y-105988493D01*
X155795933Y-106180936D01*
X155795939Y-106180943D01*
X155967456Y-106352460D01*
X155967462Y-106352465D01*
X156159911Y-106500136D01*
X156369988Y-106621424D01*
X156594100Y-106714254D01*
X156828411Y-106777038D01*
X157008786Y-106800784D01*
X157068911Y-106808700D01*
X157068912Y-106808700D01*
X157311489Y-106808700D01*
X157359588Y-106802367D01*
X157551989Y-106777038D01*
X157786300Y-106714254D01*
X158010412Y-106621424D01*
X158220489Y-106500136D01*
X158412938Y-106352465D01*
X158584465Y-106180938D01*
X158732136Y-105988489D01*
X158853424Y-105778412D01*
X158946254Y-105554300D01*
X159009038Y-105319989D01*
X159040700Y-105079488D01*
X159040700Y-104836912D01*
X159009038Y-104596411D01*
X158946254Y-104362100D01*
X158853424Y-104137988D01*
X158732136Y-103927911D01*
X158584465Y-103735462D01*
X158584460Y-103735456D01*
X158412943Y-103563939D01*
X158412936Y-103563933D01*
X158220493Y-103416267D01*
X158220492Y-103416266D01*
X158220489Y-103416264D01*
X158010412Y-103294976D01*
X158010405Y-103294973D01*
X157786304Y-103202147D01*
X157551985Y-103139361D01*
X157311489Y-103107700D01*
X157311488Y-103107700D01*
X157068912Y-103107700D01*
X157068911Y-103107700D01*
X156828414Y-103139361D01*
X156594095Y-103202147D01*
X156369994Y-103294973D01*
X156369985Y-103294977D01*
X156159906Y-103416267D01*
X155967463Y-103563933D01*
X155967456Y-103563939D01*
X155795939Y-103735456D01*
X155795933Y-103735463D01*
X155648267Y-103927906D01*
X155526977Y-104137985D01*
X155526973Y-104137994D01*
X155434147Y-104362095D01*
X155371361Y-104596414D01*
X155339700Y-104836911D01*
X104740700Y-104836911D01*
X104709038Y-104596411D01*
X104646254Y-104362100D01*
X104553424Y-104137988D01*
X104432136Y-103927911D01*
X104284465Y-103735462D01*
X104284460Y-103735456D01*
X104112943Y-103563939D01*
X104112936Y-103563933D01*
X103920493Y-103416267D01*
X103920492Y-103416266D01*
X103920489Y-103416264D01*
X103710412Y-103294976D01*
X103710405Y-103294973D01*
X103486304Y-103202147D01*
X103251985Y-103139361D01*
X103011489Y-103107700D01*
X103011488Y-103107700D01*
X102768912Y-103107700D01*
X102768911Y-103107700D01*
X102528414Y-103139361D01*
X102294095Y-103202147D01*
X102069994Y-103294973D01*
X102069985Y-103294977D01*
X101859906Y-103416267D01*
X101667463Y-103563933D01*
X101667456Y-103563939D01*
X101495939Y-103735456D01*
X101495933Y-103735463D01*
X101348267Y-103927906D01*
X101226977Y-104137985D01*
X101226973Y-104137994D01*
X101134147Y-104362095D01*
X101071361Y-104596414D01*
X101039700Y-104836911D01*
X98500500Y-104836911D01*
X98500500Y-100624500D01*
X98520185Y-100557461D01*
X98572989Y-100511706D01*
X98624500Y-100500500D01*
X161375500Y-100500500D01*
X161442539Y-100520185D01*
G37*
%TD.AperFunction*%
%TD*%
%TA.AperFunction,Conductor*%
%TO.N,GND*%
G36*
X126828739Y-112541685D02*
G01*
X126874494Y-112594489D01*
X126885700Y-112646000D01*
X126885700Y-114706400D01*
X128930400Y-114706400D01*
X128930400Y-112963500D01*
X128950085Y-112896461D01*
X129002889Y-112850706D01*
X129054400Y-112839500D01*
X130127200Y-112839500D01*
X130194239Y-112859185D01*
X130239994Y-112911989D01*
X130251200Y-112963500D01*
X130251200Y-114706400D01*
X132295900Y-114706400D01*
X132295900Y-112646000D01*
X132315585Y-112578961D01*
X132368389Y-112533206D01*
X132419900Y-112522000D01*
X161375500Y-112522000D01*
X161442539Y-112541685D01*
X161488294Y-112594489D01*
X161499500Y-112646000D01*
X161499500Y-137493200D01*
X161479815Y-137560239D01*
X161427011Y-137605994D01*
X161375500Y-137617200D01*
X138277255Y-137617200D01*
X138210216Y-137597515D01*
X138164461Y-137544711D01*
X138153283Y-137490573D01*
X138176081Y-136414476D01*
X138277600Y-131622800D01*
X138277599Y-131622800D01*
X137868200Y-131622800D01*
X137801161Y-131603115D01*
X137755406Y-131550311D01*
X137744200Y-131498800D01*
X137744200Y-131076700D01*
X135153400Y-131076700D01*
X135153400Y-131498800D01*
X135150849Y-131507485D01*
X135152138Y-131516447D01*
X135141159Y-131540487D01*
X135133715Y-131565839D01*
X135126874Y-131571766D01*
X135123113Y-131580003D01*
X135100878Y-131594292D01*
X135080911Y-131611594D01*
X135070396Y-131613881D01*
X135064335Y-131617777D01*
X135029400Y-131622800D01*
X134845600Y-131622800D01*
X134778561Y-131603115D01*
X134732806Y-131550311D01*
X134721600Y-131498800D01*
X134721600Y-129648507D01*
X134741285Y-129581468D01*
X134794089Y-129535713D01*
X134863247Y-129525769D01*
X134869793Y-129526890D01*
X134885930Y-129530100D01*
X134885931Y-129530100D01*
X135014071Y-129530100D01*
X135103357Y-129512339D01*
X135139744Y-129505101D01*
X135258127Y-129456065D01*
X135340541Y-129400998D01*
X135358587Y-129395347D01*
X135374497Y-129385123D01*
X135405456Y-129380671D01*
X135407218Y-129380120D01*
X135409432Y-129380100D01*
X135590568Y-129380100D01*
X135657607Y-129399785D01*
X135659459Y-129400998D01*
X135741866Y-129456061D01*
X135741872Y-129456064D01*
X135741873Y-129456065D01*
X135860256Y-129505101D01*
X135860260Y-129505101D01*
X135860261Y-129505102D01*
X135985928Y-129530100D01*
X135985931Y-129530100D01*
X136114071Y-129530100D01*
X136203357Y-129512339D01*
X136239744Y-129505101D01*
X136358127Y-129456065D01*
X136464669Y-129384876D01*
X136555276Y-129294269D01*
X136626465Y-129187727D01*
X136675501Y-129069344D01*
X136695004Y-128971300D01*
X136700500Y-128943671D01*
X136700500Y-128815528D01*
X136675502Y-128689861D01*
X136675501Y-128689860D01*
X136675501Y-128689856D01*
X136626465Y-128571473D01*
X136626464Y-128571472D01*
X136626461Y-128571466D01*
X136555276Y-128464931D01*
X136555273Y-128464927D01*
X136464672Y-128374326D01*
X136464668Y-128374323D01*
X136358133Y-128303138D01*
X136358124Y-128303133D01*
X136239744Y-128254099D01*
X136239738Y-128254097D01*
X136114071Y-128229100D01*
X136114069Y-128229100D01*
X135985931Y-128229100D01*
X135985929Y-128229100D01*
X135860261Y-128254097D01*
X135860255Y-128254099D01*
X135741875Y-128303133D01*
X135741866Y-128303138D01*
X135659459Y-128358202D01*
X135641412Y-128363852D01*
X135625503Y-128374077D01*
X135594543Y-128378528D01*
X135592782Y-128379080D01*
X135590568Y-128379100D01*
X135409432Y-128379100D01*
X135342393Y-128359415D01*
X135340541Y-128358202D01*
X135258133Y-128303138D01*
X135258124Y-128303133D01*
X135139744Y-128254099D01*
X135139738Y-128254097D01*
X135014071Y-128229100D01*
X135014069Y-128229100D01*
X134885931Y-128229100D01*
X134885929Y-128229100D01*
X134760261Y-128254097D01*
X134760255Y-128254099D01*
X134641875Y-128303133D01*
X134641866Y-128303138D01*
X134559459Y-128358202D01*
X134541412Y-128363852D01*
X134525503Y-128374077D01*
X134494543Y-128378528D01*
X134492782Y-128379080D01*
X134490568Y-128379100D01*
X134260790Y-128379100D01*
X134206330Y-128366501D01*
X134098990Y-128314026D01*
X134030860Y-128304100D01*
X134030859Y-128304100D01*
X133822100Y-128304100D01*
X133755061Y-128284415D01*
X133709306Y-128231611D01*
X133698100Y-128180100D01*
X133698100Y-127371340D01*
X133687338Y-127297478D01*
X133687338Y-127261722D01*
X133698100Y-127187859D01*
X133698100Y-126671338D01*
X133688172Y-126603202D01*
X133685726Y-126595283D01*
X133680200Y-126558680D01*
X133680200Y-121920000D01*
X126057200Y-121920000D01*
X125990161Y-121900315D01*
X125944406Y-121847511D01*
X125933200Y-121796000D01*
X125933200Y-112646000D01*
X125952885Y-112578961D01*
X126005689Y-112533206D01*
X126057200Y-112522000D01*
X126761700Y-112522000D01*
X126828739Y-112541685D01*
G37*
%TD.AperFunction*%
%TD*%
%TA.AperFunction,Conductor*%
%TO.N,Net-(M1-S1)*%
G36*
X133267739Y-122363285D02*
G01*
X133313494Y-122416089D01*
X133324700Y-122467600D01*
X133324700Y-126558684D01*
X133328682Y-126611742D01*
X133334211Y-126648362D01*
X133336655Y-126659058D01*
X133338474Y-126668793D01*
X133341303Y-126688200D01*
X133342600Y-126706087D01*
X133342600Y-127153109D01*
X133341304Y-127170989D01*
X133335552Y-127210463D01*
X133331838Y-127261722D01*
X133331838Y-127297490D01*
X133335551Y-127348720D01*
X133335555Y-127348756D01*
X133341304Y-127388204D01*
X133342600Y-127406084D01*
X133342600Y-128180108D01*
X133349289Y-128242313D01*
X133350000Y-128255569D01*
X133350000Y-128592445D01*
X133348705Y-128610312D01*
X133347099Y-128621340D01*
X133347099Y-128621345D01*
X133347099Y-129137859D01*
X133348704Y-129148875D01*
X133350000Y-129166754D01*
X133350000Y-129404800D01*
X133484933Y-129404800D01*
X133539392Y-129417398D01*
X133596206Y-129445173D01*
X133630272Y-129450136D01*
X133664338Y-129455100D01*
X133963400Y-129455100D01*
X134030439Y-129474785D01*
X134076194Y-129527589D01*
X134087400Y-129579100D01*
X134087400Y-130143600D01*
X134067715Y-130210639D01*
X134014911Y-130256394D01*
X133963400Y-130267600D01*
X132582502Y-130267600D01*
X132515463Y-130247915D01*
X132469708Y-130195111D01*
X132458502Y-130143600D01*
X132458502Y-129512338D01*
X132448575Y-129444207D01*
X132448575Y-129444206D01*
X132397200Y-129339116D01*
X132397198Y-129339114D01*
X132397198Y-129339113D01*
X132370319Y-129312234D01*
X132336834Y-129250911D01*
X132334000Y-129224553D01*
X132334000Y-129176200D01*
X105305400Y-129176200D01*
X105238361Y-129156515D01*
X105192606Y-129103711D01*
X105181400Y-129052200D01*
X105181400Y-122467600D01*
X105201085Y-122400561D01*
X105253889Y-122354806D01*
X105305400Y-122343600D01*
X133200700Y-122343600D01*
X133267739Y-122363285D01*
G37*
%TD.AperFunction*%
%TD*%
%TA.AperFunction,Conductor*%
%TO.N,/Vin*%
G36*
X135096439Y-132404485D02*
G01*
X135142194Y-132457289D01*
X135153400Y-132508800D01*
X135153400Y-132702300D01*
X137772495Y-132702300D01*
X137839534Y-132721985D01*
X137885289Y-132774789D01*
X137896467Y-132828927D01*
X137797862Y-137483037D01*
X137805127Y-137562456D01*
X137816306Y-137616599D01*
X137816309Y-137616612D01*
X137834757Y-137677663D01*
X137895792Y-137777515D01*
X137898098Y-137780668D01*
X137921776Y-137846404D01*
X137922000Y-137853855D01*
X137922000Y-138353800D01*
X161375500Y-138353800D01*
X161442539Y-138373485D01*
X161488294Y-138426289D01*
X161499500Y-138477800D01*
X161499500Y-147375500D01*
X161479815Y-147442539D01*
X161427011Y-147488294D01*
X161375500Y-147499500D01*
X125814260Y-147499500D01*
X125747221Y-147479815D01*
X125701466Y-147427011D01*
X125690263Y-147374627D01*
X125720740Y-143046911D01*
X155339700Y-143046911D01*
X155339700Y-143289488D01*
X155371361Y-143529985D01*
X155434147Y-143764304D01*
X155526973Y-143988405D01*
X155526976Y-143988412D01*
X155648264Y-144198489D01*
X155648266Y-144198492D01*
X155648267Y-144198493D01*
X155795933Y-144390936D01*
X155795939Y-144390943D01*
X155967456Y-144562460D01*
X155967462Y-144562465D01*
X156159911Y-144710136D01*
X156369988Y-144831424D01*
X156594100Y-144924254D01*
X156828411Y-144987038D01*
X157008786Y-145010784D01*
X157068911Y-145018700D01*
X157068912Y-145018700D01*
X157311489Y-145018700D01*
X157359588Y-145012367D01*
X157551989Y-144987038D01*
X157786300Y-144924254D01*
X158010412Y-144831424D01*
X158220489Y-144710136D01*
X158412938Y-144562465D01*
X158584465Y-144390938D01*
X158732136Y-144198489D01*
X158853424Y-143988412D01*
X158946254Y-143764300D01*
X159009038Y-143529989D01*
X159040700Y-143289488D01*
X159040700Y-143046912D01*
X159009038Y-142806411D01*
X158946254Y-142572100D01*
X158853424Y-142347988D01*
X158732136Y-142137911D01*
X158584465Y-141945462D01*
X158584460Y-141945456D01*
X158412943Y-141773939D01*
X158412936Y-141773933D01*
X158220493Y-141626267D01*
X158220492Y-141626266D01*
X158220489Y-141626264D01*
X158010412Y-141504976D01*
X158010405Y-141504973D01*
X157786304Y-141412147D01*
X157551985Y-141349361D01*
X157311489Y-141317700D01*
X157311488Y-141317700D01*
X157068912Y-141317700D01*
X157068911Y-141317700D01*
X156828414Y-141349361D01*
X156594095Y-141412147D01*
X156369994Y-141504973D01*
X156369985Y-141504977D01*
X156159906Y-141626267D01*
X155967463Y-141773933D01*
X155967456Y-141773939D01*
X155795939Y-141945456D01*
X155795933Y-141945463D01*
X155648267Y-142137906D01*
X155526977Y-142347985D01*
X155526973Y-142347994D01*
X155434147Y-142572095D01*
X155371361Y-142806414D01*
X155339700Y-143046911D01*
X125720740Y-143046911D01*
X125720775Y-143041980D01*
X125729637Y-141783510D01*
X125749793Y-141716611D01*
X125766747Y-141695914D01*
X131368800Y-136194800D01*
X131368800Y-132508800D01*
X131388485Y-132441761D01*
X131441289Y-132396006D01*
X131492800Y-132384800D01*
X135029400Y-132384800D01*
X135096439Y-132404485D01*
G37*
%TD.AperFunction*%
%TD*%
M02*
