%TF.GenerationSoftware,KiCad,Pcbnew,9.0.6*%
%TF.CreationDate,2026-03-07T13:43:56-06:00*%
%TF.ProjectId,converter,636f6e76-6572-4746-9572-2e6b69636164,rev?*%
%TF.SameCoordinates,Original*%
%TF.FileFunction,Soldermask,Top*%
%TF.FilePolarity,Negative*%
%FSLAX46Y46*%
G04 Gerber Fmt 4.6, Leading zero omitted, Abs format (unit mm)*
G04 Created by KiCad (PCBNEW 9.0.6) date 2026-03-07 13:43:56*
%MOMM*%
%LPD*%
G01*
G04 APERTURE LIST*
%ADD10C,0.000000*%
%ADD11C,3.200000*%
%ADD12R,0.299999X0.449999*%
%ADD13R,0.299999X0.750001*%
%ADD14R,0.950001X1.000000*%
%ADD15R,2.692400X1.244600*%
%ADD16R,1.219200X2.717800*%
%ADD17R,0.399999X0.700001*%
%ADD18C,0.499999*%
%ADD19C,2.463800*%
%ADD20R,5.994400X1.549400*%
G04 APERTURE END LIST*
D10*
%TO.C,M1*%
G36*
X132058001Y-132870597D02*
G01*
X131758002Y-132870597D01*
X131758002Y-132370598D01*
X132058001Y-132370598D01*
X132058001Y-132870597D01*
G37*
G36*
X132708003Y-132870597D02*
G01*
X132408003Y-132870597D01*
X132408003Y-132370598D01*
X132708003Y-132370598D01*
X132708003Y-132870597D01*
G37*
G36*
X133357999Y-132870597D02*
G01*
X133057999Y-132870597D01*
X133057999Y-132370598D01*
X133357999Y-132370598D01*
X133357999Y-132870597D01*
G37*
G36*
X134008000Y-132870597D02*
G01*
X133708001Y-132870597D01*
X133708001Y-132370598D01*
X134008000Y-132370598D01*
X134008000Y-132870597D01*
G37*
G36*
X134065140Y-130886621D02*
G01*
X134075130Y-130889651D01*
X134084335Y-130894574D01*
X134092404Y-130901196D01*
X134099026Y-130909265D01*
X134103949Y-130918470D01*
X134106979Y-130928460D01*
X134108000Y-130938849D01*
X134108000Y-132607349D01*
X134106979Y-132617738D01*
X134103949Y-132627728D01*
X134099026Y-132636933D01*
X134092404Y-132645002D01*
X134084335Y-132651624D01*
X134075130Y-132656547D01*
X134065140Y-132659577D01*
X134054751Y-132660600D01*
X131711251Y-132660600D01*
X131700862Y-132659577D01*
X131690872Y-132656547D01*
X131681667Y-132651624D01*
X131673598Y-132645002D01*
X131666976Y-132636933D01*
X131662053Y-132627728D01*
X131659023Y-132617738D01*
X131658002Y-132607349D01*
X131658002Y-130938849D01*
X131659023Y-130928460D01*
X131662053Y-130918470D01*
X131666976Y-130909265D01*
X131673598Y-130901196D01*
X131681667Y-130894574D01*
X131690872Y-130889651D01*
X131700862Y-130886621D01*
X131711251Y-130885600D01*
X134054751Y-130885600D01*
X134065140Y-130886621D01*
G37*
%TD*%
D11*
%TO.C,REF\u002A\u002A*%
X102890200Y-143168200D03*
%TD*%
D12*
%TO.C,M2*%
X132547599Y-128879600D03*
X133197600Y-128879600D03*
X133847599Y-128879600D03*
X133847599Y-126929599D03*
X133197600Y-126929599D03*
X132547599Y-126929599D03*
D13*
X133847601Y-127809600D03*
D14*
X132872599Y-127904601D03*
%TD*%
D15*
%TO.C,Cin1*%
X136448800Y-133375400D03*
X136448800Y-130403600D03*
%TD*%
D11*
%TO.C,REF\u002A\u002A*%
X102890200Y-104958200D03*
%TD*%
D16*
%TO.C,Cout1*%
X129590800Y-109753400D03*
X129590800Y-114249200D03*
%TD*%
D17*
%TO.C,M1*%
X133858003Y-129895600D03*
X133208002Y-129895600D03*
X132558003Y-129895600D03*
X131908002Y-129895600D03*
X131908002Y-132995598D03*
X132558000Y-132995598D03*
X133208002Y-132995598D03*
X133858000Y-132995598D03*
D18*
X132883001Y-131238099D03*
X133858000Y-131690600D03*
X131908002Y-131690600D03*
X132883001Y-132143098D03*
X133858000Y-132595599D03*
X131908002Y-132595599D03*
X132883001Y-133048098D03*
%TD*%
D19*
%TO.C,J2*%
X143777201Y-115684300D03*
X143777201Y-108064300D03*
%TD*%
D11*
%TO.C,REF\u002A\u002A*%
X157190200Y-143168200D03*
%TD*%
%TO.C,REF\u002A\u002A*%
X157190200Y-104958200D03*
%TD*%
D19*
%TO.C,J1*%
X143777201Y-142036800D03*
X143777201Y-134416800D03*
%TD*%
D20*
%TO.C,2.2uH1*%
X108762800Y-124409200D03*
X108762800Y-119684800D03*
%TD*%
D18*
%TO.C,U1*%
X118644000Y-137285000D03*
X119243999Y-136185000D03*
X119243999Y-138385000D03*
X119843998Y-137285000D03*
%TD*%
M02*
