G04 #@! TF.GenerationSoftware,KiCad,Pcbnew,7.0.9*
G04 #@! TF.CreationDate,2023-12-29T07:46:22-06:00*
G04 #@! TF.ProjectId,Arduino Shield,41726475-696e-46f2-9053-6869656c642e,rev?*
G04 #@! TF.SameCoordinates,Original*
G04 #@! TF.FileFunction,Copper,L2,Bot*
G04 #@! TF.FilePolarity,Positive*
%FSLAX46Y46*%
G04 Gerber Fmt 4.6, Leading zero omitted, Abs format (unit mm)*
G04 Created by KiCad (PCBNEW 7.0.9) date 2023-12-29 07:46:22*
%MOMM*%
%LPD*%
G01*
G04 APERTURE LIST*
G04 #@! TA.AperFunction,ComponentPad*
%ADD10R,2.400000X2.400000*%
G04 #@! TD*
G04 #@! TA.AperFunction,ComponentPad*
%ADD11C,2.400000*%
G04 #@! TD*
G04 #@! TA.AperFunction,ComponentPad*
%ADD12O,1.727200X1.727200*%
G04 #@! TD*
G04 #@! TA.AperFunction,ComponentPad*
%ADD13R,1.727200X1.727200*%
G04 #@! TD*
G04 #@! TA.AperFunction,Conductor*
%ADD14C,0.250000*%
G04 #@! TD*
G04 APERTURE END LIST*
D10*
X117266000Y-90678000D03*
D11*
X113766000Y-90678000D03*
X110266000Y-90678000D03*
X106766000Y-90678000D03*
X103266000Y-90678000D03*
X99766000Y-90678000D03*
X96266000Y-90678000D03*
X92766000Y-90678000D03*
D10*
X25340000Y-24130000D03*
D11*
X28840000Y-24130000D03*
X32340000Y-24130000D03*
X35840000Y-24130000D03*
X39340000Y-24130000D03*
X42840000Y-24130000D03*
X46340000Y-24130000D03*
X49840000Y-24130000D03*
X53340000Y-24130000D03*
X56840000Y-24130000D03*
D10*
X130683000Y-58547000D03*
D11*
X130683000Y-62047000D03*
X130683000Y-65547000D03*
X130683000Y-69047000D03*
X130683000Y-72547000D03*
X130683000Y-76047000D03*
X130683000Y-79547000D03*
D10*
X63160000Y-24130000D03*
D11*
X66660000Y-24130000D03*
X70160000Y-24130000D03*
X73660000Y-24130000D03*
X77160000Y-24130000D03*
X80660000Y-24130000D03*
X84160000Y-24130000D03*
X87660000Y-24130000D03*
D10*
X93020000Y-24130000D03*
D11*
X96520000Y-24130000D03*
X100020000Y-24130000D03*
X103520000Y-24130000D03*
X107020000Y-24130000D03*
X110520000Y-24130000D03*
X114020000Y-24130000D03*
X117520000Y-24130000D03*
D10*
X75880000Y-67960000D03*
D11*
X75880000Y-64460000D03*
X75880000Y-60960000D03*
X75880000Y-57460000D03*
X75880000Y-53960000D03*
X75880000Y-50460000D03*
X75880000Y-46960000D03*
X75880000Y-43460000D03*
D10*
X57023000Y-90678000D03*
D11*
X53523000Y-90678000D03*
X50023000Y-90678000D03*
X46523000Y-90678000D03*
X43023000Y-90678000D03*
X39523000Y-90678000D03*
X36023000Y-90678000D03*
D10*
X130683000Y-28067000D03*
D11*
X130683000Y-31567000D03*
X130683000Y-35067000D03*
X130683000Y-38567000D03*
X130683000Y-42067000D03*
X130683000Y-45567000D03*
X130683000Y-49067000D03*
X130683000Y-52567000D03*
D10*
X87406000Y-90678000D03*
D11*
X83906000Y-90678000D03*
X80406000Y-90678000D03*
X76906000Y-90678000D03*
X73406000Y-90678000D03*
X69906000Y-90678000D03*
X66406000Y-90678000D03*
X62906000Y-90678000D03*
D12*
X50480000Y-81560000D03*
X86040000Y-33300000D03*
X83500000Y-33300000D03*
X80960000Y-33300000D03*
X78420000Y-33300000D03*
X58100000Y-81560000D03*
X75880000Y-33300000D03*
X73340000Y-33300000D03*
X88707000Y-53620000D03*
X60640000Y-81560000D03*
X116520000Y-33300000D03*
X119060000Y-33300000D03*
X70800000Y-33300000D03*
X68260000Y-33300000D03*
X64196000Y-33300000D03*
X61656000Y-33300000D03*
X59116000Y-33300000D03*
X56576000Y-33300000D03*
X54036000Y-33300000D03*
X51496000Y-33300000D03*
X91120000Y-33300000D03*
X93660000Y-33300000D03*
X96200000Y-33300000D03*
X98740000Y-33300000D03*
X101280000Y-33300000D03*
X103820000Y-33300000D03*
X106360000Y-33300000D03*
X108900000Y-33300000D03*
X116520000Y-35840000D03*
X119060000Y-35840000D03*
X116520000Y-38380000D03*
X119060000Y-38380000D03*
X116520000Y-40920000D03*
X119060000Y-40920000D03*
X116520000Y-43460000D03*
X119060000Y-43460000D03*
X116520000Y-46000000D03*
X119060000Y-46000000D03*
X116520000Y-48540000D03*
X119060000Y-48540000D03*
X116520000Y-51080000D03*
X119060000Y-51080000D03*
X116520000Y-53620000D03*
X119060000Y-53620000D03*
X116520000Y-56160000D03*
X119060000Y-56160000D03*
X116520000Y-58700000D03*
X119060000Y-58700000D03*
X116520000Y-61240000D03*
X119060000Y-61240000D03*
X116520000Y-63780000D03*
X119060000Y-63780000D03*
X116520000Y-66320000D03*
X119060000Y-66320000D03*
X116520000Y-68860000D03*
X119060000Y-68860000D03*
X116520000Y-71400000D03*
X119060000Y-71400000D03*
X116520000Y-73940000D03*
X119060000Y-73940000D03*
X73340000Y-81560000D03*
X75880000Y-81560000D03*
X78420000Y-81560000D03*
X80960000Y-81560000D03*
X83500000Y-81560000D03*
X86040000Y-81560000D03*
X88580000Y-81560000D03*
X91120000Y-81560000D03*
X96200000Y-81560000D03*
X98740000Y-81560000D03*
X101280000Y-81560000D03*
X103820000Y-81560000D03*
X46416000Y-33300000D03*
X111440000Y-81560000D03*
X113980000Y-81560000D03*
X106360000Y-81560000D03*
X108900000Y-81560000D03*
D13*
X63180000Y-81560000D03*
X65720000Y-81560000D03*
X48956000Y-33300000D03*
X88707000Y-58700000D03*
X116520000Y-76480000D03*
X119060000Y-76480000D03*
D12*
X53020000Y-81560000D03*
X86167000Y-53620000D03*
X88707000Y-56160000D03*
X55560000Y-81560000D03*
X86167000Y-58700000D03*
X86167000Y-56160000D03*
X41336000Y-33300000D03*
X43876000Y-33300000D03*
X68260000Y-81560000D03*
D10*
X63180000Y-68240000D03*
D11*
X63180000Y-64740000D03*
X63180000Y-61240000D03*
X63180000Y-57740000D03*
X63180000Y-54240000D03*
X63180000Y-50740000D03*
X63180000Y-47240000D03*
X63180000Y-43740000D03*
D14*
X60640000Y-89180000D02*
X68260000Y-81560000D01*
X58521000Y-89180000D02*
X60640000Y-89180000D01*
X57023000Y-90678000D02*
X58521000Y-89180000D01*
X48785000Y-86755000D02*
X46523000Y-89017000D01*
X55445000Y-86755000D02*
X48785000Y-86755000D01*
X60640000Y-81560000D02*
X55445000Y-86755000D01*
X46523000Y-89017000D02*
X46523000Y-90678000D01*
X58100000Y-81560000D02*
X53355000Y-86305000D01*
X45735000Y-86305000D02*
X43023000Y-89017000D01*
X53355000Y-86305000D02*
X45735000Y-86305000D01*
X43023000Y-89017000D02*
X43023000Y-90678000D01*
X42685000Y-85855000D02*
X39523000Y-89017000D01*
X55560000Y-81560000D02*
X51265000Y-85855000D01*
X51265000Y-85855000D02*
X42685000Y-85855000D01*
X39523000Y-89017000D02*
X39523000Y-90678000D01*
X36023000Y-89017000D02*
X36023000Y-90678000D01*
X50480000Y-84100000D02*
X40940000Y-84100000D01*
X53020000Y-81560000D02*
X50480000Y-84100000D01*
X40940000Y-84100000D02*
X36023000Y-89017000D01*
X91120000Y-86964000D02*
X87406000Y-90678000D01*
X91120000Y-81560000D02*
X91120000Y-86964000D01*
X88580000Y-81560000D02*
X88580000Y-86004000D01*
X88580000Y-86004000D02*
X83906000Y-90678000D01*
X86040000Y-85044000D02*
X80406000Y-90678000D01*
X86040000Y-81560000D02*
X86040000Y-85044000D01*
X76906000Y-90226000D02*
X76906000Y-90678000D01*
X83500000Y-81560000D02*
X83500000Y-83632000D01*
X83500000Y-83632000D02*
X76906000Y-90226000D01*
X80960000Y-81560000D02*
X80960000Y-82616000D01*
X73406000Y-90170000D02*
X73406000Y-90678000D01*
X80960000Y-82616000D02*
X73406000Y-90170000D01*
X69906000Y-90074000D02*
X69906000Y-90678000D01*
X78420000Y-81560000D02*
X69906000Y-90074000D01*
X75524000Y-81560000D02*
X75880000Y-81560000D01*
X66406000Y-90678000D02*
X75524000Y-81560000D01*
X71856000Y-81560000D02*
X73340000Y-81560000D01*
X62906000Y-90510000D02*
X71856000Y-81560000D01*
X62906000Y-90678000D02*
X62906000Y-90510000D01*
X113980000Y-81560000D02*
X113980000Y-87392000D01*
X113980000Y-87392000D02*
X117266000Y-90678000D01*
X111440000Y-88352000D02*
X113766000Y-90678000D01*
X111440000Y-81560000D02*
X111440000Y-88352000D01*
X108900000Y-81560000D02*
X108900000Y-89312000D01*
X108900000Y-89312000D02*
X110266000Y-90678000D01*
X106360000Y-81560000D02*
X106360000Y-90272000D01*
X106360000Y-90272000D02*
X106766000Y-90678000D01*
X103820000Y-90124000D02*
X103266000Y-90678000D01*
X103820000Y-81560000D02*
X103820000Y-90124000D01*
X101280000Y-81560000D02*
X101280000Y-89164000D01*
X101280000Y-89164000D02*
X99766000Y-90678000D01*
X98740000Y-81560000D02*
X98740000Y-88204000D01*
X98740000Y-88204000D02*
X96266000Y-90678000D01*
X96200000Y-87244000D02*
X92766000Y-90678000D01*
X96200000Y-81560000D02*
X96200000Y-87244000D01*
X72898000Y-58522000D02*
X63180000Y-68240000D01*
X116520000Y-51080000D02*
X107375000Y-41935000D01*
X74865000Y-41935000D02*
X72898000Y-43902000D01*
X72898000Y-43902000D02*
X72898000Y-58522000D01*
X107375000Y-41935000D02*
X74865000Y-41935000D01*
X116520000Y-48540000D02*
X111440000Y-43460000D01*
X70800000Y-40920000D02*
X70800000Y-57120000D01*
X70800000Y-57120000D02*
X63180000Y-64740000D01*
X111440000Y-43460000D02*
X111440000Y-39015000D01*
X111440000Y-39015000D02*
X72705000Y-39015000D01*
X72705000Y-39015000D02*
X70800000Y-40920000D01*
X73340000Y-35840000D02*
X68260000Y-40920000D01*
X63180000Y-61240000D02*
X68260000Y-56160000D01*
X113980000Y-35840000D02*
X113980000Y-43460000D01*
X113980000Y-43460000D02*
X116520000Y-46000000D01*
X73340000Y-35840000D02*
X113980000Y-35840000D01*
X68260000Y-56160000D02*
X68260000Y-40920000D01*
X63160000Y-24130000D02*
X63160000Y-28200000D01*
X63160000Y-28200000D02*
X68260000Y-33300000D01*
X70638000Y-33300000D02*
X70800000Y-33300000D01*
X66660000Y-29322000D02*
X70638000Y-33300000D01*
X66660000Y-24130000D02*
X66660000Y-29322000D01*
X70160000Y-24130000D02*
X70358000Y-24328000D01*
X70358000Y-30318000D02*
X73340000Y-33300000D01*
X70358000Y-24328000D02*
X70358000Y-30318000D01*
X73660000Y-31080000D02*
X75880000Y-33300000D01*
X73660000Y-24130000D02*
X73660000Y-31080000D01*
X77160000Y-24130000D02*
X77160000Y-32040000D01*
X77160000Y-32040000D02*
X78420000Y-33300000D01*
X80660000Y-33000000D02*
X80960000Y-33300000D01*
X80660000Y-24130000D02*
X80660000Y-33000000D01*
X84160000Y-32640000D02*
X83500000Y-33300000D01*
X84160000Y-24130000D02*
X84160000Y-32640000D01*
X87660000Y-24130000D02*
X87660000Y-31680000D01*
X87660000Y-31680000D02*
X86040000Y-33300000D01*
X93020000Y-31400000D02*
X91120000Y-33300000D01*
X93020000Y-24130000D02*
X93020000Y-31400000D01*
X96520000Y-30440000D02*
X93660000Y-33300000D01*
X96520000Y-24130000D02*
X96520000Y-30440000D01*
X100020000Y-24130000D02*
X100020000Y-29480000D01*
X100020000Y-29480000D02*
X96200000Y-33300000D01*
X103520000Y-24130000D02*
X103520000Y-28520000D01*
X103520000Y-28520000D02*
X98740000Y-33300000D01*
X107020000Y-27560000D02*
X101280000Y-33300000D01*
X107020000Y-24130000D02*
X107020000Y-27560000D01*
X110520000Y-26600000D02*
X103820000Y-33300000D01*
X110520000Y-24130000D02*
X110520000Y-26600000D01*
X106400000Y-33300000D02*
X106360000Y-33300000D01*
X114020000Y-25680000D02*
X106400000Y-33300000D01*
X114020000Y-24130000D02*
X114020000Y-25680000D01*
X108900000Y-32750000D02*
X108900000Y-33300000D01*
X117520000Y-24130000D02*
X108900000Y-32750000D01*
X119086000Y-33274000D02*
X119060000Y-33300000D01*
X125476000Y-33274000D02*
X119086000Y-33274000D01*
X130683000Y-28067000D02*
X125476000Y-33274000D01*
X119086000Y-35814000D02*
X119060000Y-35840000D01*
X126436000Y-35814000D02*
X119086000Y-35814000D01*
X130683000Y-31567000D02*
X126436000Y-35814000D01*
X127370000Y-38380000D02*
X119060000Y-38380000D01*
X130683000Y-35067000D02*
X127370000Y-38380000D01*
X128330000Y-40920000D02*
X130683000Y-38567000D01*
X119060000Y-40920000D02*
X128330000Y-40920000D01*
X129290000Y-43460000D02*
X119060000Y-43460000D01*
X130683000Y-42067000D02*
X129290000Y-43460000D01*
X119060000Y-46000000D02*
X130250000Y-46000000D01*
X130250000Y-46000000D02*
X130683000Y-45567000D01*
X130683000Y-49067000D02*
X119587000Y-49067000D01*
X119587000Y-49067000D02*
X119060000Y-48540000D01*
X129196000Y-51080000D02*
X130683000Y-52567000D01*
X119060000Y-51080000D02*
X129196000Y-51080000D01*
X130683000Y-58547000D02*
X123987000Y-58547000D01*
X123987000Y-58547000D02*
X119060000Y-53620000D01*
X130683000Y-62047000D02*
X124947000Y-62047000D01*
X124947000Y-62047000D02*
X119060000Y-56160000D01*
X125907000Y-65547000D02*
X119060000Y-58700000D01*
X130683000Y-65547000D02*
X125907000Y-65547000D01*
X126867000Y-69047000D02*
X119060000Y-61240000D01*
X130683000Y-69047000D02*
X126867000Y-69047000D01*
X38436000Y-30226000D02*
X32340000Y-24130000D01*
X43342000Y-30226000D02*
X38436000Y-30226000D01*
X46416000Y-33300000D02*
X43342000Y-30226000D01*
X51496000Y-33300000D02*
X46898000Y-28702000D01*
X43912000Y-28702000D02*
X39340000Y-24130000D01*
X46898000Y-28702000D02*
X43912000Y-28702000D01*
X46650000Y-27940000D02*
X42840000Y-24130000D01*
X54036000Y-33300000D02*
X48676000Y-27940000D01*
X48676000Y-27940000D02*
X46650000Y-27940000D01*
X51216000Y-27940000D02*
X50150000Y-27940000D01*
X50150000Y-27940000D02*
X46340000Y-24130000D01*
X56576000Y-33300000D02*
X51216000Y-27940000D01*
X59116000Y-33300000D02*
X49946000Y-24130000D01*
X49946000Y-24130000D02*
X49840000Y-24130000D01*
X61656000Y-33300000D02*
X53340000Y-24984000D01*
X53340000Y-24984000D02*
X53340000Y-24130000D01*
X64196000Y-31486000D02*
X56840000Y-24130000D01*
X64196000Y-33300000D02*
X64196000Y-31486000D01*
X80280000Y-68860000D02*
X116520000Y-68860000D01*
X75880000Y-64460000D02*
X80280000Y-68860000D01*
X103540000Y-60960000D02*
X108900000Y-66320000D01*
X108900000Y-66320000D02*
X116520000Y-66320000D01*
X75880000Y-60960000D02*
X103540000Y-60960000D01*
X75880000Y-57460000D02*
X103706198Y-57460000D01*
X103706198Y-57460000D02*
X110026198Y-63780000D01*
X110026198Y-63780000D02*
X116520000Y-63780000D01*
X111224297Y-61240000D02*
X104792897Y-54808600D01*
X104792897Y-54808600D02*
X76728600Y-54808600D01*
X116520000Y-61240000D02*
X111224297Y-61240000D01*
X76728600Y-54808600D02*
X75880000Y-53960000D01*
X113980000Y-58700000D02*
X107711400Y-52431400D01*
X77851400Y-52431400D02*
X75880000Y-50460000D01*
X107711400Y-52431400D02*
X77851400Y-52431400D01*
X116520000Y-58700000D02*
X113980000Y-58700000D01*
X110875000Y-50515000D02*
X79435000Y-50515000D01*
X116520000Y-56160000D02*
X110875000Y-50515000D01*
X79435000Y-50515000D02*
X75880000Y-46960000D01*
X116520000Y-53620000D02*
X106360000Y-43460000D01*
X75880000Y-43460000D02*
X106360000Y-43460000D01*
X127827000Y-72547000D02*
X119060000Y-63780000D01*
X130683000Y-72547000D02*
X127827000Y-72547000D01*
X119060000Y-76480000D02*
X127616000Y-76480000D01*
X63180000Y-81560000D02*
X57535000Y-87205000D01*
X53496000Y-87205000D02*
X50023000Y-90678000D01*
X59625000Y-87655000D02*
X65720000Y-81560000D01*
X45120000Y-29464000D02*
X41174000Y-29464000D01*
X127616000Y-76480000D02*
X130683000Y-79547000D01*
X48956000Y-33300000D02*
X45120000Y-29464000D01*
X56546000Y-87655000D02*
X59625000Y-87655000D01*
X53523000Y-90678000D02*
X56546000Y-87655000D01*
X57535000Y-87205000D02*
X53496000Y-87205000D01*
X41174000Y-29464000D02*
X35840000Y-24130000D01*
X128787000Y-76047000D02*
X119060000Y-66320000D01*
X130683000Y-76047000D02*
X128787000Y-76047000D01*
G04 #@! TA.AperFunction,Conductor*
G36*
X65970000Y-82914046D02*
G01*
X65950315Y-82981085D01*
X65933681Y-83001727D01*
X60417228Y-88518181D01*
X60355905Y-88551666D01*
X60329547Y-88554500D01*
X58603743Y-88554500D01*
X58588122Y-88552775D01*
X58588096Y-88553061D01*
X58580334Y-88552327D01*
X58580333Y-88552327D01*
X58511186Y-88554500D01*
X58481649Y-88554500D01*
X58474766Y-88555369D01*
X58468949Y-88555826D01*
X58422373Y-88557290D01*
X58403129Y-88562881D01*
X58384079Y-88566825D01*
X58364211Y-88569334D01*
X58320884Y-88586488D01*
X58315358Y-88588379D01*
X58270614Y-88601379D01*
X58270610Y-88601381D01*
X58253366Y-88611579D01*
X58235905Y-88620133D01*
X58217274Y-88627510D01*
X58217262Y-88627517D01*
X58179570Y-88654902D01*
X58174687Y-88658109D01*
X58134580Y-88681829D01*
X58120414Y-88695995D01*
X58105624Y-88708627D01*
X58089414Y-88720404D01*
X58089411Y-88720407D01*
X58059710Y-88756309D01*
X58055777Y-88760631D01*
X57875227Y-88941181D01*
X57813904Y-88974666D01*
X57787546Y-88977500D01*
X55775129Y-88977500D01*
X55775123Y-88977501D01*
X55715516Y-88983908D01*
X55580671Y-89034202D01*
X55580664Y-89034206D01*
X55465455Y-89120452D01*
X55465452Y-89120455D01*
X55379206Y-89235664D01*
X55379202Y-89235671D01*
X55328908Y-89370517D01*
X55322892Y-89426479D01*
X55322501Y-89430123D01*
X55322500Y-89430135D01*
X55322500Y-89954509D01*
X55302815Y-90021548D01*
X55250011Y-90067303D01*
X55180853Y-90077247D01*
X55117297Y-90048222D01*
X55083072Y-89999811D01*
X55058941Y-89938328D01*
X55058942Y-89938328D01*
X54931544Y-89717671D01*
X54889546Y-89665006D01*
X54085772Y-90468779D01*
X54047099Y-90375412D01*
X53950925Y-90250075D01*
X53825588Y-90153901D01*
X53732220Y-90115227D01*
X54536185Y-89311261D01*
X54375377Y-89201624D01*
X54375376Y-89201623D01*
X54145823Y-89091078D01*
X54145825Y-89091078D01*
X53902347Y-89015975D01*
X53902341Y-89015973D01*
X53650404Y-88978000D01*
X53395595Y-88978000D01*
X53143658Y-89015973D01*
X53143652Y-89015975D01*
X52900175Y-89091078D01*
X52670624Y-89201623D01*
X52670616Y-89201628D01*
X52509813Y-89311261D01*
X53313779Y-90115227D01*
X53220412Y-90153901D01*
X53095075Y-90250075D01*
X52998901Y-90375411D01*
X52960226Y-90468779D01*
X52156453Y-89665006D01*
X52114455Y-89717670D01*
X51987058Y-89938328D01*
X51893973Y-90175505D01*
X51893968Y-90175522D01*
X51893891Y-90175860D01*
X51893830Y-90175968D01*
X51892600Y-90179956D01*
X51891747Y-90179692D01*
X51859782Y-90236838D01*
X51798121Y-90269696D01*
X51728484Y-90264001D01*
X51672980Y-90221561D01*
X51653907Y-90179799D01*
X51653400Y-90179956D01*
X51652192Y-90176043D01*
X51652109Y-90175860D01*
X51652031Y-90175522D01*
X51652026Y-90175505D01*
X51558941Y-89938328D01*
X51558942Y-89938328D01*
X51431544Y-89717671D01*
X51389546Y-89665006D01*
X50585772Y-90468779D01*
X50547099Y-90375412D01*
X50450925Y-90250075D01*
X50325588Y-90153901D01*
X50232220Y-90115227D01*
X51036185Y-89311261D01*
X50875377Y-89201624D01*
X50875376Y-89201623D01*
X50645823Y-89091078D01*
X50645825Y-89091078D01*
X50402347Y-89015975D01*
X50402341Y-89015973D01*
X50150404Y-88978000D01*
X49895595Y-88978000D01*
X49643658Y-89015973D01*
X49643652Y-89015975D01*
X49400175Y-89091078D01*
X49170624Y-89201623D01*
X49170616Y-89201628D01*
X49009813Y-89311261D01*
X49813779Y-90115227D01*
X49720412Y-90153901D01*
X49595075Y-90250075D01*
X49498901Y-90375411D01*
X49460226Y-90468779D01*
X48656453Y-89665006D01*
X48614455Y-89717670D01*
X48487058Y-89938328D01*
X48393973Y-90175505D01*
X48392600Y-90179956D01*
X48391432Y-90179595D01*
X48360026Y-90235726D01*
X48298360Y-90268575D01*
X48228724Y-90262871D01*
X48173226Y-90220423D01*
X48154581Y-90179587D01*
X48153878Y-90179804D01*
X48152509Y-90175371D01*
X48152508Y-90175363D01*
X48059393Y-89938112D01*
X47931959Y-89717388D01*
X47773050Y-89518123D01*
X47586217Y-89344768D01*
X47408766Y-89223784D01*
X47364465Y-89169756D01*
X47356407Y-89100352D01*
X47387149Y-89037610D01*
X47390912Y-89033676D01*
X49007772Y-87416819D01*
X49069095Y-87383334D01*
X49095453Y-87380500D01*
X55362257Y-87380500D01*
X55377877Y-87382224D01*
X55377904Y-87381939D01*
X55385660Y-87382671D01*
X55385667Y-87382673D01*
X55454814Y-87380500D01*
X55484350Y-87380500D01*
X55491228Y-87379630D01*
X55497041Y-87379172D01*
X55543627Y-87377709D01*
X55562869Y-87372117D01*
X55581912Y-87368174D01*
X55601792Y-87365664D01*
X55645122Y-87348507D01*
X55650646Y-87346617D01*
X55654396Y-87345527D01*
X55695390Y-87333618D01*
X55712629Y-87323422D01*
X55730103Y-87314862D01*
X55748727Y-87307488D01*
X55748727Y-87307487D01*
X55748732Y-87307486D01*
X55786449Y-87280082D01*
X55791305Y-87276892D01*
X55831420Y-87253170D01*
X55845589Y-87238999D01*
X55860379Y-87226368D01*
X55876587Y-87214594D01*
X55906299Y-87178676D01*
X55910212Y-87174376D01*
X60170130Y-82914459D01*
X60231451Y-82880976D01*
X60298075Y-82884862D01*
X60303983Y-82886890D01*
X60303986Y-82886891D01*
X60526967Y-82924100D01*
X60526968Y-82924100D01*
X60753032Y-82924100D01*
X60753033Y-82924100D01*
X60976014Y-82886891D01*
X61189831Y-82813488D01*
X61388649Y-82705893D01*
X61567046Y-82567040D01*
X61621815Y-82507545D01*
X61681699Y-82471557D01*
X61751537Y-82473657D01*
X61809153Y-82513180D01*
X61829224Y-82548196D01*
X61873046Y-82665688D01*
X61873049Y-82665693D01*
X61959209Y-82780787D01*
X61959212Y-82780790D01*
X62074306Y-82866950D01*
X62074313Y-82866954D01*
X62209020Y-82917196D01*
X62209027Y-82917198D01*
X62268555Y-82923599D01*
X62268572Y-82923600D01*
X62930000Y-82923600D01*
X62930000Y-82004297D01*
X63035408Y-82052435D01*
X63143666Y-82068000D01*
X63216334Y-82068000D01*
X63324592Y-82052435D01*
X63430000Y-82004297D01*
X63430000Y-82923600D01*
X64091428Y-82923600D01*
X64091444Y-82923599D01*
X64150972Y-82917198D01*
X64150979Y-82917196D01*
X64285686Y-82866954D01*
X64285689Y-82866952D01*
X64375688Y-82799579D01*
X64441152Y-82775161D01*
X64509426Y-82790012D01*
X64524312Y-82799579D01*
X64614310Y-82866952D01*
X64614313Y-82866954D01*
X64749020Y-82917196D01*
X64749027Y-82917198D01*
X64808555Y-82923599D01*
X64808572Y-82923600D01*
X65470000Y-82923600D01*
X65470000Y-82004297D01*
X65575408Y-82052435D01*
X65683666Y-82068000D01*
X65756334Y-82068000D01*
X65864592Y-82052435D01*
X65970000Y-82004297D01*
X65970000Y-82914046D01*
G37*
G04 #@! TD.AperFunction*
G04 #@! TA.AperFunction,Conductor*
G36*
X65253155Y-81346799D02*
G01*
X65212000Y-81486961D01*
X65212000Y-81633039D01*
X65253155Y-81773201D01*
X65276804Y-81810000D01*
X63623196Y-81810000D01*
X63646845Y-81773201D01*
X63688000Y-81633039D01*
X63688000Y-81486961D01*
X63646845Y-81346799D01*
X63623196Y-81310000D01*
X65276804Y-81310000D01*
X65253155Y-81346799D01*
G37*
G04 #@! TD.AperFunction*
G04 #@! TA.AperFunction,Conductor*
G36*
X118593155Y-76266799D02*
G01*
X118552000Y-76406961D01*
X118552000Y-76553039D01*
X118593155Y-76693201D01*
X118616804Y-76730000D01*
X116963196Y-76730000D01*
X116986845Y-76693201D01*
X117028000Y-76553039D01*
X117028000Y-76406961D01*
X116986845Y-76266799D01*
X116963196Y-76230000D01*
X118616804Y-76230000D01*
X118593155Y-76266799D01*
G37*
G04 #@! TD.AperFunction*
G04 #@! TA.AperFunction,Conductor*
G36*
X84824227Y-58105185D02*
G01*
X84869982Y-58157989D01*
X84879926Y-58227147D01*
X84873269Y-58250442D01*
X84874053Y-58250711D01*
X84872390Y-58255554D01*
X84816892Y-58474710D01*
X84798225Y-58699993D01*
X84798225Y-58700006D01*
X84816892Y-58925289D01*
X84872388Y-59144439D01*
X84963198Y-59351466D01*
X85086842Y-59540716D01*
X85086850Y-59540727D01*
X85239950Y-59707036D01*
X85239954Y-59707040D01*
X85418351Y-59845893D01*
X85617169Y-59953488D01*
X85617172Y-59953489D01*
X85830982Y-60026890D01*
X85830984Y-60026890D01*
X85830986Y-60026891D01*
X86053967Y-60064100D01*
X86053968Y-60064100D01*
X86280032Y-60064100D01*
X86280033Y-60064100D01*
X86503014Y-60026891D01*
X86716831Y-59953488D01*
X86915649Y-59845893D01*
X87094046Y-59707040D01*
X87148815Y-59647545D01*
X87208699Y-59611557D01*
X87278537Y-59613657D01*
X87336153Y-59653180D01*
X87356224Y-59688196D01*
X87400046Y-59805688D01*
X87400049Y-59805693D01*
X87486209Y-59920787D01*
X87486212Y-59920790D01*
X87601306Y-60006950D01*
X87601313Y-60006954D01*
X87736020Y-60057196D01*
X87736027Y-60057198D01*
X87795555Y-60063599D01*
X87795572Y-60063600D01*
X88457000Y-60063600D01*
X88457000Y-59144297D01*
X88562408Y-59192435D01*
X88670666Y-59208000D01*
X88743334Y-59208000D01*
X88851592Y-59192435D01*
X88957000Y-59144297D01*
X88957000Y-60063600D01*
X89618428Y-60063600D01*
X89618444Y-60063599D01*
X89677972Y-60057198D01*
X89677979Y-60057196D01*
X89812686Y-60006954D01*
X89812693Y-60006950D01*
X89927787Y-59920790D01*
X89927790Y-59920787D01*
X90013950Y-59805693D01*
X90013954Y-59805686D01*
X90064196Y-59670979D01*
X90064198Y-59670972D01*
X90070599Y-59611444D01*
X90070600Y-59611427D01*
X90070600Y-58950000D01*
X89150196Y-58950000D01*
X89173845Y-58913201D01*
X89215000Y-58773039D01*
X89215000Y-58626961D01*
X89173845Y-58486799D01*
X89150196Y-58450000D01*
X90070600Y-58450000D01*
X90070600Y-58209500D01*
X90090285Y-58142461D01*
X90143089Y-58096706D01*
X90194600Y-58085500D01*
X103395746Y-58085500D01*
X103462785Y-58105185D01*
X103483427Y-58121819D01*
X109525392Y-64163784D01*
X109535217Y-64176048D01*
X109535438Y-64175866D01*
X109540408Y-64181873D01*
X109540411Y-64181876D01*
X109540412Y-64181877D01*
X109590849Y-64229241D01*
X109611728Y-64250120D01*
X109617202Y-64254366D01*
X109621640Y-64258156D01*
X109655616Y-64290062D01*
X109655620Y-64290064D01*
X109673171Y-64299713D01*
X109689429Y-64310392D01*
X109705262Y-64322674D01*
X109727213Y-64332172D01*
X109748035Y-64341183D01*
X109753279Y-64343752D01*
X109794106Y-64366197D01*
X109813510Y-64371179D01*
X109831908Y-64377478D01*
X109850303Y-64385438D01*
X109896327Y-64392726D01*
X109902030Y-64393907D01*
X109947179Y-64405500D01*
X109967214Y-64405500D01*
X109986611Y-64407026D01*
X110006394Y-64410160D01*
X110052782Y-64405775D01*
X110058620Y-64405500D01*
X115232129Y-64405500D01*
X115299168Y-64425185D01*
X115335937Y-64461678D01*
X115439842Y-64620716D01*
X115439850Y-64620727D01*
X115592950Y-64787036D01*
X115592954Y-64787040D01*
X115771351Y-64925893D01*
X115799165Y-64940945D01*
X115848755Y-64990165D01*
X115863863Y-65058382D01*
X115839692Y-65123937D01*
X115799165Y-65159055D01*
X115771352Y-65174106D01*
X115592955Y-65312959D01*
X115592950Y-65312963D01*
X115439850Y-65479272D01*
X115439842Y-65479283D01*
X115335937Y-65638322D01*
X115282791Y-65683678D01*
X115232129Y-65694500D01*
X109210452Y-65694500D01*
X109143413Y-65674815D01*
X109122771Y-65658181D01*
X106593125Y-63128535D01*
X104040803Y-60576212D01*
X104030980Y-60563950D01*
X104030759Y-60564134D01*
X104025786Y-60558123D01*
X103996869Y-60530968D01*
X103975364Y-60510773D01*
X103964700Y-60500109D01*
X103954475Y-60489883D01*
X103948986Y-60485625D01*
X103944561Y-60481847D01*
X103910582Y-60449938D01*
X103910580Y-60449936D01*
X103910577Y-60449935D01*
X103893029Y-60440288D01*
X103876763Y-60429604D01*
X103860933Y-60417325D01*
X103818168Y-60398818D01*
X103812922Y-60396248D01*
X103772093Y-60373803D01*
X103772092Y-60373802D01*
X103752693Y-60368822D01*
X103734281Y-60362518D01*
X103715898Y-60354562D01*
X103715892Y-60354560D01*
X103669874Y-60347272D01*
X103664152Y-60346087D01*
X103619021Y-60334500D01*
X103619019Y-60334500D01*
X103598984Y-60334500D01*
X103579586Y-60332973D01*
X103572162Y-60331797D01*
X103559805Y-60329840D01*
X103559804Y-60329840D01*
X103513416Y-60334225D01*
X103507578Y-60334500D01*
X77545828Y-60334500D01*
X77478789Y-60314815D01*
X77433034Y-60262011D01*
X77430411Y-60255829D01*
X77416393Y-60220112D01*
X77288959Y-59999388D01*
X77130050Y-59800123D01*
X76943217Y-59626768D01*
X76732634Y-59483195D01*
X76732630Y-59483193D01*
X76732627Y-59483191D01*
X76732626Y-59483190D01*
X76503006Y-59372612D01*
X76503008Y-59372612D01*
X76359970Y-59328491D01*
X76301711Y-59289921D01*
X76273553Y-59225976D01*
X76284437Y-59156959D01*
X76330906Y-59104782D01*
X76359970Y-59091509D01*
X76503004Y-59047389D01*
X76732634Y-58936805D01*
X76943217Y-58793232D01*
X77130050Y-58619877D01*
X77288959Y-58420612D01*
X77416393Y-58199888D01*
X77430400Y-58164196D01*
X77473215Y-58108985D01*
X77539085Y-58085683D01*
X77545828Y-58085500D01*
X84757188Y-58085500D01*
X84824227Y-58105185D01*
G37*
G04 #@! TD.AperFunction*
G04 #@! TA.AperFunction,Conductor*
G36*
X37206545Y-25142993D02*
G01*
X37248545Y-25090327D01*
X37375941Y-24869671D01*
X37469026Y-24632494D01*
X37470400Y-24628044D01*
X37471574Y-24628406D01*
X37502945Y-24572300D01*
X37564601Y-24539432D01*
X37634239Y-24545115D01*
X37689750Y-24587545D01*
X37708420Y-24628412D01*
X37709122Y-24628196D01*
X37710492Y-24632637D01*
X37803607Y-24869888D01*
X37931041Y-25090612D01*
X38089950Y-25289877D01*
X38276783Y-25463232D01*
X38487366Y-25606805D01*
X38487371Y-25606807D01*
X38487372Y-25606808D01*
X38487373Y-25606809D01*
X38591591Y-25656997D01*
X38716992Y-25717387D01*
X38716993Y-25717387D01*
X38716996Y-25717389D01*
X38960542Y-25792513D01*
X39212565Y-25830500D01*
X39467435Y-25830500D01*
X39719458Y-25792513D01*
X39952594Y-25720599D01*
X40022452Y-25719650D01*
X40076819Y-25751409D01*
X41745697Y-27420288D01*
X43411197Y-29085788D01*
X43421022Y-29098051D01*
X43421243Y-29097869D01*
X43426214Y-29103878D01*
X43452217Y-29128295D01*
X43476635Y-29151226D01*
X43497529Y-29172120D01*
X43503011Y-29176373D01*
X43507443Y-29180157D01*
X43541418Y-29212062D01*
X43558976Y-29221714D01*
X43575235Y-29232395D01*
X43591064Y-29244673D01*
X43633838Y-29263182D01*
X43639056Y-29265738D01*
X43679908Y-29288197D01*
X43699316Y-29293180D01*
X43717717Y-29299480D01*
X43736104Y-29307437D01*
X43779488Y-29314308D01*
X43782119Y-29314725D01*
X43787839Y-29315909D01*
X43832981Y-29327500D01*
X43853016Y-29327500D01*
X43872414Y-29329026D01*
X43892194Y-29332159D01*
X43892195Y-29332160D01*
X43892195Y-29332159D01*
X43892196Y-29332160D01*
X43938584Y-29327775D01*
X43944422Y-29327500D01*
X46587548Y-29327500D01*
X46654587Y-29347185D01*
X46675228Y-29363818D01*
X49169681Y-31858272D01*
X49203166Y-31919594D01*
X49206000Y-31945952D01*
X49206000Y-32855702D01*
X49100592Y-32807565D01*
X48992334Y-32792000D01*
X48919666Y-32792000D01*
X48811408Y-32807565D01*
X48706000Y-32855702D01*
X48706000Y-31936400D01*
X48044555Y-31936400D01*
X47985027Y-31942801D01*
X47985020Y-31942803D01*
X47850313Y-31993045D01*
X47850306Y-31993049D01*
X47735212Y-32079209D01*
X47735209Y-32079212D01*
X47649049Y-32194306D01*
X47649046Y-32194312D01*
X47605224Y-32311803D01*
X47563352Y-32367736D01*
X47497887Y-32392153D01*
X47429615Y-32377301D01*
X47397813Y-32352452D01*
X47343049Y-32292963D01*
X47343048Y-32292962D01*
X47343046Y-32292960D01*
X47164649Y-32154107D01*
X47106479Y-32122627D01*
X46965832Y-32046512D01*
X46965827Y-32046510D01*
X46752017Y-31973109D01*
X46558954Y-31940893D01*
X46529033Y-31935900D01*
X46302967Y-31935900D01*
X46283431Y-31939160D01*
X46079982Y-31973109D01*
X46074067Y-31975140D01*
X46004268Y-31978286D01*
X45946129Y-31945538D01*
X43842803Y-29842212D01*
X43832980Y-29829950D01*
X43832759Y-29830134D01*
X43827786Y-29824123D01*
X43819940Y-29816755D01*
X43777364Y-29776773D01*
X43766919Y-29766328D01*
X43756475Y-29755883D01*
X43750986Y-29751625D01*
X43746561Y-29747847D01*
X43712582Y-29715938D01*
X43712580Y-29715936D01*
X43712577Y-29715935D01*
X43695029Y-29706288D01*
X43678763Y-29695604D01*
X43662933Y-29683325D01*
X43620168Y-29664818D01*
X43614922Y-29662248D01*
X43574093Y-29639803D01*
X43574092Y-29639802D01*
X43554693Y-29634822D01*
X43536281Y-29628518D01*
X43517898Y-29620562D01*
X43517892Y-29620560D01*
X43471874Y-29613272D01*
X43466152Y-29612087D01*
X43421021Y-29600500D01*
X43421019Y-29600500D01*
X43400984Y-29600500D01*
X43381586Y-29598973D01*
X43374162Y-29597797D01*
X43361805Y-29595840D01*
X43361804Y-29595840D01*
X43315416Y-29600225D01*
X43309578Y-29600500D01*
X38746452Y-29600500D01*
X38679413Y-29580815D01*
X38658771Y-29564181D01*
X34950738Y-25856147D01*
X34917253Y-25794824D01*
X34922237Y-25725132D01*
X34964109Y-25669199D01*
X35029573Y-25644782D01*
X35092221Y-25656746D01*
X35217178Y-25716922D01*
X35460652Y-25792024D01*
X35460658Y-25792026D01*
X35712595Y-25829999D01*
X35712604Y-25830000D01*
X35967396Y-25830000D01*
X35967404Y-25829999D01*
X36219341Y-25792026D01*
X36219347Y-25792024D01*
X36462824Y-25716921D01*
X36692381Y-25606373D01*
X36853185Y-25496737D01*
X36049220Y-24692772D01*
X36142588Y-24654099D01*
X36267925Y-24557925D01*
X36364099Y-24432589D01*
X36402773Y-24339220D01*
X37206545Y-25142993D01*
G37*
G04 #@! TD.AperFunction*
G04 #@! TA.AperFunction,Conductor*
G36*
X134642539Y-20320185D02*
G01*
X134688294Y-20372989D01*
X134699500Y-20424500D01*
X134699500Y-94575500D01*
X134679815Y-94642539D01*
X134627011Y-94688294D01*
X134575500Y-94699500D01*
X20424500Y-94699500D01*
X20357461Y-94679815D01*
X20311706Y-94627011D01*
X20300500Y-94575500D01*
X20300500Y-90678004D01*
X34317732Y-90678004D01*
X34336777Y-90932154D01*
X34393379Y-91180145D01*
X34393492Y-91180637D01*
X34486607Y-91417888D01*
X34614041Y-91638612D01*
X34772950Y-91837877D01*
X34959783Y-92011232D01*
X35170366Y-92154805D01*
X35170371Y-92154807D01*
X35170372Y-92154808D01*
X35170373Y-92154809D01*
X35292328Y-92213538D01*
X35399992Y-92265387D01*
X35399993Y-92265387D01*
X35399996Y-92265389D01*
X35643542Y-92340513D01*
X35895565Y-92378500D01*
X36150435Y-92378500D01*
X36402458Y-92340513D01*
X36646004Y-92265389D01*
X36875634Y-92154805D01*
X37086217Y-92011232D01*
X37273050Y-91837877D01*
X37431959Y-91638612D01*
X37559393Y-91417888D01*
X37652508Y-91180637D01*
X37652510Y-91180624D01*
X37653878Y-91176196D01*
X37655324Y-91176642D01*
X37686213Y-91121412D01*
X37747873Y-91088552D01*
X37817510Y-91094243D01*
X37873016Y-91136680D01*
X37891192Y-91176482D01*
X37892122Y-91176196D01*
X37893490Y-91180630D01*
X37893492Y-91180637D01*
X37986607Y-91417888D01*
X38114041Y-91638612D01*
X38272950Y-91837877D01*
X38459783Y-92011232D01*
X38670366Y-92154805D01*
X38670371Y-92154807D01*
X38670372Y-92154808D01*
X38670373Y-92154809D01*
X38792328Y-92213538D01*
X38899992Y-92265387D01*
X38899993Y-92265387D01*
X38899996Y-92265389D01*
X39143542Y-92340513D01*
X39395565Y-92378500D01*
X39650435Y-92378500D01*
X39902458Y-92340513D01*
X40146004Y-92265389D01*
X40375634Y-92154805D01*
X40586217Y-92011232D01*
X40773050Y-91837877D01*
X40931959Y-91638612D01*
X41059393Y-91417888D01*
X41152508Y-91180637D01*
X41152510Y-91180624D01*
X41153878Y-91176196D01*
X41155324Y-91176642D01*
X41186213Y-91121412D01*
X41247873Y-91088552D01*
X41317510Y-91094243D01*
X41373016Y-91136680D01*
X41391192Y-91176482D01*
X41392122Y-91176196D01*
X41393490Y-91180630D01*
X41393492Y-91180637D01*
X41486607Y-91417888D01*
X41614041Y-91638612D01*
X41772950Y-91837877D01*
X41959783Y-92011232D01*
X42170366Y-92154805D01*
X42170371Y-92154807D01*
X42170372Y-92154808D01*
X42170373Y-92154809D01*
X42292328Y-92213538D01*
X42399992Y-92265387D01*
X42399993Y-92265387D01*
X42399996Y-92265389D01*
X42643542Y-92340513D01*
X42895565Y-92378500D01*
X43150435Y-92378500D01*
X43402458Y-92340513D01*
X43646004Y-92265389D01*
X43875634Y-92154805D01*
X44086217Y-92011232D01*
X44273050Y-91837877D01*
X44431959Y-91638612D01*
X44559393Y-91417888D01*
X44652508Y-91180637D01*
X44652510Y-91180624D01*
X44653878Y-91176196D01*
X44655324Y-91176642D01*
X44686213Y-91121412D01*
X44747873Y-91088552D01*
X44817510Y-91094243D01*
X44873016Y-91136680D01*
X44891192Y-91176482D01*
X44892122Y-91176196D01*
X44893490Y-91180630D01*
X44893492Y-91180637D01*
X44986607Y-91417888D01*
X45114041Y-91638612D01*
X45272950Y-91837877D01*
X45459783Y-92011232D01*
X45670366Y-92154805D01*
X45670371Y-92154807D01*
X45670372Y-92154808D01*
X45670373Y-92154809D01*
X45792328Y-92213538D01*
X45899992Y-92265387D01*
X45899993Y-92265387D01*
X45899996Y-92265389D01*
X46143542Y-92340513D01*
X46395565Y-92378500D01*
X46650435Y-92378500D01*
X46902458Y-92340513D01*
X47146004Y-92265389D01*
X47375634Y-92154805D01*
X47586217Y-92011232D01*
X47773050Y-91837877D01*
X47931959Y-91638612D01*
X48059393Y-91417888D01*
X48152508Y-91180637D01*
X48152510Y-91180624D01*
X48153878Y-91176196D01*
X48155008Y-91176544D01*
X48186464Y-91120295D01*
X48248121Y-91087430D01*
X48317759Y-91093117D01*
X48373268Y-91135551D01*
X48391868Y-91176269D01*
X48392600Y-91176044D01*
X48393973Y-91180494D01*
X48487058Y-91417671D01*
X48487057Y-91417671D01*
X48614457Y-91638332D01*
X48656452Y-91690993D01*
X48656453Y-91690993D01*
X49460226Y-90887219D01*
X49498901Y-90980588D01*
X49595075Y-91105925D01*
X49720412Y-91202099D01*
X49813779Y-91240772D01*
X49009813Y-92044737D01*
X49170623Y-92154375D01*
X49170624Y-92154376D01*
X49400176Y-92264921D01*
X49400174Y-92264921D01*
X49643652Y-92340024D01*
X49643658Y-92340026D01*
X49895595Y-92377999D01*
X49895604Y-92378000D01*
X50150396Y-92378000D01*
X50150404Y-92377999D01*
X50402341Y-92340026D01*
X50402347Y-92340024D01*
X50645824Y-92264921D01*
X50875381Y-92154373D01*
X51036185Y-92044737D01*
X50232220Y-91240772D01*
X50325588Y-91202099D01*
X50450925Y-91105925D01*
X50547099Y-90980589D01*
X50585773Y-90887220D01*
X51389545Y-91690993D01*
X51431545Y-91638327D01*
X51558941Y-91417671D01*
X51652026Y-91180494D01*
X51652032Y-91180475D01*
X51652108Y-91180145D01*
X51652167Y-91180038D01*
X51653400Y-91176044D01*
X51654254Y-91176307D01*
X51686214Y-91119165D01*
X51747874Y-91086304D01*
X51817511Y-91091996D01*
X51873017Y-91134433D01*
X51892090Y-91176201D01*
X51892600Y-91176044D01*
X51893809Y-91179965D01*
X51893892Y-91180145D01*
X51893967Y-91180475D01*
X51893973Y-91180494D01*
X51987058Y-91417671D01*
X51987057Y-91417671D01*
X52114457Y-91638332D01*
X52156452Y-91690993D01*
X52156453Y-91690993D01*
X52960226Y-90887219D01*
X52998901Y-90980588D01*
X53095075Y-91105925D01*
X53220412Y-91202099D01*
X53313779Y-91240772D01*
X52509813Y-92044737D01*
X52670623Y-92154375D01*
X52670624Y-92154376D01*
X52900176Y-92264921D01*
X52900174Y-92264921D01*
X53143652Y-92340024D01*
X53143658Y-92340026D01*
X53395595Y-92377999D01*
X53395604Y-92378000D01*
X53650396Y-92378000D01*
X53650404Y-92377999D01*
X53902341Y-92340026D01*
X53902347Y-92340024D01*
X54145824Y-92264921D01*
X54375381Y-92154373D01*
X54536185Y-92044737D01*
X53732220Y-91240772D01*
X53825588Y-91202099D01*
X53950925Y-91105925D01*
X54047099Y-90980589D01*
X54085773Y-90887220D01*
X54889545Y-91690993D01*
X54931545Y-91638327D01*
X55058939Y-91417675D01*
X55083071Y-91356187D01*
X55125886Y-91300973D01*
X55191756Y-91277672D01*
X55259767Y-91293681D01*
X55308326Y-91343918D01*
X55322500Y-91401488D01*
X55322500Y-91925870D01*
X55322501Y-91925876D01*
X55328908Y-91985483D01*
X55379202Y-92120328D01*
X55379206Y-92120335D01*
X55465452Y-92235544D01*
X55465455Y-92235547D01*
X55580664Y-92321793D01*
X55580671Y-92321797D01*
X55715517Y-92372091D01*
X55715516Y-92372091D01*
X55722444Y-92372835D01*
X55775127Y-92378500D01*
X58270872Y-92378499D01*
X58330483Y-92372091D01*
X58465331Y-92321796D01*
X58580546Y-92235546D01*
X58666796Y-92120331D01*
X58717091Y-91985483D01*
X58723500Y-91925873D01*
X58723499Y-90678004D01*
X61200732Y-90678004D01*
X61219777Y-90932154D01*
X61276379Y-91180145D01*
X61276492Y-91180637D01*
X61369607Y-91417888D01*
X61497041Y-91638612D01*
X61655950Y-91837877D01*
X61842783Y-92011232D01*
X62053366Y-92154805D01*
X62053371Y-92154807D01*
X62053372Y-92154808D01*
X62053373Y-92154809D01*
X62175328Y-92213538D01*
X62282992Y-92265387D01*
X62282993Y-92265387D01*
X62282996Y-92265389D01*
X62526542Y-92340513D01*
X62778565Y-92378500D01*
X63033435Y-92378500D01*
X63285458Y-92340513D01*
X63529004Y-92265389D01*
X63758634Y-92154805D01*
X63969217Y-92011232D01*
X64156050Y-91837877D01*
X64314959Y-91638612D01*
X64442393Y-91417888D01*
X64535508Y-91180637D01*
X64535510Y-91180624D01*
X64536878Y-91176196D01*
X64538324Y-91176642D01*
X64569213Y-91121412D01*
X64630873Y-91088552D01*
X64700510Y-91094243D01*
X64756016Y-91136680D01*
X64774192Y-91176482D01*
X64775122Y-91176196D01*
X64776490Y-91180630D01*
X64776492Y-91180637D01*
X64869607Y-91417888D01*
X64997041Y-91638612D01*
X65155950Y-91837877D01*
X65342783Y-92011232D01*
X65553366Y-92154805D01*
X65553371Y-92154807D01*
X65553372Y-92154808D01*
X65553373Y-92154809D01*
X65675328Y-92213538D01*
X65782992Y-92265387D01*
X65782993Y-92265387D01*
X65782996Y-92265389D01*
X66026542Y-92340513D01*
X66278565Y-92378500D01*
X66533435Y-92378500D01*
X66785458Y-92340513D01*
X67029004Y-92265389D01*
X67258634Y-92154805D01*
X67469217Y-92011232D01*
X67656050Y-91837877D01*
X67814959Y-91638612D01*
X67942393Y-91417888D01*
X68035508Y-91180637D01*
X68035510Y-91180624D01*
X68036878Y-91176196D01*
X68038324Y-91176642D01*
X68069213Y-91121412D01*
X68130873Y-91088552D01*
X68200510Y-91094243D01*
X68256016Y-91136680D01*
X68274192Y-91176482D01*
X68275122Y-91176196D01*
X68276490Y-91180630D01*
X68276492Y-91180637D01*
X68369607Y-91417888D01*
X68497041Y-91638612D01*
X68655950Y-91837877D01*
X68842783Y-92011232D01*
X69053366Y-92154805D01*
X69053371Y-92154807D01*
X69053372Y-92154808D01*
X69053373Y-92154809D01*
X69175328Y-92213538D01*
X69282992Y-92265387D01*
X69282993Y-92265387D01*
X69282996Y-92265389D01*
X69526542Y-92340513D01*
X69778565Y-92378500D01*
X70033435Y-92378500D01*
X70285458Y-92340513D01*
X70529004Y-92265389D01*
X70758634Y-92154805D01*
X70969217Y-92011232D01*
X71156050Y-91837877D01*
X71314959Y-91638612D01*
X71442393Y-91417888D01*
X71535508Y-91180637D01*
X71535510Y-91180624D01*
X71536878Y-91176196D01*
X71538324Y-91176642D01*
X71569213Y-91121412D01*
X71630873Y-91088552D01*
X71700510Y-91094243D01*
X71756016Y-91136680D01*
X71774192Y-91176482D01*
X71775122Y-91176196D01*
X71776490Y-91180630D01*
X71776492Y-91180637D01*
X71869607Y-91417888D01*
X71997041Y-91638612D01*
X72155950Y-91837877D01*
X72342783Y-92011232D01*
X72553366Y-92154805D01*
X72553371Y-92154807D01*
X72553372Y-92154808D01*
X72553373Y-92154809D01*
X72675328Y-92213538D01*
X72782992Y-92265387D01*
X72782993Y-92265387D01*
X72782996Y-92265389D01*
X73026542Y-92340513D01*
X73278565Y-92378500D01*
X73533435Y-92378500D01*
X73785458Y-92340513D01*
X74029004Y-92265389D01*
X74258634Y-92154805D01*
X74469217Y-92011232D01*
X74656050Y-91837877D01*
X74814959Y-91638612D01*
X74942393Y-91417888D01*
X75035508Y-91180637D01*
X75035510Y-91180624D01*
X75036878Y-91176196D01*
X75038324Y-91176642D01*
X75069213Y-91121412D01*
X75130873Y-91088552D01*
X75200510Y-91094243D01*
X75256016Y-91136680D01*
X75274192Y-91176482D01*
X75275122Y-91176196D01*
X75276490Y-91180630D01*
X75276492Y-91180637D01*
X75369607Y-91417888D01*
X75497041Y-91638612D01*
X75655950Y-91837877D01*
X75842783Y-92011232D01*
X76053366Y-92154805D01*
X76053371Y-92154807D01*
X76053372Y-92154808D01*
X76053373Y-92154809D01*
X76175328Y-92213538D01*
X76282992Y-92265387D01*
X76282993Y-92265387D01*
X76282996Y-92265389D01*
X76526542Y-92340513D01*
X76778565Y-92378500D01*
X77033435Y-92378500D01*
X77285458Y-92340513D01*
X77529004Y-92265389D01*
X77758634Y-92154805D01*
X77969217Y-92011232D01*
X78156050Y-91837877D01*
X78314959Y-91638612D01*
X78442393Y-91417888D01*
X78535508Y-91180637D01*
X78535510Y-91180624D01*
X78536878Y-91176196D01*
X78538324Y-91176642D01*
X78569213Y-91121412D01*
X78630873Y-91088552D01*
X78700510Y-91094243D01*
X78756016Y-91136680D01*
X78774192Y-91176482D01*
X78775122Y-91176196D01*
X78776490Y-91180630D01*
X78776492Y-91180637D01*
X78869607Y-91417888D01*
X78997041Y-91638612D01*
X79155950Y-91837877D01*
X79342783Y-92011232D01*
X79553366Y-92154805D01*
X79553371Y-92154807D01*
X79553372Y-92154808D01*
X79553373Y-92154809D01*
X79675328Y-92213538D01*
X79782992Y-92265387D01*
X79782993Y-92265387D01*
X79782996Y-92265389D01*
X80026542Y-92340513D01*
X80278565Y-92378500D01*
X80533435Y-92378500D01*
X80785458Y-92340513D01*
X81029004Y-92265389D01*
X81258634Y-92154805D01*
X81469217Y-92011232D01*
X81656050Y-91837877D01*
X81814959Y-91638612D01*
X81942393Y-91417888D01*
X82035508Y-91180637D01*
X82035510Y-91180624D01*
X82036878Y-91176196D01*
X82038324Y-91176642D01*
X82069213Y-91121412D01*
X82130873Y-91088552D01*
X82200510Y-91094243D01*
X82256016Y-91136680D01*
X82274192Y-91176482D01*
X82275122Y-91176196D01*
X82276490Y-91180630D01*
X82276492Y-91180637D01*
X82369607Y-91417888D01*
X82497041Y-91638612D01*
X82655950Y-91837877D01*
X82842783Y-92011232D01*
X83053366Y-92154805D01*
X83053371Y-92154807D01*
X83053372Y-92154808D01*
X83053373Y-92154809D01*
X83175328Y-92213538D01*
X83282992Y-92265387D01*
X83282993Y-92265387D01*
X83282996Y-92265389D01*
X83526542Y-92340513D01*
X83778565Y-92378500D01*
X84033435Y-92378500D01*
X84285458Y-92340513D01*
X84529004Y-92265389D01*
X84758634Y-92154805D01*
X84969217Y-92011232D01*
X85156050Y-91837877D01*
X85314959Y-91638612D01*
X85442393Y-91417888D01*
X85466074Y-91357549D01*
X85508887Y-91302340D01*
X85574756Y-91279039D01*
X85642767Y-91295048D01*
X85691326Y-91345286D01*
X85705500Y-91402855D01*
X85705500Y-91925870D01*
X85705501Y-91925876D01*
X85711908Y-91985483D01*
X85762202Y-92120328D01*
X85762206Y-92120335D01*
X85848452Y-92235544D01*
X85848455Y-92235547D01*
X85963664Y-92321793D01*
X85963671Y-92321797D01*
X86098517Y-92372091D01*
X86098516Y-92372091D01*
X86105444Y-92372835D01*
X86158127Y-92378500D01*
X88653872Y-92378499D01*
X88713483Y-92372091D01*
X88848331Y-92321796D01*
X88963546Y-92235546D01*
X89049796Y-92120331D01*
X89100091Y-91985483D01*
X89106500Y-91925873D01*
X89106499Y-90678004D01*
X91060732Y-90678004D01*
X91079777Y-90932154D01*
X91136379Y-91180145D01*
X91136492Y-91180637D01*
X91229607Y-91417888D01*
X91357041Y-91638612D01*
X91515950Y-91837877D01*
X91702783Y-92011232D01*
X91913366Y-92154805D01*
X91913371Y-92154807D01*
X91913372Y-92154808D01*
X91913373Y-92154809D01*
X92035328Y-92213538D01*
X92142992Y-92265387D01*
X92142993Y-92265387D01*
X92142996Y-92265389D01*
X92386542Y-92340513D01*
X92638565Y-92378500D01*
X92893435Y-92378500D01*
X93145458Y-92340513D01*
X93389004Y-92265389D01*
X93618634Y-92154805D01*
X93829217Y-92011232D01*
X94016050Y-91837877D01*
X94174959Y-91638612D01*
X94302393Y-91417888D01*
X94395508Y-91180637D01*
X94395510Y-91180624D01*
X94396878Y-91176196D01*
X94398324Y-91176642D01*
X94429213Y-91121412D01*
X94490873Y-91088552D01*
X94560510Y-91094243D01*
X94616016Y-91136680D01*
X94634192Y-91176482D01*
X94635122Y-91176196D01*
X94636490Y-91180630D01*
X94636492Y-91180637D01*
X94729607Y-91417888D01*
X94857041Y-91638612D01*
X95015950Y-91837877D01*
X95202783Y-92011232D01*
X95413366Y-92154805D01*
X95413371Y-92154807D01*
X95413372Y-92154808D01*
X95413373Y-92154809D01*
X95535328Y-92213538D01*
X95642992Y-92265387D01*
X95642993Y-92265387D01*
X95642996Y-92265389D01*
X95886542Y-92340513D01*
X96138565Y-92378500D01*
X96393435Y-92378500D01*
X96645458Y-92340513D01*
X96889004Y-92265389D01*
X97118634Y-92154805D01*
X97329217Y-92011232D01*
X97516050Y-91837877D01*
X97674959Y-91638612D01*
X97802393Y-91417888D01*
X97895508Y-91180637D01*
X97895510Y-91180624D01*
X97896878Y-91176196D01*
X97898324Y-91176642D01*
X97929213Y-91121412D01*
X97990873Y-91088552D01*
X98060510Y-91094243D01*
X98116016Y-91136680D01*
X98134192Y-91176482D01*
X98135122Y-91176196D01*
X98136490Y-91180630D01*
X98136492Y-91180637D01*
X98229607Y-91417888D01*
X98357041Y-91638612D01*
X98515950Y-91837877D01*
X98702783Y-92011232D01*
X98913366Y-92154805D01*
X98913371Y-92154807D01*
X98913372Y-92154808D01*
X98913373Y-92154809D01*
X99035328Y-92213538D01*
X99142992Y-92265387D01*
X99142993Y-92265387D01*
X99142996Y-92265389D01*
X99386542Y-92340513D01*
X99638565Y-92378500D01*
X99893435Y-92378500D01*
X100145458Y-92340513D01*
X100389004Y-92265389D01*
X100618634Y-92154805D01*
X100829217Y-92011232D01*
X101016050Y-91837877D01*
X101174959Y-91638612D01*
X101302393Y-91417888D01*
X101395508Y-91180637D01*
X101395510Y-91180624D01*
X101396878Y-91176196D01*
X101398324Y-91176642D01*
X101429213Y-91121412D01*
X101490873Y-91088552D01*
X101560510Y-91094243D01*
X101616016Y-91136680D01*
X101634192Y-91176482D01*
X101635122Y-91176196D01*
X101636490Y-91180630D01*
X101636492Y-91180637D01*
X101729607Y-91417888D01*
X101857041Y-91638612D01*
X102015950Y-91837877D01*
X102202783Y-92011232D01*
X102413366Y-92154805D01*
X102413371Y-92154807D01*
X102413372Y-92154808D01*
X102413373Y-92154809D01*
X102535328Y-92213538D01*
X102642992Y-92265387D01*
X102642993Y-92265387D01*
X102642996Y-92265389D01*
X102886542Y-92340513D01*
X103138565Y-92378500D01*
X103393435Y-92378500D01*
X103645458Y-92340513D01*
X103889004Y-92265389D01*
X104118634Y-92154805D01*
X104329217Y-92011232D01*
X104516050Y-91837877D01*
X104674959Y-91638612D01*
X104802393Y-91417888D01*
X104895508Y-91180637D01*
X104895510Y-91180624D01*
X104896878Y-91176196D01*
X104898324Y-91176642D01*
X104929213Y-91121412D01*
X104990873Y-91088552D01*
X105060510Y-91094243D01*
X105116016Y-91136680D01*
X105134192Y-91176482D01*
X105135122Y-91176196D01*
X105136490Y-91180630D01*
X105136492Y-91180637D01*
X105229607Y-91417888D01*
X105357041Y-91638612D01*
X105515950Y-91837877D01*
X105702783Y-92011232D01*
X105913366Y-92154805D01*
X105913371Y-92154807D01*
X105913372Y-92154808D01*
X105913373Y-92154809D01*
X106035328Y-92213538D01*
X106142992Y-92265387D01*
X106142993Y-92265387D01*
X106142996Y-92265389D01*
X106386542Y-92340513D01*
X106638565Y-92378500D01*
X106893435Y-92378500D01*
X107145458Y-92340513D01*
X107389004Y-92265389D01*
X107618634Y-92154805D01*
X107829217Y-92011232D01*
X108016050Y-91837877D01*
X108174959Y-91638612D01*
X108302393Y-91417888D01*
X108395508Y-91180637D01*
X108395510Y-91180624D01*
X108396878Y-91176196D01*
X108398324Y-91176642D01*
X108429213Y-91121412D01*
X108490873Y-91088552D01*
X108560510Y-91094243D01*
X108616016Y-91136680D01*
X108634192Y-91176482D01*
X108635122Y-91176196D01*
X108636490Y-91180630D01*
X108636492Y-91180637D01*
X108729607Y-91417888D01*
X108857041Y-91638612D01*
X109015950Y-91837877D01*
X109202783Y-92011232D01*
X109413366Y-92154805D01*
X109413371Y-92154807D01*
X109413372Y-92154808D01*
X109413373Y-92154809D01*
X109535328Y-92213538D01*
X109642992Y-92265387D01*
X109642993Y-92265387D01*
X109642996Y-92265389D01*
X109886542Y-92340513D01*
X110138565Y-92378500D01*
X110393435Y-92378500D01*
X110645458Y-92340513D01*
X110889004Y-92265389D01*
X111118634Y-92154805D01*
X111329217Y-92011232D01*
X111516050Y-91837877D01*
X111674959Y-91638612D01*
X111802393Y-91417888D01*
X111895508Y-91180637D01*
X111895510Y-91180624D01*
X111896878Y-91176196D01*
X111898324Y-91176642D01*
X111929213Y-91121412D01*
X111990873Y-91088552D01*
X112060510Y-91094243D01*
X112116016Y-91136680D01*
X112134192Y-91176482D01*
X112135122Y-91176196D01*
X112136490Y-91180630D01*
X112136492Y-91180637D01*
X112229607Y-91417888D01*
X112357041Y-91638612D01*
X112515950Y-91837877D01*
X112702783Y-92011232D01*
X112913366Y-92154805D01*
X112913371Y-92154807D01*
X112913372Y-92154808D01*
X112913373Y-92154809D01*
X113035328Y-92213538D01*
X113142992Y-92265387D01*
X113142993Y-92265387D01*
X113142996Y-92265389D01*
X113386542Y-92340513D01*
X113638565Y-92378500D01*
X113893435Y-92378500D01*
X114145458Y-92340513D01*
X114389004Y-92265389D01*
X114618634Y-92154805D01*
X114829217Y-92011232D01*
X115016050Y-91837877D01*
X115174959Y-91638612D01*
X115302393Y-91417888D01*
X115326074Y-91357549D01*
X115368887Y-91302340D01*
X115434756Y-91279039D01*
X115502767Y-91295048D01*
X115551326Y-91345286D01*
X115565500Y-91402855D01*
X115565500Y-91925870D01*
X115565501Y-91925876D01*
X115571908Y-91985483D01*
X115622202Y-92120328D01*
X115622206Y-92120335D01*
X115708452Y-92235544D01*
X115708455Y-92235547D01*
X115823664Y-92321793D01*
X115823671Y-92321797D01*
X115958517Y-92372091D01*
X115958516Y-92372091D01*
X115965444Y-92372835D01*
X116018127Y-92378500D01*
X118513872Y-92378499D01*
X118573483Y-92372091D01*
X118708331Y-92321796D01*
X118823546Y-92235546D01*
X118909796Y-92120331D01*
X118960091Y-91985483D01*
X118966500Y-91925873D01*
X118966499Y-89430128D01*
X118960091Y-89370517D01*
X118956223Y-89360147D01*
X118909797Y-89235671D01*
X118909793Y-89235664D01*
X118823547Y-89120455D01*
X118823544Y-89120452D01*
X118708335Y-89034206D01*
X118708328Y-89034202D01*
X118573482Y-88983908D01*
X118573483Y-88983908D01*
X118513883Y-88977501D01*
X118513881Y-88977500D01*
X118513873Y-88977500D01*
X118513865Y-88977500D01*
X116501453Y-88977500D01*
X116434414Y-88957815D01*
X116413772Y-88941181D01*
X114641819Y-87169228D01*
X114608334Y-87107905D01*
X114605500Y-87081547D01*
X114605500Y-82846425D01*
X114625185Y-82779386D01*
X114670481Y-82737371D01*
X114728649Y-82705893D01*
X114907046Y-82567040D01*
X115060156Y-82400719D01*
X115183802Y-82211465D01*
X115274611Y-82004441D01*
X115330107Y-81785293D01*
X115348775Y-81560000D01*
X115348775Y-81559993D01*
X115330107Y-81334710D01*
X115330107Y-81334707D01*
X115274611Y-81115559D01*
X115183802Y-80908535D01*
X115060156Y-80719281D01*
X115060153Y-80719278D01*
X115060149Y-80719272D01*
X114907049Y-80552963D01*
X114907048Y-80552962D01*
X114907046Y-80552960D01*
X114728649Y-80414107D01*
X114702390Y-80399896D01*
X114529832Y-80306512D01*
X114529827Y-80306510D01*
X114316017Y-80233109D01*
X114134388Y-80202801D01*
X114093033Y-80195900D01*
X113866967Y-80195900D01*
X113825612Y-80202801D01*
X113643982Y-80233109D01*
X113430172Y-80306510D01*
X113430167Y-80306512D01*
X113231352Y-80414106D01*
X113052955Y-80552959D01*
X113052950Y-80552963D01*
X112899850Y-80719272D01*
X112899842Y-80719283D01*
X112813808Y-80850968D01*
X112760662Y-80896325D01*
X112691430Y-80905748D01*
X112628095Y-80876246D01*
X112606192Y-80850968D01*
X112520157Y-80719283D01*
X112520149Y-80719272D01*
X112367049Y-80552963D01*
X112367048Y-80552962D01*
X112367046Y-80552960D01*
X112188649Y-80414107D01*
X112162390Y-80399896D01*
X111989832Y-80306512D01*
X111989827Y-80306510D01*
X111776017Y-80233109D01*
X111594388Y-80202801D01*
X111553033Y-80195900D01*
X111326967Y-80195900D01*
X111285612Y-80202801D01*
X111103982Y-80233109D01*
X110890172Y-80306510D01*
X110890167Y-80306512D01*
X110691352Y-80414106D01*
X110512955Y-80552959D01*
X110512950Y-80552963D01*
X110359850Y-80719272D01*
X110359842Y-80719283D01*
X110273808Y-80850968D01*
X110220662Y-80896325D01*
X110151430Y-80905748D01*
X110088095Y-80876246D01*
X110066192Y-80850968D01*
X109980157Y-80719283D01*
X109980149Y-80719272D01*
X109827049Y-80552963D01*
X109827048Y-80552962D01*
X109827046Y-80552960D01*
X109648649Y-80414107D01*
X109622390Y-80399896D01*
X109449832Y-80306512D01*
X109449827Y-80306510D01*
X109236017Y-80233109D01*
X109054388Y-80202801D01*
X109013033Y-80195900D01*
X108786967Y-80195900D01*
X108745612Y-80202801D01*
X108563982Y-80233109D01*
X108350172Y-80306510D01*
X108350167Y-80306512D01*
X108151352Y-80414106D01*
X107972955Y-80552959D01*
X107972950Y-80552963D01*
X107819850Y-80719272D01*
X107819842Y-80719283D01*
X107733808Y-80850968D01*
X107680662Y-80896325D01*
X107611430Y-80905748D01*
X107548095Y-80876246D01*
X107526192Y-80850968D01*
X107440157Y-80719283D01*
X107440149Y-80719272D01*
X107287049Y-80552963D01*
X107287048Y-80552962D01*
X107287046Y-80552960D01*
X107108649Y-80414107D01*
X107082390Y-80399896D01*
X106909832Y-80306512D01*
X106909827Y-80306510D01*
X106696017Y-80233109D01*
X106514388Y-80202801D01*
X106473033Y-80195900D01*
X106246967Y-80195900D01*
X106205612Y-80202801D01*
X106023982Y-80233109D01*
X105810172Y-80306510D01*
X105810167Y-80306512D01*
X105611352Y-80414106D01*
X105432955Y-80552959D01*
X105432950Y-80552963D01*
X105279850Y-80719272D01*
X105279842Y-80719283D01*
X105193808Y-80850968D01*
X105140662Y-80896325D01*
X105071430Y-80905748D01*
X105008095Y-80876246D01*
X104986192Y-80850968D01*
X104900157Y-80719283D01*
X104900149Y-80719272D01*
X104747049Y-80552963D01*
X104747048Y-80552962D01*
X104747046Y-80552960D01*
X104568649Y-80414107D01*
X104542390Y-80399896D01*
X104369832Y-80306512D01*
X104369827Y-80306510D01*
X104156017Y-80233109D01*
X103974388Y-80202801D01*
X103933033Y-80195900D01*
X103706967Y-80195900D01*
X103665612Y-80202801D01*
X103483982Y-80233109D01*
X103270172Y-80306510D01*
X103270167Y-80306512D01*
X103071352Y-80414106D01*
X102892955Y-80552959D01*
X102892950Y-80552963D01*
X102739850Y-80719272D01*
X102739842Y-80719283D01*
X102653808Y-80850968D01*
X102600662Y-80896325D01*
X102531430Y-80905748D01*
X102468095Y-80876246D01*
X102446192Y-80850968D01*
X102360157Y-80719283D01*
X102360149Y-80719272D01*
X102207049Y-80552963D01*
X102207048Y-80552962D01*
X102207046Y-80552960D01*
X102028649Y-80414107D01*
X102002390Y-80399896D01*
X101829832Y-80306512D01*
X101829827Y-80306510D01*
X101616017Y-80233109D01*
X101434388Y-80202801D01*
X101393033Y-80195900D01*
X101166967Y-80195900D01*
X101125612Y-80202801D01*
X100943982Y-80233109D01*
X100730172Y-80306510D01*
X100730167Y-80306512D01*
X100531352Y-80414106D01*
X100352955Y-80552959D01*
X100352950Y-80552963D01*
X100199850Y-80719272D01*
X100199842Y-80719283D01*
X100113808Y-80850968D01*
X100060662Y-80896325D01*
X99991430Y-80905748D01*
X99928095Y-80876246D01*
X99906192Y-80850968D01*
X99820157Y-80719283D01*
X99820149Y-80719272D01*
X99667049Y-80552963D01*
X99667048Y-80552962D01*
X99667046Y-80552960D01*
X99488649Y-80414107D01*
X99462390Y-80399896D01*
X99289832Y-80306512D01*
X99289827Y-80306510D01*
X99076017Y-80233109D01*
X98894388Y-80202801D01*
X98853033Y-80195900D01*
X98626967Y-80195900D01*
X98585612Y-80202801D01*
X98403982Y-80233109D01*
X98190172Y-80306510D01*
X98190167Y-80306512D01*
X97991352Y-80414106D01*
X97812955Y-80552959D01*
X97812950Y-80552963D01*
X97659850Y-80719272D01*
X97659842Y-80719283D01*
X97573808Y-80850968D01*
X97520662Y-80896325D01*
X97451430Y-80905748D01*
X97388095Y-80876246D01*
X97366192Y-80850968D01*
X97280157Y-80719283D01*
X97280149Y-80719272D01*
X97127049Y-80552963D01*
X97127048Y-80552962D01*
X97127046Y-80552960D01*
X96948649Y-80414107D01*
X96922390Y-80399896D01*
X96749832Y-80306512D01*
X96749827Y-80306510D01*
X96536017Y-80233109D01*
X96354388Y-80202801D01*
X96313033Y-80195900D01*
X96086967Y-80195900D01*
X96045612Y-80202801D01*
X95863982Y-80233109D01*
X95650172Y-80306510D01*
X95650167Y-80306512D01*
X95451352Y-80414106D01*
X95272955Y-80552959D01*
X95272950Y-80552963D01*
X95119850Y-80719272D01*
X95119842Y-80719283D01*
X94996198Y-80908533D01*
X94905388Y-81115560D01*
X94849892Y-81334710D01*
X94831225Y-81559993D01*
X94831225Y-81560006D01*
X94849892Y-81785289D01*
X94905388Y-82004439D01*
X94996198Y-82211466D01*
X95119842Y-82400716D01*
X95119850Y-82400727D01*
X95272950Y-82567036D01*
X95272954Y-82567040D01*
X95451351Y-82705893D01*
X95509517Y-82737370D01*
X95559107Y-82786588D01*
X95574500Y-82846425D01*
X95574500Y-86933546D01*
X95554815Y-87000585D01*
X95538181Y-87021227D01*
X93502819Y-89056588D01*
X93441496Y-89090073D01*
X93378588Y-89087398D01*
X93145466Y-89015489D01*
X93145462Y-89015488D01*
X93145458Y-89015487D01*
X93024094Y-88997194D01*
X92893440Y-88977500D01*
X92893435Y-88977500D01*
X92638565Y-88977500D01*
X92638559Y-88977500D01*
X92481733Y-89001139D01*
X92386542Y-89015487D01*
X92386539Y-89015488D01*
X92386533Y-89015489D01*
X92142992Y-89090612D01*
X91913373Y-89201190D01*
X91913372Y-89201191D01*
X91702782Y-89344768D01*
X91515952Y-89518121D01*
X91515950Y-89518123D01*
X91357041Y-89717388D01*
X91229608Y-89938109D01*
X91136492Y-90175362D01*
X91136490Y-90175369D01*
X91079777Y-90423845D01*
X91060732Y-90677995D01*
X91060732Y-90678004D01*
X89106499Y-90678004D01*
X89106499Y-89913451D01*
X89126184Y-89846413D01*
X89142813Y-89825776D01*
X91503788Y-87464801D01*
X91516042Y-87454986D01*
X91515859Y-87454764D01*
X91521866Y-87449792D01*
X91521877Y-87449786D01*
X91552835Y-87416819D01*
X91569227Y-87399364D01*
X91579671Y-87388918D01*
X91590120Y-87378471D01*
X91594379Y-87372978D01*
X91598152Y-87368561D01*
X91630062Y-87334582D01*
X91639713Y-87317024D01*
X91650396Y-87300761D01*
X91662673Y-87284936D01*
X91681185Y-87242153D01*
X91683738Y-87236941D01*
X91706197Y-87196092D01*
X91711180Y-87176680D01*
X91717481Y-87158280D01*
X91725437Y-87139896D01*
X91732729Y-87093852D01*
X91733906Y-87088171D01*
X91745500Y-87043019D01*
X91745500Y-87022983D01*
X91747027Y-87003582D01*
X91747502Y-87000585D01*
X91750160Y-86983804D01*
X91745775Y-86937415D01*
X91745500Y-86931577D01*
X91745500Y-82846425D01*
X91765185Y-82779386D01*
X91810481Y-82737371D01*
X91868649Y-82705893D01*
X92047046Y-82567040D01*
X92200156Y-82400719D01*
X92323802Y-82211465D01*
X92414611Y-82004441D01*
X92470107Y-81785293D01*
X92488775Y-81560000D01*
X92488775Y-81559993D01*
X92470107Y-81334710D01*
X92470107Y-81334707D01*
X92414611Y-81115559D01*
X92323802Y-80908535D01*
X92200156Y-80719281D01*
X92200153Y-80719278D01*
X92200149Y-80719272D01*
X92047049Y-80552963D01*
X92047048Y-80552962D01*
X92047046Y-80552960D01*
X91868649Y-80414107D01*
X91842390Y-80399896D01*
X91669832Y-80306512D01*
X91669827Y-80306510D01*
X91456017Y-80233109D01*
X91274388Y-80202801D01*
X91233033Y-80195900D01*
X91006967Y-80195900D01*
X90965612Y-80202801D01*
X90783982Y-80233109D01*
X90570172Y-80306510D01*
X90570167Y-80306512D01*
X90371352Y-80414106D01*
X90192955Y-80552959D01*
X90192950Y-80552963D01*
X90039850Y-80719272D01*
X90039842Y-80719283D01*
X89953808Y-80850968D01*
X89900662Y-80896325D01*
X89831430Y-80905748D01*
X89768095Y-80876246D01*
X89746192Y-80850968D01*
X89660157Y-80719283D01*
X89660149Y-80719272D01*
X89507049Y-80552963D01*
X89507048Y-80552962D01*
X89507046Y-80552960D01*
X89328649Y-80414107D01*
X89302390Y-80399896D01*
X89129832Y-80306512D01*
X89129827Y-80306510D01*
X88916017Y-80233109D01*
X88734388Y-80202801D01*
X88693033Y-80195900D01*
X88466967Y-80195900D01*
X88425612Y-80202801D01*
X88243982Y-80233109D01*
X88030172Y-80306510D01*
X88030167Y-80306512D01*
X87831352Y-80414106D01*
X87652955Y-80552959D01*
X87652950Y-80552963D01*
X87499850Y-80719272D01*
X87499842Y-80719283D01*
X87413808Y-80850968D01*
X87360662Y-80896325D01*
X87291430Y-80905748D01*
X87228095Y-80876246D01*
X87206192Y-80850968D01*
X87120157Y-80719283D01*
X87120149Y-80719272D01*
X86967049Y-80552963D01*
X86967048Y-80552962D01*
X86967046Y-80552960D01*
X86788649Y-80414107D01*
X86762390Y-80399896D01*
X86589832Y-80306512D01*
X86589827Y-80306510D01*
X86376017Y-80233109D01*
X86194388Y-80202801D01*
X86153033Y-80195900D01*
X85926967Y-80195900D01*
X85885612Y-80202801D01*
X85703982Y-80233109D01*
X85490172Y-80306510D01*
X85490167Y-80306512D01*
X85291352Y-80414106D01*
X85112955Y-80552959D01*
X85112950Y-80552963D01*
X84959850Y-80719272D01*
X84959842Y-80719283D01*
X84873808Y-80850968D01*
X84820662Y-80896325D01*
X84751430Y-80905748D01*
X84688095Y-80876246D01*
X84666192Y-80850968D01*
X84580157Y-80719283D01*
X84580149Y-80719272D01*
X84427049Y-80552963D01*
X84427048Y-80552962D01*
X84427046Y-80552960D01*
X84248649Y-80414107D01*
X84222390Y-80399896D01*
X84049832Y-80306512D01*
X84049827Y-80306510D01*
X83836017Y-80233109D01*
X83654388Y-80202801D01*
X83613033Y-80195900D01*
X83386967Y-80195900D01*
X83345612Y-80202801D01*
X83163982Y-80233109D01*
X82950172Y-80306510D01*
X82950167Y-80306512D01*
X82751352Y-80414106D01*
X82572955Y-80552959D01*
X82572950Y-80552963D01*
X82419850Y-80719272D01*
X82419842Y-80719283D01*
X82333808Y-80850968D01*
X82280662Y-80896325D01*
X82211430Y-80905748D01*
X82148095Y-80876246D01*
X82126192Y-80850968D01*
X82040157Y-80719283D01*
X82040149Y-80719272D01*
X81887049Y-80552963D01*
X81887048Y-80552962D01*
X81887046Y-80552960D01*
X81708649Y-80414107D01*
X81682390Y-80399896D01*
X81509832Y-80306512D01*
X81509827Y-80306510D01*
X81296017Y-80233109D01*
X81114388Y-80202801D01*
X81073033Y-80195900D01*
X80846967Y-80195900D01*
X80805612Y-80202801D01*
X80623982Y-80233109D01*
X80410172Y-80306510D01*
X80410167Y-80306512D01*
X80211352Y-80414106D01*
X80032955Y-80552959D01*
X80032950Y-80552963D01*
X79879850Y-80719272D01*
X79879842Y-80719283D01*
X79793808Y-80850968D01*
X79740662Y-80896325D01*
X79671430Y-80905748D01*
X79608095Y-80876246D01*
X79586192Y-80850968D01*
X79500157Y-80719283D01*
X79500149Y-80719272D01*
X79347049Y-80552963D01*
X79347048Y-80552962D01*
X79347046Y-80552960D01*
X79168649Y-80414107D01*
X79142390Y-80399896D01*
X78969832Y-80306512D01*
X78969827Y-80306510D01*
X78756017Y-80233109D01*
X78574388Y-80202801D01*
X78533033Y-80195900D01*
X78306967Y-80195900D01*
X78265612Y-80202801D01*
X78083982Y-80233109D01*
X77870172Y-80306510D01*
X77870167Y-80306512D01*
X77671352Y-80414106D01*
X77492955Y-80552959D01*
X77492950Y-80552963D01*
X77339850Y-80719272D01*
X77339842Y-80719283D01*
X77253808Y-80850968D01*
X77200662Y-80896325D01*
X77131430Y-80905748D01*
X77068095Y-80876246D01*
X77046192Y-80850968D01*
X76960157Y-80719283D01*
X76960149Y-80719272D01*
X76807049Y-80552963D01*
X76807048Y-80552962D01*
X76807046Y-80552960D01*
X76628649Y-80414107D01*
X76602390Y-80399896D01*
X76429832Y-80306512D01*
X76429827Y-80306510D01*
X76216017Y-80233109D01*
X76034388Y-80202801D01*
X75993033Y-80195900D01*
X75766967Y-80195900D01*
X75725612Y-80202801D01*
X75543982Y-80233109D01*
X75330172Y-80306510D01*
X75330167Y-80306512D01*
X75131352Y-80414106D01*
X74952955Y-80552959D01*
X74952950Y-80552963D01*
X74799850Y-80719272D01*
X74799842Y-80719283D01*
X74713808Y-80850968D01*
X74660662Y-80896325D01*
X74591430Y-80905748D01*
X74528095Y-80876246D01*
X74506192Y-80850968D01*
X74420157Y-80719283D01*
X74420149Y-80719272D01*
X74267049Y-80552963D01*
X74267048Y-80552962D01*
X74267046Y-80552960D01*
X74088649Y-80414107D01*
X74062390Y-80399896D01*
X73889832Y-80306512D01*
X73889827Y-80306510D01*
X73676017Y-80233109D01*
X73494388Y-80202801D01*
X73453033Y-80195900D01*
X73226967Y-80195900D01*
X73185612Y-80202801D01*
X73003982Y-80233109D01*
X72790172Y-80306510D01*
X72790167Y-80306512D01*
X72591352Y-80414106D01*
X72412955Y-80552959D01*
X72412950Y-80552963D01*
X72259850Y-80719272D01*
X72259842Y-80719283D01*
X72155937Y-80878322D01*
X72102791Y-80923678D01*
X72052129Y-80934500D01*
X71938737Y-80934500D01*
X71923120Y-80932776D01*
X71923093Y-80933062D01*
X71915331Y-80932327D01*
X71846203Y-80934500D01*
X71816650Y-80934500D01*
X71815929Y-80934590D01*
X71809757Y-80935369D01*
X71803945Y-80935826D01*
X71757372Y-80937290D01*
X71757369Y-80937291D01*
X71738126Y-80942881D01*
X71719083Y-80946825D01*
X71699204Y-80949336D01*
X71699203Y-80949337D01*
X71655878Y-80966490D01*
X71650352Y-80968382D01*
X71605608Y-80981383D01*
X71605604Y-80981385D01*
X71588365Y-80991580D01*
X71570898Y-81000137D01*
X71552269Y-81007512D01*
X71552267Y-81007513D01*
X71514564Y-81034906D01*
X71509682Y-81038112D01*
X71469580Y-81061828D01*
X71455408Y-81076000D01*
X71440623Y-81088628D01*
X71424412Y-81100407D01*
X71394709Y-81136310D01*
X71390777Y-81140631D01*
X63514424Y-89016983D01*
X63453101Y-89050468D01*
X63390194Y-89047793D01*
X63285470Y-89015490D01*
X63285463Y-89015488D01*
X63285458Y-89015487D01*
X63164094Y-88997194D01*
X63033440Y-88977500D01*
X63033435Y-88977500D01*
X62778565Y-88977500D01*
X62778559Y-88977500D01*
X62621733Y-89001139D01*
X62526542Y-89015487D01*
X62526539Y-89015488D01*
X62526533Y-89015489D01*
X62282992Y-89090612D01*
X62053373Y-89201190D01*
X62053372Y-89201191D01*
X61842782Y-89344768D01*
X61655952Y-89518121D01*
X61655950Y-89518123D01*
X61497041Y-89717388D01*
X61369608Y-89938109D01*
X61276492Y-90175362D01*
X61276490Y-90175369D01*
X61219777Y-90423845D01*
X61200732Y-90677995D01*
X61200732Y-90678004D01*
X58723499Y-90678004D01*
X58723499Y-89929499D01*
X58743184Y-89862461D01*
X58795987Y-89816706D01*
X58847499Y-89805500D01*
X60557257Y-89805500D01*
X60572877Y-89807224D01*
X60572904Y-89806939D01*
X60580660Y-89807671D01*
X60580667Y-89807673D01*
X60649814Y-89805500D01*
X60679350Y-89805500D01*
X60686228Y-89804630D01*
X60692041Y-89804172D01*
X60738627Y-89802709D01*
X60757869Y-89797117D01*
X60776912Y-89793174D01*
X60796792Y-89790664D01*
X60840122Y-89773507D01*
X60845646Y-89771617D01*
X60853067Y-89769461D01*
X60890390Y-89758618D01*
X60907629Y-89748422D01*
X60925103Y-89739862D01*
X60943727Y-89732488D01*
X60943727Y-89732487D01*
X60943732Y-89732486D01*
X60981449Y-89705082D01*
X60986305Y-89701892D01*
X61026420Y-89678170D01*
X61040589Y-89663999D01*
X61055379Y-89651368D01*
X61071587Y-89639594D01*
X61101299Y-89603676D01*
X61105212Y-89599376D01*
X67790130Y-82914459D01*
X67851451Y-82880976D01*
X67918075Y-82884862D01*
X67923983Y-82886890D01*
X67923986Y-82886891D01*
X68146967Y-82924100D01*
X68146968Y-82924100D01*
X68373032Y-82924100D01*
X68373033Y-82924100D01*
X68596014Y-82886891D01*
X68809831Y-82813488D01*
X69008649Y-82705893D01*
X69187046Y-82567040D01*
X69340156Y-82400719D01*
X69463802Y-82211465D01*
X69554611Y-82004441D01*
X69610107Y-81785293D01*
X69628775Y-81560000D01*
X69628775Y-81559993D01*
X69610107Y-81334710D01*
X69610107Y-81334707D01*
X69554611Y-81115559D01*
X69463802Y-80908535D01*
X69340156Y-80719281D01*
X69340153Y-80719278D01*
X69340149Y-80719272D01*
X69187049Y-80552963D01*
X69187048Y-80552962D01*
X69187046Y-80552960D01*
X69008649Y-80414107D01*
X68982390Y-80399896D01*
X68809832Y-80306512D01*
X68809827Y-80306510D01*
X68596017Y-80233109D01*
X68414388Y-80202801D01*
X68373033Y-80195900D01*
X68146967Y-80195900D01*
X68105612Y-80202801D01*
X67923982Y-80233109D01*
X67710172Y-80306510D01*
X67710167Y-80306512D01*
X67511352Y-80414106D01*
X67332955Y-80552958D01*
X67278186Y-80612453D01*
X67218298Y-80648443D01*
X67148460Y-80646342D01*
X67090845Y-80606817D01*
X67070775Y-80571802D01*
X67026954Y-80454313D01*
X67026950Y-80454306D01*
X66940790Y-80339212D01*
X66940787Y-80339209D01*
X66825693Y-80253049D01*
X66825686Y-80253045D01*
X66690979Y-80202803D01*
X66690972Y-80202801D01*
X66631444Y-80196400D01*
X65970000Y-80196400D01*
X65970000Y-81115702D01*
X65864592Y-81067565D01*
X65756334Y-81052000D01*
X65683666Y-81052000D01*
X65575408Y-81067565D01*
X65470000Y-81115702D01*
X65470000Y-80196400D01*
X64808555Y-80196400D01*
X64749027Y-80202801D01*
X64749020Y-80202803D01*
X64614313Y-80253045D01*
X64614311Y-80253047D01*
X64524311Y-80320421D01*
X64458847Y-80344838D01*
X64390574Y-80329987D01*
X64375689Y-80320421D01*
X64285688Y-80253047D01*
X64285686Y-80253045D01*
X64150979Y-80202803D01*
X64150972Y-80202801D01*
X64091444Y-80196400D01*
X63430000Y-80196400D01*
X63430000Y-81115702D01*
X63324592Y-81067565D01*
X63216334Y-81052000D01*
X63143666Y-81052000D01*
X63035408Y-81067565D01*
X62930000Y-81115702D01*
X62930000Y-80196400D01*
X62268555Y-80196400D01*
X62209027Y-80202801D01*
X62209020Y-80202803D01*
X62074313Y-80253045D01*
X62074306Y-80253049D01*
X61959212Y-80339209D01*
X61959209Y-80339212D01*
X61873049Y-80454306D01*
X61873046Y-80454312D01*
X61829224Y-80571803D01*
X61787352Y-80627736D01*
X61721887Y-80652153D01*
X61653615Y-80637301D01*
X61621813Y-80612452D01*
X61567049Y-80552963D01*
X61567048Y-80552962D01*
X61567046Y-80552960D01*
X61388649Y-80414107D01*
X61362390Y-80399896D01*
X61189832Y-80306512D01*
X61189827Y-80306510D01*
X60976017Y-80233109D01*
X60794388Y-80202801D01*
X60753033Y-80195900D01*
X60526967Y-80195900D01*
X60485612Y-80202801D01*
X60303982Y-80233109D01*
X60090172Y-80306510D01*
X60090167Y-80306512D01*
X59891352Y-80414106D01*
X59712955Y-80552959D01*
X59712950Y-80552963D01*
X59559850Y-80719272D01*
X59559842Y-80719283D01*
X59473808Y-80850968D01*
X59420662Y-80896325D01*
X59351430Y-80905748D01*
X59288095Y-80876246D01*
X59266192Y-80850968D01*
X59180157Y-80719283D01*
X59180149Y-80719272D01*
X59027049Y-80552963D01*
X59027048Y-80552962D01*
X59027046Y-80552960D01*
X58848649Y-80414107D01*
X58822390Y-80399896D01*
X58649832Y-80306512D01*
X58649827Y-80306510D01*
X58436017Y-80233109D01*
X58254388Y-80202801D01*
X58213033Y-80195900D01*
X57986967Y-80195900D01*
X57945612Y-80202801D01*
X57763982Y-80233109D01*
X57550172Y-80306510D01*
X57550167Y-80306512D01*
X57351352Y-80414106D01*
X57172955Y-80552959D01*
X57172950Y-80552963D01*
X57019850Y-80719272D01*
X57019842Y-80719283D01*
X56933808Y-80850968D01*
X56880662Y-80896325D01*
X56811430Y-80905748D01*
X56748095Y-80876246D01*
X56726192Y-80850968D01*
X56640157Y-80719283D01*
X56640149Y-80719272D01*
X56487049Y-80552963D01*
X56487048Y-80552962D01*
X56487046Y-80552960D01*
X56308649Y-80414107D01*
X56282390Y-80399896D01*
X56109832Y-80306512D01*
X56109827Y-80306510D01*
X55896017Y-80233109D01*
X55714388Y-80202801D01*
X55673033Y-80195900D01*
X55446967Y-80195900D01*
X55405612Y-80202801D01*
X55223982Y-80233109D01*
X55010172Y-80306510D01*
X55010167Y-80306512D01*
X54811352Y-80414106D01*
X54632955Y-80552959D01*
X54632950Y-80552963D01*
X54479850Y-80719272D01*
X54479842Y-80719283D01*
X54393808Y-80850968D01*
X54340662Y-80896325D01*
X54271430Y-80905748D01*
X54208095Y-80876246D01*
X54186192Y-80850968D01*
X54100157Y-80719283D01*
X54100149Y-80719272D01*
X53947049Y-80552963D01*
X53947048Y-80552962D01*
X53947046Y-80552960D01*
X53768649Y-80414107D01*
X53742390Y-80399896D01*
X53569832Y-80306512D01*
X53569827Y-80306510D01*
X53356017Y-80233109D01*
X53174388Y-80202801D01*
X53133033Y-80195900D01*
X52906967Y-80195900D01*
X52865612Y-80202801D01*
X52683982Y-80233109D01*
X52470172Y-80306510D01*
X52470167Y-80306512D01*
X52271352Y-80414106D01*
X52092955Y-80552959D01*
X52092950Y-80552963D01*
X51939850Y-80719272D01*
X51939842Y-80719283D01*
X51853808Y-80850968D01*
X51800662Y-80896325D01*
X51731430Y-80905748D01*
X51668095Y-80876246D01*
X51646192Y-80850968D01*
X51560157Y-80719283D01*
X51560149Y-80719272D01*
X51407049Y-80552963D01*
X51407048Y-80552962D01*
X51407046Y-80552960D01*
X51228649Y-80414107D01*
X51202390Y-80399896D01*
X51029832Y-80306512D01*
X51029827Y-80306510D01*
X50816017Y-80233109D01*
X50634388Y-80202801D01*
X50593033Y-80195900D01*
X50366967Y-80195900D01*
X50325612Y-80202801D01*
X50143982Y-80233109D01*
X49930172Y-80306510D01*
X49930167Y-80306512D01*
X49731352Y-80414106D01*
X49552955Y-80552959D01*
X49552950Y-80552963D01*
X49399850Y-80719272D01*
X49399842Y-80719283D01*
X49276198Y-80908533D01*
X49185388Y-81115560D01*
X49129892Y-81334710D01*
X49111225Y-81559993D01*
X49111225Y-81560006D01*
X49129892Y-81785289D01*
X49185388Y-82004439D01*
X49276198Y-82211466D01*
X49399842Y-82400716D01*
X49399850Y-82400727D01*
X49552950Y-82567036D01*
X49552954Y-82567040D01*
X49731351Y-82705893D01*
X49873089Y-82782598D01*
X49930161Y-82813484D01*
X49930169Y-82813488D01*
X49930172Y-82813489D01*
X50143982Y-82886890D01*
X50143984Y-82886890D01*
X50143986Y-82886891D01*
X50366967Y-82924100D01*
X50366968Y-82924100D01*
X50471946Y-82924100D01*
X50538985Y-82943785D01*
X50584740Y-82996589D01*
X50594684Y-83065747D01*
X50565659Y-83129303D01*
X50559627Y-83135781D01*
X50257228Y-83438181D01*
X50195905Y-83471666D01*
X50169547Y-83474500D01*
X41022738Y-83474500D01*
X41007121Y-83472776D01*
X41007094Y-83473062D01*
X40999332Y-83472327D01*
X40930204Y-83474500D01*
X40900650Y-83474500D01*
X40899929Y-83474590D01*
X40893757Y-83475369D01*
X40887945Y-83475826D01*
X40841373Y-83477290D01*
X40841372Y-83477290D01*
X40822129Y-83482881D01*
X40803079Y-83486825D01*
X40783211Y-83489334D01*
X40739884Y-83506488D01*
X40734358Y-83508379D01*
X40689614Y-83521379D01*
X40689610Y-83521381D01*
X40672366Y-83531579D01*
X40654905Y-83540133D01*
X40636274Y-83547510D01*
X40636262Y-83547517D01*
X40598570Y-83574902D01*
X40593687Y-83578109D01*
X40553580Y-83601829D01*
X40539414Y-83615995D01*
X40524624Y-83628627D01*
X40508414Y-83640404D01*
X40508411Y-83640407D01*
X40478710Y-83676309D01*
X40474777Y-83680631D01*
X35639208Y-88516199D01*
X35626951Y-88526020D01*
X35627134Y-88526241D01*
X35621123Y-88531213D01*
X35573772Y-88581636D01*
X35552889Y-88602519D01*
X35552877Y-88602532D01*
X35548621Y-88608017D01*
X35544837Y-88612447D01*
X35512937Y-88646418D01*
X35512936Y-88646420D01*
X35503284Y-88663976D01*
X35492610Y-88680226D01*
X35480329Y-88696061D01*
X35480324Y-88696068D01*
X35461815Y-88738838D01*
X35459245Y-88744084D01*
X35436803Y-88784906D01*
X35431822Y-88804307D01*
X35425521Y-88822710D01*
X35417562Y-88841102D01*
X35417561Y-88841105D01*
X35410271Y-88887127D01*
X35409087Y-88892846D01*
X35397501Y-88937972D01*
X35397500Y-88937982D01*
X35397500Y-88958016D01*
X35395973Y-88977413D01*
X35395959Y-88977501D01*
X35392840Y-88997194D01*
X35392840Y-88997195D01*
X35393474Y-89003903D01*
X35380185Y-89072498D01*
X35331921Y-89123019D01*
X35323826Y-89127292D01*
X35170370Y-89201192D01*
X34959782Y-89344768D01*
X34772952Y-89518121D01*
X34772950Y-89518123D01*
X34614041Y-89717388D01*
X34486608Y-89938109D01*
X34393492Y-90175362D01*
X34393490Y-90175369D01*
X34336777Y-90423845D01*
X34317732Y-90677995D01*
X34317732Y-90678004D01*
X20300500Y-90678004D01*
X20300500Y-64740004D01*
X61474732Y-64740004D01*
X61493777Y-64994154D01*
X61540734Y-65199888D01*
X61550492Y-65242637D01*
X61643607Y-65479888D01*
X61771041Y-65700612D01*
X61929950Y-65899877D01*
X62116783Y-66073232D01*
X62327366Y-66216805D01*
X62327371Y-66216807D01*
X62327372Y-66216808D01*
X62327373Y-66216809D01*
X62410254Y-66256722D01*
X62507972Y-66303780D01*
X62559832Y-66350602D01*
X62578145Y-66418029D01*
X62557097Y-66484653D01*
X62503371Y-66529321D01*
X62454171Y-66539500D01*
X61932129Y-66539500D01*
X61932123Y-66539501D01*
X61872516Y-66545908D01*
X61737671Y-66596202D01*
X61737664Y-66596206D01*
X61622455Y-66682452D01*
X61622452Y-66682455D01*
X61536206Y-66797664D01*
X61536202Y-66797671D01*
X61485908Y-66932517D01*
X61479501Y-66992116D01*
X61479500Y-66992135D01*
X61479500Y-69487870D01*
X61479501Y-69487876D01*
X61485908Y-69547483D01*
X61536202Y-69682328D01*
X61536206Y-69682335D01*
X61622452Y-69797544D01*
X61622455Y-69797547D01*
X61737664Y-69883793D01*
X61737671Y-69883797D01*
X61872517Y-69934091D01*
X61872516Y-69934091D01*
X61879444Y-69934835D01*
X61932127Y-69940500D01*
X64427872Y-69940499D01*
X64487483Y-69934091D01*
X64622331Y-69883796D01*
X64737546Y-69797546D01*
X64823796Y-69682331D01*
X64874091Y-69547483D01*
X64880500Y-69487873D01*
X64880499Y-67475450D01*
X64900184Y-67408412D01*
X64916813Y-67387775D01*
X73281788Y-59022801D01*
X73294042Y-59012986D01*
X73293859Y-59012764D01*
X73299866Y-59007792D01*
X73299877Y-59007786D01*
X73330775Y-58974882D01*
X73347227Y-58957364D01*
X73357671Y-58946918D01*
X73368120Y-58936471D01*
X73372379Y-58930978D01*
X73376152Y-58926561D01*
X73408062Y-58892582D01*
X73417713Y-58875024D01*
X73428396Y-58858761D01*
X73440673Y-58842936D01*
X73459185Y-58800153D01*
X73461738Y-58794941D01*
X73484197Y-58754092D01*
X73489180Y-58734680D01*
X73495481Y-58716280D01*
X73503437Y-58697896D01*
X73510729Y-58651852D01*
X73511906Y-58646171D01*
X73523500Y-58601019D01*
X73523500Y-58580983D01*
X73525027Y-58561582D01*
X73528160Y-58541804D01*
X73523775Y-58495415D01*
X73523500Y-58489577D01*
X73523500Y-44212451D01*
X73543185Y-44145412D01*
X73559815Y-44124774D01*
X73993627Y-43690961D01*
X74054950Y-43657477D01*
X74124642Y-43662461D01*
X74180575Y-43704333D01*
X74202199Y-43751051D01*
X74250489Y-43962628D01*
X74250492Y-43962637D01*
X74343607Y-44199888D01*
X74471041Y-44420612D01*
X74629950Y-44619877D01*
X74816783Y-44793232D01*
X75027366Y-44936805D01*
X75027371Y-44936807D01*
X75027372Y-44936808D01*
X75027373Y-44936809D01*
X75143971Y-44992959D01*
X75256992Y-45047387D01*
X75256993Y-45047387D01*
X75256996Y-45047389D01*
X75340774Y-45073231D01*
X75400029Y-45091509D01*
X75458288Y-45130080D01*
X75486446Y-45194024D01*
X75475562Y-45263041D01*
X75429093Y-45315218D01*
X75400029Y-45328491D01*
X75256992Y-45372612D01*
X75027373Y-45483190D01*
X75027372Y-45483191D01*
X74816782Y-45626768D01*
X74629952Y-45800121D01*
X74629950Y-45800123D01*
X74471041Y-45999388D01*
X74343608Y-46220109D01*
X74250492Y-46457362D01*
X74250490Y-46457369D01*
X74193777Y-46705845D01*
X74174732Y-46959995D01*
X74174732Y-46960004D01*
X74193777Y-47214154D01*
X74241266Y-47422218D01*
X74250492Y-47462637D01*
X74343607Y-47699888D01*
X74471041Y-47920612D01*
X74629950Y-48119877D01*
X74816783Y-48293232D01*
X75027366Y-48436805D01*
X75027371Y-48436807D01*
X75027372Y-48436808D01*
X75027373Y-48436809D01*
X75149328Y-48495538D01*
X75256992Y-48547387D01*
X75256993Y-48547387D01*
X75256996Y-48547389D01*
X75340774Y-48573231D01*
X75400029Y-48591509D01*
X75458288Y-48630080D01*
X75486446Y-48694024D01*
X75475562Y-48763041D01*
X75429093Y-48815218D01*
X75400029Y-48828491D01*
X75256992Y-48872612D01*
X75027373Y-48983190D01*
X75027372Y-48983191D01*
X74816782Y-49126768D01*
X74629952Y-49300121D01*
X74629950Y-49300123D01*
X74471041Y-49499388D01*
X74343608Y-49720109D01*
X74250492Y-49957362D01*
X74250490Y-49957369D01*
X74193777Y-50205845D01*
X74174732Y-50459995D01*
X74174732Y-50460004D01*
X74193777Y-50714154D01*
X74250102Y-50960931D01*
X74250492Y-50962637D01*
X74343607Y-51199888D01*
X74471041Y-51420612D01*
X74629950Y-51619877D01*
X74816783Y-51793232D01*
X75027366Y-51936805D01*
X75027371Y-51936807D01*
X75027372Y-51936808D01*
X75027373Y-51936809D01*
X75149328Y-51995538D01*
X75256992Y-52047387D01*
X75256993Y-52047387D01*
X75256996Y-52047389D01*
X75340774Y-52073231D01*
X75400029Y-52091509D01*
X75458288Y-52130080D01*
X75486446Y-52194024D01*
X75475562Y-52263041D01*
X75429093Y-52315218D01*
X75400029Y-52328491D01*
X75256992Y-52372612D01*
X75027373Y-52483190D01*
X75027372Y-52483191D01*
X74816782Y-52626768D01*
X74629952Y-52800121D01*
X74629950Y-52800123D01*
X74471041Y-52999388D01*
X74343608Y-53220109D01*
X74250492Y-53457362D01*
X74250490Y-53457369D01*
X74193777Y-53705845D01*
X74174732Y-53959995D01*
X74174732Y-53960004D01*
X74193777Y-54214154D01*
X74241858Y-54424812D01*
X74250492Y-54462637D01*
X74343607Y-54699888D01*
X74471041Y-54920612D01*
X74629950Y-55119877D01*
X74816783Y-55293232D01*
X75027366Y-55436805D01*
X75027371Y-55436807D01*
X75027372Y-55436808D01*
X75027373Y-55436809D01*
X75109266Y-55476246D01*
X75256992Y-55547387D01*
X75256993Y-55547387D01*
X75256996Y-55547389D01*
X75363360Y-55580197D01*
X75400029Y-55591509D01*
X75458288Y-55630080D01*
X75486446Y-55694024D01*
X75475562Y-55763041D01*
X75429093Y-55815218D01*
X75400029Y-55828491D01*
X75256992Y-55872612D01*
X75027373Y-55983190D01*
X75027372Y-55983191D01*
X74816782Y-56126768D01*
X74629952Y-56300121D01*
X74629950Y-56300123D01*
X74471041Y-56499388D01*
X74343608Y-56720109D01*
X74250492Y-56957362D01*
X74250490Y-56957369D01*
X74193777Y-57205845D01*
X74174732Y-57459995D01*
X74174732Y-57460004D01*
X74193777Y-57714154D01*
X74241102Y-57921500D01*
X74250492Y-57962637D01*
X74343607Y-58199888D01*
X74471041Y-58420612D01*
X74629950Y-58619877D01*
X74816783Y-58793232D01*
X75027366Y-58936805D01*
X75027371Y-58936807D01*
X75027372Y-58936808D01*
X75027373Y-58936809D01*
X75149328Y-58995538D01*
X75256992Y-59047387D01*
X75256993Y-59047387D01*
X75256996Y-59047389D01*
X75340774Y-59073231D01*
X75400029Y-59091509D01*
X75458288Y-59130080D01*
X75486446Y-59194024D01*
X75475562Y-59263041D01*
X75429093Y-59315218D01*
X75400029Y-59328491D01*
X75256992Y-59372612D01*
X75027373Y-59483190D01*
X75027372Y-59483191D01*
X74816782Y-59626768D01*
X74629952Y-59800121D01*
X74629950Y-59800123D01*
X74471041Y-59999388D01*
X74343608Y-60220109D01*
X74250492Y-60457362D01*
X74250490Y-60457369D01*
X74193777Y-60705845D01*
X74174732Y-60959995D01*
X74174732Y-60960004D01*
X74193777Y-61214154D01*
X74241102Y-61421500D01*
X74250492Y-61462637D01*
X74339422Y-61689226D01*
X74343608Y-61699890D01*
X74349514Y-61710120D01*
X74471041Y-61920612D01*
X74629950Y-62119877D01*
X74816783Y-62293232D01*
X75027366Y-62436805D01*
X75027371Y-62436807D01*
X75027372Y-62436808D01*
X75027373Y-62436809D01*
X75145069Y-62493488D01*
X75256992Y-62547387D01*
X75256993Y-62547387D01*
X75256996Y-62547389D01*
X75340774Y-62573231D01*
X75400029Y-62591509D01*
X75458288Y-62630080D01*
X75486446Y-62694024D01*
X75475562Y-62763041D01*
X75429093Y-62815218D01*
X75400029Y-62828491D01*
X75256992Y-62872612D01*
X75027373Y-62983190D01*
X75027372Y-62983191D01*
X74816782Y-63126768D01*
X74629952Y-63300121D01*
X74629950Y-63300123D01*
X74471041Y-63499388D01*
X74343608Y-63720109D01*
X74250492Y-63957362D01*
X74250490Y-63957369D01*
X74193777Y-64205845D01*
X74174732Y-64459995D01*
X74174732Y-64460004D01*
X74193777Y-64714154D01*
X74242106Y-64925899D01*
X74250492Y-64962637D01*
X74343607Y-65199888D01*
X74471041Y-65420612D01*
X74629950Y-65619877D01*
X74816783Y-65793232D01*
X75027366Y-65936805D01*
X75206690Y-66023163D01*
X75209010Y-66024280D01*
X75260869Y-66071102D01*
X75279182Y-66138529D01*
X75258134Y-66205153D01*
X75204408Y-66249822D01*
X75155208Y-66260000D01*
X74632155Y-66260000D01*
X74572627Y-66266401D01*
X74572620Y-66266403D01*
X74437913Y-66316645D01*
X74437906Y-66316649D01*
X74322812Y-66402809D01*
X74322809Y-66402812D01*
X74236649Y-66517906D01*
X74236645Y-66517913D01*
X74186403Y-66652620D01*
X74186401Y-66652627D01*
X74180000Y-66712155D01*
X74180000Y-67710000D01*
X75334118Y-67710000D01*
X75295444Y-67803369D01*
X75274823Y-67960000D01*
X75295444Y-68116631D01*
X75334118Y-68210000D01*
X74180000Y-68210000D01*
X74180000Y-69207844D01*
X74186401Y-69267372D01*
X74186403Y-69267379D01*
X74236645Y-69402086D01*
X74236649Y-69402093D01*
X74322809Y-69517187D01*
X74322812Y-69517190D01*
X74437906Y-69603350D01*
X74437913Y-69603354D01*
X74572620Y-69653596D01*
X74572627Y-69653598D01*
X74632155Y-69659999D01*
X74632172Y-69660000D01*
X75630000Y-69660000D01*
X75630000Y-68505881D01*
X75723369Y-68544556D01*
X75840677Y-68560000D01*
X75919323Y-68560000D01*
X76036631Y-68544556D01*
X76130000Y-68505881D01*
X76130000Y-69660000D01*
X77127828Y-69660000D01*
X77127844Y-69659999D01*
X77187372Y-69653598D01*
X77187379Y-69653596D01*
X77322086Y-69603354D01*
X77322093Y-69603350D01*
X77437187Y-69517190D01*
X77437190Y-69517187D01*
X77523350Y-69402093D01*
X77523354Y-69402086D01*
X77573596Y-69267379D01*
X77573598Y-69267372D01*
X77579999Y-69207844D01*
X77580000Y-69207827D01*
X77580000Y-68210000D01*
X76425882Y-68210000D01*
X76464556Y-68116631D01*
X76485177Y-67960000D01*
X76464556Y-67803369D01*
X76425882Y-67710000D01*
X77580000Y-67710000D01*
X77580000Y-67343952D01*
X77599685Y-67276913D01*
X77652489Y-67231158D01*
X77721647Y-67221214D01*
X77785203Y-67250239D01*
X77791681Y-67256271D01*
X79779194Y-69243784D01*
X79789019Y-69256048D01*
X79789240Y-69255866D01*
X79794210Y-69261873D01*
X79794213Y-69261876D01*
X79794214Y-69261877D01*
X79844651Y-69309241D01*
X79865530Y-69330120D01*
X79871004Y-69334366D01*
X79875442Y-69338156D01*
X79909418Y-69370062D01*
X79909422Y-69370064D01*
X79926973Y-69379713D01*
X79943231Y-69390392D01*
X79959064Y-69402674D01*
X79981015Y-69412172D01*
X80001837Y-69421183D01*
X80007081Y-69423752D01*
X80047908Y-69446197D01*
X80067312Y-69451179D01*
X80085710Y-69457478D01*
X80104105Y-69465438D01*
X80150129Y-69472726D01*
X80155832Y-69473907D01*
X80200981Y-69485500D01*
X80221016Y-69485500D01*
X80240413Y-69487026D01*
X80260196Y-69490160D01*
X80306584Y-69485775D01*
X80312422Y-69485500D01*
X115232129Y-69485500D01*
X115299168Y-69505185D01*
X115335937Y-69541678D01*
X115439842Y-69700716D01*
X115439850Y-69700727D01*
X115592950Y-69867036D01*
X115592954Y-69867040D01*
X115771351Y-70005893D01*
X115799165Y-70020945D01*
X115848755Y-70070165D01*
X115863863Y-70138382D01*
X115839692Y-70203937D01*
X115799165Y-70239055D01*
X115771352Y-70254106D01*
X115592955Y-70392959D01*
X115592950Y-70392963D01*
X115439850Y-70559272D01*
X115439842Y-70559283D01*
X115316198Y-70748533D01*
X115225388Y-70955560D01*
X115169892Y-71174710D01*
X115151225Y-71399993D01*
X115151225Y-71400006D01*
X115169892Y-71625289D01*
X115225388Y-71844439D01*
X115316198Y-72051466D01*
X115439842Y-72240716D01*
X115439850Y-72240727D01*
X115592950Y-72407036D01*
X115592954Y-72407040D01*
X115771351Y-72545893D01*
X115799165Y-72560945D01*
X115848755Y-72610165D01*
X115863863Y-72678382D01*
X115839692Y-72743937D01*
X115799165Y-72779055D01*
X115771352Y-72794106D01*
X115592955Y-72932959D01*
X115592950Y-72932963D01*
X115439850Y-73099272D01*
X115439842Y-73099283D01*
X115316198Y-73288533D01*
X115225388Y-73495560D01*
X115169892Y-73714710D01*
X115151225Y-73939993D01*
X115151225Y-73940006D01*
X115169892Y-74165289D01*
X115225388Y-74384439D01*
X115316198Y-74591466D01*
X115439842Y-74780716D01*
X115439844Y-74780719D01*
X115577245Y-74929976D01*
X115608167Y-74992629D01*
X115600307Y-75062055D01*
X115556160Y-75116211D01*
X115529349Y-75130140D01*
X115414311Y-75173046D01*
X115414306Y-75173049D01*
X115299212Y-75259209D01*
X115299209Y-75259212D01*
X115213049Y-75374306D01*
X115213045Y-75374313D01*
X115162803Y-75509020D01*
X115162801Y-75509027D01*
X115156400Y-75568555D01*
X115156400Y-76230000D01*
X116076804Y-76230000D01*
X116053155Y-76266799D01*
X116012000Y-76406961D01*
X116012000Y-76553039D01*
X116053155Y-76693201D01*
X116076804Y-76730000D01*
X115156400Y-76730000D01*
X115156400Y-77391444D01*
X115162801Y-77450972D01*
X115162803Y-77450979D01*
X115213045Y-77585686D01*
X115213049Y-77585693D01*
X115299209Y-77700787D01*
X115299212Y-77700790D01*
X115414306Y-77786950D01*
X115414313Y-77786954D01*
X115549020Y-77837196D01*
X115549027Y-77837198D01*
X115608555Y-77843599D01*
X115608572Y-77843600D01*
X116270000Y-77843600D01*
X116270000Y-76924297D01*
X116375408Y-76972435D01*
X116483666Y-76988000D01*
X116556334Y-76988000D01*
X116664592Y-76972435D01*
X116770000Y-76924297D01*
X116770000Y-77843600D01*
X117431428Y-77843600D01*
X117431444Y-77843599D01*
X117490972Y-77837198D01*
X117490979Y-77837196D01*
X117625686Y-77786954D01*
X117625689Y-77786952D01*
X117715688Y-77719579D01*
X117781152Y-77695161D01*
X117849426Y-77710012D01*
X117864312Y-77719579D01*
X117954310Y-77786952D01*
X117954313Y-77786954D01*
X118089020Y-77837196D01*
X118089027Y-77837198D01*
X118148555Y-77843599D01*
X118148572Y-77843600D01*
X118810000Y-77843600D01*
X118810000Y-76924297D01*
X118915408Y-76972435D01*
X119023666Y-76988000D01*
X119096334Y-76988000D01*
X119204592Y-76972435D01*
X119310000Y-76924297D01*
X119310000Y-77843600D01*
X119971428Y-77843600D01*
X119971444Y-77843599D01*
X120030972Y-77837198D01*
X120030979Y-77837196D01*
X120165686Y-77786954D01*
X120165693Y-77786950D01*
X120280787Y-77700790D01*
X120280790Y-77700787D01*
X120366950Y-77585693D01*
X120366954Y-77585686D01*
X120417196Y-77450979D01*
X120417198Y-77450972D01*
X120423599Y-77391444D01*
X120423600Y-77391427D01*
X120423600Y-76730000D01*
X119503196Y-76730000D01*
X119526845Y-76693201D01*
X119568000Y-76553039D01*
X119568000Y-76406961D01*
X119526845Y-76266799D01*
X119503196Y-76230000D01*
X120423600Y-76230000D01*
X120423600Y-75568572D01*
X120423599Y-75568555D01*
X120417198Y-75509027D01*
X120417196Y-75509020D01*
X120366954Y-75374313D01*
X120366950Y-75374306D01*
X120280790Y-75259212D01*
X120280787Y-75259209D01*
X120165693Y-75173049D01*
X120165686Y-75173045D01*
X120050651Y-75130140D01*
X119994717Y-75088269D01*
X119970300Y-75022804D01*
X119985152Y-74954531D01*
X120002749Y-74929981D01*
X120140156Y-74780719D01*
X120263802Y-74591465D01*
X120354611Y-74384441D01*
X120410107Y-74165293D01*
X120428775Y-73940000D01*
X120428775Y-73939993D01*
X120410107Y-73714710D01*
X120410107Y-73714707D01*
X120354611Y-73495559D01*
X120263802Y-73288535D01*
X120262727Y-73286890D01*
X120179646Y-73159725D01*
X120140156Y-73099281D01*
X120140153Y-73099278D01*
X120140149Y-73099272D01*
X119987049Y-72932963D01*
X119987048Y-72932962D01*
X119987046Y-72932960D01*
X119808649Y-72794107D01*
X119808647Y-72794106D01*
X119808646Y-72794105D01*
X119808639Y-72794100D01*
X119780836Y-72779055D01*
X119731244Y-72729837D01*
X119716135Y-72661620D01*
X119740306Y-72596064D01*
X119780836Y-72560945D01*
X119808639Y-72545899D01*
X119808642Y-72545896D01*
X119808649Y-72545893D01*
X119987046Y-72407040D01*
X120140156Y-72240719D01*
X120263802Y-72051465D01*
X120354611Y-71844441D01*
X120410107Y-71625293D01*
X120428775Y-71400000D01*
X120428775Y-71399993D01*
X120410107Y-71174710D01*
X120410107Y-71174707D01*
X120354611Y-70955559D01*
X120263802Y-70748535D01*
X120260812Y-70743959D01*
X120140157Y-70559283D01*
X120140149Y-70559272D01*
X119987049Y-70392963D01*
X119987048Y-70392962D01*
X119987046Y-70392960D01*
X119808649Y-70254107D01*
X119808647Y-70254106D01*
X119808646Y-70254105D01*
X119808639Y-70254100D01*
X119780836Y-70239055D01*
X119731244Y-70189837D01*
X119716135Y-70121620D01*
X119740306Y-70056064D01*
X119780836Y-70020945D01*
X119808639Y-70005899D01*
X119808642Y-70005896D01*
X119808649Y-70005893D01*
X119987046Y-69867040D01*
X120140156Y-69700719D01*
X120263802Y-69511465D01*
X120354611Y-69304441D01*
X120410107Y-69085293D01*
X120428617Y-68861903D01*
X120453770Y-68796722D01*
X120510172Y-68755483D01*
X120579915Y-68751285D01*
X120639874Y-68784465D01*
X128286197Y-76430788D01*
X128296022Y-76443051D01*
X128296243Y-76442869D01*
X128301214Y-76448878D01*
X128327217Y-76473295D01*
X128351635Y-76496226D01*
X128372529Y-76517120D01*
X128378011Y-76521373D01*
X128382443Y-76525157D01*
X128416418Y-76557062D01*
X128433976Y-76566714D01*
X128450235Y-76577395D01*
X128466064Y-76589673D01*
X128508838Y-76608182D01*
X128514056Y-76610738D01*
X128554908Y-76633197D01*
X128574316Y-76638180D01*
X128592717Y-76644480D01*
X128611104Y-76652437D01*
X128654488Y-76659308D01*
X128657119Y-76659725D01*
X128662839Y-76660909D01*
X128707981Y-76672500D01*
X128728016Y-76672500D01*
X128747414Y-76674026D01*
X128767194Y-76677159D01*
X128767195Y-76677160D01*
X128767195Y-76677159D01*
X128767196Y-76677160D01*
X128813584Y-76672775D01*
X128819422Y-76672500D01*
X129017172Y-76672500D01*
X129084211Y-76692185D01*
X129129966Y-76744989D01*
X129132588Y-76751170D01*
X129146607Y-76786888D01*
X129146609Y-76786892D01*
X129191070Y-76863901D01*
X129274041Y-77007612D01*
X129432950Y-77206877D01*
X129619783Y-77380232D01*
X129830366Y-77523805D01*
X129830371Y-77523807D01*
X129830372Y-77523808D01*
X129830373Y-77523809D01*
X129952328Y-77582538D01*
X130059992Y-77634387D01*
X130059993Y-77634387D01*
X130059996Y-77634389D01*
X130203876Y-77678770D01*
X130262135Y-77717341D01*
X130290293Y-77781285D01*
X130279409Y-77850302D01*
X130232940Y-77902479D01*
X130203876Y-77915752D01*
X130060175Y-77960078D01*
X129830624Y-78070623D01*
X129830616Y-78070628D01*
X129669813Y-78180261D01*
X130473779Y-78984227D01*
X130380412Y-79022901D01*
X130255075Y-79119075D01*
X130158901Y-79244411D01*
X130120226Y-79337779D01*
X129316453Y-78534006D01*
X129274455Y-78586670D01*
X129147058Y-78807328D01*
X129053973Y-79044505D01*
X129053968Y-79044522D01*
X128997273Y-79292920D01*
X128978233Y-79546995D01*
X128978233Y-79547004D01*
X128997273Y-79801079D01*
X129053968Y-80049477D01*
X129053973Y-80049494D01*
X129147058Y-80286671D01*
X129147057Y-80286671D01*
X129274457Y-80507332D01*
X129316452Y-80559993D01*
X129316453Y-80559993D01*
X130120226Y-79756219D01*
X130158901Y-79849588D01*
X130255075Y-79974925D01*
X130380412Y-80071099D01*
X130473779Y-80109772D01*
X129669813Y-80913737D01*
X129830623Y-81023375D01*
X129830624Y-81023376D01*
X130060176Y-81133921D01*
X130060174Y-81133921D01*
X130303652Y-81209024D01*
X130303658Y-81209026D01*
X130555595Y-81246999D01*
X130555604Y-81247000D01*
X130810396Y-81247000D01*
X130810404Y-81246999D01*
X131062341Y-81209026D01*
X131062347Y-81209024D01*
X131305824Y-81133921D01*
X131535381Y-81023373D01*
X131696185Y-80913737D01*
X130892220Y-80109772D01*
X130985588Y-80071099D01*
X131110925Y-79974925D01*
X131207099Y-79849589D01*
X131245773Y-79756220D01*
X132049545Y-80559993D01*
X132091545Y-80507327D01*
X132218941Y-80286671D01*
X132312026Y-80049494D01*
X132312031Y-80049477D01*
X132368726Y-79801079D01*
X132387767Y-79547004D01*
X132387767Y-79546995D01*
X132368726Y-79292920D01*
X132312031Y-79044522D01*
X132312026Y-79044505D01*
X132218941Y-78807328D01*
X132218942Y-78807328D01*
X132091544Y-78586671D01*
X132049546Y-78534006D01*
X131245772Y-79337779D01*
X131207099Y-79244412D01*
X131110925Y-79119075D01*
X130985588Y-79022901D01*
X130892220Y-78984227D01*
X131696185Y-78180261D01*
X131535377Y-78070624D01*
X131535376Y-78070623D01*
X131305823Y-77960078D01*
X131305825Y-77960078D01*
X131162123Y-77915752D01*
X131103864Y-77877181D01*
X131075706Y-77813237D01*
X131086590Y-77744220D01*
X131133059Y-77692043D01*
X131162120Y-77678771D01*
X131306004Y-77634389D01*
X131535634Y-77523805D01*
X131746217Y-77380232D01*
X131933050Y-77206877D01*
X132091959Y-77007612D01*
X132219393Y-76786888D01*
X132312508Y-76549637D01*
X132369222Y-76301157D01*
X132381006Y-76143910D01*
X132388268Y-76047004D01*
X132388268Y-76046995D01*
X132369222Y-75792845D01*
X132318033Y-75568572D01*
X132312508Y-75544363D01*
X132219393Y-75307112D01*
X132091959Y-75086388D01*
X131933050Y-74887123D01*
X131746217Y-74713768D01*
X131535634Y-74570195D01*
X131535630Y-74570193D01*
X131535627Y-74570191D01*
X131535626Y-74570190D01*
X131306006Y-74459612D01*
X131306008Y-74459612D01*
X131162970Y-74415491D01*
X131104711Y-74376921D01*
X131076553Y-74312976D01*
X131087437Y-74243959D01*
X131133906Y-74191782D01*
X131162970Y-74178509D01*
X131306004Y-74134389D01*
X131535634Y-74023805D01*
X131746217Y-73880232D01*
X131933050Y-73706877D01*
X132091959Y-73507612D01*
X132219393Y-73286888D01*
X132312508Y-73049637D01*
X132369222Y-72801157D01*
X132388268Y-72547000D01*
X132388185Y-72545899D01*
X132369222Y-72292845D01*
X132357326Y-72240727D01*
X132312508Y-72044363D01*
X132219393Y-71807112D01*
X132091959Y-71586388D01*
X131933050Y-71387123D01*
X131746217Y-71213768D01*
X131535634Y-71070195D01*
X131535630Y-71070193D01*
X131535627Y-71070191D01*
X131535626Y-71070190D01*
X131306006Y-70959612D01*
X131306008Y-70959612D01*
X131162970Y-70915491D01*
X131104711Y-70876921D01*
X131076553Y-70812976D01*
X131087437Y-70743959D01*
X131133906Y-70691782D01*
X131162970Y-70678509D01*
X131306004Y-70634389D01*
X131535634Y-70523805D01*
X131746217Y-70380232D01*
X131933050Y-70206877D01*
X132091959Y-70007612D01*
X132219393Y-69786888D01*
X132312508Y-69549637D01*
X132369222Y-69301157D01*
X132385398Y-69085295D01*
X132388268Y-69047004D01*
X132388268Y-69046995D01*
X132369222Y-68792845D01*
X132367309Y-68784465D01*
X132312508Y-68544363D01*
X132219393Y-68307112D01*
X132091959Y-68086388D01*
X131933050Y-67887123D01*
X131746217Y-67713768D01*
X131535634Y-67570195D01*
X131535630Y-67570193D01*
X131535627Y-67570191D01*
X131535626Y-67570190D01*
X131306006Y-67459612D01*
X131306008Y-67459612D01*
X131162970Y-67415491D01*
X131104711Y-67376921D01*
X131076553Y-67312976D01*
X131087437Y-67243959D01*
X131133906Y-67191782D01*
X131162970Y-67178509D01*
X131306004Y-67134389D01*
X131535634Y-67023805D01*
X131746217Y-66880232D01*
X131933050Y-66706877D01*
X132091959Y-66507612D01*
X132219393Y-66286888D01*
X132312508Y-66049637D01*
X132369222Y-65801157D01*
X132380075Y-65656325D01*
X132388268Y-65547004D01*
X132388268Y-65546995D01*
X132370730Y-65312963D01*
X132369222Y-65292843D01*
X132312508Y-65044363D01*
X132219393Y-64807112D01*
X132091959Y-64586388D01*
X131933050Y-64387123D01*
X131746217Y-64213768D01*
X131535634Y-64070195D01*
X131535630Y-64070193D01*
X131535627Y-64070191D01*
X131535626Y-64070190D01*
X131306006Y-63959612D01*
X131306008Y-63959612D01*
X131162970Y-63915491D01*
X131104711Y-63876921D01*
X131076553Y-63812976D01*
X131087437Y-63743959D01*
X131133906Y-63691782D01*
X131162970Y-63678509D01*
X131306004Y-63634389D01*
X131535634Y-63523805D01*
X131746217Y-63380232D01*
X131933050Y-63206877D01*
X132091959Y-63007612D01*
X132219393Y-62786888D01*
X132312508Y-62549637D01*
X132369222Y-62301157D01*
X132385741Y-62080719D01*
X132388268Y-62047004D01*
X132388268Y-62046995D01*
X132370039Y-61803746D01*
X132369222Y-61792843D01*
X132312508Y-61544363D01*
X132219393Y-61307112D01*
X132091959Y-61086388D01*
X131933050Y-60887123D01*
X131746217Y-60713768D01*
X131535634Y-60570195D01*
X131535628Y-60570192D01*
X131535627Y-60570191D01*
X131535625Y-60570190D01*
X131355027Y-60483219D01*
X131303167Y-60436397D01*
X131284854Y-60368970D01*
X131305902Y-60302346D01*
X131359628Y-60257677D01*
X131408826Y-60247499D01*
X131930872Y-60247499D01*
X131990483Y-60241091D01*
X132125331Y-60190796D01*
X132240546Y-60104546D01*
X132326796Y-59989331D01*
X132377091Y-59854483D01*
X132383500Y-59794873D01*
X132383499Y-57299128D01*
X132377091Y-57239517D01*
X132376287Y-57237362D01*
X132326797Y-57104671D01*
X132326793Y-57104664D01*
X132240547Y-56989455D01*
X132240544Y-56989452D01*
X132125335Y-56903206D01*
X132125328Y-56903202D01*
X131990482Y-56852908D01*
X131990483Y-56852908D01*
X131930883Y-56846501D01*
X131930881Y-56846500D01*
X131930873Y-56846500D01*
X131930864Y-56846500D01*
X129435129Y-56846500D01*
X129435123Y-56846501D01*
X129375516Y-56852908D01*
X129240671Y-56903202D01*
X129240664Y-56903206D01*
X129125455Y-56989452D01*
X129125452Y-56989455D01*
X129039206Y-57104664D01*
X129039202Y-57104671D01*
X128988908Y-57239517D01*
X128987794Y-57249883D01*
X128982501Y-57299123D01*
X128982500Y-57299135D01*
X128982500Y-57797500D01*
X128962815Y-57864539D01*
X128910011Y-57910294D01*
X128858500Y-57921500D01*
X124297453Y-57921500D01*
X124230414Y-57901815D01*
X124209772Y-57885181D01*
X120411387Y-54086796D01*
X120377902Y-54025473D01*
X120378863Y-53968674D01*
X120410104Y-53845305D01*
X120410104Y-53845304D01*
X120410107Y-53845293D01*
X120419050Y-53737369D01*
X120428775Y-53620006D01*
X120428775Y-53619993D01*
X120410107Y-53394710D01*
X120410107Y-53394707D01*
X120354611Y-53175559D01*
X120263802Y-52968535D01*
X120262979Y-52967276D01*
X120140157Y-52779283D01*
X120140149Y-52779272D01*
X119987049Y-52612963D01*
X119987048Y-52612962D01*
X119987046Y-52612960D01*
X119808649Y-52474107D01*
X119808647Y-52474106D01*
X119808646Y-52474105D01*
X119808639Y-52474100D01*
X119780836Y-52459055D01*
X119731244Y-52409837D01*
X119716135Y-52341620D01*
X119740306Y-52276064D01*
X119780836Y-52240945D01*
X119808639Y-52225899D01*
X119808642Y-52225896D01*
X119808649Y-52225893D01*
X119987046Y-52087040D01*
X120108381Y-51955236D01*
X120140149Y-51920727D01*
X120140151Y-51920724D01*
X120140156Y-51920719D01*
X120244063Y-51761678D01*
X120297209Y-51716322D01*
X120347871Y-51705500D01*
X128885548Y-51705500D01*
X128952587Y-51725185D01*
X128973229Y-51741819D01*
X129064370Y-51832960D01*
X129097855Y-51894283D01*
X129092871Y-51963975D01*
X129092118Y-51965942D01*
X129053491Y-52064362D01*
X128996777Y-52312845D01*
X128977732Y-52566995D01*
X128977732Y-52567004D01*
X128996777Y-52821154D01*
X129050647Y-53057175D01*
X129053492Y-53069637D01*
X129146607Y-53306888D01*
X129274041Y-53527612D01*
X129432950Y-53726877D01*
X129619783Y-53900232D01*
X129830366Y-54043805D01*
X129830371Y-54043807D01*
X129830372Y-54043808D01*
X129830373Y-54043809D01*
X129943900Y-54098480D01*
X130059992Y-54154387D01*
X130059993Y-54154387D01*
X130059996Y-54154389D01*
X130303542Y-54229513D01*
X130555565Y-54267500D01*
X130810435Y-54267500D01*
X131062458Y-54229513D01*
X131306004Y-54154389D01*
X131535634Y-54043805D01*
X131746217Y-53900232D01*
X131933050Y-53726877D01*
X132091959Y-53527612D01*
X132219393Y-53306888D01*
X132312508Y-53069637D01*
X132369222Y-52821157D01*
X132377384Y-52712232D01*
X132388268Y-52567004D01*
X132388268Y-52566995D01*
X132373244Y-52366512D01*
X132369222Y-52312843D01*
X132312508Y-52064363D01*
X132219393Y-51827112D01*
X132091959Y-51606388D01*
X131933050Y-51407123D01*
X131746217Y-51233768D01*
X131535634Y-51090195D01*
X131535630Y-51090193D01*
X131535627Y-51090191D01*
X131535626Y-51090190D01*
X131306006Y-50979612D01*
X131306008Y-50979612D01*
X131162970Y-50935491D01*
X131104711Y-50896921D01*
X131076553Y-50832976D01*
X131087437Y-50763959D01*
X131133906Y-50711782D01*
X131162970Y-50698509D01*
X131306004Y-50654389D01*
X131535634Y-50543805D01*
X131746217Y-50400232D01*
X131933050Y-50226877D01*
X132091959Y-50027612D01*
X132219393Y-49806888D01*
X132312508Y-49569637D01*
X132369222Y-49321157D01*
X132378941Y-49191465D01*
X132388268Y-49067004D01*
X132388268Y-49066995D01*
X132373618Y-48871509D01*
X132369222Y-48812843D01*
X132312508Y-48564363D01*
X132219393Y-48327112D01*
X132091959Y-48106388D01*
X131933050Y-47907123D01*
X131746217Y-47733768D01*
X131535634Y-47590195D01*
X131535630Y-47590193D01*
X131535627Y-47590191D01*
X131535626Y-47590190D01*
X131306006Y-47479612D01*
X131306008Y-47479612D01*
X131162970Y-47435491D01*
X131104711Y-47396921D01*
X131076553Y-47332976D01*
X131087437Y-47263959D01*
X131133906Y-47211782D01*
X131162970Y-47198509D01*
X131306004Y-47154389D01*
X131535634Y-47043805D01*
X131746217Y-46900232D01*
X131933050Y-46726877D01*
X132091959Y-46527612D01*
X132219393Y-46306888D01*
X132312508Y-46069637D01*
X132369222Y-45821157D01*
X132377384Y-45712232D01*
X132388268Y-45567004D01*
X132388268Y-45566995D01*
X132370312Y-45327387D01*
X132369222Y-45312843D01*
X132312508Y-45064363D01*
X132219393Y-44827112D01*
X132091959Y-44606388D01*
X131933050Y-44407123D01*
X131746217Y-44233768D01*
X131535634Y-44090195D01*
X131535630Y-44090193D01*
X131535627Y-44090191D01*
X131535626Y-44090190D01*
X131306006Y-43979612D01*
X131306008Y-43979612D01*
X131162970Y-43935491D01*
X131104711Y-43896921D01*
X131076553Y-43832976D01*
X131087437Y-43763959D01*
X131133906Y-43711782D01*
X131162970Y-43698509D01*
X131306004Y-43654389D01*
X131507144Y-43557525D01*
X131535626Y-43543809D01*
X131535626Y-43543808D01*
X131535634Y-43543805D01*
X131746217Y-43400232D01*
X131933050Y-43226877D01*
X132091959Y-43027612D01*
X132219393Y-42806888D01*
X132312508Y-42569637D01*
X132369222Y-42321157D01*
X132380288Y-42173488D01*
X132388268Y-42067004D01*
X132388268Y-42066995D01*
X132369222Y-41812845D01*
X132357326Y-41760727D01*
X132312508Y-41564363D01*
X132219393Y-41327112D01*
X132091959Y-41106388D01*
X131933050Y-40907123D01*
X131746217Y-40733768D01*
X131535634Y-40590195D01*
X131535630Y-40590193D01*
X131535627Y-40590191D01*
X131535626Y-40590190D01*
X131306006Y-40479612D01*
X131306008Y-40479612D01*
X131162970Y-40435491D01*
X131104711Y-40396921D01*
X131076553Y-40332976D01*
X131087437Y-40263959D01*
X131133906Y-40211782D01*
X131162970Y-40198509D01*
X131306004Y-40154389D01*
X131535634Y-40043805D01*
X131746217Y-39900232D01*
X131933050Y-39726877D01*
X132091959Y-39527612D01*
X132219393Y-39306888D01*
X132312508Y-39069637D01*
X132369222Y-38821157D01*
X132381056Y-38663235D01*
X132388268Y-38567004D01*
X132388268Y-38566995D01*
X132369222Y-38312845D01*
X132312509Y-38064369D01*
X132312508Y-38064363D01*
X132219393Y-37827112D01*
X132091959Y-37606388D01*
X131933050Y-37407123D01*
X131746217Y-37233768D01*
X131535634Y-37090195D01*
X131535630Y-37090193D01*
X131535627Y-37090191D01*
X131535626Y-37090190D01*
X131306006Y-36979612D01*
X131306008Y-36979612D01*
X131162970Y-36935491D01*
X131104711Y-36896921D01*
X131076553Y-36832976D01*
X131087437Y-36763959D01*
X131133906Y-36711782D01*
X131162970Y-36698509D01*
X131306004Y-36654389D01*
X131535634Y-36543805D01*
X131746217Y-36400232D01*
X131933050Y-36226877D01*
X132091959Y-36027612D01*
X132219393Y-35806888D01*
X132312508Y-35569637D01*
X132369222Y-35321157D01*
X132383373Y-35132322D01*
X132388268Y-35067004D01*
X132388268Y-35066995D01*
X132370730Y-34832963D01*
X132369222Y-34812843D01*
X132312508Y-34564363D01*
X132219393Y-34327112D01*
X132091959Y-34106388D01*
X131933050Y-33907123D01*
X131746217Y-33733768D01*
X131535634Y-33590195D01*
X131535630Y-33590193D01*
X131535627Y-33590191D01*
X131535626Y-33590190D01*
X131306006Y-33479612D01*
X131306008Y-33479612D01*
X131162970Y-33435491D01*
X131104711Y-33396921D01*
X131076553Y-33332976D01*
X131087437Y-33263959D01*
X131133906Y-33211782D01*
X131162970Y-33198509D01*
X131306004Y-33154389D01*
X131535634Y-33043805D01*
X131746217Y-32900232D01*
X131933050Y-32726877D01*
X132091959Y-32527612D01*
X132219393Y-32306888D01*
X132312508Y-32069637D01*
X132369222Y-31821157D01*
X132384844Y-31612689D01*
X132388268Y-31567004D01*
X132388268Y-31566995D01*
X132369222Y-31312845D01*
X132363014Y-31285647D01*
X132312508Y-31064363D01*
X132219393Y-30827112D01*
X132091959Y-30606388D01*
X131933050Y-30407123D01*
X131746217Y-30233768D01*
X131535634Y-30090195D01*
X131535630Y-30090193D01*
X131535627Y-30090191D01*
X131535625Y-30090190D01*
X131355027Y-30003219D01*
X131303167Y-29956397D01*
X131284854Y-29888970D01*
X131305902Y-29822346D01*
X131359628Y-29777677D01*
X131408828Y-29767499D01*
X131930871Y-29767499D01*
X131930872Y-29767499D01*
X131990483Y-29761091D01*
X132125331Y-29710796D01*
X132240546Y-29624546D01*
X132326796Y-29509331D01*
X132377091Y-29374483D01*
X132383500Y-29314873D01*
X132383499Y-26819128D01*
X132377091Y-26759517D01*
X132347067Y-26679019D01*
X132326797Y-26624671D01*
X132326793Y-26624664D01*
X132240547Y-26509455D01*
X132240544Y-26509452D01*
X132125335Y-26423206D01*
X132125328Y-26423202D01*
X131990482Y-26372908D01*
X131990483Y-26372908D01*
X131930883Y-26366501D01*
X131930881Y-26366500D01*
X131930873Y-26366500D01*
X131930864Y-26366500D01*
X129435129Y-26366500D01*
X129435123Y-26366501D01*
X129375516Y-26372908D01*
X129240671Y-26423202D01*
X129240664Y-26423206D01*
X129125455Y-26509452D01*
X129125452Y-26509455D01*
X129039206Y-26624664D01*
X129039202Y-26624671D01*
X128988908Y-26759517D01*
X128985171Y-26794280D01*
X128982501Y-26819123D01*
X128982500Y-26819135D01*
X128982500Y-28831546D01*
X128962815Y-28898585D01*
X128946181Y-28919227D01*
X125253228Y-32612181D01*
X125191905Y-32645666D01*
X125165547Y-32648500D01*
X120330885Y-32648500D01*
X120263846Y-32628815D01*
X120227077Y-32592322D01*
X120140157Y-32459283D01*
X120140149Y-32459272D01*
X119987049Y-32292963D01*
X119987048Y-32292962D01*
X119987046Y-32292960D01*
X119808649Y-32154107D01*
X119750479Y-32122627D01*
X119609832Y-32046512D01*
X119609827Y-32046510D01*
X119396017Y-31973109D01*
X119202954Y-31940893D01*
X119173033Y-31935900D01*
X118946967Y-31935900D01*
X118927431Y-31939160D01*
X118723982Y-31973109D01*
X118510172Y-32046510D01*
X118510167Y-32046512D01*
X118311352Y-32154106D01*
X118132955Y-32292959D01*
X118132950Y-32292963D01*
X117979850Y-32459272D01*
X117979842Y-32459283D01*
X117893808Y-32590968D01*
X117840662Y-32636325D01*
X117771430Y-32645748D01*
X117708095Y-32616246D01*
X117686192Y-32590968D01*
X117600157Y-32459283D01*
X117600149Y-32459272D01*
X117447049Y-32292963D01*
X117447048Y-32292962D01*
X117447046Y-32292960D01*
X117268649Y-32154107D01*
X117210479Y-32122627D01*
X117069832Y-32046512D01*
X117069827Y-32046510D01*
X116856017Y-31973109D01*
X116662954Y-31940893D01*
X116633033Y-31935900D01*
X116406967Y-31935900D01*
X116387431Y-31939160D01*
X116183982Y-31973109D01*
X115970172Y-32046510D01*
X115970167Y-32046512D01*
X115771352Y-32154106D01*
X115592955Y-32292959D01*
X115592950Y-32292963D01*
X115439850Y-32459272D01*
X115439842Y-32459283D01*
X115316198Y-32648533D01*
X115225388Y-32855560D01*
X115169892Y-33074710D01*
X115151225Y-33299993D01*
X115151225Y-33300006D01*
X115169892Y-33525289D01*
X115225388Y-33744439D01*
X115316198Y-33951466D01*
X115439842Y-34140716D01*
X115439850Y-34140727D01*
X115592950Y-34307036D01*
X115592954Y-34307040D01*
X115771351Y-34445893D01*
X115799165Y-34460945D01*
X115848755Y-34510165D01*
X115863863Y-34578382D01*
X115839692Y-34643937D01*
X115799165Y-34679055D01*
X115771352Y-34694106D01*
X115592955Y-34832959D01*
X115592950Y-34832963D01*
X115439850Y-34999272D01*
X115439842Y-34999283D01*
X115316198Y-35188533D01*
X115225388Y-35395560D01*
X115169892Y-35614710D01*
X115151225Y-35839993D01*
X115151225Y-35840006D01*
X115169892Y-36065289D01*
X115225388Y-36284439D01*
X115316198Y-36491466D01*
X115439842Y-36680716D01*
X115439850Y-36680727D01*
X115580007Y-36832976D01*
X115592954Y-36847040D01*
X115771351Y-36985893D01*
X115799165Y-37000945D01*
X115848755Y-37050165D01*
X115863863Y-37118382D01*
X115839692Y-37183937D01*
X115799165Y-37219055D01*
X115771352Y-37234106D01*
X115592955Y-37372959D01*
X115592950Y-37372963D01*
X115439850Y-37539272D01*
X115439842Y-37539283D01*
X115316198Y-37728533D01*
X115225388Y-37935560D01*
X115169892Y-38154710D01*
X115151225Y-38379993D01*
X115151225Y-38380006D01*
X115169892Y-38605289D01*
X115225388Y-38824439D01*
X115316198Y-39031466D01*
X115439842Y-39220716D01*
X115439850Y-39220727D01*
X115519170Y-39306890D01*
X115592954Y-39387040D01*
X115771351Y-39525893D01*
X115799165Y-39540945D01*
X115848755Y-39590165D01*
X115863863Y-39658382D01*
X115839692Y-39723937D01*
X115799165Y-39759055D01*
X115771352Y-39774106D01*
X115592955Y-39912959D01*
X115592950Y-39912963D01*
X115439850Y-40079272D01*
X115439842Y-40079283D01*
X115316198Y-40268533D01*
X115225388Y-40475560D01*
X115169892Y-40694710D01*
X115151225Y-40919993D01*
X115151225Y-40920006D01*
X115169892Y-41145289D01*
X115225388Y-41364439D01*
X115316198Y-41571466D01*
X115439842Y-41760716D01*
X115439850Y-41760727D01*
X115592950Y-41927036D01*
X115592954Y-41927040D01*
X115771351Y-42065893D01*
X115792775Y-42077487D01*
X115799165Y-42080945D01*
X115848755Y-42130165D01*
X115863863Y-42198382D01*
X115839692Y-42263937D01*
X115799165Y-42299055D01*
X115771352Y-42314106D01*
X115592955Y-42452959D01*
X115592950Y-42452963D01*
X115439850Y-42619272D01*
X115439842Y-42619283D01*
X115316198Y-42808533D01*
X115225388Y-43015560D01*
X115169892Y-43234710D01*
X115151382Y-43458093D01*
X115126229Y-43523278D01*
X115069827Y-43564516D01*
X115000084Y-43568714D01*
X114940125Y-43535534D01*
X114641819Y-43237228D01*
X114608334Y-43175905D01*
X114605500Y-43149547D01*
X114605500Y-35910844D01*
X114607697Y-35887606D01*
X114609227Y-35879588D01*
X114605621Y-35822275D01*
X114605500Y-35818403D01*
X114605500Y-35800650D01*
X114603270Y-35783002D01*
X114602910Y-35779191D01*
X114599304Y-35721862D01*
X114596779Y-35714092D01*
X114591687Y-35691314D01*
X114590664Y-35683208D01*
X114569520Y-35629806D01*
X114568211Y-35626170D01*
X114550467Y-35571559D01*
X114546089Y-35564661D01*
X114535495Y-35543868D01*
X114532486Y-35536268D01*
X114498736Y-35489815D01*
X114496545Y-35486592D01*
X114465785Y-35438122D01*
X114459834Y-35432534D01*
X114444398Y-35415025D01*
X114439594Y-35408413D01*
X114439591Y-35408411D01*
X114439591Y-35408410D01*
X114395361Y-35371820D01*
X114392438Y-35369243D01*
X114350585Y-35329940D01*
X114350577Y-35329934D01*
X114343415Y-35325997D01*
X114324114Y-35312880D01*
X114317824Y-35307676D01*
X114265878Y-35283232D01*
X114262417Y-35281469D01*
X114212092Y-35253803D01*
X114212089Y-35253802D01*
X114212085Y-35253800D01*
X114204174Y-35251769D01*
X114182222Y-35243866D01*
X114174825Y-35240385D01*
X114174821Y-35240384D01*
X114118444Y-35229630D01*
X114114644Y-35228780D01*
X114059023Y-35214500D01*
X114059019Y-35214500D01*
X114050847Y-35214500D01*
X114027615Y-35212304D01*
X114019588Y-35210773D01*
X114019586Y-35210773D01*
X114010633Y-35211336D01*
X113962275Y-35214378D01*
X113958403Y-35214500D01*
X73422743Y-35214500D01*
X73407122Y-35212775D01*
X73407096Y-35213061D01*
X73399334Y-35212327D01*
X73399333Y-35212327D01*
X73330186Y-35214500D01*
X73300649Y-35214500D01*
X73293766Y-35215369D01*
X73287949Y-35215826D01*
X73241373Y-35217290D01*
X73222129Y-35222881D01*
X73203079Y-35226825D01*
X73183211Y-35229334D01*
X73139884Y-35246488D01*
X73134358Y-35248379D01*
X73089614Y-35261379D01*
X73089610Y-35261381D01*
X73072366Y-35271579D01*
X73054905Y-35280133D01*
X73036274Y-35287510D01*
X73036262Y-35287517D01*
X72998570Y-35314902D01*
X72993687Y-35318109D01*
X72953580Y-35341829D01*
X72939414Y-35355995D01*
X72924624Y-35368627D01*
X72908414Y-35380404D01*
X72908411Y-35380407D01*
X72878710Y-35416309D01*
X72874777Y-35420631D01*
X67876208Y-40419199D01*
X67863951Y-40429020D01*
X67864134Y-40429241D01*
X67858123Y-40434213D01*
X67810772Y-40484636D01*
X67789889Y-40505519D01*
X67789877Y-40505532D01*
X67785621Y-40511017D01*
X67781837Y-40515447D01*
X67749937Y-40549418D01*
X67749936Y-40549420D01*
X67740284Y-40566976D01*
X67729610Y-40583226D01*
X67717329Y-40599061D01*
X67717324Y-40599068D01*
X67698815Y-40641838D01*
X67696245Y-40647084D01*
X67673803Y-40687906D01*
X67668822Y-40707307D01*
X67662521Y-40725710D01*
X67654562Y-40744102D01*
X67654561Y-40744105D01*
X67647271Y-40790127D01*
X67646087Y-40795846D01*
X67634501Y-40840972D01*
X67634500Y-40840982D01*
X67634500Y-40861016D01*
X67632973Y-40880415D01*
X67629840Y-40900194D01*
X67629840Y-40900195D01*
X67634225Y-40946583D01*
X67634500Y-40952421D01*
X67634500Y-55849546D01*
X67614815Y-55916585D01*
X67598181Y-55937227D01*
X64917425Y-58617983D01*
X64856102Y-58651468D01*
X64786410Y-58646484D01*
X64730477Y-58604612D01*
X64706060Y-58539148D01*
X64716426Y-58484884D01*
X64714698Y-58484206D01*
X64739657Y-58420612D01*
X64809508Y-58242637D01*
X64866222Y-57994157D01*
X64885268Y-57740000D01*
X64883331Y-57714157D01*
X64866222Y-57485845D01*
X64863297Y-57473030D01*
X64809508Y-57237363D01*
X64716393Y-57000112D01*
X64588959Y-56779388D01*
X64430050Y-56580123D01*
X64243217Y-56406768D01*
X64032634Y-56263195D01*
X64032630Y-56263193D01*
X64032627Y-56263191D01*
X64032626Y-56263190D01*
X63803006Y-56152612D01*
X63803008Y-56152612D01*
X63659970Y-56108491D01*
X63601711Y-56069921D01*
X63573553Y-56005976D01*
X63584437Y-55936959D01*
X63630906Y-55884782D01*
X63659970Y-55871509D01*
X63803004Y-55827389D01*
X64032634Y-55716805D01*
X64243217Y-55573232D01*
X64430050Y-55399877D01*
X64588959Y-55200612D01*
X64716393Y-54979888D01*
X64809508Y-54742637D01*
X64866222Y-54494157D01*
X64878596Y-54329031D01*
X64885268Y-54240004D01*
X64885268Y-54239995D01*
X64866222Y-53985845D01*
X64858596Y-53952434D01*
X64809508Y-53737363D01*
X64716393Y-53500112D01*
X64588959Y-53279388D01*
X64430050Y-53080123D01*
X64243217Y-52906768D01*
X64032634Y-52763195D01*
X64032630Y-52763193D01*
X64032627Y-52763191D01*
X64032626Y-52763190D01*
X63803006Y-52652612D01*
X63803008Y-52652612D01*
X63674468Y-52612963D01*
X63659969Y-52608490D01*
X63601711Y-52569921D01*
X63573553Y-52505976D01*
X63584437Y-52436959D01*
X63630906Y-52384782D01*
X63659970Y-52371509D01*
X63676170Y-52366512D01*
X63803004Y-52327389D01*
X64032634Y-52216805D01*
X64243217Y-52073232D01*
X64430050Y-51899877D01*
X64588959Y-51700612D01*
X64716393Y-51479888D01*
X64809508Y-51242637D01*
X64866222Y-50994157D01*
X64876672Y-50854707D01*
X64885268Y-50740004D01*
X64885268Y-50739995D01*
X64867245Y-50499500D01*
X64866222Y-50485843D01*
X64809508Y-50237363D01*
X64716393Y-50000112D01*
X64588959Y-49779388D01*
X64430050Y-49580123D01*
X64243217Y-49406768D01*
X64032634Y-49263195D01*
X64032630Y-49263193D01*
X64032627Y-49263191D01*
X64032626Y-49263190D01*
X63803006Y-49152612D01*
X63803008Y-49152612D01*
X63659970Y-49108491D01*
X63601711Y-49069921D01*
X63573553Y-49005976D01*
X63584437Y-48936959D01*
X63630906Y-48884782D01*
X63659970Y-48871509D01*
X63803004Y-48827389D01*
X64032634Y-48716805D01*
X64243217Y-48573232D01*
X64430050Y-48399877D01*
X64588959Y-48200612D01*
X64716393Y-47979888D01*
X64809508Y-47742637D01*
X64866222Y-47494157D01*
X64880695Y-47301024D01*
X64885268Y-47240004D01*
X64885268Y-47239995D01*
X64866222Y-46985845D01*
X64846681Y-46900232D01*
X64809508Y-46737363D01*
X64716393Y-46500112D01*
X64588959Y-46279388D01*
X64430050Y-46080123D01*
X64243217Y-45906768D01*
X64032634Y-45763195D01*
X64032630Y-45763193D01*
X64032627Y-45763191D01*
X64032626Y-45763190D01*
X63803006Y-45652612D01*
X63803008Y-45652612D01*
X63659970Y-45608491D01*
X63601711Y-45569921D01*
X63573553Y-45505976D01*
X63584437Y-45436959D01*
X63630906Y-45384782D01*
X63659970Y-45371509D01*
X63803004Y-45327389D01*
X64032634Y-45216805D01*
X64243217Y-45073232D01*
X64430050Y-44899877D01*
X64588959Y-44700612D01*
X64716393Y-44479888D01*
X64809508Y-44242637D01*
X64866222Y-43994157D01*
X64875788Y-43866500D01*
X64885268Y-43740004D01*
X64885268Y-43739995D01*
X64867234Y-43499343D01*
X64866222Y-43485843D01*
X64809508Y-43237363D01*
X64716393Y-43000112D01*
X64588959Y-42779388D01*
X64430050Y-42580123D01*
X64243217Y-42406768D01*
X64032634Y-42263195D01*
X64032630Y-42263193D01*
X64032627Y-42263191D01*
X64032626Y-42263190D01*
X63803006Y-42152612D01*
X63803008Y-42152612D01*
X63559466Y-42077489D01*
X63559462Y-42077488D01*
X63559458Y-42077487D01*
X63438231Y-42059214D01*
X63307440Y-42039500D01*
X63307435Y-42039500D01*
X63052565Y-42039500D01*
X63052559Y-42039500D01*
X62895609Y-42063157D01*
X62800542Y-42077487D01*
X62800539Y-42077488D01*
X62800533Y-42077489D01*
X62556992Y-42152612D01*
X62327373Y-42263190D01*
X62327372Y-42263191D01*
X62116782Y-42406768D01*
X61929952Y-42580121D01*
X61929950Y-42580123D01*
X61771041Y-42779388D01*
X61643608Y-43000109D01*
X61550492Y-43237362D01*
X61550490Y-43237369D01*
X61493777Y-43485845D01*
X61474732Y-43739995D01*
X61474732Y-43740004D01*
X61493777Y-43994154D01*
X61548467Y-44233768D01*
X61550492Y-44242637D01*
X61643607Y-44479888D01*
X61771041Y-44700612D01*
X61929950Y-44899877D01*
X62116783Y-45073232D01*
X62327366Y-45216805D01*
X62327371Y-45216807D01*
X62327372Y-45216808D01*
X62327373Y-45216809D01*
X62416023Y-45259500D01*
X62556992Y-45327387D01*
X62556993Y-45327387D01*
X62556996Y-45327389D01*
X62625550Y-45348535D01*
X62700029Y-45371509D01*
X62758288Y-45410080D01*
X62786446Y-45474024D01*
X62775562Y-45543041D01*
X62729093Y-45595218D01*
X62700029Y-45608491D01*
X62556992Y-45652612D01*
X62327373Y-45763190D01*
X62327372Y-45763191D01*
X62116782Y-45906768D01*
X61929952Y-46080121D01*
X61929950Y-46080123D01*
X61771041Y-46279388D01*
X61643608Y-46500109D01*
X61550492Y-46737362D01*
X61550490Y-46737369D01*
X61493777Y-46985845D01*
X61474732Y-47239995D01*
X61474732Y-47240004D01*
X61493777Y-47494154D01*
X61548467Y-47733768D01*
X61550492Y-47742637D01*
X61643607Y-47979888D01*
X61771041Y-48200612D01*
X61929950Y-48399877D01*
X62116783Y-48573232D01*
X62327366Y-48716805D01*
X62327371Y-48716807D01*
X62327372Y-48716808D01*
X62327373Y-48716809D01*
X62416023Y-48759500D01*
X62556992Y-48827387D01*
X62556993Y-48827387D01*
X62556996Y-48827389D01*
X62663360Y-48860197D01*
X62700029Y-48871509D01*
X62758288Y-48910080D01*
X62786446Y-48974024D01*
X62775562Y-49043041D01*
X62729093Y-49095218D01*
X62700029Y-49108491D01*
X62556992Y-49152612D01*
X62327373Y-49263190D01*
X62327372Y-49263191D01*
X62116782Y-49406768D01*
X61929952Y-49580121D01*
X61929950Y-49580123D01*
X61771041Y-49779388D01*
X61643608Y-50000109D01*
X61550492Y-50237362D01*
X61550490Y-50237369D01*
X61493777Y-50485845D01*
X61474732Y-50739995D01*
X61474732Y-50740004D01*
X61493777Y-50994154D01*
X61548467Y-51233768D01*
X61550492Y-51242637D01*
X61643607Y-51479888D01*
X61771041Y-51700612D01*
X61929950Y-51899877D01*
X62116783Y-52073232D01*
X62327366Y-52216805D01*
X62327371Y-52216807D01*
X62327372Y-52216808D01*
X62327373Y-52216809D01*
X62416023Y-52259500D01*
X62556992Y-52327387D01*
X62556993Y-52327387D01*
X62556996Y-52327389D01*
X62657473Y-52358382D01*
X62700029Y-52371509D01*
X62758288Y-52410080D01*
X62786446Y-52474024D01*
X62775562Y-52543041D01*
X62729093Y-52595218D01*
X62700029Y-52608491D01*
X62556992Y-52652612D01*
X62327373Y-52763190D01*
X62327372Y-52763191D01*
X62116782Y-52906768D01*
X61929952Y-53080121D01*
X61929950Y-53080123D01*
X61771041Y-53279388D01*
X61643608Y-53500109D01*
X61550492Y-53737362D01*
X61550490Y-53737369D01*
X61493777Y-53985845D01*
X61474732Y-54239995D01*
X61474732Y-54240004D01*
X61493777Y-54494154D01*
X61540734Y-54699888D01*
X61550492Y-54742637D01*
X61643607Y-54979888D01*
X61771041Y-55200612D01*
X61929950Y-55399877D01*
X62116783Y-55573232D01*
X62327366Y-55716805D01*
X62327371Y-55716807D01*
X62327372Y-55716808D01*
X62327373Y-55716809D01*
X62381808Y-55743023D01*
X62556992Y-55827387D01*
X62556993Y-55827387D01*
X62556996Y-55827389D01*
X62663360Y-55860197D01*
X62700029Y-55871509D01*
X62758288Y-55910080D01*
X62786446Y-55974024D01*
X62775562Y-56043041D01*
X62729093Y-56095218D01*
X62700029Y-56108491D01*
X62556992Y-56152612D01*
X62327373Y-56263190D01*
X62327372Y-56263191D01*
X62116782Y-56406768D01*
X61929952Y-56580121D01*
X61929950Y-56580123D01*
X61771041Y-56779388D01*
X61643608Y-57000109D01*
X61550492Y-57237362D01*
X61550490Y-57237369D01*
X61493777Y-57485845D01*
X61474732Y-57739995D01*
X61474732Y-57740004D01*
X61493777Y-57994154D01*
X61550490Y-58242630D01*
X61550492Y-58242637D01*
X61643608Y-58479890D01*
X61652571Y-58495415D01*
X61771041Y-58700612D01*
X61929950Y-58899877D01*
X62116783Y-59073232D01*
X62327366Y-59216805D01*
X62327371Y-59216807D01*
X62327372Y-59216808D01*
X62327373Y-59216809D01*
X62416023Y-59259500D01*
X62556992Y-59327387D01*
X62556993Y-59327387D01*
X62556996Y-59327389D01*
X62663360Y-59360197D01*
X62700029Y-59371509D01*
X62758288Y-59410080D01*
X62786446Y-59474024D01*
X62775562Y-59543041D01*
X62729093Y-59595218D01*
X62700029Y-59608491D01*
X62556992Y-59652612D01*
X62327373Y-59763190D01*
X62327372Y-59763191D01*
X62116782Y-59906768D01*
X61929952Y-60080121D01*
X61929950Y-60080123D01*
X61771041Y-60279388D01*
X61643608Y-60500109D01*
X61550492Y-60737362D01*
X61550490Y-60737369D01*
X61493777Y-60985845D01*
X61474732Y-61239995D01*
X61474732Y-61240004D01*
X61493777Y-61494154D01*
X61544905Y-61718161D01*
X61550492Y-61742637D01*
X61643607Y-61979888D01*
X61771041Y-62200612D01*
X61929950Y-62399877D01*
X62116783Y-62573232D01*
X62327366Y-62716805D01*
X62327371Y-62716807D01*
X62327372Y-62716808D01*
X62327373Y-62716809D01*
X62416023Y-62759500D01*
X62556992Y-62827387D01*
X62556993Y-62827387D01*
X62556996Y-62827389D01*
X62663360Y-62860197D01*
X62700029Y-62871509D01*
X62758288Y-62910080D01*
X62786446Y-62974024D01*
X62775562Y-63043041D01*
X62729093Y-63095218D01*
X62700029Y-63108491D01*
X62556992Y-63152612D01*
X62327373Y-63263190D01*
X62327372Y-63263191D01*
X62116782Y-63406768D01*
X61929952Y-63580121D01*
X61929950Y-63580123D01*
X61771041Y-63779388D01*
X61643608Y-64000109D01*
X61550492Y-64237362D01*
X61550490Y-64237369D01*
X61493777Y-64485845D01*
X61474732Y-64739995D01*
X61474732Y-64740004D01*
X20300500Y-64740004D01*
X20300500Y-50771792D01*
X42113598Y-50771792D01*
X42117235Y-50811035D01*
X42117500Y-50816758D01*
X42117500Y-50827843D01*
X42117501Y-50827855D01*
X42119536Y-50838749D01*
X42120327Y-50844415D01*
X42123964Y-50883658D01*
X42126443Y-50892372D01*
X42129667Y-50901989D01*
X42132938Y-50910432D01*
X42140235Y-50922216D01*
X42153690Y-50943948D01*
X42156467Y-50948933D01*
X42170143Y-50976398D01*
X42174042Y-50984228D01*
X42179526Y-50991490D01*
X42185957Y-50999235D01*
X42192080Y-51005951D01*
X42223535Y-51029706D01*
X42227943Y-51033366D01*
X42233518Y-51038448D01*
X42257067Y-51059916D01*
X42257068Y-51059916D01*
X42257069Y-51059917D01*
X42264797Y-51064702D01*
X42273580Y-51069594D01*
X42281732Y-51073653D01*
X42281736Y-51073656D01*
X42319660Y-51084445D01*
X42325054Y-51086253D01*
X42361827Y-51100500D01*
X42361829Y-51100500D01*
X42370755Y-51102169D01*
X42380742Y-51103562D01*
X42389792Y-51104401D01*
X42389792Y-51104400D01*
X42389793Y-51104401D01*
X42398847Y-51103562D01*
X42429036Y-51100765D01*
X42434759Y-51100500D01*
X49216785Y-51100500D01*
X49238742Y-51103562D01*
X49247792Y-51104401D01*
X49247792Y-51104400D01*
X49247793Y-51104401D01*
X49256847Y-51103562D01*
X49287036Y-51100765D01*
X49292759Y-51100500D01*
X49303844Y-51100500D01*
X49314757Y-51098459D01*
X49320387Y-51097673D01*
X49359660Y-51094035D01*
X49359665Y-51094032D01*
X49368421Y-51091541D01*
X49377940Y-51088350D01*
X49386431Y-51085061D01*
X49386433Y-51085061D01*
X49419965Y-51064297D01*
X49424919Y-51061538D01*
X49460228Y-51043958D01*
X49460229Y-51043957D01*
X49467523Y-51038448D01*
X49475197Y-51032076D01*
X49481949Y-51025921D01*
X49481949Y-51025920D01*
X49481952Y-51025919D01*
X49505715Y-50994449D01*
X49509341Y-50990082D01*
X49535916Y-50960933D01*
X49535918Y-50960927D01*
X49540721Y-50953170D01*
X49545579Y-50944448D01*
X49549650Y-50936271D01*
X49549656Y-50936264D01*
X49560445Y-50898338D01*
X49562251Y-50892951D01*
X49576500Y-50856173D01*
X49576500Y-50856170D01*
X49576501Y-50856168D01*
X49578172Y-50847229D01*
X49579561Y-50837276D01*
X49580401Y-50828207D01*
X49576765Y-50788964D01*
X49576500Y-50783241D01*
X49576500Y-40699216D01*
X49579561Y-40677276D01*
X49580401Y-40668207D01*
X49576765Y-40628964D01*
X49576500Y-40623241D01*
X49576500Y-40612156D01*
X49576432Y-40611792D01*
X49574461Y-40601253D01*
X49573671Y-40595585D01*
X49573409Y-40592762D01*
X49570035Y-40556340D01*
X49570035Y-40556339D01*
X49567548Y-40547599D01*
X49564350Y-40538059D01*
X49561061Y-40529570D01*
X49561061Y-40529567D01*
X49561059Y-40529564D01*
X49561058Y-40529561D01*
X49540312Y-40496056D01*
X49537530Y-40491064D01*
X49519958Y-40455772D01*
X49519956Y-40455770D01*
X49519955Y-40455768D01*
X49514475Y-40448511D01*
X49508061Y-40440786D01*
X49501916Y-40434045D01*
X49470463Y-40410294D01*
X49466054Y-40406632D01*
X49455402Y-40396921D01*
X49436933Y-40380084D01*
X49436931Y-40380083D01*
X49436929Y-40380081D01*
X49429232Y-40375315D01*
X49420390Y-40370390D01*
X49412264Y-40366343D01*
X49374366Y-40355560D01*
X49368935Y-40353740D01*
X49332172Y-40339499D01*
X49323236Y-40337829D01*
X49313257Y-40336437D01*
X49304207Y-40335598D01*
X49264964Y-40339235D01*
X49259241Y-40339500D01*
X42477215Y-40339500D01*
X42455257Y-40336437D01*
X42446207Y-40335598D01*
X42406964Y-40339235D01*
X42401241Y-40339500D01*
X42390151Y-40339500D01*
X42379256Y-40341536D01*
X42373588Y-40342327D01*
X42334339Y-40345964D01*
X42325644Y-40348438D01*
X42316008Y-40351668D01*
X42307563Y-40354939D01*
X42274060Y-40375683D01*
X42269058Y-40378470D01*
X42233770Y-40396042D01*
X42226547Y-40401496D01*
X42218751Y-40407970D01*
X42212044Y-40414085D01*
X42188300Y-40445526D01*
X42184642Y-40449932D01*
X42158085Y-40479064D01*
X42153322Y-40486756D01*
X42148385Y-40495620D01*
X42144343Y-40503738D01*
X42133559Y-40541639D01*
X42131739Y-40547070D01*
X42117499Y-40583827D01*
X42115829Y-40592762D01*
X42114437Y-40602745D01*
X42113598Y-40611792D01*
X42117235Y-40651035D01*
X42117500Y-40656758D01*
X42117500Y-50740784D01*
X42114437Y-50762745D01*
X42113598Y-50771792D01*
X20300500Y-50771792D01*
X20300500Y-25377870D01*
X23639500Y-25377870D01*
X23639501Y-25377876D01*
X23645908Y-25437483D01*
X23696202Y-25572328D01*
X23696206Y-25572335D01*
X23782452Y-25687544D01*
X23782455Y-25687547D01*
X23897664Y-25773793D01*
X23897671Y-25773797D01*
X24032517Y-25824091D01*
X24032516Y-25824091D01*
X24039444Y-25824835D01*
X24092127Y-25830500D01*
X26587872Y-25830499D01*
X26647483Y-25824091D01*
X26782331Y-25773796D01*
X26897546Y-25687546D01*
X26983796Y-25572331D01*
X27034091Y-25437483D01*
X27040500Y-25377873D01*
X27040499Y-24854854D01*
X27060183Y-24787818D01*
X27112987Y-24742063D01*
X27182146Y-24732119D01*
X27245702Y-24761144D01*
X27279927Y-24809553D01*
X27303609Y-24869892D01*
X27306494Y-24874889D01*
X27431041Y-25090612D01*
X27589950Y-25289877D01*
X27776783Y-25463232D01*
X27987366Y-25606805D01*
X27987371Y-25606807D01*
X27987372Y-25606808D01*
X27987373Y-25606809D01*
X28091591Y-25656997D01*
X28216992Y-25717387D01*
X28216993Y-25717387D01*
X28216996Y-25717389D01*
X28460542Y-25792513D01*
X28712565Y-25830500D01*
X28967435Y-25830500D01*
X29219458Y-25792513D01*
X29463004Y-25717389D01*
X29654511Y-25625164D01*
X29692626Y-25606809D01*
X29692626Y-25606808D01*
X29692634Y-25606805D01*
X29903217Y-25463232D01*
X30090050Y-25289877D01*
X30248959Y-25090612D01*
X30376393Y-24869888D01*
X30469508Y-24632637D01*
X30469510Y-24632624D01*
X30470878Y-24628196D01*
X30472324Y-24628642D01*
X30503213Y-24573412D01*
X30564873Y-24540552D01*
X30634510Y-24546243D01*
X30690016Y-24588680D01*
X30708192Y-24628482D01*
X30709122Y-24628196D01*
X30710492Y-24632637D01*
X30803607Y-24869888D01*
X30931041Y-25090612D01*
X31089950Y-25289877D01*
X31276783Y-25463232D01*
X31487366Y-25606805D01*
X31487371Y-25606807D01*
X31487372Y-25606808D01*
X31487373Y-25606809D01*
X31591591Y-25656997D01*
X31716992Y-25717387D01*
X31716993Y-25717387D01*
X31716996Y-25717389D01*
X31960542Y-25792513D01*
X32212565Y-25830500D01*
X32467435Y-25830500D01*
X32719458Y-25792513D01*
X32952594Y-25720599D01*
X33022452Y-25719650D01*
X33076820Y-25751410D01*
X37935197Y-30609788D01*
X37945022Y-30622051D01*
X37945243Y-30621869D01*
X37950214Y-30627878D01*
X37976217Y-30652295D01*
X38000635Y-30675226D01*
X38021529Y-30696120D01*
X38027011Y-30700373D01*
X38031443Y-30704157D01*
X38065418Y-30736062D01*
X38082976Y-30745714D01*
X38099233Y-30756393D01*
X38115064Y-30768673D01*
X38133740Y-30776755D01*
X38157833Y-30787182D01*
X38163077Y-30789750D01*
X38203908Y-30812197D01*
X38216523Y-30815435D01*
X38223305Y-30817177D01*
X38241719Y-30823481D01*
X38260104Y-30831438D01*
X38306157Y-30838732D01*
X38311826Y-30839906D01*
X38356981Y-30851500D01*
X38377016Y-30851500D01*
X38396413Y-30853026D01*
X38416196Y-30856160D01*
X38462584Y-30851775D01*
X38468422Y-30851500D01*
X43031548Y-30851500D01*
X43098587Y-30871185D01*
X43119229Y-30887819D01*
X43955629Y-31724219D01*
X43989114Y-31785542D01*
X43984130Y-31855234D01*
X43942258Y-31911167D01*
X43876794Y-31935584D01*
X43867948Y-31935900D01*
X43762967Y-31935900D01*
X43743431Y-31939160D01*
X43539982Y-31973109D01*
X43326172Y-32046510D01*
X43326167Y-32046512D01*
X43127352Y-32154106D01*
X42948955Y-32292959D01*
X42948950Y-32292963D01*
X42795850Y-32459272D01*
X42795842Y-32459283D01*
X42709808Y-32590968D01*
X42656662Y-32636325D01*
X42587430Y-32645748D01*
X42524095Y-32616246D01*
X42502192Y-32590968D01*
X42416157Y-32459283D01*
X42416149Y-32459272D01*
X42263049Y-32292963D01*
X42263048Y-32292962D01*
X42263046Y-32292960D01*
X42084649Y-32154107D01*
X42026479Y-32122627D01*
X41885832Y-32046512D01*
X41885827Y-32046510D01*
X41672017Y-31973109D01*
X41478954Y-31940893D01*
X41449033Y-31935900D01*
X41222967Y-31935900D01*
X41203431Y-31939160D01*
X40999982Y-31973109D01*
X40786172Y-32046510D01*
X40786167Y-32046512D01*
X40587352Y-32154106D01*
X40408955Y-32292959D01*
X40408950Y-32292963D01*
X40255850Y-32459272D01*
X40255842Y-32459283D01*
X40132198Y-32648533D01*
X40041388Y-32855560D01*
X39985892Y-33074710D01*
X39967225Y-33299993D01*
X39967225Y-33300006D01*
X39985892Y-33525289D01*
X40041388Y-33744439D01*
X40132198Y-33951466D01*
X40255842Y-34140716D01*
X40255850Y-34140727D01*
X40408950Y-34307036D01*
X40408954Y-34307040D01*
X40587351Y-34445893D01*
X40786169Y-34553488D01*
X40786172Y-34553489D01*
X40999982Y-34626890D01*
X40999984Y-34626890D01*
X40999986Y-34626891D01*
X41222967Y-34664100D01*
X41222968Y-34664100D01*
X41449032Y-34664100D01*
X41449033Y-34664100D01*
X41672014Y-34626891D01*
X41885831Y-34553488D01*
X42084649Y-34445893D01*
X42263046Y-34307040D01*
X42416156Y-34140719D01*
X42502193Y-34009028D01*
X42555338Y-33963675D01*
X42624569Y-33954251D01*
X42687905Y-33983753D01*
X42709804Y-34009025D01*
X42795844Y-34140719D01*
X42795849Y-34140724D01*
X42795850Y-34140727D01*
X42948950Y-34307036D01*
X42948954Y-34307040D01*
X43127351Y-34445893D01*
X43326169Y-34553488D01*
X43326172Y-34553489D01*
X43539982Y-34626890D01*
X43539984Y-34626890D01*
X43539986Y-34626891D01*
X43762967Y-34664100D01*
X43762968Y-34664100D01*
X43989032Y-34664100D01*
X43989033Y-34664100D01*
X44212014Y-34626891D01*
X44425831Y-34553488D01*
X44624649Y-34445893D01*
X44803046Y-34307040D01*
X44956156Y-34140719D01*
X45042193Y-34009028D01*
X45095338Y-33963675D01*
X45164569Y-33954251D01*
X45227905Y-33983753D01*
X45249804Y-34009025D01*
X45335844Y-34140719D01*
X45335849Y-34140724D01*
X45335850Y-34140727D01*
X45488950Y-34307036D01*
X45488954Y-34307040D01*
X45667351Y-34445893D01*
X45866169Y-34553488D01*
X45866172Y-34553489D01*
X46079982Y-34626890D01*
X46079984Y-34626890D01*
X46079986Y-34626891D01*
X46302967Y-34664100D01*
X46302968Y-34664100D01*
X46529032Y-34664100D01*
X46529033Y-34664100D01*
X46752014Y-34626891D01*
X46965831Y-34553488D01*
X47164649Y-34445893D01*
X47343046Y-34307040D01*
X47397815Y-34247545D01*
X47457699Y-34211557D01*
X47527537Y-34213657D01*
X47585153Y-34253180D01*
X47605224Y-34288196D01*
X47649046Y-34405688D01*
X47649049Y-34405693D01*
X47735209Y-34520787D01*
X47735212Y-34520790D01*
X47850306Y-34606950D01*
X47850313Y-34606954D01*
X47985020Y-34657196D01*
X47985027Y-34657198D01*
X48044555Y-34663599D01*
X48044572Y-34663600D01*
X48706000Y-34663600D01*
X48706000Y-33744297D01*
X48811408Y-33792435D01*
X48919666Y-33808000D01*
X48992334Y-33808000D01*
X49100592Y-33792435D01*
X49206000Y-33744297D01*
X49206000Y-34663600D01*
X49867428Y-34663600D01*
X49867444Y-34663599D01*
X49926972Y-34657198D01*
X49926979Y-34657196D01*
X50061686Y-34606954D01*
X50061693Y-34606950D01*
X50176787Y-34520790D01*
X50176790Y-34520787D01*
X50262950Y-34405693D01*
X50262954Y-34405686D01*
X50306775Y-34288197D01*
X50348646Y-34232263D01*
X50414110Y-34207846D01*
X50482383Y-34222698D01*
X50514186Y-34247547D01*
X50568950Y-34307036D01*
X50568954Y-34307040D01*
X50747351Y-34445893D01*
X50946169Y-34553488D01*
X50946172Y-34553489D01*
X51159982Y-34626890D01*
X51159984Y-34626890D01*
X51159986Y-34626891D01*
X51382967Y-34664100D01*
X51382968Y-34664100D01*
X51609032Y-34664100D01*
X51609033Y-34664100D01*
X51832014Y-34626891D01*
X52045831Y-34553488D01*
X52244649Y-34445893D01*
X52423046Y-34307040D01*
X52576156Y-34140719D01*
X52662193Y-34009028D01*
X52715338Y-33963675D01*
X52784569Y-33954251D01*
X52847905Y-33983753D01*
X52869804Y-34009025D01*
X52955844Y-34140719D01*
X52955849Y-34140724D01*
X52955850Y-34140727D01*
X53108950Y-34307036D01*
X53108954Y-34307040D01*
X53287351Y-34445893D01*
X53486169Y-34553488D01*
X53486172Y-34553489D01*
X53699982Y-34626890D01*
X53699984Y-34626890D01*
X53699986Y-34626891D01*
X53922967Y-34664100D01*
X53922968Y-34664100D01*
X54149032Y-34664100D01*
X54149033Y-34664100D01*
X54372014Y-34626891D01*
X54585831Y-34553488D01*
X54784649Y-34445893D01*
X54963046Y-34307040D01*
X55116156Y-34140719D01*
X55202193Y-34009028D01*
X55255338Y-33963675D01*
X55324569Y-33954251D01*
X55387905Y-33983753D01*
X55409804Y-34009025D01*
X55495844Y-34140719D01*
X55495849Y-34140724D01*
X55495850Y-34140727D01*
X55648950Y-34307036D01*
X55648954Y-34307040D01*
X55827351Y-34445893D01*
X56026169Y-34553488D01*
X56026172Y-34553489D01*
X56239982Y-34626890D01*
X56239984Y-34626890D01*
X56239986Y-34626891D01*
X56462967Y-34664100D01*
X56462968Y-34664100D01*
X56689032Y-34664100D01*
X56689033Y-34664100D01*
X56912014Y-34626891D01*
X57125831Y-34553488D01*
X57324649Y-34445893D01*
X57503046Y-34307040D01*
X57656156Y-34140719D01*
X57742193Y-34009028D01*
X57795338Y-33963675D01*
X57864569Y-33954251D01*
X57927905Y-33983753D01*
X57949804Y-34009025D01*
X58035844Y-34140719D01*
X58035849Y-34140724D01*
X58035850Y-34140727D01*
X58188950Y-34307036D01*
X58188954Y-34307040D01*
X58367351Y-34445893D01*
X58566169Y-34553488D01*
X58566172Y-34553489D01*
X58779982Y-34626890D01*
X58779984Y-34626890D01*
X58779986Y-34626891D01*
X59002967Y-34664100D01*
X59002968Y-34664100D01*
X59229032Y-34664100D01*
X59229033Y-34664100D01*
X59452014Y-34626891D01*
X59665831Y-34553488D01*
X59864649Y-34445893D01*
X60043046Y-34307040D01*
X60196156Y-34140719D01*
X60282193Y-34009028D01*
X60335338Y-33963675D01*
X60404569Y-33954251D01*
X60467905Y-33983753D01*
X60489804Y-34009025D01*
X60575844Y-34140719D01*
X60575849Y-34140724D01*
X60575850Y-34140727D01*
X60728950Y-34307036D01*
X60728954Y-34307040D01*
X60907351Y-34445893D01*
X61106169Y-34553488D01*
X61106172Y-34553489D01*
X61319982Y-34626890D01*
X61319984Y-34626890D01*
X61319986Y-34626891D01*
X61542967Y-34664100D01*
X61542968Y-34664100D01*
X61769032Y-34664100D01*
X61769033Y-34664100D01*
X61992014Y-34626891D01*
X62205831Y-34553488D01*
X62404649Y-34445893D01*
X62583046Y-34307040D01*
X62736156Y-34140719D01*
X62822193Y-34009028D01*
X62875338Y-33963675D01*
X62944569Y-33954251D01*
X63007905Y-33983753D01*
X63029804Y-34009025D01*
X63115844Y-34140719D01*
X63115849Y-34140724D01*
X63115850Y-34140727D01*
X63268950Y-34307036D01*
X63268954Y-34307040D01*
X63447351Y-34445893D01*
X63646169Y-34553488D01*
X63646172Y-34553489D01*
X63859982Y-34626890D01*
X63859984Y-34626890D01*
X63859986Y-34626891D01*
X64082967Y-34664100D01*
X64082968Y-34664100D01*
X64309032Y-34664100D01*
X64309033Y-34664100D01*
X64532014Y-34626891D01*
X64745831Y-34553488D01*
X64944649Y-34445893D01*
X65123046Y-34307040D01*
X65276156Y-34140719D01*
X65399802Y-33951465D01*
X65490611Y-33744441D01*
X65546107Y-33525293D01*
X65559265Y-33366500D01*
X65564775Y-33300006D01*
X65564775Y-33299993D01*
X65547109Y-33086799D01*
X65546107Y-33074707D01*
X65490611Y-32855559D01*
X65399802Y-32648535D01*
X65386918Y-32628815D01*
X65276157Y-32459283D01*
X65276149Y-32459272D01*
X65123049Y-32292963D01*
X65123048Y-32292962D01*
X65123046Y-32292960D01*
X64944649Y-32154107D01*
X64944647Y-32154106D01*
X64944646Y-32154105D01*
X64944643Y-32154103D01*
X64886481Y-32122627D01*
X64836891Y-32073407D01*
X64821500Y-32013573D01*
X64821500Y-31568742D01*
X64823224Y-31553122D01*
X64822939Y-31553096D01*
X64823671Y-31545340D01*
X64823673Y-31545333D01*
X64821500Y-31476185D01*
X64821500Y-31446650D01*
X64820631Y-31439772D01*
X64820172Y-31433943D01*
X64818709Y-31387372D01*
X64813122Y-31368144D01*
X64809174Y-31349084D01*
X64806663Y-31329204D01*
X64789512Y-31285887D01*
X64787619Y-31280358D01*
X64774618Y-31235609D01*
X64774616Y-31235606D01*
X64764423Y-31218371D01*
X64755861Y-31200894D01*
X64748487Y-31182270D01*
X64748486Y-31182268D01*
X64721079Y-31144545D01*
X64717888Y-31139686D01*
X64713372Y-31132050D01*
X64694170Y-31099580D01*
X64694168Y-31099578D01*
X64694165Y-31099574D01*
X64680006Y-31085415D01*
X64667368Y-31070619D01*
X64662822Y-31064362D01*
X64655594Y-31054413D01*
X64619688Y-31024709D01*
X64615376Y-31020786D01*
X58972461Y-25377870D01*
X61459500Y-25377870D01*
X61459501Y-25377876D01*
X61465908Y-25437483D01*
X61516202Y-25572328D01*
X61516206Y-25572335D01*
X61602452Y-25687544D01*
X61602455Y-25687547D01*
X61717664Y-25773793D01*
X61717671Y-25773797D01*
X61728120Y-25777694D01*
X61852517Y-25824091D01*
X61912127Y-25830500D01*
X62410500Y-25830499D01*
X62477539Y-25850183D01*
X62523294Y-25902987D01*
X62534500Y-25954499D01*
X62534500Y-28117255D01*
X62532775Y-28132872D01*
X62533061Y-28132899D01*
X62532326Y-28140665D01*
X62534500Y-28209814D01*
X62534500Y-28239343D01*
X62534501Y-28239360D01*
X62535368Y-28246231D01*
X62535826Y-28252050D01*
X62537290Y-28298624D01*
X62537291Y-28298627D01*
X62542880Y-28317867D01*
X62546824Y-28336911D01*
X62549336Y-28356791D01*
X62566490Y-28400119D01*
X62568382Y-28405647D01*
X62581381Y-28450388D01*
X62591580Y-28467634D01*
X62600136Y-28485100D01*
X62603429Y-28493415D01*
X62607514Y-28503732D01*
X62634898Y-28541423D01*
X62638106Y-28546307D01*
X62661827Y-28586416D01*
X62661833Y-28586424D01*
X62675990Y-28600580D01*
X62688628Y-28615376D01*
X62700405Y-28631586D01*
X62700406Y-28631587D01*
X62736309Y-28661288D01*
X62740620Y-28665210D01*
X65867635Y-31792226D01*
X66908612Y-32833203D01*
X66942097Y-32894526D01*
X66941137Y-32951323D01*
X66909892Y-33074708D01*
X66891225Y-33299993D01*
X66891225Y-33300006D01*
X66909892Y-33525289D01*
X66965388Y-33744439D01*
X67056198Y-33951466D01*
X67179842Y-34140716D01*
X67179850Y-34140727D01*
X67332950Y-34307036D01*
X67332954Y-34307040D01*
X67511351Y-34445893D01*
X67710169Y-34553488D01*
X67710172Y-34553489D01*
X67923982Y-34626890D01*
X67923984Y-34626890D01*
X67923986Y-34626891D01*
X68146967Y-34664100D01*
X68146968Y-34664100D01*
X68373032Y-34664100D01*
X68373033Y-34664100D01*
X68596014Y-34626891D01*
X68809831Y-34553488D01*
X69008649Y-34445893D01*
X69187046Y-34307040D01*
X69340156Y-34140719D01*
X69426193Y-34009028D01*
X69479338Y-33963675D01*
X69548569Y-33954251D01*
X69611905Y-33983753D01*
X69633804Y-34009025D01*
X69719844Y-34140719D01*
X69719849Y-34140724D01*
X69719850Y-34140727D01*
X69872950Y-34307036D01*
X69872954Y-34307040D01*
X70051351Y-34445893D01*
X70250169Y-34553488D01*
X70250172Y-34553489D01*
X70463982Y-34626890D01*
X70463984Y-34626890D01*
X70463986Y-34626891D01*
X70686967Y-34664100D01*
X70686968Y-34664100D01*
X70913032Y-34664100D01*
X70913033Y-34664100D01*
X71136014Y-34626891D01*
X71349831Y-34553488D01*
X71548649Y-34445893D01*
X71727046Y-34307040D01*
X71880156Y-34140719D01*
X71966193Y-34009028D01*
X72019338Y-33963675D01*
X72088569Y-33954251D01*
X72151905Y-33983753D01*
X72173804Y-34009025D01*
X72259844Y-34140719D01*
X72259849Y-34140724D01*
X72259850Y-34140727D01*
X72412950Y-34307036D01*
X72412954Y-34307040D01*
X72591351Y-34445893D01*
X72790169Y-34553488D01*
X72790172Y-34553489D01*
X73003982Y-34626890D01*
X73003984Y-34626890D01*
X73003986Y-34626891D01*
X73226967Y-34664100D01*
X73226968Y-34664100D01*
X73453032Y-34664100D01*
X73453033Y-34664100D01*
X73676014Y-34626891D01*
X73889831Y-34553488D01*
X74088649Y-34445893D01*
X74267046Y-34307040D01*
X74420156Y-34140719D01*
X74506193Y-34009028D01*
X74559338Y-33963675D01*
X74628569Y-33954251D01*
X74691905Y-33983753D01*
X74713804Y-34009025D01*
X74799844Y-34140719D01*
X74799849Y-34140724D01*
X74799850Y-34140727D01*
X74952950Y-34307036D01*
X74952954Y-34307040D01*
X75131351Y-34445893D01*
X75330169Y-34553488D01*
X75330172Y-34553489D01*
X75543982Y-34626890D01*
X75543984Y-34626890D01*
X75543986Y-34626891D01*
X75766967Y-34664100D01*
X75766968Y-34664100D01*
X75993032Y-34664100D01*
X75993033Y-34664100D01*
X76216014Y-34626891D01*
X76429831Y-34553488D01*
X76628649Y-34445893D01*
X76807046Y-34307040D01*
X76960156Y-34140719D01*
X77046193Y-34009028D01*
X77099338Y-33963675D01*
X77168569Y-33954251D01*
X77231905Y-33983753D01*
X77253804Y-34009025D01*
X77339844Y-34140719D01*
X77339849Y-34140724D01*
X77339850Y-34140727D01*
X77492950Y-34307036D01*
X77492954Y-34307040D01*
X77671351Y-34445893D01*
X77870169Y-34553488D01*
X77870172Y-34553489D01*
X78083982Y-34626890D01*
X78083984Y-34626890D01*
X78083986Y-34626891D01*
X78306967Y-34664100D01*
X78306968Y-34664100D01*
X78533032Y-34664100D01*
X78533033Y-34664100D01*
X78756014Y-34626891D01*
X78969831Y-34553488D01*
X79168649Y-34445893D01*
X79347046Y-34307040D01*
X79500156Y-34140719D01*
X79586193Y-34009028D01*
X79639338Y-33963675D01*
X79708569Y-33954251D01*
X79771905Y-33983753D01*
X79793804Y-34009025D01*
X79879844Y-34140719D01*
X79879849Y-34140724D01*
X79879850Y-34140727D01*
X80032950Y-34307036D01*
X80032954Y-34307040D01*
X80211351Y-34445893D01*
X80410169Y-34553488D01*
X80410172Y-34553489D01*
X80623982Y-34626890D01*
X80623984Y-34626890D01*
X80623986Y-34626891D01*
X80846967Y-34664100D01*
X80846968Y-34664100D01*
X81073032Y-34664100D01*
X81073033Y-34664100D01*
X81296014Y-34626891D01*
X81509831Y-34553488D01*
X81708649Y-34445893D01*
X81887046Y-34307040D01*
X82040156Y-34140719D01*
X82126193Y-34009028D01*
X82179338Y-33963675D01*
X82248569Y-33954251D01*
X82311905Y-33983753D01*
X82333804Y-34009025D01*
X82419844Y-34140719D01*
X82419849Y-34140724D01*
X82419850Y-34140727D01*
X82572950Y-34307036D01*
X82572954Y-34307040D01*
X82751351Y-34445893D01*
X82950169Y-34553488D01*
X82950172Y-34553489D01*
X83163982Y-34626890D01*
X83163984Y-34626890D01*
X83163986Y-34626891D01*
X83386967Y-34664100D01*
X83386968Y-34664100D01*
X83613032Y-34664100D01*
X83613033Y-34664100D01*
X83836014Y-34626891D01*
X84049831Y-34553488D01*
X84248649Y-34445893D01*
X84427046Y-34307040D01*
X84580156Y-34140719D01*
X84666193Y-34009028D01*
X84719338Y-33963675D01*
X84788569Y-33954251D01*
X84851905Y-33983753D01*
X84873804Y-34009025D01*
X84959844Y-34140719D01*
X84959849Y-34140724D01*
X84959850Y-34140727D01*
X85112950Y-34307036D01*
X85112954Y-34307040D01*
X85291351Y-34445893D01*
X85490169Y-34553488D01*
X85490172Y-34553489D01*
X85703982Y-34626890D01*
X85703984Y-34626890D01*
X85703986Y-34626891D01*
X85926967Y-34664100D01*
X85926968Y-34664100D01*
X86153032Y-34664100D01*
X86153033Y-34664100D01*
X86376014Y-34626891D01*
X86589831Y-34553488D01*
X86788649Y-34445893D01*
X86967046Y-34307040D01*
X87120156Y-34140719D01*
X87243802Y-33951465D01*
X87334611Y-33744441D01*
X87390107Y-33525293D01*
X87403265Y-33366500D01*
X87408775Y-33300006D01*
X89751225Y-33300006D01*
X89769892Y-33525289D01*
X89825388Y-33744439D01*
X89916198Y-33951466D01*
X90039842Y-34140716D01*
X90039850Y-34140727D01*
X90192950Y-34307036D01*
X90192954Y-34307040D01*
X90371351Y-34445893D01*
X90570169Y-34553488D01*
X90570172Y-34553489D01*
X90783982Y-34626890D01*
X90783984Y-34626890D01*
X90783986Y-34626891D01*
X91006967Y-34664100D01*
X91006968Y-34664100D01*
X91233032Y-34664100D01*
X91233033Y-34664100D01*
X91456014Y-34626891D01*
X91669831Y-34553488D01*
X91868649Y-34445893D01*
X92047046Y-34307040D01*
X92200156Y-34140719D01*
X92286193Y-34009028D01*
X92339338Y-33963675D01*
X92408569Y-33954251D01*
X92471905Y-33983753D01*
X92493804Y-34009025D01*
X92579844Y-34140719D01*
X92579849Y-34140724D01*
X92579850Y-34140727D01*
X92732950Y-34307036D01*
X92732954Y-34307040D01*
X92911351Y-34445893D01*
X93110169Y-34553488D01*
X93110172Y-34553489D01*
X93323982Y-34626890D01*
X93323984Y-34626890D01*
X93323986Y-34626891D01*
X93546967Y-34664100D01*
X93546968Y-34664100D01*
X93773032Y-34664100D01*
X93773033Y-34664100D01*
X93996014Y-34626891D01*
X94209831Y-34553488D01*
X94408649Y-34445893D01*
X94587046Y-34307040D01*
X94740156Y-34140719D01*
X94826193Y-34009028D01*
X94879338Y-33963675D01*
X94948569Y-33954251D01*
X95011905Y-33983753D01*
X95033804Y-34009025D01*
X95119844Y-34140719D01*
X95119849Y-34140724D01*
X95119850Y-34140727D01*
X95272950Y-34307036D01*
X95272954Y-34307040D01*
X95451351Y-34445893D01*
X95650169Y-34553488D01*
X95650172Y-34553489D01*
X95863982Y-34626890D01*
X95863984Y-34626890D01*
X95863986Y-34626891D01*
X96086967Y-34664100D01*
X96086968Y-34664100D01*
X96313032Y-34664100D01*
X96313033Y-34664100D01*
X96536014Y-34626891D01*
X96749831Y-34553488D01*
X96948649Y-34445893D01*
X97127046Y-34307040D01*
X97280156Y-34140719D01*
X97366193Y-34009028D01*
X97419338Y-33963675D01*
X97488569Y-33954251D01*
X97551905Y-33983753D01*
X97573804Y-34009025D01*
X97659844Y-34140719D01*
X97659849Y-34140724D01*
X97659850Y-34140727D01*
X97812950Y-34307036D01*
X97812954Y-34307040D01*
X97991351Y-34445893D01*
X98190169Y-34553488D01*
X98190172Y-34553489D01*
X98403982Y-34626890D01*
X98403984Y-34626890D01*
X98403986Y-34626891D01*
X98626967Y-34664100D01*
X98626968Y-34664100D01*
X98853032Y-34664100D01*
X98853033Y-34664100D01*
X99076014Y-34626891D01*
X99289831Y-34553488D01*
X99488649Y-34445893D01*
X99667046Y-34307040D01*
X99820156Y-34140719D01*
X99906193Y-34009028D01*
X99959338Y-33963675D01*
X100028569Y-33954251D01*
X100091905Y-33983753D01*
X100113804Y-34009025D01*
X100199844Y-34140719D01*
X100199849Y-34140724D01*
X100199850Y-34140727D01*
X100352950Y-34307036D01*
X100352954Y-34307040D01*
X100531351Y-34445893D01*
X100730169Y-34553488D01*
X100730172Y-34553489D01*
X100943982Y-34626890D01*
X100943984Y-34626890D01*
X100943986Y-34626891D01*
X101166967Y-34664100D01*
X101166968Y-34664100D01*
X101393032Y-34664100D01*
X101393033Y-34664100D01*
X101616014Y-34626891D01*
X101829831Y-34553488D01*
X102028649Y-34445893D01*
X102207046Y-34307040D01*
X102360156Y-34140719D01*
X102446193Y-34009028D01*
X102499338Y-33963675D01*
X102568569Y-33954251D01*
X102631905Y-33983753D01*
X102653804Y-34009025D01*
X102739844Y-34140719D01*
X102739849Y-34140724D01*
X102739850Y-34140727D01*
X102892950Y-34307036D01*
X102892954Y-34307040D01*
X103071351Y-34445893D01*
X103270169Y-34553488D01*
X103270172Y-34553489D01*
X103483982Y-34626890D01*
X103483984Y-34626890D01*
X103483986Y-34626891D01*
X103706967Y-34664100D01*
X103706968Y-34664100D01*
X103933032Y-34664100D01*
X103933033Y-34664100D01*
X104156014Y-34626891D01*
X104369831Y-34553488D01*
X104568649Y-34445893D01*
X104747046Y-34307040D01*
X104900156Y-34140719D01*
X104986193Y-34009028D01*
X105039338Y-33963675D01*
X105108569Y-33954251D01*
X105171905Y-33983753D01*
X105193804Y-34009025D01*
X105279844Y-34140719D01*
X105279849Y-34140724D01*
X105279850Y-34140727D01*
X105432950Y-34307036D01*
X105432954Y-34307040D01*
X105611351Y-34445893D01*
X105810169Y-34553488D01*
X105810172Y-34553489D01*
X106023982Y-34626890D01*
X106023984Y-34626890D01*
X106023986Y-34626891D01*
X106246967Y-34664100D01*
X106246968Y-34664100D01*
X106473032Y-34664100D01*
X106473033Y-34664100D01*
X106696014Y-34626891D01*
X106909831Y-34553488D01*
X107108649Y-34445893D01*
X107287046Y-34307040D01*
X107440156Y-34140719D01*
X107526193Y-34009028D01*
X107579338Y-33963675D01*
X107648569Y-33954251D01*
X107711905Y-33983753D01*
X107733804Y-34009025D01*
X107819844Y-34140719D01*
X107819849Y-34140724D01*
X107819850Y-34140727D01*
X107972950Y-34307036D01*
X107972954Y-34307040D01*
X108151351Y-34445893D01*
X108350169Y-34553488D01*
X108350172Y-34553489D01*
X108563982Y-34626890D01*
X108563984Y-34626890D01*
X108563986Y-34626891D01*
X108786967Y-34664100D01*
X108786968Y-34664100D01*
X109013032Y-34664100D01*
X109013033Y-34664100D01*
X109236014Y-34626891D01*
X109449831Y-34553488D01*
X109648649Y-34445893D01*
X109827046Y-34307040D01*
X109980156Y-34140719D01*
X110103802Y-33951465D01*
X110194611Y-33744441D01*
X110250107Y-33525293D01*
X110263265Y-33366500D01*
X110268775Y-33300006D01*
X110268775Y-33299993D01*
X110251109Y-33086799D01*
X110250107Y-33074707D01*
X110194611Y-32855559D01*
X110154778Y-32764751D01*
X110103803Y-32648536D01*
X110082706Y-32616246D01*
X110072831Y-32601131D01*
X110052644Y-32534243D01*
X110071823Y-32467057D01*
X110088954Y-32445634D01*
X116783181Y-25751408D01*
X116844502Y-25717925D01*
X116907405Y-25720599D01*
X117140542Y-25792513D01*
X117392565Y-25830500D01*
X117647435Y-25830500D01*
X117899458Y-25792513D01*
X118143004Y-25717389D01*
X118334511Y-25625164D01*
X118372626Y-25606809D01*
X118372626Y-25606808D01*
X118372634Y-25606805D01*
X118583217Y-25463232D01*
X118770050Y-25289877D01*
X118928959Y-25090612D01*
X119056393Y-24869888D01*
X119149508Y-24632637D01*
X119206222Y-24384157D01*
X119225268Y-24130000D01*
X119206222Y-23875843D01*
X119149508Y-23627363D01*
X119056393Y-23390112D01*
X118928959Y-23169388D01*
X118770050Y-22970123D01*
X118583217Y-22796768D01*
X118372634Y-22653195D01*
X118372630Y-22653193D01*
X118372627Y-22653191D01*
X118372626Y-22653190D01*
X118143006Y-22542612D01*
X118143008Y-22542612D01*
X117899466Y-22467489D01*
X117899462Y-22467488D01*
X117899458Y-22467487D01*
X117778231Y-22449214D01*
X117647440Y-22429500D01*
X117647435Y-22429500D01*
X117392565Y-22429500D01*
X117392559Y-22429500D01*
X117235609Y-22453157D01*
X117140542Y-22467487D01*
X117140539Y-22467488D01*
X117140533Y-22467489D01*
X116896992Y-22542612D01*
X116667373Y-22653190D01*
X116667372Y-22653191D01*
X116456782Y-22796768D01*
X116269952Y-22970121D01*
X116269950Y-22970123D01*
X116111041Y-23169388D01*
X115983608Y-23390109D01*
X115890492Y-23627362D01*
X115889122Y-23631804D01*
X115887677Y-23631358D01*
X115856780Y-23686593D01*
X115795117Y-23719449D01*
X115725480Y-23713752D01*
X115669978Y-23671311D01*
X115651805Y-23631517D01*
X115650878Y-23631804D01*
X115649509Y-23627369D01*
X115649508Y-23627363D01*
X115556393Y-23390112D01*
X115428959Y-23169388D01*
X115270050Y-22970123D01*
X115083217Y-22796768D01*
X114872634Y-22653195D01*
X114872630Y-22653193D01*
X114872627Y-22653191D01*
X114872626Y-22653190D01*
X114643006Y-22542612D01*
X114643008Y-22542612D01*
X114399466Y-22467489D01*
X114399462Y-22467488D01*
X114399458Y-22467487D01*
X114278231Y-22449214D01*
X114147440Y-22429500D01*
X114147435Y-22429500D01*
X113892565Y-22429500D01*
X113892559Y-22429500D01*
X113735609Y-22453157D01*
X113640542Y-22467487D01*
X113640539Y-22467488D01*
X113640533Y-22467489D01*
X113396992Y-22542612D01*
X113167373Y-22653190D01*
X113167372Y-22653191D01*
X112956782Y-22796768D01*
X112769952Y-22970121D01*
X112769950Y-22970123D01*
X112611041Y-23169388D01*
X112483608Y-23390109D01*
X112390492Y-23627362D01*
X112389122Y-23631804D01*
X112387677Y-23631358D01*
X112356780Y-23686593D01*
X112295117Y-23719449D01*
X112225480Y-23713752D01*
X112169978Y-23671311D01*
X112151805Y-23631517D01*
X112150878Y-23631804D01*
X112149509Y-23627369D01*
X112149508Y-23627363D01*
X112056393Y-23390112D01*
X111928959Y-23169388D01*
X111770050Y-22970123D01*
X111583217Y-22796768D01*
X111372634Y-22653195D01*
X111372630Y-22653193D01*
X111372627Y-22653191D01*
X111372626Y-22653190D01*
X111143006Y-22542612D01*
X111143008Y-22542612D01*
X110899466Y-22467489D01*
X110899462Y-22467488D01*
X110899458Y-22467487D01*
X110778231Y-22449214D01*
X110647440Y-22429500D01*
X110647435Y-22429500D01*
X110392565Y-22429500D01*
X110392559Y-22429500D01*
X110235609Y-22453157D01*
X110140542Y-22467487D01*
X110140539Y-22467488D01*
X110140533Y-22467489D01*
X109896992Y-22542612D01*
X109667373Y-22653190D01*
X109667372Y-22653191D01*
X109456782Y-22796768D01*
X109269952Y-22970121D01*
X109269950Y-22970123D01*
X109111041Y-23169388D01*
X108983608Y-23390109D01*
X108890492Y-23627362D01*
X108889122Y-23631804D01*
X108887677Y-23631358D01*
X108856780Y-23686593D01*
X108795117Y-23719449D01*
X108725480Y-23713752D01*
X108669978Y-23671311D01*
X108651805Y-23631517D01*
X108650878Y-23631804D01*
X108649509Y-23627369D01*
X108649508Y-23627363D01*
X108556393Y-23390112D01*
X108428959Y-23169388D01*
X108270050Y-22970123D01*
X108083217Y-22796768D01*
X107872634Y-22653195D01*
X107872630Y-22653193D01*
X107872627Y-22653191D01*
X107872626Y-22653190D01*
X107643006Y-22542612D01*
X107643008Y-22542612D01*
X107399466Y-22467489D01*
X107399462Y-22467488D01*
X107399458Y-22467487D01*
X107278231Y-22449214D01*
X107147440Y-22429500D01*
X107147435Y-22429500D01*
X106892565Y-22429500D01*
X106892559Y-22429500D01*
X106735609Y-22453157D01*
X106640542Y-22467487D01*
X106640539Y-22467488D01*
X106640533Y-22467489D01*
X106396992Y-22542612D01*
X106167373Y-22653190D01*
X106167372Y-22653191D01*
X105956782Y-22796768D01*
X105769952Y-22970121D01*
X105769950Y-22970123D01*
X105611041Y-23169388D01*
X105483608Y-23390109D01*
X105390492Y-23627362D01*
X105389122Y-23631804D01*
X105387677Y-23631358D01*
X105356780Y-23686593D01*
X105295117Y-23719449D01*
X105225480Y-23713752D01*
X105169978Y-23671311D01*
X105151805Y-23631517D01*
X105150878Y-23631804D01*
X105149509Y-23627369D01*
X105149508Y-23627363D01*
X105056393Y-23390112D01*
X104928959Y-23169388D01*
X104770050Y-22970123D01*
X104583217Y-22796768D01*
X104372634Y-22653195D01*
X104372630Y-22653193D01*
X104372627Y-22653191D01*
X104372626Y-22653190D01*
X104143006Y-22542612D01*
X104143008Y-22542612D01*
X103899466Y-22467489D01*
X103899462Y-22467488D01*
X103899458Y-22467487D01*
X103778231Y-22449214D01*
X103647440Y-22429500D01*
X103647435Y-22429500D01*
X103392565Y-22429500D01*
X103392559Y-22429500D01*
X103235609Y-22453157D01*
X103140542Y-22467487D01*
X103140539Y-22467488D01*
X103140533Y-22467489D01*
X102896992Y-22542612D01*
X102667373Y-22653190D01*
X102667372Y-22653191D01*
X102456782Y-22796768D01*
X102269952Y-22970121D01*
X102269950Y-22970123D01*
X102111041Y-23169388D01*
X101983608Y-23390109D01*
X101890492Y-23627362D01*
X101889122Y-23631804D01*
X101887677Y-23631358D01*
X101856780Y-23686593D01*
X101795117Y-23719449D01*
X101725480Y-23713752D01*
X101669978Y-23671311D01*
X101651805Y-23631517D01*
X101650878Y-23631804D01*
X101649509Y-23627369D01*
X101649508Y-23627363D01*
X101556393Y-23390112D01*
X101428959Y-23169388D01*
X101270050Y-22970123D01*
X101083217Y-22796768D01*
X100872634Y-22653195D01*
X100872630Y-22653193D01*
X100872627Y-22653191D01*
X100872626Y-22653190D01*
X100643006Y-22542612D01*
X100643008Y-22542612D01*
X100399466Y-22467489D01*
X100399462Y-22467488D01*
X100399458Y-22467487D01*
X100278231Y-22449214D01*
X100147440Y-22429500D01*
X100147435Y-22429500D01*
X99892565Y-22429500D01*
X99892559Y-22429500D01*
X99735609Y-22453157D01*
X99640542Y-22467487D01*
X99640539Y-22467488D01*
X99640533Y-22467489D01*
X99396992Y-22542612D01*
X99167373Y-22653190D01*
X99167372Y-22653191D01*
X98956782Y-22796768D01*
X98769952Y-22970121D01*
X98769950Y-22970123D01*
X98611041Y-23169388D01*
X98483608Y-23390109D01*
X98390492Y-23627362D01*
X98389122Y-23631804D01*
X98387677Y-23631358D01*
X98356780Y-23686593D01*
X98295117Y-23719449D01*
X98225480Y-23713752D01*
X98169978Y-23671311D01*
X98151805Y-23631517D01*
X98150878Y-23631804D01*
X98149509Y-23627369D01*
X98149508Y-23627363D01*
X98056393Y-23390112D01*
X97928959Y-23169388D01*
X97770050Y-22970123D01*
X97583217Y-22796768D01*
X97372634Y-22653195D01*
X97372630Y-22653193D01*
X97372627Y-22653191D01*
X97372626Y-22653190D01*
X97143006Y-22542612D01*
X97143008Y-22542612D01*
X96899466Y-22467489D01*
X96899462Y-22467488D01*
X96899458Y-22467487D01*
X96778231Y-22449214D01*
X96647440Y-22429500D01*
X96647435Y-22429500D01*
X96392565Y-22429500D01*
X96392559Y-22429500D01*
X96235609Y-22453157D01*
X96140542Y-22467487D01*
X96140539Y-22467488D01*
X96140533Y-22467489D01*
X95896992Y-22542612D01*
X95667373Y-22653190D01*
X95667372Y-22653191D01*
X95456782Y-22796768D01*
X95269952Y-22970121D01*
X95269950Y-22970123D01*
X95111041Y-23169388D01*
X94983608Y-23390109D01*
X94959927Y-23450447D01*
X94917110Y-23505661D01*
X94851240Y-23528961D01*
X94783230Y-23512950D01*
X94734672Y-23462711D01*
X94720499Y-23405144D01*
X94720499Y-22882129D01*
X94720498Y-22882123D01*
X94720497Y-22882116D01*
X94714091Y-22822517D01*
X94704487Y-22796768D01*
X94663797Y-22687671D01*
X94663793Y-22687664D01*
X94577547Y-22572455D01*
X94577544Y-22572452D01*
X94462335Y-22486206D01*
X94462328Y-22486202D01*
X94327482Y-22435908D01*
X94327483Y-22435908D01*
X94267883Y-22429501D01*
X94267881Y-22429500D01*
X94267873Y-22429500D01*
X94267864Y-22429500D01*
X91772129Y-22429500D01*
X91772123Y-22429501D01*
X91712516Y-22435908D01*
X91577671Y-22486202D01*
X91577664Y-22486206D01*
X91462455Y-22572452D01*
X91462452Y-22572455D01*
X91376206Y-22687664D01*
X91376202Y-22687671D01*
X91325908Y-22822517D01*
X91319501Y-22882116D01*
X91319501Y-22882123D01*
X91319500Y-22882135D01*
X91319500Y-25377870D01*
X91319501Y-25377876D01*
X91325908Y-25437483D01*
X91376202Y-25572328D01*
X91376206Y-25572335D01*
X91462452Y-25687544D01*
X91462455Y-25687547D01*
X91577664Y-25773793D01*
X91577671Y-25773797D01*
X91588120Y-25777694D01*
X91712517Y-25824091D01*
X91772127Y-25830500D01*
X92270500Y-25830499D01*
X92337539Y-25850183D01*
X92383294Y-25902987D01*
X92394500Y-25954499D01*
X92394500Y-31089546D01*
X92374815Y-31156585D01*
X92358181Y-31177227D01*
X91589869Y-31945538D01*
X91528546Y-31979023D01*
X91461925Y-31975138D01*
X91456015Y-31973109D01*
X91262954Y-31940893D01*
X91233033Y-31935900D01*
X91006967Y-31935900D01*
X90987431Y-31939160D01*
X90783982Y-31973109D01*
X90570172Y-32046510D01*
X90570167Y-32046512D01*
X90371352Y-32154106D01*
X90192955Y-32292959D01*
X90192950Y-32292963D01*
X90039850Y-32459272D01*
X90039842Y-32459283D01*
X89916198Y-32648533D01*
X89825388Y-32855560D01*
X89769892Y-33074710D01*
X89751225Y-33299993D01*
X89751225Y-33300006D01*
X87408775Y-33300006D01*
X87408775Y-33299993D01*
X87390108Y-33074714D01*
X87390106Y-33074703D01*
X87358862Y-32951323D01*
X87361487Y-32881503D01*
X87391385Y-32833204D01*
X88043788Y-32180801D01*
X88056042Y-32170986D01*
X88055859Y-32170764D01*
X88061866Y-32165792D01*
X88061877Y-32165786D01*
X88102406Y-32122627D01*
X88109227Y-32115364D01*
X88119671Y-32104918D01*
X88130120Y-32094471D01*
X88134379Y-32088978D01*
X88138152Y-32084561D01*
X88170062Y-32050582D01*
X88179715Y-32033020D01*
X88190389Y-32016770D01*
X88202673Y-32000936D01*
X88221180Y-31958167D01*
X88223749Y-31952924D01*
X88227582Y-31945952D01*
X88246197Y-31912092D01*
X88251177Y-31892691D01*
X88257478Y-31874288D01*
X88265438Y-31855896D01*
X88272730Y-31809849D01*
X88273911Y-31804152D01*
X88276453Y-31794253D01*
X88285500Y-31759019D01*
X88285500Y-31738983D01*
X88287027Y-31719582D01*
X88290160Y-31699804D01*
X88285775Y-31653415D01*
X88285500Y-31647577D01*
X88285500Y-25794100D01*
X88305185Y-25727061D01*
X88355695Y-25682381D01*
X88512634Y-25606805D01*
X88723217Y-25463232D01*
X88910050Y-25289877D01*
X89068959Y-25090612D01*
X89196393Y-24869888D01*
X89289508Y-24632637D01*
X89346222Y-24384157D01*
X89365268Y-24130000D01*
X89346222Y-23875843D01*
X89289508Y-23627363D01*
X89196393Y-23390112D01*
X89068959Y-23169388D01*
X88910050Y-22970123D01*
X88723217Y-22796768D01*
X88512634Y-22653195D01*
X88512630Y-22653193D01*
X88512627Y-22653191D01*
X88512626Y-22653190D01*
X88283006Y-22542612D01*
X88283008Y-22542612D01*
X88039466Y-22467489D01*
X88039462Y-22467488D01*
X88039458Y-22467487D01*
X87918231Y-22449214D01*
X87787440Y-22429500D01*
X87787435Y-22429500D01*
X87532565Y-22429500D01*
X87532559Y-22429500D01*
X87375609Y-22453157D01*
X87280542Y-22467487D01*
X87280539Y-22467488D01*
X87280533Y-22467489D01*
X87036992Y-22542612D01*
X86807373Y-22653190D01*
X86807372Y-22653191D01*
X86596782Y-22796768D01*
X86409952Y-22970121D01*
X86409950Y-22970123D01*
X86251041Y-23169388D01*
X86123608Y-23390109D01*
X86030492Y-23627362D01*
X86029122Y-23631804D01*
X86027677Y-23631358D01*
X85996780Y-23686593D01*
X85935117Y-23719449D01*
X85865480Y-23713752D01*
X85809978Y-23671311D01*
X85791805Y-23631517D01*
X85790878Y-23631804D01*
X85789509Y-23627369D01*
X85789508Y-23627363D01*
X85696393Y-23390112D01*
X85568959Y-23169388D01*
X85410050Y-22970123D01*
X85223217Y-22796768D01*
X85012634Y-22653195D01*
X85012630Y-22653193D01*
X85012627Y-22653191D01*
X85012626Y-22653190D01*
X84783006Y-22542612D01*
X84783008Y-22542612D01*
X84539466Y-22467489D01*
X84539462Y-22467488D01*
X84539458Y-22467487D01*
X84418231Y-22449214D01*
X84287440Y-22429500D01*
X84287435Y-22429500D01*
X84032565Y-22429500D01*
X84032559Y-22429500D01*
X83875609Y-22453157D01*
X83780542Y-22467487D01*
X83780539Y-22467488D01*
X83780533Y-22467489D01*
X83536992Y-22542612D01*
X83307373Y-22653190D01*
X83307372Y-22653191D01*
X83096782Y-22796768D01*
X82909952Y-22970121D01*
X82909950Y-22970123D01*
X82751041Y-23169388D01*
X82623608Y-23390109D01*
X82530492Y-23627362D01*
X82529122Y-23631804D01*
X82527677Y-23631358D01*
X82496780Y-23686593D01*
X82435117Y-23719449D01*
X82365480Y-23713752D01*
X82309978Y-23671311D01*
X82291805Y-23631517D01*
X82290878Y-23631804D01*
X82289509Y-23627369D01*
X82289508Y-23627363D01*
X82196393Y-23390112D01*
X82068959Y-23169388D01*
X81910050Y-22970123D01*
X81723217Y-22796768D01*
X81512634Y-22653195D01*
X81512630Y-22653193D01*
X81512627Y-22653191D01*
X81512626Y-22653190D01*
X81283006Y-22542612D01*
X81283008Y-22542612D01*
X81039466Y-22467489D01*
X81039462Y-22467488D01*
X81039458Y-22467487D01*
X80918231Y-22449214D01*
X80787440Y-22429500D01*
X80787435Y-22429500D01*
X80532565Y-22429500D01*
X80532559Y-22429500D01*
X80375609Y-22453157D01*
X80280542Y-22467487D01*
X80280539Y-22467488D01*
X80280533Y-22467489D01*
X80036992Y-22542612D01*
X79807373Y-22653190D01*
X79807372Y-22653191D01*
X79596782Y-22796768D01*
X79409952Y-22970121D01*
X79409950Y-22970123D01*
X79251041Y-23169388D01*
X79123608Y-23390109D01*
X79030492Y-23627362D01*
X79029122Y-23631804D01*
X79027677Y-23631358D01*
X78996780Y-23686593D01*
X78935117Y-23719449D01*
X78865480Y-23713752D01*
X78809978Y-23671311D01*
X78791805Y-23631517D01*
X78790878Y-23631804D01*
X78789509Y-23627369D01*
X78789508Y-23627363D01*
X78696393Y-23390112D01*
X78568959Y-23169388D01*
X78410050Y-22970123D01*
X78223217Y-22796768D01*
X78012634Y-22653195D01*
X78012630Y-22653193D01*
X78012627Y-22653191D01*
X78012626Y-22653190D01*
X77783006Y-22542612D01*
X77783008Y-22542612D01*
X77539466Y-22467489D01*
X77539462Y-22467488D01*
X77539458Y-22467487D01*
X77418231Y-22449214D01*
X77287440Y-22429500D01*
X77287435Y-22429500D01*
X77032565Y-22429500D01*
X77032559Y-22429500D01*
X76875609Y-22453157D01*
X76780542Y-22467487D01*
X76780539Y-22467488D01*
X76780533Y-22467489D01*
X76536992Y-22542612D01*
X76307373Y-22653190D01*
X76307372Y-22653191D01*
X76096782Y-22796768D01*
X75909952Y-22970121D01*
X75909950Y-22970123D01*
X75751041Y-23169388D01*
X75623608Y-23390109D01*
X75530492Y-23627362D01*
X75529122Y-23631804D01*
X75527677Y-23631358D01*
X75496780Y-23686593D01*
X75435117Y-23719449D01*
X75365480Y-23713752D01*
X75309978Y-23671311D01*
X75291805Y-23631517D01*
X75290878Y-23631804D01*
X75289509Y-23627369D01*
X75289508Y-23627363D01*
X75196393Y-23390112D01*
X75068959Y-23169388D01*
X74910050Y-22970123D01*
X74723217Y-22796768D01*
X74512634Y-22653195D01*
X74512630Y-22653193D01*
X74512627Y-22653191D01*
X74512626Y-22653190D01*
X74283006Y-22542612D01*
X74283008Y-22542612D01*
X74039466Y-22467489D01*
X74039462Y-22467488D01*
X74039458Y-22467487D01*
X73918231Y-22449214D01*
X73787440Y-22429500D01*
X73787435Y-22429500D01*
X73532565Y-22429500D01*
X73532559Y-22429500D01*
X73375609Y-22453157D01*
X73280542Y-22467487D01*
X73280539Y-22467488D01*
X73280533Y-22467489D01*
X73036992Y-22542612D01*
X72807373Y-22653190D01*
X72807372Y-22653191D01*
X72596782Y-22796768D01*
X72409952Y-22970121D01*
X72409950Y-22970123D01*
X72251041Y-23169388D01*
X72123608Y-23390109D01*
X72030492Y-23627362D01*
X72029122Y-23631804D01*
X72027677Y-23631358D01*
X71996780Y-23686593D01*
X71935117Y-23719449D01*
X71865480Y-23713752D01*
X71809978Y-23671311D01*
X71791805Y-23631517D01*
X71790878Y-23631804D01*
X71789509Y-23627369D01*
X71789508Y-23627363D01*
X71696393Y-23390112D01*
X71568959Y-23169388D01*
X71410050Y-22970123D01*
X71223217Y-22796768D01*
X71012634Y-22653195D01*
X71012630Y-22653193D01*
X71012627Y-22653191D01*
X71012626Y-22653190D01*
X70783006Y-22542612D01*
X70783008Y-22542612D01*
X70539466Y-22467489D01*
X70539462Y-22467488D01*
X70539458Y-22467487D01*
X70418231Y-22449214D01*
X70287440Y-22429500D01*
X70287435Y-22429500D01*
X70032565Y-22429500D01*
X70032559Y-22429500D01*
X69875609Y-22453157D01*
X69780542Y-22467487D01*
X69780539Y-22467488D01*
X69780533Y-22467489D01*
X69536992Y-22542612D01*
X69307373Y-22653190D01*
X69307372Y-22653191D01*
X69096782Y-22796768D01*
X68909952Y-22970121D01*
X68909950Y-22970123D01*
X68751041Y-23169388D01*
X68623608Y-23390109D01*
X68530492Y-23627362D01*
X68529122Y-23631804D01*
X68527677Y-23631358D01*
X68496780Y-23686593D01*
X68435117Y-23719449D01*
X68365480Y-23713752D01*
X68309978Y-23671311D01*
X68291805Y-23631517D01*
X68290878Y-23631804D01*
X68289509Y-23627369D01*
X68289508Y-23627363D01*
X68196393Y-23390112D01*
X68068959Y-23169388D01*
X67910050Y-22970123D01*
X67723217Y-22796768D01*
X67512634Y-22653195D01*
X67512630Y-22653193D01*
X67512627Y-22653191D01*
X67512626Y-22653190D01*
X67283006Y-22542612D01*
X67283008Y-22542612D01*
X67039466Y-22467489D01*
X67039462Y-22467488D01*
X67039458Y-22467487D01*
X66918231Y-22449214D01*
X66787440Y-22429500D01*
X66787435Y-22429500D01*
X66532565Y-22429500D01*
X66532559Y-22429500D01*
X66375609Y-22453157D01*
X66280542Y-22467487D01*
X66280539Y-22467488D01*
X66280533Y-22467489D01*
X66036992Y-22542612D01*
X65807373Y-22653190D01*
X65807372Y-22653191D01*
X65596782Y-22796768D01*
X65409952Y-22970121D01*
X65409950Y-22970123D01*
X65251041Y-23169388D01*
X65123608Y-23390109D01*
X65099927Y-23450447D01*
X65057110Y-23505661D01*
X64991240Y-23528961D01*
X64923230Y-23512950D01*
X64874672Y-23462711D01*
X64860499Y-23405144D01*
X64860499Y-22882129D01*
X64860498Y-22882123D01*
X64860497Y-22882116D01*
X64854091Y-22822517D01*
X64844487Y-22796768D01*
X64803797Y-22687671D01*
X64803793Y-22687664D01*
X64717547Y-22572455D01*
X64717544Y-22572452D01*
X64602335Y-22486206D01*
X64602328Y-22486202D01*
X64467482Y-22435908D01*
X64467483Y-22435908D01*
X64407883Y-22429501D01*
X64407881Y-22429500D01*
X64407873Y-22429500D01*
X64407864Y-22429500D01*
X61912129Y-22429500D01*
X61912123Y-22429501D01*
X61852516Y-22435908D01*
X61717671Y-22486202D01*
X61717664Y-22486206D01*
X61602455Y-22572452D01*
X61602452Y-22572455D01*
X61516206Y-22687664D01*
X61516202Y-22687671D01*
X61465908Y-22822517D01*
X61459501Y-22882116D01*
X61459501Y-22882123D01*
X61459500Y-22882135D01*
X61459500Y-25377870D01*
X58972461Y-25377870D01*
X58458628Y-24864037D01*
X58425143Y-24802714D01*
X58430127Y-24733022D01*
X58430830Y-24731185D01*
X58469508Y-24632637D01*
X58526222Y-24384157D01*
X58545268Y-24130000D01*
X58526222Y-23875843D01*
X58469508Y-23627363D01*
X58376393Y-23390112D01*
X58248959Y-23169388D01*
X58090050Y-22970123D01*
X57903217Y-22796768D01*
X57692634Y-22653195D01*
X57692630Y-22653193D01*
X57692627Y-22653191D01*
X57692626Y-22653190D01*
X57463006Y-22542612D01*
X57463008Y-22542612D01*
X57219466Y-22467489D01*
X57219462Y-22467488D01*
X57219458Y-22467487D01*
X57098231Y-22449214D01*
X56967440Y-22429500D01*
X56967435Y-22429500D01*
X56712565Y-22429500D01*
X56712559Y-22429500D01*
X56555609Y-22453157D01*
X56460542Y-22467487D01*
X56460539Y-22467488D01*
X56460533Y-22467489D01*
X56216992Y-22542612D01*
X55987373Y-22653190D01*
X55987372Y-22653191D01*
X55776782Y-22796768D01*
X55589952Y-22970121D01*
X55589950Y-22970123D01*
X55431041Y-23169388D01*
X55303608Y-23390109D01*
X55210492Y-23627362D01*
X55209122Y-23631804D01*
X55207677Y-23631358D01*
X55176780Y-23686593D01*
X55115117Y-23719449D01*
X55045480Y-23713752D01*
X54989978Y-23671311D01*
X54971805Y-23631517D01*
X54970878Y-23631804D01*
X54969509Y-23627369D01*
X54969508Y-23627363D01*
X54876393Y-23390112D01*
X54748959Y-23169388D01*
X54590050Y-22970123D01*
X54403217Y-22796768D01*
X54192634Y-22653195D01*
X54192630Y-22653193D01*
X54192627Y-22653191D01*
X54192626Y-22653190D01*
X53963006Y-22542612D01*
X53963008Y-22542612D01*
X53719466Y-22467489D01*
X53719462Y-22467488D01*
X53719458Y-22467487D01*
X53598231Y-22449214D01*
X53467440Y-22429500D01*
X53467435Y-22429500D01*
X53212565Y-22429500D01*
X53212559Y-22429500D01*
X53055609Y-22453157D01*
X52960542Y-22467487D01*
X52960539Y-22467488D01*
X52960533Y-22467489D01*
X52716992Y-22542612D01*
X52487373Y-22653190D01*
X52487372Y-22653191D01*
X52276782Y-22796768D01*
X52089952Y-22970121D01*
X52089950Y-22970123D01*
X51931041Y-23169388D01*
X51803608Y-23390109D01*
X51710492Y-23627362D01*
X51709122Y-23631804D01*
X51707677Y-23631358D01*
X51676780Y-23686593D01*
X51615117Y-23719449D01*
X51545480Y-23713752D01*
X51489978Y-23671311D01*
X51471805Y-23631517D01*
X51470878Y-23631804D01*
X51469509Y-23627369D01*
X51469508Y-23627363D01*
X51376393Y-23390112D01*
X51248959Y-23169388D01*
X51090050Y-22970123D01*
X50903217Y-22796768D01*
X50692634Y-22653195D01*
X50692630Y-22653193D01*
X50692627Y-22653191D01*
X50692626Y-22653190D01*
X50463006Y-22542612D01*
X50463008Y-22542612D01*
X50219466Y-22467489D01*
X50219462Y-22467488D01*
X50219458Y-22467487D01*
X50098231Y-22449214D01*
X49967440Y-22429500D01*
X49967435Y-22429500D01*
X49712565Y-22429500D01*
X49712559Y-22429500D01*
X49555609Y-22453157D01*
X49460542Y-22467487D01*
X49460539Y-22467488D01*
X49460533Y-22467489D01*
X49216992Y-22542612D01*
X48987373Y-22653190D01*
X48987372Y-22653191D01*
X48776782Y-22796768D01*
X48589952Y-22970121D01*
X48589950Y-22970123D01*
X48431041Y-23169388D01*
X48303608Y-23390109D01*
X48210492Y-23627362D01*
X48209122Y-23631804D01*
X48207677Y-23631358D01*
X48176780Y-23686593D01*
X48115117Y-23719449D01*
X48045480Y-23713752D01*
X47989978Y-23671311D01*
X47971805Y-23631517D01*
X47970878Y-23631804D01*
X47969509Y-23627369D01*
X47969508Y-23627363D01*
X47876393Y-23390112D01*
X47748959Y-23169388D01*
X47590050Y-22970123D01*
X47403217Y-22796768D01*
X47192634Y-22653195D01*
X47192630Y-22653193D01*
X47192627Y-22653191D01*
X47192626Y-22653190D01*
X46963006Y-22542612D01*
X46963008Y-22542612D01*
X46719466Y-22467489D01*
X46719462Y-22467488D01*
X46719458Y-22467487D01*
X46598231Y-22449214D01*
X46467440Y-22429500D01*
X46467435Y-22429500D01*
X46212565Y-22429500D01*
X46212559Y-22429500D01*
X46055609Y-22453157D01*
X45960542Y-22467487D01*
X45960539Y-22467488D01*
X45960533Y-22467489D01*
X45716992Y-22542612D01*
X45487373Y-22653190D01*
X45487372Y-22653191D01*
X45276782Y-22796768D01*
X45089952Y-22970121D01*
X45089950Y-22970123D01*
X44931041Y-23169388D01*
X44803608Y-23390109D01*
X44710492Y-23627362D01*
X44709122Y-23631804D01*
X44707677Y-23631358D01*
X44676780Y-23686593D01*
X44615117Y-23719449D01*
X44545480Y-23713752D01*
X44489978Y-23671311D01*
X44471805Y-23631517D01*
X44470878Y-23631804D01*
X44469509Y-23627369D01*
X44469508Y-23627363D01*
X44376393Y-23390112D01*
X44248959Y-23169388D01*
X44090050Y-22970123D01*
X43903217Y-22796768D01*
X43692634Y-22653195D01*
X43692630Y-22653193D01*
X43692627Y-22653191D01*
X43692626Y-22653190D01*
X43463006Y-22542612D01*
X43463008Y-22542612D01*
X43219466Y-22467489D01*
X43219462Y-22467488D01*
X43219458Y-22467487D01*
X43098231Y-22449214D01*
X42967440Y-22429500D01*
X42967435Y-22429500D01*
X42712565Y-22429500D01*
X42712559Y-22429500D01*
X42555609Y-22453157D01*
X42460542Y-22467487D01*
X42460539Y-22467488D01*
X42460533Y-22467489D01*
X42216992Y-22542612D01*
X41987373Y-22653190D01*
X41987372Y-22653191D01*
X41776782Y-22796768D01*
X41589952Y-22970121D01*
X41589950Y-22970123D01*
X41431041Y-23169388D01*
X41303608Y-23390109D01*
X41210492Y-23627362D01*
X41209122Y-23631804D01*
X41207677Y-23631358D01*
X41176780Y-23686593D01*
X41115117Y-23719449D01*
X41045480Y-23713752D01*
X40989978Y-23671311D01*
X40971805Y-23631517D01*
X40970878Y-23631804D01*
X40969509Y-23627369D01*
X40969508Y-23627363D01*
X40876393Y-23390112D01*
X40748959Y-23169388D01*
X40590050Y-22970123D01*
X40403217Y-22796768D01*
X40192634Y-22653195D01*
X40192630Y-22653193D01*
X40192627Y-22653191D01*
X40192626Y-22653190D01*
X39963006Y-22542612D01*
X39963008Y-22542612D01*
X39719466Y-22467489D01*
X39719462Y-22467488D01*
X39719458Y-22467487D01*
X39598231Y-22449214D01*
X39467440Y-22429500D01*
X39467435Y-22429500D01*
X39212565Y-22429500D01*
X39212559Y-22429500D01*
X39055609Y-22453157D01*
X38960542Y-22467487D01*
X38960539Y-22467488D01*
X38960533Y-22467489D01*
X38716992Y-22542612D01*
X38487373Y-22653190D01*
X38487372Y-22653191D01*
X38276782Y-22796768D01*
X38089952Y-22970121D01*
X38089950Y-22970123D01*
X37931041Y-23169388D01*
X37803608Y-23390109D01*
X37710492Y-23627362D01*
X37709122Y-23631804D01*
X37707999Y-23631457D01*
X37676509Y-23687730D01*
X37614841Y-23720576D01*
X37545205Y-23714868D01*
X37489709Y-23672418D01*
X37471134Y-23631729D01*
X37470400Y-23631956D01*
X37469026Y-23627505D01*
X37375941Y-23390328D01*
X37375942Y-23390328D01*
X37248544Y-23169671D01*
X37206546Y-23117006D01*
X36402772Y-23920779D01*
X36364099Y-23827412D01*
X36267925Y-23702075D01*
X36142588Y-23605901D01*
X36049220Y-23567227D01*
X36853185Y-22763261D01*
X36692377Y-22653624D01*
X36692376Y-22653623D01*
X36462823Y-22543078D01*
X36462825Y-22543078D01*
X36219347Y-22467975D01*
X36219341Y-22467973D01*
X35967404Y-22430000D01*
X35712595Y-22430000D01*
X35460658Y-22467973D01*
X35460652Y-22467975D01*
X35217175Y-22543078D01*
X34987624Y-22653623D01*
X34987616Y-22653628D01*
X34826813Y-22763261D01*
X35630779Y-23567227D01*
X35537412Y-23605901D01*
X35412075Y-23702075D01*
X35315901Y-23827411D01*
X35277226Y-23920779D01*
X34473453Y-23117006D01*
X34431455Y-23169670D01*
X34304058Y-23390328D01*
X34210973Y-23627505D01*
X34209600Y-23631956D01*
X34208432Y-23631595D01*
X34177026Y-23687726D01*
X34115360Y-23720575D01*
X34045724Y-23714871D01*
X33990226Y-23672423D01*
X33971581Y-23631587D01*
X33970878Y-23631804D01*
X33969509Y-23627369D01*
X33969508Y-23627363D01*
X33876393Y-23390112D01*
X33748959Y-23169388D01*
X33590050Y-22970123D01*
X33403217Y-22796768D01*
X33192634Y-22653195D01*
X33192630Y-22653193D01*
X33192627Y-22653191D01*
X33192626Y-22653190D01*
X32963006Y-22542612D01*
X32963008Y-22542612D01*
X32719466Y-22467489D01*
X32719462Y-22467488D01*
X32719458Y-22467487D01*
X32598231Y-22449214D01*
X32467440Y-22429500D01*
X32467435Y-22429500D01*
X32212565Y-22429500D01*
X32212559Y-22429500D01*
X32055609Y-22453157D01*
X31960542Y-22467487D01*
X31960539Y-22467488D01*
X31960533Y-22467489D01*
X31716992Y-22542612D01*
X31487373Y-22653190D01*
X31487372Y-22653191D01*
X31276782Y-22796768D01*
X31089952Y-22970121D01*
X31089950Y-22970123D01*
X30931041Y-23169388D01*
X30803608Y-23390109D01*
X30710492Y-23627362D01*
X30709122Y-23631804D01*
X30707677Y-23631358D01*
X30676780Y-23686593D01*
X30615117Y-23719449D01*
X30545480Y-23713752D01*
X30489978Y-23671311D01*
X30471805Y-23631517D01*
X30470878Y-23631804D01*
X30469509Y-23627369D01*
X30469508Y-23627363D01*
X30376393Y-23390112D01*
X30248959Y-23169388D01*
X30090050Y-22970123D01*
X29903217Y-22796768D01*
X29692634Y-22653195D01*
X29692630Y-22653193D01*
X29692627Y-22653191D01*
X29692626Y-22653190D01*
X29463006Y-22542612D01*
X29463008Y-22542612D01*
X29219466Y-22467489D01*
X29219462Y-22467488D01*
X29219458Y-22467487D01*
X29098231Y-22449214D01*
X28967440Y-22429500D01*
X28967435Y-22429500D01*
X28712565Y-22429500D01*
X28712559Y-22429500D01*
X28555609Y-22453157D01*
X28460542Y-22467487D01*
X28460539Y-22467488D01*
X28460533Y-22467489D01*
X28216992Y-22542612D01*
X27987373Y-22653190D01*
X27987372Y-22653191D01*
X27776782Y-22796768D01*
X27589952Y-22970121D01*
X27589950Y-22970123D01*
X27431041Y-23169388D01*
X27303608Y-23390109D01*
X27279927Y-23450447D01*
X27237110Y-23505661D01*
X27171240Y-23528961D01*
X27103230Y-23512950D01*
X27054672Y-23462711D01*
X27040499Y-23405144D01*
X27040499Y-22882129D01*
X27040498Y-22882123D01*
X27040497Y-22882116D01*
X27034091Y-22822517D01*
X27024487Y-22796768D01*
X26983797Y-22687671D01*
X26983793Y-22687664D01*
X26897547Y-22572455D01*
X26897544Y-22572452D01*
X26782335Y-22486206D01*
X26782328Y-22486202D01*
X26647482Y-22435908D01*
X26647483Y-22435908D01*
X26587883Y-22429501D01*
X26587881Y-22429500D01*
X26587873Y-22429500D01*
X26587864Y-22429500D01*
X24092129Y-22429500D01*
X24092123Y-22429501D01*
X24032516Y-22435908D01*
X23897671Y-22486202D01*
X23897664Y-22486206D01*
X23782455Y-22572452D01*
X23782452Y-22572455D01*
X23696206Y-22687664D01*
X23696202Y-22687671D01*
X23645908Y-22822517D01*
X23639501Y-22882116D01*
X23639501Y-22882123D01*
X23639500Y-22882135D01*
X23639500Y-25377870D01*
X20300500Y-25377870D01*
X20300500Y-20424500D01*
X20320185Y-20357461D01*
X20372989Y-20311706D01*
X20424500Y-20300500D01*
X134575500Y-20300500D01*
X134642539Y-20320185D01*
G37*
G04 #@! TD.AperFunction*
M02*
