<?xml version="1.0" encoding="UTF-8"?>
<!DOCTYPE svg PUBLIC "-//W3C//DTD SVG 1.1//EN" "http://www.w3.org/Graphics/SVG/1.1/DTD/svg11.dtd">
<!-- Creator: CorelDRAW -->
<svg xmlns="http://www.w3.org/2000/svg" xml:space="preserve" width="210mm" height="297mm" version="1.1" style="shape-rendering:geometricPrecision; text-rendering:geometricPrecision; image-rendering:optimizeQuality; fill-rule:evenodd; clip-rule:evenodd"
viewBox="0 0 21000 29700"
 xmlns:xlink="http://www.w3.org/1999/xlink"
 xmlns:xodm="http://www.corel.com/coreldraw/odm/2003">
 <defs>
  <style type="text/css">
   <![CDATA[
    .str0 {stroke:#2B2A29;stroke-width:20;stroke-miterlimit:22.9256}
    .fil0 {fill:none}
   ]]>
  </style>
 </defs>
 <g id="Plan_x0020_1">
  <metadata id="CorelCorpID_0Corel-Layer"/>
  <path id="Cat_x0020_Polygon_x0020_Art_x0020_Wall_x0020_geometric--cats-animals-wall_x0020_decor-polygon.cdr" class="fil0 str0" d="M6610.27 24315.87c0,0 593.07,742.32 593.07,742.32 0,0 78.02,112.26 78.02,112.26 -67.27,-11.13 -641.65,-139.36 -703.17,-169.71 0,0 7.17,-237.41 7.17,-237.41 0,0 24.91,-447.46 24.91,-447.46zm-188.37 1040.43c83.39,-3.78 1077.86,292.8 1313.91,300.11 573.45,17.73 1377.33,-0.9 1883.73,82.9 366.85,60.7 780.31,94.93 1131.25,171.99 85.78,387.59 -164.86,163.74 334.31,712.22 131.61,-13.94 360.5,-104.61 465.72,-50.83 158.11,80.73 317.49,187.77 480.42,241.38 64.9,-54.18 155.61,-146.36 220.41,-206.77 37.45,8.19 338.78,171.2 372.48,213.68 51.15,-22.93 182.3,-194.58 224.33,-255.07 55.34,25.74 297.62,119.44 326.27,151.35 109.82,4.98 120.1,-46.27 211.59,-106.57 142.79,-195.97 233.48,-67.15 550.37,59.29 238.09,100.38 237.04,147.36 461.09,-26.4 152.56,-97.13 80.26,-60.56 326.04,75.62 0,0 131.38,71.12 131.38,71.12 299.8,-375.42 350.96,-97.54 605.48,-63.87 36.16,-80.91 239.17,-326.9 305.84,-417.83 332.03,-452.85 215.29,-190.92 106.56,-576.27 0,0 1682.52,-775.63 1682.52,-775.63 172.1,-58.89 140.74,-67.06 188.56,-244.84 0,0 453.7,-1712.7 453.7,-1712.7 85.1,-330.8 304.84,-2500.18 380.99,-3089.6 22.6,-175.03 -19.36,-195.04 -85.21,-323.58 -231.5,-451.86 -539.73,-962.64 -773.36,-1409.18 -139.13,-265.92 -220.26,-334.75 -260.57,-609.76 0,0 -347.94,-2263.07 -347.94,-2263.07 -76.17,-496.38 -71.61,-286.49 -16.16,-792.41 0,0 341.13,-3140.53 341.13,-3140.53 52.7,-482.84 94.52,-407.32 -83.52,-690.59 0,0 -1340.58,-2142.43 -1340.58,-2142.43 -55.82,-91.23 -3.06,-259.91 12.07,-372.57 0,0 152.66,-1146.51 152.66,-1146.51 28.06,-212.65 28.13,-168.65 -42.06,-352.42 0,0 -554.85,-1403.43 -554.85,-1403.43 -31.76,-83.9 -70.54,-136.13 -128.66,-200.95 0,0 -550.3,-645.53 -550.3,-645.53 0,0 -600.13,-713.29 -600.13,-713.29 -212.32,-11.32 -432.51,-18.61 -644.67,-22.41 -106.77,-1.9 -215.53,-11.92 -323.34,-14.62 -154.64,-3.85 -148.89,-13.82 -271.88,-71.72 -313.08,-147.4 -616.48,-283.17 -929.6,-431.12 -294.47,-139.17 -626.57,-280.22 -919.49,-425.06 -121.67,-60.15 -865.93,-414.48 -931.97,-427.71 0,0 0.84,203.83 0.84,203.83 0,0 46.15,853 46.15,853 -737.51,-310.84 -1496.44,-593.47 -2244.09,-885.38 0,0 -7.68,51.71 -7.68,51.71 53.58,54.88 200.59,314.03 246.49,388.6 156.63,247.95 1023.81,1555.41 1023.07,1603.05 -0.62,39.75 -750.25,787.74 -785.05,929.53 -50.19,461.84 -293.54,685.57 -239.65,1267.64 10.76,116.24 32.4,233.19 36.57,344.99 6.74,180.76 -3.96,160.24 -75.53,290.47 -128.65,233.9 -257.4,459.21 -381.86,693.81 -98.44,185.5 -107.25,167.88 -57.95,494.54 21.17,140.25 32.68,118.92 104.12,194.93 194.36,206.79 417.7,405.99 629.36,596.23 96.62,88.01 219.27,207.01 312.76,300.19 407.29,405.99 202.94,277.4 896.7,333.18 190.58,15.32 388.49,24.63 578.94,33.6 -12.4,192.26 -438.18,1799.81 -532.36,2189.28 -75.8,313.4 84.16,516.4 -47.08,732.95 0,0 -1123.69,1836 -1123.69,1836 0,0 -307,499.46 -307,499.46 -25.28,53.04 -33.39,161.42 -42.74,228.71 0,0 -245.62,1904.83 -245.62,1904.83 -34.1,292.39 -94.25,626.17 -121.48,926.08 -27.52,303.18 -88.44,646.19 -125.13,946.48 0,0 -307.54,2388.83 -307.54,2388.83 -25.71,245.41 -14.11,238.56 64.15,444.1 75.65,198.76 597.45,1462.82 597.21,1557.51 0,0 -1527.13,-6.78 -1527.13,-6.78 -433.46,1.82 -1566.94,298.33 -2110.95,378.15 -176.8,25.94 -958.1,195.93 -1044.17,190.74 0,0 -120.06,187 -120.06,187 -40.38,127.45 -324.59,568.01 -426.32,739.81 -67.94,114.75 -514.09,869.9 -542.99,955.57 71.63,38.44 153.88,95.45 229.25,137.67 0,0 1443.45,858.68 1443.45,858.68 540.91,336.59 394.87,300.57 838.17,275.37 0,0 2346.46,-122.11 2346.46,-122.11 24.32,-1.85 53.22,3.15 75.5,-20.13 65.72,-68.61 -121.39,-483.32 -149.02,-553.03 0,0 -232.87,-618.1 -232.87,-618.1 0,0 -940.49,134.14 -940.49,134.14 -368.69,60.03 -237.07,35.89 -596.86,-124.57 -61.09,-27.25 -122.57,-53.87 -189.45,-81.79 50.07,-255.33 36.79,-210.3 215.44,-274.45 87.38,-31.37 160.13,-61.46 250.58,-94.13 85.67,-30.93 666.29,-261.62 731.03,-264.58zm2949 -30.31c-419.19,-863.47 -777.24,-1719.06 -1130.12,-2608.98 288.04,181.67 2048.36,2347.97 2437.3,2800.62 -397.72,-28.11 -925.91,-124.96 -1307.18,-191.64zm400.43 -1266.19c-42.2,-43.89 -50.62,-66.76 -87.11,-107.44 0,0 -1645.61,-1897.24 -1645.61,-1897.24 -53.89,-61.53 -139.48,-152.92 -159.45,-206.62 34.87,-49.43 87.96,-111.3 123.7,-156.73 0,0 1857.62,-2382.8 1857.62,-2382.8 13.91,-35.95 74.86,-110.58 107.24,-130.04 17.54,-58.3 84.3,-123.15 126.26,-165.1 0,0 779.1,2943.6 779.1,2943.6 66.19,245.32 121.88,502.04 194.94,744.46 255.42,847.67 214.95,688.22 91.73,1550.76 -14.99,105 -45.79,528.37 -110.21,591.01 0,0 -210.12,222.77 -210.12,222.77 -34.02,35.65 -55,74 -95.59,103.12 -50.42,-24.51 -230.68,-258.34 -276.68,-310.79 0,0 -440.83,-500.67 -440.83,-500.67 0,0 -254.99,-298.29 -254.99,-298.29zm1716.39 583.99c0,0 116.76,-949.92 116.76,-949.92 180.72,113.5 1122.1,700.75 1215.88,783.47 0,0 -265.34,35.6 -265.34,35.6 0,0 -1067.3,130.85 -1067.3,130.85zm1524.63 -378.73c-296.62,-88.18 -1093.55,-782.75 -1435.52,-902.65 0,0 137.55,-2766.53 137.55,-2766.53 13.41,-125.71 8.36,-610.7 52.91,-678.29 0,0 1245.06,4347.47 1245.06,4347.47zm432.83 260.75c8.51,-146.43 214.42,-1051.53 261.25,-1289.01 353.04,-1790.26 301.15,-1028.4 232.33,-2751.06 -20.22,-506.07 -116.98,-1315.65 -66.71,-1803.55 347.72,-83.17 798.85,-255.86 1144.26,-303.01 0,0 -1019.29,6396.17 -1019.29,6396.17 -160.94,-68.58 -418.5,-211.61 -551.84,-249.54zm816 238.56c0,0 866.7,-5440.94 866.7,-5440.94 0,0 156.67,-974.97 156.67,-974.97 37.43,-21.15 11.99,-17.46 113.53,-10.05 0,0 882.14,63.9 882.14,63.9 -82.57,513.22 -273.95,1370.61 -388.61,1911.35 -266.91,1258.66 -513.76,2520.48 -796.85,3776.21 -91.9,407.64 -80.34,502.94 -248.53,887.77 -47.02,107.6 -316.57,740.73 -355.71,787.02 0,0 -61.37,-181.63 -61.37,-181.63 -7.93,-49.74 -47.62,-144.94 -65.37,-195.37 -121.3,-344.83 -146.65,-346.79 -102.6,-623.29zm1239.57 -107.35c0,0 1737.84,-1158.73 1737.84,-1158.73 0,0 385.6,-247.51 385.6,-247.51 -233.38,505.85 -596.47,1064 -874.72,1552.39 -31.78,55.78 -64.76,133.31 -100.73,186.09 -264.92,-107.41 -727.06,-203.64 -1020.01,-284.57 -42.29,-8.09 -97.64,-17.66 -127.98,-47.67zm-8372.56 -553.87c99.05,-32.56 1143.58,-0.78 1353.09,-4.82 43.47,49.21 499.91,1006.88 524.82,1093.09 -208.54,-105.47 -1701.96,-897.95 -1877.91,-1088.27zm4396.39 837.89c19.11,-15.44 1198.44,-178.4 1425.75,-188.17 -127.09,216.13 -705.59,1158.92 -752.82,1184.52 -133.82,-245.62 -337.57,-506.23 -500.24,-738.32 -64.7,-89.61 -113.25,-179.58 -172.69,-258.03zm1966.04 626.56c-33.98,-259.8 -62.67,-510.17 -101.02,-763.98 63.04,12.3 438.73,205.23 502.79,243.38 -60.09,140.33 -278.82,495.49 -368.02,644.05 0,0 -33.75,-123.45 -33.75,-123.45zm1121.99 644.12c9.98,-83.11 395.65,-915.42 498.32,-1159.77 36.21,38.09 328.31,650.33 398.09,788.86 43.54,86.46 80.76,104.47 -0.94,201.82 -62.38,74.31 -108.66,152.81 -173.1,223.9 -333.62,-68.05 -75.66,-253.96 -524.98,65.8 0,0 -197.39,-120.61 -197.39,-120.61zm1088.14 -812.21c0,0 -86.85,-183.77 -86.85,-183.77 -24.13,-29.55 -98.32,-199.34 -113.21,-242.33 -1.86,-5.38 -3.7,-10.7 -5.52,-15.94 47.24,8.92 650.25,161.78 695.42,212.93 -163.8,76.74 -321.18,163.14 -489.84,229.11zm-4542.5 -89.68c0,0 168.6,-183.29 168.6,-183.29 55.48,42.89 65.38,81.02 99.49,133.73 106.4,164.47 636.77,900.05 667.26,996.3 -68,92.8 -117.34,148.84 -187.8,71.3 -127.03,-57.26 -289.49,-179.02 -428.82,-144.82 -147.38,36.19 -308.47,91.48 -331.32,-104.95 -5.49,-47.23 -10.42,-179.98 -6.34,-225.95 19.45,-218.67 7.82,-432.16 18.93,-542.32zm1709.16 -2446.64c0,0 -850.39,-2970.53 -850.39,-2970.53 -16.96,-24.26 5.3,21.47 -19.19,-32.8 0,0 -95.61,-367.86 -95.61,-367.86 0,0 510.68,371.3 510.68,371.3 165.88,130.43 346.01,253.07 511.31,380.64 0,0 85.67,3120.99 85.67,3120.99 0,0 -142.47,-501.74 -142.47,-501.74zm509.69 99.21c0,0 -216.31,-7087.98 -216.31,-7087.98 9.5,-57.17 -7.59,-32.92 64.15,-52.05 87.63,-23.38 214.68,-49.65 303.49,-64.64 -40.07,1193.99 -75.71,2431.98 -3.01,3622.29 35.86,587.59 47.63,1189.73 72.88,1778.17 14.39,335.61 44.76,543.85 -27.54,868.31 -30.55,137.12 -124.44,691.66 -170.97,761.84 5.81,68.86 -11.78,105.27 -22.69,174.06zm2170.92 885.63c178.4,-1692.8 762.41,-3477.16 1083.31,-5164.8 0,0 15.52,-97.38 15.52,-97.38 42.03,33.14 1502.21,1170.94 1564.63,1257.53 -25.61,94.57 -392.95,613.38 -447.32,694.59 -661.96,988.71 -2216.14,3310.06 -2216.14,3310.06zm394.59 -76.82c0,0 1829.01,-2717.02 1829.01,-2717.02 85.2,-162.31 246.03,-395.15 353.13,-534.23 0,0 -243.99,2126.14 -243.99,2126.14 -7.76,72.64 -5.97,80.07 -50.48,113.48 -629.65,472.75 -1476.14,970.56 -2150.65,1418.86 39.37,-72.22 149,-274.6 213.57,-313.99 7.26,-44.54 5.32,-28.45 49.41,-93.24zm-3583.12 2466.91c11.66,-97.03 649.96,-1051.39 803.93,-1287.11 0,0 166.82,1248.11 166.82,1248.11 -49.68,31.2 -85.45,86.94 -142.18,94.31 -89.15,11.61 -314.15,-149.88 -441.05,-169.62 -58.53,49.7 -120.28,152.59 -179.39,217.92 -107.72,-44.18 -128.63,-66.2 -208.13,-103.61zm1233.85 -115.14c80.25,-261.89 371.3,-573.53 466.73,-823.27 41.5,37.73 142.58,381.73 166.54,449.85 39.25,107.71 137.74,383.77 148.05,478.6 -42.34,23.47 -189.54,128.5 -223.71,125.52 -57.47,-5 -451.16,-201.53 -557.61,-230.7zm-6885.78 414.45c32.73,56.2 111.48,235.82 109.68,309.02 -74.19,-2.7 -498.84,-203.24 -542.99,-241.99 119.06,-29.24 308.51,-60.46 433.31,-67.03zm551 -2027.23c0,0 1345.75,789.33 1345.75,789.33 -542.12,45.91 -758.24,112.65 -1065.04,-263.25 -114.27,-151.41 -416.37,-500 -489.65,-638.21 69.37,16.43 146.64,78.44 208.94,112.13zm3989.24 -2547.97c0,0 -228.44,-883.25 -228.44,-883.25 -58.48,-218.85 -109.79,-433.43 -171.07,-651.75 -43.44,-154.74 -335.03,-1223.47 -326.06,-1293.2 -19.27,-25.81 4.55,20.42 -20.84,-33.69 -26.85,-57.2 -17.3,-115.93 -18.34,-118.63 -24.81,-26.27 -23.22,-48.08 -28.87,-92.93 0,0 1075.24,364.06 1075.24,364.06 0,0 -154.95,3168.85 -154.95,3168.85 0,0 -126.67,-459.46 -126.67,-459.46zm5545.76 -3603.27c-21.31,-10.04 -19.92,-3.9 -42.98,-25.44 0,0 286.6,-157.3 286.6,-157.3 71.18,-49.81 94.24,-70.68 179.64,-101.74 39.8,47.13 592.31,1050.12 614.02,1129.49 -110.49,-65.42 -355.37,-284.96 -487.9,-383.64 -47.07,-34.41 -71.9,-53.85 -113.85,-93.28 -60.77,-40.43 -418.45,-320.84 -435.53,-368.09zm-5794.64 432.24c-75.59,-2.12 -501.69,-159.81 -602.62,-199.77 -17.31,-139.86 88.67,-742.01 91.07,-966.16 0,0 77.07,-602.26 77.07,-602.26 35.49,37.06 372.15,828.17 441.29,959.5 58.53,111.13 400.98,871.38 417.58,956.88 -63.73,-7.47 -157.87,-29.7 -202.31,-73.29 0,0 -172.72,-43.14 -172.72,-43.14 -51.93,-20.74 -24.12,-6.59 -49.36,-31.76zm582.83 -137.9c0,0 -466.78,-1019.4 -466.78,-1019.4 -64.04,-140.01 -447.27,-955.55 -453.12,-1040.97 0,0 -37.18,-53.31 -37.18,-53.31 19.83,-21.01 -13.28,-14.09 102.71,-42.63 40.85,-10.05 81.11,-21.17 120.04,-31.31 456.63,-118.9 1453.98,-450.75 1894.96,-480.45 -55.56,216.54 -183.62,501.32 -265.44,719.11 -117.56,312.87 -762.16,1968.93 -799.57,2131.65 -42.11,-32.24 -86.17,-138.25 -95.62,-182.69zm1483.04 -3043.33c-57.87,-255.22 -101.52,-520.08 -149.53,-779.72 -85.65,-463.2 -176.65,-920.26 -262.25,-1381.18 -27.97,-150.45 -129.18,-582.54 -103.82,-652.64 244.93,643.55 545.55,1360.08 811.97,2007.79 48.38,117.66 251.19,587.82 255.87,674 -48.41,28.73 -98.16,31.61 -160.72,45.05 0,0 -391.52,86.7 -391.52,86.7zm562.77 -817.95c0,0 -106.24,-239.88 -106.24,-239.88 -268.01,-808.23 -706.16,-1620.78 -978.82,-2433.08 0,0 1388.7,38.56 1388.7,38.56 0,0 -207.04,2886.11 -207.04,2886.11 0,0 -96.6,-251.71 -96.6,-251.71zm332.05 461.65c0,0 199,-2795.25 199,-2795.25 4.86,-175.46 47.87,-243.25 -29.27,-395.1 0,0 -377.11,-730.75 -377.11,-730.75 -75.71,-146.06 -167.12,-301.22 -219.45,-441.68 -31.67,-51.52 -134.88,-240.89 -153.28,-310.03 43.63,45.56 160.91,125.49 234.36,202.91 0,0 327.88,300 327.88,300 0,0 902.99,2968.57 902.99,2968.57 44.44,136.76 141.14,413.39 157.05,546.25 -59.92,41.2 -117.06,76.4 -186.68,124.8 -203.56,121.55 -430.18,294.57 -618.65,410.25 -58.43,35.88 -215.93,178.78 -236.84,120.03zm1429.61 -714.54c-128.03,-547.12 -716.49,-2041.96 -751.08,-2520.63 0,0 1331.77,1896.01 1331.77,1896.01 46.24,62.42 76.06,112.72 115.5,168.94 140.46,200.21 364.55,489.26 469.24,686.17 0,0 -320.02,-67.73 -320.02,-67.73 0,0 -845.41,-162.76 -845.41,-162.76zm363.28 -1378.32c0,0 -998.72,-1423.11 -998.72,-1423.11 -50.31,-70.77 -350.96,-471.94 -374.32,-563.03 739.1,-92.61 1890.41,-49.83 2704.32,-51.54 0,0 -371.26,3387.8 -371.26,3387.8 -313.26,-443.71 -641.75,-891.7 -960.02,-1350.12zm958.96 -2288.9c0,0 -675.56,12.52 -675.56,12.52 0,0 -1768.65,23.01 -1768.65,23.01 0,0 182.76,-1041.13 182.76,-1041.13 0,0 40.9,-74.09 40.9,-74.09 33.33,2.28 2165.23,1029.62 2220.55,1079.69zm-8714.9 10239.21c-9.36,-74.26 260.87,-2099.02 294.03,-2358.85 42.27,-331.36 286.58,-2088.75 300,-2366.86 7.8,-90.8 52.17,-451.49 80.94,-491.68 0,0 1107.67,2223.84 1107.67,2223.84 63.94,120.86 275.02,482.5 234.5,577.24 0,0 -2048.51,2642.24 -2048.51,2642.24 -1.92,-71 5.41,-173.92 31.37,-225.93zm1973.72 -3181.15c-224.13,-418.41 -409.87,-830.95 -627.56,-1244.05 -67.55,-128.2 -525.26,-1023.96 -535.05,-1092.4 -39.05,-28.71 -54.75,-65.98 -59.51,-118.47 -18.93,-16.71 -9.75,26.06 -27.51,-41.67 84.77,-26.7 1441.61,-87.19 1648.16,-97.27 0,0 -308.34,2793.29 -308.34,2793.29 0,0 -90.19,-199.43 -90.19,-199.43zm2199.51 -2046.53c0,0 -1525.21,379.39 -1525.21,379.39 0,0 69.89,-667.83 69.89,-667.83 0,0 29.36,-222.93 29.36,-222.93 0,0 1700.69,394.59 1700.69,394.59 37.43,15.33 20.85,6.94 41.09,30.69 0,0 -315.82,86.09 -315.82,86.09zm288.43 -378.47c-410.86,-82.81 -1409.99,-269.2 -1615.02,-373.01 0,0 242.39,-450.29 242.39,-450.29 0,0 121.67,-219.33 121.67,-219.33 0,0 1189.96,977.48 1189.96,977.48 35.21,37.54 21.89,34.96 61,65.15zm326 -63.22c-145.21,-70.28 -1433.76,-1174.62 -1454,-1204.3 152.23,-422.64 622.45,-1214.79 896.26,-1701.91 32.7,40.41 34.66,122.66 44.46,174.47 81.68,431.75 504.82,2572.61 513.28,2731.74zm961.12 -3540.64c0,0 -1337.6,-38.46 -1337.6,-38.46 0,0 412.51,-1196.93 412.51,-1196.93 0,0 120.42,-345.45 120.42,-345.45 0,0 405.55,776.62 405.55,776.62 86.7,168.95 366.16,660.19 399.12,804.22zm1361.5 -2116.49c-128.86,-65.07 -333.98,-174.07 -465.71,-220.08 27.6,-62.7 9.62,-30.66 95.11,-94.82 24.39,-18.29 861.91,-674.91 940.81,-691.85 0,0 1132.28,1823.74 1132.28,1823.74 -412.09,-164.7 -888.86,-432.94 -1289.56,-617.24 -144.18,-66.32 -269.64,-127.35 -412.93,-199.75zm-1274.19 840.08c0,0 -734.41,-662.71 -734.41,-662.71 27.34,-83.56 494.18,-809.5 602.08,-990.34 292.2,-463.37 588.31,-929.51 870.5,-1398.09 0,0 -471.29,2829.82 -471.29,2829.82 -16.63,104.1 -42.23,295.83 -72.62,389.85 -33.3,-27.84 -62.57,-36.37 -89.3,-77.88 0,0 -104.96,-90.65 -104.96,-90.65zm901.35 -2412.47c52.53,-299.03 95.49,-688.92 169.59,-971.06 0,0 25.15,-149.42 25.15,-149.42 69.68,-26.91 765.99,-33.2 874.17,-23.42 -12.88,224.81 -131.17,998.78 -175.38,1305.88 -16.83,116.88 2.43,114.02 -79.97,172.24 -101.91,71.98 -200.35,148.28 -302.32,221.25 -98.2,70.29 -617.94,492.63 -687.04,517.63 0,0 17.92,-73.2 17.92,-73.2 -13.53,-97.64 130.55,-844.33 157.88,-999.9zm1005.4 -1424.86c0,0 -690.23,13.03 -690.23,13.03 -193.04,3.95 -181.3,1.76 -307.75,-88.97 0,0 -720.97,-489.62 -720.97,-489.62 -307.05,-217.05 -630.05,-413.46 -927.83,-637.73 638.56,-71.88 1586.93,1.73 2139.86,-106.03 103.29,248.52 481.28,1116.63 506.92,1309.32zm-5301.47 8299.14c0,0 -232.2,14.22 -232.2,14.22 0,0 -1309.86,70.62 -1309.86,70.62 7.96,-36.6 870.64,-1467.74 904.77,-1487.1 20.75,-49.7 50,-121.52 91.74,-149.49 28.41,-29.63 78.59,-169.38 163.66,-265.95 55.92,222.35 385.34,1684.66 381.89,1817.7zm204.59 -339.26c0,0 -66.37,-223.29 -66.37,-223.29 -52.69,-308.55 -139.59,-633.35 -203.95,-945.89 -50.87,-246.98 -184.16,-736.36 -151.18,-977.68 -17.69,-45.41 -23.53,-115.61 -3.99,-162.46 541.7,-137.22 1206.68,-193.93 1783.5,-281.45 -51.47,246.97 -613.56,1194.35 -746.14,1441.24 0,0 -611.87,1149.53 -611.87,1149.53zm1245.5 -2839.31c0,0 -1643.51,260.21 -1643.51,260.21 0,0 451.86,-1766.02 451.86,-1766.02 0,0 43.54,-191.15 43.54,-191.15 0,0 95.33,108.25 95.33,108.25 0,0 912.1,1135.66 912.1,1135.66 69.28,85.34 291.68,363.59 315.15,424.01 0,0 -174.47,29.04 -174.47,29.04zm226.15 -390.03c0,0 -285.72,-353.04 -285.72,-353.04 -92.71,-115.35 -833.81,-986.17 -904.47,-1150.15 0,0 1799.67,107.36 1799.67,107.36 25.6,77.65 -73.45,294.77 -103.09,385.88 0,0 -396.76,1128.09 -396.76,1128.09 -34.55,-13.21 -90.48,-72.16 -109.63,-118.14zm848.2 -1858.84c0,0 -67.47,-176.27 -67.47,-176.27 -57.12,-157.1 -409.59,-972.6 -410.61,-1060.72 -18.1,-18.93 -8.71,26.88 -27.51,-44.7 79.06,-110.26 1514.92,-822.68 1987.94,-1072.96 -84.98,186.12 -280.6,469.08 -393.18,643.56 0,0 -745.77,1197.64 -745.77,1197.64 0,0 -253.04,404.69 -253.04,404.69 -92.32,141.37 -43.73,102.6 -90.36,108.76zm1263.04 -2548.64c0,0 -1887.76,1009.14 -1887.76,1009.14 0,0 -330.19,-616.97 -330.19,-616.97 -90.65,-189.85 -116.56,-145.93 -66.43,-259.94 94.78,-215.59 590.06,-1269.03 627.07,-1302.06 0,0 55.09,-135.45 55.09,-135.45 0,0 78.98,-136.87 78.98,-136.87 0,0 809.05,554.86 809.05,554.86 330.58,222.41 737.32,488.45 1037.65,709.72 -66.38,56.99 -233.82,126.91 -323.46,177.57zm781.16 -1899.45c0,0 -166.6,7.65 -166.6,7.65 0,0 -173.17,10.22 -173.17,10.22 0,0 -1825.52,78 -1825.52,78 0,0 364.13,-1116.2 364.13,-1116.2 0,0 25.13,-72.06 25.13,-72.06 0,0 622.19,22.62 622.19,22.62 307.09,14.43 222.56,-37.33 427.27,206.63 113.67,134.08 674.69,770.42 726.57,863.14zm-4367.39 4470.13c-219.1,-24.69 -501.76,-45.06 -717.63,-50.34 -56.25,-4.01 -148.05,-2.37 -197.79,-27.56 158.07,-124.27 270.45,-125.15 357.46,-244.76 0,0 563.57,-781.23 563.57,-781.23 52.96,-72.9 165.87,-212.04 204.91,-287.57 166.48,12.06 1018.35,87.84 1104.98,132.58 -30.23,49.46 -177.91,195.5 -226.92,224.12 -61.2,76.4 -349.64,320.39 -473.09,466.32 0,0 -274.9,248.48 -274.9,248.48 -33.95,32.33 -288.89,307.07 -340.59,319.96zm204.7 -1793.35c-5.55,-58.85 -102.27,-956.78 -80.41,-1026.34 19.36,18.56 659.87,388.57 746.67,469.52 0,0 -170.45,158.16 -170.45,158.16 -64.75,35.25 -362.47,309.47 -419.61,338.25 0,0 -76.2,60.41 -76.2,60.41zm742.75 -832.9c-302.87,-192.74 -610.35,-382.98 -917.68,-575.88 0,0 -207.82,-181.09 -207.82,-181.09 -114.64,-107.01 -566.33,-446.88 -649.93,-567.6 0,0 1592.53,177.87 1592.53,177.87 45.21,79.23 158.51,969.38 182.9,1146.7zm-43.74 -1392.58c-117.09,-121.79 -307.87,-338 -433.78,-438.94 0,0 1008.48,260.11 1008.48,260.11 0,0 -267.44,83.84 -267.44,83.84 -28.66,21.45 -254.27,92.45 -307.26,94.99zm738.96 -443.23c-471.88,-117.29 -1049.83,-213.4 -1481.29,-365.7 -23.14,-419.17 -106.12,-1272.86 -73.36,-1660.47 158.62,182.94 339.69,455.11 487.67,632.29 0,0 196.63,251.77 196.63,251.77 0,0 870.35,1142.11 870.35,1142.11zm-529.83 2892.17c0,0 -646.83,-80.02 -646.83,-80.02 77.21,-103.82 483.42,-400.24 610.33,-507.93 69.51,81.86 307.82,563.17 323.7,617.31 -102.09,-7.37 -178.92,-25.43 -287.2,-29.36zm631.59 -2408.38c-23.17,113.16 -515.87,1075.15 -543.26,1185.63 -33.3,-30.39 -24.91,-21.77 -39.35,-80.83 0,0 -42.47,-297.65 -42.47,-297.65 -25.14,-176.52 -66.39,-366.98 -77.95,-544.07 -8.86,-55.91 -15.24,-40.88 182.37,-102.17 175.16,-54.3 341.16,-120.87 520.66,-160.91zm228.86 -532.56c-55.11,-33.69 -1464.92,-1855.31 -1540.4,-1995.38 139.39,40.98 1399.91,647.73 1680.56,772.62 74.03,32.92 165.54,75.18 236.97,110.58 0,0 -377.13,1112.18 -377.13,1112.18zm-3184.17 4291.44c-23.91,-19.56 -361.43,-581.26 -394.92,-666.32 128.54,55.82 571.5,365.46 718.02,469.95 0.95,-2.33 3.91,5.86 5.54,8.99 -50.2,39.58 -102.28,71.03 -164.12,91.37 0,0 -164.52,96.01 -164.52,96.01zm533.95 -375.57c-185.22,-156.73 -527.34,-351.54 -741.55,-479.83 -87.42,-49.59 -113.8,-51.36 -154.34,-118.79 0,0 1430.26,-164.19 1430.26,-164.19 -51.76,137.52 -252.47,379.26 -343.79,509.44 -57.13,81.43 -114.04,175.82 -190.58,253.37zm164.57 -988.58c-103.07,9.12 -932.08,127.83 -991.16,100.43 238.37,-216.61 513.66,-400.42 765.06,-604.3 13.7,-13.15 26.29,-21.45 39.55,-31.48 32.1,38.11 354.06,314.64 502.01,496.73 0,0 -166.2,22.41 -166.2,22.41 0,0 -149.26,16.21 -149.26,16.21zm-91.93 -1014.05c-243.66,249.49 -840.52,268.52 -1159.71,97.92 51.78,-120.82 310.1,-301.61 412.15,-457.25 30.9,-34.25 35.3,-23.78 60.69,-73.02 0,0 965.9,80.37 965.9,80.37 -67.26,115.14 -190.45,245.69 -279.03,351.98zm153.54 -649.74c-44.95,21.97 -559.57,-24.28 -687.56,-33.58 0,0 -2.54,-296.54 -2.54,-296.54 0,0 1.99,-269.41 1.99,-269.41 0,0 269.79,227.93 269.79,227.93 31.89,31.69 49.53,37.66 84.14,65.77 0,0 334.18,305.83 334.18,305.83zm878.69 -842.18c-328.11,-13.15 -687.06,-71.05 -1015.74,-108.69 -164.72,-18.88 -335.49,-45.1 -499.36,-58.25 -3.95,-130.45 119.94,-453.8 153.96,-627.97 62.75,-14.69 143.75,36.6 208.79,60.79 806.94,297.65 494.88,109.74 1152.35,734.12zm-524.54 -800.28c-151.98,-32.11 -716.96,-219.34 -794.29,-351.26 -160.13,-273.16 -568.94,-794.54 -684.37,-1081.09 491,188.91 975.75,369.18 1458.02,578.5 0,0 20.64,853.85 20.64,853.85zm-1546.97 4457.7c-46.72,-19.66 -424.81,-390.21 -444.09,-411.2 0,0 99.44,-176.63 99.44,-176.63 41.68,26.92 334.85,544.45 344.65,587.83zm-4557.51 15270.38c44.03,-45.82 1250.35,-289.25 1325.49,-266.01 -98.42,109.64 -342.57,264.83 -478.29,371.21 -171.45,134.38 -611.08,-53.41 -847.2,-105.2zm-408.14 192.67c0,0 1062.16,276.92 1062.16,276.92 3.16,227.42 -134.3,514.14 -181.62,801.55 -164.19,-156.25 -793.04,-922.62 -880.54,-1078.47zm-372.03 33.28c90.73,109.53 965.69,1128.92 988.1,1234.03 -537.29,13.88 -1136.04,-88.72 -1663.16,-65.06 71.69,-249.15 480.08,-828.31 646.74,-1136.25 0,0 28.32,-32.72 28.32,-32.72zm1861.74 49.1c14.72,-23.91 731.76,-597.43 816.66,-627.62 0,0 -34.18,827.78 -34.18,827.78 -252.86,-50.07 -527.33,-141.22 -782.48,-200.16zm-141.73 246.8c0,0 446.88,138.98 446.88,138.98 -33.56,33.88 -237.07,108.01 -283.01,122.8 0,0 -258.88,89.34 -258.88,89.34 0,0 95.01,-351.12 95.01,-351.12zm-598.86 1242.58c-0.47,105.92 -116.64,545.55 -179.35,651.96 -134.82,-32.36 -1164.64,-710.9 -1168.53,-716.14 0,0 1347.88,64.18 1347.88,64.18zm4434.87 -19854.87c-64.77,86.91 -221.54,230.26 -303.09,310.2 -70.31,68.95 -112.81,125.05 -167.6,171.4 -42.58,-277.58 -54.1,-350.87 18.85,-619.64 0,0 176.4,-589.52 176.4,-589.52 28.16,-39.63 4.29,-28.72 145.83,-26.9 49.08,0.63 100.74,0.21 149.6,-3.68 10.03,168.04 5.22,354.16 5.88,523.98 0.28,75.87 14.16,180.45 -25.87,234.16zm93.37 -1175.52c0,0 -38.67,139.36 -38.67,139.36 0,0 -76.73,-5.26 -76.73,-5.26 22.31,-40.36 80.77,-106.25 115.4,-134.1zm2699.82 13371.05c171.28,-446.91 419.05,-1056.34 558.93,-1471 0,0 230.77,-586.21 230.77,-586.21 0,0 115.17,3352.09 115.17,3352.09 -267.23,-126.64 -845.09,-618.82 -1085.8,-794.69 22.67,-121.13 130.52,-368.69 180.93,-500.19zm1854.39 -222.53c-27.39,-549.61 12.25,-1237.33 20.07,-1812.88 0,0 10.88,-429.76 10.88,-429.76 48.74,37.26 373.57,650.32 417.85,730.49 108.33,196.07 645.44,1124.55 660.85,1224.08 0,0 -212.18,66.15 -212.18,66.15 0,0 -897.47,221.92 -897.47,221.92zm3676.19 5606.79c0.04,-0.16 0.08,-0.31 0.12,-0.47 0,0 -0.12,0.47 -0.12,0.47zm-395.87 725.2c37.98,-181.56 356.72,-573.23 395.87,-725.2 0,0 -138.63,546.6 -138.63,546.6 -28.64,109.77 -148.48,161.89 -257.24,178.6zm-2094.11 -7032.01c-197.61,-197.89 -801.23,-1420.77 -1021.35,-1813.29 -49.53,-85.09 -78.69,-174.47 -129.39,-245.98 379.86,-256.47 777.54,-546.39 1170.89,-778.11 0,0 -20.15,2837.38 -20.15,2837.38zm406.75 380.52c5.03,-9.83 662.45,-921.41 773.55,-1011.34 0,0 71.31,1078.16 71.31,1078.16 -250.93,-44.2 -571.25,-29.47 -844.86,-66.82zm-140.65 -302.08c0,0 12.1,-2579.63 12.1,-2579.63 0,0 628.57,1135.76 628.57,1135.76 39.6,63.49 190.67,324.29 199.87,382.5 0,0 -241.6,305.74 -241.6,305.74 0,0 -585.94,743.59 -585.94,743.59 0,0 -13,12.04 -13,12.04zm1032.31 -1515.45c-214.69,-440.78 -698.18,-1078.32 -779.24,-1444.62 0,0 1050.99,218.34 1050.99,218.34 0,0 -271.75,1226.28 -271.75,1226.28zm-3589.64 -6415.03c-562.08,13.1 -1225.32,-70.98 -1791.37,-102 47.85,-88.97 166.15,-168.11 236.75,-240.25 0,0 720.57,-680.17 720.57,-680.17 50.14,-68.13 135.39,-123.66 177.18,-164.06 26.64,-49.96 88.1,-103.38 137.89,-132.21 54.83,124.21 499.7,1185.14 518.98,1318.69zm-3858.98 -2361.2c-1.32,75.61 -272.85,667.31 -324.61,765.25 0,0 -82.37,-4.73 -82.37,-4.73 0,0 -184.51,-24.12 -184.51,-24.12 22.88,-79.83 343.45,-653.84 416.25,-786.37 58.42,13.03 127.14,26.47 175.24,49.97zm-491.75 1014.67c4.2,52.42 -28.11,100.94 -54.17,136.5 -45.31,-43.16 -109.56,-77.8 -109.83,-171.59 0,0 164,35.09 164,35.09zm2181.48 -697.26c-106.83,-53.39 -337.72,-313.1 -458.74,-411.18 17.32,-51.08 334.36,-424.47 381.03,-456.74 0,0 77.71,867.92 77.71,867.92zm-1280.72 -97.99c-56.31,43.22 -236.19,198.63 -285.88,218.19 0,0 131.23,-319.56 131.23,-319.56 52.74,-118.9 38.49,-89.09 377.69,-76.86 0,0 -223.04,178.23 -223.04,178.23zm-4256.22 18685.04c131.02,54.06 1056.02,476.83 1114.18,521.17 -54.52,38.38 -1215,94.6 -1309.1,92.25 0,0 194.92,-613.42 194.92,-613.42zm11642.57 -8354.64c-28.9,-392.29 -140.04,-1090.75 -137,-1438.31 0.79,-91.64 70.02,-317.86 87.24,-423.83 0,0 125.22,-543.87 125.22,-543.87 36.27,107.29 63.95,415.77 86.28,551.25 39.43,239.25 248.73,1506.01 246.52,1644.01 -135.32,67.55 -271.85,154.37 -408.26,210.75z"/>
 </g>
</svg>
