%TF.GenerationSoftware,KiCad,Pcbnew,7.0.10*%
%TF.CreationDate,2024-02-22T18:12:09-06:00*%
%TF.ProjectId,Sabertoothv2,53616265-7274-46f6-9f74-6876322e6b69,rev?*%
%TF.SameCoordinates,Original*%
%TF.FileFunction,Copper,L2,Bot*%
%TF.FilePolarity,Positive*%
%FSLAX46Y46*%
G04 Gerber Fmt 4.6, Leading zero omitted, Abs format (unit mm)*
G04 Created by KiCad (PCBNEW 7.0.10) date 2024-02-22 18:12:09*
%MOMM*%
%LPD*%
G01*
G04 APERTURE LIST*
%TA.AperFunction,ComponentPad*%
%ADD10R,3.000000X3.000000*%
%TD*%
%TA.AperFunction,ComponentPad*%
%ADD11C,3.000000*%
%TD*%
%TA.AperFunction,ComponentPad*%
%ADD12R,1.700000X1.700000*%
%TD*%
%TA.AperFunction,ComponentPad*%
%ADD13O,1.700000X1.700000*%
%TD*%
%TA.AperFunction,ViaPad*%
%ADD14C,0.600000*%
%TD*%
%TA.AperFunction,Conductor*%
%ADD15C,1.000000*%
%TD*%
%TA.AperFunction,Conductor*%
%ADD16C,0.250000*%
%TD*%
%TA.AperFunction,Conductor*%
%ADD17C,0.500000*%
%TD*%
%TA.AperFunction,Conductor*%
%ADD18C,0.200000*%
%TD*%
G04 APERTURE END LIST*
D10*
X50800000Y-30480000D03*
D11*
X55880000Y-30480000D03*
X60960000Y-30480000D03*
X66040000Y-30480000D03*
D10*
X27940000Y-30480000D03*
D11*
X33020000Y-30480000D03*
X38100000Y-30480000D03*
X43180000Y-30480000D03*
D12*
X68580000Y-64438000D03*
D13*
X66040000Y-64438000D03*
X63500000Y-64438000D03*
X60960000Y-64438000D03*
D12*
X68580000Y-69088000D03*
D13*
X66040000Y-69088000D03*
X63500000Y-69088000D03*
X60960000Y-69088000D03*
D14*
X60325000Y-59690000D03*
X35052000Y-59944000D03*
X46736000Y-40386000D03*
X35052000Y-60706000D03*
X35052000Y-59182000D03*
X36068000Y-53848000D03*
X60960000Y-59690000D03*
X34798000Y-50800000D03*
X61595000Y-59055000D03*
X60960000Y-59055000D03*
X45974000Y-52832000D03*
X34036000Y-50800000D03*
X45974000Y-41148000D03*
X61595000Y-59690000D03*
X35052000Y-58420000D03*
X45974000Y-40386000D03*
X41910000Y-40894000D03*
X60325000Y-60325000D03*
X34798000Y-50038000D03*
X60960000Y-60325000D03*
X46736000Y-41148000D03*
X36235364Y-39624000D03*
X34036000Y-50038000D03*
X35498003Y-50038000D03*
X41910000Y-39370000D03*
X35560000Y-50800000D03*
X60325000Y-59055000D03*
X41910000Y-40132000D03*
X46355000Y-48260000D03*
X41656000Y-46355000D03*
X41910000Y-60706000D03*
X46736000Y-59131200D03*
X62230000Y-44450000D03*
X53340000Y-43180000D03*
X48260000Y-39624000D03*
X48260000Y-48260000D03*
X57404000Y-44196000D03*
X67310000Y-52070000D03*
X37465000Y-53340000D03*
X31750000Y-51435000D03*
X29210000Y-40640000D03*
X46990000Y-33560000D03*
X48260000Y-50800000D03*
X53340000Y-49784000D03*
X37465000Y-39370000D03*
X31750000Y-50165000D03*
X41765000Y-55735000D03*
X50800000Y-54610000D03*
X50800000Y-53975000D03*
X50165000Y-53975000D03*
X46355000Y-54610000D03*
X50165000Y-54610000D03*
X30545000Y-37592000D03*
X33710000Y-39370000D03*
X51905500Y-57620500D03*
X58044760Y-59314760D03*
X29718000Y-39370000D03*
D15*
X46355000Y-48260000D02*
X45085000Y-46990000D01*
X42291000Y-46990000D02*
X41656000Y-46355000D01*
X45085000Y-46990000D02*
X42291000Y-46990000D01*
X41910000Y-60706000D02*
X45110400Y-60706000D01*
X46685200Y-59131200D02*
X46736000Y-59131200D01*
X45110400Y-60706000D02*
X46685200Y-59131200D01*
X46736000Y-59080400D02*
X46685200Y-59131200D01*
X46736000Y-59131200D02*
X46736000Y-59080400D01*
D16*
X69755000Y-51975000D02*
X62230000Y-44450000D01*
X69755000Y-67913000D02*
X69755000Y-51975000D01*
X68580000Y-69088000D02*
X69755000Y-67913000D01*
X68580000Y-51819720D02*
X59940280Y-43180000D01*
X66280000Y-69088000D02*
X67405000Y-67963000D01*
X67405000Y-63263000D02*
X68580000Y-62088000D01*
X66040000Y-69088000D02*
X66280000Y-69088000D01*
X67405000Y-67963000D02*
X67405000Y-63263000D01*
D15*
X51816000Y-43180000D02*
X53340000Y-43180000D01*
X48260000Y-39624000D02*
X51816000Y-43180000D01*
D16*
X59940280Y-43180000D02*
X53340000Y-43180000D01*
X68580000Y-62088000D02*
X68580000Y-51819720D01*
X67935000Y-60003000D02*
X67935000Y-51811116D01*
X67935000Y-51811116D02*
X60319884Y-44196000D01*
D15*
X53848000Y-48260000D02*
X48260000Y-48260000D01*
D16*
X60319884Y-44196000D02*
X57404000Y-44196000D01*
D15*
X57404000Y-44704000D02*
X53848000Y-48260000D01*
X57404000Y-44196000D02*
X57404000Y-44704000D01*
D16*
X63500000Y-64438000D02*
X67935000Y-60003000D01*
X37465000Y-53340000D02*
X36195000Y-52070000D01*
X29210000Y-40640000D02*
X29458884Y-40640000D01*
X36195000Y-52065000D02*
X35565000Y-52065000D01*
X67305000Y-52065000D02*
X36195000Y-52065000D01*
X67310000Y-52070000D02*
X67305000Y-52065000D01*
X32380000Y-52065000D02*
X35565000Y-52065000D01*
X36195000Y-52070000D02*
X36195000Y-52065000D01*
X29458884Y-40640000D02*
X36538884Y-33560000D01*
X31750000Y-51435000D02*
X32380000Y-52065000D01*
X36538884Y-33560000D02*
X46990000Y-33560000D01*
D15*
X48260000Y-50800000D02*
X52324000Y-50800000D01*
X52324000Y-50800000D02*
X53340000Y-49784000D01*
D16*
X36830000Y-45085000D02*
X31750000Y-50165000D01*
X36830000Y-40005000D02*
X36830000Y-45085000D01*
X37465000Y-39370000D02*
X36830000Y-40005000D01*
D15*
X50165000Y-54610000D02*
X50800000Y-54610000D01*
X50800000Y-53975000D02*
X50165000Y-53975000D01*
X42890000Y-54610000D02*
X46355000Y-54610000D01*
X50800000Y-53975000D02*
X50800000Y-53975000D01*
X41765000Y-55735000D02*
X42890000Y-54610000D01*
X50800000Y-54610000D02*
X46355000Y-54610000D01*
X50165000Y-54610000D02*
X50165000Y-54610000D01*
X50165000Y-53975000D02*
X50165000Y-54610000D01*
D16*
X30545000Y-37592000D02*
X37657000Y-30480000D01*
X37657000Y-30480000D02*
X38100000Y-30480000D01*
D17*
X46990000Y-36135000D02*
X36945000Y-36135000D01*
X55880000Y-30480000D02*
X50225000Y-36135000D01*
X50225000Y-36135000D02*
X46990000Y-36135000D01*
X36945000Y-36135000D02*
X33710000Y-39370000D01*
D16*
X57150000Y-65405000D02*
X60833000Y-69088000D01*
X51905500Y-57620500D02*
X57150000Y-62865000D01*
X57150000Y-62865000D02*
X57150000Y-65405000D01*
X60833000Y-69088000D02*
X60960000Y-69088000D01*
X58044760Y-59314760D02*
X58044760Y-63632760D01*
X58044760Y-63632760D02*
X63500000Y-69088000D01*
D18*
X36362843Y-33135000D02*
X40525000Y-33135000D01*
X40525000Y-33135000D02*
X43180000Y-30480000D01*
X29718000Y-39370000D02*
X30127843Y-39370000D01*
X30127843Y-39370000D02*
X36362843Y-33135000D01*
%TA.AperFunction,Conductor*%
G36*
X71832539Y-24650185D02*
G01*
X71878294Y-24702989D01*
X71889500Y-24754500D01*
X71889500Y-71765500D01*
X71869815Y-71832539D01*
X71817011Y-71878294D01*
X71765500Y-71889500D01*
X24754500Y-71889500D01*
X24687461Y-71869815D01*
X24641706Y-71817011D01*
X24630500Y-71765500D01*
X24630500Y-60756936D01*
X40905631Y-60756936D01*
X40936442Y-60958063D01*
X40936445Y-60958075D01*
X41007111Y-61148881D01*
X41007115Y-61148888D01*
X41114745Y-61321567D01*
X41114747Y-61321569D01*
X41114748Y-61321571D01*
X41254941Y-61469053D01*
X41383344Y-61558424D01*
X41421949Y-61585294D01*
X41421950Y-61585294D01*
X41421951Y-61585295D01*
X41608942Y-61665540D01*
X41808259Y-61706500D01*
X45096121Y-61706500D01*
X45099263Y-61706540D01*
X45186758Y-61708757D01*
X45186758Y-61708756D01*
X45186763Y-61708757D01*
X45244825Y-61698349D01*
X45254154Y-61697041D01*
X45312838Y-61691074D01*
X45341871Y-61681964D01*
X45357100Y-61678226D01*
X45387053Y-61672858D01*
X45387057Y-61672856D01*
X45387059Y-61672856D01*
X45441823Y-61650980D01*
X45450692Y-61647821D01*
X45506988Y-61630159D01*
X45533600Y-61615387D01*
X45547762Y-61608662D01*
X45576017Y-61597377D01*
X45625279Y-61564909D01*
X45633310Y-61560043D01*
X45684902Y-61531409D01*
X45684909Y-61531402D01*
X45684912Y-61531401D01*
X45707983Y-61511594D01*
X45720525Y-61502137D01*
X45745919Y-61485402D01*
X45787637Y-61443682D01*
X45794522Y-61437301D01*
X45839295Y-61398866D01*
X45857920Y-61374802D01*
X45868280Y-61363039D01*
X47217557Y-60013762D01*
X47239630Y-59996223D01*
X47241067Y-59995327D01*
X47246450Y-59992159D01*
X47310502Y-59956609D01*
X47322724Y-59946115D01*
X47337898Y-59934973D01*
X47351571Y-59926452D01*
X47404690Y-59875957D01*
X47409294Y-59871797D01*
X47464895Y-59824066D01*
X47474750Y-59811333D01*
X47487374Y-59797361D01*
X47491810Y-59793142D01*
X47499053Y-59786259D01*
X47540926Y-59726095D01*
X47544577Y-59721123D01*
X47589448Y-59663158D01*
X47596549Y-59648679D01*
X47606092Y-59632469D01*
X47615295Y-59619249D01*
X47644186Y-59551922D01*
X47646791Y-59546254D01*
X47679060Y-59480471D01*
X47683098Y-59464872D01*
X47689191Y-59447051D01*
X47695538Y-59432262D01*
X47695540Y-59432258D01*
X47710288Y-59360487D01*
X47711692Y-59354431D01*
X47730063Y-59283485D01*
X47730879Y-59267393D01*
X47733258Y-59248716D01*
X47736500Y-59232942D01*
X47736500Y-59159699D01*
X47736659Y-59153418D01*
X47737567Y-59135510D01*
X47740369Y-59080264D01*
X47740368Y-59080260D01*
X47740393Y-59079778D01*
X47740580Y-59064851D01*
X47741337Y-59054924D01*
X47730284Y-58968139D01*
X47729927Y-58965024D01*
X47721074Y-58877963D01*
X47721073Y-58877960D01*
X47720545Y-58876275D01*
X47715852Y-58854816D01*
X47715630Y-58853074D01*
X47715630Y-58853072D01*
X47687305Y-58770209D01*
X47686359Y-58767319D01*
X47660159Y-58683812D01*
X47659307Y-58682277D01*
X47650383Y-58662188D01*
X47649816Y-58660528D01*
X47605406Y-58585088D01*
X47603905Y-58582463D01*
X47561409Y-58505898D01*
X47560253Y-58504551D01*
X47547483Y-58486690D01*
X47546590Y-58485173D01*
X47504185Y-58438237D01*
X47487943Y-58420259D01*
X47485867Y-58417903D01*
X47482537Y-58414024D01*
X47428866Y-58351505D01*
X47427470Y-58350424D01*
X47411363Y-58335498D01*
X47410177Y-58334185D01*
X47339685Y-58282423D01*
X47337175Y-58280530D01*
X47267963Y-58226955D01*
X47267957Y-58226951D01*
X47266361Y-58226168D01*
X47247586Y-58214793D01*
X47246164Y-58213749D01*
X47246165Y-58213749D01*
X47166683Y-58177229D01*
X47163848Y-58175882D01*
X47085275Y-58137341D01*
X47085265Y-58137337D01*
X47083548Y-58136893D01*
X47062874Y-58129533D01*
X47061269Y-58128795D01*
X47061262Y-58128793D01*
X46976053Y-58109019D01*
X46973006Y-58108271D01*
X46888283Y-58086336D01*
X46886507Y-58086246D01*
X46864783Y-58083199D01*
X46863052Y-58082797D01*
X46775580Y-58080581D01*
X46772441Y-58080462D01*
X46685065Y-58076031D01*
X46685064Y-58076031D01*
X46685062Y-58076031D01*
X46685055Y-58076032D01*
X46683304Y-58076300D01*
X46661422Y-58077688D01*
X46659641Y-58077643D01*
X46659631Y-58077643D01*
X46573499Y-58093080D01*
X46570404Y-58093595D01*
X46483927Y-58106844D01*
X46483920Y-58106846D01*
X46482257Y-58107462D01*
X46461093Y-58113228D01*
X46459360Y-58113538D01*
X46459345Y-58113542D01*
X46378104Y-58145993D01*
X46375176Y-58147120D01*
X46293114Y-58177513D01*
X46293108Y-58177516D01*
X46291599Y-58178457D01*
X46272032Y-58188364D01*
X46270381Y-58189023D01*
X46197332Y-58237166D01*
X46194710Y-58238847D01*
X46176311Y-58250316D01*
X46120425Y-58285150D01*
X46120421Y-58285153D01*
X46119136Y-58286375D01*
X46101963Y-58300020D01*
X46100488Y-58300991D01*
X46038637Y-58362842D01*
X46036387Y-58365036D01*
X45989275Y-58409818D01*
X45984619Y-58414024D01*
X45956306Y-58438332D01*
X45937680Y-58462394D01*
X45927307Y-58474171D01*
X44732299Y-59669181D01*
X44670976Y-59702666D01*
X44644618Y-59705500D01*
X41859257Y-59705500D01*
X41707560Y-59720925D01*
X41513420Y-59781837D01*
X41513405Y-59781844D01*
X41335500Y-59880589D01*
X41335495Y-59880592D01*
X41181106Y-60013132D01*
X41181104Y-60013134D01*
X41056554Y-60174037D01*
X41056553Y-60174040D01*
X40966940Y-60356728D01*
X40915937Y-60553714D01*
X40905631Y-60756936D01*
X24630500Y-60756936D01*
X24630500Y-55760477D01*
X40759662Y-55760477D01*
X40785368Y-55962321D01*
X40785370Y-55962329D01*
X40851183Y-56154870D01*
X40851189Y-56154882D01*
X40954406Y-56330221D01*
X40954411Y-56330228D01*
X41090820Y-56481212D01*
X41254828Y-56601646D01*
X41254832Y-56601648D01*
X41254833Y-56601649D01*
X41439732Y-56686605D01*
X41505456Y-56701857D01*
X41637945Y-56732603D01*
X41841358Y-56737757D01*
X41841358Y-56737756D01*
X41841363Y-56737757D01*
X42020853Y-56705586D01*
X42041648Y-56701859D01*
X42041648Y-56701858D01*
X42041653Y-56701858D01*
X42230617Y-56626377D01*
X42400519Y-56514402D01*
X43268102Y-55646819D01*
X43329425Y-55613334D01*
X43355783Y-55610500D01*
X46253259Y-55610500D01*
X50063259Y-55610500D01*
X50136500Y-55610500D01*
X50142778Y-55610658D01*
X50215936Y-55614369D01*
X50231857Y-55611930D01*
X50250633Y-55610500D01*
X50850743Y-55610500D01*
X51002439Y-55595074D01*
X51196579Y-55534162D01*
X51196580Y-55534161D01*
X51196588Y-55534159D01*
X51374502Y-55435409D01*
X51528895Y-55302866D01*
X51653448Y-55141958D01*
X51743060Y-54959271D01*
X51794063Y-54762285D01*
X51804369Y-54559064D01*
X51773556Y-54357929D01*
X51763990Y-54332100D01*
X51759166Y-54262397D01*
X51760223Y-54257979D01*
X51794063Y-54127285D01*
X51804369Y-53924064D01*
X51773556Y-53722929D01*
X51702886Y-53532113D01*
X51595252Y-53359429D01*
X51455059Y-53211947D01*
X51314392Y-53114040D01*
X51288050Y-53095705D01*
X51101056Y-53015459D01*
X50901741Y-52974500D01*
X50193500Y-52974500D01*
X50187221Y-52974341D01*
X50156787Y-52972797D01*
X50114065Y-52970631D01*
X50114058Y-52970631D01*
X50041676Y-52981719D01*
X50035448Y-52982513D01*
X49962566Y-52989925D01*
X49962557Y-52989927D01*
X49947187Y-52994749D01*
X49928858Y-52999003D01*
X49912929Y-53001444D01*
X49912926Y-53001445D01*
X49844245Y-53026880D01*
X49838305Y-53028911D01*
X49768412Y-53050840D01*
X49754322Y-53058661D01*
X49737220Y-53066518D01*
X49722118Y-53072111D01*
X49722108Y-53072116D01*
X49659959Y-53110854D01*
X49654546Y-53114040D01*
X49590506Y-53149585D01*
X49590499Y-53149590D01*
X49578278Y-53160081D01*
X49563114Y-53171216D01*
X49549430Y-53179746D01*
X49549427Y-53179749D01*
X49496338Y-53230213D01*
X49491679Y-53234422D01*
X49436109Y-53282129D01*
X49436102Y-53282136D01*
X49426243Y-53294872D01*
X49413631Y-53308832D01*
X49401949Y-53319938D01*
X49401948Y-53319939D01*
X49360111Y-53380046D01*
X49356396Y-53385106D01*
X49311550Y-53443043D01*
X49304452Y-53457513D01*
X49294907Y-53473728D01*
X49285706Y-53486948D01*
X49285704Y-53486952D01*
X49265341Y-53534402D01*
X49220813Y-53588245D01*
X49154245Y-53609467D01*
X49151391Y-53609500D01*
X42904238Y-53609500D01*
X42901098Y-53609460D01*
X42813637Y-53607244D01*
X42813625Y-53607245D01*
X42755589Y-53617646D01*
X42746265Y-53618954D01*
X42687563Y-53624925D01*
X42687554Y-53624927D01*
X42658528Y-53634034D01*
X42643288Y-53637775D01*
X42613349Y-53643141D01*
X42558567Y-53665022D01*
X42549698Y-53668179D01*
X42493414Y-53685840D01*
X42493410Y-53685842D01*
X42466811Y-53700605D01*
X42452638Y-53707336D01*
X42424382Y-53718623D01*
X42424378Y-53718625D01*
X42375122Y-53751086D01*
X42367069Y-53755965D01*
X42315501Y-53784588D01*
X42292413Y-53804408D01*
X42279887Y-53813852D01*
X42254485Y-53830594D01*
X42254478Y-53830600D01*
X42212774Y-53872303D01*
X42205869Y-53878703D01*
X42161104Y-53917134D01*
X42142479Y-53941195D01*
X42132107Y-53952970D01*
X41021662Y-55063417D01*
X41021660Y-55063420D01*
X40925302Y-55181593D01*
X40861954Y-55302867D01*
X40831090Y-55361953D01*
X40775112Y-55557584D01*
X40759662Y-55760474D01*
X40759662Y-55760477D01*
X24630500Y-55760477D01*
X24630500Y-51435003D01*
X30944435Y-51435003D01*
X30964630Y-51614249D01*
X30964631Y-51614254D01*
X31024211Y-51784523D01*
X31045377Y-51818208D01*
X31120184Y-51937262D01*
X31247738Y-52064816D01*
X31400478Y-52160789D01*
X31570745Y-52220368D01*
X31617823Y-52225672D01*
X31682236Y-52252737D01*
X31691621Y-52261211D01*
X31879194Y-52448784D01*
X31889019Y-52461048D01*
X31889240Y-52460866D01*
X31894210Y-52466874D01*
X31943239Y-52512915D01*
X31946036Y-52515626D01*
X31965530Y-52535120D01*
X31968695Y-52537575D01*
X31977571Y-52545156D01*
X32009418Y-52575062D01*
X32009422Y-52575064D01*
X32026973Y-52584713D01*
X32043231Y-52595392D01*
X32059064Y-52607674D01*
X32094410Y-52622968D01*
X32099155Y-52625022D01*
X32109635Y-52630155D01*
X32147908Y-52651197D01*
X32167312Y-52656179D01*
X32185710Y-52662478D01*
X32204105Y-52670438D01*
X32247254Y-52677271D01*
X32258680Y-52679638D01*
X32300981Y-52690500D01*
X32321016Y-52690500D01*
X32340413Y-52692026D01*
X32360196Y-52695160D01*
X32403675Y-52691050D01*
X32415344Y-52690500D01*
X35485981Y-52690500D01*
X35879548Y-52690500D01*
X35946587Y-52710185D01*
X35967229Y-52726819D01*
X36638787Y-53398378D01*
X36672272Y-53459701D01*
X36674326Y-53472174D01*
X36679630Y-53519249D01*
X36739210Y-53689521D01*
X36827855Y-53830598D01*
X36835184Y-53842262D01*
X36962738Y-53969816D01*
X37115478Y-54065789D01*
X37285745Y-54125368D01*
X37285750Y-54125369D01*
X37464996Y-54145565D01*
X37465000Y-54145565D01*
X37465004Y-54145565D01*
X37644249Y-54125369D01*
X37644252Y-54125368D01*
X37644255Y-54125368D01*
X37814522Y-54065789D01*
X37967262Y-53969816D01*
X38094816Y-53842262D01*
X38190789Y-53689522D01*
X38250368Y-53519255D01*
X38255673Y-53472174D01*
X38270565Y-53340003D01*
X38270565Y-53339996D01*
X38250369Y-53160750D01*
X38250368Y-53160745D01*
X38190788Y-52990475D01*
X38121668Y-52880473D01*
X38102667Y-52813236D01*
X38123034Y-52746401D01*
X38176302Y-52701186D01*
X38226661Y-52690500D01*
X66757188Y-52690500D01*
X66823159Y-52709505D01*
X66960478Y-52795789D01*
X67130745Y-52855368D01*
X67199384Y-52863101D01*
X67263796Y-52890166D01*
X67303352Y-52947760D01*
X67309500Y-52986321D01*
X67309500Y-59692546D01*
X67289815Y-59759585D01*
X67273181Y-59780227D01*
X63955646Y-63097761D01*
X63894323Y-63131246D01*
X63835873Y-63129855D01*
X63735408Y-63102937D01*
X63500001Y-63082341D01*
X63499999Y-63082341D01*
X63264596Y-63102936D01*
X63264586Y-63102938D01*
X63036344Y-63164094D01*
X63036335Y-63164098D01*
X62822171Y-63263964D01*
X62822169Y-63263965D01*
X62628597Y-63399505D01*
X62461505Y-63566597D01*
X62331575Y-63752158D01*
X62276998Y-63795783D01*
X62207500Y-63802977D01*
X62145145Y-63771454D01*
X62128425Y-63752158D01*
X61998494Y-63566597D01*
X61831402Y-63399506D01*
X61831395Y-63399501D01*
X61637834Y-63263967D01*
X61637830Y-63263965D01*
X61553905Y-63224830D01*
X61423663Y-63164097D01*
X61423659Y-63164096D01*
X61423655Y-63164094D01*
X61195413Y-63102938D01*
X61195403Y-63102936D01*
X60960001Y-63082341D01*
X60959999Y-63082341D01*
X60724596Y-63102936D01*
X60724586Y-63102938D01*
X60496344Y-63164094D01*
X60496335Y-63164098D01*
X60282171Y-63263964D01*
X60282169Y-63263965D01*
X60088597Y-63399505D01*
X59921505Y-63566597D01*
X59785965Y-63760169D01*
X59785964Y-63760171D01*
X59686098Y-63974335D01*
X59686094Y-63974344D01*
X59653949Y-64094314D01*
X59617584Y-64153975D01*
X59554737Y-64184504D01*
X59485361Y-64176209D01*
X59446493Y-64149902D01*
X58706579Y-63409988D01*
X58673094Y-63348665D01*
X58670260Y-63322307D01*
X58670260Y-59859614D01*
X58689267Y-59793641D01*
X58693906Y-59786259D01*
X58770549Y-59664282D01*
X58830128Y-59494015D01*
X58831654Y-59480470D01*
X58850325Y-59314763D01*
X58850325Y-59314756D01*
X58830129Y-59135510D01*
X58830128Y-59135505D01*
X58770548Y-58965236D01*
X58715710Y-58877962D01*
X58674576Y-58812498D01*
X58547022Y-58684944D01*
X58545220Y-58683812D01*
X58394283Y-58588971D01*
X58224014Y-58529391D01*
X58224009Y-58529390D01*
X58044764Y-58509195D01*
X58044756Y-58509195D01*
X57865510Y-58529390D01*
X57865505Y-58529391D01*
X57695236Y-58588971D01*
X57542497Y-58684944D01*
X57414944Y-58812497D01*
X57318971Y-58965236D01*
X57259391Y-59135505D01*
X57259390Y-59135510D01*
X57239195Y-59314756D01*
X57239195Y-59314763D01*
X57259390Y-59494009D01*
X57259391Y-59494014D01*
X57318971Y-59664284D01*
X57400253Y-59793641D01*
X57419260Y-59859614D01*
X57419260Y-61950307D01*
X57399575Y-62017346D01*
X57346771Y-62063101D01*
X57277613Y-62073045D01*
X57214057Y-62044020D01*
X57207579Y-62037988D01*
X52731711Y-57562120D01*
X52698226Y-57500797D01*
X52696173Y-57488336D01*
X52690868Y-57441245D01*
X52631289Y-57270978D01*
X52535316Y-57118238D01*
X52407762Y-56990684D01*
X52255023Y-56894711D01*
X52084754Y-56835131D01*
X52084749Y-56835130D01*
X51905504Y-56814935D01*
X51905496Y-56814935D01*
X51726250Y-56835130D01*
X51726245Y-56835131D01*
X51555976Y-56894711D01*
X51403237Y-56990684D01*
X51275684Y-57118237D01*
X51179711Y-57270976D01*
X51120131Y-57441245D01*
X51120130Y-57441250D01*
X51099935Y-57620496D01*
X51099935Y-57620503D01*
X51120130Y-57799749D01*
X51120131Y-57799754D01*
X51179711Y-57970023D01*
X51269693Y-58113228D01*
X51275684Y-58122762D01*
X51403238Y-58250316D01*
X51452840Y-58281483D01*
X51536714Y-58334185D01*
X51555978Y-58346289D01*
X51726245Y-58405868D01*
X51773323Y-58411172D01*
X51837736Y-58438237D01*
X51847121Y-58446711D01*
X56488181Y-63087771D01*
X56521666Y-63149094D01*
X56524500Y-63175452D01*
X56524500Y-65322255D01*
X56522775Y-65337872D01*
X56523061Y-65337899D01*
X56522326Y-65345665D01*
X56524439Y-65412872D01*
X56524500Y-65416767D01*
X56524500Y-65444357D01*
X56525003Y-65448335D01*
X56525918Y-65459967D01*
X56527290Y-65503624D01*
X56527291Y-65503627D01*
X56532880Y-65522867D01*
X56536824Y-65541911D01*
X56539336Y-65561792D01*
X56555414Y-65602403D01*
X56559197Y-65613452D01*
X56571381Y-65655388D01*
X56581580Y-65672634D01*
X56590138Y-65690103D01*
X56597514Y-65708732D01*
X56623181Y-65744060D01*
X56629593Y-65753821D01*
X56651828Y-65791417D01*
X56651833Y-65791424D01*
X56665990Y-65805580D01*
X56678627Y-65820375D01*
X56681261Y-65824000D01*
X56690405Y-65836586D01*
X56690406Y-65836587D01*
X56724057Y-65864425D01*
X56732698Y-65872288D01*
X59592924Y-68732514D01*
X59626409Y-68793837D01*
X59625143Y-68847128D01*
X59625878Y-68847258D01*
X59625025Y-68852094D01*
X59625021Y-68852277D01*
X59624939Y-68852581D01*
X59624936Y-68852596D01*
X59604341Y-69087999D01*
X59604341Y-69088000D01*
X59624936Y-69323403D01*
X59624938Y-69323413D01*
X59686094Y-69551655D01*
X59686096Y-69551659D01*
X59686097Y-69551663D01*
X59690000Y-69560032D01*
X59785965Y-69765830D01*
X59785967Y-69765834D01*
X59894281Y-69920521D01*
X59921505Y-69959401D01*
X60088599Y-70126495D01*
X60185384Y-70194265D01*
X60282165Y-70262032D01*
X60282167Y-70262033D01*
X60282170Y-70262035D01*
X60496337Y-70361903D01*
X60724592Y-70423063D01*
X60901034Y-70438500D01*
X60959999Y-70443659D01*
X60960000Y-70443659D01*
X60960001Y-70443659D01*
X61018966Y-70438500D01*
X61195408Y-70423063D01*
X61423663Y-70361903D01*
X61637830Y-70262035D01*
X61831401Y-70126495D01*
X61998495Y-69959401D01*
X62128425Y-69773842D01*
X62183002Y-69730217D01*
X62252500Y-69723023D01*
X62314855Y-69754546D01*
X62331575Y-69773842D01*
X62461500Y-69959395D01*
X62461505Y-69959401D01*
X62628599Y-70126495D01*
X62725384Y-70194265D01*
X62822165Y-70262032D01*
X62822167Y-70262033D01*
X62822170Y-70262035D01*
X63036337Y-70361903D01*
X63264592Y-70423063D01*
X63441034Y-70438500D01*
X63499999Y-70443659D01*
X63500000Y-70443659D01*
X63500001Y-70443659D01*
X63558966Y-70438500D01*
X63735408Y-70423063D01*
X63963663Y-70361903D01*
X64177830Y-70262035D01*
X64371401Y-70126495D01*
X64538495Y-69959401D01*
X64668425Y-69773842D01*
X64723002Y-69730217D01*
X64792500Y-69723023D01*
X64854855Y-69754546D01*
X64871575Y-69773842D01*
X65001500Y-69959395D01*
X65001505Y-69959401D01*
X65168599Y-70126495D01*
X65265384Y-70194265D01*
X65362165Y-70262032D01*
X65362167Y-70262033D01*
X65362170Y-70262035D01*
X65576337Y-70361903D01*
X65804592Y-70423063D01*
X65981034Y-70438500D01*
X66039999Y-70443659D01*
X66040000Y-70443659D01*
X66040001Y-70443659D01*
X66098966Y-70438500D01*
X66275408Y-70423063D01*
X66503663Y-70361903D01*
X66717830Y-70262035D01*
X66911401Y-70126495D01*
X67033329Y-70004566D01*
X67094648Y-69971084D01*
X67164340Y-69976068D01*
X67220274Y-70017939D01*
X67237189Y-70048917D01*
X67286202Y-70180328D01*
X67286206Y-70180335D01*
X67372452Y-70295544D01*
X67372455Y-70295547D01*
X67487664Y-70381793D01*
X67487671Y-70381797D01*
X67622517Y-70432091D01*
X67622516Y-70432091D01*
X67629444Y-70432835D01*
X67682127Y-70438500D01*
X69477872Y-70438499D01*
X69537483Y-70432091D01*
X69672331Y-70381796D01*
X69787546Y-70295546D01*
X69873796Y-70180331D01*
X69924091Y-70045483D01*
X69930500Y-69985873D01*
X69930499Y-68673451D01*
X69950184Y-68606413D01*
X69966813Y-68585776D01*
X70138788Y-68413801D01*
X70151042Y-68403986D01*
X70150859Y-68403764D01*
X70156868Y-68398791D01*
X70156877Y-68398786D01*
X70202949Y-68349722D01*
X70205566Y-68347023D01*
X70225120Y-68327471D01*
X70227576Y-68324303D01*
X70235156Y-68315427D01*
X70265062Y-68283582D01*
X70274715Y-68266020D01*
X70285389Y-68249770D01*
X70297673Y-68233936D01*
X70315019Y-68193850D01*
X70320157Y-68183362D01*
X70341196Y-68145093D01*
X70341197Y-68145092D01*
X70346177Y-68125691D01*
X70352478Y-68107288D01*
X70360438Y-68088896D01*
X70367272Y-68045741D01*
X70369635Y-68034331D01*
X70380500Y-67992019D01*
X70380500Y-67971983D01*
X70382027Y-67952582D01*
X70385160Y-67932804D01*
X70381050Y-67889324D01*
X70380500Y-67877655D01*
X70380500Y-52057738D01*
X70382224Y-52042124D01*
X70381938Y-52042097D01*
X70382672Y-52034334D01*
X70380561Y-51967144D01*
X70380500Y-51963250D01*
X70380500Y-51935651D01*
X70380500Y-51935650D01*
X70379997Y-51931670D01*
X70379080Y-51920021D01*
X70377709Y-51876373D01*
X70372122Y-51857144D01*
X70368174Y-51838084D01*
X70365663Y-51818204D01*
X70349588Y-51777604D01*
X70345804Y-51766552D01*
X70333618Y-51724609D01*
X70333616Y-51724606D01*
X70323423Y-51707371D01*
X70314861Y-51689894D01*
X70307487Y-51671269D01*
X70281816Y-51635937D01*
X70275405Y-51626177D01*
X70253170Y-51588580D01*
X70253168Y-51588578D01*
X70253165Y-51588574D01*
X70239006Y-51574415D01*
X70226368Y-51559619D01*
X70214594Y-51543413D01*
X70180940Y-51515572D01*
X70172299Y-51507709D01*
X63056211Y-44391620D01*
X63022726Y-44330297D01*
X63020673Y-44317836D01*
X63015368Y-44270745D01*
X62955789Y-44100478D01*
X62951881Y-44094259D01*
X62881612Y-43982426D01*
X62859816Y-43947738D01*
X62732262Y-43820184D01*
X62708893Y-43805500D01*
X62579523Y-43724211D01*
X62409254Y-43664631D01*
X62409249Y-43664630D01*
X62230004Y-43644435D01*
X62229996Y-43644435D01*
X62050750Y-43664630D01*
X62050745Y-43664631D01*
X61880476Y-43724211D01*
X61727737Y-43820184D01*
X61684076Y-43863845D01*
X61622753Y-43897329D01*
X61553061Y-43892344D01*
X61508715Y-43863844D01*
X60441083Y-42796212D01*
X60431260Y-42783950D01*
X60431039Y-42784134D01*
X60426066Y-42778122D01*
X60377056Y-42732099D01*
X60374257Y-42729386D01*
X60354757Y-42709885D01*
X60354751Y-42709880D01*
X60351566Y-42707409D01*
X60342714Y-42699848D01*
X60310862Y-42669938D01*
X60310860Y-42669936D01*
X60310857Y-42669935D01*
X60293309Y-42660288D01*
X60277043Y-42649604D01*
X60261212Y-42637324D01*
X60221129Y-42619978D01*
X60210643Y-42614841D01*
X60172374Y-42593803D01*
X60172372Y-42593802D01*
X60152973Y-42588822D01*
X60134561Y-42582518D01*
X60116178Y-42574562D01*
X60116172Y-42574560D01*
X60073040Y-42567729D01*
X60061602Y-42565361D01*
X60019300Y-42554500D01*
X60019299Y-42554500D01*
X59999264Y-42554500D01*
X59979866Y-42552973D01*
X59972442Y-42551797D01*
X59960085Y-42549840D01*
X59960084Y-42549840D01*
X59916605Y-42553950D01*
X59904936Y-42554500D01*
X54179026Y-42554500D01*
X54111987Y-42534815D01*
X54089152Y-42515932D01*
X53995061Y-42416949D01*
X53995060Y-42416948D01*
X53995059Y-42416947D01*
X53896587Y-42348409D01*
X53828050Y-42300705D01*
X53641056Y-42220459D01*
X53441741Y-42179500D01*
X52281783Y-42179500D01*
X52214744Y-42159815D01*
X52194102Y-42143181D01*
X48931582Y-38880662D01*
X48915733Y-38867738D01*
X48813407Y-38784302D01*
X48633049Y-38690091D01*
X48437418Y-38634113D01*
X48437417Y-38634112D01*
X48437416Y-38634112D01*
X48234525Y-38618662D01*
X48234522Y-38618662D01*
X48032678Y-38644368D01*
X48032670Y-38644370D01*
X47840129Y-38710183D01*
X47840117Y-38710189D01*
X47664778Y-38813406D01*
X47664771Y-38813411D01*
X47513787Y-38949820D01*
X47513787Y-38949821D01*
X47393353Y-39113828D01*
X47393349Y-39113835D01*
X47308397Y-39298725D01*
X47308393Y-39298737D01*
X47262396Y-39496945D01*
X47257242Y-39700358D01*
X47293140Y-39900648D01*
X47293142Y-39900654D01*
X47368623Y-40089616D01*
X47368629Y-40089628D01*
X47480596Y-40259517D01*
X47480599Y-40259521D01*
X51098450Y-43877371D01*
X51100643Y-43879620D01*
X51160939Y-43943051D01*
X51160945Y-43943056D01*
X51209361Y-43976755D01*
X51216874Y-43982419D01*
X51262592Y-44019697D01*
X51262595Y-44019698D01*
X51262597Y-44019700D01*
X51289556Y-44033782D01*
X51302981Y-44041915D01*
X51327951Y-44059295D01*
X51382165Y-44082560D01*
X51390654Y-44086591D01*
X51442951Y-44113909D01*
X51464998Y-44120216D01*
X51472184Y-44122273D01*
X51486976Y-44127539D01*
X51514939Y-44139539D01*
X51514942Y-44139540D01*
X51572727Y-44151414D01*
X51581869Y-44153657D01*
X51638582Y-44169886D01*
X51668918Y-44172196D01*
X51684457Y-44174376D01*
X51714255Y-44180500D01*
X51714259Y-44180500D01*
X51773244Y-44180500D01*
X51782659Y-44180857D01*
X51841476Y-44185337D01*
X51871651Y-44181493D01*
X51887318Y-44180500D01*
X53390743Y-44180500D01*
X53542439Y-44165074D01*
X53736579Y-44104162D01*
X53736580Y-44104161D01*
X53736588Y-44104159D01*
X53914502Y-44005409D01*
X54068895Y-43872866D01*
X54083811Y-43853597D01*
X54140414Y-43812634D01*
X54181866Y-43805500D01*
X56310767Y-43805500D01*
X56377806Y-43825185D01*
X56423561Y-43877989D01*
X56433505Y-43947147D01*
X56432229Y-43954461D01*
X56403500Y-44094258D01*
X56403500Y-44238217D01*
X56383815Y-44305256D01*
X56367181Y-44325898D01*
X53469899Y-47223181D01*
X53408576Y-47256666D01*
X53382218Y-47259500D01*
X48209257Y-47259500D01*
X48057560Y-47274925D01*
X47863420Y-47335837D01*
X47863405Y-47335844D01*
X47685500Y-47434589D01*
X47685495Y-47434592D01*
X47531106Y-47567132D01*
X47531104Y-47567134D01*
X47402703Y-47733014D01*
X47400457Y-47731275D01*
X47357239Y-47769535D01*
X47288189Y-47780211D01*
X47224330Y-47751862D01*
X47201002Y-47725534D01*
X47134402Y-47624481D01*
X47134400Y-47624479D01*
X47134399Y-47624477D01*
X45802566Y-46292646D01*
X45800373Y-46290397D01*
X45740061Y-46226949D01*
X45740060Y-46226948D01*
X45740059Y-46226947D01*
X45691640Y-46193246D01*
X45684120Y-46187575D01*
X45638413Y-46150305D01*
X45638406Y-46150301D01*
X45611441Y-46136216D01*
X45598026Y-46128089D01*
X45573049Y-46110705D01*
X45573046Y-46110703D01*
X45573045Y-46110703D01*
X45573041Y-46110701D01*
X45518845Y-46087443D01*
X45510336Y-46083402D01*
X45458057Y-46056094D01*
X45458046Y-46056090D01*
X45428806Y-46047723D01*
X45414021Y-46042459D01*
X45386058Y-46030459D01*
X45328273Y-46018583D01*
X45319127Y-46016338D01*
X45262423Y-46000113D01*
X45238699Y-45998306D01*
X45232072Y-45997801D01*
X45216533Y-45995622D01*
X45186742Y-45989500D01*
X45186741Y-45989500D01*
X45127759Y-45989500D01*
X45118344Y-45989142D01*
X45115643Y-45988936D01*
X45059524Y-45984662D01*
X45029349Y-45988506D01*
X45013682Y-45989500D01*
X42756782Y-45989500D01*
X42689743Y-45969815D01*
X42669101Y-45953181D01*
X42327582Y-45611662D01*
X42295873Y-45585806D01*
X42209407Y-45515302D01*
X42029049Y-45421091D01*
X42026749Y-45420433D01*
X41836018Y-45365857D01*
X41833418Y-45365113D01*
X41833417Y-45365112D01*
X41833416Y-45365112D01*
X41630525Y-45349662D01*
X41630522Y-45349662D01*
X41428678Y-45375368D01*
X41428670Y-45375370D01*
X41236129Y-45441183D01*
X41236117Y-45441189D01*
X41060778Y-45544406D01*
X41060771Y-45544411D01*
X40909787Y-45680820D01*
X40909787Y-45680821D01*
X40789353Y-45844828D01*
X40789349Y-45844835D01*
X40704397Y-46029725D01*
X40704393Y-46029737D01*
X40658396Y-46227945D01*
X40653242Y-46431358D01*
X40689140Y-46631648D01*
X40689142Y-46631654D01*
X40764623Y-46820616D01*
X40764629Y-46820628D01*
X40876596Y-46990517D01*
X40876599Y-46990521D01*
X41573449Y-47687370D01*
X41575642Y-47689619D01*
X41635938Y-47753050D01*
X41635941Y-47753053D01*
X41684348Y-47786746D01*
X41691869Y-47792417D01*
X41737587Y-47829694D01*
X41737590Y-47829695D01*
X41737593Y-47829698D01*
X41764565Y-47843786D01*
X41777982Y-47851916D01*
X41802951Y-47869295D01*
X41857163Y-47892559D01*
X41865663Y-47896595D01*
X41917951Y-47923909D01*
X41947199Y-47932277D01*
X41961975Y-47937538D01*
X41989942Y-47949540D01*
X41989945Y-47949540D01*
X41989946Y-47949541D01*
X42047713Y-47961412D01*
X42056866Y-47963658D01*
X42113582Y-47979887D01*
X42143914Y-47982196D01*
X42159463Y-47984377D01*
X42189255Y-47990500D01*
X42189259Y-47990500D01*
X42248242Y-47990500D01*
X42257656Y-47990857D01*
X42266010Y-47991494D01*
X42316476Y-47995337D01*
X42316476Y-47995336D01*
X42316477Y-47995337D01*
X42346652Y-47991493D01*
X42362319Y-47990500D01*
X44619217Y-47990500D01*
X44686256Y-48010185D01*
X44706898Y-48026819D01*
X45683420Y-49003340D01*
X45801593Y-49099698D01*
X45981951Y-49193909D01*
X46177582Y-49249886D01*
X46366117Y-49264243D01*
X46380475Y-49265337D01*
X46380476Y-49265337D01*
X46582321Y-49239631D01*
X46582321Y-49239630D01*
X46582328Y-49239630D01*
X46774872Y-49173816D01*
X46950227Y-49070590D01*
X47101213Y-48934179D01*
X47209256Y-48787043D01*
X47264799Y-48744661D01*
X47334442Y-48739035D01*
X47396071Y-48771954D01*
X47414433Y-48794848D01*
X47464745Y-48875567D01*
X47464747Y-48875569D01*
X47464748Y-48875571D01*
X47604941Y-49023053D01*
X47733344Y-49112424D01*
X47771949Y-49139294D01*
X47771950Y-49139294D01*
X47771951Y-49139295D01*
X47958942Y-49219540D01*
X48158259Y-49260500D01*
X52149217Y-49260500D01*
X52216256Y-49280185D01*
X52262011Y-49332989D01*
X52271955Y-49402147D01*
X52242930Y-49465703D01*
X52236898Y-49472181D01*
X51945899Y-49763181D01*
X51884576Y-49796666D01*
X51858218Y-49799500D01*
X48209257Y-49799500D01*
X48057560Y-49814925D01*
X47863420Y-49875837D01*
X47863405Y-49875844D01*
X47685500Y-49974589D01*
X47685495Y-49974592D01*
X47531106Y-50107132D01*
X47531104Y-50107134D01*
X47406554Y-50268037D01*
X47406553Y-50268040D01*
X47316940Y-50450728D01*
X47265937Y-50647714D01*
X47255631Y-50850936D01*
X47286442Y-51052063D01*
X47286445Y-51052075D01*
X47357111Y-51242881D01*
X47357112Y-51242882D01*
X47357114Y-51242887D01*
X47361493Y-51249913D01*
X47380247Y-51317217D01*
X47359636Y-51383977D01*
X47306204Y-51428997D01*
X47256259Y-51439500D01*
X36265847Y-51439500D01*
X36242615Y-51437304D01*
X36234588Y-51435773D01*
X36234585Y-51435772D01*
X36179241Y-51439255D01*
X36171455Y-51439500D01*
X32690453Y-51439500D01*
X32623414Y-51419815D01*
X32602770Y-51403180D01*
X32576209Y-51376618D01*
X32542725Y-51315294D01*
X32540673Y-51302836D01*
X32535368Y-51255745D01*
X32475789Y-51085478D01*
X32454800Y-51052075D01*
X32379815Y-50932737D01*
X32334759Y-50887681D01*
X32301274Y-50826358D01*
X32306258Y-50756666D01*
X32334759Y-50712319D01*
X32379816Y-50667262D01*
X32475789Y-50514522D01*
X32535368Y-50344255D01*
X32540672Y-50297173D01*
X32567737Y-50232763D01*
X32576201Y-50223387D01*
X37213788Y-45585801D01*
X37226042Y-45575986D01*
X37225859Y-45575764D01*
X37231868Y-45570791D01*
X37231877Y-45570786D01*
X37277949Y-45521722D01*
X37280566Y-45519023D01*
X37300120Y-45499471D01*
X37302576Y-45496303D01*
X37310156Y-45487427D01*
X37340062Y-45455582D01*
X37349715Y-45438020D01*
X37360389Y-45421770D01*
X37372673Y-45405936D01*
X37390019Y-45365850D01*
X37395157Y-45355362D01*
X37398291Y-45349663D01*
X37416197Y-45317092D01*
X37421177Y-45297691D01*
X37427478Y-45279288D01*
X37435438Y-45260896D01*
X37442272Y-45217741D01*
X37444635Y-45206331D01*
X37455500Y-45164019D01*
X37455500Y-45143983D01*
X37457027Y-45124582D01*
X37460160Y-45104804D01*
X37456050Y-45061324D01*
X37455500Y-45049655D01*
X37455500Y-40315452D01*
X37475185Y-40248413D01*
X37491814Y-40227775D01*
X37523378Y-40196210D01*
X37584699Y-40162726D01*
X37597159Y-40160674D01*
X37644255Y-40155368D01*
X37814522Y-40095789D01*
X37967262Y-39999816D01*
X38094816Y-39872262D01*
X38190789Y-39719522D01*
X38250368Y-39549255D01*
X38270565Y-39370000D01*
X38263987Y-39311620D01*
X38250369Y-39190750D01*
X38250368Y-39190745D01*
X38223455Y-39113833D01*
X38190789Y-39020478D01*
X38094816Y-38867738D01*
X37967262Y-38740184D01*
X37814523Y-38644211D01*
X37644254Y-38584631D01*
X37644249Y-38584630D01*
X37465004Y-38564435D01*
X37464996Y-38564435D01*
X37285750Y-38584630D01*
X37285745Y-38584631D01*
X37115476Y-38644211D01*
X36962737Y-38740184D01*
X36835184Y-38867737D01*
X36739210Y-39020478D01*
X36679630Y-39190750D01*
X36674326Y-39237825D01*
X36647258Y-39302238D01*
X36638787Y-39311620D01*
X36446208Y-39504199D01*
X36433951Y-39514020D01*
X36434134Y-39514241D01*
X36428122Y-39519214D01*
X36382098Y-39568223D01*
X36379391Y-39571016D01*
X36359889Y-39590517D01*
X36359875Y-39590534D01*
X36357407Y-39593715D01*
X36349843Y-39602570D01*
X36319937Y-39634418D01*
X36319936Y-39634420D01*
X36310284Y-39651976D01*
X36299610Y-39668226D01*
X36287329Y-39684061D01*
X36287324Y-39684068D01*
X36269975Y-39724158D01*
X36264838Y-39734644D01*
X36243803Y-39772906D01*
X36238822Y-39792307D01*
X36232521Y-39810710D01*
X36224562Y-39829102D01*
X36224561Y-39829105D01*
X36217728Y-39872243D01*
X36215360Y-39883674D01*
X36204501Y-39925971D01*
X36204500Y-39925982D01*
X36204500Y-39946016D01*
X36202973Y-39965415D01*
X36199840Y-39985194D01*
X36199840Y-39985195D01*
X36203950Y-40028674D01*
X36204500Y-40040343D01*
X36204500Y-44774546D01*
X36184815Y-44841585D01*
X36168181Y-44862227D01*
X31691620Y-49338787D01*
X31630297Y-49372272D01*
X31617825Y-49374326D01*
X31570750Y-49379630D01*
X31400478Y-49439210D01*
X31247737Y-49535184D01*
X31120184Y-49662737D01*
X31024211Y-49815476D01*
X30964631Y-49985745D01*
X30964630Y-49985750D01*
X30944435Y-50164996D01*
X30944435Y-50165003D01*
X30964630Y-50344249D01*
X30964631Y-50344254D01*
X31024211Y-50514523D01*
X31120184Y-50667262D01*
X31120185Y-50667263D01*
X31165241Y-50712320D01*
X31198725Y-50773643D01*
X31193740Y-50843335D01*
X31165241Y-50887680D01*
X31120184Y-50932737D01*
X31024211Y-51085476D01*
X30964631Y-51255745D01*
X30964630Y-51255750D01*
X30944435Y-51434996D01*
X30944435Y-51435003D01*
X24630500Y-51435003D01*
X24630500Y-40640003D01*
X28404435Y-40640003D01*
X28424630Y-40819249D01*
X28424631Y-40819254D01*
X28484211Y-40989523D01*
X28560770Y-41111365D01*
X28580184Y-41142262D01*
X28707738Y-41269816D01*
X28860478Y-41365789D01*
X29030745Y-41425368D01*
X29030750Y-41425369D01*
X29209996Y-41445565D01*
X29210000Y-41445565D01*
X29210004Y-41445565D01*
X29389249Y-41425369D01*
X29389252Y-41425368D01*
X29389255Y-41425368D01*
X29559522Y-41365789D01*
X29712262Y-41269816D01*
X29833566Y-41148512D01*
X29845257Y-41138206D01*
X29845296Y-41138174D01*
X29845304Y-41138170D01*
X29859473Y-41123999D01*
X29874263Y-41111368D01*
X29890471Y-41099594D01*
X29918322Y-41065926D01*
X29926163Y-41057309D01*
X31613470Y-39370003D01*
X32904435Y-39370003D01*
X32924630Y-39549249D01*
X32924631Y-39549254D01*
X32984211Y-39719523D01*
X33066041Y-39849753D01*
X33080184Y-39872262D01*
X33207738Y-39999816D01*
X33272236Y-40040343D01*
X33350672Y-40089628D01*
X33360478Y-40095789D01*
X33530742Y-40155367D01*
X33530745Y-40155368D01*
X33530750Y-40155369D01*
X33709996Y-40175565D01*
X33710000Y-40175565D01*
X33710004Y-40175565D01*
X33889249Y-40155369D01*
X33889252Y-40155368D01*
X33889255Y-40155368D01*
X34059522Y-40095789D01*
X34212262Y-39999816D01*
X34339816Y-39872262D01*
X34435789Y-39719522D01*
X34435790Y-39719518D01*
X34438811Y-39713246D01*
X34440655Y-39714134D01*
X34463305Y-39678061D01*
X37219549Y-36921819D01*
X37280872Y-36888334D01*
X37307230Y-36885500D01*
X46902279Y-36885500D01*
X50161295Y-36885500D01*
X50179265Y-36886809D01*
X50203023Y-36890289D01*
X50252369Y-36885971D01*
X50263176Y-36885500D01*
X50268704Y-36885500D01*
X50268709Y-36885500D01*
X50299556Y-36881893D01*
X50303030Y-36881539D01*
X50377797Y-36874999D01*
X50377805Y-36874996D01*
X50384866Y-36873539D01*
X50384878Y-36873598D01*
X50392243Y-36871965D01*
X50392229Y-36871906D01*
X50399249Y-36870241D01*
X50399255Y-36870241D01*
X50469779Y-36844572D01*
X50473117Y-36843412D01*
X50544334Y-36819814D01*
X50544342Y-36819808D01*
X50550882Y-36816760D01*
X50550908Y-36816816D01*
X50557690Y-36813532D01*
X50557663Y-36813478D01*
X50564113Y-36810238D01*
X50564117Y-36810237D01*
X50626837Y-36768984D01*
X50629732Y-36767140D01*
X50693656Y-36727712D01*
X50693662Y-36727705D01*
X50699325Y-36723229D01*
X50699362Y-36723277D01*
X50705204Y-36718518D01*
X50705164Y-36718471D01*
X50710686Y-36713835D01*
X50710696Y-36713830D01*
X50762185Y-36659253D01*
X50764632Y-36656734D01*
X55041592Y-32379773D01*
X55102913Y-32346290D01*
X55172601Y-32351273D01*
X55314954Y-32404369D01*
X55314960Y-32404370D01*
X55314962Y-32404371D01*
X55594566Y-32465195D01*
X55594568Y-32465195D01*
X55594572Y-32465196D01*
X55848220Y-32483337D01*
X55879999Y-32485610D01*
X55880000Y-32485610D01*
X55880001Y-32485610D01*
X55908595Y-32483564D01*
X56165428Y-32465196D01*
X56180070Y-32462011D01*
X56445037Y-32404371D01*
X56445037Y-32404370D01*
X56445046Y-32404369D01*
X56713161Y-32304367D01*
X56964315Y-32167226D01*
X57193395Y-31995739D01*
X57395739Y-31793395D01*
X57567226Y-31564315D01*
X57704367Y-31313161D01*
X57804369Y-31045046D01*
X57865196Y-30765428D01*
X57885610Y-30480001D01*
X58954390Y-30480001D01*
X58974804Y-30765433D01*
X59035628Y-31045037D01*
X59035629Y-31045039D01*
X59035631Y-31045046D01*
X59108345Y-31240000D01*
X59135635Y-31313166D01*
X59272770Y-31564309D01*
X59272775Y-31564317D01*
X59444254Y-31793387D01*
X59444270Y-31793405D01*
X59646594Y-31995729D01*
X59646612Y-31995745D01*
X59875682Y-32167224D01*
X59875690Y-32167229D01*
X60126833Y-32304364D01*
X60126832Y-32304364D01*
X60126836Y-32304365D01*
X60126839Y-32304367D01*
X60394954Y-32404369D01*
X60394960Y-32404370D01*
X60394962Y-32404371D01*
X60674566Y-32465195D01*
X60674568Y-32465195D01*
X60674572Y-32465196D01*
X60928220Y-32483337D01*
X60959999Y-32485610D01*
X60960000Y-32485610D01*
X60960001Y-32485610D01*
X60988595Y-32483564D01*
X61245428Y-32465196D01*
X61260070Y-32462011D01*
X61525037Y-32404371D01*
X61525037Y-32404370D01*
X61525046Y-32404369D01*
X61793161Y-32304367D01*
X62044315Y-32167226D01*
X62273395Y-31995739D01*
X62475739Y-31793395D01*
X62647226Y-31564315D01*
X62784367Y-31313161D01*
X62884369Y-31045046D01*
X62945196Y-30765428D01*
X62965610Y-30480001D01*
X64034390Y-30480001D01*
X64054804Y-30765433D01*
X64115628Y-31045037D01*
X64115629Y-31045039D01*
X64115631Y-31045046D01*
X64188345Y-31240000D01*
X64215635Y-31313166D01*
X64352770Y-31564309D01*
X64352775Y-31564317D01*
X64524254Y-31793387D01*
X64524270Y-31793405D01*
X64726594Y-31995729D01*
X64726612Y-31995745D01*
X64955682Y-32167224D01*
X64955690Y-32167229D01*
X65206833Y-32304364D01*
X65206832Y-32304364D01*
X65206836Y-32304365D01*
X65206839Y-32304367D01*
X65474954Y-32404369D01*
X65474960Y-32404370D01*
X65474962Y-32404371D01*
X65754566Y-32465195D01*
X65754568Y-32465195D01*
X65754572Y-32465196D01*
X66008220Y-32483337D01*
X66039999Y-32485610D01*
X66040000Y-32485610D01*
X66040001Y-32485610D01*
X66068595Y-32483564D01*
X66325428Y-32465196D01*
X66340070Y-32462011D01*
X66605037Y-32404371D01*
X66605037Y-32404370D01*
X66605046Y-32404369D01*
X66873161Y-32304367D01*
X67124315Y-32167226D01*
X67353395Y-31995739D01*
X67555739Y-31793395D01*
X67727226Y-31564315D01*
X67864367Y-31313161D01*
X67964369Y-31045046D01*
X68025196Y-30765428D01*
X68045610Y-30480000D01*
X68025196Y-30194572D01*
X68021358Y-30176930D01*
X67964371Y-29914962D01*
X67964370Y-29914960D01*
X67964369Y-29914954D01*
X67864367Y-29646839D01*
X67727372Y-29395953D01*
X67727229Y-29395690D01*
X67727224Y-29395682D01*
X67555745Y-29166612D01*
X67555729Y-29166594D01*
X67353405Y-28964270D01*
X67353387Y-28964254D01*
X67124317Y-28792775D01*
X67124309Y-28792770D01*
X66873166Y-28655635D01*
X66873167Y-28655635D01*
X66765915Y-28615632D01*
X66605046Y-28555631D01*
X66605043Y-28555630D01*
X66605037Y-28555628D01*
X66325433Y-28494804D01*
X66040001Y-28474390D01*
X66039999Y-28474390D01*
X65754566Y-28494804D01*
X65474962Y-28555628D01*
X65206833Y-28655635D01*
X64955690Y-28792770D01*
X64955682Y-28792775D01*
X64726612Y-28964254D01*
X64726594Y-28964270D01*
X64524270Y-29166594D01*
X64524254Y-29166612D01*
X64352775Y-29395682D01*
X64352770Y-29395690D01*
X64215635Y-29646833D01*
X64115628Y-29914962D01*
X64054804Y-30194566D01*
X64034390Y-30479998D01*
X64034390Y-30480001D01*
X62965610Y-30480001D01*
X62965610Y-30480000D01*
X62945196Y-30194572D01*
X62941358Y-30176930D01*
X62884371Y-29914962D01*
X62884370Y-29914960D01*
X62884369Y-29914954D01*
X62784367Y-29646839D01*
X62647372Y-29395953D01*
X62647229Y-29395690D01*
X62647224Y-29395682D01*
X62475745Y-29166612D01*
X62475729Y-29166594D01*
X62273405Y-28964270D01*
X62273387Y-28964254D01*
X62044317Y-28792775D01*
X62044309Y-28792770D01*
X61793166Y-28655635D01*
X61793167Y-28655635D01*
X61685915Y-28615632D01*
X61525046Y-28555631D01*
X61525043Y-28555630D01*
X61525037Y-28555628D01*
X61245433Y-28494804D01*
X60960001Y-28474390D01*
X60959999Y-28474390D01*
X60674566Y-28494804D01*
X60394962Y-28555628D01*
X60126833Y-28655635D01*
X59875690Y-28792770D01*
X59875682Y-28792775D01*
X59646612Y-28964254D01*
X59646594Y-28964270D01*
X59444270Y-29166594D01*
X59444254Y-29166612D01*
X59272775Y-29395682D01*
X59272770Y-29395690D01*
X59135635Y-29646833D01*
X59035628Y-29914962D01*
X58974804Y-30194566D01*
X58954390Y-30479998D01*
X58954390Y-30480001D01*
X57885610Y-30480001D01*
X57885610Y-30480000D01*
X57865196Y-30194572D01*
X57861358Y-30176930D01*
X57804371Y-29914962D01*
X57804370Y-29914960D01*
X57804369Y-29914954D01*
X57704367Y-29646839D01*
X57567372Y-29395953D01*
X57567229Y-29395690D01*
X57567224Y-29395682D01*
X57395745Y-29166612D01*
X57395729Y-29166594D01*
X57193405Y-28964270D01*
X57193387Y-28964254D01*
X56964317Y-28792775D01*
X56964309Y-28792770D01*
X56713166Y-28655635D01*
X56713167Y-28655635D01*
X56605915Y-28615632D01*
X56445046Y-28555631D01*
X56445043Y-28555630D01*
X56445037Y-28555628D01*
X56165433Y-28494804D01*
X55880001Y-28474390D01*
X55879999Y-28474390D01*
X55594566Y-28494804D01*
X55314962Y-28555628D01*
X55046833Y-28655635D01*
X54795690Y-28792770D01*
X54795682Y-28792775D01*
X54566612Y-28964254D01*
X54566594Y-28964270D01*
X54364270Y-29166594D01*
X54364254Y-29166612D01*
X54192775Y-29395682D01*
X54192770Y-29395690D01*
X54055635Y-29646833D01*
X53955628Y-29914962D01*
X53894804Y-30194566D01*
X53874390Y-30479998D01*
X53874390Y-30480001D01*
X53894804Y-30765433D01*
X53955598Y-31044895D01*
X53955631Y-31045046D01*
X53966669Y-31074639D01*
X54008724Y-31187394D01*
X54013708Y-31257085D01*
X53980223Y-31318408D01*
X52949070Y-32349561D01*
X52887747Y-32383046D01*
X52818055Y-32378062D01*
X52762122Y-32336190D01*
X52737705Y-32270726D01*
X52745207Y-32218547D01*
X52794091Y-32087483D01*
X52800500Y-32027873D01*
X52800499Y-28932128D01*
X52794091Y-28872517D01*
X52764506Y-28793196D01*
X52743797Y-28737671D01*
X52743793Y-28737664D01*
X52657547Y-28622455D01*
X52657544Y-28622452D01*
X52542335Y-28536206D01*
X52542328Y-28536202D01*
X52407482Y-28485908D01*
X52407483Y-28485908D01*
X52347883Y-28479501D01*
X52347881Y-28479500D01*
X52347873Y-28479500D01*
X52347864Y-28479500D01*
X49252129Y-28479500D01*
X49252123Y-28479501D01*
X49192516Y-28485908D01*
X49057671Y-28536202D01*
X49057664Y-28536206D01*
X48942455Y-28622452D01*
X48942452Y-28622455D01*
X48856206Y-28737664D01*
X48856202Y-28737671D01*
X48805908Y-28872517D01*
X48799501Y-28932116D01*
X48799501Y-28932123D01*
X48799500Y-28932135D01*
X48799500Y-32027870D01*
X48799501Y-32027876D01*
X48805908Y-32087483D01*
X48856202Y-32222328D01*
X48856206Y-32222335D01*
X48942452Y-32337544D01*
X48942455Y-32337547D01*
X49057664Y-32423793D01*
X49057671Y-32423797D01*
X49192517Y-32474091D01*
X49192516Y-32474091D01*
X49199444Y-32474835D01*
X49252127Y-32480500D01*
X52347872Y-32480499D01*
X52407483Y-32474091D01*
X52538548Y-32425206D01*
X52608238Y-32420223D01*
X52669561Y-32453708D01*
X52703046Y-32515031D01*
X52698062Y-32584723D01*
X52669561Y-32629070D01*
X49950451Y-35348181D01*
X49889128Y-35381666D01*
X49862770Y-35384500D01*
X37008705Y-35384500D01*
X36990735Y-35383191D01*
X36966972Y-35379710D01*
X36919843Y-35383834D01*
X36917630Y-35384028D01*
X36906824Y-35384500D01*
X36901284Y-35384500D01*
X36870501Y-35388098D01*
X36866916Y-35388464D01*
X36792199Y-35395001D01*
X36785132Y-35396460D01*
X36785120Y-35396404D01*
X36777763Y-35398035D01*
X36777777Y-35398092D01*
X36770740Y-35399760D01*
X36700231Y-35425421D01*
X36696854Y-35426595D01*
X36657848Y-35439521D01*
X36625668Y-35450185D01*
X36619126Y-35453236D01*
X36619101Y-35453183D01*
X36612308Y-35456471D01*
X36612334Y-35456523D01*
X36605880Y-35459764D01*
X36543221Y-35500975D01*
X36540181Y-35502912D01*
X36476348Y-35542285D01*
X36470683Y-35546765D01*
X36470647Y-35546719D01*
X36464798Y-35551484D01*
X36464835Y-35551528D01*
X36459310Y-35556164D01*
X36407832Y-35610726D01*
X36405320Y-35613311D01*
X33401937Y-38616693D01*
X33365873Y-38639370D01*
X33366750Y-38641191D01*
X33360475Y-38644212D01*
X33207737Y-38740184D01*
X33080184Y-38867737D01*
X32984211Y-39020476D01*
X32924631Y-39190745D01*
X32924630Y-39190750D01*
X32904435Y-39369996D01*
X32904435Y-39370003D01*
X31613470Y-39370003D01*
X36761656Y-34221819D01*
X36822979Y-34188334D01*
X36849337Y-34185500D01*
X46445145Y-34185500D01*
X46511116Y-34204505D01*
X46640478Y-34285789D01*
X46810745Y-34345368D01*
X46810750Y-34345369D01*
X46989996Y-34365565D01*
X46990000Y-34365565D01*
X46990004Y-34365565D01*
X47169249Y-34345369D01*
X47169252Y-34345368D01*
X47169255Y-34345368D01*
X47339522Y-34285789D01*
X47492262Y-34189816D01*
X47619816Y-34062262D01*
X47715789Y-33909522D01*
X47775368Y-33739255D01*
X47795565Y-33560000D01*
X47775368Y-33380745D01*
X47715789Y-33210478D01*
X47619816Y-33057738D01*
X47492262Y-32930184D01*
X47468883Y-32915494D01*
X47339523Y-32834211D01*
X47169254Y-32774631D01*
X47169249Y-32774630D01*
X46990004Y-32754435D01*
X46989996Y-32754435D01*
X46810750Y-32774630D01*
X46810745Y-32774631D01*
X46640476Y-32834211D01*
X46511117Y-32915494D01*
X46445145Y-32934500D01*
X41874097Y-32934500D01*
X41807058Y-32914815D01*
X41761303Y-32862011D01*
X41751359Y-32792853D01*
X41780384Y-32729297D01*
X41786416Y-32722819D01*
X42085441Y-32423793D01*
X42189374Y-32319859D01*
X42250695Y-32286376D01*
X42320386Y-32291360D01*
X42336474Y-32298707D01*
X42346839Y-32304367D01*
X42614954Y-32404369D01*
X42614960Y-32404370D01*
X42614962Y-32404371D01*
X42894566Y-32465195D01*
X42894568Y-32465195D01*
X42894572Y-32465196D01*
X43148220Y-32483337D01*
X43179999Y-32485610D01*
X43180000Y-32485610D01*
X43180001Y-32485610D01*
X43208595Y-32483564D01*
X43465428Y-32465196D01*
X43480070Y-32462011D01*
X43745037Y-32404371D01*
X43745037Y-32404370D01*
X43745046Y-32404369D01*
X44013161Y-32304367D01*
X44264315Y-32167226D01*
X44493395Y-31995739D01*
X44695739Y-31793395D01*
X44867226Y-31564315D01*
X45004367Y-31313161D01*
X45104369Y-31045046D01*
X45165196Y-30765428D01*
X45185610Y-30480000D01*
X45165196Y-30194572D01*
X45161358Y-30176930D01*
X45104371Y-29914962D01*
X45104370Y-29914960D01*
X45104369Y-29914954D01*
X45004367Y-29646839D01*
X44867372Y-29395953D01*
X44867229Y-29395690D01*
X44867224Y-29395682D01*
X44695745Y-29166612D01*
X44695729Y-29166594D01*
X44493405Y-28964270D01*
X44493387Y-28964254D01*
X44264317Y-28792775D01*
X44264309Y-28792770D01*
X44013166Y-28655635D01*
X44013167Y-28655635D01*
X43905915Y-28615632D01*
X43745046Y-28555631D01*
X43745043Y-28555630D01*
X43745037Y-28555628D01*
X43465433Y-28494804D01*
X43180001Y-28474390D01*
X43179999Y-28474390D01*
X42894566Y-28494804D01*
X42614962Y-28555628D01*
X42346833Y-28655635D01*
X42095690Y-28792770D01*
X42095682Y-28792775D01*
X41866612Y-28964254D01*
X41866594Y-28964270D01*
X41664270Y-29166594D01*
X41664254Y-29166612D01*
X41492775Y-29395682D01*
X41492770Y-29395690D01*
X41355635Y-29646833D01*
X41255628Y-29914962D01*
X41194804Y-30194566D01*
X41174390Y-30479998D01*
X41174390Y-30480001D01*
X41194804Y-30765433D01*
X41255628Y-31045037D01*
X41255629Y-31045039D01*
X41255631Y-31045046D01*
X41355633Y-31313161D01*
X41355634Y-31313163D01*
X41361288Y-31323517D01*
X41376140Y-31391790D01*
X41351724Y-31457254D01*
X41340137Y-31470626D01*
X40312584Y-32498181D01*
X40251261Y-32531666D01*
X40224903Y-32534500D01*
X38997532Y-32534500D01*
X38930493Y-32514815D01*
X38884738Y-32462011D01*
X38874794Y-32392853D01*
X38903819Y-32329297D01*
X38938105Y-32301668D01*
X39109985Y-32207813D01*
X39184315Y-32167226D01*
X39413395Y-31995739D01*
X39615739Y-31793395D01*
X39787226Y-31564315D01*
X39924367Y-31313161D01*
X40024369Y-31045046D01*
X40085196Y-30765428D01*
X40105610Y-30480000D01*
X40085196Y-30194572D01*
X40081358Y-30176930D01*
X40024371Y-29914962D01*
X40024370Y-29914960D01*
X40024369Y-29914954D01*
X39924367Y-29646839D01*
X39787372Y-29395953D01*
X39787229Y-29395690D01*
X39787224Y-29395682D01*
X39615745Y-29166612D01*
X39615729Y-29166594D01*
X39413405Y-28964270D01*
X39413387Y-28964254D01*
X39184317Y-28792775D01*
X39184309Y-28792770D01*
X38933166Y-28655635D01*
X38933167Y-28655635D01*
X38825915Y-28615632D01*
X38665046Y-28555631D01*
X38665043Y-28555630D01*
X38665037Y-28555628D01*
X38385433Y-28494804D01*
X38100001Y-28474390D01*
X38099999Y-28474390D01*
X37814566Y-28494804D01*
X37534962Y-28555628D01*
X37266833Y-28655635D01*
X37015690Y-28792770D01*
X37015682Y-28792775D01*
X36786612Y-28964254D01*
X36786594Y-28964270D01*
X36584270Y-29166594D01*
X36584254Y-29166612D01*
X36412775Y-29395682D01*
X36412770Y-29395690D01*
X36275635Y-29646833D01*
X36175628Y-29914962D01*
X36114804Y-30194566D01*
X36094390Y-30479998D01*
X36094390Y-30480001D01*
X36114804Y-30765433D01*
X36166907Y-31004947D01*
X36161923Y-31074639D01*
X36133422Y-31118986D01*
X30486620Y-36765787D01*
X30425297Y-36799272D01*
X30412825Y-36801326D01*
X30365750Y-36806630D01*
X30195478Y-36866210D01*
X30042737Y-36962184D01*
X29915184Y-37089737D01*
X29819211Y-37242476D01*
X29759631Y-37412745D01*
X29759630Y-37412750D01*
X29739435Y-37591996D01*
X29739435Y-37592003D01*
X29759630Y-37771249D01*
X29759631Y-37771254D01*
X29819211Y-37941523D01*
X29915184Y-38094262D01*
X30042738Y-38221816D01*
X30146935Y-38287287D01*
X30193226Y-38339622D01*
X30203874Y-38408675D01*
X30175499Y-38472524D01*
X30168644Y-38479962D01*
X30075852Y-38572754D01*
X30014529Y-38606239D01*
X29947218Y-38602115D01*
X29897255Y-38584632D01*
X29897253Y-38584631D01*
X29897251Y-38584631D01*
X29897246Y-38584630D01*
X29718004Y-38564435D01*
X29717996Y-38564435D01*
X29538750Y-38584630D01*
X29538745Y-38584631D01*
X29368476Y-38644211D01*
X29215737Y-38740184D01*
X29088184Y-38867737D01*
X28992211Y-39020476D01*
X28932631Y-39190745D01*
X28932630Y-39190750D01*
X28912435Y-39369996D01*
X28912435Y-39370003D01*
X28932630Y-39549249D01*
X28932631Y-39549254D01*
X28992213Y-39719527D01*
X28993247Y-39721675D01*
X28993498Y-39723200D01*
X28994511Y-39726095D01*
X28994003Y-39726272D01*
X29004597Y-39790616D01*
X28976873Y-39854750D01*
X28922480Y-39892514D01*
X28860480Y-39914208D01*
X28707737Y-40010184D01*
X28580184Y-40137737D01*
X28484211Y-40290476D01*
X28424631Y-40460745D01*
X28424630Y-40460750D01*
X28404435Y-40639996D01*
X28404435Y-40640003D01*
X24630500Y-40640003D01*
X24630500Y-32027870D01*
X25939500Y-32027870D01*
X25939501Y-32027876D01*
X25945908Y-32087483D01*
X25996202Y-32222328D01*
X25996206Y-32222335D01*
X26082452Y-32337544D01*
X26082455Y-32337547D01*
X26197664Y-32423793D01*
X26197671Y-32423797D01*
X26332517Y-32474091D01*
X26332516Y-32474091D01*
X26339444Y-32474835D01*
X26392127Y-32480500D01*
X29487872Y-32480499D01*
X29547483Y-32474091D01*
X29682331Y-32423796D01*
X29797546Y-32337546D01*
X29883796Y-32222331D01*
X29934091Y-32087483D01*
X29940500Y-32027873D01*
X29940500Y-30480001D01*
X31014891Y-30480001D01*
X31035300Y-30765362D01*
X31096109Y-31044895D01*
X31196091Y-31312958D01*
X31333191Y-31564038D01*
X31333196Y-31564046D01*
X31439882Y-31706561D01*
X31439883Y-31706562D01*
X32335195Y-30811250D01*
X32357340Y-30862587D01*
X32463433Y-31005094D01*
X32599530Y-31119294D01*
X32689216Y-31164335D01*
X31793436Y-32060115D01*
X31935960Y-32166807D01*
X31935961Y-32166808D01*
X32187042Y-32303908D01*
X32187041Y-32303908D01*
X32455104Y-32403890D01*
X32734637Y-32464699D01*
X33019999Y-32485109D01*
X33020001Y-32485109D01*
X33305362Y-32464699D01*
X33584895Y-32403890D01*
X33852958Y-32303908D01*
X34104047Y-32166803D01*
X34246561Y-32060116D01*
X34246562Y-32060115D01*
X33353748Y-31167300D01*
X33363409Y-31163784D01*
X33511844Y-31066157D01*
X33633764Y-30936930D01*
X33705768Y-30812215D01*
X34600115Y-31706562D01*
X34600116Y-31706561D01*
X34706803Y-31564047D01*
X34843908Y-31312958D01*
X34943890Y-31044895D01*
X35004699Y-30765362D01*
X35025109Y-30480001D01*
X35025109Y-30479998D01*
X35004699Y-30194637D01*
X34943890Y-29915104D01*
X34843908Y-29647041D01*
X34706808Y-29395961D01*
X34706807Y-29395960D01*
X34600115Y-29253436D01*
X33704803Y-30148747D01*
X33682660Y-30097413D01*
X33576567Y-29954906D01*
X33440470Y-29840706D01*
X33350782Y-29795663D01*
X34246562Y-28899883D01*
X34246561Y-28899882D01*
X34104046Y-28793196D01*
X34104038Y-28793191D01*
X33852957Y-28656091D01*
X33852958Y-28656091D01*
X33584895Y-28556109D01*
X33305362Y-28495300D01*
X33020001Y-28474891D01*
X33019999Y-28474891D01*
X32734637Y-28495300D01*
X32455104Y-28556109D01*
X32187041Y-28656091D01*
X31935961Y-28793191D01*
X31935953Y-28793196D01*
X31793437Y-28899882D01*
X31793436Y-28899883D01*
X32686252Y-29792699D01*
X32676591Y-29796216D01*
X32528156Y-29893843D01*
X32406236Y-30023070D01*
X32334231Y-30147784D01*
X31439883Y-29253436D01*
X31439882Y-29253437D01*
X31333196Y-29395953D01*
X31333191Y-29395961D01*
X31196091Y-29647041D01*
X31096109Y-29915104D01*
X31035300Y-30194637D01*
X31014891Y-30479998D01*
X31014891Y-30480001D01*
X29940500Y-30480001D01*
X29940499Y-28932128D01*
X29934091Y-28872517D01*
X29904506Y-28793196D01*
X29883797Y-28737671D01*
X29883793Y-28737664D01*
X29797547Y-28622455D01*
X29797544Y-28622452D01*
X29682335Y-28536206D01*
X29682328Y-28536202D01*
X29547482Y-28485908D01*
X29547483Y-28485908D01*
X29487883Y-28479501D01*
X29487881Y-28479500D01*
X29487873Y-28479500D01*
X29487864Y-28479500D01*
X26392129Y-28479500D01*
X26392123Y-28479501D01*
X26332516Y-28485908D01*
X26197671Y-28536202D01*
X26197664Y-28536206D01*
X26082455Y-28622452D01*
X26082452Y-28622455D01*
X25996206Y-28737664D01*
X25996202Y-28737671D01*
X25945908Y-28872517D01*
X25939501Y-28932116D01*
X25939501Y-28932123D01*
X25939500Y-28932135D01*
X25939500Y-32027870D01*
X24630500Y-32027870D01*
X24630500Y-24754500D01*
X24650185Y-24687461D01*
X24702989Y-24641706D01*
X24754500Y-24630500D01*
X71765500Y-24630500D01*
X71832539Y-24650185D01*
G37*
%TD.AperFunction*%
M02*
