G04 #@! TF.GenerationSoftware,KiCad,Pcbnew,7.0.10*
G04 #@! TF.CreationDate,2024-02-29T18:40:53-06:00*
G04 #@! TF.ProjectId,Sabertoothv2,53616265-7274-46f6-9f74-6876322e6b69,rev?*
G04 #@! TF.SameCoordinates,Original*
G04 #@! TF.FileFunction,Copper,L1,Top*
G04 #@! TF.FilePolarity,Positive*
%FSLAX46Y46*%
G04 Gerber Fmt 4.6, Leading zero omitted, Abs format (unit mm)*
G04 Created by KiCad (PCBNEW 7.0.10) date 2024-02-29 18:40:53*
%MOMM*%
%LPD*%
G01*
G04 APERTURE LIST*
G04 Aperture macros list*
%AMRoundRect*
0 Rectangle with rounded corners*
0 $1 Rounding radius*
0 $2 $3 $4 $5 $6 $7 $8 $9 X,Y pos of 4 corners*
0 Add a 4 corners polygon primitive as box body*
4,1,4,$2,$3,$4,$5,$6,$7,$8,$9,$2,$3,0*
0 Add four circle primitives for the rounded corners*
1,1,$1+$1,$2,$3*
1,1,$1+$1,$4,$5*
1,1,$1+$1,$6,$7*
1,1,$1+$1,$8,$9*
0 Add four rect primitives between the rounded corners*
20,1,$1+$1,$2,$3,$4,$5,0*
20,1,$1+$1,$4,$5,$6,$7,0*
20,1,$1+$1,$6,$7,$8,$9,0*
20,1,$1+$1,$8,$9,$2,$3,0*%
%AMFreePoly0*
4,1,21,1.372500,0.787500,0.862500,0.787500,0.862500,0.532500,1.372500,0.532500,1.372500,0.127500,0.862500,0.127500,0.862500,-0.127500,1.372500,-0.127500,1.372500,-0.532500,0.862500,-0.532500,0.862500,-0.787500,1.372500,-0.787500,1.372500,-1.195000,0.612500,-1.195000,0.612500,-1.117500,-0.862500,-1.117500,-0.862500,1.117500,0.612500,1.117500,0.612500,1.195000,1.372500,1.195000,
1.372500,0.787500,1.372500,0.787500,$1*%
G04 Aperture macros list end*
G04 #@! TA.AperFunction,SMDPad,CuDef*
%ADD10RoundRect,0.250000X-0.475000X0.337500X-0.475000X-0.337500X0.475000X-0.337500X0.475000X0.337500X0*%
G04 #@! TD*
G04 #@! TA.AperFunction,SMDPad,CuDef*
%ADD11RoundRect,0.150000X-0.150000X0.825000X-0.150000X-0.825000X0.150000X-0.825000X0.150000X0.825000X0*%
G04 #@! TD*
G04 #@! TA.AperFunction,SMDPad,CuDef*
%ADD12R,3.000000X2.290000*%
G04 #@! TD*
G04 #@! TA.AperFunction,SMDPad,CuDef*
%ADD13R,0.990000X0.405000*%
G04 #@! TD*
G04 #@! TA.AperFunction,SMDPad,CuDef*
%ADD14FreePoly0,0.000000*%
G04 #@! TD*
G04 #@! TA.AperFunction,SMDPad,CuDef*
%ADD15RoundRect,0.250000X0.450000X-0.350000X0.450000X0.350000X-0.450000X0.350000X-0.450000X-0.350000X0*%
G04 #@! TD*
G04 #@! TA.AperFunction,ComponentPad*
%ADD16C,3.000000*%
G04 #@! TD*
G04 #@! TA.AperFunction,SMDPad,CuDef*
%ADD17R,2.100000X1.400000*%
G04 #@! TD*
G04 #@! TA.AperFunction,SMDPad,CuDef*
%ADD18RoundRect,0.250000X-0.450000X0.350000X-0.450000X-0.350000X0.450000X-0.350000X0.450000X0.350000X0*%
G04 #@! TD*
G04 #@! TA.AperFunction,ComponentPad*
%ADD19R,3.000000X3.000000*%
G04 #@! TD*
G04 #@! TA.AperFunction,ComponentPad*
%ADD20R,1.700000X1.700000*%
G04 #@! TD*
G04 #@! TA.AperFunction,ComponentPad*
%ADD21O,1.700000X1.700000*%
G04 #@! TD*
G04 #@! TA.AperFunction,SMDPad,CuDef*
%ADD22RoundRect,0.250000X0.337500X0.475000X-0.337500X0.475000X-0.337500X-0.475000X0.337500X-0.475000X0*%
G04 #@! TD*
G04 #@! TA.AperFunction,SMDPad,CuDef*
%ADD23RoundRect,0.250000X0.350000X0.450000X-0.350000X0.450000X-0.350000X-0.450000X0.350000X-0.450000X0*%
G04 #@! TD*
G04 #@! TA.AperFunction,SMDPad,CuDef*
%ADD24R,0.450000X0.300000*%
G04 #@! TD*
G04 #@! TA.AperFunction,ComponentPad*
%ADD25C,0.800000*%
G04 #@! TD*
G04 #@! TA.AperFunction,ComponentPad*
%ADD26C,7.000000*%
G04 #@! TD*
G04 #@! TA.AperFunction,ViaPad*
%ADD27C,0.600000*%
G04 #@! TD*
G04 #@! TA.AperFunction,Conductor*
%ADD28C,1.000000*%
G04 #@! TD*
G04 #@! TA.AperFunction,Conductor*
%ADD29C,0.250000*%
G04 #@! TD*
G04 #@! TA.AperFunction,Conductor*
%ADD30C,0.500000*%
G04 #@! TD*
G04 #@! TA.AperFunction,Conductor*
%ADD31C,3.000000*%
G04 #@! TD*
G04 #@! TA.AperFunction,Conductor*
%ADD32C,0.200000*%
G04 #@! TD*
G04 APERTURE END LIST*
D10*
X39657157Y-52055500D03*
X39657157Y-54130500D03*
X54897157Y-51547500D03*
X54897157Y-53622500D03*
D11*
X46762157Y-62600000D03*
X45492157Y-62600000D03*
X44222157Y-62600000D03*
X42952157Y-62600000D03*
X42952157Y-67550000D03*
X44222157Y-67550000D03*
X45492157Y-67550000D03*
X46762157Y-67550000D03*
D12*
X44857157Y-65075000D03*
D13*
X61230157Y-62263000D03*
X61230157Y-62923000D03*
X61230157Y-63583000D03*
X61230157Y-64243000D03*
D14*
X63222657Y-63253000D03*
D15*
X61501157Y-53855000D03*
X61501157Y-51855000D03*
D16*
X72750000Y-46750000D03*
D15*
X61501157Y-69460000D03*
X61501157Y-67460000D03*
D17*
X50375957Y-66637000D03*
X50375957Y-62237000D03*
D15*
X54643157Y-63745000D03*
X54643157Y-61745000D03*
D13*
X66437157Y-47785000D03*
X66437157Y-48445000D03*
X66437157Y-49105000D03*
X66437157Y-49765000D03*
D14*
X68429657Y-48775000D03*
D10*
X54643157Y-65618000D03*
X54643157Y-67693000D03*
D18*
X50452157Y-43600000D03*
X50452157Y-45600000D03*
D10*
X52992157Y-43520000D03*
X52992157Y-45595000D03*
D19*
X57437157Y-37345000D03*
D16*
X62517157Y-37345000D03*
X67597157Y-37345000D03*
X72677157Y-37345000D03*
X64000000Y-43250000D03*
D19*
X34577157Y-37345000D03*
D16*
X39657157Y-37345000D03*
X44737157Y-37345000D03*
X49817157Y-37345000D03*
D20*
X75217157Y-71303000D03*
D21*
X72677157Y-71303000D03*
X70137157Y-71303000D03*
X67597157Y-71303000D03*
D20*
X75217157Y-75953000D03*
D21*
X72677157Y-75953000D03*
X70137157Y-75953000D03*
X67597157Y-75953000D03*
D22*
X55934657Y-59570000D03*
X53859657Y-59570000D03*
D18*
X39657157Y-62285000D03*
X39657157Y-64285000D03*
D17*
X50452157Y-52245000D03*
X50452157Y-47845000D03*
D16*
X67500000Y-43250000D03*
D13*
X61357157Y-47785000D03*
X61357157Y-48445000D03*
X61357157Y-49105000D03*
X61357157Y-49765000D03*
D14*
X63349657Y-48775000D03*
D16*
X72750000Y-43250000D03*
D13*
X66416157Y-62263000D03*
X66416157Y-62923000D03*
X66416157Y-63583000D03*
X66416157Y-64243000D03*
D14*
X68408657Y-63253000D03*
D15*
X54897157Y-49775000D03*
X54897157Y-47775000D03*
D23*
X51087157Y-59697000D03*
X49087157Y-59697000D03*
D11*
X46812157Y-48270000D03*
X45542157Y-48270000D03*
X44272157Y-48270000D03*
X43002157Y-48270000D03*
X43002157Y-53220000D03*
X44272157Y-53220000D03*
X45542157Y-53220000D03*
X46812157Y-53220000D03*
D12*
X44907157Y-50745000D03*
D24*
X35782157Y-57165000D03*
X35782157Y-57665000D03*
X35782157Y-58165000D03*
X37182157Y-58165000D03*
X37182157Y-57165000D03*
D25*
X32375000Y-75000000D03*
X33143845Y-73143845D03*
X33143845Y-76856155D03*
X35000000Y-72375000D03*
D26*
X35000000Y-75000000D03*
D25*
X35000000Y-77625000D03*
X36856155Y-73143845D03*
X36856155Y-76856155D03*
X37625000Y-75000000D03*
D18*
X39657157Y-47775000D03*
X39657157Y-49775000D03*
D10*
X39657157Y-66301000D03*
X39657157Y-68376000D03*
D27*
X66962157Y-66555000D03*
X41689157Y-66809000D03*
X53373157Y-47251000D03*
X41689157Y-67571000D03*
X41689157Y-66047000D03*
X42705157Y-60713000D03*
X67597157Y-66555000D03*
X41435157Y-57665000D03*
X68232157Y-65920000D03*
X67597157Y-65920000D03*
X52611157Y-59697000D03*
X40673157Y-57665000D03*
X52611157Y-48013000D03*
X68232157Y-66555000D03*
X41689157Y-65285000D03*
X52611157Y-47251000D03*
X48547157Y-47759000D03*
X66962157Y-67190000D03*
X41435157Y-56903000D03*
X67597157Y-67190000D03*
X53373157Y-48013000D03*
X42872521Y-46489000D03*
X40673157Y-56903000D03*
X42135160Y-56903000D03*
X48547157Y-46235000D03*
X42197157Y-57665000D03*
X66962157Y-65920000D03*
X48547157Y-46997000D03*
X52992157Y-55125000D03*
X48293157Y-53220000D03*
X48547157Y-67571000D03*
X53373157Y-65996200D03*
X68867157Y-51315000D03*
X59977157Y-50045000D03*
X54897157Y-46489000D03*
X54897157Y-55125000D03*
X64041157Y-51061000D03*
X73947157Y-58935000D03*
X44102157Y-60205000D03*
X38387157Y-58300000D03*
X35847157Y-47505000D03*
X53627157Y-40425000D03*
X54897157Y-57665000D03*
X59977157Y-56649000D03*
X44102157Y-46235000D03*
X38387157Y-57030000D03*
X48402157Y-62600000D03*
X57437157Y-61475000D03*
X57437157Y-60840000D03*
X56802157Y-60840000D03*
X52992157Y-61475000D03*
X56802157Y-61475000D03*
X37182157Y-44457000D03*
X40347157Y-46235000D03*
X58542657Y-64485500D03*
X64681917Y-66179760D03*
X36355157Y-46235000D03*
D28*
X44991157Y-44965000D02*
X42197157Y-44965000D01*
X45542157Y-48270000D02*
X45542157Y-45516000D01*
X41435157Y-45727000D02*
X41435157Y-48387000D01*
X39657157Y-49775000D02*
X39657157Y-52055500D01*
X40047157Y-49775000D02*
X39657157Y-49775000D01*
X41435157Y-48387000D02*
X40047157Y-49775000D01*
X42197157Y-44965000D02*
X41435157Y-45727000D01*
X45542157Y-45516000D02*
X44991157Y-44965000D01*
X39657157Y-64285000D02*
X39657157Y-66301000D01*
X45492157Y-59690000D02*
X45007157Y-59205000D01*
X45492157Y-62600000D02*
X45492157Y-59690000D01*
X41673157Y-59205000D02*
X41057157Y-59821000D01*
X45007157Y-59205000D02*
X41673157Y-59205000D01*
X41057157Y-63035430D02*
X40507587Y-63585000D01*
X39657157Y-64275000D02*
X39657157Y-64285000D01*
X40347157Y-63585000D02*
X39657157Y-64275000D01*
X40507587Y-63585000D02*
X40347157Y-63585000D01*
X41057157Y-59821000D02*
X41057157Y-63035430D01*
X54027713Y-51722500D02*
X54897157Y-51722500D01*
X46812157Y-53220000D02*
X48293157Y-53220000D01*
X52992157Y-55125000D02*
X53402157Y-54715000D01*
X53402157Y-52348056D02*
X54027713Y-51722500D01*
X49477157Y-53220000D02*
X50452157Y-52245000D01*
X48293157Y-53220000D02*
X49477157Y-53220000D01*
X53402157Y-54715000D02*
X53402157Y-52348056D01*
X46762157Y-67550000D02*
X48526157Y-67550000D01*
X54185957Y-65996200D02*
X53557157Y-65996200D01*
X54643157Y-65618000D02*
X54564157Y-65618000D01*
X48547157Y-67571000D02*
X48568157Y-67550000D01*
X54564157Y-65618000D02*
X54185957Y-65996200D01*
X48568157Y-67550000D02*
X49666157Y-67550000D01*
X48526157Y-67550000D02*
X48547157Y-67571000D01*
X49666157Y-67550000D02*
X50579157Y-66637000D01*
D29*
X68867157Y-51315000D02*
X67689657Y-51315000D01*
D28*
X61907157Y-52261000D02*
X65046213Y-52261000D01*
X66437157Y-50870056D02*
X66437157Y-50062500D01*
D29*
X67689657Y-51315000D02*
X66437157Y-50062500D01*
D28*
X65046213Y-52261000D02*
X66437157Y-50870056D01*
X61501157Y-51855000D02*
X61907157Y-52261000D01*
X54897157Y-47775000D02*
X54897157Y-46489000D01*
D30*
X61077157Y-50045000D02*
X61357157Y-49765000D01*
X59977157Y-50045000D02*
X61077157Y-50045000D01*
D28*
X50452157Y-47845000D02*
X50452157Y-45600000D01*
X50375957Y-62237000D02*
X49087157Y-60948200D01*
X49087157Y-60948200D02*
X49087157Y-59697000D01*
X45650101Y-56465000D02*
X53557157Y-56465000D01*
X44272157Y-55087056D02*
X45650101Y-56465000D01*
D31*
X64000000Y-43250000D02*
X63987157Y-43262843D01*
X63987157Y-43262843D02*
X63987157Y-48775000D01*
X67500000Y-43250000D02*
X67500000Y-37442157D01*
X63987157Y-48775000D02*
X64899657Y-47862500D01*
D28*
X64041157Y-48829000D02*
X63987157Y-48775000D01*
X44272157Y-53220000D02*
X44272157Y-55087056D01*
X54897157Y-55125000D02*
X54897157Y-53447500D01*
X53557157Y-56465000D02*
X54897157Y-55125000D01*
X64041157Y-51061000D02*
X64041157Y-48829000D01*
D31*
X67500000Y-37442157D02*
X67597157Y-37345000D01*
X64899657Y-47862500D02*
X65867157Y-47862500D01*
D28*
X63222657Y-64190056D02*
X63222657Y-63253000D01*
X44222157Y-69358583D02*
X45793574Y-70930000D01*
X54643157Y-67693000D02*
X55368157Y-67693000D01*
D31*
X72750000Y-46750000D02*
X72750000Y-53725657D01*
X72677157Y-43177157D02*
X72750000Y-43250000D01*
D28*
X61727213Y-65685500D02*
X63222657Y-64190056D01*
X44222157Y-67550000D02*
X44222157Y-69358583D01*
D31*
X65409907Y-61065750D02*
X63860157Y-62615500D01*
D28*
X57375657Y-65685500D02*
X61727213Y-65685500D01*
D31*
X72677157Y-37345000D02*
X72677157Y-43177157D01*
D29*
X70772157Y-65285000D02*
X70772157Y-58300000D01*
X70772157Y-58300000D02*
X69473907Y-57001750D01*
X67597157Y-68460000D02*
X70772157Y-65285000D01*
D28*
X51406157Y-70930000D02*
X54643157Y-67693000D01*
D29*
X67597157Y-71303000D02*
X67597157Y-68460000D01*
D31*
X69473907Y-57001750D02*
X65409907Y-61065750D01*
D28*
X55368157Y-67693000D02*
X57375657Y-65685500D01*
D31*
X63860157Y-62615500D02*
X63860157Y-63253000D01*
X72750000Y-53725657D02*
X69473907Y-57001750D01*
D28*
X45793574Y-70930000D02*
X51406157Y-70930000D01*
D31*
X65409907Y-61065750D02*
X65409907Y-62340500D01*
X72750000Y-37417843D02*
X72677157Y-37345000D01*
D29*
X35257157Y-57665000D02*
X35782157Y-57665000D01*
X36482157Y-58490000D02*
X36927157Y-58935000D01*
X35782157Y-57665000D02*
X36307157Y-57665000D01*
X36482157Y-57840000D02*
X36482157Y-58490000D01*
X73947157Y-58935000D02*
X75217157Y-60205000D01*
X36927157Y-58935000D02*
X37752157Y-58935000D01*
X56707157Y-37345000D02*
X57437157Y-37345000D01*
X37752157Y-58935000D02*
X38387157Y-58300000D01*
X35847157Y-47505000D02*
X35232157Y-48120000D01*
X35232157Y-57640000D02*
X35257157Y-57665000D01*
X44222157Y-62600000D02*
X44222157Y-60325000D01*
X53627157Y-40425000D02*
X56707157Y-37345000D01*
X35232157Y-48120000D02*
X35232157Y-57640000D01*
X44222157Y-60325000D02*
X44102157Y-60205000D01*
X36307157Y-57665000D02*
X36482157Y-57840000D01*
X75217157Y-60205000D02*
X75217157Y-71303000D01*
D28*
X50582157Y-55265000D02*
X52202157Y-53645000D01*
X45542157Y-54660000D02*
X46147157Y-55265000D01*
X45542157Y-53220000D02*
X45542157Y-54660000D01*
X54278157Y-49775000D02*
X54897157Y-49775000D01*
X52202157Y-53645000D02*
X52202157Y-51851000D01*
X52202157Y-51851000D02*
X54278157Y-49775000D01*
X46147157Y-55265000D02*
X50582157Y-55265000D01*
D29*
X45542157Y-53738171D02*
X45542157Y-53220000D01*
D28*
X54897157Y-57665000D02*
X45153045Y-57665000D01*
X43002157Y-55514112D02*
X43002157Y-53220000D01*
X59977157Y-55379000D02*
X61501157Y-53855000D01*
X59977157Y-56649000D02*
X59977157Y-55379000D01*
X45153045Y-57665000D02*
X43002157Y-55514112D01*
X53846357Y-63745000D02*
X54643157Y-63745000D01*
X52357157Y-68281944D02*
X52357157Y-65234200D01*
X46290630Y-69730000D02*
X50909101Y-69730000D01*
X45492157Y-67550000D02*
X45492157Y-68931527D01*
X50909101Y-69730000D02*
X52357157Y-68281944D01*
X45492157Y-68931527D02*
X46290630Y-69730000D01*
X52357157Y-65234200D02*
X53846357Y-63745000D01*
X45296518Y-72130000D02*
X51903213Y-72130000D01*
X42952157Y-67550000D02*
X42952157Y-69785639D01*
X54573213Y-69460000D02*
X61501157Y-69460000D01*
X51903213Y-72130000D02*
X54573213Y-69460000D01*
X42952157Y-69785639D02*
X45296518Y-72130000D01*
D29*
X37182157Y-58165000D02*
X37257157Y-58165000D01*
X44102157Y-48100000D02*
X44272157Y-48270000D01*
X37257157Y-58165000D02*
X38387157Y-57035000D01*
X44102157Y-46235000D02*
X44102157Y-48100000D01*
X38387157Y-57035000D02*
X38387157Y-57030000D01*
D31*
X57437157Y-43695000D02*
X57437157Y-46997000D01*
X57437157Y-46997000D02*
X57437157Y-59697000D01*
X45372157Y-42425000D02*
X56167157Y-42425000D01*
X57437157Y-46997000D02*
X58302657Y-47862500D01*
X57437157Y-59697000D02*
X57437157Y-59697000D01*
D28*
X52992157Y-61475000D02*
X52865157Y-61475000D01*
D31*
X56167157Y-42425000D02*
X57437157Y-43695000D01*
D28*
X46812157Y-48270000D02*
X46812157Y-43865000D01*
D31*
X58302657Y-47862500D02*
X60787157Y-47862500D01*
D28*
X48402157Y-62600000D02*
X46762157Y-62600000D01*
X46812157Y-43865000D02*
X45372157Y-42425000D01*
D31*
X39657157Y-42425000D02*
X45372157Y-42425000D01*
X57437157Y-60840000D02*
X58580157Y-60840000D01*
X58580157Y-60840000D02*
X60003157Y-62263000D01*
X57437157Y-59697000D02*
X57437157Y-60840000D01*
X34577157Y-37345000D02*
X39657157Y-42425000D01*
D28*
X52865157Y-61475000D02*
X51087157Y-59697000D01*
D29*
X37182157Y-44457000D02*
X37182157Y-57165000D01*
X71025157Y-72955000D02*
X72677157Y-71303000D01*
X39657157Y-62285000D02*
X38607157Y-63335000D01*
D30*
X38482157Y-54764878D02*
X39197157Y-55479878D01*
X38482157Y-48950000D02*
X38482157Y-54764878D01*
X40347157Y-47085000D02*
X38482157Y-48950000D01*
X39197157Y-61825000D02*
X39657157Y-62285000D01*
D29*
X42603557Y-72955000D02*
X71025157Y-72955000D01*
D30*
X40347157Y-46235000D02*
X40347157Y-47085000D01*
D29*
X38607157Y-68958600D02*
X42603557Y-72955000D01*
D30*
X39197157Y-55479878D02*
X39197157Y-61825000D01*
D29*
X38607157Y-63335000D02*
X38607157Y-68958600D01*
D28*
X58542657Y-64485500D02*
X61230157Y-64485500D01*
X57682657Y-64485500D02*
X54942157Y-61745000D01*
X54942157Y-61745000D02*
X54643157Y-61745000D01*
X58542657Y-64485500D02*
X57682657Y-64485500D01*
X63401677Y-67460000D02*
X66321177Y-64540500D01*
X61501157Y-67460000D02*
X63401677Y-67460000D01*
D32*
X36268628Y-46235000D02*
X34807157Y-47696471D01*
X34807157Y-57816040D02*
X35156117Y-58165000D01*
X34807157Y-47696471D02*
X34807157Y-57816040D01*
X36355157Y-46235000D02*
X36268628Y-46235000D01*
X35156117Y-58165000D02*
X35782157Y-58165000D01*
G04 #@! TA.AperFunction,Conductor*
G36*
X42118097Y-63487973D02*
G01*
X42159607Y-63544176D01*
X42162224Y-63552164D01*
X42200872Y-63685193D01*
X42200874Y-63685196D01*
X42284471Y-63826552D01*
X42284478Y-63826561D01*
X42400595Y-63942678D01*
X42400604Y-63942685D01*
X42541960Y-64026282D01*
X42541963Y-64026283D01*
X42699661Y-64072099D01*
X42699667Y-64072100D01*
X42736509Y-64074999D01*
X42737515Y-64075039D01*
X42737668Y-64075090D01*
X42738942Y-64075191D01*
X42738916Y-64075511D01*
X42803732Y-64097335D01*
X42847383Y-64151891D01*
X42856657Y-64198944D01*
X42856657Y-65950553D01*
X42836972Y-66017592D01*
X42784168Y-66063347D01*
X42738876Y-66074139D01*
X42738890Y-66074309D01*
X42737808Y-66074394D01*
X42737549Y-66074456D01*
X42736491Y-66074497D01*
X42699589Y-66077401D01*
X42699583Y-66077402D01*
X42541763Y-66123254D01*
X42541760Y-66123255D01*
X42400294Y-66206917D01*
X42400286Y-66206923D01*
X42284080Y-66323129D01*
X42284074Y-66323137D01*
X42200412Y-66464603D01*
X42200411Y-66464606D01*
X42154559Y-66622426D01*
X42154558Y-66622432D01*
X42151657Y-66659298D01*
X42151657Y-66909836D01*
X42131972Y-66976875D01*
X42129432Y-66980672D01*
X42072864Y-67061947D01*
X41992616Y-67248943D01*
X41951657Y-67448258D01*
X41951657Y-69771360D01*
X41951617Y-69774500D01*
X41949400Y-69862001D01*
X41949400Y-69862010D01*
X41959805Y-69920059D01*
X41961113Y-69929387D01*
X41967082Y-69988069D01*
X41967084Y-69988083D01*
X41976190Y-70017107D01*
X41979929Y-70032340D01*
X41985299Y-70062292D01*
X41985299Y-70062294D01*
X42007177Y-70117063D01*
X42010334Y-70125931D01*
X42027998Y-70182227D01*
X42027999Y-70182228D01*
X42028001Y-70182234D01*
X42042760Y-70208824D01*
X42049493Y-70223000D01*
X42060779Y-70251253D01*
X42060784Y-70251263D01*
X42093237Y-70300505D01*
X42098119Y-70308562D01*
X42126745Y-70360137D01*
X42126746Y-70360139D01*
X42126748Y-70360141D01*
X42146567Y-70383227D01*
X42156012Y-70395754D01*
X42172756Y-70421160D01*
X42214456Y-70462859D01*
X42220861Y-70469770D01*
X42259287Y-70514531D01*
X42283350Y-70533157D01*
X42295129Y-70543532D01*
X43869417Y-72117819D01*
X43902902Y-72179142D01*
X43897918Y-72248834D01*
X43856046Y-72304767D01*
X43790582Y-72329184D01*
X43781736Y-72329500D01*
X42914009Y-72329500D01*
X42846970Y-72309815D01*
X42826328Y-72293181D01*
X41047678Y-70514531D01*
X40198357Y-69665209D01*
X40164873Y-69603888D01*
X40169857Y-69534196D01*
X40211729Y-69478263D01*
X40273439Y-69454172D01*
X40284853Y-69453006D01*
X40451276Y-69397858D01*
X40451281Y-69397856D01*
X40600502Y-69305815D01*
X40724472Y-69181845D01*
X40816513Y-69032624D01*
X40816515Y-69032619D01*
X40871662Y-68866197D01*
X40871663Y-68866190D01*
X40882156Y-68763486D01*
X40882157Y-68763473D01*
X40882157Y-68626000D01*
X39531157Y-68626000D01*
X39464118Y-68606315D01*
X39418363Y-68553511D01*
X39407157Y-68502000D01*
X39407157Y-68250000D01*
X39426842Y-68182961D01*
X39479646Y-68137206D01*
X39531157Y-68126000D01*
X40882156Y-68126000D01*
X40882156Y-67988528D01*
X40882155Y-67988513D01*
X40871662Y-67885802D01*
X40816515Y-67719380D01*
X40816513Y-67719375D01*
X40724472Y-67570154D01*
X40600501Y-67446183D01*
X40600498Y-67446181D01*
X40597496Y-67444329D01*
X40595870Y-67442521D01*
X40594834Y-67441702D01*
X40594974Y-67441524D01*
X40550774Y-67392380D01*
X40539554Y-67323417D01*
X40567400Y-67259336D01*
X40597501Y-67233254D01*
X40600813Y-67231212D01*
X40724869Y-67107156D01*
X40816971Y-66957834D01*
X40872156Y-66791297D01*
X40882657Y-66688509D01*
X40882656Y-65913492D01*
X40872156Y-65810703D01*
X40816971Y-65644166D01*
X40724869Y-65494844D01*
X40693976Y-65463951D01*
X40660491Y-65402628D01*
X40657657Y-65376270D01*
X40657657Y-65197230D01*
X40677342Y-65130191D01*
X40693976Y-65109549D01*
X40699869Y-65103656D01*
X40791971Y-64954334D01*
X40847156Y-64787797D01*
X40857657Y-64685009D01*
X40857656Y-64607973D01*
X40877340Y-64540935D01*
X40921472Y-64499558D01*
X40922616Y-64498922D01*
X40930774Y-64494394D01*
X40944949Y-64487662D01*
X40973204Y-64476377D01*
X41022466Y-64443909D01*
X41030497Y-64439043D01*
X41082089Y-64410409D01*
X41082096Y-64410402D01*
X41082099Y-64410401D01*
X41105170Y-64390594D01*
X41117712Y-64381137D01*
X41143106Y-64364402D01*
X41184824Y-64322682D01*
X41191709Y-64316301D01*
X41236482Y-64277866D01*
X41255107Y-64253802D01*
X41265467Y-64242039D01*
X41754566Y-63752940D01*
X41756735Y-63750825D01*
X41820210Y-63690489D01*
X41853907Y-63642074D01*
X41859574Y-63634556D01*
X41896855Y-63588837D01*
X41910945Y-63561860D01*
X41919066Y-63548456D01*
X41936452Y-63523479D01*
X41936452Y-63523477D01*
X41940047Y-63518314D01*
X41941852Y-63519570D01*
X41984424Y-63477546D01*
X42052792Y-63463135D01*
X42118097Y-63487973D01*
G37*
G04 #@! TD.AperFunction*
G04 #@! TA.AperFunction,Conductor*
G36*
X70065991Y-59341314D02*
G01*
X70121924Y-59383186D01*
X70146341Y-59448650D01*
X70146657Y-59457496D01*
X70146657Y-64974546D01*
X70126972Y-65041585D01*
X70110338Y-65062227D01*
X67213365Y-67959199D01*
X67201108Y-67969020D01*
X67201291Y-67969241D01*
X67195279Y-67974214D01*
X67149255Y-68023223D01*
X67146548Y-68026016D01*
X67127046Y-68045517D01*
X67127032Y-68045534D01*
X67124564Y-68048715D01*
X67117000Y-68057570D01*
X67087094Y-68089418D01*
X67087093Y-68089420D01*
X67077441Y-68106976D01*
X67066767Y-68123226D01*
X67054486Y-68139061D01*
X67054481Y-68139068D01*
X67037132Y-68179158D01*
X67031995Y-68189644D01*
X67010960Y-68227906D01*
X67005979Y-68247307D01*
X66999678Y-68265710D01*
X66991719Y-68284102D01*
X66991718Y-68284105D01*
X66984885Y-68327243D01*
X66982517Y-68338674D01*
X66971658Y-68380971D01*
X66971657Y-68380982D01*
X66971657Y-68401016D01*
X66970130Y-68420415D01*
X66966997Y-68440194D01*
X66966997Y-68440195D01*
X66971107Y-68483674D01*
X66971657Y-68495343D01*
X66971657Y-70027773D01*
X66951972Y-70094812D01*
X66918780Y-70129348D01*
X66725754Y-70264505D01*
X66558662Y-70431597D01*
X66423122Y-70625169D01*
X66423121Y-70625171D01*
X66323255Y-70839335D01*
X66323251Y-70839344D01*
X66262095Y-71067586D01*
X66262093Y-71067596D01*
X66241498Y-71302999D01*
X66241498Y-71303000D01*
X66262093Y-71538403D01*
X66262095Y-71538413D01*
X66323251Y-71766655D01*
X66323253Y-71766659D01*
X66323254Y-71766663D01*
X66327157Y-71775032D01*
X66423122Y-71980830D01*
X66423124Y-71980834D01*
X66530636Y-72134377D01*
X66552963Y-72200583D01*
X66535953Y-72268350D01*
X66485005Y-72316163D01*
X66429061Y-72329500D01*
X53417996Y-72329500D01*
X53350957Y-72309815D01*
X53305202Y-72257011D01*
X53295258Y-72187853D01*
X53324283Y-72124297D01*
X53330315Y-72117819D01*
X54951314Y-70496819D01*
X55012637Y-70463334D01*
X55038995Y-70460500D01*
X60641025Y-70460500D01*
X60706120Y-70478960D01*
X60731823Y-70494814D01*
X60898360Y-70549999D01*
X61001148Y-70560500D01*
X62001165Y-70560499D01*
X62001173Y-70560498D01*
X62001176Y-70560498D01*
X62057459Y-70554748D01*
X62103954Y-70549999D01*
X62270491Y-70494814D01*
X62419813Y-70402712D01*
X62543869Y-70278656D01*
X62635971Y-70129334D01*
X62691156Y-69962797D01*
X62701657Y-69860009D01*
X62701656Y-69059992D01*
X62695725Y-69001935D01*
X62691156Y-68957203D01*
X62691155Y-68957200D01*
X62664200Y-68875855D01*
X62635971Y-68790666D01*
X62619206Y-68763486D01*
X62548959Y-68649596D01*
X62530519Y-68582204D01*
X62551442Y-68515541D01*
X62605084Y-68470771D01*
X62654498Y-68460500D01*
X63387398Y-68460500D01*
X63390540Y-68460540D01*
X63478035Y-68462757D01*
X63478035Y-68462756D01*
X63478040Y-68462757D01*
X63536102Y-68452349D01*
X63545431Y-68451041D01*
X63604115Y-68445074D01*
X63633148Y-68435964D01*
X63648377Y-68432226D01*
X63678330Y-68426858D01*
X63678334Y-68426856D01*
X63678336Y-68426856D01*
X63733100Y-68404980D01*
X63741969Y-68401821D01*
X63798265Y-68384159D01*
X63824877Y-68369387D01*
X63839039Y-68362662D01*
X63867294Y-68351377D01*
X63916556Y-68318909D01*
X63924587Y-68314043D01*
X63976179Y-68285409D01*
X63976186Y-68285402D01*
X63976189Y-68285401D01*
X63999260Y-68265594D01*
X64011802Y-68256137D01*
X64014594Y-68254297D01*
X64037196Y-68239402D01*
X64078914Y-68197682D01*
X64085799Y-68191301D01*
X64130572Y-68152866D01*
X64149197Y-68128802D01*
X64159557Y-68117039D01*
X67064517Y-65212081D01*
X67160874Y-65093908D01*
X67255086Y-64913549D01*
X67291566Y-64786051D01*
X67311514Y-64745856D01*
X67354953Y-64687831D01*
X67356004Y-64685015D01*
X67375808Y-64631916D01*
X67405248Y-64552983D01*
X67411657Y-64493373D01*
X67411656Y-63992628D01*
X67405248Y-63933017D01*
X67405247Y-63933014D01*
X67404520Y-63926250D01*
X67404521Y-63899740D01*
X67411656Y-63833380D01*
X67411657Y-63833373D01*
X67411656Y-63332628D01*
X67405248Y-63273017D01*
X67405247Y-63273014D01*
X67404520Y-63266250D01*
X67404521Y-63239740D01*
X67407413Y-63212848D01*
X67411657Y-63173373D01*
X67411656Y-62672628D01*
X67405248Y-62613017D01*
X67405247Y-62613014D01*
X67404520Y-62606250D01*
X67404521Y-62579740D01*
X67406251Y-62563656D01*
X67411657Y-62513373D01*
X67411656Y-62012628D01*
X67411116Y-62007613D01*
X67410407Y-61994360D01*
X67410407Y-61945746D01*
X67430092Y-61878707D01*
X67446726Y-61858065D01*
X69934976Y-59369815D01*
X69996299Y-59336330D01*
X70065991Y-59341314D01*
G37*
G04 #@! TD.AperFunction*
G04 #@! TA.AperFunction,Conductor*
G36*
X43252874Y-60225185D02*
G01*
X43298629Y-60277989D01*
X43309055Y-60315617D01*
X43316787Y-60384249D01*
X43376367Y-60554521D01*
X43472341Y-60707262D01*
X43560338Y-60795259D01*
X43593823Y-60856582D01*
X43596657Y-60882940D01*
X43596657Y-61094888D01*
X43576972Y-61161927D01*
X43524168Y-61207682D01*
X43455010Y-61217626D01*
X43409537Y-61201621D01*
X43362351Y-61173716D01*
X43204651Y-61127900D01*
X43204654Y-61127900D01*
X43202157Y-61127703D01*
X43202157Y-62726000D01*
X43182472Y-62793039D01*
X43129668Y-62838794D01*
X43078157Y-62850000D01*
X42826157Y-62850000D01*
X42759118Y-62830315D01*
X42713363Y-62777511D01*
X42702157Y-62726000D01*
X42702157Y-61127703D01*
X42699660Y-61127900D01*
X42541963Y-61173716D01*
X42541960Y-61173717D01*
X42400604Y-61257314D01*
X42400595Y-61257321D01*
X42284478Y-61373438D01*
X42279694Y-61379607D01*
X42277015Y-61377529D01*
X42236963Y-61414685D01*
X42168182Y-61426968D01*
X42103679Y-61400114D01*
X42063933Y-61342651D01*
X42057657Y-61303702D01*
X42057657Y-60329500D01*
X42077342Y-60262461D01*
X42130146Y-60216706D01*
X42181657Y-60205500D01*
X43185835Y-60205500D01*
X43252874Y-60225185D01*
G37*
G04 #@! TD.AperFunction*
G04 #@! TA.AperFunction,Conductor*
G36*
X52769694Y-58685185D02*
G01*
X52815449Y-58737989D01*
X52825393Y-58807147D01*
X52820361Y-58828504D01*
X52782651Y-58942302D01*
X52782650Y-58942309D01*
X52772157Y-59045013D01*
X52772157Y-59320000D01*
X53985657Y-59320000D01*
X54052696Y-59339685D01*
X54098451Y-59392489D01*
X54109657Y-59444000D01*
X54109657Y-59696000D01*
X54089972Y-59763039D01*
X54037168Y-59808794D01*
X53985657Y-59820000D01*
X52760401Y-59820000D01*
X52724972Y-59839345D01*
X52655281Y-59834359D01*
X52610936Y-59805859D01*
X52223975Y-59418898D01*
X52190490Y-59357575D01*
X52187656Y-59331217D01*
X52187656Y-59196998D01*
X52187655Y-59196981D01*
X52177156Y-59094203D01*
X52177155Y-59094200D01*
X52155524Y-59028923D01*
X52121971Y-58927666D01*
X52076900Y-58854594D01*
X52058461Y-58787205D01*
X52079383Y-58720541D01*
X52133025Y-58675771D01*
X52182440Y-58665500D01*
X52702655Y-58665500D01*
X52769694Y-58685185D01*
G37*
G04 #@! TD.AperFunction*
G04 #@! TA.AperFunction,Conductor*
G36*
X42150559Y-49189031D02*
G01*
X42206492Y-49230903D01*
X42226301Y-49270617D01*
X42250873Y-49355195D01*
X42250874Y-49355196D01*
X42334471Y-49496552D01*
X42334478Y-49496561D01*
X42450595Y-49612678D01*
X42450604Y-49612685D01*
X42591960Y-49696282D01*
X42591963Y-49696283D01*
X42749661Y-49742099D01*
X42749667Y-49742100D01*
X42786509Y-49744999D01*
X42787515Y-49745039D01*
X42787668Y-49745090D01*
X42788942Y-49745191D01*
X42788916Y-49745511D01*
X42853732Y-49767335D01*
X42897383Y-49821891D01*
X42906657Y-49868944D01*
X42906657Y-51620553D01*
X42886972Y-51687592D01*
X42834168Y-51733347D01*
X42788876Y-51744139D01*
X42788890Y-51744309D01*
X42787808Y-51744394D01*
X42787549Y-51744456D01*
X42786491Y-51744497D01*
X42749589Y-51747401D01*
X42749583Y-51747402D01*
X42591763Y-51793254D01*
X42591760Y-51793255D01*
X42450294Y-51876917D01*
X42450286Y-51876923D01*
X42334080Y-51993129D01*
X42334074Y-51993137D01*
X42250412Y-52134603D01*
X42250411Y-52134606D01*
X42204559Y-52292426D01*
X42204558Y-52292432D01*
X42201657Y-52329298D01*
X42201657Y-52579836D01*
X42181972Y-52646875D01*
X42179432Y-52650672D01*
X42122864Y-52731947D01*
X42042616Y-52918943D01*
X42001657Y-53118258D01*
X42001657Y-55499833D01*
X42001617Y-55502973D01*
X41999400Y-55590474D01*
X41999400Y-55590483D01*
X42009805Y-55648532D01*
X42011113Y-55657860D01*
X42017082Y-55716542D01*
X42017084Y-55716556D01*
X42026190Y-55745580D01*
X42029929Y-55760813D01*
X42035299Y-55790765D01*
X42035299Y-55790767D01*
X42050637Y-55829165D01*
X42056875Y-55844782D01*
X42057177Y-55845536D01*
X42060334Y-55854404D01*
X42077998Y-55910700D01*
X42077999Y-55910701D01*
X42078001Y-55910707D01*
X42092760Y-55937297D01*
X42099493Y-55951473D01*
X42110779Y-55979726D01*
X42110784Y-55979736D01*
X42143237Y-56028978D01*
X42148119Y-56037035D01*
X42176745Y-56088610D01*
X42176746Y-56088612D01*
X42176748Y-56088614D01*
X42196567Y-56111700D01*
X42206012Y-56124227D01*
X42222756Y-56149633D01*
X42264456Y-56191332D01*
X42270861Y-56198243D01*
X42309287Y-56243004D01*
X42333350Y-56261630D01*
X42345129Y-56272005D01*
X43210174Y-57137050D01*
X44065944Y-57992819D01*
X44099429Y-58054142D01*
X44094445Y-58123834D01*
X44052573Y-58179767D01*
X43987109Y-58204184D01*
X43978263Y-58204500D01*
X41687435Y-58204500D01*
X41684295Y-58204460D01*
X41647811Y-58203535D01*
X41596794Y-58202243D01*
X41596793Y-58202243D01*
X41596784Y-58202243D01*
X41538729Y-58212649D01*
X41529400Y-58213958D01*
X41470719Y-58219925D01*
X41441689Y-58229033D01*
X41426451Y-58232773D01*
X41396506Y-58238140D01*
X41396504Y-58238141D01*
X41341711Y-58260026D01*
X41332842Y-58263183D01*
X41276574Y-58280838D01*
X41276563Y-58280843D01*
X41249971Y-58295602D01*
X41235802Y-58302332D01*
X41207537Y-58313623D01*
X41207530Y-58313627D01*
X41158279Y-58346086D01*
X41150223Y-58350967D01*
X41098659Y-58379588D01*
X41098656Y-58379590D01*
X41075562Y-58399414D01*
X41063040Y-58408855D01*
X41037639Y-58425598D01*
X41037632Y-58425603D01*
X40995938Y-58467297D01*
X40989031Y-58473698D01*
X40944263Y-58512132D01*
X40944262Y-58512133D01*
X40925637Y-58536194D01*
X40915264Y-58547971D01*
X40359803Y-59103432D01*
X40357556Y-59105624D01*
X40294103Y-59165942D01*
X40260402Y-59214361D01*
X40254731Y-59221882D01*
X40217459Y-59267592D01*
X40217455Y-59267598D01*
X40203366Y-59294568D01*
X40195239Y-59307983D01*
X40179316Y-59330863D01*
X40174272Y-59338110D01*
X40172242Y-59336697D01*
X40130300Y-59378040D01*
X40061922Y-59392401D01*
X39996635Y-59367514D01*
X39955167Y-59311281D01*
X39947657Y-59268784D01*
X39947657Y-55543583D01*
X39948966Y-55525613D01*
X39952282Y-55502973D01*
X39952446Y-55501855D01*
X39948129Y-55452508D01*
X39947657Y-55441700D01*
X39947657Y-55436174D01*
X39947657Y-55436169D01*
X39944058Y-55405387D01*
X39943693Y-55401806D01*
X39939407Y-55352803D01*
X39953175Y-55284304D01*
X40001792Y-55234122D01*
X40062935Y-55217999D01*
X40182129Y-55217999D01*
X40182143Y-55217998D01*
X40284854Y-55207505D01*
X40451276Y-55152358D01*
X40451281Y-55152356D01*
X40600502Y-55060315D01*
X40724472Y-54936345D01*
X40816513Y-54787124D01*
X40816515Y-54787119D01*
X40871662Y-54620697D01*
X40871663Y-54620690D01*
X40882156Y-54517986D01*
X40882157Y-54517973D01*
X40882157Y-54380500D01*
X39531157Y-54380500D01*
X39464118Y-54360815D01*
X39418363Y-54308011D01*
X39407157Y-54256500D01*
X39407157Y-54004500D01*
X39426842Y-53937461D01*
X39479646Y-53891706D01*
X39531157Y-53880500D01*
X40882156Y-53880500D01*
X40882156Y-53743028D01*
X40882155Y-53743013D01*
X40871662Y-53640302D01*
X40816515Y-53473880D01*
X40816513Y-53473875D01*
X40724472Y-53324654D01*
X40600501Y-53200683D01*
X40600498Y-53200681D01*
X40597496Y-53198829D01*
X40595870Y-53197021D01*
X40594834Y-53196202D01*
X40594974Y-53196024D01*
X40550774Y-53146880D01*
X40539554Y-53077917D01*
X40567400Y-53013836D01*
X40597501Y-52987754D01*
X40600813Y-52985712D01*
X40724869Y-52861656D01*
X40816971Y-52712334D01*
X40872156Y-52545797D01*
X40882657Y-52443009D01*
X40882656Y-51667992D01*
X40882613Y-51667575D01*
X40872156Y-51565203D01*
X40872155Y-51565200D01*
X40848646Y-51494255D01*
X40816971Y-51398666D01*
X40724869Y-51249344D01*
X40693976Y-51218451D01*
X40660491Y-51157128D01*
X40657657Y-51130770D01*
X40657657Y-50687230D01*
X40677342Y-50620191D01*
X40693976Y-50599549D01*
X40699869Y-50593656D01*
X40779516Y-50464524D01*
X40786990Y-50453734D01*
X40794675Y-50443806D01*
X40805041Y-50432035D01*
X42019546Y-49217530D01*
X42080867Y-49184047D01*
X42150559Y-49189031D01*
G37*
G04 #@! TD.AperFunction*
G04 #@! TA.AperFunction,Conductor*
G36*
X49431966Y-44445185D02*
G01*
X49452608Y-44461819D01*
X49503108Y-44512319D01*
X49536593Y-44573642D01*
X49531609Y-44643334D01*
X49503108Y-44687681D01*
X49409446Y-44781342D01*
X49317344Y-44930663D01*
X49317342Y-44930668D01*
X49315168Y-44937229D01*
X49262158Y-45097203D01*
X49262158Y-45097204D01*
X49262157Y-45097204D01*
X49251657Y-45199983D01*
X49251657Y-46000001D01*
X49251658Y-46000019D01*
X49262157Y-46102796D01*
X49262158Y-46102799D01*
X49290165Y-46187316D01*
X49317343Y-46269334D01*
X49406730Y-46414255D01*
X49409446Y-46418657D01*
X49415338Y-46424549D01*
X49448823Y-46485872D01*
X49451657Y-46512230D01*
X49451657Y-46522648D01*
X49431972Y-46589687D01*
X49379168Y-46635442D01*
X49340912Y-46645938D01*
X49294673Y-46650909D01*
X49159828Y-46701202D01*
X49159821Y-46701206D01*
X49044612Y-46787452D01*
X49044609Y-46787455D01*
X48958363Y-46902664D01*
X48958359Y-46902671D01*
X48908065Y-47037517D01*
X48901658Y-47097116D01*
X48901658Y-47097123D01*
X48901657Y-47097135D01*
X48901657Y-48592870D01*
X48901658Y-48592876D01*
X48908065Y-48652483D01*
X48958359Y-48787328D01*
X48958363Y-48787335D01*
X49044609Y-48902544D01*
X49044612Y-48902547D01*
X49159821Y-48988793D01*
X49159828Y-48988797D01*
X49294674Y-49039091D01*
X49294673Y-49039091D01*
X49301601Y-49039835D01*
X49354284Y-49045500D01*
X51550029Y-49045499D01*
X51609640Y-49039091D01*
X51744488Y-48988796D01*
X51859703Y-48902546D01*
X51945953Y-48787331D01*
X51996248Y-48652483D01*
X52002657Y-48592873D01*
X52002656Y-47097128D01*
X51996248Y-47037517D01*
X51991671Y-47025246D01*
X51945954Y-46902671D01*
X51945950Y-46902664D01*
X51859704Y-46787455D01*
X51859701Y-46787452D01*
X51744492Y-46701206D01*
X51744485Y-46701202D01*
X51609640Y-46650908D01*
X51563400Y-46645937D01*
X51498850Y-46619199D01*
X51459002Y-46561806D01*
X51452657Y-46522648D01*
X51452657Y-46512230D01*
X51472342Y-46445191D01*
X51488976Y-46424549D01*
X51494869Y-46418656D01*
X51586971Y-46269334D01*
X51595115Y-46244757D01*
X51634883Y-46187316D01*
X51699398Y-46160491D01*
X51768174Y-46172805D01*
X51819376Y-46220346D01*
X51830524Y-46244757D01*
X51832796Y-46251615D01*
X51832800Y-46251624D01*
X51924841Y-46400845D01*
X52048811Y-46524815D01*
X52198032Y-46616856D01*
X52198037Y-46616858D01*
X52364459Y-46672005D01*
X52364466Y-46672006D01*
X52467176Y-46682499D01*
X52742156Y-46682499D01*
X52742157Y-46682498D01*
X52742157Y-45469000D01*
X52761842Y-45401961D01*
X52814646Y-45356206D01*
X52866157Y-45345000D01*
X54217156Y-45345000D01*
X54217156Y-45207528D01*
X54217155Y-45207513D01*
X54206662Y-45104802D01*
X54151515Y-44938380D01*
X54151513Y-44938375D01*
X54059472Y-44789154D01*
X53935501Y-44665183D01*
X53935498Y-44665181D01*
X53932496Y-44663329D01*
X53930870Y-44661521D01*
X53929834Y-44660702D01*
X53929974Y-44660524D01*
X53885774Y-44611380D01*
X53874554Y-44542417D01*
X53902400Y-44478336D01*
X53932501Y-44452254D01*
X53935813Y-44450212D01*
X53935816Y-44450208D01*
X53941968Y-44446415D01*
X53943105Y-44448259D01*
X53998055Y-44426093D01*
X54010167Y-44425500D01*
X55287161Y-44425500D01*
X55354200Y-44445185D01*
X55374842Y-44461819D01*
X55400338Y-44487315D01*
X55433823Y-44548638D01*
X55436657Y-44574996D01*
X55436657Y-45440312D01*
X55416972Y-45507351D01*
X55364168Y-45553106D01*
X55295010Y-45563050D01*
X55258050Y-45551641D01*
X55246428Y-45545940D01*
X55049442Y-45494937D01*
X55049444Y-45494937D01*
X54913961Y-45488066D01*
X54846221Y-45484631D01*
X54846220Y-45484631D01*
X54846218Y-45484631D01*
X54645093Y-45515442D01*
X54645081Y-45515445D01*
X54454275Y-45586111D01*
X54454268Y-45586115D01*
X54281589Y-45693745D01*
X54281584Y-45693749D01*
X54158370Y-45810874D01*
X54096219Y-45842795D01*
X54072938Y-45845000D01*
X53242157Y-45845000D01*
X53242157Y-46682499D01*
X53517129Y-46682499D01*
X53517143Y-46682498D01*
X53619852Y-46672006D01*
X53733652Y-46634296D01*
X53803481Y-46631894D01*
X53863523Y-46667625D01*
X53894716Y-46730146D01*
X53896657Y-46752002D01*
X53896657Y-46862770D01*
X53876972Y-46929809D01*
X53860338Y-46950451D01*
X53854446Y-46956342D01*
X53762344Y-47105663D01*
X53762343Y-47105666D01*
X53707158Y-47272203D01*
X53707158Y-47272204D01*
X53707157Y-47272204D01*
X53696657Y-47374983D01*
X53696657Y-48175001D01*
X53696658Y-48175019D01*
X53707157Y-48277796D01*
X53707158Y-48277799D01*
X53762342Y-48444331D01*
X53762344Y-48444336D01*
X53765975Y-48450223D01*
X53853968Y-48592883D01*
X53854446Y-48593657D01*
X53913225Y-48652436D01*
X53946710Y-48713759D01*
X53941726Y-48783451D01*
X53899854Y-48839384D01*
X53885720Y-48848537D01*
X53854970Y-48865604D01*
X53840795Y-48872336D01*
X53812539Y-48883623D01*
X53812535Y-48883625D01*
X53763279Y-48916086D01*
X53755226Y-48920965D01*
X53703658Y-48949588D01*
X53680570Y-48969408D01*
X53668044Y-48978852D01*
X53642642Y-48995594D01*
X53642635Y-48995600D01*
X53600931Y-49037303D01*
X53594026Y-49043703D01*
X53549259Y-49082136D01*
X53530637Y-49106193D01*
X53520265Y-49117969D01*
X51630053Y-51008181D01*
X51568730Y-51041666D01*
X51542372Y-51044500D01*
X49354286Y-51044500D01*
X49354280Y-51044501D01*
X49294673Y-51050908D01*
X49159828Y-51101202D01*
X49159821Y-51101206D01*
X49044612Y-51187452D01*
X49044609Y-51187455D01*
X48958363Y-51302664D01*
X48958359Y-51302671D01*
X48908065Y-51437517D01*
X48901658Y-51497116D01*
X48901657Y-51497135D01*
X48901657Y-52095500D01*
X48881972Y-52162539D01*
X48829168Y-52208294D01*
X48777657Y-52219500D01*
X47681668Y-52219500D01*
X47614629Y-52199815D01*
X47568874Y-52147011D01*
X47566472Y-52140544D01*
X47563900Y-52134600D01*
X47480239Y-51993137D01*
X47480238Y-51993135D01*
X47480236Y-51993133D01*
X47480233Y-51993129D01*
X47364027Y-51876923D01*
X47364019Y-51876917D01*
X47263147Y-51817262D01*
X47222555Y-51793256D01*
X47222554Y-51793255D01*
X47222553Y-51793255D01*
X47222550Y-51793254D01*
X47064730Y-51747402D01*
X47064724Y-51747401D01*
X47027847Y-51744499D01*
X47026765Y-51744457D01*
X47026600Y-51744401D01*
X47025424Y-51744309D01*
X47025447Y-51744012D01*
X46960554Y-51722143D01*
X46916918Y-51667575D01*
X46907656Y-51620557D01*
X46907656Y-49869445D01*
X46927341Y-49802407D01*
X46980145Y-49756652D01*
X47025437Y-49745865D01*
X47025424Y-49745691D01*
X47026538Y-49745603D01*
X47026800Y-49745541D01*
X47027830Y-49745500D01*
X47027851Y-49745500D01*
X47064726Y-49742598D01*
X47064728Y-49742597D01*
X47064730Y-49742597D01*
X47106348Y-49730505D01*
X47222555Y-49696744D01*
X47364022Y-49613081D01*
X47480238Y-49496865D01*
X47563901Y-49355398D01*
X47597662Y-49239191D01*
X47609754Y-49197573D01*
X47609755Y-49197567D01*
X47612656Y-49160701D01*
X47612657Y-49160694D01*
X47612657Y-48910162D01*
X47632342Y-48843123D01*
X47634882Y-48839325D01*
X47691452Y-48758049D01*
X47771697Y-48571058D01*
X47812657Y-48371741D01*
X47812657Y-44549500D01*
X47832342Y-44482461D01*
X47885146Y-44436706D01*
X47936657Y-44425500D01*
X49364927Y-44425500D01*
X49431966Y-44445185D01*
G37*
G04 #@! TD.AperFunction*
G04 #@! TA.AperFunction,Conductor*
G36*
X43255240Y-45985185D02*
G01*
X43300995Y-46037989D01*
X43311421Y-46103383D01*
X43296592Y-46234996D01*
X43296592Y-46235003D01*
X43316787Y-46414249D01*
X43316788Y-46414254D01*
X43376367Y-46584521D01*
X43376368Y-46584522D01*
X43394152Y-46612825D01*
X43413153Y-46680061D01*
X43392786Y-46746896D01*
X43339519Y-46792111D01*
X43270263Y-46801350D01*
X43254780Y-46797923D01*
X43254654Y-46797900D01*
X43252157Y-46797703D01*
X43252157Y-48396000D01*
X43232472Y-48463039D01*
X43179668Y-48508794D01*
X43128157Y-48520000D01*
X42876157Y-48520000D01*
X42809118Y-48500315D01*
X42763363Y-48447511D01*
X42752157Y-48396000D01*
X42752157Y-46797703D01*
X42749660Y-46797900D01*
X42594252Y-46843051D01*
X42524382Y-46842852D01*
X42465712Y-46804910D01*
X42436869Y-46741271D01*
X42435657Y-46723975D01*
X42435657Y-46192783D01*
X42455342Y-46125744D01*
X42471976Y-46105102D01*
X42575259Y-46001819D01*
X42636582Y-45968334D01*
X42662940Y-45965500D01*
X43188201Y-45965500D01*
X43255240Y-45985185D01*
G37*
G04 #@! TD.AperFunction*
G04 #@! TA.AperFunction,Conductor*
G36*
X79329696Y-30715185D02*
G01*
X79375451Y-30767989D01*
X79386657Y-30819500D01*
X79386657Y-79570500D01*
X79366972Y-79637539D01*
X79314168Y-79683294D01*
X79262657Y-79694500D01*
X30501657Y-79694500D01*
X30434618Y-79674815D01*
X30388863Y-79622011D01*
X30377657Y-79570500D01*
X30377657Y-75000000D01*
X30995176Y-75000000D01*
X31014461Y-75392550D01*
X31072129Y-75781308D01*
X31167625Y-76162549D01*
X31300016Y-76532559D01*
X31300023Y-76532575D01*
X31468062Y-76887864D01*
X31670109Y-77224958D01*
X31904228Y-77540632D01*
X32000068Y-77646376D01*
X32000069Y-77646376D01*
X32246312Y-77400133D01*
X32307635Y-77366648D01*
X32377326Y-77371632D01*
X32426141Y-77404841D01*
X32537972Y-77529041D01*
X32537974Y-77529043D01*
X32586475Y-77564281D01*
X32629141Y-77619611D01*
X32635120Y-77689224D01*
X32602515Y-77751019D01*
X32601271Y-77752280D01*
X32353622Y-77999929D01*
X32353622Y-77999930D01*
X32459367Y-78095771D01*
X32775041Y-78329890D01*
X33112135Y-78531937D01*
X33467424Y-78699976D01*
X33467440Y-78699983D01*
X33837450Y-78832374D01*
X34218691Y-78927870D01*
X34607449Y-78985538D01*
X35000000Y-79004823D01*
X35392550Y-78985538D01*
X35781308Y-78927870D01*
X36162549Y-78832374D01*
X36532559Y-78699983D01*
X36532575Y-78699976D01*
X36887864Y-78531937D01*
X37224958Y-78329890D01*
X37540632Y-78095770D01*
X37646376Y-77999929D01*
X37398727Y-77752280D01*
X37365242Y-77690957D01*
X37370226Y-77621265D01*
X37412098Y-77565332D01*
X37413358Y-77564402D01*
X37462026Y-77529043D01*
X37573857Y-77404842D01*
X37633343Y-77368194D01*
X37703200Y-77369525D01*
X37753687Y-77400134D01*
X37999929Y-77646376D01*
X38095770Y-77540632D01*
X38329890Y-77224958D01*
X38531937Y-76887864D01*
X38699976Y-76532575D01*
X38699983Y-76532559D01*
X38832374Y-76162549D01*
X38884863Y-75953000D01*
X66241498Y-75953000D01*
X66262093Y-76188403D01*
X66262095Y-76188413D01*
X66323251Y-76416655D01*
X66323253Y-76416659D01*
X66323254Y-76416663D01*
X66403161Y-76588023D01*
X66423122Y-76630830D01*
X66423124Y-76630834D01*
X66496277Y-76735306D01*
X66558662Y-76824401D01*
X66725756Y-76991495D01*
X66822541Y-77059265D01*
X66919322Y-77127032D01*
X66919324Y-77127033D01*
X66919327Y-77127035D01*
X67133494Y-77226903D01*
X67361749Y-77288063D01*
X67538191Y-77303500D01*
X67597156Y-77308659D01*
X67597157Y-77308659D01*
X67597158Y-77308659D01*
X67656123Y-77303500D01*
X67832565Y-77288063D01*
X68060820Y-77226903D01*
X68274987Y-77127035D01*
X68468558Y-76991495D01*
X68635652Y-76824401D01*
X68765582Y-76638842D01*
X68820159Y-76595217D01*
X68889657Y-76588023D01*
X68952012Y-76619546D01*
X68968732Y-76638842D01*
X69098657Y-76824395D01*
X69098662Y-76824401D01*
X69265756Y-76991495D01*
X69362541Y-77059265D01*
X69459322Y-77127032D01*
X69459324Y-77127033D01*
X69459327Y-77127035D01*
X69673494Y-77226903D01*
X69901749Y-77288063D01*
X70078191Y-77303500D01*
X70137156Y-77308659D01*
X70137157Y-77308659D01*
X70137158Y-77308659D01*
X70196123Y-77303500D01*
X70372565Y-77288063D01*
X70600820Y-77226903D01*
X70814987Y-77127035D01*
X71008558Y-76991495D01*
X71175652Y-76824401D01*
X71305582Y-76638842D01*
X71360159Y-76595217D01*
X71429657Y-76588023D01*
X71492012Y-76619546D01*
X71508732Y-76638842D01*
X71638657Y-76824395D01*
X71638662Y-76824401D01*
X71805756Y-76991495D01*
X71902541Y-77059265D01*
X71999322Y-77127032D01*
X71999324Y-77127033D01*
X71999327Y-77127035D01*
X72213494Y-77226903D01*
X72441749Y-77288063D01*
X72618191Y-77303500D01*
X72677156Y-77308659D01*
X72677157Y-77308659D01*
X72677158Y-77308659D01*
X72736123Y-77303500D01*
X72912565Y-77288063D01*
X73140820Y-77226903D01*
X73354987Y-77127035D01*
X73548558Y-76991495D01*
X73670486Y-76869566D01*
X73731805Y-76836084D01*
X73801497Y-76841068D01*
X73857431Y-76882939D01*
X73874346Y-76913917D01*
X73923359Y-77045328D01*
X73923363Y-77045335D01*
X74009609Y-77160544D01*
X74009612Y-77160547D01*
X74124821Y-77246793D01*
X74124828Y-77246797D01*
X74259674Y-77297091D01*
X74259673Y-77297091D01*
X74266601Y-77297835D01*
X74319284Y-77303500D01*
X76115029Y-77303499D01*
X76174640Y-77297091D01*
X76309488Y-77246796D01*
X76424703Y-77160546D01*
X76510953Y-77045331D01*
X76561248Y-76910483D01*
X76567657Y-76850873D01*
X76567656Y-75055128D01*
X76561248Y-74995517D01*
X76559967Y-74992083D01*
X76510954Y-74860671D01*
X76510950Y-74860664D01*
X76424704Y-74745455D01*
X76424701Y-74745452D01*
X76309492Y-74659206D01*
X76309485Y-74659202D01*
X76174639Y-74608908D01*
X76174640Y-74608908D01*
X76115040Y-74602501D01*
X76115038Y-74602500D01*
X76115030Y-74602500D01*
X76115021Y-74602500D01*
X74319286Y-74602500D01*
X74319280Y-74602501D01*
X74259673Y-74608908D01*
X74124828Y-74659202D01*
X74124821Y-74659206D01*
X74009612Y-74745452D01*
X74009609Y-74745455D01*
X73923363Y-74860664D01*
X73923360Y-74860669D01*
X73874346Y-74992083D01*
X73832474Y-75048016D01*
X73767010Y-75072433D01*
X73698737Y-75057581D01*
X73670483Y-75036430D01*
X73548559Y-74914506D01*
X73548552Y-74914501D01*
X73354991Y-74778967D01*
X73354987Y-74778965D01*
X73354985Y-74778964D01*
X73140820Y-74679097D01*
X73140816Y-74679096D01*
X73140812Y-74679094D01*
X72912570Y-74617938D01*
X72912560Y-74617936D01*
X72677158Y-74597341D01*
X72677156Y-74597341D01*
X72441753Y-74617936D01*
X72441743Y-74617938D01*
X72213501Y-74679094D01*
X72213492Y-74679098D01*
X71999328Y-74778964D01*
X71999326Y-74778965D01*
X71805754Y-74914505D01*
X71638662Y-75081597D01*
X71508732Y-75267158D01*
X71454155Y-75310783D01*
X71384657Y-75317977D01*
X71322302Y-75286454D01*
X71305582Y-75267158D01*
X71175651Y-75081597D01*
X71008559Y-74914506D01*
X71008552Y-74914501D01*
X70814991Y-74778967D01*
X70814987Y-74778965D01*
X70814985Y-74778964D01*
X70600820Y-74679097D01*
X70600816Y-74679096D01*
X70600812Y-74679094D01*
X70372570Y-74617938D01*
X70372560Y-74617936D01*
X70137158Y-74597341D01*
X70137156Y-74597341D01*
X69901753Y-74617936D01*
X69901743Y-74617938D01*
X69673501Y-74679094D01*
X69673492Y-74679098D01*
X69459328Y-74778964D01*
X69459326Y-74778965D01*
X69265754Y-74914505D01*
X69098662Y-75081597D01*
X68968732Y-75267158D01*
X68914155Y-75310783D01*
X68844657Y-75317977D01*
X68782302Y-75286454D01*
X68765582Y-75267158D01*
X68635651Y-75081597D01*
X68468559Y-74914506D01*
X68468552Y-74914501D01*
X68274991Y-74778967D01*
X68274987Y-74778965D01*
X68274985Y-74778964D01*
X68060820Y-74679097D01*
X68060816Y-74679096D01*
X68060812Y-74679094D01*
X67832570Y-74617938D01*
X67832560Y-74617936D01*
X67597158Y-74597341D01*
X67597156Y-74597341D01*
X67361753Y-74617936D01*
X67361743Y-74617938D01*
X67133501Y-74679094D01*
X67133492Y-74679098D01*
X66919328Y-74778964D01*
X66919326Y-74778965D01*
X66725754Y-74914505D01*
X66558662Y-75081597D01*
X66423122Y-75275169D01*
X66423121Y-75275171D01*
X66323255Y-75489335D01*
X66323251Y-75489344D01*
X66262095Y-75717586D01*
X66262093Y-75717596D01*
X66241498Y-75952999D01*
X66241498Y-75953000D01*
X38884863Y-75953000D01*
X38927870Y-75781308D01*
X38985538Y-75392550D01*
X39004823Y-75000000D01*
X38985538Y-74607449D01*
X38927870Y-74218691D01*
X38832374Y-73837450D01*
X38699983Y-73467440D01*
X38699976Y-73467424D01*
X38531937Y-73112135D01*
X38329890Y-72775041D01*
X38095771Y-72459367D01*
X37999930Y-72353622D01*
X37999929Y-72353622D01*
X37753686Y-72599865D01*
X37692363Y-72633350D01*
X37622671Y-72628366D01*
X37573856Y-72595157D01*
X37462026Y-72470957D01*
X37413521Y-72435716D01*
X37370857Y-72380387D01*
X37364878Y-72310773D01*
X37397484Y-72248978D01*
X37398727Y-72247718D01*
X37646376Y-72000069D01*
X37646376Y-72000068D01*
X37540632Y-71904228D01*
X37224958Y-71670109D01*
X36887864Y-71468062D01*
X36532575Y-71300023D01*
X36532559Y-71300016D01*
X36162549Y-71167625D01*
X35781308Y-71072129D01*
X35392550Y-71014461D01*
X35000000Y-70995176D01*
X34607449Y-71014461D01*
X34218691Y-71072129D01*
X33837450Y-71167625D01*
X33467440Y-71300016D01*
X33467424Y-71300023D01*
X33112135Y-71468062D01*
X32775041Y-71670109D01*
X32459368Y-71904228D01*
X32353622Y-72000069D01*
X32601272Y-72247719D01*
X32634757Y-72309042D01*
X32629773Y-72378734D01*
X32587901Y-72434667D01*
X32586476Y-72435718D01*
X32537974Y-72470956D01*
X32537973Y-72470957D01*
X32426142Y-72595157D01*
X32366655Y-72631805D01*
X32296798Y-72630474D01*
X32246312Y-72599865D01*
X32000069Y-72353622D01*
X31904228Y-72459368D01*
X31670109Y-72775041D01*
X31468062Y-73112135D01*
X31300023Y-73467424D01*
X31300016Y-73467440D01*
X31167625Y-73837450D01*
X31072129Y-74218691D01*
X31014461Y-74607449D01*
X30995176Y-75000000D01*
X30377657Y-75000000D01*
X30377657Y-38892870D01*
X32576657Y-38892870D01*
X32576658Y-38892876D01*
X32583065Y-38952483D01*
X32633359Y-39087328D01*
X32633363Y-39087335D01*
X32719609Y-39202544D01*
X32719612Y-39202547D01*
X32834821Y-39288793D01*
X32834828Y-39288797D01*
X32861986Y-39298926D01*
X32969674Y-39339091D01*
X33029284Y-39345500D01*
X33697160Y-39345499D01*
X33764199Y-39365183D01*
X33784840Y-39381817D01*
X36047437Y-41644415D01*
X38294782Y-43891760D01*
X38294808Y-43891785D01*
X38343753Y-43940731D01*
X38343769Y-43940745D01*
X38397556Y-43981009D01*
X38404449Y-43986563D01*
X38455240Y-44030574D01*
X38511789Y-44066915D01*
X38519022Y-44071937D01*
X38572842Y-44112226D01*
X38631841Y-44144442D01*
X38639408Y-44148931D01*
X38695971Y-44185282D01*
X38757109Y-44213202D01*
X38764991Y-44217147D01*
X38823996Y-44249367D01*
X38824003Y-44249369D01*
X38824004Y-44249370D01*
X38886965Y-44272854D01*
X38895140Y-44276240D01*
X38898436Y-44277745D01*
X38956269Y-44304156D01*
X39020762Y-44323092D01*
X39029120Y-44325874D01*
X39092111Y-44349369D01*
X39157798Y-44363657D01*
X39166326Y-44365834D01*
X39230835Y-44384776D01*
X39230838Y-44384776D01*
X39230840Y-44384777D01*
X39263064Y-44389409D01*
X39297356Y-44394339D01*
X39306038Y-44395905D01*
X39371729Y-44410196D01*
X39438764Y-44414989D01*
X39447536Y-44415932D01*
X39514078Y-44425500D01*
X39585709Y-44425500D01*
X41022375Y-44425500D01*
X41089414Y-44445185D01*
X41135169Y-44497989D01*
X41145113Y-44567147D01*
X41116088Y-44630703D01*
X41110060Y-44637175D01*
X41011291Y-44735945D01*
X40737803Y-45009432D01*
X40735555Y-45011624D01*
X40681748Y-45062774D01*
X40672103Y-45071942D01*
X40638402Y-45120361D01*
X40632731Y-45127882D01*
X40595459Y-45173592D01*
X40595455Y-45173598D01*
X40581366Y-45200568D01*
X40573239Y-45213983D01*
X40555859Y-45238955D01*
X40532595Y-45293165D01*
X40528555Y-45301672D01*
X40522439Y-45313382D01*
X40505924Y-45345000D01*
X40501244Y-45353959D01*
X40500827Y-45355003D01*
X40500444Y-45355489D01*
X40498338Y-45359523D01*
X40497585Y-45359130D01*
X40457672Y-45409952D01*
X40391660Y-45432847D01*
X40371796Y-45432211D01*
X40347159Y-45429435D01*
X40347153Y-45429435D01*
X40167907Y-45449630D01*
X40167902Y-45449631D01*
X39997633Y-45509211D01*
X39844894Y-45605184D01*
X39717341Y-45732737D01*
X39621368Y-45885476D01*
X39561788Y-46055745D01*
X39561787Y-46055750D01*
X39541592Y-46234996D01*
X39541592Y-46235003D01*
X39561787Y-46414249D01*
X39561788Y-46414254D01*
X39589699Y-46494017D01*
X39596657Y-46534972D01*
X39596657Y-46550500D01*
X39576972Y-46617539D01*
X39524168Y-46663294D01*
X39472657Y-46674500D01*
X39157156Y-46674500D01*
X39157137Y-46674501D01*
X39054360Y-46685000D01*
X39054357Y-46685001D01*
X38887825Y-46740185D01*
X38887820Y-46740187D01*
X38738499Y-46832289D01*
X38614446Y-46956342D01*
X38522344Y-47105663D01*
X38522343Y-47105666D01*
X38467158Y-47272203D01*
X38467158Y-47272204D01*
X38467157Y-47272204D01*
X38456657Y-47374983D01*
X38456657Y-47862769D01*
X38436972Y-47929808D01*
X38420338Y-47950450D01*
X38019338Y-48351450D01*
X37958015Y-48384935D01*
X37888323Y-48379951D01*
X37832390Y-48338079D01*
X37807973Y-48272615D01*
X37807657Y-48263769D01*
X37807657Y-45001854D01*
X37826664Y-44935881D01*
X37907945Y-44806524D01*
X37907946Y-44806522D01*
X37967525Y-44636255D01*
X37969652Y-44617377D01*
X37987722Y-44457003D01*
X37987722Y-44456996D01*
X37967526Y-44277750D01*
X37967525Y-44277745D01*
X37946326Y-44217162D01*
X37907946Y-44107478D01*
X37883958Y-44069302D01*
X37831970Y-43986563D01*
X37811973Y-43954738D01*
X37684419Y-43827184D01*
X37662757Y-43813573D01*
X37531680Y-43731211D01*
X37361411Y-43671631D01*
X37361406Y-43671630D01*
X37182161Y-43651435D01*
X37182153Y-43651435D01*
X37002907Y-43671630D01*
X37002902Y-43671631D01*
X36832633Y-43731211D01*
X36679894Y-43827184D01*
X36552341Y-43954737D01*
X36456368Y-44107476D01*
X36396788Y-44277745D01*
X36396787Y-44277750D01*
X36376592Y-44456996D01*
X36376592Y-44457003D01*
X36396787Y-44636249D01*
X36396788Y-44636254D01*
X36456368Y-44806524D01*
X36537650Y-44935881D01*
X36556657Y-45001854D01*
X36556657Y-45313382D01*
X36536972Y-45380421D01*
X36484168Y-45426176D01*
X36418774Y-45436602D01*
X36355161Y-45429435D01*
X36355153Y-45429435D01*
X36175907Y-45449630D01*
X36175902Y-45449631D01*
X36005633Y-45509211D01*
X35852894Y-45605184D01*
X35725341Y-45732737D01*
X35629367Y-45885478D01*
X35569786Y-46055754D01*
X35569200Y-46058322D01*
X35568349Y-46059860D01*
X35567490Y-46062317D01*
X35567072Y-46062170D01*
X35535993Y-46118398D01*
X34416122Y-47238269D01*
X34403932Y-47248960D01*
X34378873Y-47268189D01*
X34316310Y-47349725D01*
X34282621Y-47393629D01*
X34282618Y-47393634D01*
X34222114Y-47539705D01*
X34222112Y-47539710D01*
X34201475Y-47696469D01*
X34201475Y-47696470D01*
X34205596Y-47727772D01*
X34206657Y-47743958D01*
X34206657Y-57768552D01*
X34205596Y-57784737D01*
X34201475Y-57816038D01*
X34201475Y-57816040D01*
X34212441Y-57899332D01*
X34212441Y-57899333D01*
X34222112Y-57972800D01*
X34222113Y-57972802D01*
X34271297Y-58091544D01*
X34282621Y-58118881D01*
X34378875Y-58244322D01*
X34403455Y-58263183D01*
X34403926Y-58263544D01*
X34416121Y-58274239D01*
X34697916Y-58556034D01*
X34708610Y-58568228D01*
X34727832Y-58593279D01*
X34727833Y-58593280D01*
X34727835Y-58593282D01*
X34818915Y-58663170D01*
X34853276Y-58689536D01*
X34999355Y-58750044D01*
X35042651Y-58755744D01*
X35156116Y-58770682D01*
X35156117Y-58770682D01*
X35187419Y-58766560D01*
X35203604Y-58765500D01*
X35310428Y-58765500D01*
X35353761Y-58773318D01*
X35367237Y-58778344D01*
X35449674Y-58809091D01*
X35509284Y-58815500D01*
X35877229Y-58815499D01*
X35944268Y-58835183D01*
X35978554Y-58870762D01*
X35979207Y-58870257D01*
X35983910Y-58876320D01*
X35983955Y-58876367D01*
X35983983Y-58876414D01*
X35983990Y-58876424D01*
X35998147Y-58890580D01*
X36010784Y-58905375D01*
X36022563Y-58921587D01*
X36047603Y-58942302D01*
X36056214Y-58949425D01*
X36064855Y-58957288D01*
X36426351Y-59318784D01*
X36436174Y-59331045D01*
X36436396Y-59330863D01*
X36441368Y-59336873D01*
X36441371Y-59336877D01*
X36473996Y-59367514D01*
X36490380Y-59382900D01*
X36493178Y-59385612D01*
X36512679Y-59405114D01*
X36512683Y-59405117D01*
X36512686Y-59405120D01*
X36515859Y-59407581D01*
X36524731Y-59415159D01*
X36556575Y-59445062D01*
X36574133Y-59454714D01*
X36590390Y-59465393D01*
X36606221Y-59477673D01*
X36635960Y-59490542D01*
X36646309Y-59495021D01*
X36656798Y-59500160D01*
X36680614Y-59513252D01*
X36695065Y-59521197D01*
X36707680Y-59524435D01*
X36714462Y-59526177D01*
X36732876Y-59532481D01*
X36751261Y-59540438D01*
X36794418Y-59547273D01*
X36805813Y-59549632D01*
X36848138Y-59560500D01*
X36868173Y-59560500D01*
X36887570Y-59562026D01*
X36907353Y-59565160D01*
X36950832Y-59561050D01*
X36962501Y-59560500D01*
X37669414Y-59560500D01*
X37685034Y-59562224D01*
X37685061Y-59561939D01*
X37692817Y-59562671D01*
X37692824Y-59562673D01*
X37760030Y-59560561D01*
X37763925Y-59560500D01*
X37791503Y-59560500D01*
X37791507Y-59560500D01*
X37795481Y-59559997D01*
X37807120Y-59559080D01*
X37850784Y-59557709D01*
X37870026Y-59552117D01*
X37889069Y-59548174D01*
X37908949Y-59545664D01*
X37949558Y-59529585D01*
X37960601Y-59525803D01*
X38002547Y-59513618D01*
X38019786Y-59503422D01*
X38037260Y-59494862D01*
X38055884Y-59487488D01*
X38055884Y-59487487D01*
X38055889Y-59487486D01*
X38091240Y-59461800D01*
X38100971Y-59455408D01*
X38138577Y-59433170D01*
X38152746Y-59418999D01*
X38167536Y-59406368D01*
X38183744Y-59394594D01*
X38211595Y-59360926D01*
X38219439Y-59352306D01*
X38234979Y-59336766D01*
X38296303Y-59303284D01*
X38365994Y-59308271D01*
X38421927Y-59350144D01*
X38446341Y-59415609D01*
X38446657Y-59424451D01*
X38446657Y-61761294D01*
X38445348Y-61779263D01*
X38441867Y-61803025D01*
X38446185Y-61852368D01*
X38446657Y-61863176D01*
X38446657Y-61868711D01*
X38450255Y-61899495D01*
X38450621Y-61903082D01*
X38456185Y-61966676D01*
X38456657Y-61977484D01*
X38456657Y-62549546D01*
X38436972Y-62616585D01*
X38420338Y-62637227D01*
X38223365Y-62834199D01*
X38211108Y-62844020D01*
X38211291Y-62844241D01*
X38205279Y-62849214D01*
X38159255Y-62898223D01*
X38156548Y-62901016D01*
X38137046Y-62920517D01*
X38137032Y-62920534D01*
X38134564Y-62923715D01*
X38127000Y-62932570D01*
X38097094Y-62964418D01*
X38097093Y-62964420D01*
X38087441Y-62981976D01*
X38076767Y-62998226D01*
X38064486Y-63014061D01*
X38064481Y-63014068D01*
X38047132Y-63054158D01*
X38041995Y-63064644D01*
X38020960Y-63102906D01*
X38015979Y-63122307D01*
X38009678Y-63140710D01*
X38001719Y-63159102D01*
X38001718Y-63159105D01*
X37994885Y-63202243D01*
X37992517Y-63213674D01*
X37981658Y-63255971D01*
X37981657Y-63255982D01*
X37981657Y-63276016D01*
X37980130Y-63295415D01*
X37976997Y-63315194D01*
X37976997Y-63315195D01*
X37981107Y-63358674D01*
X37981657Y-63370343D01*
X37981657Y-68875855D01*
X37979932Y-68891472D01*
X37980218Y-68891499D01*
X37979483Y-68899265D01*
X37981596Y-68966472D01*
X37981657Y-68970367D01*
X37981657Y-68997957D01*
X37982160Y-69001935D01*
X37983075Y-69013567D01*
X37984447Y-69057224D01*
X37984448Y-69057227D01*
X37990037Y-69076467D01*
X37993981Y-69095511D01*
X37996493Y-69115392D01*
X38012571Y-69156003D01*
X38016354Y-69167052D01*
X38028538Y-69208988D01*
X38038737Y-69226234D01*
X38047295Y-69243703D01*
X38054671Y-69262332D01*
X38080338Y-69297660D01*
X38086750Y-69307421D01*
X38108985Y-69345017D01*
X38108990Y-69345024D01*
X38123147Y-69359180D01*
X38135785Y-69373976D01*
X38147562Y-69390186D01*
X38147563Y-69390187D01*
X38181214Y-69418025D01*
X38189855Y-69425888D01*
X42102754Y-73338788D01*
X42112579Y-73351051D01*
X42112800Y-73350869D01*
X42117768Y-73356874D01*
X42166779Y-73402899D01*
X42169578Y-73405612D01*
X42189079Y-73425114D01*
X42189083Y-73425117D01*
X42189086Y-73425120D01*
X42192259Y-73427581D01*
X42201131Y-73435159D01*
X42232975Y-73465062D01*
X42250533Y-73474714D01*
X42266792Y-73485395D01*
X42282621Y-73497673D01*
X42322712Y-73515021D01*
X42333183Y-73520151D01*
X42355737Y-73532550D01*
X42371459Y-73541194D01*
X42371461Y-73541195D01*
X42371465Y-73541197D01*
X42390873Y-73546180D01*
X42409276Y-73552481D01*
X42427658Y-73560436D01*
X42427659Y-73560436D01*
X42427661Y-73560437D01*
X42470807Y-73567270D01*
X42482229Y-73569636D01*
X42524538Y-73580500D01*
X42544573Y-73580500D01*
X42563971Y-73582026D01*
X42583751Y-73585159D01*
X42583752Y-73585160D01*
X42583752Y-73585159D01*
X42583753Y-73585160D01*
X42627232Y-73581050D01*
X42638901Y-73580500D01*
X70942414Y-73580500D01*
X70958034Y-73582224D01*
X70958061Y-73581939D01*
X70965817Y-73582671D01*
X70965824Y-73582673D01*
X71033030Y-73580561D01*
X71036925Y-73580500D01*
X71064503Y-73580500D01*
X71064507Y-73580500D01*
X71068481Y-73579997D01*
X71080120Y-73579080D01*
X71123784Y-73577709D01*
X71143026Y-73572117D01*
X71162069Y-73568174D01*
X71181949Y-73565664D01*
X71222558Y-73549585D01*
X71233601Y-73545803D01*
X71275547Y-73533618D01*
X71292786Y-73523422D01*
X71310260Y-73514862D01*
X71328884Y-73507488D01*
X71328884Y-73507487D01*
X71328889Y-73507486D01*
X71364240Y-73481800D01*
X71373971Y-73475408D01*
X71411577Y-73453170D01*
X71425746Y-73438999D01*
X71440536Y-73426368D01*
X71456744Y-73414594D01*
X71484595Y-73380926D01*
X71492436Y-73372309D01*
X72221510Y-72643235D01*
X72282831Y-72609752D01*
X72341282Y-72611143D01*
X72375937Y-72620428D01*
X72441749Y-72638063D01*
X72618191Y-72653500D01*
X72677156Y-72658659D01*
X72677157Y-72658659D01*
X72677158Y-72658659D01*
X72736123Y-72653500D01*
X72912565Y-72638063D01*
X73140820Y-72576903D01*
X73354987Y-72477035D01*
X73548558Y-72341495D01*
X73670486Y-72219566D01*
X73731805Y-72186084D01*
X73801497Y-72191068D01*
X73857431Y-72232939D01*
X73874346Y-72263917D01*
X73923359Y-72395328D01*
X73923363Y-72395335D01*
X74009609Y-72510544D01*
X74009612Y-72510547D01*
X74124821Y-72596793D01*
X74124828Y-72596797D01*
X74259674Y-72647091D01*
X74259673Y-72647091D01*
X74266601Y-72647835D01*
X74319284Y-72653500D01*
X76115029Y-72653499D01*
X76174640Y-72647091D01*
X76309488Y-72596796D01*
X76424703Y-72510546D01*
X76510953Y-72395331D01*
X76561248Y-72260483D01*
X76567657Y-72200873D01*
X76567656Y-70405128D01*
X76561248Y-70345517D01*
X76559967Y-70342083D01*
X76510954Y-70210671D01*
X76510950Y-70210664D01*
X76424704Y-70095455D01*
X76424701Y-70095452D01*
X76309492Y-70009206D01*
X76309485Y-70009202D01*
X76174639Y-69958908D01*
X76174640Y-69958908D01*
X76115040Y-69952501D01*
X76115038Y-69952500D01*
X76115030Y-69952500D01*
X76115022Y-69952500D01*
X75966657Y-69952500D01*
X75899618Y-69932815D01*
X75853863Y-69880011D01*
X75842657Y-69828500D01*
X75842657Y-60287737D01*
X75844381Y-60272123D01*
X75844095Y-60272096D01*
X75844829Y-60264333D01*
X75842718Y-60197144D01*
X75842657Y-60193250D01*
X75842657Y-60165651D01*
X75842657Y-60165650D01*
X75842154Y-60161670D01*
X75841237Y-60150021D01*
X75839866Y-60106373D01*
X75834279Y-60087144D01*
X75830331Y-60068084D01*
X75827821Y-60048208D01*
X75811742Y-60007597D01*
X75807961Y-59996552D01*
X75795776Y-59954612D01*
X75785575Y-59937363D01*
X75777017Y-59919894D01*
X75769643Y-59901268D01*
X75769640Y-59901264D01*
X75769640Y-59901263D01*
X75743973Y-59865935D01*
X75737560Y-59856172D01*
X75715329Y-59818583D01*
X75715327Y-59818579D01*
X75715323Y-59818575D01*
X75715320Y-59818571D01*
X75701162Y-59804413D01*
X75688527Y-59789620D01*
X75676750Y-59773412D01*
X75643102Y-59745576D01*
X75634461Y-59737713D01*
X74773368Y-58876620D01*
X74739883Y-58815297D01*
X74737830Y-58802836D01*
X74732525Y-58755745D01*
X74672946Y-58585478D01*
X74658057Y-58561783D01*
X74576972Y-58432737D01*
X74449419Y-58305184D01*
X74296680Y-58209211D01*
X74126411Y-58149631D01*
X74126406Y-58149630D01*
X73947161Y-58129435D01*
X73947153Y-58129435D01*
X73767907Y-58149630D01*
X73767902Y-58149631D01*
X73597633Y-58209211D01*
X73444894Y-58305184D01*
X73317341Y-58432737D01*
X73221368Y-58585476D01*
X73161788Y-58755745D01*
X73161787Y-58755750D01*
X73141592Y-58934996D01*
X73141592Y-58935003D01*
X73161787Y-59114249D01*
X73161788Y-59114254D01*
X73221368Y-59284523D01*
X73305802Y-59418898D01*
X73317341Y-59437262D01*
X73444895Y-59564816D01*
X73597635Y-59660789D01*
X73767902Y-59720368D01*
X73814980Y-59725672D01*
X73879393Y-59752737D01*
X73888778Y-59761211D01*
X74555338Y-60427771D01*
X74588823Y-60489094D01*
X74591657Y-60515452D01*
X74591657Y-69828500D01*
X74571972Y-69895539D01*
X74519168Y-69941294D01*
X74467658Y-69952500D01*
X74319287Y-69952500D01*
X74319280Y-69952501D01*
X74259673Y-69958908D01*
X74124828Y-70009202D01*
X74124821Y-70009206D01*
X74009612Y-70095452D01*
X74009609Y-70095455D01*
X73923363Y-70210664D01*
X73923360Y-70210669D01*
X73874346Y-70342083D01*
X73832474Y-70398016D01*
X73767010Y-70422433D01*
X73698737Y-70407581D01*
X73670483Y-70386430D01*
X73548559Y-70264506D01*
X73548552Y-70264501D01*
X73354991Y-70128967D01*
X73354987Y-70128965D01*
X73302657Y-70104563D01*
X73140820Y-70029097D01*
X73140816Y-70029096D01*
X73140812Y-70029094D01*
X72912570Y-69967938D01*
X72912560Y-69967936D01*
X72677158Y-69947341D01*
X72677156Y-69947341D01*
X72441753Y-69967936D01*
X72441743Y-69967938D01*
X72213501Y-70029094D01*
X72213492Y-70029098D01*
X71999328Y-70128964D01*
X71999326Y-70128965D01*
X71805754Y-70264505D01*
X71638662Y-70431597D01*
X71508732Y-70617158D01*
X71454155Y-70660783D01*
X71384657Y-70667977D01*
X71322302Y-70636454D01*
X71305582Y-70617158D01*
X71175651Y-70431597D01*
X71008559Y-70264506D01*
X71008552Y-70264501D01*
X70814991Y-70128967D01*
X70814987Y-70128965D01*
X70762657Y-70104563D01*
X70600820Y-70029097D01*
X70600816Y-70029096D01*
X70600812Y-70029094D01*
X70372570Y-69967938D01*
X70372560Y-69967936D01*
X70137158Y-69947341D01*
X70137156Y-69947341D01*
X69901753Y-69967936D01*
X69901743Y-69967938D01*
X69673501Y-70029094D01*
X69673492Y-70029098D01*
X69459328Y-70128964D01*
X69459326Y-70128965D01*
X69265754Y-70264505D01*
X69098662Y-70431597D01*
X68968732Y-70617158D01*
X68914155Y-70660783D01*
X68844657Y-70667977D01*
X68782302Y-70636454D01*
X68765582Y-70617158D01*
X68635651Y-70431597D01*
X68468559Y-70264506D01*
X68468558Y-70264505D01*
X68275533Y-70129347D01*
X68231908Y-70074770D01*
X68222657Y-70027772D01*
X68222657Y-68770452D01*
X68242342Y-68703413D01*
X68258976Y-68682771D01*
X69692805Y-67248942D01*
X71155945Y-65785801D01*
X71168199Y-65775986D01*
X71168016Y-65775764D01*
X71174025Y-65770791D01*
X71174034Y-65770786D01*
X71220106Y-65721722D01*
X71222723Y-65719023D01*
X71242277Y-65699471D01*
X71244739Y-65696296D01*
X71252326Y-65687414D01*
X71282219Y-65655582D01*
X71291872Y-65638020D01*
X71302546Y-65621770D01*
X71314830Y-65605936D01*
X71332176Y-65565850D01*
X71337314Y-65555362D01*
X71338872Y-65552529D01*
X71358354Y-65517092D01*
X71363334Y-65497691D01*
X71369635Y-65479288D01*
X71377595Y-65460896D01*
X71384429Y-65417741D01*
X71386792Y-65406331D01*
X71397657Y-65364019D01*
X71397657Y-65343983D01*
X71399184Y-65324582D01*
X71399701Y-65321319D01*
X71402317Y-65304804D01*
X71398207Y-65261324D01*
X71397657Y-65249655D01*
X71397657Y-58382742D01*
X71399381Y-58367122D01*
X71399096Y-58367095D01*
X71399830Y-58359333D01*
X71397718Y-58292112D01*
X71397657Y-58288218D01*
X71397657Y-58260656D01*
X71397657Y-58260650D01*
X71397153Y-58256668D01*
X71396238Y-58245029D01*
X71395853Y-58232773D01*
X71394867Y-58201373D01*
X71389276Y-58182130D01*
X71385330Y-58163078D01*
X71382821Y-58143208D01*
X71366736Y-58102583D01*
X71362963Y-58091562D01*
X71350775Y-58049610D01*
X71350774Y-58049609D01*
X71349713Y-58045955D01*
X71349914Y-57976086D01*
X71381109Y-57923681D01*
X72783882Y-56520909D01*
X74215088Y-55089703D01*
X74265739Y-55039052D01*
X74306012Y-54985251D01*
X74311559Y-54978369D01*
X74331378Y-54955498D01*
X74355574Y-54927575D01*
X74391915Y-54871024D01*
X74396958Y-54863762D01*
X74437226Y-54809972D01*
X74469438Y-54750977D01*
X74473929Y-54743408D01*
X74510282Y-54686844D01*
X74538200Y-54625709D01*
X74542163Y-54617794D01*
X74574367Y-54558818D01*
X74597855Y-54495838D01*
X74601227Y-54487697D01*
X74629156Y-54426546D01*
X74648093Y-54362049D01*
X74650871Y-54353700D01*
X74674369Y-54290703D01*
X74688659Y-54225008D01*
X74690839Y-54216467D01*
X74709775Y-54151980D01*
X74719339Y-54085460D01*
X74720906Y-54076774D01*
X74735196Y-54011085D01*
X74739990Y-53944041D01*
X74740932Y-53935275D01*
X74750500Y-53868736D01*
X74750500Y-53582578D01*
X74750500Y-46825874D01*
X74750816Y-46817028D01*
X74755610Y-46750001D01*
X74755610Y-46749998D01*
X74748065Y-46644501D01*
X74735196Y-46464572D01*
X74734390Y-46460868D01*
X74674371Y-46184962D01*
X74674370Y-46184960D01*
X74674369Y-46184954D01*
X74574367Y-45916839D01*
X74557241Y-45885476D01*
X74437229Y-45665690D01*
X74437224Y-45665682D01*
X74265745Y-45436612D01*
X74265729Y-45436594D01*
X74063405Y-45234270D01*
X74063387Y-45234254D01*
X73883063Y-45099266D01*
X73841191Y-45043333D01*
X73836207Y-44973641D01*
X73869692Y-44912318D01*
X73883065Y-44900730D01*
X73887121Y-44897694D01*
X73888112Y-44896953D01*
X73895376Y-44891910D01*
X73951918Y-44855574D01*
X74002722Y-44811550D01*
X74009588Y-44806017D01*
X74063395Y-44765739D01*
X74110925Y-44718207D01*
X74117360Y-44712216D01*
X74168181Y-44668181D01*
X74212216Y-44617360D01*
X74218207Y-44610925D01*
X74265739Y-44563395D01*
X74306017Y-44509588D01*
X74311556Y-44502716D01*
X74322088Y-44490562D01*
X74355574Y-44451918D01*
X74391917Y-44395364D01*
X74396961Y-44388101D01*
X74403719Y-44379074D01*
X74437226Y-44334315D01*
X74469432Y-44275332D01*
X74473933Y-44267746D01*
X74510283Y-44211187D01*
X74522114Y-44185281D01*
X74538206Y-44150042D01*
X74542160Y-44142141D01*
X74574367Y-44083161D01*
X74597858Y-44020174D01*
X74601234Y-44012027D01*
X74612864Y-43986563D01*
X74629156Y-43950889D01*
X74648094Y-43886389D01*
X74650872Y-43878041D01*
X74674369Y-43815046D01*
X74688655Y-43749366D01*
X74690842Y-43740803D01*
X74709775Y-43676328D01*
X74709776Y-43676321D01*
X74710450Y-43671632D01*
X74719341Y-43609788D01*
X74720905Y-43601119D01*
X74735196Y-43535428D01*
X74739989Y-43468394D01*
X74740932Y-43459616D01*
X74750500Y-43393079D01*
X74750500Y-43325874D01*
X74750816Y-43317028D01*
X74755610Y-43250001D01*
X74755610Y-43249998D01*
X74750816Y-43182970D01*
X74750500Y-43174124D01*
X74750500Y-43106923D01*
X74744756Y-43066976D01*
X74740932Y-43040379D01*
X74739989Y-43031607D01*
X74735196Y-42964572D01*
X74720905Y-42898881D01*
X74719338Y-42890191D01*
X74709777Y-42823683D01*
X74709776Y-42823678D01*
X74690837Y-42759181D01*
X74688653Y-42750621D01*
X74680490Y-42713091D01*
X74677657Y-42686736D01*
X74677657Y-37971381D01*
X74682680Y-37936446D01*
X74690476Y-37909895D01*
X74709776Y-37844166D01*
X74750500Y-37560922D01*
X74750500Y-37274764D01*
X74719570Y-37059637D01*
X74709777Y-36991525D01*
X74709774Y-36991515D01*
X74709206Y-36989580D01*
X74629156Y-36716955D01*
X74510283Y-36456657D01*
X74507838Y-36452853D01*
X74355574Y-36215926D01*
X74280048Y-36128765D01*
X74215089Y-36053798D01*
X74041203Y-35879912D01*
X74041202Y-35879911D01*
X74038055Y-35876764D01*
X73990562Y-35829270D01*
X73990556Y-35829265D01*
X73990552Y-35829261D01*
X73936750Y-35788985D01*
X73929863Y-35783434D01*
X73879080Y-35739431D01*
X73879073Y-35739425D01*
X73822531Y-35703088D01*
X73815270Y-35698047D01*
X73761472Y-35657774D01*
X73761467Y-35657771D01*
X73761466Y-35657770D01*
X73702496Y-35625570D01*
X73694883Y-35621053D01*
X73638349Y-35584720D01*
X73638339Y-35584715D01*
X73608184Y-35570944D01*
X73577200Y-35556794D01*
X73569317Y-35552849D01*
X73510318Y-35520633D01*
X73510307Y-35520629D01*
X73447347Y-35497145D01*
X73439173Y-35493759D01*
X73378048Y-35465845D01*
X73378034Y-35465841D01*
X73313571Y-35446912D01*
X73305176Y-35444118D01*
X73242205Y-35420631D01*
X73176524Y-35406343D01*
X73167949Y-35404154D01*
X73103488Y-35385227D01*
X73103475Y-35385224D01*
X73036964Y-35375661D01*
X73028253Y-35374089D01*
X72962589Y-35359804D01*
X72895547Y-35355008D01*
X72886751Y-35354062D01*
X72820239Y-35344500D01*
X72820236Y-35344500D01*
X72753033Y-35344500D01*
X72744187Y-35344184D01*
X72677158Y-35339390D01*
X72677156Y-35339390D01*
X72610127Y-35344184D01*
X72601281Y-35344500D01*
X72534072Y-35344500D01*
X72467560Y-35354062D01*
X72458765Y-35355008D01*
X72391731Y-35359803D01*
X72391728Y-35359804D01*
X72326059Y-35374089D01*
X72317353Y-35375659D01*
X72250840Y-35385224D01*
X72250837Y-35385224D01*
X72250835Y-35385225D01*
X72236243Y-35389509D01*
X72186366Y-35404154D01*
X72177793Y-35406342D01*
X72112108Y-35420631D01*
X72112105Y-35420632D01*
X72049144Y-35444115D01*
X72040749Y-35446909D01*
X71976276Y-35465841D01*
X71976272Y-35465842D01*
X71915136Y-35493761D01*
X71906963Y-35497146D01*
X71844003Y-35520629D01*
X71843994Y-35520633D01*
X71785010Y-35552841D01*
X71777100Y-35556800D01*
X71777095Y-35556803D01*
X71715966Y-35584720D01*
X71659428Y-35621054D01*
X71651821Y-35625568D01*
X71651812Y-35625573D01*
X71592848Y-35657771D01*
X71592837Y-35657777D01*
X71539041Y-35698047D01*
X71531774Y-35703093D01*
X71475241Y-35739425D01*
X71424450Y-35783435D01*
X71417560Y-35788987D01*
X71363766Y-35829257D01*
X71363751Y-35829270D01*
X71316240Y-35876782D01*
X71309762Y-35882814D01*
X71258979Y-35926817D01*
X71214965Y-35977610D01*
X71208937Y-35984085D01*
X71161419Y-36031604D01*
X71161411Y-36031613D01*
X71121144Y-36085403D01*
X71115592Y-36092293D01*
X71071582Y-36143084D01*
X71035250Y-36199617D01*
X71030204Y-36206884D01*
X70989934Y-36260680D01*
X70989933Y-36260682D01*
X70989931Y-36260685D01*
X70975321Y-36287440D01*
X70957725Y-36319664D01*
X70953211Y-36327271D01*
X70916877Y-36383809D01*
X70916876Y-36383811D01*
X70916875Y-36383813D01*
X70888960Y-36444938D01*
X70888959Y-36444940D01*
X70884998Y-36452853D01*
X70852790Y-36511837D01*
X70852786Y-36511846D01*
X70829303Y-36574806D01*
X70825918Y-36582979D01*
X70797999Y-36644115D01*
X70797998Y-36644119D01*
X70779066Y-36708592D01*
X70776272Y-36716987D01*
X70752789Y-36779948D01*
X70752788Y-36779951D01*
X70738499Y-36845636D01*
X70736311Y-36854209D01*
X70729588Y-36877108D01*
X70717383Y-36918677D01*
X70717381Y-36918683D01*
X70707816Y-36985196D01*
X70706246Y-36993902D01*
X70691961Y-37059571D01*
X70691960Y-37059574D01*
X70687165Y-37126608D01*
X70686219Y-37135403D01*
X70676657Y-37201915D01*
X70676657Y-37269124D01*
X70676341Y-37277970D01*
X70671547Y-37344998D01*
X70671547Y-37345001D01*
X70676341Y-37412028D01*
X70676657Y-37420874D01*
X70676657Y-43320239D01*
X70686219Y-43386751D01*
X70687165Y-43395547D01*
X70691961Y-43462587D01*
X70691961Y-43462590D01*
X70706246Y-43528253D01*
X70707818Y-43536964D01*
X70717381Y-43603475D01*
X70717384Y-43603488D01*
X70736311Y-43667949D01*
X70738500Y-43676524D01*
X70752788Y-43742205D01*
X70776275Y-43805176D01*
X70779069Y-43813571D01*
X70797990Y-43878009D01*
X70798002Y-43878048D01*
X70825916Y-43939173D01*
X70829302Y-43947347D01*
X70852790Y-44010318D01*
X70885006Y-44069317D01*
X70888951Y-44077200D01*
X70891678Y-44083170D01*
X70916872Y-44138339D01*
X70916877Y-44138349D01*
X70953210Y-44194883D01*
X70957727Y-44202496D01*
X70989927Y-44261466D01*
X70989928Y-44261467D01*
X70989931Y-44261472D01*
X71030206Y-44315273D01*
X71035245Y-44322531D01*
X71071582Y-44379073D01*
X71071588Y-44379080D01*
X71115591Y-44429863D01*
X71121145Y-44436754D01*
X71161418Y-44490552D01*
X71161422Y-44490556D01*
X71161427Y-44490562D01*
X71212068Y-44541202D01*
X71234261Y-44563395D01*
X71436594Y-44765729D01*
X71436603Y-44765737D01*
X71436605Y-44765739D01*
X71490410Y-44806017D01*
X71497284Y-44811556D01*
X71548083Y-44855574D01*
X71604638Y-44891919D01*
X71611883Y-44896950D01*
X71616938Y-44900734D01*
X71658807Y-44956667D01*
X71663791Y-45026359D01*
X71630305Y-45087681D01*
X71616936Y-45099266D01*
X71436606Y-45234260D01*
X71436594Y-45234270D01*
X71234270Y-45436594D01*
X71234254Y-45436612D01*
X71062775Y-45665682D01*
X71062770Y-45665690D01*
X70925635Y-45916833D01*
X70825628Y-46184962D01*
X70764804Y-46464566D01*
X70744390Y-46749998D01*
X70744390Y-46750001D01*
X70749184Y-46817028D01*
X70749500Y-46825874D01*
X70749500Y-52845660D01*
X70729815Y-52912699D01*
X70713181Y-52933341D01*
X68109861Y-55536661D01*
X64096512Y-59550011D01*
X62546762Y-61099761D01*
X62344428Y-61302093D01*
X62344415Y-61302108D01*
X62304147Y-61355899D01*
X62298595Y-61362788D01*
X62254591Y-61413572D01*
X62254577Y-61413591D01*
X62218249Y-61470117D01*
X62213204Y-61477384D01*
X62172932Y-61531182D01*
X62148752Y-61575463D01*
X62099345Y-61624866D01*
X62031072Y-61639716D01*
X61976207Y-61619250D01*
X61975276Y-61620956D01*
X61967493Y-61616706D01*
X61942996Y-61607569D01*
X61887064Y-61565696D01*
X61873541Y-61542904D01*
X61763439Y-61301814D01*
X61763432Y-61301802D01*
X61608735Y-61061089D01*
X61608731Y-61061083D01*
X61577086Y-61024563D01*
X61468246Y-60898954D01*
X61468236Y-60898944D01*
X61468224Y-60898931D01*
X59944203Y-59374912D01*
X59944202Y-59374911D01*
X59893562Y-59324270D01*
X59893556Y-59324265D01*
X59893552Y-59324261D01*
X59839754Y-59283988D01*
X59832863Y-59278434D01*
X59782080Y-59234431D01*
X59782073Y-59234425D01*
X59725531Y-59198088D01*
X59718273Y-59193049D01*
X59664472Y-59152774D01*
X59664467Y-59152771D01*
X59664466Y-59152770D01*
X59605496Y-59120570D01*
X59597883Y-59116053D01*
X59541349Y-59079720D01*
X59541337Y-59079714D01*
X59510145Y-59065469D01*
X59457341Y-59019714D01*
X59437657Y-58952675D01*
X59437657Y-57697687D01*
X59457342Y-57630648D01*
X59510146Y-57584893D01*
X59579304Y-57574949D01*
X59616265Y-57586359D01*
X59627886Y-57592060D01*
X59824872Y-57643063D01*
X60028093Y-57653369D01*
X60229228Y-57622556D01*
X60420044Y-57551886D01*
X60592728Y-57444252D01*
X60740210Y-57304059D01*
X60856452Y-57137049D01*
X60936697Y-56950058D01*
X60977657Y-56750741D01*
X60977657Y-55844782D01*
X60997342Y-55777743D01*
X61013972Y-55757105D01*
X61779259Y-54991817D01*
X61840582Y-54958333D01*
X61866940Y-54955499D01*
X62001159Y-54955499D01*
X62001165Y-54955499D01*
X62103954Y-54944999D01*
X62270491Y-54889814D01*
X62419813Y-54797712D01*
X62543869Y-54673656D01*
X62635971Y-54524334D01*
X62691156Y-54357797D01*
X62701657Y-54255009D01*
X62701656Y-53454992D01*
X62701655Y-53454980D01*
X62695845Y-53398101D01*
X62708615Y-53329408D01*
X62756496Y-53278524D01*
X62819203Y-53261500D01*
X65031934Y-53261500D01*
X65035076Y-53261540D01*
X65122571Y-53263757D01*
X65122571Y-53263756D01*
X65122576Y-53263757D01*
X65180638Y-53253349D01*
X65189967Y-53252041D01*
X65248651Y-53246074D01*
X65277684Y-53236964D01*
X65292913Y-53233226D01*
X65322866Y-53227858D01*
X65322870Y-53227856D01*
X65322872Y-53227856D01*
X65377636Y-53205980D01*
X65386505Y-53202821D01*
X65442801Y-53185159D01*
X65469413Y-53170387D01*
X65483575Y-53163662D01*
X65511830Y-53152377D01*
X65561092Y-53119909D01*
X65569123Y-53115043D01*
X65620715Y-53086409D01*
X65620722Y-53086402D01*
X65620725Y-53086401D01*
X65643796Y-53066594D01*
X65656338Y-53057137D01*
X65681732Y-53040402D01*
X65723439Y-52998694D01*
X65730351Y-52992288D01*
X65738016Y-52985708D01*
X65775108Y-52953866D01*
X65793737Y-52929798D01*
X65804097Y-52918035D01*
X67017591Y-51704540D01*
X67078912Y-51671057D01*
X67148604Y-51676041D01*
X67200811Y-51713180D01*
X67203866Y-51716873D01*
X67252879Y-51762899D01*
X67255678Y-51765612D01*
X67275179Y-51785114D01*
X67275183Y-51785117D01*
X67275186Y-51785120D01*
X67278359Y-51787581D01*
X67287231Y-51795159D01*
X67319075Y-51825062D01*
X67336633Y-51834714D01*
X67352892Y-51845395D01*
X67368721Y-51857673D01*
X67408812Y-51875021D01*
X67419283Y-51880151D01*
X67441837Y-51892550D01*
X67457559Y-51901194D01*
X67457561Y-51901195D01*
X67457565Y-51901197D01*
X67476973Y-51906180D01*
X67495376Y-51912481D01*
X67513758Y-51920436D01*
X67513759Y-51920436D01*
X67513761Y-51920437D01*
X67556907Y-51927270D01*
X67568329Y-51929636D01*
X67610638Y-51940500D01*
X67630673Y-51940500D01*
X67650071Y-51942026D01*
X67669851Y-51945159D01*
X67669852Y-51945160D01*
X67669852Y-51945159D01*
X67669853Y-51945160D01*
X67713332Y-51941050D01*
X67725001Y-51940500D01*
X68322302Y-51940500D01*
X68388274Y-51959506D01*
X68441784Y-51993129D01*
X68517635Y-52040789D01*
X68673990Y-52095500D01*
X68687902Y-52100368D01*
X68687907Y-52100369D01*
X68867153Y-52120565D01*
X68867157Y-52120565D01*
X68867161Y-52120565D01*
X69046406Y-52100369D01*
X69046409Y-52100368D01*
X69046412Y-52100368D01*
X69216679Y-52040789D01*
X69369419Y-51944816D01*
X69496973Y-51817262D01*
X69592946Y-51664522D01*
X69652525Y-51494255D01*
X69663295Y-51398668D01*
X69672722Y-51315003D01*
X69672722Y-51314996D01*
X69652526Y-51135750D01*
X69652525Y-51135745D01*
X69640438Y-51101202D01*
X69592946Y-50965478D01*
X69575144Y-50937147D01*
X69536584Y-50875779D01*
X69496973Y-50812738D01*
X69369419Y-50685184D01*
X69358040Y-50678034D01*
X69216680Y-50589211D01*
X69046411Y-50529631D01*
X69046406Y-50529630D01*
X68867161Y-50509435D01*
X68867153Y-50509435D01*
X68687907Y-50529630D01*
X68687902Y-50529631D01*
X68517633Y-50589211D01*
X68388274Y-50670494D01*
X68322302Y-50689500D01*
X68000110Y-50689500D01*
X67933071Y-50669815D01*
X67912429Y-50653181D01*
X67473976Y-50214728D01*
X67440491Y-50153405D01*
X67437657Y-50127047D01*
X67437657Y-50011758D01*
X67433292Y-49968841D01*
X67432656Y-49956294D01*
X67432656Y-49514629D01*
X67432656Y-49514628D01*
X67426248Y-49455017D01*
X67426247Y-49455014D01*
X67425520Y-49448250D01*
X67425521Y-49421740D01*
X67432655Y-49355396D01*
X67432657Y-49355373D01*
X67432656Y-49150693D01*
X67452340Y-49083654D01*
X67457381Y-49076393D01*
X67554383Y-48946815D01*
X67691524Y-48695661D01*
X67791526Y-48427546D01*
X67810988Y-48338079D01*
X67852352Y-48147933D01*
X67852352Y-48147932D01*
X67852353Y-48147928D01*
X67872767Y-47862500D01*
X67852353Y-47577072D01*
X67844225Y-47539710D01*
X67791528Y-47297462D01*
X67791527Y-47297460D01*
X67791526Y-47297454D01*
X67691524Y-47029339D01*
X67686625Y-47020368D01*
X67554386Y-46778190D01*
X67554381Y-46778182D01*
X67382902Y-46549112D01*
X67382886Y-46549094D01*
X67180562Y-46346770D01*
X67180544Y-46346754D01*
X66951474Y-46175275D01*
X66951466Y-46175270D01*
X66700323Y-46038135D01*
X66700324Y-46038135D01*
X66513180Y-45968334D01*
X66432203Y-45938131D01*
X66432200Y-45938130D01*
X66432194Y-45938128D01*
X66152590Y-45877304D01*
X66102811Y-45873744D01*
X66037346Y-45849327D01*
X65995475Y-45793393D01*
X65987657Y-45750060D01*
X65987657Y-44864528D01*
X66007342Y-44797489D01*
X66060146Y-44751734D01*
X66129304Y-44741790D01*
X66185968Y-44765261D01*
X66186600Y-44765734D01*
X66186605Y-44765739D01*
X66415685Y-44937226D01*
X66415689Y-44937228D01*
X66415690Y-44937229D01*
X66666833Y-45074364D01*
X66666832Y-45074364D01*
X66666836Y-45074365D01*
X66666839Y-45074367D01*
X66934954Y-45174369D01*
X66934960Y-45174370D01*
X66934962Y-45174371D01*
X67214566Y-45235195D01*
X67214568Y-45235195D01*
X67214572Y-45235196D01*
X67468220Y-45253337D01*
X67499999Y-45255610D01*
X67500000Y-45255610D01*
X67500001Y-45255610D01*
X67528595Y-45253564D01*
X67785428Y-45235196D01*
X67789727Y-45234261D01*
X68065037Y-45174371D01*
X68065037Y-45174370D01*
X68065046Y-45174369D01*
X68333161Y-45074367D01*
X68584315Y-44937226D01*
X68813395Y-44765739D01*
X69015739Y-44563395D01*
X69187226Y-44334315D01*
X69324367Y-44083161D01*
X69424369Y-43815046D01*
X69469017Y-43609804D01*
X69485195Y-43535433D01*
X69485195Y-43535432D01*
X69485196Y-43535428D01*
X69499517Y-43335189D01*
X69500658Y-43319240D01*
X69500658Y-43319234D01*
X69505610Y-43250000D01*
X69505610Y-43249998D01*
X69500816Y-43182970D01*
X69500500Y-43174124D01*
X69500500Y-37988790D01*
X69508318Y-37945457D01*
X69511679Y-37936446D01*
X69521526Y-37910046D01*
X69530217Y-37870094D01*
X69535812Y-37844373D01*
X69538002Y-37835793D01*
X69556932Y-37771324D01*
X69556933Y-37771322D01*
X69566497Y-37704791D01*
X69568060Y-37696125D01*
X69582353Y-37630428D01*
X69587146Y-37563394D01*
X69588089Y-37554616D01*
X69597657Y-37488079D01*
X69597657Y-37420874D01*
X69597973Y-37412028D01*
X69602767Y-37345001D01*
X69602767Y-37344998D01*
X69597973Y-37277970D01*
X69597657Y-37269124D01*
X69597657Y-37201923D01*
X69591159Y-37156731D01*
X69588089Y-37135379D01*
X69587146Y-37126607D01*
X69582353Y-37059572D01*
X69568065Y-36993892D01*
X69566497Y-36985199D01*
X69556934Y-36918685D01*
X69556934Y-36918683D01*
X69556933Y-36918677D01*
X69537999Y-36854196D01*
X69535811Y-36845621D01*
X69525488Y-36798172D01*
X69521526Y-36779954D01*
X69498037Y-36716978D01*
X69495242Y-36708579D01*
X69476313Y-36644111D01*
X69448387Y-36582963D01*
X69445003Y-36574792D01*
X69421524Y-36511839D01*
X69389307Y-36452839D01*
X69385372Y-36444979D01*
X69357439Y-36383813D01*
X69340748Y-36357842D01*
X69321101Y-36327270D01*
X69316583Y-36319656D01*
X69306125Y-36300504D01*
X69284383Y-36260685D01*
X69284381Y-36260682D01*
X69244117Y-36206895D01*
X69239069Y-36199625D01*
X69202731Y-36143082D01*
X69158709Y-36092278D01*
X69153168Y-36085402D01*
X69112896Y-36031605D01*
X69112894Y-36031603D01*
X69112886Y-36031594D01*
X69065391Y-35984100D01*
X69059358Y-35977620D01*
X69015341Y-35926821D01*
X68964534Y-35882797D01*
X68958055Y-35876764D01*
X68910562Y-35829270D01*
X68910544Y-35829254D01*
X68856770Y-35789000D01*
X68849878Y-35783446D01*
X68799082Y-35739431D01*
X68799074Y-35739425D01*
X68742523Y-35703082D01*
X68735261Y-35698040D01*
X68681472Y-35657774D01*
X68681467Y-35657771D01*
X68681466Y-35657770D01*
X68622501Y-35625573D01*
X68614889Y-35621057D01*
X68558350Y-35584722D01*
X68558347Y-35584720D01*
X68558344Y-35584718D01*
X68497188Y-35556788D01*
X68489301Y-35552840D01*
X68460059Y-35536873D01*
X68430323Y-35520635D01*
X68430318Y-35520633D01*
X68430307Y-35520629D01*
X68367341Y-35497144D01*
X68359173Y-35493760D01*
X68298049Y-35465844D01*
X68233567Y-35446911D01*
X68225180Y-35444119D01*
X68204663Y-35436467D01*
X68162203Y-35420630D01*
X68096538Y-35406346D01*
X68087963Y-35404157D01*
X68023485Y-35385224D01*
X67956946Y-35375656D01*
X67948240Y-35374085D01*
X67882596Y-35359805D01*
X67882585Y-35359804D01*
X67815556Y-35355010D01*
X67806755Y-35354064D01*
X67806741Y-35354062D01*
X67740236Y-35344500D01*
X67740234Y-35344500D01*
X67673033Y-35344500D01*
X67664187Y-35344184D01*
X67597158Y-35339390D01*
X67597156Y-35339390D01*
X67530127Y-35344184D01*
X67521281Y-35344500D01*
X67454077Y-35344500D01*
X67387556Y-35354064D01*
X67378756Y-35355010D01*
X67311728Y-35359804D01*
X67311718Y-35359805D01*
X67246066Y-35374087D01*
X67237357Y-35375659D01*
X67170835Y-35385223D01*
X67106361Y-35404155D01*
X67097784Y-35406344D01*
X67032116Y-35420629D01*
X67032104Y-35420632D01*
X66969147Y-35444114D01*
X66960753Y-35446908D01*
X66896273Y-35465842D01*
X66896259Y-35465847D01*
X66835142Y-35493758D01*
X66826968Y-35497144D01*
X66763999Y-35520631D01*
X66763993Y-35520633D01*
X66705006Y-35552843D01*
X66697094Y-35556803D01*
X66635970Y-35584718D01*
X66579429Y-35621054D01*
X66571821Y-35625568D01*
X66512840Y-35657775D01*
X66512837Y-35657777D01*
X66459051Y-35698039D01*
X66451785Y-35703083D01*
X66395253Y-35739415D01*
X66395234Y-35739430D01*
X66344453Y-35783432D01*
X66337563Y-35788985D01*
X66283770Y-35829254D01*
X66283761Y-35829262D01*
X66233117Y-35879905D01*
X66233111Y-35879911D01*
X65984271Y-36128750D01*
X65984258Y-36128765D01*
X65943990Y-36182556D01*
X65938438Y-36189445D01*
X65894434Y-36240229D01*
X65894420Y-36240248D01*
X65858092Y-36296774D01*
X65853047Y-36304041D01*
X65812777Y-36357837D01*
X65780568Y-36416821D01*
X65776054Y-36424428D01*
X65739720Y-36480966D01*
X65739718Y-36480969D01*
X65739718Y-36480970D01*
X65711802Y-36542097D01*
X65707841Y-36550010D01*
X65675633Y-36608994D01*
X65675629Y-36609003D01*
X65652146Y-36671963D01*
X65648761Y-36680136D01*
X65620842Y-36741272D01*
X65620841Y-36741276D01*
X65601909Y-36805749D01*
X65599115Y-36814144D01*
X65575632Y-36877105D01*
X65575631Y-36877108D01*
X65561342Y-36942793D01*
X65559154Y-36951366D01*
X65540226Y-37015832D01*
X65540224Y-37015840D01*
X65530659Y-37082353D01*
X65529089Y-37091059D01*
X65514804Y-37156728D01*
X65514803Y-37156731D01*
X65510008Y-37223765D01*
X65509062Y-37232560D01*
X65499500Y-37299072D01*
X65499500Y-41625857D01*
X65479815Y-41692896D01*
X65427011Y-41738651D01*
X65357853Y-41748595D01*
X65301190Y-41725124D01*
X65259613Y-41694000D01*
X65252721Y-41688446D01*
X65201925Y-41644431D01*
X65201917Y-41644425D01*
X65145366Y-41608082D01*
X65138108Y-41603043D01*
X65084315Y-41562774D01*
X65084310Y-41562771D01*
X65084309Y-41562770D01*
X65025344Y-41530573D01*
X65017732Y-41526057D01*
X64961193Y-41489722D01*
X64961190Y-41489720D01*
X64961187Y-41489718D01*
X64900031Y-41461788D01*
X64892147Y-41457841D01*
X64862902Y-41441873D01*
X64833166Y-41425635D01*
X64833161Y-41425633D01*
X64833156Y-41425631D01*
X64770184Y-41402144D01*
X64762016Y-41398760D01*
X64700892Y-41370844D01*
X64636410Y-41351911D01*
X64628023Y-41349119D01*
X64607506Y-41341467D01*
X64565046Y-41325630D01*
X64499381Y-41311346D01*
X64490806Y-41309157D01*
X64426328Y-41290224D01*
X64359789Y-41280656D01*
X64351083Y-41279085D01*
X64285439Y-41264805D01*
X64285428Y-41264804D01*
X64218399Y-41260010D01*
X64209598Y-41259064D01*
X64143079Y-41249500D01*
X64143077Y-41249500D01*
X64075876Y-41249500D01*
X64067030Y-41249184D01*
X64000001Y-41244390D01*
X63999999Y-41244390D01*
X63932970Y-41249184D01*
X63924124Y-41249500D01*
X63856920Y-41249500D01*
X63790399Y-41259064D01*
X63781599Y-41260010D01*
X63714571Y-41264804D01*
X63714561Y-41264805D01*
X63648909Y-41279087D01*
X63640200Y-41280659D01*
X63573678Y-41290223D01*
X63509204Y-41309155D01*
X63500627Y-41311344D01*
X63434959Y-41325629D01*
X63434947Y-41325632D01*
X63371990Y-41349114D01*
X63363596Y-41351908D01*
X63299116Y-41370842D01*
X63299102Y-41370847D01*
X63237985Y-41398758D01*
X63229811Y-41402144D01*
X63166842Y-41425631D01*
X63166836Y-41425633D01*
X63107849Y-41457843D01*
X63099937Y-41461803D01*
X63038813Y-41489718D01*
X62982272Y-41526054D01*
X62974664Y-41530568D01*
X62915683Y-41562775D01*
X62915680Y-41562777D01*
X62861894Y-41603039D01*
X62854628Y-41608083D01*
X62798096Y-41644415D01*
X62798077Y-41644430D01*
X62747296Y-41688432D01*
X62740406Y-41693985D01*
X62686609Y-41734257D01*
X62686595Y-41734269D01*
X62673766Y-41747100D01*
X62673762Y-41747104D01*
X62635961Y-41784904D01*
X62635959Y-41784906D01*
X62635958Y-41784905D01*
X62635953Y-41784910D01*
X62635954Y-41784911D01*
X62560912Y-41859954D01*
X62560911Y-41859954D01*
X62471428Y-41949436D01*
X62471415Y-41949451D01*
X62431147Y-42003242D01*
X62425595Y-42010131D01*
X62381591Y-42060915D01*
X62381577Y-42060934D01*
X62345249Y-42117460D01*
X62340204Y-42124727D01*
X62299934Y-42178523D01*
X62267725Y-42237507D01*
X62263211Y-42245114D01*
X62226877Y-42301652D01*
X62198959Y-42362783D01*
X62194998Y-42370696D01*
X62162790Y-42429680D01*
X62162786Y-42429689D01*
X62139303Y-42492649D01*
X62135918Y-42500822D01*
X62107999Y-42561958D01*
X62107998Y-42561962D01*
X62089066Y-42626435D01*
X62086272Y-42634830D01*
X62062789Y-42697791D01*
X62062788Y-42697794D01*
X62048499Y-42763479D01*
X62046311Y-42772052D01*
X62037266Y-42802858D01*
X62031152Y-42823683D01*
X62027383Y-42836518D01*
X62027381Y-42836526D01*
X62017816Y-42903039D01*
X62016246Y-42911745D01*
X62001961Y-42977414D01*
X62001960Y-42977417D01*
X61997165Y-43044451D01*
X61996219Y-43053246D01*
X61986657Y-43119758D01*
X61986657Y-46029178D01*
X61966972Y-46096217D01*
X61914168Y-46141972D01*
X61845010Y-46151916D01*
X61803230Y-46138010D01*
X61620323Y-46038135D01*
X61620324Y-46038135D01*
X61433180Y-45968334D01*
X61352203Y-45938131D01*
X61352200Y-45938130D01*
X61352194Y-45938128D01*
X61072590Y-45877304D01*
X60858607Y-45862000D01*
X60858605Y-45862000D01*
X59561657Y-45862000D01*
X59494618Y-45842315D01*
X59448863Y-45789511D01*
X59437657Y-45738000D01*
X59437657Y-43551923D01*
X59435286Y-43535433D01*
X59428089Y-43485377D01*
X59427148Y-43476617D01*
X59422353Y-43409572D01*
X59408064Y-43343886D01*
X59406495Y-43335189D01*
X59405156Y-43325874D01*
X59396932Y-43268677D01*
X59378000Y-43204202D01*
X59375813Y-43195629D01*
X59361528Y-43129962D01*
X59361528Y-43129961D01*
X59361526Y-43129957D01*
X59361526Y-43129954D01*
X59338034Y-43066972D01*
X59335247Y-43058597D01*
X59316313Y-42994111D01*
X59288387Y-42932963D01*
X59285003Y-42924792D01*
X59280137Y-42911745D01*
X59261524Y-42861839D01*
X59229307Y-42802839D01*
X59225372Y-42794979D01*
X59197439Y-42733813D01*
X59175752Y-42700068D01*
X59161103Y-42677273D01*
X59156586Y-42669660D01*
X59124386Y-42610689D01*
X59124381Y-42610682D01*
X59084105Y-42556879D01*
X59079069Y-42549627D01*
X59042730Y-42493082D01*
X58998718Y-42442289D01*
X58993167Y-42435401D01*
X58988886Y-42429682D01*
X58952896Y-42381605D01*
X58952891Y-42381600D01*
X58952886Y-42381594D01*
X58750552Y-42179261D01*
X57531202Y-40959911D01*
X57480562Y-40909270D01*
X57480556Y-40909265D01*
X57480552Y-40909261D01*
X57426754Y-40868988D01*
X57419863Y-40863434D01*
X57369080Y-40819431D01*
X57369073Y-40819425D01*
X57312531Y-40783088D01*
X57305273Y-40778049D01*
X57251472Y-40737774D01*
X57251467Y-40737771D01*
X57251466Y-40737770D01*
X57192496Y-40705570D01*
X57184883Y-40701053D01*
X57128349Y-40664720D01*
X57128339Y-40664715D01*
X57098184Y-40650944D01*
X57067200Y-40636794D01*
X57059317Y-40632849D01*
X57000318Y-40600633D01*
X56937347Y-40577145D01*
X56929173Y-40573759D01*
X56868048Y-40545845D01*
X56803573Y-40526913D01*
X56795176Y-40524118D01*
X56732205Y-40500631D01*
X56666524Y-40486343D01*
X56657949Y-40484154D01*
X56593488Y-40465227D01*
X56593475Y-40465224D01*
X56526964Y-40455661D01*
X56518253Y-40454089D01*
X56452589Y-40439804D01*
X56385547Y-40435008D01*
X56376751Y-40434062D01*
X56310239Y-40424500D01*
X56310236Y-40424500D01*
X56238605Y-40424500D01*
X54811609Y-40424500D01*
X54744570Y-40404815D01*
X54698815Y-40352011D01*
X54688871Y-40282853D01*
X54717896Y-40219297D01*
X54723928Y-40212819D01*
X54861269Y-40075478D01*
X55604336Y-39332409D01*
X55665657Y-39298926D01*
X55735348Y-39303910D01*
X55829674Y-39339091D01*
X55829673Y-39339091D01*
X55836601Y-39339835D01*
X55889284Y-39345500D01*
X58985029Y-39345499D01*
X59044640Y-39339091D01*
X59179488Y-39288796D01*
X59294703Y-39202546D01*
X59380953Y-39087331D01*
X59431248Y-38952483D01*
X59437657Y-38892873D01*
X59437657Y-37345001D01*
X60511547Y-37345001D01*
X60531961Y-37630433D01*
X60592785Y-37910037D01*
X60592786Y-37910039D01*
X60592788Y-37910046D01*
X60665502Y-38105000D01*
X60692792Y-38178166D01*
X60829927Y-38429309D01*
X60829932Y-38429317D01*
X61001411Y-38658387D01*
X61001427Y-38658405D01*
X61203751Y-38860729D01*
X61203769Y-38860745D01*
X61432839Y-39032224D01*
X61432847Y-39032229D01*
X61683990Y-39169364D01*
X61683989Y-39169364D01*
X61683993Y-39169365D01*
X61683996Y-39169367D01*
X61952111Y-39269369D01*
X61952117Y-39269370D01*
X61952119Y-39269371D01*
X62231723Y-39330195D01*
X62231725Y-39330195D01*
X62231729Y-39330196D01*
X62468668Y-39347142D01*
X62517156Y-39350610D01*
X62517157Y-39350610D01*
X62517158Y-39350610D01*
X62565646Y-39347142D01*
X62802585Y-39330196D01*
X62946332Y-39298926D01*
X63082194Y-39269371D01*
X63082194Y-39269370D01*
X63082203Y-39269369D01*
X63350318Y-39169367D01*
X63601472Y-39032226D01*
X63830552Y-38860739D01*
X64032896Y-38658395D01*
X64204383Y-38429315D01*
X64341524Y-38178161D01*
X64441526Y-37910046D01*
X64471703Y-37771324D01*
X64502352Y-37630433D01*
X64502352Y-37630432D01*
X64502353Y-37630428D01*
X64522767Y-37345000D01*
X64502353Y-37059572D01*
X64498515Y-37041930D01*
X64441528Y-36779962D01*
X64441527Y-36779960D01*
X64441526Y-36779954D01*
X64341524Y-36511839D01*
X64311392Y-36456657D01*
X64204386Y-36260690D01*
X64204381Y-36260682D01*
X64032902Y-36031612D01*
X64032886Y-36031594D01*
X63830562Y-35829270D01*
X63830544Y-35829254D01*
X63601474Y-35657775D01*
X63601466Y-35657770D01*
X63350323Y-35520635D01*
X63350324Y-35520635D01*
X63203415Y-35465841D01*
X63082203Y-35420631D01*
X63082200Y-35420630D01*
X63082194Y-35420628D01*
X62802590Y-35359804D01*
X62517158Y-35339390D01*
X62517156Y-35339390D01*
X62231723Y-35359804D01*
X61952119Y-35420628D01*
X61683990Y-35520635D01*
X61432847Y-35657770D01*
X61432839Y-35657775D01*
X61203769Y-35829254D01*
X61203751Y-35829270D01*
X61001427Y-36031594D01*
X61001411Y-36031612D01*
X60829932Y-36260682D01*
X60829927Y-36260690D01*
X60692792Y-36511833D01*
X60592785Y-36779962D01*
X60531961Y-37059566D01*
X60511547Y-37344998D01*
X60511547Y-37345001D01*
X59437657Y-37345001D01*
X59437656Y-35797128D01*
X59431248Y-35737517D01*
X59401663Y-35658196D01*
X59380954Y-35602671D01*
X59380950Y-35602664D01*
X59294704Y-35487455D01*
X59294701Y-35487452D01*
X59179492Y-35401206D01*
X59179485Y-35401202D01*
X59044639Y-35350908D01*
X59044640Y-35350908D01*
X58985040Y-35344501D01*
X58985038Y-35344500D01*
X58985030Y-35344500D01*
X58985021Y-35344500D01*
X55889286Y-35344500D01*
X55889280Y-35344501D01*
X55829673Y-35350908D01*
X55694828Y-35401202D01*
X55694821Y-35401206D01*
X55579612Y-35487452D01*
X55579609Y-35487455D01*
X55493363Y-35602664D01*
X55493359Y-35602671D01*
X55443065Y-35737517D01*
X55436658Y-35797116D01*
X55436658Y-35797123D01*
X55436657Y-35797135D01*
X55436657Y-37679546D01*
X55416972Y-37746585D01*
X55400338Y-37767227D01*
X53568777Y-39598787D01*
X53507454Y-39632272D01*
X53494982Y-39634326D01*
X53447907Y-39639630D01*
X53277635Y-39699210D01*
X53124894Y-39795184D01*
X52997341Y-39922737D01*
X52901367Y-40075478D01*
X52841787Y-40245750D01*
X52834055Y-40314383D01*
X52806989Y-40378797D01*
X52749394Y-40418352D01*
X52710835Y-40424500D01*
X40537154Y-40424500D01*
X40470115Y-40404815D01*
X40449473Y-40388181D01*
X39619799Y-39558507D01*
X39586314Y-39497184D01*
X39591298Y-39427492D01*
X39633170Y-39371559D01*
X39698634Y-39347142D01*
X39942519Y-39329699D01*
X40222052Y-39268890D01*
X40490115Y-39168908D01*
X40741204Y-39031803D01*
X40883718Y-38925116D01*
X40883719Y-38925115D01*
X39990904Y-38032300D01*
X40000566Y-38028784D01*
X40149001Y-37931157D01*
X40270921Y-37801930D01*
X40342925Y-37677215D01*
X41237272Y-38571562D01*
X41237273Y-38571561D01*
X41343960Y-38429047D01*
X41481065Y-38177958D01*
X41581047Y-37909895D01*
X41641856Y-37630362D01*
X41662266Y-37345001D01*
X42731547Y-37345001D01*
X42751961Y-37630433D01*
X42812785Y-37910037D01*
X42812786Y-37910039D01*
X42812788Y-37910046D01*
X42885502Y-38105000D01*
X42912792Y-38178166D01*
X43049927Y-38429309D01*
X43049932Y-38429317D01*
X43221411Y-38658387D01*
X43221427Y-38658405D01*
X43423751Y-38860729D01*
X43423769Y-38860745D01*
X43652839Y-39032224D01*
X43652847Y-39032229D01*
X43903990Y-39169364D01*
X43903989Y-39169364D01*
X43903993Y-39169365D01*
X43903996Y-39169367D01*
X44172111Y-39269369D01*
X44172117Y-39269370D01*
X44172119Y-39269371D01*
X44451723Y-39330195D01*
X44451725Y-39330195D01*
X44451729Y-39330196D01*
X44688668Y-39347142D01*
X44737156Y-39350610D01*
X44737157Y-39350610D01*
X44737158Y-39350610D01*
X44785646Y-39347142D01*
X45022585Y-39330196D01*
X45166332Y-39298926D01*
X45302194Y-39269371D01*
X45302194Y-39269370D01*
X45302203Y-39269369D01*
X45570318Y-39169367D01*
X45821472Y-39032226D01*
X46050552Y-38860739D01*
X46252896Y-38658395D01*
X46424383Y-38429315D01*
X46561524Y-38178161D01*
X46661526Y-37910046D01*
X46691703Y-37771324D01*
X46722352Y-37630433D01*
X46722352Y-37630432D01*
X46722353Y-37630428D01*
X46742767Y-37345001D01*
X47811547Y-37345001D01*
X47831961Y-37630433D01*
X47892785Y-37910037D01*
X47892786Y-37910039D01*
X47892788Y-37910046D01*
X47965502Y-38105000D01*
X47992792Y-38178166D01*
X48129927Y-38429309D01*
X48129932Y-38429317D01*
X48301411Y-38658387D01*
X48301427Y-38658405D01*
X48503751Y-38860729D01*
X48503769Y-38860745D01*
X48732839Y-39032224D01*
X48732847Y-39032229D01*
X48983990Y-39169364D01*
X48983989Y-39169364D01*
X48983993Y-39169365D01*
X48983996Y-39169367D01*
X49252111Y-39269369D01*
X49252117Y-39269370D01*
X49252119Y-39269371D01*
X49531723Y-39330195D01*
X49531725Y-39330195D01*
X49531729Y-39330196D01*
X49768668Y-39347142D01*
X49817156Y-39350610D01*
X49817157Y-39350610D01*
X49817158Y-39350610D01*
X49865646Y-39347142D01*
X50102585Y-39330196D01*
X50246332Y-39298926D01*
X50382194Y-39269371D01*
X50382194Y-39269370D01*
X50382203Y-39269369D01*
X50650318Y-39169367D01*
X50901472Y-39032226D01*
X51130552Y-38860739D01*
X51332896Y-38658395D01*
X51504383Y-38429315D01*
X51641524Y-38178161D01*
X51741526Y-37910046D01*
X51771703Y-37771324D01*
X51802352Y-37630433D01*
X51802352Y-37630432D01*
X51802353Y-37630428D01*
X51822767Y-37345000D01*
X51802353Y-37059572D01*
X51798515Y-37041930D01*
X51741528Y-36779962D01*
X51741527Y-36779960D01*
X51741526Y-36779954D01*
X51641524Y-36511839D01*
X51611392Y-36456657D01*
X51504386Y-36260690D01*
X51504381Y-36260682D01*
X51332902Y-36031612D01*
X51332886Y-36031594D01*
X51130562Y-35829270D01*
X51130544Y-35829254D01*
X50901474Y-35657775D01*
X50901466Y-35657770D01*
X50650323Y-35520635D01*
X50650324Y-35520635D01*
X50503415Y-35465841D01*
X50382203Y-35420631D01*
X50382200Y-35420630D01*
X50382194Y-35420628D01*
X50102590Y-35359804D01*
X49817158Y-35339390D01*
X49817156Y-35339390D01*
X49531723Y-35359804D01*
X49252119Y-35420628D01*
X48983990Y-35520635D01*
X48732847Y-35657770D01*
X48732839Y-35657775D01*
X48503769Y-35829254D01*
X48503751Y-35829270D01*
X48301427Y-36031594D01*
X48301411Y-36031612D01*
X48129932Y-36260682D01*
X48129927Y-36260690D01*
X47992792Y-36511833D01*
X47892785Y-36779962D01*
X47831961Y-37059566D01*
X47811547Y-37344998D01*
X47811547Y-37345001D01*
X46742767Y-37345001D01*
X46742767Y-37345000D01*
X46722353Y-37059572D01*
X46718515Y-37041930D01*
X46661528Y-36779962D01*
X46661527Y-36779960D01*
X46661526Y-36779954D01*
X46561524Y-36511839D01*
X46531392Y-36456657D01*
X46424386Y-36260690D01*
X46424381Y-36260682D01*
X46252902Y-36031612D01*
X46252886Y-36031594D01*
X46050562Y-35829270D01*
X46050544Y-35829254D01*
X45821474Y-35657775D01*
X45821466Y-35657770D01*
X45570323Y-35520635D01*
X45570324Y-35520635D01*
X45423415Y-35465841D01*
X45302203Y-35420631D01*
X45302200Y-35420630D01*
X45302194Y-35420628D01*
X45022590Y-35359804D01*
X44737158Y-35339390D01*
X44737156Y-35339390D01*
X44451723Y-35359804D01*
X44172119Y-35420628D01*
X43903990Y-35520635D01*
X43652847Y-35657770D01*
X43652839Y-35657775D01*
X43423769Y-35829254D01*
X43423751Y-35829270D01*
X43221427Y-36031594D01*
X43221411Y-36031612D01*
X43049932Y-36260682D01*
X43049927Y-36260690D01*
X42912792Y-36511833D01*
X42812785Y-36779962D01*
X42751961Y-37059566D01*
X42731547Y-37344998D01*
X42731547Y-37345001D01*
X41662266Y-37345001D01*
X41662266Y-37344998D01*
X41641856Y-37059637D01*
X41581047Y-36780104D01*
X41481065Y-36512041D01*
X41343965Y-36260961D01*
X41343964Y-36260960D01*
X41237272Y-36118436D01*
X40341960Y-37013747D01*
X40319817Y-36962413D01*
X40213724Y-36819906D01*
X40077627Y-36705706D01*
X39987939Y-36660663D01*
X40883719Y-35764883D01*
X40883718Y-35764882D01*
X40741203Y-35658196D01*
X40741195Y-35658191D01*
X40490114Y-35521091D01*
X40490115Y-35521091D01*
X40222052Y-35421109D01*
X39942519Y-35360300D01*
X39657158Y-35339891D01*
X39657156Y-35339891D01*
X39371794Y-35360300D01*
X39092261Y-35421109D01*
X38824198Y-35521091D01*
X38573118Y-35658191D01*
X38573110Y-35658196D01*
X38430594Y-35764882D01*
X38430593Y-35764883D01*
X39323409Y-36657699D01*
X39313748Y-36661216D01*
X39165313Y-36758843D01*
X39043393Y-36888070D01*
X38971388Y-37012785D01*
X38077039Y-36118436D01*
X37970353Y-36260953D01*
X37970348Y-36260961D01*
X37833248Y-36512041D01*
X37733266Y-36780104D01*
X37672457Y-37059637D01*
X37655014Y-37303523D01*
X37630597Y-37368988D01*
X37574663Y-37410859D01*
X37504972Y-37415843D01*
X37443649Y-37382358D01*
X36613975Y-36552684D01*
X36580490Y-36491361D01*
X36577656Y-36465003D01*
X36577656Y-35797129D01*
X36577655Y-35797123D01*
X36577654Y-35797116D01*
X36571248Y-35737517D01*
X36541663Y-35658196D01*
X36520954Y-35602671D01*
X36520950Y-35602664D01*
X36434704Y-35487455D01*
X36434701Y-35487452D01*
X36319492Y-35401206D01*
X36319485Y-35401202D01*
X36184639Y-35350908D01*
X36184640Y-35350908D01*
X36125040Y-35344501D01*
X36125038Y-35344500D01*
X36125030Y-35344500D01*
X34720239Y-35344500D01*
X34720236Y-35344500D01*
X34434078Y-35344500D01*
X34434074Y-35344500D01*
X33029286Y-35344500D01*
X33029280Y-35344501D01*
X32969673Y-35350908D01*
X32834828Y-35401202D01*
X32834821Y-35401206D01*
X32719612Y-35487452D01*
X32719609Y-35487455D01*
X32633363Y-35602664D01*
X32633359Y-35602671D01*
X32583065Y-35737517D01*
X32576658Y-35797116D01*
X32576658Y-35797123D01*
X32576657Y-35797135D01*
X32576657Y-38892870D01*
X30377657Y-38892870D01*
X30377657Y-30819500D01*
X30397342Y-30752461D01*
X30450146Y-30706706D01*
X30501657Y-30695500D01*
X79262657Y-30695500D01*
X79329696Y-30715185D01*
G37*
G04 #@! TD.AperFunction*
M02*
