%TF.GenerationSoftware,KiCad,Pcbnew,7.0.9*%
%TF.CreationDate,2023-12-29T07:37:09-06:00*%
%TF.ProjectId,Sabertoothv2,53616265-7274-46f6-9f74-6876322e6b69,rev?*%
%TF.SameCoordinates,Original*%
%TF.FileFunction,Drillmap*%
%TF.FilePolarity,Positive*%
%FSLAX45Y45*%
G04 Gerber Fmt 4.5, Leading zero omitted, Abs format (unit mm)*
G04 Created by KiCad (PCBNEW 7.0.9) date 2023-12-29 07:37:09*
%MOMM*%
%LPD*%
G01*
G04 APERTURE LIST*
%ADD10C,0.050000*%
%ADD11C,0.200000*%
G04 APERTURE END LIST*
D10*
X5082945Y-2032000D02*
X9639300Y-2032000D01*
X9639300Y-6588355D01*
X5082945Y-6588355D01*
X5082945Y-2032000D01*
D11*
X5341221Y-6902339D02*
X5341221Y-6702339D01*
X5341221Y-6702339D02*
X5388840Y-6702339D01*
X5388840Y-6702339D02*
X5417412Y-6711863D01*
X5417412Y-6711863D02*
X5436460Y-6730911D01*
X5436460Y-6730911D02*
X5445983Y-6749958D01*
X5445983Y-6749958D02*
X5455507Y-6788053D01*
X5455507Y-6788053D02*
X5455507Y-6816625D01*
X5455507Y-6816625D02*
X5445983Y-6854720D01*
X5445983Y-6854720D02*
X5436460Y-6873768D01*
X5436460Y-6873768D02*
X5417412Y-6892815D01*
X5417412Y-6892815D02*
X5388840Y-6902339D01*
X5388840Y-6902339D02*
X5341221Y-6902339D01*
X5541221Y-6902339D02*
X5541221Y-6769006D01*
X5541221Y-6807101D02*
X5550745Y-6788053D01*
X5550745Y-6788053D02*
X5560269Y-6778530D01*
X5560269Y-6778530D02*
X5579317Y-6769006D01*
X5579317Y-6769006D02*
X5598364Y-6769006D01*
X5665031Y-6902339D02*
X5665031Y-6769006D01*
X5665031Y-6702339D02*
X5655507Y-6711863D01*
X5655507Y-6711863D02*
X5665031Y-6721387D01*
X5665031Y-6721387D02*
X5674555Y-6711863D01*
X5674555Y-6711863D02*
X5665031Y-6702339D01*
X5665031Y-6702339D02*
X5665031Y-6721387D01*
X5788840Y-6902339D02*
X5769793Y-6892815D01*
X5769793Y-6892815D02*
X5760269Y-6873768D01*
X5760269Y-6873768D02*
X5760269Y-6702339D01*
X5893602Y-6902339D02*
X5874555Y-6892815D01*
X5874555Y-6892815D02*
X5865031Y-6873768D01*
X5865031Y-6873768D02*
X5865031Y-6702339D01*
X6122174Y-6902339D02*
X6122174Y-6702339D01*
X6122174Y-6702339D02*
X6188840Y-6845196D01*
X6188840Y-6845196D02*
X6255507Y-6702339D01*
X6255507Y-6702339D02*
X6255507Y-6902339D01*
X6436459Y-6902339D02*
X6436459Y-6797577D01*
X6436459Y-6797577D02*
X6426936Y-6778530D01*
X6426936Y-6778530D02*
X6407888Y-6769006D01*
X6407888Y-6769006D02*
X6369793Y-6769006D01*
X6369793Y-6769006D02*
X6350745Y-6778530D01*
X6436459Y-6892815D02*
X6417412Y-6902339D01*
X6417412Y-6902339D02*
X6369793Y-6902339D01*
X6369793Y-6902339D02*
X6350745Y-6892815D01*
X6350745Y-6892815D02*
X6341221Y-6873768D01*
X6341221Y-6873768D02*
X6341221Y-6854720D01*
X6341221Y-6854720D02*
X6350745Y-6835672D01*
X6350745Y-6835672D02*
X6369793Y-6826149D01*
X6369793Y-6826149D02*
X6417412Y-6826149D01*
X6417412Y-6826149D02*
X6436459Y-6816625D01*
X6531698Y-6769006D02*
X6531698Y-6969006D01*
X6531698Y-6778530D02*
X6550745Y-6769006D01*
X6550745Y-6769006D02*
X6588840Y-6769006D01*
X6588840Y-6769006D02*
X6607888Y-6778530D01*
X6607888Y-6778530D02*
X6617412Y-6788053D01*
X6617412Y-6788053D02*
X6626936Y-6807101D01*
X6626936Y-6807101D02*
X6626936Y-6864244D01*
X6626936Y-6864244D02*
X6617412Y-6883291D01*
X6617412Y-6883291D02*
X6607888Y-6892815D01*
X6607888Y-6892815D02*
X6588840Y-6902339D01*
X6588840Y-6902339D02*
X6550745Y-6902339D01*
X6550745Y-6902339D02*
X6531698Y-6892815D01*
X6712650Y-6883291D02*
X6722174Y-6892815D01*
X6722174Y-6892815D02*
X6712650Y-6902339D01*
X6712650Y-6902339D02*
X6703126Y-6892815D01*
X6703126Y-6892815D02*
X6712650Y-6883291D01*
X6712650Y-6883291D02*
X6712650Y-6902339D01*
X6712650Y-6778530D02*
X6722174Y-6788053D01*
X6722174Y-6788053D02*
X6712650Y-6797577D01*
X6712650Y-6797577D02*
X6703126Y-6788053D01*
X6703126Y-6788053D02*
X6712650Y-6778530D01*
X6712650Y-6778530D02*
X6712650Y-6797577D01*
M02*
