M48
; DRILL file {KiCad 7.0.10} date Thu 22 Feb 2024 06:13:41 PM CST
; FORMAT={-:-/ absolute / metric / decimal}
; #@! TF.CreationDate,2024-02-22T18:13:41-06:00
; #@! TF.GenerationSoftware,Kicad,Pcbnew,7.0.10
; #@! TF.FileFunction,Plated,1,2,PTH
FMAT,2
METRIC
; #@! TA.AperFunction,Plated,PTH,ViaDrill
T1C0.300
; #@! TA.AperFunction,Plated,PTH,ComponentDrill
T2C1.000
; #@! TA.AperFunction,Plated,PTH,ComponentDrill
T3C1.520
%
G90
G05
T1
X29.21Y-40.64
X29.718Y-39.37
X30.545Y-37.592
X31.75Y-50.165
X31.75Y-51.435
X33.71Y-39.37
X34.036Y-50.038
X34.036Y-50.8
X34.798Y-50.038
X34.798Y-50.8
X35.052Y-58.42
X35.052Y-59.182
X35.052Y-59.944
X35.052Y-60.706
X35.498Y-50.038
X35.56Y-50.8
X36.068Y-53.848
X36.235Y-39.624
X37.465Y-39.37
X37.465Y-53.34
X41.656Y-46.355
X41.765Y-55.735
X41.91Y-39.37
X41.91Y-40.132
X41.91Y-40.894
X41.91Y-60.706
X45.974Y-40.386
X45.974Y-41.148
X45.974Y-52.832
X46.355Y-48.26
X46.355Y-54.61
X46.736Y-40.386
X46.736Y-41.148
X46.736Y-59.131
X46.99Y-33.56
X48.26Y-39.624
X48.26Y-48.26
X48.26Y-50.8
X50.165Y-53.975
X50.165Y-54.61
X50.8Y-53.975
X50.8Y-54.61
X51.905Y-57.62
X53.34Y-43.18
X53.34Y-49.784
X57.404Y-44.196
X58.045Y-59.315
X60.325Y-59.055
X60.325Y-59.69
X60.325Y-60.325
X60.96Y-59.055
X60.96Y-59.69
X60.96Y-60.325
X61.595Y-59.055
X61.595Y-59.69
X62.23Y-44.45
X67.31Y-52.07
T2
X60.96Y-64.438
X60.96Y-69.088
X63.5Y-64.438
X63.5Y-69.088
X66.04Y-64.438
X66.04Y-69.088
X68.58Y-64.438
X68.58Y-69.088
T3
X27.94Y-30.48
X33.02Y-30.48
X38.1Y-30.48
X43.18Y-30.48
X50.8Y-30.48
X55.88Y-30.48
X60.96Y-30.48
X66.04Y-30.48
M30
