%TF.GenerationSoftware,KiCad,Pcbnew,7.0.10*%
%TF.CreationDate,2024-02-22T18:12:09-06:00*%
%TF.ProjectId,Sabertoothv2,53616265-7274-46f6-9f74-6876322e6b69,rev?*%
%TF.SameCoordinates,Original*%
%TF.FileFunction,Legend,Top*%
%TF.FilePolarity,Positive*%
%FSLAX46Y46*%
G04 Gerber Fmt 4.6, Leading zero omitted, Abs format (unit mm)*
G04 Created by KiCad (PCBNEW 7.0.10) date 2024-02-22 18:12:09*
%MOMM*%
%LPD*%
G01*
G04 APERTURE LIST*
G04 Aperture macros list*
%AMRoundRect*
0 Rectangle with rounded corners*
0 $1 Rounding radius*
0 $2 $3 $4 $5 $6 $7 $8 $9 X,Y pos of 4 corners*
0 Add a 4 corners polygon primitive as box body*
4,1,4,$2,$3,$4,$5,$6,$7,$8,$9,$2,$3,0*
0 Add four circle primitives for the rounded corners*
1,1,$1+$1,$2,$3*
1,1,$1+$1,$4,$5*
1,1,$1+$1,$6,$7*
1,1,$1+$1,$8,$9*
0 Add four rect primitives between the rounded corners*
20,1,$1+$1,$2,$3,$4,$5,0*
20,1,$1+$1,$4,$5,$6,$7,0*
20,1,$1+$1,$6,$7,$8,$9,0*
20,1,$1+$1,$8,$9,$2,$3,0*%
%AMFreePoly0*
4,1,21,1.372500,0.787500,0.862500,0.787500,0.862500,0.532500,1.372500,0.532500,1.372500,0.127500,0.862500,0.127500,0.862500,-0.127500,1.372500,-0.127500,1.372500,-0.532500,0.862500,-0.532500,0.862500,-0.787500,1.372500,-0.787500,1.372500,-1.195000,0.612500,-1.195000,0.612500,-1.117500,-0.862500,-1.117500,-0.862500,1.117500,0.612500,1.117500,0.612500,1.195000,1.372500,1.195000,
1.372500,0.787500,1.372500,0.787500,$1*%
G04 Aperture macros list end*
%ADD10C,0.100000*%
%ADD11C,0.153000*%
%ADD12C,0.150000*%
%ADD13C,0.120000*%
%ADD14RoundRect,0.250000X-0.475000X0.337500X-0.475000X-0.337500X0.475000X-0.337500X0.475000X0.337500X0*%
%ADD15RoundRect,0.150000X-0.150000X0.825000X-0.150000X-0.825000X0.150000X-0.825000X0.150000X0.825000X0*%
%ADD16R,3.000000X2.290000*%
%ADD17R,0.990000X0.405000*%
%ADD18FreePoly0,0.000000*%
%ADD19RoundRect,0.250000X0.450000X-0.350000X0.450000X0.350000X-0.450000X0.350000X-0.450000X-0.350000X0*%
%ADD20R,2.100000X1.400000*%
%ADD21RoundRect,0.250000X-0.450000X0.350000X-0.450000X-0.350000X0.450000X-0.350000X0.450000X0.350000X0*%
%ADD22R,3.000000X3.000000*%
%ADD23C,3.000000*%
%ADD24R,1.700000X1.700000*%
%ADD25O,1.700000X1.700000*%
%ADD26RoundRect,0.250000X0.337500X0.475000X-0.337500X0.475000X-0.337500X-0.475000X0.337500X-0.475000X0*%
%ADD27RoundRect,0.250000X0.350000X0.450000X-0.350000X0.450000X-0.350000X-0.450000X0.350000X-0.450000X0*%
%ADD28R,0.450000X0.300000*%
G04 APERTURE END LIST*
D10*
X60366931Y-25841609D02*
X60128836Y-25841609D01*
X60128836Y-25841609D02*
X60128836Y-25341609D01*
X60628836Y-25341609D02*
X60724074Y-25341609D01*
X60724074Y-25341609D02*
X60771693Y-25365419D01*
X60771693Y-25365419D02*
X60819312Y-25413038D01*
X60819312Y-25413038D02*
X60843122Y-25508276D01*
X60843122Y-25508276D02*
X60843122Y-25674942D01*
X60843122Y-25674942D02*
X60819312Y-25770180D01*
X60819312Y-25770180D02*
X60771693Y-25817800D01*
X60771693Y-25817800D02*
X60724074Y-25841609D01*
X60724074Y-25841609D02*
X60628836Y-25841609D01*
X60628836Y-25841609D02*
X60581217Y-25817800D01*
X60581217Y-25817800D02*
X60533598Y-25770180D01*
X60533598Y-25770180D02*
X60509789Y-25674942D01*
X60509789Y-25674942D02*
X60509789Y-25508276D01*
X60509789Y-25508276D02*
X60533598Y-25413038D01*
X60533598Y-25413038D02*
X60581217Y-25365419D01*
X60581217Y-25365419D02*
X60628836Y-25341609D01*
X61033599Y-25698752D02*
X61271694Y-25698752D01*
X60985980Y-25841609D02*
X61152646Y-25341609D01*
X61152646Y-25341609D02*
X61319313Y-25841609D01*
X61485979Y-25841609D02*
X61485979Y-25341609D01*
X61485979Y-25341609D02*
X61605027Y-25341609D01*
X61605027Y-25341609D02*
X61676455Y-25365419D01*
X61676455Y-25365419D02*
X61724074Y-25413038D01*
X61724074Y-25413038D02*
X61747884Y-25460657D01*
X61747884Y-25460657D02*
X61771693Y-25555895D01*
X61771693Y-25555895D02*
X61771693Y-25627323D01*
X61771693Y-25627323D02*
X61747884Y-25722561D01*
X61747884Y-25722561D02*
X61724074Y-25770180D01*
X61724074Y-25770180D02*
X61676455Y-25817800D01*
X61676455Y-25817800D02*
X61605027Y-25841609D01*
X61605027Y-25841609D02*
X61485979Y-25841609D01*
X62247884Y-25841609D02*
X61962170Y-25841609D01*
X62105027Y-25841609D02*
X62105027Y-25341609D01*
X62105027Y-25341609D02*
X62057408Y-25413038D01*
X62057408Y-25413038D02*
X62009789Y-25460657D01*
X62009789Y-25460657D02*
X61962170Y-25484466D01*
X62906931Y-71307609D02*
X62668836Y-71307609D01*
X62668836Y-71307609D02*
X62668836Y-70807609D01*
X63168836Y-70807609D02*
X63264074Y-70807609D01*
X63264074Y-70807609D02*
X63311693Y-70831419D01*
X63311693Y-70831419D02*
X63359312Y-70879038D01*
X63359312Y-70879038D02*
X63383122Y-70974276D01*
X63383122Y-70974276D02*
X63383122Y-71140942D01*
X63383122Y-71140942D02*
X63359312Y-71236180D01*
X63359312Y-71236180D02*
X63311693Y-71283800D01*
X63311693Y-71283800D02*
X63264074Y-71307609D01*
X63264074Y-71307609D02*
X63168836Y-71307609D01*
X63168836Y-71307609D02*
X63121217Y-71283800D01*
X63121217Y-71283800D02*
X63073598Y-71236180D01*
X63073598Y-71236180D02*
X63049789Y-71140942D01*
X63049789Y-71140942D02*
X63049789Y-70974276D01*
X63049789Y-70974276D02*
X63073598Y-70879038D01*
X63073598Y-70879038D02*
X63121217Y-70831419D01*
X63121217Y-70831419D02*
X63168836Y-70807609D01*
X63573599Y-71164752D02*
X63811694Y-71164752D01*
X63525980Y-71307609D02*
X63692646Y-70807609D01*
X63692646Y-70807609D02*
X63859313Y-71307609D01*
X64002170Y-70855228D02*
X64025979Y-70831419D01*
X64025979Y-70831419D02*
X64073598Y-70807609D01*
X64073598Y-70807609D02*
X64192646Y-70807609D01*
X64192646Y-70807609D02*
X64240265Y-70831419D01*
X64240265Y-70831419D02*
X64264074Y-70855228D01*
X64264074Y-70855228D02*
X64287884Y-70902847D01*
X64287884Y-70902847D02*
X64287884Y-70950466D01*
X64287884Y-70950466D02*
X64264074Y-71021895D01*
X64264074Y-71021895D02*
X63978360Y-71307609D01*
X63978360Y-71307609D02*
X64287884Y-71307609D01*
X65208836Y-71307609D02*
X65208836Y-70807609D01*
X65208836Y-71045704D02*
X65494550Y-71045704D01*
X65494550Y-71307609D02*
X65494550Y-70807609D01*
X65827884Y-70807609D02*
X65923122Y-70807609D01*
X65923122Y-70807609D02*
X65970741Y-70831419D01*
X65970741Y-70831419D02*
X66018360Y-70879038D01*
X66018360Y-70879038D02*
X66042170Y-70974276D01*
X66042170Y-70974276D02*
X66042170Y-71140942D01*
X66042170Y-71140942D02*
X66018360Y-71236180D01*
X66018360Y-71236180D02*
X65970741Y-71283800D01*
X65970741Y-71283800D02*
X65923122Y-71307609D01*
X65923122Y-71307609D02*
X65827884Y-71307609D01*
X65827884Y-71307609D02*
X65780265Y-71283800D01*
X65780265Y-71283800D02*
X65732646Y-71236180D01*
X65732646Y-71236180D02*
X65708837Y-71140942D01*
X65708837Y-71140942D02*
X65708837Y-70974276D01*
X65708837Y-70974276D02*
X65732646Y-70879038D01*
X65732646Y-70879038D02*
X65780265Y-70831419D01*
X65780265Y-70831419D02*
X65827884Y-70807609D01*
X66232647Y-71164752D02*
X66470742Y-71164752D01*
X66185028Y-71307609D02*
X66351694Y-70807609D01*
X66351694Y-70807609D02*
X66518361Y-71307609D01*
X66946932Y-71307609D02*
X66661218Y-71307609D01*
X66804075Y-71307609D02*
X66804075Y-70807609D01*
X66804075Y-70807609D02*
X66756456Y-70879038D01*
X66756456Y-70879038D02*
X66708837Y-70926657D01*
X66708837Y-70926657D02*
X66661218Y-70950466D01*
X60128836Y-71307609D02*
X60128836Y-70807609D01*
X60128836Y-71045704D02*
X60414550Y-71045704D01*
X60414550Y-71307609D02*
X60414550Y-70807609D01*
X60747884Y-70807609D02*
X60843122Y-70807609D01*
X60843122Y-70807609D02*
X60890741Y-70831419D01*
X60890741Y-70831419D02*
X60938360Y-70879038D01*
X60938360Y-70879038D02*
X60962170Y-70974276D01*
X60962170Y-70974276D02*
X60962170Y-71140942D01*
X60962170Y-71140942D02*
X60938360Y-71236180D01*
X60938360Y-71236180D02*
X60890741Y-71283800D01*
X60890741Y-71283800D02*
X60843122Y-71307609D01*
X60843122Y-71307609D02*
X60747884Y-71307609D01*
X60747884Y-71307609D02*
X60700265Y-71283800D01*
X60700265Y-71283800D02*
X60652646Y-71236180D01*
X60652646Y-71236180D02*
X60628837Y-71140942D01*
X60628837Y-71140942D02*
X60628837Y-70974276D01*
X60628837Y-70974276D02*
X60652646Y-70879038D01*
X60652646Y-70879038D02*
X60700265Y-70831419D01*
X60700265Y-70831419D02*
X60747884Y-70807609D01*
X61152647Y-71164752D02*
X61390742Y-71164752D01*
X61105028Y-71307609D02*
X61271694Y-70807609D01*
X61271694Y-70807609D02*
X61438361Y-71307609D01*
X61581218Y-70855228D02*
X61605027Y-70831419D01*
X61605027Y-70831419D02*
X61652646Y-70807609D01*
X61652646Y-70807609D02*
X61771694Y-70807609D01*
X61771694Y-70807609D02*
X61819313Y-70831419D01*
X61819313Y-70831419D02*
X61843122Y-70855228D01*
X61843122Y-70855228D02*
X61866932Y-70902847D01*
X61866932Y-70902847D02*
X61866932Y-70950466D01*
X61866932Y-70950466D02*
X61843122Y-71021895D01*
X61843122Y-71021895D02*
X61557408Y-71307609D01*
X61557408Y-71307609D02*
X61866932Y-71307609D01*
X65208836Y-62671609D02*
X65208836Y-62171609D01*
X65208836Y-62171609D02*
X65399312Y-62171609D01*
X65399312Y-62171609D02*
X65446931Y-62195419D01*
X65446931Y-62195419D02*
X65470741Y-62219228D01*
X65470741Y-62219228D02*
X65494550Y-62266847D01*
X65494550Y-62266847D02*
X65494550Y-62338276D01*
X65494550Y-62338276D02*
X65470741Y-62385895D01*
X65470741Y-62385895D02*
X65446931Y-62409704D01*
X65446931Y-62409704D02*
X65399312Y-62433514D01*
X65399312Y-62433514D02*
X65208836Y-62433514D01*
X65661217Y-62171609D02*
X65780265Y-62671609D01*
X65780265Y-62671609D02*
X65875503Y-62314466D01*
X65875503Y-62314466D02*
X65970741Y-62671609D01*
X65970741Y-62671609D02*
X66089789Y-62171609D01*
X66280265Y-62671609D02*
X66280265Y-62171609D01*
X66280265Y-62171609D02*
X66446932Y-62528752D01*
X66446932Y-62528752D02*
X66613598Y-62171609D01*
X66613598Y-62171609D02*
X66613598Y-62671609D01*
X49945027Y-25817800D02*
X50016455Y-25841609D01*
X50016455Y-25841609D02*
X50135503Y-25841609D01*
X50135503Y-25841609D02*
X50183122Y-25817800D01*
X50183122Y-25817800D02*
X50206931Y-25793990D01*
X50206931Y-25793990D02*
X50230741Y-25746371D01*
X50230741Y-25746371D02*
X50230741Y-25698752D01*
X50230741Y-25698752D02*
X50206931Y-25651133D01*
X50206931Y-25651133D02*
X50183122Y-25627323D01*
X50183122Y-25627323D02*
X50135503Y-25603514D01*
X50135503Y-25603514D02*
X50040265Y-25579704D01*
X50040265Y-25579704D02*
X49992646Y-25555895D01*
X49992646Y-25555895D02*
X49968836Y-25532085D01*
X49968836Y-25532085D02*
X49945027Y-25484466D01*
X49945027Y-25484466D02*
X49945027Y-25436847D01*
X49945027Y-25436847D02*
X49968836Y-25389228D01*
X49968836Y-25389228D02*
X49992646Y-25365419D01*
X49992646Y-25365419D02*
X50040265Y-25341609D01*
X50040265Y-25341609D02*
X50159312Y-25341609D01*
X50159312Y-25341609D02*
X50230741Y-25365419D01*
X50445026Y-25579704D02*
X50611693Y-25579704D01*
X50683121Y-25841609D02*
X50445026Y-25841609D01*
X50445026Y-25841609D02*
X50445026Y-25341609D01*
X50445026Y-25341609D02*
X50683121Y-25341609D01*
X51135502Y-25841609D02*
X50897407Y-25841609D01*
X50897407Y-25841609D02*
X50897407Y-25341609D01*
X51302169Y-25579704D02*
X51468836Y-25579704D01*
X51540264Y-25841609D02*
X51302169Y-25841609D01*
X51302169Y-25841609D02*
X51302169Y-25341609D01*
X51302169Y-25341609D02*
X51540264Y-25341609D01*
X52040264Y-25793990D02*
X52016455Y-25817800D01*
X52016455Y-25817800D02*
X51945026Y-25841609D01*
X51945026Y-25841609D02*
X51897407Y-25841609D01*
X51897407Y-25841609D02*
X51825979Y-25817800D01*
X51825979Y-25817800D02*
X51778360Y-25770180D01*
X51778360Y-25770180D02*
X51754550Y-25722561D01*
X51754550Y-25722561D02*
X51730741Y-25627323D01*
X51730741Y-25627323D02*
X51730741Y-25555895D01*
X51730741Y-25555895D02*
X51754550Y-25460657D01*
X51754550Y-25460657D02*
X51778360Y-25413038D01*
X51778360Y-25413038D02*
X51825979Y-25365419D01*
X51825979Y-25365419D02*
X51897407Y-25341609D01*
X51897407Y-25341609D02*
X51945026Y-25341609D01*
X51945026Y-25341609D02*
X52016455Y-25365419D01*
X52016455Y-25365419D02*
X52040264Y-25389228D01*
X52183122Y-25341609D02*
X52468836Y-25341609D01*
X52325979Y-25841609D02*
X52325979Y-25341609D01*
X67725027Y-62647800D02*
X67796455Y-62671609D01*
X67796455Y-62671609D02*
X67915503Y-62671609D01*
X67915503Y-62671609D02*
X67963122Y-62647800D01*
X67963122Y-62647800D02*
X67986931Y-62623990D01*
X67986931Y-62623990D02*
X68010741Y-62576371D01*
X68010741Y-62576371D02*
X68010741Y-62528752D01*
X68010741Y-62528752D02*
X67986931Y-62481133D01*
X67986931Y-62481133D02*
X67963122Y-62457323D01*
X67963122Y-62457323D02*
X67915503Y-62433514D01*
X67915503Y-62433514D02*
X67820265Y-62409704D01*
X67820265Y-62409704D02*
X67772646Y-62385895D01*
X67772646Y-62385895D02*
X67748836Y-62362085D01*
X67748836Y-62362085D02*
X67725027Y-62314466D01*
X67725027Y-62314466D02*
X67725027Y-62266847D01*
X67725027Y-62266847D02*
X67748836Y-62219228D01*
X67748836Y-62219228D02*
X67772646Y-62195419D01*
X67772646Y-62195419D02*
X67820265Y-62171609D01*
X67820265Y-62171609D02*
X67939312Y-62171609D01*
X67939312Y-62171609D02*
X68010741Y-62195419D01*
X68225026Y-62409704D02*
X68391693Y-62409704D01*
X68463121Y-62671609D02*
X68225026Y-62671609D01*
X68225026Y-62671609D02*
X68225026Y-62171609D01*
X68225026Y-62171609D02*
X68463121Y-62171609D01*
X68915502Y-62671609D02*
X68677407Y-62671609D01*
X68677407Y-62671609D02*
X68677407Y-62171609D01*
X69082169Y-62409704D02*
X69248836Y-62409704D01*
X69320264Y-62671609D02*
X69082169Y-62671609D01*
X69082169Y-62671609D02*
X69082169Y-62171609D01*
X69082169Y-62171609D02*
X69320264Y-62171609D01*
X69820264Y-62623990D02*
X69796455Y-62647800D01*
X69796455Y-62647800D02*
X69725026Y-62671609D01*
X69725026Y-62671609D02*
X69677407Y-62671609D01*
X69677407Y-62671609D02*
X69605979Y-62647800D01*
X69605979Y-62647800D02*
X69558360Y-62600180D01*
X69558360Y-62600180D02*
X69534550Y-62552561D01*
X69534550Y-62552561D02*
X69510741Y-62457323D01*
X69510741Y-62457323D02*
X69510741Y-62385895D01*
X69510741Y-62385895D02*
X69534550Y-62290657D01*
X69534550Y-62290657D02*
X69558360Y-62243038D01*
X69558360Y-62243038D02*
X69605979Y-62195419D01*
X69605979Y-62195419D02*
X69677407Y-62171609D01*
X69677407Y-62171609D02*
X69725026Y-62171609D01*
X69725026Y-62171609D02*
X69796455Y-62195419D01*
X69796455Y-62195419D02*
X69820264Y-62219228D01*
X69963122Y-62171609D02*
X70248836Y-62171609D01*
X70105979Y-62671609D02*
X70105979Y-62171609D01*
D11*
X69887663Y-37761247D02*
X68887663Y-37761247D01*
X69887663Y-36713629D02*
X69411472Y-37046962D01*
X69887663Y-37285057D02*
X68887663Y-37285057D01*
X68887663Y-37285057D02*
X68887663Y-36904105D01*
X68887663Y-36904105D02*
X68935282Y-36808867D01*
X68935282Y-36808867D02*
X68982901Y-36761248D01*
X68982901Y-36761248D02*
X69078139Y-36713629D01*
X69078139Y-36713629D02*
X69220996Y-36713629D01*
X69220996Y-36713629D02*
X69316234Y-36761248D01*
X69316234Y-36761248D02*
X69363853Y-36808867D01*
X69363853Y-36808867D02*
X69411472Y-36904105D01*
X69411472Y-36904105D02*
X69411472Y-37285057D01*
X69887663Y-36285057D02*
X68887663Y-36285057D01*
X69840044Y-35856486D02*
X69887663Y-35713629D01*
X69887663Y-35713629D02*
X69887663Y-35475534D01*
X69887663Y-35475534D02*
X69840044Y-35380296D01*
X69840044Y-35380296D02*
X69792424Y-35332677D01*
X69792424Y-35332677D02*
X69697186Y-35285058D01*
X69697186Y-35285058D02*
X69601948Y-35285058D01*
X69601948Y-35285058D02*
X69506710Y-35332677D01*
X69506710Y-35332677D02*
X69459091Y-35380296D01*
X69459091Y-35380296D02*
X69411472Y-35475534D01*
X69411472Y-35475534D02*
X69363853Y-35666010D01*
X69363853Y-35666010D02*
X69316234Y-35761248D01*
X69316234Y-35761248D02*
X69268615Y-35808867D01*
X69268615Y-35808867D02*
X69173377Y-35856486D01*
X69173377Y-35856486D02*
X69078139Y-35856486D01*
X69078139Y-35856486D02*
X68982901Y-35808867D01*
X68982901Y-35808867D02*
X68935282Y-35761248D01*
X68935282Y-35761248D02*
X68887663Y-35666010D01*
X68887663Y-35666010D02*
X68887663Y-35427915D01*
X68887663Y-35427915D02*
X68935282Y-35285058D01*
X69506710Y-34856486D02*
X69506710Y-34094582D01*
X68887663Y-33713629D02*
X69887663Y-33046963D01*
X68887663Y-33046963D02*
X69887663Y-33713629D01*
X69887663Y-32666010D02*
X68887663Y-32666010D01*
X68887663Y-32332677D02*
X69887663Y-31999344D01*
X69887663Y-31999344D02*
X68887663Y-31666011D01*
X71450044Y-37808866D02*
X71497663Y-37666009D01*
X71497663Y-37666009D02*
X71497663Y-37427914D01*
X71497663Y-37427914D02*
X71450044Y-37332676D01*
X71450044Y-37332676D02*
X71402424Y-37285057D01*
X71402424Y-37285057D02*
X71307186Y-37237438D01*
X71307186Y-37237438D02*
X71211948Y-37237438D01*
X71211948Y-37237438D02*
X71116710Y-37285057D01*
X71116710Y-37285057D02*
X71069091Y-37332676D01*
X71069091Y-37332676D02*
X71021472Y-37427914D01*
X71021472Y-37427914D02*
X70973853Y-37618390D01*
X70973853Y-37618390D02*
X70926234Y-37713628D01*
X70926234Y-37713628D02*
X70878615Y-37761247D01*
X70878615Y-37761247D02*
X70783377Y-37808866D01*
X70783377Y-37808866D02*
X70688139Y-37808866D01*
X70688139Y-37808866D02*
X70592901Y-37761247D01*
X70592901Y-37761247D02*
X70545282Y-37713628D01*
X70545282Y-37713628D02*
X70497663Y-37618390D01*
X70497663Y-37618390D02*
X70497663Y-37380295D01*
X70497663Y-37380295D02*
X70545282Y-37237438D01*
X71211948Y-36856485D02*
X71211948Y-36380295D01*
X71497663Y-36951723D02*
X70497663Y-36618390D01*
X70497663Y-36618390D02*
X71497663Y-36285057D01*
X71497663Y-35951723D02*
X70497663Y-35951723D01*
X70973853Y-35951723D02*
X70973853Y-35380295D01*
X71497663Y-35380295D02*
X70497663Y-35380295D01*
X70497663Y-34285056D02*
X71497663Y-33951723D01*
X71497663Y-33951723D02*
X70497663Y-33618390D01*
X71450044Y-32904104D02*
X71497663Y-32999342D01*
X71497663Y-32999342D02*
X71497663Y-33189818D01*
X71497663Y-33189818D02*
X71450044Y-33285056D01*
X71450044Y-33285056D02*
X71354805Y-33332675D01*
X71354805Y-33332675D02*
X70973853Y-33332675D01*
X70973853Y-33332675D02*
X70878615Y-33285056D01*
X70878615Y-33285056D02*
X70830996Y-33189818D01*
X70830996Y-33189818D02*
X70830996Y-32999342D01*
X70830996Y-32999342D02*
X70878615Y-32904104D01*
X70878615Y-32904104D02*
X70973853Y-32856485D01*
X70973853Y-32856485D02*
X71069091Y-32856485D01*
X71069091Y-32856485D02*
X71164329Y-33332675D01*
X71497663Y-32427913D02*
X70830996Y-32427913D01*
X71021472Y-32427913D02*
X70926234Y-32380294D01*
X70926234Y-32380294D02*
X70878615Y-32332675D01*
X70878615Y-32332675D02*
X70830996Y-32237437D01*
X70830996Y-32237437D02*
X70830996Y-32142199D01*
X71402424Y-31808865D02*
X71450044Y-31761246D01*
X71450044Y-31761246D02*
X71497663Y-31808865D01*
X71497663Y-31808865D02*
X71450044Y-31856484D01*
X71450044Y-31856484D02*
X71402424Y-31808865D01*
X71402424Y-31808865D02*
X71497663Y-31808865D01*
X70592901Y-31380294D02*
X70545282Y-31332675D01*
X70545282Y-31332675D02*
X70497663Y-31237437D01*
X70497663Y-31237437D02*
X70497663Y-30999342D01*
X70497663Y-30999342D02*
X70545282Y-30904104D01*
X70545282Y-30904104D02*
X70592901Y-30856485D01*
X70592901Y-30856485D02*
X70688139Y-30808866D01*
X70688139Y-30808866D02*
X70783377Y-30808866D01*
X70783377Y-30808866D02*
X70926234Y-30856485D01*
X70926234Y-30856485D02*
X71497663Y-31427913D01*
X71497663Y-31427913D02*
X71497663Y-30808866D01*
X71497663Y-29046961D02*
X71021472Y-29380294D01*
X71497663Y-29618389D02*
X70497663Y-29618389D01*
X70497663Y-29618389D02*
X70497663Y-29237437D01*
X70497663Y-29237437D02*
X70545282Y-29142199D01*
X70545282Y-29142199D02*
X70592901Y-29094580D01*
X70592901Y-29094580D02*
X70688139Y-29046961D01*
X70688139Y-29046961D02*
X70830996Y-29046961D01*
X70830996Y-29046961D02*
X70926234Y-29094580D01*
X70926234Y-29094580D02*
X70973853Y-29142199D01*
X70973853Y-29142199D02*
X71021472Y-29237437D01*
X71021472Y-29237437D02*
X71021472Y-29618389D01*
X71450044Y-28237437D02*
X71497663Y-28332675D01*
X71497663Y-28332675D02*
X71497663Y-28523151D01*
X71497663Y-28523151D02*
X71450044Y-28618389D01*
X71450044Y-28618389D02*
X71354805Y-28666008D01*
X71354805Y-28666008D02*
X70973853Y-28666008D01*
X70973853Y-28666008D02*
X70878615Y-28618389D01*
X70878615Y-28618389D02*
X70830996Y-28523151D01*
X70830996Y-28523151D02*
X70830996Y-28332675D01*
X70830996Y-28332675D02*
X70878615Y-28237437D01*
X70878615Y-28237437D02*
X70973853Y-28189818D01*
X70973853Y-28189818D02*
X71069091Y-28189818D01*
X71069091Y-28189818D02*
X71164329Y-28666008D01*
X70830996Y-27856484D02*
X71497663Y-27618389D01*
X71497663Y-27618389D02*
X70830996Y-27380294D01*
X71402424Y-26999341D02*
X71450044Y-26951722D01*
X71450044Y-26951722D02*
X71497663Y-26999341D01*
X71497663Y-26999341D02*
X71450044Y-27046960D01*
X71450044Y-27046960D02*
X71402424Y-26999341D01*
X71402424Y-26999341D02*
X71497663Y-26999341D01*
X70973853Y-26189818D02*
X71021472Y-26046961D01*
X71021472Y-26046961D02*
X71069091Y-25999342D01*
X71069091Y-25999342D02*
X71164329Y-25951723D01*
X71164329Y-25951723D02*
X71307186Y-25951723D01*
X71307186Y-25951723D02*
X71402424Y-25999342D01*
X71402424Y-25999342D02*
X71450044Y-26046961D01*
X71450044Y-26046961D02*
X71497663Y-26142199D01*
X71497663Y-26142199D02*
X71497663Y-26523151D01*
X71497663Y-26523151D02*
X70497663Y-26523151D01*
X70497663Y-26523151D02*
X70497663Y-26189818D01*
X70497663Y-26189818D02*
X70545282Y-26094580D01*
X70545282Y-26094580D02*
X70592901Y-26046961D01*
X70592901Y-26046961D02*
X70688139Y-25999342D01*
X70688139Y-25999342D02*
X70783377Y-25999342D01*
X70783377Y-25999342D02*
X70878615Y-26046961D01*
X70878615Y-26046961D02*
X70926234Y-26094580D01*
X70926234Y-26094580D02*
X70973853Y-26189818D01*
X70973853Y-26189818D02*
X70973853Y-26523151D01*
D10*
X67986931Y-71307609D02*
X67748836Y-71307609D01*
X67748836Y-71307609D02*
X67748836Y-70807609D01*
X68248836Y-70807609D02*
X68344074Y-70807609D01*
X68344074Y-70807609D02*
X68391693Y-70831419D01*
X68391693Y-70831419D02*
X68439312Y-70879038D01*
X68439312Y-70879038D02*
X68463122Y-70974276D01*
X68463122Y-70974276D02*
X68463122Y-71140942D01*
X68463122Y-71140942D02*
X68439312Y-71236180D01*
X68439312Y-71236180D02*
X68391693Y-71283800D01*
X68391693Y-71283800D02*
X68344074Y-71307609D01*
X68344074Y-71307609D02*
X68248836Y-71307609D01*
X68248836Y-71307609D02*
X68201217Y-71283800D01*
X68201217Y-71283800D02*
X68153598Y-71236180D01*
X68153598Y-71236180D02*
X68129789Y-71140942D01*
X68129789Y-71140942D02*
X68129789Y-70974276D01*
X68129789Y-70974276D02*
X68153598Y-70879038D01*
X68153598Y-70879038D02*
X68201217Y-70831419D01*
X68201217Y-70831419D02*
X68248836Y-70807609D01*
X68653599Y-71164752D02*
X68891694Y-71164752D01*
X68605980Y-71307609D02*
X68772646Y-70807609D01*
X68772646Y-70807609D02*
X68939313Y-71307609D01*
X69367884Y-71307609D02*
X69082170Y-71307609D01*
X69225027Y-71307609D02*
X69225027Y-70807609D01*
X69225027Y-70807609D02*
X69177408Y-70879038D01*
X69177408Y-70879038D02*
X69129789Y-70926657D01*
X69129789Y-70926657D02*
X69082170Y-70950466D01*
X37197408Y-25341609D02*
X37364074Y-25841609D01*
X37364074Y-25841609D02*
X37530741Y-25341609D01*
X37697407Y-25841609D02*
X37697407Y-25341609D01*
X37935502Y-25841609D02*
X37935502Y-25341609D01*
X37935502Y-25341609D02*
X38221216Y-25841609D01*
X38221216Y-25841609D02*
X38221216Y-25341609D01*
X38459312Y-25651133D02*
X38840265Y-25651133D01*
X38649788Y-25841609D02*
X38649788Y-25460657D01*
X39316455Y-25341609D02*
X39078360Y-25341609D01*
X39078360Y-25341609D02*
X39054551Y-25579704D01*
X39054551Y-25579704D02*
X39078360Y-25555895D01*
X39078360Y-25555895D02*
X39125979Y-25532085D01*
X39125979Y-25532085D02*
X39245027Y-25532085D01*
X39245027Y-25532085D02*
X39292646Y-25555895D01*
X39292646Y-25555895D02*
X39316455Y-25579704D01*
X39316455Y-25579704D02*
X39340265Y-25627323D01*
X39340265Y-25627323D02*
X39340265Y-25746371D01*
X39340265Y-25746371D02*
X39316455Y-25793990D01*
X39316455Y-25793990D02*
X39292646Y-25817800D01*
X39292646Y-25817800D02*
X39245027Y-25841609D01*
X39245027Y-25841609D02*
X39125979Y-25841609D01*
X39125979Y-25841609D02*
X39078360Y-25817800D01*
X39078360Y-25817800D02*
X39054551Y-25793990D01*
X62906931Y-62671609D02*
X62668836Y-62671609D01*
X62668836Y-62671609D02*
X62668836Y-62171609D01*
X63168836Y-62171609D02*
X63264074Y-62171609D01*
X63264074Y-62171609D02*
X63311693Y-62195419D01*
X63311693Y-62195419D02*
X63359312Y-62243038D01*
X63359312Y-62243038D02*
X63383122Y-62338276D01*
X63383122Y-62338276D02*
X63383122Y-62504942D01*
X63383122Y-62504942D02*
X63359312Y-62600180D01*
X63359312Y-62600180D02*
X63311693Y-62647800D01*
X63311693Y-62647800D02*
X63264074Y-62671609D01*
X63264074Y-62671609D02*
X63168836Y-62671609D01*
X63168836Y-62671609D02*
X63121217Y-62647800D01*
X63121217Y-62647800D02*
X63073598Y-62600180D01*
X63073598Y-62600180D02*
X63049789Y-62504942D01*
X63049789Y-62504942D02*
X63049789Y-62338276D01*
X63049789Y-62338276D02*
X63073598Y-62243038D01*
X63073598Y-62243038D02*
X63121217Y-62195419D01*
X63121217Y-62195419D02*
X63168836Y-62171609D01*
X63573599Y-62528752D02*
X63811694Y-62528752D01*
X63525980Y-62671609D02*
X63692646Y-62171609D01*
X63692646Y-62171609D02*
X63859313Y-62671609D01*
X64025979Y-62671609D02*
X64025979Y-62171609D01*
X64025979Y-62171609D02*
X64145027Y-62171609D01*
X64145027Y-62171609D02*
X64216455Y-62195419D01*
X64216455Y-62195419D02*
X64264074Y-62243038D01*
X64264074Y-62243038D02*
X64287884Y-62290657D01*
X64287884Y-62290657D02*
X64311693Y-62385895D01*
X64311693Y-62385895D02*
X64311693Y-62457323D01*
X64311693Y-62457323D02*
X64287884Y-62552561D01*
X64287884Y-62552561D02*
X64264074Y-62600180D01*
X64264074Y-62600180D02*
X64216455Y-62647800D01*
X64216455Y-62647800D02*
X64145027Y-62671609D01*
X64145027Y-62671609D02*
X64025979Y-62671609D01*
X64787884Y-62671609D02*
X64502170Y-62671609D01*
X64645027Y-62671609D02*
X64645027Y-62171609D01*
X64645027Y-62171609D02*
X64597408Y-62243038D01*
X64597408Y-62243038D02*
X64549789Y-62290657D01*
X64549789Y-62290657D02*
X64502170Y-62314466D01*
X31942741Y-25365419D02*
X31895122Y-25341609D01*
X31895122Y-25341609D02*
X31823693Y-25341609D01*
X31823693Y-25341609D02*
X31752265Y-25365419D01*
X31752265Y-25365419D02*
X31704646Y-25413038D01*
X31704646Y-25413038D02*
X31680836Y-25460657D01*
X31680836Y-25460657D02*
X31657027Y-25555895D01*
X31657027Y-25555895D02*
X31657027Y-25627323D01*
X31657027Y-25627323D02*
X31680836Y-25722561D01*
X31680836Y-25722561D02*
X31704646Y-25770180D01*
X31704646Y-25770180D02*
X31752265Y-25817800D01*
X31752265Y-25817800D02*
X31823693Y-25841609D01*
X31823693Y-25841609D02*
X31871312Y-25841609D01*
X31871312Y-25841609D02*
X31942741Y-25817800D01*
X31942741Y-25817800D02*
X31966550Y-25793990D01*
X31966550Y-25793990D02*
X31966550Y-25627323D01*
X31966550Y-25627323D02*
X31871312Y-25627323D01*
X32180836Y-25841609D02*
X32180836Y-25341609D01*
X32180836Y-25341609D02*
X32466550Y-25841609D01*
X32466550Y-25841609D02*
X32466550Y-25341609D01*
X32704646Y-25841609D02*
X32704646Y-25341609D01*
X32704646Y-25341609D02*
X32823694Y-25341609D01*
X32823694Y-25341609D02*
X32895122Y-25365419D01*
X32895122Y-25365419D02*
X32942741Y-25413038D01*
X32942741Y-25413038D02*
X32966551Y-25460657D01*
X32966551Y-25460657D02*
X32990360Y-25555895D01*
X32990360Y-25555895D02*
X32990360Y-25627323D01*
X32990360Y-25627323D02*
X32966551Y-25722561D01*
X32966551Y-25722561D02*
X32942741Y-25770180D01*
X32942741Y-25770180D02*
X32895122Y-25817800D01*
X32895122Y-25817800D02*
X32823694Y-25841609D01*
X32823694Y-25841609D02*
X32704646Y-25841609D01*
X26529408Y-25341609D02*
X26696074Y-25841609D01*
X26696074Y-25841609D02*
X26862741Y-25341609D01*
X27029407Y-25841609D02*
X27029407Y-25341609D01*
X27267502Y-25841609D02*
X27267502Y-25341609D01*
X27267502Y-25341609D02*
X27553216Y-25841609D01*
X27553216Y-25841609D02*
X27553216Y-25341609D01*
X27791312Y-25651133D02*
X28172265Y-25651133D01*
X27981788Y-25841609D02*
X27981788Y-25460657D01*
X28672265Y-25841609D02*
X28386551Y-25841609D01*
X28529408Y-25841609D02*
X28529408Y-25341609D01*
X28529408Y-25341609D02*
X28481789Y-25413038D01*
X28481789Y-25413038D02*
X28434170Y-25460657D01*
X28434170Y-25460657D02*
X28386551Y-25484466D01*
X28862741Y-25389228D02*
X28886550Y-25365419D01*
X28886550Y-25365419D02*
X28934169Y-25341609D01*
X28934169Y-25341609D02*
X29053217Y-25341609D01*
X29053217Y-25341609D02*
X29100836Y-25365419D01*
X29100836Y-25365419D02*
X29124645Y-25389228D01*
X29124645Y-25389228D02*
X29148455Y-25436847D01*
X29148455Y-25436847D02*
X29148455Y-25484466D01*
X29148455Y-25484466D02*
X29124645Y-25555895D01*
X29124645Y-25555895D02*
X28838931Y-25841609D01*
X28838931Y-25841609D02*
X29148455Y-25841609D01*
X64938931Y-25841609D02*
X64700836Y-25841609D01*
X64700836Y-25841609D02*
X64700836Y-25341609D01*
X65200836Y-25341609D02*
X65296074Y-25341609D01*
X65296074Y-25341609D02*
X65343693Y-25365419D01*
X65343693Y-25365419D02*
X65391312Y-25413038D01*
X65391312Y-25413038D02*
X65415122Y-25508276D01*
X65415122Y-25508276D02*
X65415122Y-25674942D01*
X65415122Y-25674942D02*
X65391312Y-25770180D01*
X65391312Y-25770180D02*
X65343693Y-25817800D01*
X65343693Y-25817800D02*
X65296074Y-25841609D01*
X65296074Y-25841609D02*
X65200836Y-25841609D01*
X65200836Y-25841609D02*
X65153217Y-25817800D01*
X65153217Y-25817800D02*
X65105598Y-25770180D01*
X65105598Y-25770180D02*
X65081789Y-25674942D01*
X65081789Y-25674942D02*
X65081789Y-25508276D01*
X65081789Y-25508276D02*
X65105598Y-25413038D01*
X65105598Y-25413038D02*
X65153217Y-25365419D01*
X65153217Y-25365419D02*
X65200836Y-25341609D01*
X65605599Y-25698752D02*
X65843694Y-25698752D01*
X65557980Y-25841609D02*
X65724646Y-25341609D01*
X65724646Y-25341609D02*
X65891313Y-25841609D01*
X66057979Y-25841609D02*
X66057979Y-25341609D01*
X66057979Y-25341609D02*
X66177027Y-25341609D01*
X66177027Y-25341609D02*
X66248455Y-25365419D01*
X66248455Y-25365419D02*
X66296074Y-25413038D01*
X66296074Y-25413038D02*
X66319884Y-25460657D01*
X66319884Y-25460657D02*
X66343693Y-25555895D01*
X66343693Y-25555895D02*
X66343693Y-25627323D01*
X66343693Y-25627323D02*
X66319884Y-25722561D01*
X66319884Y-25722561D02*
X66296074Y-25770180D01*
X66296074Y-25770180D02*
X66248455Y-25817800D01*
X66248455Y-25817800D02*
X66177027Y-25841609D01*
X66177027Y-25841609D02*
X66057979Y-25841609D01*
X66534170Y-25389228D02*
X66557979Y-25365419D01*
X66557979Y-25365419D02*
X66605598Y-25341609D01*
X66605598Y-25341609D02*
X66724646Y-25341609D01*
X66724646Y-25341609D02*
X66772265Y-25365419D01*
X66772265Y-25365419D02*
X66796074Y-25389228D01*
X66796074Y-25389228D02*
X66819884Y-25436847D01*
X66819884Y-25436847D02*
X66819884Y-25484466D01*
X66819884Y-25484466D02*
X66796074Y-25555895D01*
X66796074Y-25555895D02*
X66510360Y-25841609D01*
X66510360Y-25841609D02*
X66819884Y-25841609D01*
X55048836Y-25841609D02*
X55048836Y-25341609D01*
X55048836Y-25341609D02*
X55239312Y-25341609D01*
X55239312Y-25341609D02*
X55286931Y-25365419D01*
X55286931Y-25365419D02*
X55310741Y-25389228D01*
X55310741Y-25389228D02*
X55334550Y-25436847D01*
X55334550Y-25436847D02*
X55334550Y-25508276D01*
X55334550Y-25508276D02*
X55310741Y-25555895D01*
X55310741Y-25555895D02*
X55286931Y-25579704D01*
X55286931Y-25579704D02*
X55239312Y-25603514D01*
X55239312Y-25603514D02*
X55048836Y-25603514D01*
X55501217Y-25341609D02*
X55620265Y-25841609D01*
X55620265Y-25841609D02*
X55715503Y-25484466D01*
X55715503Y-25484466D02*
X55810741Y-25841609D01*
X55810741Y-25841609D02*
X55929789Y-25341609D01*
X56120265Y-25841609D02*
X56120265Y-25341609D01*
X56120265Y-25341609D02*
X56286932Y-25698752D01*
X56286932Y-25698752D02*
X56453598Y-25341609D01*
X56453598Y-25341609D02*
X56453598Y-25841609D01*
X60366931Y-62671609D02*
X60128836Y-62671609D01*
X60128836Y-62671609D02*
X60128836Y-62171609D01*
X60628836Y-62171609D02*
X60724074Y-62171609D01*
X60724074Y-62171609D02*
X60771693Y-62195419D01*
X60771693Y-62195419D02*
X60819312Y-62243038D01*
X60819312Y-62243038D02*
X60843122Y-62338276D01*
X60843122Y-62338276D02*
X60843122Y-62504942D01*
X60843122Y-62504942D02*
X60819312Y-62600180D01*
X60819312Y-62600180D02*
X60771693Y-62647800D01*
X60771693Y-62647800D02*
X60724074Y-62671609D01*
X60724074Y-62671609D02*
X60628836Y-62671609D01*
X60628836Y-62671609D02*
X60581217Y-62647800D01*
X60581217Y-62647800D02*
X60533598Y-62600180D01*
X60533598Y-62600180D02*
X60509789Y-62504942D01*
X60509789Y-62504942D02*
X60509789Y-62338276D01*
X60509789Y-62338276D02*
X60533598Y-62243038D01*
X60533598Y-62243038D02*
X60581217Y-62195419D01*
X60581217Y-62195419D02*
X60628836Y-62171609D01*
X61033599Y-62528752D02*
X61271694Y-62528752D01*
X60985980Y-62671609D02*
X61152646Y-62171609D01*
X61152646Y-62171609D02*
X61319313Y-62671609D01*
X61485979Y-62671609D02*
X61485979Y-62171609D01*
X61485979Y-62171609D02*
X61605027Y-62171609D01*
X61605027Y-62171609D02*
X61676455Y-62195419D01*
X61676455Y-62195419D02*
X61724074Y-62243038D01*
X61724074Y-62243038D02*
X61747884Y-62290657D01*
X61747884Y-62290657D02*
X61771693Y-62385895D01*
X61771693Y-62385895D02*
X61771693Y-62457323D01*
X61771693Y-62457323D02*
X61747884Y-62552561D01*
X61747884Y-62552561D02*
X61724074Y-62600180D01*
X61724074Y-62600180D02*
X61676455Y-62647800D01*
X61676455Y-62647800D02*
X61605027Y-62671609D01*
X61605027Y-62671609D02*
X61485979Y-62671609D01*
X61962170Y-62219228D02*
X61985979Y-62195419D01*
X61985979Y-62195419D02*
X62033598Y-62171609D01*
X62033598Y-62171609D02*
X62152646Y-62171609D01*
X62152646Y-62171609D02*
X62200265Y-62195419D01*
X62200265Y-62195419D02*
X62224074Y-62219228D01*
X62224074Y-62219228D02*
X62247884Y-62266847D01*
X62247884Y-62266847D02*
X62247884Y-62314466D01*
X62247884Y-62314466D02*
X62224074Y-62385895D01*
X62224074Y-62385895D02*
X61938360Y-62671609D01*
X61938360Y-62671609D02*
X62247884Y-62671609D01*
X43118741Y-25365419D02*
X43071122Y-25341609D01*
X43071122Y-25341609D02*
X42999693Y-25341609D01*
X42999693Y-25341609D02*
X42928265Y-25365419D01*
X42928265Y-25365419D02*
X42880646Y-25413038D01*
X42880646Y-25413038D02*
X42856836Y-25460657D01*
X42856836Y-25460657D02*
X42833027Y-25555895D01*
X42833027Y-25555895D02*
X42833027Y-25627323D01*
X42833027Y-25627323D02*
X42856836Y-25722561D01*
X42856836Y-25722561D02*
X42880646Y-25770180D01*
X42880646Y-25770180D02*
X42928265Y-25817800D01*
X42928265Y-25817800D02*
X42999693Y-25841609D01*
X42999693Y-25841609D02*
X43047312Y-25841609D01*
X43047312Y-25841609D02*
X43118741Y-25817800D01*
X43118741Y-25817800D02*
X43142550Y-25793990D01*
X43142550Y-25793990D02*
X43142550Y-25627323D01*
X43142550Y-25627323D02*
X43047312Y-25627323D01*
X43356836Y-25841609D02*
X43356836Y-25341609D01*
X43356836Y-25341609D02*
X43642550Y-25841609D01*
X43642550Y-25841609D02*
X43642550Y-25341609D01*
X43880646Y-25841609D02*
X43880646Y-25341609D01*
X43880646Y-25341609D02*
X43999694Y-25341609D01*
X43999694Y-25341609D02*
X44071122Y-25365419D01*
X44071122Y-25365419D02*
X44118741Y-25413038D01*
X44118741Y-25413038D02*
X44142551Y-25460657D01*
X44142551Y-25460657D02*
X44166360Y-25555895D01*
X44166360Y-25555895D02*
X44166360Y-25627323D01*
X44166360Y-25627323D02*
X44142551Y-25722561D01*
X44142551Y-25722561D02*
X44118741Y-25770180D01*
X44118741Y-25770180D02*
X44071122Y-25817800D01*
X44071122Y-25817800D02*
X43999694Y-25841609D01*
X43999694Y-25841609D02*
X43880646Y-25841609D01*
D12*
X31673580Y-46394666D02*
X31721200Y-46442285D01*
X31721200Y-46442285D02*
X31768819Y-46585142D01*
X31768819Y-46585142D02*
X31768819Y-46680380D01*
X31768819Y-46680380D02*
X31721200Y-46823237D01*
X31721200Y-46823237D02*
X31625961Y-46918475D01*
X31625961Y-46918475D02*
X31530723Y-46966094D01*
X31530723Y-46966094D02*
X31340247Y-47013713D01*
X31340247Y-47013713D02*
X31197390Y-47013713D01*
X31197390Y-47013713D02*
X31006914Y-46966094D01*
X31006914Y-46966094D02*
X30911676Y-46918475D01*
X30911676Y-46918475D02*
X30816438Y-46823237D01*
X30816438Y-46823237D02*
X30768819Y-46680380D01*
X30768819Y-46680380D02*
X30768819Y-46585142D01*
X30768819Y-46585142D02*
X30816438Y-46442285D01*
X30816438Y-46442285D02*
X30864057Y-46394666D01*
X31768819Y-45442285D02*
X31768819Y-46013713D01*
X31768819Y-45727999D02*
X30768819Y-45727999D01*
X30768819Y-45727999D02*
X30911676Y-45823237D01*
X30911676Y-45823237D02*
X31006914Y-45918475D01*
X31006914Y-45918475D02*
X31054533Y-46013713D01*
X50299580Y-47815238D02*
X50347200Y-47862857D01*
X50347200Y-47862857D02*
X50394819Y-48005714D01*
X50394819Y-48005714D02*
X50394819Y-48100952D01*
X50394819Y-48100952D02*
X50347200Y-48243809D01*
X50347200Y-48243809D02*
X50251961Y-48339047D01*
X50251961Y-48339047D02*
X50156723Y-48386666D01*
X50156723Y-48386666D02*
X49966247Y-48434285D01*
X49966247Y-48434285D02*
X49823390Y-48434285D01*
X49823390Y-48434285D02*
X49632914Y-48386666D01*
X49632914Y-48386666D02*
X49537676Y-48339047D01*
X49537676Y-48339047D02*
X49442438Y-48243809D01*
X49442438Y-48243809D02*
X49394819Y-48100952D01*
X49394819Y-48100952D02*
X49394819Y-48005714D01*
X49394819Y-48005714D02*
X49442438Y-47862857D01*
X49442438Y-47862857D02*
X49490057Y-47815238D01*
X49871009Y-47053333D02*
X49918628Y-46910476D01*
X49918628Y-46910476D02*
X49966247Y-46862857D01*
X49966247Y-46862857D02*
X50061485Y-46815238D01*
X50061485Y-46815238D02*
X50204342Y-46815238D01*
X50204342Y-46815238D02*
X50299580Y-46862857D01*
X50299580Y-46862857D02*
X50347200Y-46910476D01*
X50347200Y-46910476D02*
X50394819Y-47005714D01*
X50394819Y-47005714D02*
X50394819Y-47386666D01*
X50394819Y-47386666D02*
X49394819Y-47386666D01*
X49394819Y-47386666D02*
X49394819Y-47053333D01*
X49394819Y-47053333D02*
X49442438Y-46958095D01*
X49442438Y-46958095D02*
X49490057Y-46910476D01*
X49490057Y-46910476D02*
X49585295Y-46862857D01*
X49585295Y-46862857D02*
X49680533Y-46862857D01*
X49680533Y-46862857D02*
X49775771Y-46910476D01*
X49775771Y-46910476D02*
X49823390Y-46958095D01*
X49823390Y-46958095D02*
X49871009Y-47053333D01*
X49871009Y-47053333D02*
X49871009Y-47386666D01*
X49394819Y-46196190D02*
X49394819Y-46005714D01*
X49394819Y-46005714D02*
X49442438Y-45910476D01*
X49442438Y-45910476D02*
X49537676Y-45815238D01*
X49537676Y-45815238D02*
X49728152Y-45767619D01*
X49728152Y-45767619D02*
X50061485Y-45767619D01*
X50061485Y-45767619D02*
X50251961Y-45815238D01*
X50251961Y-45815238D02*
X50347200Y-45910476D01*
X50347200Y-45910476D02*
X50394819Y-46005714D01*
X50394819Y-46005714D02*
X50394819Y-46196190D01*
X50394819Y-46196190D02*
X50347200Y-46291428D01*
X50347200Y-46291428D02*
X50251961Y-46386666D01*
X50251961Y-46386666D02*
X50061485Y-46434285D01*
X50061485Y-46434285D02*
X49728152Y-46434285D01*
X49728152Y-46434285D02*
X49537676Y-46386666D01*
X49537676Y-46386666D02*
X49442438Y-46291428D01*
X49442438Y-46291428D02*
X49394819Y-46196190D01*
X49394819Y-45148571D02*
X49394819Y-44958095D01*
X49394819Y-44958095D02*
X49442438Y-44862857D01*
X49442438Y-44862857D02*
X49537676Y-44767619D01*
X49537676Y-44767619D02*
X49728152Y-44720000D01*
X49728152Y-44720000D02*
X50061485Y-44720000D01*
X50061485Y-44720000D02*
X50251961Y-44767619D01*
X50251961Y-44767619D02*
X50347200Y-44862857D01*
X50347200Y-44862857D02*
X50394819Y-44958095D01*
X50394819Y-44958095D02*
X50394819Y-45148571D01*
X50394819Y-45148571D02*
X50347200Y-45243809D01*
X50347200Y-45243809D02*
X50251961Y-45339047D01*
X50251961Y-45339047D02*
X50061485Y-45386666D01*
X50061485Y-45386666D02*
X49728152Y-45386666D01*
X49728152Y-45386666D02*
X49537676Y-45339047D01*
X49537676Y-45339047D02*
X49442438Y-45243809D01*
X49442438Y-45243809D02*
X49394819Y-45148571D01*
X49394819Y-44434285D02*
X49394819Y-43862857D01*
X50394819Y-44148571D02*
X49394819Y-44148571D01*
X50394819Y-43005714D02*
X50394819Y-43577142D01*
X50394819Y-43291428D02*
X49394819Y-43291428D01*
X49394819Y-43291428D02*
X49537676Y-43386666D01*
X49537676Y-43386666D02*
X49632914Y-43481904D01*
X49632914Y-43481904D02*
X49680533Y-43577142D01*
X37338095Y-53302819D02*
X37338095Y-54112342D01*
X37338095Y-54112342D02*
X37385714Y-54207580D01*
X37385714Y-54207580D02*
X37433333Y-54255200D01*
X37433333Y-54255200D02*
X37528571Y-54302819D01*
X37528571Y-54302819D02*
X37719047Y-54302819D01*
X37719047Y-54302819D02*
X37814285Y-54255200D01*
X37814285Y-54255200D02*
X37861904Y-54207580D01*
X37861904Y-54207580D02*
X37909523Y-54112342D01*
X37909523Y-54112342D02*
X37909523Y-53302819D01*
X38338095Y-53398057D02*
X38385714Y-53350438D01*
X38385714Y-53350438D02*
X38480952Y-53302819D01*
X38480952Y-53302819D02*
X38719047Y-53302819D01*
X38719047Y-53302819D02*
X38814285Y-53350438D01*
X38814285Y-53350438D02*
X38861904Y-53398057D01*
X38861904Y-53398057D02*
X38909523Y-53493295D01*
X38909523Y-53493295D02*
X38909523Y-53588533D01*
X38909523Y-53588533D02*
X38861904Y-53731390D01*
X38861904Y-53731390D02*
X38290476Y-54302819D01*
X38290476Y-54302819D02*
X38909523Y-54302819D01*
D10*
X55784761Y-54400657D02*
X55689523Y-54353038D01*
X55689523Y-54353038D02*
X55594285Y-54257800D01*
X55594285Y-54257800D02*
X55451428Y-54114942D01*
X55451428Y-54114942D02*
X55356190Y-54067323D01*
X55356190Y-54067323D02*
X55260952Y-54067323D01*
X55308571Y-54305419D02*
X55213333Y-54257800D01*
X55213333Y-54257800D02*
X55118095Y-54162561D01*
X55118095Y-54162561D02*
X55070476Y-53972085D01*
X55070476Y-53972085D02*
X55070476Y-53638752D01*
X55070476Y-53638752D02*
X55118095Y-53448276D01*
X55118095Y-53448276D02*
X55213333Y-53353038D01*
X55213333Y-53353038D02*
X55308571Y-53305419D01*
X55308571Y-53305419D02*
X55499047Y-53305419D01*
X55499047Y-53305419D02*
X55594285Y-53353038D01*
X55594285Y-53353038D02*
X55689523Y-53448276D01*
X55689523Y-53448276D02*
X55737142Y-53638752D01*
X55737142Y-53638752D02*
X55737142Y-53972085D01*
X55737142Y-53972085D02*
X55689523Y-54162561D01*
X55689523Y-54162561D02*
X55594285Y-54257800D01*
X55594285Y-54257800D02*
X55499047Y-54305419D01*
X55499047Y-54305419D02*
X55308571Y-54305419D01*
X56070476Y-53305419D02*
X56689523Y-53305419D01*
X56689523Y-53305419D02*
X56356190Y-53686371D01*
X56356190Y-53686371D02*
X56499047Y-53686371D01*
X56499047Y-53686371D02*
X56594285Y-53733990D01*
X56594285Y-53733990D02*
X56641904Y-53781609D01*
X56641904Y-53781609D02*
X56689523Y-53876847D01*
X56689523Y-53876847D02*
X56689523Y-54114942D01*
X56689523Y-54114942D02*
X56641904Y-54210180D01*
X56641904Y-54210180D02*
X56594285Y-54257800D01*
X56594285Y-54257800D02*
X56499047Y-54305419D01*
X56499047Y-54305419D02*
X56213333Y-54305419D01*
X56213333Y-54305419D02*
X56118095Y-54257800D01*
X56118095Y-54257800D02*
X56070476Y-54210180D01*
D12*
X53540819Y-48426571D02*
X53064628Y-48759904D01*
X53540819Y-48997999D02*
X52540819Y-48997999D01*
X52540819Y-48997999D02*
X52540819Y-48617047D01*
X52540819Y-48617047D02*
X52588438Y-48521809D01*
X52588438Y-48521809D02*
X52636057Y-48474190D01*
X52636057Y-48474190D02*
X52731295Y-48426571D01*
X52731295Y-48426571D02*
X52874152Y-48426571D01*
X52874152Y-48426571D02*
X52969390Y-48474190D01*
X52969390Y-48474190D02*
X53017009Y-48521809D01*
X53017009Y-48521809D02*
X53064628Y-48617047D01*
X53064628Y-48617047D02*
X53064628Y-48997999D01*
X52588438Y-47474190D02*
X52540819Y-47569428D01*
X52540819Y-47569428D02*
X52540819Y-47712285D01*
X52540819Y-47712285D02*
X52588438Y-47855142D01*
X52588438Y-47855142D02*
X52683676Y-47950380D01*
X52683676Y-47950380D02*
X52778914Y-47997999D01*
X52778914Y-47997999D02*
X52969390Y-48045618D01*
X52969390Y-48045618D02*
X53112247Y-48045618D01*
X53112247Y-48045618D02*
X53302723Y-47997999D01*
X53302723Y-47997999D02*
X53397961Y-47950380D01*
X53397961Y-47950380D02*
X53493200Y-47855142D01*
X53493200Y-47855142D02*
X53540819Y-47712285D01*
X53540819Y-47712285D02*
X53540819Y-47617047D01*
X53540819Y-47617047D02*
X53493200Y-47474190D01*
X53493200Y-47474190D02*
X53445580Y-47426571D01*
X53445580Y-47426571D02*
X53112247Y-47426571D01*
X53112247Y-47426571D02*
X53112247Y-47617047D01*
X53255104Y-47045618D02*
X53255104Y-46569428D01*
X53540819Y-47140856D02*
X52540819Y-46807523D01*
X52540819Y-46807523D02*
X53540819Y-46474190D01*
X52540819Y-46283713D02*
X52540819Y-45712285D01*
X53540819Y-45997999D02*
X52540819Y-45997999D01*
X53017009Y-45378951D02*
X53017009Y-45045618D01*
X53540819Y-44902761D02*
X53540819Y-45378951D01*
X53540819Y-45378951D02*
X52540819Y-45378951D01*
X52540819Y-45378951D02*
X52540819Y-44902761D01*
X52636057Y-44521808D02*
X52588438Y-44474189D01*
X52588438Y-44474189D02*
X52540819Y-44378951D01*
X52540819Y-44378951D02*
X52540819Y-44140856D01*
X52540819Y-44140856D02*
X52588438Y-44045618D01*
X52588438Y-44045618D02*
X52636057Y-43997999D01*
X52636057Y-43997999D02*
X52731295Y-43950380D01*
X52731295Y-43950380D02*
X52826533Y-43950380D01*
X52826533Y-43950380D02*
X52969390Y-43997999D01*
X52969390Y-43997999D02*
X53540819Y-44569427D01*
X53540819Y-44569427D02*
X53540819Y-43950380D01*
X53540819Y-63539571D02*
X53064628Y-63872904D01*
X53540819Y-64110999D02*
X52540819Y-64110999D01*
X52540819Y-64110999D02*
X52540819Y-63730047D01*
X52540819Y-63730047D02*
X52588438Y-63634809D01*
X52588438Y-63634809D02*
X52636057Y-63587190D01*
X52636057Y-63587190D02*
X52731295Y-63539571D01*
X52731295Y-63539571D02*
X52874152Y-63539571D01*
X52874152Y-63539571D02*
X52969390Y-63587190D01*
X52969390Y-63587190D02*
X53017009Y-63634809D01*
X53017009Y-63634809D02*
X53064628Y-63730047D01*
X53064628Y-63730047D02*
X53064628Y-64110999D01*
X52588438Y-62587190D02*
X52540819Y-62682428D01*
X52540819Y-62682428D02*
X52540819Y-62825285D01*
X52540819Y-62825285D02*
X52588438Y-62968142D01*
X52588438Y-62968142D02*
X52683676Y-63063380D01*
X52683676Y-63063380D02*
X52778914Y-63110999D01*
X52778914Y-63110999D02*
X52969390Y-63158618D01*
X52969390Y-63158618D02*
X53112247Y-63158618D01*
X53112247Y-63158618D02*
X53302723Y-63110999D01*
X53302723Y-63110999D02*
X53397961Y-63063380D01*
X53397961Y-63063380D02*
X53493200Y-62968142D01*
X53493200Y-62968142D02*
X53540819Y-62825285D01*
X53540819Y-62825285D02*
X53540819Y-62730047D01*
X53540819Y-62730047D02*
X53493200Y-62587190D01*
X53493200Y-62587190D02*
X53445580Y-62539571D01*
X53445580Y-62539571D02*
X53112247Y-62539571D01*
X53112247Y-62539571D02*
X53112247Y-62730047D01*
X53255104Y-62158618D02*
X53255104Y-61682428D01*
X53540819Y-62253856D02*
X52540819Y-61920523D01*
X52540819Y-61920523D02*
X53540819Y-61587190D01*
X52540819Y-61396713D02*
X52540819Y-60825285D01*
X53540819Y-61110999D02*
X52540819Y-61110999D01*
X53017009Y-60491951D02*
X53017009Y-60158618D01*
X53540819Y-60015761D02*
X53540819Y-60491951D01*
X53540819Y-60491951D02*
X52540819Y-60491951D01*
X52540819Y-60491951D02*
X52540819Y-60015761D01*
X52874152Y-59158618D02*
X53540819Y-59158618D01*
X52493200Y-59396713D02*
X53207485Y-59634808D01*
X53207485Y-59634808D02*
X53207485Y-59015761D01*
X42193619Y-60238666D02*
X41193619Y-60238666D01*
X41193619Y-60238666D02*
X41193619Y-60000571D01*
X41193619Y-60000571D02*
X41241238Y-59857714D01*
X41241238Y-59857714D02*
X41336476Y-59762476D01*
X41336476Y-59762476D02*
X41431714Y-59714857D01*
X41431714Y-59714857D02*
X41622190Y-59667238D01*
X41622190Y-59667238D02*
X41765047Y-59667238D01*
X41765047Y-59667238D02*
X41955523Y-59714857D01*
X41955523Y-59714857D02*
X42050761Y-59762476D01*
X42050761Y-59762476D02*
X42146000Y-59857714D01*
X42146000Y-59857714D02*
X42193619Y-60000571D01*
X42193619Y-60000571D02*
X42193619Y-60238666D01*
X41669809Y-58905333D02*
X41717428Y-58762476D01*
X41717428Y-58762476D02*
X41765047Y-58714857D01*
X41765047Y-58714857D02*
X41860285Y-58667238D01*
X41860285Y-58667238D02*
X42003142Y-58667238D01*
X42003142Y-58667238D02*
X42098380Y-58714857D01*
X42098380Y-58714857D02*
X42146000Y-58762476D01*
X42146000Y-58762476D02*
X42193619Y-58857714D01*
X42193619Y-58857714D02*
X42193619Y-59238666D01*
X42193619Y-59238666D02*
X41193619Y-59238666D01*
X41193619Y-59238666D02*
X41193619Y-58905333D01*
X41193619Y-58905333D02*
X41241238Y-58810095D01*
X41241238Y-58810095D02*
X41288857Y-58762476D01*
X41288857Y-58762476D02*
X41384095Y-58714857D01*
X41384095Y-58714857D02*
X41479333Y-58714857D01*
X41479333Y-58714857D02*
X41574571Y-58762476D01*
X41574571Y-58762476D02*
X41622190Y-58810095D01*
X41622190Y-58810095D02*
X41669809Y-58905333D01*
X41669809Y-58905333D02*
X41669809Y-59238666D01*
X41193619Y-58048190D02*
X41193619Y-57857714D01*
X41193619Y-57857714D02*
X41241238Y-57762476D01*
X41241238Y-57762476D02*
X41336476Y-57667238D01*
X41336476Y-57667238D02*
X41526952Y-57619619D01*
X41526952Y-57619619D02*
X41860285Y-57619619D01*
X41860285Y-57619619D02*
X42050761Y-57667238D01*
X42050761Y-57667238D02*
X42146000Y-57762476D01*
X42146000Y-57762476D02*
X42193619Y-57857714D01*
X42193619Y-57857714D02*
X42193619Y-58048190D01*
X42193619Y-58048190D02*
X42146000Y-58143428D01*
X42146000Y-58143428D02*
X42050761Y-58238666D01*
X42050761Y-58238666D02*
X41860285Y-58286285D01*
X41860285Y-58286285D02*
X41526952Y-58286285D01*
X41526952Y-58286285D02*
X41336476Y-58238666D01*
X41336476Y-58238666D02*
X41241238Y-58143428D01*
X41241238Y-58143428D02*
X41193619Y-58048190D01*
X41193619Y-57000571D02*
X41193619Y-56810095D01*
X41193619Y-56810095D02*
X41241238Y-56714857D01*
X41241238Y-56714857D02*
X41336476Y-56619619D01*
X41336476Y-56619619D02*
X41526952Y-56572000D01*
X41526952Y-56572000D02*
X41860285Y-56572000D01*
X41860285Y-56572000D02*
X42050761Y-56619619D01*
X42050761Y-56619619D02*
X42146000Y-56714857D01*
X42146000Y-56714857D02*
X42193619Y-56810095D01*
X42193619Y-56810095D02*
X42193619Y-57000571D01*
X42193619Y-57000571D02*
X42146000Y-57095809D01*
X42146000Y-57095809D02*
X42050761Y-57191047D01*
X42050761Y-57191047D02*
X41860285Y-57238666D01*
X41860285Y-57238666D02*
X41526952Y-57238666D01*
X41526952Y-57238666D02*
X41336476Y-57191047D01*
X41336476Y-57191047D02*
X41241238Y-57095809D01*
X41241238Y-57095809D02*
X41193619Y-57000571D01*
X41193619Y-56286285D02*
X41193619Y-55714857D01*
X42193619Y-56000571D02*
X41193619Y-56000571D01*
X41288857Y-55429142D02*
X41241238Y-55381523D01*
X41241238Y-55381523D02*
X41193619Y-55286285D01*
X41193619Y-55286285D02*
X41193619Y-55048190D01*
X41193619Y-55048190D02*
X41241238Y-54952952D01*
X41241238Y-54952952D02*
X41288857Y-54905333D01*
X41288857Y-54905333D02*
X41384095Y-54857714D01*
X41384095Y-54857714D02*
X41479333Y-54857714D01*
X41479333Y-54857714D02*
X41622190Y-54905333D01*
X41622190Y-54905333D02*
X42193619Y-55476761D01*
X42193619Y-55476761D02*
X42193619Y-54857714D01*
X46754819Y-58792571D02*
X46278628Y-59125904D01*
X46754819Y-59363999D02*
X45754819Y-59363999D01*
X45754819Y-59363999D02*
X45754819Y-58983047D01*
X45754819Y-58983047D02*
X45802438Y-58887809D01*
X45802438Y-58887809D02*
X45850057Y-58840190D01*
X45850057Y-58840190D02*
X45945295Y-58792571D01*
X45945295Y-58792571D02*
X46088152Y-58792571D01*
X46088152Y-58792571D02*
X46183390Y-58840190D01*
X46183390Y-58840190D02*
X46231009Y-58887809D01*
X46231009Y-58887809D02*
X46278628Y-58983047D01*
X46278628Y-58983047D02*
X46278628Y-59363999D01*
X45802438Y-57840190D02*
X45754819Y-57935428D01*
X45754819Y-57935428D02*
X45754819Y-58078285D01*
X45754819Y-58078285D02*
X45802438Y-58221142D01*
X45802438Y-58221142D02*
X45897676Y-58316380D01*
X45897676Y-58316380D02*
X45992914Y-58363999D01*
X45992914Y-58363999D02*
X46183390Y-58411618D01*
X46183390Y-58411618D02*
X46326247Y-58411618D01*
X46326247Y-58411618D02*
X46516723Y-58363999D01*
X46516723Y-58363999D02*
X46611961Y-58316380D01*
X46611961Y-58316380D02*
X46707200Y-58221142D01*
X46707200Y-58221142D02*
X46754819Y-58078285D01*
X46754819Y-58078285D02*
X46754819Y-57983047D01*
X46754819Y-57983047D02*
X46707200Y-57840190D01*
X46707200Y-57840190D02*
X46659580Y-57792571D01*
X46659580Y-57792571D02*
X46326247Y-57792571D01*
X46326247Y-57792571D02*
X46326247Y-57983047D01*
X46469104Y-57411618D02*
X46469104Y-56935428D01*
X46754819Y-57506856D02*
X45754819Y-57173523D01*
X45754819Y-57173523D02*
X46754819Y-56840190D01*
X45754819Y-56649713D02*
X45754819Y-56078285D01*
X46754819Y-56363999D02*
X45754819Y-56363999D01*
X46231009Y-55744951D02*
X46231009Y-55411618D01*
X46754819Y-55268761D02*
X46754819Y-55744951D01*
X46754819Y-55744951D02*
X45754819Y-55744951D01*
X45754819Y-55744951D02*
X45754819Y-55268761D01*
X45754819Y-54935427D02*
X45754819Y-54316380D01*
X45754819Y-54316380D02*
X46135771Y-54649713D01*
X46135771Y-54649713D02*
X46135771Y-54506856D01*
X46135771Y-54506856D02*
X46183390Y-54411618D01*
X46183390Y-54411618D02*
X46231009Y-54363999D01*
X46231009Y-54363999D02*
X46326247Y-54316380D01*
X46326247Y-54316380D02*
X46564342Y-54316380D01*
X46564342Y-54316380D02*
X46659580Y-54363999D01*
X46659580Y-54363999D02*
X46707200Y-54411618D01*
X46707200Y-54411618D02*
X46754819Y-54506856D01*
X46754819Y-54506856D02*
X46754819Y-54792570D01*
X46754819Y-54792570D02*
X46707200Y-54887808D01*
X46707200Y-54887808D02*
X46659580Y-54935427D01*
D10*
X60864761Y-40176657D02*
X60769523Y-40129038D01*
X60769523Y-40129038D02*
X60674285Y-40033800D01*
X60674285Y-40033800D02*
X60531428Y-39890942D01*
X60531428Y-39890942D02*
X60436190Y-39843323D01*
X60436190Y-39843323D02*
X60340952Y-39843323D01*
X60388571Y-40081419D02*
X60293333Y-40033800D01*
X60293333Y-40033800D02*
X60198095Y-39938561D01*
X60198095Y-39938561D02*
X60150476Y-39748085D01*
X60150476Y-39748085D02*
X60150476Y-39414752D01*
X60150476Y-39414752D02*
X60198095Y-39224276D01*
X60198095Y-39224276D02*
X60293333Y-39129038D01*
X60293333Y-39129038D02*
X60388571Y-39081419D01*
X60388571Y-39081419D02*
X60579047Y-39081419D01*
X60579047Y-39081419D02*
X60674285Y-39129038D01*
X60674285Y-39129038D02*
X60769523Y-39224276D01*
X60769523Y-39224276D02*
X60817142Y-39414752D01*
X60817142Y-39414752D02*
X60817142Y-39748085D01*
X60817142Y-39748085D02*
X60769523Y-39938561D01*
X60769523Y-39938561D02*
X60674285Y-40033800D01*
X60674285Y-40033800D02*
X60579047Y-40081419D01*
X60579047Y-40081419D02*
X60388571Y-40081419D01*
X61198095Y-39176657D02*
X61245714Y-39129038D01*
X61245714Y-39129038D02*
X61340952Y-39081419D01*
X61340952Y-39081419D02*
X61579047Y-39081419D01*
X61579047Y-39081419D02*
X61674285Y-39129038D01*
X61674285Y-39129038D02*
X61721904Y-39176657D01*
X61721904Y-39176657D02*
X61769523Y-39271895D01*
X61769523Y-39271895D02*
X61769523Y-39367133D01*
X61769523Y-39367133D02*
X61721904Y-39509990D01*
X61721904Y-39509990D02*
X61150476Y-40081419D01*
X61150476Y-40081419D02*
X61769523Y-40081419D01*
D12*
X50045580Y-61885738D02*
X50093200Y-61933357D01*
X50093200Y-61933357D02*
X50140819Y-62076214D01*
X50140819Y-62076214D02*
X50140819Y-62171452D01*
X50140819Y-62171452D02*
X50093200Y-62314309D01*
X50093200Y-62314309D02*
X49997961Y-62409547D01*
X49997961Y-62409547D02*
X49902723Y-62457166D01*
X49902723Y-62457166D02*
X49712247Y-62504785D01*
X49712247Y-62504785D02*
X49569390Y-62504785D01*
X49569390Y-62504785D02*
X49378914Y-62457166D01*
X49378914Y-62457166D02*
X49283676Y-62409547D01*
X49283676Y-62409547D02*
X49188438Y-62314309D01*
X49188438Y-62314309D02*
X49140819Y-62171452D01*
X49140819Y-62171452D02*
X49140819Y-62076214D01*
X49140819Y-62076214D02*
X49188438Y-61933357D01*
X49188438Y-61933357D02*
X49236057Y-61885738D01*
X49617009Y-61123833D02*
X49664628Y-60980976D01*
X49664628Y-60980976D02*
X49712247Y-60933357D01*
X49712247Y-60933357D02*
X49807485Y-60885738D01*
X49807485Y-60885738D02*
X49950342Y-60885738D01*
X49950342Y-60885738D02*
X50045580Y-60933357D01*
X50045580Y-60933357D02*
X50093200Y-60980976D01*
X50093200Y-60980976D02*
X50140819Y-61076214D01*
X50140819Y-61076214D02*
X50140819Y-61457166D01*
X50140819Y-61457166D02*
X49140819Y-61457166D01*
X49140819Y-61457166D02*
X49140819Y-61123833D01*
X49140819Y-61123833D02*
X49188438Y-61028595D01*
X49188438Y-61028595D02*
X49236057Y-60980976D01*
X49236057Y-60980976D02*
X49331295Y-60933357D01*
X49331295Y-60933357D02*
X49426533Y-60933357D01*
X49426533Y-60933357D02*
X49521771Y-60980976D01*
X49521771Y-60980976D02*
X49569390Y-61028595D01*
X49569390Y-61028595D02*
X49617009Y-61123833D01*
X49617009Y-61123833D02*
X49617009Y-61457166D01*
X49140819Y-60266690D02*
X49140819Y-60076214D01*
X49140819Y-60076214D02*
X49188438Y-59980976D01*
X49188438Y-59980976D02*
X49283676Y-59885738D01*
X49283676Y-59885738D02*
X49474152Y-59838119D01*
X49474152Y-59838119D02*
X49807485Y-59838119D01*
X49807485Y-59838119D02*
X49997961Y-59885738D01*
X49997961Y-59885738D02*
X50093200Y-59980976D01*
X50093200Y-59980976D02*
X50140819Y-60076214D01*
X50140819Y-60076214D02*
X50140819Y-60266690D01*
X50140819Y-60266690D02*
X50093200Y-60361928D01*
X50093200Y-60361928D02*
X49997961Y-60457166D01*
X49997961Y-60457166D02*
X49807485Y-60504785D01*
X49807485Y-60504785D02*
X49474152Y-60504785D01*
X49474152Y-60504785D02*
X49283676Y-60457166D01*
X49283676Y-60457166D02*
X49188438Y-60361928D01*
X49188438Y-60361928D02*
X49140819Y-60266690D01*
X49140819Y-59219071D02*
X49140819Y-59028595D01*
X49140819Y-59028595D02*
X49188438Y-58933357D01*
X49188438Y-58933357D02*
X49283676Y-58838119D01*
X49283676Y-58838119D02*
X49474152Y-58790500D01*
X49474152Y-58790500D02*
X49807485Y-58790500D01*
X49807485Y-58790500D02*
X49997961Y-58838119D01*
X49997961Y-58838119D02*
X50093200Y-58933357D01*
X50093200Y-58933357D02*
X50140819Y-59028595D01*
X50140819Y-59028595D02*
X50140819Y-59219071D01*
X50140819Y-59219071D02*
X50093200Y-59314309D01*
X50093200Y-59314309D02*
X49997961Y-59409547D01*
X49997961Y-59409547D02*
X49807485Y-59457166D01*
X49807485Y-59457166D02*
X49474152Y-59457166D01*
X49474152Y-59457166D02*
X49283676Y-59409547D01*
X49283676Y-59409547D02*
X49188438Y-59314309D01*
X49188438Y-59314309D02*
X49140819Y-59219071D01*
X49140819Y-58504785D02*
X49140819Y-57933357D01*
X50140819Y-58219071D02*
X49140819Y-58219071D01*
X49236057Y-57647642D02*
X49188438Y-57600023D01*
X49188438Y-57600023D02*
X49140819Y-57504785D01*
X49140819Y-57504785D02*
X49140819Y-57266690D01*
X49140819Y-57266690D02*
X49188438Y-57171452D01*
X49188438Y-57171452D02*
X49236057Y-57123833D01*
X49236057Y-57123833D02*
X49331295Y-57076214D01*
X49331295Y-57076214D02*
X49426533Y-57076214D01*
X49426533Y-57076214D02*
X49569390Y-57123833D01*
X49569390Y-57123833D02*
X50140819Y-57695261D01*
X50140819Y-57695261D02*
X50140819Y-57076214D01*
X42364819Y-38925238D02*
X41888628Y-39258571D01*
X42364819Y-39496666D02*
X41364819Y-39496666D01*
X41364819Y-39496666D02*
X41364819Y-39115714D01*
X41364819Y-39115714D02*
X41412438Y-39020476D01*
X41412438Y-39020476D02*
X41460057Y-38972857D01*
X41460057Y-38972857D02*
X41555295Y-38925238D01*
X41555295Y-38925238D02*
X41698152Y-38925238D01*
X41698152Y-38925238D02*
X41793390Y-38972857D01*
X41793390Y-38972857D02*
X41841009Y-39020476D01*
X41841009Y-39020476D02*
X41888628Y-39115714D01*
X41888628Y-39115714D02*
X41888628Y-39496666D01*
X41841009Y-38163333D02*
X41888628Y-38020476D01*
X41888628Y-38020476D02*
X41936247Y-37972857D01*
X41936247Y-37972857D02*
X42031485Y-37925238D01*
X42031485Y-37925238D02*
X42174342Y-37925238D01*
X42174342Y-37925238D02*
X42269580Y-37972857D01*
X42269580Y-37972857D02*
X42317200Y-38020476D01*
X42317200Y-38020476D02*
X42364819Y-38115714D01*
X42364819Y-38115714D02*
X42364819Y-38496666D01*
X42364819Y-38496666D02*
X41364819Y-38496666D01*
X41364819Y-38496666D02*
X41364819Y-38163333D01*
X41364819Y-38163333D02*
X41412438Y-38068095D01*
X41412438Y-38068095D02*
X41460057Y-38020476D01*
X41460057Y-38020476D02*
X41555295Y-37972857D01*
X41555295Y-37972857D02*
X41650533Y-37972857D01*
X41650533Y-37972857D02*
X41745771Y-38020476D01*
X41745771Y-38020476D02*
X41793390Y-38068095D01*
X41793390Y-38068095D02*
X41841009Y-38163333D01*
X41841009Y-38163333D02*
X41841009Y-38496666D01*
X41364819Y-37306190D02*
X41364819Y-37115714D01*
X41364819Y-37115714D02*
X41412438Y-37020476D01*
X41412438Y-37020476D02*
X41507676Y-36925238D01*
X41507676Y-36925238D02*
X41698152Y-36877619D01*
X41698152Y-36877619D02*
X42031485Y-36877619D01*
X42031485Y-36877619D02*
X42221961Y-36925238D01*
X42221961Y-36925238D02*
X42317200Y-37020476D01*
X42317200Y-37020476D02*
X42364819Y-37115714D01*
X42364819Y-37115714D02*
X42364819Y-37306190D01*
X42364819Y-37306190D02*
X42317200Y-37401428D01*
X42317200Y-37401428D02*
X42221961Y-37496666D01*
X42221961Y-37496666D02*
X42031485Y-37544285D01*
X42031485Y-37544285D02*
X41698152Y-37544285D01*
X41698152Y-37544285D02*
X41507676Y-37496666D01*
X41507676Y-37496666D02*
X41412438Y-37401428D01*
X41412438Y-37401428D02*
X41364819Y-37306190D01*
X41364819Y-36258571D02*
X41364819Y-36068095D01*
X41364819Y-36068095D02*
X41412438Y-35972857D01*
X41412438Y-35972857D02*
X41507676Y-35877619D01*
X41507676Y-35877619D02*
X41698152Y-35830000D01*
X41698152Y-35830000D02*
X42031485Y-35830000D01*
X42031485Y-35830000D02*
X42221961Y-35877619D01*
X42221961Y-35877619D02*
X42317200Y-35972857D01*
X42317200Y-35972857D02*
X42364819Y-36068095D01*
X42364819Y-36068095D02*
X42364819Y-36258571D01*
X42364819Y-36258571D02*
X42317200Y-36353809D01*
X42317200Y-36353809D02*
X42221961Y-36449047D01*
X42221961Y-36449047D02*
X42031485Y-36496666D01*
X42031485Y-36496666D02*
X41698152Y-36496666D01*
X41698152Y-36496666D02*
X41507676Y-36449047D01*
X41507676Y-36449047D02*
X41412438Y-36353809D01*
X41412438Y-36353809D02*
X41364819Y-36258571D01*
X41364819Y-35544285D02*
X41364819Y-34972857D01*
X42364819Y-35258571D02*
X41364819Y-35258571D01*
X42364819Y-34115714D02*
X42364819Y-34687142D01*
X42364819Y-34401428D02*
X41364819Y-34401428D01*
X41364819Y-34401428D02*
X41507676Y-34496666D01*
X41507676Y-34496666D02*
X41602914Y-34591904D01*
X41602914Y-34591904D02*
X41650533Y-34687142D01*
X48394580Y-38417238D02*
X48442200Y-38464857D01*
X48442200Y-38464857D02*
X48489819Y-38607714D01*
X48489819Y-38607714D02*
X48489819Y-38702952D01*
X48489819Y-38702952D02*
X48442200Y-38845809D01*
X48442200Y-38845809D02*
X48346961Y-38941047D01*
X48346961Y-38941047D02*
X48251723Y-38988666D01*
X48251723Y-38988666D02*
X48061247Y-39036285D01*
X48061247Y-39036285D02*
X47918390Y-39036285D01*
X47918390Y-39036285D02*
X47727914Y-38988666D01*
X47727914Y-38988666D02*
X47632676Y-38941047D01*
X47632676Y-38941047D02*
X47537438Y-38845809D01*
X47537438Y-38845809D02*
X47489819Y-38702952D01*
X47489819Y-38702952D02*
X47489819Y-38607714D01*
X47489819Y-38607714D02*
X47537438Y-38464857D01*
X47537438Y-38464857D02*
X47585057Y-38417238D01*
X47537438Y-37464857D02*
X47489819Y-37560095D01*
X47489819Y-37560095D02*
X47489819Y-37702952D01*
X47489819Y-37702952D02*
X47537438Y-37845809D01*
X47537438Y-37845809D02*
X47632676Y-37941047D01*
X47632676Y-37941047D02*
X47727914Y-37988666D01*
X47727914Y-37988666D02*
X47918390Y-38036285D01*
X47918390Y-38036285D02*
X48061247Y-38036285D01*
X48061247Y-38036285D02*
X48251723Y-37988666D01*
X48251723Y-37988666D02*
X48346961Y-37941047D01*
X48346961Y-37941047D02*
X48442200Y-37845809D01*
X48442200Y-37845809D02*
X48489819Y-37702952D01*
X48489819Y-37702952D02*
X48489819Y-37607714D01*
X48489819Y-37607714D02*
X48442200Y-37464857D01*
X48442200Y-37464857D02*
X48394580Y-37417238D01*
X48394580Y-37417238D02*
X48061247Y-37417238D01*
X48061247Y-37417238D02*
X48061247Y-37607714D01*
X47489819Y-37131523D02*
X48489819Y-36798190D01*
X48489819Y-36798190D02*
X47489819Y-36464857D01*
X48489819Y-36131523D02*
X47489819Y-36131523D01*
X47489819Y-36131523D02*
X47489819Y-35893428D01*
X47489819Y-35893428D02*
X47537438Y-35750571D01*
X47537438Y-35750571D02*
X47632676Y-35655333D01*
X47632676Y-35655333D02*
X47727914Y-35607714D01*
X47727914Y-35607714D02*
X47918390Y-35560095D01*
X47918390Y-35560095D02*
X48061247Y-35560095D01*
X48061247Y-35560095D02*
X48251723Y-35607714D01*
X48251723Y-35607714D02*
X48346961Y-35655333D01*
X48346961Y-35655333D02*
X48442200Y-35750571D01*
X48442200Y-35750571D02*
X48489819Y-35893428D01*
X48489819Y-35893428D02*
X48489819Y-36131523D01*
X48489819Y-35131523D02*
X47489819Y-35131523D01*
X47489819Y-35131523D02*
X47489819Y-34893428D01*
X47489819Y-34893428D02*
X47537438Y-34750571D01*
X47537438Y-34750571D02*
X47632676Y-34655333D01*
X47632676Y-34655333D02*
X47727914Y-34607714D01*
X47727914Y-34607714D02*
X47918390Y-34560095D01*
X47918390Y-34560095D02*
X48061247Y-34560095D01*
X48061247Y-34560095D02*
X48251723Y-34607714D01*
X48251723Y-34607714D02*
X48346961Y-34655333D01*
X48346961Y-34655333D02*
X48442200Y-34750571D01*
X48442200Y-34750571D02*
X48489819Y-34893428D01*
X48489819Y-34893428D02*
X48489819Y-35131523D01*
X48489819Y-33607714D02*
X48489819Y-34179142D01*
X48489819Y-33893428D02*
X47489819Y-33893428D01*
X47489819Y-33893428D02*
X47632676Y-33988666D01*
X47632676Y-33988666D02*
X47727914Y-34083904D01*
X47727914Y-34083904D02*
X47775533Y-34179142D01*
X58066666Y-25134819D02*
X58066666Y-25849104D01*
X58066666Y-25849104D02*
X58019047Y-25991961D01*
X58019047Y-25991961D02*
X57923809Y-26087200D01*
X57923809Y-26087200D02*
X57780952Y-26134819D01*
X57780952Y-26134819D02*
X57685714Y-26134819D01*
X58495238Y-25230057D02*
X58542857Y-25182438D01*
X58542857Y-25182438D02*
X58638095Y-25134819D01*
X58638095Y-25134819D02*
X58876190Y-25134819D01*
X58876190Y-25134819D02*
X58971428Y-25182438D01*
X58971428Y-25182438D02*
X59019047Y-25230057D01*
X59019047Y-25230057D02*
X59066666Y-25325295D01*
X59066666Y-25325295D02*
X59066666Y-25420533D01*
X59066666Y-25420533D02*
X59019047Y-25563390D01*
X59019047Y-25563390D02*
X58447619Y-26134819D01*
X58447619Y-26134819D02*
X59066666Y-26134819D01*
X35206666Y-25134819D02*
X35206666Y-25849104D01*
X35206666Y-25849104D02*
X35159047Y-25991961D01*
X35159047Y-25991961D02*
X35063809Y-26087200D01*
X35063809Y-26087200D02*
X34920952Y-26134819D01*
X34920952Y-26134819D02*
X34825714Y-26134819D01*
X36206666Y-26134819D02*
X35635238Y-26134819D01*
X35920952Y-26134819D02*
X35920952Y-25134819D01*
X35920952Y-25134819D02*
X35825714Y-25277676D01*
X35825714Y-25277676D02*
X35730476Y-25372914D01*
X35730476Y-25372914D02*
X35635238Y-25420533D01*
X70364819Y-64771333D02*
X71079104Y-64771333D01*
X71079104Y-64771333D02*
X71221961Y-64818952D01*
X71221961Y-64818952D02*
X71317200Y-64914190D01*
X71317200Y-64914190D02*
X71364819Y-65057047D01*
X71364819Y-65057047D02*
X71364819Y-65152285D01*
X70364819Y-64390380D02*
X70364819Y-63771333D01*
X70364819Y-63771333D02*
X70745771Y-64104666D01*
X70745771Y-64104666D02*
X70745771Y-63961809D01*
X70745771Y-63961809D02*
X70793390Y-63866571D01*
X70793390Y-63866571D02*
X70841009Y-63818952D01*
X70841009Y-63818952D02*
X70936247Y-63771333D01*
X70936247Y-63771333D02*
X71174342Y-63771333D01*
X71174342Y-63771333D02*
X71269580Y-63818952D01*
X71269580Y-63818952D02*
X71317200Y-63866571D01*
X71317200Y-63866571D02*
X71364819Y-63961809D01*
X71364819Y-63961809D02*
X71364819Y-64247523D01*
X71364819Y-64247523D02*
X71317200Y-64342761D01*
X71317200Y-64342761D02*
X71269580Y-64390380D01*
X70364819Y-69421333D02*
X71079104Y-69421333D01*
X71079104Y-69421333D02*
X71221961Y-69468952D01*
X71221961Y-69468952D02*
X71317200Y-69564190D01*
X71317200Y-69564190D02*
X71364819Y-69707047D01*
X71364819Y-69707047D02*
X71364819Y-69802285D01*
X70698152Y-68516571D02*
X71364819Y-68516571D01*
X70317200Y-68754666D02*
X71031485Y-68992761D01*
X71031485Y-68992761D02*
X71031485Y-68373714D01*
X46519261Y-51794580D02*
X46471642Y-51842200D01*
X46471642Y-51842200D02*
X46328785Y-51889819D01*
X46328785Y-51889819D02*
X46233547Y-51889819D01*
X46233547Y-51889819D02*
X46090690Y-51842200D01*
X46090690Y-51842200D02*
X45995452Y-51746961D01*
X45995452Y-51746961D02*
X45947833Y-51651723D01*
X45947833Y-51651723D02*
X45900214Y-51461247D01*
X45900214Y-51461247D02*
X45900214Y-51318390D01*
X45900214Y-51318390D02*
X45947833Y-51127914D01*
X45947833Y-51127914D02*
X45995452Y-51032676D01*
X45995452Y-51032676D02*
X46090690Y-50937438D01*
X46090690Y-50937438D02*
X46233547Y-50889819D01*
X46233547Y-50889819D02*
X46328785Y-50889819D01*
X46328785Y-50889819D02*
X46471642Y-50937438D01*
X46471642Y-50937438D02*
X46519261Y-50985057D01*
X47471642Y-50937438D02*
X47376404Y-50889819D01*
X47376404Y-50889819D02*
X47233547Y-50889819D01*
X47233547Y-50889819D02*
X47090690Y-50937438D01*
X47090690Y-50937438D02*
X46995452Y-51032676D01*
X46995452Y-51032676D02*
X46947833Y-51127914D01*
X46947833Y-51127914D02*
X46900214Y-51318390D01*
X46900214Y-51318390D02*
X46900214Y-51461247D01*
X46900214Y-51461247D02*
X46947833Y-51651723D01*
X46947833Y-51651723D02*
X46995452Y-51746961D01*
X46995452Y-51746961D02*
X47090690Y-51842200D01*
X47090690Y-51842200D02*
X47233547Y-51889819D01*
X47233547Y-51889819D02*
X47328785Y-51889819D01*
X47328785Y-51889819D02*
X47471642Y-51842200D01*
X47471642Y-51842200D02*
X47519261Y-51794580D01*
X47519261Y-51794580D02*
X47519261Y-51461247D01*
X47519261Y-51461247D02*
X47328785Y-51461247D01*
X47804976Y-50889819D02*
X48138309Y-51889819D01*
X48138309Y-51889819D02*
X48471642Y-50889819D01*
X48804976Y-51889819D02*
X48804976Y-50889819D01*
X48804976Y-50889819D02*
X49043071Y-50889819D01*
X49043071Y-50889819D02*
X49185928Y-50937438D01*
X49185928Y-50937438D02*
X49281166Y-51032676D01*
X49281166Y-51032676D02*
X49328785Y-51127914D01*
X49328785Y-51127914D02*
X49376404Y-51318390D01*
X49376404Y-51318390D02*
X49376404Y-51461247D01*
X49376404Y-51461247D02*
X49328785Y-51651723D01*
X49328785Y-51651723D02*
X49281166Y-51746961D01*
X49281166Y-51746961D02*
X49185928Y-51842200D01*
X49185928Y-51842200D02*
X49043071Y-51889819D01*
X49043071Y-51889819D02*
X48804976Y-51889819D01*
X49804976Y-51889819D02*
X49804976Y-50889819D01*
X49804976Y-50889819D02*
X50043071Y-50889819D01*
X50043071Y-50889819D02*
X50185928Y-50937438D01*
X50185928Y-50937438D02*
X50281166Y-51032676D01*
X50281166Y-51032676D02*
X50328785Y-51127914D01*
X50328785Y-51127914D02*
X50376404Y-51318390D01*
X50376404Y-51318390D02*
X50376404Y-51461247D01*
X50376404Y-51461247D02*
X50328785Y-51651723D01*
X50328785Y-51651723D02*
X50281166Y-51746961D01*
X50281166Y-51746961D02*
X50185928Y-51842200D01*
X50185928Y-51842200D02*
X50043071Y-51889819D01*
X50043071Y-51889819D02*
X49804976Y-51889819D01*
X50757357Y-50985057D02*
X50804976Y-50937438D01*
X50804976Y-50937438D02*
X50900214Y-50889819D01*
X50900214Y-50889819D02*
X51138309Y-50889819D01*
X51138309Y-50889819D02*
X51233547Y-50937438D01*
X51233547Y-50937438D02*
X51281166Y-50985057D01*
X51281166Y-50985057D02*
X51328785Y-51080295D01*
X51328785Y-51080295D02*
X51328785Y-51175533D01*
X51328785Y-51175533D02*
X51281166Y-51318390D01*
X51281166Y-51318390D02*
X50709738Y-51889819D01*
X50709738Y-51889819D02*
X51328785Y-51889819D01*
X32671333Y-54302819D02*
X32338000Y-53826628D01*
X32099905Y-54302819D02*
X32099905Y-53302819D01*
X32099905Y-53302819D02*
X32480857Y-53302819D01*
X32480857Y-53302819D02*
X32576095Y-53350438D01*
X32576095Y-53350438D02*
X32623714Y-53398057D01*
X32623714Y-53398057D02*
X32671333Y-53493295D01*
X32671333Y-53493295D02*
X32671333Y-53636152D01*
X32671333Y-53636152D02*
X32623714Y-53731390D01*
X32623714Y-53731390D02*
X32576095Y-53779009D01*
X32576095Y-53779009D02*
X32480857Y-53826628D01*
X32480857Y-53826628D02*
X32099905Y-53826628D01*
X33052286Y-53398057D02*
X33099905Y-53350438D01*
X33099905Y-53350438D02*
X33195143Y-53302819D01*
X33195143Y-53302819D02*
X33433238Y-53302819D01*
X33433238Y-53302819D02*
X33528476Y-53350438D01*
X33528476Y-53350438D02*
X33576095Y-53398057D01*
X33576095Y-53398057D02*
X33623714Y-53493295D01*
X33623714Y-53493295D02*
X33623714Y-53588533D01*
X33623714Y-53588533D02*
X33576095Y-53731390D01*
X33576095Y-53731390D02*
X33004667Y-54302819D01*
X33004667Y-54302819D02*
X33623714Y-54302819D01*
X42269819Y-45846666D02*
X41269819Y-45846666D01*
X41269819Y-45846666D02*
X41269819Y-45608571D01*
X41269819Y-45608571D02*
X41317438Y-45465714D01*
X41317438Y-45465714D02*
X41412676Y-45370476D01*
X41412676Y-45370476D02*
X41507914Y-45322857D01*
X41507914Y-45322857D02*
X41698390Y-45275238D01*
X41698390Y-45275238D02*
X41841247Y-45275238D01*
X41841247Y-45275238D02*
X42031723Y-45322857D01*
X42031723Y-45322857D02*
X42126961Y-45370476D01*
X42126961Y-45370476D02*
X42222200Y-45465714D01*
X42222200Y-45465714D02*
X42269819Y-45608571D01*
X42269819Y-45608571D02*
X42269819Y-45846666D01*
X41746009Y-44513333D02*
X41793628Y-44370476D01*
X41793628Y-44370476D02*
X41841247Y-44322857D01*
X41841247Y-44322857D02*
X41936485Y-44275238D01*
X41936485Y-44275238D02*
X42079342Y-44275238D01*
X42079342Y-44275238D02*
X42174580Y-44322857D01*
X42174580Y-44322857D02*
X42222200Y-44370476D01*
X42222200Y-44370476D02*
X42269819Y-44465714D01*
X42269819Y-44465714D02*
X42269819Y-44846666D01*
X42269819Y-44846666D02*
X41269819Y-44846666D01*
X41269819Y-44846666D02*
X41269819Y-44513333D01*
X41269819Y-44513333D02*
X41317438Y-44418095D01*
X41317438Y-44418095D02*
X41365057Y-44370476D01*
X41365057Y-44370476D02*
X41460295Y-44322857D01*
X41460295Y-44322857D02*
X41555533Y-44322857D01*
X41555533Y-44322857D02*
X41650771Y-44370476D01*
X41650771Y-44370476D02*
X41698390Y-44418095D01*
X41698390Y-44418095D02*
X41746009Y-44513333D01*
X41746009Y-44513333D02*
X41746009Y-44846666D01*
X41269819Y-43656190D02*
X41269819Y-43465714D01*
X41269819Y-43465714D02*
X41317438Y-43370476D01*
X41317438Y-43370476D02*
X41412676Y-43275238D01*
X41412676Y-43275238D02*
X41603152Y-43227619D01*
X41603152Y-43227619D02*
X41936485Y-43227619D01*
X41936485Y-43227619D02*
X42126961Y-43275238D01*
X42126961Y-43275238D02*
X42222200Y-43370476D01*
X42222200Y-43370476D02*
X42269819Y-43465714D01*
X42269819Y-43465714D02*
X42269819Y-43656190D01*
X42269819Y-43656190D02*
X42222200Y-43751428D01*
X42222200Y-43751428D02*
X42126961Y-43846666D01*
X42126961Y-43846666D02*
X41936485Y-43894285D01*
X41936485Y-43894285D02*
X41603152Y-43894285D01*
X41603152Y-43894285D02*
X41412676Y-43846666D01*
X41412676Y-43846666D02*
X41317438Y-43751428D01*
X41317438Y-43751428D02*
X41269819Y-43656190D01*
X41269819Y-42608571D02*
X41269819Y-42418095D01*
X41269819Y-42418095D02*
X41317438Y-42322857D01*
X41317438Y-42322857D02*
X41412676Y-42227619D01*
X41412676Y-42227619D02*
X41603152Y-42180000D01*
X41603152Y-42180000D02*
X41936485Y-42180000D01*
X41936485Y-42180000D02*
X42126961Y-42227619D01*
X42126961Y-42227619D02*
X42222200Y-42322857D01*
X42222200Y-42322857D02*
X42269819Y-42418095D01*
X42269819Y-42418095D02*
X42269819Y-42608571D01*
X42269819Y-42608571D02*
X42222200Y-42703809D01*
X42222200Y-42703809D02*
X42126961Y-42799047D01*
X42126961Y-42799047D02*
X41936485Y-42846666D01*
X41936485Y-42846666D02*
X41603152Y-42846666D01*
X41603152Y-42846666D02*
X41412676Y-42799047D01*
X41412676Y-42799047D02*
X41317438Y-42703809D01*
X41317438Y-42703809D02*
X41269819Y-42608571D01*
X41269819Y-41894285D02*
X41269819Y-41322857D01*
X42269819Y-41608571D02*
X41269819Y-41608571D01*
X42269819Y-40465714D02*
X42269819Y-41037142D01*
X42269819Y-40751428D02*
X41269819Y-40751428D01*
X41269819Y-40751428D02*
X41412676Y-40846666D01*
X41412676Y-40846666D02*
X41507914Y-40941904D01*
X41507914Y-40941904D02*
X41555533Y-41037142D01*
D10*
X56292761Y-40176657D02*
X56197523Y-40129038D01*
X56197523Y-40129038D02*
X56102285Y-40033800D01*
X56102285Y-40033800D02*
X55959428Y-39890942D01*
X55959428Y-39890942D02*
X55864190Y-39843323D01*
X55864190Y-39843323D02*
X55768952Y-39843323D01*
X55816571Y-40081419D02*
X55721333Y-40033800D01*
X55721333Y-40033800D02*
X55626095Y-39938561D01*
X55626095Y-39938561D02*
X55578476Y-39748085D01*
X55578476Y-39748085D02*
X55578476Y-39414752D01*
X55578476Y-39414752D02*
X55626095Y-39224276D01*
X55626095Y-39224276D02*
X55721333Y-39129038D01*
X55721333Y-39129038D02*
X55816571Y-39081419D01*
X55816571Y-39081419D02*
X56007047Y-39081419D01*
X56007047Y-39081419D02*
X56102285Y-39129038D01*
X56102285Y-39129038D02*
X56197523Y-39224276D01*
X56197523Y-39224276D02*
X56245142Y-39414752D01*
X56245142Y-39414752D02*
X56245142Y-39748085D01*
X56245142Y-39748085D02*
X56197523Y-39938561D01*
X56197523Y-39938561D02*
X56102285Y-40033800D01*
X56102285Y-40033800D02*
X56007047Y-40081419D01*
X56007047Y-40081419D02*
X55816571Y-40081419D01*
X57197523Y-40081419D02*
X56626095Y-40081419D01*
X56911809Y-40081419D02*
X56911809Y-39081419D01*
X56911809Y-39081419D02*
X56816571Y-39224276D01*
X56816571Y-39224276D02*
X56721333Y-39319514D01*
X56721333Y-39319514D02*
X56626095Y-39367133D01*
X61118761Y-54400657D02*
X61023523Y-54353038D01*
X61023523Y-54353038D02*
X60928285Y-54257800D01*
X60928285Y-54257800D02*
X60785428Y-54114942D01*
X60785428Y-54114942D02*
X60690190Y-54067323D01*
X60690190Y-54067323D02*
X60594952Y-54067323D01*
X60642571Y-54305419D02*
X60547333Y-54257800D01*
X60547333Y-54257800D02*
X60452095Y-54162561D01*
X60452095Y-54162561D02*
X60404476Y-53972085D01*
X60404476Y-53972085D02*
X60404476Y-53638752D01*
X60404476Y-53638752D02*
X60452095Y-53448276D01*
X60452095Y-53448276D02*
X60547333Y-53353038D01*
X60547333Y-53353038D02*
X60642571Y-53305419D01*
X60642571Y-53305419D02*
X60833047Y-53305419D01*
X60833047Y-53305419D02*
X60928285Y-53353038D01*
X60928285Y-53353038D02*
X61023523Y-53448276D01*
X61023523Y-53448276D02*
X61071142Y-53638752D01*
X61071142Y-53638752D02*
X61071142Y-53972085D01*
X61071142Y-53972085D02*
X61023523Y-54162561D01*
X61023523Y-54162561D02*
X60928285Y-54257800D01*
X60928285Y-54257800D02*
X60833047Y-54305419D01*
X60833047Y-54305419D02*
X60642571Y-54305419D01*
X61928285Y-53638752D02*
X61928285Y-54305419D01*
X61690190Y-53257800D02*
X61452095Y-53972085D01*
X61452095Y-53972085D02*
X62071142Y-53972085D01*
D12*
X46936819Y-44346571D02*
X46460628Y-44679904D01*
X46936819Y-44917999D02*
X45936819Y-44917999D01*
X45936819Y-44917999D02*
X45936819Y-44537047D01*
X45936819Y-44537047D02*
X45984438Y-44441809D01*
X45984438Y-44441809D02*
X46032057Y-44394190D01*
X46032057Y-44394190D02*
X46127295Y-44346571D01*
X46127295Y-44346571D02*
X46270152Y-44346571D01*
X46270152Y-44346571D02*
X46365390Y-44394190D01*
X46365390Y-44394190D02*
X46413009Y-44441809D01*
X46413009Y-44441809D02*
X46460628Y-44537047D01*
X46460628Y-44537047D02*
X46460628Y-44917999D01*
X45984438Y-43394190D02*
X45936819Y-43489428D01*
X45936819Y-43489428D02*
X45936819Y-43632285D01*
X45936819Y-43632285D02*
X45984438Y-43775142D01*
X45984438Y-43775142D02*
X46079676Y-43870380D01*
X46079676Y-43870380D02*
X46174914Y-43917999D01*
X46174914Y-43917999D02*
X46365390Y-43965618D01*
X46365390Y-43965618D02*
X46508247Y-43965618D01*
X46508247Y-43965618D02*
X46698723Y-43917999D01*
X46698723Y-43917999D02*
X46793961Y-43870380D01*
X46793961Y-43870380D02*
X46889200Y-43775142D01*
X46889200Y-43775142D02*
X46936819Y-43632285D01*
X46936819Y-43632285D02*
X46936819Y-43537047D01*
X46936819Y-43537047D02*
X46889200Y-43394190D01*
X46889200Y-43394190D02*
X46841580Y-43346571D01*
X46841580Y-43346571D02*
X46508247Y-43346571D01*
X46508247Y-43346571D02*
X46508247Y-43537047D01*
X46651104Y-42965618D02*
X46651104Y-42489428D01*
X46936819Y-43060856D02*
X45936819Y-42727523D01*
X45936819Y-42727523D02*
X46936819Y-42394190D01*
X45936819Y-42203713D02*
X45936819Y-41632285D01*
X46936819Y-41917999D02*
X45936819Y-41917999D01*
X46413009Y-41298951D02*
X46413009Y-40965618D01*
X46936819Y-40822761D02*
X46936819Y-41298951D01*
X46936819Y-41298951D02*
X45936819Y-41298951D01*
X45936819Y-41298951D02*
X45936819Y-40822761D01*
X46936819Y-39870380D02*
X46936819Y-40441808D01*
X46936819Y-40156094D02*
X45936819Y-40156094D01*
X45936819Y-40156094D02*
X46079676Y-40251332D01*
X46079676Y-40251332D02*
X46174914Y-40346570D01*
X46174914Y-40346570D02*
X46222533Y-40441808D01*
X41100761Y-51762819D02*
X40767428Y-51286628D01*
X40529333Y-51762819D02*
X40529333Y-50762819D01*
X40529333Y-50762819D02*
X40910285Y-50762819D01*
X40910285Y-50762819D02*
X41005523Y-50810438D01*
X41005523Y-50810438D02*
X41053142Y-50858057D01*
X41053142Y-50858057D02*
X41100761Y-50953295D01*
X41100761Y-50953295D02*
X41100761Y-51096152D01*
X41100761Y-51096152D02*
X41053142Y-51191390D01*
X41053142Y-51191390D02*
X41005523Y-51239009D01*
X41005523Y-51239009D02*
X40910285Y-51286628D01*
X40910285Y-51286628D02*
X40529333Y-51286628D01*
X41862666Y-51239009D02*
X42005523Y-51286628D01*
X42005523Y-51286628D02*
X42053142Y-51334247D01*
X42053142Y-51334247D02*
X42100761Y-51429485D01*
X42100761Y-51429485D02*
X42100761Y-51572342D01*
X42100761Y-51572342D02*
X42053142Y-51667580D01*
X42053142Y-51667580D02*
X42005523Y-51715200D01*
X42005523Y-51715200D02*
X41910285Y-51762819D01*
X41910285Y-51762819D02*
X41529333Y-51762819D01*
X41529333Y-51762819D02*
X41529333Y-50762819D01*
X41529333Y-50762819D02*
X41862666Y-50762819D01*
X41862666Y-50762819D02*
X41957904Y-50810438D01*
X41957904Y-50810438D02*
X42005523Y-50858057D01*
X42005523Y-50858057D02*
X42053142Y-50953295D01*
X42053142Y-50953295D02*
X42053142Y-51048533D01*
X42053142Y-51048533D02*
X42005523Y-51143771D01*
X42005523Y-51143771D02*
X41957904Y-51191390D01*
X41957904Y-51191390D02*
X41862666Y-51239009D01*
X41862666Y-51239009D02*
X41529333Y-51239009D01*
X42719809Y-50762819D02*
X42910285Y-50762819D01*
X42910285Y-50762819D02*
X43005523Y-50810438D01*
X43005523Y-50810438D02*
X43100761Y-50905676D01*
X43100761Y-50905676D02*
X43148380Y-51096152D01*
X43148380Y-51096152D02*
X43148380Y-51429485D01*
X43148380Y-51429485D02*
X43100761Y-51619961D01*
X43100761Y-51619961D02*
X43005523Y-51715200D01*
X43005523Y-51715200D02*
X42910285Y-51762819D01*
X42910285Y-51762819D02*
X42719809Y-51762819D01*
X42719809Y-51762819D02*
X42624571Y-51715200D01*
X42624571Y-51715200D02*
X42529333Y-51619961D01*
X42529333Y-51619961D02*
X42481714Y-51429485D01*
X42481714Y-51429485D02*
X42481714Y-51096152D01*
X42481714Y-51096152D02*
X42529333Y-50905676D01*
X42529333Y-50905676D02*
X42624571Y-50810438D01*
X42624571Y-50810438D02*
X42719809Y-50762819D01*
X43767428Y-50762819D02*
X43957904Y-50762819D01*
X43957904Y-50762819D02*
X44053142Y-50810438D01*
X44053142Y-50810438D02*
X44148380Y-50905676D01*
X44148380Y-50905676D02*
X44195999Y-51096152D01*
X44195999Y-51096152D02*
X44195999Y-51429485D01*
X44195999Y-51429485D02*
X44148380Y-51619961D01*
X44148380Y-51619961D02*
X44053142Y-51715200D01*
X44053142Y-51715200D02*
X43957904Y-51762819D01*
X43957904Y-51762819D02*
X43767428Y-51762819D01*
X43767428Y-51762819D02*
X43672190Y-51715200D01*
X43672190Y-51715200D02*
X43576952Y-51619961D01*
X43576952Y-51619961D02*
X43529333Y-51429485D01*
X43529333Y-51429485D02*
X43529333Y-51096152D01*
X43529333Y-51096152D02*
X43576952Y-50905676D01*
X43576952Y-50905676D02*
X43672190Y-50810438D01*
X43672190Y-50810438D02*
X43767428Y-50762819D01*
X44481714Y-50762819D02*
X45053142Y-50762819D01*
X44767428Y-51762819D02*
X44767428Y-50762819D01*
X45338857Y-50858057D02*
X45386476Y-50810438D01*
X45386476Y-50810438D02*
X45481714Y-50762819D01*
X45481714Y-50762819D02*
X45719809Y-50762819D01*
X45719809Y-50762819D02*
X45815047Y-50810438D01*
X45815047Y-50810438D02*
X45862666Y-50858057D01*
X45862666Y-50858057D02*
X45910285Y-50953295D01*
X45910285Y-50953295D02*
X45910285Y-51048533D01*
X45910285Y-51048533D02*
X45862666Y-51191390D01*
X45862666Y-51191390D02*
X45291238Y-51762819D01*
X45291238Y-51762819D02*
X45910285Y-51762819D01*
X37338095Y-38824819D02*
X37338095Y-39634342D01*
X37338095Y-39634342D02*
X37385714Y-39729580D01*
X37385714Y-39729580D02*
X37433333Y-39777200D01*
X37433333Y-39777200D02*
X37528571Y-39824819D01*
X37528571Y-39824819D02*
X37719047Y-39824819D01*
X37719047Y-39824819D02*
X37814285Y-39777200D01*
X37814285Y-39777200D02*
X37861904Y-39729580D01*
X37861904Y-39729580D02*
X37909523Y-39634342D01*
X37909523Y-39634342D02*
X37909523Y-38824819D01*
X38909523Y-39824819D02*
X38338095Y-39824819D01*
X38623809Y-39824819D02*
X38623809Y-38824819D01*
X38623809Y-38824819D02*
X38528571Y-38967676D01*
X38528571Y-38967676D02*
X38433333Y-39062914D01*
X38433333Y-39062914D02*
X38338095Y-39110533D01*
X29083095Y-48554819D02*
X29083095Y-49364342D01*
X29083095Y-49364342D02*
X29130714Y-49459580D01*
X29130714Y-49459580D02*
X29178333Y-49507200D01*
X29178333Y-49507200D02*
X29273571Y-49554819D01*
X29273571Y-49554819D02*
X29464047Y-49554819D01*
X29464047Y-49554819D02*
X29559285Y-49507200D01*
X29559285Y-49507200D02*
X29606904Y-49459580D01*
X29606904Y-49459580D02*
X29654523Y-49364342D01*
X29654523Y-49364342D02*
X29654523Y-48554819D01*
X30035476Y-48554819D02*
X30654523Y-48554819D01*
X30654523Y-48554819D02*
X30321190Y-48935771D01*
X30321190Y-48935771D02*
X30464047Y-48935771D01*
X30464047Y-48935771D02*
X30559285Y-48983390D01*
X30559285Y-48983390D02*
X30606904Y-49031009D01*
X30606904Y-49031009D02*
X30654523Y-49126247D01*
X30654523Y-49126247D02*
X30654523Y-49364342D01*
X30654523Y-49364342D02*
X30606904Y-49459580D01*
X30606904Y-49459580D02*
X30559285Y-49507200D01*
X30559285Y-49507200D02*
X30464047Y-49554819D01*
X30464047Y-49554819D02*
X30178333Y-49554819D01*
X30178333Y-49554819D02*
X30083095Y-49507200D01*
X30083095Y-49507200D02*
X30035476Y-49459580D01*
X33179333Y-39824819D02*
X32846000Y-39348628D01*
X32607905Y-39824819D02*
X32607905Y-38824819D01*
X32607905Y-38824819D02*
X32988857Y-38824819D01*
X32988857Y-38824819D02*
X33084095Y-38872438D01*
X33084095Y-38872438D02*
X33131714Y-38920057D01*
X33131714Y-38920057D02*
X33179333Y-39015295D01*
X33179333Y-39015295D02*
X33179333Y-39158152D01*
X33179333Y-39158152D02*
X33131714Y-39253390D01*
X33131714Y-39253390D02*
X33084095Y-39301009D01*
X33084095Y-39301009D02*
X32988857Y-39348628D01*
X32988857Y-39348628D02*
X32607905Y-39348628D01*
X34131714Y-39824819D02*
X33560286Y-39824819D01*
X33846000Y-39824819D02*
X33846000Y-38824819D01*
X33846000Y-38824819D02*
X33750762Y-38967676D01*
X33750762Y-38967676D02*
X33655524Y-39062914D01*
X33655524Y-39062914D02*
X33560286Y-39110533D01*
X35059580Y-60640166D02*
X35107200Y-60687785D01*
X35107200Y-60687785D02*
X35154819Y-60830642D01*
X35154819Y-60830642D02*
X35154819Y-60925880D01*
X35154819Y-60925880D02*
X35107200Y-61068737D01*
X35107200Y-61068737D02*
X35011961Y-61163975D01*
X35011961Y-61163975D02*
X34916723Y-61211594D01*
X34916723Y-61211594D02*
X34726247Y-61259213D01*
X34726247Y-61259213D02*
X34583390Y-61259213D01*
X34583390Y-61259213D02*
X34392914Y-61211594D01*
X34392914Y-61211594D02*
X34297676Y-61163975D01*
X34297676Y-61163975D02*
X34202438Y-61068737D01*
X34202438Y-61068737D02*
X34154819Y-60925880D01*
X34154819Y-60925880D02*
X34154819Y-60830642D01*
X34154819Y-60830642D02*
X34202438Y-60687785D01*
X34202438Y-60687785D02*
X34250057Y-60640166D01*
X34250057Y-60259213D02*
X34202438Y-60211594D01*
X34202438Y-60211594D02*
X34154819Y-60116356D01*
X34154819Y-60116356D02*
X34154819Y-59878261D01*
X34154819Y-59878261D02*
X34202438Y-59783023D01*
X34202438Y-59783023D02*
X34250057Y-59735404D01*
X34250057Y-59735404D02*
X34345295Y-59687785D01*
X34345295Y-59687785D02*
X34440533Y-59687785D01*
X34440533Y-59687785D02*
X34583390Y-59735404D01*
X34583390Y-59735404D02*
X35154819Y-60306832D01*
X35154819Y-60306832D02*
X35154819Y-59687785D01*
D13*
X33755000Y-45966748D02*
X33755000Y-46489252D01*
X32285000Y-45966748D02*
X32285000Y-46489252D01*
X48995000Y-45458748D02*
X48995000Y-45981252D01*
X47525000Y-45458748D02*
X47525000Y-45981252D01*
X40780000Y-58210000D02*
X40780000Y-54760000D01*
X40780000Y-58210000D02*
X40780000Y-60160000D01*
X35660000Y-58210000D02*
X35660000Y-56260000D01*
X35660000Y-58210000D02*
X35660000Y-60160000D01*
X54158000Y-54753000D02*
X57663000Y-54753000D01*
X54393000Y-57688000D02*
X54393000Y-58023000D01*
X54393000Y-58023000D02*
X57663000Y-58023000D01*
X57663000Y-54753000D02*
X57663000Y-55088000D01*
X57663000Y-57688000D02*
X57663000Y-58023000D01*
X54129000Y-46217064D02*
X54129000Y-45762936D01*
X55599000Y-46217064D02*
X55599000Y-45762936D01*
X54129000Y-61822064D02*
X54129000Y-61367936D01*
X55599000Y-61822064D02*
X55599000Y-61367936D01*
X42378800Y-60652000D02*
X45098800Y-60652000D01*
X42378800Y-60652000D02*
X42378800Y-55672000D01*
X45098800Y-60652000D02*
X45098800Y-55672000D01*
X47271000Y-56107064D02*
X47271000Y-55652936D01*
X48741000Y-56107064D02*
X48741000Y-55652936D01*
X59365000Y-40275000D02*
X62870000Y-40275000D01*
X59600000Y-43210000D02*
X59600000Y-43545000D01*
X59600000Y-43545000D02*
X62870000Y-43545000D01*
X62870000Y-40275000D02*
X62870000Y-40610000D01*
X62870000Y-43210000D02*
X62870000Y-43545000D01*
X48741000Y-59529248D02*
X48741000Y-60051752D01*
X47271000Y-59529248D02*
X47271000Y-60051752D01*
X44550000Y-37507936D02*
X44550000Y-37962064D01*
X43080000Y-37507936D02*
X43080000Y-37962064D01*
X47090000Y-37431248D02*
X47090000Y-37953752D01*
X45620000Y-37431248D02*
X45620000Y-37953752D01*
X48260000Y-26670000D02*
X48260000Y-34290000D01*
X48260000Y-26670000D02*
X68580000Y-26670000D01*
X48260000Y-34290000D02*
X68580000Y-34290000D01*
X68580000Y-33020000D02*
X48260000Y-33020000D01*
X68580000Y-34290000D02*
X68580000Y-26670000D01*
X25400000Y-26670000D02*
X25400000Y-34290000D01*
X25400000Y-26670000D02*
X45720000Y-26670000D01*
X25400000Y-34290000D02*
X45720000Y-34290000D01*
X45720000Y-33020000D02*
X25400000Y-33020000D01*
X45720000Y-34290000D02*
X45720000Y-26670000D01*
X69910000Y-63108000D02*
X69910000Y-64438000D01*
X68580000Y-63108000D02*
X69910000Y-63108000D01*
X67310000Y-63108000D02*
X59630000Y-63108000D01*
X67310000Y-63108000D02*
X67310000Y-65768000D01*
X59630000Y-63108000D02*
X59630000Y-65768000D01*
X67310000Y-65768000D02*
X59630000Y-65768000D01*
X69910000Y-67758000D02*
X69910000Y-69088000D01*
X68580000Y-67758000D02*
X69910000Y-67758000D01*
X67310000Y-67758000D02*
X59630000Y-67758000D01*
X67310000Y-67758000D02*
X67310000Y-70418000D01*
X59630000Y-67758000D02*
X59630000Y-70418000D01*
X67310000Y-70418000D02*
X59630000Y-70418000D01*
X48521252Y-53440000D02*
X47998748Y-53440000D01*
X48521252Y-51970000D02*
X47998748Y-51970000D01*
X33755000Y-56192936D02*
X33755000Y-56647064D01*
X32285000Y-56192936D02*
X32285000Y-56647064D01*
X42455000Y-46260000D02*
X45175000Y-46260000D01*
X42455000Y-46260000D02*
X42455000Y-41280000D01*
X45175000Y-46260000D02*
X45175000Y-41280000D01*
X54285000Y-40275000D02*
X57790000Y-40275000D01*
X54520000Y-43210000D02*
X54520000Y-43545000D01*
X54520000Y-43545000D02*
X57790000Y-43545000D01*
X57790000Y-40275000D02*
X57790000Y-40610000D01*
X57790000Y-43210000D02*
X57790000Y-43545000D01*
X59344000Y-54753000D02*
X62849000Y-54753000D01*
X59579000Y-57688000D02*
X59579000Y-58023000D01*
X59579000Y-58023000D02*
X62849000Y-58023000D01*
X62849000Y-54753000D02*
X62849000Y-55088000D01*
X62849000Y-57688000D02*
X62849000Y-58023000D01*
X47525000Y-42137064D02*
X47525000Y-41682936D01*
X48995000Y-42137064D02*
X48995000Y-41682936D01*
X43677064Y-53567000D02*
X43222936Y-53567000D01*
X43677064Y-52097000D02*
X43222936Y-52097000D01*
X40830000Y-43880000D02*
X40830000Y-40430000D01*
X40830000Y-43880000D02*
X40830000Y-45830000D01*
X35710000Y-43880000D02*
X35710000Y-41930000D01*
X35710000Y-43880000D02*
X35710000Y-45830000D01*
X28945000Y-49900000D02*
X30495000Y-49900000D01*
X30495000Y-51700000D02*
X29195000Y-51700000D01*
X33755000Y-41682936D02*
X33755000Y-42137064D01*
X32285000Y-41682936D02*
X32285000Y-42137064D01*
X33755000Y-60212248D02*
X33755000Y-60734752D01*
X32285000Y-60212248D02*
X32285000Y-60734752D01*
%LPC*%
D14*
X33020000Y-45190500D03*
X33020000Y-47265500D03*
X48260000Y-44682500D03*
X48260000Y-46757500D03*
D15*
X40125000Y-55735000D03*
X38855000Y-55735000D03*
X37585000Y-55735000D03*
X36315000Y-55735000D03*
X36315000Y-60685000D03*
X37585000Y-60685000D03*
X38855000Y-60685000D03*
X40125000Y-60685000D03*
D16*
X38220000Y-58210000D03*
D17*
X54593000Y-55398000D03*
X54593000Y-56058000D03*
X54593000Y-56718000D03*
X54593000Y-57378000D03*
D18*
X56585500Y-56388000D03*
D19*
X54864000Y-46990000D03*
X54864000Y-44990000D03*
X54864000Y-62595000D03*
X54864000Y-60595000D03*
D20*
X43738800Y-59772000D03*
X43738800Y-55372000D03*
D19*
X48006000Y-56880000D03*
X48006000Y-54880000D03*
D17*
X59800000Y-40920000D03*
X59800000Y-41580000D03*
X59800000Y-42240000D03*
X59800000Y-42900000D03*
D18*
X61792500Y-41910000D03*
D14*
X48006000Y-58753000D03*
X48006000Y-60828000D03*
D21*
X43815000Y-36735000D03*
X43815000Y-38735000D03*
D14*
X46355000Y-36655000D03*
X46355000Y-38730000D03*
D22*
X50800000Y-30480000D03*
D23*
X55880000Y-30480000D03*
X60960000Y-30480000D03*
X66040000Y-30480000D03*
D22*
X27940000Y-30480000D03*
D23*
X33020000Y-30480000D03*
X38100000Y-30480000D03*
X43180000Y-30480000D03*
D24*
X68580000Y-64438000D03*
D25*
X66040000Y-64438000D03*
X63500000Y-64438000D03*
X60960000Y-64438000D03*
D24*
X68580000Y-69088000D03*
D25*
X66040000Y-69088000D03*
X63500000Y-69088000D03*
X60960000Y-69088000D03*
D26*
X49297500Y-52705000D03*
X47222500Y-52705000D03*
D21*
X33020000Y-55420000D03*
X33020000Y-57420000D03*
D20*
X43815000Y-45380000D03*
X43815000Y-40980000D03*
D17*
X54720000Y-40920000D03*
X54720000Y-41580000D03*
X54720000Y-42240000D03*
X54720000Y-42900000D03*
D18*
X56712500Y-41910000D03*
D17*
X59779000Y-55398000D03*
X59779000Y-56058000D03*
X59779000Y-56718000D03*
X59779000Y-57378000D03*
D18*
X61771500Y-56388000D03*
D19*
X48260000Y-42910000D03*
X48260000Y-40910000D03*
D27*
X44450000Y-52832000D03*
X42450000Y-52832000D03*
D15*
X40175000Y-41405000D03*
X38905000Y-41405000D03*
X37635000Y-41405000D03*
X36365000Y-41405000D03*
X36365000Y-46355000D03*
X37635000Y-46355000D03*
X38905000Y-46355000D03*
X40175000Y-46355000D03*
D16*
X38270000Y-43880000D03*
D28*
X29145000Y-50300000D03*
X29145000Y-50800000D03*
X29145000Y-51300000D03*
X30545000Y-51300000D03*
X30545000Y-50300000D03*
D21*
X33020000Y-40910000D03*
X33020000Y-42910000D03*
D14*
X33020000Y-59436000D03*
X33020000Y-61511000D03*
%LPD*%
M02*
