%TF.GenerationSoftware,KiCad,Pcbnew,7.0.10*%
%TF.CreationDate,2024-02-22T18:12:09-06:00*%
%TF.ProjectId,Sabertoothv2,53616265-7274-46f6-9f74-6876322e6b69,rev?*%
%TF.SameCoordinates,Original*%
%TF.FileFunction,Legend,Bot*%
%TF.FilePolarity,Positive*%
%FSLAX46Y46*%
G04 Gerber Fmt 4.6, Leading zero omitted, Abs format (unit mm)*
G04 Created by KiCad (PCBNEW 7.0.10) date 2024-02-22 18:12:09*
%MOMM*%
%LPD*%
G01*
G04 APERTURE LIST*
%ADD10C,0.250000*%
%ADD11C,0.153000*%
%ADD12R,3.000000X3.000000*%
%ADD13C,3.000000*%
%ADD14R,1.700000X1.700000*%
%ADD15O,1.700000X1.700000*%
G04 APERTURE END LIST*
D10*
X34871717Y-69984619D02*
X34871717Y-70698904D01*
X34871717Y-70698904D02*
X34919336Y-70841761D01*
X34919336Y-70841761D02*
X35014574Y-70937000D01*
X35014574Y-70937000D02*
X35157431Y-70984619D01*
X35157431Y-70984619D02*
X35252669Y-70984619D01*
X33919336Y-70984619D02*
X34395526Y-70984619D01*
X34395526Y-70984619D02*
X34395526Y-69984619D01*
X33014574Y-70889380D02*
X33062193Y-70937000D01*
X33062193Y-70937000D02*
X33205050Y-70984619D01*
X33205050Y-70984619D02*
X33300288Y-70984619D01*
X33300288Y-70984619D02*
X33443145Y-70937000D01*
X33443145Y-70937000D02*
X33538383Y-70841761D01*
X33538383Y-70841761D02*
X33586002Y-70746523D01*
X33586002Y-70746523D02*
X33633621Y-70556047D01*
X33633621Y-70556047D02*
X33633621Y-70413190D01*
X33633621Y-70413190D02*
X33586002Y-70222714D01*
X33586002Y-70222714D02*
X33538383Y-70127476D01*
X33538383Y-70127476D02*
X33443145Y-70032238D01*
X33443145Y-70032238D02*
X33300288Y-69984619D01*
X33300288Y-69984619D02*
X33205050Y-69984619D01*
X33205050Y-69984619D02*
X33062193Y-70032238D01*
X33062193Y-70032238D02*
X33014574Y-70079857D01*
X32300288Y-69984619D02*
X32300288Y-70698904D01*
X32300288Y-70698904D02*
X32347907Y-70841761D01*
X32347907Y-70841761D02*
X32443145Y-70937000D01*
X32443145Y-70937000D02*
X32586002Y-70984619D01*
X32586002Y-70984619D02*
X32681240Y-70984619D01*
X31347907Y-70984619D02*
X31824097Y-70984619D01*
X31824097Y-70984619D02*
X31824097Y-69984619D01*
X30443145Y-70889380D02*
X30490764Y-70937000D01*
X30490764Y-70937000D02*
X30633621Y-70984619D01*
X30633621Y-70984619D02*
X30728859Y-70984619D01*
X30728859Y-70984619D02*
X30871716Y-70937000D01*
X30871716Y-70937000D02*
X30966954Y-70841761D01*
X30966954Y-70841761D02*
X31014573Y-70746523D01*
X31014573Y-70746523D02*
X31062192Y-70556047D01*
X31062192Y-70556047D02*
X31062192Y-70413190D01*
X31062192Y-70413190D02*
X31014573Y-70222714D01*
X31014573Y-70222714D02*
X30966954Y-70127476D01*
X30966954Y-70127476D02*
X30871716Y-70032238D01*
X30871716Y-70032238D02*
X30728859Y-69984619D01*
X30728859Y-69984619D02*
X30633621Y-69984619D01*
X30633621Y-69984619D02*
X30490764Y-70032238D01*
X30490764Y-70032238D02*
X30443145Y-70079857D01*
X29728859Y-69984619D02*
X29728859Y-70698904D01*
X29728859Y-70698904D02*
X29776478Y-70841761D01*
X29776478Y-70841761D02*
X29871716Y-70937000D01*
X29871716Y-70937000D02*
X30014573Y-70984619D01*
X30014573Y-70984619D02*
X30109811Y-70984619D01*
X28776478Y-70984619D02*
X29252668Y-70984619D01*
X29252668Y-70984619D02*
X29252668Y-69984619D01*
X27871716Y-70889380D02*
X27919335Y-70937000D01*
X27919335Y-70937000D02*
X28062192Y-70984619D01*
X28062192Y-70984619D02*
X28157430Y-70984619D01*
X28157430Y-70984619D02*
X28300287Y-70937000D01*
X28300287Y-70937000D02*
X28395525Y-70841761D01*
X28395525Y-70841761D02*
X28443144Y-70746523D01*
X28443144Y-70746523D02*
X28490763Y-70556047D01*
X28490763Y-70556047D02*
X28490763Y-70413190D01*
X28490763Y-70413190D02*
X28443144Y-70222714D01*
X28443144Y-70222714D02*
X28395525Y-70127476D01*
X28395525Y-70127476D02*
X28300287Y-70032238D01*
X28300287Y-70032238D02*
X28157430Y-69984619D01*
X28157430Y-69984619D02*
X28062192Y-69984619D01*
X28062192Y-69984619D02*
X27919335Y-70032238D01*
X27919335Y-70032238D02*
X27871716Y-70079857D01*
X27157430Y-69984619D02*
X27157430Y-70698904D01*
X27157430Y-70698904D02*
X27205049Y-70841761D01*
X27205049Y-70841761D02*
X27300287Y-70937000D01*
X27300287Y-70937000D02*
X27443144Y-70984619D01*
X27443144Y-70984619D02*
X27538382Y-70984619D01*
X26205049Y-70984619D02*
X26681239Y-70984619D01*
X26681239Y-70984619D02*
X26681239Y-69984619D01*
X25300287Y-70889380D02*
X25347906Y-70937000D01*
X25347906Y-70937000D02*
X25490763Y-70984619D01*
X25490763Y-70984619D02*
X25586001Y-70984619D01*
X25586001Y-70984619D02*
X25728858Y-70937000D01*
X25728858Y-70937000D02*
X25824096Y-70841761D01*
X25824096Y-70841761D02*
X25871715Y-70746523D01*
X25871715Y-70746523D02*
X25919334Y-70556047D01*
X25919334Y-70556047D02*
X25919334Y-70413190D01*
X25919334Y-70413190D02*
X25871715Y-70222714D01*
X25871715Y-70222714D02*
X25824096Y-70127476D01*
X25824096Y-70127476D02*
X25728858Y-70032238D01*
X25728858Y-70032238D02*
X25586001Y-69984619D01*
X25586001Y-69984619D02*
X25490763Y-69984619D01*
X25490763Y-69984619D02*
X25347906Y-70032238D01*
X25347906Y-70032238D02*
X25300287Y-70079857D01*
D11*
X60621247Y-61669663D02*
X60621247Y-60669663D01*
X59573629Y-61669663D02*
X59906962Y-61193472D01*
X60145057Y-61669663D02*
X60145057Y-60669663D01*
X60145057Y-60669663D02*
X59764105Y-60669663D01*
X59764105Y-60669663D02*
X59668867Y-60717282D01*
X59668867Y-60717282D02*
X59621248Y-60764901D01*
X59621248Y-60764901D02*
X59573629Y-60860139D01*
X59573629Y-60860139D02*
X59573629Y-61002996D01*
X59573629Y-61002996D02*
X59621248Y-61098234D01*
X59621248Y-61098234D02*
X59668867Y-61145853D01*
X59668867Y-61145853D02*
X59764105Y-61193472D01*
X59764105Y-61193472D02*
X60145057Y-61193472D01*
X59145057Y-61669663D02*
X59145057Y-60669663D01*
X58716486Y-61622044D02*
X58573629Y-61669663D01*
X58573629Y-61669663D02*
X58335534Y-61669663D01*
X58335534Y-61669663D02*
X58240296Y-61622044D01*
X58240296Y-61622044D02*
X58192677Y-61574424D01*
X58192677Y-61574424D02*
X58145058Y-61479186D01*
X58145058Y-61479186D02*
X58145058Y-61383948D01*
X58145058Y-61383948D02*
X58192677Y-61288710D01*
X58192677Y-61288710D02*
X58240296Y-61241091D01*
X58240296Y-61241091D02*
X58335534Y-61193472D01*
X58335534Y-61193472D02*
X58526010Y-61145853D01*
X58526010Y-61145853D02*
X58621248Y-61098234D01*
X58621248Y-61098234D02*
X58668867Y-61050615D01*
X58668867Y-61050615D02*
X58716486Y-60955377D01*
X58716486Y-60955377D02*
X58716486Y-60860139D01*
X58716486Y-60860139D02*
X58668867Y-60764901D01*
X58668867Y-60764901D02*
X58621248Y-60717282D01*
X58621248Y-60717282D02*
X58526010Y-60669663D01*
X58526010Y-60669663D02*
X58287915Y-60669663D01*
X58287915Y-60669663D02*
X58145058Y-60717282D01*
X57716486Y-61288710D02*
X56954582Y-61288710D01*
X56573629Y-60669663D02*
X55906963Y-61669663D01*
X55906963Y-60669663D02*
X56573629Y-61669663D01*
X55526010Y-61669663D02*
X55526010Y-60669663D01*
X55192677Y-60669663D02*
X54859344Y-61669663D01*
X54859344Y-61669663D02*
X54526011Y-60669663D01*
X60668866Y-63232044D02*
X60526009Y-63279663D01*
X60526009Y-63279663D02*
X60287914Y-63279663D01*
X60287914Y-63279663D02*
X60192676Y-63232044D01*
X60192676Y-63232044D02*
X60145057Y-63184424D01*
X60145057Y-63184424D02*
X60097438Y-63089186D01*
X60097438Y-63089186D02*
X60097438Y-62993948D01*
X60097438Y-62993948D02*
X60145057Y-62898710D01*
X60145057Y-62898710D02*
X60192676Y-62851091D01*
X60192676Y-62851091D02*
X60287914Y-62803472D01*
X60287914Y-62803472D02*
X60478390Y-62755853D01*
X60478390Y-62755853D02*
X60573628Y-62708234D01*
X60573628Y-62708234D02*
X60621247Y-62660615D01*
X60621247Y-62660615D02*
X60668866Y-62565377D01*
X60668866Y-62565377D02*
X60668866Y-62470139D01*
X60668866Y-62470139D02*
X60621247Y-62374901D01*
X60621247Y-62374901D02*
X60573628Y-62327282D01*
X60573628Y-62327282D02*
X60478390Y-62279663D01*
X60478390Y-62279663D02*
X60240295Y-62279663D01*
X60240295Y-62279663D02*
X60097438Y-62327282D01*
X59716485Y-62993948D02*
X59240295Y-62993948D01*
X59811723Y-63279663D02*
X59478390Y-62279663D01*
X59478390Y-62279663D02*
X59145057Y-63279663D01*
X58811723Y-63279663D02*
X58811723Y-62279663D01*
X58811723Y-62755853D02*
X58240295Y-62755853D01*
X58240295Y-63279663D02*
X58240295Y-62279663D01*
X57145056Y-62279663D02*
X56811723Y-63279663D01*
X56811723Y-63279663D02*
X56478390Y-62279663D01*
X55764104Y-63232044D02*
X55859342Y-63279663D01*
X55859342Y-63279663D02*
X56049818Y-63279663D01*
X56049818Y-63279663D02*
X56145056Y-63232044D01*
X56145056Y-63232044D02*
X56192675Y-63136805D01*
X56192675Y-63136805D02*
X56192675Y-62755853D01*
X56192675Y-62755853D02*
X56145056Y-62660615D01*
X56145056Y-62660615D02*
X56049818Y-62612996D01*
X56049818Y-62612996D02*
X55859342Y-62612996D01*
X55859342Y-62612996D02*
X55764104Y-62660615D01*
X55764104Y-62660615D02*
X55716485Y-62755853D01*
X55716485Y-62755853D02*
X55716485Y-62851091D01*
X55716485Y-62851091D02*
X56192675Y-62946329D01*
X55287913Y-63279663D02*
X55287913Y-62612996D01*
X55287913Y-62803472D02*
X55240294Y-62708234D01*
X55240294Y-62708234D02*
X55192675Y-62660615D01*
X55192675Y-62660615D02*
X55097437Y-62612996D01*
X55097437Y-62612996D02*
X55002199Y-62612996D01*
X54668865Y-63184424D02*
X54621246Y-63232044D01*
X54621246Y-63232044D02*
X54668865Y-63279663D01*
X54668865Y-63279663D02*
X54716484Y-63232044D01*
X54716484Y-63232044D02*
X54668865Y-63184424D01*
X54668865Y-63184424D02*
X54668865Y-63279663D01*
X54240294Y-62374901D02*
X54192675Y-62327282D01*
X54192675Y-62327282D02*
X54097437Y-62279663D01*
X54097437Y-62279663D02*
X53859342Y-62279663D01*
X53859342Y-62279663D02*
X53764104Y-62327282D01*
X53764104Y-62327282D02*
X53716485Y-62374901D01*
X53716485Y-62374901D02*
X53668866Y-62470139D01*
X53668866Y-62470139D02*
X53668866Y-62565377D01*
X53668866Y-62565377D02*
X53716485Y-62708234D01*
X53716485Y-62708234D02*
X54287913Y-63279663D01*
X54287913Y-63279663D02*
X53668866Y-63279663D01*
X51906961Y-63279663D02*
X52240294Y-62803472D01*
X52478389Y-63279663D02*
X52478389Y-62279663D01*
X52478389Y-62279663D02*
X52097437Y-62279663D01*
X52097437Y-62279663D02*
X52002199Y-62327282D01*
X52002199Y-62327282D02*
X51954580Y-62374901D01*
X51954580Y-62374901D02*
X51906961Y-62470139D01*
X51906961Y-62470139D02*
X51906961Y-62612996D01*
X51906961Y-62612996D02*
X51954580Y-62708234D01*
X51954580Y-62708234D02*
X52002199Y-62755853D01*
X52002199Y-62755853D02*
X52097437Y-62803472D01*
X52097437Y-62803472D02*
X52478389Y-62803472D01*
X51097437Y-63232044D02*
X51192675Y-63279663D01*
X51192675Y-63279663D02*
X51383151Y-63279663D01*
X51383151Y-63279663D02*
X51478389Y-63232044D01*
X51478389Y-63232044D02*
X51526008Y-63136805D01*
X51526008Y-63136805D02*
X51526008Y-62755853D01*
X51526008Y-62755853D02*
X51478389Y-62660615D01*
X51478389Y-62660615D02*
X51383151Y-62612996D01*
X51383151Y-62612996D02*
X51192675Y-62612996D01*
X51192675Y-62612996D02*
X51097437Y-62660615D01*
X51097437Y-62660615D02*
X51049818Y-62755853D01*
X51049818Y-62755853D02*
X51049818Y-62851091D01*
X51049818Y-62851091D02*
X51526008Y-62946329D01*
X50716484Y-62612996D02*
X50478389Y-63279663D01*
X50478389Y-63279663D02*
X50240294Y-62612996D01*
X49859341Y-63184424D02*
X49811722Y-63232044D01*
X49811722Y-63232044D02*
X49859341Y-63279663D01*
X49859341Y-63279663D02*
X49906960Y-63232044D01*
X49906960Y-63232044D02*
X49859341Y-63184424D01*
X49859341Y-63184424D02*
X49859341Y-63279663D01*
X49430770Y-62993948D02*
X48954580Y-62993948D01*
X49526008Y-63279663D02*
X49192675Y-62279663D01*
X49192675Y-62279663D02*
X48859342Y-63279663D01*
X60287914Y-64365853D02*
X60145057Y-64413472D01*
X60145057Y-64413472D02*
X60097438Y-64461091D01*
X60097438Y-64461091D02*
X60049819Y-64556329D01*
X60049819Y-64556329D02*
X60049819Y-64699186D01*
X60049819Y-64699186D02*
X60097438Y-64794424D01*
X60097438Y-64794424D02*
X60145057Y-64842044D01*
X60145057Y-64842044D02*
X60240295Y-64889663D01*
X60240295Y-64889663D02*
X60621247Y-64889663D01*
X60621247Y-64889663D02*
X60621247Y-63889663D01*
X60621247Y-63889663D02*
X60287914Y-63889663D01*
X60287914Y-63889663D02*
X60192676Y-63937282D01*
X60192676Y-63937282D02*
X60145057Y-63984901D01*
X60145057Y-63984901D02*
X60097438Y-64080139D01*
X60097438Y-64080139D02*
X60097438Y-64175377D01*
X60097438Y-64175377D02*
X60145057Y-64270615D01*
X60145057Y-64270615D02*
X60192676Y-64318234D01*
X60192676Y-64318234D02*
X60287914Y-64365853D01*
X60287914Y-64365853D02*
X60621247Y-64365853D01*
X59192676Y-64222996D02*
X59192676Y-64889663D01*
X59621247Y-64222996D02*
X59621247Y-64746805D01*
X59621247Y-64746805D02*
X59573628Y-64842044D01*
X59573628Y-64842044D02*
X59478390Y-64889663D01*
X59478390Y-64889663D02*
X59335533Y-64889663D01*
X59335533Y-64889663D02*
X59240295Y-64842044D01*
X59240295Y-64842044D02*
X59192676Y-64794424D01*
X58859342Y-64222996D02*
X58478390Y-64222996D01*
X58716485Y-64889663D02*
X58716485Y-64032520D01*
X58716485Y-64032520D02*
X58668866Y-63937282D01*
X58668866Y-63937282D02*
X58573628Y-63889663D01*
X58573628Y-63889663D02*
X58478390Y-63889663D01*
X58287913Y-64222996D02*
X57906961Y-64222996D01*
X58145056Y-64889663D02*
X58145056Y-64032520D01*
X58145056Y-64032520D02*
X58097437Y-63937282D01*
X58097437Y-63937282D02*
X58002199Y-63889663D01*
X58002199Y-63889663D02*
X57906961Y-63889663D01*
X57192675Y-64842044D02*
X57287913Y-64889663D01*
X57287913Y-64889663D02*
X57478389Y-64889663D01*
X57478389Y-64889663D02*
X57573627Y-64842044D01*
X57573627Y-64842044D02*
X57621246Y-64746805D01*
X57621246Y-64746805D02*
X57621246Y-64365853D01*
X57621246Y-64365853D02*
X57573627Y-64270615D01*
X57573627Y-64270615D02*
X57478389Y-64222996D01*
X57478389Y-64222996D02*
X57287913Y-64222996D01*
X57287913Y-64222996D02*
X57192675Y-64270615D01*
X57192675Y-64270615D02*
X57145056Y-64365853D01*
X57145056Y-64365853D02*
X57145056Y-64461091D01*
X57145056Y-64461091D02*
X57621246Y-64556329D01*
X56859341Y-64222996D02*
X56478389Y-64222996D01*
X56716484Y-63889663D02*
X56716484Y-64746805D01*
X56716484Y-64746805D02*
X56668865Y-64842044D01*
X56668865Y-64842044D02*
X56573627Y-64889663D01*
X56573627Y-64889663D02*
X56478389Y-64889663D01*
X56287912Y-64222996D02*
X55906960Y-64222996D01*
X56145055Y-63889663D02*
X56145055Y-64746805D01*
X56145055Y-64746805D02*
X56097436Y-64842044D01*
X56097436Y-64842044D02*
X56002198Y-64889663D01*
X56002198Y-64889663D02*
X55906960Y-64889663D01*
X54335531Y-64889663D02*
X54811721Y-64889663D01*
X54811721Y-64889663D02*
X54811721Y-63889663D01*
X53621245Y-64842044D02*
X53716483Y-64889663D01*
X53716483Y-64889663D02*
X53906959Y-64889663D01*
X53906959Y-64889663D02*
X54002197Y-64842044D01*
X54002197Y-64842044D02*
X54049816Y-64746805D01*
X54049816Y-64746805D02*
X54049816Y-64365853D01*
X54049816Y-64365853D02*
X54002197Y-64270615D01*
X54002197Y-64270615D02*
X53906959Y-64222996D01*
X53906959Y-64222996D02*
X53716483Y-64222996D01*
X53716483Y-64222996D02*
X53621245Y-64270615D01*
X53621245Y-64270615D02*
X53573626Y-64365853D01*
X53573626Y-64365853D02*
X53573626Y-64461091D01*
X53573626Y-64461091D02*
X54049816Y-64556329D01*
X52764102Y-64842044D02*
X52859340Y-64889663D01*
X52859340Y-64889663D02*
X53049816Y-64889663D01*
X53049816Y-64889663D02*
X53145054Y-64842044D01*
X53145054Y-64842044D02*
X53192673Y-64746805D01*
X53192673Y-64746805D02*
X53192673Y-64365853D01*
X53192673Y-64365853D02*
X53145054Y-64270615D01*
X53145054Y-64270615D02*
X53049816Y-64222996D01*
X53049816Y-64222996D02*
X52859340Y-64222996D01*
X52859340Y-64222996D02*
X52764102Y-64270615D01*
X52764102Y-64270615D02*
X52716483Y-64365853D01*
X52716483Y-64365853D02*
X52716483Y-64461091D01*
X52716483Y-64461091D02*
X53192673Y-64556329D01*
X52240292Y-64842044D02*
X52240292Y-64889663D01*
X52240292Y-64889663D02*
X52287911Y-64984901D01*
X52287911Y-64984901D02*
X52335530Y-65032520D01*
X51049816Y-64365853D02*
X50716483Y-64365853D01*
X50573626Y-64889663D02*
X51049816Y-64889663D01*
X51049816Y-64889663D02*
X51049816Y-63889663D01*
X51049816Y-63889663D02*
X50573626Y-63889663D01*
X50145054Y-64889663D02*
X50145054Y-64222996D01*
X50145054Y-64318234D02*
X50097435Y-64270615D01*
X50097435Y-64270615D02*
X50002197Y-64222996D01*
X50002197Y-64222996D02*
X49859340Y-64222996D01*
X49859340Y-64222996D02*
X49764102Y-64270615D01*
X49764102Y-64270615D02*
X49716483Y-64365853D01*
X49716483Y-64365853D02*
X49716483Y-64889663D01*
X49716483Y-64365853D02*
X49668864Y-64270615D01*
X49668864Y-64270615D02*
X49573626Y-64222996D01*
X49573626Y-64222996D02*
X49430769Y-64222996D01*
X49430769Y-64222996D02*
X49335530Y-64270615D01*
X49335530Y-64270615D02*
X49287911Y-64365853D01*
X49287911Y-64365853D02*
X49287911Y-64889663D01*
X48811721Y-64889663D02*
X48811721Y-64222996D01*
X48811721Y-63889663D02*
X48859340Y-63937282D01*
X48859340Y-63937282D02*
X48811721Y-63984901D01*
X48811721Y-63984901D02*
X48764102Y-63937282D01*
X48764102Y-63937282D02*
X48811721Y-63889663D01*
X48811721Y-63889663D02*
X48811721Y-63984901D01*
X48192674Y-64889663D02*
X48287912Y-64842044D01*
X48287912Y-64842044D02*
X48335531Y-64746805D01*
X48335531Y-64746805D02*
X48335531Y-63889663D01*
X47906959Y-64222996D02*
X47668864Y-64889663D01*
X47430769Y-64222996D02*
X47668864Y-64889663D01*
X47668864Y-64889663D02*
X47764102Y-65127758D01*
X47764102Y-65127758D02*
X47811721Y-65175377D01*
X47811721Y-65175377D02*
X47906959Y-65222996D01*
X45811721Y-64889663D02*
X46287911Y-64889663D01*
X46287911Y-64889663D02*
X46287911Y-63889663D01*
X45335530Y-64889663D02*
X45430768Y-64842044D01*
X45430768Y-64842044D02*
X45478387Y-64794424D01*
X45478387Y-64794424D02*
X45526006Y-64699186D01*
X45526006Y-64699186D02*
X45526006Y-64413472D01*
X45526006Y-64413472D02*
X45478387Y-64318234D01*
X45478387Y-64318234D02*
X45430768Y-64270615D01*
X45430768Y-64270615D02*
X45335530Y-64222996D01*
X45335530Y-64222996D02*
X45192673Y-64222996D01*
X45192673Y-64222996D02*
X45097435Y-64270615D01*
X45097435Y-64270615D02*
X45049816Y-64318234D01*
X45049816Y-64318234D02*
X45002197Y-64413472D01*
X45002197Y-64413472D02*
X45002197Y-64699186D01*
X45002197Y-64699186D02*
X45049816Y-64794424D01*
X45049816Y-64794424D02*
X45097435Y-64842044D01*
X45097435Y-64842044D02*
X45192673Y-64889663D01*
X45192673Y-64889663D02*
X45335530Y-64889663D01*
X44573625Y-64889663D02*
X44573625Y-64222996D01*
X44573625Y-64413472D02*
X44526006Y-64318234D01*
X44526006Y-64318234D02*
X44478387Y-64270615D01*
X44478387Y-64270615D02*
X44383149Y-64222996D01*
X44383149Y-64222996D02*
X44287911Y-64222996D01*
X44049815Y-64222996D02*
X43811720Y-64889663D01*
X43573625Y-64222996D02*
X43811720Y-64889663D01*
X43811720Y-64889663D02*
X43906958Y-65127758D01*
X43906958Y-65127758D02*
X43954577Y-65175377D01*
X43954577Y-65175377D02*
X44049815Y-65222996D01*
X43145053Y-64842044D02*
X43145053Y-64889663D01*
X43145053Y-64889663D02*
X43192672Y-64984901D01*
X43192672Y-64984901D02*
X43240291Y-65032520D01*
X41668863Y-63889663D02*
X41668863Y-64603948D01*
X41668863Y-64603948D02*
X41716482Y-64746805D01*
X41716482Y-64746805D02*
X41811720Y-64842044D01*
X41811720Y-64842044D02*
X41954577Y-64889663D01*
X41954577Y-64889663D02*
X42049815Y-64889663D01*
X41049815Y-64889663D02*
X41145053Y-64842044D01*
X41145053Y-64842044D02*
X41192672Y-64794424D01*
X41192672Y-64794424D02*
X41240291Y-64699186D01*
X41240291Y-64699186D02*
X41240291Y-64413472D01*
X41240291Y-64413472D02*
X41192672Y-64318234D01*
X41192672Y-64318234D02*
X41145053Y-64270615D01*
X41145053Y-64270615D02*
X41049815Y-64222996D01*
X41049815Y-64222996D02*
X40906958Y-64222996D01*
X40906958Y-64222996D02*
X40811720Y-64270615D01*
X40811720Y-64270615D02*
X40764101Y-64318234D01*
X40764101Y-64318234D02*
X40716482Y-64413472D01*
X40716482Y-64413472D02*
X40716482Y-64699186D01*
X40716482Y-64699186D02*
X40764101Y-64794424D01*
X40764101Y-64794424D02*
X40811720Y-64842044D01*
X40811720Y-64842044D02*
X40906958Y-64889663D01*
X40906958Y-64889663D02*
X41049815Y-64889663D01*
X40335529Y-64842044D02*
X40240291Y-64889663D01*
X40240291Y-64889663D02*
X40049815Y-64889663D01*
X40049815Y-64889663D02*
X39954577Y-64842044D01*
X39954577Y-64842044D02*
X39906958Y-64746805D01*
X39906958Y-64746805D02*
X39906958Y-64699186D01*
X39906958Y-64699186D02*
X39954577Y-64603948D01*
X39954577Y-64603948D02*
X40049815Y-64556329D01*
X40049815Y-64556329D02*
X40192672Y-64556329D01*
X40192672Y-64556329D02*
X40287910Y-64508710D01*
X40287910Y-64508710D02*
X40335529Y-64413472D01*
X40335529Y-64413472D02*
X40335529Y-64365853D01*
X40335529Y-64365853D02*
X40287910Y-64270615D01*
X40287910Y-64270615D02*
X40192672Y-64222996D01*
X40192672Y-64222996D02*
X40049815Y-64222996D01*
X40049815Y-64222996D02*
X39954577Y-64270615D01*
X39097434Y-64842044D02*
X39192672Y-64889663D01*
X39192672Y-64889663D02*
X39383148Y-64889663D01*
X39383148Y-64889663D02*
X39478386Y-64842044D01*
X39478386Y-64842044D02*
X39526005Y-64746805D01*
X39526005Y-64746805D02*
X39526005Y-64365853D01*
X39526005Y-64365853D02*
X39478386Y-64270615D01*
X39478386Y-64270615D02*
X39383148Y-64222996D01*
X39383148Y-64222996D02*
X39192672Y-64222996D01*
X39192672Y-64222996D02*
X39097434Y-64270615D01*
X39097434Y-64270615D02*
X39049815Y-64365853D01*
X39049815Y-64365853D02*
X39049815Y-64461091D01*
X39049815Y-64461091D02*
X39526005Y-64556329D01*
X38621243Y-64222996D02*
X38621243Y-65222996D01*
X38621243Y-64270615D02*
X38526005Y-64222996D01*
X38526005Y-64222996D02*
X38335529Y-64222996D01*
X38335529Y-64222996D02*
X38240291Y-64270615D01*
X38240291Y-64270615D02*
X38192672Y-64318234D01*
X38192672Y-64318234D02*
X38145053Y-64413472D01*
X38145053Y-64413472D02*
X38145053Y-64699186D01*
X38145053Y-64699186D02*
X38192672Y-64794424D01*
X38192672Y-64794424D02*
X38240291Y-64842044D01*
X38240291Y-64842044D02*
X38335529Y-64889663D01*
X38335529Y-64889663D02*
X38526005Y-64889663D01*
X38526005Y-64889663D02*
X38621243Y-64842044D01*
X37716481Y-64889663D02*
X37716481Y-63889663D01*
X37287910Y-64889663D02*
X37287910Y-64365853D01*
X37287910Y-64365853D02*
X37335529Y-64270615D01*
X37335529Y-64270615D02*
X37430767Y-64222996D01*
X37430767Y-64222996D02*
X37573624Y-64222996D01*
X37573624Y-64222996D02*
X37668862Y-64270615D01*
X37668862Y-64270615D02*
X37716481Y-64318234D01*
X36049814Y-64889663D02*
X36049814Y-63889663D01*
X36049814Y-64365853D02*
X35478386Y-64365853D01*
X35478386Y-64889663D02*
X35478386Y-63889663D01*
X34573624Y-64889663D02*
X34573624Y-64365853D01*
X34573624Y-64365853D02*
X34621243Y-64270615D01*
X34621243Y-64270615D02*
X34716481Y-64222996D01*
X34716481Y-64222996D02*
X34906957Y-64222996D01*
X34906957Y-64222996D02*
X35002195Y-64270615D01*
X34573624Y-64842044D02*
X34668862Y-64889663D01*
X34668862Y-64889663D02*
X34906957Y-64889663D01*
X34906957Y-64889663D02*
X35002195Y-64842044D01*
X35002195Y-64842044D02*
X35049814Y-64746805D01*
X35049814Y-64746805D02*
X35049814Y-64651567D01*
X35049814Y-64651567D02*
X35002195Y-64556329D01*
X35002195Y-64556329D02*
X34906957Y-64508710D01*
X34906957Y-64508710D02*
X34668862Y-64508710D01*
X34668862Y-64508710D02*
X34573624Y-64461091D01*
X34097433Y-64222996D02*
X34097433Y-64889663D01*
X34097433Y-64318234D02*
X34049814Y-64270615D01*
X34049814Y-64270615D02*
X33954576Y-64222996D01*
X33954576Y-64222996D02*
X33811719Y-64222996D01*
X33811719Y-64222996D02*
X33716481Y-64270615D01*
X33716481Y-64270615D02*
X33668862Y-64365853D01*
X33668862Y-64365853D02*
X33668862Y-64889663D01*
X32764100Y-64222996D02*
X32764100Y-65032520D01*
X32764100Y-65032520D02*
X32811719Y-65127758D01*
X32811719Y-65127758D02*
X32859338Y-65175377D01*
X32859338Y-65175377D02*
X32954576Y-65222996D01*
X32954576Y-65222996D02*
X33097433Y-65222996D01*
X33097433Y-65222996D02*
X33192671Y-65175377D01*
X32764100Y-64842044D02*
X32859338Y-64889663D01*
X32859338Y-64889663D02*
X33049814Y-64889663D01*
X33049814Y-64889663D02*
X33145052Y-64842044D01*
X33145052Y-64842044D02*
X33192671Y-64794424D01*
X33192671Y-64794424D02*
X33240290Y-64699186D01*
X33240290Y-64699186D02*
X33240290Y-64413472D01*
X33240290Y-64413472D02*
X33192671Y-64318234D01*
X33192671Y-64318234D02*
X33145052Y-64270615D01*
X33145052Y-64270615D02*
X33049814Y-64222996D01*
X33049814Y-64222996D02*
X32859338Y-64222996D01*
X32859338Y-64222996D02*
X32764100Y-64270615D01*
X31906957Y-64842044D02*
X32002195Y-64889663D01*
X32002195Y-64889663D02*
X32192671Y-64889663D01*
X32192671Y-64889663D02*
X32287909Y-64842044D01*
X32287909Y-64842044D02*
X32335528Y-64746805D01*
X32335528Y-64746805D02*
X32335528Y-64365853D01*
X32335528Y-64365853D02*
X32287909Y-64270615D01*
X32287909Y-64270615D02*
X32192671Y-64222996D01*
X32192671Y-64222996D02*
X32002195Y-64222996D01*
X32002195Y-64222996D02*
X31906957Y-64270615D01*
X31906957Y-64270615D02*
X31859338Y-64365853D01*
X31859338Y-64365853D02*
X31859338Y-64461091D01*
X31859338Y-64461091D02*
X32335528Y-64556329D01*
X31430766Y-64889663D02*
X31430766Y-64222996D01*
X31430766Y-64413472D02*
X31383147Y-64318234D01*
X31383147Y-64318234D02*
X31335528Y-64270615D01*
X31335528Y-64270615D02*
X31240290Y-64222996D01*
X31240290Y-64222996D02*
X31145052Y-64222996D01*
X60049819Y-66404424D02*
X60097438Y-66452044D01*
X60097438Y-66452044D02*
X60240295Y-66499663D01*
X60240295Y-66499663D02*
X60335533Y-66499663D01*
X60335533Y-66499663D02*
X60478390Y-66452044D01*
X60478390Y-66452044D02*
X60573628Y-66356805D01*
X60573628Y-66356805D02*
X60621247Y-66261567D01*
X60621247Y-66261567D02*
X60668866Y-66071091D01*
X60668866Y-66071091D02*
X60668866Y-65928234D01*
X60668866Y-65928234D02*
X60621247Y-65737758D01*
X60621247Y-65737758D02*
X60573628Y-65642520D01*
X60573628Y-65642520D02*
X60478390Y-65547282D01*
X60478390Y-65547282D02*
X60335533Y-65499663D01*
X60335533Y-65499663D02*
X60240295Y-65499663D01*
X60240295Y-65499663D02*
X60097438Y-65547282D01*
X60097438Y-65547282D02*
X60049819Y-65594901D01*
X59192676Y-66499663D02*
X59192676Y-65975853D01*
X59192676Y-65975853D02*
X59240295Y-65880615D01*
X59240295Y-65880615D02*
X59335533Y-65832996D01*
X59335533Y-65832996D02*
X59526009Y-65832996D01*
X59526009Y-65832996D02*
X59621247Y-65880615D01*
X59192676Y-66452044D02*
X59287914Y-66499663D01*
X59287914Y-66499663D02*
X59526009Y-66499663D01*
X59526009Y-66499663D02*
X59621247Y-66452044D01*
X59621247Y-66452044D02*
X59668866Y-66356805D01*
X59668866Y-66356805D02*
X59668866Y-66261567D01*
X59668866Y-66261567D02*
X59621247Y-66166329D01*
X59621247Y-66166329D02*
X59526009Y-66118710D01*
X59526009Y-66118710D02*
X59287914Y-66118710D01*
X59287914Y-66118710D02*
X59192676Y-66071091D01*
X58716485Y-66499663D02*
X58716485Y-65832996D01*
X58716485Y-66023472D02*
X58668866Y-65928234D01*
X58668866Y-65928234D02*
X58621247Y-65880615D01*
X58621247Y-65880615D02*
X58526009Y-65832996D01*
X58526009Y-65832996D02*
X58430771Y-65832996D01*
X57954580Y-66499663D02*
X58049818Y-66452044D01*
X58049818Y-66452044D02*
X58097437Y-66404424D01*
X58097437Y-66404424D02*
X58145056Y-66309186D01*
X58145056Y-66309186D02*
X58145056Y-66023472D01*
X58145056Y-66023472D02*
X58097437Y-65928234D01*
X58097437Y-65928234D02*
X58049818Y-65880615D01*
X58049818Y-65880615D02*
X57954580Y-65832996D01*
X57954580Y-65832996D02*
X57811723Y-65832996D01*
X57811723Y-65832996D02*
X57716485Y-65880615D01*
X57716485Y-65880615D02*
X57668866Y-65928234D01*
X57668866Y-65928234D02*
X57621247Y-66023472D01*
X57621247Y-66023472D02*
X57621247Y-66309186D01*
X57621247Y-66309186D02*
X57668866Y-66404424D01*
X57668866Y-66404424D02*
X57716485Y-66452044D01*
X57716485Y-66452044D02*
X57811723Y-66499663D01*
X57811723Y-66499663D02*
X57954580Y-66499663D01*
X57049818Y-66499663D02*
X57145056Y-66452044D01*
X57145056Y-66452044D02*
X57192675Y-66356805D01*
X57192675Y-66356805D02*
X57192675Y-65499663D01*
X56668865Y-66499663D02*
X56668865Y-65832996D01*
X56668865Y-65499663D02*
X56716484Y-65547282D01*
X56716484Y-65547282D02*
X56668865Y-65594901D01*
X56668865Y-65594901D02*
X56621246Y-65547282D01*
X56621246Y-65547282D02*
X56668865Y-65499663D01*
X56668865Y-65499663D02*
X56668865Y-65594901D01*
X56192675Y-65832996D02*
X56192675Y-66499663D01*
X56192675Y-65928234D02*
X56145056Y-65880615D01*
X56145056Y-65880615D02*
X56049818Y-65832996D01*
X56049818Y-65832996D02*
X55906961Y-65832996D01*
X55906961Y-65832996D02*
X55811723Y-65880615D01*
X55811723Y-65880615D02*
X55764104Y-65975853D01*
X55764104Y-65975853D02*
X55764104Y-66499663D01*
X54906961Y-66452044D02*
X55002199Y-66499663D01*
X55002199Y-66499663D02*
X55192675Y-66499663D01*
X55192675Y-66499663D02*
X55287913Y-66452044D01*
X55287913Y-66452044D02*
X55335532Y-66356805D01*
X55335532Y-66356805D02*
X55335532Y-65975853D01*
X55335532Y-65975853D02*
X55287913Y-65880615D01*
X55287913Y-65880615D02*
X55192675Y-65832996D01*
X55192675Y-65832996D02*
X55002199Y-65832996D01*
X55002199Y-65832996D02*
X54906961Y-65880615D01*
X54906961Y-65880615D02*
X54859342Y-65975853D01*
X54859342Y-65975853D02*
X54859342Y-66071091D01*
X54859342Y-66071091D02*
X55335532Y-66166329D01*
X53097437Y-66404424D02*
X53145056Y-66452044D01*
X53145056Y-66452044D02*
X53287913Y-66499663D01*
X53287913Y-66499663D02*
X53383151Y-66499663D01*
X53383151Y-66499663D02*
X53526008Y-66452044D01*
X53526008Y-66452044D02*
X53621246Y-66356805D01*
X53621246Y-66356805D02*
X53668865Y-66261567D01*
X53668865Y-66261567D02*
X53716484Y-66071091D01*
X53716484Y-66071091D02*
X53716484Y-65928234D01*
X53716484Y-65928234D02*
X53668865Y-65737758D01*
X53668865Y-65737758D02*
X53621246Y-65642520D01*
X53621246Y-65642520D02*
X53526008Y-65547282D01*
X53526008Y-65547282D02*
X53383151Y-65499663D01*
X53383151Y-65499663D02*
X53287913Y-65499663D01*
X53287913Y-65499663D02*
X53145056Y-65547282D01*
X53145056Y-65547282D02*
X53097437Y-65594901D01*
X52668865Y-66499663D02*
X52668865Y-65499663D01*
X52240294Y-66499663D02*
X52240294Y-65975853D01*
X52240294Y-65975853D02*
X52287913Y-65880615D01*
X52287913Y-65880615D02*
X52383151Y-65832996D01*
X52383151Y-65832996D02*
X52526008Y-65832996D01*
X52526008Y-65832996D02*
X52621246Y-65880615D01*
X52621246Y-65880615D02*
X52668865Y-65928234D01*
X51335532Y-66499663D02*
X51335532Y-65975853D01*
X51335532Y-65975853D02*
X51383151Y-65880615D01*
X51383151Y-65880615D02*
X51478389Y-65832996D01*
X51478389Y-65832996D02*
X51668865Y-65832996D01*
X51668865Y-65832996D02*
X51764103Y-65880615D01*
X51335532Y-66452044D02*
X51430770Y-66499663D01*
X51430770Y-66499663D02*
X51668865Y-66499663D01*
X51668865Y-66499663D02*
X51764103Y-66452044D01*
X51764103Y-66452044D02*
X51811722Y-66356805D01*
X51811722Y-66356805D02*
X51811722Y-66261567D01*
X51811722Y-66261567D02*
X51764103Y-66166329D01*
X51764103Y-66166329D02*
X51668865Y-66118710D01*
X51668865Y-66118710D02*
X51430770Y-66118710D01*
X51430770Y-66118710D02*
X51335532Y-66071091D01*
X50859341Y-65832996D02*
X50859341Y-66499663D01*
X50859341Y-65928234D02*
X50811722Y-65880615D01*
X50811722Y-65880615D02*
X50716484Y-65832996D01*
X50716484Y-65832996D02*
X50573627Y-65832996D01*
X50573627Y-65832996D02*
X50478389Y-65880615D01*
X50478389Y-65880615D02*
X50430770Y-65975853D01*
X50430770Y-65975853D02*
X50430770Y-66499663D01*
X49526008Y-65832996D02*
X49526008Y-66642520D01*
X49526008Y-66642520D02*
X49573627Y-66737758D01*
X49573627Y-66737758D02*
X49621246Y-66785377D01*
X49621246Y-66785377D02*
X49716484Y-66832996D01*
X49716484Y-66832996D02*
X49859341Y-66832996D01*
X49859341Y-66832996D02*
X49954579Y-66785377D01*
X49526008Y-66452044D02*
X49621246Y-66499663D01*
X49621246Y-66499663D02*
X49811722Y-66499663D01*
X49811722Y-66499663D02*
X49906960Y-66452044D01*
X49906960Y-66452044D02*
X49954579Y-66404424D01*
X49954579Y-66404424D02*
X50002198Y-66309186D01*
X50002198Y-66309186D02*
X50002198Y-66023472D01*
X50002198Y-66023472D02*
X49954579Y-65928234D01*
X49954579Y-65928234D02*
X49906960Y-65880615D01*
X49906960Y-65880615D02*
X49811722Y-65832996D01*
X49811722Y-65832996D02*
X49621246Y-65832996D01*
X49621246Y-65832996D02*
X49526008Y-65880615D01*
X49002198Y-66452044D02*
X49002198Y-66499663D01*
X49002198Y-66499663D02*
X49049817Y-66594901D01*
X49049817Y-66594901D02*
X49097436Y-66642520D01*
X47811722Y-65975853D02*
X47478389Y-65975853D01*
X47335532Y-66499663D02*
X47811722Y-66499663D01*
X47811722Y-66499663D02*
X47811722Y-65499663D01*
X47811722Y-65499663D02*
X47335532Y-65499663D01*
X47049817Y-65832996D02*
X46668865Y-65832996D01*
X46906960Y-65499663D02*
X46906960Y-66356805D01*
X46906960Y-66356805D02*
X46859341Y-66452044D01*
X46859341Y-66452044D02*
X46764103Y-66499663D01*
X46764103Y-66499663D02*
X46668865Y-66499663D01*
X46335531Y-66499663D02*
X46335531Y-65499663D01*
X45906960Y-66499663D02*
X45906960Y-65975853D01*
X45906960Y-65975853D02*
X45954579Y-65880615D01*
X45954579Y-65880615D02*
X46049817Y-65832996D01*
X46049817Y-65832996D02*
X46192674Y-65832996D01*
X46192674Y-65832996D02*
X46287912Y-65880615D01*
X46287912Y-65880615D02*
X46335531Y-65928234D01*
X45002198Y-66499663D02*
X45002198Y-65975853D01*
X45002198Y-65975853D02*
X45049817Y-65880615D01*
X45049817Y-65880615D02*
X45145055Y-65832996D01*
X45145055Y-65832996D02*
X45335531Y-65832996D01*
X45335531Y-65832996D02*
X45430769Y-65880615D01*
X45002198Y-66452044D02*
X45097436Y-66499663D01*
X45097436Y-66499663D02*
X45335531Y-66499663D01*
X45335531Y-66499663D02*
X45430769Y-66452044D01*
X45430769Y-66452044D02*
X45478388Y-66356805D01*
X45478388Y-66356805D02*
X45478388Y-66261567D01*
X45478388Y-66261567D02*
X45430769Y-66166329D01*
X45430769Y-66166329D02*
X45335531Y-66118710D01*
X45335531Y-66118710D02*
X45097436Y-66118710D01*
X45097436Y-66118710D02*
X45002198Y-66071091D01*
X44526007Y-65832996D02*
X44526007Y-66499663D01*
X44526007Y-65928234D02*
X44478388Y-65880615D01*
X44478388Y-65880615D02*
X44383150Y-65832996D01*
X44383150Y-65832996D02*
X44240293Y-65832996D01*
X44240293Y-65832996D02*
X44145055Y-65880615D01*
X44145055Y-65880615D02*
X44097436Y-65975853D01*
X44097436Y-65975853D02*
X44097436Y-66499663D01*
X42287912Y-66404424D02*
X42335531Y-66452044D01*
X42335531Y-66452044D02*
X42478388Y-66499663D01*
X42478388Y-66499663D02*
X42573626Y-66499663D01*
X42573626Y-66499663D02*
X42716483Y-66452044D01*
X42716483Y-66452044D02*
X42811721Y-66356805D01*
X42811721Y-66356805D02*
X42859340Y-66261567D01*
X42859340Y-66261567D02*
X42906959Y-66071091D01*
X42906959Y-66071091D02*
X42906959Y-65928234D01*
X42906959Y-65928234D02*
X42859340Y-65737758D01*
X42859340Y-65737758D02*
X42811721Y-65642520D01*
X42811721Y-65642520D02*
X42716483Y-65547282D01*
X42716483Y-65547282D02*
X42573626Y-65499663D01*
X42573626Y-65499663D02*
X42478388Y-65499663D01*
X42478388Y-65499663D02*
X42335531Y-65547282D01*
X42335531Y-65547282D02*
X42287912Y-65594901D01*
X41859340Y-66499663D02*
X41859340Y-65499663D01*
X41430769Y-66499663D02*
X41430769Y-65975853D01*
X41430769Y-65975853D02*
X41478388Y-65880615D01*
X41478388Y-65880615D02*
X41573626Y-65832996D01*
X41573626Y-65832996D02*
X41716483Y-65832996D01*
X41716483Y-65832996D02*
X41811721Y-65880615D01*
X41811721Y-65880615D02*
X41859340Y-65928234D01*
X40526007Y-66499663D02*
X40526007Y-65975853D01*
X40526007Y-65975853D02*
X40573626Y-65880615D01*
X40573626Y-65880615D02*
X40668864Y-65832996D01*
X40668864Y-65832996D02*
X40859340Y-65832996D01*
X40859340Y-65832996D02*
X40954578Y-65880615D01*
X40526007Y-66452044D02*
X40621245Y-66499663D01*
X40621245Y-66499663D02*
X40859340Y-66499663D01*
X40859340Y-66499663D02*
X40954578Y-66452044D01*
X40954578Y-66452044D02*
X41002197Y-66356805D01*
X41002197Y-66356805D02*
X41002197Y-66261567D01*
X41002197Y-66261567D02*
X40954578Y-66166329D01*
X40954578Y-66166329D02*
X40859340Y-66118710D01*
X40859340Y-66118710D02*
X40621245Y-66118710D01*
X40621245Y-66118710D02*
X40526007Y-66071091D01*
X40049816Y-65832996D02*
X40049816Y-66499663D01*
X40049816Y-65928234D02*
X40002197Y-65880615D01*
X40002197Y-65880615D02*
X39906959Y-65832996D01*
X39906959Y-65832996D02*
X39764102Y-65832996D01*
X39764102Y-65832996D02*
X39668864Y-65880615D01*
X39668864Y-65880615D02*
X39621245Y-65975853D01*
X39621245Y-65975853D02*
X39621245Y-66499663D01*
X38716483Y-65832996D02*
X38716483Y-66642520D01*
X38716483Y-66642520D02*
X38764102Y-66737758D01*
X38764102Y-66737758D02*
X38811721Y-66785377D01*
X38811721Y-66785377D02*
X38906959Y-66832996D01*
X38906959Y-66832996D02*
X39049816Y-66832996D01*
X39049816Y-66832996D02*
X39145054Y-66785377D01*
X38716483Y-66452044D02*
X38811721Y-66499663D01*
X38811721Y-66499663D02*
X39002197Y-66499663D01*
X39002197Y-66499663D02*
X39097435Y-66452044D01*
X39097435Y-66452044D02*
X39145054Y-66404424D01*
X39145054Y-66404424D02*
X39192673Y-66309186D01*
X39192673Y-66309186D02*
X39192673Y-66023472D01*
X39192673Y-66023472D02*
X39145054Y-65928234D01*
X39145054Y-65928234D02*
X39097435Y-65880615D01*
X39097435Y-65880615D02*
X39002197Y-65832996D01*
X39002197Y-65832996D02*
X38811721Y-65832996D01*
X38811721Y-65832996D02*
X38716483Y-65880615D01*
X38192673Y-66452044D02*
X38192673Y-66499663D01*
X38192673Y-66499663D02*
X38240292Y-66594901D01*
X38240292Y-66594901D02*
X38287911Y-66642520D01*
X36716483Y-65499663D02*
X36716483Y-66213948D01*
X36716483Y-66213948D02*
X36764102Y-66356805D01*
X36764102Y-66356805D02*
X36859340Y-66452044D01*
X36859340Y-66452044D02*
X37002197Y-66499663D01*
X37002197Y-66499663D02*
X37097435Y-66499663D01*
X36240292Y-66499663D02*
X36240292Y-65832996D01*
X36240292Y-65499663D02*
X36287911Y-65547282D01*
X36287911Y-65547282D02*
X36240292Y-65594901D01*
X36240292Y-65594901D02*
X36192673Y-65547282D01*
X36192673Y-65547282D02*
X36240292Y-65499663D01*
X36240292Y-65499663D02*
X36240292Y-65594901D01*
X35764102Y-66499663D02*
X35764102Y-65499663D01*
X35335531Y-66499663D02*
X35335531Y-65975853D01*
X35335531Y-65975853D02*
X35383150Y-65880615D01*
X35383150Y-65880615D02*
X35478388Y-65832996D01*
X35478388Y-65832996D02*
X35621245Y-65832996D01*
X35621245Y-65832996D02*
X35716483Y-65880615D01*
X35716483Y-65880615D02*
X35764102Y-65928234D01*
X34716483Y-66499663D02*
X34811721Y-66452044D01*
X34811721Y-66452044D02*
X34859340Y-66404424D01*
X34859340Y-66404424D02*
X34906959Y-66309186D01*
X34906959Y-66309186D02*
X34906959Y-66023472D01*
X34906959Y-66023472D02*
X34859340Y-65928234D01*
X34859340Y-65928234D02*
X34811721Y-65880615D01*
X34811721Y-65880615D02*
X34716483Y-65832996D01*
X34716483Y-65832996D02*
X34573626Y-65832996D01*
X34573626Y-65832996D02*
X34478388Y-65880615D01*
X34478388Y-65880615D02*
X34430769Y-65928234D01*
X34430769Y-65928234D02*
X34383150Y-66023472D01*
X34383150Y-66023472D02*
X34383150Y-66309186D01*
X34383150Y-66309186D02*
X34430769Y-66404424D01*
X34430769Y-66404424D02*
X34478388Y-66452044D01*
X34478388Y-66452044D02*
X34573626Y-66499663D01*
X34573626Y-66499663D02*
X34716483Y-66499663D01*
X32621245Y-66404424D02*
X32668864Y-66452044D01*
X32668864Y-66452044D02*
X32811721Y-66499663D01*
X32811721Y-66499663D02*
X32906959Y-66499663D01*
X32906959Y-66499663D02*
X33049816Y-66452044D01*
X33049816Y-66452044D02*
X33145054Y-66356805D01*
X33145054Y-66356805D02*
X33192673Y-66261567D01*
X33192673Y-66261567D02*
X33240292Y-66071091D01*
X33240292Y-66071091D02*
X33240292Y-65928234D01*
X33240292Y-65928234D02*
X33192673Y-65737758D01*
X33192673Y-65737758D02*
X33145054Y-65642520D01*
X33145054Y-65642520D02*
X33049816Y-65547282D01*
X33049816Y-65547282D02*
X32906959Y-65499663D01*
X32906959Y-65499663D02*
X32811721Y-65499663D01*
X32811721Y-65499663D02*
X32668864Y-65547282D01*
X32668864Y-65547282D02*
X32621245Y-65594901D01*
X32192673Y-66499663D02*
X32192673Y-65499663D01*
X31764102Y-66499663D02*
X31764102Y-65975853D01*
X31764102Y-65975853D02*
X31811721Y-65880615D01*
X31811721Y-65880615D02*
X31906959Y-65832996D01*
X31906959Y-65832996D02*
X32049816Y-65832996D01*
X32049816Y-65832996D02*
X32145054Y-65880615D01*
X32145054Y-65880615D02*
X32192673Y-65928234D01*
X31145054Y-66499663D02*
X31240292Y-66452044D01*
X31240292Y-66452044D02*
X31287911Y-66404424D01*
X31287911Y-66404424D02*
X31335530Y-66309186D01*
X31335530Y-66309186D02*
X31335530Y-66023472D01*
X31335530Y-66023472D02*
X31287911Y-65928234D01*
X31287911Y-65928234D02*
X31240292Y-65880615D01*
X31240292Y-65880615D02*
X31145054Y-65832996D01*
X31145054Y-65832996D02*
X31002197Y-65832996D01*
X31002197Y-65832996D02*
X30906959Y-65880615D01*
X30906959Y-65880615D02*
X30859340Y-65928234D01*
X30859340Y-65928234D02*
X30811721Y-66023472D01*
X30811721Y-66023472D02*
X30811721Y-66309186D01*
X30811721Y-66309186D02*
X30859340Y-66404424D01*
X30859340Y-66404424D02*
X30906959Y-66452044D01*
X30906959Y-66452044D02*
X31002197Y-66499663D01*
X31002197Y-66499663D02*
X31145054Y-66499663D01*
X30383149Y-66499663D02*
X30383149Y-65832996D01*
X30383149Y-65499663D02*
X30430768Y-65547282D01*
X30430768Y-65547282D02*
X30383149Y-65594901D01*
X30383149Y-65594901D02*
X30335530Y-65547282D01*
X30335530Y-65547282D02*
X30383149Y-65499663D01*
X30383149Y-65499663D02*
X30383149Y-65594901D01*
X29859340Y-66452044D02*
X29859340Y-66499663D01*
X29859340Y-66499663D02*
X29906959Y-66594901D01*
X29906959Y-66594901D02*
X29954578Y-66642520D01*
X60621247Y-68109663D02*
X60621247Y-67109663D01*
X60621247Y-67109663D02*
X60049819Y-68109663D01*
X60049819Y-68109663D02*
X60049819Y-67109663D01*
X59145057Y-68109663D02*
X59145057Y-67585853D01*
X59145057Y-67585853D02*
X59192676Y-67490615D01*
X59192676Y-67490615D02*
X59287914Y-67442996D01*
X59287914Y-67442996D02*
X59478390Y-67442996D01*
X59478390Y-67442996D02*
X59573628Y-67490615D01*
X59145057Y-68062044D02*
X59240295Y-68109663D01*
X59240295Y-68109663D02*
X59478390Y-68109663D01*
X59478390Y-68109663D02*
X59573628Y-68062044D01*
X59573628Y-68062044D02*
X59621247Y-67966805D01*
X59621247Y-67966805D02*
X59621247Y-67871567D01*
X59621247Y-67871567D02*
X59573628Y-67776329D01*
X59573628Y-67776329D02*
X59478390Y-67728710D01*
X59478390Y-67728710D02*
X59240295Y-67728710D01*
X59240295Y-67728710D02*
X59145057Y-67681091D01*
X58811723Y-67442996D02*
X58430771Y-67442996D01*
X58668866Y-67109663D02*
X58668866Y-67966805D01*
X58668866Y-67966805D02*
X58621247Y-68062044D01*
X58621247Y-68062044D02*
X58526009Y-68109663D01*
X58526009Y-68109663D02*
X58430771Y-68109663D01*
X58097437Y-68109663D02*
X58097437Y-67109663D01*
X57668866Y-68109663D02*
X57668866Y-67585853D01*
X57668866Y-67585853D02*
X57716485Y-67490615D01*
X57716485Y-67490615D02*
X57811723Y-67442996D01*
X57811723Y-67442996D02*
X57954580Y-67442996D01*
X57954580Y-67442996D02*
X58049818Y-67490615D01*
X58049818Y-67490615D02*
X58097437Y-67538234D01*
X56764104Y-68109663D02*
X56764104Y-67585853D01*
X56764104Y-67585853D02*
X56811723Y-67490615D01*
X56811723Y-67490615D02*
X56906961Y-67442996D01*
X56906961Y-67442996D02*
X57097437Y-67442996D01*
X57097437Y-67442996D02*
X57192675Y-67490615D01*
X56764104Y-68062044D02*
X56859342Y-68109663D01*
X56859342Y-68109663D02*
X57097437Y-68109663D01*
X57097437Y-68109663D02*
X57192675Y-68062044D01*
X57192675Y-68062044D02*
X57240294Y-67966805D01*
X57240294Y-67966805D02*
X57240294Y-67871567D01*
X57240294Y-67871567D02*
X57192675Y-67776329D01*
X57192675Y-67776329D02*
X57097437Y-67728710D01*
X57097437Y-67728710D02*
X56859342Y-67728710D01*
X56859342Y-67728710D02*
X56764104Y-67681091D01*
X56287913Y-67442996D02*
X56287913Y-68109663D01*
X56287913Y-67538234D02*
X56240294Y-67490615D01*
X56240294Y-67490615D02*
X56145056Y-67442996D01*
X56145056Y-67442996D02*
X56002199Y-67442996D01*
X56002199Y-67442996D02*
X55906961Y-67490615D01*
X55906961Y-67490615D02*
X55859342Y-67585853D01*
X55859342Y-67585853D02*
X55859342Y-68109663D01*
X54049818Y-68014424D02*
X54097437Y-68062044D01*
X54097437Y-68062044D02*
X54240294Y-68109663D01*
X54240294Y-68109663D02*
X54335532Y-68109663D01*
X54335532Y-68109663D02*
X54478389Y-68062044D01*
X54478389Y-68062044D02*
X54573627Y-67966805D01*
X54573627Y-67966805D02*
X54621246Y-67871567D01*
X54621246Y-67871567D02*
X54668865Y-67681091D01*
X54668865Y-67681091D02*
X54668865Y-67538234D01*
X54668865Y-67538234D02*
X54621246Y-67347758D01*
X54621246Y-67347758D02*
X54573627Y-67252520D01*
X54573627Y-67252520D02*
X54478389Y-67157282D01*
X54478389Y-67157282D02*
X54335532Y-67109663D01*
X54335532Y-67109663D02*
X54240294Y-67109663D01*
X54240294Y-67109663D02*
X54097437Y-67157282D01*
X54097437Y-67157282D02*
X54049818Y-67204901D01*
X53478389Y-68109663D02*
X53573627Y-68062044D01*
X53573627Y-68062044D02*
X53621246Y-68014424D01*
X53621246Y-68014424D02*
X53668865Y-67919186D01*
X53668865Y-67919186D02*
X53668865Y-67633472D01*
X53668865Y-67633472D02*
X53621246Y-67538234D01*
X53621246Y-67538234D02*
X53573627Y-67490615D01*
X53573627Y-67490615D02*
X53478389Y-67442996D01*
X53478389Y-67442996D02*
X53335532Y-67442996D01*
X53335532Y-67442996D02*
X53240294Y-67490615D01*
X53240294Y-67490615D02*
X53192675Y-67538234D01*
X53192675Y-67538234D02*
X53145056Y-67633472D01*
X53145056Y-67633472D02*
X53145056Y-67919186D01*
X53145056Y-67919186D02*
X53192675Y-68014424D01*
X53192675Y-68014424D02*
X53240294Y-68062044D01*
X53240294Y-68062044D02*
X53335532Y-68109663D01*
X53335532Y-68109663D02*
X53478389Y-68109663D01*
X52573627Y-68109663D02*
X52668865Y-68062044D01*
X52668865Y-68062044D02*
X52716484Y-67966805D01*
X52716484Y-67966805D02*
X52716484Y-67109663D01*
X51764103Y-67442996D02*
X51764103Y-68109663D01*
X52192674Y-67442996D02*
X52192674Y-67966805D01*
X52192674Y-67966805D02*
X52145055Y-68062044D01*
X52145055Y-68062044D02*
X52049817Y-68109663D01*
X52049817Y-68109663D02*
X51906960Y-68109663D01*
X51906960Y-68109663D02*
X51811722Y-68062044D01*
X51811722Y-68062044D02*
X51764103Y-68014424D01*
X51287912Y-67442996D02*
X51287912Y-68109663D01*
X51287912Y-67538234D02*
X51240293Y-67490615D01*
X51240293Y-67490615D02*
X51145055Y-67442996D01*
X51145055Y-67442996D02*
X51002198Y-67442996D01*
X51002198Y-67442996D02*
X50906960Y-67490615D01*
X50906960Y-67490615D02*
X50859341Y-67585853D01*
X50859341Y-67585853D02*
X50859341Y-68109663D01*
X49954579Y-67442996D02*
X49954579Y-68252520D01*
X49954579Y-68252520D02*
X50002198Y-68347758D01*
X50002198Y-68347758D02*
X50049817Y-68395377D01*
X50049817Y-68395377D02*
X50145055Y-68442996D01*
X50145055Y-68442996D02*
X50287912Y-68442996D01*
X50287912Y-68442996D02*
X50383150Y-68395377D01*
X49954579Y-68062044D02*
X50049817Y-68109663D01*
X50049817Y-68109663D02*
X50240293Y-68109663D01*
X50240293Y-68109663D02*
X50335531Y-68062044D01*
X50335531Y-68062044D02*
X50383150Y-68014424D01*
X50383150Y-68014424D02*
X50430769Y-67919186D01*
X50430769Y-67919186D02*
X50430769Y-67633472D01*
X50430769Y-67633472D02*
X50383150Y-67538234D01*
X50383150Y-67538234D02*
X50335531Y-67490615D01*
X50335531Y-67490615D02*
X50240293Y-67442996D01*
X50240293Y-67442996D02*
X50049817Y-67442996D01*
X50049817Y-67442996D02*
X49954579Y-67490615D01*
X49049817Y-68109663D02*
X49049817Y-67585853D01*
X49049817Y-67585853D02*
X49097436Y-67490615D01*
X49097436Y-67490615D02*
X49192674Y-67442996D01*
X49192674Y-67442996D02*
X49383150Y-67442996D01*
X49383150Y-67442996D02*
X49478388Y-67490615D01*
X49049817Y-68062044D02*
X49145055Y-68109663D01*
X49145055Y-68109663D02*
X49383150Y-68109663D01*
X49383150Y-68109663D02*
X49478388Y-68062044D01*
X49478388Y-68062044D02*
X49526007Y-67966805D01*
X49526007Y-67966805D02*
X49526007Y-67871567D01*
X49526007Y-67871567D02*
X49478388Y-67776329D01*
X49478388Y-67776329D02*
X49383150Y-67728710D01*
X49383150Y-67728710D02*
X49145055Y-67728710D01*
X49145055Y-67728710D02*
X49049817Y-67681091D01*
X48526007Y-68062044D02*
X48526007Y-68109663D01*
X48526007Y-68109663D02*
X48573626Y-68204901D01*
X48573626Y-68204901D02*
X48621245Y-68252520D01*
X47335531Y-68109663D02*
X47335531Y-67109663D01*
X47335531Y-67585853D02*
X46764103Y-67585853D01*
X46764103Y-68109663D02*
X46764103Y-67109663D01*
X45906960Y-68062044D02*
X46002198Y-68109663D01*
X46002198Y-68109663D02*
X46192674Y-68109663D01*
X46192674Y-68109663D02*
X46287912Y-68062044D01*
X46287912Y-68062044D02*
X46335531Y-67966805D01*
X46335531Y-67966805D02*
X46335531Y-67585853D01*
X46335531Y-67585853D02*
X46287912Y-67490615D01*
X46287912Y-67490615D02*
X46192674Y-67442996D01*
X46192674Y-67442996D02*
X46002198Y-67442996D01*
X46002198Y-67442996D02*
X45906960Y-67490615D01*
X45906960Y-67490615D02*
X45859341Y-67585853D01*
X45859341Y-67585853D02*
X45859341Y-67681091D01*
X45859341Y-67681091D02*
X46335531Y-67776329D01*
X45430769Y-67442996D02*
X45430769Y-68109663D01*
X45430769Y-67538234D02*
X45383150Y-67490615D01*
X45383150Y-67490615D02*
X45287912Y-67442996D01*
X45287912Y-67442996D02*
X45145055Y-67442996D01*
X45145055Y-67442996D02*
X45049817Y-67490615D01*
X45049817Y-67490615D02*
X45002198Y-67585853D01*
X45002198Y-67585853D02*
X45002198Y-68109663D01*
X44526007Y-68109663D02*
X44526007Y-67442996D01*
X44526007Y-67633472D02*
X44478388Y-67538234D01*
X44478388Y-67538234D02*
X44430769Y-67490615D01*
X44430769Y-67490615D02*
X44335531Y-67442996D01*
X44335531Y-67442996D02*
X44240293Y-67442996D01*
X44002197Y-67442996D02*
X43764102Y-68109663D01*
X43526007Y-67442996D02*
X43764102Y-68109663D01*
X43764102Y-68109663D02*
X43859340Y-68347758D01*
X43859340Y-68347758D02*
X43906959Y-68395377D01*
X43906959Y-68395377D02*
X44002197Y-68442996D01*
X41906959Y-68109663D02*
X42383149Y-68109663D01*
X42383149Y-68109663D02*
X42383149Y-67109663D01*
X41573625Y-68109663D02*
X41573625Y-67442996D01*
X41573625Y-67109663D02*
X41621244Y-67157282D01*
X41621244Y-67157282D02*
X41573625Y-67204901D01*
X41573625Y-67204901D02*
X41526006Y-67157282D01*
X41526006Y-67157282D02*
X41573625Y-67109663D01*
X41573625Y-67109663D02*
X41573625Y-67204901D01*
X41097435Y-67442996D02*
X41097435Y-68109663D01*
X41097435Y-67538234D02*
X41049816Y-67490615D01*
X41049816Y-67490615D02*
X40954578Y-67442996D01*
X40954578Y-67442996D02*
X40811721Y-67442996D01*
X40811721Y-67442996D02*
X40716483Y-67490615D01*
X40716483Y-67490615D02*
X40668864Y-67585853D01*
X40668864Y-67585853D02*
X40668864Y-68109663D01*
X40145054Y-68062044D02*
X40145054Y-68109663D01*
X40145054Y-68109663D02*
X40192673Y-68204901D01*
X40192673Y-68204901D02*
X40240292Y-68252520D01*
X38621245Y-67585853D02*
X38478388Y-67633472D01*
X38478388Y-67633472D02*
X38430769Y-67681091D01*
X38430769Y-67681091D02*
X38383150Y-67776329D01*
X38383150Y-67776329D02*
X38383150Y-67919186D01*
X38383150Y-67919186D02*
X38430769Y-68014424D01*
X38430769Y-68014424D02*
X38478388Y-68062044D01*
X38478388Y-68062044D02*
X38573626Y-68109663D01*
X38573626Y-68109663D02*
X38954578Y-68109663D01*
X38954578Y-68109663D02*
X38954578Y-67109663D01*
X38954578Y-67109663D02*
X38621245Y-67109663D01*
X38621245Y-67109663D02*
X38526007Y-67157282D01*
X38526007Y-67157282D02*
X38478388Y-67204901D01*
X38478388Y-67204901D02*
X38430769Y-67300139D01*
X38430769Y-67300139D02*
X38430769Y-67395377D01*
X38430769Y-67395377D02*
X38478388Y-67490615D01*
X38478388Y-67490615D02*
X38526007Y-67538234D01*
X38526007Y-67538234D02*
X38621245Y-67585853D01*
X38621245Y-67585853D02*
X38954578Y-67585853D01*
X37573626Y-68062044D02*
X37668864Y-68109663D01*
X37668864Y-68109663D02*
X37859340Y-68109663D01*
X37859340Y-68109663D02*
X37954578Y-68062044D01*
X37954578Y-68062044D02*
X38002197Y-67966805D01*
X38002197Y-67966805D02*
X38002197Y-67585853D01*
X38002197Y-67585853D02*
X37954578Y-67490615D01*
X37954578Y-67490615D02*
X37859340Y-67442996D01*
X37859340Y-67442996D02*
X37668864Y-67442996D01*
X37668864Y-67442996D02*
X37573626Y-67490615D01*
X37573626Y-67490615D02*
X37526007Y-67585853D01*
X37526007Y-67585853D02*
X37526007Y-67681091D01*
X37526007Y-67681091D02*
X38002197Y-67776329D01*
X37097435Y-67442996D02*
X37097435Y-68109663D01*
X37097435Y-67538234D02*
X37049816Y-67490615D01*
X37049816Y-67490615D02*
X36954578Y-67442996D01*
X36954578Y-67442996D02*
X36811721Y-67442996D01*
X36811721Y-67442996D02*
X36716483Y-67490615D01*
X36716483Y-67490615D02*
X36668864Y-67585853D01*
X36668864Y-67585853D02*
X36668864Y-68109663D01*
X35478387Y-68062044D02*
X35335530Y-68109663D01*
X35335530Y-68109663D02*
X35097435Y-68109663D01*
X35097435Y-68109663D02*
X35002197Y-68062044D01*
X35002197Y-68062044D02*
X34954578Y-68014424D01*
X34954578Y-68014424D02*
X34906959Y-67919186D01*
X34906959Y-67919186D02*
X34906959Y-67823948D01*
X34906959Y-67823948D02*
X34954578Y-67728710D01*
X34954578Y-67728710D02*
X35002197Y-67681091D01*
X35002197Y-67681091D02*
X35097435Y-67633472D01*
X35097435Y-67633472D02*
X35287911Y-67585853D01*
X35287911Y-67585853D02*
X35383149Y-67538234D01*
X35383149Y-67538234D02*
X35430768Y-67490615D01*
X35430768Y-67490615D02*
X35478387Y-67395377D01*
X35478387Y-67395377D02*
X35478387Y-67300139D01*
X35478387Y-67300139D02*
X35430768Y-67204901D01*
X35430768Y-67204901D02*
X35383149Y-67157282D01*
X35383149Y-67157282D02*
X35287911Y-67109663D01*
X35287911Y-67109663D02*
X35049816Y-67109663D01*
X35049816Y-67109663D02*
X34906959Y-67157282D01*
X34049816Y-68109663D02*
X34049816Y-67585853D01*
X34049816Y-67585853D02*
X34097435Y-67490615D01*
X34097435Y-67490615D02*
X34192673Y-67442996D01*
X34192673Y-67442996D02*
X34383149Y-67442996D01*
X34383149Y-67442996D02*
X34478387Y-67490615D01*
X34049816Y-68062044D02*
X34145054Y-68109663D01*
X34145054Y-68109663D02*
X34383149Y-68109663D01*
X34383149Y-68109663D02*
X34478387Y-68062044D01*
X34478387Y-68062044D02*
X34526006Y-67966805D01*
X34526006Y-67966805D02*
X34526006Y-67871567D01*
X34526006Y-67871567D02*
X34478387Y-67776329D01*
X34478387Y-67776329D02*
X34383149Y-67728710D01*
X34383149Y-67728710D02*
X34145054Y-67728710D01*
X34145054Y-67728710D02*
X34049816Y-67681091D01*
X33145054Y-68109663D02*
X33145054Y-67585853D01*
X33145054Y-67585853D02*
X33192673Y-67490615D01*
X33192673Y-67490615D02*
X33287911Y-67442996D01*
X33287911Y-67442996D02*
X33478387Y-67442996D01*
X33478387Y-67442996D02*
X33573625Y-67490615D01*
X33145054Y-68062044D02*
X33240292Y-68109663D01*
X33240292Y-68109663D02*
X33478387Y-68109663D01*
X33478387Y-68109663D02*
X33573625Y-68062044D01*
X33573625Y-68062044D02*
X33621244Y-67966805D01*
X33621244Y-67966805D02*
X33621244Y-67871567D01*
X33621244Y-67871567D02*
X33573625Y-67776329D01*
X33573625Y-67776329D02*
X33478387Y-67728710D01*
X33478387Y-67728710D02*
X33240292Y-67728710D01*
X33240292Y-67728710D02*
X33145054Y-67681091D01*
X32668863Y-68109663D02*
X32668863Y-67442996D01*
X32668863Y-67633472D02*
X32621244Y-67538234D01*
X32621244Y-67538234D02*
X32573625Y-67490615D01*
X32573625Y-67490615D02*
X32478387Y-67442996D01*
X32478387Y-67442996D02*
X32383149Y-67442996D01*
X32145053Y-67442996D02*
X31906958Y-68109663D01*
X31906958Y-68109663D02*
X31668863Y-67442996D01*
X30859339Y-68109663D02*
X30859339Y-67585853D01*
X30859339Y-67585853D02*
X30906958Y-67490615D01*
X30906958Y-67490615D02*
X31002196Y-67442996D01*
X31002196Y-67442996D02*
X31192672Y-67442996D01*
X31192672Y-67442996D02*
X31287910Y-67490615D01*
X30859339Y-68062044D02*
X30954577Y-68109663D01*
X30954577Y-68109663D02*
X31192672Y-68109663D01*
X31192672Y-68109663D02*
X31287910Y-68062044D01*
X31287910Y-68062044D02*
X31335529Y-67966805D01*
X31335529Y-67966805D02*
X31335529Y-67871567D01*
X31335529Y-67871567D02*
X31287910Y-67776329D01*
X31287910Y-67776329D02*
X31192672Y-67728710D01*
X31192672Y-67728710D02*
X30954577Y-67728710D01*
X30954577Y-67728710D02*
X30859339Y-67681091D01*
X30335529Y-68062044D02*
X30335529Y-68109663D01*
X30335529Y-68109663D02*
X30383148Y-68204901D01*
X30383148Y-68204901D02*
X30430767Y-68252520D01*
X60335533Y-68719663D02*
X60335533Y-69433948D01*
X60335533Y-69433948D02*
X60383152Y-69576805D01*
X60383152Y-69576805D02*
X60478390Y-69672044D01*
X60478390Y-69672044D02*
X60621247Y-69719663D01*
X60621247Y-69719663D02*
X60716485Y-69719663D01*
X59430771Y-69719663D02*
X59430771Y-69195853D01*
X59430771Y-69195853D02*
X59478390Y-69100615D01*
X59478390Y-69100615D02*
X59573628Y-69052996D01*
X59573628Y-69052996D02*
X59764104Y-69052996D01*
X59764104Y-69052996D02*
X59859342Y-69100615D01*
X59430771Y-69672044D02*
X59526009Y-69719663D01*
X59526009Y-69719663D02*
X59764104Y-69719663D01*
X59764104Y-69719663D02*
X59859342Y-69672044D01*
X59859342Y-69672044D02*
X59906961Y-69576805D01*
X59906961Y-69576805D02*
X59906961Y-69481567D01*
X59906961Y-69481567D02*
X59859342Y-69386329D01*
X59859342Y-69386329D02*
X59764104Y-69338710D01*
X59764104Y-69338710D02*
X59526009Y-69338710D01*
X59526009Y-69338710D02*
X59430771Y-69291091D01*
X59002199Y-69672044D02*
X58906961Y-69719663D01*
X58906961Y-69719663D02*
X58716485Y-69719663D01*
X58716485Y-69719663D02*
X58621247Y-69672044D01*
X58621247Y-69672044D02*
X58573628Y-69576805D01*
X58573628Y-69576805D02*
X58573628Y-69529186D01*
X58573628Y-69529186D02*
X58621247Y-69433948D01*
X58621247Y-69433948D02*
X58716485Y-69386329D01*
X58716485Y-69386329D02*
X58859342Y-69386329D01*
X58859342Y-69386329D02*
X58954580Y-69338710D01*
X58954580Y-69338710D02*
X59002199Y-69243472D01*
X59002199Y-69243472D02*
X59002199Y-69195853D01*
X59002199Y-69195853D02*
X58954580Y-69100615D01*
X58954580Y-69100615D02*
X58859342Y-69052996D01*
X58859342Y-69052996D02*
X58716485Y-69052996D01*
X58716485Y-69052996D02*
X58621247Y-69100615D01*
X58145056Y-69719663D02*
X58145056Y-68719663D01*
X57716485Y-69719663D02*
X57716485Y-69195853D01*
X57716485Y-69195853D02*
X57764104Y-69100615D01*
X57764104Y-69100615D02*
X57859342Y-69052996D01*
X57859342Y-69052996D02*
X58002199Y-69052996D01*
X58002199Y-69052996D02*
X58097437Y-69100615D01*
X58097437Y-69100615D02*
X58145056Y-69148234D01*
X56811723Y-69719663D02*
X56811723Y-69195853D01*
X56811723Y-69195853D02*
X56859342Y-69100615D01*
X56859342Y-69100615D02*
X56954580Y-69052996D01*
X56954580Y-69052996D02*
X57145056Y-69052996D01*
X57145056Y-69052996D02*
X57240294Y-69100615D01*
X56811723Y-69672044D02*
X56906961Y-69719663D01*
X56906961Y-69719663D02*
X57145056Y-69719663D01*
X57145056Y-69719663D02*
X57240294Y-69672044D01*
X57240294Y-69672044D02*
X57287913Y-69576805D01*
X57287913Y-69576805D02*
X57287913Y-69481567D01*
X57287913Y-69481567D02*
X57240294Y-69386329D01*
X57240294Y-69386329D02*
X57145056Y-69338710D01*
X57145056Y-69338710D02*
X56906961Y-69338710D01*
X56906961Y-69338710D02*
X56811723Y-69291091D01*
X56335532Y-69052996D02*
X56335532Y-69719663D01*
X56335532Y-69148234D02*
X56287913Y-69100615D01*
X56287913Y-69100615D02*
X56192675Y-69052996D01*
X56192675Y-69052996D02*
X56049818Y-69052996D01*
X56049818Y-69052996D02*
X55954580Y-69100615D01*
X55954580Y-69100615D02*
X55906961Y-69195853D01*
X55906961Y-69195853D02*
X55906961Y-69719663D01*
X54811722Y-68719663D02*
X54478389Y-69719663D01*
X54478389Y-69719663D02*
X54145056Y-68719663D01*
X53811722Y-69719663D02*
X53811722Y-69052996D01*
X53811722Y-68719663D02*
X53859341Y-68767282D01*
X53859341Y-68767282D02*
X53811722Y-68814901D01*
X53811722Y-68814901D02*
X53764103Y-68767282D01*
X53764103Y-68767282D02*
X53811722Y-68719663D01*
X53811722Y-68719663D02*
X53811722Y-68814901D01*
X53335532Y-69719663D02*
X53335532Y-69052996D01*
X53335532Y-69243472D02*
X53287913Y-69148234D01*
X53287913Y-69148234D02*
X53240294Y-69100615D01*
X53240294Y-69100615D02*
X53145056Y-69052996D01*
X53145056Y-69052996D02*
X53049818Y-69052996D01*
X52287913Y-69719663D02*
X52287913Y-68719663D01*
X52287913Y-69672044D02*
X52383151Y-69719663D01*
X52383151Y-69719663D02*
X52573627Y-69719663D01*
X52573627Y-69719663D02*
X52668865Y-69672044D01*
X52668865Y-69672044D02*
X52716484Y-69624424D01*
X52716484Y-69624424D02*
X52764103Y-69529186D01*
X52764103Y-69529186D02*
X52764103Y-69243472D01*
X52764103Y-69243472D02*
X52716484Y-69148234D01*
X52716484Y-69148234D02*
X52668865Y-69100615D01*
X52668865Y-69100615D02*
X52573627Y-69052996D01*
X52573627Y-69052996D02*
X52383151Y-69052996D01*
X52383151Y-69052996D02*
X52287913Y-69100615D01*
X51811722Y-69719663D02*
X51811722Y-69052996D01*
X51811722Y-68719663D02*
X51859341Y-68767282D01*
X51859341Y-68767282D02*
X51811722Y-68814901D01*
X51811722Y-68814901D02*
X51764103Y-68767282D01*
X51764103Y-68767282D02*
X51811722Y-68719663D01*
X51811722Y-68719663D02*
X51811722Y-68814901D01*
X51287913Y-69672044D02*
X51287913Y-69719663D01*
X51287913Y-69719663D02*
X51335532Y-69814901D01*
X51335532Y-69814901D02*
X51383151Y-69862520D01*
X49811723Y-68719663D02*
X49811723Y-69433948D01*
X49811723Y-69433948D02*
X49859342Y-69576805D01*
X49859342Y-69576805D02*
X49954580Y-69672044D01*
X49954580Y-69672044D02*
X50097437Y-69719663D01*
X50097437Y-69719663D02*
X50192675Y-69719663D01*
X48906961Y-69719663D02*
X48906961Y-69195853D01*
X48906961Y-69195853D02*
X48954580Y-69100615D01*
X48954580Y-69100615D02*
X49049818Y-69052996D01*
X49049818Y-69052996D02*
X49240294Y-69052996D01*
X49240294Y-69052996D02*
X49335532Y-69100615D01*
X48906961Y-69672044D02*
X49002199Y-69719663D01*
X49002199Y-69719663D02*
X49240294Y-69719663D01*
X49240294Y-69719663D02*
X49335532Y-69672044D01*
X49335532Y-69672044D02*
X49383151Y-69576805D01*
X49383151Y-69576805D02*
X49383151Y-69481567D01*
X49383151Y-69481567D02*
X49335532Y-69386329D01*
X49335532Y-69386329D02*
X49240294Y-69338710D01*
X49240294Y-69338710D02*
X49002199Y-69338710D01*
X49002199Y-69338710D02*
X48906961Y-69291091D01*
X48430770Y-69719663D02*
X48430770Y-68719663D01*
X48335532Y-69338710D02*
X48049818Y-69719663D01*
X48049818Y-69052996D02*
X48430770Y-69433948D01*
X47192675Y-69052996D02*
X47192675Y-69719663D01*
X47621246Y-69052996D02*
X47621246Y-69576805D01*
X47621246Y-69576805D02*
X47573627Y-69672044D01*
X47573627Y-69672044D02*
X47478389Y-69719663D01*
X47478389Y-69719663D02*
X47335532Y-69719663D01*
X47335532Y-69719663D02*
X47240294Y-69672044D01*
X47240294Y-69672044D02*
X47192675Y-69624424D01*
X46716484Y-69719663D02*
X46716484Y-68719663D01*
X46716484Y-69100615D02*
X46621246Y-69052996D01*
X46621246Y-69052996D02*
X46430770Y-69052996D01*
X46430770Y-69052996D02*
X46335532Y-69100615D01*
X46335532Y-69100615D02*
X46287913Y-69148234D01*
X46287913Y-69148234D02*
X46240294Y-69243472D01*
X46240294Y-69243472D02*
X46240294Y-69529186D01*
X46240294Y-69529186D02*
X46287913Y-69624424D01*
X46287913Y-69624424D02*
X46335532Y-69672044D01*
X46335532Y-69672044D02*
X46430770Y-69719663D01*
X46430770Y-69719663D02*
X46621246Y-69719663D01*
X46621246Y-69719663D02*
X46716484Y-69672044D01*
X45145055Y-68719663D02*
X44906960Y-69719663D01*
X44906960Y-69719663D02*
X44716484Y-69005377D01*
X44716484Y-69005377D02*
X44526008Y-69719663D01*
X44526008Y-69719663D02*
X44287913Y-68719663D01*
X43764103Y-69719663D02*
X43859341Y-69672044D01*
X43859341Y-69672044D02*
X43906960Y-69624424D01*
X43906960Y-69624424D02*
X43954579Y-69529186D01*
X43954579Y-69529186D02*
X43954579Y-69243472D01*
X43954579Y-69243472D02*
X43906960Y-69148234D01*
X43906960Y-69148234D02*
X43859341Y-69100615D01*
X43859341Y-69100615D02*
X43764103Y-69052996D01*
X43764103Y-69052996D02*
X43621246Y-69052996D01*
X43621246Y-69052996D02*
X43526008Y-69100615D01*
X43526008Y-69100615D02*
X43478389Y-69148234D01*
X43478389Y-69148234D02*
X43430770Y-69243472D01*
X43430770Y-69243472D02*
X43430770Y-69529186D01*
X43430770Y-69529186D02*
X43478389Y-69624424D01*
X43478389Y-69624424D02*
X43526008Y-69672044D01*
X43526008Y-69672044D02*
X43621246Y-69719663D01*
X43621246Y-69719663D02*
X43764103Y-69719663D01*
X43002198Y-69052996D02*
X43002198Y-69910139D01*
X43002198Y-69910139D02*
X43049817Y-70005377D01*
X43049817Y-70005377D02*
X43145055Y-70052996D01*
X43145055Y-70052996D02*
X43192674Y-70052996D01*
X43002198Y-68719663D02*
X43049817Y-68767282D01*
X43049817Y-68767282D02*
X43002198Y-68814901D01*
X43002198Y-68814901D02*
X42954579Y-68767282D01*
X42954579Y-68767282D02*
X43002198Y-68719663D01*
X43002198Y-68719663D02*
X43002198Y-68814901D01*
X42097437Y-69719663D02*
X42097437Y-68719663D01*
X42097437Y-69672044D02*
X42192675Y-69719663D01*
X42192675Y-69719663D02*
X42383151Y-69719663D01*
X42383151Y-69719663D02*
X42478389Y-69672044D01*
X42478389Y-69672044D02*
X42526008Y-69624424D01*
X42526008Y-69624424D02*
X42573627Y-69529186D01*
X42573627Y-69529186D02*
X42573627Y-69243472D01*
X42573627Y-69243472D02*
X42526008Y-69148234D01*
X42526008Y-69148234D02*
X42478389Y-69100615D01*
X42478389Y-69100615D02*
X42383151Y-69052996D01*
X42383151Y-69052996D02*
X42192675Y-69052996D01*
X42192675Y-69052996D02*
X42097437Y-69100615D01*
X41716484Y-69052996D02*
X41478389Y-69719663D01*
X41240294Y-69052996D02*
X41478389Y-69719663D01*
X41478389Y-69719663D02*
X41573627Y-69957758D01*
X41573627Y-69957758D02*
X41621246Y-70005377D01*
X41621246Y-70005377D02*
X41716484Y-70052996D01*
X40716484Y-69719663D02*
X40811722Y-69672044D01*
X40811722Y-69672044D02*
X40859341Y-69576805D01*
X40859341Y-69576805D02*
X40859341Y-68719663D01*
X39906960Y-69719663D02*
X39906960Y-69195853D01*
X39906960Y-69195853D02*
X39954579Y-69100615D01*
X39954579Y-69100615D02*
X40049817Y-69052996D01*
X40049817Y-69052996D02*
X40240293Y-69052996D01*
X40240293Y-69052996D02*
X40335531Y-69100615D01*
X39906960Y-69672044D02*
X40002198Y-69719663D01*
X40002198Y-69719663D02*
X40240293Y-69719663D01*
X40240293Y-69719663D02*
X40335531Y-69672044D01*
X40335531Y-69672044D02*
X40383150Y-69576805D01*
X40383150Y-69576805D02*
X40383150Y-69481567D01*
X40383150Y-69481567D02*
X40335531Y-69386329D01*
X40335531Y-69386329D02*
X40240293Y-69338710D01*
X40240293Y-69338710D02*
X40002198Y-69338710D01*
X40002198Y-69338710D02*
X39906960Y-69291091D01*
G36*
X64876370Y-67579150D02*
G01*
X64876370Y-68247995D01*
X67422817Y-68247995D01*
X69969264Y-68247995D01*
X69969264Y-67579150D01*
X69969264Y-66910305D01*
X70549467Y-66910305D01*
X71129670Y-66910305D01*
X71129670Y-68884607D01*
X71129670Y-70858909D01*
X70549467Y-70858909D01*
X69969264Y-70858909D01*
X69969264Y-70198122D01*
X69969264Y-69537335D01*
X67422817Y-69537335D01*
X64876370Y-69537335D01*
X64876370Y-70198122D01*
X64876370Y-70858909D01*
X64296167Y-70858909D01*
X63715964Y-70858909D01*
X63715964Y-68884607D01*
X63715964Y-66910305D01*
X64296167Y-66910305D01*
X64876370Y-66910305D01*
X64876370Y-67579150D01*
G37*
G36*
X66400824Y-54974805D02*
G01*
X66428643Y-54987072D01*
X66449405Y-55009360D01*
X66464381Y-55046111D01*
X66474843Y-55101766D01*
X66482061Y-55180764D01*
X66487307Y-55287548D01*
X66488888Y-55327980D01*
X66493894Y-55421080D01*
X66502495Y-55487887D01*
X66518186Y-55532764D01*
X66544461Y-55560074D01*
X66584815Y-55574180D01*
X66642743Y-55579443D01*
X66721738Y-55580228D01*
X66760468Y-55580157D01*
X66828856Y-55577978D01*
X66878133Y-55569485D01*
X66911687Y-55550363D01*
X66932907Y-55516295D01*
X66945182Y-55462966D01*
X66951899Y-55386058D01*
X66956448Y-55281257D01*
X66958735Y-55222470D01*
X66962245Y-55147102D01*
X66966353Y-55094895D01*
X66972175Y-55060198D01*
X66980828Y-55037358D01*
X66993430Y-55020721D01*
X67011096Y-55004636D01*
X67016757Y-54999977D01*
X67069504Y-54975232D01*
X67121886Y-54982139D01*
X67170386Y-55020353D01*
X67179869Y-55033448D01*
X67188511Y-55054109D01*
X67193797Y-55084484D01*
X67196232Y-55130196D01*
X67196318Y-55196867D01*
X67194561Y-55290121D01*
X67192246Y-55375468D01*
X67188914Y-55446437D01*
X67183830Y-55498044D01*
X67175987Y-55537087D01*
X67164378Y-55570361D01*
X67147999Y-55604665D01*
X67139740Y-55619538D01*
X67088795Y-55688012D01*
X67024293Y-55749215D01*
X66984788Y-55783210D01*
X66953109Y-55817059D01*
X66940514Y-55839848D01*
X66941753Y-55848901D01*
X66949964Y-55886763D01*
X66965016Y-55949543D01*
X66985927Y-56033334D01*
X67011719Y-56134229D01*
X67041408Y-56248320D01*
X67074016Y-56371701D01*
X67116496Y-56531448D01*
X67164005Y-56710840D01*
X67204063Y-56863254D01*
X67237226Y-56991012D01*
X67264049Y-57096440D01*
X67285088Y-57181859D01*
X67300899Y-57249592D01*
X67312038Y-57301964D01*
X67319059Y-57341298D01*
X67322519Y-57369916D01*
X67322974Y-57390142D01*
X67320978Y-57404299D01*
X67307288Y-57432813D01*
X67277274Y-57456305D01*
X67223387Y-57479862D01*
X67205626Y-57486155D01*
X67156771Y-57502468D01*
X67087355Y-57525001D01*
X67002039Y-57552298D01*
X66905483Y-57582902D01*
X66802350Y-57615357D01*
X66697299Y-57648209D01*
X66594992Y-57680001D01*
X66500090Y-57709277D01*
X66417253Y-57734581D01*
X66351143Y-57754458D01*
X66306420Y-57767452D01*
X66287746Y-57772107D01*
X66287450Y-57772050D01*
X66282944Y-57755638D01*
X66279744Y-57715680D01*
X66278528Y-57660367D01*
X66278528Y-57548627D01*
X66669150Y-57419244D01*
X66760553Y-57388593D01*
X66857919Y-57355032D01*
X66941171Y-57325342D01*
X67006169Y-57301036D01*
X67048775Y-57283625D01*
X67064850Y-57274624D01*
X67064293Y-57262462D01*
X67056684Y-57221451D01*
X67042022Y-57156117D01*
X67021358Y-57070374D01*
X66995747Y-56968139D01*
X66966240Y-56853328D01*
X66933891Y-56729855D01*
X66899752Y-56601638D01*
X66864876Y-56472592D01*
X66830316Y-56346633D01*
X66797125Y-56227677D01*
X66766356Y-56119639D01*
X66739061Y-56026436D01*
X66716293Y-55951983D01*
X66699105Y-55900196D01*
X66688550Y-55874992D01*
X66682493Y-55866652D01*
X66662060Y-55848780D01*
X66629058Y-55833267D01*
X66577082Y-55817537D01*
X66499727Y-55799012D01*
X66484318Y-55793935D01*
X66435562Y-55765612D01*
X66382226Y-55722254D01*
X66333989Y-55672349D01*
X66300532Y-55624380D01*
X66289301Y-55595932D01*
X66274364Y-55540054D01*
X66263327Y-55478118D01*
X66260196Y-55450973D01*
X66254125Y-55370409D01*
X66251026Y-55282636D01*
X66250970Y-55197473D01*
X66254033Y-55124740D01*
X66260289Y-55074254D01*
X66269720Y-55047519D01*
X66303506Y-55003803D01*
X66349423Y-54976857D01*
X66397535Y-54973941D01*
X66400824Y-54974805D01*
G37*
G36*
X64573284Y-57989561D02*
G01*
X64644846Y-57998946D01*
X64696738Y-58018400D01*
X64734604Y-58049916D01*
X64764087Y-58095488D01*
X64771800Y-58109761D01*
X64807093Y-58153062D01*
X64852359Y-58170526D01*
X64915958Y-58166036D01*
X64967800Y-58160179D01*
X65035803Y-58168962D01*
X65102138Y-58200841D01*
X65174834Y-58258691D01*
X65208763Y-58291499D01*
X65279757Y-58379358D01*
X65319402Y-58464705D01*
X65327498Y-58546966D01*
X65303841Y-58625566D01*
X65280042Y-58671588D01*
X65355950Y-58709379D01*
X65358042Y-58710425D01*
X65415639Y-58745625D01*
X65455462Y-58787560D01*
X65480369Y-58842446D01*
X65493218Y-58916502D01*
X65496865Y-59015944D01*
X65494461Y-59101564D01*
X65484654Y-59168545D01*
X65464278Y-59218140D01*
X65430178Y-59257841D01*
X65379195Y-59295140D01*
X65366484Y-59303633D01*
X65328752Y-59340104D01*
X65316556Y-59383347D01*
X65326402Y-59443158D01*
X65335508Y-59491231D01*
X65331606Y-59545749D01*
X65308499Y-59600344D01*
X65263548Y-59660796D01*
X65194113Y-59732885D01*
X65174692Y-59751533D01*
X65113730Y-59806885D01*
X65066727Y-59841733D01*
X65027837Y-59858938D01*
X64991211Y-59861361D01*
X64951004Y-59851863D01*
X64895588Y-59834627D01*
X64849296Y-59826469D01*
X64817787Y-59834733D01*
X64792672Y-59862105D01*
X64765560Y-59911273D01*
X64764350Y-59913644D01*
X64734796Y-59960886D01*
X64699016Y-59993077D01*
X64650582Y-60012899D01*
X64583065Y-60023031D01*
X64504408Y-60025672D01*
X64490035Y-60026155D01*
X64480220Y-60026181D01*
X64385438Y-60023039D01*
X64315874Y-60011839D01*
X64265490Y-59990069D01*
X64228249Y-59955219D01*
X64198113Y-59904779D01*
X64185285Y-59880385D01*
X64160483Y-59842572D01*
X64140959Y-59823957D01*
X64132954Y-59822670D01*
X64097649Y-59827593D01*
X64052107Y-59842153D01*
X64031917Y-59849680D01*
X63981978Y-59860933D01*
X63935960Y-59856277D01*
X63887994Y-59833284D01*
X63832204Y-59789529D01*
X63762721Y-59722585D01*
X63752484Y-59712159D01*
X63691641Y-59646328D01*
X63652674Y-59593642D01*
X63632730Y-59547898D01*
X63628959Y-59502894D01*
X63638509Y-59452427D01*
X63641850Y-59439398D01*
X63646725Y-59377155D01*
X63625573Y-59328677D01*
X63575385Y-59286039D01*
X63562858Y-59277294D01*
X63519432Y-59237655D01*
X63489531Y-59196833D01*
X63485414Y-59187727D01*
X63473665Y-59143465D01*
X63467791Y-59079674D01*
X63467265Y-59009243D01*
X64089918Y-59009243D01*
X64103640Y-59115102D01*
X64146274Y-59211521D01*
X64216321Y-59294832D01*
X64312284Y-59361371D01*
X64339531Y-59372939D01*
X64416637Y-59389174D01*
X64504408Y-59391566D01*
X64590130Y-59380323D01*
X64661092Y-59355655D01*
X64699300Y-59331840D01*
X64767395Y-59271702D01*
X64823251Y-59200271D01*
X64857666Y-59128195D01*
X64865934Y-59096167D01*
X64874708Y-58989016D01*
X64856025Y-58888391D01*
X64813460Y-58797951D01*
X64750590Y-58721356D01*
X64670988Y-58662265D01*
X64578233Y-58624337D01*
X64475898Y-58611233D01*
X64367560Y-58626612D01*
X64363540Y-58627780D01*
X64287413Y-58664475D01*
X64214496Y-58723708D01*
X64153623Y-58796832D01*
X64113626Y-58875200D01*
X64106605Y-58897610D01*
X64089918Y-59009243D01*
X63467265Y-59009243D01*
X63467122Y-58990161D01*
X63467271Y-58981892D01*
X63471852Y-58893468D01*
X63483690Y-58829509D01*
X63506039Y-58783020D01*
X63542150Y-58747006D01*
X63595274Y-58714472D01*
X63610808Y-58705790D01*
X63646274Y-58681683D01*
X63663360Y-58663233D01*
X63663891Y-58650367D01*
X63657807Y-58612117D01*
X63645065Y-58562274D01*
X63636183Y-58529317D01*
X63630207Y-58484313D01*
X63637118Y-58444092D01*
X63659724Y-58402110D01*
X63700831Y-58351824D01*
X63763243Y-58286691D01*
X63770105Y-58279788D01*
X63837861Y-58216218D01*
X63893430Y-58175904D01*
X63943045Y-58156277D01*
X63992940Y-58154770D01*
X64049349Y-58168813D01*
X64099909Y-58183298D01*
X64139849Y-58183190D01*
X64169036Y-58161701D01*
X64197024Y-58115373D01*
X64211428Y-58088152D01*
X64239587Y-58045220D01*
X64271569Y-58017200D01*
X64314472Y-58000687D01*
X64375390Y-57992280D01*
X64461419Y-57988575D01*
X64476407Y-57988250D01*
X64573284Y-57989561D01*
G37*
G36*
X64547952Y-55274165D02*
G01*
X64607607Y-55275506D01*
X64647140Y-55279347D01*
X64673292Y-55287002D01*
X64692803Y-55299784D01*
X64712413Y-55319007D01*
X64713673Y-55320333D01*
X64751881Y-55367427D01*
X64783945Y-55417442D01*
X64784920Y-55419282D01*
X64797203Y-55442560D01*
X64808859Y-55456944D01*
X64826386Y-55463243D01*
X64856283Y-55462264D01*
X64905048Y-55454814D01*
X64979181Y-55441700D01*
X65021228Y-55439809D01*
X65072691Y-55453788D01*
X65088183Y-55464121D01*
X65128592Y-55498887D01*
X65176667Y-55546805D01*
X65226136Y-55600873D01*
X65270726Y-55654091D01*
X65304164Y-55699460D01*
X65320178Y-55729978D01*
X65322623Y-55749665D01*
X65321424Y-55799099D01*
X65314164Y-55855803D01*
X65308495Y-55891130D01*
X65304193Y-55933080D01*
X65305445Y-55954118D01*
X65315612Y-55962791D01*
X65347832Y-55983537D01*
X65392992Y-56009360D01*
X65403289Y-56015034D01*
X65440759Y-56038645D01*
X65466643Y-56064327D01*
X65483016Y-56098110D01*
X65491950Y-56146019D01*
X65495516Y-56214084D01*
X65495788Y-56308332D01*
X65494928Y-56372134D01*
X65490971Y-56438331D01*
X65481269Y-56483912D01*
X65463023Y-56515638D01*
X65433431Y-56540274D01*
X65389694Y-56564581D01*
X65351141Y-56587072D01*
X65313614Y-56624704D01*
X65303836Y-56669624D01*
X65319118Y-56728059D01*
X65328799Y-56754909D01*
X65337389Y-56800914D01*
X65330776Y-56844427D01*
X65306512Y-56891159D01*
X65262150Y-56946822D01*
X65195241Y-57017127D01*
X65065609Y-57147633D01*
X64983077Y-57137612D01*
X64955834Y-57134086D01*
X64899253Y-57125585D01*
X64857396Y-57117800D01*
X64848634Y-57116009D01*
X64823230Y-57116788D01*
X64803244Y-57134394D01*
X64779896Y-57175343D01*
X64772885Y-57188240D01*
X64729570Y-57241667D01*
X64669514Y-57277553D01*
X64588299Y-57297809D01*
X64481510Y-57304342D01*
X64465459Y-57304296D01*
X64461984Y-57304286D01*
X64375535Y-57299375D01*
X64310283Y-57283269D01*
X64257973Y-57251271D01*
X64210355Y-57198680D01*
X64159175Y-57120798D01*
X64154190Y-57113129D01*
X64140735Y-57102809D01*
X64117930Y-57105383D01*
X64075684Y-57120859D01*
X64036548Y-57133960D01*
X63976379Y-57140753D01*
X63918519Y-57126328D01*
X63856585Y-57088599D01*
X63784192Y-57025474D01*
X63761967Y-57003828D01*
X63697009Y-56933855D01*
X63656115Y-56874058D01*
X63636984Y-56818593D01*
X63637310Y-56761621D01*
X63654792Y-56697299D01*
X63663946Y-56659490D01*
X63656336Y-56627405D01*
X63626306Y-56598619D01*
X63569670Y-56566712D01*
X63565660Y-56564614D01*
X63521438Y-56530652D01*
X63489397Y-56488947D01*
X63481383Y-56469368D01*
X63471962Y-56425176D01*
X63467746Y-56362419D01*
X63467865Y-56329547D01*
X64094137Y-56329547D01*
X64108700Y-56412388D01*
X64133445Y-56471468D01*
X64194007Y-56557415D01*
X64273055Y-56622569D01*
X64365302Y-56664840D01*
X64465459Y-56682140D01*
X64568240Y-56672381D01*
X64668356Y-56633473D01*
X64696705Y-56616182D01*
X64777131Y-56546078D01*
X64833601Y-56461970D01*
X64866109Y-56368933D01*
X64874650Y-56272044D01*
X64859218Y-56176378D01*
X64819810Y-56087011D01*
X64756419Y-56009019D01*
X64669041Y-55947477D01*
X64668748Y-55947324D01*
X64565565Y-55910237D01*
X64460299Y-55901835D01*
X64358431Y-55920370D01*
X64265444Y-55964093D01*
X64186820Y-56031254D01*
X64128039Y-56120104D01*
X64116400Y-56148930D01*
X64097058Y-56236382D01*
X64094137Y-56329547D01*
X63467865Y-56329547D01*
X63468066Y-56274380D01*
X63468793Y-56248334D01*
X63474529Y-56161686D01*
X63486733Y-56099740D01*
X63508021Y-56056593D01*
X63541011Y-56026339D01*
X63588320Y-56003074D01*
X63627680Y-55983678D01*
X63655603Y-55952998D01*
X63660333Y-55909489D01*
X63644318Y-55846297D01*
X63635377Y-55815756D01*
X63630456Y-55769584D01*
X63640526Y-55725354D01*
X63668198Y-55677631D01*
X63716086Y-55620982D01*
X63786802Y-55549973D01*
X63804052Y-55533301D01*
X63853762Y-55486105D01*
X63891536Y-55456302D01*
X63926134Y-55441391D01*
X63966315Y-55438873D01*
X64020837Y-55446248D01*
X64098460Y-55461014D01*
X64133745Y-55464490D01*
X64156909Y-55452447D01*
X64179044Y-55417497D01*
X64179880Y-55415941D01*
X64212495Y-55365565D01*
X64250607Y-55319007D01*
X64266461Y-55303125D01*
X64285446Y-55289141D01*
X64309704Y-55280551D01*
X64345973Y-55276042D01*
X64400995Y-55274299D01*
X64481510Y-55274010D01*
X64547952Y-55274165D01*
G37*
G36*
X65114093Y-60431582D02*
G01*
X65120501Y-60431583D01*
X65367248Y-60431656D01*
X65584014Y-60431823D01*
X65772999Y-60432125D01*
X65936402Y-60432606D01*
X66076422Y-60433309D01*
X66195260Y-60434277D01*
X66295113Y-60435551D01*
X66378181Y-60437176D01*
X66446664Y-60439194D01*
X66502762Y-60441647D01*
X66548672Y-60444579D01*
X66586595Y-60448032D01*
X66618730Y-60452049D01*
X66647276Y-60456673D01*
X66674432Y-60461946D01*
X66676299Y-60462333D01*
X66867326Y-60514676D01*
X67037520Y-60589134D01*
X67191624Y-60688243D01*
X67334386Y-60814537D01*
X67437983Y-60919675D01*
X67550972Y-60813087D01*
X67601587Y-60767995D01*
X67761265Y-60653044D01*
X67939865Y-60559695D01*
X68131567Y-60490667D01*
X68330551Y-60448682D01*
X68354995Y-60446139D01*
X68418850Y-60442150D01*
X68507158Y-60438611D01*
X68615045Y-60435646D01*
X68737639Y-60433379D01*
X68870066Y-60431934D01*
X69007454Y-60431435D01*
X69121750Y-60431628D01*
X69282838Y-60432884D01*
X69418518Y-60435687D01*
X69532997Y-60440472D01*
X69630485Y-60447674D01*
X69715188Y-60457730D01*
X69791317Y-60471075D01*
X69863079Y-60488143D01*
X69934682Y-60509371D01*
X70010336Y-60535193D01*
X70180095Y-60606758D01*
X70375478Y-60719683D01*
X70552371Y-60857591D01*
X70708985Y-61018591D01*
X70843530Y-61200794D01*
X70954216Y-61402312D01*
X71039253Y-61621255D01*
X71042879Y-61632730D01*
X71055532Y-61672842D01*
X71066892Y-61710204D01*
X71077029Y-61746657D01*
X71086011Y-61784041D01*
X71093910Y-61824198D01*
X71100795Y-61868970D01*
X71106734Y-61920198D01*
X71111799Y-61979722D01*
X71116058Y-62049385D01*
X71119581Y-62131027D01*
X71122438Y-62226490D01*
X71124699Y-62337615D01*
X71126433Y-62466243D01*
X71127710Y-62614216D01*
X71128599Y-62783375D01*
X71129170Y-62975560D01*
X71129493Y-63192615D01*
X71129638Y-63436379D01*
X71129674Y-63708693D01*
X71129670Y-64011401D01*
X71129670Y-65991650D01*
X70001497Y-65991650D01*
X67414759Y-65991650D01*
X63699848Y-65991650D01*
X63699848Y-65355038D01*
X63699848Y-64718426D01*
X65255818Y-64718426D01*
X66811788Y-64718426D01*
X68034011Y-64718426D01*
X69017754Y-64718426D01*
X70001497Y-64718426D01*
X70001497Y-63412434D01*
X70001497Y-62106441D01*
X69962648Y-62029775D01*
X69935287Y-61984340D01*
X69868099Y-61904301D01*
X69785787Y-61833011D01*
X69698820Y-61780366D01*
X69689100Y-61775899D01*
X69669153Y-61767683D01*
X69647387Y-61761062D01*
X69620424Y-61755865D01*
X69584882Y-61751919D01*
X69537384Y-61749053D01*
X69474549Y-61747094D01*
X69392999Y-61745870D01*
X69289353Y-61745208D01*
X69160233Y-61744938D01*
X69002259Y-61744886D01*
X68900198Y-61744926D01*
X68758346Y-61745224D01*
X68643183Y-61745938D01*
X68551276Y-61747212D01*
X68479193Y-61749192D01*
X68423502Y-61752023D01*
X68380771Y-61755851D01*
X68347568Y-61760820D01*
X68320460Y-61767075D01*
X68296016Y-61774762D01*
X68286990Y-61778025D01*
X68192733Y-61829352D01*
X68120548Y-61903573D01*
X68072520Y-61998601D01*
X68071025Y-62003169D01*
X68066040Y-62021111D01*
X68061678Y-62042926D01*
X68057888Y-62070796D01*
X68054617Y-62106901D01*
X68051814Y-62153424D01*
X68049425Y-62212546D01*
X68047400Y-62286449D01*
X68045685Y-62377314D01*
X68044229Y-62487323D01*
X68042980Y-62618657D01*
X68041884Y-62773499D01*
X68040891Y-62954029D01*
X68039949Y-63162430D01*
X68039004Y-63400882D01*
X68034011Y-64718426D01*
X66811788Y-64718426D01*
X66806092Y-63400882D01*
X66805025Y-63172905D01*
X66803781Y-62952815D01*
X66802417Y-62761329D01*
X66800898Y-62596552D01*
X66799186Y-62456590D01*
X66797244Y-62339546D01*
X66795033Y-62243526D01*
X66792516Y-62166634D01*
X66789656Y-62106975D01*
X66786416Y-62062654D01*
X66782758Y-62031775D01*
X66778644Y-62012443D01*
X66756414Y-61960214D01*
X66699736Y-61882611D01*
X66623754Y-61818302D01*
X66536396Y-61775057D01*
X66522012Y-61770622D01*
X66502711Y-61765925D01*
X66479037Y-61761823D01*
X66448848Y-61758265D01*
X66410000Y-61755200D01*
X66360350Y-61752578D01*
X66297755Y-61750349D01*
X66220073Y-61748461D01*
X66125159Y-61746865D01*
X66010870Y-61745509D01*
X65875064Y-61744344D01*
X65715597Y-61743318D01*
X65530327Y-61742382D01*
X65317109Y-61741484D01*
X65073801Y-61740575D01*
X63699848Y-61735631D01*
X63699848Y-61083501D01*
X63699848Y-60431371D01*
X65114093Y-60431582D01*
G37*
G36*
X65815171Y-55676923D02*
G01*
X66149594Y-55676929D01*
X66149594Y-56337716D01*
X66149594Y-56998503D01*
X66503541Y-56998503D01*
X66857488Y-56998503D01*
X66873732Y-57058940D01*
X66877940Y-57074184D01*
X66888572Y-57112028D01*
X66894224Y-57141658D01*
X66891728Y-57165470D01*
X66877919Y-57185860D01*
X66849629Y-57205227D01*
X66803693Y-57225966D01*
X66736943Y-57250474D01*
X66646213Y-57281149D01*
X66528337Y-57320387D01*
X66157652Y-57444371D01*
X66153225Y-57704692D01*
X66148798Y-57965013D01*
X66189909Y-57949382D01*
X66223317Y-57938306D01*
X66269597Y-57926757D01*
X66271236Y-57926438D01*
X66303431Y-57918050D01*
X66358272Y-57901914D01*
X66428511Y-57880219D01*
X66506898Y-57855153D01*
X66581358Y-57831075D01*
X66682196Y-57798686D01*
X66796186Y-57762238D01*
X66914247Y-57724635D01*
X67027294Y-57688780D01*
X67070992Y-57674897D01*
X67173319Y-57641614D01*
X67250752Y-57614773D01*
X67307761Y-57592534D01*
X67348816Y-57573058D01*
X67378387Y-57554507D01*
X67400941Y-57535040D01*
X67437023Y-57490323D01*
X67458721Y-57437920D01*
X67464739Y-57373856D01*
X67455592Y-57292363D01*
X67431789Y-57187673D01*
X67420127Y-57142486D01*
X67404898Y-57081110D01*
X67394458Y-57035931D01*
X67390584Y-57014418D01*
X67391032Y-57013858D01*
X67412390Y-57010702D01*
X67465390Y-57007894D01*
X67549528Y-57005440D01*
X67664296Y-57003346D01*
X67809191Y-57001619D01*
X67983706Y-57000265D01*
X68187337Y-56999290D01*
X68419578Y-56998700D01*
X68679924Y-56998503D01*
X69969264Y-56998503D01*
X69969264Y-56369863D01*
X70246380Y-56369863D01*
X70263044Y-56442475D01*
X70285871Y-56492292D01*
X70341966Y-56563076D01*
X70413670Y-56612438D01*
X70495183Y-56639631D01*
X70580703Y-56643912D01*
X70664428Y-56624535D01*
X70740557Y-56580756D01*
X70803288Y-56511829D01*
X70815389Y-56492708D01*
X70835620Y-56450241D01*
X70845206Y-56403111D01*
X70847627Y-56337638D01*
X70846900Y-56294225D01*
X70841345Y-56245613D01*
X70827348Y-56208369D01*
X70801439Y-56169892D01*
X70741133Y-56106464D01*
X70657893Y-56056555D01*
X70565733Y-56036769D01*
X70467253Y-56048053D01*
X70420827Y-56066435D01*
X70351618Y-56114883D01*
X70295203Y-56179025D01*
X70261225Y-56249437D01*
X70250662Y-56294715D01*
X70246380Y-56369863D01*
X69969264Y-56369863D01*
X69969264Y-56337716D01*
X69969264Y-55676929D01*
X70557525Y-55676929D01*
X71145787Y-55676929D01*
X71145787Y-57651231D01*
X71145787Y-59625533D01*
X70580703Y-59625533D01*
X70557706Y-59625533D01*
X69969625Y-59625533D01*
X69965415Y-58968775D01*
X69961205Y-58312018D01*
X68055400Y-58307923D01*
X66149594Y-58303827D01*
X66149594Y-58964680D01*
X66149594Y-59625533D01*
X65821704Y-59625533D01*
X65493814Y-59625533D01*
X65496210Y-59521550D01*
X65498045Y-59475659D01*
X65504094Y-59433874D01*
X65517207Y-59406841D01*
X65540649Y-59384494D01*
X65569473Y-59357355D01*
X65616443Y-59282904D01*
X65647282Y-59182362D01*
X65662412Y-59054585D01*
X65662843Y-59045852D01*
X65661571Y-58918561D01*
X65643740Y-58814030D01*
X65607866Y-58726810D01*
X65552463Y-58651457D01*
X65532478Y-58629142D01*
X65504299Y-58590325D01*
X65491645Y-58553011D01*
X65488650Y-58503617D01*
X65484177Y-58449298D01*
X65454450Y-58354886D01*
X65395683Y-58260105D01*
X65306514Y-58162402D01*
X65244225Y-58107168D01*
X65149185Y-58041673D01*
X65059535Y-58005033D01*
X64972808Y-57996019D01*
X64964801Y-57996393D01*
X64919831Y-57994844D01*
X64890781Y-57981499D01*
X64863634Y-57950517D01*
X64853325Y-57937597D01*
X64784866Y-57881358D01*
X64692991Y-57842857D01*
X64581717Y-57823897D01*
X64472406Y-57816051D01*
X64476958Y-57644999D01*
X64481510Y-57473947D01*
X64578211Y-57464255D01*
X64678038Y-57446976D01*
X64767753Y-57411632D01*
X64847437Y-57355087D01*
X64861996Y-57342695D01*
X64898715Y-57318341D01*
X64938624Y-57307312D01*
X64996145Y-57304721D01*
X65014644Y-57304475D01*
X65072182Y-57298759D01*
X65123693Y-57282755D01*
X65175878Y-57252874D01*
X65235439Y-57205528D01*
X65309077Y-57137128D01*
X65312808Y-57133516D01*
X65387853Y-57056304D01*
X65440063Y-56990307D01*
X65473066Y-56928840D01*
X65490491Y-56865218D01*
X65495963Y-56792756D01*
X65497519Y-56739209D01*
X65503581Y-56703563D01*
X65517714Y-56680873D01*
X65543523Y-56661161D01*
X65580742Y-56633767D01*
X65612883Y-56599008D01*
X65634648Y-56555672D01*
X65647969Y-56497871D01*
X65654778Y-56419719D01*
X65657005Y-56315329D01*
X65657034Y-56308654D01*
X65655642Y-56194537D01*
X65649600Y-56107025D01*
X65637518Y-56040917D01*
X65618006Y-55991009D01*
X65589674Y-55952098D01*
X65551134Y-55918983D01*
X65547566Y-55916394D01*
X65512795Y-55888951D01*
X65494101Y-55863804D01*
X65486092Y-55829444D01*
X65483375Y-55774359D01*
X65480749Y-55676917D01*
X65815171Y-55676923D01*
G37*
G36*
X66171512Y-49363134D02*
G01*
X66311958Y-49367842D01*
X66433613Y-49376136D01*
X66540340Y-49388523D01*
X66636002Y-49405511D01*
X66724464Y-49427607D01*
X66809587Y-49455316D01*
X66895235Y-49489146D01*
X66985272Y-49529604D01*
X67062367Y-49567755D01*
X67200542Y-49649161D01*
X67326840Y-49744150D01*
X67452933Y-49860992D01*
X67487768Y-49897061D01*
X67634389Y-50076946D01*
X67756370Y-50277256D01*
X67853425Y-50497361D01*
X67925265Y-50736632D01*
X67971601Y-50994439D01*
X67973201Y-51007764D01*
X67977949Y-51057895D01*
X67981259Y-51115289D01*
X67983127Y-51183511D01*
X67983549Y-51266120D01*
X67982521Y-51366681D01*
X67980039Y-51488755D01*
X67976099Y-51635904D01*
X67970697Y-51811692D01*
X67970489Y-51818215D01*
X67963765Y-52054718D01*
X67959712Y-52261858D01*
X67958382Y-52442328D01*
X67959826Y-52598823D01*
X67964098Y-52734035D01*
X67971248Y-52850660D01*
X67981329Y-52951391D01*
X67994394Y-53038923D01*
X68026222Y-53184208D01*
X68074679Y-53328963D01*
X68135381Y-53445055D01*
X68208908Y-53533335D01*
X68295839Y-53594656D01*
X68396755Y-53629868D01*
X68409261Y-53632022D01*
X68468966Y-53637539D01*
X68560862Y-53641412D01*
X68684946Y-53643641D01*
X68841217Y-53644227D01*
X69029674Y-53643168D01*
X69142862Y-53642094D01*
X69268355Y-53640680D01*
X69368081Y-53639061D01*
X69445732Y-53636988D01*
X69505004Y-53634213D01*
X69549591Y-53630487D01*
X69583189Y-53625561D01*
X69609491Y-53619188D01*
X69632192Y-53611117D01*
X69654987Y-53601102D01*
X69747218Y-53545881D01*
X69834823Y-53462793D01*
X69898507Y-53364175D01*
X69936715Y-53283591D01*
X69936715Y-52195711D01*
X69936715Y-51107830D01*
X69898507Y-51027246D01*
X69843169Y-50938894D01*
X69757857Y-50853747D01*
X69654987Y-50790320D01*
X69653171Y-50789487D01*
X69623412Y-50776952D01*
X69593073Y-50767536D01*
X69556879Y-50760689D01*
X69509555Y-50755865D01*
X69445823Y-50752515D01*
X69360410Y-50750091D01*
X69248039Y-50748044D01*
X68921675Y-50742827D01*
X68921675Y-50107403D01*
X68921675Y-49471980D01*
X69266405Y-49471980D01*
X69308132Y-49472058D01*
X69454554Y-49473957D01*
X69573036Y-49478524D01*
X69666931Y-49485930D01*
X69739594Y-49496348D01*
X69780215Y-49504535D01*
X70004489Y-49568107D01*
X70213005Y-49658861D01*
X70404243Y-49775208D01*
X70576681Y-49915557D01*
X70728799Y-50078320D01*
X70859075Y-50261908D01*
X70965989Y-50464730D01*
X71048020Y-50685198D01*
X71103647Y-50921723D01*
X71107916Y-50956028D01*
X71113184Y-51028190D01*
X71117824Y-51126587D01*
X71121834Y-51247781D01*
X71125212Y-51388333D01*
X71127956Y-51544803D01*
X71130064Y-51713753D01*
X71131535Y-51891744D01*
X71132367Y-52075337D01*
X71132557Y-52261092D01*
X71132103Y-52445572D01*
X71131004Y-52625336D01*
X71129258Y-52796947D01*
X71126863Y-52956964D01*
X71123816Y-53101950D01*
X71120116Y-53228465D01*
X71115761Y-53333069D01*
X71110749Y-53412326D01*
X71105079Y-53462794D01*
X71051582Y-53693612D01*
X70970066Y-53916978D01*
X70863220Y-54122219D01*
X70732159Y-54307975D01*
X70577993Y-54472885D01*
X70401835Y-54615589D01*
X70204798Y-54734728D01*
X69987993Y-54828939D01*
X69980832Y-54831501D01*
X69917674Y-54852829D01*
X69856506Y-54870460D01*
X69793524Y-54884735D01*
X69724927Y-54895996D01*
X69646914Y-54904586D01*
X69555682Y-54910846D01*
X69447430Y-54915120D01*
X69318356Y-54917749D01*
X69164657Y-54919076D01*
X68982533Y-54919442D01*
X68914811Y-54919422D01*
X68766133Y-54919150D01*
X68644203Y-54918426D01*
X68545099Y-54917084D01*
X68464903Y-54914958D01*
X68399694Y-54911881D01*
X68345551Y-54907689D01*
X68298556Y-54902215D01*
X68254787Y-54895293D01*
X68210324Y-54886757D01*
X68043322Y-54844359D01*
X67829799Y-54762622D01*
X67633551Y-54653797D01*
X67455346Y-54518405D01*
X67295953Y-54356970D01*
X67156139Y-54170013D01*
X67103547Y-54087321D01*
X67059500Y-54011828D01*
X67023925Y-53940768D01*
X66991251Y-53862927D01*
X66955905Y-53767094D01*
X66943958Y-53732732D01*
X66913962Y-53637809D01*
X66889070Y-53542691D01*
X66868990Y-53443830D01*
X66853427Y-53337676D01*
X66842087Y-53220678D01*
X66834677Y-53089289D01*
X66830902Y-52939958D01*
X66830468Y-52769136D01*
X66833082Y-52573273D01*
X66838449Y-52348820D01*
X66839701Y-52301028D01*
X66842660Y-52158632D01*
X66844561Y-52016943D01*
X66845382Y-51882262D01*
X66845102Y-51760889D01*
X66843698Y-51659126D01*
X66841148Y-51583274D01*
X66836061Y-51501683D01*
X66813725Y-51295761D01*
X66779218Y-51119335D01*
X66732453Y-50972112D01*
X66673346Y-50853800D01*
X66601810Y-50764107D01*
X66582188Y-50745420D01*
X66552641Y-50720036D01*
X66522085Y-50699516D01*
X66487051Y-50683343D01*
X66444069Y-50671002D01*
X66389669Y-50661976D01*
X66320384Y-50655749D01*
X66232742Y-50651804D01*
X66123276Y-50649626D01*
X65988516Y-50648697D01*
X65824992Y-50648503D01*
X65740502Y-50648526D01*
X65605925Y-50648772D01*
X65497907Y-50649439D01*
X65412756Y-50650717D01*
X65346781Y-50652796D01*
X65296289Y-50655864D01*
X65257589Y-50660112D01*
X65226988Y-50665729D01*
X65200795Y-50672904D01*
X65175318Y-50681826D01*
X65133057Y-50700981D01*
X65046644Y-50759264D01*
X64970339Y-50834667D01*
X64914979Y-50917385D01*
X64909350Y-50929878D01*
X64904272Y-50945150D01*
X64899903Y-50965050D01*
X64896179Y-50991880D01*
X64893032Y-51027939D01*
X64890399Y-51075528D01*
X64888213Y-51136947D01*
X64886409Y-51214496D01*
X64884921Y-51310477D01*
X64883683Y-51427189D01*
X64882631Y-51566933D01*
X64881698Y-51732010D01*
X64880820Y-51924719D01*
X64879929Y-52147360D01*
X64879902Y-52154408D01*
X64878984Y-52383556D01*
X64878251Y-52582844D01*
X64877896Y-52754580D01*
X64878110Y-52901072D01*
X64879086Y-53024627D01*
X64881017Y-53127552D01*
X64884093Y-53212156D01*
X64888509Y-53280746D01*
X64894454Y-53335630D01*
X64902123Y-53379114D01*
X64911707Y-53413507D01*
X64923398Y-53441117D01*
X64937389Y-53464250D01*
X64953872Y-53485215D01*
X64973038Y-53506319D01*
X64995081Y-53529869D01*
X65021922Y-53556306D01*
X65082315Y-53605411D01*
X65141650Y-53643388D01*
X65160327Y-53652998D01*
X65186981Y-53664981D01*
X65215123Y-53673820D01*
X65249877Y-53680111D01*
X65296366Y-53684450D01*
X65359716Y-53687432D01*
X65445048Y-53689652D01*
X65557487Y-53691706D01*
X65892093Y-53697390D01*
X65887880Y-54336620D01*
X65883667Y-54975850D01*
X65674150Y-54980659D01*
X65668188Y-54980792D01*
X65425992Y-54979019D01*
X65208950Y-54962196D01*
X65013479Y-54929735D01*
X64836001Y-54881044D01*
X64672935Y-54815533D01*
X64582974Y-54770793D01*
X64443499Y-54688811D01*
X64318932Y-54596275D01*
X64198242Y-54485514D01*
X64098568Y-54376525D01*
X63962884Y-54189421D01*
X63852149Y-53982999D01*
X63767167Y-53758845D01*
X63708741Y-53518546D01*
X63704712Y-53485138D01*
X63700191Y-53417198D01*
X63696190Y-53322896D01*
X63692709Y-53205479D01*
X63689749Y-53068192D01*
X63687310Y-52914281D01*
X63685393Y-52746994D01*
X63683998Y-52569575D01*
X63683127Y-52385271D01*
X63682779Y-52197329D01*
X63682955Y-52008994D01*
X63683657Y-51823513D01*
X63684884Y-51644131D01*
X63686637Y-51474095D01*
X63688917Y-51316651D01*
X63691724Y-51175046D01*
X63695059Y-51052524D01*
X63698923Y-50952333D01*
X63703316Y-50877719D01*
X63708239Y-50831927D01*
X63759770Y-50607185D01*
X63840489Y-50382721D01*
X63946345Y-50176467D01*
X64076056Y-49989806D01*
X64228339Y-49824121D01*
X64401912Y-49680795D01*
X64595491Y-49561211D01*
X64807794Y-49466752D01*
X65037538Y-49398801D01*
X65064437Y-49393265D01*
X65109568Y-49386310D01*
X65164710Y-49380580D01*
X65233569Y-49375884D01*
X65319846Y-49372032D01*
X65427246Y-49368833D01*
X65559473Y-49366096D01*
X65720229Y-49363630D01*
X65818797Y-49362452D01*
X66008413Y-49361506D01*
X66171512Y-49363134D01*
G37*
%LPC*%
D12*
X50800000Y-30480000D03*
D13*
X55880000Y-30480000D03*
X60960000Y-30480000D03*
X66040000Y-30480000D03*
D12*
X27940000Y-30480000D03*
D13*
X33020000Y-30480000D03*
X38100000Y-30480000D03*
X43180000Y-30480000D03*
D14*
X68580000Y-64438000D03*
D15*
X66040000Y-64438000D03*
X63500000Y-64438000D03*
X60960000Y-64438000D03*
D14*
X68580000Y-69088000D03*
D15*
X66040000Y-69088000D03*
X63500000Y-69088000D03*
X60960000Y-69088000D03*
%LPD*%
M02*
