%TF.GenerationSoftware,KiCad,Pcbnew,7.0.10*%
%TF.CreationDate,2024-02-22T18:13:45-06:00*%
%TF.ProjectId,Sabertoothv2,53616265-7274-46f6-9f74-6876322e6b69,rev?*%
%TF.SameCoordinates,Original*%
%TF.FileFunction,Drillmap*%
%TF.FilePolarity,Positive*%
%FSLAX45Y45*%
G04 Gerber Fmt 4.5, Leading zero omitted, Abs format (unit mm)*
G04 Created by KiCad (PCBNEW 7.0.10) date 2024-02-22 18:13:45*
%MOMM*%
%LPD*%
G01*
G04 APERTURE LIST*
%ADD10C,0.050000*%
%ADD11C,0.200000*%
%ADD12C,0.100000*%
%ADD13C,0.152000*%
G04 APERTURE END LIST*
D10*
X2413000Y-2413000D02*
X7239000Y-2413000D01*
X7239000Y-7239000D01*
X2413000Y-7239000D01*
X2413000Y-2413000D01*
D11*
D12*
X2906000Y-4049000D02*
X2936000Y-4079000D01*
X2936000Y-4049000D02*
X2906000Y-4079000D01*
X2956800Y-3922000D02*
X2986800Y-3952000D01*
X2986800Y-3922000D02*
X2956800Y-3952000D01*
X3039500Y-3744200D02*
X3069500Y-3774200D01*
X3069500Y-3744200D02*
X3039500Y-3774200D01*
X3160000Y-5001500D02*
X3190000Y-5031500D01*
X3190000Y-5001500D02*
X3160000Y-5031500D01*
X3160000Y-5128500D02*
X3190000Y-5158500D01*
X3190000Y-5128500D02*
X3160000Y-5158500D01*
X3356000Y-3922000D02*
X3386000Y-3952000D01*
X3386000Y-3922000D02*
X3356000Y-3952000D01*
X3388600Y-4988800D02*
X3418600Y-5018800D01*
X3418600Y-4988800D02*
X3388600Y-5018800D01*
X3388600Y-5065000D02*
X3418600Y-5095000D01*
X3418600Y-5065000D02*
X3388600Y-5095000D01*
X3464800Y-4988800D02*
X3494800Y-5018800D01*
X3494800Y-4988800D02*
X3464800Y-5018800D01*
X3464800Y-5065000D02*
X3494800Y-5095000D01*
X3494800Y-5065000D02*
X3464800Y-5095000D01*
X3490200Y-5827000D02*
X3520200Y-5857000D01*
X3520200Y-5827000D02*
X3490200Y-5857000D01*
X3490200Y-5903200D02*
X3520200Y-5933200D01*
X3520200Y-5903200D02*
X3490200Y-5933200D01*
X3490200Y-5979400D02*
X3520200Y-6009400D01*
X3520200Y-5979400D02*
X3490200Y-6009400D01*
X3490200Y-6055600D02*
X3520200Y-6085600D01*
X3520200Y-6055600D02*
X3490200Y-6085600D01*
X3534800Y-4988800D02*
X3564800Y-5018800D01*
X3564800Y-4988800D02*
X3534800Y-5018800D01*
X3541000Y-5065000D02*
X3571000Y-5095000D01*
X3571000Y-5065000D02*
X3541000Y-5095000D01*
X3591800Y-5369800D02*
X3621800Y-5399800D01*
X3621800Y-5369800D02*
X3591800Y-5399800D01*
X3608536Y-3947400D02*
X3638536Y-3977400D01*
X3638536Y-3947400D02*
X3608536Y-3977400D01*
X3731500Y-3922000D02*
X3761500Y-3952000D01*
X3761500Y-3922000D02*
X3731500Y-3952000D01*
X3731500Y-5319000D02*
X3761500Y-5349000D01*
X3761500Y-5319000D02*
X3731500Y-5349000D01*
X4150600Y-4620500D02*
X4180600Y-4650500D01*
X4180600Y-4620500D02*
X4150600Y-4650500D01*
X4161500Y-5558500D02*
X4191500Y-5588500D01*
X4191500Y-5558500D02*
X4161500Y-5588500D01*
X4176000Y-3922000D02*
X4206000Y-3952000D01*
X4206000Y-3922000D02*
X4176000Y-3952000D01*
X4176000Y-3998200D02*
X4206000Y-4028200D01*
X4206000Y-3998200D02*
X4176000Y-4028200D01*
X4176000Y-4074400D02*
X4206000Y-4104400D01*
X4206000Y-4074400D02*
X4176000Y-4104400D01*
X4176000Y-6055600D02*
X4206000Y-6085600D01*
X4206000Y-6055600D02*
X4176000Y-6085600D01*
X4582400Y-4023600D02*
X4612400Y-4053600D01*
X4612400Y-4023600D02*
X4582400Y-4053600D01*
X4582400Y-4099800D02*
X4612400Y-4129800D01*
X4612400Y-4099800D02*
X4582400Y-4129800D01*
X4582400Y-5268200D02*
X4612400Y-5298200D01*
X4612400Y-5268200D02*
X4582400Y-5298200D01*
X4620500Y-4811000D02*
X4650500Y-4841000D01*
X4650500Y-4811000D02*
X4620500Y-4841000D01*
X4620500Y-5446000D02*
X4650500Y-5476000D01*
X4650500Y-5446000D02*
X4620500Y-5476000D01*
X4658600Y-4023600D02*
X4688600Y-4053600D01*
X4688600Y-4023600D02*
X4658600Y-4053600D01*
X4658600Y-4099800D02*
X4688600Y-4129800D01*
X4688600Y-4099800D02*
X4658600Y-4129800D01*
X4658600Y-5898120D02*
X4688600Y-5928120D01*
X4688600Y-5898120D02*
X4658600Y-5928120D01*
X4684000Y-3341000D02*
X4714000Y-3371000D01*
X4714000Y-3341000D02*
X4684000Y-3371000D01*
X4811000Y-3947400D02*
X4841000Y-3977400D01*
X4841000Y-3947400D02*
X4811000Y-3977400D01*
X4811000Y-4811000D02*
X4841000Y-4841000D01*
X4841000Y-4811000D02*
X4811000Y-4841000D01*
X4811000Y-5065000D02*
X4841000Y-5095000D01*
X4841000Y-5065000D02*
X4811000Y-5095000D01*
X5001500Y-5382500D02*
X5031500Y-5412500D01*
X5031500Y-5382500D02*
X5001500Y-5412500D01*
X5001500Y-5446000D02*
X5031500Y-5476000D01*
X5031500Y-5446000D02*
X5001500Y-5476000D01*
X5065000Y-5382500D02*
X5095000Y-5412500D01*
X5095000Y-5382500D02*
X5065000Y-5412500D01*
X5065000Y-5446000D02*
X5095000Y-5476000D01*
X5095000Y-5446000D02*
X5065000Y-5476000D01*
X5175550Y-5747050D02*
X5205550Y-5777050D01*
X5205550Y-5747050D02*
X5175550Y-5777050D01*
X5319000Y-4303000D02*
X5349000Y-4333000D01*
X5349000Y-4303000D02*
X5319000Y-4333000D01*
X5319000Y-4963400D02*
X5349000Y-4993400D01*
X5349000Y-4963400D02*
X5319000Y-4993400D01*
X5725400Y-4404600D02*
X5755400Y-4434600D01*
X5755400Y-4404600D02*
X5725400Y-4434600D01*
X5789476Y-5916476D02*
X5819476Y-5946476D01*
X5819476Y-5916476D02*
X5789476Y-5946476D01*
X6017500Y-5890500D02*
X6047500Y-5920500D01*
X6047500Y-5890500D02*
X6017500Y-5920500D01*
X6017500Y-5954000D02*
X6047500Y-5984000D01*
X6047500Y-5954000D02*
X6017500Y-5984000D01*
X6017500Y-6017500D02*
X6047500Y-6047500D01*
X6047500Y-6017500D02*
X6017500Y-6047500D01*
X6081000Y-5890500D02*
X6111000Y-5920500D01*
X6111000Y-5890500D02*
X6081000Y-5920500D01*
X6081000Y-5954000D02*
X6111000Y-5984000D01*
X6111000Y-5954000D02*
X6081000Y-5984000D01*
X6081000Y-6017500D02*
X6111000Y-6047500D01*
X6111000Y-6017500D02*
X6081000Y-6047500D01*
X6144500Y-5890500D02*
X6174500Y-5920500D01*
X6174500Y-5890500D02*
X6144500Y-5920500D01*
X6144500Y-5954000D02*
X6174500Y-5984000D01*
X6174500Y-5954000D02*
X6144500Y-5984000D01*
X6208000Y-4430000D02*
X6238000Y-4460000D01*
X6238000Y-4430000D02*
X6208000Y-4460000D01*
X6716000Y-5192000D02*
X6746000Y-5222000D01*
X6746000Y-5192000D02*
X6716000Y-5222000D01*
X6146000Y-6443800D02*
G75*
G03*
X6046000Y-6443800I-50000J0D01*
G01*
X6046000Y-6443800D02*
G75*
G03*
X6146000Y-6443800I50000J0D01*
G01*
X6146000Y-6908800D02*
G75*
G03*
X6046000Y-6908800I-50000J0D01*
G01*
X6046000Y-6908800D02*
G75*
G03*
X6146000Y-6908800I50000J0D01*
G01*
X6400000Y-6443800D02*
G75*
G03*
X6300000Y-6443800I-50000J0D01*
G01*
X6300000Y-6443800D02*
G75*
G03*
X6400000Y-6443800I50000J0D01*
G01*
X6400000Y-6908800D02*
G75*
G03*
X6300000Y-6908800I-50000J0D01*
G01*
X6300000Y-6908800D02*
G75*
G03*
X6400000Y-6908800I50000J0D01*
G01*
X6654000Y-6443800D02*
G75*
G03*
X6554000Y-6443800I-50000J0D01*
G01*
X6554000Y-6443800D02*
G75*
G03*
X6654000Y-6443800I50000J0D01*
G01*
X6654000Y-6908800D02*
G75*
G03*
X6554000Y-6908800I-50000J0D01*
G01*
X6554000Y-6908800D02*
G75*
G03*
X6654000Y-6908800I50000J0D01*
G01*
X6908000Y-6443800D02*
G75*
G03*
X6808000Y-6443800I-50000J0D01*
G01*
X6808000Y-6443800D02*
G75*
G03*
X6908000Y-6443800I50000J0D01*
G01*
X6908000Y-6908800D02*
G75*
G03*
X6808000Y-6908800I-50000J0D01*
G01*
X6808000Y-6908800D02*
G75*
G03*
X6908000Y-6908800I50000J0D01*
G01*
D13*
X2794000Y-2972000D02*
X2794000Y-3124000D01*
X2718000Y-3048000D02*
X2870000Y-3048000D01*
X3302000Y-2972000D02*
X3302000Y-3124000D01*
X3226000Y-3048000D02*
X3378000Y-3048000D01*
X3810000Y-2972000D02*
X3810000Y-3124000D01*
X3734000Y-3048000D02*
X3886000Y-3048000D01*
X4318000Y-2972000D02*
X4318000Y-3124000D01*
X4242000Y-3048000D02*
X4394000Y-3048000D01*
X5080000Y-2972000D02*
X5080000Y-3124000D01*
X5004000Y-3048000D02*
X5156000Y-3048000D01*
X5588000Y-2972000D02*
X5588000Y-3124000D01*
X5512000Y-3048000D02*
X5664000Y-3048000D01*
X6096000Y-2972000D02*
X6096000Y-3124000D01*
X6020000Y-3048000D02*
X6172000Y-3048000D01*
X6604000Y-2972000D02*
X6604000Y-3124000D01*
X6528000Y-3048000D02*
X6680000Y-3048000D01*
D11*
X2671277Y-7552984D02*
X2671277Y-7352984D01*
X2671277Y-7352984D02*
X2718896Y-7352984D01*
X2718896Y-7352984D02*
X2747467Y-7362508D01*
X2747467Y-7362508D02*
X2766515Y-7381555D01*
X2766515Y-7381555D02*
X2776039Y-7400603D01*
X2776039Y-7400603D02*
X2785563Y-7438698D01*
X2785563Y-7438698D02*
X2785563Y-7467269D01*
X2785563Y-7467269D02*
X2776039Y-7505365D01*
X2776039Y-7505365D02*
X2766515Y-7524412D01*
X2766515Y-7524412D02*
X2747467Y-7543460D01*
X2747467Y-7543460D02*
X2718896Y-7552984D01*
X2718896Y-7552984D02*
X2671277Y-7552984D01*
X2871277Y-7552984D02*
X2871277Y-7419650D01*
X2871277Y-7457746D02*
X2880801Y-7438698D01*
X2880801Y-7438698D02*
X2890324Y-7429174D01*
X2890324Y-7429174D02*
X2909372Y-7419650D01*
X2909372Y-7419650D02*
X2928420Y-7419650D01*
X2995086Y-7552984D02*
X2995086Y-7419650D01*
X2995086Y-7352984D02*
X2985562Y-7362508D01*
X2985562Y-7362508D02*
X2995086Y-7372031D01*
X2995086Y-7372031D02*
X3004610Y-7362508D01*
X3004610Y-7362508D02*
X2995086Y-7352984D01*
X2995086Y-7352984D02*
X2995086Y-7372031D01*
X3118896Y-7552984D02*
X3099848Y-7543460D01*
X3099848Y-7543460D02*
X3090324Y-7524412D01*
X3090324Y-7524412D02*
X3090324Y-7352984D01*
X3223658Y-7552984D02*
X3204610Y-7543460D01*
X3204610Y-7543460D02*
X3195086Y-7524412D01*
X3195086Y-7524412D02*
X3195086Y-7352984D01*
X3452229Y-7552984D02*
X3452229Y-7352984D01*
X3452229Y-7352984D02*
X3518896Y-7495841D01*
X3518896Y-7495841D02*
X3585562Y-7352984D01*
X3585562Y-7352984D02*
X3585562Y-7552984D01*
X3766515Y-7552984D02*
X3766515Y-7448222D01*
X3766515Y-7448222D02*
X3756991Y-7429174D01*
X3756991Y-7429174D02*
X3737943Y-7419650D01*
X3737943Y-7419650D02*
X3699848Y-7419650D01*
X3699848Y-7419650D02*
X3680801Y-7429174D01*
X3766515Y-7543460D02*
X3747467Y-7552984D01*
X3747467Y-7552984D02*
X3699848Y-7552984D01*
X3699848Y-7552984D02*
X3680801Y-7543460D01*
X3680801Y-7543460D02*
X3671277Y-7524412D01*
X3671277Y-7524412D02*
X3671277Y-7505365D01*
X3671277Y-7505365D02*
X3680801Y-7486317D01*
X3680801Y-7486317D02*
X3699848Y-7476793D01*
X3699848Y-7476793D02*
X3747467Y-7476793D01*
X3747467Y-7476793D02*
X3766515Y-7467269D01*
X3861753Y-7419650D02*
X3861753Y-7619650D01*
X3861753Y-7429174D02*
X3880801Y-7419650D01*
X3880801Y-7419650D02*
X3918896Y-7419650D01*
X3918896Y-7419650D02*
X3937943Y-7429174D01*
X3937943Y-7429174D02*
X3947467Y-7438698D01*
X3947467Y-7438698D02*
X3956991Y-7457746D01*
X3956991Y-7457746D02*
X3956991Y-7514888D01*
X3956991Y-7514888D02*
X3947467Y-7533936D01*
X3947467Y-7533936D02*
X3937943Y-7543460D01*
X3937943Y-7543460D02*
X3918896Y-7552984D01*
X3918896Y-7552984D02*
X3880801Y-7552984D01*
X3880801Y-7552984D02*
X3861753Y-7543460D01*
X4042705Y-7533936D02*
X4052229Y-7543460D01*
X4052229Y-7543460D02*
X4042705Y-7552984D01*
X4042705Y-7552984D02*
X4033182Y-7543460D01*
X4033182Y-7543460D02*
X4042705Y-7533936D01*
X4042705Y-7533936D02*
X4042705Y-7552984D01*
X4042705Y-7429174D02*
X4052229Y-7438698D01*
X4052229Y-7438698D02*
X4042705Y-7448222D01*
X4042705Y-7448222D02*
X4033182Y-7438698D01*
X4033182Y-7438698D02*
X4042705Y-7429174D01*
X4042705Y-7429174D02*
X4042705Y-7448222D01*
D12*
X2380500Y-7866500D02*
X2410500Y-7896500D01*
X2410500Y-7866500D02*
X2380500Y-7896500D01*
D11*
X2709372Y-7772984D02*
X2728420Y-7772984D01*
X2728420Y-7772984D02*
X2747467Y-7782508D01*
X2747467Y-7782508D02*
X2756991Y-7792031D01*
X2756991Y-7792031D02*
X2766515Y-7811079D01*
X2766515Y-7811079D02*
X2776039Y-7849174D01*
X2776039Y-7849174D02*
X2776039Y-7896793D01*
X2776039Y-7896793D02*
X2766515Y-7934888D01*
X2766515Y-7934888D02*
X2756991Y-7953936D01*
X2756991Y-7953936D02*
X2747467Y-7963460D01*
X2747467Y-7963460D02*
X2728420Y-7972984D01*
X2728420Y-7972984D02*
X2709372Y-7972984D01*
X2709372Y-7972984D02*
X2690324Y-7963460D01*
X2690324Y-7963460D02*
X2680801Y-7953936D01*
X2680801Y-7953936D02*
X2671277Y-7934888D01*
X2671277Y-7934888D02*
X2661753Y-7896793D01*
X2661753Y-7896793D02*
X2661753Y-7849174D01*
X2661753Y-7849174D02*
X2671277Y-7811079D01*
X2671277Y-7811079D02*
X2680801Y-7792031D01*
X2680801Y-7792031D02*
X2690324Y-7782508D01*
X2690324Y-7782508D02*
X2709372Y-7772984D01*
X2861753Y-7953936D02*
X2871277Y-7963460D01*
X2871277Y-7963460D02*
X2861753Y-7972984D01*
X2861753Y-7972984D02*
X2852229Y-7963460D01*
X2852229Y-7963460D02*
X2861753Y-7953936D01*
X2861753Y-7953936D02*
X2861753Y-7972984D01*
X2937943Y-7772984D02*
X3061753Y-7772984D01*
X3061753Y-7772984D02*
X2995086Y-7849174D01*
X2995086Y-7849174D02*
X3023658Y-7849174D01*
X3023658Y-7849174D02*
X3042705Y-7858698D01*
X3042705Y-7858698D02*
X3052229Y-7868222D01*
X3052229Y-7868222D02*
X3061753Y-7887269D01*
X3061753Y-7887269D02*
X3061753Y-7934888D01*
X3061753Y-7934888D02*
X3052229Y-7953936D01*
X3052229Y-7953936D02*
X3042705Y-7963460D01*
X3042705Y-7963460D02*
X3023658Y-7972984D01*
X3023658Y-7972984D02*
X2966515Y-7972984D01*
X2966515Y-7972984D02*
X2947467Y-7963460D01*
X2947467Y-7963460D02*
X2937943Y-7953936D01*
X3185562Y-7772984D02*
X3204610Y-7772984D01*
X3204610Y-7772984D02*
X3223658Y-7782508D01*
X3223658Y-7782508D02*
X3233182Y-7792031D01*
X3233182Y-7792031D02*
X3242705Y-7811079D01*
X3242705Y-7811079D02*
X3252229Y-7849174D01*
X3252229Y-7849174D02*
X3252229Y-7896793D01*
X3252229Y-7896793D02*
X3242705Y-7934888D01*
X3242705Y-7934888D02*
X3233182Y-7953936D01*
X3233182Y-7953936D02*
X3223658Y-7963460D01*
X3223658Y-7963460D02*
X3204610Y-7972984D01*
X3204610Y-7972984D02*
X3185562Y-7972984D01*
X3185562Y-7972984D02*
X3166515Y-7963460D01*
X3166515Y-7963460D02*
X3156991Y-7953936D01*
X3156991Y-7953936D02*
X3147467Y-7934888D01*
X3147467Y-7934888D02*
X3137943Y-7896793D01*
X3137943Y-7896793D02*
X3137943Y-7849174D01*
X3137943Y-7849174D02*
X3147467Y-7811079D01*
X3147467Y-7811079D02*
X3156991Y-7792031D01*
X3156991Y-7792031D02*
X3166515Y-7782508D01*
X3166515Y-7782508D02*
X3185562Y-7772984D01*
X3376039Y-7772984D02*
X3395086Y-7772984D01*
X3395086Y-7772984D02*
X3414134Y-7782508D01*
X3414134Y-7782508D02*
X3423658Y-7792031D01*
X3423658Y-7792031D02*
X3433182Y-7811079D01*
X3433182Y-7811079D02*
X3442705Y-7849174D01*
X3442705Y-7849174D02*
X3442705Y-7896793D01*
X3442705Y-7896793D02*
X3433182Y-7934888D01*
X3433182Y-7934888D02*
X3423658Y-7953936D01*
X3423658Y-7953936D02*
X3414134Y-7963460D01*
X3414134Y-7963460D02*
X3395086Y-7972984D01*
X3395086Y-7972984D02*
X3376039Y-7972984D01*
X3376039Y-7972984D02*
X3356991Y-7963460D01*
X3356991Y-7963460D02*
X3347467Y-7953936D01*
X3347467Y-7953936D02*
X3337943Y-7934888D01*
X3337943Y-7934888D02*
X3328420Y-7896793D01*
X3328420Y-7896793D02*
X3328420Y-7849174D01*
X3328420Y-7849174D02*
X3337943Y-7811079D01*
X3337943Y-7811079D02*
X3347467Y-7792031D01*
X3347467Y-7792031D02*
X3356991Y-7782508D01*
X3356991Y-7782508D02*
X3376039Y-7772984D01*
X3528420Y-7972984D02*
X3528420Y-7839650D01*
X3528420Y-7858698D02*
X3537943Y-7849174D01*
X3537943Y-7849174D02*
X3556991Y-7839650D01*
X3556991Y-7839650D02*
X3585563Y-7839650D01*
X3585563Y-7839650D02*
X3604610Y-7849174D01*
X3604610Y-7849174D02*
X3614134Y-7868222D01*
X3614134Y-7868222D02*
X3614134Y-7972984D01*
X3614134Y-7868222D02*
X3623658Y-7849174D01*
X3623658Y-7849174D02*
X3642705Y-7839650D01*
X3642705Y-7839650D02*
X3671277Y-7839650D01*
X3671277Y-7839650D02*
X3690324Y-7849174D01*
X3690324Y-7849174D02*
X3699848Y-7868222D01*
X3699848Y-7868222D02*
X3699848Y-7972984D01*
X3795086Y-7972984D02*
X3795086Y-7839650D01*
X3795086Y-7858698D02*
X3804610Y-7849174D01*
X3804610Y-7849174D02*
X3823658Y-7839650D01*
X3823658Y-7839650D02*
X3852229Y-7839650D01*
X3852229Y-7839650D02*
X3871277Y-7849174D01*
X3871277Y-7849174D02*
X3880801Y-7868222D01*
X3880801Y-7868222D02*
X3880801Y-7972984D01*
X3880801Y-7868222D02*
X3890324Y-7849174D01*
X3890324Y-7849174D02*
X3909372Y-7839650D01*
X3909372Y-7839650D02*
X3937943Y-7839650D01*
X3937943Y-7839650D02*
X3956991Y-7849174D01*
X3956991Y-7849174D02*
X3966515Y-7868222D01*
X3966515Y-7868222D02*
X3966515Y-7972984D01*
X4356991Y-7763460D02*
X4185563Y-8020603D01*
X4614134Y-7772984D02*
X4633182Y-7772984D01*
X4633182Y-7772984D02*
X4652229Y-7782508D01*
X4652229Y-7782508D02*
X4661753Y-7792031D01*
X4661753Y-7792031D02*
X4671277Y-7811079D01*
X4671277Y-7811079D02*
X4680801Y-7849174D01*
X4680801Y-7849174D02*
X4680801Y-7896793D01*
X4680801Y-7896793D02*
X4671277Y-7934888D01*
X4671277Y-7934888D02*
X4661753Y-7953936D01*
X4661753Y-7953936D02*
X4652229Y-7963460D01*
X4652229Y-7963460D02*
X4633182Y-7972984D01*
X4633182Y-7972984D02*
X4614134Y-7972984D01*
X4614134Y-7972984D02*
X4595087Y-7963460D01*
X4595087Y-7963460D02*
X4585563Y-7953936D01*
X4585563Y-7953936D02*
X4576039Y-7934888D01*
X4576039Y-7934888D02*
X4566515Y-7896793D01*
X4566515Y-7896793D02*
X4566515Y-7849174D01*
X4566515Y-7849174D02*
X4576039Y-7811079D01*
X4576039Y-7811079D02*
X4585563Y-7792031D01*
X4585563Y-7792031D02*
X4595087Y-7782508D01*
X4595087Y-7782508D02*
X4614134Y-7772984D01*
X4766515Y-7953936D02*
X4776039Y-7963460D01*
X4776039Y-7963460D02*
X4766515Y-7972984D01*
X4766515Y-7972984D02*
X4756991Y-7963460D01*
X4756991Y-7963460D02*
X4766515Y-7953936D01*
X4766515Y-7953936D02*
X4766515Y-7972984D01*
X4899848Y-7772984D02*
X4918896Y-7772984D01*
X4918896Y-7772984D02*
X4937944Y-7782508D01*
X4937944Y-7782508D02*
X4947468Y-7792031D01*
X4947468Y-7792031D02*
X4956991Y-7811079D01*
X4956991Y-7811079D02*
X4966515Y-7849174D01*
X4966515Y-7849174D02*
X4966515Y-7896793D01*
X4966515Y-7896793D02*
X4956991Y-7934888D01*
X4956991Y-7934888D02*
X4947468Y-7953936D01*
X4947468Y-7953936D02*
X4937944Y-7963460D01*
X4937944Y-7963460D02*
X4918896Y-7972984D01*
X4918896Y-7972984D02*
X4899848Y-7972984D01*
X4899848Y-7972984D02*
X4880801Y-7963460D01*
X4880801Y-7963460D02*
X4871277Y-7953936D01*
X4871277Y-7953936D02*
X4861753Y-7934888D01*
X4861753Y-7934888D02*
X4852229Y-7896793D01*
X4852229Y-7896793D02*
X4852229Y-7849174D01*
X4852229Y-7849174D02*
X4861753Y-7811079D01*
X4861753Y-7811079D02*
X4871277Y-7792031D01*
X4871277Y-7792031D02*
X4880801Y-7782508D01*
X4880801Y-7782508D02*
X4899848Y-7772984D01*
X5156991Y-7972984D02*
X5042706Y-7972984D01*
X5099848Y-7972984D02*
X5099848Y-7772984D01*
X5099848Y-7772984D02*
X5080801Y-7801555D01*
X5080801Y-7801555D02*
X5061753Y-7820603D01*
X5061753Y-7820603D02*
X5042706Y-7830127D01*
X5347468Y-7972984D02*
X5233182Y-7972984D01*
X5290325Y-7972984D02*
X5290325Y-7772984D01*
X5290325Y-7772984D02*
X5271277Y-7801555D01*
X5271277Y-7801555D02*
X5252229Y-7820603D01*
X5252229Y-7820603D02*
X5233182Y-7830127D01*
X5461753Y-7858698D02*
X5442706Y-7849174D01*
X5442706Y-7849174D02*
X5433182Y-7839650D01*
X5433182Y-7839650D02*
X5423658Y-7820603D01*
X5423658Y-7820603D02*
X5423658Y-7811079D01*
X5423658Y-7811079D02*
X5433182Y-7792031D01*
X5433182Y-7792031D02*
X5442706Y-7782508D01*
X5442706Y-7782508D02*
X5461753Y-7772984D01*
X5461753Y-7772984D02*
X5499849Y-7772984D01*
X5499849Y-7772984D02*
X5518896Y-7782508D01*
X5518896Y-7782508D02*
X5528420Y-7792031D01*
X5528420Y-7792031D02*
X5537944Y-7811079D01*
X5537944Y-7811079D02*
X5537944Y-7820603D01*
X5537944Y-7820603D02*
X5528420Y-7839650D01*
X5528420Y-7839650D02*
X5518896Y-7849174D01*
X5518896Y-7849174D02*
X5499849Y-7858698D01*
X5499849Y-7858698D02*
X5461753Y-7858698D01*
X5461753Y-7858698D02*
X5442706Y-7868222D01*
X5442706Y-7868222D02*
X5433182Y-7877746D01*
X5433182Y-7877746D02*
X5423658Y-7896793D01*
X5423658Y-7896793D02*
X5423658Y-7934888D01*
X5423658Y-7934888D02*
X5433182Y-7953936D01*
X5433182Y-7953936D02*
X5442706Y-7963460D01*
X5442706Y-7963460D02*
X5461753Y-7972984D01*
X5461753Y-7972984D02*
X5499849Y-7972984D01*
X5499849Y-7972984D02*
X5518896Y-7963460D01*
X5518896Y-7963460D02*
X5528420Y-7953936D01*
X5528420Y-7953936D02*
X5537944Y-7934888D01*
X5537944Y-7934888D02*
X5537944Y-7896793D01*
X5537944Y-7896793D02*
X5528420Y-7877746D01*
X5528420Y-7877746D02*
X5518896Y-7868222D01*
X5518896Y-7868222D02*
X5499849Y-7858698D01*
X5614134Y-7772984D02*
X5614134Y-7811079D01*
X5690325Y-7772984D02*
X5690325Y-7811079D01*
X5985563Y-8049174D02*
X5976039Y-8039650D01*
X5976039Y-8039650D02*
X5956991Y-8011079D01*
X5956991Y-8011079D02*
X5947468Y-7992031D01*
X5947468Y-7992031D02*
X5937944Y-7963460D01*
X5937944Y-7963460D02*
X5928420Y-7915841D01*
X5928420Y-7915841D02*
X5928420Y-7877746D01*
X5928420Y-7877746D02*
X5937944Y-7830127D01*
X5937944Y-7830127D02*
X5947468Y-7801555D01*
X5947468Y-7801555D02*
X5956991Y-7782508D01*
X5956991Y-7782508D02*
X5976039Y-7753936D01*
X5976039Y-7753936D02*
X5985563Y-7744412D01*
X6156991Y-7772984D02*
X6061753Y-7772984D01*
X6061753Y-7772984D02*
X6052229Y-7868222D01*
X6052229Y-7868222D02*
X6061753Y-7858698D01*
X6061753Y-7858698D02*
X6080801Y-7849174D01*
X6080801Y-7849174D02*
X6128420Y-7849174D01*
X6128420Y-7849174D02*
X6147468Y-7858698D01*
X6147468Y-7858698D02*
X6156991Y-7868222D01*
X6156991Y-7868222D02*
X6166515Y-7887269D01*
X6166515Y-7887269D02*
X6166515Y-7934888D01*
X6166515Y-7934888D02*
X6156991Y-7953936D01*
X6156991Y-7953936D02*
X6147468Y-7963460D01*
X6147468Y-7963460D02*
X6128420Y-7972984D01*
X6128420Y-7972984D02*
X6080801Y-7972984D01*
X6080801Y-7972984D02*
X6061753Y-7963460D01*
X6061753Y-7963460D02*
X6052229Y-7953936D01*
X6233182Y-7772984D02*
X6366515Y-7772984D01*
X6366515Y-7772984D02*
X6280801Y-7972984D01*
X6595087Y-7972984D02*
X6595087Y-7772984D01*
X6680801Y-7972984D02*
X6680801Y-7868222D01*
X6680801Y-7868222D02*
X6671277Y-7849174D01*
X6671277Y-7849174D02*
X6652230Y-7839650D01*
X6652230Y-7839650D02*
X6623658Y-7839650D01*
X6623658Y-7839650D02*
X6604610Y-7849174D01*
X6604610Y-7849174D02*
X6595087Y-7858698D01*
X6804610Y-7972984D02*
X6785563Y-7963460D01*
X6785563Y-7963460D02*
X6776039Y-7953936D01*
X6776039Y-7953936D02*
X6766515Y-7934888D01*
X6766515Y-7934888D02*
X6766515Y-7877746D01*
X6766515Y-7877746D02*
X6776039Y-7858698D01*
X6776039Y-7858698D02*
X6785563Y-7849174D01*
X6785563Y-7849174D02*
X6804610Y-7839650D01*
X6804610Y-7839650D02*
X6833182Y-7839650D01*
X6833182Y-7839650D02*
X6852230Y-7849174D01*
X6852230Y-7849174D02*
X6861753Y-7858698D01*
X6861753Y-7858698D02*
X6871277Y-7877746D01*
X6871277Y-7877746D02*
X6871277Y-7934888D01*
X6871277Y-7934888D02*
X6861753Y-7953936D01*
X6861753Y-7953936D02*
X6852230Y-7963460D01*
X6852230Y-7963460D02*
X6833182Y-7972984D01*
X6833182Y-7972984D02*
X6804610Y-7972984D01*
X6985563Y-7972984D02*
X6966515Y-7963460D01*
X6966515Y-7963460D02*
X6956991Y-7944412D01*
X6956991Y-7944412D02*
X6956991Y-7772984D01*
X7137944Y-7963460D02*
X7118896Y-7972984D01*
X7118896Y-7972984D02*
X7080801Y-7972984D01*
X7080801Y-7972984D02*
X7061753Y-7963460D01*
X7061753Y-7963460D02*
X7052230Y-7944412D01*
X7052230Y-7944412D02*
X7052230Y-7868222D01*
X7052230Y-7868222D02*
X7061753Y-7849174D01*
X7061753Y-7849174D02*
X7080801Y-7839650D01*
X7080801Y-7839650D02*
X7118896Y-7839650D01*
X7118896Y-7839650D02*
X7137944Y-7849174D01*
X7137944Y-7849174D02*
X7147468Y-7868222D01*
X7147468Y-7868222D02*
X7147468Y-7887269D01*
X7147468Y-7887269D02*
X7052230Y-7906317D01*
X7223658Y-7963460D02*
X7242706Y-7972984D01*
X7242706Y-7972984D02*
X7280801Y-7972984D01*
X7280801Y-7972984D02*
X7299849Y-7963460D01*
X7299849Y-7963460D02*
X7309372Y-7944412D01*
X7309372Y-7944412D02*
X7309372Y-7934888D01*
X7309372Y-7934888D02*
X7299849Y-7915841D01*
X7299849Y-7915841D02*
X7280801Y-7906317D01*
X7280801Y-7906317D02*
X7252230Y-7906317D01*
X7252230Y-7906317D02*
X7233182Y-7896793D01*
X7233182Y-7896793D02*
X7223658Y-7877746D01*
X7223658Y-7877746D02*
X7223658Y-7868222D01*
X7223658Y-7868222D02*
X7233182Y-7849174D01*
X7233182Y-7849174D02*
X7252230Y-7839650D01*
X7252230Y-7839650D02*
X7280801Y-7839650D01*
X7280801Y-7839650D02*
X7299849Y-7849174D01*
X7376039Y-8049174D02*
X7385563Y-8039650D01*
X7385563Y-8039650D02*
X7404611Y-8011079D01*
X7404611Y-8011079D02*
X7414134Y-7992031D01*
X7414134Y-7992031D02*
X7423658Y-7963460D01*
X7423658Y-7963460D02*
X7433182Y-7915841D01*
X7433182Y-7915841D02*
X7433182Y-7877746D01*
X7433182Y-7877746D02*
X7423658Y-7830127D01*
X7423658Y-7830127D02*
X7414134Y-7801555D01*
X7414134Y-7801555D02*
X7404611Y-7782508D01*
X7404611Y-7782508D02*
X7385563Y-7753936D01*
X7385563Y-7753936D02*
X7376039Y-7744412D01*
D12*
X2410500Y-8145500D02*
G75*
G03*
X2310500Y-8145500I-50000J0D01*
G01*
X2310500Y-8145500D02*
G75*
G03*
X2410500Y-8145500I50000J0D01*
G01*
D11*
X2776039Y-8236984D02*
X2661753Y-8236984D01*
X2718896Y-8236984D02*
X2718896Y-8036984D01*
X2718896Y-8036984D02*
X2699848Y-8065555D01*
X2699848Y-8065555D02*
X2680801Y-8084603D01*
X2680801Y-8084603D02*
X2661753Y-8094127D01*
X2861753Y-8217936D02*
X2871277Y-8227460D01*
X2871277Y-8227460D02*
X2861753Y-8236984D01*
X2861753Y-8236984D02*
X2852229Y-8227460D01*
X2852229Y-8227460D02*
X2861753Y-8217936D01*
X2861753Y-8217936D02*
X2861753Y-8236984D01*
X2995086Y-8036984D02*
X3014134Y-8036984D01*
X3014134Y-8036984D02*
X3033182Y-8046508D01*
X3033182Y-8046508D02*
X3042705Y-8056031D01*
X3042705Y-8056031D02*
X3052229Y-8075079D01*
X3052229Y-8075079D02*
X3061753Y-8113174D01*
X3061753Y-8113174D02*
X3061753Y-8160793D01*
X3061753Y-8160793D02*
X3052229Y-8198888D01*
X3052229Y-8198888D02*
X3042705Y-8217936D01*
X3042705Y-8217936D02*
X3033182Y-8227460D01*
X3033182Y-8227460D02*
X3014134Y-8236984D01*
X3014134Y-8236984D02*
X2995086Y-8236984D01*
X2995086Y-8236984D02*
X2976039Y-8227460D01*
X2976039Y-8227460D02*
X2966515Y-8217936D01*
X2966515Y-8217936D02*
X2956991Y-8198888D01*
X2956991Y-8198888D02*
X2947467Y-8160793D01*
X2947467Y-8160793D02*
X2947467Y-8113174D01*
X2947467Y-8113174D02*
X2956991Y-8075079D01*
X2956991Y-8075079D02*
X2966515Y-8056031D01*
X2966515Y-8056031D02*
X2976039Y-8046508D01*
X2976039Y-8046508D02*
X2995086Y-8036984D01*
X3185562Y-8036984D02*
X3204610Y-8036984D01*
X3204610Y-8036984D02*
X3223658Y-8046508D01*
X3223658Y-8046508D02*
X3233182Y-8056031D01*
X3233182Y-8056031D02*
X3242705Y-8075079D01*
X3242705Y-8075079D02*
X3252229Y-8113174D01*
X3252229Y-8113174D02*
X3252229Y-8160793D01*
X3252229Y-8160793D02*
X3242705Y-8198888D01*
X3242705Y-8198888D02*
X3233182Y-8217936D01*
X3233182Y-8217936D02*
X3223658Y-8227460D01*
X3223658Y-8227460D02*
X3204610Y-8236984D01*
X3204610Y-8236984D02*
X3185562Y-8236984D01*
X3185562Y-8236984D02*
X3166515Y-8227460D01*
X3166515Y-8227460D02*
X3156991Y-8217936D01*
X3156991Y-8217936D02*
X3147467Y-8198888D01*
X3147467Y-8198888D02*
X3137943Y-8160793D01*
X3137943Y-8160793D02*
X3137943Y-8113174D01*
X3137943Y-8113174D02*
X3147467Y-8075079D01*
X3147467Y-8075079D02*
X3156991Y-8056031D01*
X3156991Y-8056031D02*
X3166515Y-8046508D01*
X3166515Y-8046508D02*
X3185562Y-8036984D01*
X3376039Y-8036984D02*
X3395086Y-8036984D01*
X3395086Y-8036984D02*
X3414134Y-8046508D01*
X3414134Y-8046508D02*
X3423658Y-8056031D01*
X3423658Y-8056031D02*
X3433182Y-8075079D01*
X3433182Y-8075079D02*
X3442705Y-8113174D01*
X3442705Y-8113174D02*
X3442705Y-8160793D01*
X3442705Y-8160793D02*
X3433182Y-8198888D01*
X3433182Y-8198888D02*
X3423658Y-8217936D01*
X3423658Y-8217936D02*
X3414134Y-8227460D01*
X3414134Y-8227460D02*
X3395086Y-8236984D01*
X3395086Y-8236984D02*
X3376039Y-8236984D01*
X3376039Y-8236984D02*
X3356991Y-8227460D01*
X3356991Y-8227460D02*
X3347467Y-8217936D01*
X3347467Y-8217936D02*
X3337943Y-8198888D01*
X3337943Y-8198888D02*
X3328420Y-8160793D01*
X3328420Y-8160793D02*
X3328420Y-8113174D01*
X3328420Y-8113174D02*
X3337943Y-8075079D01*
X3337943Y-8075079D02*
X3347467Y-8056031D01*
X3347467Y-8056031D02*
X3356991Y-8046508D01*
X3356991Y-8046508D02*
X3376039Y-8036984D01*
X3528420Y-8236984D02*
X3528420Y-8103650D01*
X3528420Y-8122698D02*
X3537943Y-8113174D01*
X3537943Y-8113174D02*
X3556991Y-8103650D01*
X3556991Y-8103650D02*
X3585563Y-8103650D01*
X3585563Y-8103650D02*
X3604610Y-8113174D01*
X3604610Y-8113174D02*
X3614134Y-8132222D01*
X3614134Y-8132222D02*
X3614134Y-8236984D01*
X3614134Y-8132222D02*
X3623658Y-8113174D01*
X3623658Y-8113174D02*
X3642705Y-8103650D01*
X3642705Y-8103650D02*
X3671277Y-8103650D01*
X3671277Y-8103650D02*
X3690324Y-8113174D01*
X3690324Y-8113174D02*
X3699848Y-8132222D01*
X3699848Y-8132222D02*
X3699848Y-8236984D01*
X3795086Y-8236984D02*
X3795086Y-8103650D01*
X3795086Y-8122698D02*
X3804610Y-8113174D01*
X3804610Y-8113174D02*
X3823658Y-8103650D01*
X3823658Y-8103650D02*
X3852229Y-8103650D01*
X3852229Y-8103650D02*
X3871277Y-8113174D01*
X3871277Y-8113174D02*
X3880801Y-8132222D01*
X3880801Y-8132222D02*
X3880801Y-8236984D01*
X3880801Y-8132222D02*
X3890324Y-8113174D01*
X3890324Y-8113174D02*
X3909372Y-8103650D01*
X3909372Y-8103650D02*
X3937943Y-8103650D01*
X3937943Y-8103650D02*
X3956991Y-8113174D01*
X3956991Y-8113174D02*
X3966515Y-8132222D01*
X3966515Y-8132222D02*
X3966515Y-8236984D01*
X4356991Y-8027460D02*
X4185563Y-8284603D01*
X4614134Y-8036984D02*
X4633182Y-8036984D01*
X4633182Y-8036984D02*
X4652229Y-8046508D01*
X4652229Y-8046508D02*
X4661753Y-8056031D01*
X4661753Y-8056031D02*
X4671277Y-8075079D01*
X4671277Y-8075079D02*
X4680801Y-8113174D01*
X4680801Y-8113174D02*
X4680801Y-8160793D01*
X4680801Y-8160793D02*
X4671277Y-8198888D01*
X4671277Y-8198888D02*
X4661753Y-8217936D01*
X4661753Y-8217936D02*
X4652229Y-8227460D01*
X4652229Y-8227460D02*
X4633182Y-8236984D01*
X4633182Y-8236984D02*
X4614134Y-8236984D01*
X4614134Y-8236984D02*
X4595087Y-8227460D01*
X4595087Y-8227460D02*
X4585563Y-8217936D01*
X4585563Y-8217936D02*
X4576039Y-8198888D01*
X4576039Y-8198888D02*
X4566515Y-8160793D01*
X4566515Y-8160793D02*
X4566515Y-8113174D01*
X4566515Y-8113174D02*
X4576039Y-8075079D01*
X4576039Y-8075079D02*
X4585563Y-8056031D01*
X4585563Y-8056031D02*
X4595087Y-8046508D01*
X4595087Y-8046508D02*
X4614134Y-8036984D01*
X4766515Y-8217936D02*
X4776039Y-8227460D01*
X4776039Y-8227460D02*
X4766515Y-8236984D01*
X4766515Y-8236984D02*
X4756991Y-8227460D01*
X4756991Y-8227460D02*
X4766515Y-8217936D01*
X4766515Y-8217936D02*
X4766515Y-8236984D01*
X4899848Y-8036984D02*
X4918896Y-8036984D01*
X4918896Y-8036984D02*
X4937944Y-8046508D01*
X4937944Y-8046508D02*
X4947468Y-8056031D01*
X4947468Y-8056031D02*
X4956991Y-8075079D01*
X4956991Y-8075079D02*
X4966515Y-8113174D01*
X4966515Y-8113174D02*
X4966515Y-8160793D01*
X4966515Y-8160793D02*
X4956991Y-8198888D01*
X4956991Y-8198888D02*
X4947468Y-8217936D01*
X4947468Y-8217936D02*
X4937944Y-8227460D01*
X4937944Y-8227460D02*
X4918896Y-8236984D01*
X4918896Y-8236984D02*
X4899848Y-8236984D01*
X4899848Y-8236984D02*
X4880801Y-8227460D01*
X4880801Y-8227460D02*
X4871277Y-8217936D01*
X4871277Y-8217936D02*
X4861753Y-8198888D01*
X4861753Y-8198888D02*
X4852229Y-8160793D01*
X4852229Y-8160793D02*
X4852229Y-8113174D01*
X4852229Y-8113174D02*
X4861753Y-8075079D01*
X4861753Y-8075079D02*
X4871277Y-8056031D01*
X4871277Y-8056031D02*
X4880801Y-8046508D01*
X4880801Y-8046508D02*
X4899848Y-8036984D01*
X5033182Y-8036984D02*
X5156991Y-8036984D01*
X5156991Y-8036984D02*
X5090325Y-8113174D01*
X5090325Y-8113174D02*
X5118896Y-8113174D01*
X5118896Y-8113174D02*
X5137944Y-8122698D01*
X5137944Y-8122698D02*
X5147468Y-8132222D01*
X5147468Y-8132222D02*
X5156991Y-8151269D01*
X5156991Y-8151269D02*
X5156991Y-8198888D01*
X5156991Y-8198888D02*
X5147468Y-8217936D01*
X5147468Y-8217936D02*
X5137944Y-8227460D01*
X5137944Y-8227460D02*
X5118896Y-8236984D01*
X5118896Y-8236984D02*
X5061753Y-8236984D01*
X5061753Y-8236984D02*
X5042706Y-8227460D01*
X5042706Y-8227460D02*
X5033182Y-8217936D01*
X5252229Y-8236984D02*
X5290325Y-8236984D01*
X5290325Y-8236984D02*
X5309372Y-8227460D01*
X5309372Y-8227460D02*
X5318896Y-8217936D01*
X5318896Y-8217936D02*
X5337944Y-8189365D01*
X5337944Y-8189365D02*
X5347468Y-8151269D01*
X5347468Y-8151269D02*
X5347468Y-8075079D01*
X5347468Y-8075079D02*
X5337944Y-8056031D01*
X5337944Y-8056031D02*
X5328420Y-8046508D01*
X5328420Y-8046508D02*
X5309372Y-8036984D01*
X5309372Y-8036984D02*
X5271277Y-8036984D01*
X5271277Y-8036984D02*
X5252229Y-8046508D01*
X5252229Y-8046508D02*
X5242706Y-8056031D01*
X5242706Y-8056031D02*
X5233182Y-8075079D01*
X5233182Y-8075079D02*
X5233182Y-8122698D01*
X5233182Y-8122698D02*
X5242706Y-8141746D01*
X5242706Y-8141746D02*
X5252229Y-8151269D01*
X5252229Y-8151269D02*
X5271277Y-8160793D01*
X5271277Y-8160793D02*
X5309372Y-8160793D01*
X5309372Y-8160793D02*
X5328420Y-8151269D01*
X5328420Y-8151269D02*
X5337944Y-8141746D01*
X5337944Y-8141746D02*
X5347468Y-8122698D01*
X5518896Y-8103650D02*
X5518896Y-8236984D01*
X5471277Y-8027460D02*
X5423658Y-8170317D01*
X5423658Y-8170317D02*
X5547468Y-8170317D01*
X5614134Y-8036984D02*
X5614134Y-8075079D01*
X5690325Y-8036984D02*
X5690325Y-8075079D01*
X5985563Y-8313174D02*
X5976039Y-8303650D01*
X5976039Y-8303650D02*
X5956991Y-8275079D01*
X5956991Y-8275079D02*
X5947468Y-8256031D01*
X5947468Y-8256031D02*
X5937944Y-8227460D01*
X5937944Y-8227460D02*
X5928420Y-8179841D01*
X5928420Y-8179841D02*
X5928420Y-8141746D01*
X5928420Y-8141746D02*
X5937944Y-8094127D01*
X5937944Y-8094127D02*
X5947468Y-8065555D01*
X5947468Y-8065555D02*
X5956991Y-8046508D01*
X5956991Y-8046508D02*
X5976039Y-8017936D01*
X5976039Y-8017936D02*
X5985563Y-8008412D01*
X6090325Y-8122698D02*
X6071277Y-8113174D01*
X6071277Y-8113174D02*
X6061753Y-8103650D01*
X6061753Y-8103650D02*
X6052229Y-8084603D01*
X6052229Y-8084603D02*
X6052229Y-8075079D01*
X6052229Y-8075079D02*
X6061753Y-8056031D01*
X6061753Y-8056031D02*
X6071277Y-8046508D01*
X6071277Y-8046508D02*
X6090325Y-8036984D01*
X6090325Y-8036984D02*
X6128420Y-8036984D01*
X6128420Y-8036984D02*
X6147468Y-8046508D01*
X6147468Y-8046508D02*
X6156991Y-8056031D01*
X6156991Y-8056031D02*
X6166515Y-8075079D01*
X6166515Y-8075079D02*
X6166515Y-8084603D01*
X6166515Y-8084603D02*
X6156991Y-8103650D01*
X6156991Y-8103650D02*
X6147468Y-8113174D01*
X6147468Y-8113174D02*
X6128420Y-8122698D01*
X6128420Y-8122698D02*
X6090325Y-8122698D01*
X6090325Y-8122698D02*
X6071277Y-8132222D01*
X6071277Y-8132222D02*
X6061753Y-8141746D01*
X6061753Y-8141746D02*
X6052229Y-8160793D01*
X6052229Y-8160793D02*
X6052229Y-8198888D01*
X6052229Y-8198888D02*
X6061753Y-8217936D01*
X6061753Y-8217936D02*
X6071277Y-8227460D01*
X6071277Y-8227460D02*
X6090325Y-8236984D01*
X6090325Y-8236984D02*
X6128420Y-8236984D01*
X6128420Y-8236984D02*
X6147468Y-8227460D01*
X6147468Y-8227460D02*
X6156991Y-8217936D01*
X6156991Y-8217936D02*
X6166515Y-8198888D01*
X6166515Y-8198888D02*
X6166515Y-8160793D01*
X6166515Y-8160793D02*
X6156991Y-8141746D01*
X6156991Y-8141746D02*
X6147468Y-8132222D01*
X6147468Y-8132222D02*
X6128420Y-8122698D01*
X6404610Y-8236984D02*
X6404610Y-8036984D01*
X6490325Y-8236984D02*
X6490325Y-8132222D01*
X6490325Y-8132222D02*
X6480801Y-8113174D01*
X6480801Y-8113174D02*
X6461753Y-8103650D01*
X6461753Y-8103650D02*
X6433182Y-8103650D01*
X6433182Y-8103650D02*
X6414134Y-8113174D01*
X6414134Y-8113174D02*
X6404610Y-8122698D01*
X6614134Y-8236984D02*
X6595087Y-8227460D01*
X6595087Y-8227460D02*
X6585563Y-8217936D01*
X6585563Y-8217936D02*
X6576039Y-8198888D01*
X6576039Y-8198888D02*
X6576039Y-8141746D01*
X6576039Y-8141746D02*
X6585563Y-8122698D01*
X6585563Y-8122698D02*
X6595087Y-8113174D01*
X6595087Y-8113174D02*
X6614134Y-8103650D01*
X6614134Y-8103650D02*
X6642706Y-8103650D01*
X6642706Y-8103650D02*
X6661753Y-8113174D01*
X6661753Y-8113174D02*
X6671277Y-8122698D01*
X6671277Y-8122698D02*
X6680801Y-8141746D01*
X6680801Y-8141746D02*
X6680801Y-8198888D01*
X6680801Y-8198888D02*
X6671277Y-8217936D01*
X6671277Y-8217936D02*
X6661753Y-8227460D01*
X6661753Y-8227460D02*
X6642706Y-8236984D01*
X6642706Y-8236984D02*
X6614134Y-8236984D01*
X6795087Y-8236984D02*
X6776039Y-8227460D01*
X6776039Y-8227460D02*
X6766515Y-8208412D01*
X6766515Y-8208412D02*
X6766515Y-8036984D01*
X6947468Y-8227460D02*
X6928420Y-8236984D01*
X6928420Y-8236984D02*
X6890325Y-8236984D01*
X6890325Y-8236984D02*
X6871277Y-8227460D01*
X6871277Y-8227460D02*
X6861753Y-8208412D01*
X6861753Y-8208412D02*
X6861753Y-8132222D01*
X6861753Y-8132222D02*
X6871277Y-8113174D01*
X6871277Y-8113174D02*
X6890325Y-8103650D01*
X6890325Y-8103650D02*
X6928420Y-8103650D01*
X6928420Y-8103650D02*
X6947468Y-8113174D01*
X6947468Y-8113174D02*
X6956991Y-8132222D01*
X6956991Y-8132222D02*
X6956991Y-8151269D01*
X6956991Y-8151269D02*
X6861753Y-8170317D01*
X7033182Y-8227460D02*
X7052230Y-8236984D01*
X7052230Y-8236984D02*
X7090325Y-8236984D01*
X7090325Y-8236984D02*
X7109372Y-8227460D01*
X7109372Y-8227460D02*
X7118896Y-8208412D01*
X7118896Y-8208412D02*
X7118896Y-8198888D01*
X7118896Y-8198888D02*
X7109372Y-8179841D01*
X7109372Y-8179841D02*
X7090325Y-8170317D01*
X7090325Y-8170317D02*
X7061753Y-8170317D01*
X7061753Y-8170317D02*
X7042706Y-8160793D01*
X7042706Y-8160793D02*
X7033182Y-8141746D01*
X7033182Y-8141746D02*
X7033182Y-8132222D01*
X7033182Y-8132222D02*
X7042706Y-8113174D01*
X7042706Y-8113174D02*
X7061753Y-8103650D01*
X7061753Y-8103650D02*
X7090325Y-8103650D01*
X7090325Y-8103650D02*
X7109372Y-8113174D01*
X7185563Y-8313174D02*
X7195087Y-8303650D01*
X7195087Y-8303650D02*
X7214134Y-8275079D01*
X7214134Y-8275079D02*
X7223658Y-8256031D01*
X7223658Y-8256031D02*
X7233182Y-8227460D01*
X7233182Y-8227460D02*
X7242706Y-8179841D01*
X7242706Y-8179841D02*
X7242706Y-8141746D01*
X7242706Y-8141746D02*
X7233182Y-8094127D01*
X7233182Y-8094127D02*
X7223658Y-8065555D01*
X7223658Y-8065555D02*
X7214134Y-8046508D01*
X7214134Y-8046508D02*
X7195087Y-8017936D01*
X7195087Y-8017936D02*
X7185563Y-8008412D01*
D13*
X2334500Y-8333500D02*
X2334500Y-8485500D01*
X2258500Y-8409500D02*
X2410500Y-8409500D01*
D11*
X2776039Y-8500984D02*
X2661753Y-8500984D01*
X2718896Y-8500984D02*
X2718896Y-8300984D01*
X2718896Y-8300984D02*
X2699848Y-8329555D01*
X2699848Y-8329555D02*
X2680801Y-8348603D01*
X2680801Y-8348603D02*
X2661753Y-8358127D01*
X2861753Y-8481936D02*
X2871277Y-8491460D01*
X2871277Y-8491460D02*
X2861753Y-8500984D01*
X2861753Y-8500984D02*
X2852229Y-8491460D01*
X2852229Y-8491460D02*
X2861753Y-8481936D01*
X2861753Y-8481936D02*
X2861753Y-8500984D01*
X3052229Y-8300984D02*
X2956991Y-8300984D01*
X2956991Y-8300984D02*
X2947467Y-8396222D01*
X2947467Y-8396222D02*
X2956991Y-8386698D01*
X2956991Y-8386698D02*
X2976039Y-8377174D01*
X2976039Y-8377174D02*
X3023658Y-8377174D01*
X3023658Y-8377174D02*
X3042705Y-8386698D01*
X3042705Y-8386698D02*
X3052229Y-8396222D01*
X3052229Y-8396222D02*
X3061753Y-8415270D01*
X3061753Y-8415270D02*
X3061753Y-8462889D01*
X3061753Y-8462889D02*
X3052229Y-8481936D01*
X3052229Y-8481936D02*
X3042705Y-8491460D01*
X3042705Y-8491460D02*
X3023658Y-8500984D01*
X3023658Y-8500984D02*
X2976039Y-8500984D01*
X2976039Y-8500984D02*
X2956991Y-8491460D01*
X2956991Y-8491460D02*
X2947467Y-8481936D01*
X3137943Y-8320031D02*
X3147467Y-8310508D01*
X3147467Y-8310508D02*
X3166515Y-8300984D01*
X3166515Y-8300984D02*
X3214134Y-8300984D01*
X3214134Y-8300984D02*
X3233182Y-8310508D01*
X3233182Y-8310508D02*
X3242705Y-8320031D01*
X3242705Y-8320031D02*
X3252229Y-8339079D01*
X3252229Y-8339079D02*
X3252229Y-8358127D01*
X3252229Y-8358127D02*
X3242705Y-8386698D01*
X3242705Y-8386698D02*
X3128420Y-8500984D01*
X3128420Y-8500984D02*
X3252229Y-8500984D01*
X3376039Y-8300984D02*
X3395086Y-8300984D01*
X3395086Y-8300984D02*
X3414134Y-8310508D01*
X3414134Y-8310508D02*
X3423658Y-8320031D01*
X3423658Y-8320031D02*
X3433182Y-8339079D01*
X3433182Y-8339079D02*
X3442705Y-8377174D01*
X3442705Y-8377174D02*
X3442705Y-8424793D01*
X3442705Y-8424793D02*
X3433182Y-8462889D01*
X3433182Y-8462889D02*
X3423658Y-8481936D01*
X3423658Y-8481936D02*
X3414134Y-8491460D01*
X3414134Y-8491460D02*
X3395086Y-8500984D01*
X3395086Y-8500984D02*
X3376039Y-8500984D01*
X3376039Y-8500984D02*
X3356991Y-8491460D01*
X3356991Y-8491460D02*
X3347467Y-8481936D01*
X3347467Y-8481936D02*
X3337943Y-8462889D01*
X3337943Y-8462889D02*
X3328420Y-8424793D01*
X3328420Y-8424793D02*
X3328420Y-8377174D01*
X3328420Y-8377174D02*
X3337943Y-8339079D01*
X3337943Y-8339079D02*
X3347467Y-8320031D01*
X3347467Y-8320031D02*
X3356991Y-8310508D01*
X3356991Y-8310508D02*
X3376039Y-8300984D01*
X3528420Y-8500984D02*
X3528420Y-8367650D01*
X3528420Y-8386698D02*
X3537943Y-8377174D01*
X3537943Y-8377174D02*
X3556991Y-8367650D01*
X3556991Y-8367650D02*
X3585563Y-8367650D01*
X3585563Y-8367650D02*
X3604610Y-8377174D01*
X3604610Y-8377174D02*
X3614134Y-8396222D01*
X3614134Y-8396222D02*
X3614134Y-8500984D01*
X3614134Y-8396222D02*
X3623658Y-8377174D01*
X3623658Y-8377174D02*
X3642705Y-8367650D01*
X3642705Y-8367650D02*
X3671277Y-8367650D01*
X3671277Y-8367650D02*
X3690324Y-8377174D01*
X3690324Y-8377174D02*
X3699848Y-8396222D01*
X3699848Y-8396222D02*
X3699848Y-8500984D01*
X3795086Y-8500984D02*
X3795086Y-8367650D01*
X3795086Y-8386698D02*
X3804610Y-8377174D01*
X3804610Y-8377174D02*
X3823658Y-8367650D01*
X3823658Y-8367650D02*
X3852229Y-8367650D01*
X3852229Y-8367650D02*
X3871277Y-8377174D01*
X3871277Y-8377174D02*
X3880801Y-8396222D01*
X3880801Y-8396222D02*
X3880801Y-8500984D01*
X3880801Y-8396222D02*
X3890324Y-8377174D01*
X3890324Y-8377174D02*
X3909372Y-8367650D01*
X3909372Y-8367650D02*
X3937943Y-8367650D01*
X3937943Y-8367650D02*
X3956991Y-8377174D01*
X3956991Y-8377174D02*
X3966515Y-8396222D01*
X3966515Y-8396222D02*
X3966515Y-8500984D01*
X4356991Y-8291460D02*
X4185563Y-8548603D01*
X4614134Y-8300984D02*
X4633182Y-8300984D01*
X4633182Y-8300984D02*
X4652229Y-8310508D01*
X4652229Y-8310508D02*
X4661753Y-8320031D01*
X4661753Y-8320031D02*
X4671277Y-8339079D01*
X4671277Y-8339079D02*
X4680801Y-8377174D01*
X4680801Y-8377174D02*
X4680801Y-8424793D01*
X4680801Y-8424793D02*
X4671277Y-8462889D01*
X4671277Y-8462889D02*
X4661753Y-8481936D01*
X4661753Y-8481936D02*
X4652229Y-8491460D01*
X4652229Y-8491460D02*
X4633182Y-8500984D01*
X4633182Y-8500984D02*
X4614134Y-8500984D01*
X4614134Y-8500984D02*
X4595087Y-8491460D01*
X4595087Y-8491460D02*
X4585563Y-8481936D01*
X4585563Y-8481936D02*
X4576039Y-8462889D01*
X4576039Y-8462889D02*
X4566515Y-8424793D01*
X4566515Y-8424793D02*
X4566515Y-8377174D01*
X4566515Y-8377174D02*
X4576039Y-8339079D01*
X4576039Y-8339079D02*
X4585563Y-8320031D01*
X4585563Y-8320031D02*
X4595087Y-8310508D01*
X4595087Y-8310508D02*
X4614134Y-8300984D01*
X4766515Y-8481936D02*
X4776039Y-8491460D01*
X4776039Y-8491460D02*
X4766515Y-8500984D01*
X4766515Y-8500984D02*
X4756991Y-8491460D01*
X4756991Y-8491460D02*
X4766515Y-8481936D01*
X4766515Y-8481936D02*
X4766515Y-8500984D01*
X4899848Y-8300984D02*
X4918896Y-8300984D01*
X4918896Y-8300984D02*
X4937944Y-8310508D01*
X4937944Y-8310508D02*
X4947468Y-8320031D01*
X4947468Y-8320031D02*
X4956991Y-8339079D01*
X4956991Y-8339079D02*
X4966515Y-8377174D01*
X4966515Y-8377174D02*
X4966515Y-8424793D01*
X4966515Y-8424793D02*
X4956991Y-8462889D01*
X4956991Y-8462889D02*
X4947468Y-8481936D01*
X4947468Y-8481936D02*
X4937944Y-8491460D01*
X4937944Y-8491460D02*
X4918896Y-8500984D01*
X4918896Y-8500984D02*
X4899848Y-8500984D01*
X4899848Y-8500984D02*
X4880801Y-8491460D01*
X4880801Y-8491460D02*
X4871277Y-8481936D01*
X4871277Y-8481936D02*
X4861753Y-8462889D01*
X4861753Y-8462889D02*
X4852229Y-8424793D01*
X4852229Y-8424793D02*
X4852229Y-8377174D01*
X4852229Y-8377174D02*
X4861753Y-8339079D01*
X4861753Y-8339079D02*
X4871277Y-8320031D01*
X4871277Y-8320031D02*
X4880801Y-8310508D01*
X4880801Y-8310508D02*
X4899848Y-8300984D01*
X5147468Y-8300984D02*
X5052229Y-8300984D01*
X5052229Y-8300984D02*
X5042706Y-8396222D01*
X5042706Y-8396222D02*
X5052229Y-8386698D01*
X5052229Y-8386698D02*
X5071277Y-8377174D01*
X5071277Y-8377174D02*
X5118896Y-8377174D01*
X5118896Y-8377174D02*
X5137944Y-8386698D01*
X5137944Y-8386698D02*
X5147468Y-8396222D01*
X5147468Y-8396222D02*
X5156991Y-8415270D01*
X5156991Y-8415270D02*
X5156991Y-8462889D01*
X5156991Y-8462889D02*
X5147468Y-8481936D01*
X5147468Y-8481936D02*
X5137944Y-8491460D01*
X5137944Y-8491460D02*
X5118896Y-8500984D01*
X5118896Y-8500984D02*
X5071277Y-8500984D01*
X5071277Y-8500984D02*
X5052229Y-8491460D01*
X5052229Y-8491460D02*
X5042706Y-8481936D01*
X5252229Y-8500984D02*
X5290325Y-8500984D01*
X5290325Y-8500984D02*
X5309372Y-8491460D01*
X5309372Y-8491460D02*
X5318896Y-8481936D01*
X5318896Y-8481936D02*
X5337944Y-8453365D01*
X5337944Y-8453365D02*
X5347468Y-8415270D01*
X5347468Y-8415270D02*
X5347468Y-8339079D01*
X5347468Y-8339079D02*
X5337944Y-8320031D01*
X5337944Y-8320031D02*
X5328420Y-8310508D01*
X5328420Y-8310508D02*
X5309372Y-8300984D01*
X5309372Y-8300984D02*
X5271277Y-8300984D01*
X5271277Y-8300984D02*
X5252229Y-8310508D01*
X5252229Y-8310508D02*
X5242706Y-8320031D01*
X5242706Y-8320031D02*
X5233182Y-8339079D01*
X5233182Y-8339079D02*
X5233182Y-8386698D01*
X5233182Y-8386698D02*
X5242706Y-8405746D01*
X5242706Y-8405746D02*
X5252229Y-8415270D01*
X5252229Y-8415270D02*
X5271277Y-8424793D01*
X5271277Y-8424793D02*
X5309372Y-8424793D01*
X5309372Y-8424793D02*
X5328420Y-8415270D01*
X5328420Y-8415270D02*
X5337944Y-8405746D01*
X5337944Y-8405746D02*
X5347468Y-8386698D01*
X5461753Y-8386698D02*
X5442706Y-8377174D01*
X5442706Y-8377174D02*
X5433182Y-8367650D01*
X5433182Y-8367650D02*
X5423658Y-8348603D01*
X5423658Y-8348603D02*
X5423658Y-8339079D01*
X5423658Y-8339079D02*
X5433182Y-8320031D01*
X5433182Y-8320031D02*
X5442706Y-8310508D01*
X5442706Y-8310508D02*
X5461753Y-8300984D01*
X5461753Y-8300984D02*
X5499849Y-8300984D01*
X5499849Y-8300984D02*
X5518896Y-8310508D01*
X5518896Y-8310508D02*
X5528420Y-8320031D01*
X5528420Y-8320031D02*
X5537944Y-8339079D01*
X5537944Y-8339079D02*
X5537944Y-8348603D01*
X5537944Y-8348603D02*
X5528420Y-8367650D01*
X5528420Y-8367650D02*
X5518896Y-8377174D01*
X5518896Y-8377174D02*
X5499849Y-8386698D01*
X5499849Y-8386698D02*
X5461753Y-8386698D01*
X5461753Y-8386698D02*
X5442706Y-8396222D01*
X5442706Y-8396222D02*
X5433182Y-8405746D01*
X5433182Y-8405746D02*
X5423658Y-8424793D01*
X5423658Y-8424793D02*
X5423658Y-8462889D01*
X5423658Y-8462889D02*
X5433182Y-8481936D01*
X5433182Y-8481936D02*
X5442706Y-8491460D01*
X5442706Y-8491460D02*
X5461753Y-8500984D01*
X5461753Y-8500984D02*
X5499849Y-8500984D01*
X5499849Y-8500984D02*
X5518896Y-8491460D01*
X5518896Y-8491460D02*
X5528420Y-8481936D01*
X5528420Y-8481936D02*
X5537944Y-8462889D01*
X5537944Y-8462889D02*
X5537944Y-8424793D01*
X5537944Y-8424793D02*
X5528420Y-8405746D01*
X5528420Y-8405746D02*
X5518896Y-8396222D01*
X5518896Y-8396222D02*
X5499849Y-8386698D01*
X5614134Y-8300984D02*
X5614134Y-8339079D01*
X5690325Y-8300984D02*
X5690325Y-8339079D01*
X5985563Y-8577174D02*
X5976039Y-8567650D01*
X5976039Y-8567650D02*
X5956991Y-8539079D01*
X5956991Y-8539079D02*
X5947468Y-8520031D01*
X5947468Y-8520031D02*
X5937944Y-8491460D01*
X5937944Y-8491460D02*
X5928420Y-8443841D01*
X5928420Y-8443841D02*
X5928420Y-8405746D01*
X5928420Y-8405746D02*
X5937944Y-8358127D01*
X5937944Y-8358127D02*
X5947468Y-8329555D01*
X5947468Y-8329555D02*
X5956991Y-8310508D01*
X5956991Y-8310508D02*
X5976039Y-8281936D01*
X5976039Y-8281936D02*
X5985563Y-8272412D01*
X6090325Y-8386698D02*
X6071277Y-8377174D01*
X6071277Y-8377174D02*
X6061753Y-8367650D01*
X6061753Y-8367650D02*
X6052229Y-8348603D01*
X6052229Y-8348603D02*
X6052229Y-8339079D01*
X6052229Y-8339079D02*
X6061753Y-8320031D01*
X6061753Y-8320031D02*
X6071277Y-8310508D01*
X6071277Y-8310508D02*
X6090325Y-8300984D01*
X6090325Y-8300984D02*
X6128420Y-8300984D01*
X6128420Y-8300984D02*
X6147468Y-8310508D01*
X6147468Y-8310508D02*
X6156991Y-8320031D01*
X6156991Y-8320031D02*
X6166515Y-8339079D01*
X6166515Y-8339079D02*
X6166515Y-8348603D01*
X6166515Y-8348603D02*
X6156991Y-8367650D01*
X6156991Y-8367650D02*
X6147468Y-8377174D01*
X6147468Y-8377174D02*
X6128420Y-8386698D01*
X6128420Y-8386698D02*
X6090325Y-8386698D01*
X6090325Y-8386698D02*
X6071277Y-8396222D01*
X6071277Y-8396222D02*
X6061753Y-8405746D01*
X6061753Y-8405746D02*
X6052229Y-8424793D01*
X6052229Y-8424793D02*
X6052229Y-8462889D01*
X6052229Y-8462889D02*
X6061753Y-8481936D01*
X6061753Y-8481936D02*
X6071277Y-8491460D01*
X6071277Y-8491460D02*
X6090325Y-8500984D01*
X6090325Y-8500984D02*
X6128420Y-8500984D01*
X6128420Y-8500984D02*
X6147468Y-8491460D01*
X6147468Y-8491460D02*
X6156991Y-8481936D01*
X6156991Y-8481936D02*
X6166515Y-8462889D01*
X6166515Y-8462889D02*
X6166515Y-8424793D01*
X6166515Y-8424793D02*
X6156991Y-8405746D01*
X6156991Y-8405746D02*
X6147468Y-8396222D01*
X6147468Y-8396222D02*
X6128420Y-8386698D01*
X6404610Y-8500984D02*
X6404610Y-8300984D01*
X6490325Y-8500984D02*
X6490325Y-8396222D01*
X6490325Y-8396222D02*
X6480801Y-8377174D01*
X6480801Y-8377174D02*
X6461753Y-8367650D01*
X6461753Y-8367650D02*
X6433182Y-8367650D01*
X6433182Y-8367650D02*
X6414134Y-8377174D01*
X6414134Y-8377174D02*
X6404610Y-8386698D01*
X6614134Y-8500984D02*
X6595087Y-8491460D01*
X6595087Y-8491460D02*
X6585563Y-8481936D01*
X6585563Y-8481936D02*
X6576039Y-8462889D01*
X6576039Y-8462889D02*
X6576039Y-8405746D01*
X6576039Y-8405746D02*
X6585563Y-8386698D01*
X6585563Y-8386698D02*
X6595087Y-8377174D01*
X6595087Y-8377174D02*
X6614134Y-8367650D01*
X6614134Y-8367650D02*
X6642706Y-8367650D01*
X6642706Y-8367650D02*
X6661753Y-8377174D01*
X6661753Y-8377174D02*
X6671277Y-8386698D01*
X6671277Y-8386698D02*
X6680801Y-8405746D01*
X6680801Y-8405746D02*
X6680801Y-8462889D01*
X6680801Y-8462889D02*
X6671277Y-8481936D01*
X6671277Y-8481936D02*
X6661753Y-8491460D01*
X6661753Y-8491460D02*
X6642706Y-8500984D01*
X6642706Y-8500984D02*
X6614134Y-8500984D01*
X6795087Y-8500984D02*
X6776039Y-8491460D01*
X6776039Y-8491460D02*
X6766515Y-8472412D01*
X6766515Y-8472412D02*
X6766515Y-8300984D01*
X6947468Y-8491460D02*
X6928420Y-8500984D01*
X6928420Y-8500984D02*
X6890325Y-8500984D01*
X6890325Y-8500984D02*
X6871277Y-8491460D01*
X6871277Y-8491460D02*
X6861753Y-8472412D01*
X6861753Y-8472412D02*
X6861753Y-8396222D01*
X6861753Y-8396222D02*
X6871277Y-8377174D01*
X6871277Y-8377174D02*
X6890325Y-8367650D01*
X6890325Y-8367650D02*
X6928420Y-8367650D01*
X6928420Y-8367650D02*
X6947468Y-8377174D01*
X6947468Y-8377174D02*
X6956991Y-8396222D01*
X6956991Y-8396222D02*
X6956991Y-8415270D01*
X6956991Y-8415270D02*
X6861753Y-8434317D01*
X7033182Y-8491460D02*
X7052230Y-8500984D01*
X7052230Y-8500984D02*
X7090325Y-8500984D01*
X7090325Y-8500984D02*
X7109372Y-8491460D01*
X7109372Y-8491460D02*
X7118896Y-8472412D01*
X7118896Y-8472412D02*
X7118896Y-8462889D01*
X7118896Y-8462889D02*
X7109372Y-8443841D01*
X7109372Y-8443841D02*
X7090325Y-8434317D01*
X7090325Y-8434317D02*
X7061753Y-8434317D01*
X7061753Y-8434317D02*
X7042706Y-8424793D01*
X7042706Y-8424793D02*
X7033182Y-8405746D01*
X7033182Y-8405746D02*
X7033182Y-8396222D01*
X7033182Y-8396222D02*
X7042706Y-8377174D01*
X7042706Y-8377174D02*
X7061753Y-8367650D01*
X7061753Y-8367650D02*
X7090325Y-8367650D01*
X7090325Y-8367650D02*
X7109372Y-8377174D01*
X7185563Y-8577174D02*
X7195087Y-8567650D01*
X7195087Y-8567650D02*
X7214134Y-8539079D01*
X7214134Y-8539079D02*
X7223658Y-8520031D01*
X7223658Y-8520031D02*
X7233182Y-8491460D01*
X7233182Y-8491460D02*
X7242706Y-8443841D01*
X7242706Y-8443841D02*
X7242706Y-8405746D01*
X7242706Y-8405746D02*
X7233182Y-8358127D01*
X7233182Y-8358127D02*
X7223658Y-8329555D01*
X7223658Y-8329555D02*
X7214134Y-8310508D01*
X7214134Y-8310508D02*
X7195087Y-8281936D01*
X7195087Y-8281936D02*
X7185563Y-8272412D01*
M02*
