%TF.GenerationSoftware,KiCad,Pcbnew,7.0.9*%
%TF.CreationDate,2023-12-29T07:37:09-06:00*%
%TF.ProjectId,Sabertoothv2,53616265-7274-46f6-9f74-6876322e6b69,rev?*%
%TF.SameCoordinates,Original*%
%TF.FileFunction,Drillmap*%
%TF.FilePolarity,Positive*%
%FSLAX45Y45*%
G04 Gerber Fmt 4.5, Leading zero omitted, Abs format (unit mm)*
G04 Created by KiCad (PCBNEW 7.0.9) date 2023-12-29 07:37:09*
%MOMM*%
%LPD*%
G01*
G04 APERTURE LIST*
%ADD10C,0.050000*%
%ADD11C,0.200000*%
%ADD12C,0.100000*%
%ADD13C,0.110000*%
%ADD14C,0.152000*%
G04 APERTURE END LIST*
D10*
X5082945Y-2032000D02*
X9639300Y-2032000D01*
X9639300Y-6588355D01*
X5082945Y-6588355D01*
X5082945Y-2032000D01*
D11*
D12*
X5179300Y-3058400D02*
X5209300Y-3088400D01*
X5209300Y-3058400D02*
X5179300Y-3088400D01*
X5420600Y-3477500D02*
X5450600Y-3507500D01*
X5450600Y-3477500D02*
X5420600Y-3507500D01*
X5451450Y-3045700D02*
X5481450Y-3075700D01*
X5481450Y-3045700D02*
X5451450Y-3075700D01*
X5573000Y-3096500D02*
X5603000Y-3126500D01*
X5603000Y-3096500D02*
X5573000Y-3126500D01*
X5801600Y-4303000D02*
X5831600Y-4333000D01*
X5831600Y-4303000D02*
X5801600Y-4333000D01*
X5941300Y-3058400D02*
X5971300Y-3088400D01*
X5971300Y-3058400D02*
X5941300Y-3088400D01*
X5941300Y-3909300D02*
X5971300Y-3939300D01*
X5971300Y-3909300D02*
X5941300Y-3939300D01*
X5979400Y-5331700D02*
X6009400Y-5361700D01*
X6009400Y-5331700D02*
X5979400Y-5361700D01*
X6068300Y-3071100D02*
X6098300Y-3101100D01*
X6098300Y-3071100D02*
X6068300Y-3101100D01*
X6068300Y-3922000D02*
X6098300Y-3952000D01*
X6098300Y-3922000D02*
X6068300Y-3952000D01*
X6284200Y-4709400D02*
X6314200Y-4739400D01*
X6314200Y-4709400D02*
X6284200Y-4739400D01*
X6449300Y-4805800D02*
X6479300Y-4835800D01*
X6479300Y-4805800D02*
X6449300Y-4835800D01*
X6538200Y-3350500D02*
X6568200Y-3380500D01*
X6568200Y-3350500D02*
X6538200Y-3380500D01*
X6538200Y-3414000D02*
X6568200Y-3444000D01*
X6568200Y-3414000D02*
X6538200Y-3444000D01*
X6576300Y-5242800D02*
X6606300Y-5272800D01*
X6606300Y-5242800D02*
X6576300Y-5272800D01*
X6728700Y-3617200D02*
X6758700Y-3647200D01*
X6758700Y-3617200D02*
X6728700Y-3647200D01*
X6728700Y-3680700D02*
X6758700Y-3710700D01*
X6758700Y-3680700D02*
X6728700Y-3710700D01*
X6741400Y-3909300D02*
X6771400Y-3939300D01*
X6771400Y-3909300D02*
X6741400Y-3939300D01*
X6766800Y-4899900D02*
X6796800Y-4929900D01*
X6796800Y-4899900D02*
X6766800Y-4929900D01*
X6804900Y-3909300D02*
X6834900Y-3939300D01*
X6834900Y-3909300D02*
X6804900Y-3939300D01*
X6817600Y-3223500D02*
X6847600Y-3253500D01*
X6847600Y-3223500D02*
X6817600Y-3253500D01*
X6817600Y-3287000D02*
X6847600Y-3317000D01*
X6847600Y-3287000D02*
X6817600Y-3317000D01*
X7135100Y-5230100D02*
X7165100Y-5260100D01*
X7165100Y-5230100D02*
X7135100Y-5260100D01*
X7181767Y-5157543D02*
X7211767Y-5187543D01*
X7211767Y-5157543D02*
X7181767Y-5187543D01*
X7185900Y-5077700D02*
X7215900Y-5107700D01*
X7215900Y-5077700D02*
X7185900Y-5107700D01*
X7414500Y-3591800D02*
X7444500Y-3621800D01*
X7444500Y-3591800D02*
X7414500Y-3621800D01*
X7478000Y-3591800D02*
X7508000Y-3621800D01*
X7508000Y-3591800D02*
X7478000Y-3621800D01*
X7503400Y-4988800D02*
X7533400Y-5018800D01*
X7533400Y-4988800D02*
X7503400Y-5018800D01*
X7566900Y-4988800D02*
X7596900Y-5018800D01*
X7596900Y-4988800D02*
X7566900Y-5018800D01*
X7642300Y-4722100D02*
X7672300Y-4752100D01*
X7672300Y-4722100D02*
X7642300Y-4752100D01*
X7655800Y-4099800D02*
X7685800Y-4129800D01*
X7685800Y-4099800D02*
X7655800Y-4129800D01*
X7668500Y-3744200D02*
X7698500Y-3774200D01*
X7698500Y-3744200D02*
X7668500Y-3774200D01*
X7668500Y-3805700D02*
X7698500Y-3835700D01*
X7698500Y-3805700D02*
X7668500Y-3835700D01*
X7693900Y-3058400D02*
X7723900Y-3088400D01*
X7723900Y-3058400D02*
X7693900Y-3088400D01*
X7693900Y-3121900D02*
X7723900Y-3151900D01*
X7723900Y-3121900D02*
X7693900Y-3151900D01*
X7775000Y-4747500D02*
X7805000Y-4777500D01*
X7805000Y-4747500D02*
X7775000Y-4777500D01*
X7782800Y-3591800D02*
X7812800Y-3621800D01*
X7812800Y-3591800D02*
X7782800Y-3621800D01*
X7835000Y-4747500D02*
X7865000Y-4777500D01*
X7865000Y-4747500D02*
X7835000Y-4777500D01*
X7846300Y-3591800D02*
X7876300Y-3621800D01*
X7876300Y-3591800D02*
X7846300Y-3621800D01*
X7909800Y-3591800D02*
X7939800Y-3621800D01*
X7939800Y-3591800D02*
X7909800Y-3621800D01*
X7973300Y-3591800D02*
X8003300Y-3621800D01*
X8003300Y-3591800D02*
X7973300Y-3621800D01*
X8011400Y-4743500D02*
X8041400Y-4773500D01*
X8041400Y-4743500D02*
X8011400Y-4773500D01*
X8036800Y-3591800D02*
X8066800Y-3621800D01*
X8066800Y-3591800D02*
X8036800Y-3621800D01*
X8100300Y-3591800D02*
X8130300Y-3621800D01*
X8130300Y-3591800D02*
X8100300Y-3621800D01*
X8145233Y-4589367D02*
X8175233Y-4619367D01*
X8175233Y-4589367D02*
X8145233Y-4619367D01*
X8151100Y-4658600D02*
X8181100Y-4688600D01*
X8181100Y-4658600D02*
X8151100Y-4688600D01*
X8158900Y-4310600D02*
X8188900Y-4340600D01*
X8188900Y-4310600D02*
X8158900Y-4340600D01*
X8158900Y-4370600D02*
X8188900Y-4400600D01*
X8188900Y-4370600D02*
X8158900Y-4400600D01*
X8163800Y-3591800D02*
X8193800Y-3621800D01*
X8193800Y-3591800D02*
X8163800Y-3621800D01*
X8227300Y-3591800D02*
X8257300Y-3621800D01*
X8257300Y-3591800D02*
X8227300Y-3621800D01*
X8252700Y-4726706D02*
X8282700Y-4756706D01*
X8282700Y-4726706D02*
X8252700Y-4756706D01*
X8290800Y-3591800D02*
X8320800Y-3621800D01*
X8320800Y-3591800D02*
X8290800Y-3621800D01*
X8303500Y-5230100D02*
X8333500Y-5260100D01*
X8333500Y-5230100D02*
X8303500Y-5260100D01*
X8313897Y-4724403D02*
X8343897Y-4754403D01*
X8343897Y-4724403D02*
X8313897Y-4754403D01*
X8354300Y-3591800D02*
X8384300Y-3621800D01*
X8384300Y-3591800D02*
X8354300Y-3621800D01*
X8494000Y-3083800D02*
X8524000Y-3113800D01*
X8524000Y-3083800D02*
X8494000Y-3113800D01*
X8557500Y-3083800D02*
X8587500Y-3113800D01*
X8587500Y-3083800D02*
X8557500Y-3113800D01*
X8582900Y-3769600D02*
X8612900Y-3799600D01*
X8612900Y-3769600D02*
X8582900Y-3799600D01*
X8633700Y-3718800D02*
X8663700Y-3748800D01*
X8663700Y-3718800D02*
X8633700Y-3748800D01*
X8965400Y-5105400D02*
G75*
G03*
X8965400Y-5105400I-50000J0D01*
G01*
X8965400Y-5359400D02*
G75*
G03*
X8965400Y-5359400I-50000J0D01*
G01*
X8965400Y-5613400D02*
G75*
G03*
X8965400Y-5613400I-50000J0D01*
G01*
X8965400Y-5867400D02*
G75*
G03*
X8965400Y-5867400I-50000J0D01*
G01*
X9346400Y-5106400D02*
G75*
G03*
X9346400Y-5106400I-50000J0D01*
G01*
X9346400Y-5360400D02*
G75*
G03*
X9346400Y-5360400I-50000J0D01*
G01*
X9346400Y-5614400D02*
G75*
G03*
X9346400Y-5614400I-50000J0D01*
G01*
X9346400Y-5868400D02*
G75*
G03*
X9346400Y-5868400I-50000J0D01*
G01*
D13*
X5524500Y-2586600D02*
X5524500Y-2696600D01*
X5469500Y-2641600D02*
X5579500Y-2641600D01*
X5778500Y-2586600D02*
X5778500Y-2696600D01*
X5723500Y-2641600D02*
X5833500Y-2641600D01*
X6032500Y-2586600D02*
X6032500Y-2696600D01*
X5977500Y-2641600D02*
X6087500Y-2641600D01*
X6286500Y-2586600D02*
X6286500Y-2696600D01*
X6231500Y-2641600D02*
X6341500Y-2641600D01*
D14*
X7229241Y-2619141D02*
X7229241Y-2511659D01*
X7121759Y-2511659D01*
X7121759Y-2619141D01*
X7229241Y-2619141D01*
X7737241Y-2619141D02*
X7737241Y-2511659D01*
X7629759Y-2511659D01*
X7629759Y-2619141D01*
X7737241Y-2619141D01*
X8245241Y-2619141D02*
X8245241Y-2511659D01*
X8137759Y-2511659D01*
X8137759Y-2619141D01*
X8245241Y-2619141D01*
X8753241Y-2619141D02*
X8753241Y-2511659D01*
X8645759Y-2511659D01*
X8645759Y-2619141D01*
X8753241Y-2619141D01*
D11*
X5341221Y-6902339D02*
X5341221Y-6702339D01*
X5341221Y-6702339D02*
X5388840Y-6702339D01*
X5388840Y-6702339D02*
X5417412Y-6711863D01*
X5417412Y-6711863D02*
X5436460Y-6730911D01*
X5436460Y-6730911D02*
X5445983Y-6749958D01*
X5445983Y-6749958D02*
X5455507Y-6788053D01*
X5455507Y-6788053D02*
X5455507Y-6816625D01*
X5455507Y-6816625D02*
X5445983Y-6854720D01*
X5445983Y-6854720D02*
X5436460Y-6873768D01*
X5436460Y-6873768D02*
X5417412Y-6892815D01*
X5417412Y-6892815D02*
X5388840Y-6902339D01*
X5388840Y-6902339D02*
X5341221Y-6902339D01*
X5541221Y-6902339D02*
X5541221Y-6769006D01*
X5541221Y-6807101D02*
X5550745Y-6788053D01*
X5550745Y-6788053D02*
X5560269Y-6778530D01*
X5560269Y-6778530D02*
X5579317Y-6769006D01*
X5579317Y-6769006D02*
X5598364Y-6769006D01*
X5665031Y-6902339D02*
X5665031Y-6769006D01*
X5665031Y-6702339D02*
X5655507Y-6711863D01*
X5655507Y-6711863D02*
X5665031Y-6721387D01*
X5665031Y-6721387D02*
X5674555Y-6711863D01*
X5674555Y-6711863D02*
X5665031Y-6702339D01*
X5665031Y-6702339D02*
X5665031Y-6721387D01*
X5788840Y-6902339D02*
X5769793Y-6892815D01*
X5769793Y-6892815D02*
X5760269Y-6873768D01*
X5760269Y-6873768D02*
X5760269Y-6702339D01*
X5893602Y-6902339D02*
X5874555Y-6892815D01*
X5874555Y-6892815D02*
X5865031Y-6873768D01*
X5865031Y-6873768D02*
X5865031Y-6702339D01*
X6122174Y-6902339D02*
X6122174Y-6702339D01*
X6122174Y-6702339D02*
X6188840Y-6845196D01*
X6188840Y-6845196D02*
X6255507Y-6702339D01*
X6255507Y-6702339D02*
X6255507Y-6902339D01*
X6436459Y-6902339D02*
X6436459Y-6797577D01*
X6436459Y-6797577D02*
X6426936Y-6778530D01*
X6426936Y-6778530D02*
X6407888Y-6769006D01*
X6407888Y-6769006D02*
X6369793Y-6769006D01*
X6369793Y-6769006D02*
X6350745Y-6778530D01*
X6436459Y-6892815D02*
X6417412Y-6902339D01*
X6417412Y-6902339D02*
X6369793Y-6902339D01*
X6369793Y-6902339D02*
X6350745Y-6892815D01*
X6350745Y-6892815D02*
X6341221Y-6873768D01*
X6341221Y-6873768D02*
X6341221Y-6854720D01*
X6341221Y-6854720D02*
X6350745Y-6835672D01*
X6350745Y-6835672D02*
X6369793Y-6826149D01*
X6369793Y-6826149D02*
X6417412Y-6826149D01*
X6417412Y-6826149D02*
X6436459Y-6816625D01*
X6531698Y-6769006D02*
X6531698Y-6969006D01*
X6531698Y-6778530D02*
X6550745Y-6769006D01*
X6550745Y-6769006D02*
X6588840Y-6769006D01*
X6588840Y-6769006D02*
X6607888Y-6778530D01*
X6607888Y-6778530D02*
X6617412Y-6788053D01*
X6617412Y-6788053D02*
X6626936Y-6807101D01*
X6626936Y-6807101D02*
X6626936Y-6864244D01*
X6626936Y-6864244D02*
X6617412Y-6883291D01*
X6617412Y-6883291D02*
X6607888Y-6892815D01*
X6607888Y-6892815D02*
X6588840Y-6902339D01*
X6588840Y-6902339D02*
X6550745Y-6902339D01*
X6550745Y-6902339D02*
X6531698Y-6892815D01*
X6712650Y-6883291D02*
X6722174Y-6892815D01*
X6722174Y-6892815D02*
X6712650Y-6902339D01*
X6712650Y-6902339D02*
X6703126Y-6892815D01*
X6703126Y-6892815D02*
X6712650Y-6883291D01*
X6712650Y-6883291D02*
X6712650Y-6902339D01*
X6712650Y-6778530D02*
X6722174Y-6788053D01*
X6722174Y-6788053D02*
X6712650Y-6797577D01*
X6712650Y-6797577D02*
X6703126Y-6788053D01*
X6703126Y-6788053D02*
X6712650Y-6778530D01*
X6712650Y-6778530D02*
X6712650Y-6797577D01*
D12*
X5050445Y-7215855D02*
X5080445Y-7245855D01*
X5080445Y-7215855D02*
X5050445Y-7245855D01*
D11*
X5379317Y-7122339D02*
X5398364Y-7122339D01*
X5398364Y-7122339D02*
X5417412Y-7131863D01*
X5417412Y-7131863D02*
X5426936Y-7141387D01*
X5426936Y-7141387D02*
X5436460Y-7160434D01*
X5436460Y-7160434D02*
X5445983Y-7198530D01*
X5445983Y-7198530D02*
X5445983Y-7246149D01*
X5445983Y-7246149D02*
X5436460Y-7284244D01*
X5436460Y-7284244D02*
X5426936Y-7303291D01*
X5426936Y-7303291D02*
X5417412Y-7312815D01*
X5417412Y-7312815D02*
X5398364Y-7322339D01*
X5398364Y-7322339D02*
X5379317Y-7322339D01*
X5379317Y-7322339D02*
X5360269Y-7312815D01*
X5360269Y-7312815D02*
X5350745Y-7303291D01*
X5350745Y-7303291D02*
X5341221Y-7284244D01*
X5341221Y-7284244D02*
X5331698Y-7246149D01*
X5331698Y-7246149D02*
X5331698Y-7198530D01*
X5331698Y-7198530D02*
X5341221Y-7160434D01*
X5341221Y-7160434D02*
X5350745Y-7141387D01*
X5350745Y-7141387D02*
X5360269Y-7131863D01*
X5360269Y-7131863D02*
X5379317Y-7122339D01*
X5531698Y-7303291D02*
X5541221Y-7312815D01*
X5541221Y-7312815D02*
X5531698Y-7322339D01*
X5531698Y-7322339D02*
X5522174Y-7312815D01*
X5522174Y-7312815D02*
X5531698Y-7303291D01*
X5531698Y-7303291D02*
X5531698Y-7322339D01*
X5607888Y-7122339D02*
X5731698Y-7122339D01*
X5731698Y-7122339D02*
X5665031Y-7198530D01*
X5665031Y-7198530D02*
X5693602Y-7198530D01*
X5693602Y-7198530D02*
X5712650Y-7208053D01*
X5712650Y-7208053D02*
X5722174Y-7217577D01*
X5722174Y-7217577D02*
X5731698Y-7236625D01*
X5731698Y-7236625D02*
X5731698Y-7284244D01*
X5731698Y-7284244D02*
X5722174Y-7303291D01*
X5722174Y-7303291D02*
X5712650Y-7312815D01*
X5712650Y-7312815D02*
X5693602Y-7322339D01*
X5693602Y-7322339D02*
X5636459Y-7322339D01*
X5636459Y-7322339D02*
X5617412Y-7312815D01*
X5617412Y-7312815D02*
X5607888Y-7303291D01*
X5855507Y-7122339D02*
X5874555Y-7122339D01*
X5874555Y-7122339D02*
X5893602Y-7131863D01*
X5893602Y-7131863D02*
X5903126Y-7141387D01*
X5903126Y-7141387D02*
X5912650Y-7160434D01*
X5912650Y-7160434D02*
X5922174Y-7198530D01*
X5922174Y-7198530D02*
X5922174Y-7246149D01*
X5922174Y-7246149D02*
X5912650Y-7284244D01*
X5912650Y-7284244D02*
X5903126Y-7303291D01*
X5903126Y-7303291D02*
X5893602Y-7312815D01*
X5893602Y-7312815D02*
X5874555Y-7322339D01*
X5874555Y-7322339D02*
X5855507Y-7322339D01*
X5855507Y-7322339D02*
X5836459Y-7312815D01*
X5836459Y-7312815D02*
X5826936Y-7303291D01*
X5826936Y-7303291D02*
X5817412Y-7284244D01*
X5817412Y-7284244D02*
X5807888Y-7246149D01*
X5807888Y-7246149D02*
X5807888Y-7198530D01*
X5807888Y-7198530D02*
X5817412Y-7160434D01*
X5817412Y-7160434D02*
X5826936Y-7141387D01*
X5826936Y-7141387D02*
X5836459Y-7131863D01*
X5836459Y-7131863D02*
X5855507Y-7122339D01*
X6045983Y-7122339D02*
X6065031Y-7122339D01*
X6065031Y-7122339D02*
X6084079Y-7131863D01*
X6084079Y-7131863D02*
X6093602Y-7141387D01*
X6093602Y-7141387D02*
X6103126Y-7160434D01*
X6103126Y-7160434D02*
X6112650Y-7198530D01*
X6112650Y-7198530D02*
X6112650Y-7246149D01*
X6112650Y-7246149D02*
X6103126Y-7284244D01*
X6103126Y-7284244D02*
X6093602Y-7303291D01*
X6093602Y-7303291D02*
X6084079Y-7312815D01*
X6084079Y-7312815D02*
X6065031Y-7322339D01*
X6065031Y-7322339D02*
X6045983Y-7322339D01*
X6045983Y-7322339D02*
X6026936Y-7312815D01*
X6026936Y-7312815D02*
X6017412Y-7303291D01*
X6017412Y-7303291D02*
X6007888Y-7284244D01*
X6007888Y-7284244D02*
X5998364Y-7246149D01*
X5998364Y-7246149D02*
X5998364Y-7198530D01*
X5998364Y-7198530D02*
X6007888Y-7160434D01*
X6007888Y-7160434D02*
X6017412Y-7141387D01*
X6017412Y-7141387D02*
X6026936Y-7131863D01*
X6026936Y-7131863D02*
X6045983Y-7122339D01*
X6198364Y-7322339D02*
X6198364Y-7189006D01*
X6198364Y-7208053D02*
X6207888Y-7198530D01*
X6207888Y-7198530D02*
X6226936Y-7189006D01*
X6226936Y-7189006D02*
X6255507Y-7189006D01*
X6255507Y-7189006D02*
X6274555Y-7198530D01*
X6274555Y-7198530D02*
X6284079Y-7217577D01*
X6284079Y-7217577D02*
X6284079Y-7322339D01*
X6284079Y-7217577D02*
X6293602Y-7198530D01*
X6293602Y-7198530D02*
X6312650Y-7189006D01*
X6312650Y-7189006D02*
X6341221Y-7189006D01*
X6341221Y-7189006D02*
X6360269Y-7198530D01*
X6360269Y-7198530D02*
X6369793Y-7217577D01*
X6369793Y-7217577D02*
X6369793Y-7322339D01*
X6465031Y-7322339D02*
X6465031Y-7189006D01*
X6465031Y-7208053D02*
X6474555Y-7198530D01*
X6474555Y-7198530D02*
X6493602Y-7189006D01*
X6493602Y-7189006D02*
X6522174Y-7189006D01*
X6522174Y-7189006D02*
X6541221Y-7198530D01*
X6541221Y-7198530D02*
X6550745Y-7217577D01*
X6550745Y-7217577D02*
X6550745Y-7322339D01*
X6550745Y-7217577D02*
X6560269Y-7198530D01*
X6560269Y-7198530D02*
X6579317Y-7189006D01*
X6579317Y-7189006D02*
X6607888Y-7189006D01*
X6607888Y-7189006D02*
X6626936Y-7198530D01*
X6626936Y-7198530D02*
X6636460Y-7217577D01*
X6636460Y-7217577D02*
X6636460Y-7322339D01*
X7026936Y-7112815D02*
X6855507Y-7369958D01*
X7284079Y-7122339D02*
X7303126Y-7122339D01*
X7303126Y-7122339D02*
X7322174Y-7131863D01*
X7322174Y-7131863D02*
X7331698Y-7141387D01*
X7331698Y-7141387D02*
X7341222Y-7160434D01*
X7341222Y-7160434D02*
X7350745Y-7198530D01*
X7350745Y-7198530D02*
X7350745Y-7246149D01*
X7350745Y-7246149D02*
X7341222Y-7284244D01*
X7341222Y-7284244D02*
X7331698Y-7303291D01*
X7331698Y-7303291D02*
X7322174Y-7312815D01*
X7322174Y-7312815D02*
X7303126Y-7322339D01*
X7303126Y-7322339D02*
X7284079Y-7322339D01*
X7284079Y-7322339D02*
X7265031Y-7312815D01*
X7265031Y-7312815D02*
X7255507Y-7303291D01*
X7255507Y-7303291D02*
X7245983Y-7284244D01*
X7245983Y-7284244D02*
X7236460Y-7246149D01*
X7236460Y-7246149D02*
X7236460Y-7198530D01*
X7236460Y-7198530D02*
X7245983Y-7160434D01*
X7245983Y-7160434D02*
X7255507Y-7141387D01*
X7255507Y-7141387D02*
X7265031Y-7131863D01*
X7265031Y-7131863D02*
X7284079Y-7122339D01*
X7436460Y-7303291D02*
X7445983Y-7312815D01*
X7445983Y-7312815D02*
X7436460Y-7322339D01*
X7436460Y-7322339D02*
X7426936Y-7312815D01*
X7426936Y-7312815D02*
X7436460Y-7303291D01*
X7436460Y-7303291D02*
X7436460Y-7322339D01*
X7569793Y-7122339D02*
X7588841Y-7122339D01*
X7588841Y-7122339D02*
X7607888Y-7131863D01*
X7607888Y-7131863D02*
X7617412Y-7141387D01*
X7617412Y-7141387D02*
X7626936Y-7160434D01*
X7626936Y-7160434D02*
X7636460Y-7198530D01*
X7636460Y-7198530D02*
X7636460Y-7246149D01*
X7636460Y-7246149D02*
X7626936Y-7284244D01*
X7626936Y-7284244D02*
X7617412Y-7303291D01*
X7617412Y-7303291D02*
X7607888Y-7312815D01*
X7607888Y-7312815D02*
X7588841Y-7322339D01*
X7588841Y-7322339D02*
X7569793Y-7322339D01*
X7569793Y-7322339D02*
X7550745Y-7312815D01*
X7550745Y-7312815D02*
X7541222Y-7303291D01*
X7541222Y-7303291D02*
X7531698Y-7284244D01*
X7531698Y-7284244D02*
X7522174Y-7246149D01*
X7522174Y-7246149D02*
X7522174Y-7198530D01*
X7522174Y-7198530D02*
X7531698Y-7160434D01*
X7531698Y-7160434D02*
X7541222Y-7141387D01*
X7541222Y-7141387D02*
X7550745Y-7131863D01*
X7550745Y-7131863D02*
X7569793Y-7122339D01*
X7826936Y-7322339D02*
X7712650Y-7322339D01*
X7769793Y-7322339D02*
X7769793Y-7122339D01*
X7769793Y-7122339D02*
X7750745Y-7150911D01*
X7750745Y-7150911D02*
X7731698Y-7169958D01*
X7731698Y-7169958D02*
X7712650Y-7179482D01*
X8017412Y-7322339D02*
X7903126Y-7322339D01*
X7960269Y-7322339D02*
X7960269Y-7122339D01*
X7960269Y-7122339D02*
X7941222Y-7150911D01*
X7941222Y-7150911D02*
X7922174Y-7169958D01*
X7922174Y-7169958D02*
X7903126Y-7179482D01*
X8131698Y-7208053D02*
X8112650Y-7198530D01*
X8112650Y-7198530D02*
X8103126Y-7189006D01*
X8103126Y-7189006D02*
X8093603Y-7169958D01*
X8093603Y-7169958D02*
X8093603Y-7160434D01*
X8093603Y-7160434D02*
X8103126Y-7141387D01*
X8103126Y-7141387D02*
X8112650Y-7131863D01*
X8112650Y-7131863D02*
X8131698Y-7122339D01*
X8131698Y-7122339D02*
X8169793Y-7122339D01*
X8169793Y-7122339D02*
X8188841Y-7131863D01*
X8188841Y-7131863D02*
X8198364Y-7141387D01*
X8198364Y-7141387D02*
X8207888Y-7160434D01*
X8207888Y-7160434D02*
X8207888Y-7169958D01*
X8207888Y-7169958D02*
X8198364Y-7189006D01*
X8198364Y-7189006D02*
X8188841Y-7198530D01*
X8188841Y-7198530D02*
X8169793Y-7208053D01*
X8169793Y-7208053D02*
X8131698Y-7208053D01*
X8131698Y-7208053D02*
X8112650Y-7217577D01*
X8112650Y-7217577D02*
X8103126Y-7227101D01*
X8103126Y-7227101D02*
X8093603Y-7246149D01*
X8093603Y-7246149D02*
X8093603Y-7284244D01*
X8093603Y-7284244D02*
X8103126Y-7303291D01*
X8103126Y-7303291D02*
X8112650Y-7312815D01*
X8112650Y-7312815D02*
X8131698Y-7322339D01*
X8131698Y-7322339D02*
X8169793Y-7322339D01*
X8169793Y-7322339D02*
X8188841Y-7312815D01*
X8188841Y-7312815D02*
X8198364Y-7303291D01*
X8198364Y-7303291D02*
X8207888Y-7284244D01*
X8207888Y-7284244D02*
X8207888Y-7246149D01*
X8207888Y-7246149D02*
X8198364Y-7227101D01*
X8198364Y-7227101D02*
X8188841Y-7217577D01*
X8188841Y-7217577D02*
X8169793Y-7208053D01*
X8284079Y-7122339D02*
X8284079Y-7160434D01*
X8360269Y-7122339D02*
X8360269Y-7160434D01*
X8655508Y-7398530D02*
X8645984Y-7389006D01*
X8645984Y-7389006D02*
X8626936Y-7360434D01*
X8626936Y-7360434D02*
X8617412Y-7341387D01*
X8617412Y-7341387D02*
X8607888Y-7312815D01*
X8607888Y-7312815D02*
X8598365Y-7265196D01*
X8598365Y-7265196D02*
X8598365Y-7227101D01*
X8598365Y-7227101D02*
X8607888Y-7179482D01*
X8607888Y-7179482D02*
X8617412Y-7150911D01*
X8617412Y-7150911D02*
X8626936Y-7131863D01*
X8626936Y-7131863D02*
X8645984Y-7103291D01*
X8645984Y-7103291D02*
X8655508Y-7093768D01*
X8826936Y-7122339D02*
X8731698Y-7122339D01*
X8731698Y-7122339D02*
X8722174Y-7217577D01*
X8722174Y-7217577D02*
X8731698Y-7208053D01*
X8731698Y-7208053D02*
X8750746Y-7198530D01*
X8750746Y-7198530D02*
X8798365Y-7198530D01*
X8798365Y-7198530D02*
X8817412Y-7208053D01*
X8817412Y-7208053D02*
X8826936Y-7217577D01*
X8826936Y-7217577D02*
X8836460Y-7236625D01*
X8836460Y-7236625D02*
X8836460Y-7284244D01*
X8836460Y-7284244D02*
X8826936Y-7303291D01*
X8826936Y-7303291D02*
X8817412Y-7312815D01*
X8817412Y-7312815D02*
X8798365Y-7322339D01*
X8798365Y-7322339D02*
X8750746Y-7322339D01*
X8750746Y-7322339D02*
X8731698Y-7312815D01*
X8731698Y-7312815D02*
X8722174Y-7303291D01*
X8931698Y-7322339D02*
X8969793Y-7322339D01*
X8969793Y-7322339D02*
X8988841Y-7312815D01*
X8988841Y-7312815D02*
X8998365Y-7303291D01*
X8998365Y-7303291D02*
X9017412Y-7274720D01*
X9017412Y-7274720D02*
X9026936Y-7236625D01*
X9026936Y-7236625D02*
X9026936Y-7160434D01*
X9026936Y-7160434D02*
X9017412Y-7141387D01*
X9017412Y-7141387D02*
X9007888Y-7131863D01*
X9007888Y-7131863D02*
X8988841Y-7122339D01*
X8988841Y-7122339D02*
X8950746Y-7122339D01*
X8950746Y-7122339D02*
X8931698Y-7131863D01*
X8931698Y-7131863D02*
X8922174Y-7141387D01*
X8922174Y-7141387D02*
X8912650Y-7160434D01*
X8912650Y-7160434D02*
X8912650Y-7208053D01*
X8912650Y-7208053D02*
X8922174Y-7227101D01*
X8922174Y-7227101D02*
X8931698Y-7236625D01*
X8931698Y-7236625D02*
X8950746Y-7246149D01*
X8950746Y-7246149D02*
X8988841Y-7246149D01*
X8988841Y-7246149D02*
X9007888Y-7236625D01*
X9007888Y-7236625D02*
X9017412Y-7227101D01*
X9017412Y-7227101D02*
X9026936Y-7208053D01*
X9265031Y-7322339D02*
X9265031Y-7122339D01*
X9350746Y-7322339D02*
X9350746Y-7217577D01*
X9350746Y-7217577D02*
X9341222Y-7198530D01*
X9341222Y-7198530D02*
X9322174Y-7189006D01*
X9322174Y-7189006D02*
X9293603Y-7189006D01*
X9293603Y-7189006D02*
X9274555Y-7198530D01*
X9274555Y-7198530D02*
X9265031Y-7208053D01*
X9474555Y-7322339D02*
X9455508Y-7312815D01*
X9455508Y-7312815D02*
X9445984Y-7303291D01*
X9445984Y-7303291D02*
X9436460Y-7284244D01*
X9436460Y-7284244D02*
X9436460Y-7227101D01*
X9436460Y-7227101D02*
X9445984Y-7208053D01*
X9445984Y-7208053D02*
X9455508Y-7198530D01*
X9455508Y-7198530D02*
X9474555Y-7189006D01*
X9474555Y-7189006D02*
X9503127Y-7189006D01*
X9503127Y-7189006D02*
X9522174Y-7198530D01*
X9522174Y-7198530D02*
X9531698Y-7208053D01*
X9531698Y-7208053D02*
X9541222Y-7227101D01*
X9541222Y-7227101D02*
X9541222Y-7284244D01*
X9541222Y-7284244D02*
X9531698Y-7303291D01*
X9531698Y-7303291D02*
X9522174Y-7312815D01*
X9522174Y-7312815D02*
X9503127Y-7322339D01*
X9503127Y-7322339D02*
X9474555Y-7322339D01*
X9655508Y-7322339D02*
X9636460Y-7312815D01*
X9636460Y-7312815D02*
X9626936Y-7293768D01*
X9626936Y-7293768D02*
X9626936Y-7122339D01*
X9807889Y-7312815D02*
X9788841Y-7322339D01*
X9788841Y-7322339D02*
X9750746Y-7322339D01*
X9750746Y-7322339D02*
X9731698Y-7312815D01*
X9731698Y-7312815D02*
X9722174Y-7293768D01*
X9722174Y-7293768D02*
X9722174Y-7217577D01*
X9722174Y-7217577D02*
X9731698Y-7198530D01*
X9731698Y-7198530D02*
X9750746Y-7189006D01*
X9750746Y-7189006D02*
X9788841Y-7189006D01*
X9788841Y-7189006D02*
X9807889Y-7198530D01*
X9807889Y-7198530D02*
X9817412Y-7217577D01*
X9817412Y-7217577D02*
X9817412Y-7236625D01*
X9817412Y-7236625D02*
X9722174Y-7255672D01*
X9893603Y-7312815D02*
X9912650Y-7322339D01*
X9912650Y-7322339D02*
X9950746Y-7322339D01*
X9950746Y-7322339D02*
X9969793Y-7312815D01*
X9969793Y-7312815D02*
X9979317Y-7293768D01*
X9979317Y-7293768D02*
X9979317Y-7284244D01*
X9979317Y-7284244D02*
X9969793Y-7265196D01*
X9969793Y-7265196D02*
X9950746Y-7255672D01*
X9950746Y-7255672D02*
X9922174Y-7255672D01*
X9922174Y-7255672D02*
X9903127Y-7246149D01*
X9903127Y-7246149D02*
X9893603Y-7227101D01*
X9893603Y-7227101D02*
X9893603Y-7217577D01*
X9893603Y-7217577D02*
X9903127Y-7198530D01*
X9903127Y-7198530D02*
X9922174Y-7189006D01*
X9922174Y-7189006D02*
X9950746Y-7189006D01*
X9950746Y-7189006D02*
X9969793Y-7198530D01*
X10045984Y-7398530D02*
X10055508Y-7389006D01*
X10055508Y-7389006D02*
X10074555Y-7360434D01*
X10074555Y-7360434D02*
X10084079Y-7341387D01*
X10084079Y-7341387D02*
X10093603Y-7312815D01*
X10093603Y-7312815D02*
X10103127Y-7265196D01*
X10103127Y-7265196D02*
X10103127Y-7227101D01*
X10103127Y-7227101D02*
X10093603Y-7179482D01*
X10093603Y-7179482D02*
X10084079Y-7150911D01*
X10084079Y-7150911D02*
X10074555Y-7131863D01*
X10074555Y-7131863D02*
X10055508Y-7103291D01*
X10055508Y-7103291D02*
X10045984Y-7093768D01*
D12*
X5080445Y-7494855D02*
G75*
G03*
X5080445Y-7494855I-50000J0D01*
G01*
D11*
X5445983Y-7586339D02*
X5331698Y-7586339D01*
X5388840Y-7586339D02*
X5388840Y-7386339D01*
X5388840Y-7386339D02*
X5369793Y-7414911D01*
X5369793Y-7414911D02*
X5350745Y-7433958D01*
X5350745Y-7433958D02*
X5331698Y-7443482D01*
X5531698Y-7567291D02*
X5541221Y-7576815D01*
X5541221Y-7576815D02*
X5531698Y-7586339D01*
X5531698Y-7586339D02*
X5522174Y-7576815D01*
X5522174Y-7576815D02*
X5531698Y-7567291D01*
X5531698Y-7567291D02*
X5531698Y-7586339D01*
X5665031Y-7386339D02*
X5684079Y-7386339D01*
X5684079Y-7386339D02*
X5703126Y-7395863D01*
X5703126Y-7395863D02*
X5712650Y-7405387D01*
X5712650Y-7405387D02*
X5722174Y-7424434D01*
X5722174Y-7424434D02*
X5731698Y-7462530D01*
X5731698Y-7462530D02*
X5731698Y-7510149D01*
X5731698Y-7510149D02*
X5722174Y-7548244D01*
X5722174Y-7548244D02*
X5712650Y-7567291D01*
X5712650Y-7567291D02*
X5703126Y-7576815D01*
X5703126Y-7576815D02*
X5684079Y-7586339D01*
X5684079Y-7586339D02*
X5665031Y-7586339D01*
X5665031Y-7586339D02*
X5645983Y-7576815D01*
X5645983Y-7576815D02*
X5636459Y-7567291D01*
X5636459Y-7567291D02*
X5626936Y-7548244D01*
X5626936Y-7548244D02*
X5617412Y-7510149D01*
X5617412Y-7510149D02*
X5617412Y-7462530D01*
X5617412Y-7462530D02*
X5626936Y-7424434D01*
X5626936Y-7424434D02*
X5636459Y-7405387D01*
X5636459Y-7405387D02*
X5645983Y-7395863D01*
X5645983Y-7395863D02*
X5665031Y-7386339D01*
X5855507Y-7386339D02*
X5874555Y-7386339D01*
X5874555Y-7386339D02*
X5893602Y-7395863D01*
X5893602Y-7395863D02*
X5903126Y-7405387D01*
X5903126Y-7405387D02*
X5912650Y-7424434D01*
X5912650Y-7424434D02*
X5922174Y-7462530D01*
X5922174Y-7462530D02*
X5922174Y-7510149D01*
X5922174Y-7510149D02*
X5912650Y-7548244D01*
X5912650Y-7548244D02*
X5903126Y-7567291D01*
X5903126Y-7567291D02*
X5893602Y-7576815D01*
X5893602Y-7576815D02*
X5874555Y-7586339D01*
X5874555Y-7586339D02*
X5855507Y-7586339D01*
X5855507Y-7586339D02*
X5836459Y-7576815D01*
X5836459Y-7576815D02*
X5826936Y-7567291D01*
X5826936Y-7567291D02*
X5817412Y-7548244D01*
X5817412Y-7548244D02*
X5807888Y-7510149D01*
X5807888Y-7510149D02*
X5807888Y-7462530D01*
X5807888Y-7462530D02*
X5817412Y-7424434D01*
X5817412Y-7424434D02*
X5826936Y-7405387D01*
X5826936Y-7405387D02*
X5836459Y-7395863D01*
X5836459Y-7395863D02*
X5855507Y-7386339D01*
X6045983Y-7386339D02*
X6065031Y-7386339D01*
X6065031Y-7386339D02*
X6084079Y-7395863D01*
X6084079Y-7395863D02*
X6093602Y-7405387D01*
X6093602Y-7405387D02*
X6103126Y-7424434D01*
X6103126Y-7424434D02*
X6112650Y-7462530D01*
X6112650Y-7462530D02*
X6112650Y-7510149D01*
X6112650Y-7510149D02*
X6103126Y-7548244D01*
X6103126Y-7548244D02*
X6093602Y-7567291D01*
X6093602Y-7567291D02*
X6084079Y-7576815D01*
X6084079Y-7576815D02*
X6065031Y-7586339D01*
X6065031Y-7586339D02*
X6045983Y-7586339D01*
X6045983Y-7586339D02*
X6026936Y-7576815D01*
X6026936Y-7576815D02*
X6017412Y-7567291D01*
X6017412Y-7567291D02*
X6007888Y-7548244D01*
X6007888Y-7548244D02*
X5998364Y-7510149D01*
X5998364Y-7510149D02*
X5998364Y-7462530D01*
X5998364Y-7462530D02*
X6007888Y-7424434D01*
X6007888Y-7424434D02*
X6017412Y-7405387D01*
X6017412Y-7405387D02*
X6026936Y-7395863D01*
X6026936Y-7395863D02*
X6045983Y-7386339D01*
X6198364Y-7586339D02*
X6198364Y-7453006D01*
X6198364Y-7472053D02*
X6207888Y-7462530D01*
X6207888Y-7462530D02*
X6226936Y-7453006D01*
X6226936Y-7453006D02*
X6255507Y-7453006D01*
X6255507Y-7453006D02*
X6274555Y-7462530D01*
X6274555Y-7462530D02*
X6284079Y-7481577D01*
X6284079Y-7481577D02*
X6284079Y-7586339D01*
X6284079Y-7481577D02*
X6293602Y-7462530D01*
X6293602Y-7462530D02*
X6312650Y-7453006D01*
X6312650Y-7453006D02*
X6341221Y-7453006D01*
X6341221Y-7453006D02*
X6360269Y-7462530D01*
X6360269Y-7462530D02*
X6369793Y-7481577D01*
X6369793Y-7481577D02*
X6369793Y-7586339D01*
X6465031Y-7586339D02*
X6465031Y-7453006D01*
X6465031Y-7472053D02*
X6474555Y-7462530D01*
X6474555Y-7462530D02*
X6493602Y-7453006D01*
X6493602Y-7453006D02*
X6522174Y-7453006D01*
X6522174Y-7453006D02*
X6541221Y-7462530D01*
X6541221Y-7462530D02*
X6550745Y-7481577D01*
X6550745Y-7481577D02*
X6550745Y-7586339D01*
X6550745Y-7481577D02*
X6560269Y-7462530D01*
X6560269Y-7462530D02*
X6579317Y-7453006D01*
X6579317Y-7453006D02*
X6607888Y-7453006D01*
X6607888Y-7453006D02*
X6626936Y-7462530D01*
X6626936Y-7462530D02*
X6636460Y-7481577D01*
X6636460Y-7481577D02*
X6636460Y-7586339D01*
X7026936Y-7376815D02*
X6855507Y-7633958D01*
X7284079Y-7386339D02*
X7303126Y-7386339D01*
X7303126Y-7386339D02*
X7322174Y-7395863D01*
X7322174Y-7395863D02*
X7331698Y-7405387D01*
X7331698Y-7405387D02*
X7341222Y-7424434D01*
X7341222Y-7424434D02*
X7350745Y-7462530D01*
X7350745Y-7462530D02*
X7350745Y-7510149D01*
X7350745Y-7510149D02*
X7341222Y-7548244D01*
X7341222Y-7548244D02*
X7331698Y-7567291D01*
X7331698Y-7567291D02*
X7322174Y-7576815D01*
X7322174Y-7576815D02*
X7303126Y-7586339D01*
X7303126Y-7586339D02*
X7284079Y-7586339D01*
X7284079Y-7586339D02*
X7265031Y-7576815D01*
X7265031Y-7576815D02*
X7255507Y-7567291D01*
X7255507Y-7567291D02*
X7245983Y-7548244D01*
X7245983Y-7548244D02*
X7236460Y-7510149D01*
X7236460Y-7510149D02*
X7236460Y-7462530D01*
X7236460Y-7462530D02*
X7245983Y-7424434D01*
X7245983Y-7424434D02*
X7255507Y-7405387D01*
X7255507Y-7405387D02*
X7265031Y-7395863D01*
X7265031Y-7395863D02*
X7284079Y-7386339D01*
X7436460Y-7567291D02*
X7445983Y-7576815D01*
X7445983Y-7576815D02*
X7436460Y-7586339D01*
X7436460Y-7586339D02*
X7426936Y-7576815D01*
X7426936Y-7576815D02*
X7436460Y-7567291D01*
X7436460Y-7567291D02*
X7436460Y-7586339D01*
X7569793Y-7386339D02*
X7588841Y-7386339D01*
X7588841Y-7386339D02*
X7607888Y-7395863D01*
X7607888Y-7395863D02*
X7617412Y-7405387D01*
X7617412Y-7405387D02*
X7626936Y-7424434D01*
X7626936Y-7424434D02*
X7636460Y-7462530D01*
X7636460Y-7462530D02*
X7636460Y-7510149D01*
X7636460Y-7510149D02*
X7626936Y-7548244D01*
X7626936Y-7548244D02*
X7617412Y-7567291D01*
X7617412Y-7567291D02*
X7607888Y-7576815D01*
X7607888Y-7576815D02*
X7588841Y-7586339D01*
X7588841Y-7586339D02*
X7569793Y-7586339D01*
X7569793Y-7586339D02*
X7550745Y-7576815D01*
X7550745Y-7576815D02*
X7541222Y-7567291D01*
X7541222Y-7567291D02*
X7531698Y-7548244D01*
X7531698Y-7548244D02*
X7522174Y-7510149D01*
X7522174Y-7510149D02*
X7522174Y-7462530D01*
X7522174Y-7462530D02*
X7531698Y-7424434D01*
X7531698Y-7424434D02*
X7541222Y-7405387D01*
X7541222Y-7405387D02*
X7550745Y-7395863D01*
X7550745Y-7395863D02*
X7569793Y-7386339D01*
X7703126Y-7386339D02*
X7826936Y-7386339D01*
X7826936Y-7386339D02*
X7760269Y-7462530D01*
X7760269Y-7462530D02*
X7788841Y-7462530D01*
X7788841Y-7462530D02*
X7807888Y-7472053D01*
X7807888Y-7472053D02*
X7817412Y-7481577D01*
X7817412Y-7481577D02*
X7826936Y-7500625D01*
X7826936Y-7500625D02*
X7826936Y-7548244D01*
X7826936Y-7548244D02*
X7817412Y-7567291D01*
X7817412Y-7567291D02*
X7807888Y-7576815D01*
X7807888Y-7576815D02*
X7788841Y-7586339D01*
X7788841Y-7586339D02*
X7731698Y-7586339D01*
X7731698Y-7586339D02*
X7712650Y-7576815D01*
X7712650Y-7576815D02*
X7703126Y-7567291D01*
X7922174Y-7586339D02*
X7960269Y-7586339D01*
X7960269Y-7586339D02*
X7979317Y-7576815D01*
X7979317Y-7576815D02*
X7988841Y-7567291D01*
X7988841Y-7567291D02*
X8007888Y-7538720D01*
X8007888Y-7538720D02*
X8017412Y-7500625D01*
X8017412Y-7500625D02*
X8017412Y-7424434D01*
X8017412Y-7424434D02*
X8007888Y-7405387D01*
X8007888Y-7405387D02*
X7998364Y-7395863D01*
X7998364Y-7395863D02*
X7979317Y-7386339D01*
X7979317Y-7386339D02*
X7941222Y-7386339D01*
X7941222Y-7386339D02*
X7922174Y-7395863D01*
X7922174Y-7395863D02*
X7912650Y-7405387D01*
X7912650Y-7405387D02*
X7903126Y-7424434D01*
X7903126Y-7424434D02*
X7903126Y-7472053D01*
X7903126Y-7472053D02*
X7912650Y-7491101D01*
X7912650Y-7491101D02*
X7922174Y-7500625D01*
X7922174Y-7500625D02*
X7941222Y-7510149D01*
X7941222Y-7510149D02*
X7979317Y-7510149D01*
X7979317Y-7510149D02*
X7998364Y-7500625D01*
X7998364Y-7500625D02*
X8007888Y-7491101D01*
X8007888Y-7491101D02*
X8017412Y-7472053D01*
X8188841Y-7453006D02*
X8188841Y-7586339D01*
X8141222Y-7376815D02*
X8093603Y-7519672D01*
X8093603Y-7519672D02*
X8217412Y-7519672D01*
X8284079Y-7386339D02*
X8284079Y-7424434D01*
X8360269Y-7386339D02*
X8360269Y-7424434D01*
X8655508Y-7662530D02*
X8645984Y-7653006D01*
X8645984Y-7653006D02*
X8626936Y-7624434D01*
X8626936Y-7624434D02*
X8617412Y-7605387D01*
X8617412Y-7605387D02*
X8607888Y-7576815D01*
X8607888Y-7576815D02*
X8598365Y-7529196D01*
X8598365Y-7529196D02*
X8598365Y-7491101D01*
X8598365Y-7491101D02*
X8607888Y-7443482D01*
X8607888Y-7443482D02*
X8617412Y-7414911D01*
X8617412Y-7414911D02*
X8626936Y-7395863D01*
X8626936Y-7395863D02*
X8645984Y-7367291D01*
X8645984Y-7367291D02*
X8655508Y-7357768D01*
X8760269Y-7472053D02*
X8741222Y-7462530D01*
X8741222Y-7462530D02*
X8731698Y-7453006D01*
X8731698Y-7453006D02*
X8722174Y-7433958D01*
X8722174Y-7433958D02*
X8722174Y-7424434D01*
X8722174Y-7424434D02*
X8731698Y-7405387D01*
X8731698Y-7405387D02*
X8741222Y-7395863D01*
X8741222Y-7395863D02*
X8760269Y-7386339D01*
X8760269Y-7386339D02*
X8798365Y-7386339D01*
X8798365Y-7386339D02*
X8817412Y-7395863D01*
X8817412Y-7395863D02*
X8826936Y-7405387D01*
X8826936Y-7405387D02*
X8836460Y-7424434D01*
X8836460Y-7424434D02*
X8836460Y-7433958D01*
X8836460Y-7433958D02*
X8826936Y-7453006D01*
X8826936Y-7453006D02*
X8817412Y-7462530D01*
X8817412Y-7462530D02*
X8798365Y-7472053D01*
X8798365Y-7472053D02*
X8760269Y-7472053D01*
X8760269Y-7472053D02*
X8741222Y-7481577D01*
X8741222Y-7481577D02*
X8731698Y-7491101D01*
X8731698Y-7491101D02*
X8722174Y-7510149D01*
X8722174Y-7510149D02*
X8722174Y-7548244D01*
X8722174Y-7548244D02*
X8731698Y-7567291D01*
X8731698Y-7567291D02*
X8741222Y-7576815D01*
X8741222Y-7576815D02*
X8760269Y-7586339D01*
X8760269Y-7586339D02*
X8798365Y-7586339D01*
X8798365Y-7586339D02*
X8817412Y-7576815D01*
X8817412Y-7576815D02*
X8826936Y-7567291D01*
X8826936Y-7567291D02*
X8836460Y-7548244D01*
X8836460Y-7548244D02*
X8836460Y-7510149D01*
X8836460Y-7510149D02*
X8826936Y-7491101D01*
X8826936Y-7491101D02*
X8817412Y-7481577D01*
X8817412Y-7481577D02*
X8798365Y-7472053D01*
X9074555Y-7586339D02*
X9074555Y-7386339D01*
X9160269Y-7586339D02*
X9160269Y-7481577D01*
X9160269Y-7481577D02*
X9150746Y-7462530D01*
X9150746Y-7462530D02*
X9131698Y-7453006D01*
X9131698Y-7453006D02*
X9103127Y-7453006D01*
X9103127Y-7453006D02*
X9084079Y-7462530D01*
X9084079Y-7462530D02*
X9074555Y-7472053D01*
X9284079Y-7586339D02*
X9265031Y-7576815D01*
X9265031Y-7576815D02*
X9255508Y-7567291D01*
X9255508Y-7567291D02*
X9245984Y-7548244D01*
X9245984Y-7548244D02*
X9245984Y-7491101D01*
X9245984Y-7491101D02*
X9255508Y-7472053D01*
X9255508Y-7472053D02*
X9265031Y-7462530D01*
X9265031Y-7462530D02*
X9284079Y-7453006D01*
X9284079Y-7453006D02*
X9312650Y-7453006D01*
X9312650Y-7453006D02*
X9331698Y-7462530D01*
X9331698Y-7462530D02*
X9341222Y-7472053D01*
X9341222Y-7472053D02*
X9350746Y-7491101D01*
X9350746Y-7491101D02*
X9350746Y-7548244D01*
X9350746Y-7548244D02*
X9341222Y-7567291D01*
X9341222Y-7567291D02*
X9331698Y-7576815D01*
X9331698Y-7576815D02*
X9312650Y-7586339D01*
X9312650Y-7586339D02*
X9284079Y-7586339D01*
X9465031Y-7586339D02*
X9445984Y-7576815D01*
X9445984Y-7576815D02*
X9436460Y-7557768D01*
X9436460Y-7557768D02*
X9436460Y-7386339D01*
X9617412Y-7576815D02*
X9598365Y-7586339D01*
X9598365Y-7586339D02*
X9560269Y-7586339D01*
X9560269Y-7586339D02*
X9541222Y-7576815D01*
X9541222Y-7576815D02*
X9531698Y-7557768D01*
X9531698Y-7557768D02*
X9531698Y-7481577D01*
X9531698Y-7481577D02*
X9541222Y-7462530D01*
X9541222Y-7462530D02*
X9560269Y-7453006D01*
X9560269Y-7453006D02*
X9598365Y-7453006D01*
X9598365Y-7453006D02*
X9617412Y-7462530D01*
X9617412Y-7462530D02*
X9626936Y-7481577D01*
X9626936Y-7481577D02*
X9626936Y-7500625D01*
X9626936Y-7500625D02*
X9531698Y-7519672D01*
X9703127Y-7576815D02*
X9722174Y-7586339D01*
X9722174Y-7586339D02*
X9760269Y-7586339D01*
X9760269Y-7586339D02*
X9779317Y-7576815D01*
X9779317Y-7576815D02*
X9788841Y-7557768D01*
X9788841Y-7557768D02*
X9788841Y-7548244D01*
X9788841Y-7548244D02*
X9779317Y-7529196D01*
X9779317Y-7529196D02*
X9760269Y-7519672D01*
X9760269Y-7519672D02*
X9731698Y-7519672D01*
X9731698Y-7519672D02*
X9712650Y-7510149D01*
X9712650Y-7510149D02*
X9703127Y-7491101D01*
X9703127Y-7491101D02*
X9703127Y-7481577D01*
X9703127Y-7481577D02*
X9712650Y-7462530D01*
X9712650Y-7462530D02*
X9731698Y-7453006D01*
X9731698Y-7453006D02*
X9760269Y-7453006D01*
X9760269Y-7453006D02*
X9779317Y-7462530D01*
X9855508Y-7662530D02*
X9865031Y-7653006D01*
X9865031Y-7653006D02*
X9884079Y-7624434D01*
X9884079Y-7624434D02*
X9893603Y-7605387D01*
X9893603Y-7605387D02*
X9903127Y-7576815D01*
X9903127Y-7576815D02*
X9912650Y-7529196D01*
X9912650Y-7529196D02*
X9912650Y-7491101D01*
X9912650Y-7491101D02*
X9903127Y-7443482D01*
X9903127Y-7443482D02*
X9893603Y-7414911D01*
X9893603Y-7414911D02*
X9884079Y-7395863D01*
X9884079Y-7395863D02*
X9865031Y-7367291D01*
X9865031Y-7367291D02*
X9855508Y-7357768D01*
D13*
X5025445Y-7703855D02*
X5025445Y-7813855D01*
X4970445Y-7758855D02*
X5080445Y-7758855D01*
D11*
X5445983Y-7850339D02*
X5331698Y-7850339D01*
X5388840Y-7850339D02*
X5388840Y-7650339D01*
X5388840Y-7650339D02*
X5369793Y-7678911D01*
X5369793Y-7678911D02*
X5350745Y-7697958D01*
X5350745Y-7697958D02*
X5331698Y-7707482D01*
X5531698Y-7831291D02*
X5541221Y-7840815D01*
X5541221Y-7840815D02*
X5531698Y-7850339D01*
X5531698Y-7850339D02*
X5522174Y-7840815D01*
X5522174Y-7840815D02*
X5531698Y-7831291D01*
X5531698Y-7831291D02*
X5531698Y-7850339D01*
X5731698Y-7850339D02*
X5617412Y-7850339D01*
X5674555Y-7850339D02*
X5674555Y-7650339D01*
X5674555Y-7650339D02*
X5655507Y-7678911D01*
X5655507Y-7678911D02*
X5636459Y-7697958D01*
X5636459Y-7697958D02*
X5617412Y-7707482D01*
X5855507Y-7650339D02*
X5874555Y-7650339D01*
X5874555Y-7650339D02*
X5893602Y-7659863D01*
X5893602Y-7659863D02*
X5903126Y-7669387D01*
X5903126Y-7669387D02*
X5912650Y-7688434D01*
X5912650Y-7688434D02*
X5922174Y-7726530D01*
X5922174Y-7726530D02*
X5922174Y-7774149D01*
X5922174Y-7774149D02*
X5912650Y-7812244D01*
X5912650Y-7812244D02*
X5903126Y-7831291D01*
X5903126Y-7831291D02*
X5893602Y-7840815D01*
X5893602Y-7840815D02*
X5874555Y-7850339D01*
X5874555Y-7850339D02*
X5855507Y-7850339D01*
X5855507Y-7850339D02*
X5836459Y-7840815D01*
X5836459Y-7840815D02*
X5826936Y-7831291D01*
X5826936Y-7831291D02*
X5817412Y-7812244D01*
X5817412Y-7812244D02*
X5807888Y-7774149D01*
X5807888Y-7774149D02*
X5807888Y-7726530D01*
X5807888Y-7726530D02*
X5817412Y-7688434D01*
X5817412Y-7688434D02*
X5826936Y-7669387D01*
X5826936Y-7669387D02*
X5836459Y-7659863D01*
X5836459Y-7659863D02*
X5855507Y-7650339D01*
X6045983Y-7650339D02*
X6065031Y-7650339D01*
X6065031Y-7650339D02*
X6084079Y-7659863D01*
X6084079Y-7659863D02*
X6093602Y-7669387D01*
X6093602Y-7669387D02*
X6103126Y-7688434D01*
X6103126Y-7688434D02*
X6112650Y-7726530D01*
X6112650Y-7726530D02*
X6112650Y-7774149D01*
X6112650Y-7774149D02*
X6103126Y-7812244D01*
X6103126Y-7812244D02*
X6093602Y-7831291D01*
X6093602Y-7831291D02*
X6084079Y-7840815D01*
X6084079Y-7840815D02*
X6065031Y-7850339D01*
X6065031Y-7850339D02*
X6045983Y-7850339D01*
X6045983Y-7850339D02*
X6026936Y-7840815D01*
X6026936Y-7840815D02*
X6017412Y-7831291D01*
X6017412Y-7831291D02*
X6007888Y-7812244D01*
X6007888Y-7812244D02*
X5998364Y-7774149D01*
X5998364Y-7774149D02*
X5998364Y-7726530D01*
X5998364Y-7726530D02*
X6007888Y-7688434D01*
X6007888Y-7688434D02*
X6017412Y-7669387D01*
X6017412Y-7669387D02*
X6026936Y-7659863D01*
X6026936Y-7659863D02*
X6045983Y-7650339D01*
X6198364Y-7850339D02*
X6198364Y-7717006D01*
X6198364Y-7736053D02*
X6207888Y-7726530D01*
X6207888Y-7726530D02*
X6226936Y-7717006D01*
X6226936Y-7717006D02*
X6255507Y-7717006D01*
X6255507Y-7717006D02*
X6274555Y-7726530D01*
X6274555Y-7726530D02*
X6284079Y-7745577D01*
X6284079Y-7745577D02*
X6284079Y-7850339D01*
X6284079Y-7745577D02*
X6293602Y-7726530D01*
X6293602Y-7726530D02*
X6312650Y-7717006D01*
X6312650Y-7717006D02*
X6341221Y-7717006D01*
X6341221Y-7717006D02*
X6360269Y-7726530D01*
X6360269Y-7726530D02*
X6369793Y-7745577D01*
X6369793Y-7745577D02*
X6369793Y-7850339D01*
X6465031Y-7850339D02*
X6465031Y-7717006D01*
X6465031Y-7736053D02*
X6474555Y-7726530D01*
X6474555Y-7726530D02*
X6493602Y-7717006D01*
X6493602Y-7717006D02*
X6522174Y-7717006D01*
X6522174Y-7717006D02*
X6541221Y-7726530D01*
X6541221Y-7726530D02*
X6550745Y-7745577D01*
X6550745Y-7745577D02*
X6550745Y-7850339D01*
X6550745Y-7745577D02*
X6560269Y-7726530D01*
X6560269Y-7726530D02*
X6579317Y-7717006D01*
X6579317Y-7717006D02*
X6607888Y-7717006D01*
X6607888Y-7717006D02*
X6626936Y-7726530D01*
X6626936Y-7726530D02*
X6636460Y-7745577D01*
X6636460Y-7745577D02*
X6636460Y-7850339D01*
X7026936Y-7640815D02*
X6855507Y-7897958D01*
X7284079Y-7650339D02*
X7303126Y-7650339D01*
X7303126Y-7650339D02*
X7322174Y-7659863D01*
X7322174Y-7659863D02*
X7331698Y-7669387D01*
X7331698Y-7669387D02*
X7341222Y-7688434D01*
X7341222Y-7688434D02*
X7350745Y-7726530D01*
X7350745Y-7726530D02*
X7350745Y-7774149D01*
X7350745Y-7774149D02*
X7341222Y-7812244D01*
X7341222Y-7812244D02*
X7331698Y-7831291D01*
X7331698Y-7831291D02*
X7322174Y-7840815D01*
X7322174Y-7840815D02*
X7303126Y-7850339D01*
X7303126Y-7850339D02*
X7284079Y-7850339D01*
X7284079Y-7850339D02*
X7265031Y-7840815D01*
X7265031Y-7840815D02*
X7255507Y-7831291D01*
X7255507Y-7831291D02*
X7245983Y-7812244D01*
X7245983Y-7812244D02*
X7236460Y-7774149D01*
X7236460Y-7774149D02*
X7236460Y-7726530D01*
X7236460Y-7726530D02*
X7245983Y-7688434D01*
X7245983Y-7688434D02*
X7255507Y-7669387D01*
X7255507Y-7669387D02*
X7265031Y-7659863D01*
X7265031Y-7659863D02*
X7284079Y-7650339D01*
X7436460Y-7831291D02*
X7445983Y-7840815D01*
X7445983Y-7840815D02*
X7436460Y-7850339D01*
X7436460Y-7850339D02*
X7426936Y-7840815D01*
X7426936Y-7840815D02*
X7436460Y-7831291D01*
X7436460Y-7831291D02*
X7436460Y-7850339D01*
X7569793Y-7650339D02*
X7588841Y-7650339D01*
X7588841Y-7650339D02*
X7607888Y-7659863D01*
X7607888Y-7659863D02*
X7617412Y-7669387D01*
X7617412Y-7669387D02*
X7626936Y-7688434D01*
X7626936Y-7688434D02*
X7636460Y-7726530D01*
X7636460Y-7726530D02*
X7636460Y-7774149D01*
X7636460Y-7774149D02*
X7626936Y-7812244D01*
X7626936Y-7812244D02*
X7617412Y-7831291D01*
X7617412Y-7831291D02*
X7607888Y-7840815D01*
X7607888Y-7840815D02*
X7588841Y-7850339D01*
X7588841Y-7850339D02*
X7569793Y-7850339D01*
X7569793Y-7850339D02*
X7550745Y-7840815D01*
X7550745Y-7840815D02*
X7541222Y-7831291D01*
X7541222Y-7831291D02*
X7531698Y-7812244D01*
X7531698Y-7812244D02*
X7522174Y-7774149D01*
X7522174Y-7774149D02*
X7522174Y-7726530D01*
X7522174Y-7726530D02*
X7531698Y-7688434D01*
X7531698Y-7688434D02*
X7541222Y-7669387D01*
X7541222Y-7669387D02*
X7550745Y-7659863D01*
X7550745Y-7659863D02*
X7569793Y-7650339D01*
X7807888Y-7717006D02*
X7807888Y-7850339D01*
X7760269Y-7640815D02*
X7712650Y-7783672D01*
X7712650Y-7783672D02*
X7836460Y-7783672D01*
X7893603Y-7650339D02*
X8017412Y-7650339D01*
X8017412Y-7650339D02*
X7950745Y-7726530D01*
X7950745Y-7726530D02*
X7979317Y-7726530D01*
X7979317Y-7726530D02*
X7998364Y-7736053D01*
X7998364Y-7736053D02*
X8007888Y-7745577D01*
X8007888Y-7745577D02*
X8017412Y-7764625D01*
X8017412Y-7764625D02*
X8017412Y-7812244D01*
X8017412Y-7812244D02*
X8007888Y-7831291D01*
X8007888Y-7831291D02*
X7998364Y-7840815D01*
X7998364Y-7840815D02*
X7979317Y-7850339D01*
X7979317Y-7850339D02*
X7922174Y-7850339D01*
X7922174Y-7850339D02*
X7903126Y-7840815D01*
X7903126Y-7840815D02*
X7893603Y-7831291D01*
X8084079Y-7650339D02*
X8207888Y-7650339D01*
X8207888Y-7650339D02*
X8141222Y-7726530D01*
X8141222Y-7726530D02*
X8169793Y-7726530D01*
X8169793Y-7726530D02*
X8188841Y-7736053D01*
X8188841Y-7736053D02*
X8198364Y-7745577D01*
X8198364Y-7745577D02*
X8207888Y-7764625D01*
X8207888Y-7764625D02*
X8207888Y-7812244D01*
X8207888Y-7812244D02*
X8198364Y-7831291D01*
X8198364Y-7831291D02*
X8188841Y-7840815D01*
X8188841Y-7840815D02*
X8169793Y-7850339D01*
X8169793Y-7850339D02*
X8112650Y-7850339D01*
X8112650Y-7850339D02*
X8093603Y-7840815D01*
X8093603Y-7840815D02*
X8084079Y-7831291D01*
X8284079Y-7650339D02*
X8284079Y-7688434D01*
X8360269Y-7650339D02*
X8360269Y-7688434D01*
X8655508Y-7926530D02*
X8645984Y-7917006D01*
X8645984Y-7917006D02*
X8626936Y-7888434D01*
X8626936Y-7888434D02*
X8617412Y-7869387D01*
X8617412Y-7869387D02*
X8607888Y-7840815D01*
X8607888Y-7840815D02*
X8598365Y-7793196D01*
X8598365Y-7793196D02*
X8598365Y-7755101D01*
X8598365Y-7755101D02*
X8607888Y-7707482D01*
X8607888Y-7707482D02*
X8617412Y-7678911D01*
X8617412Y-7678911D02*
X8626936Y-7659863D01*
X8626936Y-7659863D02*
X8645984Y-7631291D01*
X8645984Y-7631291D02*
X8655508Y-7621768D01*
X8817412Y-7717006D02*
X8817412Y-7850339D01*
X8769793Y-7640815D02*
X8722174Y-7783672D01*
X8722174Y-7783672D02*
X8845984Y-7783672D01*
X9074555Y-7850339D02*
X9074555Y-7650339D01*
X9160269Y-7850339D02*
X9160269Y-7745577D01*
X9160269Y-7745577D02*
X9150746Y-7726530D01*
X9150746Y-7726530D02*
X9131698Y-7717006D01*
X9131698Y-7717006D02*
X9103127Y-7717006D01*
X9103127Y-7717006D02*
X9084079Y-7726530D01*
X9084079Y-7726530D02*
X9074555Y-7736053D01*
X9284079Y-7850339D02*
X9265031Y-7840815D01*
X9265031Y-7840815D02*
X9255508Y-7831291D01*
X9255508Y-7831291D02*
X9245984Y-7812244D01*
X9245984Y-7812244D02*
X9245984Y-7755101D01*
X9245984Y-7755101D02*
X9255508Y-7736053D01*
X9255508Y-7736053D02*
X9265031Y-7726530D01*
X9265031Y-7726530D02*
X9284079Y-7717006D01*
X9284079Y-7717006D02*
X9312650Y-7717006D01*
X9312650Y-7717006D02*
X9331698Y-7726530D01*
X9331698Y-7726530D02*
X9341222Y-7736053D01*
X9341222Y-7736053D02*
X9350746Y-7755101D01*
X9350746Y-7755101D02*
X9350746Y-7812244D01*
X9350746Y-7812244D02*
X9341222Y-7831291D01*
X9341222Y-7831291D02*
X9331698Y-7840815D01*
X9331698Y-7840815D02*
X9312650Y-7850339D01*
X9312650Y-7850339D02*
X9284079Y-7850339D01*
X9465031Y-7850339D02*
X9445984Y-7840815D01*
X9445984Y-7840815D02*
X9436460Y-7821768D01*
X9436460Y-7821768D02*
X9436460Y-7650339D01*
X9617412Y-7840815D02*
X9598365Y-7850339D01*
X9598365Y-7850339D02*
X9560269Y-7850339D01*
X9560269Y-7850339D02*
X9541222Y-7840815D01*
X9541222Y-7840815D02*
X9531698Y-7821768D01*
X9531698Y-7821768D02*
X9531698Y-7745577D01*
X9531698Y-7745577D02*
X9541222Y-7726530D01*
X9541222Y-7726530D02*
X9560269Y-7717006D01*
X9560269Y-7717006D02*
X9598365Y-7717006D01*
X9598365Y-7717006D02*
X9617412Y-7726530D01*
X9617412Y-7726530D02*
X9626936Y-7745577D01*
X9626936Y-7745577D02*
X9626936Y-7764625D01*
X9626936Y-7764625D02*
X9531698Y-7783672D01*
X9703127Y-7840815D02*
X9722174Y-7850339D01*
X9722174Y-7850339D02*
X9760269Y-7850339D01*
X9760269Y-7850339D02*
X9779317Y-7840815D01*
X9779317Y-7840815D02*
X9788841Y-7821768D01*
X9788841Y-7821768D02*
X9788841Y-7812244D01*
X9788841Y-7812244D02*
X9779317Y-7793196D01*
X9779317Y-7793196D02*
X9760269Y-7783672D01*
X9760269Y-7783672D02*
X9731698Y-7783672D01*
X9731698Y-7783672D02*
X9712650Y-7774149D01*
X9712650Y-7774149D02*
X9703127Y-7755101D01*
X9703127Y-7755101D02*
X9703127Y-7745577D01*
X9703127Y-7745577D02*
X9712650Y-7726530D01*
X9712650Y-7726530D02*
X9731698Y-7717006D01*
X9731698Y-7717006D02*
X9760269Y-7717006D01*
X9760269Y-7717006D02*
X9779317Y-7726530D01*
X9855508Y-7926530D02*
X9865031Y-7917006D01*
X9865031Y-7917006D02*
X9884079Y-7888434D01*
X9884079Y-7888434D02*
X9893603Y-7869387D01*
X9893603Y-7869387D02*
X9903127Y-7840815D01*
X9903127Y-7840815D02*
X9912650Y-7793196D01*
X9912650Y-7793196D02*
X9912650Y-7755101D01*
X9912650Y-7755101D02*
X9903127Y-7707482D01*
X9903127Y-7707482D02*
X9893603Y-7678911D01*
X9893603Y-7678911D02*
X9884079Y-7659863D01*
X9884079Y-7659863D02*
X9865031Y-7631291D01*
X9865031Y-7631291D02*
X9855508Y-7621768D01*
D14*
X5058185Y-8076596D02*
X5058185Y-7969115D01*
X4950704Y-7969115D01*
X4950704Y-8076596D01*
X5058185Y-8076596D01*
D11*
X5445983Y-8114339D02*
X5331698Y-8114339D01*
X5388840Y-8114339D02*
X5388840Y-7914339D01*
X5388840Y-7914339D02*
X5369793Y-7942911D01*
X5369793Y-7942911D02*
X5350745Y-7961958D01*
X5350745Y-7961958D02*
X5331698Y-7971482D01*
X5531698Y-8095291D02*
X5541221Y-8104815D01*
X5541221Y-8104815D02*
X5531698Y-8114339D01*
X5531698Y-8114339D02*
X5522174Y-8104815D01*
X5522174Y-8104815D02*
X5531698Y-8095291D01*
X5531698Y-8095291D02*
X5531698Y-8114339D01*
X5722174Y-7914339D02*
X5626936Y-7914339D01*
X5626936Y-7914339D02*
X5617412Y-8009577D01*
X5617412Y-8009577D02*
X5626936Y-8000053D01*
X5626936Y-8000053D02*
X5645983Y-7990530D01*
X5645983Y-7990530D02*
X5693602Y-7990530D01*
X5693602Y-7990530D02*
X5712650Y-8000053D01*
X5712650Y-8000053D02*
X5722174Y-8009577D01*
X5722174Y-8009577D02*
X5731698Y-8028625D01*
X5731698Y-8028625D02*
X5731698Y-8076244D01*
X5731698Y-8076244D02*
X5722174Y-8095291D01*
X5722174Y-8095291D02*
X5712650Y-8104815D01*
X5712650Y-8104815D02*
X5693602Y-8114339D01*
X5693602Y-8114339D02*
X5645983Y-8114339D01*
X5645983Y-8114339D02*
X5626936Y-8104815D01*
X5626936Y-8104815D02*
X5617412Y-8095291D01*
X5807888Y-7933387D02*
X5817412Y-7923863D01*
X5817412Y-7923863D02*
X5836459Y-7914339D01*
X5836459Y-7914339D02*
X5884079Y-7914339D01*
X5884079Y-7914339D02*
X5903126Y-7923863D01*
X5903126Y-7923863D02*
X5912650Y-7933387D01*
X5912650Y-7933387D02*
X5922174Y-7952434D01*
X5922174Y-7952434D02*
X5922174Y-7971482D01*
X5922174Y-7971482D02*
X5912650Y-8000053D01*
X5912650Y-8000053D02*
X5798364Y-8114339D01*
X5798364Y-8114339D02*
X5922174Y-8114339D01*
X6045983Y-7914339D02*
X6065031Y-7914339D01*
X6065031Y-7914339D02*
X6084079Y-7923863D01*
X6084079Y-7923863D02*
X6093602Y-7933387D01*
X6093602Y-7933387D02*
X6103126Y-7952434D01*
X6103126Y-7952434D02*
X6112650Y-7990530D01*
X6112650Y-7990530D02*
X6112650Y-8038149D01*
X6112650Y-8038149D02*
X6103126Y-8076244D01*
X6103126Y-8076244D02*
X6093602Y-8095291D01*
X6093602Y-8095291D02*
X6084079Y-8104815D01*
X6084079Y-8104815D02*
X6065031Y-8114339D01*
X6065031Y-8114339D02*
X6045983Y-8114339D01*
X6045983Y-8114339D02*
X6026936Y-8104815D01*
X6026936Y-8104815D02*
X6017412Y-8095291D01*
X6017412Y-8095291D02*
X6007888Y-8076244D01*
X6007888Y-8076244D02*
X5998364Y-8038149D01*
X5998364Y-8038149D02*
X5998364Y-7990530D01*
X5998364Y-7990530D02*
X6007888Y-7952434D01*
X6007888Y-7952434D02*
X6017412Y-7933387D01*
X6017412Y-7933387D02*
X6026936Y-7923863D01*
X6026936Y-7923863D02*
X6045983Y-7914339D01*
X6198364Y-8114339D02*
X6198364Y-7981006D01*
X6198364Y-8000053D02*
X6207888Y-7990530D01*
X6207888Y-7990530D02*
X6226936Y-7981006D01*
X6226936Y-7981006D02*
X6255507Y-7981006D01*
X6255507Y-7981006D02*
X6274555Y-7990530D01*
X6274555Y-7990530D02*
X6284079Y-8009577D01*
X6284079Y-8009577D02*
X6284079Y-8114339D01*
X6284079Y-8009577D02*
X6293602Y-7990530D01*
X6293602Y-7990530D02*
X6312650Y-7981006D01*
X6312650Y-7981006D02*
X6341221Y-7981006D01*
X6341221Y-7981006D02*
X6360269Y-7990530D01*
X6360269Y-7990530D02*
X6369793Y-8009577D01*
X6369793Y-8009577D02*
X6369793Y-8114339D01*
X6465031Y-8114339D02*
X6465031Y-7981006D01*
X6465031Y-8000053D02*
X6474555Y-7990530D01*
X6474555Y-7990530D02*
X6493602Y-7981006D01*
X6493602Y-7981006D02*
X6522174Y-7981006D01*
X6522174Y-7981006D02*
X6541221Y-7990530D01*
X6541221Y-7990530D02*
X6550745Y-8009577D01*
X6550745Y-8009577D02*
X6550745Y-8114339D01*
X6550745Y-8009577D02*
X6560269Y-7990530D01*
X6560269Y-7990530D02*
X6579317Y-7981006D01*
X6579317Y-7981006D02*
X6607888Y-7981006D01*
X6607888Y-7981006D02*
X6626936Y-7990530D01*
X6626936Y-7990530D02*
X6636460Y-8009577D01*
X6636460Y-8009577D02*
X6636460Y-8114339D01*
X7026936Y-7904815D02*
X6855507Y-8161958D01*
X7284079Y-7914339D02*
X7303126Y-7914339D01*
X7303126Y-7914339D02*
X7322174Y-7923863D01*
X7322174Y-7923863D02*
X7331698Y-7933387D01*
X7331698Y-7933387D02*
X7341222Y-7952434D01*
X7341222Y-7952434D02*
X7350745Y-7990530D01*
X7350745Y-7990530D02*
X7350745Y-8038149D01*
X7350745Y-8038149D02*
X7341222Y-8076244D01*
X7341222Y-8076244D02*
X7331698Y-8095291D01*
X7331698Y-8095291D02*
X7322174Y-8104815D01*
X7322174Y-8104815D02*
X7303126Y-8114339D01*
X7303126Y-8114339D02*
X7284079Y-8114339D01*
X7284079Y-8114339D02*
X7265031Y-8104815D01*
X7265031Y-8104815D02*
X7255507Y-8095291D01*
X7255507Y-8095291D02*
X7245983Y-8076244D01*
X7245983Y-8076244D02*
X7236460Y-8038149D01*
X7236460Y-8038149D02*
X7236460Y-7990530D01*
X7236460Y-7990530D02*
X7245983Y-7952434D01*
X7245983Y-7952434D02*
X7255507Y-7933387D01*
X7255507Y-7933387D02*
X7265031Y-7923863D01*
X7265031Y-7923863D02*
X7284079Y-7914339D01*
X7436460Y-8095291D02*
X7445983Y-8104815D01*
X7445983Y-8104815D02*
X7436460Y-8114339D01*
X7436460Y-8114339D02*
X7426936Y-8104815D01*
X7426936Y-8104815D02*
X7436460Y-8095291D01*
X7436460Y-8095291D02*
X7436460Y-8114339D01*
X7569793Y-7914339D02*
X7588841Y-7914339D01*
X7588841Y-7914339D02*
X7607888Y-7923863D01*
X7607888Y-7923863D02*
X7617412Y-7933387D01*
X7617412Y-7933387D02*
X7626936Y-7952434D01*
X7626936Y-7952434D02*
X7636460Y-7990530D01*
X7636460Y-7990530D02*
X7636460Y-8038149D01*
X7636460Y-8038149D02*
X7626936Y-8076244D01*
X7626936Y-8076244D02*
X7617412Y-8095291D01*
X7617412Y-8095291D02*
X7607888Y-8104815D01*
X7607888Y-8104815D02*
X7588841Y-8114339D01*
X7588841Y-8114339D02*
X7569793Y-8114339D01*
X7569793Y-8114339D02*
X7550745Y-8104815D01*
X7550745Y-8104815D02*
X7541222Y-8095291D01*
X7541222Y-8095291D02*
X7531698Y-8076244D01*
X7531698Y-8076244D02*
X7522174Y-8038149D01*
X7522174Y-8038149D02*
X7522174Y-7990530D01*
X7522174Y-7990530D02*
X7531698Y-7952434D01*
X7531698Y-7952434D02*
X7541222Y-7933387D01*
X7541222Y-7933387D02*
X7550745Y-7923863D01*
X7550745Y-7923863D02*
X7569793Y-7914339D01*
X7817412Y-7914339D02*
X7722174Y-7914339D01*
X7722174Y-7914339D02*
X7712650Y-8009577D01*
X7712650Y-8009577D02*
X7722174Y-8000053D01*
X7722174Y-8000053D02*
X7741222Y-7990530D01*
X7741222Y-7990530D02*
X7788841Y-7990530D01*
X7788841Y-7990530D02*
X7807888Y-8000053D01*
X7807888Y-8000053D02*
X7817412Y-8009577D01*
X7817412Y-8009577D02*
X7826936Y-8028625D01*
X7826936Y-8028625D02*
X7826936Y-8076244D01*
X7826936Y-8076244D02*
X7817412Y-8095291D01*
X7817412Y-8095291D02*
X7807888Y-8104815D01*
X7807888Y-8104815D02*
X7788841Y-8114339D01*
X7788841Y-8114339D02*
X7741222Y-8114339D01*
X7741222Y-8114339D02*
X7722174Y-8104815D01*
X7722174Y-8104815D02*
X7712650Y-8095291D01*
X7922174Y-8114339D02*
X7960269Y-8114339D01*
X7960269Y-8114339D02*
X7979317Y-8104815D01*
X7979317Y-8104815D02*
X7988841Y-8095291D01*
X7988841Y-8095291D02*
X8007888Y-8066720D01*
X8007888Y-8066720D02*
X8017412Y-8028625D01*
X8017412Y-8028625D02*
X8017412Y-7952434D01*
X8017412Y-7952434D02*
X8007888Y-7933387D01*
X8007888Y-7933387D02*
X7998364Y-7923863D01*
X7998364Y-7923863D02*
X7979317Y-7914339D01*
X7979317Y-7914339D02*
X7941222Y-7914339D01*
X7941222Y-7914339D02*
X7922174Y-7923863D01*
X7922174Y-7923863D02*
X7912650Y-7933387D01*
X7912650Y-7933387D02*
X7903126Y-7952434D01*
X7903126Y-7952434D02*
X7903126Y-8000053D01*
X7903126Y-8000053D02*
X7912650Y-8019101D01*
X7912650Y-8019101D02*
X7922174Y-8028625D01*
X7922174Y-8028625D02*
X7941222Y-8038149D01*
X7941222Y-8038149D02*
X7979317Y-8038149D01*
X7979317Y-8038149D02*
X7998364Y-8028625D01*
X7998364Y-8028625D02*
X8007888Y-8019101D01*
X8007888Y-8019101D02*
X8017412Y-8000053D01*
X8131698Y-8000053D02*
X8112650Y-7990530D01*
X8112650Y-7990530D02*
X8103126Y-7981006D01*
X8103126Y-7981006D02*
X8093603Y-7961958D01*
X8093603Y-7961958D02*
X8093603Y-7952434D01*
X8093603Y-7952434D02*
X8103126Y-7933387D01*
X8103126Y-7933387D02*
X8112650Y-7923863D01*
X8112650Y-7923863D02*
X8131698Y-7914339D01*
X8131698Y-7914339D02*
X8169793Y-7914339D01*
X8169793Y-7914339D02*
X8188841Y-7923863D01*
X8188841Y-7923863D02*
X8198364Y-7933387D01*
X8198364Y-7933387D02*
X8207888Y-7952434D01*
X8207888Y-7952434D02*
X8207888Y-7961958D01*
X8207888Y-7961958D02*
X8198364Y-7981006D01*
X8198364Y-7981006D02*
X8188841Y-7990530D01*
X8188841Y-7990530D02*
X8169793Y-8000053D01*
X8169793Y-8000053D02*
X8131698Y-8000053D01*
X8131698Y-8000053D02*
X8112650Y-8009577D01*
X8112650Y-8009577D02*
X8103126Y-8019101D01*
X8103126Y-8019101D02*
X8093603Y-8038149D01*
X8093603Y-8038149D02*
X8093603Y-8076244D01*
X8093603Y-8076244D02*
X8103126Y-8095291D01*
X8103126Y-8095291D02*
X8112650Y-8104815D01*
X8112650Y-8104815D02*
X8131698Y-8114339D01*
X8131698Y-8114339D02*
X8169793Y-8114339D01*
X8169793Y-8114339D02*
X8188841Y-8104815D01*
X8188841Y-8104815D02*
X8198364Y-8095291D01*
X8198364Y-8095291D02*
X8207888Y-8076244D01*
X8207888Y-8076244D02*
X8207888Y-8038149D01*
X8207888Y-8038149D02*
X8198364Y-8019101D01*
X8198364Y-8019101D02*
X8188841Y-8009577D01*
X8188841Y-8009577D02*
X8169793Y-8000053D01*
X8284079Y-7914339D02*
X8284079Y-7952434D01*
X8360269Y-7914339D02*
X8360269Y-7952434D01*
X8655508Y-8190530D02*
X8645984Y-8181006D01*
X8645984Y-8181006D02*
X8626936Y-8152434D01*
X8626936Y-8152434D02*
X8617412Y-8133387D01*
X8617412Y-8133387D02*
X8607888Y-8104815D01*
X8607888Y-8104815D02*
X8598365Y-8057196D01*
X8598365Y-8057196D02*
X8598365Y-8019101D01*
X8598365Y-8019101D02*
X8607888Y-7971482D01*
X8607888Y-7971482D02*
X8617412Y-7942911D01*
X8617412Y-7942911D02*
X8626936Y-7923863D01*
X8626936Y-7923863D02*
X8645984Y-7895291D01*
X8645984Y-7895291D02*
X8655508Y-7885768D01*
X8817412Y-7981006D02*
X8817412Y-8114339D01*
X8769793Y-7904815D02*
X8722174Y-8047672D01*
X8722174Y-8047672D02*
X8845984Y-8047672D01*
X9074555Y-8114339D02*
X9074555Y-7914339D01*
X9160269Y-8114339D02*
X9160269Y-8009577D01*
X9160269Y-8009577D02*
X9150746Y-7990530D01*
X9150746Y-7990530D02*
X9131698Y-7981006D01*
X9131698Y-7981006D02*
X9103127Y-7981006D01*
X9103127Y-7981006D02*
X9084079Y-7990530D01*
X9084079Y-7990530D02*
X9074555Y-8000053D01*
X9284079Y-8114339D02*
X9265031Y-8104815D01*
X9265031Y-8104815D02*
X9255508Y-8095291D01*
X9255508Y-8095291D02*
X9245984Y-8076244D01*
X9245984Y-8076244D02*
X9245984Y-8019101D01*
X9245984Y-8019101D02*
X9255508Y-8000053D01*
X9255508Y-8000053D02*
X9265031Y-7990530D01*
X9265031Y-7990530D02*
X9284079Y-7981006D01*
X9284079Y-7981006D02*
X9312650Y-7981006D01*
X9312650Y-7981006D02*
X9331698Y-7990530D01*
X9331698Y-7990530D02*
X9341222Y-8000053D01*
X9341222Y-8000053D02*
X9350746Y-8019101D01*
X9350746Y-8019101D02*
X9350746Y-8076244D01*
X9350746Y-8076244D02*
X9341222Y-8095291D01*
X9341222Y-8095291D02*
X9331698Y-8104815D01*
X9331698Y-8104815D02*
X9312650Y-8114339D01*
X9312650Y-8114339D02*
X9284079Y-8114339D01*
X9465031Y-8114339D02*
X9445984Y-8104815D01*
X9445984Y-8104815D02*
X9436460Y-8085768D01*
X9436460Y-8085768D02*
X9436460Y-7914339D01*
X9617412Y-8104815D02*
X9598365Y-8114339D01*
X9598365Y-8114339D02*
X9560269Y-8114339D01*
X9560269Y-8114339D02*
X9541222Y-8104815D01*
X9541222Y-8104815D02*
X9531698Y-8085768D01*
X9531698Y-8085768D02*
X9531698Y-8009577D01*
X9531698Y-8009577D02*
X9541222Y-7990530D01*
X9541222Y-7990530D02*
X9560269Y-7981006D01*
X9560269Y-7981006D02*
X9598365Y-7981006D01*
X9598365Y-7981006D02*
X9617412Y-7990530D01*
X9617412Y-7990530D02*
X9626936Y-8009577D01*
X9626936Y-8009577D02*
X9626936Y-8028625D01*
X9626936Y-8028625D02*
X9531698Y-8047672D01*
X9703127Y-8104815D02*
X9722174Y-8114339D01*
X9722174Y-8114339D02*
X9760269Y-8114339D01*
X9760269Y-8114339D02*
X9779317Y-8104815D01*
X9779317Y-8104815D02*
X9788841Y-8085768D01*
X9788841Y-8085768D02*
X9788841Y-8076244D01*
X9788841Y-8076244D02*
X9779317Y-8057196D01*
X9779317Y-8057196D02*
X9760269Y-8047672D01*
X9760269Y-8047672D02*
X9731698Y-8047672D01*
X9731698Y-8047672D02*
X9712650Y-8038149D01*
X9712650Y-8038149D02*
X9703127Y-8019101D01*
X9703127Y-8019101D02*
X9703127Y-8009577D01*
X9703127Y-8009577D02*
X9712650Y-7990530D01*
X9712650Y-7990530D02*
X9731698Y-7981006D01*
X9731698Y-7981006D02*
X9760269Y-7981006D01*
X9760269Y-7981006D02*
X9779317Y-7990530D01*
X9855508Y-8190530D02*
X9865031Y-8181006D01*
X9865031Y-8181006D02*
X9884079Y-8152434D01*
X9884079Y-8152434D02*
X9893603Y-8133387D01*
X9893603Y-8133387D02*
X9903127Y-8104815D01*
X9903127Y-8104815D02*
X9912650Y-8057196D01*
X9912650Y-8057196D02*
X9912650Y-8019101D01*
X9912650Y-8019101D02*
X9903127Y-7971482D01*
X9903127Y-7971482D02*
X9893603Y-7942911D01*
X9893603Y-7942911D02*
X9884079Y-7923863D01*
X9884079Y-7923863D02*
X9865031Y-7895291D01*
X9865031Y-7895291D02*
X9855508Y-7885768D01*
M02*
