%TF.GenerationSoftware,KiCad,Pcbnew,7.0.10*%
%TF.CreationDate,2024-02-29T18:41:57-06:00*%
%TF.ProjectId,Sabertoothv2,53616265-7274-46f6-9f74-6876322e6b69,rev?*%
%TF.SameCoordinates,Original*%
%TF.FileFunction,Drillmap*%
%TF.FilePolarity,Positive*%
%FSLAX45Y45*%
G04 Gerber Fmt 4.5, Leading zero omitted, Abs format (unit mm)*
G04 Created by KiCad (PCBNEW 7.0.10) date 2024-02-29 18:41:57*
%MOMM*%
%LPD*%
G01*
G04 APERTURE LIST*
%ADD10C,0.050000*%
%ADD11C,0.200000*%
%ADD12C,0.100000*%
%ADD13C,0.152000*%
%ADD14C,0.350000*%
G04 APERTURE END LIST*
D10*
X2987716Y-3019500D02*
X7988716Y-3019500D01*
X7988716Y-8019500D01*
X2987716Y-8019500D01*
X2987716Y-3019500D01*
D11*
D12*
X3569716Y-4735500D02*
X3599716Y-4765500D01*
X3599716Y-4735500D02*
X3569716Y-4765500D01*
X3620516Y-4608500D02*
X3650516Y-4638500D01*
X3650516Y-4608500D02*
X3620516Y-4638500D01*
X3703216Y-4430700D02*
X3733216Y-4460700D01*
X3733216Y-4430700D02*
X3703216Y-4460700D01*
X3823716Y-5688000D02*
X3853716Y-5718000D01*
X3853716Y-5688000D02*
X3823716Y-5718000D01*
X3823716Y-5815000D02*
X3853716Y-5845000D01*
X3853716Y-5815000D02*
X3823716Y-5845000D01*
X4019716Y-4608500D02*
X4049716Y-4638500D01*
X4049716Y-4608500D02*
X4019716Y-4638500D01*
X4052316Y-5675300D02*
X4082316Y-5705300D01*
X4082316Y-5675300D02*
X4052316Y-5705300D01*
X4052316Y-5751500D02*
X4082316Y-5781500D01*
X4082316Y-5751500D02*
X4052316Y-5781500D01*
X4128516Y-5675300D02*
X4158516Y-5705300D01*
X4158516Y-5675300D02*
X4128516Y-5705300D01*
X4128516Y-5751500D02*
X4158516Y-5781500D01*
X4158516Y-5751500D02*
X4128516Y-5781500D01*
X4153916Y-6513500D02*
X4183916Y-6543500D01*
X4183916Y-6513500D02*
X4153916Y-6543500D01*
X4153916Y-6589700D02*
X4183916Y-6619700D01*
X4183916Y-6589700D02*
X4153916Y-6619700D01*
X4153916Y-6665900D02*
X4183916Y-6695900D01*
X4183916Y-6665900D02*
X4153916Y-6695900D01*
X4153916Y-6742100D02*
X4183916Y-6772100D01*
X4183916Y-6742100D02*
X4153916Y-6772100D01*
X4198516Y-5675300D02*
X4228516Y-5705300D01*
X4228516Y-5675300D02*
X4198516Y-5705300D01*
X4204716Y-5751500D02*
X4234716Y-5781500D01*
X4234716Y-5751500D02*
X4204716Y-5781500D01*
X4255516Y-6056300D02*
X4285516Y-6086300D01*
X4285516Y-6056300D02*
X4255516Y-6086300D01*
X4272252Y-4633900D02*
X4302252Y-4663900D01*
X4302252Y-4633900D02*
X4272252Y-4663900D01*
X4395216Y-4608500D02*
X4425216Y-4638500D01*
X4425216Y-4608500D02*
X4395216Y-4638500D01*
X4395216Y-6005500D02*
X4425216Y-6035500D01*
X4425216Y-6005500D02*
X4395216Y-6035500D01*
X4814316Y-5307000D02*
X4844316Y-5337000D01*
X4844316Y-5307000D02*
X4814316Y-5337000D01*
X4825216Y-6245000D02*
X4855216Y-6275000D01*
X4855216Y-6245000D02*
X4825216Y-6275000D01*
X4839716Y-4608500D02*
X4869716Y-4638500D01*
X4869716Y-4608500D02*
X4839716Y-4638500D01*
X4839716Y-4684700D02*
X4869716Y-4714700D01*
X4869716Y-4684700D02*
X4839716Y-4714700D01*
X4839716Y-4760900D02*
X4869716Y-4790900D01*
X4869716Y-4760900D02*
X4839716Y-4790900D01*
X4839716Y-6742100D02*
X4869716Y-6772100D01*
X4869716Y-6742100D02*
X4839716Y-6772100D01*
X5246116Y-4710100D02*
X5276116Y-4740100D01*
X5276116Y-4710100D02*
X5246116Y-4740100D01*
X5246116Y-4786300D02*
X5276116Y-4816300D01*
X5276116Y-4786300D02*
X5246116Y-4816300D01*
X5246116Y-5954700D02*
X5276116Y-5984700D01*
X5276116Y-5954700D02*
X5246116Y-5984700D01*
X5284216Y-5497500D02*
X5314216Y-5527500D01*
X5314216Y-5497500D02*
X5284216Y-5527500D01*
X5284216Y-6132500D02*
X5314216Y-6162500D01*
X5314216Y-6132500D02*
X5284216Y-6162500D01*
X5322316Y-4710100D02*
X5352316Y-4740100D01*
X5352316Y-4710100D02*
X5322316Y-4740100D01*
X5322316Y-4786300D02*
X5352316Y-4816300D01*
X5352316Y-4786300D02*
X5322316Y-4816300D01*
X5322316Y-6584620D02*
X5352316Y-6614620D01*
X5352316Y-6584620D02*
X5322316Y-6614620D01*
X5347716Y-4027500D02*
X5377716Y-4057500D01*
X5377716Y-4027500D02*
X5347716Y-4057500D01*
X5474716Y-4633900D02*
X5504716Y-4663900D01*
X5504716Y-4633900D02*
X5474716Y-4663900D01*
X5474716Y-5497500D02*
X5504716Y-5527500D01*
X5504716Y-5497500D02*
X5474716Y-5527500D01*
X5474716Y-5751500D02*
X5504716Y-5781500D01*
X5504716Y-5751500D02*
X5474716Y-5781500D01*
X5665216Y-6069000D02*
X5695216Y-6099000D01*
X5695216Y-6069000D02*
X5665216Y-6099000D01*
X5665216Y-6132500D02*
X5695216Y-6162500D01*
X5695216Y-6132500D02*
X5665216Y-6162500D01*
X5728716Y-6069000D02*
X5758716Y-6099000D01*
X5758716Y-6069000D02*
X5728716Y-6099000D01*
X5728716Y-6132500D02*
X5758716Y-6162500D01*
X5758716Y-6132500D02*
X5728716Y-6162500D01*
X5839266Y-6433550D02*
X5869266Y-6463550D01*
X5869266Y-6433550D02*
X5839266Y-6463550D01*
X5982716Y-4989500D02*
X6012716Y-5019500D01*
X6012716Y-4989500D02*
X5982716Y-5019500D01*
X5982716Y-5649900D02*
X6012716Y-5679900D01*
X6012716Y-5649900D02*
X5982716Y-5679900D01*
X6389116Y-5091100D02*
X6419116Y-5121100D01*
X6419116Y-5091100D02*
X6389116Y-5121100D01*
X6453192Y-6602976D02*
X6483192Y-6632976D01*
X6483192Y-6602976D02*
X6453192Y-6632976D01*
X6681216Y-6577000D02*
X6711216Y-6607000D01*
X6711216Y-6577000D02*
X6681216Y-6607000D01*
X6681216Y-6640500D02*
X6711216Y-6670500D01*
X6711216Y-6640500D02*
X6681216Y-6670500D01*
X6681216Y-6704000D02*
X6711216Y-6734000D01*
X6711216Y-6704000D02*
X6681216Y-6734000D01*
X6744716Y-6577000D02*
X6774716Y-6607000D01*
X6774716Y-6577000D02*
X6744716Y-6607000D01*
X6744716Y-6640500D02*
X6774716Y-6670500D01*
X6774716Y-6640500D02*
X6744716Y-6670500D01*
X6744716Y-6704000D02*
X6774716Y-6734000D01*
X6774716Y-6704000D02*
X6744716Y-6734000D01*
X6808216Y-6577000D02*
X6838216Y-6607000D01*
X6838216Y-6577000D02*
X6808216Y-6607000D01*
X6808216Y-6640500D02*
X6838216Y-6670500D01*
X6838216Y-6640500D02*
X6808216Y-6670500D01*
X6871716Y-5116500D02*
X6901716Y-5146500D01*
X6901716Y-5116500D02*
X6871716Y-5146500D01*
X7379716Y-5878500D02*
X7409716Y-5908500D01*
X7409716Y-5878500D02*
X7379716Y-5908500D01*
X3262500Y-7500000D02*
G75*
G03*
X3212500Y-7500000I-25000J0D01*
G01*
X3212500Y-7500000D02*
G75*
G03*
X3262500Y-7500000I25000J0D01*
G01*
X3339384Y-7314384D02*
G75*
G03*
X3289384Y-7314384I-25000J0D01*
G01*
X3289384Y-7314384D02*
G75*
G03*
X3339384Y-7314384I25000J0D01*
G01*
X3339384Y-7685615D02*
G75*
G03*
X3289384Y-7685615I-25000J0D01*
G01*
X3289384Y-7685615D02*
G75*
G03*
X3339384Y-7685615I25000J0D01*
G01*
X3525000Y-7237500D02*
G75*
G03*
X3475000Y-7237500I-25000J0D01*
G01*
X3475000Y-7237500D02*
G75*
G03*
X3525000Y-7237500I25000J0D01*
G01*
X3525000Y-7762500D02*
G75*
G03*
X3475000Y-7762500I-25000J0D01*
G01*
X3475000Y-7762500D02*
G75*
G03*
X3525000Y-7762500I25000J0D01*
G01*
X3710615Y-7314384D02*
G75*
G03*
X3660615Y-7314384I-25000J0D01*
G01*
X3660615Y-7314384D02*
G75*
G03*
X3710615Y-7314384I25000J0D01*
G01*
X3710615Y-7685615D02*
G75*
G03*
X3660615Y-7685615I-25000J0D01*
G01*
X3660615Y-7685615D02*
G75*
G03*
X3710615Y-7685615I25000J0D01*
G01*
X3787500Y-7500000D02*
G75*
G03*
X3737500Y-7500000I-25000J0D01*
G01*
X3737500Y-7500000D02*
G75*
G03*
X3787500Y-7500000I25000J0D01*
G01*
X6759716Y-7080300D02*
X6759716Y-7180300D01*
X6709716Y-7130300D02*
X6809716Y-7130300D01*
X6759716Y-7545300D02*
X6759716Y-7645300D01*
X6709716Y-7595300D02*
X6809716Y-7595300D01*
X7013716Y-7080300D02*
X7013716Y-7180300D01*
X6963716Y-7130300D02*
X7063716Y-7130300D01*
X7013716Y-7545300D02*
X7013716Y-7645300D01*
X6963716Y-7595300D02*
X7063716Y-7595300D01*
X7267716Y-7080300D02*
X7267716Y-7180300D01*
X7217716Y-7130300D02*
X7317716Y-7130300D01*
X7267716Y-7545300D02*
X7267716Y-7645300D01*
X7217716Y-7595300D02*
X7317716Y-7595300D01*
X7521716Y-7080300D02*
X7521716Y-7180300D01*
X7471716Y-7130300D02*
X7571716Y-7130300D01*
X7521716Y-7545300D02*
X7521716Y-7645300D01*
X7471716Y-7595300D02*
X7571716Y-7595300D01*
D13*
X3511456Y-3788241D02*
X3511456Y-3680759D01*
X3403975Y-3680759D01*
X3403975Y-3788241D01*
X3511456Y-3788241D01*
X4019456Y-3788241D02*
X4019456Y-3680759D01*
X3911975Y-3680759D01*
X3911975Y-3788241D01*
X4019456Y-3788241D01*
X4527456Y-3788241D02*
X4527456Y-3680759D01*
X4419975Y-3680759D01*
X4419975Y-3788241D01*
X4527456Y-3788241D01*
X5035456Y-3788241D02*
X5035456Y-3680759D01*
X4927975Y-3680759D01*
X4927975Y-3788241D01*
X5035456Y-3788241D01*
X5797456Y-3788241D02*
X5797456Y-3680759D01*
X5689975Y-3680759D01*
X5689975Y-3788241D01*
X5797456Y-3788241D01*
X6305456Y-3788241D02*
X6305456Y-3680759D01*
X6197975Y-3680759D01*
X6197975Y-3788241D01*
X6305456Y-3788241D01*
X6453741Y-4378741D02*
X6453741Y-4271259D01*
X6346259Y-4271259D01*
X6346259Y-4378741D01*
X6453741Y-4378741D01*
X6803741Y-4378741D02*
X6803741Y-4271259D01*
X6696259Y-4271259D01*
X6696259Y-4378741D01*
X6803741Y-4378741D01*
X6813456Y-3788241D02*
X6813456Y-3680759D01*
X6705975Y-3680759D01*
X6705975Y-3788241D01*
X6813456Y-3788241D01*
X7321456Y-3788241D02*
X7321456Y-3680759D01*
X7213975Y-3680759D01*
X7213975Y-3788241D01*
X7321456Y-3788241D01*
X7328741Y-4378741D02*
X7328741Y-4271259D01*
X7221259Y-4271259D01*
X7221259Y-4378741D01*
X7328741Y-4378741D01*
X7328741Y-4728741D02*
X7328741Y-4621259D01*
X7221259Y-4621259D01*
X7221259Y-4728741D01*
X7328741Y-4728741D01*
D14*
X3500000Y-7675000D02*
X3675000Y-7500000D01*
X3500000Y-7325000D01*
X3325000Y-7500000D01*
X3500000Y-7675000D01*
D11*
X3245992Y-8333484D02*
X3245992Y-8133484D01*
X3245992Y-8133484D02*
X3293611Y-8133484D01*
X3293611Y-8133484D02*
X3322183Y-8143008D01*
X3322183Y-8143008D02*
X3341231Y-8162055D01*
X3341231Y-8162055D02*
X3350754Y-8181103D01*
X3350754Y-8181103D02*
X3360278Y-8219198D01*
X3360278Y-8219198D02*
X3360278Y-8247769D01*
X3360278Y-8247769D02*
X3350754Y-8285865D01*
X3350754Y-8285865D02*
X3341231Y-8304912D01*
X3341231Y-8304912D02*
X3322183Y-8323960D01*
X3322183Y-8323960D02*
X3293611Y-8333484D01*
X3293611Y-8333484D02*
X3245992Y-8333484D01*
X3445992Y-8333484D02*
X3445992Y-8200150D01*
X3445992Y-8238246D02*
X3455516Y-8219198D01*
X3455516Y-8219198D02*
X3465040Y-8209674D01*
X3465040Y-8209674D02*
X3484088Y-8200150D01*
X3484088Y-8200150D02*
X3503135Y-8200150D01*
X3569802Y-8333484D02*
X3569802Y-8200150D01*
X3569802Y-8133484D02*
X3560278Y-8143008D01*
X3560278Y-8143008D02*
X3569802Y-8152531D01*
X3569802Y-8152531D02*
X3579326Y-8143008D01*
X3579326Y-8143008D02*
X3569802Y-8133484D01*
X3569802Y-8133484D02*
X3569802Y-8152531D01*
X3693611Y-8333484D02*
X3674564Y-8323960D01*
X3674564Y-8323960D02*
X3665040Y-8304912D01*
X3665040Y-8304912D02*
X3665040Y-8133484D01*
X3798373Y-8333484D02*
X3779326Y-8323960D01*
X3779326Y-8323960D02*
X3769802Y-8304912D01*
X3769802Y-8304912D02*
X3769802Y-8133484D01*
X4026945Y-8333484D02*
X4026945Y-8133484D01*
X4026945Y-8133484D02*
X4093612Y-8276341D01*
X4093612Y-8276341D02*
X4160278Y-8133484D01*
X4160278Y-8133484D02*
X4160278Y-8333484D01*
X4341231Y-8333484D02*
X4341231Y-8228722D01*
X4341231Y-8228722D02*
X4331707Y-8209674D01*
X4331707Y-8209674D02*
X4312659Y-8200150D01*
X4312659Y-8200150D02*
X4274564Y-8200150D01*
X4274564Y-8200150D02*
X4255516Y-8209674D01*
X4341231Y-8323960D02*
X4322183Y-8333484D01*
X4322183Y-8333484D02*
X4274564Y-8333484D01*
X4274564Y-8333484D02*
X4255516Y-8323960D01*
X4255516Y-8323960D02*
X4245993Y-8304912D01*
X4245993Y-8304912D02*
X4245993Y-8285865D01*
X4245993Y-8285865D02*
X4255516Y-8266817D01*
X4255516Y-8266817D02*
X4274564Y-8257293D01*
X4274564Y-8257293D02*
X4322183Y-8257293D01*
X4322183Y-8257293D02*
X4341231Y-8247769D01*
X4436469Y-8200150D02*
X4436469Y-8400150D01*
X4436469Y-8209674D02*
X4455516Y-8200150D01*
X4455516Y-8200150D02*
X4493612Y-8200150D01*
X4493612Y-8200150D02*
X4512659Y-8209674D01*
X4512659Y-8209674D02*
X4522183Y-8219198D01*
X4522183Y-8219198D02*
X4531707Y-8238246D01*
X4531707Y-8238246D02*
X4531707Y-8295388D01*
X4531707Y-8295388D02*
X4522183Y-8314436D01*
X4522183Y-8314436D02*
X4512659Y-8323960D01*
X4512659Y-8323960D02*
X4493612Y-8333484D01*
X4493612Y-8333484D02*
X4455516Y-8333484D01*
X4455516Y-8333484D02*
X4436469Y-8323960D01*
X4617421Y-8314436D02*
X4626945Y-8323960D01*
X4626945Y-8323960D02*
X4617421Y-8333484D01*
X4617421Y-8333484D02*
X4607897Y-8323960D01*
X4607897Y-8323960D02*
X4617421Y-8314436D01*
X4617421Y-8314436D02*
X4617421Y-8333484D01*
X4617421Y-8209674D02*
X4626945Y-8219198D01*
X4626945Y-8219198D02*
X4617421Y-8228722D01*
X4617421Y-8228722D02*
X4607897Y-8219198D01*
X4607897Y-8219198D02*
X4617421Y-8209674D01*
X4617421Y-8209674D02*
X4617421Y-8228722D01*
D12*
X2955216Y-8647000D02*
X2985216Y-8677000D01*
X2985216Y-8647000D02*
X2955216Y-8677000D01*
D11*
X3284088Y-8553484D02*
X3303135Y-8553484D01*
X3303135Y-8553484D02*
X3322183Y-8563008D01*
X3322183Y-8563008D02*
X3331707Y-8572531D01*
X3331707Y-8572531D02*
X3341231Y-8591579D01*
X3341231Y-8591579D02*
X3350754Y-8629674D01*
X3350754Y-8629674D02*
X3350754Y-8677293D01*
X3350754Y-8677293D02*
X3341231Y-8715389D01*
X3341231Y-8715389D02*
X3331707Y-8734436D01*
X3331707Y-8734436D02*
X3322183Y-8743960D01*
X3322183Y-8743960D02*
X3303135Y-8753484D01*
X3303135Y-8753484D02*
X3284088Y-8753484D01*
X3284088Y-8753484D02*
X3265040Y-8743960D01*
X3265040Y-8743960D02*
X3255516Y-8734436D01*
X3255516Y-8734436D02*
X3245992Y-8715389D01*
X3245992Y-8715389D02*
X3236469Y-8677293D01*
X3236469Y-8677293D02*
X3236469Y-8629674D01*
X3236469Y-8629674D02*
X3245992Y-8591579D01*
X3245992Y-8591579D02*
X3255516Y-8572531D01*
X3255516Y-8572531D02*
X3265040Y-8563008D01*
X3265040Y-8563008D02*
X3284088Y-8553484D01*
X3436469Y-8734436D02*
X3445992Y-8743960D01*
X3445992Y-8743960D02*
X3436469Y-8753484D01*
X3436469Y-8753484D02*
X3426945Y-8743960D01*
X3426945Y-8743960D02*
X3436469Y-8734436D01*
X3436469Y-8734436D02*
X3436469Y-8753484D01*
X3512659Y-8553484D02*
X3636469Y-8553484D01*
X3636469Y-8553484D02*
X3569802Y-8629674D01*
X3569802Y-8629674D02*
X3598373Y-8629674D01*
X3598373Y-8629674D02*
X3617421Y-8639198D01*
X3617421Y-8639198D02*
X3626945Y-8648722D01*
X3626945Y-8648722D02*
X3636469Y-8667770D01*
X3636469Y-8667770D02*
X3636469Y-8715389D01*
X3636469Y-8715389D02*
X3626945Y-8734436D01*
X3626945Y-8734436D02*
X3617421Y-8743960D01*
X3617421Y-8743960D02*
X3598373Y-8753484D01*
X3598373Y-8753484D02*
X3541231Y-8753484D01*
X3541231Y-8753484D02*
X3522183Y-8743960D01*
X3522183Y-8743960D02*
X3512659Y-8734436D01*
X3760278Y-8553484D02*
X3779326Y-8553484D01*
X3779326Y-8553484D02*
X3798373Y-8563008D01*
X3798373Y-8563008D02*
X3807897Y-8572531D01*
X3807897Y-8572531D02*
X3817421Y-8591579D01*
X3817421Y-8591579D02*
X3826945Y-8629674D01*
X3826945Y-8629674D02*
X3826945Y-8677293D01*
X3826945Y-8677293D02*
X3817421Y-8715389D01*
X3817421Y-8715389D02*
X3807897Y-8734436D01*
X3807897Y-8734436D02*
X3798373Y-8743960D01*
X3798373Y-8743960D02*
X3779326Y-8753484D01*
X3779326Y-8753484D02*
X3760278Y-8753484D01*
X3760278Y-8753484D02*
X3741231Y-8743960D01*
X3741231Y-8743960D02*
X3731707Y-8734436D01*
X3731707Y-8734436D02*
X3722183Y-8715389D01*
X3722183Y-8715389D02*
X3712659Y-8677293D01*
X3712659Y-8677293D02*
X3712659Y-8629674D01*
X3712659Y-8629674D02*
X3722183Y-8591579D01*
X3722183Y-8591579D02*
X3731707Y-8572531D01*
X3731707Y-8572531D02*
X3741231Y-8563008D01*
X3741231Y-8563008D02*
X3760278Y-8553484D01*
X3950754Y-8553484D02*
X3969802Y-8553484D01*
X3969802Y-8553484D02*
X3988850Y-8563008D01*
X3988850Y-8563008D02*
X3998373Y-8572531D01*
X3998373Y-8572531D02*
X4007897Y-8591579D01*
X4007897Y-8591579D02*
X4017421Y-8629674D01*
X4017421Y-8629674D02*
X4017421Y-8677293D01*
X4017421Y-8677293D02*
X4007897Y-8715389D01*
X4007897Y-8715389D02*
X3998373Y-8734436D01*
X3998373Y-8734436D02*
X3988850Y-8743960D01*
X3988850Y-8743960D02*
X3969802Y-8753484D01*
X3969802Y-8753484D02*
X3950754Y-8753484D01*
X3950754Y-8753484D02*
X3931707Y-8743960D01*
X3931707Y-8743960D02*
X3922183Y-8734436D01*
X3922183Y-8734436D02*
X3912659Y-8715389D01*
X3912659Y-8715389D02*
X3903135Y-8677293D01*
X3903135Y-8677293D02*
X3903135Y-8629674D01*
X3903135Y-8629674D02*
X3912659Y-8591579D01*
X3912659Y-8591579D02*
X3922183Y-8572531D01*
X3922183Y-8572531D02*
X3931707Y-8563008D01*
X3931707Y-8563008D02*
X3950754Y-8553484D01*
X4103135Y-8753484D02*
X4103135Y-8620150D01*
X4103135Y-8639198D02*
X4112659Y-8629674D01*
X4112659Y-8629674D02*
X4131707Y-8620150D01*
X4131707Y-8620150D02*
X4160278Y-8620150D01*
X4160278Y-8620150D02*
X4179326Y-8629674D01*
X4179326Y-8629674D02*
X4188850Y-8648722D01*
X4188850Y-8648722D02*
X4188850Y-8753484D01*
X4188850Y-8648722D02*
X4198374Y-8629674D01*
X4198374Y-8629674D02*
X4217421Y-8620150D01*
X4217421Y-8620150D02*
X4245993Y-8620150D01*
X4245993Y-8620150D02*
X4265040Y-8629674D01*
X4265040Y-8629674D02*
X4274564Y-8648722D01*
X4274564Y-8648722D02*
X4274564Y-8753484D01*
X4369802Y-8753484D02*
X4369802Y-8620150D01*
X4369802Y-8639198D02*
X4379326Y-8629674D01*
X4379326Y-8629674D02*
X4398374Y-8620150D01*
X4398374Y-8620150D02*
X4426945Y-8620150D01*
X4426945Y-8620150D02*
X4445993Y-8629674D01*
X4445993Y-8629674D02*
X4455516Y-8648722D01*
X4455516Y-8648722D02*
X4455516Y-8753484D01*
X4455516Y-8648722D02*
X4465040Y-8629674D01*
X4465040Y-8629674D02*
X4484088Y-8620150D01*
X4484088Y-8620150D02*
X4512659Y-8620150D01*
X4512659Y-8620150D02*
X4531707Y-8629674D01*
X4531707Y-8629674D02*
X4541231Y-8648722D01*
X4541231Y-8648722D02*
X4541231Y-8753484D01*
X4931707Y-8543960D02*
X4760278Y-8801103D01*
X5188850Y-8553484D02*
X5207898Y-8553484D01*
X5207898Y-8553484D02*
X5226945Y-8563008D01*
X5226945Y-8563008D02*
X5236469Y-8572531D01*
X5236469Y-8572531D02*
X5245993Y-8591579D01*
X5245993Y-8591579D02*
X5255517Y-8629674D01*
X5255517Y-8629674D02*
X5255517Y-8677293D01*
X5255517Y-8677293D02*
X5245993Y-8715389D01*
X5245993Y-8715389D02*
X5236469Y-8734436D01*
X5236469Y-8734436D02*
X5226945Y-8743960D01*
X5226945Y-8743960D02*
X5207898Y-8753484D01*
X5207898Y-8753484D02*
X5188850Y-8753484D01*
X5188850Y-8753484D02*
X5169802Y-8743960D01*
X5169802Y-8743960D02*
X5160278Y-8734436D01*
X5160278Y-8734436D02*
X5150755Y-8715389D01*
X5150755Y-8715389D02*
X5141231Y-8677293D01*
X5141231Y-8677293D02*
X5141231Y-8629674D01*
X5141231Y-8629674D02*
X5150755Y-8591579D01*
X5150755Y-8591579D02*
X5160278Y-8572531D01*
X5160278Y-8572531D02*
X5169802Y-8563008D01*
X5169802Y-8563008D02*
X5188850Y-8553484D01*
X5341231Y-8734436D02*
X5350755Y-8743960D01*
X5350755Y-8743960D02*
X5341231Y-8753484D01*
X5341231Y-8753484D02*
X5331707Y-8743960D01*
X5331707Y-8743960D02*
X5341231Y-8734436D01*
X5341231Y-8734436D02*
X5341231Y-8753484D01*
X5474564Y-8553484D02*
X5493612Y-8553484D01*
X5493612Y-8553484D02*
X5512659Y-8563008D01*
X5512659Y-8563008D02*
X5522183Y-8572531D01*
X5522183Y-8572531D02*
X5531707Y-8591579D01*
X5531707Y-8591579D02*
X5541231Y-8629674D01*
X5541231Y-8629674D02*
X5541231Y-8677293D01*
X5541231Y-8677293D02*
X5531707Y-8715389D01*
X5531707Y-8715389D02*
X5522183Y-8734436D01*
X5522183Y-8734436D02*
X5512659Y-8743960D01*
X5512659Y-8743960D02*
X5493612Y-8753484D01*
X5493612Y-8753484D02*
X5474564Y-8753484D01*
X5474564Y-8753484D02*
X5455517Y-8743960D01*
X5455517Y-8743960D02*
X5445993Y-8734436D01*
X5445993Y-8734436D02*
X5436469Y-8715389D01*
X5436469Y-8715389D02*
X5426945Y-8677293D01*
X5426945Y-8677293D02*
X5426945Y-8629674D01*
X5426945Y-8629674D02*
X5436469Y-8591579D01*
X5436469Y-8591579D02*
X5445993Y-8572531D01*
X5445993Y-8572531D02*
X5455517Y-8563008D01*
X5455517Y-8563008D02*
X5474564Y-8553484D01*
X5731707Y-8753484D02*
X5617421Y-8753484D01*
X5674564Y-8753484D02*
X5674564Y-8553484D01*
X5674564Y-8553484D02*
X5655516Y-8582055D01*
X5655516Y-8582055D02*
X5636469Y-8601103D01*
X5636469Y-8601103D02*
X5617421Y-8610627D01*
X5922183Y-8753484D02*
X5807897Y-8753484D01*
X5865040Y-8753484D02*
X5865040Y-8553484D01*
X5865040Y-8553484D02*
X5845993Y-8582055D01*
X5845993Y-8582055D02*
X5826945Y-8601103D01*
X5826945Y-8601103D02*
X5807897Y-8610627D01*
X6036469Y-8639198D02*
X6017421Y-8629674D01*
X6017421Y-8629674D02*
X6007897Y-8620150D01*
X6007897Y-8620150D02*
X5998374Y-8601103D01*
X5998374Y-8601103D02*
X5998374Y-8591579D01*
X5998374Y-8591579D02*
X6007897Y-8572531D01*
X6007897Y-8572531D02*
X6017421Y-8563008D01*
X6017421Y-8563008D02*
X6036469Y-8553484D01*
X6036469Y-8553484D02*
X6074564Y-8553484D01*
X6074564Y-8553484D02*
X6093612Y-8563008D01*
X6093612Y-8563008D02*
X6103136Y-8572531D01*
X6103136Y-8572531D02*
X6112659Y-8591579D01*
X6112659Y-8591579D02*
X6112659Y-8601103D01*
X6112659Y-8601103D02*
X6103136Y-8620150D01*
X6103136Y-8620150D02*
X6093612Y-8629674D01*
X6093612Y-8629674D02*
X6074564Y-8639198D01*
X6074564Y-8639198D02*
X6036469Y-8639198D01*
X6036469Y-8639198D02*
X6017421Y-8648722D01*
X6017421Y-8648722D02*
X6007897Y-8658246D01*
X6007897Y-8658246D02*
X5998374Y-8677293D01*
X5998374Y-8677293D02*
X5998374Y-8715389D01*
X5998374Y-8715389D02*
X6007897Y-8734436D01*
X6007897Y-8734436D02*
X6017421Y-8743960D01*
X6017421Y-8743960D02*
X6036469Y-8753484D01*
X6036469Y-8753484D02*
X6074564Y-8753484D01*
X6074564Y-8753484D02*
X6093612Y-8743960D01*
X6093612Y-8743960D02*
X6103136Y-8734436D01*
X6103136Y-8734436D02*
X6112659Y-8715389D01*
X6112659Y-8715389D02*
X6112659Y-8677293D01*
X6112659Y-8677293D02*
X6103136Y-8658246D01*
X6103136Y-8658246D02*
X6093612Y-8648722D01*
X6093612Y-8648722D02*
X6074564Y-8639198D01*
X6188850Y-8553484D02*
X6188850Y-8591579D01*
X6265040Y-8553484D02*
X6265040Y-8591579D01*
X6560279Y-8829674D02*
X6550755Y-8820150D01*
X6550755Y-8820150D02*
X6531707Y-8791579D01*
X6531707Y-8791579D02*
X6522183Y-8772531D01*
X6522183Y-8772531D02*
X6512659Y-8743960D01*
X6512659Y-8743960D02*
X6503136Y-8696341D01*
X6503136Y-8696341D02*
X6503136Y-8658246D01*
X6503136Y-8658246D02*
X6512659Y-8610627D01*
X6512659Y-8610627D02*
X6522183Y-8582055D01*
X6522183Y-8582055D02*
X6531707Y-8563008D01*
X6531707Y-8563008D02*
X6550755Y-8534436D01*
X6550755Y-8534436D02*
X6560279Y-8524912D01*
X6731707Y-8553484D02*
X6636469Y-8553484D01*
X6636469Y-8553484D02*
X6626945Y-8648722D01*
X6626945Y-8648722D02*
X6636469Y-8639198D01*
X6636469Y-8639198D02*
X6655517Y-8629674D01*
X6655517Y-8629674D02*
X6703136Y-8629674D01*
X6703136Y-8629674D02*
X6722183Y-8639198D01*
X6722183Y-8639198D02*
X6731707Y-8648722D01*
X6731707Y-8648722D02*
X6741231Y-8667770D01*
X6741231Y-8667770D02*
X6741231Y-8715389D01*
X6741231Y-8715389D02*
X6731707Y-8734436D01*
X6731707Y-8734436D02*
X6722183Y-8743960D01*
X6722183Y-8743960D02*
X6703136Y-8753484D01*
X6703136Y-8753484D02*
X6655517Y-8753484D01*
X6655517Y-8753484D02*
X6636469Y-8743960D01*
X6636469Y-8743960D02*
X6626945Y-8734436D01*
X6807898Y-8553484D02*
X6941231Y-8553484D01*
X6941231Y-8553484D02*
X6855517Y-8753484D01*
X7169802Y-8753484D02*
X7169802Y-8553484D01*
X7255517Y-8753484D02*
X7255517Y-8648722D01*
X7255517Y-8648722D02*
X7245993Y-8629674D01*
X7245993Y-8629674D02*
X7226945Y-8620150D01*
X7226945Y-8620150D02*
X7198374Y-8620150D01*
X7198374Y-8620150D02*
X7179326Y-8629674D01*
X7179326Y-8629674D02*
X7169802Y-8639198D01*
X7379326Y-8753484D02*
X7360279Y-8743960D01*
X7360279Y-8743960D02*
X7350755Y-8734436D01*
X7350755Y-8734436D02*
X7341231Y-8715389D01*
X7341231Y-8715389D02*
X7341231Y-8658246D01*
X7341231Y-8658246D02*
X7350755Y-8639198D01*
X7350755Y-8639198D02*
X7360279Y-8629674D01*
X7360279Y-8629674D02*
X7379326Y-8620150D01*
X7379326Y-8620150D02*
X7407898Y-8620150D01*
X7407898Y-8620150D02*
X7426945Y-8629674D01*
X7426945Y-8629674D02*
X7436469Y-8639198D01*
X7436469Y-8639198D02*
X7445993Y-8658246D01*
X7445993Y-8658246D02*
X7445993Y-8715389D01*
X7445993Y-8715389D02*
X7436469Y-8734436D01*
X7436469Y-8734436D02*
X7426945Y-8743960D01*
X7426945Y-8743960D02*
X7407898Y-8753484D01*
X7407898Y-8753484D02*
X7379326Y-8753484D01*
X7560279Y-8753484D02*
X7541231Y-8743960D01*
X7541231Y-8743960D02*
X7531707Y-8724912D01*
X7531707Y-8724912D02*
X7531707Y-8553484D01*
X7712660Y-8743960D02*
X7693612Y-8753484D01*
X7693612Y-8753484D02*
X7655517Y-8753484D01*
X7655517Y-8753484D02*
X7636469Y-8743960D01*
X7636469Y-8743960D02*
X7626945Y-8724912D01*
X7626945Y-8724912D02*
X7626945Y-8648722D01*
X7626945Y-8648722D02*
X7636469Y-8629674D01*
X7636469Y-8629674D02*
X7655517Y-8620150D01*
X7655517Y-8620150D02*
X7693612Y-8620150D01*
X7693612Y-8620150D02*
X7712660Y-8629674D01*
X7712660Y-8629674D02*
X7722183Y-8648722D01*
X7722183Y-8648722D02*
X7722183Y-8667770D01*
X7722183Y-8667770D02*
X7626945Y-8686817D01*
X7798374Y-8743960D02*
X7817421Y-8753484D01*
X7817421Y-8753484D02*
X7855517Y-8753484D01*
X7855517Y-8753484D02*
X7874564Y-8743960D01*
X7874564Y-8743960D02*
X7884088Y-8724912D01*
X7884088Y-8724912D02*
X7884088Y-8715389D01*
X7884088Y-8715389D02*
X7874564Y-8696341D01*
X7874564Y-8696341D02*
X7855517Y-8686817D01*
X7855517Y-8686817D02*
X7826945Y-8686817D01*
X7826945Y-8686817D02*
X7807898Y-8677293D01*
X7807898Y-8677293D02*
X7798374Y-8658246D01*
X7798374Y-8658246D02*
X7798374Y-8648722D01*
X7798374Y-8648722D02*
X7807898Y-8629674D01*
X7807898Y-8629674D02*
X7826945Y-8620150D01*
X7826945Y-8620150D02*
X7855517Y-8620150D01*
X7855517Y-8620150D02*
X7874564Y-8629674D01*
X7950755Y-8829674D02*
X7960279Y-8820150D01*
X7960279Y-8820150D02*
X7979326Y-8791579D01*
X7979326Y-8791579D02*
X7988850Y-8772531D01*
X7988850Y-8772531D02*
X7998374Y-8743960D01*
X7998374Y-8743960D02*
X8007898Y-8696341D01*
X8007898Y-8696341D02*
X8007898Y-8658246D01*
X8007898Y-8658246D02*
X7998374Y-8610627D01*
X7998374Y-8610627D02*
X7988850Y-8582055D01*
X7988850Y-8582055D02*
X7979326Y-8563008D01*
X7979326Y-8563008D02*
X7960279Y-8534436D01*
X7960279Y-8534436D02*
X7950755Y-8524912D01*
D12*
X2985216Y-8926000D02*
G75*
G03*
X2935216Y-8926000I-25000J0D01*
G01*
X2935216Y-8926000D02*
G75*
G03*
X2985216Y-8926000I25000J0D01*
G01*
D11*
X3284088Y-8817484D02*
X3303135Y-8817484D01*
X3303135Y-8817484D02*
X3322183Y-8827008D01*
X3322183Y-8827008D02*
X3331707Y-8836531D01*
X3331707Y-8836531D02*
X3341231Y-8855579D01*
X3341231Y-8855579D02*
X3350754Y-8893674D01*
X3350754Y-8893674D02*
X3350754Y-8941293D01*
X3350754Y-8941293D02*
X3341231Y-8979389D01*
X3341231Y-8979389D02*
X3331707Y-8998436D01*
X3331707Y-8998436D02*
X3322183Y-9007960D01*
X3322183Y-9007960D02*
X3303135Y-9017484D01*
X3303135Y-9017484D02*
X3284088Y-9017484D01*
X3284088Y-9017484D02*
X3265040Y-9007960D01*
X3265040Y-9007960D02*
X3255516Y-8998436D01*
X3255516Y-8998436D02*
X3245992Y-8979389D01*
X3245992Y-8979389D02*
X3236469Y-8941293D01*
X3236469Y-8941293D02*
X3236469Y-8893674D01*
X3236469Y-8893674D02*
X3245992Y-8855579D01*
X3245992Y-8855579D02*
X3255516Y-8836531D01*
X3255516Y-8836531D02*
X3265040Y-8827008D01*
X3265040Y-8827008D02*
X3284088Y-8817484D01*
X3436469Y-8998436D02*
X3445992Y-9007960D01*
X3445992Y-9007960D02*
X3436469Y-9017484D01*
X3436469Y-9017484D02*
X3426945Y-9007960D01*
X3426945Y-9007960D02*
X3436469Y-8998436D01*
X3436469Y-8998436D02*
X3436469Y-9017484D01*
X3626945Y-8817484D02*
X3531707Y-8817484D01*
X3531707Y-8817484D02*
X3522183Y-8912722D01*
X3522183Y-8912722D02*
X3531707Y-8903198D01*
X3531707Y-8903198D02*
X3550754Y-8893674D01*
X3550754Y-8893674D02*
X3598373Y-8893674D01*
X3598373Y-8893674D02*
X3617421Y-8903198D01*
X3617421Y-8903198D02*
X3626945Y-8912722D01*
X3626945Y-8912722D02*
X3636469Y-8931770D01*
X3636469Y-8931770D02*
X3636469Y-8979389D01*
X3636469Y-8979389D02*
X3626945Y-8998436D01*
X3626945Y-8998436D02*
X3617421Y-9007960D01*
X3617421Y-9007960D02*
X3598373Y-9017484D01*
X3598373Y-9017484D02*
X3550754Y-9017484D01*
X3550754Y-9017484D02*
X3531707Y-9007960D01*
X3531707Y-9007960D02*
X3522183Y-8998436D01*
X3760278Y-8817484D02*
X3779326Y-8817484D01*
X3779326Y-8817484D02*
X3798373Y-8827008D01*
X3798373Y-8827008D02*
X3807897Y-8836531D01*
X3807897Y-8836531D02*
X3817421Y-8855579D01*
X3817421Y-8855579D02*
X3826945Y-8893674D01*
X3826945Y-8893674D02*
X3826945Y-8941293D01*
X3826945Y-8941293D02*
X3817421Y-8979389D01*
X3817421Y-8979389D02*
X3807897Y-8998436D01*
X3807897Y-8998436D02*
X3798373Y-9007960D01*
X3798373Y-9007960D02*
X3779326Y-9017484D01*
X3779326Y-9017484D02*
X3760278Y-9017484D01*
X3760278Y-9017484D02*
X3741231Y-9007960D01*
X3741231Y-9007960D02*
X3731707Y-8998436D01*
X3731707Y-8998436D02*
X3722183Y-8979389D01*
X3722183Y-8979389D02*
X3712659Y-8941293D01*
X3712659Y-8941293D02*
X3712659Y-8893674D01*
X3712659Y-8893674D02*
X3722183Y-8855579D01*
X3722183Y-8855579D02*
X3731707Y-8836531D01*
X3731707Y-8836531D02*
X3741231Y-8827008D01*
X3741231Y-8827008D02*
X3760278Y-8817484D01*
X3950754Y-8817484D02*
X3969802Y-8817484D01*
X3969802Y-8817484D02*
X3988850Y-8827008D01*
X3988850Y-8827008D02*
X3998373Y-8836531D01*
X3998373Y-8836531D02*
X4007897Y-8855579D01*
X4007897Y-8855579D02*
X4017421Y-8893674D01*
X4017421Y-8893674D02*
X4017421Y-8941293D01*
X4017421Y-8941293D02*
X4007897Y-8979389D01*
X4007897Y-8979389D02*
X3998373Y-8998436D01*
X3998373Y-8998436D02*
X3988850Y-9007960D01*
X3988850Y-9007960D02*
X3969802Y-9017484D01*
X3969802Y-9017484D02*
X3950754Y-9017484D01*
X3950754Y-9017484D02*
X3931707Y-9007960D01*
X3931707Y-9007960D02*
X3922183Y-8998436D01*
X3922183Y-8998436D02*
X3912659Y-8979389D01*
X3912659Y-8979389D02*
X3903135Y-8941293D01*
X3903135Y-8941293D02*
X3903135Y-8893674D01*
X3903135Y-8893674D02*
X3912659Y-8855579D01*
X3912659Y-8855579D02*
X3922183Y-8836531D01*
X3922183Y-8836531D02*
X3931707Y-8827008D01*
X3931707Y-8827008D02*
X3950754Y-8817484D01*
X4103135Y-9017484D02*
X4103135Y-8884150D01*
X4103135Y-8903198D02*
X4112659Y-8893674D01*
X4112659Y-8893674D02*
X4131707Y-8884150D01*
X4131707Y-8884150D02*
X4160278Y-8884150D01*
X4160278Y-8884150D02*
X4179326Y-8893674D01*
X4179326Y-8893674D02*
X4188850Y-8912722D01*
X4188850Y-8912722D02*
X4188850Y-9017484D01*
X4188850Y-8912722D02*
X4198374Y-8893674D01*
X4198374Y-8893674D02*
X4217421Y-8884150D01*
X4217421Y-8884150D02*
X4245993Y-8884150D01*
X4245993Y-8884150D02*
X4265040Y-8893674D01*
X4265040Y-8893674D02*
X4274564Y-8912722D01*
X4274564Y-8912722D02*
X4274564Y-9017484D01*
X4369802Y-9017484D02*
X4369802Y-8884150D01*
X4369802Y-8903198D02*
X4379326Y-8893674D01*
X4379326Y-8893674D02*
X4398374Y-8884150D01*
X4398374Y-8884150D02*
X4426945Y-8884150D01*
X4426945Y-8884150D02*
X4445993Y-8893674D01*
X4445993Y-8893674D02*
X4455516Y-8912722D01*
X4455516Y-8912722D02*
X4455516Y-9017484D01*
X4455516Y-8912722D02*
X4465040Y-8893674D01*
X4465040Y-8893674D02*
X4484088Y-8884150D01*
X4484088Y-8884150D02*
X4512659Y-8884150D01*
X4512659Y-8884150D02*
X4531707Y-8893674D01*
X4531707Y-8893674D02*
X4541231Y-8912722D01*
X4541231Y-8912722D02*
X4541231Y-9017484D01*
X4931707Y-8807960D02*
X4760278Y-9065103D01*
X5188850Y-8817484D02*
X5207898Y-8817484D01*
X5207898Y-8817484D02*
X5226945Y-8827008D01*
X5226945Y-8827008D02*
X5236469Y-8836531D01*
X5236469Y-8836531D02*
X5245993Y-8855579D01*
X5245993Y-8855579D02*
X5255517Y-8893674D01*
X5255517Y-8893674D02*
X5255517Y-8941293D01*
X5255517Y-8941293D02*
X5245993Y-8979389D01*
X5245993Y-8979389D02*
X5236469Y-8998436D01*
X5236469Y-8998436D02*
X5226945Y-9007960D01*
X5226945Y-9007960D02*
X5207898Y-9017484D01*
X5207898Y-9017484D02*
X5188850Y-9017484D01*
X5188850Y-9017484D02*
X5169802Y-9007960D01*
X5169802Y-9007960D02*
X5160278Y-8998436D01*
X5160278Y-8998436D02*
X5150755Y-8979389D01*
X5150755Y-8979389D02*
X5141231Y-8941293D01*
X5141231Y-8941293D02*
X5141231Y-8893674D01*
X5141231Y-8893674D02*
X5150755Y-8855579D01*
X5150755Y-8855579D02*
X5160278Y-8836531D01*
X5160278Y-8836531D02*
X5169802Y-8827008D01*
X5169802Y-8827008D02*
X5188850Y-8817484D01*
X5341231Y-8998436D02*
X5350755Y-9007960D01*
X5350755Y-9007960D02*
X5341231Y-9017484D01*
X5341231Y-9017484D02*
X5331707Y-9007960D01*
X5331707Y-9007960D02*
X5341231Y-8998436D01*
X5341231Y-8998436D02*
X5341231Y-9017484D01*
X5474564Y-8817484D02*
X5493612Y-8817484D01*
X5493612Y-8817484D02*
X5512659Y-8827008D01*
X5512659Y-8827008D02*
X5522183Y-8836531D01*
X5522183Y-8836531D02*
X5531707Y-8855579D01*
X5531707Y-8855579D02*
X5541231Y-8893674D01*
X5541231Y-8893674D02*
X5541231Y-8941293D01*
X5541231Y-8941293D02*
X5531707Y-8979389D01*
X5531707Y-8979389D02*
X5522183Y-8998436D01*
X5522183Y-8998436D02*
X5512659Y-9007960D01*
X5512659Y-9007960D02*
X5493612Y-9017484D01*
X5493612Y-9017484D02*
X5474564Y-9017484D01*
X5474564Y-9017484D02*
X5455517Y-9007960D01*
X5455517Y-9007960D02*
X5445993Y-8998436D01*
X5445993Y-8998436D02*
X5436469Y-8979389D01*
X5436469Y-8979389D02*
X5426945Y-8941293D01*
X5426945Y-8941293D02*
X5426945Y-8893674D01*
X5426945Y-8893674D02*
X5436469Y-8855579D01*
X5436469Y-8855579D02*
X5445993Y-8836531D01*
X5445993Y-8836531D02*
X5455517Y-8827008D01*
X5455517Y-8827008D02*
X5474564Y-8817484D01*
X5731707Y-9017484D02*
X5617421Y-9017484D01*
X5674564Y-9017484D02*
X5674564Y-8817484D01*
X5674564Y-8817484D02*
X5655516Y-8846055D01*
X5655516Y-8846055D02*
X5636469Y-8865103D01*
X5636469Y-8865103D02*
X5617421Y-8874627D01*
X5826945Y-9017484D02*
X5865040Y-9017484D01*
X5865040Y-9017484D02*
X5884088Y-9007960D01*
X5884088Y-9007960D02*
X5893612Y-8998436D01*
X5893612Y-8998436D02*
X5912659Y-8969865D01*
X5912659Y-8969865D02*
X5922183Y-8931770D01*
X5922183Y-8931770D02*
X5922183Y-8855579D01*
X5922183Y-8855579D02*
X5912659Y-8836531D01*
X5912659Y-8836531D02*
X5903136Y-8827008D01*
X5903136Y-8827008D02*
X5884088Y-8817484D01*
X5884088Y-8817484D02*
X5845993Y-8817484D01*
X5845993Y-8817484D02*
X5826945Y-8827008D01*
X5826945Y-8827008D02*
X5817421Y-8836531D01*
X5817421Y-8836531D02*
X5807897Y-8855579D01*
X5807897Y-8855579D02*
X5807897Y-8903198D01*
X5807897Y-8903198D02*
X5817421Y-8922246D01*
X5817421Y-8922246D02*
X5826945Y-8931770D01*
X5826945Y-8931770D02*
X5845993Y-8941293D01*
X5845993Y-8941293D02*
X5884088Y-8941293D01*
X5884088Y-8941293D02*
X5903136Y-8931770D01*
X5903136Y-8931770D02*
X5912659Y-8922246D01*
X5912659Y-8922246D02*
X5922183Y-8903198D01*
X5988850Y-8817484D02*
X6122183Y-8817484D01*
X6122183Y-8817484D02*
X6036469Y-9017484D01*
X6188850Y-8817484D02*
X6188850Y-8855579D01*
X6265040Y-8817484D02*
X6265040Y-8855579D01*
X6560279Y-9093674D02*
X6550755Y-9084150D01*
X6550755Y-9084150D02*
X6531707Y-9055579D01*
X6531707Y-9055579D02*
X6522183Y-9036531D01*
X6522183Y-9036531D02*
X6512659Y-9007960D01*
X6512659Y-9007960D02*
X6503136Y-8960341D01*
X6503136Y-8960341D02*
X6503136Y-8922246D01*
X6503136Y-8922246D02*
X6512659Y-8874627D01*
X6512659Y-8874627D02*
X6522183Y-8846055D01*
X6522183Y-8846055D02*
X6531707Y-8827008D01*
X6531707Y-8827008D02*
X6550755Y-8798436D01*
X6550755Y-8798436D02*
X6560279Y-8788912D01*
X6665040Y-8903198D02*
X6645993Y-8893674D01*
X6645993Y-8893674D02*
X6636469Y-8884150D01*
X6636469Y-8884150D02*
X6626945Y-8865103D01*
X6626945Y-8865103D02*
X6626945Y-8855579D01*
X6626945Y-8855579D02*
X6636469Y-8836531D01*
X6636469Y-8836531D02*
X6645993Y-8827008D01*
X6645993Y-8827008D02*
X6665040Y-8817484D01*
X6665040Y-8817484D02*
X6703136Y-8817484D01*
X6703136Y-8817484D02*
X6722183Y-8827008D01*
X6722183Y-8827008D02*
X6731707Y-8836531D01*
X6731707Y-8836531D02*
X6741231Y-8855579D01*
X6741231Y-8855579D02*
X6741231Y-8865103D01*
X6741231Y-8865103D02*
X6731707Y-8884150D01*
X6731707Y-8884150D02*
X6722183Y-8893674D01*
X6722183Y-8893674D02*
X6703136Y-8903198D01*
X6703136Y-8903198D02*
X6665040Y-8903198D01*
X6665040Y-8903198D02*
X6645993Y-8912722D01*
X6645993Y-8912722D02*
X6636469Y-8922246D01*
X6636469Y-8922246D02*
X6626945Y-8941293D01*
X6626945Y-8941293D02*
X6626945Y-8979389D01*
X6626945Y-8979389D02*
X6636469Y-8998436D01*
X6636469Y-8998436D02*
X6645993Y-9007960D01*
X6645993Y-9007960D02*
X6665040Y-9017484D01*
X6665040Y-9017484D02*
X6703136Y-9017484D01*
X6703136Y-9017484D02*
X6722183Y-9007960D01*
X6722183Y-9007960D02*
X6731707Y-8998436D01*
X6731707Y-8998436D02*
X6741231Y-8979389D01*
X6741231Y-8979389D02*
X6741231Y-8941293D01*
X6741231Y-8941293D02*
X6731707Y-8922246D01*
X6731707Y-8922246D02*
X6722183Y-8912722D01*
X6722183Y-8912722D02*
X6703136Y-8903198D01*
X6979326Y-9017484D02*
X6979326Y-8817484D01*
X7065040Y-9017484D02*
X7065040Y-8912722D01*
X7065040Y-8912722D02*
X7055517Y-8893674D01*
X7055517Y-8893674D02*
X7036469Y-8884150D01*
X7036469Y-8884150D02*
X7007898Y-8884150D01*
X7007898Y-8884150D02*
X6988850Y-8893674D01*
X6988850Y-8893674D02*
X6979326Y-8903198D01*
X7188850Y-9017484D02*
X7169802Y-9007960D01*
X7169802Y-9007960D02*
X7160279Y-8998436D01*
X7160279Y-8998436D02*
X7150755Y-8979389D01*
X7150755Y-8979389D02*
X7150755Y-8922246D01*
X7150755Y-8922246D02*
X7160279Y-8903198D01*
X7160279Y-8903198D02*
X7169802Y-8893674D01*
X7169802Y-8893674D02*
X7188850Y-8884150D01*
X7188850Y-8884150D02*
X7217421Y-8884150D01*
X7217421Y-8884150D02*
X7236469Y-8893674D01*
X7236469Y-8893674D02*
X7245993Y-8903198D01*
X7245993Y-8903198D02*
X7255517Y-8922246D01*
X7255517Y-8922246D02*
X7255517Y-8979389D01*
X7255517Y-8979389D02*
X7245993Y-8998436D01*
X7245993Y-8998436D02*
X7236469Y-9007960D01*
X7236469Y-9007960D02*
X7217421Y-9017484D01*
X7217421Y-9017484D02*
X7188850Y-9017484D01*
X7369802Y-9017484D02*
X7350755Y-9007960D01*
X7350755Y-9007960D02*
X7341231Y-8988912D01*
X7341231Y-8988912D02*
X7341231Y-8817484D01*
X7522183Y-9007960D02*
X7503136Y-9017484D01*
X7503136Y-9017484D02*
X7465040Y-9017484D01*
X7465040Y-9017484D02*
X7445993Y-9007960D01*
X7445993Y-9007960D02*
X7436469Y-8988912D01*
X7436469Y-8988912D02*
X7436469Y-8912722D01*
X7436469Y-8912722D02*
X7445993Y-8893674D01*
X7445993Y-8893674D02*
X7465040Y-8884150D01*
X7465040Y-8884150D02*
X7503136Y-8884150D01*
X7503136Y-8884150D02*
X7522183Y-8893674D01*
X7522183Y-8893674D02*
X7531707Y-8912722D01*
X7531707Y-8912722D02*
X7531707Y-8931770D01*
X7531707Y-8931770D02*
X7436469Y-8950817D01*
X7607898Y-9007960D02*
X7626945Y-9017484D01*
X7626945Y-9017484D02*
X7665040Y-9017484D01*
X7665040Y-9017484D02*
X7684088Y-9007960D01*
X7684088Y-9007960D02*
X7693612Y-8988912D01*
X7693612Y-8988912D02*
X7693612Y-8979389D01*
X7693612Y-8979389D02*
X7684088Y-8960341D01*
X7684088Y-8960341D02*
X7665040Y-8950817D01*
X7665040Y-8950817D02*
X7636469Y-8950817D01*
X7636469Y-8950817D02*
X7617421Y-8941293D01*
X7617421Y-8941293D02*
X7607898Y-8922246D01*
X7607898Y-8922246D02*
X7607898Y-8912722D01*
X7607898Y-8912722D02*
X7617421Y-8893674D01*
X7617421Y-8893674D02*
X7636469Y-8884150D01*
X7636469Y-8884150D02*
X7665040Y-8884150D01*
X7665040Y-8884150D02*
X7684088Y-8893674D01*
X7760279Y-9093674D02*
X7769802Y-9084150D01*
X7769802Y-9084150D02*
X7788850Y-9055579D01*
X7788850Y-9055579D02*
X7798374Y-9036531D01*
X7798374Y-9036531D02*
X7807898Y-9007960D01*
X7807898Y-9007960D02*
X7817421Y-8960341D01*
X7817421Y-8960341D02*
X7817421Y-8922246D01*
X7817421Y-8922246D02*
X7807898Y-8874627D01*
X7807898Y-8874627D02*
X7798374Y-8846055D01*
X7798374Y-8846055D02*
X7788850Y-8827008D01*
X7788850Y-8827008D02*
X7769802Y-8798436D01*
X7769802Y-8798436D02*
X7760279Y-8788912D01*
D12*
X2935216Y-9140000D02*
X2935216Y-9240000D01*
X2885216Y-9190000D02*
X2985216Y-9190000D01*
D11*
X3350754Y-9281484D02*
X3236469Y-9281484D01*
X3293611Y-9281484D02*
X3293611Y-9081484D01*
X3293611Y-9081484D02*
X3274564Y-9110055D01*
X3274564Y-9110055D02*
X3255516Y-9129103D01*
X3255516Y-9129103D02*
X3236469Y-9138627D01*
X3436469Y-9262436D02*
X3445992Y-9271960D01*
X3445992Y-9271960D02*
X3436469Y-9281484D01*
X3436469Y-9281484D02*
X3426945Y-9271960D01*
X3426945Y-9271960D02*
X3436469Y-9262436D01*
X3436469Y-9262436D02*
X3436469Y-9281484D01*
X3569802Y-9081484D02*
X3588850Y-9081484D01*
X3588850Y-9081484D02*
X3607897Y-9091008D01*
X3607897Y-9091008D02*
X3617421Y-9100531D01*
X3617421Y-9100531D02*
X3626945Y-9119579D01*
X3626945Y-9119579D02*
X3636469Y-9157674D01*
X3636469Y-9157674D02*
X3636469Y-9205293D01*
X3636469Y-9205293D02*
X3626945Y-9243389D01*
X3626945Y-9243389D02*
X3617421Y-9262436D01*
X3617421Y-9262436D02*
X3607897Y-9271960D01*
X3607897Y-9271960D02*
X3588850Y-9281484D01*
X3588850Y-9281484D02*
X3569802Y-9281484D01*
X3569802Y-9281484D02*
X3550754Y-9271960D01*
X3550754Y-9271960D02*
X3541231Y-9262436D01*
X3541231Y-9262436D02*
X3531707Y-9243389D01*
X3531707Y-9243389D02*
X3522183Y-9205293D01*
X3522183Y-9205293D02*
X3522183Y-9157674D01*
X3522183Y-9157674D02*
X3531707Y-9119579D01*
X3531707Y-9119579D02*
X3541231Y-9100531D01*
X3541231Y-9100531D02*
X3550754Y-9091008D01*
X3550754Y-9091008D02*
X3569802Y-9081484D01*
X3760278Y-9081484D02*
X3779326Y-9081484D01*
X3779326Y-9081484D02*
X3798373Y-9091008D01*
X3798373Y-9091008D02*
X3807897Y-9100531D01*
X3807897Y-9100531D02*
X3817421Y-9119579D01*
X3817421Y-9119579D02*
X3826945Y-9157674D01*
X3826945Y-9157674D02*
X3826945Y-9205293D01*
X3826945Y-9205293D02*
X3817421Y-9243389D01*
X3817421Y-9243389D02*
X3807897Y-9262436D01*
X3807897Y-9262436D02*
X3798373Y-9271960D01*
X3798373Y-9271960D02*
X3779326Y-9281484D01*
X3779326Y-9281484D02*
X3760278Y-9281484D01*
X3760278Y-9281484D02*
X3741231Y-9271960D01*
X3741231Y-9271960D02*
X3731707Y-9262436D01*
X3731707Y-9262436D02*
X3722183Y-9243389D01*
X3722183Y-9243389D02*
X3712659Y-9205293D01*
X3712659Y-9205293D02*
X3712659Y-9157674D01*
X3712659Y-9157674D02*
X3722183Y-9119579D01*
X3722183Y-9119579D02*
X3731707Y-9100531D01*
X3731707Y-9100531D02*
X3741231Y-9091008D01*
X3741231Y-9091008D02*
X3760278Y-9081484D01*
X3950754Y-9081484D02*
X3969802Y-9081484D01*
X3969802Y-9081484D02*
X3988850Y-9091008D01*
X3988850Y-9091008D02*
X3998373Y-9100531D01*
X3998373Y-9100531D02*
X4007897Y-9119579D01*
X4007897Y-9119579D02*
X4017421Y-9157674D01*
X4017421Y-9157674D02*
X4017421Y-9205293D01*
X4017421Y-9205293D02*
X4007897Y-9243389D01*
X4007897Y-9243389D02*
X3998373Y-9262436D01*
X3998373Y-9262436D02*
X3988850Y-9271960D01*
X3988850Y-9271960D02*
X3969802Y-9281484D01*
X3969802Y-9281484D02*
X3950754Y-9281484D01*
X3950754Y-9281484D02*
X3931707Y-9271960D01*
X3931707Y-9271960D02*
X3922183Y-9262436D01*
X3922183Y-9262436D02*
X3912659Y-9243389D01*
X3912659Y-9243389D02*
X3903135Y-9205293D01*
X3903135Y-9205293D02*
X3903135Y-9157674D01*
X3903135Y-9157674D02*
X3912659Y-9119579D01*
X3912659Y-9119579D02*
X3922183Y-9100531D01*
X3922183Y-9100531D02*
X3931707Y-9091008D01*
X3931707Y-9091008D02*
X3950754Y-9081484D01*
X4103135Y-9281484D02*
X4103135Y-9148150D01*
X4103135Y-9167198D02*
X4112659Y-9157674D01*
X4112659Y-9157674D02*
X4131707Y-9148150D01*
X4131707Y-9148150D02*
X4160278Y-9148150D01*
X4160278Y-9148150D02*
X4179326Y-9157674D01*
X4179326Y-9157674D02*
X4188850Y-9176722D01*
X4188850Y-9176722D02*
X4188850Y-9281484D01*
X4188850Y-9176722D02*
X4198374Y-9157674D01*
X4198374Y-9157674D02*
X4217421Y-9148150D01*
X4217421Y-9148150D02*
X4245993Y-9148150D01*
X4245993Y-9148150D02*
X4265040Y-9157674D01*
X4265040Y-9157674D02*
X4274564Y-9176722D01*
X4274564Y-9176722D02*
X4274564Y-9281484D01*
X4369802Y-9281484D02*
X4369802Y-9148150D01*
X4369802Y-9167198D02*
X4379326Y-9157674D01*
X4379326Y-9157674D02*
X4398374Y-9148150D01*
X4398374Y-9148150D02*
X4426945Y-9148150D01*
X4426945Y-9148150D02*
X4445993Y-9157674D01*
X4445993Y-9157674D02*
X4455516Y-9176722D01*
X4455516Y-9176722D02*
X4455516Y-9281484D01*
X4455516Y-9176722D02*
X4465040Y-9157674D01*
X4465040Y-9157674D02*
X4484088Y-9148150D01*
X4484088Y-9148150D02*
X4512659Y-9148150D01*
X4512659Y-9148150D02*
X4531707Y-9157674D01*
X4531707Y-9157674D02*
X4541231Y-9176722D01*
X4541231Y-9176722D02*
X4541231Y-9281484D01*
X4931707Y-9071960D02*
X4760278Y-9329103D01*
X5188850Y-9081484D02*
X5207898Y-9081484D01*
X5207898Y-9081484D02*
X5226945Y-9091008D01*
X5226945Y-9091008D02*
X5236469Y-9100531D01*
X5236469Y-9100531D02*
X5245993Y-9119579D01*
X5245993Y-9119579D02*
X5255517Y-9157674D01*
X5255517Y-9157674D02*
X5255517Y-9205293D01*
X5255517Y-9205293D02*
X5245993Y-9243389D01*
X5245993Y-9243389D02*
X5236469Y-9262436D01*
X5236469Y-9262436D02*
X5226945Y-9271960D01*
X5226945Y-9271960D02*
X5207898Y-9281484D01*
X5207898Y-9281484D02*
X5188850Y-9281484D01*
X5188850Y-9281484D02*
X5169802Y-9271960D01*
X5169802Y-9271960D02*
X5160278Y-9262436D01*
X5160278Y-9262436D02*
X5150755Y-9243389D01*
X5150755Y-9243389D02*
X5141231Y-9205293D01*
X5141231Y-9205293D02*
X5141231Y-9157674D01*
X5141231Y-9157674D02*
X5150755Y-9119579D01*
X5150755Y-9119579D02*
X5160278Y-9100531D01*
X5160278Y-9100531D02*
X5169802Y-9091008D01*
X5169802Y-9091008D02*
X5188850Y-9081484D01*
X5341231Y-9262436D02*
X5350755Y-9271960D01*
X5350755Y-9271960D02*
X5341231Y-9281484D01*
X5341231Y-9281484D02*
X5331707Y-9271960D01*
X5331707Y-9271960D02*
X5341231Y-9262436D01*
X5341231Y-9262436D02*
X5341231Y-9281484D01*
X5474564Y-9081484D02*
X5493612Y-9081484D01*
X5493612Y-9081484D02*
X5512659Y-9091008D01*
X5512659Y-9091008D02*
X5522183Y-9100531D01*
X5522183Y-9100531D02*
X5531707Y-9119579D01*
X5531707Y-9119579D02*
X5541231Y-9157674D01*
X5541231Y-9157674D02*
X5541231Y-9205293D01*
X5541231Y-9205293D02*
X5531707Y-9243389D01*
X5531707Y-9243389D02*
X5522183Y-9262436D01*
X5522183Y-9262436D02*
X5512659Y-9271960D01*
X5512659Y-9271960D02*
X5493612Y-9281484D01*
X5493612Y-9281484D02*
X5474564Y-9281484D01*
X5474564Y-9281484D02*
X5455517Y-9271960D01*
X5455517Y-9271960D02*
X5445993Y-9262436D01*
X5445993Y-9262436D02*
X5436469Y-9243389D01*
X5436469Y-9243389D02*
X5426945Y-9205293D01*
X5426945Y-9205293D02*
X5426945Y-9157674D01*
X5426945Y-9157674D02*
X5436469Y-9119579D01*
X5436469Y-9119579D02*
X5445993Y-9100531D01*
X5445993Y-9100531D02*
X5455517Y-9091008D01*
X5455517Y-9091008D02*
X5474564Y-9081484D01*
X5607897Y-9081484D02*
X5731707Y-9081484D01*
X5731707Y-9081484D02*
X5665040Y-9157674D01*
X5665040Y-9157674D02*
X5693612Y-9157674D01*
X5693612Y-9157674D02*
X5712659Y-9167198D01*
X5712659Y-9167198D02*
X5722183Y-9176722D01*
X5722183Y-9176722D02*
X5731707Y-9195770D01*
X5731707Y-9195770D02*
X5731707Y-9243389D01*
X5731707Y-9243389D02*
X5722183Y-9262436D01*
X5722183Y-9262436D02*
X5712659Y-9271960D01*
X5712659Y-9271960D02*
X5693612Y-9281484D01*
X5693612Y-9281484D02*
X5636469Y-9281484D01*
X5636469Y-9281484D02*
X5617421Y-9271960D01*
X5617421Y-9271960D02*
X5607897Y-9262436D01*
X5826945Y-9281484D02*
X5865040Y-9281484D01*
X5865040Y-9281484D02*
X5884088Y-9271960D01*
X5884088Y-9271960D02*
X5893612Y-9262436D01*
X5893612Y-9262436D02*
X5912659Y-9233865D01*
X5912659Y-9233865D02*
X5922183Y-9195770D01*
X5922183Y-9195770D02*
X5922183Y-9119579D01*
X5922183Y-9119579D02*
X5912659Y-9100531D01*
X5912659Y-9100531D02*
X5903136Y-9091008D01*
X5903136Y-9091008D02*
X5884088Y-9081484D01*
X5884088Y-9081484D02*
X5845993Y-9081484D01*
X5845993Y-9081484D02*
X5826945Y-9091008D01*
X5826945Y-9091008D02*
X5817421Y-9100531D01*
X5817421Y-9100531D02*
X5807897Y-9119579D01*
X5807897Y-9119579D02*
X5807897Y-9167198D01*
X5807897Y-9167198D02*
X5817421Y-9186246D01*
X5817421Y-9186246D02*
X5826945Y-9195770D01*
X5826945Y-9195770D02*
X5845993Y-9205293D01*
X5845993Y-9205293D02*
X5884088Y-9205293D01*
X5884088Y-9205293D02*
X5903136Y-9195770D01*
X5903136Y-9195770D02*
X5912659Y-9186246D01*
X5912659Y-9186246D02*
X5922183Y-9167198D01*
X6093612Y-9148150D02*
X6093612Y-9281484D01*
X6045993Y-9071960D02*
X5998374Y-9214817D01*
X5998374Y-9214817D02*
X6122183Y-9214817D01*
X6188850Y-9081484D02*
X6188850Y-9119579D01*
X6265040Y-9081484D02*
X6265040Y-9119579D01*
X6560279Y-9357674D02*
X6550755Y-9348150D01*
X6550755Y-9348150D02*
X6531707Y-9319579D01*
X6531707Y-9319579D02*
X6522183Y-9300531D01*
X6522183Y-9300531D02*
X6512659Y-9271960D01*
X6512659Y-9271960D02*
X6503136Y-9224341D01*
X6503136Y-9224341D02*
X6503136Y-9186246D01*
X6503136Y-9186246D02*
X6512659Y-9138627D01*
X6512659Y-9138627D02*
X6522183Y-9110055D01*
X6522183Y-9110055D02*
X6531707Y-9091008D01*
X6531707Y-9091008D02*
X6550755Y-9062436D01*
X6550755Y-9062436D02*
X6560279Y-9052912D01*
X6665040Y-9167198D02*
X6645993Y-9157674D01*
X6645993Y-9157674D02*
X6636469Y-9148150D01*
X6636469Y-9148150D02*
X6626945Y-9129103D01*
X6626945Y-9129103D02*
X6626945Y-9119579D01*
X6626945Y-9119579D02*
X6636469Y-9100531D01*
X6636469Y-9100531D02*
X6645993Y-9091008D01*
X6645993Y-9091008D02*
X6665040Y-9081484D01*
X6665040Y-9081484D02*
X6703136Y-9081484D01*
X6703136Y-9081484D02*
X6722183Y-9091008D01*
X6722183Y-9091008D02*
X6731707Y-9100531D01*
X6731707Y-9100531D02*
X6741231Y-9119579D01*
X6741231Y-9119579D02*
X6741231Y-9129103D01*
X6741231Y-9129103D02*
X6731707Y-9148150D01*
X6731707Y-9148150D02*
X6722183Y-9157674D01*
X6722183Y-9157674D02*
X6703136Y-9167198D01*
X6703136Y-9167198D02*
X6665040Y-9167198D01*
X6665040Y-9167198D02*
X6645993Y-9176722D01*
X6645993Y-9176722D02*
X6636469Y-9186246D01*
X6636469Y-9186246D02*
X6626945Y-9205293D01*
X6626945Y-9205293D02*
X6626945Y-9243389D01*
X6626945Y-9243389D02*
X6636469Y-9262436D01*
X6636469Y-9262436D02*
X6645993Y-9271960D01*
X6645993Y-9271960D02*
X6665040Y-9281484D01*
X6665040Y-9281484D02*
X6703136Y-9281484D01*
X6703136Y-9281484D02*
X6722183Y-9271960D01*
X6722183Y-9271960D02*
X6731707Y-9262436D01*
X6731707Y-9262436D02*
X6741231Y-9243389D01*
X6741231Y-9243389D02*
X6741231Y-9205293D01*
X6741231Y-9205293D02*
X6731707Y-9186246D01*
X6731707Y-9186246D02*
X6722183Y-9176722D01*
X6722183Y-9176722D02*
X6703136Y-9167198D01*
X6979326Y-9281484D02*
X6979326Y-9081484D01*
X7065040Y-9281484D02*
X7065040Y-9176722D01*
X7065040Y-9176722D02*
X7055517Y-9157674D01*
X7055517Y-9157674D02*
X7036469Y-9148150D01*
X7036469Y-9148150D02*
X7007898Y-9148150D01*
X7007898Y-9148150D02*
X6988850Y-9157674D01*
X6988850Y-9157674D02*
X6979326Y-9167198D01*
X7188850Y-9281484D02*
X7169802Y-9271960D01*
X7169802Y-9271960D02*
X7160279Y-9262436D01*
X7160279Y-9262436D02*
X7150755Y-9243389D01*
X7150755Y-9243389D02*
X7150755Y-9186246D01*
X7150755Y-9186246D02*
X7160279Y-9167198D01*
X7160279Y-9167198D02*
X7169802Y-9157674D01*
X7169802Y-9157674D02*
X7188850Y-9148150D01*
X7188850Y-9148150D02*
X7217421Y-9148150D01*
X7217421Y-9148150D02*
X7236469Y-9157674D01*
X7236469Y-9157674D02*
X7245993Y-9167198D01*
X7245993Y-9167198D02*
X7255517Y-9186246D01*
X7255517Y-9186246D02*
X7255517Y-9243389D01*
X7255517Y-9243389D02*
X7245993Y-9262436D01*
X7245993Y-9262436D02*
X7236469Y-9271960D01*
X7236469Y-9271960D02*
X7217421Y-9281484D01*
X7217421Y-9281484D02*
X7188850Y-9281484D01*
X7369802Y-9281484D02*
X7350755Y-9271960D01*
X7350755Y-9271960D02*
X7341231Y-9252912D01*
X7341231Y-9252912D02*
X7341231Y-9081484D01*
X7522183Y-9271960D02*
X7503136Y-9281484D01*
X7503136Y-9281484D02*
X7465040Y-9281484D01*
X7465040Y-9281484D02*
X7445993Y-9271960D01*
X7445993Y-9271960D02*
X7436469Y-9252912D01*
X7436469Y-9252912D02*
X7436469Y-9176722D01*
X7436469Y-9176722D02*
X7445993Y-9157674D01*
X7445993Y-9157674D02*
X7465040Y-9148150D01*
X7465040Y-9148150D02*
X7503136Y-9148150D01*
X7503136Y-9148150D02*
X7522183Y-9157674D01*
X7522183Y-9157674D02*
X7531707Y-9176722D01*
X7531707Y-9176722D02*
X7531707Y-9195770D01*
X7531707Y-9195770D02*
X7436469Y-9214817D01*
X7607898Y-9271960D02*
X7626945Y-9281484D01*
X7626945Y-9281484D02*
X7665040Y-9281484D01*
X7665040Y-9281484D02*
X7684088Y-9271960D01*
X7684088Y-9271960D02*
X7693612Y-9252912D01*
X7693612Y-9252912D02*
X7693612Y-9243389D01*
X7693612Y-9243389D02*
X7684088Y-9224341D01*
X7684088Y-9224341D02*
X7665040Y-9214817D01*
X7665040Y-9214817D02*
X7636469Y-9214817D01*
X7636469Y-9214817D02*
X7617421Y-9205293D01*
X7617421Y-9205293D02*
X7607898Y-9186246D01*
X7607898Y-9186246D02*
X7607898Y-9176722D01*
X7607898Y-9176722D02*
X7617421Y-9157674D01*
X7617421Y-9157674D02*
X7636469Y-9148150D01*
X7636469Y-9148150D02*
X7665040Y-9148150D01*
X7665040Y-9148150D02*
X7684088Y-9157674D01*
X7760279Y-9357674D02*
X7769802Y-9348150D01*
X7769802Y-9348150D02*
X7788850Y-9319579D01*
X7788850Y-9319579D02*
X7798374Y-9300531D01*
X7798374Y-9300531D02*
X7807898Y-9271960D01*
X7807898Y-9271960D02*
X7817421Y-9224341D01*
X7817421Y-9224341D02*
X7817421Y-9186246D01*
X7817421Y-9186246D02*
X7807898Y-9138627D01*
X7807898Y-9138627D02*
X7798374Y-9110055D01*
X7798374Y-9110055D02*
X7788850Y-9091008D01*
X7788850Y-9091008D02*
X7769802Y-9062436D01*
X7769802Y-9062436D02*
X7760279Y-9052912D01*
D13*
X2962956Y-9507741D02*
X2962956Y-9400259D01*
X2855475Y-9400259D01*
X2855475Y-9507741D01*
X2962956Y-9507741D01*
D11*
X3350754Y-9545484D02*
X3236469Y-9545484D01*
X3293611Y-9545484D02*
X3293611Y-9345484D01*
X3293611Y-9345484D02*
X3274564Y-9374055D01*
X3274564Y-9374055D02*
X3255516Y-9393103D01*
X3255516Y-9393103D02*
X3236469Y-9402627D01*
X3436469Y-9526436D02*
X3445992Y-9535960D01*
X3445992Y-9535960D02*
X3436469Y-9545484D01*
X3436469Y-9545484D02*
X3426945Y-9535960D01*
X3426945Y-9535960D02*
X3436469Y-9526436D01*
X3436469Y-9526436D02*
X3436469Y-9545484D01*
X3626945Y-9345484D02*
X3531707Y-9345484D01*
X3531707Y-9345484D02*
X3522183Y-9440722D01*
X3522183Y-9440722D02*
X3531707Y-9431198D01*
X3531707Y-9431198D02*
X3550754Y-9421674D01*
X3550754Y-9421674D02*
X3598373Y-9421674D01*
X3598373Y-9421674D02*
X3617421Y-9431198D01*
X3617421Y-9431198D02*
X3626945Y-9440722D01*
X3626945Y-9440722D02*
X3636469Y-9459770D01*
X3636469Y-9459770D02*
X3636469Y-9507389D01*
X3636469Y-9507389D02*
X3626945Y-9526436D01*
X3626945Y-9526436D02*
X3617421Y-9535960D01*
X3617421Y-9535960D02*
X3598373Y-9545484D01*
X3598373Y-9545484D02*
X3550754Y-9545484D01*
X3550754Y-9545484D02*
X3531707Y-9535960D01*
X3531707Y-9535960D02*
X3522183Y-9526436D01*
X3712659Y-9364531D02*
X3722183Y-9355008D01*
X3722183Y-9355008D02*
X3741231Y-9345484D01*
X3741231Y-9345484D02*
X3788850Y-9345484D01*
X3788850Y-9345484D02*
X3807897Y-9355008D01*
X3807897Y-9355008D02*
X3817421Y-9364531D01*
X3817421Y-9364531D02*
X3826945Y-9383579D01*
X3826945Y-9383579D02*
X3826945Y-9402627D01*
X3826945Y-9402627D02*
X3817421Y-9431198D01*
X3817421Y-9431198D02*
X3703135Y-9545484D01*
X3703135Y-9545484D02*
X3826945Y-9545484D01*
X3950754Y-9345484D02*
X3969802Y-9345484D01*
X3969802Y-9345484D02*
X3988850Y-9355008D01*
X3988850Y-9355008D02*
X3998373Y-9364531D01*
X3998373Y-9364531D02*
X4007897Y-9383579D01*
X4007897Y-9383579D02*
X4017421Y-9421674D01*
X4017421Y-9421674D02*
X4017421Y-9469293D01*
X4017421Y-9469293D02*
X4007897Y-9507389D01*
X4007897Y-9507389D02*
X3998373Y-9526436D01*
X3998373Y-9526436D02*
X3988850Y-9535960D01*
X3988850Y-9535960D02*
X3969802Y-9545484D01*
X3969802Y-9545484D02*
X3950754Y-9545484D01*
X3950754Y-9545484D02*
X3931707Y-9535960D01*
X3931707Y-9535960D02*
X3922183Y-9526436D01*
X3922183Y-9526436D02*
X3912659Y-9507389D01*
X3912659Y-9507389D02*
X3903135Y-9469293D01*
X3903135Y-9469293D02*
X3903135Y-9421674D01*
X3903135Y-9421674D02*
X3912659Y-9383579D01*
X3912659Y-9383579D02*
X3922183Y-9364531D01*
X3922183Y-9364531D02*
X3931707Y-9355008D01*
X3931707Y-9355008D02*
X3950754Y-9345484D01*
X4103135Y-9545484D02*
X4103135Y-9412150D01*
X4103135Y-9431198D02*
X4112659Y-9421674D01*
X4112659Y-9421674D02*
X4131707Y-9412150D01*
X4131707Y-9412150D02*
X4160278Y-9412150D01*
X4160278Y-9412150D02*
X4179326Y-9421674D01*
X4179326Y-9421674D02*
X4188850Y-9440722D01*
X4188850Y-9440722D02*
X4188850Y-9545484D01*
X4188850Y-9440722D02*
X4198374Y-9421674D01*
X4198374Y-9421674D02*
X4217421Y-9412150D01*
X4217421Y-9412150D02*
X4245993Y-9412150D01*
X4245993Y-9412150D02*
X4265040Y-9421674D01*
X4265040Y-9421674D02*
X4274564Y-9440722D01*
X4274564Y-9440722D02*
X4274564Y-9545484D01*
X4369802Y-9545484D02*
X4369802Y-9412150D01*
X4369802Y-9431198D02*
X4379326Y-9421674D01*
X4379326Y-9421674D02*
X4398374Y-9412150D01*
X4398374Y-9412150D02*
X4426945Y-9412150D01*
X4426945Y-9412150D02*
X4445993Y-9421674D01*
X4445993Y-9421674D02*
X4455516Y-9440722D01*
X4455516Y-9440722D02*
X4455516Y-9545484D01*
X4455516Y-9440722D02*
X4465040Y-9421674D01*
X4465040Y-9421674D02*
X4484088Y-9412150D01*
X4484088Y-9412150D02*
X4512659Y-9412150D01*
X4512659Y-9412150D02*
X4531707Y-9421674D01*
X4531707Y-9421674D02*
X4541231Y-9440722D01*
X4541231Y-9440722D02*
X4541231Y-9545484D01*
X4931707Y-9335960D02*
X4760278Y-9593103D01*
X5188850Y-9345484D02*
X5207898Y-9345484D01*
X5207898Y-9345484D02*
X5226945Y-9355008D01*
X5226945Y-9355008D02*
X5236469Y-9364531D01*
X5236469Y-9364531D02*
X5245993Y-9383579D01*
X5245993Y-9383579D02*
X5255517Y-9421674D01*
X5255517Y-9421674D02*
X5255517Y-9469293D01*
X5255517Y-9469293D02*
X5245993Y-9507389D01*
X5245993Y-9507389D02*
X5236469Y-9526436D01*
X5236469Y-9526436D02*
X5226945Y-9535960D01*
X5226945Y-9535960D02*
X5207898Y-9545484D01*
X5207898Y-9545484D02*
X5188850Y-9545484D01*
X5188850Y-9545484D02*
X5169802Y-9535960D01*
X5169802Y-9535960D02*
X5160278Y-9526436D01*
X5160278Y-9526436D02*
X5150755Y-9507389D01*
X5150755Y-9507389D02*
X5141231Y-9469293D01*
X5141231Y-9469293D02*
X5141231Y-9421674D01*
X5141231Y-9421674D02*
X5150755Y-9383579D01*
X5150755Y-9383579D02*
X5160278Y-9364531D01*
X5160278Y-9364531D02*
X5169802Y-9355008D01*
X5169802Y-9355008D02*
X5188850Y-9345484D01*
X5341231Y-9526436D02*
X5350755Y-9535960D01*
X5350755Y-9535960D02*
X5341231Y-9545484D01*
X5341231Y-9545484D02*
X5331707Y-9535960D01*
X5331707Y-9535960D02*
X5341231Y-9526436D01*
X5341231Y-9526436D02*
X5341231Y-9545484D01*
X5474564Y-9345484D02*
X5493612Y-9345484D01*
X5493612Y-9345484D02*
X5512659Y-9355008D01*
X5512659Y-9355008D02*
X5522183Y-9364531D01*
X5522183Y-9364531D02*
X5531707Y-9383579D01*
X5531707Y-9383579D02*
X5541231Y-9421674D01*
X5541231Y-9421674D02*
X5541231Y-9469293D01*
X5541231Y-9469293D02*
X5531707Y-9507389D01*
X5531707Y-9507389D02*
X5522183Y-9526436D01*
X5522183Y-9526436D02*
X5512659Y-9535960D01*
X5512659Y-9535960D02*
X5493612Y-9545484D01*
X5493612Y-9545484D02*
X5474564Y-9545484D01*
X5474564Y-9545484D02*
X5455517Y-9535960D01*
X5455517Y-9535960D02*
X5445993Y-9526436D01*
X5445993Y-9526436D02*
X5436469Y-9507389D01*
X5436469Y-9507389D02*
X5426945Y-9469293D01*
X5426945Y-9469293D02*
X5426945Y-9421674D01*
X5426945Y-9421674D02*
X5436469Y-9383579D01*
X5436469Y-9383579D02*
X5445993Y-9364531D01*
X5445993Y-9364531D02*
X5455517Y-9355008D01*
X5455517Y-9355008D02*
X5474564Y-9345484D01*
X5722183Y-9345484D02*
X5626945Y-9345484D01*
X5626945Y-9345484D02*
X5617421Y-9440722D01*
X5617421Y-9440722D02*
X5626945Y-9431198D01*
X5626945Y-9431198D02*
X5645993Y-9421674D01*
X5645993Y-9421674D02*
X5693612Y-9421674D01*
X5693612Y-9421674D02*
X5712659Y-9431198D01*
X5712659Y-9431198D02*
X5722183Y-9440722D01*
X5722183Y-9440722D02*
X5731707Y-9459770D01*
X5731707Y-9459770D02*
X5731707Y-9507389D01*
X5731707Y-9507389D02*
X5722183Y-9526436D01*
X5722183Y-9526436D02*
X5712659Y-9535960D01*
X5712659Y-9535960D02*
X5693612Y-9545484D01*
X5693612Y-9545484D02*
X5645993Y-9545484D01*
X5645993Y-9545484D02*
X5626945Y-9535960D01*
X5626945Y-9535960D02*
X5617421Y-9526436D01*
X5826945Y-9545484D02*
X5865040Y-9545484D01*
X5865040Y-9545484D02*
X5884088Y-9535960D01*
X5884088Y-9535960D02*
X5893612Y-9526436D01*
X5893612Y-9526436D02*
X5912659Y-9497865D01*
X5912659Y-9497865D02*
X5922183Y-9459770D01*
X5922183Y-9459770D02*
X5922183Y-9383579D01*
X5922183Y-9383579D02*
X5912659Y-9364531D01*
X5912659Y-9364531D02*
X5903136Y-9355008D01*
X5903136Y-9355008D02*
X5884088Y-9345484D01*
X5884088Y-9345484D02*
X5845993Y-9345484D01*
X5845993Y-9345484D02*
X5826945Y-9355008D01*
X5826945Y-9355008D02*
X5817421Y-9364531D01*
X5817421Y-9364531D02*
X5807897Y-9383579D01*
X5807897Y-9383579D02*
X5807897Y-9431198D01*
X5807897Y-9431198D02*
X5817421Y-9450246D01*
X5817421Y-9450246D02*
X5826945Y-9459770D01*
X5826945Y-9459770D02*
X5845993Y-9469293D01*
X5845993Y-9469293D02*
X5884088Y-9469293D01*
X5884088Y-9469293D02*
X5903136Y-9459770D01*
X5903136Y-9459770D02*
X5912659Y-9450246D01*
X5912659Y-9450246D02*
X5922183Y-9431198D01*
X6036469Y-9431198D02*
X6017421Y-9421674D01*
X6017421Y-9421674D02*
X6007897Y-9412150D01*
X6007897Y-9412150D02*
X5998374Y-9393103D01*
X5998374Y-9393103D02*
X5998374Y-9383579D01*
X5998374Y-9383579D02*
X6007897Y-9364531D01*
X6007897Y-9364531D02*
X6017421Y-9355008D01*
X6017421Y-9355008D02*
X6036469Y-9345484D01*
X6036469Y-9345484D02*
X6074564Y-9345484D01*
X6074564Y-9345484D02*
X6093612Y-9355008D01*
X6093612Y-9355008D02*
X6103136Y-9364531D01*
X6103136Y-9364531D02*
X6112659Y-9383579D01*
X6112659Y-9383579D02*
X6112659Y-9393103D01*
X6112659Y-9393103D02*
X6103136Y-9412150D01*
X6103136Y-9412150D02*
X6093612Y-9421674D01*
X6093612Y-9421674D02*
X6074564Y-9431198D01*
X6074564Y-9431198D02*
X6036469Y-9431198D01*
X6036469Y-9431198D02*
X6017421Y-9440722D01*
X6017421Y-9440722D02*
X6007897Y-9450246D01*
X6007897Y-9450246D02*
X5998374Y-9469293D01*
X5998374Y-9469293D02*
X5998374Y-9507389D01*
X5998374Y-9507389D02*
X6007897Y-9526436D01*
X6007897Y-9526436D02*
X6017421Y-9535960D01*
X6017421Y-9535960D02*
X6036469Y-9545484D01*
X6036469Y-9545484D02*
X6074564Y-9545484D01*
X6074564Y-9545484D02*
X6093612Y-9535960D01*
X6093612Y-9535960D02*
X6103136Y-9526436D01*
X6103136Y-9526436D02*
X6112659Y-9507389D01*
X6112659Y-9507389D02*
X6112659Y-9469293D01*
X6112659Y-9469293D02*
X6103136Y-9450246D01*
X6103136Y-9450246D02*
X6093612Y-9440722D01*
X6093612Y-9440722D02*
X6074564Y-9431198D01*
X6188850Y-9345484D02*
X6188850Y-9383579D01*
X6265040Y-9345484D02*
X6265040Y-9383579D01*
X6560279Y-9621674D02*
X6550755Y-9612150D01*
X6550755Y-9612150D02*
X6531707Y-9583579D01*
X6531707Y-9583579D02*
X6522183Y-9564531D01*
X6522183Y-9564531D02*
X6512659Y-9535960D01*
X6512659Y-9535960D02*
X6503136Y-9488341D01*
X6503136Y-9488341D02*
X6503136Y-9450246D01*
X6503136Y-9450246D02*
X6512659Y-9402627D01*
X6512659Y-9402627D02*
X6522183Y-9374055D01*
X6522183Y-9374055D02*
X6531707Y-9355008D01*
X6531707Y-9355008D02*
X6550755Y-9326436D01*
X6550755Y-9326436D02*
X6560279Y-9316912D01*
X6741231Y-9545484D02*
X6626945Y-9545484D01*
X6684088Y-9545484D02*
X6684088Y-9345484D01*
X6684088Y-9345484D02*
X6665040Y-9374055D01*
X6665040Y-9374055D02*
X6645993Y-9393103D01*
X6645993Y-9393103D02*
X6626945Y-9402627D01*
X6817421Y-9364531D02*
X6826945Y-9355008D01*
X6826945Y-9355008D02*
X6845993Y-9345484D01*
X6845993Y-9345484D02*
X6893612Y-9345484D01*
X6893612Y-9345484D02*
X6912659Y-9355008D01*
X6912659Y-9355008D02*
X6922183Y-9364531D01*
X6922183Y-9364531D02*
X6931707Y-9383579D01*
X6931707Y-9383579D02*
X6931707Y-9402627D01*
X6931707Y-9402627D02*
X6922183Y-9431198D01*
X6922183Y-9431198D02*
X6807898Y-9545484D01*
X6807898Y-9545484D02*
X6931707Y-9545484D01*
X7169802Y-9545484D02*
X7169802Y-9345484D01*
X7255517Y-9545484D02*
X7255517Y-9440722D01*
X7255517Y-9440722D02*
X7245993Y-9421674D01*
X7245993Y-9421674D02*
X7226945Y-9412150D01*
X7226945Y-9412150D02*
X7198374Y-9412150D01*
X7198374Y-9412150D02*
X7179326Y-9421674D01*
X7179326Y-9421674D02*
X7169802Y-9431198D01*
X7379326Y-9545484D02*
X7360279Y-9535960D01*
X7360279Y-9535960D02*
X7350755Y-9526436D01*
X7350755Y-9526436D02*
X7341231Y-9507389D01*
X7341231Y-9507389D02*
X7341231Y-9450246D01*
X7341231Y-9450246D02*
X7350755Y-9431198D01*
X7350755Y-9431198D02*
X7360279Y-9421674D01*
X7360279Y-9421674D02*
X7379326Y-9412150D01*
X7379326Y-9412150D02*
X7407898Y-9412150D01*
X7407898Y-9412150D02*
X7426945Y-9421674D01*
X7426945Y-9421674D02*
X7436469Y-9431198D01*
X7436469Y-9431198D02*
X7445993Y-9450246D01*
X7445993Y-9450246D02*
X7445993Y-9507389D01*
X7445993Y-9507389D02*
X7436469Y-9526436D01*
X7436469Y-9526436D02*
X7426945Y-9535960D01*
X7426945Y-9535960D02*
X7407898Y-9545484D01*
X7407898Y-9545484D02*
X7379326Y-9545484D01*
X7560279Y-9545484D02*
X7541231Y-9535960D01*
X7541231Y-9535960D02*
X7531707Y-9516912D01*
X7531707Y-9516912D02*
X7531707Y-9345484D01*
X7712660Y-9535960D02*
X7693612Y-9545484D01*
X7693612Y-9545484D02*
X7655517Y-9545484D01*
X7655517Y-9545484D02*
X7636469Y-9535960D01*
X7636469Y-9535960D02*
X7626945Y-9516912D01*
X7626945Y-9516912D02*
X7626945Y-9440722D01*
X7626945Y-9440722D02*
X7636469Y-9421674D01*
X7636469Y-9421674D02*
X7655517Y-9412150D01*
X7655517Y-9412150D02*
X7693612Y-9412150D01*
X7693612Y-9412150D02*
X7712660Y-9421674D01*
X7712660Y-9421674D02*
X7722183Y-9440722D01*
X7722183Y-9440722D02*
X7722183Y-9459770D01*
X7722183Y-9459770D02*
X7626945Y-9478817D01*
X7798374Y-9535960D02*
X7817421Y-9545484D01*
X7817421Y-9545484D02*
X7855517Y-9545484D01*
X7855517Y-9545484D02*
X7874564Y-9535960D01*
X7874564Y-9535960D02*
X7884088Y-9516912D01*
X7884088Y-9516912D02*
X7884088Y-9507389D01*
X7884088Y-9507389D02*
X7874564Y-9488341D01*
X7874564Y-9488341D02*
X7855517Y-9478817D01*
X7855517Y-9478817D02*
X7826945Y-9478817D01*
X7826945Y-9478817D02*
X7807898Y-9469293D01*
X7807898Y-9469293D02*
X7798374Y-9450246D01*
X7798374Y-9450246D02*
X7798374Y-9440722D01*
X7798374Y-9440722D02*
X7807898Y-9421674D01*
X7807898Y-9421674D02*
X7826945Y-9412150D01*
X7826945Y-9412150D02*
X7855517Y-9412150D01*
X7855517Y-9412150D02*
X7874564Y-9421674D01*
X7950755Y-9621674D02*
X7960279Y-9612150D01*
X7960279Y-9612150D02*
X7979326Y-9583579D01*
X7979326Y-9583579D02*
X7988850Y-9564531D01*
X7988850Y-9564531D02*
X7998374Y-9535960D01*
X7998374Y-9535960D02*
X8007898Y-9488341D01*
X8007898Y-9488341D02*
X8007898Y-9450246D01*
X8007898Y-9450246D02*
X7998374Y-9402627D01*
X7998374Y-9402627D02*
X7988850Y-9374055D01*
X7988850Y-9374055D02*
X7979326Y-9355008D01*
X7979326Y-9355008D02*
X7960279Y-9326436D01*
X7960279Y-9326436D02*
X7950755Y-9316912D01*
X2885216Y-9826000D02*
X2985216Y-9726000D01*
X2885216Y-9626000D01*
X2785216Y-9726000D01*
X2885216Y-9826000D01*
X3226945Y-9617484D02*
X3350754Y-9617484D01*
X3350754Y-9617484D02*
X3284088Y-9693674D01*
X3284088Y-9693674D02*
X3312659Y-9693674D01*
X3312659Y-9693674D02*
X3331707Y-9703198D01*
X3331707Y-9703198D02*
X3341231Y-9712722D01*
X3341231Y-9712722D02*
X3350754Y-9731770D01*
X3350754Y-9731770D02*
X3350754Y-9779389D01*
X3350754Y-9779389D02*
X3341231Y-9798436D01*
X3341231Y-9798436D02*
X3331707Y-9807960D01*
X3331707Y-9807960D02*
X3312659Y-9817484D01*
X3312659Y-9817484D02*
X3255516Y-9817484D01*
X3255516Y-9817484D02*
X3236469Y-9807960D01*
X3236469Y-9807960D02*
X3226945Y-9798436D01*
X3436469Y-9798436D02*
X3445992Y-9807960D01*
X3445992Y-9807960D02*
X3436469Y-9817484D01*
X3436469Y-9817484D02*
X3426945Y-9807960D01*
X3426945Y-9807960D02*
X3436469Y-9798436D01*
X3436469Y-9798436D02*
X3436469Y-9817484D01*
X3626945Y-9617484D02*
X3531707Y-9617484D01*
X3531707Y-9617484D02*
X3522183Y-9712722D01*
X3522183Y-9712722D02*
X3531707Y-9703198D01*
X3531707Y-9703198D02*
X3550754Y-9693674D01*
X3550754Y-9693674D02*
X3598373Y-9693674D01*
X3598373Y-9693674D02*
X3617421Y-9703198D01*
X3617421Y-9703198D02*
X3626945Y-9712722D01*
X3626945Y-9712722D02*
X3636469Y-9731770D01*
X3636469Y-9731770D02*
X3636469Y-9779389D01*
X3636469Y-9779389D02*
X3626945Y-9798436D01*
X3626945Y-9798436D02*
X3617421Y-9807960D01*
X3617421Y-9807960D02*
X3598373Y-9817484D01*
X3598373Y-9817484D02*
X3550754Y-9817484D01*
X3550754Y-9817484D02*
X3531707Y-9807960D01*
X3531707Y-9807960D02*
X3522183Y-9798436D01*
X3760278Y-9617484D02*
X3779326Y-9617484D01*
X3779326Y-9617484D02*
X3798373Y-9627008D01*
X3798373Y-9627008D02*
X3807897Y-9636531D01*
X3807897Y-9636531D02*
X3817421Y-9655579D01*
X3817421Y-9655579D02*
X3826945Y-9693674D01*
X3826945Y-9693674D02*
X3826945Y-9741293D01*
X3826945Y-9741293D02*
X3817421Y-9779389D01*
X3817421Y-9779389D02*
X3807897Y-9798436D01*
X3807897Y-9798436D02*
X3798373Y-9807960D01*
X3798373Y-9807960D02*
X3779326Y-9817484D01*
X3779326Y-9817484D02*
X3760278Y-9817484D01*
X3760278Y-9817484D02*
X3741231Y-9807960D01*
X3741231Y-9807960D02*
X3731707Y-9798436D01*
X3731707Y-9798436D02*
X3722183Y-9779389D01*
X3722183Y-9779389D02*
X3712659Y-9741293D01*
X3712659Y-9741293D02*
X3712659Y-9693674D01*
X3712659Y-9693674D02*
X3722183Y-9655579D01*
X3722183Y-9655579D02*
X3731707Y-9636531D01*
X3731707Y-9636531D02*
X3741231Y-9627008D01*
X3741231Y-9627008D02*
X3760278Y-9617484D01*
X3950754Y-9617484D02*
X3969802Y-9617484D01*
X3969802Y-9617484D02*
X3988850Y-9627008D01*
X3988850Y-9627008D02*
X3998373Y-9636531D01*
X3998373Y-9636531D02*
X4007897Y-9655579D01*
X4007897Y-9655579D02*
X4017421Y-9693674D01*
X4017421Y-9693674D02*
X4017421Y-9741293D01*
X4017421Y-9741293D02*
X4007897Y-9779389D01*
X4007897Y-9779389D02*
X3998373Y-9798436D01*
X3998373Y-9798436D02*
X3988850Y-9807960D01*
X3988850Y-9807960D02*
X3969802Y-9817484D01*
X3969802Y-9817484D02*
X3950754Y-9817484D01*
X3950754Y-9817484D02*
X3931707Y-9807960D01*
X3931707Y-9807960D02*
X3922183Y-9798436D01*
X3922183Y-9798436D02*
X3912659Y-9779389D01*
X3912659Y-9779389D02*
X3903135Y-9741293D01*
X3903135Y-9741293D02*
X3903135Y-9693674D01*
X3903135Y-9693674D02*
X3912659Y-9655579D01*
X3912659Y-9655579D02*
X3922183Y-9636531D01*
X3922183Y-9636531D02*
X3931707Y-9627008D01*
X3931707Y-9627008D02*
X3950754Y-9617484D01*
X4103135Y-9817484D02*
X4103135Y-9684150D01*
X4103135Y-9703198D02*
X4112659Y-9693674D01*
X4112659Y-9693674D02*
X4131707Y-9684150D01*
X4131707Y-9684150D02*
X4160278Y-9684150D01*
X4160278Y-9684150D02*
X4179326Y-9693674D01*
X4179326Y-9693674D02*
X4188850Y-9712722D01*
X4188850Y-9712722D02*
X4188850Y-9817484D01*
X4188850Y-9712722D02*
X4198374Y-9693674D01*
X4198374Y-9693674D02*
X4217421Y-9684150D01*
X4217421Y-9684150D02*
X4245993Y-9684150D01*
X4245993Y-9684150D02*
X4265040Y-9693674D01*
X4265040Y-9693674D02*
X4274564Y-9712722D01*
X4274564Y-9712722D02*
X4274564Y-9817484D01*
X4369802Y-9817484D02*
X4369802Y-9684150D01*
X4369802Y-9703198D02*
X4379326Y-9693674D01*
X4379326Y-9693674D02*
X4398374Y-9684150D01*
X4398374Y-9684150D02*
X4426945Y-9684150D01*
X4426945Y-9684150D02*
X4445993Y-9693674D01*
X4445993Y-9693674D02*
X4455516Y-9712722D01*
X4455516Y-9712722D02*
X4455516Y-9817484D01*
X4455516Y-9712722D02*
X4465040Y-9693674D01*
X4465040Y-9693674D02*
X4484088Y-9684150D01*
X4484088Y-9684150D02*
X4512659Y-9684150D01*
X4512659Y-9684150D02*
X4531707Y-9693674D01*
X4531707Y-9693674D02*
X4541231Y-9712722D01*
X4541231Y-9712722D02*
X4541231Y-9817484D01*
X4931707Y-9607960D02*
X4760278Y-9865103D01*
X5188850Y-9617484D02*
X5207898Y-9617484D01*
X5207898Y-9617484D02*
X5226945Y-9627008D01*
X5226945Y-9627008D02*
X5236469Y-9636531D01*
X5236469Y-9636531D02*
X5245993Y-9655579D01*
X5245993Y-9655579D02*
X5255517Y-9693674D01*
X5255517Y-9693674D02*
X5255517Y-9741293D01*
X5255517Y-9741293D02*
X5245993Y-9779389D01*
X5245993Y-9779389D02*
X5236469Y-9798436D01*
X5236469Y-9798436D02*
X5226945Y-9807960D01*
X5226945Y-9807960D02*
X5207898Y-9817484D01*
X5207898Y-9817484D02*
X5188850Y-9817484D01*
X5188850Y-9817484D02*
X5169802Y-9807960D01*
X5169802Y-9807960D02*
X5160278Y-9798436D01*
X5160278Y-9798436D02*
X5150755Y-9779389D01*
X5150755Y-9779389D02*
X5141231Y-9741293D01*
X5141231Y-9741293D02*
X5141231Y-9693674D01*
X5141231Y-9693674D02*
X5150755Y-9655579D01*
X5150755Y-9655579D02*
X5160278Y-9636531D01*
X5160278Y-9636531D02*
X5169802Y-9627008D01*
X5169802Y-9627008D02*
X5188850Y-9617484D01*
X5341231Y-9798436D02*
X5350755Y-9807960D01*
X5350755Y-9807960D02*
X5341231Y-9817484D01*
X5341231Y-9817484D02*
X5331707Y-9807960D01*
X5331707Y-9807960D02*
X5341231Y-9798436D01*
X5341231Y-9798436D02*
X5341231Y-9817484D01*
X5541231Y-9817484D02*
X5426945Y-9817484D01*
X5484088Y-9817484D02*
X5484088Y-9617484D01*
X5484088Y-9617484D02*
X5465040Y-9646055D01*
X5465040Y-9646055D02*
X5445993Y-9665103D01*
X5445993Y-9665103D02*
X5426945Y-9674627D01*
X5607897Y-9617484D02*
X5731707Y-9617484D01*
X5731707Y-9617484D02*
X5665040Y-9693674D01*
X5665040Y-9693674D02*
X5693612Y-9693674D01*
X5693612Y-9693674D02*
X5712659Y-9703198D01*
X5712659Y-9703198D02*
X5722183Y-9712722D01*
X5722183Y-9712722D02*
X5731707Y-9731770D01*
X5731707Y-9731770D02*
X5731707Y-9779389D01*
X5731707Y-9779389D02*
X5722183Y-9798436D01*
X5722183Y-9798436D02*
X5712659Y-9807960D01*
X5712659Y-9807960D02*
X5693612Y-9817484D01*
X5693612Y-9817484D02*
X5636469Y-9817484D01*
X5636469Y-9817484D02*
X5617421Y-9807960D01*
X5617421Y-9807960D02*
X5607897Y-9798436D01*
X5798374Y-9617484D02*
X5931707Y-9617484D01*
X5931707Y-9617484D02*
X5845993Y-9817484D01*
X6036469Y-9703198D02*
X6017421Y-9693674D01*
X6017421Y-9693674D02*
X6007897Y-9684150D01*
X6007897Y-9684150D02*
X5998374Y-9665103D01*
X5998374Y-9665103D02*
X5998374Y-9655579D01*
X5998374Y-9655579D02*
X6007897Y-9636531D01*
X6007897Y-9636531D02*
X6017421Y-9627008D01*
X6017421Y-9627008D02*
X6036469Y-9617484D01*
X6036469Y-9617484D02*
X6074564Y-9617484D01*
X6074564Y-9617484D02*
X6093612Y-9627008D01*
X6093612Y-9627008D02*
X6103136Y-9636531D01*
X6103136Y-9636531D02*
X6112659Y-9655579D01*
X6112659Y-9655579D02*
X6112659Y-9665103D01*
X6112659Y-9665103D02*
X6103136Y-9684150D01*
X6103136Y-9684150D02*
X6093612Y-9693674D01*
X6093612Y-9693674D02*
X6074564Y-9703198D01*
X6074564Y-9703198D02*
X6036469Y-9703198D01*
X6036469Y-9703198D02*
X6017421Y-9712722D01*
X6017421Y-9712722D02*
X6007897Y-9722246D01*
X6007897Y-9722246D02*
X5998374Y-9741293D01*
X5998374Y-9741293D02*
X5998374Y-9779389D01*
X5998374Y-9779389D02*
X6007897Y-9798436D01*
X6007897Y-9798436D02*
X6017421Y-9807960D01*
X6017421Y-9807960D02*
X6036469Y-9817484D01*
X6036469Y-9817484D02*
X6074564Y-9817484D01*
X6074564Y-9817484D02*
X6093612Y-9807960D01*
X6093612Y-9807960D02*
X6103136Y-9798436D01*
X6103136Y-9798436D02*
X6112659Y-9779389D01*
X6112659Y-9779389D02*
X6112659Y-9741293D01*
X6112659Y-9741293D02*
X6103136Y-9722246D01*
X6103136Y-9722246D02*
X6093612Y-9712722D01*
X6093612Y-9712722D02*
X6074564Y-9703198D01*
X6188850Y-9617484D02*
X6188850Y-9655579D01*
X6265040Y-9617484D02*
X6265040Y-9655579D01*
X6560279Y-9893674D02*
X6550755Y-9884150D01*
X6550755Y-9884150D02*
X6531707Y-9855579D01*
X6531707Y-9855579D02*
X6522183Y-9836531D01*
X6522183Y-9836531D02*
X6512659Y-9807960D01*
X6512659Y-9807960D02*
X6503136Y-9760341D01*
X6503136Y-9760341D02*
X6503136Y-9722246D01*
X6503136Y-9722246D02*
X6512659Y-9674627D01*
X6512659Y-9674627D02*
X6522183Y-9646055D01*
X6522183Y-9646055D02*
X6531707Y-9627008D01*
X6531707Y-9627008D02*
X6550755Y-9598436D01*
X6550755Y-9598436D02*
X6560279Y-9588912D01*
X6741231Y-9817484D02*
X6626945Y-9817484D01*
X6684088Y-9817484D02*
X6684088Y-9617484D01*
X6684088Y-9617484D02*
X6665040Y-9646055D01*
X6665040Y-9646055D02*
X6645993Y-9665103D01*
X6645993Y-9665103D02*
X6626945Y-9674627D01*
X6979326Y-9817484D02*
X6979326Y-9617484D01*
X7065040Y-9817484D02*
X7065040Y-9712722D01*
X7065040Y-9712722D02*
X7055517Y-9693674D01*
X7055517Y-9693674D02*
X7036469Y-9684150D01*
X7036469Y-9684150D02*
X7007898Y-9684150D01*
X7007898Y-9684150D02*
X6988850Y-9693674D01*
X6988850Y-9693674D02*
X6979326Y-9703198D01*
X7188850Y-9817484D02*
X7169802Y-9807960D01*
X7169802Y-9807960D02*
X7160279Y-9798436D01*
X7160279Y-9798436D02*
X7150755Y-9779389D01*
X7150755Y-9779389D02*
X7150755Y-9722246D01*
X7150755Y-9722246D02*
X7160279Y-9703198D01*
X7160279Y-9703198D02*
X7169802Y-9693674D01*
X7169802Y-9693674D02*
X7188850Y-9684150D01*
X7188850Y-9684150D02*
X7217421Y-9684150D01*
X7217421Y-9684150D02*
X7236469Y-9693674D01*
X7236469Y-9693674D02*
X7245993Y-9703198D01*
X7245993Y-9703198D02*
X7255517Y-9722246D01*
X7255517Y-9722246D02*
X7255517Y-9779389D01*
X7255517Y-9779389D02*
X7245993Y-9798436D01*
X7245993Y-9798436D02*
X7236469Y-9807960D01*
X7236469Y-9807960D02*
X7217421Y-9817484D01*
X7217421Y-9817484D02*
X7188850Y-9817484D01*
X7369802Y-9817484D02*
X7350755Y-9807960D01*
X7350755Y-9807960D02*
X7341231Y-9788912D01*
X7341231Y-9788912D02*
X7341231Y-9617484D01*
X7522183Y-9807960D02*
X7503136Y-9817484D01*
X7503136Y-9817484D02*
X7465040Y-9817484D01*
X7465040Y-9817484D02*
X7445993Y-9807960D01*
X7445993Y-9807960D02*
X7436469Y-9788912D01*
X7436469Y-9788912D02*
X7436469Y-9712722D01*
X7436469Y-9712722D02*
X7445993Y-9693674D01*
X7445993Y-9693674D02*
X7465040Y-9684150D01*
X7465040Y-9684150D02*
X7503136Y-9684150D01*
X7503136Y-9684150D02*
X7522183Y-9693674D01*
X7522183Y-9693674D02*
X7531707Y-9712722D01*
X7531707Y-9712722D02*
X7531707Y-9731770D01*
X7531707Y-9731770D02*
X7436469Y-9750817D01*
X7598374Y-9893674D02*
X7607898Y-9884150D01*
X7607898Y-9884150D02*
X7626945Y-9855579D01*
X7626945Y-9855579D02*
X7636469Y-9836531D01*
X7636469Y-9836531D02*
X7645993Y-9807960D01*
X7645993Y-9807960D02*
X7655517Y-9760341D01*
X7655517Y-9760341D02*
X7655517Y-9722246D01*
X7655517Y-9722246D02*
X7645993Y-9674627D01*
X7645993Y-9674627D02*
X7636469Y-9646055D01*
X7636469Y-9646055D02*
X7626945Y-9627008D01*
X7626945Y-9627008D02*
X7607898Y-9598436D01*
X7607898Y-9598436D02*
X7598374Y-9588912D01*
M02*
