M48
; DRILL file {KiCad 7.0.9} date Fri Dec 29 07:37:10 2023
; FORMAT={-:-/ absolute / metric / decimal}
; #@! TF.CreationDate,2023-12-29T07:37:10-06:00
; #@! TF.GenerationSoftware,Kicad,Pcbnew,7.0.9
; #@! TF.FileFunction,Plated,1,2,PTH
FMAT,2
METRIC
; #@! TA.AperFunction,Plated,PTH,ViaDrill
T1C0.300
; #@! TA.AperFunction,Plated,PTH,ComponentDrill
T2C1.000
; #@! TA.AperFunction,Plated,PTH,ComponentDrill
T3C1.100
; #@! TA.AperFunction,Plated,PTH,ComponentDrill
T4C1.520
%
G90
G05
T1
X51.943Y-30.734
X54.356Y-34.925
X54.664Y-30.607
X55.88Y-31.115
X58.166Y-43.18
X59.563Y-30.734
X59.563Y-39.243
X59.944Y-53.467
X60.833Y-30.861
X60.833Y-39.37
X62.992Y-47.244
X64.643Y-48.208
X65.532Y-33.655
X65.532Y-34.29
X65.913Y-52.578
X67.437Y-36.322
X67.437Y-36.957
X67.564Y-39.243
X67.818Y-49.149
X68.199Y-39.243
X68.326Y-32.385
X68.326Y-33.02
X71.501Y-52.451
X71.968Y-51.725
X72.009Y-50.927
X74.295Y-36.068
X74.93Y-36.068
X75.184Y-50.038
X75.819Y-50.038
X76.573Y-47.371
X76.708Y-41.148
X76.835Y-37.592
X76.835Y-38.207
X77.089Y-30.734
X77.089Y-31.369
X77.9Y-47.625
X77.978Y-36.068
X78.5Y-47.625
X78.613Y-36.068
X79.248Y-36.068
X79.883Y-36.068
X80.264Y-47.585
X80.518Y-36.068
X81.153Y-36.068
X81.602Y-46.044
X81.661Y-46.736
X81.739Y-43.256
X81.739Y-43.856
X81.788Y-36.068
X82.423Y-36.068
X82.677Y-47.417
X83.058Y-36.068
X83.185Y-52.451
X83.289Y-47.394
X83.693Y-36.068
X85.09Y-30.988
X85.725Y-30.988
X85.979Y-37.846
X86.487Y-37.338
T2
X89.154Y-51.054
X89.154Y-53.594
X89.154Y-56.134
X89.154Y-58.674
X92.964Y-51.064
X92.964Y-53.604
X92.964Y-56.144
X92.964Y-58.684
T3
X55.245Y-26.416
X57.785Y-26.416
X60.325Y-26.416
X62.865Y-26.416
T4
X71.755Y-25.654
X76.835Y-25.654
X81.915Y-25.654
X86.995Y-25.654
T0
M30
