G04 #@! TF.GenerationSoftware,KiCad,Pcbnew,7.0.10*
G04 #@! TF.CreationDate,2024-02-29T18:40:53-06:00*
G04 #@! TF.ProjectId,Sabertoothv2,53616265-7274-46f6-9f74-6876322e6b69,rev?*
G04 #@! TF.SameCoordinates,Original*
G04 #@! TF.FileFunction,Copper,L2,Bot*
G04 #@! TF.FilePolarity,Positive*
%FSLAX46Y46*%
G04 Gerber Fmt 4.6, Leading zero omitted, Abs format (unit mm)*
G04 Created by KiCad (PCBNEW 7.0.10) date 2024-02-29 18:40:53*
%MOMM*%
%LPD*%
G01*
G04 APERTURE LIST*
G04 #@! TA.AperFunction,ComponentPad*
%ADD10C,3.000000*%
G04 #@! TD*
G04 #@! TA.AperFunction,ComponentPad*
%ADD11R,3.000000X3.000000*%
G04 #@! TD*
G04 #@! TA.AperFunction,ComponentPad*
%ADD12R,1.700000X1.700000*%
G04 #@! TD*
G04 #@! TA.AperFunction,ComponentPad*
%ADD13O,1.700000X1.700000*%
G04 #@! TD*
G04 #@! TA.AperFunction,ComponentPad*
%ADD14C,0.800000*%
G04 #@! TD*
G04 #@! TA.AperFunction,ComponentPad*
%ADD15C,7.000000*%
G04 #@! TD*
G04 #@! TA.AperFunction,ViaPad*
%ADD16C,0.600000*%
G04 #@! TD*
G04 #@! TA.AperFunction,Conductor*
%ADD17C,1.000000*%
G04 #@! TD*
G04 #@! TA.AperFunction,Conductor*
%ADD18C,0.250000*%
G04 #@! TD*
G04 #@! TA.AperFunction,Conductor*
%ADD19C,0.500000*%
G04 #@! TD*
G04 #@! TA.AperFunction,Conductor*
%ADD20C,0.200000*%
G04 #@! TD*
G04 APERTURE END LIST*
D10*
X72750000Y-46750000D03*
D11*
X57437157Y-37345000D03*
D10*
X62517157Y-37345000D03*
X67597157Y-37345000D03*
X72677157Y-37345000D03*
X64000000Y-43250000D03*
D11*
X34577157Y-37345000D03*
D10*
X39657157Y-37345000D03*
X44737157Y-37345000D03*
X49817157Y-37345000D03*
D12*
X75217157Y-71303000D03*
D13*
X72677157Y-71303000D03*
X70137157Y-71303000D03*
X67597157Y-71303000D03*
D12*
X75217157Y-75953000D03*
D13*
X72677157Y-75953000D03*
X70137157Y-75953000D03*
X67597157Y-75953000D03*
D10*
X67500000Y-43250000D03*
X72750000Y-43250000D03*
D14*
X32375000Y-75000000D03*
X33143845Y-73143845D03*
X33143845Y-76856155D03*
X35000000Y-72375000D03*
D15*
X35000000Y-75000000D03*
D14*
X35000000Y-77625000D03*
X36856155Y-73143845D03*
X36856155Y-76856155D03*
X37625000Y-75000000D03*
D16*
X66962157Y-66555000D03*
X41689157Y-66809000D03*
X53373157Y-47251000D03*
X41689157Y-67571000D03*
X41689157Y-66047000D03*
X42705157Y-60713000D03*
X67597157Y-66555000D03*
X41435157Y-57665000D03*
X68232157Y-65920000D03*
X67597157Y-65920000D03*
X52611157Y-59697000D03*
X40673157Y-57665000D03*
X52611157Y-48013000D03*
X68232157Y-66555000D03*
X41689157Y-65285000D03*
X52611157Y-47251000D03*
X48547157Y-47759000D03*
X66962157Y-67190000D03*
X41435157Y-56903000D03*
X67597157Y-67190000D03*
X53373157Y-48013000D03*
X42872521Y-46489000D03*
X40673157Y-56903000D03*
X42135160Y-56903000D03*
X48547157Y-46235000D03*
X42197157Y-57665000D03*
X66962157Y-65920000D03*
X48547157Y-46997000D03*
X52992157Y-55125000D03*
X48293157Y-53220000D03*
X48547157Y-67571000D03*
X53373157Y-65996200D03*
X68867157Y-51315000D03*
X59977157Y-50045000D03*
X54897157Y-46489000D03*
X54897157Y-55125000D03*
X64041157Y-51061000D03*
X73947157Y-58935000D03*
X44102157Y-60205000D03*
X38387157Y-58300000D03*
X35847157Y-47505000D03*
X53627157Y-40425000D03*
X54897157Y-57665000D03*
X59977157Y-56649000D03*
X44102157Y-46235000D03*
X38387157Y-57030000D03*
X48402157Y-62600000D03*
X57437157Y-61475000D03*
X57437157Y-60840000D03*
X56802157Y-60840000D03*
X52992157Y-61475000D03*
X56802157Y-61475000D03*
X37182157Y-44457000D03*
X40347157Y-46235000D03*
X58542657Y-64485500D03*
X64681917Y-66179760D03*
X36355157Y-46235000D03*
D17*
X52992157Y-55125000D02*
X51722157Y-53855000D01*
X48928157Y-53855000D02*
X48293157Y-53220000D01*
X51722157Y-53855000D02*
X48928157Y-53855000D01*
X48547157Y-67571000D02*
X51747557Y-67571000D01*
X53322357Y-65996200D02*
X53373157Y-65996200D01*
X51747557Y-67571000D02*
X53322357Y-65996200D01*
X53373157Y-65945400D02*
X53322357Y-65996200D01*
X53373157Y-65996200D02*
X53373157Y-65945400D01*
D18*
X76392157Y-58840000D02*
X68867157Y-51315000D01*
X76392157Y-74778000D02*
X76392157Y-58840000D01*
X75217157Y-75953000D02*
X76392157Y-74778000D01*
X75217157Y-58684720D02*
X66577437Y-50045000D01*
X72917157Y-75953000D02*
X74042157Y-74828000D01*
X74042157Y-70128000D02*
X75217157Y-68953000D01*
X72677157Y-75953000D02*
X72917157Y-75953000D01*
X74042157Y-74828000D02*
X74042157Y-70128000D01*
D17*
X58453157Y-50045000D02*
X59977157Y-50045000D01*
X54897157Y-46489000D02*
X58453157Y-50045000D01*
D18*
X66577437Y-50045000D02*
X59977157Y-50045000D01*
X75217157Y-68953000D02*
X75217157Y-58684720D01*
X74572157Y-66868000D02*
X74572157Y-58676116D01*
X74572157Y-58676116D02*
X66957041Y-51061000D01*
D17*
X60485157Y-55125000D02*
X54897157Y-55125000D01*
D18*
X66957041Y-51061000D02*
X64041157Y-51061000D01*
D17*
X64041157Y-51569000D02*
X60485157Y-55125000D01*
X64041157Y-51061000D02*
X64041157Y-51569000D01*
D18*
X70137157Y-71303000D02*
X74572157Y-66868000D01*
X44102157Y-60205000D02*
X42832157Y-58935000D01*
X35847157Y-47505000D02*
X36096041Y-47505000D01*
X42832157Y-58930000D02*
X42202157Y-58930000D01*
X73942157Y-58930000D02*
X42832157Y-58930000D01*
X73947157Y-58935000D02*
X73942157Y-58930000D01*
X39017157Y-58930000D02*
X42202157Y-58930000D01*
X42832157Y-58935000D02*
X42832157Y-58930000D01*
X36096041Y-47505000D02*
X43176041Y-40425000D01*
X38387157Y-58300000D02*
X39017157Y-58930000D01*
X43176041Y-40425000D02*
X53627157Y-40425000D01*
D17*
X54897157Y-57665000D02*
X58961157Y-57665000D01*
X58961157Y-57665000D02*
X59977157Y-56649000D01*
D18*
X43467157Y-51950000D02*
X38387157Y-57030000D01*
X43467157Y-46870000D02*
X43467157Y-51950000D01*
X44102157Y-46235000D02*
X43467157Y-46870000D01*
D17*
X56802157Y-61475000D02*
X57437157Y-61475000D01*
X57437157Y-60840000D02*
X56802157Y-60840000D01*
X49527157Y-61475000D02*
X52992157Y-61475000D01*
X57437157Y-60840000D02*
X57437157Y-60840000D01*
X48402157Y-62600000D02*
X49527157Y-61475000D01*
X57437157Y-61475000D02*
X52992157Y-61475000D01*
X56802157Y-61475000D02*
X56802157Y-61475000D01*
X56802157Y-60840000D02*
X56802157Y-61475000D01*
D18*
X37182157Y-44457000D02*
X44294157Y-37345000D01*
X44294157Y-37345000D02*
X44737157Y-37345000D01*
D19*
X53627157Y-43000000D02*
X43582157Y-43000000D01*
X62517157Y-37345000D02*
X56862157Y-43000000D01*
X56862157Y-43000000D02*
X53627157Y-43000000D01*
X43582157Y-43000000D02*
X40347157Y-46235000D01*
D18*
X63787157Y-72270000D02*
X67470157Y-75953000D01*
X58542657Y-64485500D02*
X63787157Y-69730000D01*
X63787157Y-69730000D02*
X63787157Y-72270000D01*
X67470157Y-75953000D02*
X67597157Y-75953000D01*
X64681917Y-66179760D02*
X64681917Y-70497760D01*
X64681917Y-70497760D02*
X70137157Y-75953000D01*
D20*
X43000000Y-40000000D02*
X47162157Y-40000000D01*
X47162157Y-40000000D02*
X49817157Y-37345000D01*
X36355157Y-46235000D02*
X36765000Y-46235000D01*
X36765000Y-46235000D02*
X43000000Y-40000000D01*
G04 #@! TA.AperFunction,Conductor*
G36*
X79329696Y-30715185D02*
G01*
X79375451Y-30767989D01*
X79386657Y-30819500D01*
X79386657Y-79570500D01*
X79366972Y-79637539D01*
X79314168Y-79683294D01*
X79262657Y-79694500D01*
X30501657Y-79694500D01*
X30434618Y-79674815D01*
X30388863Y-79622011D01*
X30377657Y-79570500D01*
X30377657Y-75000000D01*
X30995176Y-75000000D01*
X31014461Y-75392550D01*
X31072129Y-75781308D01*
X31167625Y-76162549D01*
X31300016Y-76532559D01*
X31300023Y-76532575D01*
X31468062Y-76887864D01*
X31670109Y-77224958D01*
X31904228Y-77540632D01*
X32000068Y-77646376D01*
X32000069Y-77646376D01*
X32246312Y-77400133D01*
X32307635Y-77366648D01*
X32377326Y-77371632D01*
X32426141Y-77404841D01*
X32537972Y-77529041D01*
X32537974Y-77529043D01*
X32586475Y-77564281D01*
X32629141Y-77619611D01*
X32635120Y-77689224D01*
X32602515Y-77751019D01*
X32601271Y-77752280D01*
X32353622Y-77999929D01*
X32353622Y-77999930D01*
X32459367Y-78095771D01*
X32775041Y-78329890D01*
X33112135Y-78531937D01*
X33467424Y-78699976D01*
X33467440Y-78699983D01*
X33837450Y-78832374D01*
X34218691Y-78927870D01*
X34607449Y-78985538D01*
X35000000Y-79004823D01*
X35392550Y-78985538D01*
X35781308Y-78927870D01*
X36162549Y-78832374D01*
X36532559Y-78699983D01*
X36532575Y-78699976D01*
X36887864Y-78531937D01*
X37224958Y-78329890D01*
X37540632Y-78095770D01*
X37646376Y-77999929D01*
X37398727Y-77752280D01*
X37365242Y-77690957D01*
X37370226Y-77621265D01*
X37412098Y-77565332D01*
X37413358Y-77564402D01*
X37462026Y-77529043D01*
X37573857Y-77404842D01*
X37633343Y-77368194D01*
X37703200Y-77369525D01*
X37753687Y-77400134D01*
X37999929Y-77646376D01*
X38095770Y-77540632D01*
X38329890Y-77224958D01*
X38531937Y-76887864D01*
X38699976Y-76532575D01*
X38699983Y-76532559D01*
X38832374Y-76162549D01*
X38927870Y-75781308D01*
X38985538Y-75392550D01*
X39004823Y-75000000D01*
X38985538Y-74607449D01*
X38927870Y-74218691D01*
X38832374Y-73837450D01*
X38699983Y-73467440D01*
X38699976Y-73467424D01*
X38531937Y-73112135D01*
X38329890Y-72775041D01*
X38095771Y-72459367D01*
X37999930Y-72353622D01*
X37999929Y-72353622D01*
X37753686Y-72599865D01*
X37692363Y-72633350D01*
X37622671Y-72628366D01*
X37573856Y-72595157D01*
X37462026Y-72470957D01*
X37413521Y-72435716D01*
X37370857Y-72380387D01*
X37364878Y-72310773D01*
X37397484Y-72248978D01*
X37398727Y-72247718D01*
X37646376Y-72000069D01*
X37646376Y-72000068D01*
X37540632Y-71904228D01*
X37224958Y-71670109D01*
X36887864Y-71468062D01*
X36532575Y-71300023D01*
X36532559Y-71300016D01*
X36162549Y-71167625D01*
X35781308Y-71072129D01*
X35392550Y-71014461D01*
X35000000Y-70995176D01*
X34607449Y-71014461D01*
X34218691Y-71072129D01*
X33837450Y-71167625D01*
X33467440Y-71300016D01*
X33467424Y-71300023D01*
X33112135Y-71468062D01*
X32775041Y-71670109D01*
X32459368Y-71904228D01*
X32353622Y-72000069D01*
X32601272Y-72247719D01*
X32634757Y-72309042D01*
X32629773Y-72378734D01*
X32587901Y-72434667D01*
X32586476Y-72435718D01*
X32537974Y-72470956D01*
X32537973Y-72470957D01*
X32426142Y-72595157D01*
X32366655Y-72631805D01*
X32296798Y-72630474D01*
X32246312Y-72599865D01*
X32000069Y-72353622D01*
X31904228Y-72459368D01*
X31670109Y-72775041D01*
X31468062Y-73112135D01*
X31300023Y-73467424D01*
X31300016Y-73467440D01*
X31167625Y-73837450D01*
X31072129Y-74218691D01*
X31014461Y-74607449D01*
X30995176Y-75000000D01*
X30377657Y-75000000D01*
X30377657Y-67621936D01*
X47542788Y-67621936D01*
X47573599Y-67823063D01*
X47573602Y-67823075D01*
X47644268Y-68013881D01*
X47644272Y-68013888D01*
X47751902Y-68186567D01*
X47751904Y-68186569D01*
X47751905Y-68186571D01*
X47892098Y-68334053D01*
X48020501Y-68423424D01*
X48059106Y-68450294D01*
X48059107Y-68450294D01*
X48059108Y-68450295D01*
X48246099Y-68530540D01*
X48445416Y-68571500D01*
X51733278Y-68571500D01*
X51736420Y-68571540D01*
X51823915Y-68573757D01*
X51823915Y-68573756D01*
X51823920Y-68573757D01*
X51881982Y-68563349D01*
X51891311Y-68562041D01*
X51949995Y-68556074D01*
X51979028Y-68546964D01*
X51994257Y-68543226D01*
X52024210Y-68537858D01*
X52024214Y-68537856D01*
X52024216Y-68537856D01*
X52078980Y-68515980D01*
X52087849Y-68512821D01*
X52144145Y-68495159D01*
X52170757Y-68480387D01*
X52184919Y-68473662D01*
X52213174Y-68462377D01*
X52262436Y-68429909D01*
X52270467Y-68425043D01*
X52322059Y-68396409D01*
X52322066Y-68396402D01*
X52322069Y-68396401D01*
X52345140Y-68376594D01*
X52357682Y-68367137D01*
X52383076Y-68350402D01*
X52424794Y-68308682D01*
X52431679Y-68302301D01*
X52476452Y-68263866D01*
X52495077Y-68239802D01*
X52505437Y-68228039D01*
X53854714Y-66878762D01*
X53876787Y-66861223D01*
X53878224Y-66860327D01*
X53883607Y-66857159D01*
X53947659Y-66821609D01*
X53959881Y-66811115D01*
X53975055Y-66799973D01*
X53988728Y-66791452D01*
X54041847Y-66740957D01*
X54046451Y-66736797D01*
X54102052Y-66689066D01*
X54111907Y-66676333D01*
X54124531Y-66662361D01*
X54128967Y-66658142D01*
X54136210Y-66651259D01*
X54178083Y-66591095D01*
X54181734Y-66586123D01*
X54226605Y-66528158D01*
X54233706Y-66513679D01*
X54243249Y-66497469D01*
X54252452Y-66484249D01*
X54281343Y-66416922D01*
X54283948Y-66411254D01*
X54316217Y-66345471D01*
X54320255Y-66329872D01*
X54326348Y-66312051D01*
X54332695Y-66297262D01*
X54332697Y-66297258D01*
X54347445Y-66225487D01*
X54348849Y-66219431D01*
X54367220Y-66148485D01*
X54368036Y-66132393D01*
X54370415Y-66113716D01*
X54373657Y-66097942D01*
X54373657Y-66024699D01*
X54373816Y-66018418D01*
X54374724Y-66000510D01*
X54377526Y-65945264D01*
X54377525Y-65945260D01*
X54377550Y-65944778D01*
X54377737Y-65929851D01*
X54378494Y-65919924D01*
X54367441Y-65833139D01*
X54367084Y-65830024D01*
X54358231Y-65742963D01*
X54358230Y-65742960D01*
X54357702Y-65741275D01*
X54353009Y-65719816D01*
X54352787Y-65718074D01*
X54352787Y-65718072D01*
X54324462Y-65635209D01*
X54323516Y-65632319D01*
X54297316Y-65548812D01*
X54296464Y-65547277D01*
X54287540Y-65527188D01*
X54286973Y-65525528D01*
X54242563Y-65450088D01*
X54241062Y-65447463D01*
X54198566Y-65370898D01*
X54197410Y-65369551D01*
X54184640Y-65351690D01*
X54183747Y-65350173D01*
X54141342Y-65303237D01*
X54125100Y-65285259D01*
X54123024Y-65282903D01*
X54119694Y-65279024D01*
X54066023Y-65216505D01*
X54064627Y-65215424D01*
X54048520Y-65200498D01*
X54047334Y-65199185D01*
X53976842Y-65147423D01*
X53974332Y-65145530D01*
X53905120Y-65091955D01*
X53905114Y-65091951D01*
X53903518Y-65091168D01*
X53884743Y-65079793D01*
X53883321Y-65078749D01*
X53883322Y-65078749D01*
X53803840Y-65042229D01*
X53801005Y-65040882D01*
X53722432Y-65002341D01*
X53722422Y-65002337D01*
X53720705Y-65001893D01*
X53700031Y-64994533D01*
X53698426Y-64993795D01*
X53698419Y-64993793D01*
X53613210Y-64974019D01*
X53610163Y-64973271D01*
X53525440Y-64951336D01*
X53523664Y-64951246D01*
X53501940Y-64948199D01*
X53500209Y-64947797D01*
X53412737Y-64945581D01*
X53409598Y-64945462D01*
X53322222Y-64941031D01*
X53322221Y-64941031D01*
X53322219Y-64941031D01*
X53322212Y-64941032D01*
X53320461Y-64941300D01*
X53298579Y-64942688D01*
X53296798Y-64942643D01*
X53296788Y-64942643D01*
X53210656Y-64958080D01*
X53207561Y-64958595D01*
X53121084Y-64971844D01*
X53121077Y-64971846D01*
X53119414Y-64972462D01*
X53098250Y-64978228D01*
X53096517Y-64978538D01*
X53096502Y-64978542D01*
X53015261Y-65010993D01*
X53012333Y-65012120D01*
X52930271Y-65042513D01*
X52930265Y-65042516D01*
X52928756Y-65043457D01*
X52909189Y-65053364D01*
X52907538Y-65054023D01*
X52834489Y-65102166D01*
X52831867Y-65103847D01*
X52813468Y-65115316D01*
X52757582Y-65150150D01*
X52757578Y-65150153D01*
X52756293Y-65151375D01*
X52739120Y-65165020D01*
X52737645Y-65165991D01*
X52675794Y-65227842D01*
X52673544Y-65230036D01*
X52626432Y-65274818D01*
X52621776Y-65279024D01*
X52593463Y-65303332D01*
X52574837Y-65327394D01*
X52564464Y-65339171D01*
X51369456Y-66534181D01*
X51308133Y-66567666D01*
X51281775Y-66570500D01*
X48496414Y-66570500D01*
X48344717Y-66585925D01*
X48150577Y-66646837D01*
X48150562Y-66646844D01*
X47972657Y-66745589D01*
X47972652Y-66745592D01*
X47818263Y-66878132D01*
X47818261Y-66878134D01*
X47693711Y-67039037D01*
X47693710Y-67039040D01*
X47604097Y-67221728D01*
X47553094Y-67418714D01*
X47542788Y-67621936D01*
X30377657Y-67621936D01*
X30377657Y-62625477D01*
X47396819Y-62625477D01*
X47422525Y-62827321D01*
X47422527Y-62827329D01*
X47488340Y-63019870D01*
X47488346Y-63019882D01*
X47591563Y-63195221D01*
X47591568Y-63195228D01*
X47727977Y-63346212D01*
X47891985Y-63466646D01*
X47891989Y-63466648D01*
X47891990Y-63466649D01*
X48076889Y-63551605D01*
X48142613Y-63566857D01*
X48275102Y-63597603D01*
X48478515Y-63602757D01*
X48478515Y-63602756D01*
X48478520Y-63602757D01*
X48658010Y-63570586D01*
X48678805Y-63566859D01*
X48678805Y-63566858D01*
X48678810Y-63566858D01*
X48867774Y-63491377D01*
X49037676Y-63379402D01*
X49905259Y-62511819D01*
X49966582Y-62478334D01*
X49992940Y-62475500D01*
X52890416Y-62475500D01*
X56700416Y-62475500D01*
X56773657Y-62475500D01*
X56779935Y-62475658D01*
X56853093Y-62479369D01*
X56869014Y-62476930D01*
X56887790Y-62475500D01*
X57487900Y-62475500D01*
X57639596Y-62460074D01*
X57833736Y-62399162D01*
X57833737Y-62399161D01*
X57833745Y-62399159D01*
X58011659Y-62300409D01*
X58166052Y-62167866D01*
X58290605Y-62006958D01*
X58380217Y-61824271D01*
X58431220Y-61627285D01*
X58441526Y-61424064D01*
X58410713Y-61222929D01*
X58401147Y-61197100D01*
X58396323Y-61127397D01*
X58397380Y-61122979D01*
X58431220Y-60992285D01*
X58441526Y-60789064D01*
X58410713Y-60587929D01*
X58340043Y-60397113D01*
X58232409Y-60224429D01*
X58092216Y-60076947D01*
X57951549Y-59979040D01*
X57925207Y-59960705D01*
X57738213Y-59880459D01*
X57538898Y-59839500D01*
X56830657Y-59839500D01*
X56824378Y-59839341D01*
X56793944Y-59837797D01*
X56751222Y-59835631D01*
X56751215Y-59835631D01*
X56678833Y-59846719D01*
X56672605Y-59847513D01*
X56599723Y-59854925D01*
X56599714Y-59854927D01*
X56584344Y-59859749D01*
X56566015Y-59864003D01*
X56550086Y-59866444D01*
X56550083Y-59866445D01*
X56481402Y-59891880D01*
X56475462Y-59893911D01*
X56405569Y-59915840D01*
X56391479Y-59923661D01*
X56374377Y-59931518D01*
X56359275Y-59937111D01*
X56359265Y-59937116D01*
X56297116Y-59975854D01*
X56291703Y-59979040D01*
X56227663Y-60014585D01*
X56227656Y-60014590D01*
X56215435Y-60025081D01*
X56200271Y-60036216D01*
X56186587Y-60044746D01*
X56186584Y-60044749D01*
X56133495Y-60095213D01*
X56128836Y-60099422D01*
X56073266Y-60147129D01*
X56073259Y-60147136D01*
X56063400Y-60159872D01*
X56050788Y-60173832D01*
X56039106Y-60184938D01*
X56039105Y-60184939D01*
X55997268Y-60245046D01*
X55993553Y-60250106D01*
X55948707Y-60308043D01*
X55941609Y-60322513D01*
X55932064Y-60338728D01*
X55922863Y-60351948D01*
X55922861Y-60351952D01*
X55902498Y-60399402D01*
X55857970Y-60453245D01*
X55791402Y-60474467D01*
X55788548Y-60474500D01*
X49541395Y-60474500D01*
X49538255Y-60474460D01*
X49450794Y-60472244D01*
X49450782Y-60472245D01*
X49392746Y-60482646D01*
X49383422Y-60483954D01*
X49324720Y-60489925D01*
X49324711Y-60489927D01*
X49295685Y-60499034D01*
X49280445Y-60502775D01*
X49250506Y-60508141D01*
X49195724Y-60530022D01*
X49186855Y-60533179D01*
X49130571Y-60550840D01*
X49130567Y-60550842D01*
X49103968Y-60565605D01*
X49089795Y-60572336D01*
X49061539Y-60583623D01*
X49061535Y-60583625D01*
X49012279Y-60616086D01*
X49004226Y-60620965D01*
X48952658Y-60649588D01*
X48929570Y-60669408D01*
X48917044Y-60678852D01*
X48891642Y-60695594D01*
X48891635Y-60695600D01*
X48849931Y-60737303D01*
X48843026Y-60743703D01*
X48798261Y-60782134D01*
X48779636Y-60806195D01*
X48769264Y-60817970D01*
X47658819Y-61928417D01*
X47658817Y-61928420D01*
X47562459Y-62046593D01*
X47499111Y-62167867D01*
X47468247Y-62226953D01*
X47412269Y-62422584D01*
X47396819Y-62625474D01*
X47396819Y-62625477D01*
X30377657Y-62625477D01*
X30377657Y-58300003D01*
X37581592Y-58300003D01*
X37601787Y-58479249D01*
X37601788Y-58479254D01*
X37661368Y-58649523D01*
X37682534Y-58683208D01*
X37757341Y-58802262D01*
X37884895Y-58929816D01*
X38037635Y-59025789D01*
X38207902Y-59085368D01*
X38254980Y-59090672D01*
X38319393Y-59117737D01*
X38328778Y-59126211D01*
X38516351Y-59313784D01*
X38526176Y-59326048D01*
X38526397Y-59325866D01*
X38531367Y-59331874D01*
X38580396Y-59377915D01*
X38583193Y-59380626D01*
X38602687Y-59400120D01*
X38605852Y-59402575D01*
X38614728Y-59410156D01*
X38646575Y-59440062D01*
X38646579Y-59440064D01*
X38664130Y-59449713D01*
X38680388Y-59460392D01*
X38696221Y-59472674D01*
X38731567Y-59487968D01*
X38736312Y-59490022D01*
X38746792Y-59495155D01*
X38785065Y-59516197D01*
X38804469Y-59521179D01*
X38822867Y-59527478D01*
X38841262Y-59535438D01*
X38884411Y-59542271D01*
X38895837Y-59544638D01*
X38938138Y-59555500D01*
X38958173Y-59555500D01*
X38977570Y-59557026D01*
X38997353Y-59560160D01*
X39040832Y-59556050D01*
X39052501Y-59555500D01*
X42123138Y-59555500D01*
X42516705Y-59555500D01*
X42583744Y-59575185D01*
X42604386Y-59591819D01*
X43275944Y-60263378D01*
X43309429Y-60324701D01*
X43311483Y-60337174D01*
X43316787Y-60384249D01*
X43376367Y-60554521D01*
X43465012Y-60695598D01*
X43472341Y-60707262D01*
X43599895Y-60834816D01*
X43752635Y-60930789D01*
X43922902Y-60990368D01*
X43922907Y-60990369D01*
X44102153Y-61010565D01*
X44102157Y-61010565D01*
X44102161Y-61010565D01*
X44281406Y-60990369D01*
X44281409Y-60990368D01*
X44281412Y-60990368D01*
X44451679Y-60930789D01*
X44604419Y-60834816D01*
X44731973Y-60707262D01*
X44827946Y-60554522D01*
X44887525Y-60384255D01*
X44892830Y-60337174D01*
X44907722Y-60205003D01*
X44907722Y-60204996D01*
X44887526Y-60025750D01*
X44887525Y-60025745D01*
X44827945Y-59855475D01*
X44758825Y-59745473D01*
X44739824Y-59678236D01*
X44760191Y-59611401D01*
X44813459Y-59566186D01*
X44863818Y-59555500D01*
X73394345Y-59555500D01*
X73460316Y-59574505D01*
X73597635Y-59660789D01*
X73767902Y-59720368D01*
X73836541Y-59728101D01*
X73900953Y-59755166D01*
X73940509Y-59812760D01*
X73946657Y-59851321D01*
X73946657Y-66557546D01*
X73926972Y-66624585D01*
X73910338Y-66645227D01*
X70592803Y-69962761D01*
X70531480Y-69996246D01*
X70473030Y-69994855D01*
X70372565Y-69967937D01*
X70137158Y-69947341D01*
X70137156Y-69947341D01*
X69901753Y-69967936D01*
X69901743Y-69967938D01*
X69673501Y-70029094D01*
X69673492Y-70029098D01*
X69459328Y-70128964D01*
X69459326Y-70128965D01*
X69265754Y-70264505D01*
X69098662Y-70431597D01*
X68968732Y-70617158D01*
X68914155Y-70660783D01*
X68844657Y-70667977D01*
X68782302Y-70636454D01*
X68765582Y-70617158D01*
X68635651Y-70431597D01*
X68468559Y-70264506D01*
X68468552Y-70264501D01*
X68274991Y-70128967D01*
X68274987Y-70128965D01*
X68191062Y-70089830D01*
X68060820Y-70029097D01*
X68060816Y-70029096D01*
X68060812Y-70029094D01*
X67832570Y-69967938D01*
X67832560Y-69967936D01*
X67597158Y-69947341D01*
X67597156Y-69947341D01*
X67361753Y-69967936D01*
X67361743Y-69967938D01*
X67133501Y-70029094D01*
X67133492Y-70029098D01*
X66919328Y-70128964D01*
X66919326Y-70128965D01*
X66725754Y-70264505D01*
X66558662Y-70431597D01*
X66423122Y-70625169D01*
X66423121Y-70625171D01*
X66323255Y-70839335D01*
X66323251Y-70839344D01*
X66291106Y-70959314D01*
X66254741Y-71018975D01*
X66191894Y-71049504D01*
X66122518Y-71041209D01*
X66083650Y-71014902D01*
X65343736Y-70274988D01*
X65310251Y-70213665D01*
X65307417Y-70187307D01*
X65307417Y-66724614D01*
X65326424Y-66658641D01*
X65331063Y-66651259D01*
X65407706Y-66529282D01*
X65467285Y-66359015D01*
X65468811Y-66345470D01*
X65487482Y-66179763D01*
X65487482Y-66179756D01*
X65467286Y-66000510D01*
X65467285Y-66000505D01*
X65407705Y-65830236D01*
X65352867Y-65742962D01*
X65311733Y-65677498D01*
X65184179Y-65549944D01*
X65182377Y-65548812D01*
X65031440Y-65453971D01*
X64861171Y-65394391D01*
X64861166Y-65394390D01*
X64681921Y-65374195D01*
X64681913Y-65374195D01*
X64502667Y-65394390D01*
X64502662Y-65394391D01*
X64332393Y-65453971D01*
X64179654Y-65549944D01*
X64052101Y-65677497D01*
X63956128Y-65830236D01*
X63896548Y-66000505D01*
X63896547Y-66000510D01*
X63876352Y-66179756D01*
X63876352Y-66179763D01*
X63896547Y-66359009D01*
X63896548Y-66359014D01*
X63956128Y-66529284D01*
X64037410Y-66658641D01*
X64056417Y-66724614D01*
X64056417Y-68815307D01*
X64036732Y-68882346D01*
X63983928Y-68928101D01*
X63914770Y-68938045D01*
X63851214Y-68909020D01*
X63844736Y-68902988D01*
X59368868Y-64427120D01*
X59335383Y-64365797D01*
X59333330Y-64353336D01*
X59328025Y-64306245D01*
X59268446Y-64135978D01*
X59172473Y-63983238D01*
X59044919Y-63855684D01*
X58892180Y-63759711D01*
X58721911Y-63700131D01*
X58721906Y-63700130D01*
X58542661Y-63679935D01*
X58542653Y-63679935D01*
X58363407Y-63700130D01*
X58363402Y-63700131D01*
X58193133Y-63759711D01*
X58040394Y-63855684D01*
X57912841Y-63983237D01*
X57816868Y-64135976D01*
X57757288Y-64306245D01*
X57757287Y-64306250D01*
X57737092Y-64485496D01*
X57737092Y-64485503D01*
X57757287Y-64664749D01*
X57757288Y-64664754D01*
X57816868Y-64835023D01*
X57906850Y-64978228D01*
X57912841Y-64987762D01*
X58040395Y-65115316D01*
X58089997Y-65146483D01*
X58173871Y-65199185D01*
X58193135Y-65211289D01*
X58363402Y-65270868D01*
X58410480Y-65276172D01*
X58474893Y-65303237D01*
X58484278Y-65311711D01*
X63125338Y-69952771D01*
X63158823Y-70014094D01*
X63161657Y-70040452D01*
X63161657Y-72187255D01*
X63159932Y-72202872D01*
X63160218Y-72202899D01*
X63159483Y-72210665D01*
X63161596Y-72277872D01*
X63161657Y-72281767D01*
X63161657Y-72309357D01*
X63162160Y-72313335D01*
X63163075Y-72324967D01*
X63164447Y-72368624D01*
X63164448Y-72368627D01*
X63170037Y-72387867D01*
X63173981Y-72406911D01*
X63176493Y-72426792D01*
X63192571Y-72467403D01*
X63196354Y-72478452D01*
X63208538Y-72520388D01*
X63218737Y-72537634D01*
X63227295Y-72555103D01*
X63234671Y-72573732D01*
X63260338Y-72609060D01*
X63266750Y-72618821D01*
X63288985Y-72656417D01*
X63288990Y-72656424D01*
X63303147Y-72670580D01*
X63315784Y-72685375D01*
X63318418Y-72689000D01*
X63327562Y-72701586D01*
X63327563Y-72701587D01*
X63361214Y-72729425D01*
X63369855Y-72737288D01*
X66230081Y-75597514D01*
X66263566Y-75658837D01*
X66262300Y-75712128D01*
X66263035Y-75712258D01*
X66262182Y-75717094D01*
X66262178Y-75717277D01*
X66262096Y-75717581D01*
X66262093Y-75717596D01*
X66241498Y-75952999D01*
X66241498Y-75953000D01*
X66262093Y-76188403D01*
X66262095Y-76188413D01*
X66323251Y-76416655D01*
X66323253Y-76416659D01*
X66323254Y-76416663D01*
X66403161Y-76588023D01*
X66423122Y-76630830D01*
X66423124Y-76630834D01*
X66496277Y-76735306D01*
X66558662Y-76824401D01*
X66725756Y-76991495D01*
X66822541Y-77059265D01*
X66919322Y-77127032D01*
X66919324Y-77127033D01*
X66919327Y-77127035D01*
X67133494Y-77226903D01*
X67361749Y-77288063D01*
X67538191Y-77303500D01*
X67597156Y-77308659D01*
X67597157Y-77308659D01*
X67597158Y-77308659D01*
X67656123Y-77303500D01*
X67832565Y-77288063D01*
X68060820Y-77226903D01*
X68274987Y-77127035D01*
X68468558Y-76991495D01*
X68635652Y-76824401D01*
X68765582Y-76638842D01*
X68820159Y-76595217D01*
X68889657Y-76588023D01*
X68952012Y-76619546D01*
X68968732Y-76638842D01*
X69098657Y-76824395D01*
X69098662Y-76824401D01*
X69265756Y-76991495D01*
X69362541Y-77059265D01*
X69459322Y-77127032D01*
X69459324Y-77127033D01*
X69459327Y-77127035D01*
X69673494Y-77226903D01*
X69901749Y-77288063D01*
X70078191Y-77303500D01*
X70137156Y-77308659D01*
X70137157Y-77308659D01*
X70137158Y-77308659D01*
X70196123Y-77303500D01*
X70372565Y-77288063D01*
X70600820Y-77226903D01*
X70814987Y-77127035D01*
X71008558Y-76991495D01*
X71175652Y-76824401D01*
X71305582Y-76638842D01*
X71360159Y-76595217D01*
X71429657Y-76588023D01*
X71492012Y-76619546D01*
X71508732Y-76638842D01*
X71638657Y-76824395D01*
X71638662Y-76824401D01*
X71805756Y-76991495D01*
X71902541Y-77059265D01*
X71999322Y-77127032D01*
X71999324Y-77127033D01*
X71999327Y-77127035D01*
X72213494Y-77226903D01*
X72441749Y-77288063D01*
X72618191Y-77303500D01*
X72677156Y-77308659D01*
X72677157Y-77308659D01*
X72677158Y-77308659D01*
X72736123Y-77303500D01*
X72912565Y-77288063D01*
X73140820Y-77226903D01*
X73354987Y-77127035D01*
X73548558Y-76991495D01*
X73670486Y-76869566D01*
X73731805Y-76836084D01*
X73801497Y-76841068D01*
X73857431Y-76882939D01*
X73874346Y-76913917D01*
X73923359Y-77045328D01*
X73923363Y-77045335D01*
X74009609Y-77160544D01*
X74009612Y-77160547D01*
X74124821Y-77246793D01*
X74124828Y-77246797D01*
X74259674Y-77297091D01*
X74259673Y-77297091D01*
X74266601Y-77297835D01*
X74319284Y-77303500D01*
X76115029Y-77303499D01*
X76174640Y-77297091D01*
X76309488Y-77246796D01*
X76424703Y-77160546D01*
X76510953Y-77045331D01*
X76561248Y-76910483D01*
X76567657Y-76850873D01*
X76567656Y-75538451D01*
X76587341Y-75471413D01*
X76603970Y-75450776D01*
X76775945Y-75278801D01*
X76788199Y-75268986D01*
X76788016Y-75268764D01*
X76794025Y-75263791D01*
X76794034Y-75263786D01*
X76840106Y-75214722D01*
X76842723Y-75212023D01*
X76862277Y-75192471D01*
X76864733Y-75189303D01*
X76872313Y-75180427D01*
X76902219Y-75148582D01*
X76911872Y-75131020D01*
X76922546Y-75114770D01*
X76934830Y-75098936D01*
X76952176Y-75058850D01*
X76957314Y-75048362D01*
X76978353Y-75010093D01*
X76978354Y-75010092D01*
X76983334Y-74990691D01*
X76989635Y-74972288D01*
X76997595Y-74953896D01*
X77004429Y-74910741D01*
X77006792Y-74899331D01*
X77017657Y-74857019D01*
X77017657Y-74836983D01*
X77019184Y-74817582D01*
X77022317Y-74797804D01*
X77018207Y-74754324D01*
X77017657Y-74742655D01*
X77017657Y-58922738D01*
X77019381Y-58907124D01*
X77019095Y-58907097D01*
X77019829Y-58899334D01*
X77017718Y-58832144D01*
X77017657Y-58828250D01*
X77017657Y-58800651D01*
X77017657Y-58800650D01*
X77017154Y-58796670D01*
X77016237Y-58785021D01*
X77014866Y-58741373D01*
X77009279Y-58722144D01*
X77005331Y-58703084D01*
X77002820Y-58683204D01*
X76986745Y-58642604D01*
X76982961Y-58631552D01*
X76970775Y-58589609D01*
X76970773Y-58589606D01*
X76960580Y-58572371D01*
X76952018Y-58554894D01*
X76944644Y-58536269D01*
X76918973Y-58500937D01*
X76912562Y-58491177D01*
X76890327Y-58453580D01*
X76890325Y-58453578D01*
X76890322Y-58453574D01*
X76876163Y-58439415D01*
X76863525Y-58424619D01*
X76851751Y-58408413D01*
X76818097Y-58380572D01*
X76809456Y-58372709D01*
X69693368Y-51256620D01*
X69659883Y-51195297D01*
X69657830Y-51182836D01*
X69652525Y-51135745D01*
X69592946Y-50965478D01*
X69589038Y-50959259D01*
X69518769Y-50847426D01*
X69496973Y-50812738D01*
X69369419Y-50685184D01*
X69346050Y-50670500D01*
X69216680Y-50589211D01*
X69046411Y-50529631D01*
X69046406Y-50529630D01*
X68867161Y-50509435D01*
X68867153Y-50509435D01*
X68687907Y-50529630D01*
X68687902Y-50529631D01*
X68517633Y-50589211D01*
X68364894Y-50685184D01*
X68321233Y-50728845D01*
X68259910Y-50762329D01*
X68190218Y-50757344D01*
X68145872Y-50728844D01*
X67078240Y-49661212D01*
X67068417Y-49648950D01*
X67068196Y-49649134D01*
X67063223Y-49643122D01*
X67014213Y-49597099D01*
X67011414Y-49594386D01*
X66991914Y-49574885D01*
X66991908Y-49574880D01*
X66988723Y-49572409D01*
X66979871Y-49564848D01*
X66948019Y-49534938D01*
X66948017Y-49534936D01*
X66948014Y-49534935D01*
X66930466Y-49525288D01*
X66914200Y-49514604D01*
X66898369Y-49502324D01*
X66858286Y-49484978D01*
X66847800Y-49479841D01*
X66809531Y-49458803D01*
X66809529Y-49458802D01*
X66790130Y-49453822D01*
X66771718Y-49447518D01*
X66753335Y-49439562D01*
X66753329Y-49439560D01*
X66710197Y-49432729D01*
X66698759Y-49430361D01*
X66656457Y-49419500D01*
X66656456Y-49419500D01*
X66636421Y-49419500D01*
X66617023Y-49417973D01*
X66609599Y-49416797D01*
X66597242Y-49414840D01*
X66597241Y-49414840D01*
X66553762Y-49418950D01*
X66542093Y-49419500D01*
X60816183Y-49419500D01*
X60749144Y-49399815D01*
X60726309Y-49380932D01*
X60632218Y-49281949D01*
X60632217Y-49281948D01*
X60632216Y-49281947D01*
X60533744Y-49213409D01*
X60465207Y-49165705D01*
X60278213Y-49085459D01*
X60078898Y-49044500D01*
X58918940Y-49044500D01*
X58851901Y-49024815D01*
X58831259Y-49008181D01*
X56573078Y-46750001D01*
X70744390Y-46750001D01*
X70764804Y-47035433D01*
X70825628Y-47315037D01*
X70825630Y-47315043D01*
X70825631Y-47315046D01*
X70925633Y-47583161D01*
X70925635Y-47583166D01*
X71062770Y-47834309D01*
X71062775Y-47834317D01*
X71234254Y-48063387D01*
X71234270Y-48063405D01*
X71436594Y-48265729D01*
X71436612Y-48265745D01*
X71665682Y-48437224D01*
X71665690Y-48437229D01*
X71916833Y-48574364D01*
X71916832Y-48574364D01*
X71916836Y-48574365D01*
X71916839Y-48574367D01*
X72184954Y-48674369D01*
X72184960Y-48674370D01*
X72184962Y-48674371D01*
X72464566Y-48735195D01*
X72464568Y-48735195D01*
X72464572Y-48735196D01*
X72718220Y-48753337D01*
X72749999Y-48755610D01*
X72750000Y-48755610D01*
X72750001Y-48755610D01*
X72778595Y-48753564D01*
X73035428Y-48735196D01*
X73315046Y-48674369D01*
X73583161Y-48574367D01*
X73834315Y-48437226D01*
X74063395Y-48265739D01*
X74265739Y-48063395D01*
X74437226Y-47834315D01*
X74574367Y-47583161D01*
X74674369Y-47315046D01*
X74715815Y-47124521D01*
X74735195Y-47035433D01*
X74735195Y-47035432D01*
X74735196Y-47035428D01*
X74754490Y-46765654D01*
X74755610Y-46750001D01*
X74755610Y-46749998D01*
X74750297Y-46675710D01*
X74735196Y-46464572D01*
X74734923Y-46463319D01*
X74674371Y-46184962D01*
X74674370Y-46184960D01*
X74674369Y-46184954D01*
X74574367Y-45916839D01*
X74557241Y-45885476D01*
X74437229Y-45665690D01*
X74437224Y-45665682D01*
X74265745Y-45436612D01*
X74265729Y-45436594D01*
X74063405Y-45234270D01*
X74063387Y-45234254D01*
X73883064Y-45099267D01*
X73841192Y-45043334D01*
X73836208Y-44973642D01*
X73869693Y-44912319D01*
X73883064Y-44900733D01*
X74063387Y-44765745D01*
X74063387Y-44765744D01*
X74063395Y-44765739D01*
X74265739Y-44563395D01*
X74437226Y-44334315D01*
X74574367Y-44083161D01*
X74674369Y-43815046D01*
X74691451Y-43736523D01*
X74735195Y-43535433D01*
X74735195Y-43535432D01*
X74735196Y-43535428D01*
X74755610Y-43250000D01*
X74735196Y-42964572D01*
X74674369Y-42684954D01*
X74574367Y-42416839D01*
X74571596Y-42411765D01*
X74437229Y-42165690D01*
X74437224Y-42165682D01*
X74265745Y-41936612D01*
X74265729Y-41936594D01*
X74063405Y-41734270D01*
X74063387Y-41734254D01*
X73834317Y-41562775D01*
X73834309Y-41562770D01*
X73583166Y-41425635D01*
X73583167Y-41425635D01*
X73475915Y-41385632D01*
X73315046Y-41325631D01*
X73315043Y-41325630D01*
X73315037Y-41325628D01*
X73035433Y-41264804D01*
X72750001Y-41244390D01*
X72749999Y-41244390D01*
X72464566Y-41264804D01*
X72184962Y-41325628D01*
X71916833Y-41425635D01*
X71665690Y-41562770D01*
X71665682Y-41562775D01*
X71436612Y-41734254D01*
X71436594Y-41734270D01*
X71234270Y-41936594D01*
X71234254Y-41936612D01*
X71062775Y-42165682D01*
X71062770Y-42165690D01*
X70925635Y-42416833D01*
X70825628Y-42684962D01*
X70764804Y-42964566D01*
X70744390Y-43249998D01*
X70744390Y-43250001D01*
X70764804Y-43535433D01*
X70825628Y-43815037D01*
X70825630Y-43815043D01*
X70825631Y-43815046D01*
X70877733Y-43954737D01*
X70925635Y-44083166D01*
X71062770Y-44334309D01*
X71062775Y-44334317D01*
X71234254Y-44563387D01*
X71234270Y-44563405D01*
X71436594Y-44765729D01*
X71436612Y-44765745D01*
X71616935Y-44900733D01*
X71658807Y-44956667D01*
X71663791Y-45026358D01*
X71630306Y-45087681D01*
X71616935Y-45099267D01*
X71436612Y-45234254D01*
X71436594Y-45234270D01*
X71234270Y-45436594D01*
X71234254Y-45436612D01*
X71062775Y-45665682D01*
X71062770Y-45665690D01*
X70925635Y-45916833D01*
X70825628Y-46184962D01*
X70764804Y-46464566D01*
X70744390Y-46749998D01*
X70744390Y-46750001D01*
X56573078Y-46750001D01*
X55568739Y-45745662D01*
X55552890Y-45732738D01*
X55450564Y-45649302D01*
X55270206Y-45555091D01*
X55074575Y-45499113D01*
X55074574Y-45499112D01*
X55074573Y-45499112D01*
X54871682Y-45483662D01*
X54871679Y-45483662D01*
X54669835Y-45509368D01*
X54669827Y-45509370D01*
X54477286Y-45575183D01*
X54477274Y-45575189D01*
X54301935Y-45678406D01*
X54301928Y-45678411D01*
X54150944Y-45814820D01*
X54150944Y-45814821D01*
X54030510Y-45978828D01*
X54030506Y-45978835D01*
X53945554Y-46163725D01*
X53945550Y-46163737D01*
X53899553Y-46361945D01*
X53894399Y-46565358D01*
X53930297Y-46765648D01*
X53930299Y-46765654D01*
X54005780Y-46954616D01*
X54005786Y-46954628D01*
X54117753Y-47124517D01*
X54117756Y-47124521D01*
X57735607Y-50742371D01*
X57737800Y-50744620D01*
X57798096Y-50808051D01*
X57798102Y-50808056D01*
X57846518Y-50841755D01*
X57854031Y-50847419D01*
X57899749Y-50884697D01*
X57899752Y-50884698D01*
X57899754Y-50884700D01*
X57926713Y-50898782D01*
X57940138Y-50906915D01*
X57965108Y-50924295D01*
X58019322Y-50947560D01*
X58027811Y-50951591D01*
X58080108Y-50978909D01*
X58102155Y-50985216D01*
X58109341Y-50987273D01*
X58124133Y-50992539D01*
X58152096Y-51004539D01*
X58152099Y-51004540D01*
X58209884Y-51016414D01*
X58219026Y-51018657D01*
X58275739Y-51034886D01*
X58306075Y-51037196D01*
X58321614Y-51039376D01*
X58351412Y-51045500D01*
X58351416Y-51045500D01*
X58410401Y-51045500D01*
X58419816Y-51045857D01*
X58478633Y-51050337D01*
X58508808Y-51046493D01*
X58524475Y-51045500D01*
X60027900Y-51045500D01*
X60179596Y-51030074D01*
X60373736Y-50969162D01*
X60373737Y-50969161D01*
X60373745Y-50969159D01*
X60551659Y-50870409D01*
X60706052Y-50737866D01*
X60720968Y-50718597D01*
X60777571Y-50677634D01*
X60819023Y-50670500D01*
X62947924Y-50670500D01*
X63014963Y-50690185D01*
X63060718Y-50742989D01*
X63070662Y-50812147D01*
X63069386Y-50819461D01*
X63040657Y-50959258D01*
X63040657Y-51103217D01*
X63020972Y-51170256D01*
X63004338Y-51190898D01*
X60107056Y-54088181D01*
X60045733Y-54121666D01*
X60019375Y-54124500D01*
X54846414Y-54124500D01*
X54694717Y-54139925D01*
X54500577Y-54200837D01*
X54500562Y-54200844D01*
X54322657Y-54299589D01*
X54322652Y-54299592D01*
X54168263Y-54432132D01*
X54168261Y-54432134D01*
X54039860Y-54598014D01*
X54037614Y-54596275D01*
X53994396Y-54634535D01*
X53925346Y-54645211D01*
X53861487Y-54616862D01*
X53838159Y-54590534D01*
X53771559Y-54489481D01*
X53771557Y-54489479D01*
X53771556Y-54489477D01*
X52439723Y-53157646D01*
X52437530Y-53155397D01*
X52377218Y-53091949D01*
X52377217Y-53091948D01*
X52377216Y-53091947D01*
X52328797Y-53058246D01*
X52321277Y-53052575D01*
X52275570Y-53015305D01*
X52275563Y-53015301D01*
X52248598Y-53001216D01*
X52235183Y-52993089D01*
X52210206Y-52975705D01*
X52210203Y-52975703D01*
X52210202Y-52975703D01*
X52210198Y-52975701D01*
X52156002Y-52952443D01*
X52147493Y-52948402D01*
X52095214Y-52921094D01*
X52095203Y-52921090D01*
X52065963Y-52912723D01*
X52051178Y-52907459D01*
X52023215Y-52895459D01*
X51965430Y-52883583D01*
X51956284Y-52881338D01*
X51899580Y-52865113D01*
X51875856Y-52863306D01*
X51869229Y-52862801D01*
X51853690Y-52860622D01*
X51823899Y-52854500D01*
X51823898Y-52854500D01*
X51764916Y-52854500D01*
X51755501Y-52854142D01*
X51752800Y-52853936D01*
X51696681Y-52849662D01*
X51666506Y-52853506D01*
X51650839Y-52854500D01*
X49393939Y-52854500D01*
X49326900Y-52834815D01*
X49306258Y-52818181D01*
X48964739Y-52476662D01*
X48933030Y-52450806D01*
X48846564Y-52380302D01*
X48666206Y-52286091D01*
X48663906Y-52285433D01*
X48473175Y-52230857D01*
X48470575Y-52230113D01*
X48470574Y-52230112D01*
X48470573Y-52230112D01*
X48267682Y-52214662D01*
X48267679Y-52214662D01*
X48065835Y-52240368D01*
X48065827Y-52240370D01*
X47873286Y-52306183D01*
X47873274Y-52306189D01*
X47697935Y-52409406D01*
X47697928Y-52409411D01*
X47546944Y-52545820D01*
X47546944Y-52545821D01*
X47426510Y-52709828D01*
X47426506Y-52709835D01*
X47341554Y-52894725D01*
X47341550Y-52894737D01*
X47295553Y-53092945D01*
X47290399Y-53296358D01*
X47326297Y-53496648D01*
X47326299Y-53496654D01*
X47401780Y-53685616D01*
X47401786Y-53685628D01*
X47513753Y-53855517D01*
X47513756Y-53855521D01*
X48210606Y-54552370D01*
X48212799Y-54554619D01*
X48273095Y-54618050D01*
X48273098Y-54618053D01*
X48321505Y-54651746D01*
X48329026Y-54657417D01*
X48374744Y-54694694D01*
X48374747Y-54694695D01*
X48374750Y-54694698D01*
X48401722Y-54708786D01*
X48415139Y-54716916D01*
X48440108Y-54734295D01*
X48494320Y-54757559D01*
X48502820Y-54761595D01*
X48555108Y-54788909D01*
X48584356Y-54797277D01*
X48599132Y-54802538D01*
X48627099Y-54814540D01*
X48627102Y-54814540D01*
X48627103Y-54814541D01*
X48684870Y-54826412D01*
X48694023Y-54828658D01*
X48750739Y-54844887D01*
X48781071Y-54847196D01*
X48796620Y-54849377D01*
X48826412Y-54855500D01*
X48826416Y-54855500D01*
X48885399Y-54855500D01*
X48894813Y-54855857D01*
X48903167Y-54856494D01*
X48953633Y-54860337D01*
X48953633Y-54860336D01*
X48953634Y-54860337D01*
X48983809Y-54856493D01*
X48999476Y-54855500D01*
X51256374Y-54855500D01*
X51323413Y-54875185D01*
X51344055Y-54891819D01*
X52320577Y-55868340D01*
X52438750Y-55964698D01*
X52619108Y-56058909D01*
X52814739Y-56114886D01*
X53003274Y-56129243D01*
X53017632Y-56130337D01*
X53017633Y-56130337D01*
X53219478Y-56104631D01*
X53219478Y-56104630D01*
X53219485Y-56104630D01*
X53412029Y-56038816D01*
X53587384Y-55935590D01*
X53738370Y-55799179D01*
X53846413Y-55652043D01*
X53901956Y-55609661D01*
X53971599Y-55604035D01*
X54033228Y-55636954D01*
X54051590Y-55659848D01*
X54101902Y-55740567D01*
X54101904Y-55740569D01*
X54101905Y-55740571D01*
X54242098Y-55888053D01*
X54370501Y-55977424D01*
X54409106Y-56004294D01*
X54409107Y-56004294D01*
X54409108Y-56004295D01*
X54596099Y-56084540D01*
X54795416Y-56125500D01*
X58786374Y-56125500D01*
X58853413Y-56145185D01*
X58899168Y-56197989D01*
X58909112Y-56267147D01*
X58880087Y-56330703D01*
X58874055Y-56337181D01*
X58583056Y-56628181D01*
X58521733Y-56661666D01*
X58495375Y-56664500D01*
X54846414Y-56664500D01*
X54694717Y-56679925D01*
X54500577Y-56740837D01*
X54500562Y-56740844D01*
X54322657Y-56839589D01*
X54322652Y-56839592D01*
X54168263Y-56972132D01*
X54168261Y-56972134D01*
X54043711Y-57133037D01*
X54043710Y-57133040D01*
X53954097Y-57315728D01*
X53903094Y-57512714D01*
X53892788Y-57715936D01*
X53923599Y-57917063D01*
X53923602Y-57917075D01*
X53994268Y-58107881D01*
X53994269Y-58107882D01*
X53994271Y-58107887D01*
X53998650Y-58114913D01*
X54017404Y-58182217D01*
X53996793Y-58248977D01*
X53943361Y-58293997D01*
X53893416Y-58304500D01*
X42903004Y-58304500D01*
X42879772Y-58302304D01*
X42871745Y-58300773D01*
X42871742Y-58300772D01*
X42816398Y-58304255D01*
X42808612Y-58304500D01*
X39327610Y-58304500D01*
X39260571Y-58284815D01*
X39239927Y-58268180D01*
X39213366Y-58241618D01*
X39179882Y-58180294D01*
X39177830Y-58167836D01*
X39172525Y-58120745D01*
X39112946Y-57950478D01*
X39091957Y-57917075D01*
X39016972Y-57797737D01*
X38971916Y-57752681D01*
X38938431Y-57691358D01*
X38943415Y-57621666D01*
X38971916Y-57577319D01*
X39016973Y-57532262D01*
X39112946Y-57379522D01*
X39172525Y-57209255D01*
X39177829Y-57162173D01*
X39204894Y-57097763D01*
X39213358Y-57088387D01*
X43850945Y-52450801D01*
X43863199Y-52440986D01*
X43863016Y-52440764D01*
X43869025Y-52435791D01*
X43869034Y-52435786D01*
X43915106Y-52386722D01*
X43917723Y-52384023D01*
X43937277Y-52364471D01*
X43939733Y-52361303D01*
X43947313Y-52352427D01*
X43977219Y-52320582D01*
X43986872Y-52303020D01*
X43997546Y-52286770D01*
X44009830Y-52270936D01*
X44027176Y-52230850D01*
X44032314Y-52220362D01*
X44035448Y-52214663D01*
X44053354Y-52182092D01*
X44058334Y-52162691D01*
X44064635Y-52144288D01*
X44072595Y-52125896D01*
X44079429Y-52082741D01*
X44081792Y-52071331D01*
X44092657Y-52029019D01*
X44092657Y-52008983D01*
X44094184Y-51989582D01*
X44097317Y-51969804D01*
X44093207Y-51926324D01*
X44092657Y-51914655D01*
X44092657Y-47180452D01*
X44112342Y-47113413D01*
X44128971Y-47092775D01*
X44160535Y-47061210D01*
X44221856Y-47027726D01*
X44234316Y-47025674D01*
X44281412Y-47020368D01*
X44451679Y-46960789D01*
X44604419Y-46864816D01*
X44731973Y-46737262D01*
X44827946Y-46584522D01*
X44887525Y-46414255D01*
X44907722Y-46235000D01*
X44902084Y-46184962D01*
X44887526Y-46055750D01*
X44887525Y-46055745D01*
X44860612Y-45978833D01*
X44827946Y-45885478D01*
X44731973Y-45732738D01*
X44604419Y-45605184D01*
X44451680Y-45509211D01*
X44281411Y-45449631D01*
X44281406Y-45449630D01*
X44102161Y-45429435D01*
X44102153Y-45429435D01*
X43922907Y-45449630D01*
X43922902Y-45449631D01*
X43752633Y-45509211D01*
X43599894Y-45605184D01*
X43472341Y-45732737D01*
X43376367Y-45885478D01*
X43316787Y-46055750D01*
X43311483Y-46102825D01*
X43284415Y-46167238D01*
X43275944Y-46176620D01*
X43083365Y-46369199D01*
X43071108Y-46379020D01*
X43071291Y-46379241D01*
X43065279Y-46384214D01*
X43019255Y-46433223D01*
X43016548Y-46436016D01*
X42997046Y-46455517D01*
X42997032Y-46455534D01*
X42994564Y-46458715D01*
X42987000Y-46467570D01*
X42957094Y-46499418D01*
X42957093Y-46499420D01*
X42947441Y-46516976D01*
X42936767Y-46533226D01*
X42924486Y-46549061D01*
X42924481Y-46549068D01*
X42907132Y-46589158D01*
X42901995Y-46599644D01*
X42880960Y-46637906D01*
X42875979Y-46657307D01*
X42869678Y-46675710D01*
X42861719Y-46694102D01*
X42861718Y-46694105D01*
X42854885Y-46737243D01*
X42852517Y-46748674D01*
X42841658Y-46790971D01*
X42841657Y-46790982D01*
X42841657Y-46811016D01*
X42840130Y-46830415D01*
X42836997Y-46850194D01*
X42836997Y-46850195D01*
X42841107Y-46893674D01*
X42841657Y-46905343D01*
X42841657Y-51639546D01*
X42821972Y-51706585D01*
X42805338Y-51727227D01*
X38328777Y-56203787D01*
X38267454Y-56237272D01*
X38254982Y-56239326D01*
X38207907Y-56244630D01*
X38037635Y-56304210D01*
X37884894Y-56400184D01*
X37757341Y-56527737D01*
X37661368Y-56680476D01*
X37601788Y-56850745D01*
X37601787Y-56850750D01*
X37581592Y-57029996D01*
X37581592Y-57030003D01*
X37601787Y-57209249D01*
X37601788Y-57209254D01*
X37661368Y-57379523D01*
X37757341Y-57532262D01*
X37757342Y-57532263D01*
X37802398Y-57577320D01*
X37835882Y-57638643D01*
X37830897Y-57708335D01*
X37802398Y-57752680D01*
X37757341Y-57797737D01*
X37661368Y-57950476D01*
X37601788Y-58120745D01*
X37601787Y-58120750D01*
X37581592Y-58299996D01*
X37581592Y-58300003D01*
X30377657Y-58300003D01*
X30377657Y-47505003D01*
X35041592Y-47505003D01*
X35061787Y-47684249D01*
X35061788Y-47684254D01*
X35121368Y-47854523D01*
X35197927Y-47976365D01*
X35217341Y-48007262D01*
X35344895Y-48134816D01*
X35497635Y-48230789D01*
X35597534Y-48265745D01*
X35667902Y-48290368D01*
X35667907Y-48290369D01*
X35847153Y-48310565D01*
X35847157Y-48310565D01*
X35847161Y-48310565D01*
X36026406Y-48290369D01*
X36026409Y-48290368D01*
X36026412Y-48290368D01*
X36196679Y-48230789D01*
X36349419Y-48134816D01*
X36470723Y-48013512D01*
X36482414Y-48003206D01*
X36482453Y-48003174D01*
X36482461Y-48003170D01*
X36496630Y-47988999D01*
X36511420Y-47976368D01*
X36527628Y-47964594D01*
X36555479Y-47930926D01*
X36563320Y-47922309D01*
X38250627Y-46235003D01*
X39541592Y-46235003D01*
X39561787Y-46414249D01*
X39561788Y-46414254D01*
X39621368Y-46584523D01*
X39703198Y-46714753D01*
X39717341Y-46737262D01*
X39844895Y-46864816D01*
X39909393Y-46905343D01*
X39987829Y-46954628D01*
X39997635Y-46960789D01*
X40167899Y-47020367D01*
X40167902Y-47020368D01*
X40167907Y-47020369D01*
X40347153Y-47040565D01*
X40347157Y-47040565D01*
X40347161Y-47040565D01*
X40526406Y-47020369D01*
X40526409Y-47020368D01*
X40526412Y-47020368D01*
X40696679Y-46960789D01*
X40849419Y-46864816D01*
X40976973Y-46737262D01*
X41072946Y-46584522D01*
X41072947Y-46584518D01*
X41075968Y-46578246D01*
X41077812Y-46579134D01*
X41100462Y-46543061D01*
X43856706Y-43786819D01*
X43918029Y-43753334D01*
X43944387Y-43750500D01*
X53539436Y-43750500D01*
X56798452Y-43750500D01*
X56816422Y-43751809D01*
X56840180Y-43755289D01*
X56889526Y-43750971D01*
X56900333Y-43750500D01*
X56905861Y-43750500D01*
X56905866Y-43750500D01*
X56936713Y-43746893D01*
X56940187Y-43746539D01*
X57014954Y-43739999D01*
X57014962Y-43739996D01*
X57022023Y-43738539D01*
X57022035Y-43738598D01*
X57029400Y-43736965D01*
X57029386Y-43736906D01*
X57036406Y-43735241D01*
X57036412Y-43735241D01*
X57106936Y-43709572D01*
X57110274Y-43708412D01*
X57181491Y-43684814D01*
X57181499Y-43684808D01*
X57188039Y-43681760D01*
X57188065Y-43681816D01*
X57194847Y-43678532D01*
X57194820Y-43678478D01*
X57201270Y-43675238D01*
X57201274Y-43675237D01*
X57263994Y-43633984D01*
X57266889Y-43632140D01*
X57330813Y-43592712D01*
X57330819Y-43592705D01*
X57336482Y-43588229D01*
X57336519Y-43588277D01*
X57342361Y-43583518D01*
X57342321Y-43583471D01*
X57347843Y-43578835D01*
X57347853Y-43578830D01*
X57399342Y-43524253D01*
X57401789Y-43521734D01*
X57673522Y-43250001D01*
X61994390Y-43250001D01*
X62014804Y-43535433D01*
X62075628Y-43815037D01*
X62075630Y-43815043D01*
X62075631Y-43815046D01*
X62127733Y-43954737D01*
X62175635Y-44083166D01*
X62312770Y-44334309D01*
X62312775Y-44334317D01*
X62484254Y-44563387D01*
X62484270Y-44563405D01*
X62686594Y-44765729D01*
X62686612Y-44765745D01*
X62915682Y-44937224D01*
X62915690Y-44937229D01*
X63166833Y-45074364D01*
X63166832Y-45074364D01*
X63166836Y-45074365D01*
X63166839Y-45074367D01*
X63434954Y-45174369D01*
X63434960Y-45174370D01*
X63434962Y-45174371D01*
X63714566Y-45235195D01*
X63714568Y-45235195D01*
X63714572Y-45235196D01*
X63968220Y-45253337D01*
X63999999Y-45255610D01*
X64000000Y-45255610D01*
X64000001Y-45255610D01*
X64028595Y-45253564D01*
X64285428Y-45235196D01*
X64289727Y-45234261D01*
X64565037Y-45174371D01*
X64565037Y-45174370D01*
X64565046Y-45174369D01*
X64833161Y-45074367D01*
X65084315Y-44937226D01*
X65313395Y-44765739D01*
X65515739Y-44563395D01*
X65650733Y-44383064D01*
X65706666Y-44341192D01*
X65776358Y-44336208D01*
X65837681Y-44369693D01*
X65849267Y-44383064D01*
X65984254Y-44563387D01*
X65984270Y-44563405D01*
X66186594Y-44765729D01*
X66186612Y-44765745D01*
X66415682Y-44937224D01*
X66415690Y-44937229D01*
X66666833Y-45074364D01*
X66666832Y-45074364D01*
X66666836Y-45074365D01*
X66666839Y-45074367D01*
X66934954Y-45174369D01*
X66934960Y-45174370D01*
X66934962Y-45174371D01*
X67214566Y-45235195D01*
X67214568Y-45235195D01*
X67214572Y-45235196D01*
X67468220Y-45253337D01*
X67499999Y-45255610D01*
X67500000Y-45255610D01*
X67500001Y-45255610D01*
X67528595Y-45253564D01*
X67785428Y-45235196D01*
X67789727Y-45234261D01*
X68065037Y-45174371D01*
X68065037Y-45174370D01*
X68065046Y-45174369D01*
X68333161Y-45074367D01*
X68584315Y-44937226D01*
X68813395Y-44765739D01*
X69015739Y-44563395D01*
X69187226Y-44334315D01*
X69324367Y-44083161D01*
X69424369Y-43815046D01*
X69441451Y-43736523D01*
X69485195Y-43535433D01*
X69485195Y-43535432D01*
X69485196Y-43535428D01*
X69505610Y-43250000D01*
X69485196Y-42964572D01*
X69424369Y-42684954D01*
X69324367Y-42416839D01*
X69321596Y-42411765D01*
X69187229Y-42165690D01*
X69187224Y-42165682D01*
X69015745Y-41936612D01*
X69015729Y-41936594D01*
X68813405Y-41734270D01*
X68813387Y-41734254D01*
X68584317Y-41562775D01*
X68584309Y-41562770D01*
X68333166Y-41425635D01*
X68333167Y-41425635D01*
X68225915Y-41385632D01*
X68065046Y-41325631D01*
X68065043Y-41325630D01*
X68065037Y-41325628D01*
X67785433Y-41264804D01*
X67500001Y-41244390D01*
X67499999Y-41244390D01*
X67214566Y-41264804D01*
X66934962Y-41325628D01*
X66666833Y-41425635D01*
X66415690Y-41562770D01*
X66415682Y-41562775D01*
X66186612Y-41734254D01*
X66186594Y-41734270D01*
X65984270Y-41936594D01*
X65984254Y-41936612D01*
X65849267Y-42116935D01*
X65793333Y-42158807D01*
X65723642Y-42163791D01*
X65662319Y-42130306D01*
X65650733Y-42116935D01*
X65515745Y-41936612D01*
X65515729Y-41936594D01*
X65313405Y-41734270D01*
X65313387Y-41734254D01*
X65084317Y-41562775D01*
X65084309Y-41562770D01*
X64833166Y-41425635D01*
X64833167Y-41425635D01*
X64725915Y-41385632D01*
X64565046Y-41325631D01*
X64565043Y-41325630D01*
X64565037Y-41325628D01*
X64285433Y-41264804D01*
X64000001Y-41244390D01*
X63999999Y-41244390D01*
X63714566Y-41264804D01*
X63434962Y-41325628D01*
X63166833Y-41425635D01*
X62915690Y-41562770D01*
X62915682Y-41562775D01*
X62686612Y-41734254D01*
X62686594Y-41734270D01*
X62484270Y-41936594D01*
X62484254Y-41936612D01*
X62312775Y-42165682D01*
X62312770Y-42165690D01*
X62175635Y-42416833D01*
X62075628Y-42684962D01*
X62014804Y-42964566D01*
X61994390Y-43249998D01*
X61994390Y-43250001D01*
X57673522Y-43250001D01*
X61678749Y-39244773D01*
X61740070Y-39211290D01*
X61809758Y-39216273D01*
X61952111Y-39269369D01*
X61952117Y-39269370D01*
X61952119Y-39269371D01*
X62231723Y-39330195D01*
X62231725Y-39330195D01*
X62231729Y-39330196D01*
X62485377Y-39348337D01*
X62517156Y-39350610D01*
X62517157Y-39350610D01*
X62517158Y-39350610D01*
X62545752Y-39348564D01*
X62802585Y-39330196D01*
X62817227Y-39327011D01*
X63082194Y-39269371D01*
X63082194Y-39269370D01*
X63082203Y-39269369D01*
X63350318Y-39169367D01*
X63601472Y-39032226D01*
X63830552Y-38860739D01*
X64032896Y-38658395D01*
X64204383Y-38429315D01*
X64341524Y-38178161D01*
X64441526Y-37910046D01*
X64502353Y-37630428D01*
X64522767Y-37345001D01*
X65591547Y-37345001D01*
X65611961Y-37630433D01*
X65672785Y-37910037D01*
X65672786Y-37910039D01*
X65672788Y-37910046D01*
X65745502Y-38105000D01*
X65772792Y-38178166D01*
X65909927Y-38429309D01*
X65909932Y-38429317D01*
X66081411Y-38658387D01*
X66081427Y-38658405D01*
X66283751Y-38860729D01*
X66283769Y-38860745D01*
X66512839Y-39032224D01*
X66512847Y-39032229D01*
X66763990Y-39169364D01*
X66763989Y-39169364D01*
X66763993Y-39169365D01*
X66763996Y-39169367D01*
X67032111Y-39269369D01*
X67032117Y-39269370D01*
X67032119Y-39269371D01*
X67311723Y-39330195D01*
X67311725Y-39330195D01*
X67311729Y-39330196D01*
X67565377Y-39348337D01*
X67597156Y-39350610D01*
X67597157Y-39350610D01*
X67597158Y-39350610D01*
X67625752Y-39348564D01*
X67882585Y-39330196D01*
X67897227Y-39327011D01*
X68162194Y-39269371D01*
X68162194Y-39269370D01*
X68162203Y-39269369D01*
X68430318Y-39169367D01*
X68681472Y-39032226D01*
X68910552Y-38860739D01*
X69112896Y-38658395D01*
X69284383Y-38429315D01*
X69421524Y-38178161D01*
X69521526Y-37910046D01*
X69582353Y-37630428D01*
X69602767Y-37345001D01*
X70671547Y-37345001D01*
X70691961Y-37630433D01*
X70752785Y-37910037D01*
X70752786Y-37910039D01*
X70752788Y-37910046D01*
X70825502Y-38105000D01*
X70852792Y-38178166D01*
X70989927Y-38429309D01*
X70989932Y-38429317D01*
X71161411Y-38658387D01*
X71161427Y-38658405D01*
X71363751Y-38860729D01*
X71363769Y-38860745D01*
X71592839Y-39032224D01*
X71592847Y-39032229D01*
X71843990Y-39169364D01*
X71843989Y-39169364D01*
X71843993Y-39169365D01*
X71843996Y-39169367D01*
X72112111Y-39269369D01*
X72112117Y-39269370D01*
X72112119Y-39269371D01*
X72391723Y-39330195D01*
X72391725Y-39330195D01*
X72391729Y-39330196D01*
X72645377Y-39348337D01*
X72677156Y-39350610D01*
X72677157Y-39350610D01*
X72677158Y-39350610D01*
X72705752Y-39348564D01*
X72962585Y-39330196D01*
X72977227Y-39327011D01*
X73242194Y-39269371D01*
X73242194Y-39269370D01*
X73242203Y-39269369D01*
X73510318Y-39169367D01*
X73761472Y-39032226D01*
X73990552Y-38860739D01*
X74192896Y-38658395D01*
X74364383Y-38429315D01*
X74501524Y-38178161D01*
X74601526Y-37910046D01*
X74662353Y-37630428D01*
X74682767Y-37345000D01*
X74662353Y-37059572D01*
X74658515Y-37041930D01*
X74601528Y-36779962D01*
X74601527Y-36779960D01*
X74601526Y-36779954D01*
X74501524Y-36511839D01*
X74364529Y-36260953D01*
X74364386Y-36260690D01*
X74364381Y-36260682D01*
X74192902Y-36031612D01*
X74192886Y-36031594D01*
X73990562Y-35829270D01*
X73990544Y-35829254D01*
X73761474Y-35657775D01*
X73761466Y-35657770D01*
X73510323Y-35520635D01*
X73510324Y-35520635D01*
X73403072Y-35480632D01*
X73242203Y-35420631D01*
X73242200Y-35420630D01*
X73242194Y-35420628D01*
X72962590Y-35359804D01*
X72677158Y-35339390D01*
X72677156Y-35339390D01*
X72391723Y-35359804D01*
X72112119Y-35420628D01*
X71843990Y-35520635D01*
X71592847Y-35657770D01*
X71592839Y-35657775D01*
X71363769Y-35829254D01*
X71363751Y-35829270D01*
X71161427Y-36031594D01*
X71161411Y-36031612D01*
X70989932Y-36260682D01*
X70989927Y-36260690D01*
X70852792Y-36511833D01*
X70752785Y-36779962D01*
X70691961Y-37059566D01*
X70671547Y-37344998D01*
X70671547Y-37345001D01*
X69602767Y-37345001D01*
X69602767Y-37345000D01*
X69582353Y-37059572D01*
X69578515Y-37041930D01*
X69521528Y-36779962D01*
X69521527Y-36779960D01*
X69521526Y-36779954D01*
X69421524Y-36511839D01*
X69284529Y-36260953D01*
X69284386Y-36260690D01*
X69284381Y-36260682D01*
X69112902Y-36031612D01*
X69112886Y-36031594D01*
X68910562Y-35829270D01*
X68910544Y-35829254D01*
X68681474Y-35657775D01*
X68681466Y-35657770D01*
X68430323Y-35520635D01*
X68430324Y-35520635D01*
X68323072Y-35480632D01*
X68162203Y-35420631D01*
X68162200Y-35420630D01*
X68162194Y-35420628D01*
X67882590Y-35359804D01*
X67597158Y-35339390D01*
X67597156Y-35339390D01*
X67311723Y-35359804D01*
X67032119Y-35420628D01*
X66763990Y-35520635D01*
X66512847Y-35657770D01*
X66512839Y-35657775D01*
X66283769Y-35829254D01*
X66283751Y-35829270D01*
X66081427Y-36031594D01*
X66081411Y-36031612D01*
X65909932Y-36260682D01*
X65909927Y-36260690D01*
X65772792Y-36511833D01*
X65672785Y-36779962D01*
X65611961Y-37059566D01*
X65591547Y-37344998D01*
X65591547Y-37345001D01*
X64522767Y-37345001D01*
X64522767Y-37345000D01*
X64502353Y-37059572D01*
X64498515Y-37041930D01*
X64441528Y-36779962D01*
X64441527Y-36779960D01*
X64441526Y-36779954D01*
X64341524Y-36511839D01*
X64204529Y-36260953D01*
X64204386Y-36260690D01*
X64204381Y-36260682D01*
X64032902Y-36031612D01*
X64032886Y-36031594D01*
X63830562Y-35829270D01*
X63830544Y-35829254D01*
X63601474Y-35657775D01*
X63601466Y-35657770D01*
X63350323Y-35520635D01*
X63350324Y-35520635D01*
X63243072Y-35480632D01*
X63082203Y-35420631D01*
X63082200Y-35420630D01*
X63082194Y-35420628D01*
X62802590Y-35359804D01*
X62517158Y-35339390D01*
X62517156Y-35339390D01*
X62231723Y-35359804D01*
X61952119Y-35420628D01*
X61683990Y-35520635D01*
X61432847Y-35657770D01*
X61432839Y-35657775D01*
X61203769Y-35829254D01*
X61203751Y-35829270D01*
X61001427Y-36031594D01*
X61001411Y-36031612D01*
X60829932Y-36260682D01*
X60829927Y-36260690D01*
X60692792Y-36511833D01*
X60592785Y-36779962D01*
X60531961Y-37059566D01*
X60511547Y-37344998D01*
X60511547Y-37345001D01*
X60531961Y-37630433D01*
X60592755Y-37909895D01*
X60592788Y-37910046D01*
X60603826Y-37939639D01*
X60645881Y-38052394D01*
X60650865Y-38122085D01*
X60617380Y-38183408D01*
X59586227Y-39214561D01*
X59524904Y-39248046D01*
X59455212Y-39243062D01*
X59399279Y-39201190D01*
X59374862Y-39135726D01*
X59382364Y-39083547D01*
X59431248Y-38952483D01*
X59437657Y-38892873D01*
X59437656Y-35797128D01*
X59431248Y-35737517D01*
X59401663Y-35658196D01*
X59380954Y-35602671D01*
X59380950Y-35602664D01*
X59294704Y-35487455D01*
X59294701Y-35487452D01*
X59179492Y-35401206D01*
X59179485Y-35401202D01*
X59044639Y-35350908D01*
X59044640Y-35350908D01*
X58985040Y-35344501D01*
X58985038Y-35344500D01*
X58985030Y-35344500D01*
X58985021Y-35344500D01*
X55889286Y-35344500D01*
X55889280Y-35344501D01*
X55829673Y-35350908D01*
X55694828Y-35401202D01*
X55694821Y-35401206D01*
X55579612Y-35487452D01*
X55579609Y-35487455D01*
X55493363Y-35602664D01*
X55493359Y-35602671D01*
X55443065Y-35737517D01*
X55436658Y-35797116D01*
X55436658Y-35797123D01*
X55436657Y-35797135D01*
X55436657Y-38892870D01*
X55436658Y-38892876D01*
X55443065Y-38952483D01*
X55493359Y-39087328D01*
X55493363Y-39087335D01*
X55579609Y-39202544D01*
X55579612Y-39202547D01*
X55694821Y-39288793D01*
X55694828Y-39288797D01*
X55829674Y-39339091D01*
X55829673Y-39339091D01*
X55836601Y-39339835D01*
X55889284Y-39345500D01*
X58985029Y-39345499D01*
X59044640Y-39339091D01*
X59175705Y-39290206D01*
X59245395Y-39285223D01*
X59306718Y-39318708D01*
X59340203Y-39380031D01*
X59335219Y-39449723D01*
X59306718Y-39494070D01*
X56587608Y-42213181D01*
X56526285Y-42246666D01*
X56499927Y-42249500D01*
X43645862Y-42249500D01*
X43627892Y-42248191D01*
X43604129Y-42244710D01*
X43557000Y-42248834D01*
X43554787Y-42249028D01*
X43543981Y-42249500D01*
X43538441Y-42249500D01*
X43507658Y-42253098D01*
X43504073Y-42253464D01*
X43429356Y-42260001D01*
X43422289Y-42261460D01*
X43422277Y-42261404D01*
X43414920Y-42263035D01*
X43414934Y-42263092D01*
X43407897Y-42264760D01*
X43337388Y-42290421D01*
X43334011Y-42291595D01*
X43295005Y-42304521D01*
X43262825Y-42315185D01*
X43256283Y-42318236D01*
X43256258Y-42318183D01*
X43249465Y-42321471D01*
X43249491Y-42321523D01*
X43243037Y-42324764D01*
X43180378Y-42365975D01*
X43177338Y-42367912D01*
X43113505Y-42407285D01*
X43107840Y-42411765D01*
X43107804Y-42411719D01*
X43101955Y-42416484D01*
X43101992Y-42416528D01*
X43096467Y-42421164D01*
X43044989Y-42475726D01*
X43042477Y-42478311D01*
X40039094Y-45481693D01*
X40003030Y-45504370D01*
X40003907Y-45506191D01*
X39997632Y-45509212D01*
X39844894Y-45605184D01*
X39717341Y-45732737D01*
X39621368Y-45885476D01*
X39561788Y-46055745D01*
X39561787Y-46055750D01*
X39541592Y-46234996D01*
X39541592Y-46235003D01*
X38250627Y-46235003D01*
X43398813Y-41086819D01*
X43460136Y-41053334D01*
X43486494Y-41050500D01*
X53082302Y-41050500D01*
X53148273Y-41069505D01*
X53277635Y-41150789D01*
X53447902Y-41210368D01*
X53447907Y-41210369D01*
X53627153Y-41230565D01*
X53627157Y-41230565D01*
X53627161Y-41230565D01*
X53806406Y-41210369D01*
X53806409Y-41210368D01*
X53806412Y-41210368D01*
X53976679Y-41150789D01*
X54129419Y-41054816D01*
X54256973Y-40927262D01*
X54352946Y-40774522D01*
X54412525Y-40604255D01*
X54432722Y-40425000D01*
X54412525Y-40245745D01*
X54352946Y-40075478D01*
X54256973Y-39922738D01*
X54129419Y-39795184D01*
X54106040Y-39780494D01*
X53976680Y-39699211D01*
X53806411Y-39639631D01*
X53806406Y-39639630D01*
X53627161Y-39619435D01*
X53627153Y-39619435D01*
X53447907Y-39639630D01*
X53447902Y-39639631D01*
X53277633Y-39699211D01*
X53148274Y-39780494D01*
X53082302Y-39799500D01*
X48511254Y-39799500D01*
X48444215Y-39779815D01*
X48398460Y-39727011D01*
X48388516Y-39657853D01*
X48417541Y-39594297D01*
X48423573Y-39587819D01*
X48722598Y-39288793D01*
X48826531Y-39184859D01*
X48887852Y-39151376D01*
X48957543Y-39156360D01*
X48973631Y-39163707D01*
X48983996Y-39169367D01*
X49252111Y-39269369D01*
X49252117Y-39269370D01*
X49252119Y-39269371D01*
X49531723Y-39330195D01*
X49531725Y-39330195D01*
X49531729Y-39330196D01*
X49785377Y-39348337D01*
X49817156Y-39350610D01*
X49817157Y-39350610D01*
X49817158Y-39350610D01*
X49845752Y-39348564D01*
X50102585Y-39330196D01*
X50117227Y-39327011D01*
X50382194Y-39269371D01*
X50382194Y-39269370D01*
X50382203Y-39269369D01*
X50650318Y-39169367D01*
X50901472Y-39032226D01*
X51130552Y-38860739D01*
X51332896Y-38658395D01*
X51504383Y-38429315D01*
X51641524Y-38178161D01*
X51741526Y-37910046D01*
X51802353Y-37630428D01*
X51822767Y-37345000D01*
X51802353Y-37059572D01*
X51798515Y-37041930D01*
X51741528Y-36779962D01*
X51741527Y-36779960D01*
X51741526Y-36779954D01*
X51641524Y-36511839D01*
X51504529Y-36260953D01*
X51504386Y-36260690D01*
X51504381Y-36260682D01*
X51332902Y-36031612D01*
X51332886Y-36031594D01*
X51130562Y-35829270D01*
X51130544Y-35829254D01*
X50901474Y-35657775D01*
X50901466Y-35657770D01*
X50650323Y-35520635D01*
X50650324Y-35520635D01*
X50543072Y-35480632D01*
X50382203Y-35420631D01*
X50382200Y-35420630D01*
X50382194Y-35420628D01*
X50102590Y-35359804D01*
X49817158Y-35339390D01*
X49817156Y-35339390D01*
X49531723Y-35359804D01*
X49252119Y-35420628D01*
X48983990Y-35520635D01*
X48732847Y-35657770D01*
X48732839Y-35657775D01*
X48503769Y-35829254D01*
X48503751Y-35829270D01*
X48301427Y-36031594D01*
X48301411Y-36031612D01*
X48129932Y-36260682D01*
X48129927Y-36260690D01*
X47992792Y-36511833D01*
X47892785Y-36779962D01*
X47831961Y-37059566D01*
X47811547Y-37344998D01*
X47811547Y-37345001D01*
X47831961Y-37630433D01*
X47892785Y-37910037D01*
X47892786Y-37910039D01*
X47892788Y-37910046D01*
X47992790Y-38178161D01*
X47992791Y-38178163D01*
X47998445Y-38188517D01*
X48013297Y-38256790D01*
X47988881Y-38322254D01*
X47977294Y-38335626D01*
X46949741Y-39363181D01*
X46888418Y-39396666D01*
X46862060Y-39399500D01*
X45634689Y-39399500D01*
X45567650Y-39379815D01*
X45521895Y-39327011D01*
X45511951Y-39257853D01*
X45540976Y-39194297D01*
X45575262Y-39166668D01*
X45747142Y-39072813D01*
X45821472Y-39032226D01*
X46050552Y-38860739D01*
X46252896Y-38658395D01*
X46424383Y-38429315D01*
X46561524Y-38178161D01*
X46661526Y-37910046D01*
X46722353Y-37630428D01*
X46742767Y-37345000D01*
X46722353Y-37059572D01*
X46718515Y-37041930D01*
X46661528Y-36779962D01*
X46661527Y-36779960D01*
X46661526Y-36779954D01*
X46561524Y-36511839D01*
X46424529Y-36260953D01*
X46424386Y-36260690D01*
X46424381Y-36260682D01*
X46252902Y-36031612D01*
X46252886Y-36031594D01*
X46050562Y-35829270D01*
X46050544Y-35829254D01*
X45821474Y-35657775D01*
X45821466Y-35657770D01*
X45570323Y-35520635D01*
X45570324Y-35520635D01*
X45463072Y-35480632D01*
X45302203Y-35420631D01*
X45302200Y-35420630D01*
X45302194Y-35420628D01*
X45022590Y-35359804D01*
X44737158Y-35339390D01*
X44737156Y-35339390D01*
X44451723Y-35359804D01*
X44172119Y-35420628D01*
X43903990Y-35520635D01*
X43652847Y-35657770D01*
X43652839Y-35657775D01*
X43423769Y-35829254D01*
X43423751Y-35829270D01*
X43221427Y-36031594D01*
X43221411Y-36031612D01*
X43049932Y-36260682D01*
X43049927Y-36260690D01*
X42912792Y-36511833D01*
X42812785Y-36779962D01*
X42751961Y-37059566D01*
X42731547Y-37344998D01*
X42731547Y-37345001D01*
X42751961Y-37630433D01*
X42804064Y-37869947D01*
X42799080Y-37939639D01*
X42770579Y-37983986D01*
X37123777Y-43630787D01*
X37062454Y-43664272D01*
X37049982Y-43666326D01*
X37002907Y-43671630D01*
X36832635Y-43731210D01*
X36679894Y-43827184D01*
X36552341Y-43954737D01*
X36456368Y-44107476D01*
X36396788Y-44277745D01*
X36396787Y-44277750D01*
X36376592Y-44456996D01*
X36376592Y-44457003D01*
X36396787Y-44636249D01*
X36396788Y-44636254D01*
X36456368Y-44806523D01*
X36515565Y-44900733D01*
X36552341Y-44959262D01*
X36679895Y-45086816D01*
X36784092Y-45152287D01*
X36830383Y-45204622D01*
X36841031Y-45273675D01*
X36812656Y-45337524D01*
X36805801Y-45344962D01*
X36713009Y-45437754D01*
X36651686Y-45471239D01*
X36584375Y-45467115D01*
X36534412Y-45449632D01*
X36534410Y-45449631D01*
X36534408Y-45449631D01*
X36534403Y-45449630D01*
X36355161Y-45429435D01*
X36355153Y-45429435D01*
X36175907Y-45449630D01*
X36175902Y-45449631D01*
X36005633Y-45509211D01*
X35852894Y-45605184D01*
X35725341Y-45732737D01*
X35629368Y-45885476D01*
X35569788Y-46055745D01*
X35569787Y-46055750D01*
X35549592Y-46234996D01*
X35549592Y-46235003D01*
X35569787Y-46414249D01*
X35569788Y-46414254D01*
X35629370Y-46584527D01*
X35630404Y-46586675D01*
X35630655Y-46588200D01*
X35631668Y-46591095D01*
X35631160Y-46591272D01*
X35641754Y-46655616D01*
X35614030Y-46719750D01*
X35559637Y-46757514D01*
X35497637Y-46779208D01*
X35344894Y-46875184D01*
X35217341Y-47002737D01*
X35121368Y-47155476D01*
X35061788Y-47325745D01*
X35061787Y-47325750D01*
X35041592Y-47504996D01*
X35041592Y-47505003D01*
X30377657Y-47505003D01*
X30377657Y-38892870D01*
X32576657Y-38892870D01*
X32576658Y-38892876D01*
X32583065Y-38952483D01*
X32633359Y-39087328D01*
X32633363Y-39087335D01*
X32719609Y-39202544D01*
X32719612Y-39202547D01*
X32834821Y-39288793D01*
X32834828Y-39288797D01*
X32969674Y-39339091D01*
X32969673Y-39339091D01*
X32976601Y-39339835D01*
X33029284Y-39345500D01*
X36125029Y-39345499D01*
X36184640Y-39339091D01*
X36319488Y-39288796D01*
X36434703Y-39202546D01*
X36520953Y-39087331D01*
X36571248Y-38952483D01*
X36577657Y-38892873D01*
X36577657Y-37345001D01*
X37652048Y-37345001D01*
X37672457Y-37630362D01*
X37733266Y-37909895D01*
X37833248Y-38177958D01*
X37970348Y-38429038D01*
X37970353Y-38429046D01*
X38077039Y-38571561D01*
X38077040Y-38571562D01*
X38972352Y-37676250D01*
X38994497Y-37727587D01*
X39100590Y-37870094D01*
X39236687Y-37984294D01*
X39326373Y-38029335D01*
X38430593Y-38925115D01*
X38573117Y-39031807D01*
X38573118Y-39031808D01*
X38824199Y-39168908D01*
X38824198Y-39168908D01*
X39092261Y-39268890D01*
X39371794Y-39329699D01*
X39657156Y-39350109D01*
X39657158Y-39350109D01*
X39942519Y-39329699D01*
X40222052Y-39268890D01*
X40490115Y-39168908D01*
X40741204Y-39031803D01*
X40883718Y-38925116D01*
X40883719Y-38925115D01*
X39990905Y-38032300D01*
X40000566Y-38028784D01*
X40149001Y-37931157D01*
X40270921Y-37801930D01*
X40342925Y-37677215D01*
X41237272Y-38571562D01*
X41237273Y-38571561D01*
X41343960Y-38429047D01*
X41481065Y-38177958D01*
X41581047Y-37909895D01*
X41641856Y-37630362D01*
X41662266Y-37345001D01*
X41662266Y-37344998D01*
X41641856Y-37059637D01*
X41581047Y-36780104D01*
X41481065Y-36512041D01*
X41343965Y-36260961D01*
X41343964Y-36260960D01*
X41237272Y-36118436D01*
X40341960Y-37013747D01*
X40319817Y-36962413D01*
X40213724Y-36819906D01*
X40077627Y-36705706D01*
X39987939Y-36660663D01*
X40883719Y-35764883D01*
X40883718Y-35764882D01*
X40741203Y-35658196D01*
X40741195Y-35658191D01*
X40490114Y-35521091D01*
X40490115Y-35521091D01*
X40222052Y-35421109D01*
X39942519Y-35360300D01*
X39657158Y-35339891D01*
X39657156Y-35339891D01*
X39371794Y-35360300D01*
X39092261Y-35421109D01*
X38824198Y-35521091D01*
X38573118Y-35658191D01*
X38573110Y-35658196D01*
X38430594Y-35764882D01*
X38430593Y-35764883D01*
X39323409Y-36657699D01*
X39313748Y-36661216D01*
X39165313Y-36758843D01*
X39043393Y-36888070D01*
X38971388Y-37012784D01*
X38077040Y-36118436D01*
X38077039Y-36118437D01*
X37970353Y-36260953D01*
X37970348Y-36260961D01*
X37833248Y-36512041D01*
X37733266Y-36780104D01*
X37672457Y-37059637D01*
X37652048Y-37344998D01*
X37652048Y-37345001D01*
X36577657Y-37345001D01*
X36577656Y-35797128D01*
X36571248Y-35737517D01*
X36541663Y-35658196D01*
X36520954Y-35602671D01*
X36520950Y-35602664D01*
X36434704Y-35487455D01*
X36434701Y-35487452D01*
X36319492Y-35401206D01*
X36319485Y-35401202D01*
X36184639Y-35350908D01*
X36184640Y-35350908D01*
X36125040Y-35344501D01*
X36125038Y-35344500D01*
X36125030Y-35344500D01*
X36125021Y-35344500D01*
X33029286Y-35344500D01*
X33029280Y-35344501D01*
X32969673Y-35350908D01*
X32834828Y-35401202D01*
X32834821Y-35401206D01*
X32719612Y-35487452D01*
X32719609Y-35487455D01*
X32633363Y-35602664D01*
X32633359Y-35602671D01*
X32583065Y-35737517D01*
X32576658Y-35797116D01*
X32576658Y-35797123D01*
X32576657Y-35797135D01*
X32576657Y-38892870D01*
X30377657Y-38892870D01*
X30377657Y-30819500D01*
X30397342Y-30752461D01*
X30450146Y-30706706D01*
X30501657Y-30695500D01*
X79262657Y-30695500D01*
X79329696Y-30715185D01*
G37*
G04 #@! TD.AperFunction*
M02*
