G04 #@! TF.GenerationSoftware,KiCad,Pcbnew,7.0.9*
G04 #@! TF.CreationDate,2023-12-29T07:36:20-06:00*
G04 #@! TF.ProjectId,Sabertoothv2,53616265-7274-46f6-9f74-6876322e6b69,rev?*
G04 #@! TF.SameCoordinates,Original*
G04 #@! TF.FileFunction,Legend,Top*
G04 #@! TF.FilePolarity,Positive*
%FSLAX46Y46*%
G04 Gerber Fmt 4.6, Leading zero omitted, Abs format (unit mm)*
G04 Created by KiCad (PCBNEW 7.0.9) date 2023-12-29 07:36:20*
%MOMM*%
%LPD*%
G01*
G04 APERTURE LIST*
G04 Aperture macros list*
%AMRoundRect*
0 Rectangle with rounded corners*
0 $1 Rounding radius*
0 $2 $3 $4 $5 $6 $7 $8 $9 X,Y pos of 4 corners*
0 Add a 4 corners polygon primitive as box body*
4,1,4,$2,$3,$4,$5,$6,$7,$8,$9,$2,$3,0*
0 Add four circle primitives for the rounded corners*
1,1,$1+$1,$2,$3*
1,1,$1+$1,$4,$5*
1,1,$1+$1,$6,$7*
1,1,$1+$1,$8,$9*
0 Add four rect primitives between the rounded corners*
20,1,$1+$1,$2,$3,$4,$5,0*
20,1,$1+$1,$4,$5,$6,$7,0*
20,1,$1+$1,$6,$7,$8,$9,0*
20,1,$1+$1,$8,$9,$2,$3,0*%
G04 Aperture macros list end*
%ADD10C,0.100000*%
%ADD11C,0.153000*%
%ADD12C,0.150000*%
%ADD13C,0.125000*%
%ADD14C,0.120000*%
%ADD15R,1.700000X1.700000*%
%ADD16O,1.700000X1.700000*%
%ADD17R,0.450000X0.300000*%
%ADD18RoundRect,0.237500X0.237500X-0.300000X0.237500X0.300000X-0.237500X0.300000X-0.237500X-0.300000X0*%
%ADD19RoundRect,0.243750X0.456250X-0.243750X0.456250X0.243750X-0.456250X0.243750X-0.456250X-0.243750X0*%
%ADD20RoundRect,0.150000X-0.150000X0.825000X-0.150000X-0.825000X0.150000X-0.825000X0.150000X0.825000X0*%
%ADD21R,3.000000X2.290000*%
%ADD22R,2.100000X2.100000*%
%ADD23C,2.100000*%
%ADD24R,3.810000X3.910000*%
%ADD25R,1.020000X0.610000*%
%ADD26R,1.270000X0.610000*%
%ADD27RoundRect,0.250000X0.450000X-0.350000X0.450000X0.350000X-0.450000X0.350000X-0.450000X-0.350000X0*%
%ADD28RoundRect,0.250000X-0.350000X-0.450000X0.350000X-0.450000X0.350000X0.450000X-0.350000X0.450000X0*%
%ADD29R,3.000000X3.000000*%
%ADD30C,3.000000*%
%ADD31RoundRect,0.250000X-0.450000X0.350000X-0.450000X-0.350000X0.450000X-0.350000X0.450000X0.350000X0*%
%ADD32RoundRect,0.237500X-0.237500X0.300000X-0.237500X-0.300000X0.237500X-0.300000X0.237500X0.300000X0*%
%ADD33RoundRect,0.150000X-0.825000X-0.150000X0.825000X-0.150000X0.825000X0.150000X-0.825000X0.150000X0*%
%ADD34R,2.290000X3.000000*%
G04 APERTURE END LIST*
D10*
X76226074Y-62977895D02*
X76321312Y-62977895D01*
X76321312Y-62977895D02*
X76368931Y-63015990D01*
X76368931Y-63015990D02*
X76416550Y-63092180D01*
X76416550Y-63092180D02*
X76440360Y-63244561D01*
X76440360Y-63244561D02*
X76440360Y-63511228D01*
X76440360Y-63511228D02*
X76416550Y-63663609D01*
X76416550Y-63663609D02*
X76368931Y-63739800D01*
X76368931Y-63739800D02*
X76321312Y-63777895D01*
X76321312Y-63777895D02*
X76226074Y-63777895D01*
X76226074Y-63777895D02*
X76178455Y-63739800D01*
X76178455Y-63739800D02*
X76130836Y-63663609D01*
X76130836Y-63663609D02*
X76107027Y-63511228D01*
X76107027Y-63511228D02*
X76107027Y-63244561D01*
X76107027Y-63244561D02*
X76130836Y-63092180D01*
X76130836Y-63092180D02*
X76178455Y-63015990D01*
X76178455Y-63015990D02*
X76226074Y-62977895D01*
X76654646Y-62977895D02*
X76654646Y-63625514D01*
X76654646Y-63625514D02*
X76678456Y-63701704D01*
X76678456Y-63701704D02*
X76702265Y-63739800D01*
X76702265Y-63739800D02*
X76749884Y-63777895D01*
X76749884Y-63777895D02*
X76845122Y-63777895D01*
X76845122Y-63777895D02*
X76892741Y-63739800D01*
X76892741Y-63739800D02*
X76916551Y-63701704D01*
X76916551Y-63701704D02*
X76940360Y-63625514D01*
X76940360Y-63625514D02*
X76940360Y-62977895D01*
X77107028Y-62977895D02*
X77392742Y-62977895D01*
X77249885Y-63777895D02*
X77249885Y-62977895D01*
X81448931Y-21486895D02*
X81210836Y-21486895D01*
X81210836Y-21486895D02*
X81210836Y-20686895D01*
X81710836Y-20686895D02*
X81806074Y-20686895D01*
X81806074Y-20686895D02*
X81853693Y-20724990D01*
X81853693Y-20724990D02*
X81901312Y-20801180D01*
X81901312Y-20801180D02*
X81925122Y-20953561D01*
X81925122Y-20953561D02*
X81925122Y-21220228D01*
X81925122Y-21220228D02*
X81901312Y-21372609D01*
X81901312Y-21372609D02*
X81853693Y-21448800D01*
X81853693Y-21448800D02*
X81806074Y-21486895D01*
X81806074Y-21486895D02*
X81710836Y-21486895D01*
X81710836Y-21486895D02*
X81663217Y-21448800D01*
X81663217Y-21448800D02*
X81615598Y-21372609D01*
X81615598Y-21372609D02*
X81591789Y-21220228D01*
X81591789Y-21220228D02*
X81591789Y-20953561D01*
X81591789Y-20953561D02*
X81615598Y-20801180D01*
X81615598Y-20801180D02*
X81663217Y-20724990D01*
X81663217Y-20724990D02*
X81710836Y-20686895D01*
X82115599Y-21258323D02*
X82353694Y-21258323D01*
X82067980Y-21486895D02*
X82234646Y-20686895D01*
X82234646Y-20686895D02*
X82401313Y-21486895D01*
X82567979Y-21486895D02*
X82567979Y-20686895D01*
X82567979Y-20686895D02*
X82687027Y-20686895D01*
X82687027Y-20686895D02*
X82758455Y-20724990D01*
X82758455Y-20724990D02*
X82806074Y-20801180D01*
X82806074Y-20801180D02*
X82829884Y-20877371D01*
X82829884Y-20877371D02*
X82853693Y-21029752D01*
X82853693Y-21029752D02*
X82853693Y-21144038D01*
X82853693Y-21144038D02*
X82829884Y-21296419D01*
X82829884Y-21296419D02*
X82806074Y-21372609D01*
X82806074Y-21372609D02*
X82758455Y-21448800D01*
X82758455Y-21448800D02*
X82687027Y-21486895D01*
X82687027Y-21486895D02*
X82567979Y-21486895D01*
X83329884Y-21486895D02*
X83044170Y-21486895D01*
X83187027Y-21486895D02*
X83187027Y-20686895D01*
X83187027Y-20686895D02*
X83139408Y-20801180D01*
X83139408Y-20801180D02*
X83091789Y-20877371D01*
X83091789Y-20877371D02*
X83044170Y-20915466D01*
X66986836Y-63777895D02*
X66986836Y-62977895D01*
X66986836Y-63358847D02*
X67272550Y-63358847D01*
X67272550Y-63777895D02*
X67272550Y-62977895D01*
X67605884Y-62977895D02*
X67701122Y-62977895D01*
X67701122Y-62977895D02*
X67748741Y-63015990D01*
X67748741Y-63015990D02*
X67796360Y-63092180D01*
X67796360Y-63092180D02*
X67820170Y-63244561D01*
X67820170Y-63244561D02*
X67820170Y-63511228D01*
X67820170Y-63511228D02*
X67796360Y-63663609D01*
X67796360Y-63663609D02*
X67748741Y-63739800D01*
X67748741Y-63739800D02*
X67701122Y-63777895D01*
X67701122Y-63777895D02*
X67605884Y-63777895D01*
X67605884Y-63777895D02*
X67558265Y-63739800D01*
X67558265Y-63739800D02*
X67510646Y-63663609D01*
X67510646Y-63663609D02*
X67486837Y-63511228D01*
X67486837Y-63511228D02*
X67486837Y-63244561D01*
X67486837Y-63244561D02*
X67510646Y-63092180D01*
X67510646Y-63092180D02*
X67558265Y-63015990D01*
X67558265Y-63015990D02*
X67605884Y-62977895D01*
X68010647Y-63549323D02*
X68248742Y-63549323D01*
X67963028Y-63777895D02*
X68129694Y-62977895D01*
X68129694Y-62977895D02*
X68296361Y-63777895D01*
X53738408Y-21321895D02*
X53905074Y-22121895D01*
X53905074Y-22121895D02*
X54071741Y-21321895D01*
X54524121Y-22045704D02*
X54500312Y-22083800D01*
X54500312Y-22083800D02*
X54428883Y-22121895D01*
X54428883Y-22121895D02*
X54381264Y-22121895D01*
X54381264Y-22121895D02*
X54309836Y-22083800D01*
X54309836Y-22083800D02*
X54262217Y-22007609D01*
X54262217Y-22007609D02*
X54238407Y-21931419D01*
X54238407Y-21931419D02*
X54214598Y-21779038D01*
X54214598Y-21779038D02*
X54214598Y-21664752D01*
X54214598Y-21664752D02*
X54238407Y-21512371D01*
X54238407Y-21512371D02*
X54262217Y-21436180D01*
X54262217Y-21436180D02*
X54309836Y-21359990D01*
X54309836Y-21359990D02*
X54381264Y-21321895D01*
X54381264Y-21321895D02*
X54428883Y-21321895D01*
X54428883Y-21321895D02*
X54500312Y-21359990D01*
X54500312Y-21359990D02*
X54524121Y-21398085D01*
X55024121Y-22045704D02*
X55000312Y-22083800D01*
X55000312Y-22083800D02*
X54928883Y-22121895D01*
X54928883Y-22121895D02*
X54881264Y-22121895D01*
X54881264Y-22121895D02*
X54809836Y-22083800D01*
X54809836Y-22083800D02*
X54762217Y-22007609D01*
X54762217Y-22007609D02*
X54738407Y-21931419D01*
X54738407Y-21931419D02*
X54714598Y-21779038D01*
X54714598Y-21779038D02*
X54714598Y-21664752D01*
X54714598Y-21664752D02*
X54738407Y-21512371D01*
X54738407Y-21512371D02*
X54762217Y-21436180D01*
X54762217Y-21436180D02*
X54809836Y-21359990D01*
X54809836Y-21359990D02*
X54881264Y-21321895D01*
X54881264Y-21321895D02*
X54928883Y-21321895D01*
X54928883Y-21321895D02*
X55000312Y-21359990D01*
X55000312Y-21359990D02*
X55024121Y-21398085D01*
X55238407Y-21817133D02*
X55619360Y-21817133D01*
X55428883Y-22121895D02*
X55428883Y-21512371D01*
X56095550Y-21321895D02*
X55857455Y-21321895D01*
X55857455Y-21321895D02*
X55833646Y-21702847D01*
X55833646Y-21702847D02*
X55857455Y-21664752D01*
X55857455Y-21664752D02*
X55905074Y-21626657D01*
X55905074Y-21626657D02*
X56024122Y-21626657D01*
X56024122Y-21626657D02*
X56071741Y-21664752D01*
X56071741Y-21664752D02*
X56095550Y-21702847D01*
X56095550Y-21702847D02*
X56119360Y-21779038D01*
X56119360Y-21779038D02*
X56119360Y-21969514D01*
X56119360Y-21969514D02*
X56095550Y-22045704D01*
X56095550Y-22045704D02*
X56071741Y-22083800D01*
X56071741Y-22083800D02*
X56024122Y-22121895D01*
X56024122Y-22121895D02*
X55905074Y-22121895D01*
X55905074Y-22121895D02*
X55857455Y-22083800D01*
X55857455Y-22083800D02*
X55833646Y-22045704D01*
X95400990Y-51242258D02*
X95362895Y-51289877D01*
X95362895Y-51289877D02*
X95362895Y-51361306D01*
X95362895Y-51361306D02*
X95400990Y-51432734D01*
X95400990Y-51432734D02*
X95477180Y-51480353D01*
X95477180Y-51480353D02*
X95553371Y-51504163D01*
X95553371Y-51504163D02*
X95705752Y-51527972D01*
X95705752Y-51527972D02*
X95820038Y-51527972D01*
X95820038Y-51527972D02*
X95972419Y-51504163D01*
X95972419Y-51504163D02*
X96048609Y-51480353D01*
X96048609Y-51480353D02*
X96124800Y-51432734D01*
X96124800Y-51432734D02*
X96162895Y-51361306D01*
X96162895Y-51361306D02*
X96162895Y-51313687D01*
X96162895Y-51313687D02*
X96124800Y-51242258D01*
X96124800Y-51242258D02*
X96086704Y-51218449D01*
X96086704Y-51218449D02*
X95820038Y-51218449D01*
X95820038Y-51218449D02*
X95820038Y-51313687D01*
X96162895Y-51004163D02*
X95362895Y-51004163D01*
X95362895Y-51004163D02*
X96162895Y-50718449D01*
X96162895Y-50718449D02*
X95362895Y-50718449D01*
X96162895Y-50480353D02*
X95362895Y-50480353D01*
X95362895Y-50480353D02*
X95362895Y-50361305D01*
X95362895Y-50361305D02*
X95400990Y-50289877D01*
X95400990Y-50289877D02*
X95477180Y-50242258D01*
X95477180Y-50242258D02*
X95553371Y-50218448D01*
X95553371Y-50218448D02*
X95705752Y-50194639D01*
X95705752Y-50194639D02*
X95820038Y-50194639D01*
X95820038Y-50194639D02*
X95972419Y-50218448D01*
X95972419Y-50218448D02*
X96048609Y-50242258D01*
X96048609Y-50242258D02*
X96124800Y-50289877D01*
X96124800Y-50289877D02*
X96162895Y-50361305D01*
X96162895Y-50361305D02*
X96162895Y-50480353D01*
X70979408Y-20686895D02*
X71146074Y-21486895D01*
X71146074Y-21486895D02*
X71312741Y-20686895D01*
X71479407Y-21486895D02*
X71479407Y-20686895D01*
X71717502Y-21486895D02*
X71717502Y-20686895D01*
X71717502Y-20686895D02*
X72003216Y-21486895D01*
X72003216Y-21486895D02*
X72003216Y-20686895D01*
X59581027Y-22083800D02*
X59652455Y-22121895D01*
X59652455Y-22121895D02*
X59771503Y-22121895D01*
X59771503Y-22121895D02*
X59819122Y-22083800D01*
X59819122Y-22083800D02*
X59842931Y-22045704D01*
X59842931Y-22045704D02*
X59866741Y-21969514D01*
X59866741Y-21969514D02*
X59866741Y-21893323D01*
X59866741Y-21893323D02*
X59842931Y-21817133D01*
X59842931Y-21817133D02*
X59819122Y-21779038D01*
X59819122Y-21779038D02*
X59771503Y-21740942D01*
X59771503Y-21740942D02*
X59676265Y-21702847D01*
X59676265Y-21702847D02*
X59628646Y-21664752D01*
X59628646Y-21664752D02*
X59604836Y-21626657D01*
X59604836Y-21626657D02*
X59581027Y-21550466D01*
X59581027Y-21550466D02*
X59581027Y-21474276D01*
X59581027Y-21474276D02*
X59604836Y-21398085D01*
X59604836Y-21398085D02*
X59628646Y-21359990D01*
X59628646Y-21359990D02*
X59676265Y-21321895D01*
X59676265Y-21321895D02*
X59795312Y-21321895D01*
X59795312Y-21321895D02*
X59866741Y-21359990D01*
X60081026Y-21702847D02*
X60247693Y-21702847D01*
X60319121Y-22121895D02*
X60081026Y-22121895D01*
X60081026Y-22121895D02*
X60081026Y-21321895D01*
X60081026Y-21321895D02*
X60319121Y-21321895D01*
X60771502Y-22121895D02*
X60533407Y-22121895D01*
X60533407Y-22121895D02*
X60533407Y-21321895D01*
X60938169Y-21702847D02*
X61104836Y-21702847D01*
X61176264Y-22121895D02*
X60938169Y-22121895D01*
X60938169Y-22121895D02*
X60938169Y-21321895D01*
X60938169Y-21321895D02*
X61176264Y-21321895D01*
X61676264Y-22045704D02*
X61652455Y-22083800D01*
X61652455Y-22083800D02*
X61581026Y-22121895D01*
X61581026Y-22121895D02*
X61533407Y-22121895D01*
X61533407Y-22121895D02*
X61461979Y-22083800D01*
X61461979Y-22083800D02*
X61414360Y-22007609D01*
X61414360Y-22007609D02*
X61390550Y-21931419D01*
X61390550Y-21931419D02*
X61366741Y-21779038D01*
X61366741Y-21779038D02*
X61366741Y-21664752D01*
X61366741Y-21664752D02*
X61390550Y-21512371D01*
X61390550Y-21512371D02*
X61414360Y-21436180D01*
X61414360Y-21436180D02*
X61461979Y-21359990D01*
X61461979Y-21359990D02*
X61533407Y-21321895D01*
X61533407Y-21321895D02*
X61581026Y-21321895D01*
X61581026Y-21321895D02*
X61652455Y-21359990D01*
X61652455Y-21359990D02*
X61676264Y-21398085D01*
X61819122Y-21321895D02*
X62104836Y-21321895D01*
X61961979Y-22121895D02*
X61961979Y-21321895D01*
X86528931Y-21486895D02*
X86290836Y-21486895D01*
X86290836Y-21486895D02*
X86290836Y-20686895D01*
X86790836Y-20686895D02*
X86886074Y-20686895D01*
X86886074Y-20686895D02*
X86933693Y-20724990D01*
X86933693Y-20724990D02*
X86981312Y-20801180D01*
X86981312Y-20801180D02*
X87005122Y-20953561D01*
X87005122Y-20953561D02*
X87005122Y-21220228D01*
X87005122Y-21220228D02*
X86981312Y-21372609D01*
X86981312Y-21372609D02*
X86933693Y-21448800D01*
X86933693Y-21448800D02*
X86886074Y-21486895D01*
X86886074Y-21486895D02*
X86790836Y-21486895D01*
X86790836Y-21486895D02*
X86743217Y-21448800D01*
X86743217Y-21448800D02*
X86695598Y-21372609D01*
X86695598Y-21372609D02*
X86671789Y-21220228D01*
X86671789Y-21220228D02*
X86671789Y-20953561D01*
X86671789Y-20953561D02*
X86695598Y-20801180D01*
X86695598Y-20801180D02*
X86743217Y-20724990D01*
X86743217Y-20724990D02*
X86790836Y-20686895D01*
X87195599Y-21258323D02*
X87433694Y-21258323D01*
X87147980Y-21486895D02*
X87314646Y-20686895D01*
X87314646Y-20686895D02*
X87481313Y-21486895D01*
X87647979Y-21486895D02*
X87647979Y-20686895D01*
X87647979Y-20686895D02*
X87767027Y-20686895D01*
X87767027Y-20686895D02*
X87838455Y-20724990D01*
X87838455Y-20724990D02*
X87886074Y-20801180D01*
X87886074Y-20801180D02*
X87909884Y-20877371D01*
X87909884Y-20877371D02*
X87933693Y-21029752D01*
X87933693Y-21029752D02*
X87933693Y-21144038D01*
X87933693Y-21144038D02*
X87909884Y-21296419D01*
X87909884Y-21296419D02*
X87886074Y-21372609D01*
X87886074Y-21372609D02*
X87838455Y-21448800D01*
X87838455Y-21448800D02*
X87767027Y-21486895D01*
X87767027Y-21486895D02*
X87647979Y-21486895D01*
X88124170Y-20763085D02*
X88147979Y-20724990D01*
X88147979Y-20724990D02*
X88195598Y-20686895D01*
X88195598Y-20686895D02*
X88314646Y-20686895D01*
X88314646Y-20686895D02*
X88362265Y-20724990D01*
X88362265Y-20724990D02*
X88386074Y-20763085D01*
X88386074Y-20763085D02*
X88409884Y-20839276D01*
X88409884Y-20839276D02*
X88409884Y-20915466D01*
X88409884Y-20915466D02*
X88386074Y-21029752D01*
X88386074Y-21029752D02*
X88100360Y-21486895D01*
X88100360Y-21486895D02*
X88409884Y-21486895D01*
X96124800Y-56627020D02*
X96162895Y-56569877D01*
X96162895Y-56569877D02*
X96162895Y-56474639D01*
X96162895Y-56474639D02*
X96124800Y-56436544D01*
X96124800Y-56436544D02*
X96086704Y-56417496D01*
X96086704Y-56417496D02*
X96010514Y-56398449D01*
X96010514Y-56398449D02*
X95934323Y-56398449D01*
X95934323Y-56398449D02*
X95858133Y-56417496D01*
X95858133Y-56417496D02*
X95820038Y-56436544D01*
X95820038Y-56436544D02*
X95781942Y-56474639D01*
X95781942Y-56474639D02*
X95743847Y-56550830D01*
X95743847Y-56550830D02*
X95705752Y-56588925D01*
X95705752Y-56588925D02*
X95667657Y-56607972D01*
X95667657Y-56607972D02*
X95591466Y-56627020D01*
X95591466Y-56627020D02*
X95515276Y-56627020D01*
X95515276Y-56627020D02*
X95439085Y-56607972D01*
X95439085Y-56607972D02*
X95400990Y-56588925D01*
X95400990Y-56588925D02*
X95362895Y-56550830D01*
X95362895Y-56550830D02*
X95362895Y-56455591D01*
X95362895Y-56455591D02*
X95400990Y-56398449D01*
X95743847Y-56227020D02*
X95743847Y-56093687D01*
X96162895Y-56036544D02*
X96162895Y-56227020D01*
X96162895Y-56227020D02*
X95362895Y-56227020D01*
X95362895Y-56227020D02*
X95362895Y-56036544D01*
X96162895Y-55674639D02*
X96162895Y-55865115D01*
X96162895Y-55865115D02*
X95362895Y-55865115D01*
X95743847Y-55541305D02*
X95743847Y-55407972D01*
X96162895Y-55350829D02*
X96162895Y-55541305D01*
X96162895Y-55541305D02*
X95362895Y-55541305D01*
X95362895Y-55541305D02*
X95362895Y-55350829D01*
X96086704Y-54950829D02*
X96124800Y-54969877D01*
X96124800Y-54969877D02*
X96162895Y-55027019D01*
X96162895Y-55027019D02*
X96162895Y-55065115D01*
X96162895Y-55065115D02*
X96124800Y-55122258D01*
X96124800Y-55122258D02*
X96048609Y-55160353D01*
X96048609Y-55160353D02*
X95972419Y-55179400D01*
X95972419Y-55179400D02*
X95820038Y-55198448D01*
X95820038Y-55198448D02*
X95705752Y-55198448D01*
X95705752Y-55198448D02*
X95553371Y-55179400D01*
X95553371Y-55179400D02*
X95477180Y-55160353D01*
X95477180Y-55160353D02*
X95400990Y-55122258D01*
X95400990Y-55122258D02*
X95362895Y-55065115D01*
X95362895Y-55065115D02*
X95362895Y-55027019D01*
X95362895Y-55027019D02*
X95400990Y-54969877D01*
X95400990Y-54969877D02*
X95439085Y-54950829D01*
X95362895Y-54836543D02*
X95362895Y-54607972D01*
X96162895Y-54722258D02*
X95362895Y-54722258D01*
X87018895Y-51377163D02*
X86218895Y-51377163D01*
X86599847Y-51377163D02*
X86599847Y-51091449D01*
X87018895Y-51091449D02*
X86218895Y-51091449D01*
X86218895Y-50758115D02*
X86218895Y-50662877D01*
X86218895Y-50662877D02*
X86256990Y-50615258D01*
X86256990Y-50615258D02*
X86333180Y-50567639D01*
X86333180Y-50567639D02*
X86485561Y-50543829D01*
X86485561Y-50543829D02*
X86752228Y-50543829D01*
X86752228Y-50543829D02*
X86904609Y-50567639D01*
X86904609Y-50567639D02*
X86980800Y-50615258D01*
X86980800Y-50615258D02*
X87018895Y-50662877D01*
X87018895Y-50662877D02*
X87018895Y-50758115D01*
X87018895Y-50758115D02*
X86980800Y-50805734D01*
X86980800Y-50805734D02*
X86904609Y-50853353D01*
X86904609Y-50853353D02*
X86752228Y-50877162D01*
X86752228Y-50877162D02*
X86485561Y-50877162D01*
X86485561Y-50877162D02*
X86333180Y-50853353D01*
X86333180Y-50853353D02*
X86256990Y-50805734D01*
X86256990Y-50805734D02*
X86218895Y-50758115D01*
X86790323Y-50353352D02*
X86790323Y-50115257D01*
X87018895Y-50400971D02*
X86218895Y-50234305D01*
X86218895Y-50234305D02*
X87018895Y-50067638D01*
X87018895Y-56711163D02*
X86218895Y-56711163D01*
X86599847Y-56711163D02*
X86599847Y-56425449D01*
X87018895Y-56425449D02*
X86218895Y-56425449D01*
X86218895Y-56092115D02*
X86218895Y-55996877D01*
X86218895Y-55996877D02*
X86256990Y-55949258D01*
X86256990Y-55949258D02*
X86333180Y-55901639D01*
X86333180Y-55901639D02*
X86485561Y-55877829D01*
X86485561Y-55877829D02*
X86752228Y-55877829D01*
X86752228Y-55877829D02*
X86904609Y-55901639D01*
X86904609Y-55901639D02*
X86980800Y-55949258D01*
X86980800Y-55949258D02*
X87018895Y-55996877D01*
X87018895Y-55996877D02*
X87018895Y-56092115D01*
X87018895Y-56092115D02*
X86980800Y-56139734D01*
X86980800Y-56139734D02*
X86904609Y-56187353D01*
X86904609Y-56187353D02*
X86752228Y-56211162D01*
X86752228Y-56211162D02*
X86485561Y-56211162D01*
X86485561Y-56211162D02*
X86333180Y-56187353D01*
X86333180Y-56187353D02*
X86256990Y-56139734D01*
X86256990Y-56139734D02*
X86218895Y-56092115D01*
X86599847Y-55496876D02*
X86637942Y-55425448D01*
X86637942Y-55425448D02*
X86676038Y-55401638D01*
X86676038Y-55401638D02*
X86752228Y-55377829D01*
X86752228Y-55377829D02*
X86866514Y-55377829D01*
X86866514Y-55377829D02*
X86942704Y-55401638D01*
X86942704Y-55401638D02*
X86980800Y-55425448D01*
X86980800Y-55425448D02*
X87018895Y-55473067D01*
X87018895Y-55473067D02*
X87018895Y-55663543D01*
X87018895Y-55663543D02*
X86218895Y-55663543D01*
X86218895Y-55663543D02*
X86218895Y-55496876D01*
X86218895Y-55496876D02*
X86256990Y-55449257D01*
X86256990Y-55449257D02*
X86295085Y-55425448D01*
X86295085Y-55425448D02*
X86371276Y-55401638D01*
X86371276Y-55401638D02*
X86447466Y-55401638D01*
X86447466Y-55401638D02*
X86523657Y-55425448D01*
X86523657Y-55425448D02*
X86561752Y-55449257D01*
X86561752Y-55449257D02*
X86599847Y-55496876D01*
X86599847Y-55496876D02*
X86599847Y-55663543D01*
X87018895Y-59013068D02*
X87018895Y-59251163D01*
X87018895Y-59251163D02*
X86218895Y-59251163D01*
X86218895Y-58751163D02*
X86218895Y-58655925D01*
X86218895Y-58655925D02*
X86256990Y-58608306D01*
X86256990Y-58608306D02*
X86333180Y-58560687D01*
X86333180Y-58560687D02*
X86485561Y-58536877D01*
X86485561Y-58536877D02*
X86752228Y-58536877D01*
X86752228Y-58536877D02*
X86904609Y-58560687D01*
X86904609Y-58560687D02*
X86980800Y-58608306D01*
X86980800Y-58608306D02*
X87018895Y-58655925D01*
X87018895Y-58655925D02*
X87018895Y-58751163D01*
X87018895Y-58751163D02*
X86980800Y-58798782D01*
X86980800Y-58798782D02*
X86904609Y-58846401D01*
X86904609Y-58846401D02*
X86752228Y-58870210D01*
X86752228Y-58870210D02*
X86485561Y-58870210D01*
X86485561Y-58870210D02*
X86333180Y-58846401D01*
X86333180Y-58846401D02*
X86256990Y-58798782D01*
X86256990Y-58798782D02*
X86218895Y-58751163D01*
X86599847Y-58155924D02*
X86637942Y-58084496D01*
X86637942Y-58084496D02*
X86676038Y-58060686D01*
X86676038Y-58060686D02*
X86752228Y-58036877D01*
X86752228Y-58036877D02*
X86866514Y-58036877D01*
X86866514Y-58036877D02*
X86942704Y-58060686D01*
X86942704Y-58060686D02*
X86980800Y-58084496D01*
X86980800Y-58084496D02*
X87018895Y-58132115D01*
X87018895Y-58132115D02*
X87018895Y-58322591D01*
X87018895Y-58322591D02*
X86218895Y-58322591D01*
X86218895Y-58322591D02*
X86218895Y-58155924D01*
X86218895Y-58155924D02*
X86256990Y-58108305D01*
X86256990Y-58108305D02*
X86295085Y-58084496D01*
X86295085Y-58084496D02*
X86371276Y-58060686D01*
X86371276Y-58060686D02*
X86447466Y-58060686D01*
X86447466Y-58060686D02*
X86523657Y-58084496D01*
X86523657Y-58084496D02*
X86561752Y-58108305D01*
X86561752Y-58108305D02*
X86599847Y-58155924D01*
X86599847Y-58155924D02*
X86599847Y-58322591D01*
X62780074Y-21321895D02*
X62875312Y-21321895D01*
X62875312Y-21321895D02*
X62922931Y-21359990D01*
X62922931Y-21359990D02*
X62970550Y-21436180D01*
X62970550Y-21436180D02*
X62994360Y-21588561D01*
X62994360Y-21588561D02*
X62994360Y-21855228D01*
X62994360Y-21855228D02*
X62970550Y-22007609D01*
X62970550Y-22007609D02*
X62922931Y-22083800D01*
X62922931Y-22083800D02*
X62875312Y-22121895D01*
X62875312Y-22121895D02*
X62780074Y-22121895D01*
X62780074Y-22121895D02*
X62732455Y-22083800D01*
X62732455Y-22083800D02*
X62684836Y-22007609D01*
X62684836Y-22007609D02*
X62661027Y-21855228D01*
X62661027Y-21855228D02*
X62661027Y-21588561D01*
X62661027Y-21588561D02*
X62684836Y-21436180D01*
X62684836Y-21436180D02*
X62732455Y-21359990D01*
X62732455Y-21359990D02*
X62780074Y-21321895D01*
X63208646Y-21321895D02*
X63208646Y-21969514D01*
X63208646Y-21969514D02*
X63232456Y-22045704D01*
X63232456Y-22045704D02*
X63256265Y-22083800D01*
X63256265Y-22083800D02*
X63303884Y-22121895D01*
X63303884Y-22121895D02*
X63399122Y-22121895D01*
X63399122Y-22121895D02*
X63446741Y-22083800D01*
X63446741Y-22083800D02*
X63470551Y-22045704D01*
X63470551Y-22045704D02*
X63494360Y-21969514D01*
X63494360Y-21969514D02*
X63494360Y-21321895D01*
X63661028Y-21321895D02*
X63946742Y-21321895D01*
X63803885Y-22121895D02*
X63803885Y-21321895D01*
D11*
X93939663Y-33021247D02*
X92939663Y-33021247D01*
X93939663Y-31973629D02*
X93463472Y-32306962D01*
X93939663Y-32545057D02*
X92939663Y-32545057D01*
X92939663Y-32545057D02*
X92939663Y-32164105D01*
X92939663Y-32164105D02*
X92987282Y-32068867D01*
X92987282Y-32068867D02*
X93034901Y-32021248D01*
X93034901Y-32021248D02*
X93130139Y-31973629D01*
X93130139Y-31973629D02*
X93272996Y-31973629D01*
X93272996Y-31973629D02*
X93368234Y-32021248D01*
X93368234Y-32021248D02*
X93415853Y-32068867D01*
X93415853Y-32068867D02*
X93463472Y-32164105D01*
X93463472Y-32164105D02*
X93463472Y-32545057D01*
X93939663Y-31545057D02*
X92939663Y-31545057D01*
X93892044Y-31116486D02*
X93939663Y-30973629D01*
X93939663Y-30973629D02*
X93939663Y-30735534D01*
X93939663Y-30735534D02*
X93892044Y-30640296D01*
X93892044Y-30640296D02*
X93844424Y-30592677D01*
X93844424Y-30592677D02*
X93749186Y-30545058D01*
X93749186Y-30545058D02*
X93653948Y-30545058D01*
X93653948Y-30545058D02*
X93558710Y-30592677D01*
X93558710Y-30592677D02*
X93511091Y-30640296D01*
X93511091Y-30640296D02*
X93463472Y-30735534D01*
X93463472Y-30735534D02*
X93415853Y-30926010D01*
X93415853Y-30926010D02*
X93368234Y-31021248D01*
X93368234Y-31021248D02*
X93320615Y-31068867D01*
X93320615Y-31068867D02*
X93225377Y-31116486D01*
X93225377Y-31116486D02*
X93130139Y-31116486D01*
X93130139Y-31116486D02*
X93034901Y-31068867D01*
X93034901Y-31068867D02*
X92987282Y-31021248D01*
X92987282Y-31021248D02*
X92939663Y-30926010D01*
X92939663Y-30926010D02*
X92939663Y-30687915D01*
X92939663Y-30687915D02*
X92987282Y-30545058D01*
X93558710Y-30116486D02*
X93558710Y-29354582D01*
X92939663Y-28973629D02*
X93939663Y-28306963D01*
X92939663Y-28306963D02*
X93939663Y-28973629D01*
X93939663Y-27926010D02*
X92939663Y-27926010D01*
X92939663Y-27592677D02*
X93939663Y-27259344D01*
X93939663Y-27259344D02*
X92939663Y-26926011D01*
X95502044Y-33068866D02*
X95549663Y-32926009D01*
X95549663Y-32926009D02*
X95549663Y-32687914D01*
X95549663Y-32687914D02*
X95502044Y-32592676D01*
X95502044Y-32592676D02*
X95454424Y-32545057D01*
X95454424Y-32545057D02*
X95359186Y-32497438D01*
X95359186Y-32497438D02*
X95263948Y-32497438D01*
X95263948Y-32497438D02*
X95168710Y-32545057D01*
X95168710Y-32545057D02*
X95121091Y-32592676D01*
X95121091Y-32592676D02*
X95073472Y-32687914D01*
X95073472Y-32687914D02*
X95025853Y-32878390D01*
X95025853Y-32878390D02*
X94978234Y-32973628D01*
X94978234Y-32973628D02*
X94930615Y-33021247D01*
X94930615Y-33021247D02*
X94835377Y-33068866D01*
X94835377Y-33068866D02*
X94740139Y-33068866D01*
X94740139Y-33068866D02*
X94644901Y-33021247D01*
X94644901Y-33021247D02*
X94597282Y-32973628D01*
X94597282Y-32973628D02*
X94549663Y-32878390D01*
X94549663Y-32878390D02*
X94549663Y-32640295D01*
X94549663Y-32640295D02*
X94597282Y-32497438D01*
X95263948Y-32116485D02*
X95263948Y-31640295D01*
X95549663Y-32211723D02*
X94549663Y-31878390D01*
X94549663Y-31878390D02*
X95549663Y-31545057D01*
X95549663Y-31211723D02*
X94549663Y-31211723D01*
X95025853Y-31211723D02*
X95025853Y-30640295D01*
X95549663Y-30640295D02*
X94549663Y-30640295D01*
X94549663Y-29545056D02*
X95549663Y-29211723D01*
X95549663Y-29211723D02*
X94549663Y-28878390D01*
X95502044Y-28164104D02*
X95549663Y-28259342D01*
X95549663Y-28259342D02*
X95549663Y-28449818D01*
X95549663Y-28449818D02*
X95502044Y-28545056D01*
X95502044Y-28545056D02*
X95406805Y-28592675D01*
X95406805Y-28592675D02*
X95025853Y-28592675D01*
X95025853Y-28592675D02*
X94930615Y-28545056D01*
X94930615Y-28545056D02*
X94882996Y-28449818D01*
X94882996Y-28449818D02*
X94882996Y-28259342D01*
X94882996Y-28259342D02*
X94930615Y-28164104D01*
X94930615Y-28164104D02*
X95025853Y-28116485D01*
X95025853Y-28116485D02*
X95121091Y-28116485D01*
X95121091Y-28116485D02*
X95216329Y-28592675D01*
X95549663Y-27687913D02*
X94882996Y-27687913D01*
X95073472Y-27687913D02*
X94978234Y-27640294D01*
X94978234Y-27640294D02*
X94930615Y-27592675D01*
X94930615Y-27592675D02*
X94882996Y-27497437D01*
X94882996Y-27497437D02*
X94882996Y-27402199D01*
X95454424Y-27068865D02*
X95502044Y-27021246D01*
X95502044Y-27021246D02*
X95549663Y-27068865D01*
X95549663Y-27068865D02*
X95502044Y-27116484D01*
X95502044Y-27116484D02*
X95454424Y-27068865D01*
X95454424Y-27068865D02*
X95549663Y-27068865D01*
X94644901Y-26640294D02*
X94597282Y-26592675D01*
X94597282Y-26592675D02*
X94549663Y-26497437D01*
X94549663Y-26497437D02*
X94549663Y-26259342D01*
X94549663Y-26259342D02*
X94597282Y-26164104D01*
X94597282Y-26164104D02*
X94644901Y-26116485D01*
X94644901Y-26116485D02*
X94740139Y-26068866D01*
X94740139Y-26068866D02*
X94835377Y-26068866D01*
X94835377Y-26068866D02*
X94978234Y-26116485D01*
X94978234Y-26116485D02*
X95549663Y-26687913D01*
X95549663Y-26687913D02*
X95549663Y-26068866D01*
X95549663Y-24306961D02*
X95073472Y-24640294D01*
X95549663Y-24878389D02*
X94549663Y-24878389D01*
X94549663Y-24878389D02*
X94549663Y-24497437D01*
X94549663Y-24497437D02*
X94597282Y-24402199D01*
X94597282Y-24402199D02*
X94644901Y-24354580D01*
X94644901Y-24354580D02*
X94740139Y-24306961D01*
X94740139Y-24306961D02*
X94882996Y-24306961D01*
X94882996Y-24306961D02*
X94978234Y-24354580D01*
X94978234Y-24354580D02*
X95025853Y-24402199D01*
X95025853Y-24402199D02*
X95073472Y-24497437D01*
X95073472Y-24497437D02*
X95073472Y-24878389D01*
X95502044Y-23497437D02*
X95549663Y-23592675D01*
X95549663Y-23592675D02*
X95549663Y-23783151D01*
X95549663Y-23783151D02*
X95502044Y-23878389D01*
X95502044Y-23878389D02*
X95406805Y-23926008D01*
X95406805Y-23926008D02*
X95025853Y-23926008D01*
X95025853Y-23926008D02*
X94930615Y-23878389D01*
X94930615Y-23878389D02*
X94882996Y-23783151D01*
X94882996Y-23783151D02*
X94882996Y-23592675D01*
X94882996Y-23592675D02*
X94930615Y-23497437D01*
X94930615Y-23497437D02*
X95025853Y-23449818D01*
X95025853Y-23449818D02*
X95121091Y-23449818D01*
X95121091Y-23449818D02*
X95216329Y-23926008D01*
X94882996Y-23116484D02*
X95549663Y-22878389D01*
X95549663Y-22878389D02*
X94882996Y-22640294D01*
X95454424Y-22259341D02*
X95502044Y-22211722D01*
X95502044Y-22211722D02*
X95549663Y-22259341D01*
X95549663Y-22259341D02*
X95502044Y-22306960D01*
X95502044Y-22306960D02*
X95454424Y-22259341D01*
X95454424Y-22259341D02*
X95549663Y-22259341D01*
X95263948Y-21830770D02*
X95263948Y-21354580D01*
X95549663Y-21926008D02*
X94549663Y-21592675D01*
X94549663Y-21592675D02*
X95549663Y-21259342D01*
D10*
X69907836Y-63777895D02*
X69907836Y-62977895D01*
X69907836Y-63358847D02*
X70193550Y-63358847D01*
X70193550Y-63777895D02*
X70193550Y-62977895D01*
X70526884Y-62977895D02*
X70622122Y-62977895D01*
X70622122Y-62977895D02*
X70669741Y-63015990D01*
X70669741Y-63015990D02*
X70717360Y-63092180D01*
X70717360Y-63092180D02*
X70741170Y-63244561D01*
X70741170Y-63244561D02*
X70741170Y-63511228D01*
X70741170Y-63511228D02*
X70717360Y-63663609D01*
X70717360Y-63663609D02*
X70669741Y-63739800D01*
X70669741Y-63739800D02*
X70622122Y-63777895D01*
X70622122Y-63777895D02*
X70526884Y-63777895D01*
X70526884Y-63777895D02*
X70479265Y-63739800D01*
X70479265Y-63739800D02*
X70431646Y-63663609D01*
X70431646Y-63663609D02*
X70407837Y-63511228D01*
X70407837Y-63511228D02*
X70407837Y-63244561D01*
X70407837Y-63244561D02*
X70431646Y-63092180D01*
X70431646Y-63092180D02*
X70479265Y-63015990D01*
X70479265Y-63015990D02*
X70526884Y-62977895D01*
X71122123Y-63358847D02*
X71193551Y-63396942D01*
X71193551Y-63396942D02*
X71217361Y-63435038D01*
X71217361Y-63435038D02*
X71241170Y-63511228D01*
X71241170Y-63511228D02*
X71241170Y-63625514D01*
X71241170Y-63625514D02*
X71217361Y-63701704D01*
X71217361Y-63701704D02*
X71193551Y-63739800D01*
X71193551Y-63739800D02*
X71145932Y-63777895D01*
X71145932Y-63777895D02*
X70955456Y-63777895D01*
X70955456Y-63777895D02*
X70955456Y-62977895D01*
X70955456Y-62977895D02*
X71122123Y-62977895D01*
X71122123Y-62977895D02*
X71169742Y-63015990D01*
X71169742Y-63015990D02*
X71193551Y-63054085D01*
X71193551Y-63054085D02*
X71217361Y-63130276D01*
X71217361Y-63130276D02*
X71217361Y-63206466D01*
X71217361Y-63206466D02*
X71193551Y-63282657D01*
X71193551Y-63282657D02*
X71169742Y-63320752D01*
X71169742Y-63320752D02*
X71122123Y-63358847D01*
X71122123Y-63358847D02*
X70955456Y-63358847D01*
X64303931Y-63777895D02*
X64065836Y-63777895D01*
X64065836Y-63777895D02*
X64065836Y-62977895D01*
X64565836Y-62977895D02*
X64661074Y-62977895D01*
X64661074Y-62977895D02*
X64708693Y-63015990D01*
X64708693Y-63015990D02*
X64756312Y-63092180D01*
X64756312Y-63092180D02*
X64780122Y-63244561D01*
X64780122Y-63244561D02*
X64780122Y-63511228D01*
X64780122Y-63511228D02*
X64756312Y-63663609D01*
X64756312Y-63663609D02*
X64708693Y-63739800D01*
X64708693Y-63739800D02*
X64661074Y-63777895D01*
X64661074Y-63777895D02*
X64565836Y-63777895D01*
X64565836Y-63777895D02*
X64518217Y-63739800D01*
X64518217Y-63739800D02*
X64470598Y-63663609D01*
X64470598Y-63663609D02*
X64446789Y-63511228D01*
X64446789Y-63511228D02*
X64446789Y-63244561D01*
X64446789Y-63244561D02*
X64470598Y-63092180D01*
X64470598Y-63092180D02*
X64518217Y-63015990D01*
X64518217Y-63015990D02*
X64565836Y-62977895D01*
X64970599Y-63549323D02*
X65208694Y-63549323D01*
X64922980Y-63777895D02*
X65089646Y-62977895D01*
X65089646Y-62977895D02*
X65256313Y-63777895D01*
X61113074Y-62850895D02*
X61208312Y-62850895D01*
X61208312Y-62850895D02*
X61255931Y-62888990D01*
X61255931Y-62888990D02*
X61303550Y-62965180D01*
X61303550Y-62965180D02*
X61327360Y-63117561D01*
X61327360Y-63117561D02*
X61327360Y-63384228D01*
X61327360Y-63384228D02*
X61303550Y-63536609D01*
X61303550Y-63536609D02*
X61255931Y-63612800D01*
X61255931Y-63612800D02*
X61208312Y-63650895D01*
X61208312Y-63650895D02*
X61113074Y-63650895D01*
X61113074Y-63650895D02*
X61065455Y-63612800D01*
X61065455Y-63612800D02*
X61017836Y-63536609D01*
X61017836Y-63536609D02*
X60994027Y-63384228D01*
X60994027Y-63384228D02*
X60994027Y-63117561D01*
X60994027Y-63117561D02*
X61017836Y-62965180D01*
X61017836Y-62965180D02*
X61065455Y-62888990D01*
X61065455Y-62888990D02*
X61113074Y-62850895D01*
X61541646Y-62850895D02*
X61541646Y-63498514D01*
X61541646Y-63498514D02*
X61565456Y-63574704D01*
X61565456Y-63574704D02*
X61589265Y-63612800D01*
X61589265Y-63612800D02*
X61636884Y-63650895D01*
X61636884Y-63650895D02*
X61732122Y-63650895D01*
X61732122Y-63650895D02*
X61779741Y-63612800D01*
X61779741Y-63612800D02*
X61803551Y-63574704D01*
X61803551Y-63574704D02*
X61827360Y-63498514D01*
X61827360Y-63498514D02*
X61827360Y-62850895D01*
X61994028Y-62850895D02*
X62279742Y-62850895D01*
X62136885Y-63650895D02*
X62136885Y-62850895D01*
X95362895Y-54125115D02*
X96162895Y-53991782D01*
X96162895Y-53991782D02*
X95362895Y-53858449D01*
X96086704Y-53496544D02*
X96124800Y-53515592D01*
X96124800Y-53515592D02*
X96162895Y-53572734D01*
X96162895Y-53572734D02*
X96162895Y-53610830D01*
X96162895Y-53610830D02*
X96124800Y-53667973D01*
X96124800Y-53667973D02*
X96048609Y-53706068D01*
X96048609Y-53706068D02*
X95972419Y-53725115D01*
X95972419Y-53725115D02*
X95820038Y-53744163D01*
X95820038Y-53744163D02*
X95705752Y-53744163D01*
X95705752Y-53744163D02*
X95553371Y-53725115D01*
X95553371Y-53725115D02*
X95477180Y-53706068D01*
X95477180Y-53706068D02*
X95400990Y-53667973D01*
X95400990Y-53667973D02*
X95362895Y-53610830D01*
X95362895Y-53610830D02*
X95362895Y-53572734D01*
X95362895Y-53572734D02*
X95400990Y-53515592D01*
X95400990Y-53515592D02*
X95439085Y-53496544D01*
X96086704Y-53096544D02*
X96124800Y-53115592D01*
X96124800Y-53115592D02*
X96162895Y-53172734D01*
X96162895Y-53172734D02*
X96162895Y-53210830D01*
X96162895Y-53210830D02*
X96124800Y-53267973D01*
X96124800Y-53267973D02*
X96048609Y-53306068D01*
X96048609Y-53306068D02*
X95972419Y-53325115D01*
X95972419Y-53325115D02*
X95820038Y-53344163D01*
X95820038Y-53344163D02*
X95705752Y-53344163D01*
X95705752Y-53344163D02*
X95553371Y-53325115D01*
X95553371Y-53325115D02*
X95477180Y-53306068D01*
X95477180Y-53306068D02*
X95400990Y-53267973D01*
X95400990Y-53267973D02*
X95362895Y-53210830D01*
X95362895Y-53210830D02*
X95362895Y-53172734D01*
X95362895Y-53172734D02*
X95400990Y-53115592D01*
X95400990Y-53115592D02*
X95439085Y-53096544D01*
X95858133Y-52925115D02*
X95858133Y-52620354D01*
X96162895Y-52772734D02*
X95553371Y-52772734D01*
X95362895Y-52239401D02*
X95362895Y-52429877D01*
X95362895Y-52429877D02*
X95743847Y-52448925D01*
X95743847Y-52448925D02*
X95705752Y-52429877D01*
X95705752Y-52429877D02*
X95667657Y-52391782D01*
X95667657Y-52391782D02*
X95667657Y-52296544D01*
X95667657Y-52296544D02*
X95705752Y-52258449D01*
X95705752Y-52258449D02*
X95743847Y-52239401D01*
X95743847Y-52239401D02*
X95820038Y-52220354D01*
X95820038Y-52220354D02*
X96010514Y-52220354D01*
X96010514Y-52220354D02*
X96086704Y-52239401D01*
X96086704Y-52239401D02*
X96124800Y-52258449D01*
X96124800Y-52258449D02*
X96162895Y-52296544D01*
X96162895Y-52296544D02*
X96162895Y-52391782D01*
X96162895Y-52391782D02*
X96124800Y-52429877D01*
X96124800Y-52429877D02*
X96086704Y-52448925D01*
X57446741Y-21359990D02*
X57399122Y-21321895D01*
X57399122Y-21321895D02*
X57327693Y-21321895D01*
X57327693Y-21321895D02*
X57256265Y-21359990D01*
X57256265Y-21359990D02*
X57208646Y-21436180D01*
X57208646Y-21436180D02*
X57184836Y-21512371D01*
X57184836Y-21512371D02*
X57161027Y-21664752D01*
X57161027Y-21664752D02*
X57161027Y-21779038D01*
X57161027Y-21779038D02*
X57184836Y-21931419D01*
X57184836Y-21931419D02*
X57208646Y-22007609D01*
X57208646Y-22007609D02*
X57256265Y-22083800D01*
X57256265Y-22083800D02*
X57327693Y-22121895D01*
X57327693Y-22121895D02*
X57375312Y-22121895D01*
X57375312Y-22121895D02*
X57446741Y-22083800D01*
X57446741Y-22083800D02*
X57470550Y-22045704D01*
X57470550Y-22045704D02*
X57470550Y-21779038D01*
X57470550Y-21779038D02*
X57375312Y-21779038D01*
X57684836Y-22121895D02*
X57684836Y-21321895D01*
X57684836Y-21321895D02*
X57970550Y-22121895D01*
X57970550Y-22121895D02*
X57970550Y-21321895D01*
X58208646Y-22121895D02*
X58208646Y-21321895D01*
X58208646Y-21321895D02*
X58327694Y-21321895D01*
X58327694Y-21321895D02*
X58399122Y-21359990D01*
X58399122Y-21359990D02*
X58446741Y-21436180D01*
X58446741Y-21436180D02*
X58470551Y-21512371D01*
X58470551Y-21512371D02*
X58494360Y-21664752D01*
X58494360Y-21664752D02*
X58494360Y-21779038D01*
X58494360Y-21779038D02*
X58470551Y-21931419D01*
X58470551Y-21931419D02*
X58446741Y-22007609D01*
X58446741Y-22007609D02*
X58399122Y-22083800D01*
X58399122Y-22083800D02*
X58327694Y-22121895D01*
X58327694Y-22121895D02*
X58208646Y-22121895D01*
X95362895Y-59028925D02*
X95362895Y-58933687D01*
X95362895Y-58933687D02*
X95400990Y-58886068D01*
X95400990Y-58886068D02*
X95477180Y-58838449D01*
X95477180Y-58838449D02*
X95629561Y-58814639D01*
X95629561Y-58814639D02*
X95896228Y-58814639D01*
X95896228Y-58814639D02*
X96048609Y-58838449D01*
X96048609Y-58838449D02*
X96124800Y-58886068D01*
X96124800Y-58886068D02*
X96162895Y-58933687D01*
X96162895Y-58933687D02*
X96162895Y-59028925D01*
X96162895Y-59028925D02*
X96124800Y-59076544D01*
X96124800Y-59076544D02*
X96048609Y-59124163D01*
X96048609Y-59124163D02*
X95896228Y-59147972D01*
X95896228Y-59147972D02*
X95629561Y-59147972D01*
X95629561Y-59147972D02*
X95477180Y-59124163D01*
X95477180Y-59124163D02*
X95400990Y-59076544D01*
X95400990Y-59076544D02*
X95362895Y-59028925D01*
X95362895Y-58600353D02*
X96010514Y-58600353D01*
X96010514Y-58600353D02*
X96086704Y-58576543D01*
X96086704Y-58576543D02*
X96124800Y-58552734D01*
X96124800Y-58552734D02*
X96162895Y-58505115D01*
X96162895Y-58505115D02*
X96162895Y-58409877D01*
X96162895Y-58409877D02*
X96124800Y-58362258D01*
X96124800Y-58362258D02*
X96086704Y-58338448D01*
X96086704Y-58338448D02*
X96010514Y-58314639D01*
X96010514Y-58314639D02*
X95362895Y-58314639D01*
X95362895Y-58147971D02*
X95362895Y-57862257D01*
X96162895Y-58005114D02*
X95362895Y-58005114D01*
X73320931Y-63777895D02*
X73082836Y-63777895D01*
X73082836Y-63777895D02*
X73082836Y-62977895D01*
X73582836Y-62977895D02*
X73678074Y-62977895D01*
X73678074Y-62977895D02*
X73725693Y-63015990D01*
X73725693Y-63015990D02*
X73773312Y-63092180D01*
X73773312Y-63092180D02*
X73797122Y-63244561D01*
X73797122Y-63244561D02*
X73797122Y-63511228D01*
X73797122Y-63511228D02*
X73773312Y-63663609D01*
X73773312Y-63663609D02*
X73725693Y-63739800D01*
X73725693Y-63739800D02*
X73678074Y-63777895D01*
X73678074Y-63777895D02*
X73582836Y-63777895D01*
X73582836Y-63777895D02*
X73535217Y-63739800D01*
X73535217Y-63739800D02*
X73487598Y-63663609D01*
X73487598Y-63663609D02*
X73463789Y-63511228D01*
X73463789Y-63511228D02*
X73463789Y-63244561D01*
X73463789Y-63244561D02*
X73487598Y-63092180D01*
X73487598Y-63092180D02*
X73535217Y-63015990D01*
X73535217Y-63015990D02*
X73582836Y-62977895D01*
X74178075Y-63358847D02*
X74249503Y-63396942D01*
X74249503Y-63396942D02*
X74273313Y-63435038D01*
X74273313Y-63435038D02*
X74297122Y-63511228D01*
X74297122Y-63511228D02*
X74297122Y-63625514D01*
X74297122Y-63625514D02*
X74273313Y-63701704D01*
X74273313Y-63701704D02*
X74249503Y-63739800D01*
X74249503Y-63739800D02*
X74201884Y-63777895D01*
X74201884Y-63777895D02*
X74011408Y-63777895D01*
X74011408Y-63777895D02*
X74011408Y-62977895D01*
X74011408Y-62977895D02*
X74178075Y-62977895D01*
X74178075Y-62977895D02*
X74225694Y-63015990D01*
X74225694Y-63015990D02*
X74249503Y-63054085D01*
X74249503Y-63054085D02*
X74273313Y-63130276D01*
X74273313Y-63130276D02*
X74273313Y-63206466D01*
X74273313Y-63206466D02*
X74249503Y-63282657D01*
X74249503Y-63282657D02*
X74225694Y-63320752D01*
X74225694Y-63320752D02*
X74178075Y-63358847D01*
X74178075Y-63358847D02*
X74011408Y-63358847D01*
X76392741Y-20724990D02*
X76345122Y-20686895D01*
X76345122Y-20686895D02*
X76273693Y-20686895D01*
X76273693Y-20686895D02*
X76202265Y-20724990D01*
X76202265Y-20724990D02*
X76154646Y-20801180D01*
X76154646Y-20801180D02*
X76130836Y-20877371D01*
X76130836Y-20877371D02*
X76107027Y-21029752D01*
X76107027Y-21029752D02*
X76107027Y-21144038D01*
X76107027Y-21144038D02*
X76130836Y-21296419D01*
X76130836Y-21296419D02*
X76154646Y-21372609D01*
X76154646Y-21372609D02*
X76202265Y-21448800D01*
X76202265Y-21448800D02*
X76273693Y-21486895D01*
X76273693Y-21486895D02*
X76321312Y-21486895D01*
X76321312Y-21486895D02*
X76392741Y-21448800D01*
X76392741Y-21448800D02*
X76416550Y-21410704D01*
X76416550Y-21410704D02*
X76416550Y-21144038D01*
X76416550Y-21144038D02*
X76321312Y-21144038D01*
X76630836Y-21486895D02*
X76630836Y-20686895D01*
X76630836Y-20686895D02*
X76916550Y-21486895D01*
X76916550Y-21486895D02*
X76916550Y-20686895D01*
X77154646Y-21486895D02*
X77154646Y-20686895D01*
X77154646Y-20686895D02*
X77273694Y-20686895D01*
X77273694Y-20686895D02*
X77345122Y-20724990D01*
X77345122Y-20724990D02*
X77392741Y-20801180D01*
X77392741Y-20801180D02*
X77416551Y-20877371D01*
X77416551Y-20877371D02*
X77440360Y-21029752D01*
X77440360Y-21029752D02*
X77440360Y-21144038D01*
X77440360Y-21144038D02*
X77416551Y-21296419D01*
X77416551Y-21296419D02*
X77392741Y-21372609D01*
X77392741Y-21372609D02*
X77345122Y-21448800D01*
X77345122Y-21448800D02*
X77273694Y-21486895D01*
X77273694Y-21486895D02*
X77154646Y-21486895D01*
X87018895Y-53933068D02*
X87018895Y-54171163D01*
X87018895Y-54171163D02*
X86218895Y-54171163D01*
X86218895Y-53671163D02*
X86218895Y-53575925D01*
X86218895Y-53575925D02*
X86256990Y-53528306D01*
X86256990Y-53528306D02*
X86333180Y-53480687D01*
X86333180Y-53480687D02*
X86485561Y-53456877D01*
X86485561Y-53456877D02*
X86752228Y-53456877D01*
X86752228Y-53456877D02*
X86904609Y-53480687D01*
X86904609Y-53480687D02*
X86980800Y-53528306D01*
X86980800Y-53528306D02*
X87018895Y-53575925D01*
X87018895Y-53575925D02*
X87018895Y-53671163D01*
X87018895Y-53671163D02*
X86980800Y-53718782D01*
X86980800Y-53718782D02*
X86904609Y-53766401D01*
X86904609Y-53766401D02*
X86752228Y-53790210D01*
X86752228Y-53790210D02*
X86485561Y-53790210D01*
X86485561Y-53790210D02*
X86333180Y-53766401D01*
X86333180Y-53766401D02*
X86256990Y-53718782D01*
X86256990Y-53718782D02*
X86218895Y-53671163D01*
X86790323Y-53266400D02*
X86790323Y-53028305D01*
X87018895Y-53314019D02*
X86218895Y-53147353D01*
X86218895Y-53147353D02*
X87018895Y-52980686D01*
D12*
X92630666Y-48095819D02*
X92630666Y-48810104D01*
X92630666Y-48810104D02*
X92583047Y-48952961D01*
X92583047Y-48952961D02*
X92487809Y-49048200D01*
X92487809Y-49048200D02*
X92344952Y-49095819D01*
X92344952Y-49095819D02*
X92249714Y-49095819D01*
X93583047Y-48095819D02*
X93106857Y-48095819D01*
X93106857Y-48095819D02*
X93059238Y-48572009D01*
X93059238Y-48572009D02*
X93106857Y-48524390D01*
X93106857Y-48524390D02*
X93202095Y-48476771D01*
X93202095Y-48476771D02*
X93440190Y-48476771D01*
X93440190Y-48476771D02*
X93535428Y-48524390D01*
X93535428Y-48524390D02*
X93583047Y-48572009D01*
X93583047Y-48572009D02*
X93630666Y-48667247D01*
X93630666Y-48667247D02*
X93630666Y-48905342D01*
X93630666Y-48905342D02*
X93583047Y-49000580D01*
X93583047Y-49000580D02*
X93535428Y-49048200D01*
X93535428Y-49048200D02*
X93440190Y-49095819D01*
X93440190Y-49095819D02*
X93202095Y-49095819D01*
X93202095Y-49095819D02*
X93106857Y-49048200D01*
X93106857Y-49048200D02*
X93059238Y-49000580D01*
X51880419Y-30962504D02*
X52689942Y-30962504D01*
X52689942Y-30962504D02*
X52785180Y-30914885D01*
X52785180Y-30914885D02*
X52832800Y-30867266D01*
X52832800Y-30867266D02*
X52880419Y-30772028D01*
X52880419Y-30772028D02*
X52880419Y-30581552D01*
X52880419Y-30581552D02*
X52832800Y-30486314D01*
X52832800Y-30486314D02*
X52785180Y-30438695D01*
X52785180Y-30438695D02*
X52689942Y-30391076D01*
X52689942Y-30391076D02*
X51880419Y-30391076D01*
X52213752Y-29486314D02*
X52880419Y-29486314D01*
X51832800Y-29724409D02*
X52547085Y-29962504D01*
X52547085Y-29962504D02*
X52547085Y-29343457D01*
X68431580Y-24360047D02*
X68479200Y-24407666D01*
X68479200Y-24407666D02*
X68526819Y-24550523D01*
X68526819Y-24550523D02*
X68526819Y-24645761D01*
X68526819Y-24645761D02*
X68479200Y-24788618D01*
X68479200Y-24788618D02*
X68383961Y-24883856D01*
X68383961Y-24883856D02*
X68288723Y-24931475D01*
X68288723Y-24931475D02*
X68098247Y-24979094D01*
X68098247Y-24979094D02*
X67955390Y-24979094D01*
X67955390Y-24979094D02*
X67764914Y-24931475D01*
X67764914Y-24931475D02*
X67669676Y-24883856D01*
X67669676Y-24883856D02*
X67574438Y-24788618D01*
X67574438Y-24788618D02*
X67526819Y-24645761D01*
X67526819Y-24645761D02*
X67526819Y-24550523D01*
X67526819Y-24550523D02*
X67574438Y-24407666D01*
X67574438Y-24407666D02*
X67622057Y-24360047D01*
X67574438Y-23407666D02*
X67526819Y-23502904D01*
X67526819Y-23502904D02*
X67526819Y-23645761D01*
X67526819Y-23645761D02*
X67574438Y-23788618D01*
X67574438Y-23788618D02*
X67669676Y-23883856D01*
X67669676Y-23883856D02*
X67764914Y-23931475D01*
X67764914Y-23931475D02*
X67955390Y-23979094D01*
X67955390Y-23979094D02*
X68098247Y-23979094D01*
X68098247Y-23979094D02*
X68288723Y-23931475D01*
X68288723Y-23931475D02*
X68383961Y-23883856D01*
X68383961Y-23883856D02*
X68479200Y-23788618D01*
X68479200Y-23788618D02*
X68526819Y-23645761D01*
X68526819Y-23645761D02*
X68526819Y-23550523D01*
X68526819Y-23550523D02*
X68479200Y-23407666D01*
X68479200Y-23407666D02*
X68431580Y-23360047D01*
X68431580Y-23360047D02*
X68098247Y-23360047D01*
X68098247Y-23360047D02*
X68098247Y-23550523D01*
X67526819Y-23074332D02*
X68526819Y-22740999D01*
X68526819Y-22740999D02*
X67526819Y-22407666D01*
X68526819Y-22074332D02*
X67526819Y-22074332D01*
X67526819Y-22074332D02*
X67526819Y-21836237D01*
X67526819Y-21836237D02*
X67574438Y-21693380D01*
X67574438Y-21693380D02*
X67669676Y-21598142D01*
X67669676Y-21598142D02*
X67764914Y-21550523D01*
X67764914Y-21550523D02*
X67955390Y-21502904D01*
X67955390Y-21502904D02*
X68098247Y-21502904D01*
X68098247Y-21502904D02*
X68288723Y-21550523D01*
X68288723Y-21550523D02*
X68383961Y-21598142D01*
X68383961Y-21598142D02*
X68479200Y-21693380D01*
X68479200Y-21693380D02*
X68526819Y-21836237D01*
X68526819Y-21836237D02*
X68526819Y-22074332D01*
X79702819Y-56383475D02*
X78702819Y-56383475D01*
X78702819Y-56383475D02*
X78702819Y-56145380D01*
X78702819Y-56145380D02*
X78750438Y-56002523D01*
X78750438Y-56002523D02*
X78845676Y-55907285D01*
X78845676Y-55907285D02*
X78940914Y-55859666D01*
X78940914Y-55859666D02*
X79131390Y-55812047D01*
X79131390Y-55812047D02*
X79274247Y-55812047D01*
X79274247Y-55812047D02*
X79464723Y-55859666D01*
X79464723Y-55859666D02*
X79559961Y-55907285D01*
X79559961Y-55907285D02*
X79655200Y-56002523D01*
X79655200Y-56002523D02*
X79702819Y-56145380D01*
X79702819Y-56145380D02*
X79702819Y-56383475D01*
X79179009Y-55050142D02*
X79226628Y-54907285D01*
X79226628Y-54907285D02*
X79274247Y-54859666D01*
X79274247Y-54859666D02*
X79369485Y-54812047D01*
X79369485Y-54812047D02*
X79512342Y-54812047D01*
X79512342Y-54812047D02*
X79607580Y-54859666D01*
X79607580Y-54859666D02*
X79655200Y-54907285D01*
X79655200Y-54907285D02*
X79702819Y-55002523D01*
X79702819Y-55002523D02*
X79702819Y-55383475D01*
X79702819Y-55383475D02*
X78702819Y-55383475D01*
X78702819Y-55383475D02*
X78702819Y-55050142D01*
X78702819Y-55050142D02*
X78750438Y-54954904D01*
X78750438Y-54954904D02*
X78798057Y-54907285D01*
X78798057Y-54907285D02*
X78893295Y-54859666D01*
X78893295Y-54859666D02*
X78988533Y-54859666D01*
X78988533Y-54859666D02*
X79083771Y-54907285D01*
X79083771Y-54907285D02*
X79131390Y-54954904D01*
X79131390Y-54954904D02*
X79179009Y-55050142D01*
X79179009Y-55050142D02*
X79179009Y-55383475D01*
X78702819Y-54192999D02*
X78702819Y-54002523D01*
X78702819Y-54002523D02*
X78750438Y-53907285D01*
X78750438Y-53907285D02*
X78845676Y-53812047D01*
X78845676Y-53812047D02*
X79036152Y-53764428D01*
X79036152Y-53764428D02*
X79369485Y-53764428D01*
X79369485Y-53764428D02*
X79559961Y-53812047D01*
X79559961Y-53812047D02*
X79655200Y-53907285D01*
X79655200Y-53907285D02*
X79702819Y-54002523D01*
X79702819Y-54002523D02*
X79702819Y-54192999D01*
X79702819Y-54192999D02*
X79655200Y-54288237D01*
X79655200Y-54288237D02*
X79559961Y-54383475D01*
X79559961Y-54383475D02*
X79369485Y-54431094D01*
X79369485Y-54431094D02*
X79036152Y-54431094D01*
X79036152Y-54431094D02*
X78845676Y-54383475D01*
X78845676Y-54383475D02*
X78750438Y-54288237D01*
X78750438Y-54288237D02*
X78702819Y-54192999D01*
X78702819Y-53145380D02*
X78702819Y-52954904D01*
X78702819Y-52954904D02*
X78750438Y-52859666D01*
X78750438Y-52859666D02*
X78845676Y-52764428D01*
X78845676Y-52764428D02*
X79036152Y-52716809D01*
X79036152Y-52716809D02*
X79369485Y-52716809D01*
X79369485Y-52716809D02*
X79559961Y-52764428D01*
X79559961Y-52764428D02*
X79655200Y-52859666D01*
X79655200Y-52859666D02*
X79702819Y-52954904D01*
X79702819Y-52954904D02*
X79702819Y-53145380D01*
X79702819Y-53145380D02*
X79655200Y-53240618D01*
X79655200Y-53240618D02*
X79559961Y-53335856D01*
X79559961Y-53335856D02*
X79369485Y-53383475D01*
X79369485Y-53383475D02*
X79036152Y-53383475D01*
X79036152Y-53383475D02*
X78845676Y-53335856D01*
X78845676Y-53335856D02*
X78750438Y-53240618D01*
X78750438Y-53240618D02*
X78702819Y-53145380D01*
X78702819Y-52431094D02*
X78702819Y-51859666D01*
X79702819Y-52145380D02*
X78702819Y-52145380D01*
X57710419Y-40662304D02*
X58519942Y-40662304D01*
X58519942Y-40662304D02*
X58615180Y-40614685D01*
X58615180Y-40614685D02*
X58662800Y-40567066D01*
X58662800Y-40567066D02*
X58710419Y-40471828D01*
X58710419Y-40471828D02*
X58710419Y-40281352D01*
X58710419Y-40281352D02*
X58662800Y-40186114D01*
X58662800Y-40186114D02*
X58615180Y-40138495D01*
X58615180Y-40138495D02*
X58519942Y-40090876D01*
X58519942Y-40090876D02*
X57710419Y-40090876D01*
X58710419Y-39090876D02*
X58710419Y-39662304D01*
X58710419Y-39376590D02*
X57710419Y-39376590D01*
X57710419Y-39376590D02*
X57853276Y-39471828D01*
X57853276Y-39471828D02*
X57948514Y-39567066D01*
X57948514Y-39567066D02*
X57996133Y-39662304D01*
X85195580Y-46704047D02*
X85243200Y-46751666D01*
X85243200Y-46751666D02*
X85290819Y-46894523D01*
X85290819Y-46894523D02*
X85290819Y-46989761D01*
X85290819Y-46989761D02*
X85243200Y-47132618D01*
X85243200Y-47132618D02*
X85147961Y-47227856D01*
X85147961Y-47227856D02*
X85052723Y-47275475D01*
X85052723Y-47275475D02*
X84862247Y-47323094D01*
X84862247Y-47323094D02*
X84719390Y-47323094D01*
X84719390Y-47323094D02*
X84528914Y-47275475D01*
X84528914Y-47275475D02*
X84433676Y-47227856D01*
X84433676Y-47227856D02*
X84338438Y-47132618D01*
X84338438Y-47132618D02*
X84290819Y-46989761D01*
X84290819Y-46989761D02*
X84290819Y-46894523D01*
X84290819Y-46894523D02*
X84338438Y-46751666D01*
X84338438Y-46751666D02*
X84386057Y-46704047D01*
X84767009Y-45942142D02*
X84814628Y-45799285D01*
X84814628Y-45799285D02*
X84862247Y-45751666D01*
X84862247Y-45751666D02*
X84957485Y-45704047D01*
X84957485Y-45704047D02*
X85100342Y-45704047D01*
X85100342Y-45704047D02*
X85195580Y-45751666D01*
X85195580Y-45751666D02*
X85243200Y-45799285D01*
X85243200Y-45799285D02*
X85290819Y-45894523D01*
X85290819Y-45894523D02*
X85290819Y-46275475D01*
X85290819Y-46275475D02*
X84290819Y-46275475D01*
X84290819Y-46275475D02*
X84290819Y-45942142D01*
X84290819Y-45942142D02*
X84338438Y-45846904D01*
X84338438Y-45846904D02*
X84386057Y-45799285D01*
X84386057Y-45799285D02*
X84481295Y-45751666D01*
X84481295Y-45751666D02*
X84576533Y-45751666D01*
X84576533Y-45751666D02*
X84671771Y-45799285D01*
X84671771Y-45799285D02*
X84719390Y-45846904D01*
X84719390Y-45846904D02*
X84767009Y-45942142D01*
X84767009Y-45942142D02*
X84767009Y-46275475D01*
X84290819Y-45084999D02*
X84290819Y-44894523D01*
X84290819Y-44894523D02*
X84338438Y-44799285D01*
X84338438Y-44799285D02*
X84433676Y-44704047D01*
X84433676Y-44704047D02*
X84624152Y-44656428D01*
X84624152Y-44656428D02*
X84957485Y-44656428D01*
X84957485Y-44656428D02*
X85147961Y-44704047D01*
X85147961Y-44704047D02*
X85243200Y-44799285D01*
X85243200Y-44799285D02*
X85290819Y-44894523D01*
X85290819Y-44894523D02*
X85290819Y-45084999D01*
X85290819Y-45084999D02*
X85243200Y-45180237D01*
X85243200Y-45180237D02*
X85147961Y-45275475D01*
X85147961Y-45275475D02*
X84957485Y-45323094D01*
X84957485Y-45323094D02*
X84624152Y-45323094D01*
X84624152Y-45323094D02*
X84433676Y-45275475D01*
X84433676Y-45275475D02*
X84338438Y-45180237D01*
X84338438Y-45180237D02*
X84290819Y-45084999D01*
X84290819Y-44037380D02*
X84290819Y-43846904D01*
X84290819Y-43846904D02*
X84338438Y-43751666D01*
X84338438Y-43751666D02*
X84433676Y-43656428D01*
X84433676Y-43656428D02*
X84624152Y-43608809D01*
X84624152Y-43608809D02*
X84957485Y-43608809D01*
X84957485Y-43608809D02*
X85147961Y-43656428D01*
X85147961Y-43656428D02*
X85243200Y-43751666D01*
X85243200Y-43751666D02*
X85290819Y-43846904D01*
X85290819Y-43846904D02*
X85290819Y-44037380D01*
X85290819Y-44037380D02*
X85243200Y-44132618D01*
X85243200Y-44132618D02*
X85147961Y-44227856D01*
X85147961Y-44227856D02*
X84957485Y-44275475D01*
X84957485Y-44275475D02*
X84624152Y-44275475D01*
X84624152Y-44275475D02*
X84433676Y-44227856D01*
X84433676Y-44227856D02*
X84338438Y-44132618D01*
X84338438Y-44132618D02*
X84290819Y-44037380D01*
X84290819Y-43323094D02*
X84290819Y-42751666D01*
X85290819Y-43037380D02*
X84290819Y-43037380D01*
X51905819Y-24082333D02*
X52620104Y-24082333D01*
X52620104Y-24082333D02*
X52762961Y-24129952D01*
X52762961Y-24129952D02*
X52858200Y-24225190D01*
X52858200Y-24225190D02*
X52905819Y-24368047D01*
X52905819Y-24368047D02*
X52905819Y-24463285D01*
X52001057Y-23653761D02*
X51953438Y-23606142D01*
X51953438Y-23606142D02*
X51905819Y-23510904D01*
X51905819Y-23510904D02*
X51905819Y-23272809D01*
X51905819Y-23272809D02*
X51953438Y-23177571D01*
X51953438Y-23177571D02*
X52001057Y-23129952D01*
X52001057Y-23129952D02*
X52096295Y-23082333D01*
X52096295Y-23082333D02*
X52191533Y-23082333D01*
X52191533Y-23082333D02*
X52334390Y-23129952D01*
X52334390Y-23129952D02*
X52905819Y-23701380D01*
X52905819Y-23701380D02*
X52905819Y-23082333D01*
X68340561Y-31411057D02*
X68245323Y-31363438D01*
X68245323Y-31363438D02*
X68150085Y-31268200D01*
X68150085Y-31268200D02*
X68007228Y-31125342D01*
X68007228Y-31125342D02*
X67911990Y-31077723D01*
X67911990Y-31077723D02*
X67816752Y-31077723D01*
X67864371Y-31315819D02*
X67769133Y-31268200D01*
X67769133Y-31268200D02*
X67673895Y-31172961D01*
X67673895Y-31172961D02*
X67626276Y-30982485D01*
X67626276Y-30982485D02*
X67626276Y-30649152D01*
X67626276Y-30649152D02*
X67673895Y-30458676D01*
X67673895Y-30458676D02*
X67769133Y-30363438D01*
X67769133Y-30363438D02*
X67864371Y-30315819D01*
X67864371Y-30315819D02*
X68054847Y-30315819D01*
X68054847Y-30315819D02*
X68150085Y-30363438D01*
X68150085Y-30363438D02*
X68245323Y-30458676D01*
X68245323Y-30458676D02*
X68292942Y-30649152D01*
X68292942Y-30649152D02*
X68292942Y-30982485D01*
X68292942Y-30982485D02*
X68245323Y-31172961D01*
X68245323Y-31172961D02*
X68150085Y-31268200D01*
X68150085Y-31268200D02*
X68054847Y-31315819D01*
X68054847Y-31315819D02*
X67864371Y-31315819D01*
X69245323Y-31315819D02*
X68673895Y-31315819D01*
X68959609Y-31315819D02*
X68959609Y-30315819D01*
X68959609Y-30315819D02*
X68864371Y-30458676D01*
X68864371Y-30458676D02*
X68769133Y-30553914D01*
X68769133Y-30553914D02*
X68673895Y-30601533D01*
D13*
X67389475Y-39349880D02*
X67365666Y-39397500D01*
X67365666Y-39397500D02*
X67294237Y-39445119D01*
X67294237Y-39445119D02*
X67246618Y-39445119D01*
X67246618Y-39445119D02*
X67175190Y-39397500D01*
X67175190Y-39397500D02*
X67127571Y-39302261D01*
X67127571Y-39302261D02*
X67103761Y-39207023D01*
X67103761Y-39207023D02*
X67079952Y-39016547D01*
X67079952Y-39016547D02*
X67079952Y-38873690D01*
X67079952Y-38873690D02*
X67103761Y-38683214D01*
X67103761Y-38683214D02*
X67127571Y-38587976D01*
X67127571Y-38587976D02*
X67175190Y-38492738D01*
X67175190Y-38492738D02*
X67246618Y-38445119D01*
X67246618Y-38445119D02*
X67294237Y-38445119D01*
X67294237Y-38445119D02*
X67365666Y-38492738D01*
X67365666Y-38492738D02*
X67389475Y-38540357D01*
X67770428Y-38921309D02*
X67841856Y-38968928D01*
X67841856Y-38968928D02*
X67865666Y-39016547D01*
X67865666Y-39016547D02*
X67889475Y-39111785D01*
X67889475Y-39111785D02*
X67889475Y-39254642D01*
X67889475Y-39254642D02*
X67865666Y-39349880D01*
X67865666Y-39349880D02*
X67841856Y-39397500D01*
X67841856Y-39397500D02*
X67794237Y-39445119D01*
X67794237Y-39445119D02*
X67603761Y-39445119D01*
X67603761Y-39445119D02*
X67603761Y-38445119D01*
X67603761Y-38445119D02*
X67770428Y-38445119D01*
X67770428Y-38445119D02*
X67818047Y-38492738D01*
X67818047Y-38492738D02*
X67841856Y-38540357D01*
X67841856Y-38540357D02*
X67865666Y-38635595D01*
X67865666Y-38635595D02*
X67865666Y-38730833D01*
X67865666Y-38730833D02*
X67841856Y-38826071D01*
X67841856Y-38826071D02*
X67818047Y-38873690D01*
X67818047Y-38873690D02*
X67770428Y-38921309D01*
X67770428Y-38921309D02*
X67603761Y-38921309D01*
X68198999Y-38445119D02*
X68294237Y-38445119D01*
X68294237Y-38445119D02*
X68341856Y-38492738D01*
X68341856Y-38492738D02*
X68389475Y-38587976D01*
X68389475Y-38587976D02*
X68413285Y-38778452D01*
X68413285Y-38778452D02*
X68413285Y-39111785D01*
X68413285Y-39111785D02*
X68389475Y-39302261D01*
X68389475Y-39302261D02*
X68341856Y-39397500D01*
X68341856Y-39397500D02*
X68294237Y-39445119D01*
X68294237Y-39445119D02*
X68198999Y-39445119D01*
X68198999Y-39445119D02*
X68151380Y-39397500D01*
X68151380Y-39397500D02*
X68103761Y-39302261D01*
X68103761Y-39302261D02*
X68079952Y-39111785D01*
X68079952Y-39111785D02*
X68079952Y-38778452D01*
X68079952Y-38778452D02*
X68103761Y-38587976D01*
X68103761Y-38587976D02*
X68151380Y-38492738D01*
X68151380Y-38492738D02*
X68198999Y-38445119D01*
X68722809Y-38445119D02*
X68818047Y-38445119D01*
X68818047Y-38445119D02*
X68865666Y-38492738D01*
X68865666Y-38492738D02*
X68913285Y-38587976D01*
X68913285Y-38587976D02*
X68937095Y-38778452D01*
X68937095Y-38778452D02*
X68937095Y-39111785D01*
X68937095Y-39111785D02*
X68913285Y-39302261D01*
X68913285Y-39302261D02*
X68865666Y-39397500D01*
X68865666Y-39397500D02*
X68818047Y-39445119D01*
X68818047Y-39445119D02*
X68722809Y-39445119D01*
X68722809Y-39445119D02*
X68675190Y-39397500D01*
X68675190Y-39397500D02*
X68627571Y-39302261D01*
X68627571Y-39302261D02*
X68603762Y-39111785D01*
X68603762Y-39111785D02*
X68603762Y-38778452D01*
X68603762Y-38778452D02*
X68627571Y-38587976D01*
X68627571Y-38587976D02*
X68675190Y-38492738D01*
X68675190Y-38492738D02*
X68722809Y-38445119D01*
X69079953Y-38445119D02*
X69365667Y-38445119D01*
X69222810Y-39445119D02*
X69222810Y-38445119D01*
D12*
X76781819Y-52579494D02*
X75781819Y-52579494D01*
X75781819Y-52579494D02*
X75781819Y-52341399D01*
X75781819Y-52341399D02*
X75829438Y-52198542D01*
X75829438Y-52198542D02*
X75924676Y-52103304D01*
X75924676Y-52103304D02*
X76019914Y-52055685D01*
X76019914Y-52055685D02*
X76210390Y-52008066D01*
X76210390Y-52008066D02*
X76353247Y-52008066D01*
X76353247Y-52008066D02*
X76543723Y-52055685D01*
X76543723Y-52055685D02*
X76638961Y-52103304D01*
X76638961Y-52103304D02*
X76734200Y-52198542D01*
X76734200Y-52198542D02*
X76781819Y-52341399D01*
X76781819Y-52341399D02*
X76781819Y-52579494D01*
X76781819Y-51055685D02*
X76781819Y-51627113D01*
X76781819Y-51341399D02*
X75781819Y-51341399D01*
X75781819Y-51341399D02*
X75924676Y-51436637D01*
X75924676Y-51436637D02*
X76019914Y-51531875D01*
X76019914Y-51531875D02*
X76067533Y-51627113D01*
X68104761Y-38300057D02*
X68009523Y-38252438D01*
X68009523Y-38252438D02*
X67914285Y-38157200D01*
X67914285Y-38157200D02*
X67771428Y-38014342D01*
X67771428Y-38014342D02*
X67676190Y-37966723D01*
X67676190Y-37966723D02*
X67580952Y-37966723D01*
X67628571Y-38204819D02*
X67533333Y-38157200D01*
X67533333Y-38157200D02*
X67438095Y-38061961D01*
X67438095Y-38061961D02*
X67390476Y-37871485D01*
X67390476Y-37871485D02*
X67390476Y-37538152D01*
X67390476Y-37538152D02*
X67438095Y-37347676D01*
X67438095Y-37347676D02*
X67533333Y-37252438D01*
X67533333Y-37252438D02*
X67628571Y-37204819D01*
X67628571Y-37204819D02*
X67819047Y-37204819D01*
X67819047Y-37204819D02*
X67914285Y-37252438D01*
X67914285Y-37252438D02*
X68009523Y-37347676D01*
X68009523Y-37347676D02*
X68057142Y-37538152D01*
X68057142Y-37538152D02*
X68057142Y-37871485D01*
X68057142Y-37871485D02*
X68009523Y-38061961D01*
X68009523Y-38061961D02*
X67914285Y-38157200D01*
X67914285Y-38157200D02*
X67819047Y-38204819D01*
X67819047Y-38204819D02*
X67628571Y-38204819D01*
X68390476Y-37204819D02*
X69009523Y-37204819D01*
X69009523Y-37204819D02*
X68676190Y-37585771D01*
X68676190Y-37585771D02*
X68819047Y-37585771D01*
X68819047Y-37585771D02*
X68914285Y-37633390D01*
X68914285Y-37633390D02*
X68961904Y-37681009D01*
X68961904Y-37681009D02*
X69009523Y-37776247D01*
X69009523Y-37776247D02*
X69009523Y-38014342D01*
X69009523Y-38014342D02*
X68961904Y-38109580D01*
X68961904Y-38109580D02*
X68914285Y-38157200D01*
X68914285Y-38157200D02*
X68819047Y-38204819D01*
X68819047Y-38204819D02*
X68533333Y-38204819D01*
X68533333Y-38204819D02*
X68438095Y-38157200D01*
X68438095Y-38157200D02*
X68390476Y-38109580D01*
X71066819Y-52630294D02*
X70066819Y-52630294D01*
X70066819Y-52630294D02*
X70066819Y-52392199D01*
X70066819Y-52392199D02*
X70114438Y-52249342D01*
X70114438Y-52249342D02*
X70209676Y-52154104D01*
X70209676Y-52154104D02*
X70304914Y-52106485D01*
X70304914Y-52106485D02*
X70495390Y-52058866D01*
X70495390Y-52058866D02*
X70638247Y-52058866D01*
X70638247Y-52058866D02*
X70828723Y-52106485D01*
X70828723Y-52106485D02*
X70923961Y-52154104D01*
X70923961Y-52154104D02*
X71019200Y-52249342D01*
X71019200Y-52249342D02*
X71066819Y-52392199D01*
X71066819Y-52392199D02*
X71066819Y-52630294D01*
X70066819Y-51154104D02*
X70066819Y-51630294D01*
X70066819Y-51630294D02*
X70543009Y-51677913D01*
X70543009Y-51677913D02*
X70495390Y-51630294D01*
X70495390Y-51630294D02*
X70447771Y-51535056D01*
X70447771Y-51535056D02*
X70447771Y-51296961D01*
X70447771Y-51296961D02*
X70495390Y-51201723D01*
X70495390Y-51201723D02*
X70543009Y-51154104D01*
X70543009Y-51154104D02*
X70638247Y-51106485D01*
X70638247Y-51106485D02*
X70876342Y-51106485D01*
X70876342Y-51106485D02*
X70971580Y-51154104D01*
X70971580Y-51154104D02*
X71019200Y-51201723D01*
X71019200Y-51201723D02*
X71066819Y-51296961D01*
X71066819Y-51296961D02*
X71066819Y-51535056D01*
X71066819Y-51535056D02*
X71019200Y-51630294D01*
X71019200Y-51630294D02*
X70971580Y-51677913D01*
D13*
X69163119Y-34794190D02*
X68686928Y-34960856D01*
X69163119Y-35079904D02*
X68163119Y-35079904D01*
X68163119Y-35079904D02*
X68163119Y-34889428D01*
X68163119Y-34889428D02*
X68210738Y-34841809D01*
X68210738Y-34841809D02*
X68258357Y-34817999D01*
X68258357Y-34817999D02*
X68353595Y-34794190D01*
X68353595Y-34794190D02*
X68496452Y-34794190D01*
X68496452Y-34794190D02*
X68591690Y-34817999D01*
X68591690Y-34817999D02*
X68639309Y-34841809D01*
X68639309Y-34841809D02*
X68686928Y-34889428D01*
X68686928Y-34889428D02*
X68686928Y-35079904D01*
X68210738Y-34317999D02*
X68163119Y-34365618D01*
X68163119Y-34365618D02*
X68163119Y-34437047D01*
X68163119Y-34437047D02*
X68210738Y-34508475D01*
X68210738Y-34508475D02*
X68305976Y-34556094D01*
X68305976Y-34556094D02*
X68401214Y-34579904D01*
X68401214Y-34579904D02*
X68591690Y-34603713D01*
X68591690Y-34603713D02*
X68734547Y-34603713D01*
X68734547Y-34603713D02*
X68925023Y-34579904D01*
X68925023Y-34579904D02*
X69020261Y-34556094D01*
X69020261Y-34556094D02*
X69115500Y-34508475D01*
X69115500Y-34508475D02*
X69163119Y-34437047D01*
X69163119Y-34437047D02*
X69163119Y-34389428D01*
X69163119Y-34389428D02*
X69115500Y-34317999D01*
X69115500Y-34317999D02*
X69067880Y-34294190D01*
X69067880Y-34294190D02*
X68734547Y-34294190D01*
X68734547Y-34294190D02*
X68734547Y-34389428D01*
X68877404Y-34103713D02*
X68877404Y-33865618D01*
X69163119Y-34151332D02*
X68163119Y-33984666D01*
X68163119Y-33984666D02*
X69163119Y-33817999D01*
X68163119Y-33722761D02*
X68163119Y-33437047D01*
X69163119Y-33579904D02*
X68163119Y-33579904D01*
X68639309Y-33270381D02*
X68639309Y-33103714D01*
X69163119Y-33032286D02*
X69163119Y-33270381D01*
X69163119Y-33270381D02*
X68163119Y-33270381D01*
X68163119Y-33270381D02*
X68163119Y-33032286D01*
D12*
X68120419Y-61863266D02*
X67644228Y-62196599D01*
X68120419Y-62434694D02*
X67120419Y-62434694D01*
X67120419Y-62434694D02*
X67120419Y-62053742D01*
X67120419Y-62053742D02*
X67168038Y-61958504D01*
X67168038Y-61958504D02*
X67215657Y-61910885D01*
X67215657Y-61910885D02*
X67310895Y-61863266D01*
X67310895Y-61863266D02*
X67453752Y-61863266D01*
X67453752Y-61863266D02*
X67548990Y-61910885D01*
X67548990Y-61910885D02*
X67596609Y-61958504D01*
X67596609Y-61958504D02*
X67644228Y-62053742D01*
X67644228Y-62053742D02*
X67644228Y-62434694D01*
X67215657Y-61482313D02*
X67168038Y-61434694D01*
X67168038Y-61434694D02*
X67120419Y-61339456D01*
X67120419Y-61339456D02*
X67120419Y-61101361D01*
X67120419Y-61101361D02*
X67168038Y-61006123D01*
X67168038Y-61006123D02*
X67215657Y-60958504D01*
X67215657Y-60958504D02*
X67310895Y-60910885D01*
X67310895Y-60910885D02*
X67406133Y-60910885D01*
X67406133Y-60910885D02*
X67548990Y-60958504D01*
X67548990Y-60958504D02*
X68120419Y-61529932D01*
X68120419Y-61529932D02*
X68120419Y-60910885D01*
D13*
X78648809Y-45194595D02*
X78482143Y-44813642D01*
X78363095Y-45194595D02*
X78363095Y-44394595D01*
X78363095Y-44394595D02*
X78553571Y-44394595D01*
X78553571Y-44394595D02*
X78601190Y-44432690D01*
X78601190Y-44432690D02*
X78625000Y-44470785D01*
X78625000Y-44470785D02*
X78648809Y-44546976D01*
X78648809Y-44546976D02*
X78648809Y-44661261D01*
X78648809Y-44661261D02*
X78625000Y-44737452D01*
X78625000Y-44737452D02*
X78601190Y-44775547D01*
X78601190Y-44775547D02*
X78553571Y-44813642D01*
X78553571Y-44813642D02*
X78363095Y-44813642D01*
X79125000Y-44432690D02*
X79077381Y-44394595D01*
X79077381Y-44394595D02*
X79005952Y-44394595D01*
X79005952Y-44394595D02*
X78934524Y-44432690D01*
X78934524Y-44432690D02*
X78886905Y-44508880D01*
X78886905Y-44508880D02*
X78863095Y-44585071D01*
X78863095Y-44585071D02*
X78839286Y-44737452D01*
X78839286Y-44737452D02*
X78839286Y-44851738D01*
X78839286Y-44851738D02*
X78863095Y-45004119D01*
X78863095Y-45004119D02*
X78886905Y-45080309D01*
X78886905Y-45080309D02*
X78934524Y-45156500D01*
X78934524Y-45156500D02*
X79005952Y-45194595D01*
X79005952Y-45194595D02*
X79053571Y-45194595D01*
X79053571Y-45194595D02*
X79125000Y-45156500D01*
X79125000Y-45156500D02*
X79148809Y-45118404D01*
X79148809Y-45118404D02*
X79148809Y-44851738D01*
X79148809Y-44851738D02*
X79053571Y-44851738D01*
X79339286Y-44966023D02*
X79577381Y-44966023D01*
X79291667Y-45194595D02*
X79458333Y-44394595D01*
X79458333Y-44394595D02*
X79625000Y-45194595D01*
X79720238Y-44394595D02*
X80005952Y-44394595D01*
X79863095Y-45194595D02*
X79863095Y-44394595D01*
X80172618Y-44775547D02*
X80339285Y-44775547D01*
X80410713Y-45194595D02*
X80172618Y-45194595D01*
X80172618Y-45194595D02*
X80172618Y-44394595D01*
X80172618Y-44394595D02*
X80410713Y-44394595D01*
D12*
X85824761Y-39450057D02*
X85729523Y-39402438D01*
X85729523Y-39402438D02*
X85634285Y-39307200D01*
X85634285Y-39307200D02*
X85491428Y-39164342D01*
X85491428Y-39164342D02*
X85396190Y-39116723D01*
X85396190Y-39116723D02*
X85300952Y-39116723D01*
X85348571Y-39354819D02*
X85253333Y-39307200D01*
X85253333Y-39307200D02*
X85158095Y-39211961D01*
X85158095Y-39211961D02*
X85110476Y-39021485D01*
X85110476Y-39021485D02*
X85110476Y-38688152D01*
X85110476Y-38688152D02*
X85158095Y-38497676D01*
X85158095Y-38497676D02*
X85253333Y-38402438D01*
X85253333Y-38402438D02*
X85348571Y-38354819D01*
X85348571Y-38354819D02*
X85539047Y-38354819D01*
X85539047Y-38354819D02*
X85634285Y-38402438D01*
X85634285Y-38402438D02*
X85729523Y-38497676D01*
X85729523Y-38497676D02*
X85777142Y-38688152D01*
X85777142Y-38688152D02*
X85777142Y-39021485D01*
X85777142Y-39021485D02*
X85729523Y-39211961D01*
X85729523Y-39211961D02*
X85634285Y-39307200D01*
X85634285Y-39307200D02*
X85539047Y-39354819D01*
X85539047Y-39354819D02*
X85348571Y-39354819D01*
X86634285Y-38688152D02*
X86634285Y-39354819D01*
X86396190Y-38307200D02*
X86158095Y-39021485D01*
X86158095Y-39021485D02*
X86777142Y-39021485D01*
X65224819Y-61914066D02*
X64748628Y-62247399D01*
X65224819Y-62485494D02*
X64224819Y-62485494D01*
X64224819Y-62485494D02*
X64224819Y-62104542D01*
X64224819Y-62104542D02*
X64272438Y-62009304D01*
X64272438Y-62009304D02*
X64320057Y-61961685D01*
X64320057Y-61961685D02*
X64415295Y-61914066D01*
X64415295Y-61914066D02*
X64558152Y-61914066D01*
X64558152Y-61914066D02*
X64653390Y-61961685D01*
X64653390Y-61961685D02*
X64701009Y-62009304D01*
X64701009Y-62009304D02*
X64748628Y-62104542D01*
X64748628Y-62104542D02*
X64748628Y-62485494D01*
X65224819Y-60961685D02*
X65224819Y-61533113D01*
X65224819Y-61247399D02*
X64224819Y-61247399D01*
X64224819Y-61247399D02*
X64367676Y-61342637D01*
X64367676Y-61342637D02*
X64462914Y-61437875D01*
X64462914Y-61437875D02*
X64510533Y-61533113D01*
X67968019Y-52579494D02*
X66968019Y-52579494D01*
X66968019Y-52579494D02*
X66968019Y-52341399D01*
X66968019Y-52341399D02*
X67015638Y-52198542D01*
X67015638Y-52198542D02*
X67110876Y-52103304D01*
X67110876Y-52103304D02*
X67206114Y-52055685D01*
X67206114Y-52055685D02*
X67396590Y-52008066D01*
X67396590Y-52008066D02*
X67539447Y-52008066D01*
X67539447Y-52008066D02*
X67729923Y-52055685D01*
X67729923Y-52055685D02*
X67825161Y-52103304D01*
X67825161Y-52103304D02*
X67920400Y-52198542D01*
X67920400Y-52198542D02*
X67968019Y-52341399D01*
X67968019Y-52341399D02*
X67968019Y-52579494D01*
X67301352Y-51150923D02*
X67968019Y-51150923D01*
X66920400Y-51389018D02*
X67634685Y-51627113D01*
X67634685Y-51627113D02*
X67634685Y-51008066D01*
X88820666Y-48095819D02*
X88820666Y-48810104D01*
X88820666Y-48810104D02*
X88773047Y-48952961D01*
X88773047Y-48952961D02*
X88677809Y-49048200D01*
X88677809Y-49048200D02*
X88534952Y-49095819D01*
X88534952Y-49095819D02*
X88439714Y-49095819D01*
X89725428Y-48429152D02*
X89725428Y-49095819D01*
X89487333Y-48048200D02*
X89249238Y-48762485D01*
X89249238Y-48762485D02*
X89868285Y-48762485D01*
X90132819Y-23066333D02*
X90847104Y-23066333D01*
X90847104Y-23066333D02*
X90989961Y-23113952D01*
X90989961Y-23113952D02*
X91085200Y-23209190D01*
X91085200Y-23209190D02*
X91132819Y-23352047D01*
X91132819Y-23352047D02*
X91132819Y-23447285D01*
X91132819Y-22066333D02*
X91132819Y-22637761D01*
X91132819Y-22352047D02*
X90132819Y-22352047D01*
X90132819Y-22352047D02*
X90275676Y-22447285D01*
X90275676Y-22447285D02*
X90370914Y-22542523D01*
X90370914Y-22542523D02*
X90418533Y-22637761D01*
D13*
X63579475Y-35288595D02*
X63412809Y-34907642D01*
X63293761Y-35288595D02*
X63293761Y-34488595D01*
X63293761Y-34488595D02*
X63484237Y-34488595D01*
X63484237Y-34488595D02*
X63531856Y-34526690D01*
X63531856Y-34526690D02*
X63555666Y-34564785D01*
X63555666Y-34564785D02*
X63579475Y-34640976D01*
X63579475Y-34640976D02*
X63579475Y-34755261D01*
X63579475Y-34755261D02*
X63555666Y-34831452D01*
X63555666Y-34831452D02*
X63531856Y-34869547D01*
X63531856Y-34869547D02*
X63484237Y-34907642D01*
X63484237Y-34907642D02*
X63293761Y-34907642D01*
X63960428Y-34869547D02*
X64031856Y-34907642D01*
X64031856Y-34907642D02*
X64055666Y-34945738D01*
X64055666Y-34945738D02*
X64079475Y-35021928D01*
X64079475Y-35021928D02*
X64079475Y-35136214D01*
X64079475Y-35136214D02*
X64055666Y-35212404D01*
X64055666Y-35212404D02*
X64031856Y-35250500D01*
X64031856Y-35250500D02*
X63984237Y-35288595D01*
X63984237Y-35288595D02*
X63793761Y-35288595D01*
X63793761Y-35288595D02*
X63793761Y-34488595D01*
X63793761Y-34488595D02*
X63960428Y-34488595D01*
X63960428Y-34488595D02*
X64008047Y-34526690D01*
X64008047Y-34526690D02*
X64031856Y-34564785D01*
X64031856Y-34564785D02*
X64055666Y-34640976D01*
X64055666Y-34640976D02*
X64055666Y-34717166D01*
X64055666Y-34717166D02*
X64031856Y-34793357D01*
X64031856Y-34793357D02*
X64008047Y-34831452D01*
X64008047Y-34831452D02*
X63960428Y-34869547D01*
X63960428Y-34869547D02*
X63793761Y-34869547D01*
X64388999Y-34488595D02*
X64484237Y-34488595D01*
X64484237Y-34488595D02*
X64531856Y-34526690D01*
X64531856Y-34526690D02*
X64579475Y-34602880D01*
X64579475Y-34602880D02*
X64603285Y-34755261D01*
X64603285Y-34755261D02*
X64603285Y-35021928D01*
X64603285Y-35021928D02*
X64579475Y-35174309D01*
X64579475Y-35174309D02*
X64531856Y-35250500D01*
X64531856Y-35250500D02*
X64484237Y-35288595D01*
X64484237Y-35288595D02*
X64388999Y-35288595D01*
X64388999Y-35288595D02*
X64341380Y-35250500D01*
X64341380Y-35250500D02*
X64293761Y-35174309D01*
X64293761Y-35174309D02*
X64269952Y-35021928D01*
X64269952Y-35021928D02*
X64269952Y-34755261D01*
X64269952Y-34755261D02*
X64293761Y-34602880D01*
X64293761Y-34602880D02*
X64341380Y-34526690D01*
X64341380Y-34526690D02*
X64388999Y-34488595D01*
X64912809Y-34488595D02*
X65008047Y-34488595D01*
X65008047Y-34488595D02*
X65055666Y-34526690D01*
X65055666Y-34526690D02*
X65103285Y-34602880D01*
X65103285Y-34602880D02*
X65127095Y-34755261D01*
X65127095Y-34755261D02*
X65127095Y-35021928D01*
X65127095Y-35021928D02*
X65103285Y-35174309D01*
X65103285Y-35174309D02*
X65055666Y-35250500D01*
X65055666Y-35250500D02*
X65008047Y-35288595D01*
X65008047Y-35288595D02*
X64912809Y-35288595D01*
X64912809Y-35288595D02*
X64865190Y-35250500D01*
X64865190Y-35250500D02*
X64817571Y-35174309D01*
X64817571Y-35174309D02*
X64793762Y-35021928D01*
X64793762Y-35021928D02*
X64793762Y-34755261D01*
X64793762Y-34755261D02*
X64817571Y-34602880D01*
X64817571Y-34602880D02*
X64865190Y-34526690D01*
X64865190Y-34526690D02*
X64912809Y-34488595D01*
X65269953Y-34488595D02*
X65555667Y-34488595D01*
X65412810Y-35288595D02*
X65412810Y-34488595D01*
D12*
X66602780Y-47740866D02*
X66650400Y-47788485D01*
X66650400Y-47788485D02*
X66698019Y-47931342D01*
X66698019Y-47931342D02*
X66698019Y-48026580D01*
X66698019Y-48026580D02*
X66650400Y-48169437D01*
X66650400Y-48169437D02*
X66555161Y-48264675D01*
X66555161Y-48264675D02*
X66459923Y-48312294D01*
X66459923Y-48312294D02*
X66269447Y-48359913D01*
X66269447Y-48359913D02*
X66126590Y-48359913D01*
X66126590Y-48359913D02*
X65936114Y-48312294D01*
X65936114Y-48312294D02*
X65840876Y-48264675D01*
X65840876Y-48264675D02*
X65745638Y-48169437D01*
X65745638Y-48169437D02*
X65698019Y-48026580D01*
X65698019Y-48026580D02*
X65698019Y-47931342D01*
X65698019Y-47931342D02*
X65745638Y-47788485D01*
X65745638Y-47788485D02*
X65793257Y-47740866D01*
X65793257Y-47359913D02*
X65745638Y-47312294D01*
X65745638Y-47312294D02*
X65698019Y-47217056D01*
X65698019Y-47217056D02*
X65698019Y-46978961D01*
X65698019Y-46978961D02*
X65745638Y-46883723D01*
X65745638Y-46883723D02*
X65793257Y-46836104D01*
X65793257Y-46836104D02*
X65888495Y-46788485D01*
X65888495Y-46788485D02*
X65983733Y-46788485D01*
X65983733Y-46788485D02*
X66126590Y-46836104D01*
X66126590Y-46836104D02*
X66698019Y-47407532D01*
X66698019Y-47407532D02*
X66698019Y-46788485D01*
X74114819Y-62015666D02*
X73638628Y-62348999D01*
X74114819Y-62587094D02*
X73114819Y-62587094D01*
X73114819Y-62587094D02*
X73114819Y-62206142D01*
X73114819Y-62206142D02*
X73162438Y-62110904D01*
X73162438Y-62110904D02*
X73210057Y-62063285D01*
X73210057Y-62063285D02*
X73305295Y-62015666D01*
X73305295Y-62015666D02*
X73448152Y-62015666D01*
X73448152Y-62015666D02*
X73543390Y-62063285D01*
X73543390Y-62063285D02*
X73591009Y-62110904D01*
X73591009Y-62110904D02*
X73638628Y-62206142D01*
X73638628Y-62206142D02*
X73638628Y-62587094D01*
X73448152Y-61158523D02*
X74114819Y-61158523D01*
X73067200Y-61396618D02*
X73781485Y-61634713D01*
X73781485Y-61634713D02*
X73781485Y-61015666D01*
X66399580Y-24360047D02*
X66447200Y-24407666D01*
X66447200Y-24407666D02*
X66494819Y-24550523D01*
X66494819Y-24550523D02*
X66494819Y-24645761D01*
X66494819Y-24645761D02*
X66447200Y-24788618D01*
X66447200Y-24788618D02*
X66351961Y-24883856D01*
X66351961Y-24883856D02*
X66256723Y-24931475D01*
X66256723Y-24931475D02*
X66066247Y-24979094D01*
X66066247Y-24979094D02*
X65923390Y-24979094D01*
X65923390Y-24979094D02*
X65732914Y-24931475D01*
X65732914Y-24931475D02*
X65637676Y-24883856D01*
X65637676Y-24883856D02*
X65542438Y-24788618D01*
X65542438Y-24788618D02*
X65494819Y-24645761D01*
X65494819Y-24645761D02*
X65494819Y-24550523D01*
X65494819Y-24550523D02*
X65542438Y-24407666D01*
X65542438Y-24407666D02*
X65590057Y-24360047D01*
X65542438Y-23407666D02*
X65494819Y-23502904D01*
X65494819Y-23502904D02*
X65494819Y-23645761D01*
X65494819Y-23645761D02*
X65542438Y-23788618D01*
X65542438Y-23788618D02*
X65637676Y-23883856D01*
X65637676Y-23883856D02*
X65732914Y-23931475D01*
X65732914Y-23931475D02*
X65923390Y-23979094D01*
X65923390Y-23979094D02*
X66066247Y-23979094D01*
X66066247Y-23979094D02*
X66256723Y-23931475D01*
X66256723Y-23931475D02*
X66351961Y-23883856D01*
X66351961Y-23883856D02*
X66447200Y-23788618D01*
X66447200Y-23788618D02*
X66494819Y-23645761D01*
X66494819Y-23645761D02*
X66494819Y-23550523D01*
X66494819Y-23550523D02*
X66447200Y-23407666D01*
X66447200Y-23407666D02*
X66399580Y-23360047D01*
X66399580Y-23360047D02*
X66066247Y-23360047D01*
X66066247Y-23360047D02*
X66066247Y-23550523D01*
X65494819Y-23074332D02*
X66494819Y-22740999D01*
X66494819Y-22740999D02*
X65494819Y-22407666D01*
X66494819Y-22074332D02*
X65494819Y-22074332D01*
X65494819Y-22074332D02*
X65494819Y-21836237D01*
X65494819Y-21836237D02*
X65542438Y-21693380D01*
X65542438Y-21693380D02*
X65637676Y-21598142D01*
X65637676Y-21598142D02*
X65732914Y-21550523D01*
X65732914Y-21550523D02*
X65923390Y-21502904D01*
X65923390Y-21502904D02*
X66066247Y-21502904D01*
X66066247Y-21502904D02*
X66256723Y-21550523D01*
X66256723Y-21550523D02*
X66351961Y-21598142D01*
X66351961Y-21598142D02*
X66447200Y-21693380D01*
X66447200Y-21693380D02*
X66494819Y-21836237D01*
X66494819Y-21836237D02*
X66494819Y-22074332D01*
X68805695Y-49606419D02*
X68805695Y-50415942D01*
X68805695Y-50415942D02*
X68853314Y-50511180D01*
X68853314Y-50511180D02*
X68900933Y-50558800D01*
X68900933Y-50558800D02*
X68996171Y-50606419D01*
X68996171Y-50606419D02*
X69186647Y-50606419D01*
X69186647Y-50606419D02*
X69281885Y-50558800D01*
X69281885Y-50558800D02*
X69329504Y-50511180D01*
X69329504Y-50511180D02*
X69377123Y-50415942D01*
X69377123Y-50415942D02*
X69377123Y-49606419D01*
X69805695Y-49701657D02*
X69853314Y-49654038D01*
X69853314Y-49654038D02*
X69948552Y-49606419D01*
X69948552Y-49606419D02*
X70186647Y-49606419D01*
X70186647Y-49606419D02*
X70281885Y-49654038D01*
X70281885Y-49654038D02*
X70329504Y-49701657D01*
X70329504Y-49701657D02*
X70377123Y-49796895D01*
X70377123Y-49796895D02*
X70377123Y-49892133D01*
X70377123Y-49892133D02*
X70329504Y-50034990D01*
X70329504Y-50034990D02*
X69758076Y-50606419D01*
X69758076Y-50606419D02*
X70377123Y-50606419D01*
X65072419Y-52579494D02*
X64072419Y-52579494D01*
X64072419Y-52579494D02*
X64072419Y-52341399D01*
X64072419Y-52341399D02*
X64120038Y-52198542D01*
X64120038Y-52198542D02*
X64215276Y-52103304D01*
X64215276Y-52103304D02*
X64310514Y-52055685D01*
X64310514Y-52055685D02*
X64500990Y-52008066D01*
X64500990Y-52008066D02*
X64643847Y-52008066D01*
X64643847Y-52008066D02*
X64834323Y-52055685D01*
X64834323Y-52055685D02*
X64929561Y-52103304D01*
X64929561Y-52103304D02*
X65024800Y-52198542D01*
X65024800Y-52198542D02*
X65072419Y-52341399D01*
X65072419Y-52341399D02*
X65072419Y-52579494D01*
X64072419Y-51674732D02*
X64072419Y-51055685D01*
X64072419Y-51055685D02*
X64453371Y-51389018D01*
X64453371Y-51389018D02*
X64453371Y-51246161D01*
X64453371Y-51246161D02*
X64500990Y-51150923D01*
X64500990Y-51150923D02*
X64548609Y-51103304D01*
X64548609Y-51103304D02*
X64643847Y-51055685D01*
X64643847Y-51055685D02*
X64881942Y-51055685D01*
X64881942Y-51055685D02*
X64977180Y-51103304D01*
X64977180Y-51103304D02*
X65024800Y-51150923D01*
X65024800Y-51150923D02*
X65072419Y-51246161D01*
X65072419Y-51246161D02*
X65072419Y-51531875D01*
X65072419Y-51531875D02*
X65024800Y-51627113D01*
X65024800Y-51627113D02*
X64977180Y-51674732D01*
X61539618Y-41475819D02*
X61206285Y-40999628D01*
X60968190Y-41475819D02*
X60968190Y-40475819D01*
X60968190Y-40475819D02*
X61349142Y-40475819D01*
X61349142Y-40475819D02*
X61444380Y-40523438D01*
X61444380Y-40523438D02*
X61491999Y-40571057D01*
X61491999Y-40571057D02*
X61539618Y-40666295D01*
X61539618Y-40666295D02*
X61539618Y-40809152D01*
X61539618Y-40809152D02*
X61491999Y-40904390D01*
X61491999Y-40904390D02*
X61444380Y-40952009D01*
X61444380Y-40952009D02*
X61349142Y-40999628D01*
X61349142Y-40999628D02*
X60968190Y-40999628D01*
X62491999Y-40523438D02*
X62396761Y-40475819D01*
X62396761Y-40475819D02*
X62253904Y-40475819D01*
X62253904Y-40475819D02*
X62111047Y-40523438D01*
X62111047Y-40523438D02*
X62015809Y-40618676D01*
X62015809Y-40618676D02*
X61968190Y-40713914D01*
X61968190Y-40713914D02*
X61920571Y-40904390D01*
X61920571Y-40904390D02*
X61920571Y-41047247D01*
X61920571Y-41047247D02*
X61968190Y-41237723D01*
X61968190Y-41237723D02*
X62015809Y-41332961D01*
X62015809Y-41332961D02*
X62111047Y-41428200D01*
X62111047Y-41428200D02*
X62253904Y-41475819D01*
X62253904Y-41475819D02*
X62349142Y-41475819D01*
X62349142Y-41475819D02*
X62491999Y-41428200D01*
X62491999Y-41428200D02*
X62539618Y-41380580D01*
X62539618Y-41380580D02*
X62539618Y-41047247D01*
X62539618Y-41047247D02*
X62349142Y-41047247D01*
X62920571Y-41190104D02*
X63396761Y-41190104D01*
X62825333Y-41475819D02*
X63158666Y-40475819D01*
X63158666Y-40475819D02*
X63491999Y-41475819D01*
X63682476Y-40475819D02*
X64253904Y-40475819D01*
X63968190Y-41475819D02*
X63968190Y-40475819D01*
X64587238Y-40952009D02*
X64920571Y-40952009D01*
X65063428Y-41475819D02*
X64587238Y-41475819D01*
X64587238Y-41475819D02*
X64587238Y-40475819D01*
X64587238Y-40475819D02*
X65063428Y-40475819D01*
X62075219Y-61914066D02*
X61599028Y-62247399D01*
X62075219Y-62485494D02*
X61075219Y-62485494D01*
X61075219Y-62485494D02*
X61075219Y-62104542D01*
X61075219Y-62104542D02*
X61122838Y-62009304D01*
X61122838Y-62009304D02*
X61170457Y-61961685D01*
X61170457Y-61961685D02*
X61265695Y-61914066D01*
X61265695Y-61914066D02*
X61408552Y-61914066D01*
X61408552Y-61914066D02*
X61503790Y-61961685D01*
X61503790Y-61961685D02*
X61551409Y-62009304D01*
X61551409Y-62009304D02*
X61599028Y-62104542D01*
X61599028Y-62104542D02*
X61599028Y-62485494D01*
X61075219Y-61056923D02*
X61075219Y-61247399D01*
X61075219Y-61247399D02*
X61122838Y-61342637D01*
X61122838Y-61342637D02*
X61170457Y-61390256D01*
X61170457Y-61390256D02*
X61313314Y-61485494D01*
X61313314Y-61485494D02*
X61503790Y-61533113D01*
X61503790Y-61533113D02*
X61884742Y-61533113D01*
X61884742Y-61533113D02*
X61979980Y-61485494D01*
X61979980Y-61485494D02*
X62027600Y-61437875D01*
X62027600Y-61437875D02*
X62075219Y-61342637D01*
X62075219Y-61342637D02*
X62075219Y-61152161D01*
X62075219Y-61152161D02*
X62027600Y-61056923D01*
X62027600Y-61056923D02*
X61979980Y-61009304D01*
X61979980Y-61009304D02*
X61884742Y-60961685D01*
X61884742Y-60961685D02*
X61646647Y-60961685D01*
X61646647Y-60961685D02*
X61551409Y-61009304D01*
X61551409Y-61009304D02*
X61503790Y-61056923D01*
X61503790Y-61056923D02*
X61456171Y-61152161D01*
X61456171Y-61152161D02*
X61456171Y-61342637D01*
X61456171Y-61342637D02*
X61503790Y-61437875D01*
X61503790Y-61437875D02*
X61551409Y-61485494D01*
X61551409Y-61485494D02*
X61646647Y-61533113D01*
X74216419Y-52630294D02*
X73216419Y-52630294D01*
X73216419Y-52630294D02*
X73216419Y-52392199D01*
X73216419Y-52392199D02*
X73264038Y-52249342D01*
X73264038Y-52249342D02*
X73359276Y-52154104D01*
X73359276Y-52154104D02*
X73454514Y-52106485D01*
X73454514Y-52106485D02*
X73644990Y-52058866D01*
X73644990Y-52058866D02*
X73787847Y-52058866D01*
X73787847Y-52058866D02*
X73978323Y-52106485D01*
X73978323Y-52106485D02*
X74073561Y-52154104D01*
X74073561Y-52154104D02*
X74168800Y-52249342D01*
X74168800Y-52249342D02*
X74216419Y-52392199D01*
X74216419Y-52392199D02*
X74216419Y-52630294D01*
X73216419Y-51201723D02*
X73216419Y-51392199D01*
X73216419Y-51392199D02*
X73264038Y-51487437D01*
X73264038Y-51487437D02*
X73311657Y-51535056D01*
X73311657Y-51535056D02*
X73454514Y-51630294D01*
X73454514Y-51630294D02*
X73644990Y-51677913D01*
X73644990Y-51677913D02*
X74025942Y-51677913D01*
X74025942Y-51677913D02*
X74121180Y-51630294D01*
X74121180Y-51630294D02*
X74168800Y-51582675D01*
X74168800Y-51582675D02*
X74216419Y-51487437D01*
X74216419Y-51487437D02*
X74216419Y-51296961D01*
X74216419Y-51296961D02*
X74168800Y-51201723D01*
X74168800Y-51201723D02*
X74121180Y-51154104D01*
X74121180Y-51154104D02*
X74025942Y-51106485D01*
X74025942Y-51106485D02*
X73787847Y-51106485D01*
X73787847Y-51106485D02*
X73692609Y-51154104D01*
X73692609Y-51154104D02*
X73644990Y-51201723D01*
X73644990Y-51201723D02*
X73597371Y-51296961D01*
X73597371Y-51296961D02*
X73597371Y-51487437D01*
X73597371Y-51487437D02*
X73644990Y-51582675D01*
X73644990Y-51582675D02*
X73692609Y-51630294D01*
X73692609Y-51630294D02*
X73787847Y-51677913D01*
X85784761Y-32490057D02*
X85689523Y-32442438D01*
X85689523Y-32442438D02*
X85594285Y-32347200D01*
X85594285Y-32347200D02*
X85451428Y-32204342D01*
X85451428Y-32204342D02*
X85356190Y-32156723D01*
X85356190Y-32156723D02*
X85260952Y-32156723D01*
X85308571Y-32394819D02*
X85213333Y-32347200D01*
X85213333Y-32347200D02*
X85118095Y-32251961D01*
X85118095Y-32251961D02*
X85070476Y-32061485D01*
X85070476Y-32061485D02*
X85070476Y-31728152D01*
X85070476Y-31728152D02*
X85118095Y-31537676D01*
X85118095Y-31537676D02*
X85213333Y-31442438D01*
X85213333Y-31442438D02*
X85308571Y-31394819D01*
X85308571Y-31394819D02*
X85499047Y-31394819D01*
X85499047Y-31394819D02*
X85594285Y-31442438D01*
X85594285Y-31442438D02*
X85689523Y-31537676D01*
X85689523Y-31537676D02*
X85737142Y-31728152D01*
X85737142Y-31728152D02*
X85737142Y-32061485D01*
X85737142Y-32061485D02*
X85689523Y-32251961D01*
X85689523Y-32251961D02*
X85594285Y-32347200D01*
X85594285Y-32347200D02*
X85499047Y-32394819D01*
X85499047Y-32394819D02*
X85308571Y-32394819D01*
X86118095Y-31490057D02*
X86165714Y-31442438D01*
X86165714Y-31442438D02*
X86260952Y-31394819D01*
X86260952Y-31394819D02*
X86499047Y-31394819D01*
X86499047Y-31394819D02*
X86594285Y-31442438D01*
X86594285Y-31442438D02*
X86641904Y-31490057D01*
X86641904Y-31490057D02*
X86689523Y-31585295D01*
X86689523Y-31585295D02*
X86689523Y-31680533D01*
X86689523Y-31680533D02*
X86641904Y-31823390D01*
X86641904Y-31823390D02*
X86070476Y-32394819D01*
X86070476Y-32394819D02*
X86689523Y-32394819D01*
X54867980Y-37784066D02*
X54915600Y-37831685D01*
X54915600Y-37831685D02*
X54963219Y-37974542D01*
X54963219Y-37974542D02*
X54963219Y-38069780D01*
X54963219Y-38069780D02*
X54915600Y-38212637D01*
X54915600Y-38212637D02*
X54820361Y-38307875D01*
X54820361Y-38307875D02*
X54725123Y-38355494D01*
X54725123Y-38355494D02*
X54534647Y-38403113D01*
X54534647Y-38403113D02*
X54391790Y-38403113D01*
X54391790Y-38403113D02*
X54201314Y-38355494D01*
X54201314Y-38355494D02*
X54106076Y-38307875D01*
X54106076Y-38307875D02*
X54010838Y-38212637D01*
X54010838Y-38212637D02*
X53963219Y-38069780D01*
X53963219Y-38069780D02*
X53963219Y-37974542D01*
X53963219Y-37974542D02*
X54010838Y-37831685D01*
X54010838Y-37831685D02*
X54058457Y-37784066D01*
X54963219Y-36831685D02*
X54963219Y-37403113D01*
X54963219Y-37117399D02*
X53963219Y-37117399D01*
X53963219Y-37117399D02*
X54106076Y-37212637D01*
X54106076Y-37212637D02*
X54201314Y-37307875D01*
X54201314Y-37307875D02*
X54248933Y-37403113D01*
X79827618Y-51437819D02*
X79494285Y-50961628D01*
X79256190Y-51437819D02*
X79256190Y-50437819D01*
X79256190Y-50437819D02*
X79637142Y-50437819D01*
X79637142Y-50437819D02*
X79732380Y-50485438D01*
X79732380Y-50485438D02*
X79779999Y-50533057D01*
X79779999Y-50533057D02*
X79827618Y-50628295D01*
X79827618Y-50628295D02*
X79827618Y-50771152D01*
X79827618Y-50771152D02*
X79779999Y-50866390D01*
X79779999Y-50866390D02*
X79732380Y-50914009D01*
X79732380Y-50914009D02*
X79637142Y-50961628D01*
X79637142Y-50961628D02*
X79256190Y-50961628D01*
X80779999Y-50485438D02*
X80684761Y-50437819D01*
X80684761Y-50437819D02*
X80541904Y-50437819D01*
X80541904Y-50437819D02*
X80399047Y-50485438D01*
X80399047Y-50485438D02*
X80303809Y-50580676D01*
X80303809Y-50580676D02*
X80256190Y-50675914D01*
X80256190Y-50675914D02*
X80208571Y-50866390D01*
X80208571Y-50866390D02*
X80208571Y-51009247D01*
X80208571Y-51009247D02*
X80256190Y-51199723D01*
X80256190Y-51199723D02*
X80303809Y-51294961D01*
X80303809Y-51294961D02*
X80399047Y-51390200D01*
X80399047Y-51390200D02*
X80541904Y-51437819D01*
X80541904Y-51437819D02*
X80637142Y-51437819D01*
X80637142Y-51437819D02*
X80779999Y-51390200D01*
X80779999Y-51390200D02*
X80827618Y-51342580D01*
X80827618Y-51342580D02*
X80827618Y-51009247D01*
X80827618Y-51009247D02*
X80637142Y-51009247D01*
X81208571Y-51152104D02*
X81684761Y-51152104D01*
X81113333Y-51437819D02*
X81446666Y-50437819D01*
X81446666Y-50437819D02*
X81779999Y-51437819D01*
X81970476Y-50437819D02*
X82541904Y-50437819D01*
X82256190Y-51437819D02*
X82256190Y-50437819D01*
X82875238Y-50914009D02*
X83208571Y-50914009D01*
X83351428Y-51437819D02*
X82875238Y-51437819D01*
X82875238Y-51437819D02*
X82875238Y-50437819D01*
X82875238Y-50437819D02*
X83351428Y-50437819D01*
X59317143Y-40205819D02*
X59317143Y-39205819D01*
X59317143Y-39205819D02*
X59495714Y-39205819D01*
X59495714Y-39205819D02*
X59602857Y-39253438D01*
X59602857Y-39253438D02*
X59674286Y-39348676D01*
X59674286Y-39348676D02*
X59710000Y-39443914D01*
X59710000Y-39443914D02*
X59745714Y-39634390D01*
X59745714Y-39634390D02*
X59745714Y-39777247D01*
X59745714Y-39777247D02*
X59710000Y-39967723D01*
X59710000Y-39967723D02*
X59674286Y-40062961D01*
X59674286Y-40062961D02*
X59602857Y-40158200D01*
X59602857Y-40158200D02*
X59495714Y-40205819D01*
X59495714Y-40205819D02*
X59317143Y-40205819D01*
X60317143Y-39682009D02*
X60424286Y-39729628D01*
X60424286Y-39729628D02*
X60460000Y-39777247D01*
X60460000Y-39777247D02*
X60495714Y-39872485D01*
X60495714Y-39872485D02*
X60495714Y-40015342D01*
X60495714Y-40015342D02*
X60460000Y-40110580D01*
X60460000Y-40110580D02*
X60424286Y-40158200D01*
X60424286Y-40158200D02*
X60352857Y-40205819D01*
X60352857Y-40205819D02*
X60067143Y-40205819D01*
X60067143Y-40205819D02*
X60067143Y-39205819D01*
X60067143Y-39205819D02*
X60317143Y-39205819D01*
X60317143Y-39205819D02*
X60388572Y-39253438D01*
X60388572Y-39253438D02*
X60424286Y-39301057D01*
X60424286Y-39301057D02*
X60460000Y-39396295D01*
X60460000Y-39396295D02*
X60460000Y-39491533D01*
X60460000Y-39491533D02*
X60424286Y-39586771D01*
X60424286Y-39586771D02*
X60388572Y-39634390D01*
X60388572Y-39634390D02*
X60317143Y-39682009D01*
X60317143Y-39682009D02*
X60067143Y-39682009D01*
X60960000Y-39205819D02*
X61102857Y-39205819D01*
X61102857Y-39205819D02*
X61174286Y-39253438D01*
X61174286Y-39253438D02*
X61245714Y-39348676D01*
X61245714Y-39348676D02*
X61281429Y-39539152D01*
X61281429Y-39539152D02*
X61281429Y-39872485D01*
X61281429Y-39872485D02*
X61245714Y-40062961D01*
X61245714Y-40062961D02*
X61174286Y-40158200D01*
X61174286Y-40158200D02*
X61102857Y-40205819D01*
X61102857Y-40205819D02*
X60960000Y-40205819D01*
X60960000Y-40205819D02*
X60888572Y-40158200D01*
X60888572Y-40158200D02*
X60817143Y-40062961D01*
X60817143Y-40062961D02*
X60781429Y-39872485D01*
X60781429Y-39872485D02*
X60781429Y-39539152D01*
X60781429Y-39539152D02*
X60817143Y-39348676D01*
X60817143Y-39348676D02*
X60888572Y-39253438D01*
X60888572Y-39253438D02*
X60960000Y-39205819D01*
X61745714Y-39205819D02*
X61888571Y-39205819D01*
X61888571Y-39205819D02*
X61960000Y-39253438D01*
X61960000Y-39253438D02*
X62031428Y-39348676D01*
X62031428Y-39348676D02*
X62067143Y-39539152D01*
X62067143Y-39539152D02*
X62067143Y-39872485D01*
X62067143Y-39872485D02*
X62031428Y-40062961D01*
X62031428Y-40062961D02*
X61960000Y-40158200D01*
X61960000Y-40158200D02*
X61888571Y-40205819D01*
X61888571Y-40205819D02*
X61745714Y-40205819D01*
X61745714Y-40205819D02*
X61674286Y-40158200D01*
X61674286Y-40158200D02*
X61602857Y-40062961D01*
X61602857Y-40062961D02*
X61567143Y-39872485D01*
X61567143Y-39872485D02*
X61567143Y-39539152D01*
X61567143Y-39539152D02*
X61602857Y-39348676D01*
X61602857Y-39348676D02*
X61674286Y-39253438D01*
X61674286Y-39253438D02*
X61745714Y-39205819D01*
X62281428Y-39205819D02*
X62710000Y-39205819D01*
X62495714Y-40205819D02*
X62495714Y-39205819D01*
D13*
X75517475Y-43035595D02*
X75350809Y-42654642D01*
X75231761Y-43035595D02*
X75231761Y-42235595D01*
X75231761Y-42235595D02*
X75422237Y-42235595D01*
X75422237Y-42235595D02*
X75469856Y-42273690D01*
X75469856Y-42273690D02*
X75493666Y-42311785D01*
X75493666Y-42311785D02*
X75517475Y-42387976D01*
X75517475Y-42387976D02*
X75517475Y-42502261D01*
X75517475Y-42502261D02*
X75493666Y-42578452D01*
X75493666Y-42578452D02*
X75469856Y-42616547D01*
X75469856Y-42616547D02*
X75422237Y-42654642D01*
X75422237Y-42654642D02*
X75231761Y-42654642D01*
X75898428Y-42616547D02*
X75969856Y-42654642D01*
X75969856Y-42654642D02*
X75993666Y-42692738D01*
X75993666Y-42692738D02*
X76017475Y-42768928D01*
X76017475Y-42768928D02*
X76017475Y-42883214D01*
X76017475Y-42883214D02*
X75993666Y-42959404D01*
X75993666Y-42959404D02*
X75969856Y-42997500D01*
X75969856Y-42997500D02*
X75922237Y-43035595D01*
X75922237Y-43035595D02*
X75731761Y-43035595D01*
X75731761Y-43035595D02*
X75731761Y-42235595D01*
X75731761Y-42235595D02*
X75898428Y-42235595D01*
X75898428Y-42235595D02*
X75946047Y-42273690D01*
X75946047Y-42273690D02*
X75969856Y-42311785D01*
X75969856Y-42311785D02*
X75993666Y-42387976D01*
X75993666Y-42387976D02*
X75993666Y-42464166D01*
X75993666Y-42464166D02*
X75969856Y-42540357D01*
X75969856Y-42540357D02*
X75946047Y-42578452D01*
X75946047Y-42578452D02*
X75898428Y-42616547D01*
X75898428Y-42616547D02*
X75731761Y-42616547D01*
X76326999Y-42235595D02*
X76422237Y-42235595D01*
X76422237Y-42235595D02*
X76469856Y-42273690D01*
X76469856Y-42273690D02*
X76517475Y-42349880D01*
X76517475Y-42349880D02*
X76541285Y-42502261D01*
X76541285Y-42502261D02*
X76541285Y-42768928D01*
X76541285Y-42768928D02*
X76517475Y-42921309D01*
X76517475Y-42921309D02*
X76469856Y-42997500D01*
X76469856Y-42997500D02*
X76422237Y-43035595D01*
X76422237Y-43035595D02*
X76326999Y-43035595D01*
X76326999Y-43035595D02*
X76279380Y-42997500D01*
X76279380Y-42997500D02*
X76231761Y-42921309D01*
X76231761Y-42921309D02*
X76207952Y-42768928D01*
X76207952Y-42768928D02*
X76207952Y-42502261D01*
X76207952Y-42502261D02*
X76231761Y-42349880D01*
X76231761Y-42349880D02*
X76279380Y-42273690D01*
X76279380Y-42273690D02*
X76326999Y-42235595D01*
X76850809Y-42235595D02*
X76946047Y-42235595D01*
X76946047Y-42235595D02*
X76993666Y-42273690D01*
X76993666Y-42273690D02*
X77041285Y-42349880D01*
X77041285Y-42349880D02*
X77065095Y-42502261D01*
X77065095Y-42502261D02*
X77065095Y-42768928D01*
X77065095Y-42768928D02*
X77041285Y-42921309D01*
X77041285Y-42921309D02*
X76993666Y-42997500D01*
X76993666Y-42997500D02*
X76946047Y-43035595D01*
X76946047Y-43035595D02*
X76850809Y-43035595D01*
X76850809Y-43035595D02*
X76803190Y-42997500D01*
X76803190Y-42997500D02*
X76755571Y-42921309D01*
X76755571Y-42921309D02*
X76731762Y-42768928D01*
X76731762Y-42768928D02*
X76731762Y-42502261D01*
X76731762Y-42502261D02*
X76755571Y-42349880D01*
X76755571Y-42349880D02*
X76803190Y-42273690D01*
X76803190Y-42273690D02*
X76850809Y-42235595D01*
X77207953Y-42235595D02*
X77493667Y-42235595D01*
X77350810Y-43035595D02*
X77350810Y-42235595D01*
D12*
X54709219Y-34939266D02*
X54233028Y-35272599D01*
X54709219Y-35510694D02*
X53709219Y-35510694D01*
X53709219Y-35510694D02*
X53709219Y-35129742D01*
X53709219Y-35129742D02*
X53756838Y-35034504D01*
X53756838Y-35034504D02*
X53804457Y-34986885D01*
X53804457Y-34986885D02*
X53899695Y-34939266D01*
X53899695Y-34939266D02*
X54042552Y-34939266D01*
X54042552Y-34939266D02*
X54137790Y-34986885D01*
X54137790Y-34986885D02*
X54185409Y-35034504D01*
X54185409Y-35034504D02*
X54233028Y-35129742D01*
X54233028Y-35129742D02*
X54233028Y-35510694D01*
X53709219Y-34605932D02*
X53709219Y-33939266D01*
X53709219Y-33939266D02*
X54709219Y-34367837D01*
X71066819Y-62015666D02*
X70590628Y-62348999D01*
X71066819Y-62587094D02*
X70066819Y-62587094D01*
X70066819Y-62587094D02*
X70066819Y-62206142D01*
X70066819Y-62206142D02*
X70114438Y-62110904D01*
X70114438Y-62110904D02*
X70162057Y-62063285D01*
X70162057Y-62063285D02*
X70257295Y-62015666D01*
X70257295Y-62015666D02*
X70400152Y-62015666D01*
X70400152Y-62015666D02*
X70495390Y-62063285D01*
X70495390Y-62063285D02*
X70543009Y-62110904D01*
X70543009Y-62110904D02*
X70590628Y-62206142D01*
X70590628Y-62206142D02*
X70590628Y-62587094D01*
X70066819Y-61682332D02*
X70066819Y-61063285D01*
X70066819Y-61063285D02*
X70447771Y-61396618D01*
X70447771Y-61396618D02*
X70447771Y-61253761D01*
X70447771Y-61253761D02*
X70495390Y-61158523D01*
X70495390Y-61158523D02*
X70543009Y-61110904D01*
X70543009Y-61110904D02*
X70638247Y-61063285D01*
X70638247Y-61063285D02*
X70876342Y-61063285D01*
X70876342Y-61063285D02*
X70971580Y-61110904D01*
X70971580Y-61110904D02*
X71019200Y-61158523D01*
X71019200Y-61158523D02*
X71066819Y-61253761D01*
X71066819Y-61253761D02*
X71066819Y-61539475D01*
X71066819Y-61539475D02*
X71019200Y-61634713D01*
X71019200Y-61634713D02*
X70971580Y-61682332D01*
X65654133Y-45184219D02*
X65320800Y-44708028D01*
X65082705Y-45184219D02*
X65082705Y-44184219D01*
X65082705Y-44184219D02*
X65463657Y-44184219D01*
X65463657Y-44184219D02*
X65558895Y-44231838D01*
X65558895Y-44231838D02*
X65606514Y-44279457D01*
X65606514Y-44279457D02*
X65654133Y-44374695D01*
X65654133Y-44374695D02*
X65654133Y-44517552D01*
X65654133Y-44517552D02*
X65606514Y-44612790D01*
X65606514Y-44612790D02*
X65558895Y-44660409D01*
X65558895Y-44660409D02*
X65463657Y-44708028D01*
X65463657Y-44708028D02*
X65082705Y-44708028D01*
X66225562Y-44612790D02*
X66130324Y-44565171D01*
X66130324Y-44565171D02*
X66082705Y-44517552D01*
X66082705Y-44517552D02*
X66035086Y-44422314D01*
X66035086Y-44422314D02*
X66035086Y-44374695D01*
X66035086Y-44374695D02*
X66082705Y-44279457D01*
X66082705Y-44279457D02*
X66130324Y-44231838D01*
X66130324Y-44231838D02*
X66225562Y-44184219D01*
X66225562Y-44184219D02*
X66416038Y-44184219D01*
X66416038Y-44184219D02*
X66511276Y-44231838D01*
X66511276Y-44231838D02*
X66558895Y-44279457D01*
X66558895Y-44279457D02*
X66606514Y-44374695D01*
X66606514Y-44374695D02*
X66606514Y-44422314D01*
X66606514Y-44422314D02*
X66558895Y-44517552D01*
X66558895Y-44517552D02*
X66511276Y-44565171D01*
X66511276Y-44565171D02*
X66416038Y-44612790D01*
X66416038Y-44612790D02*
X66225562Y-44612790D01*
X66225562Y-44612790D02*
X66130324Y-44660409D01*
X66130324Y-44660409D02*
X66082705Y-44708028D01*
X66082705Y-44708028D02*
X66035086Y-44803266D01*
X66035086Y-44803266D02*
X66035086Y-44993742D01*
X66035086Y-44993742D02*
X66082705Y-45088980D01*
X66082705Y-45088980D02*
X66130324Y-45136600D01*
X66130324Y-45136600D02*
X66225562Y-45184219D01*
X66225562Y-45184219D02*
X66416038Y-45184219D01*
X66416038Y-45184219D02*
X66511276Y-45136600D01*
X66511276Y-45136600D02*
X66558895Y-45088980D01*
X66558895Y-45088980D02*
X66606514Y-44993742D01*
X66606514Y-44993742D02*
X66606514Y-44803266D01*
X66606514Y-44803266D02*
X66558895Y-44708028D01*
X66558895Y-44708028D02*
X66511276Y-44660409D01*
X66511276Y-44660409D02*
X66416038Y-44612790D01*
X62024419Y-52528694D02*
X61024419Y-52528694D01*
X61024419Y-52528694D02*
X61024419Y-52290599D01*
X61024419Y-52290599D02*
X61072038Y-52147742D01*
X61072038Y-52147742D02*
X61167276Y-52052504D01*
X61167276Y-52052504D02*
X61262514Y-52004885D01*
X61262514Y-52004885D02*
X61452990Y-51957266D01*
X61452990Y-51957266D02*
X61595847Y-51957266D01*
X61595847Y-51957266D02*
X61786323Y-52004885D01*
X61786323Y-52004885D02*
X61881561Y-52052504D01*
X61881561Y-52052504D02*
X61976800Y-52147742D01*
X61976800Y-52147742D02*
X62024419Y-52290599D01*
X62024419Y-52290599D02*
X62024419Y-52528694D01*
X61119657Y-51576313D02*
X61072038Y-51528694D01*
X61072038Y-51528694D02*
X61024419Y-51433456D01*
X61024419Y-51433456D02*
X61024419Y-51195361D01*
X61024419Y-51195361D02*
X61072038Y-51100123D01*
X61072038Y-51100123D02*
X61119657Y-51052504D01*
X61119657Y-51052504D02*
X61214895Y-51004885D01*
X61214895Y-51004885D02*
X61310133Y-51004885D01*
X61310133Y-51004885D02*
X61452990Y-51052504D01*
X61452990Y-51052504D02*
X62024419Y-51623932D01*
X62024419Y-51623932D02*
X62024419Y-51004885D01*
X77162819Y-62015666D02*
X76686628Y-62348999D01*
X77162819Y-62587094D02*
X76162819Y-62587094D01*
X76162819Y-62587094D02*
X76162819Y-62206142D01*
X76162819Y-62206142D02*
X76210438Y-62110904D01*
X76210438Y-62110904D02*
X76258057Y-62063285D01*
X76258057Y-62063285D02*
X76353295Y-62015666D01*
X76353295Y-62015666D02*
X76496152Y-62015666D01*
X76496152Y-62015666D02*
X76591390Y-62063285D01*
X76591390Y-62063285D02*
X76639009Y-62110904D01*
X76639009Y-62110904D02*
X76686628Y-62206142D01*
X76686628Y-62206142D02*
X76686628Y-62587094D01*
X76162819Y-61110904D02*
X76162819Y-61587094D01*
X76162819Y-61587094D02*
X76639009Y-61634713D01*
X76639009Y-61634713D02*
X76591390Y-61587094D01*
X76591390Y-61587094D02*
X76543771Y-61491856D01*
X76543771Y-61491856D02*
X76543771Y-61253761D01*
X76543771Y-61253761D02*
X76591390Y-61158523D01*
X76591390Y-61158523D02*
X76639009Y-61110904D01*
X76639009Y-61110904D02*
X76734247Y-61063285D01*
X76734247Y-61063285D02*
X76972342Y-61063285D01*
X76972342Y-61063285D02*
X77067580Y-61110904D01*
X77067580Y-61110904D02*
X77115200Y-61158523D01*
X77115200Y-61158523D02*
X77162819Y-61253761D01*
X77162819Y-61253761D02*
X77162819Y-61491856D01*
X77162819Y-61491856D02*
X77115200Y-61587094D01*
X77115200Y-61587094D02*
X77067580Y-61634713D01*
D14*
X91634000Y-49734000D02*
X92964000Y-49734000D01*
X91634000Y-51064000D02*
X91634000Y-49734000D01*
X91634000Y-52334000D02*
X91634000Y-60014000D01*
X91634000Y-52334000D02*
X94294000Y-52334000D01*
X91634000Y-60014000D02*
X94294000Y-60014000D01*
X94294000Y-52334000D02*
X94294000Y-60014000D01*
X52440000Y-31485000D02*
X53990000Y-31485000D01*
X53990000Y-33285000D02*
X52690000Y-33285000D01*
X67435000Y-27043767D02*
X67435000Y-26751233D01*
X68455000Y-27043767D02*
X68455000Y-26751233D01*
X77145000Y-51342000D02*
X79065000Y-51342000D01*
X79065000Y-51342000D02*
X79065000Y-48657000D01*
X77145000Y-48657000D02*
X77145000Y-51342000D01*
X62758000Y-35114000D02*
X62758000Y-31664000D01*
X62758000Y-35114000D02*
X62758000Y-37064000D01*
X57638000Y-35114000D02*
X57638000Y-33164000D01*
X57638000Y-35114000D02*
X57638000Y-37064000D01*
X82548000Y-45231267D02*
X82548000Y-44938733D01*
X83568000Y-45231267D02*
X83568000Y-44938733D01*
X53385000Y-29386000D02*
X53385000Y-30026000D01*
X53385000Y-30026000D02*
X53785000Y-30026000D01*
X53625000Y-23046000D02*
X53625000Y-29786000D01*
X53625000Y-23046000D02*
X64486000Y-23046000D01*
X53625000Y-24166000D02*
X64486000Y-24166000D01*
X53625000Y-29266000D02*
X64486000Y-29266000D01*
X53625000Y-29786000D02*
X64486000Y-29786000D01*
X64486000Y-23046000D02*
X64486000Y-29786000D01*
X76295000Y-35463000D02*
X69950000Y-35463000D01*
X75840000Y-30323000D02*
X69950000Y-30323000D01*
X65638000Y-37611267D02*
X65638000Y-37318733D01*
X66658000Y-37611267D02*
X66658000Y-37318733D01*
X75540000Y-56270000D02*
X77460000Y-56270000D01*
X77460000Y-56270000D02*
X77460000Y-53585000D01*
X75540000Y-53585000D02*
X75540000Y-56270000D01*
X76171000Y-41940000D02*
X69826000Y-41940000D01*
X75716000Y-36800000D02*
X69826000Y-36800000D01*
X69620000Y-56270000D02*
X71540000Y-56270000D01*
X71540000Y-56270000D02*
X71540000Y-53585000D01*
X69620000Y-53585000D02*
X69620000Y-56270000D01*
X66194000Y-33644064D02*
X66194000Y-33189936D01*
X67664000Y-33644064D02*
X67664000Y-33189936D01*
X66845000Y-59129564D02*
X66845000Y-58675436D01*
X68315000Y-59129564D02*
X68315000Y-58675436D01*
X79072936Y-45450000D02*
X79527064Y-45450000D01*
X79072936Y-46920000D02*
X79527064Y-46920000D01*
X84553000Y-41940000D02*
X78208000Y-41940000D01*
X84098000Y-36800000D02*
X78208000Y-36800000D01*
X63895000Y-59129564D02*
X63895000Y-58675436D01*
X65365000Y-59129564D02*
X65365000Y-58675436D01*
X66580000Y-56270000D02*
X68500000Y-56270000D01*
X68500000Y-56270000D02*
X68500000Y-53585000D01*
X66580000Y-53585000D02*
X66580000Y-56270000D01*
X87824000Y-49724000D02*
X89154000Y-49724000D01*
X87824000Y-51054000D02*
X87824000Y-49724000D01*
X87824000Y-52324000D02*
X87824000Y-60004000D01*
X87824000Y-52324000D02*
X90484000Y-52324000D01*
X87824000Y-60004000D02*
X90484000Y-60004000D01*
X90484000Y-52324000D02*
X90484000Y-60004000D01*
X69215000Y-21844000D02*
X69215000Y-29464000D01*
X69215000Y-21844000D02*
X89535000Y-21844000D01*
X69215000Y-29464000D02*
X89535000Y-29464000D01*
X89535000Y-28194000D02*
X69215000Y-28194000D01*
X89535000Y-29464000D02*
X89535000Y-21844000D01*
X64870000Y-32157936D02*
X64870000Y-32612064D01*
X63400000Y-32157936D02*
X63400000Y-32612064D01*
X68201000Y-46716733D02*
X68201000Y-47009267D01*
X67181000Y-46716733D02*
X67181000Y-47009267D01*
X72745000Y-59129564D02*
X72745000Y-58675436D01*
X74215000Y-59129564D02*
X74215000Y-58675436D01*
X65530000Y-27223767D02*
X65530000Y-26931233D01*
X66550000Y-27223767D02*
X66550000Y-26931233D01*
X72452000Y-44176000D02*
X69002000Y-44176000D01*
X72452000Y-44176000D02*
X74402000Y-44176000D01*
X72452000Y-49296000D02*
X70502000Y-49296000D01*
X72452000Y-49296000D02*
X74402000Y-49296000D01*
X63540000Y-56270000D02*
X65460000Y-56270000D01*
X65460000Y-56270000D02*
X65460000Y-53585000D01*
X63540000Y-53585000D02*
X63540000Y-56270000D01*
X66717936Y-39905000D02*
X67172064Y-39905000D01*
X66717936Y-41375000D02*
X67172064Y-41375000D01*
X60715000Y-59099564D02*
X60715000Y-58645436D01*
X62185000Y-59099564D02*
X62185000Y-58645436D01*
X72660000Y-56270000D02*
X74580000Y-56270000D01*
X74580000Y-56270000D02*
X74580000Y-53585000D01*
X72660000Y-53585000D02*
X72660000Y-56270000D01*
X84553000Y-35463000D02*
X78208000Y-35463000D01*
X84098000Y-30323000D02*
X78208000Y-30323000D01*
X56390000Y-36911233D02*
X56390000Y-37203767D01*
X55370000Y-36911233D02*
X55370000Y-37203767D01*
X81052936Y-48160000D02*
X81507064Y-48160000D01*
X81052936Y-49630000D02*
X81507064Y-49630000D01*
X63175000Y-39150000D02*
X65095000Y-39150000D01*
X65095000Y-39150000D02*
X65095000Y-36465000D01*
X63175000Y-36465000D02*
X63175000Y-39150000D01*
X79272936Y-42650000D02*
X79727064Y-42650000D01*
X79272936Y-44120000D02*
X79727064Y-44120000D01*
X56615000Y-33062936D02*
X56615000Y-33517064D01*
X55145000Y-33062936D02*
X55145000Y-33517064D01*
X69795000Y-59129564D02*
X69795000Y-58675436D01*
X71265000Y-59129564D02*
X71265000Y-58675436D01*
X66447936Y-42445000D02*
X66902064Y-42445000D01*
X66447936Y-43915000D02*
X66902064Y-43915000D01*
X60500000Y-56270000D02*
X62420000Y-56270000D01*
X62420000Y-56270000D02*
X62420000Y-53585000D01*
X60500000Y-53585000D02*
X60500000Y-56270000D01*
X75695000Y-59129564D02*
X75695000Y-58675436D01*
X77165000Y-59129564D02*
X77165000Y-58675436D01*
%LPC*%
D15*
X92964000Y-51064000D03*
D16*
X92964000Y-53604000D03*
X92964000Y-56144000D03*
X92964000Y-58684000D03*
D17*
X52640000Y-31885000D03*
X52640000Y-32385000D03*
X52640000Y-32885000D03*
X54040000Y-32885000D03*
X54040000Y-31885000D03*
D18*
X67945000Y-27760000D03*
X67945000Y-26035000D03*
D19*
X78105000Y-50594500D03*
X78105000Y-48719500D03*
D20*
X62103000Y-32639000D03*
X60833000Y-32639000D03*
X59563000Y-32639000D03*
X58293000Y-32639000D03*
X58293000Y-37589000D03*
X59563000Y-37589000D03*
X60833000Y-37589000D03*
X62103000Y-37589000D03*
D21*
X60198000Y-35114000D03*
D18*
X83058000Y-45947500D03*
X83058000Y-44222500D03*
D22*
X55245000Y-26416000D03*
D23*
X57785000Y-26416000D03*
X60325000Y-26416000D03*
X62865000Y-26416000D03*
D24*
X72205000Y-32893000D03*
D25*
X70100000Y-34798000D03*
X70100000Y-33528000D03*
X70100000Y-32258000D03*
X70100000Y-30988000D03*
D26*
X75565000Y-30988000D03*
X75565000Y-34798000D03*
X75565000Y-33528000D03*
X75565000Y-32258000D03*
D18*
X66148000Y-38327500D03*
X66148000Y-36602500D03*
D19*
X76500000Y-55522500D03*
X76500000Y-53647500D03*
D24*
X72081000Y-39370000D03*
D25*
X69976000Y-41275000D03*
X69976000Y-40005000D03*
X69976000Y-38735000D03*
X69976000Y-37465000D03*
D26*
X75441000Y-37465000D03*
X75441000Y-41275000D03*
X75441000Y-40005000D03*
X75441000Y-38735000D03*
D19*
X70580000Y-55522500D03*
X70580000Y-53647500D03*
D27*
X66929000Y-34417000D03*
X66929000Y-32417000D03*
X67580000Y-59902500D03*
X67580000Y-57902500D03*
D28*
X78300000Y-46185000D03*
X80300000Y-46185000D03*
D24*
X80463000Y-39370000D03*
D25*
X78358000Y-41275000D03*
X78358000Y-40005000D03*
X78358000Y-38735000D03*
X78358000Y-37465000D03*
D26*
X83823000Y-37465000D03*
X83823000Y-41275000D03*
X83823000Y-40005000D03*
X83823000Y-38735000D03*
D27*
X64630000Y-59902500D03*
X64630000Y-57902500D03*
D19*
X67540000Y-55522500D03*
X67540000Y-53647500D03*
D15*
X89154000Y-51054000D03*
D16*
X89154000Y-53594000D03*
X89154000Y-56134000D03*
X89154000Y-58674000D03*
D29*
X71755000Y-25654000D03*
D30*
X76835000Y-25654000D03*
X81915000Y-25654000D03*
X86995000Y-25654000D03*
D31*
X64135000Y-31385000D03*
X64135000Y-33385000D03*
D32*
X67691000Y-46000500D03*
X67691000Y-47725500D03*
D27*
X73480000Y-59902500D03*
X73480000Y-57902500D03*
D18*
X66040000Y-27940000D03*
X66040000Y-26215000D03*
D33*
X69977000Y-44831000D03*
X69977000Y-46101000D03*
X69977000Y-47371000D03*
X69977000Y-48641000D03*
X74927000Y-48641000D03*
X74927000Y-47371000D03*
X74927000Y-46101000D03*
X74927000Y-44831000D03*
D34*
X72452000Y-46736000D03*
D19*
X64500000Y-55522500D03*
X64500000Y-53647500D03*
D28*
X65945000Y-40640000D03*
X67945000Y-40640000D03*
D27*
X61450000Y-59872500D03*
X61450000Y-57872500D03*
D19*
X73620000Y-55522500D03*
X73620000Y-53647500D03*
D24*
X80463000Y-32893000D03*
D25*
X78358000Y-34798000D03*
X78358000Y-33528000D03*
X78358000Y-32258000D03*
X78358000Y-30988000D03*
D26*
X83823000Y-30988000D03*
X83823000Y-34798000D03*
X83823000Y-33528000D03*
X83823000Y-32258000D03*
D32*
X55880000Y-36195000D03*
X55880000Y-37920000D03*
D28*
X80280000Y-48895000D03*
X82280000Y-48895000D03*
D19*
X64135000Y-38402500D03*
X64135000Y-36527500D03*
D28*
X78500000Y-43385000D03*
X80500000Y-43385000D03*
D31*
X55880000Y-32290000D03*
X55880000Y-34290000D03*
D27*
X70530000Y-59902500D03*
X70530000Y-57902500D03*
D28*
X65675000Y-43180000D03*
X67675000Y-43180000D03*
D19*
X61460000Y-55522500D03*
X61460000Y-53647500D03*
D27*
X76430000Y-59902500D03*
X76430000Y-57902500D03*
%LPD*%
M02*
