M48
; DRILL file {KiCad 7.0.10} date Thu 29 Feb 2024 06:41:52 PM CST
; FORMAT={-:-/ absolute / metric / decimal}
; #@! TF.CreationDate,2024-02-29T18:41:52-06:00
; #@! TF.GenerationSoftware,Kicad,Pcbnew,7.0.10
; #@! TF.FileFunction,Plated,1,2,PTH
FMAT,2
METRIC
; #@! TA.AperFunction,Plated,PTH,ViaDrill
T1C0.300
; #@! TA.AperFunction,Plated,PTH,ComponentDrill
T2C0.500
; #@! TA.AperFunction,Plated,PTH,ComponentDrill
T3C1.000
; #@! TA.AperFunction,Plated,PTH,ComponentDrill
T4C1.520
; #@! TA.AperFunction,Plated,PTH,ComponentDrill
T5C3.500
%
G90
G05
T1
X35.847Y-47.505
X36.355Y-46.235
X37.182Y-44.457
X38.387Y-57.03
X38.387Y-58.3
X40.347Y-46.235
X40.673Y-56.903
X40.673Y-57.665
X41.435Y-56.903
X41.435Y-57.665
X41.689Y-65.285
X41.689Y-66.047
X41.689Y-66.809
X41.689Y-67.571
X42.135Y-56.903
X42.197Y-57.665
X42.705Y-60.713
X42.873Y-46.489
X44.102Y-46.235
X44.102Y-60.205
X48.293Y-53.22
X48.402Y-62.6
X48.547Y-46.235
X48.547Y-46.997
X48.547Y-47.759
X48.547Y-67.571
X52.611Y-47.251
X52.611Y-48.013
X52.611Y-59.697
X52.992Y-55.125
X52.992Y-61.475
X53.373Y-47.251
X53.373Y-48.013
X53.373Y-65.996
X53.627Y-40.425
X54.897Y-46.489
X54.897Y-55.125
X54.897Y-57.665
X56.802Y-60.84
X56.802Y-61.475
X57.437Y-60.84
X57.437Y-61.475
X58.543Y-64.486
X59.977Y-50.045
X59.977Y-56.649
X64.041Y-51.061
X64.682Y-66.18
X66.962Y-65.92
X66.962Y-66.555
X66.962Y-67.19
X67.597Y-65.92
X67.597Y-66.555
X67.597Y-67.19
X68.232Y-65.92
X68.232Y-66.555
X68.867Y-51.315
X73.947Y-58.935
T2
X32.375Y-75.0
X33.144Y-73.144
X33.144Y-76.856
X35.0Y-72.375
X35.0Y-77.625
X36.856Y-73.144
X36.856Y-76.856
X37.625Y-75.0
T3
X67.597Y-71.303
X67.597Y-75.953
X70.137Y-71.303
X70.137Y-75.953
X72.677Y-71.303
X72.677Y-75.953
X75.217Y-71.303
X75.217Y-75.953
T4
X34.577Y-37.345
X39.657Y-37.345
X44.737Y-37.345
X49.817Y-37.345
X57.437Y-37.345
X62.517Y-37.345
X64.0Y-43.25
X67.5Y-43.25
X67.597Y-37.345
X72.677Y-37.345
X72.75Y-43.25
X72.75Y-46.75
T5
X35.0Y-75.0
M30
