G04 #@! TF.GenerationSoftware,KiCad,Pcbnew,7.0.10*
G04 #@! TF.CreationDate,2024-02-29T18:40:53-06:00*
G04 #@! TF.ProjectId,Sabertoothv2,53616265-7274-46f6-9f74-6876322e6b69,rev?*
G04 #@! TF.SameCoordinates,Original*
G04 #@! TF.FileFunction,Legend,Top*
G04 #@! TF.FilePolarity,Positive*
%FSLAX46Y46*%
G04 Gerber Fmt 4.6, Leading zero omitted, Abs format (unit mm)*
G04 Created by KiCad (PCBNEW 7.0.10) date 2024-02-29 18:40:53*
%MOMM*%
%LPD*%
G01*
G04 APERTURE LIST*
G04 Aperture macros list*
%AMRoundRect*
0 Rectangle with rounded corners*
0 $1 Rounding radius*
0 $2 $3 $4 $5 $6 $7 $8 $9 X,Y pos of 4 corners*
0 Add a 4 corners polygon primitive as box body*
4,1,4,$2,$3,$4,$5,$6,$7,$8,$9,$2,$3,0*
0 Add four circle primitives for the rounded corners*
1,1,$1+$1,$2,$3*
1,1,$1+$1,$4,$5*
1,1,$1+$1,$6,$7*
1,1,$1+$1,$8,$9*
0 Add four rect primitives between the rounded corners*
20,1,$1+$1,$2,$3,$4,$5,0*
20,1,$1+$1,$4,$5,$6,$7,0*
20,1,$1+$1,$6,$7,$8,$9,0*
20,1,$1+$1,$8,$9,$2,$3,0*%
%AMFreePoly0*
4,1,21,1.372500,0.787500,0.862500,0.787500,0.862500,0.532500,1.372500,0.532500,1.372500,0.127500,0.862500,0.127500,0.862500,-0.127500,1.372500,-0.127500,1.372500,-0.532500,0.862500,-0.532500,0.862500,-0.787500,1.372500,-0.787500,1.372500,-1.195000,0.612500,-1.195000,0.612500,-1.117500,-0.862500,-1.117500,-0.862500,1.117500,0.612500,1.117500,0.612500,1.195000,1.372500,1.195000,
1.372500,0.787500,1.372500,0.787500,$1*%
G04 Aperture macros list end*
%ADD10C,0.100000*%
%ADD11C,0.153000*%
%ADD12C,0.150000*%
%ADD13C,0.120000*%
%ADD14RoundRect,0.250000X-0.475000X0.337500X-0.475000X-0.337500X0.475000X-0.337500X0.475000X0.337500X0*%
%ADD15RoundRect,0.150000X-0.150000X0.825000X-0.150000X-0.825000X0.150000X-0.825000X0.150000X0.825000X0*%
%ADD16R,3.000000X2.290000*%
%ADD17R,0.990000X0.405000*%
%ADD18FreePoly0,0.000000*%
%ADD19RoundRect,0.250000X0.450000X-0.350000X0.450000X0.350000X-0.450000X0.350000X-0.450000X-0.350000X0*%
%ADD20C,3.000000*%
%ADD21R,2.100000X1.400000*%
%ADD22RoundRect,0.250000X-0.450000X0.350000X-0.450000X-0.350000X0.450000X-0.350000X0.450000X0.350000X0*%
%ADD23R,3.000000X3.000000*%
%ADD24R,1.700000X1.700000*%
%ADD25O,1.700000X1.700000*%
%ADD26RoundRect,0.250000X0.337500X0.475000X-0.337500X0.475000X-0.337500X-0.475000X0.337500X-0.475000X0*%
%ADD27RoundRect,0.250000X0.350000X0.450000X-0.350000X0.450000X-0.350000X-0.450000X0.350000X-0.450000X0*%
%ADD28R,0.450000X0.300000*%
%ADD29C,0.800000*%
%ADD30C,7.000000*%
G04 APERTURE END LIST*
D10*
X67004088Y-32706609D02*
X66765993Y-32706609D01*
X66765993Y-32706609D02*
X66765993Y-32206609D01*
X67265993Y-32206609D02*
X67361231Y-32206609D01*
X67361231Y-32206609D02*
X67408850Y-32230419D01*
X67408850Y-32230419D02*
X67456469Y-32278038D01*
X67456469Y-32278038D02*
X67480279Y-32373276D01*
X67480279Y-32373276D02*
X67480279Y-32539942D01*
X67480279Y-32539942D02*
X67456469Y-32635180D01*
X67456469Y-32635180D02*
X67408850Y-32682800D01*
X67408850Y-32682800D02*
X67361231Y-32706609D01*
X67361231Y-32706609D02*
X67265993Y-32706609D01*
X67265993Y-32706609D02*
X67218374Y-32682800D01*
X67218374Y-32682800D02*
X67170755Y-32635180D01*
X67170755Y-32635180D02*
X67146946Y-32539942D01*
X67146946Y-32539942D02*
X67146946Y-32373276D01*
X67146946Y-32373276D02*
X67170755Y-32278038D01*
X67170755Y-32278038D02*
X67218374Y-32230419D01*
X67218374Y-32230419D02*
X67265993Y-32206609D01*
X67670756Y-32563752D02*
X67908851Y-32563752D01*
X67623137Y-32706609D02*
X67789803Y-32206609D01*
X67789803Y-32206609D02*
X67956470Y-32706609D01*
X68123136Y-32706609D02*
X68123136Y-32206609D01*
X68123136Y-32206609D02*
X68242184Y-32206609D01*
X68242184Y-32206609D02*
X68313612Y-32230419D01*
X68313612Y-32230419D02*
X68361231Y-32278038D01*
X68361231Y-32278038D02*
X68385041Y-32325657D01*
X68385041Y-32325657D02*
X68408850Y-32420895D01*
X68408850Y-32420895D02*
X68408850Y-32492323D01*
X68408850Y-32492323D02*
X68385041Y-32587561D01*
X68385041Y-32587561D02*
X68361231Y-32635180D01*
X68361231Y-32635180D02*
X68313612Y-32682800D01*
X68313612Y-32682800D02*
X68242184Y-32706609D01*
X68242184Y-32706609D02*
X68123136Y-32706609D01*
X68885041Y-32706609D02*
X68599327Y-32706609D01*
X68742184Y-32706609D02*
X68742184Y-32206609D01*
X68742184Y-32206609D02*
X68694565Y-32278038D01*
X68694565Y-32278038D02*
X68646946Y-32325657D01*
X68646946Y-32325657D02*
X68599327Y-32349466D01*
X69544088Y-78172609D02*
X69305993Y-78172609D01*
X69305993Y-78172609D02*
X69305993Y-77672609D01*
X69805993Y-77672609D02*
X69901231Y-77672609D01*
X69901231Y-77672609D02*
X69948850Y-77696419D01*
X69948850Y-77696419D02*
X69996469Y-77744038D01*
X69996469Y-77744038D02*
X70020279Y-77839276D01*
X70020279Y-77839276D02*
X70020279Y-78005942D01*
X70020279Y-78005942D02*
X69996469Y-78101180D01*
X69996469Y-78101180D02*
X69948850Y-78148800D01*
X69948850Y-78148800D02*
X69901231Y-78172609D01*
X69901231Y-78172609D02*
X69805993Y-78172609D01*
X69805993Y-78172609D02*
X69758374Y-78148800D01*
X69758374Y-78148800D02*
X69710755Y-78101180D01*
X69710755Y-78101180D02*
X69686946Y-78005942D01*
X69686946Y-78005942D02*
X69686946Y-77839276D01*
X69686946Y-77839276D02*
X69710755Y-77744038D01*
X69710755Y-77744038D02*
X69758374Y-77696419D01*
X69758374Y-77696419D02*
X69805993Y-77672609D01*
X70210756Y-78029752D02*
X70448851Y-78029752D01*
X70163137Y-78172609D02*
X70329803Y-77672609D01*
X70329803Y-77672609D02*
X70496470Y-78172609D01*
X70639327Y-77720228D02*
X70663136Y-77696419D01*
X70663136Y-77696419D02*
X70710755Y-77672609D01*
X70710755Y-77672609D02*
X70829803Y-77672609D01*
X70829803Y-77672609D02*
X70877422Y-77696419D01*
X70877422Y-77696419D02*
X70901231Y-77720228D01*
X70901231Y-77720228D02*
X70925041Y-77767847D01*
X70925041Y-77767847D02*
X70925041Y-77815466D01*
X70925041Y-77815466D02*
X70901231Y-77886895D01*
X70901231Y-77886895D02*
X70615517Y-78172609D01*
X70615517Y-78172609D02*
X70925041Y-78172609D01*
X71845993Y-78172609D02*
X71845993Y-77672609D01*
X71845993Y-77910704D02*
X72131707Y-77910704D01*
X72131707Y-78172609D02*
X72131707Y-77672609D01*
X72465041Y-77672609D02*
X72560279Y-77672609D01*
X72560279Y-77672609D02*
X72607898Y-77696419D01*
X72607898Y-77696419D02*
X72655517Y-77744038D01*
X72655517Y-77744038D02*
X72679327Y-77839276D01*
X72679327Y-77839276D02*
X72679327Y-78005942D01*
X72679327Y-78005942D02*
X72655517Y-78101180D01*
X72655517Y-78101180D02*
X72607898Y-78148800D01*
X72607898Y-78148800D02*
X72560279Y-78172609D01*
X72560279Y-78172609D02*
X72465041Y-78172609D01*
X72465041Y-78172609D02*
X72417422Y-78148800D01*
X72417422Y-78148800D02*
X72369803Y-78101180D01*
X72369803Y-78101180D02*
X72345994Y-78005942D01*
X72345994Y-78005942D02*
X72345994Y-77839276D01*
X72345994Y-77839276D02*
X72369803Y-77744038D01*
X72369803Y-77744038D02*
X72417422Y-77696419D01*
X72417422Y-77696419D02*
X72465041Y-77672609D01*
X72869804Y-78029752D02*
X73107899Y-78029752D01*
X72822185Y-78172609D02*
X72988851Y-77672609D01*
X72988851Y-77672609D02*
X73155518Y-78172609D01*
X73584089Y-78172609D02*
X73298375Y-78172609D01*
X73441232Y-78172609D02*
X73441232Y-77672609D01*
X73441232Y-77672609D02*
X73393613Y-77744038D01*
X73393613Y-77744038D02*
X73345994Y-77791657D01*
X73345994Y-77791657D02*
X73298375Y-77815466D01*
X66765993Y-78172609D02*
X66765993Y-77672609D01*
X66765993Y-77910704D02*
X67051707Y-77910704D01*
X67051707Y-78172609D02*
X67051707Y-77672609D01*
X67385041Y-77672609D02*
X67480279Y-77672609D01*
X67480279Y-77672609D02*
X67527898Y-77696419D01*
X67527898Y-77696419D02*
X67575517Y-77744038D01*
X67575517Y-77744038D02*
X67599327Y-77839276D01*
X67599327Y-77839276D02*
X67599327Y-78005942D01*
X67599327Y-78005942D02*
X67575517Y-78101180D01*
X67575517Y-78101180D02*
X67527898Y-78148800D01*
X67527898Y-78148800D02*
X67480279Y-78172609D01*
X67480279Y-78172609D02*
X67385041Y-78172609D01*
X67385041Y-78172609D02*
X67337422Y-78148800D01*
X67337422Y-78148800D02*
X67289803Y-78101180D01*
X67289803Y-78101180D02*
X67265994Y-78005942D01*
X67265994Y-78005942D02*
X67265994Y-77839276D01*
X67265994Y-77839276D02*
X67289803Y-77744038D01*
X67289803Y-77744038D02*
X67337422Y-77696419D01*
X67337422Y-77696419D02*
X67385041Y-77672609D01*
X67789804Y-78029752D02*
X68027899Y-78029752D01*
X67742185Y-78172609D02*
X67908851Y-77672609D01*
X67908851Y-77672609D02*
X68075518Y-78172609D01*
X68218375Y-77720228D02*
X68242184Y-77696419D01*
X68242184Y-77696419D02*
X68289803Y-77672609D01*
X68289803Y-77672609D02*
X68408851Y-77672609D01*
X68408851Y-77672609D02*
X68456470Y-77696419D01*
X68456470Y-77696419D02*
X68480279Y-77720228D01*
X68480279Y-77720228D02*
X68504089Y-77767847D01*
X68504089Y-77767847D02*
X68504089Y-77815466D01*
X68504089Y-77815466D02*
X68480279Y-77886895D01*
X68480279Y-77886895D02*
X68194565Y-78172609D01*
X68194565Y-78172609D02*
X68504089Y-78172609D01*
X71845993Y-69536609D02*
X71845993Y-69036609D01*
X71845993Y-69036609D02*
X72036469Y-69036609D01*
X72036469Y-69036609D02*
X72084088Y-69060419D01*
X72084088Y-69060419D02*
X72107898Y-69084228D01*
X72107898Y-69084228D02*
X72131707Y-69131847D01*
X72131707Y-69131847D02*
X72131707Y-69203276D01*
X72131707Y-69203276D02*
X72107898Y-69250895D01*
X72107898Y-69250895D02*
X72084088Y-69274704D01*
X72084088Y-69274704D02*
X72036469Y-69298514D01*
X72036469Y-69298514D02*
X71845993Y-69298514D01*
X72298374Y-69036609D02*
X72417422Y-69536609D01*
X72417422Y-69536609D02*
X72512660Y-69179466D01*
X72512660Y-69179466D02*
X72607898Y-69536609D01*
X72607898Y-69536609D02*
X72726946Y-69036609D01*
X72917422Y-69536609D02*
X72917422Y-69036609D01*
X72917422Y-69036609D02*
X73084089Y-69393752D01*
X73084089Y-69393752D02*
X73250755Y-69036609D01*
X73250755Y-69036609D02*
X73250755Y-69536609D01*
X56582184Y-32682800D02*
X56653612Y-32706609D01*
X56653612Y-32706609D02*
X56772660Y-32706609D01*
X56772660Y-32706609D02*
X56820279Y-32682800D01*
X56820279Y-32682800D02*
X56844088Y-32658990D01*
X56844088Y-32658990D02*
X56867898Y-32611371D01*
X56867898Y-32611371D02*
X56867898Y-32563752D01*
X56867898Y-32563752D02*
X56844088Y-32516133D01*
X56844088Y-32516133D02*
X56820279Y-32492323D01*
X56820279Y-32492323D02*
X56772660Y-32468514D01*
X56772660Y-32468514D02*
X56677422Y-32444704D01*
X56677422Y-32444704D02*
X56629803Y-32420895D01*
X56629803Y-32420895D02*
X56605993Y-32397085D01*
X56605993Y-32397085D02*
X56582184Y-32349466D01*
X56582184Y-32349466D02*
X56582184Y-32301847D01*
X56582184Y-32301847D02*
X56605993Y-32254228D01*
X56605993Y-32254228D02*
X56629803Y-32230419D01*
X56629803Y-32230419D02*
X56677422Y-32206609D01*
X56677422Y-32206609D02*
X56796469Y-32206609D01*
X56796469Y-32206609D02*
X56867898Y-32230419D01*
X57082183Y-32444704D02*
X57248850Y-32444704D01*
X57320278Y-32706609D02*
X57082183Y-32706609D01*
X57082183Y-32706609D02*
X57082183Y-32206609D01*
X57082183Y-32206609D02*
X57320278Y-32206609D01*
X57772659Y-32706609D02*
X57534564Y-32706609D01*
X57534564Y-32706609D02*
X57534564Y-32206609D01*
X57939326Y-32444704D02*
X58105993Y-32444704D01*
X58177421Y-32706609D02*
X57939326Y-32706609D01*
X57939326Y-32706609D02*
X57939326Y-32206609D01*
X57939326Y-32206609D02*
X58177421Y-32206609D01*
X58677421Y-32658990D02*
X58653612Y-32682800D01*
X58653612Y-32682800D02*
X58582183Y-32706609D01*
X58582183Y-32706609D02*
X58534564Y-32706609D01*
X58534564Y-32706609D02*
X58463136Y-32682800D01*
X58463136Y-32682800D02*
X58415517Y-32635180D01*
X58415517Y-32635180D02*
X58391707Y-32587561D01*
X58391707Y-32587561D02*
X58367898Y-32492323D01*
X58367898Y-32492323D02*
X58367898Y-32420895D01*
X58367898Y-32420895D02*
X58391707Y-32325657D01*
X58391707Y-32325657D02*
X58415517Y-32278038D01*
X58415517Y-32278038D02*
X58463136Y-32230419D01*
X58463136Y-32230419D02*
X58534564Y-32206609D01*
X58534564Y-32206609D02*
X58582183Y-32206609D01*
X58582183Y-32206609D02*
X58653612Y-32230419D01*
X58653612Y-32230419D02*
X58677421Y-32254228D01*
X58820279Y-32206609D02*
X59105993Y-32206609D01*
X58963136Y-32706609D02*
X58963136Y-32206609D01*
X74362184Y-69512800D02*
X74433612Y-69536609D01*
X74433612Y-69536609D02*
X74552660Y-69536609D01*
X74552660Y-69536609D02*
X74600279Y-69512800D01*
X74600279Y-69512800D02*
X74624088Y-69488990D01*
X74624088Y-69488990D02*
X74647898Y-69441371D01*
X74647898Y-69441371D02*
X74647898Y-69393752D01*
X74647898Y-69393752D02*
X74624088Y-69346133D01*
X74624088Y-69346133D02*
X74600279Y-69322323D01*
X74600279Y-69322323D02*
X74552660Y-69298514D01*
X74552660Y-69298514D02*
X74457422Y-69274704D01*
X74457422Y-69274704D02*
X74409803Y-69250895D01*
X74409803Y-69250895D02*
X74385993Y-69227085D01*
X74385993Y-69227085D02*
X74362184Y-69179466D01*
X74362184Y-69179466D02*
X74362184Y-69131847D01*
X74362184Y-69131847D02*
X74385993Y-69084228D01*
X74385993Y-69084228D02*
X74409803Y-69060419D01*
X74409803Y-69060419D02*
X74457422Y-69036609D01*
X74457422Y-69036609D02*
X74576469Y-69036609D01*
X74576469Y-69036609D02*
X74647898Y-69060419D01*
X74862183Y-69274704D02*
X75028850Y-69274704D01*
X75100278Y-69536609D02*
X74862183Y-69536609D01*
X74862183Y-69536609D02*
X74862183Y-69036609D01*
X74862183Y-69036609D02*
X75100278Y-69036609D01*
X75552659Y-69536609D02*
X75314564Y-69536609D01*
X75314564Y-69536609D02*
X75314564Y-69036609D01*
X75719326Y-69274704D02*
X75885993Y-69274704D01*
X75957421Y-69536609D02*
X75719326Y-69536609D01*
X75719326Y-69536609D02*
X75719326Y-69036609D01*
X75719326Y-69036609D02*
X75957421Y-69036609D01*
X76457421Y-69488990D02*
X76433612Y-69512800D01*
X76433612Y-69512800D02*
X76362183Y-69536609D01*
X76362183Y-69536609D02*
X76314564Y-69536609D01*
X76314564Y-69536609D02*
X76243136Y-69512800D01*
X76243136Y-69512800D02*
X76195517Y-69465180D01*
X76195517Y-69465180D02*
X76171707Y-69417561D01*
X76171707Y-69417561D02*
X76147898Y-69322323D01*
X76147898Y-69322323D02*
X76147898Y-69250895D01*
X76147898Y-69250895D02*
X76171707Y-69155657D01*
X76171707Y-69155657D02*
X76195517Y-69108038D01*
X76195517Y-69108038D02*
X76243136Y-69060419D01*
X76243136Y-69060419D02*
X76314564Y-69036609D01*
X76314564Y-69036609D02*
X76362183Y-69036609D01*
X76362183Y-69036609D02*
X76433612Y-69060419D01*
X76433612Y-69060419D02*
X76457421Y-69084228D01*
X76600279Y-69036609D02*
X76885993Y-69036609D01*
X76743136Y-69536609D02*
X76743136Y-69036609D01*
D11*
X76524820Y-44626247D02*
X75524820Y-44626247D01*
X76524820Y-43578629D02*
X76048629Y-43911962D01*
X76524820Y-44150057D02*
X75524820Y-44150057D01*
X75524820Y-44150057D02*
X75524820Y-43769105D01*
X75524820Y-43769105D02*
X75572439Y-43673867D01*
X75572439Y-43673867D02*
X75620058Y-43626248D01*
X75620058Y-43626248D02*
X75715296Y-43578629D01*
X75715296Y-43578629D02*
X75858153Y-43578629D01*
X75858153Y-43578629D02*
X75953391Y-43626248D01*
X75953391Y-43626248D02*
X76001010Y-43673867D01*
X76001010Y-43673867D02*
X76048629Y-43769105D01*
X76048629Y-43769105D02*
X76048629Y-44150057D01*
X76524820Y-43150057D02*
X75524820Y-43150057D01*
X76477201Y-42721486D02*
X76524820Y-42578629D01*
X76524820Y-42578629D02*
X76524820Y-42340534D01*
X76524820Y-42340534D02*
X76477201Y-42245296D01*
X76477201Y-42245296D02*
X76429581Y-42197677D01*
X76429581Y-42197677D02*
X76334343Y-42150058D01*
X76334343Y-42150058D02*
X76239105Y-42150058D01*
X76239105Y-42150058D02*
X76143867Y-42197677D01*
X76143867Y-42197677D02*
X76096248Y-42245296D01*
X76096248Y-42245296D02*
X76048629Y-42340534D01*
X76048629Y-42340534D02*
X76001010Y-42531010D01*
X76001010Y-42531010D02*
X75953391Y-42626248D01*
X75953391Y-42626248D02*
X75905772Y-42673867D01*
X75905772Y-42673867D02*
X75810534Y-42721486D01*
X75810534Y-42721486D02*
X75715296Y-42721486D01*
X75715296Y-42721486D02*
X75620058Y-42673867D01*
X75620058Y-42673867D02*
X75572439Y-42626248D01*
X75572439Y-42626248D02*
X75524820Y-42531010D01*
X75524820Y-42531010D02*
X75524820Y-42292915D01*
X75524820Y-42292915D02*
X75572439Y-42150058D01*
X76143867Y-41721486D02*
X76143867Y-40959582D01*
X75524820Y-40578629D02*
X76524820Y-39911963D01*
X75524820Y-39911963D02*
X76524820Y-40578629D01*
X76524820Y-39531010D02*
X75524820Y-39531010D01*
X75524820Y-39197677D02*
X76524820Y-38864344D01*
X76524820Y-38864344D02*
X75524820Y-38531011D01*
X78087201Y-44673866D02*
X78134820Y-44531009D01*
X78134820Y-44531009D02*
X78134820Y-44292914D01*
X78134820Y-44292914D02*
X78087201Y-44197676D01*
X78087201Y-44197676D02*
X78039581Y-44150057D01*
X78039581Y-44150057D02*
X77944343Y-44102438D01*
X77944343Y-44102438D02*
X77849105Y-44102438D01*
X77849105Y-44102438D02*
X77753867Y-44150057D01*
X77753867Y-44150057D02*
X77706248Y-44197676D01*
X77706248Y-44197676D02*
X77658629Y-44292914D01*
X77658629Y-44292914D02*
X77611010Y-44483390D01*
X77611010Y-44483390D02*
X77563391Y-44578628D01*
X77563391Y-44578628D02*
X77515772Y-44626247D01*
X77515772Y-44626247D02*
X77420534Y-44673866D01*
X77420534Y-44673866D02*
X77325296Y-44673866D01*
X77325296Y-44673866D02*
X77230058Y-44626247D01*
X77230058Y-44626247D02*
X77182439Y-44578628D01*
X77182439Y-44578628D02*
X77134820Y-44483390D01*
X77134820Y-44483390D02*
X77134820Y-44245295D01*
X77134820Y-44245295D02*
X77182439Y-44102438D01*
X77849105Y-43721485D02*
X77849105Y-43245295D01*
X78134820Y-43816723D02*
X77134820Y-43483390D01*
X77134820Y-43483390D02*
X78134820Y-43150057D01*
X78134820Y-42816723D02*
X77134820Y-42816723D01*
X77611010Y-42816723D02*
X77611010Y-42245295D01*
X78134820Y-42245295D02*
X77134820Y-42245295D01*
X77134820Y-41150056D02*
X78134820Y-40816723D01*
X78134820Y-40816723D02*
X77134820Y-40483390D01*
X78087201Y-39769104D02*
X78134820Y-39864342D01*
X78134820Y-39864342D02*
X78134820Y-40054818D01*
X78134820Y-40054818D02*
X78087201Y-40150056D01*
X78087201Y-40150056D02*
X77991962Y-40197675D01*
X77991962Y-40197675D02*
X77611010Y-40197675D01*
X77611010Y-40197675D02*
X77515772Y-40150056D01*
X77515772Y-40150056D02*
X77468153Y-40054818D01*
X77468153Y-40054818D02*
X77468153Y-39864342D01*
X77468153Y-39864342D02*
X77515772Y-39769104D01*
X77515772Y-39769104D02*
X77611010Y-39721485D01*
X77611010Y-39721485D02*
X77706248Y-39721485D01*
X77706248Y-39721485D02*
X77801486Y-40197675D01*
X78134820Y-39292913D02*
X77468153Y-39292913D01*
X77658629Y-39292913D02*
X77563391Y-39245294D01*
X77563391Y-39245294D02*
X77515772Y-39197675D01*
X77515772Y-39197675D02*
X77468153Y-39102437D01*
X77468153Y-39102437D02*
X77468153Y-39007199D01*
X78039581Y-38673865D02*
X78087201Y-38626246D01*
X78087201Y-38626246D02*
X78134820Y-38673865D01*
X78134820Y-38673865D02*
X78087201Y-38721484D01*
X78087201Y-38721484D02*
X78039581Y-38673865D01*
X78039581Y-38673865D02*
X78134820Y-38673865D01*
X77230058Y-38245294D02*
X77182439Y-38197675D01*
X77182439Y-38197675D02*
X77134820Y-38102437D01*
X77134820Y-38102437D02*
X77134820Y-37864342D01*
X77134820Y-37864342D02*
X77182439Y-37769104D01*
X77182439Y-37769104D02*
X77230058Y-37721485D01*
X77230058Y-37721485D02*
X77325296Y-37673866D01*
X77325296Y-37673866D02*
X77420534Y-37673866D01*
X77420534Y-37673866D02*
X77563391Y-37721485D01*
X77563391Y-37721485D02*
X78134820Y-38292913D01*
X78134820Y-38292913D02*
X78134820Y-37673866D01*
X78134820Y-35911961D02*
X77658629Y-36245294D01*
X78134820Y-36483389D02*
X77134820Y-36483389D01*
X77134820Y-36483389D02*
X77134820Y-36102437D01*
X77134820Y-36102437D02*
X77182439Y-36007199D01*
X77182439Y-36007199D02*
X77230058Y-35959580D01*
X77230058Y-35959580D02*
X77325296Y-35911961D01*
X77325296Y-35911961D02*
X77468153Y-35911961D01*
X77468153Y-35911961D02*
X77563391Y-35959580D01*
X77563391Y-35959580D02*
X77611010Y-36007199D01*
X77611010Y-36007199D02*
X77658629Y-36102437D01*
X77658629Y-36102437D02*
X77658629Y-36483389D01*
X78087201Y-35102437D02*
X78134820Y-35197675D01*
X78134820Y-35197675D02*
X78134820Y-35388151D01*
X78134820Y-35388151D02*
X78087201Y-35483389D01*
X78087201Y-35483389D02*
X77991962Y-35531008D01*
X77991962Y-35531008D02*
X77611010Y-35531008D01*
X77611010Y-35531008D02*
X77515772Y-35483389D01*
X77515772Y-35483389D02*
X77468153Y-35388151D01*
X77468153Y-35388151D02*
X77468153Y-35197675D01*
X77468153Y-35197675D02*
X77515772Y-35102437D01*
X77515772Y-35102437D02*
X77611010Y-35054818D01*
X77611010Y-35054818D02*
X77706248Y-35054818D01*
X77706248Y-35054818D02*
X77801486Y-35531008D01*
X77468153Y-34721484D02*
X78134820Y-34483389D01*
X78134820Y-34483389D02*
X77468153Y-34245294D01*
X78039581Y-33864341D02*
X78087201Y-33816722D01*
X78087201Y-33816722D02*
X78134820Y-33864341D01*
X78134820Y-33864341D02*
X78087201Y-33911960D01*
X78087201Y-33911960D02*
X78039581Y-33864341D01*
X78039581Y-33864341D02*
X78134820Y-33864341D01*
X77611010Y-33054818D02*
X77658629Y-32911961D01*
X77658629Y-32911961D02*
X77706248Y-32864342D01*
X77706248Y-32864342D02*
X77801486Y-32816723D01*
X77801486Y-32816723D02*
X77944343Y-32816723D01*
X77944343Y-32816723D02*
X78039581Y-32864342D01*
X78039581Y-32864342D02*
X78087201Y-32911961D01*
X78087201Y-32911961D02*
X78134820Y-33007199D01*
X78134820Y-33007199D02*
X78134820Y-33388151D01*
X78134820Y-33388151D02*
X77134820Y-33388151D01*
X77134820Y-33388151D02*
X77134820Y-33054818D01*
X77134820Y-33054818D02*
X77182439Y-32959580D01*
X77182439Y-32959580D02*
X77230058Y-32911961D01*
X77230058Y-32911961D02*
X77325296Y-32864342D01*
X77325296Y-32864342D02*
X77420534Y-32864342D01*
X77420534Y-32864342D02*
X77515772Y-32911961D01*
X77515772Y-32911961D02*
X77563391Y-32959580D01*
X77563391Y-32959580D02*
X77611010Y-33054818D01*
X77611010Y-33054818D02*
X77611010Y-33388151D01*
D10*
X74624088Y-78172609D02*
X74385993Y-78172609D01*
X74385993Y-78172609D02*
X74385993Y-77672609D01*
X74885993Y-77672609D02*
X74981231Y-77672609D01*
X74981231Y-77672609D02*
X75028850Y-77696419D01*
X75028850Y-77696419D02*
X75076469Y-77744038D01*
X75076469Y-77744038D02*
X75100279Y-77839276D01*
X75100279Y-77839276D02*
X75100279Y-78005942D01*
X75100279Y-78005942D02*
X75076469Y-78101180D01*
X75076469Y-78101180D02*
X75028850Y-78148800D01*
X75028850Y-78148800D02*
X74981231Y-78172609D01*
X74981231Y-78172609D02*
X74885993Y-78172609D01*
X74885993Y-78172609D02*
X74838374Y-78148800D01*
X74838374Y-78148800D02*
X74790755Y-78101180D01*
X74790755Y-78101180D02*
X74766946Y-78005942D01*
X74766946Y-78005942D02*
X74766946Y-77839276D01*
X74766946Y-77839276D02*
X74790755Y-77744038D01*
X74790755Y-77744038D02*
X74838374Y-77696419D01*
X74838374Y-77696419D02*
X74885993Y-77672609D01*
X75290756Y-78029752D02*
X75528851Y-78029752D01*
X75243137Y-78172609D02*
X75409803Y-77672609D01*
X75409803Y-77672609D02*
X75576470Y-78172609D01*
X76005041Y-78172609D02*
X75719327Y-78172609D01*
X75862184Y-78172609D02*
X75862184Y-77672609D01*
X75862184Y-77672609D02*
X75814565Y-77744038D01*
X75814565Y-77744038D02*
X75766946Y-77791657D01*
X75766946Y-77791657D02*
X75719327Y-77815466D01*
X43834565Y-32206609D02*
X44001231Y-32706609D01*
X44001231Y-32706609D02*
X44167898Y-32206609D01*
X44334564Y-32706609D02*
X44334564Y-32206609D01*
X44572659Y-32706609D02*
X44572659Y-32206609D01*
X44572659Y-32206609D02*
X44858373Y-32706609D01*
X44858373Y-32706609D02*
X44858373Y-32206609D01*
X45096469Y-32516133D02*
X45477422Y-32516133D01*
X45286945Y-32706609D02*
X45286945Y-32325657D01*
X45953612Y-32206609D02*
X45715517Y-32206609D01*
X45715517Y-32206609D02*
X45691708Y-32444704D01*
X45691708Y-32444704D02*
X45715517Y-32420895D01*
X45715517Y-32420895D02*
X45763136Y-32397085D01*
X45763136Y-32397085D02*
X45882184Y-32397085D01*
X45882184Y-32397085D02*
X45929803Y-32420895D01*
X45929803Y-32420895D02*
X45953612Y-32444704D01*
X45953612Y-32444704D02*
X45977422Y-32492323D01*
X45977422Y-32492323D02*
X45977422Y-32611371D01*
X45977422Y-32611371D02*
X45953612Y-32658990D01*
X45953612Y-32658990D02*
X45929803Y-32682800D01*
X45929803Y-32682800D02*
X45882184Y-32706609D01*
X45882184Y-32706609D02*
X45763136Y-32706609D01*
X45763136Y-32706609D02*
X45715517Y-32682800D01*
X45715517Y-32682800D02*
X45691708Y-32658990D01*
X69544088Y-69536609D02*
X69305993Y-69536609D01*
X69305993Y-69536609D02*
X69305993Y-69036609D01*
X69805993Y-69036609D02*
X69901231Y-69036609D01*
X69901231Y-69036609D02*
X69948850Y-69060419D01*
X69948850Y-69060419D02*
X69996469Y-69108038D01*
X69996469Y-69108038D02*
X70020279Y-69203276D01*
X70020279Y-69203276D02*
X70020279Y-69369942D01*
X70020279Y-69369942D02*
X69996469Y-69465180D01*
X69996469Y-69465180D02*
X69948850Y-69512800D01*
X69948850Y-69512800D02*
X69901231Y-69536609D01*
X69901231Y-69536609D02*
X69805993Y-69536609D01*
X69805993Y-69536609D02*
X69758374Y-69512800D01*
X69758374Y-69512800D02*
X69710755Y-69465180D01*
X69710755Y-69465180D02*
X69686946Y-69369942D01*
X69686946Y-69369942D02*
X69686946Y-69203276D01*
X69686946Y-69203276D02*
X69710755Y-69108038D01*
X69710755Y-69108038D02*
X69758374Y-69060419D01*
X69758374Y-69060419D02*
X69805993Y-69036609D01*
X70210756Y-69393752D02*
X70448851Y-69393752D01*
X70163137Y-69536609D02*
X70329803Y-69036609D01*
X70329803Y-69036609D02*
X70496470Y-69536609D01*
X70663136Y-69536609D02*
X70663136Y-69036609D01*
X70663136Y-69036609D02*
X70782184Y-69036609D01*
X70782184Y-69036609D02*
X70853612Y-69060419D01*
X70853612Y-69060419D02*
X70901231Y-69108038D01*
X70901231Y-69108038D02*
X70925041Y-69155657D01*
X70925041Y-69155657D02*
X70948850Y-69250895D01*
X70948850Y-69250895D02*
X70948850Y-69322323D01*
X70948850Y-69322323D02*
X70925041Y-69417561D01*
X70925041Y-69417561D02*
X70901231Y-69465180D01*
X70901231Y-69465180D02*
X70853612Y-69512800D01*
X70853612Y-69512800D02*
X70782184Y-69536609D01*
X70782184Y-69536609D02*
X70663136Y-69536609D01*
X71425041Y-69536609D02*
X71139327Y-69536609D01*
X71282184Y-69536609D02*
X71282184Y-69036609D01*
X71282184Y-69036609D02*
X71234565Y-69108038D01*
X71234565Y-69108038D02*
X71186946Y-69155657D01*
X71186946Y-69155657D02*
X71139327Y-69179466D01*
X38579898Y-32230419D02*
X38532279Y-32206609D01*
X38532279Y-32206609D02*
X38460850Y-32206609D01*
X38460850Y-32206609D02*
X38389422Y-32230419D01*
X38389422Y-32230419D02*
X38341803Y-32278038D01*
X38341803Y-32278038D02*
X38317993Y-32325657D01*
X38317993Y-32325657D02*
X38294184Y-32420895D01*
X38294184Y-32420895D02*
X38294184Y-32492323D01*
X38294184Y-32492323D02*
X38317993Y-32587561D01*
X38317993Y-32587561D02*
X38341803Y-32635180D01*
X38341803Y-32635180D02*
X38389422Y-32682800D01*
X38389422Y-32682800D02*
X38460850Y-32706609D01*
X38460850Y-32706609D02*
X38508469Y-32706609D01*
X38508469Y-32706609D02*
X38579898Y-32682800D01*
X38579898Y-32682800D02*
X38603707Y-32658990D01*
X38603707Y-32658990D02*
X38603707Y-32492323D01*
X38603707Y-32492323D02*
X38508469Y-32492323D01*
X38817993Y-32706609D02*
X38817993Y-32206609D01*
X38817993Y-32206609D02*
X39103707Y-32706609D01*
X39103707Y-32706609D02*
X39103707Y-32206609D01*
X39341803Y-32706609D02*
X39341803Y-32206609D01*
X39341803Y-32206609D02*
X39460851Y-32206609D01*
X39460851Y-32206609D02*
X39532279Y-32230419D01*
X39532279Y-32230419D02*
X39579898Y-32278038D01*
X39579898Y-32278038D02*
X39603708Y-32325657D01*
X39603708Y-32325657D02*
X39627517Y-32420895D01*
X39627517Y-32420895D02*
X39627517Y-32492323D01*
X39627517Y-32492323D02*
X39603708Y-32587561D01*
X39603708Y-32587561D02*
X39579898Y-32635180D01*
X39579898Y-32635180D02*
X39532279Y-32682800D01*
X39532279Y-32682800D02*
X39460851Y-32706609D01*
X39460851Y-32706609D02*
X39341803Y-32706609D01*
X33166565Y-32206609D02*
X33333231Y-32706609D01*
X33333231Y-32706609D02*
X33499898Y-32206609D01*
X33666564Y-32706609D02*
X33666564Y-32206609D01*
X33904659Y-32706609D02*
X33904659Y-32206609D01*
X33904659Y-32206609D02*
X34190373Y-32706609D01*
X34190373Y-32706609D02*
X34190373Y-32206609D01*
X34428469Y-32516133D02*
X34809422Y-32516133D01*
X34618945Y-32706609D02*
X34618945Y-32325657D01*
X35309422Y-32706609D02*
X35023708Y-32706609D01*
X35166565Y-32706609D02*
X35166565Y-32206609D01*
X35166565Y-32206609D02*
X35118946Y-32278038D01*
X35118946Y-32278038D02*
X35071327Y-32325657D01*
X35071327Y-32325657D02*
X35023708Y-32349466D01*
X35499898Y-32254228D02*
X35523707Y-32230419D01*
X35523707Y-32230419D02*
X35571326Y-32206609D01*
X35571326Y-32206609D02*
X35690374Y-32206609D01*
X35690374Y-32206609D02*
X35737993Y-32230419D01*
X35737993Y-32230419D02*
X35761802Y-32254228D01*
X35761802Y-32254228D02*
X35785612Y-32301847D01*
X35785612Y-32301847D02*
X35785612Y-32349466D01*
X35785612Y-32349466D02*
X35761802Y-32420895D01*
X35761802Y-32420895D02*
X35476088Y-32706609D01*
X35476088Y-32706609D02*
X35785612Y-32706609D01*
X71576088Y-32706609D02*
X71337993Y-32706609D01*
X71337993Y-32706609D02*
X71337993Y-32206609D01*
X71837993Y-32206609D02*
X71933231Y-32206609D01*
X71933231Y-32206609D02*
X71980850Y-32230419D01*
X71980850Y-32230419D02*
X72028469Y-32278038D01*
X72028469Y-32278038D02*
X72052279Y-32373276D01*
X72052279Y-32373276D02*
X72052279Y-32539942D01*
X72052279Y-32539942D02*
X72028469Y-32635180D01*
X72028469Y-32635180D02*
X71980850Y-32682800D01*
X71980850Y-32682800D02*
X71933231Y-32706609D01*
X71933231Y-32706609D02*
X71837993Y-32706609D01*
X71837993Y-32706609D02*
X71790374Y-32682800D01*
X71790374Y-32682800D02*
X71742755Y-32635180D01*
X71742755Y-32635180D02*
X71718946Y-32539942D01*
X71718946Y-32539942D02*
X71718946Y-32373276D01*
X71718946Y-32373276D02*
X71742755Y-32278038D01*
X71742755Y-32278038D02*
X71790374Y-32230419D01*
X71790374Y-32230419D02*
X71837993Y-32206609D01*
X72242756Y-32563752D02*
X72480851Y-32563752D01*
X72195137Y-32706609D02*
X72361803Y-32206609D01*
X72361803Y-32206609D02*
X72528470Y-32706609D01*
X72695136Y-32706609D02*
X72695136Y-32206609D01*
X72695136Y-32206609D02*
X72814184Y-32206609D01*
X72814184Y-32206609D02*
X72885612Y-32230419D01*
X72885612Y-32230419D02*
X72933231Y-32278038D01*
X72933231Y-32278038D02*
X72957041Y-32325657D01*
X72957041Y-32325657D02*
X72980850Y-32420895D01*
X72980850Y-32420895D02*
X72980850Y-32492323D01*
X72980850Y-32492323D02*
X72957041Y-32587561D01*
X72957041Y-32587561D02*
X72933231Y-32635180D01*
X72933231Y-32635180D02*
X72885612Y-32682800D01*
X72885612Y-32682800D02*
X72814184Y-32706609D01*
X72814184Y-32706609D02*
X72695136Y-32706609D01*
X73171327Y-32254228D02*
X73195136Y-32230419D01*
X73195136Y-32230419D02*
X73242755Y-32206609D01*
X73242755Y-32206609D02*
X73361803Y-32206609D01*
X73361803Y-32206609D02*
X73409422Y-32230419D01*
X73409422Y-32230419D02*
X73433231Y-32254228D01*
X73433231Y-32254228D02*
X73457041Y-32301847D01*
X73457041Y-32301847D02*
X73457041Y-32349466D01*
X73457041Y-32349466D02*
X73433231Y-32420895D01*
X73433231Y-32420895D02*
X73147517Y-32706609D01*
X73147517Y-32706609D02*
X73457041Y-32706609D01*
X61685993Y-32706609D02*
X61685993Y-32206609D01*
X61685993Y-32206609D02*
X61876469Y-32206609D01*
X61876469Y-32206609D02*
X61924088Y-32230419D01*
X61924088Y-32230419D02*
X61947898Y-32254228D01*
X61947898Y-32254228D02*
X61971707Y-32301847D01*
X61971707Y-32301847D02*
X61971707Y-32373276D01*
X61971707Y-32373276D02*
X61947898Y-32420895D01*
X61947898Y-32420895D02*
X61924088Y-32444704D01*
X61924088Y-32444704D02*
X61876469Y-32468514D01*
X61876469Y-32468514D02*
X61685993Y-32468514D01*
X62138374Y-32206609D02*
X62257422Y-32706609D01*
X62257422Y-32706609D02*
X62352660Y-32349466D01*
X62352660Y-32349466D02*
X62447898Y-32706609D01*
X62447898Y-32706609D02*
X62566946Y-32206609D01*
X62757422Y-32706609D02*
X62757422Y-32206609D01*
X62757422Y-32206609D02*
X62924089Y-32563752D01*
X62924089Y-32563752D02*
X63090755Y-32206609D01*
X63090755Y-32206609D02*
X63090755Y-32706609D01*
X67004088Y-69536609D02*
X66765993Y-69536609D01*
X66765993Y-69536609D02*
X66765993Y-69036609D01*
X67265993Y-69036609D02*
X67361231Y-69036609D01*
X67361231Y-69036609D02*
X67408850Y-69060419D01*
X67408850Y-69060419D02*
X67456469Y-69108038D01*
X67456469Y-69108038D02*
X67480279Y-69203276D01*
X67480279Y-69203276D02*
X67480279Y-69369942D01*
X67480279Y-69369942D02*
X67456469Y-69465180D01*
X67456469Y-69465180D02*
X67408850Y-69512800D01*
X67408850Y-69512800D02*
X67361231Y-69536609D01*
X67361231Y-69536609D02*
X67265993Y-69536609D01*
X67265993Y-69536609D02*
X67218374Y-69512800D01*
X67218374Y-69512800D02*
X67170755Y-69465180D01*
X67170755Y-69465180D02*
X67146946Y-69369942D01*
X67146946Y-69369942D02*
X67146946Y-69203276D01*
X67146946Y-69203276D02*
X67170755Y-69108038D01*
X67170755Y-69108038D02*
X67218374Y-69060419D01*
X67218374Y-69060419D02*
X67265993Y-69036609D01*
X67670756Y-69393752D02*
X67908851Y-69393752D01*
X67623137Y-69536609D02*
X67789803Y-69036609D01*
X67789803Y-69036609D02*
X67956470Y-69536609D01*
X68123136Y-69536609D02*
X68123136Y-69036609D01*
X68123136Y-69036609D02*
X68242184Y-69036609D01*
X68242184Y-69036609D02*
X68313612Y-69060419D01*
X68313612Y-69060419D02*
X68361231Y-69108038D01*
X68361231Y-69108038D02*
X68385041Y-69155657D01*
X68385041Y-69155657D02*
X68408850Y-69250895D01*
X68408850Y-69250895D02*
X68408850Y-69322323D01*
X68408850Y-69322323D02*
X68385041Y-69417561D01*
X68385041Y-69417561D02*
X68361231Y-69465180D01*
X68361231Y-69465180D02*
X68313612Y-69512800D01*
X68313612Y-69512800D02*
X68242184Y-69536609D01*
X68242184Y-69536609D02*
X68123136Y-69536609D01*
X68599327Y-69084228D02*
X68623136Y-69060419D01*
X68623136Y-69060419D02*
X68670755Y-69036609D01*
X68670755Y-69036609D02*
X68789803Y-69036609D01*
X68789803Y-69036609D02*
X68837422Y-69060419D01*
X68837422Y-69060419D02*
X68861231Y-69084228D01*
X68861231Y-69084228D02*
X68885041Y-69131847D01*
X68885041Y-69131847D02*
X68885041Y-69179466D01*
X68885041Y-69179466D02*
X68861231Y-69250895D01*
X68861231Y-69250895D02*
X68575517Y-69536609D01*
X68575517Y-69536609D02*
X68885041Y-69536609D01*
X49755898Y-32230419D02*
X49708279Y-32206609D01*
X49708279Y-32206609D02*
X49636850Y-32206609D01*
X49636850Y-32206609D02*
X49565422Y-32230419D01*
X49565422Y-32230419D02*
X49517803Y-32278038D01*
X49517803Y-32278038D02*
X49493993Y-32325657D01*
X49493993Y-32325657D02*
X49470184Y-32420895D01*
X49470184Y-32420895D02*
X49470184Y-32492323D01*
X49470184Y-32492323D02*
X49493993Y-32587561D01*
X49493993Y-32587561D02*
X49517803Y-32635180D01*
X49517803Y-32635180D02*
X49565422Y-32682800D01*
X49565422Y-32682800D02*
X49636850Y-32706609D01*
X49636850Y-32706609D02*
X49684469Y-32706609D01*
X49684469Y-32706609D02*
X49755898Y-32682800D01*
X49755898Y-32682800D02*
X49779707Y-32658990D01*
X49779707Y-32658990D02*
X49779707Y-32492323D01*
X49779707Y-32492323D02*
X49684469Y-32492323D01*
X49993993Y-32706609D02*
X49993993Y-32206609D01*
X49993993Y-32206609D02*
X50279707Y-32706609D01*
X50279707Y-32706609D02*
X50279707Y-32206609D01*
X50517803Y-32706609D02*
X50517803Y-32206609D01*
X50517803Y-32206609D02*
X50636851Y-32206609D01*
X50636851Y-32206609D02*
X50708279Y-32230419D01*
X50708279Y-32230419D02*
X50755898Y-32278038D01*
X50755898Y-32278038D02*
X50779708Y-32325657D01*
X50779708Y-32325657D02*
X50803517Y-32420895D01*
X50803517Y-32420895D02*
X50803517Y-32492323D01*
X50803517Y-32492323D02*
X50779708Y-32587561D01*
X50779708Y-32587561D02*
X50755898Y-32635180D01*
X50755898Y-32635180D02*
X50708279Y-32682800D01*
X50708279Y-32682800D02*
X50636851Y-32706609D01*
X50636851Y-32706609D02*
X50517803Y-32706609D01*
D12*
X38310737Y-53259666D02*
X38358357Y-53307285D01*
X38358357Y-53307285D02*
X38405976Y-53450142D01*
X38405976Y-53450142D02*
X38405976Y-53545380D01*
X38405976Y-53545380D02*
X38358357Y-53688237D01*
X38358357Y-53688237D02*
X38263118Y-53783475D01*
X38263118Y-53783475D02*
X38167880Y-53831094D01*
X38167880Y-53831094D02*
X37977404Y-53878713D01*
X37977404Y-53878713D02*
X37834547Y-53878713D01*
X37834547Y-53878713D02*
X37644071Y-53831094D01*
X37644071Y-53831094D02*
X37548833Y-53783475D01*
X37548833Y-53783475D02*
X37453595Y-53688237D01*
X37453595Y-53688237D02*
X37405976Y-53545380D01*
X37405976Y-53545380D02*
X37405976Y-53450142D01*
X37405976Y-53450142D02*
X37453595Y-53307285D01*
X37453595Y-53307285D02*
X37501214Y-53259666D01*
X38405976Y-52307285D02*
X38405976Y-52878713D01*
X38405976Y-52592999D02*
X37405976Y-52592999D01*
X37405976Y-52592999D02*
X37548833Y-52688237D01*
X37548833Y-52688237D02*
X37644071Y-52783475D01*
X37644071Y-52783475D02*
X37691690Y-52878713D01*
X56936737Y-54680238D02*
X56984357Y-54727857D01*
X56984357Y-54727857D02*
X57031976Y-54870714D01*
X57031976Y-54870714D02*
X57031976Y-54965952D01*
X57031976Y-54965952D02*
X56984357Y-55108809D01*
X56984357Y-55108809D02*
X56889118Y-55204047D01*
X56889118Y-55204047D02*
X56793880Y-55251666D01*
X56793880Y-55251666D02*
X56603404Y-55299285D01*
X56603404Y-55299285D02*
X56460547Y-55299285D01*
X56460547Y-55299285D02*
X56270071Y-55251666D01*
X56270071Y-55251666D02*
X56174833Y-55204047D01*
X56174833Y-55204047D02*
X56079595Y-55108809D01*
X56079595Y-55108809D02*
X56031976Y-54965952D01*
X56031976Y-54965952D02*
X56031976Y-54870714D01*
X56031976Y-54870714D02*
X56079595Y-54727857D01*
X56079595Y-54727857D02*
X56127214Y-54680238D01*
X56508166Y-53918333D02*
X56555785Y-53775476D01*
X56555785Y-53775476D02*
X56603404Y-53727857D01*
X56603404Y-53727857D02*
X56698642Y-53680238D01*
X56698642Y-53680238D02*
X56841499Y-53680238D01*
X56841499Y-53680238D02*
X56936737Y-53727857D01*
X56936737Y-53727857D02*
X56984357Y-53775476D01*
X56984357Y-53775476D02*
X57031976Y-53870714D01*
X57031976Y-53870714D02*
X57031976Y-54251666D01*
X57031976Y-54251666D02*
X56031976Y-54251666D01*
X56031976Y-54251666D02*
X56031976Y-53918333D01*
X56031976Y-53918333D02*
X56079595Y-53823095D01*
X56079595Y-53823095D02*
X56127214Y-53775476D01*
X56127214Y-53775476D02*
X56222452Y-53727857D01*
X56222452Y-53727857D02*
X56317690Y-53727857D01*
X56317690Y-53727857D02*
X56412928Y-53775476D01*
X56412928Y-53775476D02*
X56460547Y-53823095D01*
X56460547Y-53823095D02*
X56508166Y-53918333D01*
X56508166Y-53918333D02*
X56508166Y-54251666D01*
X56031976Y-53061190D02*
X56031976Y-52870714D01*
X56031976Y-52870714D02*
X56079595Y-52775476D01*
X56079595Y-52775476D02*
X56174833Y-52680238D01*
X56174833Y-52680238D02*
X56365309Y-52632619D01*
X56365309Y-52632619D02*
X56698642Y-52632619D01*
X56698642Y-52632619D02*
X56889118Y-52680238D01*
X56889118Y-52680238D02*
X56984357Y-52775476D01*
X56984357Y-52775476D02*
X57031976Y-52870714D01*
X57031976Y-52870714D02*
X57031976Y-53061190D01*
X57031976Y-53061190D02*
X56984357Y-53156428D01*
X56984357Y-53156428D02*
X56889118Y-53251666D01*
X56889118Y-53251666D02*
X56698642Y-53299285D01*
X56698642Y-53299285D02*
X56365309Y-53299285D01*
X56365309Y-53299285D02*
X56174833Y-53251666D01*
X56174833Y-53251666D02*
X56079595Y-53156428D01*
X56079595Y-53156428D02*
X56031976Y-53061190D01*
X56031976Y-52013571D02*
X56031976Y-51823095D01*
X56031976Y-51823095D02*
X56079595Y-51727857D01*
X56079595Y-51727857D02*
X56174833Y-51632619D01*
X56174833Y-51632619D02*
X56365309Y-51585000D01*
X56365309Y-51585000D02*
X56698642Y-51585000D01*
X56698642Y-51585000D02*
X56889118Y-51632619D01*
X56889118Y-51632619D02*
X56984357Y-51727857D01*
X56984357Y-51727857D02*
X57031976Y-51823095D01*
X57031976Y-51823095D02*
X57031976Y-52013571D01*
X57031976Y-52013571D02*
X56984357Y-52108809D01*
X56984357Y-52108809D02*
X56889118Y-52204047D01*
X56889118Y-52204047D02*
X56698642Y-52251666D01*
X56698642Y-52251666D02*
X56365309Y-52251666D01*
X56365309Y-52251666D02*
X56174833Y-52204047D01*
X56174833Y-52204047D02*
X56079595Y-52108809D01*
X56079595Y-52108809D02*
X56031976Y-52013571D01*
X56031976Y-51299285D02*
X56031976Y-50727857D01*
X57031976Y-51013571D02*
X56031976Y-51013571D01*
X57031976Y-49870714D02*
X57031976Y-50442142D01*
X57031976Y-50156428D02*
X56031976Y-50156428D01*
X56031976Y-50156428D02*
X56174833Y-50251666D01*
X56174833Y-50251666D02*
X56270071Y-50346904D01*
X56270071Y-50346904D02*
X56317690Y-50442142D01*
X43975252Y-60167819D02*
X43975252Y-60977342D01*
X43975252Y-60977342D02*
X44022871Y-61072580D01*
X44022871Y-61072580D02*
X44070490Y-61120200D01*
X44070490Y-61120200D02*
X44165728Y-61167819D01*
X44165728Y-61167819D02*
X44356204Y-61167819D01*
X44356204Y-61167819D02*
X44451442Y-61120200D01*
X44451442Y-61120200D02*
X44499061Y-61072580D01*
X44499061Y-61072580D02*
X44546680Y-60977342D01*
X44546680Y-60977342D02*
X44546680Y-60167819D01*
X44975252Y-60263057D02*
X45022871Y-60215438D01*
X45022871Y-60215438D02*
X45118109Y-60167819D01*
X45118109Y-60167819D02*
X45356204Y-60167819D01*
X45356204Y-60167819D02*
X45451442Y-60215438D01*
X45451442Y-60215438D02*
X45499061Y-60263057D01*
X45499061Y-60263057D02*
X45546680Y-60358295D01*
X45546680Y-60358295D02*
X45546680Y-60453533D01*
X45546680Y-60453533D02*
X45499061Y-60596390D01*
X45499061Y-60596390D02*
X44927633Y-61167819D01*
X44927633Y-61167819D02*
X45546680Y-61167819D01*
D10*
X62421918Y-61265657D02*
X62326680Y-61218038D01*
X62326680Y-61218038D02*
X62231442Y-61122800D01*
X62231442Y-61122800D02*
X62088585Y-60979942D01*
X62088585Y-60979942D02*
X61993347Y-60932323D01*
X61993347Y-60932323D02*
X61898109Y-60932323D01*
X61945728Y-61170419D02*
X61850490Y-61122800D01*
X61850490Y-61122800D02*
X61755252Y-61027561D01*
X61755252Y-61027561D02*
X61707633Y-60837085D01*
X61707633Y-60837085D02*
X61707633Y-60503752D01*
X61707633Y-60503752D02*
X61755252Y-60313276D01*
X61755252Y-60313276D02*
X61850490Y-60218038D01*
X61850490Y-60218038D02*
X61945728Y-60170419D01*
X61945728Y-60170419D02*
X62136204Y-60170419D01*
X62136204Y-60170419D02*
X62231442Y-60218038D01*
X62231442Y-60218038D02*
X62326680Y-60313276D01*
X62326680Y-60313276D02*
X62374299Y-60503752D01*
X62374299Y-60503752D02*
X62374299Y-60837085D01*
X62374299Y-60837085D02*
X62326680Y-61027561D01*
X62326680Y-61027561D02*
X62231442Y-61122800D01*
X62231442Y-61122800D02*
X62136204Y-61170419D01*
X62136204Y-61170419D02*
X61945728Y-61170419D01*
X62707633Y-60170419D02*
X63326680Y-60170419D01*
X63326680Y-60170419D02*
X62993347Y-60551371D01*
X62993347Y-60551371D02*
X63136204Y-60551371D01*
X63136204Y-60551371D02*
X63231442Y-60598990D01*
X63231442Y-60598990D02*
X63279061Y-60646609D01*
X63279061Y-60646609D02*
X63326680Y-60741847D01*
X63326680Y-60741847D02*
X63326680Y-60979942D01*
X63326680Y-60979942D02*
X63279061Y-61075180D01*
X63279061Y-61075180D02*
X63231442Y-61122800D01*
X63231442Y-61122800D02*
X63136204Y-61170419D01*
X63136204Y-61170419D02*
X62850490Y-61170419D01*
X62850490Y-61170419D02*
X62755252Y-61122800D01*
X62755252Y-61122800D02*
X62707633Y-61075180D01*
D12*
X60177976Y-55291571D02*
X59701785Y-55624904D01*
X60177976Y-55862999D02*
X59177976Y-55862999D01*
X59177976Y-55862999D02*
X59177976Y-55482047D01*
X59177976Y-55482047D02*
X59225595Y-55386809D01*
X59225595Y-55386809D02*
X59273214Y-55339190D01*
X59273214Y-55339190D02*
X59368452Y-55291571D01*
X59368452Y-55291571D02*
X59511309Y-55291571D01*
X59511309Y-55291571D02*
X59606547Y-55339190D01*
X59606547Y-55339190D02*
X59654166Y-55386809D01*
X59654166Y-55386809D02*
X59701785Y-55482047D01*
X59701785Y-55482047D02*
X59701785Y-55862999D01*
X59225595Y-54339190D02*
X59177976Y-54434428D01*
X59177976Y-54434428D02*
X59177976Y-54577285D01*
X59177976Y-54577285D02*
X59225595Y-54720142D01*
X59225595Y-54720142D02*
X59320833Y-54815380D01*
X59320833Y-54815380D02*
X59416071Y-54862999D01*
X59416071Y-54862999D02*
X59606547Y-54910618D01*
X59606547Y-54910618D02*
X59749404Y-54910618D01*
X59749404Y-54910618D02*
X59939880Y-54862999D01*
X59939880Y-54862999D02*
X60035118Y-54815380D01*
X60035118Y-54815380D02*
X60130357Y-54720142D01*
X60130357Y-54720142D02*
X60177976Y-54577285D01*
X60177976Y-54577285D02*
X60177976Y-54482047D01*
X60177976Y-54482047D02*
X60130357Y-54339190D01*
X60130357Y-54339190D02*
X60082737Y-54291571D01*
X60082737Y-54291571D02*
X59749404Y-54291571D01*
X59749404Y-54291571D02*
X59749404Y-54482047D01*
X59892261Y-53910618D02*
X59892261Y-53434428D01*
X60177976Y-54005856D02*
X59177976Y-53672523D01*
X59177976Y-53672523D02*
X60177976Y-53339190D01*
X59177976Y-53148713D02*
X59177976Y-52577285D01*
X60177976Y-52862999D02*
X59177976Y-52862999D01*
X59654166Y-52243951D02*
X59654166Y-51910618D01*
X60177976Y-51767761D02*
X60177976Y-52243951D01*
X60177976Y-52243951D02*
X59177976Y-52243951D01*
X59177976Y-52243951D02*
X59177976Y-51767761D01*
X59273214Y-51386808D02*
X59225595Y-51339189D01*
X59225595Y-51339189D02*
X59177976Y-51243951D01*
X59177976Y-51243951D02*
X59177976Y-51005856D01*
X59177976Y-51005856D02*
X59225595Y-50910618D01*
X59225595Y-50910618D02*
X59273214Y-50862999D01*
X59273214Y-50862999D02*
X59368452Y-50815380D01*
X59368452Y-50815380D02*
X59463690Y-50815380D01*
X59463690Y-50815380D02*
X59606547Y-50862999D01*
X59606547Y-50862999D02*
X60177976Y-51434427D01*
X60177976Y-51434427D02*
X60177976Y-50815380D01*
X60177976Y-70404571D02*
X59701785Y-70737904D01*
X60177976Y-70975999D02*
X59177976Y-70975999D01*
X59177976Y-70975999D02*
X59177976Y-70595047D01*
X59177976Y-70595047D02*
X59225595Y-70499809D01*
X59225595Y-70499809D02*
X59273214Y-70452190D01*
X59273214Y-70452190D02*
X59368452Y-70404571D01*
X59368452Y-70404571D02*
X59511309Y-70404571D01*
X59511309Y-70404571D02*
X59606547Y-70452190D01*
X59606547Y-70452190D02*
X59654166Y-70499809D01*
X59654166Y-70499809D02*
X59701785Y-70595047D01*
X59701785Y-70595047D02*
X59701785Y-70975999D01*
X59225595Y-69452190D02*
X59177976Y-69547428D01*
X59177976Y-69547428D02*
X59177976Y-69690285D01*
X59177976Y-69690285D02*
X59225595Y-69833142D01*
X59225595Y-69833142D02*
X59320833Y-69928380D01*
X59320833Y-69928380D02*
X59416071Y-69975999D01*
X59416071Y-69975999D02*
X59606547Y-70023618D01*
X59606547Y-70023618D02*
X59749404Y-70023618D01*
X59749404Y-70023618D02*
X59939880Y-69975999D01*
X59939880Y-69975999D02*
X60035118Y-69928380D01*
X60035118Y-69928380D02*
X60130357Y-69833142D01*
X60130357Y-69833142D02*
X60177976Y-69690285D01*
X60177976Y-69690285D02*
X60177976Y-69595047D01*
X60177976Y-69595047D02*
X60130357Y-69452190D01*
X60130357Y-69452190D02*
X60082737Y-69404571D01*
X60082737Y-69404571D02*
X59749404Y-69404571D01*
X59749404Y-69404571D02*
X59749404Y-69595047D01*
X59892261Y-69023618D02*
X59892261Y-68547428D01*
X60177976Y-69118856D02*
X59177976Y-68785523D01*
X59177976Y-68785523D02*
X60177976Y-68452190D01*
X59177976Y-68261713D02*
X59177976Y-67690285D01*
X60177976Y-67975999D02*
X59177976Y-67975999D01*
X59654166Y-67356951D02*
X59654166Y-67023618D01*
X60177976Y-66880761D02*
X60177976Y-67356951D01*
X60177976Y-67356951D02*
X59177976Y-67356951D01*
X59177976Y-67356951D02*
X59177976Y-66880761D01*
X59511309Y-66023618D02*
X60177976Y-66023618D01*
X59130357Y-66261713D02*
X59844642Y-66499808D01*
X59844642Y-66499808D02*
X59844642Y-65880761D01*
X48830776Y-67103666D02*
X47830776Y-67103666D01*
X47830776Y-67103666D02*
X47830776Y-66865571D01*
X47830776Y-66865571D02*
X47878395Y-66722714D01*
X47878395Y-66722714D02*
X47973633Y-66627476D01*
X47973633Y-66627476D02*
X48068871Y-66579857D01*
X48068871Y-66579857D02*
X48259347Y-66532238D01*
X48259347Y-66532238D02*
X48402204Y-66532238D01*
X48402204Y-66532238D02*
X48592680Y-66579857D01*
X48592680Y-66579857D02*
X48687918Y-66627476D01*
X48687918Y-66627476D02*
X48783157Y-66722714D01*
X48783157Y-66722714D02*
X48830776Y-66865571D01*
X48830776Y-66865571D02*
X48830776Y-67103666D01*
X48306966Y-65770333D02*
X48354585Y-65627476D01*
X48354585Y-65627476D02*
X48402204Y-65579857D01*
X48402204Y-65579857D02*
X48497442Y-65532238D01*
X48497442Y-65532238D02*
X48640299Y-65532238D01*
X48640299Y-65532238D02*
X48735537Y-65579857D01*
X48735537Y-65579857D02*
X48783157Y-65627476D01*
X48783157Y-65627476D02*
X48830776Y-65722714D01*
X48830776Y-65722714D02*
X48830776Y-66103666D01*
X48830776Y-66103666D02*
X47830776Y-66103666D01*
X47830776Y-66103666D02*
X47830776Y-65770333D01*
X47830776Y-65770333D02*
X47878395Y-65675095D01*
X47878395Y-65675095D02*
X47926014Y-65627476D01*
X47926014Y-65627476D02*
X48021252Y-65579857D01*
X48021252Y-65579857D02*
X48116490Y-65579857D01*
X48116490Y-65579857D02*
X48211728Y-65627476D01*
X48211728Y-65627476D02*
X48259347Y-65675095D01*
X48259347Y-65675095D02*
X48306966Y-65770333D01*
X48306966Y-65770333D02*
X48306966Y-66103666D01*
X47830776Y-64913190D02*
X47830776Y-64722714D01*
X47830776Y-64722714D02*
X47878395Y-64627476D01*
X47878395Y-64627476D02*
X47973633Y-64532238D01*
X47973633Y-64532238D02*
X48164109Y-64484619D01*
X48164109Y-64484619D02*
X48497442Y-64484619D01*
X48497442Y-64484619D02*
X48687918Y-64532238D01*
X48687918Y-64532238D02*
X48783157Y-64627476D01*
X48783157Y-64627476D02*
X48830776Y-64722714D01*
X48830776Y-64722714D02*
X48830776Y-64913190D01*
X48830776Y-64913190D02*
X48783157Y-65008428D01*
X48783157Y-65008428D02*
X48687918Y-65103666D01*
X48687918Y-65103666D02*
X48497442Y-65151285D01*
X48497442Y-65151285D02*
X48164109Y-65151285D01*
X48164109Y-65151285D02*
X47973633Y-65103666D01*
X47973633Y-65103666D02*
X47878395Y-65008428D01*
X47878395Y-65008428D02*
X47830776Y-64913190D01*
X47830776Y-63865571D02*
X47830776Y-63675095D01*
X47830776Y-63675095D02*
X47878395Y-63579857D01*
X47878395Y-63579857D02*
X47973633Y-63484619D01*
X47973633Y-63484619D02*
X48164109Y-63437000D01*
X48164109Y-63437000D02*
X48497442Y-63437000D01*
X48497442Y-63437000D02*
X48687918Y-63484619D01*
X48687918Y-63484619D02*
X48783157Y-63579857D01*
X48783157Y-63579857D02*
X48830776Y-63675095D01*
X48830776Y-63675095D02*
X48830776Y-63865571D01*
X48830776Y-63865571D02*
X48783157Y-63960809D01*
X48783157Y-63960809D02*
X48687918Y-64056047D01*
X48687918Y-64056047D02*
X48497442Y-64103666D01*
X48497442Y-64103666D02*
X48164109Y-64103666D01*
X48164109Y-64103666D02*
X47973633Y-64056047D01*
X47973633Y-64056047D02*
X47878395Y-63960809D01*
X47878395Y-63960809D02*
X47830776Y-63865571D01*
X47830776Y-63151285D02*
X47830776Y-62579857D01*
X48830776Y-62865571D02*
X47830776Y-62865571D01*
X47926014Y-62294142D02*
X47878395Y-62246523D01*
X47878395Y-62246523D02*
X47830776Y-62151285D01*
X47830776Y-62151285D02*
X47830776Y-61913190D01*
X47830776Y-61913190D02*
X47878395Y-61817952D01*
X47878395Y-61817952D02*
X47926014Y-61770333D01*
X47926014Y-61770333D02*
X48021252Y-61722714D01*
X48021252Y-61722714D02*
X48116490Y-61722714D01*
X48116490Y-61722714D02*
X48259347Y-61770333D01*
X48259347Y-61770333D02*
X48830776Y-62341761D01*
X48830776Y-62341761D02*
X48830776Y-61722714D01*
X53391976Y-65657571D02*
X52915785Y-65990904D01*
X53391976Y-66228999D02*
X52391976Y-66228999D01*
X52391976Y-66228999D02*
X52391976Y-65848047D01*
X52391976Y-65848047D02*
X52439595Y-65752809D01*
X52439595Y-65752809D02*
X52487214Y-65705190D01*
X52487214Y-65705190D02*
X52582452Y-65657571D01*
X52582452Y-65657571D02*
X52725309Y-65657571D01*
X52725309Y-65657571D02*
X52820547Y-65705190D01*
X52820547Y-65705190D02*
X52868166Y-65752809D01*
X52868166Y-65752809D02*
X52915785Y-65848047D01*
X52915785Y-65848047D02*
X52915785Y-66228999D01*
X52439595Y-64705190D02*
X52391976Y-64800428D01*
X52391976Y-64800428D02*
X52391976Y-64943285D01*
X52391976Y-64943285D02*
X52439595Y-65086142D01*
X52439595Y-65086142D02*
X52534833Y-65181380D01*
X52534833Y-65181380D02*
X52630071Y-65228999D01*
X52630071Y-65228999D02*
X52820547Y-65276618D01*
X52820547Y-65276618D02*
X52963404Y-65276618D01*
X52963404Y-65276618D02*
X53153880Y-65228999D01*
X53153880Y-65228999D02*
X53249118Y-65181380D01*
X53249118Y-65181380D02*
X53344357Y-65086142D01*
X53344357Y-65086142D02*
X53391976Y-64943285D01*
X53391976Y-64943285D02*
X53391976Y-64848047D01*
X53391976Y-64848047D02*
X53344357Y-64705190D01*
X53344357Y-64705190D02*
X53296737Y-64657571D01*
X53296737Y-64657571D02*
X52963404Y-64657571D01*
X52963404Y-64657571D02*
X52963404Y-64848047D01*
X53106261Y-64276618D02*
X53106261Y-63800428D01*
X53391976Y-64371856D02*
X52391976Y-64038523D01*
X52391976Y-64038523D02*
X53391976Y-63705190D01*
X52391976Y-63514713D02*
X52391976Y-62943285D01*
X53391976Y-63228999D02*
X52391976Y-63228999D01*
X52868166Y-62609951D02*
X52868166Y-62276618D01*
X53391976Y-62133761D02*
X53391976Y-62609951D01*
X53391976Y-62609951D02*
X52391976Y-62609951D01*
X52391976Y-62609951D02*
X52391976Y-62133761D01*
X52391976Y-61800427D02*
X52391976Y-61181380D01*
X52391976Y-61181380D02*
X52772928Y-61514713D01*
X52772928Y-61514713D02*
X52772928Y-61371856D01*
X52772928Y-61371856D02*
X52820547Y-61276618D01*
X52820547Y-61276618D02*
X52868166Y-61228999D01*
X52868166Y-61228999D02*
X52963404Y-61181380D01*
X52963404Y-61181380D02*
X53201499Y-61181380D01*
X53201499Y-61181380D02*
X53296737Y-61228999D01*
X53296737Y-61228999D02*
X53344357Y-61276618D01*
X53344357Y-61276618D02*
X53391976Y-61371856D01*
X53391976Y-61371856D02*
X53391976Y-61657570D01*
X53391976Y-61657570D02*
X53344357Y-61752808D01*
X53344357Y-61752808D02*
X53296737Y-61800427D01*
D10*
X67501918Y-47041657D02*
X67406680Y-46994038D01*
X67406680Y-46994038D02*
X67311442Y-46898800D01*
X67311442Y-46898800D02*
X67168585Y-46755942D01*
X67168585Y-46755942D02*
X67073347Y-46708323D01*
X67073347Y-46708323D02*
X66978109Y-46708323D01*
X67025728Y-46946419D02*
X66930490Y-46898800D01*
X66930490Y-46898800D02*
X66835252Y-46803561D01*
X66835252Y-46803561D02*
X66787633Y-46613085D01*
X66787633Y-46613085D02*
X66787633Y-46279752D01*
X66787633Y-46279752D02*
X66835252Y-46089276D01*
X66835252Y-46089276D02*
X66930490Y-45994038D01*
X66930490Y-45994038D02*
X67025728Y-45946419D01*
X67025728Y-45946419D02*
X67216204Y-45946419D01*
X67216204Y-45946419D02*
X67311442Y-45994038D01*
X67311442Y-45994038D02*
X67406680Y-46089276D01*
X67406680Y-46089276D02*
X67454299Y-46279752D01*
X67454299Y-46279752D02*
X67454299Y-46613085D01*
X67454299Y-46613085D02*
X67406680Y-46803561D01*
X67406680Y-46803561D02*
X67311442Y-46898800D01*
X67311442Y-46898800D02*
X67216204Y-46946419D01*
X67216204Y-46946419D02*
X67025728Y-46946419D01*
X67835252Y-46041657D02*
X67882871Y-45994038D01*
X67882871Y-45994038D02*
X67978109Y-45946419D01*
X67978109Y-45946419D02*
X68216204Y-45946419D01*
X68216204Y-45946419D02*
X68311442Y-45994038D01*
X68311442Y-45994038D02*
X68359061Y-46041657D01*
X68359061Y-46041657D02*
X68406680Y-46136895D01*
X68406680Y-46136895D02*
X68406680Y-46232133D01*
X68406680Y-46232133D02*
X68359061Y-46374990D01*
X68359061Y-46374990D02*
X67787633Y-46946419D01*
X67787633Y-46946419D02*
X68406680Y-46946419D01*
D12*
X56682737Y-68750738D02*
X56730357Y-68798357D01*
X56730357Y-68798357D02*
X56777976Y-68941214D01*
X56777976Y-68941214D02*
X56777976Y-69036452D01*
X56777976Y-69036452D02*
X56730357Y-69179309D01*
X56730357Y-69179309D02*
X56635118Y-69274547D01*
X56635118Y-69274547D02*
X56539880Y-69322166D01*
X56539880Y-69322166D02*
X56349404Y-69369785D01*
X56349404Y-69369785D02*
X56206547Y-69369785D01*
X56206547Y-69369785D02*
X56016071Y-69322166D01*
X56016071Y-69322166D02*
X55920833Y-69274547D01*
X55920833Y-69274547D02*
X55825595Y-69179309D01*
X55825595Y-69179309D02*
X55777976Y-69036452D01*
X55777976Y-69036452D02*
X55777976Y-68941214D01*
X55777976Y-68941214D02*
X55825595Y-68798357D01*
X55825595Y-68798357D02*
X55873214Y-68750738D01*
X56254166Y-67988833D02*
X56301785Y-67845976D01*
X56301785Y-67845976D02*
X56349404Y-67798357D01*
X56349404Y-67798357D02*
X56444642Y-67750738D01*
X56444642Y-67750738D02*
X56587499Y-67750738D01*
X56587499Y-67750738D02*
X56682737Y-67798357D01*
X56682737Y-67798357D02*
X56730357Y-67845976D01*
X56730357Y-67845976D02*
X56777976Y-67941214D01*
X56777976Y-67941214D02*
X56777976Y-68322166D01*
X56777976Y-68322166D02*
X55777976Y-68322166D01*
X55777976Y-68322166D02*
X55777976Y-67988833D01*
X55777976Y-67988833D02*
X55825595Y-67893595D01*
X55825595Y-67893595D02*
X55873214Y-67845976D01*
X55873214Y-67845976D02*
X55968452Y-67798357D01*
X55968452Y-67798357D02*
X56063690Y-67798357D01*
X56063690Y-67798357D02*
X56158928Y-67845976D01*
X56158928Y-67845976D02*
X56206547Y-67893595D01*
X56206547Y-67893595D02*
X56254166Y-67988833D01*
X56254166Y-67988833D02*
X56254166Y-68322166D01*
X55777976Y-67131690D02*
X55777976Y-66941214D01*
X55777976Y-66941214D02*
X55825595Y-66845976D01*
X55825595Y-66845976D02*
X55920833Y-66750738D01*
X55920833Y-66750738D02*
X56111309Y-66703119D01*
X56111309Y-66703119D02*
X56444642Y-66703119D01*
X56444642Y-66703119D02*
X56635118Y-66750738D01*
X56635118Y-66750738D02*
X56730357Y-66845976D01*
X56730357Y-66845976D02*
X56777976Y-66941214D01*
X56777976Y-66941214D02*
X56777976Y-67131690D01*
X56777976Y-67131690D02*
X56730357Y-67226928D01*
X56730357Y-67226928D02*
X56635118Y-67322166D01*
X56635118Y-67322166D02*
X56444642Y-67369785D01*
X56444642Y-67369785D02*
X56111309Y-67369785D01*
X56111309Y-67369785D02*
X55920833Y-67322166D01*
X55920833Y-67322166D02*
X55825595Y-67226928D01*
X55825595Y-67226928D02*
X55777976Y-67131690D01*
X55777976Y-66084071D02*
X55777976Y-65893595D01*
X55777976Y-65893595D02*
X55825595Y-65798357D01*
X55825595Y-65798357D02*
X55920833Y-65703119D01*
X55920833Y-65703119D02*
X56111309Y-65655500D01*
X56111309Y-65655500D02*
X56444642Y-65655500D01*
X56444642Y-65655500D02*
X56635118Y-65703119D01*
X56635118Y-65703119D02*
X56730357Y-65798357D01*
X56730357Y-65798357D02*
X56777976Y-65893595D01*
X56777976Y-65893595D02*
X56777976Y-66084071D01*
X56777976Y-66084071D02*
X56730357Y-66179309D01*
X56730357Y-66179309D02*
X56635118Y-66274547D01*
X56635118Y-66274547D02*
X56444642Y-66322166D01*
X56444642Y-66322166D02*
X56111309Y-66322166D01*
X56111309Y-66322166D02*
X55920833Y-66274547D01*
X55920833Y-66274547D02*
X55825595Y-66179309D01*
X55825595Y-66179309D02*
X55777976Y-66084071D01*
X55777976Y-65369785D02*
X55777976Y-64798357D01*
X56777976Y-65084071D02*
X55777976Y-65084071D01*
X55873214Y-64512642D02*
X55825595Y-64465023D01*
X55825595Y-64465023D02*
X55777976Y-64369785D01*
X55777976Y-64369785D02*
X55777976Y-64131690D01*
X55777976Y-64131690D02*
X55825595Y-64036452D01*
X55825595Y-64036452D02*
X55873214Y-63988833D01*
X55873214Y-63988833D02*
X55968452Y-63941214D01*
X55968452Y-63941214D02*
X56063690Y-63941214D01*
X56063690Y-63941214D02*
X56206547Y-63988833D01*
X56206547Y-63988833D02*
X56777976Y-64560261D01*
X56777976Y-64560261D02*
X56777976Y-63941214D01*
X49001976Y-45790238D02*
X48525785Y-46123571D01*
X49001976Y-46361666D02*
X48001976Y-46361666D01*
X48001976Y-46361666D02*
X48001976Y-45980714D01*
X48001976Y-45980714D02*
X48049595Y-45885476D01*
X48049595Y-45885476D02*
X48097214Y-45837857D01*
X48097214Y-45837857D02*
X48192452Y-45790238D01*
X48192452Y-45790238D02*
X48335309Y-45790238D01*
X48335309Y-45790238D02*
X48430547Y-45837857D01*
X48430547Y-45837857D02*
X48478166Y-45885476D01*
X48478166Y-45885476D02*
X48525785Y-45980714D01*
X48525785Y-45980714D02*
X48525785Y-46361666D01*
X48478166Y-45028333D02*
X48525785Y-44885476D01*
X48525785Y-44885476D02*
X48573404Y-44837857D01*
X48573404Y-44837857D02*
X48668642Y-44790238D01*
X48668642Y-44790238D02*
X48811499Y-44790238D01*
X48811499Y-44790238D02*
X48906737Y-44837857D01*
X48906737Y-44837857D02*
X48954357Y-44885476D01*
X48954357Y-44885476D02*
X49001976Y-44980714D01*
X49001976Y-44980714D02*
X49001976Y-45361666D01*
X49001976Y-45361666D02*
X48001976Y-45361666D01*
X48001976Y-45361666D02*
X48001976Y-45028333D01*
X48001976Y-45028333D02*
X48049595Y-44933095D01*
X48049595Y-44933095D02*
X48097214Y-44885476D01*
X48097214Y-44885476D02*
X48192452Y-44837857D01*
X48192452Y-44837857D02*
X48287690Y-44837857D01*
X48287690Y-44837857D02*
X48382928Y-44885476D01*
X48382928Y-44885476D02*
X48430547Y-44933095D01*
X48430547Y-44933095D02*
X48478166Y-45028333D01*
X48478166Y-45028333D02*
X48478166Y-45361666D01*
X48001976Y-44171190D02*
X48001976Y-43980714D01*
X48001976Y-43980714D02*
X48049595Y-43885476D01*
X48049595Y-43885476D02*
X48144833Y-43790238D01*
X48144833Y-43790238D02*
X48335309Y-43742619D01*
X48335309Y-43742619D02*
X48668642Y-43742619D01*
X48668642Y-43742619D02*
X48859118Y-43790238D01*
X48859118Y-43790238D02*
X48954357Y-43885476D01*
X48954357Y-43885476D02*
X49001976Y-43980714D01*
X49001976Y-43980714D02*
X49001976Y-44171190D01*
X49001976Y-44171190D02*
X48954357Y-44266428D01*
X48954357Y-44266428D02*
X48859118Y-44361666D01*
X48859118Y-44361666D02*
X48668642Y-44409285D01*
X48668642Y-44409285D02*
X48335309Y-44409285D01*
X48335309Y-44409285D02*
X48144833Y-44361666D01*
X48144833Y-44361666D02*
X48049595Y-44266428D01*
X48049595Y-44266428D02*
X48001976Y-44171190D01*
X48001976Y-43123571D02*
X48001976Y-42933095D01*
X48001976Y-42933095D02*
X48049595Y-42837857D01*
X48049595Y-42837857D02*
X48144833Y-42742619D01*
X48144833Y-42742619D02*
X48335309Y-42695000D01*
X48335309Y-42695000D02*
X48668642Y-42695000D01*
X48668642Y-42695000D02*
X48859118Y-42742619D01*
X48859118Y-42742619D02*
X48954357Y-42837857D01*
X48954357Y-42837857D02*
X49001976Y-42933095D01*
X49001976Y-42933095D02*
X49001976Y-43123571D01*
X49001976Y-43123571D02*
X48954357Y-43218809D01*
X48954357Y-43218809D02*
X48859118Y-43314047D01*
X48859118Y-43314047D02*
X48668642Y-43361666D01*
X48668642Y-43361666D02*
X48335309Y-43361666D01*
X48335309Y-43361666D02*
X48144833Y-43314047D01*
X48144833Y-43314047D02*
X48049595Y-43218809D01*
X48049595Y-43218809D02*
X48001976Y-43123571D01*
X48001976Y-42409285D02*
X48001976Y-41837857D01*
X49001976Y-42123571D02*
X48001976Y-42123571D01*
X49001976Y-40980714D02*
X49001976Y-41552142D01*
X49001976Y-41266428D02*
X48001976Y-41266428D01*
X48001976Y-41266428D02*
X48144833Y-41361666D01*
X48144833Y-41361666D02*
X48240071Y-41456904D01*
X48240071Y-41456904D02*
X48287690Y-41552142D01*
X55031737Y-45282238D02*
X55079357Y-45329857D01*
X55079357Y-45329857D02*
X55126976Y-45472714D01*
X55126976Y-45472714D02*
X55126976Y-45567952D01*
X55126976Y-45567952D02*
X55079357Y-45710809D01*
X55079357Y-45710809D02*
X54984118Y-45806047D01*
X54984118Y-45806047D02*
X54888880Y-45853666D01*
X54888880Y-45853666D02*
X54698404Y-45901285D01*
X54698404Y-45901285D02*
X54555547Y-45901285D01*
X54555547Y-45901285D02*
X54365071Y-45853666D01*
X54365071Y-45853666D02*
X54269833Y-45806047D01*
X54269833Y-45806047D02*
X54174595Y-45710809D01*
X54174595Y-45710809D02*
X54126976Y-45567952D01*
X54126976Y-45567952D02*
X54126976Y-45472714D01*
X54126976Y-45472714D02*
X54174595Y-45329857D01*
X54174595Y-45329857D02*
X54222214Y-45282238D01*
X54174595Y-44329857D02*
X54126976Y-44425095D01*
X54126976Y-44425095D02*
X54126976Y-44567952D01*
X54126976Y-44567952D02*
X54174595Y-44710809D01*
X54174595Y-44710809D02*
X54269833Y-44806047D01*
X54269833Y-44806047D02*
X54365071Y-44853666D01*
X54365071Y-44853666D02*
X54555547Y-44901285D01*
X54555547Y-44901285D02*
X54698404Y-44901285D01*
X54698404Y-44901285D02*
X54888880Y-44853666D01*
X54888880Y-44853666D02*
X54984118Y-44806047D01*
X54984118Y-44806047D02*
X55079357Y-44710809D01*
X55079357Y-44710809D02*
X55126976Y-44567952D01*
X55126976Y-44567952D02*
X55126976Y-44472714D01*
X55126976Y-44472714D02*
X55079357Y-44329857D01*
X55079357Y-44329857D02*
X55031737Y-44282238D01*
X55031737Y-44282238D02*
X54698404Y-44282238D01*
X54698404Y-44282238D02*
X54698404Y-44472714D01*
X54126976Y-43996523D02*
X55126976Y-43663190D01*
X55126976Y-43663190D02*
X54126976Y-43329857D01*
X55126976Y-42996523D02*
X54126976Y-42996523D01*
X54126976Y-42996523D02*
X54126976Y-42758428D01*
X54126976Y-42758428D02*
X54174595Y-42615571D01*
X54174595Y-42615571D02*
X54269833Y-42520333D01*
X54269833Y-42520333D02*
X54365071Y-42472714D01*
X54365071Y-42472714D02*
X54555547Y-42425095D01*
X54555547Y-42425095D02*
X54698404Y-42425095D01*
X54698404Y-42425095D02*
X54888880Y-42472714D01*
X54888880Y-42472714D02*
X54984118Y-42520333D01*
X54984118Y-42520333D02*
X55079357Y-42615571D01*
X55079357Y-42615571D02*
X55126976Y-42758428D01*
X55126976Y-42758428D02*
X55126976Y-42996523D01*
X55126976Y-41996523D02*
X54126976Y-41996523D01*
X54126976Y-41996523D02*
X54126976Y-41758428D01*
X54126976Y-41758428D02*
X54174595Y-41615571D01*
X54174595Y-41615571D02*
X54269833Y-41520333D01*
X54269833Y-41520333D02*
X54365071Y-41472714D01*
X54365071Y-41472714D02*
X54555547Y-41425095D01*
X54555547Y-41425095D02*
X54698404Y-41425095D01*
X54698404Y-41425095D02*
X54888880Y-41472714D01*
X54888880Y-41472714D02*
X54984118Y-41520333D01*
X54984118Y-41520333D02*
X55079357Y-41615571D01*
X55079357Y-41615571D02*
X55126976Y-41758428D01*
X55126976Y-41758428D02*
X55126976Y-41996523D01*
X55126976Y-40472714D02*
X55126976Y-41044142D01*
X55126976Y-40758428D02*
X54126976Y-40758428D01*
X54126976Y-40758428D02*
X54269833Y-40853666D01*
X54269833Y-40853666D02*
X54365071Y-40948904D01*
X54365071Y-40948904D02*
X54412690Y-41044142D01*
X64703823Y-31999819D02*
X64703823Y-32714104D01*
X64703823Y-32714104D02*
X64656204Y-32856961D01*
X64656204Y-32856961D02*
X64560966Y-32952200D01*
X64560966Y-32952200D02*
X64418109Y-32999819D01*
X64418109Y-32999819D02*
X64322871Y-32999819D01*
X65132395Y-32095057D02*
X65180014Y-32047438D01*
X65180014Y-32047438D02*
X65275252Y-31999819D01*
X65275252Y-31999819D02*
X65513347Y-31999819D01*
X65513347Y-31999819D02*
X65608585Y-32047438D01*
X65608585Y-32047438D02*
X65656204Y-32095057D01*
X65656204Y-32095057D02*
X65703823Y-32190295D01*
X65703823Y-32190295D02*
X65703823Y-32285533D01*
X65703823Y-32285533D02*
X65656204Y-32428390D01*
X65656204Y-32428390D02*
X65084776Y-32999819D01*
X65084776Y-32999819D02*
X65703823Y-32999819D01*
X41843823Y-31999819D02*
X41843823Y-32714104D01*
X41843823Y-32714104D02*
X41796204Y-32856961D01*
X41796204Y-32856961D02*
X41700966Y-32952200D01*
X41700966Y-32952200D02*
X41558109Y-32999819D01*
X41558109Y-32999819D02*
X41462871Y-32999819D01*
X42843823Y-32999819D02*
X42272395Y-32999819D01*
X42558109Y-32999819D02*
X42558109Y-31999819D01*
X42558109Y-31999819D02*
X42462871Y-32142676D01*
X42462871Y-32142676D02*
X42367633Y-32237914D01*
X42367633Y-32237914D02*
X42272395Y-32285533D01*
X77001976Y-71636333D02*
X77716261Y-71636333D01*
X77716261Y-71636333D02*
X77859118Y-71683952D01*
X77859118Y-71683952D02*
X77954357Y-71779190D01*
X77954357Y-71779190D02*
X78001976Y-71922047D01*
X78001976Y-71922047D02*
X78001976Y-72017285D01*
X77001976Y-71255380D02*
X77001976Y-70636333D01*
X77001976Y-70636333D02*
X77382928Y-70969666D01*
X77382928Y-70969666D02*
X77382928Y-70826809D01*
X77382928Y-70826809D02*
X77430547Y-70731571D01*
X77430547Y-70731571D02*
X77478166Y-70683952D01*
X77478166Y-70683952D02*
X77573404Y-70636333D01*
X77573404Y-70636333D02*
X77811499Y-70636333D01*
X77811499Y-70636333D02*
X77906737Y-70683952D01*
X77906737Y-70683952D02*
X77954357Y-70731571D01*
X77954357Y-70731571D02*
X78001976Y-70826809D01*
X78001976Y-70826809D02*
X78001976Y-71112523D01*
X78001976Y-71112523D02*
X77954357Y-71207761D01*
X77954357Y-71207761D02*
X77906737Y-71255380D01*
X77001976Y-76286333D02*
X77716261Y-76286333D01*
X77716261Y-76286333D02*
X77859118Y-76333952D01*
X77859118Y-76333952D02*
X77954357Y-76429190D01*
X77954357Y-76429190D02*
X78001976Y-76572047D01*
X78001976Y-76572047D02*
X78001976Y-76667285D01*
X77335309Y-75381571D02*
X78001976Y-75381571D01*
X76954357Y-75619666D02*
X77668642Y-75857761D01*
X77668642Y-75857761D02*
X77668642Y-75238714D01*
X53156418Y-58659580D02*
X53108799Y-58707200D01*
X53108799Y-58707200D02*
X52965942Y-58754819D01*
X52965942Y-58754819D02*
X52870704Y-58754819D01*
X52870704Y-58754819D02*
X52727847Y-58707200D01*
X52727847Y-58707200D02*
X52632609Y-58611961D01*
X52632609Y-58611961D02*
X52584990Y-58516723D01*
X52584990Y-58516723D02*
X52537371Y-58326247D01*
X52537371Y-58326247D02*
X52537371Y-58183390D01*
X52537371Y-58183390D02*
X52584990Y-57992914D01*
X52584990Y-57992914D02*
X52632609Y-57897676D01*
X52632609Y-57897676D02*
X52727847Y-57802438D01*
X52727847Y-57802438D02*
X52870704Y-57754819D01*
X52870704Y-57754819D02*
X52965942Y-57754819D01*
X52965942Y-57754819D02*
X53108799Y-57802438D01*
X53108799Y-57802438D02*
X53156418Y-57850057D01*
X54108799Y-57802438D02*
X54013561Y-57754819D01*
X54013561Y-57754819D02*
X53870704Y-57754819D01*
X53870704Y-57754819D02*
X53727847Y-57802438D01*
X53727847Y-57802438D02*
X53632609Y-57897676D01*
X53632609Y-57897676D02*
X53584990Y-57992914D01*
X53584990Y-57992914D02*
X53537371Y-58183390D01*
X53537371Y-58183390D02*
X53537371Y-58326247D01*
X53537371Y-58326247D02*
X53584990Y-58516723D01*
X53584990Y-58516723D02*
X53632609Y-58611961D01*
X53632609Y-58611961D02*
X53727847Y-58707200D01*
X53727847Y-58707200D02*
X53870704Y-58754819D01*
X53870704Y-58754819D02*
X53965942Y-58754819D01*
X53965942Y-58754819D02*
X54108799Y-58707200D01*
X54108799Y-58707200D02*
X54156418Y-58659580D01*
X54156418Y-58659580D02*
X54156418Y-58326247D01*
X54156418Y-58326247D02*
X53965942Y-58326247D01*
X54442133Y-57754819D02*
X54775466Y-58754819D01*
X54775466Y-58754819D02*
X55108799Y-57754819D01*
X55442133Y-58754819D02*
X55442133Y-57754819D01*
X55442133Y-57754819D02*
X55680228Y-57754819D01*
X55680228Y-57754819D02*
X55823085Y-57802438D01*
X55823085Y-57802438D02*
X55918323Y-57897676D01*
X55918323Y-57897676D02*
X55965942Y-57992914D01*
X55965942Y-57992914D02*
X56013561Y-58183390D01*
X56013561Y-58183390D02*
X56013561Y-58326247D01*
X56013561Y-58326247D02*
X55965942Y-58516723D01*
X55965942Y-58516723D02*
X55918323Y-58611961D01*
X55918323Y-58611961D02*
X55823085Y-58707200D01*
X55823085Y-58707200D02*
X55680228Y-58754819D01*
X55680228Y-58754819D02*
X55442133Y-58754819D01*
X56442133Y-58754819D02*
X56442133Y-57754819D01*
X56442133Y-57754819D02*
X56680228Y-57754819D01*
X56680228Y-57754819D02*
X56823085Y-57802438D01*
X56823085Y-57802438D02*
X56918323Y-57897676D01*
X56918323Y-57897676D02*
X56965942Y-57992914D01*
X56965942Y-57992914D02*
X57013561Y-58183390D01*
X57013561Y-58183390D02*
X57013561Y-58326247D01*
X57013561Y-58326247D02*
X56965942Y-58516723D01*
X56965942Y-58516723D02*
X56918323Y-58611961D01*
X56918323Y-58611961D02*
X56823085Y-58707200D01*
X56823085Y-58707200D02*
X56680228Y-58754819D01*
X56680228Y-58754819D02*
X56442133Y-58754819D01*
X57394514Y-57850057D02*
X57442133Y-57802438D01*
X57442133Y-57802438D02*
X57537371Y-57754819D01*
X57537371Y-57754819D02*
X57775466Y-57754819D01*
X57775466Y-57754819D02*
X57870704Y-57802438D01*
X57870704Y-57802438D02*
X57918323Y-57850057D01*
X57918323Y-57850057D02*
X57965942Y-57945295D01*
X57965942Y-57945295D02*
X57965942Y-58040533D01*
X57965942Y-58040533D02*
X57918323Y-58183390D01*
X57918323Y-58183390D02*
X57346895Y-58754819D01*
X57346895Y-58754819D02*
X57965942Y-58754819D01*
X39308490Y-61167819D02*
X38975157Y-60691628D01*
X38737062Y-61167819D02*
X38737062Y-60167819D01*
X38737062Y-60167819D02*
X39118014Y-60167819D01*
X39118014Y-60167819D02*
X39213252Y-60215438D01*
X39213252Y-60215438D02*
X39260871Y-60263057D01*
X39260871Y-60263057D02*
X39308490Y-60358295D01*
X39308490Y-60358295D02*
X39308490Y-60501152D01*
X39308490Y-60501152D02*
X39260871Y-60596390D01*
X39260871Y-60596390D02*
X39213252Y-60644009D01*
X39213252Y-60644009D02*
X39118014Y-60691628D01*
X39118014Y-60691628D02*
X38737062Y-60691628D01*
X39689443Y-60263057D02*
X39737062Y-60215438D01*
X39737062Y-60215438D02*
X39832300Y-60167819D01*
X39832300Y-60167819D02*
X40070395Y-60167819D01*
X40070395Y-60167819D02*
X40165633Y-60215438D01*
X40165633Y-60215438D02*
X40213252Y-60263057D01*
X40213252Y-60263057D02*
X40260871Y-60358295D01*
X40260871Y-60358295D02*
X40260871Y-60453533D01*
X40260871Y-60453533D02*
X40213252Y-60596390D01*
X40213252Y-60596390D02*
X39641824Y-61167819D01*
X39641824Y-61167819D02*
X40260871Y-61167819D01*
X48906976Y-52711666D02*
X47906976Y-52711666D01*
X47906976Y-52711666D02*
X47906976Y-52473571D01*
X47906976Y-52473571D02*
X47954595Y-52330714D01*
X47954595Y-52330714D02*
X48049833Y-52235476D01*
X48049833Y-52235476D02*
X48145071Y-52187857D01*
X48145071Y-52187857D02*
X48335547Y-52140238D01*
X48335547Y-52140238D02*
X48478404Y-52140238D01*
X48478404Y-52140238D02*
X48668880Y-52187857D01*
X48668880Y-52187857D02*
X48764118Y-52235476D01*
X48764118Y-52235476D02*
X48859357Y-52330714D01*
X48859357Y-52330714D02*
X48906976Y-52473571D01*
X48906976Y-52473571D02*
X48906976Y-52711666D01*
X48383166Y-51378333D02*
X48430785Y-51235476D01*
X48430785Y-51235476D02*
X48478404Y-51187857D01*
X48478404Y-51187857D02*
X48573642Y-51140238D01*
X48573642Y-51140238D02*
X48716499Y-51140238D01*
X48716499Y-51140238D02*
X48811737Y-51187857D01*
X48811737Y-51187857D02*
X48859357Y-51235476D01*
X48859357Y-51235476D02*
X48906976Y-51330714D01*
X48906976Y-51330714D02*
X48906976Y-51711666D01*
X48906976Y-51711666D02*
X47906976Y-51711666D01*
X47906976Y-51711666D02*
X47906976Y-51378333D01*
X47906976Y-51378333D02*
X47954595Y-51283095D01*
X47954595Y-51283095D02*
X48002214Y-51235476D01*
X48002214Y-51235476D02*
X48097452Y-51187857D01*
X48097452Y-51187857D02*
X48192690Y-51187857D01*
X48192690Y-51187857D02*
X48287928Y-51235476D01*
X48287928Y-51235476D02*
X48335547Y-51283095D01*
X48335547Y-51283095D02*
X48383166Y-51378333D01*
X48383166Y-51378333D02*
X48383166Y-51711666D01*
X47906976Y-50521190D02*
X47906976Y-50330714D01*
X47906976Y-50330714D02*
X47954595Y-50235476D01*
X47954595Y-50235476D02*
X48049833Y-50140238D01*
X48049833Y-50140238D02*
X48240309Y-50092619D01*
X48240309Y-50092619D02*
X48573642Y-50092619D01*
X48573642Y-50092619D02*
X48764118Y-50140238D01*
X48764118Y-50140238D02*
X48859357Y-50235476D01*
X48859357Y-50235476D02*
X48906976Y-50330714D01*
X48906976Y-50330714D02*
X48906976Y-50521190D01*
X48906976Y-50521190D02*
X48859357Y-50616428D01*
X48859357Y-50616428D02*
X48764118Y-50711666D01*
X48764118Y-50711666D02*
X48573642Y-50759285D01*
X48573642Y-50759285D02*
X48240309Y-50759285D01*
X48240309Y-50759285D02*
X48049833Y-50711666D01*
X48049833Y-50711666D02*
X47954595Y-50616428D01*
X47954595Y-50616428D02*
X47906976Y-50521190D01*
X47906976Y-49473571D02*
X47906976Y-49283095D01*
X47906976Y-49283095D02*
X47954595Y-49187857D01*
X47954595Y-49187857D02*
X48049833Y-49092619D01*
X48049833Y-49092619D02*
X48240309Y-49045000D01*
X48240309Y-49045000D02*
X48573642Y-49045000D01*
X48573642Y-49045000D02*
X48764118Y-49092619D01*
X48764118Y-49092619D02*
X48859357Y-49187857D01*
X48859357Y-49187857D02*
X48906976Y-49283095D01*
X48906976Y-49283095D02*
X48906976Y-49473571D01*
X48906976Y-49473571D02*
X48859357Y-49568809D01*
X48859357Y-49568809D02*
X48764118Y-49664047D01*
X48764118Y-49664047D02*
X48573642Y-49711666D01*
X48573642Y-49711666D02*
X48240309Y-49711666D01*
X48240309Y-49711666D02*
X48049833Y-49664047D01*
X48049833Y-49664047D02*
X47954595Y-49568809D01*
X47954595Y-49568809D02*
X47906976Y-49473571D01*
X47906976Y-48759285D02*
X47906976Y-48187857D01*
X48906976Y-48473571D02*
X47906976Y-48473571D01*
X48906976Y-47330714D02*
X48906976Y-47902142D01*
X48906976Y-47616428D02*
X47906976Y-47616428D01*
X47906976Y-47616428D02*
X48049833Y-47711666D01*
X48049833Y-47711666D02*
X48145071Y-47806904D01*
X48145071Y-47806904D02*
X48192690Y-47902142D01*
D10*
X62929918Y-47041657D02*
X62834680Y-46994038D01*
X62834680Y-46994038D02*
X62739442Y-46898800D01*
X62739442Y-46898800D02*
X62596585Y-46755942D01*
X62596585Y-46755942D02*
X62501347Y-46708323D01*
X62501347Y-46708323D02*
X62406109Y-46708323D01*
X62453728Y-46946419D02*
X62358490Y-46898800D01*
X62358490Y-46898800D02*
X62263252Y-46803561D01*
X62263252Y-46803561D02*
X62215633Y-46613085D01*
X62215633Y-46613085D02*
X62215633Y-46279752D01*
X62215633Y-46279752D02*
X62263252Y-46089276D01*
X62263252Y-46089276D02*
X62358490Y-45994038D01*
X62358490Y-45994038D02*
X62453728Y-45946419D01*
X62453728Y-45946419D02*
X62644204Y-45946419D01*
X62644204Y-45946419D02*
X62739442Y-45994038D01*
X62739442Y-45994038D02*
X62834680Y-46089276D01*
X62834680Y-46089276D02*
X62882299Y-46279752D01*
X62882299Y-46279752D02*
X62882299Y-46613085D01*
X62882299Y-46613085D02*
X62834680Y-46803561D01*
X62834680Y-46803561D02*
X62739442Y-46898800D01*
X62739442Y-46898800D02*
X62644204Y-46946419D01*
X62644204Y-46946419D02*
X62453728Y-46946419D01*
X63834680Y-46946419D02*
X63263252Y-46946419D01*
X63548966Y-46946419D02*
X63548966Y-45946419D01*
X63548966Y-45946419D02*
X63453728Y-46089276D01*
X63453728Y-46089276D02*
X63358490Y-46184514D01*
X63358490Y-46184514D02*
X63263252Y-46232133D01*
X67755918Y-61265657D02*
X67660680Y-61218038D01*
X67660680Y-61218038D02*
X67565442Y-61122800D01*
X67565442Y-61122800D02*
X67422585Y-60979942D01*
X67422585Y-60979942D02*
X67327347Y-60932323D01*
X67327347Y-60932323D02*
X67232109Y-60932323D01*
X67279728Y-61170419D02*
X67184490Y-61122800D01*
X67184490Y-61122800D02*
X67089252Y-61027561D01*
X67089252Y-61027561D02*
X67041633Y-60837085D01*
X67041633Y-60837085D02*
X67041633Y-60503752D01*
X67041633Y-60503752D02*
X67089252Y-60313276D01*
X67089252Y-60313276D02*
X67184490Y-60218038D01*
X67184490Y-60218038D02*
X67279728Y-60170419D01*
X67279728Y-60170419D02*
X67470204Y-60170419D01*
X67470204Y-60170419D02*
X67565442Y-60218038D01*
X67565442Y-60218038D02*
X67660680Y-60313276D01*
X67660680Y-60313276D02*
X67708299Y-60503752D01*
X67708299Y-60503752D02*
X67708299Y-60837085D01*
X67708299Y-60837085D02*
X67660680Y-61027561D01*
X67660680Y-61027561D02*
X67565442Y-61122800D01*
X67565442Y-61122800D02*
X67470204Y-61170419D01*
X67470204Y-61170419D02*
X67279728Y-61170419D01*
X68565442Y-60503752D02*
X68565442Y-61170419D01*
X68327347Y-60122800D02*
X68089252Y-60837085D01*
X68089252Y-60837085D02*
X68708299Y-60837085D01*
D12*
X53573976Y-51211571D02*
X53097785Y-51544904D01*
X53573976Y-51782999D02*
X52573976Y-51782999D01*
X52573976Y-51782999D02*
X52573976Y-51402047D01*
X52573976Y-51402047D02*
X52621595Y-51306809D01*
X52621595Y-51306809D02*
X52669214Y-51259190D01*
X52669214Y-51259190D02*
X52764452Y-51211571D01*
X52764452Y-51211571D02*
X52907309Y-51211571D01*
X52907309Y-51211571D02*
X53002547Y-51259190D01*
X53002547Y-51259190D02*
X53050166Y-51306809D01*
X53050166Y-51306809D02*
X53097785Y-51402047D01*
X53097785Y-51402047D02*
X53097785Y-51782999D01*
X52621595Y-50259190D02*
X52573976Y-50354428D01*
X52573976Y-50354428D02*
X52573976Y-50497285D01*
X52573976Y-50497285D02*
X52621595Y-50640142D01*
X52621595Y-50640142D02*
X52716833Y-50735380D01*
X52716833Y-50735380D02*
X52812071Y-50782999D01*
X52812071Y-50782999D02*
X53002547Y-50830618D01*
X53002547Y-50830618D02*
X53145404Y-50830618D01*
X53145404Y-50830618D02*
X53335880Y-50782999D01*
X53335880Y-50782999D02*
X53431118Y-50735380D01*
X53431118Y-50735380D02*
X53526357Y-50640142D01*
X53526357Y-50640142D02*
X53573976Y-50497285D01*
X53573976Y-50497285D02*
X53573976Y-50402047D01*
X53573976Y-50402047D02*
X53526357Y-50259190D01*
X53526357Y-50259190D02*
X53478737Y-50211571D01*
X53478737Y-50211571D02*
X53145404Y-50211571D01*
X53145404Y-50211571D02*
X53145404Y-50402047D01*
X53288261Y-49830618D02*
X53288261Y-49354428D01*
X53573976Y-49925856D02*
X52573976Y-49592523D01*
X52573976Y-49592523D02*
X53573976Y-49259190D01*
X52573976Y-49068713D02*
X52573976Y-48497285D01*
X53573976Y-48782999D02*
X52573976Y-48782999D01*
X53050166Y-48163951D02*
X53050166Y-47830618D01*
X53573976Y-47687761D02*
X53573976Y-48163951D01*
X53573976Y-48163951D02*
X52573976Y-48163951D01*
X52573976Y-48163951D02*
X52573976Y-47687761D01*
X53573976Y-46735380D02*
X53573976Y-47306808D01*
X53573976Y-47021094D02*
X52573976Y-47021094D01*
X52573976Y-47021094D02*
X52716833Y-47116332D01*
X52716833Y-47116332D02*
X52812071Y-47211570D01*
X52812071Y-47211570D02*
X52859690Y-47306808D01*
X47737918Y-58627819D02*
X47404585Y-58151628D01*
X47166490Y-58627819D02*
X47166490Y-57627819D01*
X47166490Y-57627819D02*
X47547442Y-57627819D01*
X47547442Y-57627819D02*
X47642680Y-57675438D01*
X47642680Y-57675438D02*
X47690299Y-57723057D01*
X47690299Y-57723057D02*
X47737918Y-57818295D01*
X47737918Y-57818295D02*
X47737918Y-57961152D01*
X47737918Y-57961152D02*
X47690299Y-58056390D01*
X47690299Y-58056390D02*
X47642680Y-58104009D01*
X47642680Y-58104009D02*
X47547442Y-58151628D01*
X47547442Y-58151628D02*
X47166490Y-58151628D01*
X48499823Y-58104009D02*
X48642680Y-58151628D01*
X48642680Y-58151628D02*
X48690299Y-58199247D01*
X48690299Y-58199247D02*
X48737918Y-58294485D01*
X48737918Y-58294485D02*
X48737918Y-58437342D01*
X48737918Y-58437342D02*
X48690299Y-58532580D01*
X48690299Y-58532580D02*
X48642680Y-58580200D01*
X48642680Y-58580200D02*
X48547442Y-58627819D01*
X48547442Y-58627819D02*
X48166490Y-58627819D01*
X48166490Y-58627819D02*
X48166490Y-57627819D01*
X48166490Y-57627819D02*
X48499823Y-57627819D01*
X48499823Y-57627819D02*
X48595061Y-57675438D01*
X48595061Y-57675438D02*
X48642680Y-57723057D01*
X48642680Y-57723057D02*
X48690299Y-57818295D01*
X48690299Y-57818295D02*
X48690299Y-57913533D01*
X48690299Y-57913533D02*
X48642680Y-58008771D01*
X48642680Y-58008771D02*
X48595061Y-58056390D01*
X48595061Y-58056390D02*
X48499823Y-58104009D01*
X48499823Y-58104009D02*
X48166490Y-58104009D01*
X49356966Y-57627819D02*
X49547442Y-57627819D01*
X49547442Y-57627819D02*
X49642680Y-57675438D01*
X49642680Y-57675438D02*
X49737918Y-57770676D01*
X49737918Y-57770676D02*
X49785537Y-57961152D01*
X49785537Y-57961152D02*
X49785537Y-58294485D01*
X49785537Y-58294485D02*
X49737918Y-58484961D01*
X49737918Y-58484961D02*
X49642680Y-58580200D01*
X49642680Y-58580200D02*
X49547442Y-58627819D01*
X49547442Y-58627819D02*
X49356966Y-58627819D01*
X49356966Y-58627819D02*
X49261728Y-58580200D01*
X49261728Y-58580200D02*
X49166490Y-58484961D01*
X49166490Y-58484961D02*
X49118871Y-58294485D01*
X49118871Y-58294485D02*
X49118871Y-57961152D01*
X49118871Y-57961152D02*
X49166490Y-57770676D01*
X49166490Y-57770676D02*
X49261728Y-57675438D01*
X49261728Y-57675438D02*
X49356966Y-57627819D01*
X50404585Y-57627819D02*
X50595061Y-57627819D01*
X50595061Y-57627819D02*
X50690299Y-57675438D01*
X50690299Y-57675438D02*
X50785537Y-57770676D01*
X50785537Y-57770676D02*
X50833156Y-57961152D01*
X50833156Y-57961152D02*
X50833156Y-58294485D01*
X50833156Y-58294485D02*
X50785537Y-58484961D01*
X50785537Y-58484961D02*
X50690299Y-58580200D01*
X50690299Y-58580200D02*
X50595061Y-58627819D01*
X50595061Y-58627819D02*
X50404585Y-58627819D01*
X50404585Y-58627819D02*
X50309347Y-58580200D01*
X50309347Y-58580200D02*
X50214109Y-58484961D01*
X50214109Y-58484961D02*
X50166490Y-58294485D01*
X50166490Y-58294485D02*
X50166490Y-57961152D01*
X50166490Y-57961152D02*
X50214109Y-57770676D01*
X50214109Y-57770676D02*
X50309347Y-57675438D01*
X50309347Y-57675438D02*
X50404585Y-57627819D01*
X51118871Y-57627819D02*
X51690299Y-57627819D01*
X51404585Y-58627819D02*
X51404585Y-57627819D01*
X51976014Y-57723057D02*
X52023633Y-57675438D01*
X52023633Y-57675438D02*
X52118871Y-57627819D01*
X52118871Y-57627819D02*
X52356966Y-57627819D01*
X52356966Y-57627819D02*
X52452204Y-57675438D01*
X52452204Y-57675438D02*
X52499823Y-57723057D01*
X52499823Y-57723057D02*
X52547442Y-57818295D01*
X52547442Y-57818295D02*
X52547442Y-57913533D01*
X52547442Y-57913533D02*
X52499823Y-58056390D01*
X52499823Y-58056390D02*
X51928395Y-58627819D01*
X51928395Y-58627819D02*
X52547442Y-58627819D01*
X43975252Y-45689819D02*
X43975252Y-46499342D01*
X43975252Y-46499342D02*
X44022871Y-46594580D01*
X44022871Y-46594580D02*
X44070490Y-46642200D01*
X44070490Y-46642200D02*
X44165728Y-46689819D01*
X44165728Y-46689819D02*
X44356204Y-46689819D01*
X44356204Y-46689819D02*
X44451442Y-46642200D01*
X44451442Y-46642200D02*
X44499061Y-46594580D01*
X44499061Y-46594580D02*
X44546680Y-46499342D01*
X44546680Y-46499342D02*
X44546680Y-45689819D01*
X45546680Y-46689819D02*
X44975252Y-46689819D01*
X45260966Y-46689819D02*
X45260966Y-45689819D01*
X45260966Y-45689819D02*
X45165728Y-45832676D01*
X45165728Y-45832676D02*
X45070490Y-45927914D01*
X45070490Y-45927914D02*
X44975252Y-45975533D01*
X35720252Y-55419819D02*
X35720252Y-56229342D01*
X35720252Y-56229342D02*
X35767871Y-56324580D01*
X35767871Y-56324580D02*
X35815490Y-56372200D01*
X35815490Y-56372200D02*
X35910728Y-56419819D01*
X35910728Y-56419819D02*
X36101204Y-56419819D01*
X36101204Y-56419819D02*
X36196442Y-56372200D01*
X36196442Y-56372200D02*
X36244061Y-56324580D01*
X36244061Y-56324580D02*
X36291680Y-56229342D01*
X36291680Y-56229342D02*
X36291680Y-55419819D01*
X36672633Y-55419819D02*
X37291680Y-55419819D01*
X37291680Y-55419819D02*
X36958347Y-55800771D01*
X36958347Y-55800771D02*
X37101204Y-55800771D01*
X37101204Y-55800771D02*
X37196442Y-55848390D01*
X37196442Y-55848390D02*
X37244061Y-55896009D01*
X37244061Y-55896009D02*
X37291680Y-55991247D01*
X37291680Y-55991247D02*
X37291680Y-56229342D01*
X37291680Y-56229342D02*
X37244061Y-56324580D01*
X37244061Y-56324580D02*
X37196442Y-56372200D01*
X37196442Y-56372200D02*
X37101204Y-56419819D01*
X37101204Y-56419819D02*
X36815490Y-56419819D01*
X36815490Y-56419819D02*
X36720252Y-56372200D01*
X36720252Y-56372200D02*
X36672633Y-56324580D01*
X33761905Y-70954819D02*
X33761905Y-69954819D01*
X33761905Y-69954819D02*
X34095238Y-70669104D01*
X34095238Y-70669104D02*
X34428571Y-69954819D01*
X34428571Y-69954819D02*
X34428571Y-70954819D01*
X34904762Y-70954819D02*
X34904762Y-69954819D01*
X34904762Y-69954819D02*
X35476190Y-70954819D01*
X35476190Y-70954819D02*
X35476190Y-69954819D01*
X35809524Y-69954819D02*
X36380952Y-69954819D01*
X36095238Y-70954819D02*
X36095238Y-69954819D01*
X39816490Y-46689819D02*
X39483157Y-46213628D01*
X39245062Y-46689819D02*
X39245062Y-45689819D01*
X39245062Y-45689819D02*
X39626014Y-45689819D01*
X39626014Y-45689819D02*
X39721252Y-45737438D01*
X39721252Y-45737438D02*
X39768871Y-45785057D01*
X39768871Y-45785057D02*
X39816490Y-45880295D01*
X39816490Y-45880295D02*
X39816490Y-46023152D01*
X39816490Y-46023152D02*
X39768871Y-46118390D01*
X39768871Y-46118390D02*
X39721252Y-46166009D01*
X39721252Y-46166009D02*
X39626014Y-46213628D01*
X39626014Y-46213628D02*
X39245062Y-46213628D01*
X40768871Y-46689819D02*
X40197443Y-46689819D01*
X40483157Y-46689819D02*
X40483157Y-45689819D01*
X40483157Y-45689819D02*
X40387919Y-45832676D01*
X40387919Y-45832676D02*
X40292681Y-45927914D01*
X40292681Y-45927914D02*
X40197443Y-45975533D01*
X41696737Y-67505166D02*
X41744357Y-67552785D01*
X41744357Y-67552785D02*
X41791976Y-67695642D01*
X41791976Y-67695642D02*
X41791976Y-67790880D01*
X41791976Y-67790880D02*
X41744357Y-67933737D01*
X41744357Y-67933737D02*
X41649118Y-68028975D01*
X41649118Y-68028975D02*
X41553880Y-68076594D01*
X41553880Y-68076594D02*
X41363404Y-68124213D01*
X41363404Y-68124213D02*
X41220547Y-68124213D01*
X41220547Y-68124213D02*
X41030071Y-68076594D01*
X41030071Y-68076594D02*
X40934833Y-68028975D01*
X40934833Y-68028975D02*
X40839595Y-67933737D01*
X40839595Y-67933737D02*
X40791976Y-67790880D01*
X40791976Y-67790880D02*
X40791976Y-67695642D01*
X40791976Y-67695642D02*
X40839595Y-67552785D01*
X40839595Y-67552785D02*
X40887214Y-67505166D01*
X40887214Y-67124213D02*
X40839595Y-67076594D01*
X40839595Y-67076594D02*
X40791976Y-66981356D01*
X40791976Y-66981356D02*
X40791976Y-66743261D01*
X40791976Y-66743261D02*
X40839595Y-66648023D01*
X40839595Y-66648023D02*
X40887214Y-66600404D01*
X40887214Y-66600404D02*
X40982452Y-66552785D01*
X40982452Y-66552785D02*
X41077690Y-66552785D01*
X41077690Y-66552785D02*
X41220547Y-66600404D01*
X41220547Y-66600404D02*
X41791976Y-67171832D01*
X41791976Y-67171832D02*
X41791976Y-66552785D01*
D13*
X40392157Y-52831748D02*
X40392157Y-53354252D01*
X38922157Y-52831748D02*
X38922157Y-53354252D01*
X55632157Y-52323748D02*
X55632157Y-52846252D01*
X54162157Y-52323748D02*
X54162157Y-52846252D01*
X47417157Y-65075000D02*
X47417157Y-61625000D01*
X47417157Y-65075000D02*
X47417157Y-67025000D01*
X42297157Y-65075000D02*
X42297157Y-63125000D01*
X42297157Y-65075000D02*
X42297157Y-67025000D01*
X60795157Y-61618000D02*
X64300157Y-61618000D01*
X61030157Y-64553000D02*
X61030157Y-64888000D01*
X61030157Y-64888000D02*
X64300157Y-64888000D01*
X64300157Y-61618000D02*
X64300157Y-61953000D01*
X64300157Y-64553000D02*
X64300157Y-64888000D01*
X60766157Y-53082064D02*
X60766157Y-52627936D01*
X62236157Y-53082064D02*
X62236157Y-52627936D01*
X60766157Y-68687064D02*
X60766157Y-68232936D01*
X62236157Y-68687064D02*
X62236157Y-68232936D01*
X49015957Y-67517000D02*
X51735957Y-67517000D01*
X49015957Y-67517000D02*
X49015957Y-62537000D01*
X51735957Y-67517000D02*
X51735957Y-62537000D01*
X53908157Y-62972064D02*
X53908157Y-62517936D01*
X55378157Y-62972064D02*
X55378157Y-62517936D01*
X66002157Y-47140000D02*
X69507157Y-47140000D01*
X66237157Y-50075000D02*
X66237157Y-50410000D01*
X66237157Y-50410000D02*
X69507157Y-50410000D01*
X69507157Y-47140000D02*
X69507157Y-47475000D01*
X69507157Y-50075000D02*
X69507157Y-50410000D01*
X55378157Y-66394248D02*
X55378157Y-66916752D01*
X53908157Y-66394248D02*
X53908157Y-66916752D01*
X51187157Y-44372936D02*
X51187157Y-44827064D01*
X49717157Y-44372936D02*
X49717157Y-44827064D01*
X53727157Y-44296248D02*
X53727157Y-44818752D01*
X52257157Y-44296248D02*
X52257157Y-44818752D01*
X54897157Y-33535000D02*
X54897157Y-41155000D01*
X54897157Y-33535000D02*
X75217157Y-33535000D01*
X54897157Y-41155000D02*
X75217157Y-41155000D01*
X75217157Y-39885000D02*
X54897157Y-39885000D01*
X75217157Y-41155000D02*
X75217157Y-33535000D01*
X32037157Y-33535000D02*
X32037157Y-41155000D01*
X32037157Y-33535000D02*
X52357157Y-33535000D01*
X32037157Y-41155000D02*
X52357157Y-41155000D01*
X52357157Y-39885000D02*
X32037157Y-39885000D01*
X52357157Y-41155000D02*
X52357157Y-33535000D01*
X76547157Y-69973000D02*
X76547157Y-71303000D01*
X75217157Y-69973000D02*
X76547157Y-69973000D01*
X73947157Y-69973000D02*
X66267157Y-69973000D01*
X73947157Y-69973000D02*
X73947157Y-72633000D01*
X66267157Y-69973000D02*
X66267157Y-72633000D01*
X73947157Y-72633000D02*
X66267157Y-72633000D01*
X76547157Y-74623000D02*
X76547157Y-75953000D01*
X75217157Y-74623000D02*
X76547157Y-74623000D01*
X73947157Y-74623000D02*
X66267157Y-74623000D01*
X73947157Y-74623000D02*
X73947157Y-77283000D01*
X66267157Y-74623000D02*
X66267157Y-77283000D01*
X73947157Y-77283000D02*
X66267157Y-77283000D01*
X55158409Y-60305000D02*
X54635905Y-60305000D01*
X55158409Y-58835000D02*
X54635905Y-58835000D01*
X40392157Y-63057936D02*
X40392157Y-63512064D01*
X38922157Y-63057936D02*
X38922157Y-63512064D01*
X49092157Y-53125000D02*
X51812157Y-53125000D01*
X49092157Y-53125000D02*
X49092157Y-48145000D01*
X51812157Y-53125000D02*
X51812157Y-48145000D01*
X60922157Y-47140000D02*
X64427157Y-47140000D01*
X61157157Y-50075000D02*
X61157157Y-50410000D01*
X61157157Y-50410000D02*
X64427157Y-50410000D01*
X64427157Y-47140000D02*
X64427157Y-47475000D01*
X64427157Y-50075000D02*
X64427157Y-50410000D01*
X65981157Y-61618000D02*
X69486157Y-61618000D01*
X66216157Y-64553000D02*
X66216157Y-64888000D01*
X66216157Y-64888000D02*
X69486157Y-64888000D01*
X69486157Y-61618000D02*
X69486157Y-61953000D01*
X69486157Y-64553000D02*
X69486157Y-64888000D01*
X54162157Y-49002064D02*
X54162157Y-48547936D01*
X55632157Y-49002064D02*
X55632157Y-48547936D01*
X50314221Y-60432000D02*
X49860093Y-60432000D01*
X50314221Y-58962000D02*
X49860093Y-58962000D01*
X47467157Y-50745000D02*
X47467157Y-47295000D01*
X47467157Y-50745000D02*
X47467157Y-52695000D01*
X42347157Y-50745000D02*
X42347157Y-48795000D01*
X42347157Y-50745000D02*
X42347157Y-52695000D01*
X35582157Y-56765000D02*
X37132157Y-56765000D01*
X37132157Y-58565000D02*
X35832157Y-58565000D01*
X40392157Y-48547936D02*
X40392157Y-49002064D01*
X38922157Y-48547936D02*
X38922157Y-49002064D01*
X40392157Y-67077248D02*
X40392157Y-67599752D01*
X38922157Y-67077248D02*
X38922157Y-67599752D01*
%LPC*%
D14*
X39657157Y-52055500D03*
X39657157Y-54130500D03*
X54897157Y-51547500D03*
X54897157Y-53622500D03*
D15*
X46762157Y-62600000D03*
X45492157Y-62600000D03*
X44222157Y-62600000D03*
X42952157Y-62600000D03*
X42952157Y-67550000D03*
X44222157Y-67550000D03*
X45492157Y-67550000D03*
X46762157Y-67550000D03*
D16*
X44857157Y-65075000D03*
D17*
X61230157Y-62263000D03*
X61230157Y-62923000D03*
X61230157Y-63583000D03*
X61230157Y-64243000D03*
D18*
X63222657Y-63253000D03*
D19*
X61501157Y-53855000D03*
X61501157Y-51855000D03*
D20*
X72750000Y-46750000D03*
D19*
X61501157Y-69460000D03*
X61501157Y-67460000D03*
D21*
X50375957Y-66637000D03*
X50375957Y-62237000D03*
D19*
X54643157Y-63745000D03*
X54643157Y-61745000D03*
D17*
X66437157Y-47785000D03*
X66437157Y-48445000D03*
X66437157Y-49105000D03*
X66437157Y-49765000D03*
D18*
X68429657Y-48775000D03*
D14*
X54643157Y-65618000D03*
X54643157Y-67693000D03*
D22*
X50452157Y-43600000D03*
X50452157Y-45600000D03*
D14*
X52992157Y-43520000D03*
X52992157Y-45595000D03*
D23*
X57437157Y-37345000D03*
D20*
X62517157Y-37345000D03*
X67597157Y-37345000D03*
X72677157Y-37345000D03*
X64000000Y-43250000D03*
D23*
X34577157Y-37345000D03*
D20*
X39657157Y-37345000D03*
X44737157Y-37345000D03*
X49817157Y-37345000D03*
D24*
X75217157Y-71303000D03*
D25*
X72677157Y-71303000D03*
X70137157Y-71303000D03*
X67597157Y-71303000D03*
D24*
X75217157Y-75953000D03*
D25*
X72677157Y-75953000D03*
X70137157Y-75953000D03*
X67597157Y-75953000D03*
D26*
X55934657Y-59570000D03*
X53859657Y-59570000D03*
D22*
X39657157Y-62285000D03*
X39657157Y-64285000D03*
D21*
X50452157Y-52245000D03*
X50452157Y-47845000D03*
D20*
X67500000Y-43250000D03*
D17*
X61357157Y-47785000D03*
X61357157Y-48445000D03*
X61357157Y-49105000D03*
X61357157Y-49765000D03*
D18*
X63349657Y-48775000D03*
D20*
X72750000Y-43250000D03*
D17*
X66416157Y-62263000D03*
X66416157Y-62923000D03*
X66416157Y-63583000D03*
X66416157Y-64243000D03*
D18*
X68408657Y-63253000D03*
D19*
X54897157Y-49775000D03*
X54897157Y-47775000D03*
D27*
X51087157Y-59697000D03*
X49087157Y-59697000D03*
D15*
X46812157Y-48270000D03*
X45542157Y-48270000D03*
X44272157Y-48270000D03*
X43002157Y-48270000D03*
X43002157Y-53220000D03*
X44272157Y-53220000D03*
X45542157Y-53220000D03*
X46812157Y-53220000D03*
D16*
X44907157Y-50745000D03*
D28*
X35782157Y-57165000D03*
X35782157Y-57665000D03*
X35782157Y-58165000D03*
X37182157Y-58165000D03*
X37182157Y-57165000D03*
D29*
X32375000Y-75000000D03*
X33143845Y-73143845D03*
X33143845Y-76856155D03*
X35000000Y-72375000D03*
D30*
X35000000Y-75000000D03*
D29*
X35000000Y-77625000D03*
X36856155Y-73143845D03*
X36856155Y-76856155D03*
X37625000Y-75000000D03*
D22*
X39657157Y-47775000D03*
X39657157Y-49775000D03*
D14*
X39657157Y-66301000D03*
X39657157Y-68376000D03*
%LPD*%
M02*
