%TF.GenerationSoftware,KiCad,Pcbnew,7.0.10*%
%TF.CreationDate,2024-02-22T18:12:09-06:00*%
%TF.ProjectId,Sabertoothv2,53616265-7274-46f6-9f74-6876322e6b69,rev?*%
%TF.SameCoordinates,Original*%
%TF.FileFunction,Soldermask,Top*%
%TF.FilePolarity,Negative*%
%FSLAX46Y46*%
G04 Gerber Fmt 4.6, Leading zero omitted, Abs format (unit mm)*
G04 Created by KiCad (PCBNEW 7.0.10) date 2024-02-22 18:12:09*
%MOMM*%
%LPD*%
G01*
G04 APERTURE LIST*
G04 Aperture macros list*
%AMRoundRect*
0 Rectangle with rounded corners*
0 $1 Rounding radius*
0 $2 $3 $4 $5 $6 $7 $8 $9 X,Y pos of 4 corners*
0 Add a 4 corners polygon primitive as box body*
4,1,4,$2,$3,$4,$5,$6,$7,$8,$9,$2,$3,0*
0 Add four circle primitives for the rounded corners*
1,1,$1+$1,$2,$3*
1,1,$1+$1,$4,$5*
1,1,$1+$1,$6,$7*
1,1,$1+$1,$8,$9*
0 Add four rect primitives between the rounded corners*
20,1,$1+$1,$2,$3,$4,$5,0*
20,1,$1+$1,$4,$5,$6,$7,0*
20,1,$1+$1,$6,$7,$8,$9,0*
20,1,$1+$1,$8,$9,$2,$3,0*%
%AMFreePoly0*
4,1,21,1.372500,0.787500,0.862500,0.787500,0.862500,0.532500,1.372500,0.532500,1.372500,0.127500,0.862500,0.127500,0.862500,-0.127500,1.372500,-0.127500,1.372500,-0.532500,0.862500,-0.532500,0.862500,-0.787500,1.372500,-0.787500,1.372500,-1.195000,0.612500,-1.195000,0.612500,-1.117500,-0.862500,-1.117500,-0.862500,1.117500,0.612500,1.117500,0.612500,1.195000,1.372500,1.195000,
1.372500,0.787500,1.372500,0.787500,$1*%
G04 Aperture macros list end*
%ADD10RoundRect,0.250000X-0.475000X0.337500X-0.475000X-0.337500X0.475000X-0.337500X0.475000X0.337500X0*%
%ADD11RoundRect,0.150000X-0.150000X0.825000X-0.150000X-0.825000X0.150000X-0.825000X0.150000X0.825000X0*%
%ADD12R,3.000000X2.290000*%
%ADD13R,0.990000X0.405000*%
%ADD14FreePoly0,0.000000*%
%ADD15RoundRect,0.250000X0.450000X-0.350000X0.450000X0.350000X-0.450000X0.350000X-0.450000X-0.350000X0*%
%ADD16R,2.100000X1.400000*%
%ADD17RoundRect,0.250000X-0.450000X0.350000X-0.450000X-0.350000X0.450000X-0.350000X0.450000X0.350000X0*%
%ADD18R,3.000000X3.000000*%
%ADD19C,3.000000*%
%ADD20R,1.700000X1.700000*%
%ADD21O,1.700000X1.700000*%
%ADD22RoundRect,0.250000X0.337500X0.475000X-0.337500X0.475000X-0.337500X-0.475000X0.337500X-0.475000X0*%
%ADD23RoundRect,0.250000X0.350000X0.450000X-0.350000X0.450000X-0.350000X-0.450000X0.350000X-0.450000X0*%
%ADD24R,0.450000X0.300000*%
G04 APERTURE END LIST*
D10*
X33020000Y-45190500D03*
X33020000Y-47265500D03*
X48260000Y-44682500D03*
X48260000Y-46757500D03*
D11*
X40125000Y-55735000D03*
X38855000Y-55735000D03*
X37585000Y-55735000D03*
X36315000Y-55735000D03*
X36315000Y-60685000D03*
X37585000Y-60685000D03*
X38855000Y-60685000D03*
X40125000Y-60685000D03*
D12*
X38220000Y-58210000D03*
D13*
X54593000Y-55398000D03*
X54593000Y-56058000D03*
X54593000Y-56718000D03*
X54593000Y-57378000D03*
D14*
X56585500Y-56388000D03*
D15*
X54864000Y-46990000D03*
X54864000Y-44990000D03*
X54864000Y-62595000D03*
X54864000Y-60595000D03*
D16*
X43738800Y-59772000D03*
X43738800Y-55372000D03*
D15*
X48006000Y-56880000D03*
X48006000Y-54880000D03*
D13*
X59800000Y-40920000D03*
X59800000Y-41580000D03*
X59800000Y-42240000D03*
X59800000Y-42900000D03*
D14*
X61792500Y-41910000D03*
D10*
X48006000Y-58753000D03*
X48006000Y-60828000D03*
D17*
X43815000Y-36735000D03*
X43815000Y-38735000D03*
D10*
X46355000Y-36655000D03*
X46355000Y-38730000D03*
D18*
X50800000Y-30480000D03*
D19*
X55880000Y-30480000D03*
X60960000Y-30480000D03*
X66040000Y-30480000D03*
D18*
X27940000Y-30480000D03*
D19*
X33020000Y-30480000D03*
X38100000Y-30480000D03*
X43180000Y-30480000D03*
D20*
X68580000Y-64438000D03*
D21*
X66040000Y-64438000D03*
X63500000Y-64438000D03*
X60960000Y-64438000D03*
D20*
X68580000Y-69088000D03*
D21*
X66040000Y-69088000D03*
X63500000Y-69088000D03*
X60960000Y-69088000D03*
D22*
X49297500Y-52705000D03*
X47222500Y-52705000D03*
D17*
X33020000Y-55420000D03*
X33020000Y-57420000D03*
D16*
X43815000Y-45380000D03*
X43815000Y-40980000D03*
D13*
X54720000Y-40920000D03*
X54720000Y-41580000D03*
X54720000Y-42240000D03*
X54720000Y-42900000D03*
D14*
X56712500Y-41910000D03*
D13*
X59779000Y-55398000D03*
X59779000Y-56058000D03*
X59779000Y-56718000D03*
X59779000Y-57378000D03*
D14*
X61771500Y-56388000D03*
D15*
X48260000Y-42910000D03*
X48260000Y-40910000D03*
D23*
X44450000Y-52832000D03*
X42450000Y-52832000D03*
D11*
X40175000Y-41405000D03*
X38905000Y-41405000D03*
X37635000Y-41405000D03*
X36365000Y-41405000D03*
X36365000Y-46355000D03*
X37635000Y-46355000D03*
X38905000Y-46355000D03*
X40175000Y-46355000D03*
D12*
X38270000Y-43880000D03*
D24*
X29145000Y-50300000D03*
X29145000Y-50800000D03*
X29145000Y-51300000D03*
X30545000Y-51300000D03*
X30545000Y-50300000D03*
D17*
X33020000Y-40910000D03*
X33020000Y-42910000D03*
D10*
X33020000Y-59436000D03*
X33020000Y-61511000D03*
M02*
