G04 #@! TF.GenerationSoftware,KiCad,Pcbnew,7.0.9*
G04 #@! TF.CreationDate,2023-12-29T07:42:44-06:00*
G04 #@! TF.ProjectId,Power Distribution Board Ver.2,506f7765-7220-4446-9973-747269627574,rev?*
G04 #@! TF.SameCoordinates,Original*
G04 #@! TF.FileFunction,Profile,NP*
%FSLAX46Y46*%
G04 Gerber Fmt 4.6, Leading zero omitted, Abs format (unit mm)*
G04 Created by KiCad (PCBNEW 7.0.9) date 2023-12-29 07:42:44*
%MOMM*%
%LPD*%
G01*
G04 APERTURE LIST*
G04 #@! TA.AperFunction,Profile*
%ADD10C,0.200000*%
G04 #@! TD*
G04 #@! TA.AperFunction,Profile*
%ADD11C,0.060000*%
G04 #@! TD*
G04 APERTURE END LIST*
D10*
X147000000Y-147000000D02*
X20000000Y-147000000D01*
X20000000Y-20000000D02*
X147000000Y-20000000D01*
X147000000Y-20000000D02*
X147000000Y-147000000D01*
X20000000Y-147000000D02*
X20000000Y-20000000D01*
D11*
X54909674Y-30371026D02*
X56970814Y-31561026D01*
X54920488Y-36363974D02*
X55420488Y-37230000D01*
X54920488Y-36363974D02*
X56981628Y-35173974D01*
X55409674Y-29505000D02*
X54909674Y-30371026D01*
X55409674Y-29505000D02*
X57470814Y-30695000D01*
X55420488Y-37230000D02*
X57481628Y-36040000D01*
X56970814Y-31561026D02*
X57369186Y-31791026D01*
X57380000Y-34943974D02*
X56981628Y-35173974D01*
X57481628Y-36040000D02*
X57880000Y-35810000D01*
X57869186Y-30925000D02*
X57470814Y-30695000D01*
X60590000Y-26510000D02*
X60590000Y-28890000D01*
X60590000Y-28890000D02*
X60590000Y-29350000D01*
X60600000Y-37370000D02*
X60600000Y-37830000D01*
X60600000Y-40210000D02*
X60600000Y-37830000D01*
X60600000Y-40210000D02*
X61600000Y-40210000D01*
X61590000Y-26510000D02*
X60590000Y-26510000D01*
X61590000Y-26510000D02*
X61590000Y-28890000D01*
X61590000Y-29350000D02*
X61590000Y-28890000D01*
X61600000Y-37830000D02*
X61600000Y-37370000D01*
X61600000Y-40210000D02*
X61600000Y-37830000D01*
X64341628Y-35766026D02*
X64740000Y-35996026D01*
X64710000Y-30680000D02*
X64311628Y-30910000D01*
X64811628Y-31776026D02*
X65210000Y-31546026D01*
X65240000Y-35130000D02*
X64841628Y-34900000D01*
X66771140Y-29490000D02*
X64710000Y-30680000D01*
X66801140Y-37186026D02*
X64740000Y-35996026D01*
X66801140Y-37186026D02*
X67301140Y-36320000D01*
X67271140Y-30356026D02*
X65210000Y-31546026D01*
X67271140Y-30356026D02*
X66771140Y-29490000D01*
X67301140Y-36320000D02*
X65240000Y-35130000D01*
X57372979Y-31792621D02*
G75*
G03*
X57380002Y-34943974I3724592J-1567384D01*
G01*
X60589576Y-29346666D02*
G75*
G03*
X57869186Y-30925000I512584J-4017058D01*
G01*
X57884016Y-35806945D02*
G75*
G03*
X60600000Y-37369999I3217174J2449015D01*
G01*
X64305756Y-30914443D02*
G75*
G03*
X61590000Y-29350001I-3205156J-2424517D01*
G01*
X61599495Y-37365947D02*
G75*
G03*
X64341627Y-35766025I-499891J4006626D01*
G01*
X64831762Y-34895939D02*
G75*
G03*
X64811628Y-31776026I-3730142J1535949D01*
G01*
M02*
