G04 #@! TF.GenerationSoftware,KiCad,Pcbnew,(7.0.0-0)*
G04 #@! TF.CreationDate,2023-12-24T21:08:26+08:00*
G04 #@! TF.ProjectId,Power Distribution Board Ver.2,506f7765-7220-4446-9973-747269627574,rev?*
G04 #@! TF.SameCoordinates,Original*
G04 #@! TF.FileFunction,Soldermask,Bot*
G04 #@! TF.FilePolarity,Negative*
%FSLAX46Y46*%
G04 Gerber Fmt 4.6, Leading zero omitted, Abs format (unit mm)*
G04 Created by KiCad (PCBNEW (7.0.0-0)) date 2023-12-24 21:08:26*
%MOMM*%
%LPD*%
G01*
G04 APERTURE LIST*
G04 Aperture macros list*
%AMRoundRect*
0 Rectangle with rounded corners*
0 $1 Rounding radius*
0 $2 $3 $4 $5 $6 $7 $8 $9 X,Y pos of 4 corners*
0 Add a 4 corners polygon primitive as box body*
4,1,4,$2,$3,$4,$5,$6,$7,$8,$9,$2,$3,0*
0 Add four circle primitives for the rounded corners*
1,1,$1+$1,$2,$3*
1,1,$1+$1,$4,$5*
1,1,$1+$1,$6,$7*
1,1,$1+$1,$8,$9*
0 Add four rect primitives between the rounded corners*
20,1,$1+$1,$2,$3,$4,$5,0*
20,1,$1+$1,$4,$5,$6,$7,0*
20,1,$1+$1,$6,$7,$8,$9,0*
20,1,$1+$1,$8,$9,$2,$3,0*%
%AMHorizOval*
0 Thick line with rounded ends*
0 $1 width*
0 $2 $3 position (X,Y) of the first rounded end (center of the circle)*
0 $4 $5 position (X,Y) of the second rounded end (center of the circle)*
0 Add line between two ends*
20,1,$1,$2,$3,$4,$5,0*
0 Add two circle primitives to create the rounded ends*
1,1,$1,$2,$3*
1,1,$1,$4,$5*%
G04 Aperture macros list end*
%ADD10C,0.800000*%
%ADD11C,7.000000*%
%ADD12C,1.950000*%
%ADD13C,1.350000*%
%ADD14HorizOval,2.100000X1.039230X-0.600000X-1.039230X0.600000X0*%
%ADD15HorizOval,2.100000X1.039230X0.600000X-1.039230X-0.600000X0*%
%ADD16RoundRect,0.250000X-0.262500X-0.450000X0.262500X-0.450000X0.262500X0.450000X-0.262500X0.450000X0*%
%ADD17RoundRect,0.250000X-0.250000X-0.475000X0.250000X-0.475000X0.250000X0.475000X-0.250000X0.475000X0*%
%ADD18RoundRect,0.250000X-0.450000X0.262500X-0.450000X-0.262500X0.450000X-0.262500X0.450000X0.262500X0*%
%ADD19RoundRect,0.250000X0.450000X-0.262500X0.450000X0.262500X-0.450000X0.262500X-0.450000X-0.262500X0*%
%ADD20R,2.400000X2.400000*%
%ADD21C,2.400000*%
%ADD22R,2.124000X2.124000*%
%ADD23C,2.124000*%
%ADD24RoundRect,0.250000X-0.475000X0.250000X-0.475000X-0.250000X0.475000X-0.250000X0.475000X0.250000X0*%
%ADD25R,1.950000X1.950000*%
%ADD26C,2.300000*%
G04 APERTURE END LIST*
D10*
X137375000Y-27000000D03*
X138143845Y-25143845D03*
X138143845Y-28856155D03*
X140000000Y-24375000D03*
D11*
X140000000Y-27000000D03*
D10*
X140000000Y-29625000D03*
X141856155Y-25143845D03*
X141856155Y-28856155D03*
X142625000Y-27000000D03*
D12*
X94863845Y-98500000D03*
D13*
X91113845Y-99350000D03*
X84763845Y-106850000D03*
D12*
X91763845Y-106350000D03*
D14*
X58349999Y-38122999D03*
D15*
X63849999Y-38122999D03*
D12*
X91603845Y-31560000D03*
D13*
X92453845Y-35310000D03*
X99953845Y-41660000D03*
D12*
X99453845Y-34660000D03*
D10*
X24375000Y-27000000D03*
X25143845Y-25143845D03*
X25143845Y-28856155D03*
X27000000Y-24375000D03*
D11*
X27000000Y-27000000D03*
D10*
X27000000Y-29625000D03*
X28856155Y-25143845D03*
X28856155Y-28856155D03*
X29625000Y-27000000D03*
D12*
X91603845Y-72200000D03*
D13*
X92453845Y-75950000D03*
X99953845Y-82300000D03*
D12*
X99453845Y-75300000D03*
X91603845Y-51880000D03*
D13*
X92453845Y-55630000D03*
X99953845Y-61980000D03*
D12*
X99453845Y-54980000D03*
D10*
X24375000Y-140000000D03*
X25143845Y-138143845D03*
X25143845Y-141856155D03*
X27000000Y-137375000D03*
D11*
X27000000Y-140000000D03*
D10*
X27000000Y-142625000D03*
X28856155Y-138143845D03*
X28856155Y-141856155D03*
X29625000Y-140000000D03*
D12*
X132963845Y-98500000D03*
D13*
X129213845Y-99350000D03*
X122863845Y-106850000D03*
D12*
X129863845Y-106350000D03*
X112643845Y-98500000D03*
D13*
X108893845Y-99350000D03*
X102543845Y-106850000D03*
D12*
X109543845Y-106350000D03*
D10*
X137375000Y-140000000D03*
X138143845Y-138143845D03*
X138143845Y-141856155D03*
X140000000Y-137375000D03*
D11*
X140000000Y-140000000D03*
D10*
X140000000Y-142625000D03*
X141856155Y-138143845D03*
X141856155Y-141856155D03*
X142625000Y-140000000D03*
D16*
X44551345Y-83500000D03*
X46376345Y-83500000D03*
D17*
X52133845Y-84897000D03*
X54033845Y-84897000D03*
D18*
X49273845Y-85497500D03*
X49273845Y-87322500D03*
D16*
X25601345Y-83550000D03*
X27426345Y-83550000D03*
D19*
X29863845Y-84422500D03*
X29863845Y-82597500D03*
D18*
X29863845Y-86050000D03*
X29863845Y-87875000D03*
X70863845Y-85762500D03*
X70863845Y-87587500D03*
D20*
X59433844Y-63179999D03*
D21*
X59433845Y-58180000D03*
D22*
X126237999Y-36321999D03*
X126237999Y-40341999D03*
D23*
X136398000Y-46482000D03*
X136398000Y-50502000D03*
X126238000Y-56642000D03*
X126238000Y-60662000D03*
X136398000Y-66802000D03*
X136398000Y-70822000D03*
X126238000Y-76962000D03*
X126238000Y-80982000D03*
X136398000Y-87122000D03*
X136398000Y-91142000D03*
D19*
X49273845Y-83812500D03*
X49273845Y-81987500D03*
D24*
X23143845Y-84300000D03*
X23143845Y-86200000D03*
D17*
X73088845Y-86040000D03*
X74988845Y-86040000D03*
D24*
X63878845Y-82550000D03*
X63878845Y-84450000D03*
X42288845Y-83185000D03*
X42288845Y-85085000D03*
D20*
X42923844Y-62963958D03*
D21*
X42923845Y-57963959D03*
D20*
X27683844Y-63179999D03*
D21*
X27683845Y-58180000D03*
D25*
X29489999Y-46999999D03*
X39649999Y-46999999D03*
D26*
X29490000Y-36840000D03*
X39650000Y-36840000D03*
D17*
X33003845Y-87320000D03*
X34903845Y-87320000D03*
D22*
X130573844Y-126999999D03*
X126553844Y-126999999D03*
D23*
X120413845Y-137160000D03*
X116393845Y-137160000D03*
X110253845Y-127000000D03*
X106233845Y-127000000D03*
X100093845Y-137160000D03*
X96073845Y-137160000D03*
X89933845Y-127000000D03*
X85913845Y-127000000D03*
X79773845Y-137160000D03*
X75753845Y-137160000D03*
D16*
X66141345Y-83500000D03*
X67966345Y-83500000D03*
D12*
X41348000Y-140462000D03*
X46348000Y-140462000D03*
X51348000Y-140462000D03*
X56348000Y-140462000D03*
X61348000Y-140462000D03*
X66348000Y-140462000D03*
D19*
X70863845Y-83777500D03*
X70863845Y-81952500D03*
M02*
