%TF.GenerationSoftware,KiCad,Pcbnew,(7.0.0-0)*%
%TF.CreationDate,2023-12-24T21:08:59+08:00*%
%TF.ProjectId,Power Distribution Board Ver.2,506f7765-7220-4446-9973-747269627574,rev?*%
%TF.SameCoordinates,Original*%
%TF.FileFunction,Drillmap*%
%TF.FilePolarity,Positive*%
%FSLAX45Y45*%
G04 Gerber Fmt 4.5, Leading zero omitted, Abs format (unit mm)*
G04 Created by KiCad (PCBNEW (7.0.0-0)) date 2023-12-24 21:08:59*
%MOMM*%
%LPD*%
G01*
G04 APERTURE LIST*
%ADD10C,0.200000*%
G04 APERTURE END LIST*
D10*
X14700000Y-14700000D02*
X2000000Y-14700000D01*
X2000000Y-2000000D02*
X14700000Y-2000000D01*
X14700000Y-2000000D02*
X14700000Y-14700000D01*
X2000000Y-14700000D02*
X2000000Y-2000000D01*
X2237619Y-15003476D02*
X2237619Y-14803476D01*
X2237619Y-14803476D02*
X2285238Y-14803476D01*
X2285238Y-14803476D02*
X2313810Y-14813000D01*
X2313810Y-14813000D02*
X2332857Y-14832048D01*
X2332857Y-14832048D02*
X2342381Y-14851095D01*
X2342381Y-14851095D02*
X2351905Y-14889190D01*
X2351905Y-14889190D02*
X2351905Y-14917762D01*
X2351905Y-14917762D02*
X2342381Y-14955857D01*
X2342381Y-14955857D02*
X2332857Y-14974905D01*
X2332857Y-14974905D02*
X2313810Y-14993952D01*
X2313810Y-14993952D02*
X2285238Y-15003476D01*
X2285238Y-15003476D02*
X2237619Y-15003476D01*
X2437619Y-15003476D02*
X2437619Y-14870143D01*
X2437619Y-14908238D02*
X2447143Y-14889190D01*
X2447143Y-14889190D02*
X2456667Y-14879667D01*
X2456667Y-14879667D02*
X2475714Y-14870143D01*
X2475714Y-14870143D02*
X2494762Y-14870143D01*
X2561429Y-15003476D02*
X2561429Y-14870143D01*
X2561429Y-14803476D02*
X2551905Y-14813000D01*
X2551905Y-14813000D02*
X2561429Y-14822524D01*
X2561429Y-14822524D02*
X2570952Y-14813000D01*
X2570952Y-14813000D02*
X2561429Y-14803476D01*
X2561429Y-14803476D02*
X2561429Y-14822524D01*
X2685238Y-15003476D02*
X2666190Y-14993952D01*
X2666190Y-14993952D02*
X2656667Y-14974905D01*
X2656667Y-14974905D02*
X2656667Y-14803476D01*
X2790000Y-15003476D02*
X2770952Y-14993952D01*
X2770952Y-14993952D02*
X2761429Y-14974905D01*
X2761429Y-14974905D02*
X2761429Y-14803476D01*
X2986190Y-15003476D02*
X2986190Y-14803476D01*
X2986190Y-14803476D02*
X3052857Y-14946333D01*
X3052857Y-14946333D02*
X3119524Y-14803476D01*
X3119524Y-14803476D02*
X3119524Y-15003476D01*
X3300476Y-15003476D02*
X3300476Y-14898714D01*
X3300476Y-14898714D02*
X3290952Y-14879667D01*
X3290952Y-14879667D02*
X3271905Y-14870143D01*
X3271905Y-14870143D02*
X3233809Y-14870143D01*
X3233809Y-14870143D02*
X3214762Y-14879667D01*
X3300476Y-14993952D02*
X3281428Y-15003476D01*
X3281428Y-15003476D02*
X3233809Y-15003476D01*
X3233809Y-15003476D02*
X3214762Y-14993952D01*
X3214762Y-14993952D02*
X3205238Y-14974905D01*
X3205238Y-14974905D02*
X3205238Y-14955857D01*
X3205238Y-14955857D02*
X3214762Y-14936809D01*
X3214762Y-14936809D02*
X3233809Y-14927286D01*
X3233809Y-14927286D02*
X3281428Y-14927286D01*
X3281428Y-14927286D02*
X3300476Y-14917762D01*
X3395714Y-14870143D02*
X3395714Y-15070143D01*
X3395714Y-14879667D02*
X3414762Y-14870143D01*
X3414762Y-14870143D02*
X3452857Y-14870143D01*
X3452857Y-14870143D02*
X3471905Y-14879667D01*
X3471905Y-14879667D02*
X3481428Y-14889190D01*
X3481428Y-14889190D02*
X3490952Y-14908238D01*
X3490952Y-14908238D02*
X3490952Y-14965381D01*
X3490952Y-14965381D02*
X3481428Y-14984428D01*
X3481428Y-14984428D02*
X3471905Y-14993952D01*
X3471905Y-14993952D02*
X3452857Y-15003476D01*
X3452857Y-15003476D02*
X3414762Y-15003476D01*
X3414762Y-15003476D02*
X3395714Y-14993952D01*
X3576667Y-14984428D02*
X3586190Y-14993952D01*
X3586190Y-14993952D02*
X3576667Y-15003476D01*
X3576667Y-15003476D02*
X3567143Y-14993952D01*
X3567143Y-14993952D02*
X3576667Y-14984428D01*
X3576667Y-14984428D02*
X3576667Y-15003476D01*
X3576667Y-14879667D02*
X3586190Y-14889190D01*
X3586190Y-14889190D02*
X3576667Y-14898714D01*
X3576667Y-14898714D02*
X3567143Y-14889190D01*
X3567143Y-14889190D02*
X3576667Y-14879667D01*
X3576667Y-14879667D02*
X3576667Y-14898714D01*
M02*
