%TF.GenerationSoftware,KiCad,Pcbnew,(7.0.0-0)*%
%TF.CreationDate,2023-12-24T21:08:59+08:00*%
%TF.ProjectId,Power Distribution Board Ver.2,506f7765-7220-4446-9973-747269627574,rev?*%
%TF.SameCoordinates,Original*%
%TF.FileFunction,Drillmap*%
%TF.FilePolarity,Positive*%
%FSLAX45Y45*%
G04 Gerber Fmt 4.5, Leading zero omitted, Abs format (unit mm)*
G04 Created by KiCad (PCBNEW (7.0.0-0)) date 2023-12-24 21:08:59*
%MOMM*%
%LPD*%
G01*
G04 APERTURE LIST*
%ADD10C,0.200000*%
%ADD11C,0.040000*%
%ADD12C,0.050000*%
%ADD13C,0.075000*%
%ADD14C,0.090000*%
%ADD15C,0.120000*%
%ADD16C,0.125000*%
%ADD17C,0.130000*%
%ADD18C,0.152400*%
%ADD19C,0.160000*%
%ADD20C,0.350000*%
G04 APERTURE END LIST*
D10*
X14700000Y-14700000D02*
X2000000Y-14700000D01*
X2000000Y-2000000D02*
X14700000Y-2000000D01*
X14700000Y-2000000D02*
X14700000Y-14700000D01*
X2000000Y-14700000D02*
X2000000Y-2000000D01*
D11*
X2454885Y-8521500D02*
X2494885Y-8561500D01*
X2494885Y-8521500D02*
X2454885Y-8561500D01*
X2459282Y-8167897D02*
X2499282Y-8207897D01*
X2499282Y-8167897D02*
X2459282Y-8207897D01*
X2596200Y-10990900D02*
X2636200Y-11030900D01*
X2636200Y-10990900D02*
X2596200Y-11030900D01*
X2645385Y-8458000D02*
X2685385Y-8498000D01*
X2685385Y-8458000D02*
X2645385Y-8498000D01*
X2645385Y-8585000D02*
X2685385Y-8625000D01*
X2685385Y-8585000D02*
X2645385Y-8625000D01*
X2768185Y-8105873D02*
X2808184Y-8145873D01*
X2808184Y-8105873D02*
X2768185Y-8145873D01*
X3022950Y-7847641D02*
X3062950Y-7887641D01*
X3062950Y-7847641D02*
X3022950Y-7887641D01*
X3026384Y-7950000D02*
X3066384Y-7990000D01*
X3066384Y-7950000D02*
X3026384Y-7990000D01*
X3066100Y-11829100D02*
X3106100Y-11869100D01*
X3106100Y-11829100D02*
X3066100Y-11869100D01*
X3116900Y-12794300D02*
X3156900Y-12834300D01*
X3156900Y-12794300D02*
X3116900Y-12834300D01*
X3294700Y-10355900D02*
X3334700Y-10395900D01*
X3334700Y-10355900D02*
X3294700Y-10395900D01*
X3345500Y-13721400D02*
X3385500Y-13761400D01*
X3385500Y-13721400D02*
X3345500Y-13761400D01*
X3396300Y-6850700D02*
X3436300Y-6890700D01*
X3436300Y-6850700D02*
X3396300Y-6890700D01*
X3459800Y-9136700D02*
X3499800Y-9176700D01*
X3499800Y-9136700D02*
X3459800Y-9176700D01*
X3586800Y-14318300D02*
X3626800Y-14358300D01*
X3626800Y-14318300D02*
X3586800Y-14358300D01*
X3739200Y-7307900D02*
X3779200Y-7347900D01*
X3779200Y-7307900D02*
X3739200Y-7347900D01*
X3751900Y-8908100D02*
X3791900Y-8948100D01*
X3791900Y-8908100D02*
X3751900Y-8948100D01*
X3828100Y-8374700D02*
X3868100Y-8414700D01*
X3868100Y-8374700D02*
X3828100Y-8414700D01*
X3853500Y-7828600D02*
X3893500Y-7868600D01*
X3893500Y-7828600D02*
X3853500Y-7868600D01*
X4209100Y-6965000D02*
X4249100Y-7005000D01*
X4249100Y-6965000D02*
X4209100Y-7005000D01*
X4272385Y-8139500D02*
X4312385Y-8179500D01*
X4312385Y-8139500D02*
X4272385Y-8179500D01*
X4326538Y-8395869D02*
X4366538Y-8435869D01*
X4366538Y-8395869D02*
X4326538Y-8435869D01*
X4513900Y-9098600D02*
X4553900Y-9138600D01*
X4553900Y-9098600D02*
X4513900Y-9138600D01*
X4526385Y-8139500D02*
X4566385Y-8179500D01*
X4566385Y-8139500D02*
X4526385Y-8179500D01*
X4716885Y-8457000D02*
X4756885Y-8497000D01*
X4756885Y-8457000D02*
X4716885Y-8497000D01*
X4728835Y-8330000D02*
X4768835Y-8370000D01*
X4768835Y-8330000D02*
X4728835Y-8370000D01*
X4737712Y-7904403D02*
X4777712Y-7944403D01*
X4777712Y-7904403D02*
X4737712Y-7944403D01*
X4828106Y-7854550D02*
X4868106Y-7894550D01*
X4868106Y-7854550D02*
X4828106Y-7894550D01*
X5263200Y-10406700D02*
X5303200Y-10446700D01*
X5303200Y-10406700D02*
X5263200Y-10446700D01*
X5288600Y-6838000D02*
X5328600Y-6878000D01*
X5328600Y-6838000D02*
X5288600Y-6878000D01*
X5377500Y-9124000D02*
X5417500Y-9164000D01*
X5417500Y-9124000D02*
X5377500Y-9164000D01*
X5555300Y-8717600D02*
X5595300Y-8757600D01*
X5595300Y-8717600D02*
X5555300Y-8757600D01*
X5656900Y-7307900D02*
X5696900Y-7347900D01*
X5696900Y-7307900D02*
X5656900Y-7347900D01*
X5745800Y-8082600D02*
X5785800Y-8122600D01*
X5785800Y-8082600D02*
X5745800Y-8122600D01*
X5936300Y-13391200D02*
X5976300Y-13431200D01*
X5976300Y-13391200D02*
X5936300Y-13431200D01*
X6025200Y-8997000D02*
X6065200Y-9037000D01*
X6065200Y-8997000D02*
X6025200Y-9037000D01*
X6152200Y-7485700D02*
X6192200Y-7525700D01*
X6192200Y-7485700D02*
X6152200Y-7525700D01*
X6215700Y-6965000D02*
X6255700Y-7005000D01*
X6255700Y-6965000D02*
X6215700Y-7005000D01*
X6367884Y-8139500D02*
X6407884Y-8179500D01*
X6407884Y-8139500D02*
X6367884Y-8179500D01*
X6380800Y-10889300D02*
X6420800Y-10929300D01*
X6420800Y-10889300D02*
X6380800Y-10929300D01*
X6457000Y-4196400D02*
X6497000Y-4236400D01*
X6497000Y-4196400D02*
X6457000Y-4236400D01*
X6507800Y-8463600D02*
X6547800Y-8503600D01*
X6547800Y-8463600D02*
X6507800Y-8503600D01*
X6599084Y-8139500D02*
X6639084Y-8179500D01*
X6639084Y-8139500D02*
X6599084Y-8179500D01*
X6660200Y-4679000D02*
X6700200Y-4719000D01*
X6700200Y-4679000D02*
X6660200Y-4719000D01*
X6672900Y-6545900D02*
X6712900Y-6585900D01*
X6712900Y-6545900D02*
X6672900Y-6585900D01*
X6749100Y-11270300D02*
X6789100Y-11310300D01*
X6789100Y-11270300D02*
X6749100Y-11310300D01*
X6838218Y-8452253D02*
X6878218Y-8492253D01*
X6878218Y-8452253D02*
X6838218Y-8492253D01*
X6874072Y-7906800D02*
X6914072Y-7946800D01*
X6914072Y-7906800D02*
X6874072Y-7946800D01*
X6887834Y-8324822D02*
X6927834Y-8364822D01*
X6927834Y-8324822D02*
X6887834Y-8364822D01*
X6901500Y-3142300D02*
X6941500Y-3182300D01*
X6941500Y-3142300D02*
X6901500Y-3182300D01*
X6926900Y-6749100D02*
X6966900Y-6789100D01*
X6966900Y-6749100D02*
X6926900Y-6789100D01*
X6939384Y-7831200D02*
X6979384Y-7871200D01*
X6979384Y-7831200D02*
X6939384Y-7871200D01*
X7028500Y-9212900D02*
X7068500Y-9252900D01*
X7068500Y-9212900D02*
X7028500Y-9252900D01*
X7028500Y-13607100D02*
X7068500Y-13647100D01*
X7068500Y-13607100D02*
X7028500Y-13647100D01*
X7244400Y-10381300D02*
X7284400Y-10421300D01*
X7284400Y-10381300D02*
X7244400Y-10421300D01*
X7320600Y-12756200D02*
X7360600Y-12796200D01*
X7360600Y-12756200D02*
X7320600Y-12796200D01*
X7396800Y-7041200D02*
X7436800Y-7081200D01*
X7436800Y-7041200D02*
X7396800Y-7081200D01*
X7473000Y-12489500D02*
X7513000Y-12529500D01*
X7513000Y-12489500D02*
X7473000Y-12529500D01*
X7600000Y-8933500D02*
X7640000Y-8973500D01*
X7640000Y-8933500D02*
X7600000Y-8973500D01*
X7815900Y-8311200D02*
X7855900Y-8351200D01*
X7855900Y-8311200D02*
X7815900Y-8351200D01*
X7841300Y-7574600D02*
X7881300Y-7614600D01*
X7881300Y-7574600D02*
X7841300Y-7614600D01*
X8120700Y-11219500D02*
X8160700Y-11259500D01*
X8160700Y-11219500D02*
X8120700Y-11259500D01*
X8311200Y-6444300D02*
X8351200Y-6484300D01*
X8351200Y-6444300D02*
X8311200Y-6484300D01*
X8387400Y-7269800D02*
X8427400Y-7309800D01*
X8427400Y-7269800D02*
X8387400Y-7309800D01*
X8387400Y-8196900D02*
X8427400Y-8236900D01*
X8427400Y-8196900D02*
X8387400Y-8236900D01*
X8387400Y-9352600D02*
X8427400Y-9392600D01*
X8427400Y-9352600D02*
X8387400Y-9392600D01*
X8743000Y-4717100D02*
X8783000Y-4757100D01*
X8783000Y-4717100D02*
X8743000Y-4757100D01*
X8997000Y-8997000D02*
X9037000Y-9037000D01*
X9037000Y-8997000D02*
X8997000Y-9037000D01*
X9035100Y-2862900D02*
X9075100Y-2902900D01*
X9075100Y-2862900D02*
X9035100Y-2902900D01*
X9479600Y-5898200D02*
X9519600Y-5938200D01*
X9519600Y-5898200D02*
X9479600Y-5938200D01*
X9530400Y-3802700D02*
X9570400Y-3842700D01*
X9570400Y-3802700D02*
X9530400Y-3842700D01*
X9530400Y-7765100D02*
X9570400Y-7805100D01*
X9570400Y-7765100D02*
X9530400Y-7805100D01*
X9746300Y-10724200D02*
X9786300Y-10764200D01*
X9786300Y-10724200D02*
X9746300Y-10764200D01*
X9797100Y-12883200D02*
X9837100Y-12923200D01*
X9837100Y-12883200D02*
X9797100Y-12923200D01*
X10127300Y-9085900D02*
X10167300Y-9125900D01*
X10167300Y-9085900D02*
X10127300Y-9125900D01*
X10571800Y-4818700D02*
X10611800Y-4858700D01*
X10611800Y-4818700D02*
X10571800Y-4858700D01*
X10648000Y-2761300D02*
X10688000Y-2801300D01*
X10688000Y-2761300D02*
X10648000Y-2801300D01*
X10660700Y-6850700D02*
X10700700Y-6890700D01*
X10700700Y-6850700D02*
X10660700Y-6890700D01*
X11486200Y-9098600D02*
X11526200Y-9138600D01*
X11526200Y-9098600D02*
X11486200Y-9138600D01*
X11740200Y-9670100D02*
X11780200Y-9710100D01*
X11780200Y-9670100D02*
X11740200Y-9710100D01*
X11791000Y-10851200D02*
X11831000Y-10891200D01*
X11831000Y-10851200D02*
X11791000Y-10891200D01*
X11829100Y-12845100D02*
X11869100Y-12885100D01*
X11869100Y-12845100D02*
X11829100Y-12885100D01*
X12438700Y-9149400D02*
X12478700Y-9189400D01*
X12478700Y-9149400D02*
X12438700Y-9189400D01*
X12654600Y-2888300D02*
X12694600Y-2928300D01*
X12694600Y-2888300D02*
X12654600Y-2928300D01*
X12857800Y-6939600D02*
X12897800Y-6979600D01*
X12897800Y-6939600D02*
X12857800Y-6979600D01*
X13073700Y-4920300D02*
X13113700Y-4960300D01*
X13113700Y-4920300D02*
X13073700Y-4960300D01*
X13505500Y-3802700D02*
X13545500Y-3842700D01*
X13545500Y-3802700D02*
X13505500Y-3842700D01*
X13505500Y-8108000D02*
X13545500Y-8148000D01*
X13545500Y-8108000D02*
X13505500Y-8148000D01*
X13581700Y-5860100D02*
X13621700Y-5900100D01*
X13621700Y-5860100D02*
X13581700Y-5900100D01*
X13823000Y-11003600D02*
X13863000Y-11043600D01*
X13863000Y-11003600D02*
X13823000Y-11043600D01*
X13835700Y-13251500D02*
X13875700Y-13291500D01*
X13875700Y-13251500D02*
X13835700Y-13291500D01*
X13937300Y-12083100D02*
X13977300Y-12123100D01*
X13977300Y-12083100D02*
X13937300Y-12123100D01*
D12*
X2462500Y-2700000D02*
G75*
G03*
X2462500Y-2700000I-25000J0D01*
G01*
X2462500Y-14000000D02*
G75*
G03*
X2462500Y-14000000I-25000J0D01*
G01*
X2539385Y-2514385D02*
G75*
G03*
X2539385Y-2514385I-25000J0D01*
G01*
X2539385Y-2885615D02*
G75*
G03*
X2539385Y-2885615I-25000J0D01*
G01*
X2539385Y-13814384D02*
G75*
G03*
X2539385Y-13814384I-25000J0D01*
G01*
X2539385Y-14185615D02*
G75*
G03*
X2539385Y-14185615I-25000J0D01*
G01*
X2725000Y-2437500D02*
G75*
G03*
X2725000Y-2437500I-25000J0D01*
G01*
X2725000Y-2962500D02*
G75*
G03*
X2725000Y-2962500I-25000J0D01*
G01*
X2725000Y-13737500D02*
G75*
G03*
X2725000Y-13737500I-25000J0D01*
G01*
X2725000Y-14262500D02*
G75*
G03*
X2725000Y-14262500I-25000J0D01*
G01*
X2910615Y-2514385D02*
G75*
G03*
X2910615Y-2514385I-25000J0D01*
G01*
X2910615Y-2885615D02*
G75*
G03*
X2910615Y-2885615I-25000J0D01*
G01*
X2910615Y-13814384D02*
G75*
G03*
X2910615Y-13814384I-25000J0D01*
G01*
X2910615Y-14185615D02*
G75*
G03*
X2910615Y-14185615I-25000J0D01*
G01*
X2987500Y-2700000D02*
G75*
G03*
X2987500Y-2700000I-25000J0D01*
G01*
X2987500Y-14000000D02*
G75*
G03*
X2987500Y-14000000I-25000J0D01*
G01*
X13762500Y-2700000D02*
G75*
G03*
X13762500Y-2700000I-25000J0D01*
G01*
X13762500Y-14000000D02*
G75*
G03*
X13762500Y-14000000I-25000J0D01*
G01*
X13839384Y-2514385D02*
G75*
G03*
X13839384Y-2514385I-25000J0D01*
G01*
X13839384Y-2885615D02*
G75*
G03*
X13839384Y-2885615I-25000J0D01*
G01*
X13839384Y-13814384D02*
G75*
G03*
X13839384Y-13814384I-25000J0D01*
G01*
X13839384Y-14185615D02*
G75*
G03*
X13839384Y-14185615I-25000J0D01*
G01*
X14025000Y-2437500D02*
G75*
G03*
X14025000Y-2437500I-25000J0D01*
G01*
X14025000Y-2962500D02*
G75*
G03*
X14025000Y-2962500I-25000J0D01*
G01*
X14025000Y-13737500D02*
G75*
G03*
X14025000Y-13737500I-25000J0D01*
G01*
X14025000Y-14262500D02*
G75*
G03*
X14025000Y-14262500I-25000J0D01*
G01*
X14210615Y-2514385D02*
G75*
G03*
X14210615Y-2514385I-25000J0D01*
G01*
X14210615Y-2885615D02*
G75*
G03*
X14210615Y-2885615I-25000J0D01*
G01*
X14210615Y-13814384D02*
G75*
G03*
X14210615Y-13814384I-25000J0D01*
G01*
X14210615Y-14185615D02*
G75*
G03*
X14210615Y-14185615I-25000J0D01*
G01*
X14287500Y-2700000D02*
G75*
G03*
X14287500Y-2700000I-25000J0D01*
G01*
X14287500Y-14000000D02*
G75*
G03*
X14287500Y-14000000I-25000J0D01*
G01*
D13*
X8476385Y-10647500D02*
X8476385Y-10722500D01*
X8438885Y-10685000D02*
X8513885Y-10685000D01*
X9111385Y-9897500D02*
X9111385Y-9972500D01*
X9073885Y-9935000D02*
X9148885Y-9935000D01*
X9245385Y-3493500D02*
X9245385Y-3568500D01*
X9207885Y-3531000D02*
X9282885Y-3531000D01*
X9245385Y-5525500D02*
X9245385Y-5600500D01*
X9207885Y-5563000D02*
X9282885Y-5563000D01*
X9245385Y-7557500D02*
X9245385Y-7632500D01*
X9207885Y-7595000D02*
X9282885Y-7595000D01*
X9995385Y-4128500D02*
X9995385Y-4203500D01*
X9957885Y-4166000D02*
X10032885Y-4166000D01*
X9995385Y-6160500D02*
X9995385Y-6235500D01*
X9957885Y-6198000D02*
X10032885Y-6198000D01*
X9995385Y-8192500D02*
X9995385Y-8267500D01*
X9957885Y-8230000D02*
X10032885Y-8230000D01*
X10254385Y-10647500D02*
X10254385Y-10722500D01*
X10216885Y-10685000D02*
X10291885Y-10685000D01*
X10889385Y-9897500D02*
X10889385Y-9972500D01*
X10851885Y-9935000D02*
X10926885Y-9935000D01*
X12286384Y-10647500D02*
X12286384Y-10722500D01*
X12248884Y-10685000D02*
X12323884Y-10685000D01*
X12921384Y-9897500D02*
X12921384Y-9972500D01*
X12883884Y-9935000D02*
X12958884Y-9935000D01*
D14*
X5866820Y-3844120D02*
X5866820Y-3780480D01*
X5803180Y-3780480D01*
X5803180Y-3844120D01*
X5866820Y-3844120D01*
D10*
X5708577Y-3791271D02*
X5916423Y-3911271D01*
X5916423Y-3911271D02*
G75*
G03*
X5961423Y-3833329I22500J38971D01*
G01*
X5961423Y-3833329D02*
X5753577Y-3713329D01*
X5753577Y-3713329D02*
G75*
G03*
X5708577Y-3791271I-22500J-38971D01*
G01*
D14*
X6416820Y-3844120D02*
X6416820Y-3780480D01*
X6353180Y-3780480D01*
X6353180Y-3844120D01*
X6416820Y-3844120D01*
D10*
X6303577Y-3911271D02*
X6511423Y-3791271D01*
X6511423Y-3791271D02*
G75*
G03*
X6466423Y-3713329I-22500J38971D01*
G01*
X6466423Y-3713329D02*
X6258577Y-3833329D01*
X6258577Y-3833329D02*
G75*
G03*
X6303577Y-3911271I22500J-38971D01*
G01*
D15*
X2768385Y-5878000D02*
X2828384Y-5818000D01*
X2768385Y-5758000D01*
X2708385Y-5818000D01*
X2768385Y-5878000D01*
X2768385Y-6378000D02*
X2828384Y-6318000D01*
X2768385Y-6258000D01*
X2708385Y-6318000D01*
X2768385Y-6378000D01*
X4292385Y-5856396D02*
X4352385Y-5796396D01*
X4292385Y-5736396D01*
X4232385Y-5796396D01*
X4292385Y-5856396D01*
X4292385Y-6356396D02*
X4352385Y-6296396D01*
X4292385Y-6236396D01*
X4232385Y-6296396D01*
X4292385Y-6356396D01*
X5943384Y-5878000D02*
X6003384Y-5818000D01*
X5943384Y-5758000D01*
X5883384Y-5818000D01*
X5943384Y-5878000D01*
X5943384Y-6378000D02*
X6003384Y-6318000D01*
X5943384Y-6258000D01*
X5883384Y-6318000D01*
X5943384Y-6378000D01*
D16*
X9097885Y-3093500D02*
X9222885Y-3218500D01*
X9222885Y-3093500D02*
X9097885Y-3218500D01*
X9222885Y-3156000D02*
G75*
G03*
X9222885Y-3156000I-62500J0D01*
G01*
X9097885Y-5125500D02*
X9222885Y-5250500D01*
X9222885Y-5125500D02*
X9097885Y-5250500D01*
X9222885Y-5188000D02*
G75*
G03*
X9222885Y-5188000I-62500J0D01*
G01*
X9097885Y-7157500D02*
X9222885Y-7282500D01*
X9222885Y-7157500D02*
X9097885Y-7282500D01*
X9222885Y-7220000D02*
G75*
G03*
X9222885Y-7220000I-62500J0D01*
G01*
X9113885Y-10572500D02*
X9238885Y-10697500D01*
X9238885Y-10572500D02*
X9113885Y-10697500D01*
X9238885Y-10635000D02*
G75*
G03*
X9238885Y-10635000I-62500J0D01*
G01*
X9423885Y-9787500D02*
X9548885Y-9912500D01*
X9548885Y-9787500D02*
X9423885Y-9912500D01*
X9548885Y-9850000D02*
G75*
G03*
X9548885Y-9850000I-62500J0D01*
G01*
X9882885Y-3403500D02*
X10007885Y-3528500D01*
X10007885Y-3403500D02*
X9882885Y-3528500D01*
X10007885Y-3466000D02*
G75*
G03*
X10007885Y-3466000I-62500J0D01*
G01*
X9882885Y-5435500D02*
X10007885Y-5560500D01*
X10007885Y-5435500D02*
X9882885Y-5560500D01*
X10007885Y-5498000D02*
G75*
G03*
X10007885Y-5498000I-62500J0D01*
G01*
X9882885Y-7467500D02*
X10007885Y-7592500D01*
X10007885Y-7467500D02*
X9882885Y-7592500D01*
X10007885Y-7530000D02*
G75*
G03*
X10007885Y-7530000I-62500J0D01*
G01*
X10891885Y-10572500D02*
X11016885Y-10697500D01*
X11016885Y-10572500D02*
X10891885Y-10697500D01*
X11016885Y-10635000D02*
G75*
G03*
X11016885Y-10635000I-62500J0D01*
G01*
X11201884Y-9787500D02*
X11326884Y-9912500D01*
X11326884Y-9787500D02*
X11201884Y-9912500D01*
X11326884Y-9850000D02*
G75*
G03*
X11326884Y-9850000I-62500J0D01*
G01*
X12923884Y-10572500D02*
X13048884Y-10697500D01*
X13048884Y-10572500D02*
X12923884Y-10697500D01*
X13048884Y-10635000D02*
G75*
G03*
X13048884Y-10635000I-62500J0D01*
G01*
X13233884Y-9787500D02*
X13358884Y-9912500D01*
X13358884Y-9787500D02*
X13233884Y-9912500D01*
X13358884Y-9850000D02*
G75*
G03*
X13358884Y-9850000I-62500J0D01*
G01*
D17*
X4069800Y-13981200D02*
X4199800Y-14111200D01*
X4199800Y-13981200D02*
X4069800Y-14111200D01*
X4134800Y-13981200D02*
X4134800Y-14111200D01*
X4069800Y-14046200D02*
X4199800Y-14046200D01*
X4569800Y-13981200D02*
X4699800Y-14111200D01*
X4699800Y-13981200D02*
X4569800Y-14111200D01*
X4634800Y-13981200D02*
X4634800Y-14111200D01*
X4569800Y-14046200D02*
X4699800Y-14046200D01*
X5069800Y-13981200D02*
X5199800Y-14111200D01*
X5199800Y-13981200D02*
X5069800Y-14111200D01*
X5134800Y-13981200D02*
X5134800Y-14111200D01*
X5069800Y-14046200D02*
X5199800Y-14046200D01*
X5569800Y-13981200D02*
X5699800Y-14111200D01*
X5699800Y-13981200D02*
X5569800Y-14111200D01*
X5634800Y-13981200D02*
X5634800Y-14111200D01*
X5569800Y-14046200D02*
X5699800Y-14046200D01*
X6069800Y-13981200D02*
X6199800Y-14111200D01*
X6199800Y-13981200D02*
X6069800Y-14111200D01*
X6134800Y-13981200D02*
X6134800Y-14111200D01*
X6069800Y-14046200D02*
X6199800Y-14046200D01*
X6569800Y-13981200D02*
X6699800Y-14111200D01*
X6699800Y-13981200D02*
X6569800Y-14111200D01*
X6634800Y-13981200D02*
X6634800Y-14111200D01*
X6569800Y-14046200D02*
X6699800Y-14046200D01*
D18*
X7499184Y-13639800D02*
X7651584Y-13792200D01*
X7651584Y-13639800D02*
X7499184Y-13792200D01*
X7629267Y-13769882D02*
X7629267Y-13662118D01*
X7521502Y-13662118D01*
X7521502Y-13769882D01*
X7629267Y-13769882D01*
X7901184Y-13639800D02*
X8053584Y-13792200D01*
X8053584Y-13639800D02*
X7901184Y-13792200D01*
X8031267Y-13769882D02*
X8031267Y-13662118D01*
X7923502Y-13662118D01*
X7923502Y-13769882D01*
X8031267Y-13769882D01*
X8515185Y-12623800D02*
X8667585Y-12776200D01*
X8667585Y-12623800D02*
X8515185Y-12776200D01*
X8645267Y-12753882D02*
X8645267Y-12646118D01*
X8537502Y-12646118D01*
X8537502Y-12753882D01*
X8645267Y-12753882D01*
X8917185Y-12623800D02*
X9069585Y-12776200D01*
X9069585Y-12623800D02*
X8917185Y-12776200D01*
X9047267Y-12753882D02*
X9047267Y-12646118D01*
X8939502Y-12646118D01*
X8939502Y-12753882D01*
X9047267Y-12753882D01*
X9531185Y-13639800D02*
X9683585Y-13792200D01*
X9683585Y-13639800D02*
X9531185Y-13792200D01*
X9661267Y-13769882D02*
X9661267Y-13662118D01*
X9553502Y-13662118D01*
X9553502Y-13769882D01*
X9661267Y-13769882D01*
X9933185Y-13639800D02*
X10085585Y-13792200D01*
X10085585Y-13639800D02*
X9933185Y-13792200D01*
X10063267Y-13769882D02*
X10063267Y-13662118D01*
X9955502Y-13662118D01*
X9955502Y-13769882D01*
X10063267Y-13769882D01*
X10547185Y-12623800D02*
X10699585Y-12776200D01*
X10699585Y-12623800D02*
X10547185Y-12776200D01*
X10677267Y-12753882D02*
X10677267Y-12646118D01*
X10569502Y-12646118D01*
X10569502Y-12753882D01*
X10677267Y-12753882D01*
X10949185Y-12623800D02*
X11101585Y-12776200D01*
X11101585Y-12623800D02*
X10949185Y-12776200D01*
X11079267Y-12753882D02*
X11079267Y-12646118D01*
X10971502Y-12646118D01*
X10971502Y-12753882D01*
X11079267Y-12753882D01*
X11563184Y-13639800D02*
X11715584Y-13792200D01*
X11715584Y-13639800D02*
X11563184Y-13792200D01*
X11693267Y-13769882D02*
X11693267Y-13662118D01*
X11585502Y-13662118D01*
X11585502Y-13769882D01*
X11693267Y-13769882D01*
X11965184Y-13639800D02*
X12117584Y-13792200D01*
X12117584Y-13639800D02*
X11965184Y-13792200D01*
X12095267Y-13769882D02*
X12095267Y-13662118D01*
X11987502Y-13662118D01*
X11987502Y-13769882D01*
X12095267Y-13769882D01*
X12547600Y-3556000D02*
X12700000Y-3708400D01*
X12700000Y-3556000D02*
X12547600Y-3708400D01*
X12677682Y-3686082D02*
X12677682Y-3578318D01*
X12569918Y-3578318D01*
X12569918Y-3686082D01*
X12677682Y-3686082D01*
X12547600Y-3958000D02*
X12700000Y-4110400D01*
X12700000Y-3958000D02*
X12547600Y-4110400D01*
X12677682Y-4088082D02*
X12677682Y-3980318D01*
X12569918Y-3980318D01*
X12569918Y-4088082D01*
X12677682Y-4088082D01*
X12547600Y-5588000D02*
X12700000Y-5740400D01*
X12700000Y-5588000D02*
X12547600Y-5740400D01*
X12677682Y-5718082D02*
X12677682Y-5610318D01*
X12569918Y-5610318D01*
X12569918Y-5718082D01*
X12677682Y-5718082D01*
X12547600Y-5990000D02*
X12700000Y-6142400D01*
X12700000Y-5990000D02*
X12547600Y-6142400D01*
X12677682Y-6120082D02*
X12677682Y-6012318D01*
X12569918Y-6012318D01*
X12569918Y-6120082D01*
X12677682Y-6120082D01*
X12547600Y-7620000D02*
X12700000Y-7772400D01*
X12700000Y-7620000D02*
X12547600Y-7772400D01*
X12677682Y-7750082D02*
X12677682Y-7642318D01*
X12569918Y-7642318D01*
X12569918Y-7750082D01*
X12677682Y-7750082D01*
X12547600Y-8022000D02*
X12700000Y-8174400D01*
X12700000Y-8022000D02*
X12547600Y-8174400D01*
X12677682Y-8152082D02*
X12677682Y-8044318D01*
X12569918Y-8044318D01*
X12569918Y-8152082D01*
X12677682Y-8152082D01*
X12579184Y-12623800D02*
X12731584Y-12776200D01*
X12731584Y-12623800D02*
X12579184Y-12776200D01*
X12709267Y-12753882D02*
X12709267Y-12646118D01*
X12601502Y-12646118D01*
X12601502Y-12753882D01*
X12709267Y-12753882D01*
X12981184Y-12623800D02*
X13133584Y-12776200D01*
X13133584Y-12623800D02*
X12981184Y-12776200D01*
X13111267Y-12753882D02*
X13111267Y-12646118D01*
X13003502Y-12646118D01*
X13003502Y-12753882D01*
X13111267Y-12753882D01*
X13563600Y-4572000D02*
X13716000Y-4724400D01*
X13716000Y-4572000D02*
X13563600Y-4724400D01*
X13693682Y-4702082D02*
X13693682Y-4594318D01*
X13585918Y-4594318D01*
X13585918Y-4702082D01*
X13693682Y-4702082D01*
X13563600Y-4974000D02*
X13716000Y-5126400D01*
X13716000Y-4974000D02*
X13563600Y-5126400D01*
X13693682Y-5104082D02*
X13693682Y-4996318D01*
X13585918Y-4996318D01*
X13585918Y-5104082D01*
X13693682Y-5104082D01*
X13563600Y-6604000D02*
X13716000Y-6756400D01*
X13716000Y-6604000D02*
X13563600Y-6756400D01*
X13693682Y-6734082D02*
X13693682Y-6626318D01*
X13585918Y-6626318D01*
X13585918Y-6734082D01*
X13693682Y-6734082D01*
X13563600Y-7006000D02*
X13716000Y-7158400D01*
X13716000Y-7006000D02*
X13563600Y-7158400D01*
X13693682Y-7136082D02*
X13693682Y-7028318D01*
X13585918Y-7028318D01*
X13585918Y-7136082D01*
X13693682Y-7136082D01*
X13563600Y-8636000D02*
X13716000Y-8788400D01*
X13716000Y-8636000D02*
X13563600Y-8788400D01*
X13693682Y-8766082D02*
X13693682Y-8658318D01*
X13585918Y-8658318D01*
X13585918Y-8766082D01*
X13693682Y-8766082D01*
X13563600Y-9038000D02*
X13716000Y-9190400D01*
X13716000Y-9038000D02*
X13563600Y-9190400D01*
X13693682Y-9168082D02*
X13693682Y-9060318D01*
X13585918Y-9060318D01*
X13585918Y-9168082D01*
X13693682Y-9168082D01*
D19*
X2869000Y-3604000D02*
X3029000Y-3764000D01*
X3029000Y-3604000D02*
X2869000Y-3764000D01*
X2949000Y-3764000D02*
X3029000Y-3684000D01*
X2949000Y-3604000D01*
X2869000Y-3684000D01*
X2949000Y-3764000D01*
X2869000Y-4620000D02*
X3029000Y-4780000D01*
X3029000Y-4620000D02*
X2869000Y-4780000D01*
X2949000Y-4780000D02*
X3029000Y-4700000D01*
X2949000Y-4620000D01*
X2869000Y-4700000D01*
X2949000Y-4780000D01*
X3885000Y-3604000D02*
X4045000Y-3764000D01*
X4045000Y-3604000D02*
X3885000Y-3764000D01*
X3965000Y-3764000D02*
X4045000Y-3684000D01*
X3965000Y-3604000D01*
X3885000Y-3684000D01*
X3965000Y-3764000D01*
X3885000Y-4620000D02*
X4045000Y-4780000D01*
X4045000Y-4620000D02*
X3885000Y-4780000D01*
X3965000Y-4780000D02*
X4045000Y-4700000D01*
X3965000Y-4620000D01*
X3885000Y-4700000D01*
X3965000Y-4780000D01*
D20*
X2700000Y-2525000D02*
X2700000Y-2875000D01*
X2525000Y-2700000D02*
X2875000Y-2700000D01*
X2875000Y-2700000D02*
G75*
G03*
X2875000Y-2700000I-175000J0D01*
G01*
X2700000Y-13825000D02*
X2700000Y-14175000D01*
X2525000Y-14000000D02*
X2875000Y-14000000D01*
X2875000Y-14000000D02*
G75*
G03*
X2875000Y-14000000I-175000J0D01*
G01*
X14000000Y-2525000D02*
X14000000Y-2875000D01*
X13825000Y-2700000D02*
X14175000Y-2700000D01*
X14175000Y-2700000D02*
G75*
G03*
X14175000Y-2700000I-175000J0D01*
G01*
X14000000Y-13825000D02*
X14000000Y-14175000D01*
X13825000Y-14000000D02*
X14175000Y-14000000D01*
X14175000Y-14000000D02*
G75*
G03*
X14175000Y-14000000I-175000J0D01*
G01*
D10*
X2237619Y-15003476D02*
X2237619Y-14803476D01*
X2237619Y-14803476D02*
X2285238Y-14803476D01*
X2285238Y-14803476D02*
X2313810Y-14813000D01*
X2313810Y-14813000D02*
X2332857Y-14832048D01*
X2332857Y-14832048D02*
X2342381Y-14851095D01*
X2342381Y-14851095D02*
X2351905Y-14889190D01*
X2351905Y-14889190D02*
X2351905Y-14917762D01*
X2351905Y-14917762D02*
X2342381Y-14955857D01*
X2342381Y-14955857D02*
X2332857Y-14974905D01*
X2332857Y-14974905D02*
X2313810Y-14993952D01*
X2313810Y-14993952D02*
X2285238Y-15003476D01*
X2285238Y-15003476D02*
X2237619Y-15003476D01*
X2437619Y-15003476D02*
X2437619Y-14870143D01*
X2437619Y-14908238D02*
X2447143Y-14889190D01*
X2447143Y-14889190D02*
X2456667Y-14879667D01*
X2456667Y-14879667D02*
X2475714Y-14870143D01*
X2475714Y-14870143D02*
X2494762Y-14870143D01*
X2561429Y-15003476D02*
X2561429Y-14870143D01*
X2561429Y-14803476D02*
X2551905Y-14813000D01*
X2551905Y-14813000D02*
X2561429Y-14822524D01*
X2561429Y-14822524D02*
X2570952Y-14813000D01*
X2570952Y-14813000D02*
X2561429Y-14803476D01*
X2561429Y-14803476D02*
X2561429Y-14822524D01*
X2685238Y-15003476D02*
X2666190Y-14993952D01*
X2666190Y-14993952D02*
X2656667Y-14974905D01*
X2656667Y-14974905D02*
X2656667Y-14803476D01*
X2790000Y-15003476D02*
X2770952Y-14993952D01*
X2770952Y-14993952D02*
X2761429Y-14974905D01*
X2761429Y-14974905D02*
X2761429Y-14803476D01*
X2986190Y-15003476D02*
X2986190Y-14803476D01*
X2986190Y-14803476D02*
X3052857Y-14946333D01*
X3052857Y-14946333D02*
X3119524Y-14803476D01*
X3119524Y-14803476D02*
X3119524Y-15003476D01*
X3300476Y-15003476D02*
X3300476Y-14898714D01*
X3300476Y-14898714D02*
X3290952Y-14879667D01*
X3290952Y-14879667D02*
X3271905Y-14870143D01*
X3271905Y-14870143D02*
X3233809Y-14870143D01*
X3233809Y-14870143D02*
X3214762Y-14879667D01*
X3300476Y-14993952D02*
X3281428Y-15003476D01*
X3281428Y-15003476D02*
X3233809Y-15003476D01*
X3233809Y-15003476D02*
X3214762Y-14993952D01*
X3214762Y-14993952D02*
X3205238Y-14974905D01*
X3205238Y-14974905D02*
X3205238Y-14955857D01*
X3205238Y-14955857D02*
X3214762Y-14936809D01*
X3214762Y-14936809D02*
X3233809Y-14927286D01*
X3233809Y-14927286D02*
X3281428Y-14927286D01*
X3281428Y-14927286D02*
X3300476Y-14917762D01*
X3395714Y-14870143D02*
X3395714Y-15070143D01*
X3395714Y-14879667D02*
X3414762Y-14870143D01*
X3414762Y-14870143D02*
X3452857Y-14870143D01*
X3452857Y-14870143D02*
X3471905Y-14879667D01*
X3471905Y-14879667D02*
X3481428Y-14889190D01*
X3481428Y-14889190D02*
X3490952Y-14908238D01*
X3490952Y-14908238D02*
X3490952Y-14965381D01*
X3490952Y-14965381D02*
X3481428Y-14984428D01*
X3481428Y-14984428D02*
X3471905Y-14993952D01*
X3471905Y-14993952D02*
X3452857Y-15003476D01*
X3452857Y-15003476D02*
X3414762Y-15003476D01*
X3414762Y-15003476D02*
X3395714Y-14993952D01*
X3576667Y-14984428D02*
X3586190Y-14993952D01*
X3586190Y-14993952D02*
X3576667Y-15003476D01*
X3576667Y-15003476D02*
X3567143Y-14993952D01*
X3567143Y-14993952D02*
X3576667Y-14984428D01*
X3576667Y-14984428D02*
X3576667Y-15003476D01*
X3576667Y-14879667D02*
X3586190Y-14889190D01*
X3586190Y-14889190D02*
X3576667Y-14898714D01*
X3576667Y-14898714D02*
X3567143Y-14889190D01*
X3567143Y-14889190D02*
X3576667Y-14879667D01*
X3576667Y-14879667D02*
X3576667Y-14898714D01*
D11*
X1950000Y-15330000D02*
X1990000Y-15370000D01*
X1990000Y-15330000D02*
X1950000Y-15370000D01*
D10*
X2275714Y-15223476D02*
X2294762Y-15223476D01*
X2294762Y-15223476D02*
X2313810Y-15233000D01*
X2313810Y-15233000D02*
X2323333Y-15242524D01*
X2323333Y-15242524D02*
X2332857Y-15261571D01*
X2332857Y-15261571D02*
X2342381Y-15299667D01*
X2342381Y-15299667D02*
X2342381Y-15347286D01*
X2342381Y-15347286D02*
X2332857Y-15385381D01*
X2332857Y-15385381D02*
X2323333Y-15404428D01*
X2323333Y-15404428D02*
X2313810Y-15413952D01*
X2313810Y-15413952D02*
X2294762Y-15423476D01*
X2294762Y-15423476D02*
X2275714Y-15423476D01*
X2275714Y-15423476D02*
X2256667Y-15413952D01*
X2256667Y-15413952D02*
X2247143Y-15404428D01*
X2247143Y-15404428D02*
X2237619Y-15385381D01*
X2237619Y-15385381D02*
X2228095Y-15347286D01*
X2228095Y-15347286D02*
X2228095Y-15299667D01*
X2228095Y-15299667D02*
X2237619Y-15261571D01*
X2237619Y-15261571D02*
X2247143Y-15242524D01*
X2247143Y-15242524D02*
X2256667Y-15233000D01*
X2256667Y-15233000D02*
X2275714Y-15223476D01*
X2428095Y-15404428D02*
X2437619Y-15413952D01*
X2437619Y-15413952D02*
X2428095Y-15423476D01*
X2428095Y-15423476D02*
X2418571Y-15413952D01*
X2418571Y-15413952D02*
X2428095Y-15404428D01*
X2428095Y-15404428D02*
X2428095Y-15423476D01*
X2609048Y-15290143D02*
X2609048Y-15423476D01*
X2561429Y-15213952D02*
X2513810Y-15356809D01*
X2513810Y-15356809D02*
X2637619Y-15356809D01*
X2751905Y-15223476D02*
X2770952Y-15223476D01*
X2770952Y-15223476D02*
X2790000Y-15233000D01*
X2790000Y-15233000D02*
X2799524Y-15242524D01*
X2799524Y-15242524D02*
X2809048Y-15261571D01*
X2809048Y-15261571D02*
X2818571Y-15299667D01*
X2818571Y-15299667D02*
X2818571Y-15347286D01*
X2818571Y-15347286D02*
X2809048Y-15385381D01*
X2809048Y-15385381D02*
X2799524Y-15404428D01*
X2799524Y-15404428D02*
X2790000Y-15413952D01*
X2790000Y-15413952D02*
X2770952Y-15423476D01*
X2770952Y-15423476D02*
X2751905Y-15423476D01*
X2751905Y-15423476D02*
X2732857Y-15413952D01*
X2732857Y-15413952D02*
X2723333Y-15404428D01*
X2723333Y-15404428D02*
X2713810Y-15385381D01*
X2713810Y-15385381D02*
X2704286Y-15347286D01*
X2704286Y-15347286D02*
X2704286Y-15299667D01*
X2704286Y-15299667D02*
X2713810Y-15261571D01*
X2713810Y-15261571D02*
X2723333Y-15242524D01*
X2723333Y-15242524D02*
X2732857Y-15233000D01*
X2732857Y-15233000D02*
X2751905Y-15223476D01*
X2942381Y-15223476D02*
X2961429Y-15223476D01*
X2961429Y-15223476D02*
X2980476Y-15233000D01*
X2980476Y-15233000D02*
X2990000Y-15242524D01*
X2990000Y-15242524D02*
X2999524Y-15261571D01*
X2999524Y-15261571D02*
X3009048Y-15299667D01*
X3009048Y-15299667D02*
X3009048Y-15347286D01*
X3009048Y-15347286D02*
X2999524Y-15385381D01*
X2999524Y-15385381D02*
X2990000Y-15404428D01*
X2990000Y-15404428D02*
X2980476Y-15413952D01*
X2980476Y-15413952D02*
X2961429Y-15423476D01*
X2961429Y-15423476D02*
X2942381Y-15423476D01*
X2942381Y-15423476D02*
X2923333Y-15413952D01*
X2923333Y-15413952D02*
X2913809Y-15404428D01*
X2913809Y-15404428D02*
X2904286Y-15385381D01*
X2904286Y-15385381D02*
X2894762Y-15347286D01*
X2894762Y-15347286D02*
X2894762Y-15299667D01*
X2894762Y-15299667D02*
X2904286Y-15261571D01*
X2904286Y-15261571D02*
X2913809Y-15242524D01*
X2913809Y-15242524D02*
X2923333Y-15233000D01*
X2923333Y-15233000D02*
X2942381Y-15223476D01*
X3094762Y-15423476D02*
X3094762Y-15290143D01*
X3094762Y-15309190D02*
X3104286Y-15299667D01*
X3104286Y-15299667D02*
X3123333Y-15290143D01*
X3123333Y-15290143D02*
X3151905Y-15290143D01*
X3151905Y-15290143D02*
X3170952Y-15299667D01*
X3170952Y-15299667D02*
X3180476Y-15318714D01*
X3180476Y-15318714D02*
X3180476Y-15423476D01*
X3180476Y-15318714D02*
X3190000Y-15299667D01*
X3190000Y-15299667D02*
X3209048Y-15290143D01*
X3209048Y-15290143D02*
X3237619Y-15290143D01*
X3237619Y-15290143D02*
X3256667Y-15299667D01*
X3256667Y-15299667D02*
X3266190Y-15318714D01*
X3266190Y-15318714D02*
X3266190Y-15423476D01*
X3361429Y-15423476D02*
X3361429Y-15290143D01*
X3361429Y-15309190D02*
X3370952Y-15299667D01*
X3370952Y-15299667D02*
X3390000Y-15290143D01*
X3390000Y-15290143D02*
X3418571Y-15290143D01*
X3418571Y-15290143D02*
X3437619Y-15299667D01*
X3437619Y-15299667D02*
X3447143Y-15318714D01*
X3447143Y-15318714D02*
X3447143Y-15423476D01*
X3447143Y-15318714D02*
X3456667Y-15299667D01*
X3456667Y-15299667D02*
X3475714Y-15290143D01*
X3475714Y-15290143D02*
X3504286Y-15290143D01*
X3504286Y-15290143D02*
X3523333Y-15299667D01*
X3523333Y-15299667D02*
X3532857Y-15318714D01*
X3532857Y-15318714D02*
X3532857Y-15423476D01*
X3890952Y-15213952D02*
X3719524Y-15471095D01*
X4115714Y-15223476D02*
X4134762Y-15223476D01*
X4134762Y-15223476D02*
X4153810Y-15233000D01*
X4153810Y-15233000D02*
X4163333Y-15242524D01*
X4163333Y-15242524D02*
X4172857Y-15261571D01*
X4172857Y-15261571D02*
X4182381Y-15299667D01*
X4182381Y-15299667D02*
X4182381Y-15347286D01*
X4182381Y-15347286D02*
X4172857Y-15385381D01*
X4172857Y-15385381D02*
X4163333Y-15404428D01*
X4163333Y-15404428D02*
X4153810Y-15413952D01*
X4153810Y-15413952D02*
X4134762Y-15423476D01*
X4134762Y-15423476D02*
X4115714Y-15423476D01*
X4115714Y-15423476D02*
X4096667Y-15413952D01*
X4096667Y-15413952D02*
X4087143Y-15404428D01*
X4087143Y-15404428D02*
X4077619Y-15385381D01*
X4077619Y-15385381D02*
X4068095Y-15347286D01*
X4068095Y-15347286D02*
X4068095Y-15299667D01*
X4068095Y-15299667D02*
X4077619Y-15261571D01*
X4077619Y-15261571D02*
X4087143Y-15242524D01*
X4087143Y-15242524D02*
X4096667Y-15233000D01*
X4096667Y-15233000D02*
X4115714Y-15223476D01*
X4268095Y-15404428D02*
X4277619Y-15413952D01*
X4277619Y-15413952D02*
X4268095Y-15423476D01*
X4268095Y-15423476D02*
X4258572Y-15413952D01*
X4258572Y-15413952D02*
X4268095Y-15404428D01*
X4268095Y-15404428D02*
X4268095Y-15423476D01*
X4401429Y-15223476D02*
X4420476Y-15223476D01*
X4420476Y-15223476D02*
X4439524Y-15233000D01*
X4439524Y-15233000D02*
X4449048Y-15242524D01*
X4449048Y-15242524D02*
X4458572Y-15261571D01*
X4458572Y-15261571D02*
X4468095Y-15299667D01*
X4468095Y-15299667D02*
X4468095Y-15347286D01*
X4468095Y-15347286D02*
X4458572Y-15385381D01*
X4458572Y-15385381D02*
X4449048Y-15404428D01*
X4449048Y-15404428D02*
X4439524Y-15413952D01*
X4439524Y-15413952D02*
X4420476Y-15423476D01*
X4420476Y-15423476D02*
X4401429Y-15423476D01*
X4401429Y-15423476D02*
X4382381Y-15413952D01*
X4382381Y-15413952D02*
X4372857Y-15404428D01*
X4372857Y-15404428D02*
X4363333Y-15385381D01*
X4363333Y-15385381D02*
X4353810Y-15347286D01*
X4353810Y-15347286D02*
X4353810Y-15299667D01*
X4353810Y-15299667D02*
X4363333Y-15261571D01*
X4363333Y-15261571D02*
X4372857Y-15242524D01*
X4372857Y-15242524D02*
X4382381Y-15233000D01*
X4382381Y-15233000D02*
X4401429Y-15223476D01*
X4658572Y-15423476D02*
X4544286Y-15423476D01*
X4601429Y-15423476D02*
X4601429Y-15223476D01*
X4601429Y-15223476D02*
X4582381Y-15252048D01*
X4582381Y-15252048D02*
X4563333Y-15271095D01*
X4563333Y-15271095D02*
X4544286Y-15280619D01*
X4839524Y-15223476D02*
X4744286Y-15223476D01*
X4744286Y-15223476D02*
X4734762Y-15318714D01*
X4734762Y-15318714D02*
X4744286Y-15309190D01*
X4744286Y-15309190D02*
X4763333Y-15299667D01*
X4763333Y-15299667D02*
X4810953Y-15299667D01*
X4810953Y-15299667D02*
X4830000Y-15309190D01*
X4830000Y-15309190D02*
X4839524Y-15318714D01*
X4839524Y-15318714D02*
X4849048Y-15337762D01*
X4849048Y-15337762D02*
X4849048Y-15385381D01*
X4849048Y-15385381D02*
X4839524Y-15404428D01*
X4839524Y-15404428D02*
X4830000Y-15413952D01*
X4830000Y-15413952D02*
X4810953Y-15423476D01*
X4810953Y-15423476D02*
X4763333Y-15423476D01*
X4763333Y-15423476D02*
X4744286Y-15413952D01*
X4744286Y-15413952D02*
X4734762Y-15404428D01*
X4915714Y-15223476D02*
X5049048Y-15223476D01*
X5049048Y-15223476D02*
X4963333Y-15423476D01*
X5115714Y-15223476D02*
X5115714Y-15261571D01*
X5191905Y-15223476D02*
X5191905Y-15261571D01*
X5454762Y-15499667D02*
X5445238Y-15490143D01*
X5445238Y-15490143D02*
X5426191Y-15461571D01*
X5426191Y-15461571D02*
X5416667Y-15442524D01*
X5416667Y-15442524D02*
X5407143Y-15413952D01*
X5407143Y-15413952D02*
X5397619Y-15366333D01*
X5397619Y-15366333D02*
X5397619Y-15328238D01*
X5397619Y-15328238D02*
X5407143Y-15280619D01*
X5407143Y-15280619D02*
X5416667Y-15252048D01*
X5416667Y-15252048D02*
X5426191Y-15233000D01*
X5426191Y-15233000D02*
X5445238Y-15204428D01*
X5445238Y-15204428D02*
X5454762Y-15194905D01*
X5540476Y-15423476D02*
X5578572Y-15423476D01*
X5578572Y-15423476D02*
X5597619Y-15413952D01*
X5597619Y-15413952D02*
X5607143Y-15404428D01*
X5607143Y-15404428D02*
X5626191Y-15375857D01*
X5626191Y-15375857D02*
X5635714Y-15337762D01*
X5635714Y-15337762D02*
X5635714Y-15261571D01*
X5635714Y-15261571D02*
X5626191Y-15242524D01*
X5626191Y-15242524D02*
X5616667Y-15233000D01*
X5616667Y-15233000D02*
X5597619Y-15223476D01*
X5597619Y-15223476D02*
X5559524Y-15223476D01*
X5559524Y-15223476D02*
X5540476Y-15233000D01*
X5540476Y-15233000D02*
X5530953Y-15242524D01*
X5530953Y-15242524D02*
X5521429Y-15261571D01*
X5521429Y-15261571D02*
X5521429Y-15309190D01*
X5521429Y-15309190D02*
X5530953Y-15328238D01*
X5530953Y-15328238D02*
X5540476Y-15337762D01*
X5540476Y-15337762D02*
X5559524Y-15347286D01*
X5559524Y-15347286D02*
X5597619Y-15347286D01*
X5597619Y-15347286D02*
X5616667Y-15337762D01*
X5616667Y-15337762D02*
X5626191Y-15328238D01*
X5626191Y-15328238D02*
X5635714Y-15309190D01*
X5711905Y-15242524D02*
X5721429Y-15233000D01*
X5721429Y-15233000D02*
X5740476Y-15223476D01*
X5740476Y-15223476D02*
X5788095Y-15223476D01*
X5788095Y-15223476D02*
X5807143Y-15233000D01*
X5807143Y-15233000D02*
X5816667Y-15242524D01*
X5816667Y-15242524D02*
X5826191Y-15261571D01*
X5826191Y-15261571D02*
X5826191Y-15280619D01*
X5826191Y-15280619D02*
X5816667Y-15309190D01*
X5816667Y-15309190D02*
X5702381Y-15423476D01*
X5702381Y-15423476D02*
X5826191Y-15423476D01*
X6031905Y-15423476D02*
X6031905Y-15223476D01*
X6117619Y-15423476D02*
X6117619Y-15318714D01*
X6117619Y-15318714D02*
X6108095Y-15299667D01*
X6108095Y-15299667D02*
X6089048Y-15290143D01*
X6089048Y-15290143D02*
X6060476Y-15290143D01*
X6060476Y-15290143D02*
X6041429Y-15299667D01*
X6041429Y-15299667D02*
X6031905Y-15309190D01*
X6241429Y-15423476D02*
X6222381Y-15413952D01*
X6222381Y-15413952D02*
X6212857Y-15404428D01*
X6212857Y-15404428D02*
X6203333Y-15385381D01*
X6203333Y-15385381D02*
X6203333Y-15328238D01*
X6203333Y-15328238D02*
X6212857Y-15309190D01*
X6212857Y-15309190D02*
X6222381Y-15299667D01*
X6222381Y-15299667D02*
X6241429Y-15290143D01*
X6241429Y-15290143D02*
X6270000Y-15290143D01*
X6270000Y-15290143D02*
X6289048Y-15299667D01*
X6289048Y-15299667D02*
X6298572Y-15309190D01*
X6298572Y-15309190D02*
X6308095Y-15328238D01*
X6308095Y-15328238D02*
X6308095Y-15385381D01*
X6308095Y-15385381D02*
X6298572Y-15404428D01*
X6298572Y-15404428D02*
X6289048Y-15413952D01*
X6289048Y-15413952D02*
X6270000Y-15423476D01*
X6270000Y-15423476D02*
X6241429Y-15423476D01*
X6422381Y-15423476D02*
X6403333Y-15413952D01*
X6403333Y-15413952D02*
X6393810Y-15394905D01*
X6393810Y-15394905D02*
X6393810Y-15223476D01*
X6574762Y-15413952D02*
X6555714Y-15423476D01*
X6555714Y-15423476D02*
X6517619Y-15423476D01*
X6517619Y-15423476D02*
X6498572Y-15413952D01*
X6498572Y-15413952D02*
X6489048Y-15394905D01*
X6489048Y-15394905D02*
X6489048Y-15318714D01*
X6489048Y-15318714D02*
X6498572Y-15299667D01*
X6498572Y-15299667D02*
X6517619Y-15290143D01*
X6517619Y-15290143D02*
X6555714Y-15290143D01*
X6555714Y-15290143D02*
X6574762Y-15299667D01*
X6574762Y-15299667D02*
X6584286Y-15318714D01*
X6584286Y-15318714D02*
X6584286Y-15337762D01*
X6584286Y-15337762D02*
X6489048Y-15356809D01*
X6660476Y-15413952D02*
X6679524Y-15423476D01*
X6679524Y-15423476D02*
X6717619Y-15423476D01*
X6717619Y-15423476D02*
X6736667Y-15413952D01*
X6736667Y-15413952D02*
X6746191Y-15394905D01*
X6746191Y-15394905D02*
X6746191Y-15385381D01*
X6746191Y-15385381D02*
X6736667Y-15366333D01*
X6736667Y-15366333D02*
X6717619Y-15356809D01*
X6717619Y-15356809D02*
X6689048Y-15356809D01*
X6689048Y-15356809D02*
X6670000Y-15347286D01*
X6670000Y-15347286D02*
X6660476Y-15328238D01*
X6660476Y-15328238D02*
X6660476Y-15318714D01*
X6660476Y-15318714D02*
X6670000Y-15299667D01*
X6670000Y-15299667D02*
X6689048Y-15290143D01*
X6689048Y-15290143D02*
X6717619Y-15290143D01*
X6717619Y-15290143D02*
X6736667Y-15299667D01*
X6812857Y-15499667D02*
X6822381Y-15490143D01*
X6822381Y-15490143D02*
X6841429Y-15461571D01*
X6841429Y-15461571D02*
X6850953Y-15442524D01*
X6850953Y-15442524D02*
X6860476Y-15413952D01*
X6860476Y-15413952D02*
X6870000Y-15366333D01*
X6870000Y-15366333D02*
X6870000Y-15328238D01*
X6870000Y-15328238D02*
X6860476Y-15280619D01*
X6860476Y-15280619D02*
X6850953Y-15252048D01*
X6850953Y-15252048D02*
X6841429Y-15233000D01*
X6841429Y-15233000D02*
X6822381Y-15204428D01*
X6822381Y-15204428D02*
X6812857Y-15194905D01*
D12*
X1990000Y-15614000D02*
G75*
G03*
X1990000Y-15614000I-25000J0D01*
G01*
D10*
X2275714Y-15487476D02*
X2294762Y-15487476D01*
X2294762Y-15487476D02*
X2313810Y-15497000D01*
X2313810Y-15497000D02*
X2323333Y-15506524D01*
X2323333Y-15506524D02*
X2332857Y-15525571D01*
X2332857Y-15525571D02*
X2342381Y-15563667D01*
X2342381Y-15563667D02*
X2342381Y-15611286D01*
X2342381Y-15611286D02*
X2332857Y-15649381D01*
X2332857Y-15649381D02*
X2323333Y-15668428D01*
X2323333Y-15668428D02*
X2313810Y-15677952D01*
X2313810Y-15677952D02*
X2294762Y-15687476D01*
X2294762Y-15687476D02*
X2275714Y-15687476D01*
X2275714Y-15687476D02*
X2256667Y-15677952D01*
X2256667Y-15677952D02*
X2247143Y-15668428D01*
X2247143Y-15668428D02*
X2237619Y-15649381D01*
X2237619Y-15649381D02*
X2228095Y-15611286D01*
X2228095Y-15611286D02*
X2228095Y-15563667D01*
X2228095Y-15563667D02*
X2237619Y-15525571D01*
X2237619Y-15525571D02*
X2247143Y-15506524D01*
X2247143Y-15506524D02*
X2256667Y-15497000D01*
X2256667Y-15497000D02*
X2275714Y-15487476D01*
X2428095Y-15668428D02*
X2437619Y-15677952D01*
X2437619Y-15677952D02*
X2428095Y-15687476D01*
X2428095Y-15687476D02*
X2418571Y-15677952D01*
X2418571Y-15677952D02*
X2428095Y-15668428D01*
X2428095Y-15668428D02*
X2428095Y-15687476D01*
X2618571Y-15487476D02*
X2523333Y-15487476D01*
X2523333Y-15487476D02*
X2513810Y-15582714D01*
X2513810Y-15582714D02*
X2523333Y-15573190D01*
X2523333Y-15573190D02*
X2542381Y-15563667D01*
X2542381Y-15563667D02*
X2590000Y-15563667D01*
X2590000Y-15563667D02*
X2609048Y-15573190D01*
X2609048Y-15573190D02*
X2618571Y-15582714D01*
X2618571Y-15582714D02*
X2628095Y-15601762D01*
X2628095Y-15601762D02*
X2628095Y-15649381D01*
X2628095Y-15649381D02*
X2618571Y-15668428D01*
X2618571Y-15668428D02*
X2609048Y-15677952D01*
X2609048Y-15677952D02*
X2590000Y-15687476D01*
X2590000Y-15687476D02*
X2542381Y-15687476D01*
X2542381Y-15687476D02*
X2523333Y-15677952D01*
X2523333Y-15677952D02*
X2513810Y-15668428D01*
X2751905Y-15487476D02*
X2770952Y-15487476D01*
X2770952Y-15487476D02*
X2790000Y-15497000D01*
X2790000Y-15497000D02*
X2799524Y-15506524D01*
X2799524Y-15506524D02*
X2809048Y-15525571D01*
X2809048Y-15525571D02*
X2818571Y-15563667D01*
X2818571Y-15563667D02*
X2818571Y-15611286D01*
X2818571Y-15611286D02*
X2809048Y-15649381D01*
X2809048Y-15649381D02*
X2799524Y-15668428D01*
X2799524Y-15668428D02*
X2790000Y-15677952D01*
X2790000Y-15677952D02*
X2770952Y-15687476D01*
X2770952Y-15687476D02*
X2751905Y-15687476D01*
X2751905Y-15687476D02*
X2732857Y-15677952D01*
X2732857Y-15677952D02*
X2723333Y-15668428D01*
X2723333Y-15668428D02*
X2713810Y-15649381D01*
X2713810Y-15649381D02*
X2704286Y-15611286D01*
X2704286Y-15611286D02*
X2704286Y-15563667D01*
X2704286Y-15563667D02*
X2713810Y-15525571D01*
X2713810Y-15525571D02*
X2723333Y-15506524D01*
X2723333Y-15506524D02*
X2732857Y-15497000D01*
X2732857Y-15497000D02*
X2751905Y-15487476D01*
X2942381Y-15487476D02*
X2961429Y-15487476D01*
X2961429Y-15487476D02*
X2980476Y-15497000D01*
X2980476Y-15497000D02*
X2990000Y-15506524D01*
X2990000Y-15506524D02*
X2999524Y-15525571D01*
X2999524Y-15525571D02*
X3009048Y-15563667D01*
X3009048Y-15563667D02*
X3009048Y-15611286D01*
X3009048Y-15611286D02*
X2999524Y-15649381D01*
X2999524Y-15649381D02*
X2990000Y-15668428D01*
X2990000Y-15668428D02*
X2980476Y-15677952D01*
X2980476Y-15677952D02*
X2961429Y-15687476D01*
X2961429Y-15687476D02*
X2942381Y-15687476D01*
X2942381Y-15687476D02*
X2923333Y-15677952D01*
X2923333Y-15677952D02*
X2913809Y-15668428D01*
X2913809Y-15668428D02*
X2904286Y-15649381D01*
X2904286Y-15649381D02*
X2894762Y-15611286D01*
X2894762Y-15611286D02*
X2894762Y-15563667D01*
X2894762Y-15563667D02*
X2904286Y-15525571D01*
X2904286Y-15525571D02*
X2913809Y-15506524D01*
X2913809Y-15506524D02*
X2923333Y-15497000D01*
X2923333Y-15497000D02*
X2942381Y-15487476D01*
X3094762Y-15687476D02*
X3094762Y-15554143D01*
X3094762Y-15573190D02*
X3104286Y-15563667D01*
X3104286Y-15563667D02*
X3123333Y-15554143D01*
X3123333Y-15554143D02*
X3151905Y-15554143D01*
X3151905Y-15554143D02*
X3170952Y-15563667D01*
X3170952Y-15563667D02*
X3180476Y-15582714D01*
X3180476Y-15582714D02*
X3180476Y-15687476D01*
X3180476Y-15582714D02*
X3190000Y-15563667D01*
X3190000Y-15563667D02*
X3209048Y-15554143D01*
X3209048Y-15554143D02*
X3237619Y-15554143D01*
X3237619Y-15554143D02*
X3256667Y-15563667D01*
X3256667Y-15563667D02*
X3266190Y-15582714D01*
X3266190Y-15582714D02*
X3266190Y-15687476D01*
X3361429Y-15687476D02*
X3361429Y-15554143D01*
X3361429Y-15573190D02*
X3370952Y-15563667D01*
X3370952Y-15563667D02*
X3390000Y-15554143D01*
X3390000Y-15554143D02*
X3418571Y-15554143D01*
X3418571Y-15554143D02*
X3437619Y-15563667D01*
X3437619Y-15563667D02*
X3447143Y-15582714D01*
X3447143Y-15582714D02*
X3447143Y-15687476D01*
X3447143Y-15582714D02*
X3456667Y-15563667D01*
X3456667Y-15563667D02*
X3475714Y-15554143D01*
X3475714Y-15554143D02*
X3504286Y-15554143D01*
X3504286Y-15554143D02*
X3523333Y-15563667D01*
X3523333Y-15563667D02*
X3532857Y-15582714D01*
X3532857Y-15582714D02*
X3532857Y-15687476D01*
X3890952Y-15477952D02*
X3719524Y-15735095D01*
X4115714Y-15487476D02*
X4134762Y-15487476D01*
X4134762Y-15487476D02*
X4153810Y-15497000D01*
X4153810Y-15497000D02*
X4163333Y-15506524D01*
X4163333Y-15506524D02*
X4172857Y-15525571D01*
X4172857Y-15525571D02*
X4182381Y-15563667D01*
X4182381Y-15563667D02*
X4182381Y-15611286D01*
X4182381Y-15611286D02*
X4172857Y-15649381D01*
X4172857Y-15649381D02*
X4163333Y-15668428D01*
X4163333Y-15668428D02*
X4153810Y-15677952D01*
X4153810Y-15677952D02*
X4134762Y-15687476D01*
X4134762Y-15687476D02*
X4115714Y-15687476D01*
X4115714Y-15687476D02*
X4096667Y-15677952D01*
X4096667Y-15677952D02*
X4087143Y-15668428D01*
X4087143Y-15668428D02*
X4077619Y-15649381D01*
X4077619Y-15649381D02*
X4068095Y-15611286D01*
X4068095Y-15611286D02*
X4068095Y-15563667D01*
X4068095Y-15563667D02*
X4077619Y-15525571D01*
X4077619Y-15525571D02*
X4087143Y-15506524D01*
X4087143Y-15506524D02*
X4096667Y-15497000D01*
X4096667Y-15497000D02*
X4115714Y-15487476D01*
X4268095Y-15668428D02*
X4277619Y-15677952D01*
X4277619Y-15677952D02*
X4268095Y-15687476D01*
X4268095Y-15687476D02*
X4258572Y-15677952D01*
X4258572Y-15677952D02*
X4268095Y-15668428D01*
X4268095Y-15668428D02*
X4268095Y-15687476D01*
X4401429Y-15487476D02*
X4420476Y-15487476D01*
X4420476Y-15487476D02*
X4439524Y-15497000D01*
X4439524Y-15497000D02*
X4449048Y-15506524D01*
X4449048Y-15506524D02*
X4458572Y-15525571D01*
X4458572Y-15525571D02*
X4468095Y-15563667D01*
X4468095Y-15563667D02*
X4468095Y-15611286D01*
X4468095Y-15611286D02*
X4458572Y-15649381D01*
X4458572Y-15649381D02*
X4449048Y-15668428D01*
X4449048Y-15668428D02*
X4439524Y-15677952D01*
X4439524Y-15677952D02*
X4420476Y-15687476D01*
X4420476Y-15687476D02*
X4401429Y-15687476D01*
X4401429Y-15687476D02*
X4382381Y-15677952D01*
X4382381Y-15677952D02*
X4372857Y-15668428D01*
X4372857Y-15668428D02*
X4363333Y-15649381D01*
X4363333Y-15649381D02*
X4353810Y-15611286D01*
X4353810Y-15611286D02*
X4353810Y-15563667D01*
X4353810Y-15563667D02*
X4363333Y-15525571D01*
X4363333Y-15525571D02*
X4372857Y-15506524D01*
X4372857Y-15506524D02*
X4382381Y-15497000D01*
X4382381Y-15497000D02*
X4401429Y-15487476D01*
X4658572Y-15687476D02*
X4544286Y-15687476D01*
X4601429Y-15687476D02*
X4601429Y-15487476D01*
X4601429Y-15487476D02*
X4582381Y-15516048D01*
X4582381Y-15516048D02*
X4563333Y-15535095D01*
X4563333Y-15535095D02*
X4544286Y-15544619D01*
X4753810Y-15687476D02*
X4791905Y-15687476D01*
X4791905Y-15687476D02*
X4810953Y-15677952D01*
X4810953Y-15677952D02*
X4820476Y-15668428D01*
X4820476Y-15668428D02*
X4839524Y-15639857D01*
X4839524Y-15639857D02*
X4849048Y-15601762D01*
X4849048Y-15601762D02*
X4849048Y-15525571D01*
X4849048Y-15525571D02*
X4839524Y-15506524D01*
X4839524Y-15506524D02*
X4830000Y-15497000D01*
X4830000Y-15497000D02*
X4810953Y-15487476D01*
X4810953Y-15487476D02*
X4772857Y-15487476D01*
X4772857Y-15487476D02*
X4753810Y-15497000D01*
X4753810Y-15497000D02*
X4744286Y-15506524D01*
X4744286Y-15506524D02*
X4734762Y-15525571D01*
X4734762Y-15525571D02*
X4734762Y-15573190D01*
X4734762Y-15573190D02*
X4744286Y-15592238D01*
X4744286Y-15592238D02*
X4753810Y-15601762D01*
X4753810Y-15601762D02*
X4772857Y-15611286D01*
X4772857Y-15611286D02*
X4810953Y-15611286D01*
X4810953Y-15611286D02*
X4830000Y-15601762D01*
X4830000Y-15601762D02*
X4839524Y-15592238D01*
X4839524Y-15592238D02*
X4849048Y-15573190D01*
X4915714Y-15487476D02*
X5049048Y-15487476D01*
X5049048Y-15487476D02*
X4963333Y-15687476D01*
X5115714Y-15487476D02*
X5115714Y-15525571D01*
X5191905Y-15487476D02*
X5191905Y-15525571D01*
X5454762Y-15763667D02*
X5445238Y-15754143D01*
X5445238Y-15754143D02*
X5426191Y-15725571D01*
X5426191Y-15725571D02*
X5416667Y-15706524D01*
X5416667Y-15706524D02*
X5407143Y-15677952D01*
X5407143Y-15677952D02*
X5397619Y-15630333D01*
X5397619Y-15630333D02*
X5397619Y-15592238D01*
X5397619Y-15592238D02*
X5407143Y-15544619D01*
X5407143Y-15544619D02*
X5416667Y-15516048D01*
X5416667Y-15516048D02*
X5426191Y-15497000D01*
X5426191Y-15497000D02*
X5445238Y-15468428D01*
X5445238Y-15468428D02*
X5454762Y-15458905D01*
X5511905Y-15487476D02*
X5635714Y-15487476D01*
X5635714Y-15487476D02*
X5569048Y-15563667D01*
X5569048Y-15563667D02*
X5597619Y-15563667D01*
X5597619Y-15563667D02*
X5616667Y-15573190D01*
X5616667Y-15573190D02*
X5626191Y-15582714D01*
X5626191Y-15582714D02*
X5635714Y-15601762D01*
X5635714Y-15601762D02*
X5635714Y-15649381D01*
X5635714Y-15649381D02*
X5626191Y-15668428D01*
X5626191Y-15668428D02*
X5616667Y-15677952D01*
X5616667Y-15677952D02*
X5597619Y-15687476D01*
X5597619Y-15687476D02*
X5540476Y-15687476D01*
X5540476Y-15687476D02*
X5521429Y-15677952D01*
X5521429Y-15677952D02*
X5511905Y-15668428D01*
X5711905Y-15506524D02*
X5721429Y-15497000D01*
X5721429Y-15497000D02*
X5740476Y-15487476D01*
X5740476Y-15487476D02*
X5788095Y-15487476D01*
X5788095Y-15487476D02*
X5807143Y-15497000D01*
X5807143Y-15497000D02*
X5816667Y-15506524D01*
X5816667Y-15506524D02*
X5826191Y-15525571D01*
X5826191Y-15525571D02*
X5826191Y-15544619D01*
X5826191Y-15544619D02*
X5816667Y-15573190D01*
X5816667Y-15573190D02*
X5702381Y-15687476D01*
X5702381Y-15687476D02*
X5826191Y-15687476D01*
X6031905Y-15687476D02*
X6031905Y-15487476D01*
X6117619Y-15687476D02*
X6117619Y-15582714D01*
X6117619Y-15582714D02*
X6108095Y-15563667D01*
X6108095Y-15563667D02*
X6089048Y-15554143D01*
X6089048Y-15554143D02*
X6060476Y-15554143D01*
X6060476Y-15554143D02*
X6041429Y-15563667D01*
X6041429Y-15563667D02*
X6031905Y-15573190D01*
X6241429Y-15687476D02*
X6222381Y-15677952D01*
X6222381Y-15677952D02*
X6212857Y-15668428D01*
X6212857Y-15668428D02*
X6203333Y-15649381D01*
X6203333Y-15649381D02*
X6203333Y-15592238D01*
X6203333Y-15592238D02*
X6212857Y-15573190D01*
X6212857Y-15573190D02*
X6222381Y-15563667D01*
X6222381Y-15563667D02*
X6241429Y-15554143D01*
X6241429Y-15554143D02*
X6270000Y-15554143D01*
X6270000Y-15554143D02*
X6289048Y-15563667D01*
X6289048Y-15563667D02*
X6298572Y-15573190D01*
X6298572Y-15573190D02*
X6308095Y-15592238D01*
X6308095Y-15592238D02*
X6308095Y-15649381D01*
X6308095Y-15649381D02*
X6298572Y-15668428D01*
X6298572Y-15668428D02*
X6289048Y-15677952D01*
X6289048Y-15677952D02*
X6270000Y-15687476D01*
X6270000Y-15687476D02*
X6241429Y-15687476D01*
X6422381Y-15687476D02*
X6403333Y-15677952D01*
X6403333Y-15677952D02*
X6393810Y-15658905D01*
X6393810Y-15658905D02*
X6393810Y-15487476D01*
X6574762Y-15677952D02*
X6555714Y-15687476D01*
X6555714Y-15687476D02*
X6517619Y-15687476D01*
X6517619Y-15687476D02*
X6498572Y-15677952D01*
X6498572Y-15677952D02*
X6489048Y-15658905D01*
X6489048Y-15658905D02*
X6489048Y-15582714D01*
X6489048Y-15582714D02*
X6498572Y-15563667D01*
X6498572Y-15563667D02*
X6517619Y-15554143D01*
X6517619Y-15554143D02*
X6555714Y-15554143D01*
X6555714Y-15554143D02*
X6574762Y-15563667D01*
X6574762Y-15563667D02*
X6584286Y-15582714D01*
X6584286Y-15582714D02*
X6584286Y-15601762D01*
X6584286Y-15601762D02*
X6489048Y-15620809D01*
X6660476Y-15677952D02*
X6679524Y-15687476D01*
X6679524Y-15687476D02*
X6717619Y-15687476D01*
X6717619Y-15687476D02*
X6736667Y-15677952D01*
X6736667Y-15677952D02*
X6746191Y-15658905D01*
X6746191Y-15658905D02*
X6746191Y-15649381D01*
X6746191Y-15649381D02*
X6736667Y-15630333D01*
X6736667Y-15630333D02*
X6717619Y-15620809D01*
X6717619Y-15620809D02*
X6689048Y-15620809D01*
X6689048Y-15620809D02*
X6670000Y-15611286D01*
X6670000Y-15611286D02*
X6660476Y-15592238D01*
X6660476Y-15592238D02*
X6660476Y-15582714D01*
X6660476Y-15582714D02*
X6670000Y-15563667D01*
X6670000Y-15563667D02*
X6689048Y-15554143D01*
X6689048Y-15554143D02*
X6717619Y-15554143D01*
X6717619Y-15554143D02*
X6736667Y-15563667D01*
X6812857Y-15763667D02*
X6822381Y-15754143D01*
X6822381Y-15754143D02*
X6841429Y-15725571D01*
X6841429Y-15725571D02*
X6850953Y-15706524D01*
X6850953Y-15706524D02*
X6860476Y-15677952D01*
X6860476Y-15677952D02*
X6870000Y-15630333D01*
X6870000Y-15630333D02*
X6870000Y-15592238D01*
X6870000Y-15592238D02*
X6860476Y-15544619D01*
X6860476Y-15544619D02*
X6850953Y-15516048D01*
X6850953Y-15516048D02*
X6841429Y-15497000D01*
X6841429Y-15497000D02*
X6822381Y-15468428D01*
X6822381Y-15468428D02*
X6812857Y-15458905D01*
D13*
X1952500Y-15840500D02*
X1952500Y-15915500D01*
X1915000Y-15878000D02*
X1990000Y-15878000D01*
D10*
X2275714Y-15751476D02*
X2294762Y-15751476D01*
X2294762Y-15751476D02*
X2313810Y-15761000D01*
X2313810Y-15761000D02*
X2323333Y-15770524D01*
X2323333Y-15770524D02*
X2332857Y-15789571D01*
X2332857Y-15789571D02*
X2342381Y-15827667D01*
X2342381Y-15827667D02*
X2342381Y-15875286D01*
X2342381Y-15875286D02*
X2332857Y-15913381D01*
X2332857Y-15913381D02*
X2323333Y-15932428D01*
X2323333Y-15932428D02*
X2313810Y-15941952D01*
X2313810Y-15941952D02*
X2294762Y-15951476D01*
X2294762Y-15951476D02*
X2275714Y-15951476D01*
X2275714Y-15951476D02*
X2256667Y-15941952D01*
X2256667Y-15941952D02*
X2247143Y-15932428D01*
X2247143Y-15932428D02*
X2237619Y-15913381D01*
X2237619Y-15913381D02*
X2228095Y-15875286D01*
X2228095Y-15875286D02*
X2228095Y-15827667D01*
X2228095Y-15827667D02*
X2237619Y-15789571D01*
X2237619Y-15789571D02*
X2247143Y-15770524D01*
X2247143Y-15770524D02*
X2256667Y-15761000D01*
X2256667Y-15761000D02*
X2275714Y-15751476D01*
X2428095Y-15932428D02*
X2437619Y-15941952D01*
X2437619Y-15941952D02*
X2428095Y-15951476D01*
X2428095Y-15951476D02*
X2418571Y-15941952D01*
X2418571Y-15941952D02*
X2428095Y-15932428D01*
X2428095Y-15932428D02*
X2428095Y-15951476D01*
X2504286Y-15751476D02*
X2637619Y-15751476D01*
X2637619Y-15751476D02*
X2551905Y-15951476D01*
X2809048Y-15751476D02*
X2713810Y-15751476D01*
X2713810Y-15751476D02*
X2704286Y-15846714D01*
X2704286Y-15846714D02*
X2713810Y-15837190D01*
X2713810Y-15837190D02*
X2732857Y-15827667D01*
X2732857Y-15827667D02*
X2780476Y-15827667D01*
X2780476Y-15827667D02*
X2799524Y-15837190D01*
X2799524Y-15837190D02*
X2809048Y-15846714D01*
X2809048Y-15846714D02*
X2818571Y-15865762D01*
X2818571Y-15865762D02*
X2818571Y-15913381D01*
X2818571Y-15913381D02*
X2809048Y-15932428D01*
X2809048Y-15932428D02*
X2799524Y-15941952D01*
X2799524Y-15941952D02*
X2780476Y-15951476D01*
X2780476Y-15951476D02*
X2732857Y-15951476D01*
X2732857Y-15951476D02*
X2713810Y-15941952D01*
X2713810Y-15941952D02*
X2704286Y-15932428D01*
X2942381Y-15751476D02*
X2961429Y-15751476D01*
X2961429Y-15751476D02*
X2980476Y-15761000D01*
X2980476Y-15761000D02*
X2990000Y-15770524D01*
X2990000Y-15770524D02*
X2999524Y-15789571D01*
X2999524Y-15789571D02*
X3009048Y-15827667D01*
X3009048Y-15827667D02*
X3009048Y-15875286D01*
X3009048Y-15875286D02*
X2999524Y-15913381D01*
X2999524Y-15913381D02*
X2990000Y-15932428D01*
X2990000Y-15932428D02*
X2980476Y-15941952D01*
X2980476Y-15941952D02*
X2961429Y-15951476D01*
X2961429Y-15951476D02*
X2942381Y-15951476D01*
X2942381Y-15951476D02*
X2923333Y-15941952D01*
X2923333Y-15941952D02*
X2913809Y-15932428D01*
X2913809Y-15932428D02*
X2904286Y-15913381D01*
X2904286Y-15913381D02*
X2894762Y-15875286D01*
X2894762Y-15875286D02*
X2894762Y-15827667D01*
X2894762Y-15827667D02*
X2904286Y-15789571D01*
X2904286Y-15789571D02*
X2913809Y-15770524D01*
X2913809Y-15770524D02*
X2923333Y-15761000D01*
X2923333Y-15761000D02*
X2942381Y-15751476D01*
X3094762Y-15951476D02*
X3094762Y-15818143D01*
X3094762Y-15837190D02*
X3104286Y-15827667D01*
X3104286Y-15827667D02*
X3123333Y-15818143D01*
X3123333Y-15818143D02*
X3151905Y-15818143D01*
X3151905Y-15818143D02*
X3170952Y-15827667D01*
X3170952Y-15827667D02*
X3180476Y-15846714D01*
X3180476Y-15846714D02*
X3180476Y-15951476D01*
X3180476Y-15846714D02*
X3190000Y-15827667D01*
X3190000Y-15827667D02*
X3209048Y-15818143D01*
X3209048Y-15818143D02*
X3237619Y-15818143D01*
X3237619Y-15818143D02*
X3256667Y-15827667D01*
X3256667Y-15827667D02*
X3266190Y-15846714D01*
X3266190Y-15846714D02*
X3266190Y-15951476D01*
X3361429Y-15951476D02*
X3361429Y-15818143D01*
X3361429Y-15837190D02*
X3370952Y-15827667D01*
X3370952Y-15827667D02*
X3390000Y-15818143D01*
X3390000Y-15818143D02*
X3418571Y-15818143D01*
X3418571Y-15818143D02*
X3437619Y-15827667D01*
X3437619Y-15827667D02*
X3447143Y-15846714D01*
X3447143Y-15846714D02*
X3447143Y-15951476D01*
X3447143Y-15846714D02*
X3456667Y-15827667D01*
X3456667Y-15827667D02*
X3475714Y-15818143D01*
X3475714Y-15818143D02*
X3504286Y-15818143D01*
X3504286Y-15818143D02*
X3523333Y-15827667D01*
X3523333Y-15827667D02*
X3532857Y-15846714D01*
X3532857Y-15846714D02*
X3532857Y-15951476D01*
X3890952Y-15741952D02*
X3719524Y-15999095D01*
X4115714Y-15751476D02*
X4134762Y-15751476D01*
X4134762Y-15751476D02*
X4153810Y-15761000D01*
X4153810Y-15761000D02*
X4163333Y-15770524D01*
X4163333Y-15770524D02*
X4172857Y-15789571D01*
X4172857Y-15789571D02*
X4182381Y-15827667D01*
X4182381Y-15827667D02*
X4182381Y-15875286D01*
X4182381Y-15875286D02*
X4172857Y-15913381D01*
X4172857Y-15913381D02*
X4163333Y-15932428D01*
X4163333Y-15932428D02*
X4153810Y-15941952D01*
X4153810Y-15941952D02*
X4134762Y-15951476D01*
X4134762Y-15951476D02*
X4115714Y-15951476D01*
X4115714Y-15951476D02*
X4096667Y-15941952D01*
X4096667Y-15941952D02*
X4087143Y-15932428D01*
X4087143Y-15932428D02*
X4077619Y-15913381D01*
X4077619Y-15913381D02*
X4068095Y-15875286D01*
X4068095Y-15875286D02*
X4068095Y-15827667D01*
X4068095Y-15827667D02*
X4077619Y-15789571D01*
X4077619Y-15789571D02*
X4087143Y-15770524D01*
X4087143Y-15770524D02*
X4096667Y-15761000D01*
X4096667Y-15761000D02*
X4115714Y-15751476D01*
X4268095Y-15932428D02*
X4277619Y-15941952D01*
X4277619Y-15941952D02*
X4268095Y-15951476D01*
X4268095Y-15951476D02*
X4258572Y-15941952D01*
X4258572Y-15941952D02*
X4268095Y-15932428D01*
X4268095Y-15932428D02*
X4268095Y-15951476D01*
X4401429Y-15751476D02*
X4420476Y-15751476D01*
X4420476Y-15751476D02*
X4439524Y-15761000D01*
X4439524Y-15761000D02*
X4449048Y-15770524D01*
X4449048Y-15770524D02*
X4458572Y-15789571D01*
X4458572Y-15789571D02*
X4468095Y-15827667D01*
X4468095Y-15827667D02*
X4468095Y-15875286D01*
X4468095Y-15875286D02*
X4458572Y-15913381D01*
X4458572Y-15913381D02*
X4449048Y-15932428D01*
X4449048Y-15932428D02*
X4439524Y-15941952D01*
X4439524Y-15941952D02*
X4420476Y-15951476D01*
X4420476Y-15951476D02*
X4401429Y-15951476D01*
X4401429Y-15951476D02*
X4382381Y-15941952D01*
X4382381Y-15941952D02*
X4372857Y-15932428D01*
X4372857Y-15932428D02*
X4363333Y-15913381D01*
X4363333Y-15913381D02*
X4353810Y-15875286D01*
X4353810Y-15875286D02*
X4353810Y-15827667D01*
X4353810Y-15827667D02*
X4363333Y-15789571D01*
X4363333Y-15789571D02*
X4372857Y-15770524D01*
X4372857Y-15770524D02*
X4382381Y-15761000D01*
X4382381Y-15761000D02*
X4401429Y-15751476D01*
X4544286Y-15770524D02*
X4553810Y-15761000D01*
X4553810Y-15761000D02*
X4572857Y-15751476D01*
X4572857Y-15751476D02*
X4620476Y-15751476D01*
X4620476Y-15751476D02*
X4639524Y-15761000D01*
X4639524Y-15761000D02*
X4649048Y-15770524D01*
X4649048Y-15770524D02*
X4658572Y-15789571D01*
X4658572Y-15789571D02*
X4658572Y-15808619D01*
X4658572Y-15808619D02*
X4649048Y-15837190D01*
X4649048Y-15837190D02*
X4534762Y-15951476D01*
X4534762Y-15951476D02*
X4658572Y-15951476D01*
X4753810Y-15951476D02*
X4791905Y-15951476D01*
X4791905Y-15951476D02*
X4810953Y-15941952D01*
X4810953Y-15941952D02*
X4820476Y-15932428D01*
X4820476Y-15932428D02*
X4839524Y-15903857D01*
X4839524Y-15903857D02*
X4849048Y-15865762D01*
X4849048Y-15865762D02*
X4849048Y-15789571D01*
X4849048Y-15789571D02*
X4839524Y-15770524D01*
X4839524Y-15770524D02*
X4830000Y-15761000D01*
X4830000Y-15761000D02*
X4810953Y-15751476D01*
X4810953Y-15751476D02*
X4772857Y-15751476D01*
X4772857Y-15751476D02*
X4753810Y-15761000D01*
X4753810Y-15761000D02*
X4744286Y-15770524D01*
X4744286Y-15770524D02*
X4734762Y-15789571D01*
X4734762Y-15789571D02*
X4734762Y-15837190D01*
X4734762Y-15837190D02*
X4744286Y-15856238D01*
X4744286Y-15856238D02*
X4753810Y-15865762D01*
X4753810Y-15865762D02*
X4772857Y-15875286D01*
X4772857Y-15875286D02*
X4810953Y-15875286D01*
X4810953Y-15875286D02*
X4830000Y-15865762D01*
X4830000Y-15865762D02*
X4839524Y-15856238D01*
X4839524Y-15856238D02*
X4849048Y-15837190D01*
X5030000Y-15751476D02*
X4934762Y-15751476D01*
X4934762Y-15751476D02*
X4925238Y-15846714D01*
X4925238Y-15846714D02*
X4934762Y-15837190D01*
X4934762Y-15837190D02*
X4953810Y-15827667D01*
X4953810Y-15827667D02*
X5001429Y-15827667D01*
X5001429Y-15827667D02*
X5020476Y-15837190D01*
X5020476Y-15837190D02*
X5030000Y-15846714D01*
X5030000Y-15846714D02*
X5039524Y-15865762D01*
X5039524Y-15865762D02*
X5039524Y-15913381D01*
X5039524Y-15913381D02*
X5030000Y-15932428D01*
X5030000Y-15932428D02*
X5020476Y-15941952D01*
X5020476Y-15941952D02*
X5001429Y-15951476D01*
X5001429Y-15951476D02*
X4953810Y-15951476D01*
X4953810Y-15951476D02*
X4934762Y-15941952D01*
X4934762Y-15941952D02*
X4925238Y-15932428D01*
X5115714Y-15751476D02*
X5115714Y-15789571D01*
X5191905Y-15751476D02*
X5191905Y-15789571D01*
X5454762Y-16027667D02*
X5445238Y-16018143D01*
X5445238Y-16018143D02*
X5426191Y-15989571D01*
X5426191Y-15989571D02*
X5416667Y-15970524D01*
X5416667Y-15970524D02*
X5407143Y-15941952D01*
X5407143Y-15941952D02*
X5397619Y-15894333D01*
X5397619Y-15894333D02*
X5397619Y-15856238D01*
X5397619Y-15856238D02*
X5407143Y-15808619D01*
X5407143Y-15808619D02*
X5416667Y-15780048D01*
X5416667Y-15780048D02*
X5426191Y-15761000D01*
X5426191Y-15761000D02*
X5445238Y-15732428D01*
X5445238Y-15732428D02*
X5454762Y-15722905D01*
X5635714Y-15951476D02*
X5521429Y-15951476D01*
X5578572Y-15951476D02*
X5578572Y-15751476D01*
X5578572Y-15751476D02*
X5559524Y-15780048D01*
X5559524Y-15780048D02*
X5540476Y-15799095D01*
X5540476Y-15799095D02*
X5521429Y-15808619D01*
X5711905Y-15770524D02*
X5721429Y-15761000D01*
X5721429Y-15761000D02*
X5740476Y-15751476D01*
X5740476Y-15751476D02*
X5788095Y-15751476D01*
X5788095Y-15751476D02*
X5807143Y-15761000D01*
X5807143Y-15761000D02*
X5816667Y-15770524D01*
X5816667Y-15770524D02*
X5826191Y-15789571D01*
X5826191Y-15789571D02*
X5826191Y-15808619D01*
X5826191Y-15808619D02*
X5816667Y-15837190D01*
X5816667Y-15837190D02*
X5702381Y-15951476D01*
X5702381Y-15951476D02*
X5826191Y-15951476D01*
X6031905Y-15951476D02*
X6031905Y-15751476D01*
X6117619Y-15951476D02*
X6117619Y-15846714D01*
X6117619Y-15846714D02*
X6108095Y-15827667D01*
X6108095Y-15827667D02*
X6089048Y-15818143D01*
X6089048Y-15818143D02*
X6060476Y-15818143D01*
X6060476Y-15818143D02*
X6041429Y-15827667D01*
X6041429Y-15827667D02*
X6031905Y-15837190D01*
X6241429Y-15951476D02*
X6222381Y-15941952D01*
X6222381Y-15941952D02*
X6212857Y-15932428D01*
X6212857Y-15932428D02*
X6203333Y-15913381D01*
X6203333Y-15913381D02*
X6203333Y-15856238D01*
X6203333Y-15856238D02*
X6212857Y-15837190D01*
X6212857Y-15837190D02*
X6222381Y-15827667D01*
X6222381Y-15827667D02*
X6241429Y-15818143D01*
X6241429Y-15818143D02*
X6270000Y-15818143D01*
X6270000Y-15818143D02*
X6289048Y-15827667D01*
X6289048Y-15827667D02*
X6298572Y-15837190D01*
X6298572Y-15837190D02*
X6308095Y-15856238D01*
X6308095Y-15856238D02*
X6308095Y-15913381D01*
X6308095Y-15913381D02*
X6298572Y-15932428D01*
X6298572Y-15932428D02*
X6289048Y-15941952D01*
X6289048Y-15941952D02*
X6270000Y-15951476D01*
X6270000Y-15951476D02*
X6241429Y-15951476D01*
X6422381Y-15951476D02*
X6403333Y-15941952D01*
X6403333Y-15941952D02*
X6393810Y-15922905D01*
X6393810Y-15922905D02*
X6393810Y-15751476D01*
X6574762Y-15941952D02*
X6555714Y-15951476D01*
X6555714Y-15951476D02*
X6517619Y-15951476D01*
X6517619Y-15951476D02*
X6498572Y-15941952D01*
X6498572Y-15941952D02*
X6489048Y-15922905D01*
X6489048Y-15922905D02*
X6489048Y-15846714D01*
X6489048Y-15846714D02*
X6498572Y-15827667D01*
X6498572Y-15827667D02*
X6517619Y-15818143D01*
X6517619Y-15818143D02*
X6555714Y-15818143D01*
X6555714Y-15818143D02*
X6574762Y-15827667D01*
X6574762Y-15827667D02*
X6584286Y-15846714D01*
X6584286Y-15846714D02*
X6584286Y-15865762D01*
X6584286Y-15865762D02*
X6489048Y-15884809D01*
X6660476Y-15941952D02*
X6679524Y-15951476D01*
X6679524Y-15951476D02*
X6717619Y-15951476D01*
X6717619Y-15951476D02*
X6736667Y-15941952D01*
X6736667Y-15941952D02*
X6746191Y-15922905D01*
X6746191Y-15922905D02*
X6746191Y-15913381D01*
X6746191Y-15913381D02*
X6736667Y-15894333D01*
X6736667Y-15894333D02*
X6717619Y-15884809D01*
X6717619Y-15884809D02*
X6689048Y-15884809D01*
X6689048Y-15884809D02*
X6670000Y-15875286D01*
X6670000Y-15875286D02*
X6660476Y-15856238D01*
X6660476Y-15856238D02*
X6660476Y-15846714D01*
X6660476Y-15846714D02*
X6670000Y-15827667D01*
X6670000Y-15827667D02*
X6689048Y-15818143D01*
X6689048Y-15818143D02*
X6717619Y-15818143D01*
X6717619Y-15818143D02*
X6736667Y-15827667D01*
X6812857Y-16027667D02*
X6822381Y-16018143D01*
X6822381Y-16018143D02*
X6841429Y-15989571D01*
X6841429Y-15989571D02*
X6850953Y-15970524D01*
X6850953Y-15970524D02*
X6860476Y-15941952D01*
X6860476Y-15941952D02*
X6870000Y-15894333D01*
X6870000Y-15894333D02*
X6870000Y-15856238D01*
X6870000Y-15856238D02*
X6860476Y-15808619D01*
X6860476Y-15808619D02*
X6850953Y-15780048D01*
X6850953Y-15780048D02*
X6841429Y-15761000D01*
X6841429Y-15761000D02*
X6822381Y-15732428D01*
X6822381Y-15732428D02*
X6812857Y-15722905D01*
D14*
X1976820Y-16173820D02*
X1976820Y-16110180D01*
X1913180Y-16110180D01*
X1913180Y-16173820D01*
X1976820Y-16173820D01*
D10*
X2275714Y-16015476D02*
X2294762Y-16015476D01*
X2294762Y-16015476D02*
X2313810Y-16025000D01*
X2313810Y-16025000D02*
X2323333Y-16034524D01*
X2323333Y-16034524D02*
X2332857Y-16053571D01*
X2332857Y-16053571D02*
X2342381Y-16091667D01*
X2342381Y-16091667D02*
X2342381Y-16139286D01*
X2342381Y-16139286D02*
X2332857Y-16177381D01*
X2332857Y-16177381D02*
X2323333Y-16196428D01*
X2323333Y-16196428D02*
X2313810Y-16205952D01*
X2313810Y-16205952D02*
X2294762Y-16215476D01*
X2294762Y-16215476D02*
X2275714Y-16215476D01*
X2275714Y-16215476D02*
X2256667Y-16205952D01*
X2256667Y-16205952D02*
X2247143Y-16196428D01*
X2247143Y-16196428D02*
X2237619Y-16177381D01*
X2237619Y-16177381D02*
X2228095Y-16139286D01*
X2228095Y-16139286D02*
X2228095Y-16091667D01*
X2228095Y-16091667D02*
X2237619Y-16053571D01*
X2237619Y-16053571D02*
X2247143Y-16034524D01*
X2247143Y-16034524D02*
X2256667Y-16025000D01*
X2256667Y-16025000D02*
X2275714Y-16015476D01*
X2428095Y-16196428D02*
X2437619Y-16205952D01*
X2437619Y-16205952D02*
X2428095Y-16215476D01*
X2428095Y-16215476D02*
X2418571Y-16205952D01*
X2418571Y-16205952D02*
X2428095Y-16196428D01*
X2428095Y-16196428D02*
X2428095Y-16215476D01*
X2532857Y-16215476D02*
X2570952Y-16215476D01*
X2570952Y-16215476D02*
X2590000Y-16205952D01*
X2590000Y-16205952D02*
X2599524Y-16196428D01*
X2599524Y-16196428D02*
X2618571Y-16167857D01*
X2618571Y-16167857D02*
X2628095Y-16129762D01*
X2628095Y-16129762D02*
X2628095Y-16053571D01*
X2628095Y-16053571D02*
X2618571Y-16034524D01*
X2618571Y-16034524D02*
X2609048Y-16025000D01*
X2609048Y-16025000D02*
X2590000Y-16015476D01*
X2590000Y-16015476D02*
X2551905Y-16015476D01*
X2551905Y-16015476D02*
X2532857Y-16025000D01*
X2532857Y-16025000D02*
X2523333Y-16034524D01*
X2523333Y-16034524D02*
X2513810Y-16053571D01*
X2513810Y-16053571D02*
X2513810Y-16101190D01*
X2513810Y-16101190D02*
X2523333Y-16120238D01*
X2523333Y-16120238D02*
X2532857Y-16129762D01*
X2532857Y-16129762D02*
X2551905Y-16139286D01*
X2551905Y-16139286D02*
X2590000Y-16139286D01*
X2590000Y-16139286D02*
X2609048Y-16129762D01*
X2609048Y-16129762D02*
X2618571Y-16120238D01*
X2618571Y-16120238D02*
X2628095Y-16101190D01*
X2751905Y-16015476D02*
X2770952Y-16015476D01*
X2770952Y-16015476D02*
X2790000Y-16025000D01*
X2790000Y-16025000D02*
X2799524Y-16034524D01*
X2799524Y-16034524D02*
X2809048Y-16053571D01*
X2809048Y-16053571D02*
X2818571Y-16091667D01*
X2818571Y-16091667D02*
X2818571Y-16139286D01*
X2818571Y-16139286D02*
X2809048Y-16177381D01*
X2809048Y-16177381D02*
X2799524Y-16196428D01*
X2799524Y-16196428D02*
X2790000Y-16205952D01*
X2790000Y-16205952D02*
X2770952Y-16215476D01*
X2770952Y-16215476D02*
X2751905Y-16215476D01*
X2751905Y-16215476D02*
X2732857Y-16205952D01*
X2732857Y-16205952D02*
X2723333Y-16196428D01*
X2723333Y-16196428D02*
X2713810Y-16177381D01*
X2713810Y-16177381D02*
X2704286Y-16139286D01*
X2704286Y-16139286D02*
X2704286Y-16091667D01*
X2704286Y-16091667D02*
X2713810Y-16053571D01*
X2713810Y-16053571D02*
X2723333Y-16034524D01*
X2723333Y-16034524D02*
X2732857Y-16025000D01*
X2732857Y-16025000D02*
X2751905Y-16015476D01*
X2942381Y-16015476D02*
X2961429Y-16015476D01*
X2961429Y-16015476D02*
X2980476Y-16025000D01*
X2980476Y-16025000D02*
X2990000Y-16034524D01*
X2990000Y-16034524D02*
X2999524Y-16053571D01*
X2999524Y-16053571D02*
X3009048Y-16091667D01*
X3009048Y-16091667D02*
X3009048Y-16139286D01*
X3009048Y-16139286D02*
X2999524Y-16177381D01*
X2999524Y-16177381D02*
X2990000Y-16196428D01*
X2990000Y-16196428D02*
X2980476Y-16205952D01*
X2980476Y-16205952D02*
X2961429Y-16215476D01*
X2961429Y-16215476D02*
X2942381Y-16215476D01*
X2942381Y-16215476D02*
X2923333Y-16205952D01*
X2923333Y-16205952D02*
X2913809Y-16196428D01*
X2913809Y-16196428D02*
X2904286Y-16177381D01*
X2904286Y-16177381D02*
X2894762Y-16139286D01*
X2894762Y-16139286D02*
X2894762Y-16091667D01*
X2894762Y-16091667D02*
X2904286Y-16053571D01*
X2904286Y-16053571D02*
X2913809Y-16034524D01*
X2913809Y-16034524D02*
X2923333Y-16025000D01*
X2923333Y-16025000D02*
X2942381Y-16015476D01*
X3094762Y-16215476D02*
X3094762Y-16082143D01*
X3094762Y-16101190D02*
X3104286Y-16091667D01*
X3104286Y-16091667D02*
X3123333Y-16082143D01*
X3123333Y-16082143D02*
X3151905Y-16082143D01*
X3151905Y-16082143D02*
X3170952Y-16091667D01*
X3170952Y-16091667D02*
X3180476Y-16110714D01*
X3180476Y-16110714D02*
X3180476Y-16215476D01*
X3180476Y-16110714D02*
X3190000Y-16091667D01*
X3190000Y-16091667D02*
X3209048Y-16082143D01*
X3209048Y-16082143D02*
X3237619Y-16082143D01*
X3237619Y-16082143D02*
X3256667Y-16091667D01*
X3256667Y-16091667D02*
X3266190Y-16110714D01*
X3266190Y-16110714D02*
X3266190Y-16215476D01*
X3361429Y-16215476D02*
X3361429Y-16082143D01*
X3361429Y-16101190D02*
X3370952Y-16091667D01*
X3370952Y-16091667D02*
X3390000Y-16082143D01*
X3390000Y-16082143D02*
X3418571Y-16082143D01*
X3418571Y-16082143D02*
X3437619Y-16091667D01*
X3437619Y-16091667D02*
X3447143Y-16110714D01*
X3447143Y-16110714D02*
X3447143Y-16215476D01*
X3447143Y-16110714D02*
X3456667Y-16091667D01*
X3456667Y-16091667D02*
X3475714Y-16082143D01*
X3475714Y-16082143D02*
X3504286Y-16082143D01*
X3504286Y-16082143D02*
X3523333Y-16091667D01*
X3523333Y-16091667D02*
X3532857Y-16110714D01*
X3532857Y-16110714D02*
X3532857Y-16215476D01*
X3890952Y-16005952D02*
X3719524Y-16263095D01*
X4115714Y-16015476D02*
X4134762Y-16015476D01*
X4134762Y-16015476D02*
X4153810Y-16025000D01*
X4153810Y-16025000D02*
X4163333Y-16034524D01*
X4163333Y-16034524D02*
X4172857Y-16053571D01*
X4172857Y-16053571D02*
X4182381Y-16091667D01*
X4182381Y-16091667D02*
X4182381Y-16139286D01*
X4182381Y-16139286D02*
X4172857Y-16177381D01*
X4172857Y-16177381D02*
X4163333Y-16196428D01*
X4163333Y-16196428D02*
X4153810Y-16205952D01*
X4153810Y-16205952D02*
X4134762Y-16215476D01*
X4134762Y-16215476D02*
X4115714Y-16215476D01*
X4115714Y-16215476D02*
X4096667Y-16205952D01*
X4096667Y-16205952D02*
X4087143Y-16196428D01*
X4087143Y-16196428D02*
X4077619Y-16177381D01*
X4077619Y-16177381D02*
X4068095Y-16139286D01*
X4068095Y-16139286D02*
X4068095Y-16091667D01*
X4068095Y-16091667D02*
X4077619Y-16053571D01*
X4077619Y-16053571D02*
X4087143Y-16034524D01*
X4087143Y-16034524D02*
X4096667Y-16025000D01*
X4096667Y-16025000D02*
X4115714Y-16015476D01*
X4268095Y-16196428D02*
X4277619Y-16205952D01*
X4277619Y-16205952D02*
X4268095Y-16215476D01*
X4268095Y-16215476D02*
X4258572Y-16205952D01*
X4258572Y-16205952D02*
X4268095Y-16196428D01*
X4268095Y-16196428D02*
X4268095Y-16215476D01*
X4401429Y-16015476D02*
X4420476Y-16015476D01*
X4420476Y-16015476D02*
X4439524Y-16025000D01*
X4439524Y-16025000D02*
X4449048Y-16034524D01*
X4449048Y-16034524D02*
X4458572Y-16053571D01*
X4458572Y-16053571D02*
X4468095Y-16091667D01*
X4468095Y-16091667D02*
X4468095Y-16139286D01*
X4468095Y-16139286D02*
X4458572Y-16177381D01*
X4458572Y-16177381D02*
X4449048Y-16196428D01*
X4449048Y-16196428D02*
X4439524Y-16205952D01*
X4439524Y-16205952D02*
X4420476Y-16215476D01*
X4420476Y-16215476D02*
X4401429Y-16215476D01*
X4401429Y-16215476D02*
X4382381Y-16205952D01*
X4382381Y-16205952D02*
X4372857Y-16196428D01*
X4372857Y-16196428D02*
X4363333Y-16177381D01*
X4363333Y-16177381D02*
X4353810Y-16139286D01*
X4353810Y-16139286D02*
X4353810Y-16091667D01*
X4353810Y-16091667D02*
X4363333Y-16053571D01*
X4363333Y-16053571D02*
X4372857Y-16034524D01*
X4372857Y-16034524D02*
X4382381Y-16025000D01*
X4382381Y-16025000D02*
X4401429Y-16015476D01*
X4534762Y-16015476D02*
X4658572Y-16015476D01*
X4658572Y-16015476D02*
X4591905Y-16091667D01*
X4591905Y-16091667D02*
X4620476Y-16091667D01*
X4620476Y-16091667D02*
X4639524Y-16101190D01*
X4639524Y-16101190D02*
X4649048Y-16110714D01*
X4649048Y-16110714D02*
X4658572Y-16129762D01*
X4658572Y-16129762D02*
X4658572Y-16177381D01*
X4658572Y-16177381D02*
X4649048Y-16196428D01*
X4649048Y-16196428D02*
X4639524Y-16205952D01*
X4639524Y-16205952D02*
X4620476Y-16215476D01*
X4620476Y-16215476D02*
X4563333Y-16215476D01*
X4563333Y-16215476D02*
X4544286Y-16205952D01*
X4544286Y-16205952D02*
X4534762Y-16196428D01*
X4839524Y-16015476D02*
X4744286Y-16015476D01*
X4744286Y-16015476D02*
X4734762Y-16110714D01*
X4734762Y-16110714D02*
X4744286Y-16101190D01*
X4744286Y-16101190D02*
X4763333Y-16091667D01*
X4763333Y-16091667D02*
X4810953Y-16091667D01*
X4810953Y-16091667D02*
X4830000Y-16101190D01*
X4830000Y-16101190D02*
X4839524Y-16110714D01*
X4839524Y-16110714D02*
X4849048Y-16129762D01*
X4849048Y-16129762D02*
X4849048Y-16177381D01*
X4849048Y-16177381D02*
X4839524Y-16196428D01*
X4839524Y-16196428D02*
X4830000Y-16205952D01*
X4830000Y-16205952D02*
X4810953Y-16215476D01*
X4810953Y-16215476D02*
X4763333Y-16215476D01*
X4763333Y-16215476D02*
X4744286Y-16205952D01*
X4744286Y-16205952D02*
X4734762Y-16196428D01*
X5020476Y-16082143D02*
X5020476Y-16215476D01*
X4972857Y-16005952D02*
X4925238Y-16148809D01*
X4925238Y-16148809D02*
X5049048Y-16148809D01*
X5115714Y-16015476D02*
X5115714Y-16053571D01*
X5191905Y-16015476D02*
X5191905Y-16053571D01*
X5454762Y-16291667D02*
X5445238Y-16282143D01*
X5445238Y-16282143D02*
X5426191Y-16253571D01*
X5426191Y-16253571D02*
X5416667Y-16234524D01*
X5416667Y-16234524D02*
X5407143Y-16205952D01*
X5407143Y-16205952D02*
X5397619Y-16158333D01*
X5397619Y-16158333D02*
X5397619Y-16120238D01*
X5397619Y-16120238D02*
X5407143Y-16072619D01*
X5407143Y-16072619D02*
X5416667Y-16044048D01*
X5416667Y-16044048D02*
X5426191Y-16025000D01*
X5426191Y-16025000D02*
X5445238Y-15996428D01*
X5445238Y-15996428D02*
X5454762Y-15986905D01*
X5569048Y-16015476D02*
X5588095Y-16015476D01*
X5588095Y-16015476D02*
X5607143Y-16025000D01*
X5607143Y-16025000D02*
X5616667Y-16034524D01*
X5616667Y-16034524D02*
X5626191Y-16053571D01*
X5626191Y-16053571D02*
X5635714Y-16091667D01*
X5635714Y-16091667D02*
X5635714Y-16139286D01*
X5635714Y-16139286D02*
X5626191Y-16177381D01*
X5626191Y-16177381D02*
X5616667Y-16196428D01*
X5616667Y-16196428D02*
X5607143Y-16205952D01*
X5607143Y-16205952D02*
X5588095Y-16215476D01*
X5588095Y-16215476D02*
X5569048Y-16215476D01*
X5569048Y-16215476D02*
X5550000Y-16205952D01*
X5550000Y-16205952D02*
X5540476Y-16196428D01*
X5540476Y-16196428D02*
X5530953Y-16177381D01*
X5530953Y-16177381D02*
X5521429Y-16139286D01*
X5521429Y-16139286D02*
X5521429Y-16091667D01*
X5521429Y-16091667D02*
X5530953Y-16053571D01*
X5530953Y-16053571D02*
X5540476Y-16034524D01*
X5540476Y-16034524D02*
X5550000Y-16025000D01*
X5550000Y-16025000D02*
X5569048Y-16015476D01*
X5841429Y-16215476D02*
X5841429Y-16015476D01*
X5927143Y-16215476D02*
X5927143Y-16110714D01*
X5927143Y-16110714D02*
X5917619Y-16091667D01*
X5917619Y-16091667D02*
X5898572Y-16082143D01*
X5898572Y-16082143D02*
X5870000Y-16082143D01*
X5870000Y-16082143D02*
X5850952Y-16091667D01*
X5850952Y-16091667D02*
X5841429Y-16101190D01*
X6050952Y-16215476D02*
X6031905Y-16205952D01*
X6031905Y-16205952D02*
X6022381Y-16196428D01*
X6022381Y-16196428D02*
X6012857Y-16177381D01*
X6012857Y-16177381D02*
X6012857Y-16120238D01*
X6012857Y-16120238D02*
X6022381Y-16101190D01*
X6022381Y-16101190D02*
X6031905Y-16091667D01*
X6031905Y-16091667D02*
X6050952Y-16082143D01*
X6050952Y-16082143D02*
X6079524Y-16082143D01*
X6079524Y-16082143D02*
X6098572Y-16091667D01*
X6098572Y-16091667D02*
X6108095Y-16101190D01*
X6108095Y-16101190D02*
X6117619Y-16120238D01*
X6117619Y-16120238D02*
X6117619Y-16177381D01*
X6117619Y-16177381D02*
X6108095Y-16196428D01*
X6108095Y-16196428D02*
X6098572Y-16205952D01*
X6098572Y-16205952D02*
X6079524Y-16215476D01*
X6079524Y-16215476D02*
X6050952Y-16215476D01*
X6231905Y-16215476D02*
X6212857Y-16205952D01*
X6212857Y-16205952D02*
X6203333Y-16186905D01*
X6203333Y-16186905D02*
X6203333Y-16015476D01*
X6384286Y-16205952D02*
X6365238Y-16215476D01*
X6365238Y-16215476D02*
X6327143Y-16215476D01*
X6327143Y-16215476D02*
X6308095Y-16205952D01*
X6308095Y-16205952D02*
X6298572Y-16186905D01*
X6298572Y-16186905D02*
X6298572Y-16110714D01*
X6298572Y-16110714D02*
X6308095Y-16091667D01*
X6308095Y-16091667D02*
X6327143Y-16082143D01*
X6327143Y-16082143D02*
X6365238Y-16082143D01*
X6365238Y-16082143D02*
X6384286Y-16091667D01*
X6384286Y-16091667D02*
X6393810Y-16110714D01*
X6393810Y-16110714D02*
X6393810Y-16129762D01*
X6393810Y-16129762D02*
X6298572Y-16148809D01*
X6470000Y-16205952D02*
X6489048Y-16215476D01*
X6489048Y-16215476D02*
X6527143Y-16215476D01*
X6527143Y-16215476D02*
X6546191Y-16205952D01*
X6546191Y-16205952D02*
X6555714Y-16186905D01*
X6555714Y-16186905D02*
X6555714Y-16177381D01*
X6555714Y-16177381D02*
X6546191Y-16158333D01*
X6546191Y-16158333D02*
X6527143Y-16148809D01*
X6527143Y-16148809D02*
X6498572Y-16148809D01*
X6498572Y-16148809D02*
X6479524Y-16139286D01*
X6479524Y-16139286D02*
X6470000Y-16120238D01*
X6470000Y-16120238D02*
X6470000Y-16110714D01*
X6470000Y-16110714D02*
X6479524Y-16091667D01*
X6479524Y-16091667D02*
X6498572Y-16082143D01*
X6498572Y-16082143D02*
X6527143Y-16082143D01*
X6527143Y-16082143D02*
X6546191Y-16091667D01*
X6761429Y-16139286D02*
X6913810Y-16139286D01*
X6837619Y-16215476D02*
X6837619Y-16063095D01*
X7119524Y-16034524D02*
X7129048Y-16025000D01*
X7129048Y-16025000D02*
X7148095Y-16015476D01*
X7148095Y-16015476D02*
X7195714Y-16015476D01*
X7195714Y-16015476D02*
X7214762Y-16025000D01*
X7214762Y-16025000D02*
X7224286Y-16034524D01*
X7224286Y-16034524D02*
X7233810Y-16053571D01*
X7233810Y-16053571D02*
X7233810Y-16072619D01*
X7233810Y-16072619D02*
X7224286Y-16101190D01*
X7224286Y-16101190D02*
X7110000Y-16215476D01*
X7110000Y-16215476D02*
X7233810Y-16215476D01*
X7430000Y-16205952D02*
X7449048Y-16215476D01*
X7449048Y-16215476D02*
X7487143Y-16215476D01*
X7487143Y-16215476D02*
X7506191Y-16205952D01*
X7506191Y-16205952D02*
X7515714Y-16186905D01*
X7515714Y-16186905D02*
X7515714Y-16177381D01*
X7515714Y-16177381D02*
X7506191Y-16158333D01*
X7506191Y-16158333D02*
X7487143Y-16148809D01*
X7487143Y-16148809D02*
X7458572Y-16148809D01*
X7458572Y-16148809D02*
X7439524Y-16139286D01*
X7439524Y-16139286D02*
X7430000Y-16120238D01*
X7430000Y-16120238D02*
X7430000Y-16110714D01*
X7430000Y-16110714D02*
X7439524Y-16091667D01*
X7439524Y-16091667D02*
X7458572Y-16082143D01*
X7458572Y-16082143D02*
X7487143Y-16082143D01*
X7487143Y-16082143D02*
X7506191Y-16091667D01*
X7630000Y-16215476D02*
X7610953Y-16205952D01*
X7610953Y-16205952D02*
X7601429Y-16186905D01*
X7601429Y-16186905D02*
X7601429Y-16015476D01*
X7734762Y-16215476D02*
X7715714Y-16205952D01*
X7715714Y-16205952D02*
X7706191Y-16196428D01*
X7706191Y-16196428D02*
X7696667Y-16177381D01*
X7696667Y-16177381D02*
X7696667Y-16120238D01*
X7696667Y-16120238D02*
X7706191Y-16101190D01*
X7706191Y-16101190D02*
X7715714Y-16091667D01*
X7715714Y-16091667D02*
X7734762Y-16082143D01*
X7734762Y-16082143D02*
X7763334Y-16082143D01*
X7763334Y-16082143D02*
X7782381Y-16091667D01*
X7782381Y-16091667D02*
X7791905Y-16101190D01*
X7791905Y-16101190D02*
X7801429Y-16120238D01*
X7801429Y-16120238D02*
X7801429Y-16177381D01*
X7801429Y-16177381D02*
X7791905Y-16196428D01*
X7791905Y-16196428D02*
X7782381Y-16205952D01*
X7782381Y-16205952D02*
X7763334Y-16215476D01*
X7763334Y-16215476D02*
X7734762Y-16215476D01*
X7858572Y-16082143D02*
X7934762Y-16082143D01*
X7887143Y-16015476D02*
X7887143Y-16186905D01*
X7887143Y-16186905D02*
X7896667Y-16205952D01*
X7896667Y-16205952D02*
X7915714Y-16215476D01*
X7915714Y-16215476D02*
X7934762Y-16215476D01*
X7991905Y-16205952D02*
X8010953Y-16215476D01*
X8010953Y-16215476D02*
X8049048Y-16215476D01*
X8049048Y-16215476D02*
X8068095Y-16205952D01*
X8068095Y-16205952D02*
X8077619Y-16186905D01*
X8077619Y-16186905D02*
X8077619Y-16177381D01*
X8077619Y-16177381D02*
X8068095Y-16158333D01*
X8068095Y-16158333D02*
X8049048Y-16148809D01*
X8049048Y-16148809D02*
X8020476Y-16148809D01*
X8020476Y-16148809D02*
X8001429Y-16139286D01*
X8001429Y-16139286D02*
X7991905Y-16120238D01*
X7991905Y-16120238D02*
X7991905Y-16110714D01*
X7991905Y-16110714D02*
X8001429Y-16091667D01*
X8001429Y-16091667D02*
X8020476Y-16082143D01*
X8020476Y-16082143D02*
X8049048Y-16082143D01*
X8049048Y-16082143D02*
X8068095Y-16091667D01*
X8144286Y-16291667D02*
X8153810Y-16282143D01*
X8153810Y-16282143D02*
X8172857Y-16253571D01*
X8172857Y-16253571D02*
X8182381Y-16234524D01*
X8182381Y-16234524D02*
X8191905Y-16205952D01*
X8191905Y-16205952D02*
X8201429Y-16158333D01*
X8201429Y-16158333D02*
X8201429Y-16120238D01*
X8201429Y-16120238D02*
X8191905Y-16072619D01*
X8191905Y-16072619D02*
X8182381Y-16044048D01*
X8182381Y-16044048D02*
X8172857Y-16025000D01*
X8172857Y-16025000D02*
X8153810Y-15996428D01*
X8153810Y-15996428D02*
X8144286Y-15986905D01*
D15*
X1930000Y-16466000D02*
X1990000Y-16406000D01*
X1930000Y-16346000D01*
X1870000Y-16406000D01*
X1930000Y-16466000D01*
D10*
X2342381Y-16479476D02*
X2228095Y-16479476D01*
X2285238Y-16479476D02*
X2285238Y-16279476D01*
X2285238Y-16279476D02*
X2266190Y-16308048D01*
X2266190Y-16308048D02*
X2247143Y-16327095D01*
X2247143Y-16327095D02*
X2228095Y-16336619D01*
X2428095Y-16460428D02*
X2437619Y-16469952D01*
X2437619Y-16469952D02*
X2428095Y-16479476D01*
X2428095Y-16479476D02*
X2418571Y-16469952D01*
X2418571Y-16469952D02*
X2428095Y-16460428D01*
X2428095Y-16460428D02*
X2428095Y-16479476D01*
X2513810Y-16298524D02*
X2523333Y-16289000D01*
X2523333Y-16289000D02*
X2542381Y-16279476D01*
X2542381Y-16279476D02*
X2590000Y-16279476D01*
X2590000Y-16279476D02*
X2609048Y-16289000D01*
X2609048Y-16289000D02*
X2618571Y-16298524D01*
X2618571Y-16298524D02*
X2628095Y-16317571D01*
X2628095Y-16317571D02*
X2628095Y-16336619D01*
X2628095Y-16336619D02*
X2618571Y-16365190D01*
X2618571Y-16365190D02*
X2504286Y-16479476D01*
X2504286Y-16479476D02*
X2628095Y-16479476D01*
X2751905Y-16279476D02*
X2770952Y-16279476D01*
X2770952Y-16279476D02*
X2790000Y-16289000D01*
X2790000Y-16289000D02*
X2799524Y-16298524D01*
X2799524Y-16298524D02*
X2809048Y-16317571D01*
X2809048Y-16317571D02*
X2818571Y-16355667D01*
X2818571Y-16355667D02*
X2818571Y-16403286D01*
X2818571Y-16403286D02*
X2809048Y-16441381D01*
X2809048Y-16441381D02*
X2799524Y-16460428D01*
X2799524Y-16460428D02*
X2790000Y-16469952D01*
X2790000Y-16469952D02*
X2770952Y-16479476D01*
X2770952Y-16479476D02*
X2751905Y-16479476D01*
X2751905Y-16479476D02*
X2732857Y-16469952D01*
X2732857Y-16469952D02*
X2723333Y-16460428D01*
X2723333Y-16460428D02*
X2713810Y-16441381D01*
X2713810Y-16441381D02*
X2704286Y-16403286D01*
X2704286Y-16403286D02*
X2704286Y-16355667D01*
X2704286Y-16355667D02*
X2713810Y-16317571D01*
X2713810Y-16317571D02*
X2723333Y-16298524D01*
X2723333Y-16298524D02*
X2732857Y-16289000D01*
X2732857Y-16289000D02*
X2751905Y-16279476D01*
X2942381Y-16279476D02*
X2961429Y-16279476D01*
X2961429Y-16279476D02*
X2980476Y-16289000D01*
X2980476Y-16289000D02*
X2990000Y-16298524D01*
X2990000Y-16298524D02*
X2999524Y-16317571D01*
X2999524Y-16317571D02*
X3009048Y-16355667D01*
X3009048Y-16355667D02*
X3009048Y-16403286D01*
X3009048Y-16403286D02*
X2999524Y-16441381D01*
X2999524Y-16441381D02*
X2990000Y-16460428D01*
X2990000Y-16460428D02*
X2980476Y-16469952D01*
X2980476Y-16469952D02*
X2961429Y-16479476D01*
X2961429Y-16479476D02*
X2942381Y-16479476D01*
X2942381Y-16479476D02*
X2923333Y-16469952D01*
X2923333Y-16469952D02*
X2913809Y-16460428D01*
X2913809Y-16460428D02*
X2904286Y-16441381D01*
X2904286Y-16441381D02*
X2894762Y-16403286D01*
X2894762Y-16403286D02*
X2894762Y-16355667D01*
X2894762Y-16355667D02*
X2904286Y-16317571D01*
X2904286Y-16317571D02*
X2913809Y-16298524D01*
X2913809Y-16298524D02*
X2923333Y-16289000D01*
X2923333Y-16289000D02*
X2942381Y-16279476D01*
X3094762Y-16479476D02*
X3094762Y-16346143D01*
X3094762Y-16365190D02*
X3104286Y-16355667D01*
X3104286Y-16355667D02*
X3123333Y-16346143D01*
X3123333Y-16346143D02*
X3151905Y-16346143D01*
X3151905Y-16346143D02*
X3170952Y-16355667D01*
X3170952Y-16355667D02*
X3180476Y-16374714D01*
X3180476Y-16374714D02*
X3180476Y-16479476D01*
X3180476Y-16374714D02*
X3190000Y-16355667D01*
X3190000Y-16355667D02*
X3209048Y-16346143D01*
X3209048Y-16346143D02*
X3237619Y-16346143D01*
X3237619Y-16346143D02*
X3256667Y-16355667D01*
X3256667Y-16355667D02*
X3266190Y-16374714D01*
X3266190Y-16374714D02*
X3266190Y-16479476D01*
X3361429Y-16479476D02*
X3361429Y-16346143D01*
X3361429Y-16365190D02*
X3370952Y-16355667D01*
X3370952Y-16355667D02*
X3390000Y-16346143D01*
X3390000Y-16346143D02*
X3418571Y-16346143D01*
X3418571Y-16346143D02*
X3437619Y-16355667D01*
X3437619Y-16355667D02*
X3447143Y-16374714D01*
X3447143Y-16374714D02*
X3447143Y-16479476D01*
X3447143Y-16374714D02*
X3456667Y-16355667D01*
X3456667Y-16355667D02*
X3475714Y-16346143D01*
X3475714Y-16346143D02*
X3504286Y-16346143D01*
X3504286Y-16346143D02*
X3523333Y-16355667D01*
X3523333Y-16355667D02*
X3532857Y-16374714D01*
X3532857Y-16374714D02*
X3532857Y-16479476D01*
X3890952Y-16269952D02*
X3719524Y-16527095D01*
X4115714Y-16279476D02*
X4134762Y-16279476D01*
X4134762Y-16279476D02*
X4153810Y-16289000D01*
X4153810Y-16289000D02*
X4163333Y-16298524D01*
X4163333Y-16298524D02*
X4172857Y-16317571D01*
X4172857Y-16317571D02*
X4182381Y-16355667D01*
X4182381Y-16355667D02*
X4182381Y-16403286D01*
X4182381Y-16403286D02*
X4172857Y-16441381D01*
X4172857Y-16441381D02*
X4163333Y-16460428D01*
X4163333Y-16460428D02*
X4153810Y-16469952D01*
X4153810Y-16469952D02*
X4134762Y-16479476D01*
X4134762Y-16479476D02*
X4115714Y-16479476D01*
X4115714Y-16479476D02*
X4096667Y-16469952D01*
X4096667Y-16469952D02*
X4087143Y-16460428D01*
X4087143Y-16460428D02*
X4077619Y-16441381D01*
X4077619Y-16441381D02*
X4068095Y-16403286D01*
X4068095Y-16403286D02*
X4068095Y-16355667D01*
X4068095Y-16355667D02*
X4077619Y-16317571D01*
X4077619Y-16317571D02*
X4087143Y-16298524D01*
X4087143Y-16298524D02*
X4096667Y-16289000D01*
X4096667Y-16289000D02*
X4115714Y-16279476D01*
X4268095Y-16460428D02*
X4277619Y-16469952D01*
X4277619Y-16469952D02*
X4268095Y-16479476D01*
X4268095Y-16479476D02*
X4258572Y-16469952D01*
X4258572Y-16469952D02*
X4268095Y-16460428D01*
X4268095Y-16460428D02*
X4268095Y-16479476D01*
X4401429Y-16279476D02*
X4420476Y-16279476D01*
X4420476Y-16279476D02*
X4439524Y-16289000D01*
X4439524Y-16289000D02*
X4449048Y-16298524D01*
X4449048Y-16298524D02*
X4458572Y-16317571D01*
X4458572Y-16317571D02*
X4468095Y-16355667D01*
X4468095Y-16355667D02*
X4468095Y-16403286D01*
X4468095Y-16403286D02*
X4458572Y-16441381D01*
X4458572Y-16441381D02*
X4449048Y-16460428D01*
X4449048Y-16460428D02*
X4439524Y-16469952D01*
X4439524Y-16469952D02*
X4420476Y-16479476D01*
X4420476Y-16479476D02*
X4401429Y-16479476D01*
X4401429Y-16479476D02*
X4382381Y-16469952D01*
X4382381Y-16469952D02*
X4372857Y-16460428D01*
X4372857Y-16460428D02*
X4363333Y-16441381D01*
X4363333Y-16441381D02*
X4353810Y-16403286D01*
X4353810Y-16403286D02*
X4353810Y-16355667D01*
X4353810Y-16355667D02*
X4363333Y-16317571D01*
X4363333Y-16317571D02*
X4372857Y-16298524D01*
X4372857Y-16298524D02*
X4382381Y-16289000D01*
X4382381Y-16289000D02*
X4401429Y-16279476D01*
X4639524Y-16346143D02*
X4639524Y-16479476D01*
X4591905Y-16269952D02*
X4544286Y-16412809D01*
X4544286Y-16412809D02*
X4668095Y-16412809D01*
X4725238Y-16279476D02*
X4858572Y-16279476D01*
X4858572Y-16279476D02*
X4772857Y-16479476D01*
X4925238Y-16298524D02*
X4934762Y-16289000D01*
X4934762Y-16289000D02*
X4953810Y-16279476D01*
X4953810Y-16279476D02*
X5001429Y-16279476D01*
X5001429Y-16279476D02*
X5020476Y-16289000D01*
X5020476Y-16289000D02*
X5030000Y-16298524D01*
X5030000Y-16298524D02*
X5039524Y-16317571D01*
X5039524Y-16317571D02*
X5039524Y-16336619D01*
X5039524Y-16336619D02*
X5030000Y-16365190D01*
X5030000Y-16365190D02*
X4915714Y-16479476D01*
X4915714Y-16479476D02*
X5039524Y-16479476D01*
X5115714Y-16279476D02*
X5115714Y-16317571D01*
X5191905Y-16279476D02*
X5191905Y-16317571D01*
X5454762Y-16555667D02*
X5445238Y-16546143D01*
X5445238Y-16546143D02*
X5426191Y-16517571D01*
X5426191Y-16517571D02*
X5416667Y-16498524D01*
X5416667Y-16498524D02*
X5407143Y-16469952D01*
X5407143Y-16469952D02*
X5397619Y-16422333D01*
X5397619Y-16422333D02*
X5397619Y-16384238D01*
X5397619Y-16384238D02*
X5407143Y-16336619D01*
X5407143Y-16336619D02*
X5416667Y-16308048D01*
X5416667Y-16308048D02*
X5426191Y-16289000D01*
X5426191Y-16289000D02*
X5445238Y-16260428D01*
X5445238Y-16260428D02*
X5454762Y-16250905D01*
X5616667Y-16279476D02*
X5578572Y-16279476D01*
X5578572Y-16279476D02*
X5559524Y-16289000D01*
X5559524Y-16289000D02*
X5550000Y-16298524D01*
X5550000Y-16298524D02*
X5530953Y-16327095D01*
X5530953Y-16327095D02*
X5521429Y-16365190D01*
X5521429Y-16365190D02*
X5521429Y-16441381D01*
X5521429Y-16441381D02*
X5530953Y-16460428D01*
X5530953Y-16460428D02*
X5540476Y-16469952D01*
X5540476Y-16469952D02*
X5559524Y-16479476D01*
X5559524Y-16479476D02*
X5597619Y-16479476D01*
X5597619Y-16479476D02*
X5616667Y-16469952D01*
X5616667Y-16469952D02*
X5626191Y-16460428D01*
X5626191Y-16460428D02*
X5635714Y-16441381D01*
X5635714Y-16441381D02*
X5635714Y-16393762D01*
X5635714Y-16393762D02*
X5626191Y-16374714D01*
X5626191Y-16374714D02*
X5616667Y-16365190D01*
X5616667Y-16365190D02*
X5597619Y-16355667D01*
X5597619Y-16355667D02*
X5559524Y-16355667D01*
X5559524Y-16355667D02*
X5540476Y-16365190D01*
X5540476Y-16365190D02*
X5530953Y-16374714D01*
X5530953Y-16374714D02*
X5521429Y-16393762D01*
X5841429Y-16479476D02*
X5841429Y-16279476D01*
X5927143Y-16479476D02*
X5927143Y-16374714D01*
X5927143Y-16374714D02*
X5917619Y-16355667D01*
X5917619Y-16355667D02*
X5898572Y-16346143D01*
X5898572Y-16346143D02*
X5870000Y-16346143D01*
X5870000Y-16346143D02*
X5850952Y-16355667D01*
X5850952Y-16355667D02*
X5841429Y-16365190D01*
X6050952Y-16479476D02*
X6031905Y-16469952D01*
X6031905Y-16469952D02*
X6022381Y-16460428D01*
X6022381Y-16460428D02*
X6012857Y-16441381D01*
X6012857Y-16441381D02*
X6012857Y-16384238D01*
X6012857Y-16384238D02*
X6022381Y-16365190D01*
X6022381Y-16365190D02*
X6031905Y-16355667D01*
X6031905Y-16355667D02*
X6050952Y-16346143D01*
X6050952Y-16346143D02*
X6079524Y-16346143D01*
X6079524Y-16346143D02*
X6098572Y-16355667D01*
X6098572Y-16355667D02*
X6108095Y-16365190D01*
X6108095Y-16365190D02*
X6117619Y-16384238D01*
X6117619Y-16384238D02*
X6117619Y-16441381D01*
X6117619Y-16441381D02*
X6108095Y-16460428D01*
X6108095Y-16460428D02*
X6098572Y-16469952D01*
X6098572Y-16469952D02*
X6079524Y-16479476D01*
X6079524Y-16479476D02*
X6050952Y-16479476D01*
X6231905Y-16479476D02*
X6212857Y-16469952D01*
X6212857Y-16469952D02*
X6203333Y-16450905D01*
X6203333Y-16450905D02*
X6203333Y-16279476D01*
X6384286Y-16469952D02*
X6365238Y-16479476D01*
X6365238Y-16479476D02*
X6327143Y-16479476D01*
X6327143Y-16479476D02*
X6308095Y-16469952D01*
X6308095Y-16469952D02*
X6298572Y-16450905D01*
X6298572Y-16450905D02*
X6298572Y-16374714D01*
X6298572Y-16374714D02*
X6308095Y-16355667D01*
X6308095Y-16355667D02*
X6327143Y-16346143D01*
X6327143Y-16346143D02*
X6365238Y-16346143D01*
X6365238Y-16346143D02*
X6384286Y-16355667D01*
X6384286Y-16355667D02*
X6393810Y-16374714D01*
X6393810Y-16374714D02*
X6393810Y-16393762D01*
X6393810Y-16393762D02*
X6298572Y-16412809D01*
X6470000Y-16469952D02*
X6489048Y-16479476D01*
X6489048Y-16479476D02*
X6527143Y-16479476D01*
X6527143Y-16479476D02*
X6546191Y-16469952D01*
X6546191Y-16469952D02*
X6555714Y-16450905D01*
X6555714Y-16450905D02*
X6555714Y-16441381D01*
X6555714Y-16441381D02*
X6546191Y-16422333D01*
X6546191Y-16422333D02*
X6527143Y-16412809D01*
X6527143Y-16412809D02*
X6498572Y-16412809D01*
X6498572Y-16412809D02*
X6479524Y-16403286D01*
X6479524Y-16403286D02*
X6470000Y-16384238D01*
X6470000Y-16384238D02*
X6470000Y-16374714D01*
X6470000Y-16374714D02*
X6479524Y-16355667D01*
X6479524Y-16355667D02*
X6498572Y-16346143D01*
X6498572Y-16346143D02*
X6527143Y-16346143D01*
X6527143Y-16346143D02*
X6546191Y-16355667D01*
X6622381Y-16555667D02*
X6631905Y-16546143D01*
X6631905Y-16546143D02*
X6650953Y-16517571D01*
X6650953Y-16517571D02*
X6660476Y-16498524D01*
X6660476Y-16498524D02*
X6670000Y-16469952D01*
X6670000Y-16469952D02*
X6679524Y-16422333D01*
X6679524Y-16422333D02*
X6679524Y-16384238D01*
X6679524Y-16384238D02*
X6670000Y-16336619D01*
X6670000Y-16336619D02*
X6660476Y-16308048D01*
X6660476Y-16308048D02*
X6650953Y-16289000D01*
X6650953Y-16289000D02*
X6631905Y-16260428D01*
X6631905Y-16260428D02*
X6622381Y-16250905D01*
D16*
X1865000Y-16607500D02*
X1990000Y-16732500D01*
X1990000Y-16607500D02*
X1865000Y-16732500D01*
X1990000Y-16670000D02*
G75*
G03*
X1990000Y-16670000I-62500J0D01*
G01*
D10*
X2342381Y-16743476D02*
X2228095Y-16743476D01*
X2285238Y-16743476D02*
X2285238Y-16543476D01*
X2285238Y-16543476D02*
X2266190Y-16572048D01*
X2266190Y-16572048D02*
X2247143Y-16591095D01*
X2247143Y-16591095D02*
X2228095Y-16600619D01*
X2428095Y-16724428D02*
X2437619Y-16733952D01*
X2437619Y-16733952D02*
X2428095Y-16743476D01*
X2428095Y-16743476D02*
X2418571Y-16733952D01*
X2418571Y-16733952D02*
X2428095Y-16724428D01*
X2428095Y-16724428D02*
X2428095Y-16743476D01*
X2513810Y-16562524D02*
X2523333Y-16553000D01*
X2523333Y-16553000D02*
X2542381Y-16543476D01*
X2542381Y-16543476D02*
X2590000Y-16543476D01*
X2590000Y-16543476D02*
X2609048Y-16553000D01*
X2609048Y-16553000D02*
X2618571Y-16562524D01*
X2618571Y-16562524D02*
X2628095Y-16581571D01*
X2628095Y-16581571D02*
X2628095Y-16600619D01*
X2628095Y-16600619D02*
X2618571Y-16629190D01*
X2618571Y-16629190D02*
X2504286Y-16743476D01*
X2504286Y-16743476D02*
X2628095Y-16743476D01*
X2809048Y-16543476D02*
X2713810Y-16543476D01*
X2713810Y-16543476D02*
X2704286Y-16638714D01*
X2704286Y-16638714D02*
X2713810Y-16629190D01*
X2713810Y-16629190D02*
X2732857Y-16619667D01*
X2732857Y-16619667D02*
X2780476Y-16619667D01*
X2780476Y-16619667D02*
X2799524Y-16629190D01*
X2799524Y-16629190D02*
X2809048Y-16638714D01*
X2809048Y-16638714D02*
X2818571Y-16657762D01*
X2818571Y-16657762D02*
X2818571Y-16705381D01*
X2818571Y-16705381D02*
X2809048Y-16724428D01*
X2809048Y-16724428D02*
X2799524Y-16733952D01*
X2799524Y-16733952D02*
X2780476Y-16743476D01*
X2780476Y-16743476D02*
X2732857Y-16743476D01*
X2732857Y-16743476D02*
X2713810Y-16733952D01*
X2713810Y-16733952D02*
X2704286Y-16724428D01*
X2942381Y-16543476D02*
X2961429Y-16543476D01*
X2961429Y-16543476D02*
X2980476Y-16553000D01*
X2980476Y-16553000D02*
X2990000Y-16562524D01*
X2990000Y-16562524D02*
X2999524Y-16581571D01*
X2999524Y-16581571D02*
X3009048Y-16619667D01*
X3009048Y-16619667D02*
X3009048Y-16667286D01*
X3009048Y-16667286D02*
X2999524Y-16705381D01*
X2999524Y-16705381D02*
X2990000Y-16724428D01*
X2990000Y-16724428D02*
X2980476Y-16733952D01*
X2980476Y-16733952D02*
X2961429Y-16743476D01*
X2961429Y-16743476D02*
X2942381Y-16743476D01*
X2942381Y-16743476D02*
X2923333Y-16733952D01*
X2923333Y-16733952D02*
X2913809Y-16724428D01*
X2913809Y-16724428D02*
X2904286Y-16705381D01*
X2904286Y-16705381D02*
X2894762Y-16667286D01*
X2894762Y-16667286D02*
X2894762Y-16619667D01*
X2894762Y-16619667D02*
X2904286Y-16581571D01*
X2904286Y-16581571D02*
X2913809Y-16562524D01*
X2913809Y-16562524D02*
X2923333Y-16553000D01*
X2923333Y-16553000D02*
X2942381Y-16543476D01*
X3094762Y-16743476D02*
X3094762Y-16610143D01*
X3094762Y-16629190D02*
X3104286Y-16619667D01*
X3104286Y-16619667D02*
X3123333Y-16610143D01*
X3123333Y-16610143D02*
X3151905Y-16610143D01*
X3151905Y-16610143D02*
X3170952Y-16619667D01*
X3170952Y-16619667D02*
X3180476Y-16638714D01*
X3180476Y-16638714D02*
X3180476Y-16743476D01*
X3180476Y-16638714D02*
X3190000Y-16619667D01*
X3190000Y-16619667D02*
X3209048Y-16610143D01*
X3209048Y-16610143D02*
X3237619Y-16610143D01*
X3237619Y-16610143D02*
X3256667Y-16619667D01*
X3256667Y-16619667D02*
X3266190Y-16638714D01*
X3266190Y-16638714D02*
X3266190Y-16743476D01*
X3361429Y-16743476D02*
X3361429Y-16610143D01*
X3361429Y-16629190D02*
X3370952Y-16619667D01*
X3370952Y-16619667D02*
X3390000Y-16610143D01*
X3390000Y-16610143D02*
X3418571Y-16610143D01*
X3418571Y-16610143D02*
X3437619Y-16619667D01*
X3437619Y-16619667D02*
X3447143Y-16638714D01*
X3447143Y-16638714D02*
X3447143Y-16743476D01*
X3447143Y-16638714D02*
X3456667Y-16619667D01*
X3456667Y-16619667D02*
X3475714Y-16610143D01*
X3475714Y-16610143D02*
X3504286Y-16610143D01*
X3504286Y-16610143D02*
X3523333Y-16619667D01*
X3523333Y-16619667D02*
X3532857Y-16638714D01*
X3532857Y-16638714D02*
X3532857Y-16743476D01*
X3890952Y-16533952D02*
X3719524Y-16791095D01*
X4115714Y-16543476D02*
X4134762Y-16543476D01*
X4134762Y-16543476D02*
X4153810Y-16553000D01*
X4153810Y-16553000D02*
X4163333Y-16562524D01*
X4163333Y-16562524D02*
X4172857Y-16581571D01*
X4172857Y-16581571D02*
X4182381Y-16619667D01*
X4182381Y-16619667D02*
X4182381Y-16667286D01*
X4182381Y-16667286D02*
X4172857Y-16705381D01*
X4172857Y-16705381D02*
X4163333Y-16724428D01*
X4163333Y-16724428D02*
X4153810Y-16733952D01*
X4153810Y-16733952D02*
X4134762Y-16743476D01*
X4134762Y-16743476D02*
X4115714Y-16743476D01*
X4115714Y-16743476D02*
X4096667Y-16733952D01*
X4096667Y-16733952D02*
X4087143Y-16724428D01*
X4087143Y-16724428D02*
X4077619Y-16705381D01*
X4077619Y-16705381D02*
X4068095Y-16667286D01*
X4068095Y-16667286D02*
X4068095Y-16619667D01*
X4068095Y-16619667D02*
X4077619Y-16581571D01*
X4077619Y-16581571D02*
X4087143Y-16562524D01*
X4087143Y-16562524D02*
X4096667Y-16553000D01*
X4096667Y-16553000D02*
X4115714Y-16543476D01*
X4268095Y-16724428D02*
X4277619Y-16733952D01*
X4277619Y-16733952D02*
X4268095Y-16743476D01*
X4268095Y-16743476D02*
X4258572Y-16733952D01*
X4258572Y-16733952D02*
X4268095Y-16724428D01*
X4268095Y-16724428D02*
X4268095Y-16743476D01*
X4401429Y-16543476D02*
X4420476Y-16543476D01*
X4420476Y-16543476D02*
X4439524Y-16553000D01*
X4439524Y-16553000D02*
X4449048Y-16562524D01*
X4449048Y-16562524D02*
X4458572Y-16581571D01*
X4458572Y-16581571D02*
X4468095Y-16619667D01*
X4468095Y-16619667D02*
X4468095Y-16667286D01*
X4468095Y-16667286D02*
X4458572Y-16705381D01*
X4458572Y-16705381D02*
X4449048Y-16724428D01*
X4449048Y-16724428D02*
X4439524Y-16733952D01*
X4439524Y-16733952D02*
X4420476Y-16743476D01*
X4420476Y-16743476D02*
X4401429Y-16743476D01*
X4401429Y-16743476D02*
X4382381Y-16733952D01*
X4382381Y-16733952D02*
X4372857Y-16724428D01*
X4372857Y-16724428D02*
X4363333Y-16705381D01*
X4363333Y-16705381D02*
X4353810Y-16667286D01*
X4353810Y-16667286D02*
X4353810Y-16619667D01*
X4353810Y-16619667D02*
X4363333Y-16581571D01*
X4363333Y-16581571D02*
X4372857Y-16562524D01*
X4372857Y-16562524D02*
X4382381Y-16553000D01*
X4382381Y-16553000D02*
X4401429Y-16543476D01*
X4639524Y-16610143D02*
X4639524Y-16743476D01*
X4591905Y-16533952D02*
X4544286Y-16676809D01*
X4544286Y-16676809D02*
X4668095Y-16676809D01*
X4753810Y-16743476D02*
X4791905Y-16743476D01*
X4791905Y-16743476D02*
X4810953Y-16733952D01*
X4810953Y-16733952D02*
X4820476Y-16724428D01*
X4820476Y-16724428D02*
X4839524Y-16695857D01*
X4839524Y-16695857D02*
X4849048Y-16657762D01*
X4849048Y-16657762D02*
X4849048Y-16581571D01*
X4849048Y-16581571D02*
X4839524Y-16562524D01*
X4839524Y-16562524D02*
X4830000Y-16553000D01*
X4830000Y-16553000D02*
X4810953Y-16543476D01*
X4810953Y-16543476D02*
X4772857Y-16543476D01*
X4772857Y-16543476D02*
X4753810Y-16553000D01*
X4753810Y-16553000D02*
X4744286Y-16562524D01*
X4744286Y-16562524D02*
X4734762Y-16581571D01*
X4734762Y-16581571D02*
X4734762Y-16629190D01*
X4734762Y-16629190D02*
X4744286Y-16648238D01*
X4744286Y-16648238D02*
X4753810Y-16657762D01*
X4753810Y-16657762D02*
X4772857Y-16667286D01*
X4772857Y-16667286D02*
X4810953Y-16667286D01*
X4810953Y-16667286D02*
X4830000Y-16657762D01*
X4830000Y-16657762D02*
X4839524Y-16648238D01*
X4839524Y-16648238D02*
X4849048Y-16629190D01*
X4925238Y-16562524D02*
X4934762Y-16553000D01*
X4934762Y-16553000D02*
X4953810Y-16543476D01*
X4953810Y-16543476D02*
X5001429Y-16543476D01*
X5001429Y-16543476D02*
X5020476Y-16553000D01*
X5020476Y-16553000D02*
X5030000Y-16562524D01*
X5030000Y-16562524D02*
X5039524Y-16581571D01*
X5039524Y-16581571D02*
X5039524Y-16600619D01*
X5039524Y-16600619D02*
X5030000Y-16629190D01*
X5030000Y-16629190D02*
X4915714Y-16743476D01*
X4915714Y-16743476D02*
X5039524Y-16743476D01*
X5115714Y-16543476D02*
X5115714Y-16581571D01*
X5191905Y-16543476D02*
X5191905Y-16581571D01*
X5454762Y-16819667D02*
X5445238Y-16810143D01*
X5445238Y-16810143D02*
X5426191Y-16781571D01*
X5426191Y-16781571D02*
X5416667Y-16762524D01*
X5416667Y-16762524D02*
X5407143Y-16733952D01*
X5407143Y-16733952D02*
X5397619Y-16686333D01*
X5397619Y-16686333D02*
X5397619Y-16648238D01*
X5397619Y-16648238D02*
X5407143Y-16600619D01*
X5407143Y-16600619D02*
X5416667Y-16572048D01*
X5416667Y-16572048D02*
X5426191Y-16553000D01*
X5426191Y-16553000D02*
X5445238Y-16524428D01*
X5445238Y-16524428D02*
X5454762Y-16514905D01*
X5635714Y-16743476D02*
X5521429Y-16743476D01*
X5578572Y-16743476D02*
X5578572Y-16543476D01*
X5578572Y-16543476D02*
X5559524Y-16572048D01*
X5559524Y-16572048D02*
X5540476Y-16591095D01*
X5540476Y-16591095D02*
X5521429Y-16600619D01*
X5711905Y-16562524D02*
X5721429Y-16553000D01*
X5721429Y-16553000D02*
X5740476Y-16543476D01*
X5740476Y-16543476D02*
X5788095Y-16543476D01*
X5788095Y-16543476D02*
X5807143Y-16553000D01*
X5807143Y-16553000D02*
X5816667Y-16562524D01*
X5816667Y-16562524D02*
X5826191Y-16581571D01*
X5826191Y-16581571D02*
X5826191Y-16600619D01*
X5826191Y-16600619D02*
X5816667Y-16629190D01*
X5816667Y-16629190D02*
X5702381Y-16743476D01*
X5702381Y-16743476D02*
X5826191Y-16743476D01*
X6031905Y-16743476D02*
X6031905Y-16543476D01*
X6117619Y-16743476D02*
X6117619Y-16638714D01*
X6117619Y-16638714D02*
X6108095Y-16619667D01*
X6108095Y-16619667D02*
X6089048Y-16610143D01*
X6089048Y-16610143D02*
X6060476Y-16610143D01*
X6060476Y-16610143D02*
X6041429Y-16619667D01*
X6041429Y-16619667D02*
X6031905Y-16629190D01*
X6241429Y-16743476D02*
X6222381Y-16733952D01*
X6222381Y-16733952D02*
X6212857Y-16724428D01*
X6212857Y-16724428D02*
X6203333Y-16705381D01*
X6203333Y-16705381D02*
X6203333Y-16648238D01*
X6203333Y-16648238D02*
X6212857Y-16629190D01*
X6212857Y-16629190D02*
X6222381Y-16619667D01*
X6222381Y-16619667D02*
X6241429Y-16610143D01*
X6241429Y-16610143D02*
X6270000Y-16610143D01*
X6270000Y-16610143D02*
X6289048Y-16619667D01*
X6289048Y-16619667D02*
X6298572Y-16629190D01*
X6298572Y-16629190D02*
X6308095Y-16648238D01*
X6308095Y-16648238D02*
X6308095Y-16705381D01*
X6308095Y-16705381D02*
X6298572Y-16724428D01*
X6298572Y-16724428D02*
X6289048Y-16733952D01*
X6289048Y-16733952D02*
X6270000Y-16743476D01*
X6270000Y-16743476D02*
X6241429Y-16743476D01*
X6422381Y-16743476D02*
X6403333Y-16733952D01*
X6403333Y-16733952D02*
X6393810Y-16714905D01*
X6393810Y-16714905D02*
X6393810Y-16543476D01*
X6574762Y-16733952D02*
X6555714Y-16743476D01*
X6555714Y-16743476D02*
X6517619Y-16743476D01*
X6517619Y-16743476D02*
X6498572Y-16733952D01*
X6498572Y-16733952D02*
X6489048Y-16714905D01*
X6489048Y-16714905D02*
X6489048Y-16638714D01*
X6489048Y-16638714D02*
X6498572Y-16619667D01*
X6498572Y-16619667D02*
X6517619Y-16610143D01*
X6517619Y-16610143D02*
X6555714Y-16610143D01*
X6555714Y-16610143D02*
X6574762Y-16619667D01*
X6574762Y-16619667D02*
X6584286Y-16638714D01*
X6584286Y-16638714D02*
X6584286Y-16657762D01*
X6584286Y-16657762D02*
X6489048Y-16676809D01*
X6660476Y-16733952D02*
X6679524Y-16743476D01*
X6679524Y-16743476D02*
X6717619Y-16743476D01*
X6717619Y-16743476D02*
X6736667Y-16733952D01*
X6736667Y-16733952D02*
X6746191Y-16714905D01*
X6746191Y-16714905D02*
X6746191Y-16705381D01*
X6746191Y-16705381D02*
X6736667Y-16686333D01*
X6736667Y-16686333D02*
X6717619Y-16676809D01*
X6717619Y-16676809D02*
X6689048Y-16676809D01*
X6689048Y-16676809D02*
X6670000Y-16667286D01*
X6670000Y-16667286D02*
X6660476Y-16648238D01*
X6660476Y-16648238D02*
X6660476Y-16638714D01*
X6660476Y-16638714D02*
X6670000Y-16619667D01*
X6670000Y-16619667D02*
X6689048Y-16610143D01*
X6689048Y-16610143D02*
X6717619Y-16610143D01*
X6717619Y-16610143D02*
X6736667Y-16619667D01*
X6812857Y-16819667D02*
X6822381Y-16810143D01*
X6822381Y-16810143D02*
X6841429Y-16781571D01*
X6841429Y-16781571D02*
X6850953Y-16762524D01*
X6850953Y-16762524D02*
X6860476Y-16733952D01*
X6860476Y-16733952D02*
X6870000Y-16686333D01*
X6870000Y-16686333D02*
X6870000Y-16648238D01*
X6870000Y-16648238D02*
X6860476Y-16600619D01*
X6860476Y-16600619D02*
X6850953Y-16572048D01*
X6850953Y-16572048D02*
X6841429Y-16553000D01*
X6841429Y-16553000D02*
X6822381Y-16524428D01*
X6822381Y-16524428D02*
X6812857Y-16514905D01*
D17*
X1860000Y-16869000D02*
X1990000Y-16999000D01*
X1990000Y-16869000D02*
X1860000Y-16999000D01*
X1925000Y-16869000D02*
X1925000Y-16999000D01*
X1860000Y-16934000D02*
X1990000Y-16934000D01*
D10*
X2342381Y-17007476D02*
X2228095Y-17007476D01*
X2285238Y-17007476D02*
X2285238Y-16807476D01*
X2285238Y-16807476D02*
X2266190Y-16836048D01*
X2266190Y-16836048D02*
X2247143Y-16855095D01*
X2247143Y-16855095D02*
X2228095Y-16864619D01*
X2428095Y-16988429D02*
X2437619Y-16997952D01*
X2437619Y-16997952D02*
X2428095Y-17007476D01*
X2428095Y-17007476D02*
X2418571Y-16997952D01*
X2418571Y-16997952D02*
X2428095Y-16988429D01*
X2428095Y-16988429D02*
X2428095Y-17007476D01*
X2504286Y-16807476D02*
X2628095Y-16807476D01*
X2628095Y-16807476D02*
X2561429Y-16883667D01*
X2561429Y-16883667D02*
X2590000Y-16883667D01*
X2590000Y-16883667D02*
X2609048Y-16893190D01*
X2609048Y-16893190D02*
X2618571Y-16902714D01*
X2618571Y-16902714D02*
X2628095Y-16921762D01*
X2628095Y-16921762D02*
X2628095Y-16969381D01*
X2628095Y-16969381D02*
X2618571Y-16988429D01*
X2618571Y-16988429D02*
X2609048Y-16997952D01*
X2609048Y-16997952D02*
X2590000Y-17007476D01*
X2590000Y-17007476D02*
X2532857Y-17007476D01*
X2532857Y-17007476D02*
X2513810Y-16997952D01*
X2513810Y-16997952D02*
X2504286Y-16988429D01*
X2751905Y-16807476D02*
X2770952Y-16807476D01*
X2770952Y-16807476D02*
X2790000Y-16817000D01*
X2790000Y-16817000D02*
X2799524Y-16826524D01*
X2799524Y-16826524D02*
X2809048Y-16845571D01*
X2809048Y-16845571D02*
X2818571Y-16883667D01*
X2818571Y-16883667D02*
X2818571Y-16931286D01*
X2818571Y-16931286D02*
X2809048Y-16969381D01*
X2809048Y-16969381D02*
X2799524Y-16988429D01*
X2799524Y-16988429D02*
X2790000Y-16997952D01*
X2790000Y-16997952D02*
X2770952Y-17007476D01*
X2770952Y-17007476D02*
X2751905Y-17007476D01*
X2751905Y-17007476D02*
X2732857Y-16997952D01*
X2732857Y-16997952D02*
X2723333Y-16988429D01*
X2723333Y-16988429D02*
X2713810Y-16969381D01*
X2713810Y-16969381D02*
X2704286Y-16931286D01*
X2704286Y-16931286D02*
X2704286Y-16883667D01*
X2704286Y-16883667D02*
X2713810Y-16845571D01*
X2713810Y-16845571D02*
X2723333Y-16826524D01*
X2723333Y-16826524D02*
X2732857Y-16817000D01*
X2732857Y-16817000D02*
X2751905Y-16807476D01*
X2942381Y-16807476D02*
X2961429Y-16807476D01*
X2961429Y-16807476D02*
X2980476Y-16817000D01*
X2980476Y-16817000D02*
X2990000Y-16826524D01*
X2990000Y-16826524D02*
X2999524Y-16845571D01*
X2999524Y-16845571D02*
X3009048Y-16883667D01*
X3009048Y-16883667D02*
X3009048Y-16931286D01*
X3009048Y-16931286D02*
X2999524Y-16969381D01*
X2999524Y-16969381D02*
X2990000Y-16988429D01*
X2990000Y-16988429D02*
X2980476Y-16997952D01*
X2980476Y-16997952D02*
X2961429Y-17007476D01*
X2961429Y-17007476D02*
X2942381Y-17007476D01*
X2942381Y-17007476D02*
X2923333Y-16997952D01*
X2923333Y-16997952D02*
X2913809Y-16988429D01*
X2913809Y-16988429D02*
X2904286Y-16969381D01*
X2904286Y-16969381D02*
X2894762Y-16931286D01*
X2894762Y-16931286D02*
X2894762Y-16883667D01*
X2894762Y-16883667D02*
X2904286Y-16845571D01*
X2904286Y-16845571D02*
X2913809Y-16826524D01*
X2913809Y-16826524D02*
X2923333Y-16817000D01*
X2923333Y-16817000D02*
X2942381Y-16807476D01*
X3094762Y-17007476D02*
X3094762Y-16874143D01*
X3094762Y-16893190D02*
X3104286Y-16883667D01*
X3104286Y-16883667D02*
X3123333Y-16874143D01*
X3123333Y-16874143D02*
X3151905Y-16874143D01*
X3151905Y-16874143D02*
X3170952Y-16883667D01*
X3170952Y-16883667D02*
X3180476Y-16902714D01*
X3180476Y-16902714D02*
X3180476Y-17007476D01*
X3180476Y-16902714D02*
X3190000Y-16883667D01*
X3190000Y-16883667D02*
X3209048Y-16874143D01*
X3209048Y-16874143D02*
X3237619Y-16874143D01*
X3237619Y-16874143D02*
X3256667Y-16883667D01*
X3256667Y-16883667D02*
X3266190Y-16902714D01*
X3266190Y-16902714D02*
X3266190Y-17007476D01*
X3361429Y-17007476D02*
X3361429Y-16874143D01*
X3361429Y-16893190D02*
X3370952Y-16883667D01*
X3370952Y-16883667D02*
X3390000Y-16874143D01*
X3390000Y-16874143D02*
X3418571Y-16874143D01*
X3418571Y-16874143D02*
X3437619Y-16883667D01*
X3437619Y-16883667D02*
X3447143Y-16902714D01*
X3447143Y-16902714D02*
X3447143Y-17007476D01*
X3447143Y-16902714D02*
X3456667Y-16883667D01*
X3456667Y-16883667D02*
X3475714Y-16874143D01*
X3475714Y-16874143D02*
X3504286Y-16874143D01*
X3504286Y-16874143D02*
X3523333Y-16883667D01*
X3523333Y-16883667D02*
X3532857Y-16902714D01*
X3532857Y-16902714D02*
X3532857Y-17007476D01*
X3890952Y-16797952D02*
X3719524Y-17055095D01*
X4115714Y-16807476D02*
X4134762Y-16807476D01*
X4134762Y-16807476D02*
X4153810Y-16817000D01*
X4153810Y-16817000D02*
X4163333Y-16826524D01*
X4163333Y-16826524D02*
X4172857Y-16845571D01*
X4172857Y-16845571D02*
X4182381Y-16883667D01*
X4182381Y-16883667D02*
X4182381Y-16931286D01*
X4182381Y-16931286D02*
X4172857Y-16969381D01*
X4172857Y-16969381D02*
X4163333Y-16988429D01*
X4163333Y-16988429D02*
X4153810Y-16997952D01*
X4153810Y-16997952D02*
X4134762Y-17007476D01*
X4134762Y-17007476D02*
X4115714Y-17007476D01*
X4115714Y-17007476D02*
X4096667Y-16997952D01*
X4096667Y-16997952D02*
X4087143Y-16988429D01*
X4087143Y-16988429D02*
X4077619Y-16969381D01*
X4077619Y-16969381D02*
X4068095Y-16931286D01*
X4068095Y-16931286D02*
X4068095Y-16883667D01*
X4068095Y-16883667D02*
X4077619Y-16845571D01*
X4077619Y-16845571D02*
X4087143Y-16826524D01*
X4087143Y-16826524D02*
X4096667Y-16817000D01*
X4096667Y-16817000D02*
X4115714Y-16807476D01*
X4268095Y-16988429D02*
X4277619Y-16997952D01*
X4277619Y-16997952D02*
X4268095Y-17007476D01*
X4268095Y-17007476D02*
X4258572Y-16997952D01*
X4258572Y-16997952D02*
X4268095Y-16988429D01*
X4268095Y-16988429D02*
X4268095Y-17007476D01*
X4401429Y-16807476D02*
X4420476Y-16807476D01*
X4420476Y-16807476D02*
X4439524Y-16817000D01*
X4439524Y-16817000D02*
X4449048Y-16826524D01*
X4449048Y-16826524D02*
X4458572Y-16845571D01*
X4458572Y-16845571D02*
X4468095Y-16883667D01*
X4468095Y-16883667D02*
X4468095Y-16931286D01*
X4468095Y-16931286D02*
X4458572Y-16969381D01*
X4458572Y-16969381D02*
X4449048Y-16988429D01*
X4449048Y-16988429D02*
X4439524Y-16997952D01*
X4439524Y-16997952D02*
X4420476Y-17007476D01*
X4420476Y-17007476D02*
X4401429Y-17007476D01*
X4401429Y-17007476D02*
X4382381Y-16997952D01*
X4382381Y-16997952D02*
X4372857Y-16988429D01*
X4372857Y-16988429D02*
X4363333Y-16969381D01*
X4363333Y-16969381D02*
X4353810Y-16931286D01*
X4353810Y-16931286D02*
X4353810Y-16883667D01*
X4353810Y-16883667D02*
X4363333Y-16845571D01*
X4363333Y-16845571D02*
X4372857Y-16826524D01*
X4372857Y-16826524D02*
X4382381Y-16817000D01*
X4382381Y-16817000D02*
X4401429Y-16807476D01*
X4649048Y-16807476D02*
X4553810Y-16807476D01*
X4553810Y-16807476D02*
X4544286Y-16902714D01*
X4544286Y-16902714D02*
X4553810Y-16893190D01*
X4553810Y-16893190D02*
X4572857Y-16883667D01*
X4572857Y-16883667D02*
X4620476Y-16883667D01*
X4620476Y-16883667D02*
X4639524Y-16893190D01*
X4639524Y-16893190D02*
X4649048Y-16902714D01*
X4649048Y-16902714D02*
X4658572Y-16921762D01*
X4658572Y-16921762D02*
X4658572Y-16969381D01*
X4658572Y-16969381D02*
X4649048Y-16988429D01*
X4649048Y-16988429D02*
X4639524Y-16997952D01*
X4639524Y-16997952D02*
X4620476Y-17007476D01*
X4620476Y-17007476D02*
X4572857Y-17007476D01*
X4572857Y-17007476D02*
X4553810Y-16997952D01*
X4553810Y-16997952D02*
X4544286Y-16988429D01*
X4849048Y-17007476D02*
X4734762Y-17007476D01*
X4791905Y-17007476D02*
X4791905Y-16807476D01*
X4791905Y-16807476D02*
X4772857Y-16836048D01*
X4772857Y-16836048D02*
X4753810Y-16855095D01*
X4753810Y-16855095D02*
X4734762Y-16864619D01*
X4925238Y-16826524D02*
X4934762Y-16817000D01*
X4934762Y-16817000D02*
X4953810Y-16807476D01*
X4953810Y-16807476D02*
X5001429Y-16807476D01*
X5001429Y-16807476D02*
X5020476Y-16817000D01*
X5020476Y-16817000D02*
X5030000Y-16826524D01*
X5030000Y-16826524D02*
X5039524Y-16845571D01*
X5039524Y-16845571D02*
X5039524Y-16864619D01*
X5039524Y-16864619D02*
X5030000Y-16893190D01*
X5030000Y-16893190D02*
X4915714Y-17007476D01*
X4915714Y-17007476D02*
X5039524Y-17007476D01*
X5115714Y-16807476D02*
X5115714Y-16845571D01*
X5191905Y-16807476D02*
X5191905Y-16845571D01*
X5454762Y-17083667D02*
X5445238Y-17074143D01*
X5445238Y-17074143D02*
X5426191Y-17045571D01*
X5426191Y-17045571D02*
X5416667Y-17026524D01*
X5416667Y-17026524D02*
X5407143Y-16997952D01*
X5407143Y-16997952D02*
X5397619Y-16950333D01*
X5397619Y-16950333D02*
X5397619Y-16912238D01*
X5397619Y-16912238D02*
X5407143Y-16864619D01*
X5407143Y-16864619D02*
X5416667Y-16836048D01*
X5416667Y-16836048D02*
X5426191Y-16817000D01*
X5426191Y-16817000D02*
X5445238Y-16788429D01*
X5445238Y-16788429D02*
X5454762Y-16778905D01*
X5616667Y-16807476D02*
X5578572Y-16807476D01*
X5578572Y-16807476D02*
X5559524Y-16817000D01*
X5559524Y-16817000D02*
X5550000Y-16826524D01*
X5550000Y-16826524D02*
X5530953Y-16855095D01*
X5530953Y-16855095D02*
X5521429Y-16893190D01*
X5521429Y-16893190D02*
X5521429Y-16969381D01*
X5521429Y-16969381D02*
X5530953Y-16988429D01*
X5530953Y-16988429D02*
X5540476Y-16997952D01*
X5540476Y-16997952D02*
X5559524Y-17007476D01*
X5559524Y-17007476D02*
X5597619Y-17007476D01*
X5597619Y-17007476D02*
X5616667Y-16997952D01*
X5616667Y-16997952D02*
X5626191Y-16988429D01*
X5626191Y-16988429D02*
X5635714Y-16969381D01*
X5635714Y-16969381D02*
X5635714Y-16921762D01*
X5635714Y-16921762D02*
X5626191Y-16902714D01*
X5626191Y-16902714D02*
X5616667Y-16893190D01*
X5616667Y-16893190D02*
X5597619Y-16883667D01*
X5597619Y-16883667D02*
X5559524Y-16883667D01*
X5559524Y-16883667D02*
X5540476Y-16893190D01*
X5540476Y-16893190D02*
X5530953Y-16902714D01*
X5530953Y-16902714D02*
X5521429Y-16921762D01*
X5841429Y-17007476D02*
X5841429Y-16807476D01*
X5927143Y-17007476D02*
X5927143Y-16902714D01*
X5927143Y-16902714D02*
X5917619Y-16883667D01*
X5917619Y-16883667D02*
X5898572Y-16874143D01*
X5898572Y-16874143D02*
X5870000Y-16874143D01*
X5870000Y-16874143D02*
X5850952Y-16883667D01*
X5850952Y-16883667D02*
X5841429Y-16893190D01*
X6050952Y-17007476D02*
X6031905Y-16997952D01*
X6031905Y-16997952D02*
X6022381Y-16988429D01*
X6022381Y-16988429D02*
X6012857Y-16969381D01*
X6012857Y-16969381D02*
X6012857Y-16912238D01*
X6012857Y-16912238D02*
X6022381Y-16893190D01*
X6022381Y-16893190D02*
X6031905Y-16883667D01*
X6031905Y-16883667D02*
X6050952Y-16874143D01*
X6050952Y-16874143D02*
X6079524Y-16874143D01*
X6079524Y-16874143D02*
X6098572Y-16883667D01*
X6098572Y-16883667D02*
X6108095Y-16893190D01*
X6108095Y-16893190D02*
X6117619Y-16912238D01*
X6117619Y-16912238D02*
X6117619Y-16969381D01*
X6117619Y-16969381D02*
X6108095Y-16988429D01*
X6108095Y-16988429D02*
X6098572Y-16997952D01*
X6098572Y-16997952D02*
X6079524Y-17007476D01*
X6079524Y-17007476D02*
X6050952Y-17007476D01*
X6231905Y-17007476D02*
X6212857Y-16997952D01*
X6212857Y-16997952D02*
X6203333Y-16978905D01*
X6203333Y-16978905D02*
X6203333Y-16807476D01*
X6384286Y-16997952D02*
X6365238Y-17007476D01*
X6365238Y-17007476D02*
X6327143Y-17007476D01*
X6327143Y-17007476D02*
X6308095Y-16997952D01*
X6308095Y-16997952D02*
X6298572Y-16978905D01*
X6298572Y-16978905D02*
X6298572Y-16902714D01*
X6298572Y-16902714D02*
X6308095Y-16883667D01*
X6308095Y-16883667D02*
X6327143Y-16874143D01*
X6327143Y-16874143D02*
X6365238Y-16874143D01*
X6365238Y-16874143D02*
X6384286Y-16883667D01*
X6384286Y-16883667D02*
X6393810Y-16902714D01*
X6393810Y-16902714D02*
X6393810Y-16921762D01*
X6393810Y-16921762D02*
X6298572Y-16940810D01*
X6470000Y-16997952D02*
X6489048Y-17007476D01*
X6489048Y-17007476D02*
X6527143Y-17007476D01*
X6527143Y-17007476D02*
X6546191Y-16997952D01*
X6546191Y-16997952D02*
X6555714Y-16978905D01*
X6555714Y-16978905D02*
X6555714Y-16969381D01*
X6555714Y-16969381D02*
X6546191Y-16950333D01*
X6546191Y-16950333D02*
X6527143Y-16940810D01*
X6527143Y-16940810D02*
X6498572Y-16940810D01*
X6498572Y-16940810D02*
X6479524Y-16931286D01*
X6479524Y-16931286D02*
X6470000Y-16912238D01*
X6470000Y-16912238D02*
X6470000Y-16902714D01*
X6470000Y-16902714D02*
X6479524Y-16883667D01*
X6479524Y-16883667D02*
X6498572Y-16874143D01*
X6498572Y-16874143D02*
X6527143Y-16874143D01*
X6527143Y-16874143D02*
X6546191Y-16883667D01*
X6622381Y-17083667D02*
X6631905Y-17074143D01*
X6631905Y-17074143D02*
X6650953Y-17045571D01*
X6650953Y-17045571D02*
X6660476Y-17026524D01*
X6660476Y-17026524D02*
X6670000Y-16997952D01*
X6670000Y-16997952D02*
X6679524Y-16950333D01*
X6679524Y-16950333D02*
X6679524Y-16912238D01*
X6679524Y-16912238D02*
X6670000Y-16864619D01*
X6670000Y-16864619D02*
X6660476Y-16836048D01*
X6660476Y-16836048D02*
X6650953Y-16817000D01*
X6650953Y-16817000D02*
X6631905Y-16788429D01*
X6631905Y-16788429D02*
X6622381Y-16778905D01*
D18*
X1837600Y-17121800D02*
X1990000Y-17274200D01*
X1990000Y-17121800D02*
X1837600Y-17274200D01*
X1967682Y-17251882D02*
X1967682Y-17144118D01*
X1859918Y-17144118D01*
X1859918Y-17251882D01*
X1967682Y-17251882D01*
D10*
X2342381Y-17271476D02*
X2228095Y-17271476D01*
X2285238Y-17271476D02*
X2285238Y-17071476D01*
X2285238Y-17071476D02*
X2266190Y-17100048D01*
X2266190Y-17100048D02*
X2247143Y-17119095D01*
X2247143Y-17119095D02*
X2228095Y-17128619D01*
X2428095Y-17252429D02*
X2437619Y-17261952D01*
X2437619Y-17261952D02*
X2428095Y-17271476D01*
X2428095Y-17271476D02*
X2418571Y-17261952D01*
X2418571Y-17261952D02*
X2428095Y-17252429D01*
X2428095Y-17252429D02*
X2428095Y-17271476D01*
X2618571Y-17071476D02*
X2523333Y-17071476D01*
X2523333Y-17071476D02*
X2513810Y-17166714D01*
X2513810Y-17166714D02*
X2523333Y-17157190D01*
X2523333Y-17157190D02*
X2542381Y-17147667D01*
X2542381Y-17147667D02*
X2590000Y-17147667D01*
X2590000Y-17147667D02*
X2609048Y-17157190D01*
X2609048Y-17157190D02*
X2618571Y-17166714D01*
X2618571Y-17166714D02*
X2628095Y-17185762D01*
X2628095Y-17185762D02*
X2628095Y-17233381D01*
X2628095Y-17233381D02*
X2618571Y-17252429D01*
X2618571Y-17252429D02*
X2609048Y-17261952D01*
X2609048Y-17261952D02*
X2590000Y-17271476D01*
X2590000Y-17271476D02*
X2542381Y-17271476D01*
X2542381Y-17271476D02*
X2523333Y-17261952D01*
X2523333Y-17261952D02*
X2513810Y-17252429D01*
X2704286Y-17090524D02*
X2713810Y-17081000D01*
X2713810Y-17081000D02*
X2732857Y-17071476D01*
X2732857Y-17071476D02*
X2780476Y-17071476D01*
X2780476Y-17071476D02*
X2799524Y-17081000D01*
X2799524Y-17081000D02*
X2809048Y-17090524D01*
X2809048Y-17090524D02*
X2818571Y-17109571D01*
X2818571Y-17109571D02*
X2818571Y-17128619D01*
X2818571Y-17128619D02*
X2809048Y-17157190D01*
X2809048Y-17157190D02*
X2694762Y-17271476D01*
X2694762Y-17271476D02*
X2818571Y-17271476D01*
X2990000Y-17138143D02*
X2990000Y-17271476D01*
X2942381Y-17061952D02*
X2894762Y-17204810D01*
X2894762Y-17204810D02*
X3018571Y-17204810D01*
X3094762Y-17271476D02*
X3094762Y-17138143D01*
X3094762Y-17157190D02*
X3104286Y-17147667D01*
X3104286Y-17147667D02*
X3123333Y-17138143D01*
X3123333Y-17138143D02*
X3151905Y-17138143D01*
X3151905Y-17138143D02*
X3170952Y-17147667D01*
X3170952Y-17147667D02*
X3180476Y-17166714D01*
X3180476Y-17166714D02*
X3180476Y-17271476D01*
X3180476Y-17166714D02*
X3190000Y-17147667D01*
X3190000Y-17147667D02*
X3209048Y-17138143D01*
X3209048Y-17138143D02*
X3237619Y-17138143D01*
X3237619Y-17138143D02*
X3256667Y-17147667D01*
X3256667Y-17147667D02*
X3266190Y-17166714D01*
X3266190Y-17166714D02*
X3266190Y-17271476D01*
X3361429Y-17271476D02*
X3361429Y-17138143D01*
X3361429Y-17157190D02*
X3370952Y-17147667D01*
X3370952Y-17147667D02*
X3390000Y-17138143D01*
X3390000Y-17138143D02*
X3418571Y-17138143D01*
X3418571Y-17138143D02*
X3437619Y-17147667D01*
X3437619Y-17147667D02*
X3447143Y-17166714D01*
X3447143Y-17166714D02*
X3447143Y-17271476D01*
X3447143Y-17166714D02*
X3456667Y-17147667D01*
X3456667Y-17147667D02*
X3475714Y-17138143D01*
X3475714Y-17138143D02*
X3504286Y-17138143D01*
X3504286Y-17138143D02*
X3523333Y-17147667D01*
X3523333Y-17147667D02*
X3532857Y-17166714D01*
X3532857Y-17166714D02*
X3532857Y-17271476D01*
X3890952Y-17061952D02*
X3719524Y-17319095D01*
X4115714Y-17071476D02*
X4134762Y-17071476D01*
X4134762Y-17071476D02*
X4153810Y-17081000D01*
X4153810Y-17081000D02*
X4163333Y-17090524D01*
X4163333Y-17090524D02*
X4172857Y-17109571D01*
X4172857Y-17109571D02*
X4182381Y-17147667D01*
X4182381Y-17147667D02*
X4182381Y-17195286D01*
X4182381Y-17195286D02*
X4172857Y-17233381D01*
X4172857Y-17233381D02*
X4163333Y-17252429D01*
X4163333Y-17252429D02*
X4153810Y-17261952D01*
X4153810Y-17261952D02*
X4134762Y-17271476D01*
X4134762Y-17271476D02*
X4115714Y-17271476D01*
X4115714Y-17271476D02*
X4096667Y-17261952D01*
X4096667Y-17261952D02*
X4087143Y-17252429D01*
X4087143Y-17252429D02*
X4077619Y-17233381D01*
X4077619Y-17233381D02*
X4068095Y-17195286D01*
X4068095Y-17195286D02*
X4068095Y-17147667D01*
X4068095Y-17147667D02*
X4077619Y-17109571D01*
X4077619Y-17109571D02*
X4087143Y-17090524D01*
X4087143Y-17090524D02*
X4096667Y-17081000D01*
X4096667Y-17081000D02*
X4115714Y-17071476D01*
X4268095Y-17252429D02*
X4277619Y-17261952D01*
X4277619Y-17261952D02*
X4268095Y-17271476D01*
X4268095Y-17271476D02*
X4258572Y-17261952D01*
X4258572Y-17261952D02*
X4268095Y-17252429D01*
X4268095Y-17252429D02*
X4268095Y-17271476D01*
X4401429Y-17071476D02*
X4420476Y-17071476D01*
X4420476Y-17071476D02*
X4439524Y-17081000D01*
X4439524Y-17081000D02*
X4449048Y-17090524D01*
X4449048Y-17090524D02*
X4458572Y-17109571D01*
X4458572Y-17109571D02*
X4468095Y-17147667D01*
X4468095Y-17147667D02*
X4468095Y-17195286D01*
X4468095Y-17195286D02*
X4458572Y-17233381D01*
X4458572Y-17233381D02*
X4449048Y-17252429D01*
X4449048Y-17252429D02*
X4439524Y-17261952D01*
X4439524Y-17261952D02*
X4420476Y-17271476D01*
X4420476Y-17271476D02*
X4401429Y-17271476D01*
X4401429Y-17271476D02*
X4382381Y-17261952D01*
X4382381Y-17261952D02*
X4372857Y-17252429D01*
X4372857Y-17252429D02*
X4363333Y-17233381D01*
X4363333Y-17233381D02*
X4353810Y-17195286D01*
X4353810Y-17195286D02*
X4353810Y-17147667D01*
X4353810Y-17147667D02*
X4363333Y-17109571D01*
X4363333Y-17109571D02*
X4372857Y-17090524D01*
X4372857Y-17090524D02*
X4382381Y-17081000D01*
X4382381Y-17081000D02*
X4401429Y-17071476D01*
X4639524Y-17071476D02*
X4601429Y-17071476D01*
X4601429Y-17071476D02*
X4582381Y-17081000D01*
X4582381Y-17081000D02*
X4572857Y-17090524D01*
X4572857Y-17090524D02*
X4553810Y-17119095D01*
X4553810Y-17119095D02*
X4544286Y-17157190D01*
X4544286Y-17157190D02*
X4544286Y-17233381D01*
X4544286Y-17233381D02*
X4553810Y-17252429D01*
X4553810Y-17252429D02*
X4563333Y-17261952D01*
X4563333Y-17261952D02*
X4582381Y-17271476D01*
X4582381Y-17271476D02*
X4620476Y-17271476D01*
X4620476Y-17271476D02*
X4639524Y-17261952D01*
X4639524Y-17261952D02*
X4649048Y-17252429D01*
X4649048Y-17252429D02*
X4658572Y-17233381D01*
X4658572Y-17233381D02*
X4658572Y-17185762D01*
X4658572Y-17185762D02*
X4649048Y-17166714D01*
X4649048Y-17166714D02*
X4639524Y-17157190D01*
X4639524Y-17157190D02*
X4620476Y-17147667D01*
X4620476Y-17147667D02*
X4582381Y-17147667D01*
X4582381Y-17147667D02*
X4563333Y-17157190D01*
X4563333Y-17157190D02*
X4553810Y-17166714D01*
X4553810Y-17166714D02*
X4544286Y-17185762D01*
X4782381Y-17071476D02*
X4801429Y-17071476D01*
X4801429Y-17071476D02*
X4820476Y-17081000D01*
X4820476Y-17081000D02*
X4830000Y-17090524D01*
X4830000Y-17090524D02*
X4839524Y-17109571D01*
X4839524Y-17109571D02*
X4849048Y-17147667D01*
X4849048Y-17147667D02*
X4849048Y-17195286D01*
X4849048Y-17195286D02*
X4839524Y-17233381D01*
X4839524Y-17233381D02*
X4830000Y-17252429D01*
X4830000Y-17252429D02*
X4820476Y-17261952D01*
X4820476Y-17261952D02*
X4801429Y-17271476D01*
X4801429Y-17271476D02*
X4782381Y-17271476D01*
X4782381Y-17271476D02*
X4763333Y-17261952D01*
X4763333Y-17261952D02*
X4753810Y-17252429D01*
X4753810Y-17252429D02*
X4744286Y-17233381D01*
X4744286Y-17233381D02*
X4734762Y-17195286D01*
X4734762Y-17195286D02*
X4734762Y-17147667D01*
X4734762Y-17147667D02*
X4744286Y-17109571D01*
X4744286Y-17109571D02*
X4753810Y-17090524D01*
X4753810Y-17090524D02*
X4763333Y-17081000D01*
X4763333Y-17081000D02*
X4782381Y-17071476D01*
X4972857Y-17071476D02*
X4991905Y-17071476D01*
X4991905Y-17071476D02*
X5010953Y-17081000D01*
X5010953Y-17081000D02*
X5020476Y-17090524D01*
X5020476Y-17090524D02*
X5030000Y-17109571D01*
X5030000Y-17109571D02*
X5039524Y-17147667D01*
X5039524Y-17147667D02*
X5039524Y-17195286D01*
X5039524Y-17195286D02*
X5030000Y-17233381D01*
X5030000Y-17233381D02*
X5020476Y-17252429D01*
X5020476Y-17252429D02*
X5010953Y-17261952D01*
X5010953Y-17261952D02*
X4991905Y-17271476D01*
X4991905Y-17271476D02*
X4972857Y-17271476D01*
X4972857Y-17271476D02*
X4953810Y-17261952D01*
X4953810Y-17261952D02*
X4944286Y-17252429D01*
X4944286Y-17252429D02*
X4934762Y-17233381D01*
X4934762Y-17233381D02*
X4925238Y-17195286D01*
X4925238Y-17195286D02*
X4925238Y-17147667D01*
X4925238Y-17147667D02*
X4934762Y-17109571D01*
X4934762Y-17109571D02*
X4944286Y-17090524D01*
X4944286Y-17090524D02*
X4953810Y-17081000D01*
X4953810Y-17081000D02*
X4972857Y-17071476D01*
X5115714Y-17071476D02*
X5115714Y-17109571D01*
X5191905Y-17071476D02*
X5191905Y-17109571D01*
X5454762Y-17347667D02*
X5445238Y-17338143D01*
X5445238Y-17338143D02*
X5426191Y-17309571D01*
X5426191Y-17309571D02*
X5416667Y-17290524D01*
X5416667Y-17290524D02*
X5407143Y-17261952D01*
X5407143Y-17261952D02*
X5397619Y-17214333D01*
X5397619Y-17214333D02*
X5397619Y-17176238D01*
X5397619Y-17176238D02*
X5407143Y-17128619D01*
X5407143Y-17128619D02*
X5416667Y-17100048D01*
X5416667Y-17100048D02*
X5426191Y-17081000D01*
X5426191Y-17081000D02*
X5445238Y-17052429D01*
X5445238Y-17052429D02*
X5454762Y-17042905D01*
X5521429Y-17090524D02*
X5530953Y-17081000D01*
X5530953Y-17081000D02*
X5550000Y-17071476D01*
X5550000Y-17071476D02*
X5597619Y-17071476D01*
X5597619Y-17071476D02*
X5616667Y-17081000D01*
X5616667Y-17081000D02*
X5626191Y-17090524D01*
X5626191Y-17090524D02*
X5635714Y-17109571D01*
X5635714Y-17109571D02*
X5635714Y-17128619D01*
X5635714Y-17128619D02*
X5626191Y-17157190D01*
X5626191Y-17157190D02*
X5511905Y-17271476D01*
X5511905Y-17271476D02*
X5635714Y-17271476D01*
X5807143Y-17138143D02*
X5807143Y-17271476D01*
X5759524Y-17061952D02*
X5711905Y-17204810D01*
X5711905Y-17204810D02*
X5835714Y-17204810D01*
X6031905Y-17271476D02*
X6031905Y-17071476D01*
X6117619Y-17271476D02*
X6117619Y-17166714D01*
X6117619Y-17166714D02*
X6108095Y-17147667D01*
X6108095Y-17147667D02*
X6089048Y-17138143D01*
X6089048Y-17138143D02*
X6060476Y-17138143D01*
X6060476Y-17138143D02*
X6041429Y-17147667D01*
X6041429Y-17147667D02*
X6031905Y-17157190D01*
X6241429Y-17271476D02*
X6222381Y-17261952D01*
X6222381Y-17261952D02*
X6212857Y-17252429D01*
X6212857Y-17252429D02*
X6203333Y-17233381D01*
X6203333Y-17233381D02*
X6203333Y-17176238D01*
X6203333Y-17176238D02*
X6212857Y-17157190D01*
X6212857Y-17157190D02*
X6222381Y-17147667D01*
X6222381Y-17147667D02*
X6241429Y-17138143D01*
X6241429Y-17138143D02*
X6270000Y-17138143D01*
X6270000Y-17138143D02*
X6289048Y-17147667D01*
X6289048Y-17147667D02*
X6298572Y-17157190D01*
X6298572Y-17157190D02*
X6308095Y-17176238D01*
X6308095Y-17176238D02*
X6308095Y-17233381D01*
X6308095Y-17233381D02*
X6298572Y-17252429D01*
X6298572Y-17252429D02*
X6289048Y-17261952D01*
X6289048Y-17261952D02*
X6270000Y-17271476D01*
X6270000Y-17271476D02*
X6241429Y-17271476D01*
X6422381Y-17271476D02*
X6403333Y-17261952D01*
X6403333Y-17261952D02*
X6393810Y-17242905D01*
X6393810Y-17242905D02*
X6393810Y-17071476D01*
X6574762Y-17261952D02*
X6555714Y-17271476D01*
X6555714Y-17271476D02*
X6517619Y-17271476D01*
X6517619Y-17271476D02*
X6498572Y-17261952D01*
X6498572Y-17261952D02*
X6489048Y-17242905D01*
X6489048Y-17242905D02*
X6489048Y-17166714D01*
X6489048Y-17166714D02*
X6498572Y-17147667D01*
X6498572Y-17147667D02*
X6517619Y-17138143D01*
X6517619Y-17138143D02*
X6555714Y-17138143D01*
X6555714Y-17138143D02*
X6574762Y-17147667D01*
X6574762Y-17147667D02*
X6584286Y-17166714D01*
X6584286Y-17166714D02*
X6584286Y-17185762D01*
X6584286Y-17185762D02*
X6489048Y-17204810D01*
X6660476Y-17261952D02*
X6679524Y-17271476D01*
X6679524Y-17271476D02*
X6717619Y-17271476D01*
X6717619Y-17271476D02*
X6736667Y-17261952D01*
X6736667Y-17261952D02*
X6746191Y-17242905D01*
X6746191Y-17242905D02*
X6746191Y-17233381D01*
X6746191Y-17233381D02*
X6736667Y-17214333D01*
X6736667Y-17214333D02*
X6717619Y-17204810D01*
X6717619Y-17204810D02*
X6689048Y-17204810D01*
X6689048Y-17204810D02*
X6670000Y-17195286D01*
X6670000Y-17195286D02*
X6660476Y-17176238D01*
X6660476Y-17176238D02*
X6660476Y-17166714D01*
X6660476Y-17166714D02*
X6670000Y-17147667D01*
X6670000Y-17147667D02*
X6689048Y-17138143D01*
X6689048Y-17138143D02*
X6717619Y-17138143D01*
X6717619Y-17138143D02*
X6736667Y-17147667D01*
X6812857Y-17347667D02*
X6822381Y-17338143D01*
X6822381Y-17338143D02*
X6841429Y-17309571D01*
X6841429Y-17309571D02*
X6850953Y-17290524D01*
X6850953Y-17290524D02*
X6860476Y-17261952D01*
X6860476Y-17261952D02*
X6870000Y-17214333D01*
X6870000Y-17214333D02*
X6870000Y-17176238D01*
X6870000Y-17176238D02*
X6860476Y-17128619D01*
X6860476Y-17128619D02*
X6850953Y-17100048D01*
X6850953Y-17100048D02*
X6841429Y-17081000D01*
X6841429Y-17081000D02*
X6822381Y-17052429D01*
X6822381Y-17052429D02*
X6812857Y-17042905D01*
D19*
X1830000Y-17390400D02*
X1990000Y-17550400D01*
X1990000Y-17390400D02*
X1830000Y-17550400D01*
X1910000Y-17550400D02*
X1990000Y-17470400D01*
X1910000Y-17390400D01*
X1830000Y-17470400D01*
X1910000Y-17550400D01*
D10*
X2342381Y-17543876D02*
X2228095Y-17543876D01*
X2285238Y-17543876D02*
X2285238Y-17343876D01*
X2285238Y-17343876D02*
X2266190Y-17372448D01*
X2266190Y-17372448D02*
X2247143Y-17391495D01*
X2247143Y-17391495D02*
X2228095Y-17401019D01*
X2428095Y-17524829D02*
X2437619Y-17534352D01*
X2437619Y-17534352D02*
X2428095Y-17543876D01*
X2428095Y-17543876D02*
X2418571Y-17534352D01*
X2418571Y-17534352D02*
X2428095Y-17524829D01*
X2428095Y-17524829D02*
X2428095Y-17543876D01*
X2609048Y-17343876D02*
X2570952Y-17343876D01*
X2570952Y-17343876D02*
X2551905Y-17353400D01*
X2551905Y-17353400D02*
X2542381Y-17362924D01*
X2542381Y-17362924D02*
X2523333Y-17391495D01*
X2523333Y-17391495D02*
X2513810Y-17429590D01*
X2513810Y-17429590D02*
X2513810Y-17505781D01*
X2513810Y-17505781D02*
X2523333Y-17524829D01*
X2523333Y-17524829D02*
X2532857Y-17534352D01*
X2532857Y-17534352D02*
X2551905Y-17543876D01*
X2551905Y-17543876D02*
X2590000Y-17543876D01*
X2590000Y-17543876D02*
X2609048Y-17534352D01*
X2609048Y-17534352D02*
X2618571Y-17524829D01*
X2618571Y-17524829D02*
X2628095Y-17505781D01*
X2628095Y-17505781D02*
X2628095Y-17458162D01*
X2628095Y-17458162D02*
X2618571Y-17439114D01*
X2618571Y-17439114D02*
X2609048Y-17429590D01*
X2609048Y-17429590D02*
X2590000Y-17420067D01*
X2590000Y-17420067D02*
X2551905Y-17420067D01*
X2551905Y-17420067D02*
X2532857Y-17429590D01*
X2532857Y-17429590D02*
X2523333Y-17439114D01*
X2523333Y-17439114D02*
X2513810Y-17458162D01*
X2751905Y-17343876D02*
X2770952Y-17343876D01*
X2770952Y-17343876D02*
X2790000Y-17353400D01*
X2790000Y-17353400D02*
X2799524Y-17362924D01*
X2799524Y-17362924D02*
X2809048Y-17381971D01*
X2809048Y-17381971D02*
X2818571Y-17420067D01*
X2818571Y-17420067D02*
X2818571Y-17467686D01*
X2818571Y-17467686D02*
X2809048Y-17505781D01*
X2809048Y-17505781D02*
X2799524Y-17524829D01*
X2799524Y-17524829D02*
X2790000Y-17534352D01*
X2790000Y-17534352D02*
X2770952Y-17543876D01*
X2770952Y-17543876D02*
X2751905Y-17543876D01*
X2751905Y-17543876D02*
X2732857Y-17534352D01*
X2732857Y-17534352D02*
X2723333Y-17524829D01*
X2723333Y-17524829D02*
X2713810Y-17505781D01*
X2713810Y-17505781D02*
X2704286Y-17467686D01*
X2704286Y-17467686D02*
X2704286Y-17420067D01*
X2704286Y-17420067D02*
X2713810Y-17381971D01*
X2713810Y-17381971D02*
X2723333Y-17362924D01*
X2723333Y-17362924D02*
X2732857Y-17353400D01*
X2732857Y-17353400D02*
X2751905Y-17343876D01*
X2942381Y-17343876D02*
X2961429Y-17343876D01*
X2961429Y-17343876D02*
X2980476Y-17353400D01*
X2980476Y-17353400D02*
X2990000Y-17362924D01*
X2990000Y-17362924D02*
X2999524Y-17381971D01*
X2999524Y-17381971D02*
X3009048Y-17420067D01*
X3009048Y-17420067D02*
X3009048Y-17467686D01*
X3009048Y-17467686D02*
X2999524Y-17505781D01*
X2999524Y-17505781D02*
X2990000Y-17524829D01*
X2990000Y-17524829D02*
X2980476Y-17534352D01*
X2980476Y-17534352D02*
X2961429Y-17543876D01*
X2961429Y-17543876D02*
X2942381Y-17543876D01*
X2942381Y-17543876D02*
X2923333Y-17534352D01*
X2923333Y-17534352D02*
X2913809Y-17524829D01*
X2913809Y-17524829D02*
X2904286Y-17505781D01*
X2904286Y-17505781D02*
X2894762Y-17467686D01*
X2894762Y-17467686D02*
X2894762Y-17420067D01*
X2894762Y-17420067D02*
X2904286Y-17381971D01*
X2904286Y-17381971D02*
X2913809Y-17362924D01*
X2913809Y-17362924D02*
X2923333Y-17353400D01*
X2923333Y-17353400D02*
X2942381Y-17343876D01*
X3094762Y-17543876D02*
X3094762Y-17410543D01*
X3094762Y-17429590D02*
X3104286Y-17420067D01*
X3104286Y-17420067D02*
X3123333Y-17410543D01*
X3123333Y-17410543D02*
X3151905Y-17410543D01*
X3151905Y-17410543D02*
X3170952Y-17420067D01*
X3170952Y-17420067D02*
X3180476Y-17439114D01*
X3180476Y-17439114D02*
X3180476Y-17543876D01*
X3180476Y-17439114D02*
X3190000Y-17420067D01*
X3190000Y-17420067D02*
X3209048Y-17410543D01*
X3209048Y-17410543D02*
X3237619Y-17410543D01*
X3237619Y-17410543D02*
X3256667Y-17420067D01*
X3256667Y-17420067D02*
X3266190Y-17439114D01*
X3266190Y-17439114D02*
X3266190Y-17543876D01*
X3361429Y-17543876D02*
X3361429Y-17410543D01*
X3361429Y-17429590D02*
X3370952Y-17420067D01*
X3370952Y-17420067D02*
X3390000Y-17410543D01*
X3390000Y-17410543D02*
X3418571Y-17410543D01*
X3418571Y-17410543D02*
X3437619Y-17420067D01*
X3437619Y-17420067D02*
X3447143Y-17439114D01*
X3447143Y-17439114D02*
X3447143Y-17543876D01*
X3447143Y-17439114D02*
X3456667Y-17420067D01*
X3456667Y-17420067D02*
X3475714Y-17410543D01*
X3475714Y-17410543D02*
X3504286Y-17410543D01*
X3504286Y-17410543D02*
X3523333Y-17420067D01*
X3523333Y-17420067D02*
X3532857Y-17439114D01*
X3532857Y-17439114D02*
X3532857Y-17543876D01*
X3890952Y-17334352D02*
X3719524Y-17591495D01*
X4115714Y-17343876D02*
X4134762Y-17343876D01*
X4134762Y-17343876D02*
X4153810Y-17353400D01*
X4153810Y-17353400D02*
X4163333Y-17362924D01*
X4163333Y-17362924D02*
X4172857Y-17381971D01*
X4172857Y-17381971D02*
X4182381Y-17420067D01*
X4182381Y-17420067D02*
X4182381Y-17467686D01*
X4182381Y-17467686D02*
X4172857Y-17505781D01*
X4172857Y-17505781D02*
X4163333Y-17524829D01*
X4163333Y-17524829D02*
X4153810Y-17534352D01*
X4153810Y-17534352D02*
X4134762Y-17543876D01*
X4134762Y-17543876D02*
X4115714Y-17543876D01*
X4115714Y-17543876D02*
X4096667Y-17534352D01*
X4096667Y-17534352D02*
X4087143Y-17524829D01*
X4087143Y-17524829D02*
X4077619Y-17505781D01*
X4077619Y-17505781D02*
X4068095Y-17467686D01*
X4068095Y-17467686D02*
X4068095Y-17420067D01*
X4068095Y-17420067D02*
X4077619Y-17381971D01*
X4077619Y-17381971D02*
X4087143Y-17362924D01*
X4087143Y-17362924D02*
X4096667Y-17353400D01*
X4096667Y-17353400D02*
X4115714Y-17343876D01*
X4268095Y-17524829D02*
X4277619Y-17534352D01*
X4277619Y-17534352D02*
X4268095Y-17543876D01*
X4268095Y-17543876D02*
X4258572Y-17534352D01*
X4258572Y-17534352D02*
X4268095Y-17524829D01*
X4268095Y-17524829D02*
X4268095Y-17543876D01*
X4401429Y-17343876D02*
X4420476Y-17343876D01*
X4420476Y-17343876D02*
X4439524Y-17353400D01*
X4439524Y-17353400D02*
X4449048Y-17362924D01*
X4449048Y-17362924D02*
X4458572Y-17381971D01*
X4458572Y-17381971D02*
X4468095Y-17420067D01*
X4468095Y-17420067D02*
X4468095Y-17467686D01*
X4468095Y-17467686D02*
X4458572Y-17505781D01*
X4458572Y-17505781D02*
X4449048Y-17524829D01*
X4449048Y-17524829D02*
X4439524Y-17534352D01*
X4439524Y-17534352D02*
X4420476Y-17543876D01*
X4420476Y-17543876D02*
X4401429Y-17543876D01*
X4401429Y-17543876D02*
X4382381Y-17534352D01*
X4382381Y-17534352D02*
X4372857Y-17524829D01*
X4372857Y-17524829D02*
X4363333Y-17505781D01*
X4363333Y-17505781D02*
X4353810Y-17467686D01*
X4353810Y-17467686D02*
X4353810Y-17420067D01*
X4353810Y-17420067D02*
X4363333Y-17381971D01*
X4363333Y-17381971D02*
X4372857Y-17362924D01*
X4372857Y-17362924D02*
X4382381Y-17353400D01*
X4382381Y-17353400D02*
X4401429Y-17343876D01*
X4639524Y-17343876D02*
X4601429Y-17343876D01*
X4601429Y-17343876D02*
X4582381Y-17353400D01*
X4582381Y-17353400D02*
X4572857Y-17362924D01*
X4572857Y-17362924D02*
X4553810Y-17391495D01*
X4553810Y-17391495D02*
X4544286Y-17429590D01*
X4544286Y-17429590D02*
X4544286Y-17505781D01*
X4544286Y-17505781D02*
X4553810Y-17524829D01*
X4553810Y-17524829D02*
X4563333Y-17534352D01*
X4563333Y-17534352D02*
X4582381Y-17543876D01*
X4582381Y-17543876D02*
X4620476Y-17543876D01*
X4620476Y-17543876D02*
X4639524Y-17534352D01*
X4639524Y-17534352D02*
X4649048Y-17524829D01*
X4649048Y-17524829D02*
X4658572Y-17505781D01*
X4658572Y-17505781D02*
X4658572Y-17458162D01*
X4658572Y-17458162D02*
X4649048Y-17439114D01*
X4649048Y-17439114D02*
X4639524Y-17429590D01*
X4639524Y-17429590D02*
X4620476Y-17420067D01*
X4620476Y-17420067D02*
X4582381Y-17420067D01*
X4582381Y-17420067D02*
X4563333Y-17429590D01*
X4563333Y-17429590D02*
X4553810Y-17439114D01*
X4553810Y-17439114D02*
X4544286Y-17458162D01*
X4725238Y-17343876D02*
X4849048Y-17343876D01*
X4849048Y-17343876D02*
X4782381Y-17420067D01*
X4782381Y-17420067D02*
X4810953Y-17420067D01*
X4810953Y-17420067D02*
X4830000Y-17429590D01*
X4830000Y-17429590D02*
X4839524Y-17439114D01*
X4839524Y-17439114D02*
X4849048Y-17458162D01*
X4849048Y-17458162D02*
X4849048Y-17505781D01*
X4849048Y-17505781D02*
X4839524Y-17524829D01*
X4839524Y-17524829D02*
X4830000Y-17534352D01*
X4830000Y-17534352D02*
X4810953Y-17543876D01*
X4810953Y-17543876D02*
X4753810Y-17543876D01*
X4753810Y-17543876D02*
X4734762Y-17534352D01*
X4734762Y-17534352D02*
X4725238Y-17524829D01*
X4972857Y-17343876D02*
X4991905Y-17343876D01*
X4991905Y-17343876D02*
X5010953Y-17353400D01*
X5010953Y-17353400D02*
X5020476Y-17362924D01*
X5020476Y-17362924D02*
X5030000Y-17381971D01*
X5030000Y-17381971D02*
X5039524Y-17420067D01*
X5039524Y-17420067D02*
X5039524Y-17467686D01*
X5039524Y-17467686D02*
X5030000Y-17505781D01*
X5030000Y-17505781D02*
X5020476Y-17524829D01*
X5020476Y-17524829D02*
X5010953Y-17534352D01*
X5010953Y-17534352D02*
X4991905Y-17543876D01*
X4991905Y-17543876D02*
X4972857Y-17543876D01*
X4972857Y-17543876D02*
X4953810Y-17534352D01*
X4953810Y-17534352D02*
X4944286Y-17524829D01*
X4944286Y-17524829D02*
X4934762Y-17505781D01*
X4934762Y-17505781D02*
X4925238Y-17467686D01*
X4925238Y-17467686D02*
X4925238Y-17420067D01*
X4925238Y-17420067D02*
X4934762Y-17381971D01*
X4934762Y-17381971D02*
X4944286Y-17362924D01*
X4944286Y-17362924D02*
X4953810Y-17353400D01*
X4953810Y-17353400D02*
X4972857Y-17343876D01*
X5115714Y-17343876D02*
X5115714Y-17381971D01*
X5191905Y-17343876D02*
X5191905Y-17381971D01*
X5454762Y-17620067D02*
X5445238Y-17610543D01*
X5445238Y-17610543D02*
X5426191Y-17581971D01*
X5426191Y-17581971D02*
X5416667Y-17562924D01*
X5416667Y-17562924D02*
X5407143Y-17534352D01*
X5407143Y-17534352D02*
X5397619Y-17486733D01*
X5397619Y-17486733D02*
X5397619Y-17448638D01*
X5397619Y-17448638D02*
X5407143Y-17401019D01*
X5407143Y-17401019D02*
X5416667Y-17372448D01*
X5416667Y-17372448D02*
X5426191Y-17353400D01*
X5426191Y-17353400D02*
X5445238Y-17324829D01*
X5445238Y-17324829D02*
X5454762Y-17315305D01*
X5616667Y-17410543D02*
X5616667Y-17543876D01*
X5569048Y-17334352D02*
X5521429Y-17477210D01*
X5521429Y-17477210D02*
X5645238Y-17477210D01*
X5841429Y-17543876D02*
X5841429Y-17343876D01*
X5927143Y-17543876D02*
X5927143Y-17439114D01*
X5927143Y-17439114D02*
X5917619Y-17420067D01*
X5917619Y-17420067D02*
X5898572Y-17410543D01*
X5898572Y-17410543D02*
X5870000Y-17410543D01*
X5870000Y-17410543D02*
X5850952Y-17420067D01*
X5850952Y-17420067D02*
X5841429Y-17429590D01*
X6050952Y-17543876D02*
X6031905Y-17534352D01*
X6031905Y-17534352D02*
X6022381Y-17524829D01*
X6022381Y-17524829D02*
X6012857Y-17505781D01*
X6012857Y-17505781D02*
X6012857Y-17448638D01*
X6012857Y-17448638D02*
X6022381Y-17429590D01*
X6022381Y-17429590D02*
X6031905Y-17420067D01*
X6031905Y-17420067D02*
X6050952Y-17410543D01*
X6050952Y-17410543D02*
X6079524Y-17410543D01*
X6079524Y-17410543D02*
X6098572Y-17420067D01*
X6098572Y-17420067D02*
X6108095Y-17429590D01*
X6108095Y-17429590D02*
X6117619Y-17448638D01*
X6117619Y-17448638D02*
X6117619Y-17505781D01*
X6117619Y-17505781D02*
X6108095Y-17524829D01*
X6108095Y-17524829D02*
X6098572Y-17534352D01*
X6098572Y-17534352D02*
X6079524Y-17543876D01*
X6079524Y-17543876D02*
X6050952Y-17543876D01*
X6231905Y-17543876D02*
X6212857Y-17534352D01*
X6212857Y-17534352D02*
X6203333Y-17515305D01*
X6203333Y-17515305D02*
X6203333Y-17343876D01*
X6384286Y-17534352D02*
X6365238Y-17543876D01*
X6365238Y-17543876D02*
X6327143Y-17543876D01*
X6327143Y-17543876D02*
X6308095Y-17534352D01*
X6308095Y-17534352D02*
X6298572Y-17515305D01*
X6298572Y-17515305D02*
X6298572Y-17439114D01*
X6298572Y-17439114D02*
X6308095Y-17420067D01*
X6308095Y-17420067D02*
X6327143Y-17410543D01*
X6327143Y-17410543D02*
X6365238Y-17410543D01*
X6365238Y-17410543D02*
X6384286Y-17420067D01*
X6384286Y-17420067D02*
X6393810Y-17439114D01*
X6393810Y-17439114D02*
X6393810Y-17458162D01*
X6393810Y-17458162D02*
X6298572Y-17477210D01*
X6470000Y-17534352D02*
X6489048Y-17543876D01*
X6489048Y-17543876D02*
X6527143Y-17543876D01*
X6527143Y-17543876D02*
X6546191Y-17534352D01*
X6546191Y-17534352D02*
X6555714Y-17515305D01*
X6555714Y-17515305D02*
X6555714Y-17505781D01*
X6555714Y-17505781D02*
X6546191Y-17486733D01*
X6546191Y-17486733D02*
X6527143Y-17477210D01*
X6527143Y-17477210D02*
X6498572Y-17477210D01*
X6498572Y-17477210D02*
X6479524Y-17467686D01*
X6479524Y-17467686D02*
X6470000Y-17448638D01*
X6470000Y-17448638D02*
X6470000Y-17439114D01*
X6470000Y-17439114D02*
X6479524Y-17420067D01*
X6479524Y-17420067D02*
X6498572Y-17410543D01*
X6498572Y-17410543D02*
X6527143Y-17410543D01*
X6527143Y-17410543D02*
X6546191Y-17420067D01*
X6622381Y-17620067D02*
X6631905Y-17610543D01*
X6631905Y-17610543D02*
X6650953Y-17581971D01*
X6650953Y-17581971D02*
X6660476Y-17562924D01*
X6660476Y-17562924D02*
X6670000Y-17534352D01*
X6670000Y-17534352D02*
X6679524Y-17486733D01*
X6679524Y-17486733D02*
X6679524Y-17448638D01*
X6679524Y-17448638D02*
X6670000Y-17401019D01*
X6670000Y-17401019D02*
X6660476Y-17372448D01*
X6660476Y-17372448D02*
X6650953Y-17353400D01*
X6650953Y-17353400D02*
X6631905Y-17324829D01*
X6631905Y-17324829D02*
X6622381Y-17315305D01*
X1890000Y-17650400D02*
X1890000Y-17850400D01*
X1790000Y-17750400D02*
X1990000Y-17750400D01*
X1990000Y-17750400D02*
G75*
G03*
X1990000Y-17750400I-100000J0D01*
G01*
X2218571Y-17623876D02*
X2342381Y-17623876D01*
X2342381Y-17623876D02*
X2275714Y-17700067D01*
X2275714Y-17700067D02*
X2304286Y-17700067D01*
X2304286Y-17700067D02*
X2323333Y-17709590D01*
X2323333Y-17709590D02*
X2332857Y-17719114D01*
X2332857Y-17719114D02*
X2342381Y-17738162D01*
X2342381Y-17738162D02*
X2342381Y-17785781D01*
X2342381Y-17785781D02*
X2332857Y-17804829D01*
X2332857Y-17804829D02*
X2323333Y-17814352D01*
X2323333Y-17814352D02*
X2304286Y-17823876D01*
X2304286Y-17823876D02*
X2247143Y-17823876D01*
X2247143Y-17823876D02*
X2228095Y-17814352D01*
X2228095Y-17814352D02*
X2218571Y-17804829D01*
X2428095Y-17804829D02*
X2437619Y-17814352D01*
X2437619Y-17814352D02*
X2428095Y-17823876D01*
X2428095Y-17823876D02*
X2418571Y-17814352D01*
X2418571Y-17814352D02*
X2428095Y-17804829D01*
X2428095Y-17804829D02*
X2428095Y-17823876D01*
X2618571Y-17623876D02*
X2523333Y-17623876D01*
X2523333Y-17623876D02*
X2513810Y-17719114D01*
X2513810Y-17719114D02*
X2523333Y-17709590D01*
X2523333Y-17709590D02*
X2542381Y-17700067D01*
X2542381Y-17700067D02*
X2590000Y-17700067D01*
X2590000Y-17700067D02*
X2609048Y-17709590D01*
X2609048Y-17709590D02*
X2618571Y-17719114D01*
X2618571Y-17719114D02*
X2628095Y-17738162D01*
X2628095Y-17738162D02*
X2628095Y-17785781D01*
X2628095Y-17785781D02*
X2618571Y-17804829D01*
X2618571Y-17804829D02*
X2609048Y-17814352D01*
X2609048Y-17814352D02*
X2590000Y-17823876D01*
X2590000Y-17823876D02*
X2542381Y-17823876D01*
X2542381Y-17823876D02*
X2523333Y-17814352D01*
X2523333Y-17814352D02*
X2513810Y-17804829D01*
X2751905Y-17623876D02*
X2770952Y-17623876D01*
X2770952Y-17623876D02*
X2790000Y-17633400D01*
X2790000Y-17633400D02*
X2799524Y-17642924D01*
X2799524Y-17642924D02*
X2809048Y-17661971D01*
X2809048Y-17661971D02*
X2818571Y-17700067D01*
X2818571Y-17700067D02*
X2818571Y-17747686D01*
X2818571Y-17747686D02*
X2809048Y-17785781D01*
X2809048Y-17785781D02*
X2799524Y-17804829D01*
X2799524Y-17804829D02*
X2790000Y-17814352D01*
X2790000Y-17814352D02*
X2770952Y-17823876D01*
X2770952Y-17823876D02*
X2751905Y-17823876D01*
X2751905Y-17823876D02*
X2732857Y-17814352D01*
X2732857Y-17814352D02*
X2723333Y-17804829D01*
X2723333Y-17804829D02*
X2713810Y-17785781D01*
X2713810Y-17785781D02*
X2704286Y-17747686D01*
X2704286Y-17747686D02*
X2704286Y-17700067D01*
X2704286Y-17700067D02*
X2713810Y-17661971D01*
X2713810Y-17661971D02*
X2723333Y-17642924D01*
X2723333Y-17642924D02*
X2732857Y-17633400D01*
X2732857Y-17633400D02*
X2751905Y-17623876D01*
X2942381Y-17623876D02*
X2961429Y-17623876D01*
X2961429Y-17623876D02*
X2980476Y-17633400D01*
X2980476Y-17633400D02*
X2990000Y-17642924D01*
X2990000Y-17642924D02*
X2999524Y-17661971D01*
X2999524Y-17661971D02*
X3009048Y-17700067D01*
X3009048Y-17700067D02*
X3009048Y-17747686D01*
X3009048Y-17747686D02*
X2999524Y-17785781D01*
X2999524Y-17785781D02*
X2990000Y-17804829D01*
X2990000Y-17804829D02*
X2980476Y-17814352D01*
X2980476Y-17814352D02*
X2961429Y-17823876D01*
X2961429Y-17823876D02*
X2942381Y-17823876D01*
X2942381Y-17823876D02*
X2923333Y-17814352D01*
X2923333Y-17814352D02*
X2913809Y-17804829D01*
X2913809Y-17804829D02*
X2904286Y-17785781D01*
X2904286Y-17785781D02*
X2894762Y-17747686D01*
X2894762Y-17747686D02*
X2894762Y-17700067D01*
X2894762Y-17700067D02*
X2904286Y-17661971D01*
X2904286Y-17661971D02*
X2913809Y-17642924D01*
X2913809Y-17642924D02*
X2923333Y-17633400D01*
X2923333Y-17633400D02*
X2942381Y-17623876D01*
X3094762Y-17823876D02*
X3094762Y-17690543D01*
X3094762Y-17709590D02*
X3104286Y-17700067D01*
X3104286Y-17700067D02*
X3123333Y-17690543D01*
X3123333Y-17690543D02*
X3151905Y-17690543D01*
X3151905Y-17690543D02*
X3170952Y-17700067D01*
X3170952Y-17700067D02*
X3180476Y-17719114D01*
X3180476Y-17719114D02*
X3180476Y-17823876D01*
X3180476Y-17719114D02*
X3190000Y-17700067D01*
X3190000Y-17700067D02*
X3209048Y-17690543D01*
X3209048Y-17690543D02*
X3237619Y-17690543D01*
X3237619Y-17690543D02*
X3256667Y-17700067D01*
X3256667Y-17700067D02*
X3266190Y-17719114D01*
X3266190Y-17719114D02*
X3266190Y-17823876D01*
X3361429Y-17823876D02*
X3361429Y-17690543D01*
X3361429Y-17709590D02*
X3370952Y-17700067D01*
X3370952Y-17700067D02*
X3390000Y-17690543D01*
X3390000Y-17690543D02*
X3418571Y-17690543D01*
X3418571Y-17690543D02*
X3437619Y-17700067D01*
X3437619Y-17700067D02*
X3447143Y-17719114D01*
X3447143Y-17719114D02*
X3447143Y-17823876D01*
X3447143Y-17719114D02*
X3456667Y-17700067D01*
X3456667Y-17700067D02*
X3475714Y-17690543D01*
X3475714Y-17690543D02*
X3504286Y-17690543D01*
X3504286Y-17690543D02*
X3523333Y-17700067D01*
X3523333Y-17700067D02*
X3532857Y-17719114D01*
X3532857Y-17719114D02*
X3532857Y-17823876D01*
X3890952Y-17614352D02*
X3719524Y-17871495D01*
X4115714Y-17623876D02*
X4134762Y-17623876D01*
X4134762Y-17623876D02*
X4153810Y-17633400D01*
X4153810Y-17633400D02*
X4163333Y-17642924D01*
X4163333Y-17642924D02*
X4172857Y-17661971D01*
X4172857Y-17661971D02*
X4182381Y-17700067D01*
X4182381Y-17700067D02*
X4182381Y-17747686D01*
X4182381Y-17747686D02*
X4172857Y-17785781D01*
X4172857Y-17785781D02*
X4163333Y-17804829D01*
X4163333Y-17804829D02*
X4153810Y-17814352D01*
X4153810Y-17814352D02*
X4134762Y-17823876D01*
X4134762Y-17823876D02*
X4115714Y-17823876D01*
X4115714Y-17823876D02*
X4096667Y-17814352D01*
X4096667Y-17814352D02*
X4087143Y-17804829D01*
X4087143Y-17804829D02*
X4077619Y-17785781D01*
X4077619Y-17785781D02*
X4068095Y-17747686D01*
X4068095Y-17747686D02*
X4068095Y-17700067D01*
X4068095Y-17700067D02*
X4077619Y-17661971D01*
X4077619Y-17661971D02*
X4087143Y-17642924D01*
X4087143Y-17642924D02*
X4096667Y-17633400D01*
X4096667Y-17633400D02*
X4115714Y-17623876D01*
X4268095Y-17804829D02*
X4277619Y-17814352D01*
X4277619Y-17814352D02*
X4268095Y-17823876D01*
X4268095Y-17823876D02*
X4258572Y-17814352D01*
X4258572Y-17814352D02*
X4268095Y-17804829D01*
X4268095Y-17804829D02*
X4268095Y-17823876D01*
X4468095Y-17823876D02*
X4353810Y-17823876D01*
X4410952Y-17823876D02*
X4410952Y-17623876D01*
X4410952Y-17623876D02*
X4391905Y-17652448D01*
X4391905Y-17652448D02*
X4372857Y-17671495D01*
X4372857Y-17671495D02*
X4353810Y-17681019D01*
X4534762Y-17623876D02*
X4658572Y-17623876D01*
X4658572Y-17623876D02*
X4591905Y-17700067D01*
X4591905Y-17700067D02*
X4620476Y-17700067D01*
X4620476Y-17700067D02*
X4639524Y-17709590D01*
X4639524Y-17709590D02*
X4649048Y-17719114D01*
X4649048Y-17719114D02*
X4658572Y-17738162D01*
X4658572Y-17738162D02*
X4658572Y-17785781D01*
X4658572Y-17785781D02*
X4649048Y-17804829D01*
X4649048Y-17804829D02*
X4639524Y-17814352D01*
X4639524Y-17814352D02*
X4620476Y-17823876D01*
X4620476Y-17823876D02*
X4563333Y-17823876D01*
X4563333Y-17823876D02*
X4544286Y-17814352D01*
X4544286Y-17814352D02*
X4534762Y-17804829D01*
X4725238Y-17623876D02*
X4858572Y-17623876D01*
X4858572Y-17623876D02*
X4772857Y-17823876D01*
X4963333Y-17709590D02*
X4944286Y-17700067D01*
X4944286Y-17700067D02*
X4934762Y-17690543D01*
X4934762Y-17690543D02*
X4925238Y-17671495D01*
X4925238Y-17671495D02*
X4925238Y-17661971D01*
X4925238Y-17661971D02*
X4934762Y-17642924D01*
X4934762Y-17642924D02*
X4944286Y-17633400D01*
X4944286Y-17633400D02*
X4963333Y-17623876D01*
X4963333Y-17623876D02*
X5001429Y-17623876D01*
X5001429Y-17623876D02*
X5020476Y-17633400D01*
X5020476Y-17633400D02*
X5030000Y-17642924D01*
X5030000Y-17642924D02*
X5039524Y-17661971D01*
X5039524Y-17661971D02*
X5039524Y-17671495D01*
X5039524Y-17671495D02*
X5030000Y-17690543D01*
X5030000Y-17690543D02*
X5020476Y-17700067D01*
X5020476Y-17700067D02*
X5001429Y-17709590D01*
X5001429Y-17709590D02*
X4963333Y-17709590D01*
X4963333Y-17709590D02*
X4944286Y-17719114D01*
X4944286Y-17719114D02*
X4934762Y-17728638D01*
X4934762Y-17728638D02*
X4925238Y-17747686D01*
X4925238Y-17747686D02*
X4925238Y-17785781D01*
X4925238Y-17785781D02*
X4934762Y-17804829D01*
X4934762Y-17804829D02*
X4944286Y-17814352D01*
X4944286Y-17814352D02*
X4963333Y-17823876D01*
X4963333Y-17823876D02*
X5001429Y-17823876D01*
X5001429Y-17823876D02*
X5020476Y-17814352D01*
X5020476Y-17814352D02*
X5030000Y-17804829D01*
X5030000Y-17804829D02*
X5039524Y-17785781D01*
X5039524Y-17785781D02*
X5039524Y-17747686D01*
X5039524Y-17747686D02*
X5030000Y-17728638D01*
X5030000Y-17728638D02*
X5020476Y-17719114D01*
X5020476Y-17719114D02*
X5001429Y-17709590D01*
X5115714Y-17623876D02*
X5115714Y-17661971D01*
X5191905Y-17623876D02*
X5191905Y-17661971D01*
X5454762Y-17900067D02*
X5445238Y-17890543D01*
X5445238Y-17890543D02*
X5426191Y-17861971D01*
X5426191Y-17861971D02*
X5416667Y-17842924D01*
X5416667Y-17842924D02*
X5407143Y-17814352D01*
X5407143Y-17814352D02*
X5397619Y-17766733D01*
X5397619Y-17766733D02*
X5397619Y-17728638D01*
X5397619Y-17728638D02*
X5407143Y-17681019D01*
X5407143Y-17681019D02*
X5416667Y-17652448D01*
X5416667Y-17652448D02*
X5426191Y-17633400D01*
X5426191Y-17633400D02*
X5445238Y-17604829D01*
X5445238Y-17604829D02*
X5454762Y-17595305D01*
X5616667Y-17690543D02*
X5616667Y-17823876D01*
X5569048Y-17614352D02*
X5521429Y-17757210D01*
X5521429Y-17757210D02*
X5645238Y-17757210D01*
X5841429Y-17823876D02*
X5841429Y-17623876D01*
X5927143Y-17823876D02*
X5927143Y-17719114D01*
X5927143Y-17719114D02*
X5917619Y-17700067D01*
X5917619Y-17700067D02*
X5898572Y-17690543D01*
X5898572Y-17690543D02*
X5870000Y-17690543D01*
X5870000Y-17690543D02*
X5850952Y-17700067D01*
X5850952Y-17700067D02*
X5841429Y-17709590D01*
X6050952Y-17823876D02*
X6031905Y-17814352D01*
X6031905Y-17814352D02*
X6022381Y-17804829D01*
X6022381Y-17804829D02*
X6012857Y-17785781D01*
X6012857Y-17785781D02*
X6012857Y-17728638D01*
X6012857Y-17728638D02*
X6022381Y-17709590D01*
X6022381Y-17709590D02*
X6031905Y-17700067D01*
X6031905Y-17700067D02*
X6050952Y-17690543D01*
X6050952Y-17690543D02*
X6079524Y-17690543D01*
X6079524Y-17690543D02*
X6098572Y-17700067D01*
X6098572Y-17700067D02*
X6108095Y-17709590D01*
X6108095Y-17709590D02*
X6117619Y-17728638D01*
X6117619Y-17728638D02*
X6117619Y-17785781D01*
X6117619Y-17785781D02*
X6108095Y-17804829D01*
X6108095Y-17804829D02*
X6098572Y-17814352D01*
X6098572Y-17814352D02*
X6079524Y-17823876D01*
X6079524Y-17823876D02*
X6050952Y-17823876D01*
X6231905Y-17823876D02*
X6212857Y-17814352D01*
X6212857Y-17814352D02*
X6203333Y-17795305D01*
X6203333Y-17795305D02*
X6203333Y-17623876D01*
X6384286Y-17814352D02*
X6365238Y-17823876D01*
X6365238Y-17823876D02*
X6327143Y-17823876D01*
X6327143Y-17823876D02*
X6308095Y-17814352D01*
X6308095Y-17814352D02*
X6298572Y-17795305D01*
X6298572Y-17795305D02*
X6298572Y-17719114D01*
X6298572Y-17719114D02*
X6308095Y-17700067D01*
X6308095Y-17700067D02*
X6327143Y-17690543D01*
X6327143Y-17690543D02*
X6365238Y-17690543D01*
X6365238Y-17690543D02*
X6384286Y-17700067D01*
X6384286Y-17700067D02*
X6393810Y-17719114D01*
X6393810Y-17719114D02*
X6393810Y-17738162D01*
X6393810Y-17738162D02*
X6298572Y-17757210D01*
X6470000Y-17814352D02*
X6489048Y-17823876D01*
X6489048Y-17823876D02*
X6527143Y-17823876D01*
X6527143Y-17823876D02*
X6546191Y-17814352D01*
X6546191Y-17814352D02*
X6555714Y-17795305D01*
X6555714Y-17795305D02*
X6555714Y-17785781D01*
X6555714Y-17785781D02*
X6546191Y-17766733D01*
X6546191Y-17766733D02*
X6527143Y-17757210D01*
X6527143Y-17757210D02*
X6498572Y-17757210D01*
X6498572Y-17757210D02*
X6479524Y-17747686D01*
X6479524Y-17747686D02*
X6470000Y-17728638D01*
X6470000Y-17728638D02*
X6470000Y-17719114D01*
X6470000Y-17719114D02*
X6479524Y-17700067D01*
X6479524Y-17700067D02*
X6498572Y-17690543D01*
X6498572Y-17690543D02*
X6527143Y-17690543D01*
X6527143Y-17690543D02*
X6546191Y-17700067D01*
X6622381Y-17900067D02*
X6631905Y-17890543D01*
X6631905Y-17890543D02*
X6650953Y-17861971D01*
X6650953Y-17861971D02*
X6660476Y-17842924D01*
X6660476Y-17842924D02*
X6670000Y-17814352D01*
X6670000Y-17814352D02*
X6679524Y-17766733D01*
X6679524Y-17766733D02*
X6679524Y-17728638D01*
X6679524Y-17728638D02*
X6670000Y-17681019D01*
X6670000Y-17681019D02*
X6660476Y-17652448D01*
X6660476Y-17652448D02*
X6650953Y-17633400D01*
X6650953Y-17633400D02*
X6631905Y-17604829D01*
X6631905Y-17604829D02*
X6622381Y-17595305D01*
M02*
