%TF.GenerationSoftware,KiCad,Pcbnew,7.0.9*%
%TF.CreationDate,2023-12-29T07:43:00-06:00*%
%TF.ProjectId,Power Distribution Board Ver.2,506f7765-7220-4446-9973-747269627574,rev?*%
%TF.SameCoordinates,Original*%
%TF.FileFunction,Drillmap*%
%TF.FilePolarity,Positive*%
%FSLAX45Y45*%
G04 Gerber Fmt 4.5, Leading zero omitted, Abs format (unit mm)*
G04 Created by KiCad (PCBNEW 7.0.9) date 2023-12-29 07:43:00*
%MOMM*%
%LPD*%
G01*
G04 APERTURE LIST*
%ADD10C,0.200000*%
%ADD11C,0.100000*%
%ADD12C,0.120000*%
%ADD13C,0.125000*%
%ADD14C,0.130000*%
%ADD15C,0.152400*%
%ADD16C,0.160000*%
%ADD17C,0.350000*%
G04 APERTURE END LIST*
D10*
X14700000Y-14700000D02*
X2000000Y-14700000D01*
X2000000Y-2000000D02*
X14700000Y-2000000D01*
X14700000Y-2000000D02*
X14700000Y-14700000D01*
X2000000Y-14700000D02*
X2000000Y-2000000D01*
D11*
X2454885Y-8521500D02*
X2494885Y-8561500D01*
X2494885Y-8521500D02*
X2454885Y-8561500D01*
X2459282Y-8167897D02*
X2499282Y-8207897D01*
X2499282Y-8167897D02*
X2459282Y-8207897D01*
X2596200Y-10990900D02*
X2636200Y-11030900D01*
X2636200Y-10990900D02*
X2596200Y-11030900D01*
X2645385Y-8458000D02*
X2685385Y-8498000D01*
X2685385Y-8458000D02*
X2645385Y-8498000D01*
X2645385Y-8585000D02*
X2685385Y-8625000D01*
X2685385Y-8585000D02*
X2645385Y-8625000D01*
X2768185Y-8105873D02*
X2808184Y-8145873D01*
X2808184Y-8105873D02*
X2768185Y-8145873D01*
X3022950Y-7847641D02*
X3062950Y-7887641D01*
X3062950Y-7847641D02*
X3022950Y-7887641D01*
X3026384Y-7950000D02*
X3066384Y-7990000D01*
X3066384Y-7950000D02*
X3026384Y-7990000D01*
X3066100Y-11829100D02*
X3106100Y-11869100D01*
X3106100Y-11829100D02*
X3066100Y-11869100D01*
X3116900Y-12794300D02*
X3156900Y-12834300D01*
X3156900Y-12794300D02*
X3116900Y-12834300D01*
X3294700Y-10355900D02*
X3334700Y-10395900D01*
X3334700Y-10355900D02*
X3294700Y-10395900D01*
X3345500Y-13721400D02*
X3385500Y-13761400D01*
X3385500Y-13721400D02*
X3345500Y-13761400D01*
X3396300Y-6850700D02*
X3436300Y-6890700D01*
X3436300Y-6850700D02*
X3396300Y-6890700D01*
X3459800Y-9136700D02*
X3499800Y-9176700D01*
X3499800Y-9136700D02*
X3459800Y-9176700D01*
X3586800Y-14318300D02*
X3626800Y-14358300D01*
X3626800Y-14318300D02*
X3586800Y-14358300D01*
X3739200Y-7307900D02*
X3779200Y-7347900D01*
X3779200Y-7307900D02*
X3739200Y-7347900D01*
X3751900Y-8908100D02*
X3791900Y-8948100D01*
X3791900Y-8908100D02*
X3751900Y-8948100D01*
X3828100Y-8374700D02*
X3868100Y-8414700D01*
X3868100Y-8374700D02*
X3828100Y-8414700D01*
X3853500Y-7828600D02*
X3893500Y-7868600D01*
X3893500Y-7828600D02*
X3853500Y-7868600D01*
X4209100Y-6965000D02*
X4249100Y-7005000D01*
X4249100Y-6965000D02*
X4209100Y-7005000D01*
X4272385Y-8139500D02*
X4312385Y-8179500D01*
X4312385Y-8139500D02*
X4272385Y-8179500D01*
X4326538Y-8395869D02*
X4366538Y-8435869D01*
X4366538Y-8395869D02*
X4326538Y-8435869D01*
X4513900Y-9098600D02*
X4553900Y-9138600D01*
X4553900Y-9098600D02*
X4513900Y-9138600D01*
X4526385Y-8139500D02*
X4566385Y-8179500D01*
X4566385Y-8139500D02*
X4526385Y-8179500D01*
X4716885Y-8457000D02*
X4756885Y-8497000D01*
X4756885Y-8457000D02*
X4716885Y-8497000D01*
X4728835Y-8330000D02*
X4768835Y-8370000D01*
X4768835Y-8330000D02*
X4728835Y-8370000D01*
X4737712Y-7904403D02*
X4777712Y-7944403D01*
X4777712Y-7904403D02*
X4737712Y-7944403D01*
X4828106Y-7854550D02*
X4868106Y-7894550D01*
X4868106Y-7854550D02*
X4828106Y-7894550D01*
X5263200Y-10406700D02*
X5303200Y-10446700D01*
X5303200Y-10406700D02*
X5263200Y-10446700D01*
X5288600Y-6838000D02*
X5328600Y-6878000D01*
X5328600Y-6838000D02*
X5288600Y-6878000D01*
X5377500Y-9124000D02*
X5417500Y-9164000D01*
X5417500Y-9124000D02*
X5377500Y-9164000D01*
X5555300Y-8717600D02*
X5595300Y-8757600D01*
X5595300Y-8717600D02*
X5555300Y-8757600D01*
X5656900Y-7307900D02*
X5696900Y-7347900D01*
X5696900Y-7307900D02*
X5656900Y-7347900D01*
X5745800Y-8082600D02*
X5785800Y-8122600D01*
X5785800Y-8082600D02*
X5745800Y-8122600D01*
X5936300Y-13391200D02*
X5976300Y-13431200D01*
X5976300Y-13391200D02*
X5936300Y-13431200D01*
X6025200Y-8997000D02*
X6065200Y-9037000D01*
X6065200Y-8997000D02*
X6025200Y-9037000D01*
X6152200Y-7485700D02*
X6192200Y-7525700D01*
X6192200Y-7485700D02*
X6152200Y-7525700D01*
X6215700Y-6965000D02*
X6255700Y-7005000D01*
X6255700Y-6965000D02*
X6215700Y-7005000D01*
X6367884Y-8139500D02*
X6407884Y-8179500D01*
X6407884Y-8139500D02*
X6367884Y-8179500D01*
X6380800Y-10889300D02*
X6420800Y-10929300D01*
X6420800Y-10889300D02*
X6380800Y-10929300D01*
X6457000Y-4196400D02*
X6497000Y-4236400D01*
X6497000Y-4196400D02*
X6457000Y-4236400D01*
X6507800Y-8463600D02*
X6547800Y-8503600D01*
X6547800Y-8463600D02*
X6507800Y-8503600D01*
X6599084Y-8139500D02*
X6639084Y-8179500D01*
X6639084Y-8139500D02*
X6599084Y-8179500D01*
X6660200Y-4679000D02*
X6700200Y-4719000D01*
X6700200Y-4679000D02*
X6660200Y-4719000D01*
X6672900Y-6545900D02*
X6712900Y-6585900D01*
X6712900Y-6545900D02*
X6672900Y-6585900D01*
X6749100Y-11270300D02*
X6789100Y-11310300D01*
X6789100Y-11270300D02*
X6749100Y-11310300D01*
X6838218Y-8452253D02*
X6878218Y-8492253D01*
X6878218Y-8452253D02*
X6838218Y-8492253D01*
X6874072Y-7906800D02*
X6914072Y-7946800D01*
X6914072Y-7906800D02*
X6874072Y-7946800D01*
X6887834Y-8324822D02*
X6927834Y-8364822D01*
X6927834Y-8324822D02*
X6887834Y-8364822D01*
X6901500Y-3142300D02*
X6941500Y-3182300D01*
X6941500Y-3142300D02*
X6901500Y-3182300D01*
X6926900Y-6749100D02*
X6966900Y-6789100D01*
X6966900Y-6749100D02*
X6926900Y-6789100D01*
X6939384Y-7831200D02*
X6979384Y-7871200D01*
X6979384Y-7831200D02*
X6939384Y-7871200D01*
X7028500Y-9212900D02*
X7068500Y-9252900D01*
X7068500Y-9212900D02*
X7028500Y-9252900D01*
X7028500Y-13607100D02*
X7068500Y-13647100D01*
X7068500Y-13607100D02*
X7028500Y-13647100D01*
X7244400Y-10381300D02*
X7284400Y-10421300D01*
X7284400Y-10381300D02*
X7244400Y-10421300D01*
X7320600Y-12756200D02*
X7360600Y-12796200D01*
X7360600Y-12756200D02*
X7320600Y-12796200D01*
X7396800Y-7041200D02*
X7436800Y-7081200D01*
X7436800Y-7041200D02*
X7396800Y-7081200D01*
X7473000Y-12489500D02*
X7513000Y-12529500D01*
X7513000Y-12489500D02*
X7473000Y-12529500D01*
X7600000Y-8933500D02*
X7640000Y-8973500D01*
X7640000Y-8933500D02*
X7600000Y-8973500D01*
X7815900Y-8311200D02*
X7855900Y-8351200D01*
X7855900Y-8311200D02*
X7815900Y-8351200D01*
X7841300Y-7574600D02*
X7881300Y-7614600D01*
X7881300Y-7574600D02*
X7841300Y-7614600D01*
X8120700Y-11219500D02*
X8160700Y-11259500D01*
X8160700Y-11219500D02*
X8120700Y-11259500D01*
X8311200Y-6444300D02*
X8351200Y-6484300D01*
X8351200Y-6444300D02*
X8311200Y-6484300D01*
X8387400Y-7269800D02*
X8427400Y-7309800D01*
X8427400Y-7269800D02*
X8387400Y-7309800D01*
X8387400Y-8196900D02*
X8427400Y-8236900D01*
X8427400Y-8196900D02*
X8387400Y-8236900D01*
X8387400Y-9352600D02*
X8427400Y-9392600D01*
X8427400Y-9352600D02*
X8387400Y-9392600D01*
X8743000Y-4717100D02*
X8783000Y-4757100D01*
X8783000Y-4717100D02*
X8743000Y-4757100D01*
X8997000Y-8997000D02*
X9037000Y-9037000D01*
X9037000Y-8997000D02*
X8997000Y-9037000D01*
X9035100Y-2862900D02*
X9075100Y-2902900D01*
X9075100Y-2862900D02*
X9035100Y-2902900D01*
X9479600Y-5898200D02*
X9519600Y-5938200D01*
X9519600Y-5898200D02*
X9479600Y-5938200D01*
X9530400Y-3802700D02*
X9570400Y-3842700D01*
X9570400Y-3802700D02*
X9530400Y-3842700D01*
X9530400Y-7765100D02*
X9570400Y-7805100D01*
X9570400Y-7765100D02*
X9530400Y-7805100D01*
X9746300Y-10724200D02*
X9786300Y-10764200D01*
X9786300Y-10724200D02*
X9746300Y-10764200D01*
X9797100Y-12883200D02*
X9837100Y-12923200D01*
X9837100Y-12883200D02*
X9797100Y-12923200D01*
X10127300Y-9085900D02*
X10167300Y-9125900D01*
X10167300Y-9085900D02*
X10127300Y-9125900D01*
X10571800Y-4818700D02*
X10611800Y-4858700D01*
X10611800Y-4818700D02*
X10571800Y-4858700D01*
X10648000Y-2761300D02*
X10688000Y-2801300D01*
X10688000Y-2761300D02*
X10648000Y-2801300D01*
X10660700Y-6850700D02*
X10700700Y-6890700D01*
X10700700Y-6850700D02*
X10660700Y-6890700D01*
X11486200Y-9098600D02*
X11526200Y-9138600D01*
X11526200Y-9098600D02*
X11486200Y-9138600D01*
X11740200Y-9670100D02*
X11780200Y-9710100D01*
X11780200Y-9670100D02*
X11740200Y-9710100D01*
X11791000Y-10851200D02*
X11831000Y-10891200D01*
X11831000Y-10851200D02*
X11791000Y-10891200D01*
X11829100Y-12845100D02*
X11869100Y-12885100D01*
X11869100Y-12845100D02*
X11829100Y-12885100D01*
X12438700Y-9149400D02*
X12478700Y-9189400D01*
X12478700Y-9149400D02*
X12438700Y-9189400D01*
X12654600Y-2888300D02*
X12694600Y-2928300D01*
X12694600Y-2888300D02*
X12654600Y-2928300D01*
X12857800Y-6939600D02*
X12897800Y-6979600D01*
X12897800Y-6939600D02*
X12857800Y-6979600D01*
X13073700Y-4920300D02*
X13113700Y-4960300D01*
X13113700Y-4920300D02*
X13073700Y-4960300D01*
X13505500Y-3802700D02*
X13545500Y-3842700D01*
X13545500Y-3802700D02*
X13505500Y-3842700D01*
X13505500Y-8108000D02*
X13545500Y-8148000D01*
X13545500Y-8108000D02*
X13505500Y-8148000D01*
X13581700Y-5860100D02*
X13621700Y-5900100D01*
X13621700Y-5860100D02*
X13581700Y-5900100D01*
X13823000Y-11003600D02*
X13863000Y-11043600D01*
X13863000Y-11003600D02*
X13823000Y-11043600D01*
X13835700Y-13251500D02*
X13875700Y-13291500D01*
X13875700Y-13251500D02*
X13835700Y-13291500D01*
X13937300Y-12083100D02*
X13977300Y-12123100D01*
X13977300Y-12083100D02*
X13937300Y-12123100D01*
X2462500Y-2700000D02*
G75*
G03*
X2462500Y-2700000I-25000J0D01*
G01*
X2462500Y-14000000D02*
G75*
G03*
X2462500Y-14000000I-25000J0D01*
G01*
X2539385Y-2514385D02*
G75*
G03*
X2539385Y-2514385I-25000J0D01*
G01*
X2539385Y-2885615D02*
G75*
G03*
X2539385Y-2885615I-25000J0D01*
G01*
X2539385Y-13814384D02*
G75*
G03*
X2539385Y-13814384I-25000J0D01*
G01*
X2539385Y-14185615D02*
G75*
G03*
X2539385Y-14185615I-25000J0D01*
G01*
X2725000Y-2437500D02*
G75*
G03*
X2725000Y-2437500I-25000J0D01*
G01*
X2725000Y-2962500D02*
G75*
G03*
X2725000Y-2962500I-25000J0D01*
G01*
X2725000Y-13737500D02*
G75*
G03*
X2725000Y-13737500I-25000J0D01*
G01*
X2725000Y-14262500D02*
G75*
G03*
X2725000Y-14262500I-25000J0D01*
G01*
X2910615Y-2514385D02*
G75*
G03*
X2910615Y-2514385I-25000J0D01*
G01*
X2910615Y-2885615D02*
G75*
G03*
X2910615Y-2885615I-25000J0D01*
G01*
X2910615Y-13814384D02*
G75*
G03*
X2910615Y-13814384I-25000J0D01*
G01*
X2910615Y-14185615D02*
G75*
G03*
X2910615Y-14185615I-25000J0D01*
G01*
X2987500Y-2700000D02*
G75*
G03*
X2987500Y-2700000I-25000J0D01*
G01*
X2987500Y-14000000D02*
G75*
G03*
X2987500Y-14000000I-25000J0D01*
G01*
X13762500Y-2700000D02*
G75*
G03*
X13762500Y-2700000I-25000J0D01*
G01*
X13762500Y-14000000D02*
G75*
G03*
X13762500Y-14000000I-25000J0D01*
G01*
X13839384Y-2514385D02*
G75*
G03*
X13839384Y-2514385I-25000J0D01*
G01*
X13839384Y-2885615D02*
G75*
G03*
X13839384Y-2885615I-25000J0D01*
G01*
X13839384Y-13814384D02*
G75*
G03*
X13839384Y-13814384I-25000J0D01*
G01*
X13839384Y-14185615D02*
G75*
G03*
X13839384Y-14185615I-25000J0D01*
G01*
X14025000Y-2437500D02*
G75*
G03*
X14025000Y-2437500I-25000J0D01*
G01*
X14025000Y-2962500D02*
G75*
G03*
X14025000Y-2962500I-25000J0D01*
G01*
X14025000Y-13737500D02*
G75*
G03*
X14025000Y-13737500I-25000J0D01*
G01*
X14025000Y-14262500D02*
G75*
G03*
X14025000Y-14262500I-25000J0D01*
G01*
X14210615Y-2514385D02*
G75*
G03*
X14210615Y-2514385I-25000J0D01*
G01*
X14210615Y-2885615D02*
G75*
G03*
X14210615Y-2885615I-25000J0D01*
G01*
X14210615Y-13814384D02*
G75*
G03*
X14210615Y-13814384I-25000J0D01*
G01*
X14210615Y-14185615D02*
G75*
G03*
X14210615Y-14185615I-25000J0D01*
G01*
X14287500Y-2700000D02*
G75*
G03*
X14287500Y-2700000I-25000J0D01*
G01*
X14287500Y-14000000D02*
G75*
G03*
X14287500Y-14000000I-25000J0D01*
G01*
X8476385Y-10647500D02*
X8476385Y-10722500D01*
X8438885Y-10685000D02*
X8513885Y-10685000D01*
X9111385Y-9897500D02*
X9111385Y-9972500D01*
X9073885Y-9935000D02*
X9148885Y-9935000D01*
X9245385Y-3493500D02*
X9245385Y-3568500D01*
X9207885Y-3531000D02*
X9282885Y-3531000D01*
X9245385Y-5525500D02*
X9245385Y-5600500D01*
X9207885Y-5563000D02*
X9282885Y-5563000D01*
X9245385Y-7557500D02*
X9245385Y-7632500D01*
X9207885Y-7595000D02*
X9282885Y-7595000D01*
X9995385Y-4128500D02*
X9995385Y-4203500D01*
X9957885Y-4166000D02*
X10032885Y-4166000D01*
X9995385Y-6160500D02*
X9995385Y-6235500D01*
X9957885Y-6198000D02*
X10032885Y-6198000D01*
X9995385Y-8192500D02*
X9995385Y-8267500D01*
X9957885Y-8230000D02*
X10032885Y-8230000D01*
X10254385Y-10647500D02*
X10254385Y-10722500D01*
X10216885Y-10685000D02*
X10291885Y-10685000D01*
X10889385Y-9897500D02*
X10889385Y-9972500D01*
X10851885Y-9935000D02*
X10926885Y-9935000D01*
X12286384Y-10647500D02*
X12286384Y-10722500D01*
X12248884Y-10685000D02*
X12323884Y-10685000D01*
X12921384Y-9897500D02*
X12921384Y-9972500D01*
X12883884Y-9935000D02*
X12958884Y-9935000D01*
X5866820Y-3844120D02*
X5866820Y-3780480D01*
X5803180Y-3780480D01*
X5803180Y-3844120D01*
X5866820Y-3844120D01*
X5708577Y-3791271D02*
X5916423Y-3911271D01*
X5916423Y-3911271D02*
G75*
G03*
X5961423Y-3833329I22500J38971D01*
G01*
X5961423Y-3833329D02*
X5753577Y-3713329D01*
X5753577Y-3713329D02*
G75*
G03*
X5708577Y-3791271I-22500J-38971D01*
G01*
X6416820Y-3844120D02*
X6416820Y-3780480D01*
X6353180Y-3780480D01*
X6353180Y-3844120D01*
X6416820Y-3844120D01*
X6303577Y-3911271D02*
X6511423Y-3791271D01*
X6511423Y-3791271D02*
G75*
G03*
X6466423Y-3713329I-22500J38971D01*
G01*
X6466423Y-3713329D02*
X6258577Y-3833329D01*
X6258577Y-3833329D02*
G75*
G03*
X6303577Y-3911271I22500J-38971D01*
G01*
D12*
X2768385Y-5878000D02*
X2828384Y-5818000D01*
X2768385Y-5758000D01*
X2708385Y-5818000D01*
X2768385Y-5878000D01*
X2768385Y-6378000D02*
X2828384Y-6318000D01*
X2768385Y-6258000D01*
X2708385Y-6318000D01*
X2768385Y-6378000D01*
X4292385Y-5856396D02*
X4352385Y-5796396D01*
X4292385Y-5736396D01*
X4232385Y-5796396D01*
X4292385Y-5856396D01*
X4292385Y-6356396D02*
X4352385Y-6296396D01*
X4292385Y-6236396D01*
X4232385Y-6296396D01*
X4292385Y-6356396D01*
X5943384Y-5878000D02*
X6003384Y-5818000D01*
X5943384Y-5758000D01*
X5883384Y-5818000D01*
X5943384Y-5878000D01*
X5943384Y-6378000D02*
X6003384Y-6318000D01*
X5943384Y-6258000D01*
X5883384Y-6318000D01*
X5943384Y-6378000D01*
D13*
X9097885Y-3093500D02*
X9222885Y-3218500D01*
X9222885Y-3093500D02*
X9097885Y-3218500D01*
X9222885Y-3156000D02*
G75*
G03*
X9222885Y-3156000I-62500J0D01*
G01*
X9097885Y-5125500D02*
X9222885Y-5250500D01*
X9222885Y-5125500D02*
X9097885Y-5250500D01*
X9222885Y-5188000D02*
G75*
G03*
X9222885Y-5188000I-62500J0D01*
G01*
X9097885Y-7157500D02*
X9222885Y-7282500D01*
X9222885Y-7157500D02*
X9097885Y-7282500D01*
X9222885Y-7220000D02*
G75*
G03*
X9222885Y-7220000I-62500J0D01*
G01*
X9113885Y-10572500D02*
X9238885Y-10697500D01*
X9238885Y-10572500D02*
X9113885Y-10697500D01*
X9238885Y-10635000D02*
G75*
G03*
X9238885Y-10635000I-62500J0D01*
G01*
X9423885Y-9787500D02*
X9548885Y-9912500D01*
X9548885Y-9787500D02*
X9423885Y-9912500D01*
X9548885Y-9850000D02*
G75*
G03*
X9548885Y-9850000I-62500J0D01*
G01*
X9882885Y-3403500D02*
X10007885Y-3528500D01*
X10007885Y-3403500D02*
X9882885Y-3528500D01*
X10007885Y-3466000D02*
G75*
G03*
X10007885Y-3466000I-62500J0D01*
G01*
X9882885Y-5435500D02*
X10007885Y-5560500D01*
X10007885Y-5435500D02*
X9882885Y-5560500D01*
X10007885Y-5498000D02*
G75*
G03*
X10007885Y-5498000I-62500J0D01*
G01*
X9882885Y-7467500D02*
X10007885Y-7592500D01*
X10007885Y-7467500D02*
X9882885Y-7592500D01*
X10007885Y-7530000D02*
G75*
G03*
X10007885Y-7530000I-62500J0D01*
G01*
X10891885Y-10572500D02*
X11016885Y-10697500D01*
X11016885Y-10572500D02*
X10891885Y-10697500D01*
X11016885Y-10635000D02*
G75*
G03*
X11016885Y-10635000I-62500J0D01*
G01*
X11201884Y-9787500D02*
X11326884Y-9912500D01*
X11326884Y-9787500D02*
X11201884Y-9912500D01*
X11326884Y-9850000D02*
G75*
G03*
X11326884Y-9850000I-62500J0D01*
G01*
X12923884Y-10572500D02*
X13048884Y-10697500D01*
X13048884Y-10572500D02*
X12923884Y-10697500D01*
X13048884Y-10635000D02*
G75*
G03*
X13048884Y-10635000I-62500J0D01*
G01*
X13233884Y-9787500D02*
X13358884Y-9912500D01*
X13358884Y-9787500D02*
X13233884Y-9912500D01*
X13358884Y-9850000D02*
G75*
G03*
X13358884Y-9850000I-62500J0D01*
G01*
D14*
X4069800Y-13981200D02*
X4199800Y-14111200D01*
X4199800Y-13981200D02*
X4069800Y-14111200D01*
X4134800Y-13981200D02*
X4134800Y-14111200D01*
X4069800Y-14046200D02*
X4199800Y-14046200D01*
X4569800Y-13981200D02*
X4699800Y-14111200D01*
X4699800Y-13981200D02*
X4569800Y-14111200D01*
X4634800Y-13981200D02*
X4634800Y-14111200D01*
X4569800Y-14046200D02*
X4699800Y-14046200D01*
X5069800Y-13981200D02*
X5199800Y-14111200D01*
X5199800Y-13981200D02*
X5069800Y-14111200D01*
X5134800Y-13981200D02*
X5134800Y-14111200D01*
X5069800Y-14046200D02*
X5199800Y-14046200D01*
X5569800Y-13981200D02*
X5699800Y-14111200D01*
X5699800Y-13981200D02*
X5569800Y-14111200D01*
X5634800Y-13981200D02*
X5634800Y-14111200D01*
X5569800Y-14046200D02*
X5699800Y-14046200D01*
X6069800Y-13981200D02*
X6199800Y-14111200D01*
X6199800Y-13981200D02*
X6069800Y-14111200D01*
X6134800Y-13981200D02*
X6134800Y-14111200D01*
X6069800Y-14046200D02*
X6199800Y-14046200D01*
X6569800Y-13981200D02*
X6699800Y-14111200D01*
X6699800Y-13981200D02*
X6569800Y-14111200D01*
X6634800Y-13981200D02*
X6634800Y-14111200D01*
X6569800Y-14046200D02*
X6699800Y-14046200D01*
D15*
X7499184Y-13639800D02*
X7651584Y-13792200D01*
X7651584Y-13639800D02*
X7499184Y-13792200D01*
X7629267Y-13769882D02*
X7629267Y-13662118D01*
X7521502Y-13662118D01*
X7521502Y-13769882D01*
X7629267Y-13769882D01*
X7901184Y-13639800D02*
X8053584Y-13792200D01*
X8053584Y-13639800D02*
X7901184Y-13792200D01*
X8031267Y-13769882D02*
X8031267Y-13662118D01*
X7923502Y-13662118D01*
X7923502Y-13769882D01*
X8031267Y-13769882D01*
X8515185Y-12623800D02*
X8667585Y-12776200D01*
X8667585Y-12623800D02*
X8515185Y-12776200D01*
X8645267Y-12753882D02*
X8645267Y-12646118D01*
X8537502Y-12646118D01*
X8537502Y-12753882D01*
X8645267Y-12753882D01*
X8917185Y-12623800D02*
X9069585Y-12776200D01*
X9069585Y-12623800D02*
X8917185Y-12776200D01*
X9047267Y-12753882D02*
X9047267Y-12646118D01*
X8939502Y-12646118D01*
X8939502Y-12753882D01*
X9047267Y-12753882D01*
X9531185Y-13639800D02*
X9683585Y-13792200D01*
X9683585Y-13639800D02*
X9531185Y-13792200D01*
X9661267Y-13769882D02*
X9661267Y-13662118D01*
X9553502Y-13662118D01*
X9553502Y-13769882D01*
X9661267Y-13769882D01*
X9933185Y-13639800D02*
X10085585Y-13792200D01*
X10085585Y-13639800D02*
X9933185Y-13792200D01*
X10063267Y-13769882D02*
X10063267Y-13662118D01*
X9955502Y-13662118D01*
X9955502Y-13769882D01*
X10063267Y-13769882D01*
X10547185Y-12623800D02*
X10699585Y-12776200D01*
X10699585Y-12623800D02*
X10547185Y-12776200D01*
X10677267Y-12753882D02*
X10677267Y-12646118D01*
X10569502Y-12646118D01*
X10569502Y-12753882D01*
X10677267Y-12753882D01*
X10949185Y-12623800D02*
X11101585Y-12776200D01*
X11101585Y-12623800D02*
X10949185Y-12776200D01*
X11079267Y-12753882D02*
X11079267Y-12646118D01*
X10971502Y-12646118D01*
X10971502Y-12753882D01*
X11079267Y-12753882D01*
X11563184Y-13639800D02*
X11715584Y-13792200D01*
X11715584Y-13639800D02*
X11563184Y-13792200D01*
X11693267Y-13769882D02*
X11693267Y-13662118D01*
X11585502Y-13662118D01*
X11585502Y-13769882D01*
X11693267Y-13769882D01*
X11965184Y-13639800D02*
X12117584Y-13792200D01*
X12117584Y-13639800D02*
X11965184Y-13792200D01*
X12095267Y-13769882D02*
X12095267Y-13662118D01*
X11987502Y-13662118D01*
X11987502Y-13769882D01*
X12095267Y-13769882D01*
X12547600Y-3556000D02*
X12700000Y-3708400D01*
X12700000Y-3556000D02*
X12547600Y-3708400D01*
X12677682Y-3686082D02*
X12677682Y-3578318D01*
X12569918Y-3578318D01*
X12569918Y-3686082D01*
X12677682Y-3686082D01*
X12547600Y-3958000D02*
X12700000Y-4110400D01*
X12700000Y-3958000D02*
X12547600Y-4110400D01*
X12677682Y-4088082D02*
X12677682Y-3980318D01*
X12569918Y-3980318D01*
X12569918Y-4088082D01*
X12677682Y-4088082D01*
X12547600Y-5588000D02*
X12700000Y-5740400D01*
X12700000Y-5588000D02*
X12547600Y-5740400D01*
X12677682Y-5718082D02*
X12677682Y-5610318D01*
X12569918Y-5610318D01*
X12569918Y-5718082D01*
X12677682Y-5718082D01*
X12547600Y-5990000D02*
X12700000Y-6142400D01*
X12700000Y-5990000D02*
X12547600Y-6142400D01*
X12677682Y-6120082D02*
X12677682Y-6012318D01*
X12569918Y-6012318D01*
X12569918Y-6120082D01*
X12677682Y-6120082D01*
X12547600Y-7620000D02*
X12700000Y-7772400D01*
X12700000Y-7620000D02*
X12547600Y-7772400D01*
X12677682Y-7750082D02*
X12677682Y-7642318D01*
X12569918Y-7642318D01*
X12569918Y-7750082D01*
X12677682Y-7750082D01*
X12547600Y-8022000D02*
X12700000Y-8174400D01*
X12700000Y-8022000D02*
X12547600Y-8174400D01*
X12677682Y-8152082D02*
X12677682Y-8044318D01*
X12569918Y-8044318D01*
X12569918Y-8152082D01*
X12677682Y-8152082D01*
X12579184Y-12623800D02*
X12731584Y-12776200D01*
X12731584Y-12623800D02*
X12579184Y-12776200D01*
X12709267Y-12753882D02*
X12709267Y-12646118D01*
X12601502Y-12646118D01*
X12601502Y-12753882D01*
X12709267Y-12753882D01*
X12981184Y-12623800D02*
X13133584Y-12776200D01*
X13133584Y-12623800D02*
X12981184Y-12776200D01*
X13111267Y-12753882D02*
X13111267Y-12646118D01*
X13003502Y-12646118D01*
X13003502Y-12753882D01*
X13111267Y-12753882D01*
X13563600Y-4572000D02*
X13716000Y-4724400D01*
X13716000Y-4572000D02*
X13563600Y-4724400D01*
X13693682Y-4702082D02*
X13693682Y-4594318D01*
X13585918Y-4594318D01*
X13585918Y-4702082D01*
X13693682Y-4702082D01*
X13563600Y-4974000D02*
X13716000Y-5126400D01*
X13716000Y-4974000D02*
X13563600Y-5126400D01*
X13693682Y-5104082D02*
X13693682Y-4996318D01*
X13585918Y-4996318D01*
X13585918Y-5104082D01*
X13693682Y-5104082D01*
X13563600Y-6604000D02*
X13716000Y-6756400D01*
X13716000Y-6604000D02*
X13563600Y-6756400D01*
X13693682Y-6734082D02*
X13693682Y-6626318D01*
X13585918Y-6626318D01*
X13585918Y-6734082D01*
X13693682Y-6734082D01*
X13563600Y-7006000D02*
X13716000Y-7158400D01*
X13716000Y-7006000D02*
X13563600Y-7158400D01*
X13693682Y-7136082D02*
X13693682Y-7028318D01*
X13585918Y-7028318D01*
X13585918Y-7136082D01*
X13693682Y-7136082D01*
X13563600Y-8636000D02*
X13716000Y-8788400D01*
X13716000Y-8636000D02*
X13563600Y-8788400D01*
X13693682Y-8766082D02*
X13693682Y-8658318D01*
X13585918Y-8658318D01*
X13585918Y-8766082D01*
X13693682Y-8766082D01*
X13563600Y-9038000D02*
X13716000Y-9190400D01*
X13716000Y-9038000D02*
X13563600Y-9190400D01*
X13693682Y-9168082D02*
X13693682Y-9060318D01*
X13585918Y-9060318D01*
X13585918Y-9168082D01*
X13693682Y-9168082D01*
D16*
X2869000Y-3604000D02*
X3029000Y-3764000D01*
X3029000Y-3604000D02*
X2869000Y-3764000D01*
X2949000Y-3764000D02*
X3029000Y-3684000D01*
X2949000Y-3604000D01*
X2869000Y-3684000D01*
X2949000Y-3764000D01*
X2869000Y-4620000D02*
X3029000Y-4780000D01*
X3029000Y-4620000D02*
X2869000Y-4780000D01*
X2949000Y-4780000D02*
X3029000Y-4700000D01*
X2949000Y-4620000D01*
X2869000Y-4700000D01*
X2949000Y-4780000D01*
X3885000Y-3604000D02*
X4045000Y-3764000D01*
X4045000Y-3604000D02*
X3885000Y-3764000D01*
X3965000Y-3764000D02*
X4045000Y-3684000D01*
X3965000Y-3604000D01*
X3885000Y-3684000D01*
X3965000Y-3764000D01*
X3885000Y-4620000D02*
X4045000Y-4780000D01*
X4045000Y-4620000D02*
X3885000Y-4780000D01*
X3965000Y-4780000D02*
X4045000Y-4700000D01*
X3965000Y-4620000D01*
X3885000Y-4700000D01*
X3965000Y-4780000D01*
D17*
X2700000Y-2525000D02*
X2700000Y-2875000D01*
X2525000Y-2700000D02*
X2875000Y-2700000D01*
X2875000Y-2700000D02*
G75*
G03*
X2875000Y-2700000I-175000J0D01*
G01*
X2700000Y-13825000D02*
X2700000Y-14175000D01*
X2525000Y-14000000D02*
X2875000Y-14000000D01*
X2875000Y-14000000D02*
G75*
G03*
X2875000Y-14000000I-175000J0D01*
G01*
X14000000Y-2525000D02*
X14000000Y-2875000D01*
X13825000Y-2700000D02*
X14175000Y-2700000D01*
X14175000Y-2700000D02*
G75*
G03*
X14175000Y-2700000I-175000J0D01*
G01*
X14000000Y-13825000D02*
X14000000Y-14175000D01*
X13825000Y-14000000D02*
X14175000Y-14000000D01*
X14175000Y-14000000D02*
G75*
G03*
X14175000Y-14000000I-175000J0D01*
G01*
D10*
X2250777Y-15021484D02*
X2250777Y-14821484D01*
X2250777Y-14821484D02*
X2298396Y-14821484D01*
X2298396Y-14821484D02*
X2326967Y-14831008D01*
X2326967Y-14831008D02*
X2346015Y-14850055D01*
X2346015Y-14850055D02*
X2355539Y-14869103D01*
X2355539Y-14869103D02*
X2365063Y-14907198D01*
X2365063Y-14907198D02*
X2365063Y-14935769D01*
X2365063Y-14935769D02*
X2355539Y-14973865D01*
X2355539Y-14973865D02*
X2346015Y-14992912D01*
X2346015Y-14992912D02*
X2326967Y-15011960D01*
X2326967Y-15011960D02*
X2298396Y-15021484D01*
X2298396Y-15021484D02*
X2250777Y-15021484D01*
X2450777Y-15021484D02*
X2450777Y-14888150D01*
X2450777Y-14926246D02*
X2460301Y-14907198D01*
X2460301Y-14907198D02*
X2469824Y-14897674D01*
X2469824Y-14897674D02*
X2488872Y-14888150D01*
X2488872Y-14888150D02*
X2507920Y-14888150D01*
X2574586Y-15021484D02*
X2574586Y-14888150D01*
X2574586Y-14821484D02*
X2565063Y-14831008D01*
X2565063Y-14831008D02*
X2574586Y-14840531D01*
X2574586Y-14840531D02*
X2584110Y-14831008D01*
X2584110Y-14831008D02*
X2574586Y-14821484D01*
X2574586Y-14821484D02*
X2574586Y-14840531D01*
X2698396Y-15021484D02*
X2679348Y-15011960D01*
X2679348Y-15011960D02*
X2669824Y-14992912D01*
X2669824Y-14992912D02*
X2669824Y-14821484D01*
X2803158Y-15021484D02*
X2784110Y-15011960D01*
X2784110Y-15011960D02*
X2774586Y-14992912D01*
X2774586Y-14992912D02*
X2774586Y-14821484D01*
X3031729Y-15021484D02*
X3031729Y-14821484D01*
X3031729Y-14821484D02*
X3098396Y-14964341D01*
X3098396Y-14964341D02*
X3165062Y-14821484D01*
X3165062Y-14821484D02*
X3165062Y-15021484D01*
X3346015Y-15021484D02*
X3346015Y-14916722D01*
X3346015Y-14916722D02*
X3336491Y-14897674D01*
X3336491Y-14897674D02*
X3317443Y-14888150D01*
X3317443Y-14888150D02*
X3279348Y-14888150D01*
X3279348Y-14888150D02*
X3260301Y-14897674D01*
X3346015Y-15011960D02*
X3326967Y-15021484D01*
X3326967Y-15021484D02*
X3279348Y-15021484D01*
X3279348Y-15021484D02*
X3260301Y-15011960D01*
X3260301Y-15011960D02*
X3250777Y-14992912D01*
X3250777Y-14992912D02*
X3250777Y-14973865D01*
X3250777Y-14973865D02*
X3260301Y-14954817D01*
X3260301Y-14954817D02*
X3279348Y-14945293D01*
X3279348Y-14945293D02*
X3326967Y-14945293D01*
X3326967Y-14945293D02*
X3346015Y-14935769D01*
X3441253Y-14888150D02*
X3441253Y-15088150D01*
X3441253Y-14897674D02*
X3460301Y-14888150D01*
X3460301Y-14888150D02*
X3498396Y-14888150D01*
X3498396Y-14888150D02*
X3517443Y-14897674D01*
X3517443Y-14897674D02*
X3526967Y-14907198D01*
X3526967Y-14907198D02*
X3536491Y-14926246D01*
X3536491Y-14926246D02*
X3536491Y-14983388D01*
X3536491Y-14983388D02*
X3526967Y-15002436D01*
X3526967Y-15002436D02*
X3517443Y-15011960D01*
X3517443Y-15011960D02*
X3498396Y-15021484D01*
X3498396Y-15021484D02*
X3460301Y-15021484D01*
X3460301Y-15021484D02*
X3441253Y-15011960D01*
X3622205Y-15002436D02*
X3631729Y-15011960D01*
X3631729Y-15011960D02*
X3622205Y-15021484D01*
X3622205Y-15021484D02*
X3612682Y-15011960D01*
X3612682Y-15011960D02*
X3622205Y-15002436D01*
X3622205Y-15002436D02*
X3622205Y-15021484D01*
X3622205Y-14897674D02*
X3631729Y-14907198D01*
X3631729Y-14907198D02*
X3622205Y-14916722D01*
X3622205Y-14916722D02*
X3612682Y-14907198D01*
X3612682Y-14907198D02*
X3622205Y-14897674D01*
X3622205Y-14897674D02*
X3622205Y-14916722D01*
D11*
X1950000Y-15330000D02*
X1990000Y-15370000D01*
X1990000Y-15330000D02*
X1950000Y-15370000D01*
D10*
X2288872Y-15241484D02*
X2307920Y-15241484D01*
X2307920Y-15241484D02*
X2326967Y-15251008D01*
X2326967Y-15251008D02*
X2336491Y-15260531D01*
X2336491Y-15260531D02*
X2346015Y-15279579D01*
X2346015Y-15279579D02*
X2355539Y-15317674D01*
X2355539Y-15317674D02*
X2355539Y-15365293D01*
X2355539Y-15365293D02*
X2346015Y-15403388D01*
X2346015Y-15403388D02*
X2336491Y-15422436D01*
X2336491Y-15422436D02*
X2326967Y-15431960D01*
X2326967Y-15431960D02*
X2307920Y-15441484D01*
X2307920Y-15441484D02*
X2288872Y-15441484D01*
X2288872Y-15441484D02*
X2269824Y-15431960D01*
X2269824Y-15431960D02*
X2260301Y-15422436D01*
X2260301Y-15422436D02*
X2250777Y-15403388D01*
X2250777Y-15403388D02*
X2241253Y-15365293D01*
X2241253Y-15365293D02*
X2241253Y-15317674D01*
X2241253Y-15317674D02*
X2250777Y-15279579D01*
X2250777Y-15279579D02*
X2260301Y-15260531D01*
X2260301Y-15260531D02*
X2269824Y-15251008D01*
X2269824Y-15251008D02*
X2288872Y-15241484D01*
X2441253Y-15422436D02*
X2450777Y-15431960D01*
X2450777Y-15431960D02*
X2441253Y-15441484D01*
X2441253Y-15441484D02*
X2431729Y-15431960D01*
X2431729Y-15431960D02*
X2441253Y-15422436D01*
X2441253Y-15422436D02*
X2441253Y-15441484D01*
X2622205Y-15308150D02*
X2622205Y-15441484D01*
X2574586Y-15231960D02*
X2526967Y-15374817D01*
X2526967Y-15374817D02*
X2650777Y-15374817D01*
X2765063Y-15241484D02*
X2784110Y-15241484D01*
X2784110Y-15241484D02*
X2803158Y-15251008D01*
X2803158Y-15251008D02*
X2812682Y-15260531D01*
X2812682Y-15260531D02*
X2822205Y-15279579D01*
X2822205Y-15279579D02*
X2831729Y-15317674D01*
X2831729Y-15317674D02*
X2831729Y-15365293D01*
X2831729Y-15365293D02*
X2822205Y-15403388D01*
X2822205Y-15403388D02*
X2812682Y-15422436D01*
X2812682Y-15422436D02*
X2803158Y-15431960D01*
X2803158Y-15431960D02*
X2784110Y-15441484D01*
X2784110Y-15441484D02*
X2765063Y-15441484D01*
X2765063Y-15441484D02*
X2746015Y-15431960D01*
X2746015Y-15431960D02*
X2736491Y-15422436D01*
X2736491Y-15422436D02*
X2726967Y-15403388D01*
X2726967Y-15403388D02*
X2717444Y-15365293D01*
X2717444Y-15365293D02*
X2717444Y-15317674D01*
X2717444Y-15317674D02*
X2726967Y-15279579D01*
X2726967Y-15279579D02*
X2736491Y-15260531D01*
X2736491Y-15260531D02*
X2746015Y-15251008D01*
X2746015Y-15251008D02*
X2765063Y-15241484D01*
X2955539Y-15241484D02*
X2974586Y-15241484D01*
X2974586Y-15241484D02*
X2993634Y-15251008D01*
X2993634Y-15251008D02*
X3003158Y-15260531D01*
X3003158Y-15260531D02*
X3012682Y-15279579D01*
X3012682Y-15279579D02*
X3022205Y-15317674D01*
X3022205Y-15317674D02*
X3022205Y-15365293D01*
X3022205Y-15365293D02*
X3012682Y-15403388D01*
X3012682Y-15403388D02*
X3003158Y-15422436D01*
X3003158Y-15422436D02*
X2993634Y-15431960D01*
X2993634Y-15431960D02*
X2974586Y-15441484D01*
X2974586Y-15441484D02*
X2955539Y-15441484D01*
X2955539Y-15441484D02*
X2936491Y-15431960D01*
X2936491Y-15431960D02*
X2926967Y-15422436D01*
X2926967Y-15422436D02*
X2917443Y-15403388D01*
X2917443Y-15403388D02*
X2907920Y-15365293D01*
X2907920Y-15365293D02*
X2907920Y-15317674D01*
X2907920Y-15317674D02*
X2917443Y-15279579D01*
X2917443Y-15279579D02*
X2926967Y-15260531D01*
X2926967Y-15260531D02*
X2936491Y-15251008D01*
X2936491Y-15251008D02*
X2955539Y-15241484D01*
X3107920Y-15441484D02*
X3107920Y-15308150D01*
X3107920Y-15327198D02*
X3117443Y-15317674D01*
X3117443Y-15317674D02*
X3136491Y-15308150D01*
X3136491Y-15308150D02*
X3165063Y-15308150D01*
X3165063Y-15308150D02*
X3184110Y-15317674D01*
X3184110Y-15317674D02*
X3193634Y-15336722D01*
X3193634Y-15336722D02*
X3193634Y-15441484D01*
X3193634Y-15336722D02*
X3203158Y-15317674D01*
X3203158Y-15317674D02*
X3222205Y-15308150D01*
X3222205Y-15308150D02*
X3250777Y-15308150D01*
X3250777Y-15308150D02*
X3269824Y-15317674D01*
X3269824Y-15317674D02*
X3279348Y-15336722D01*
X3279348Y-15336722D02*
X3279348Y-15441484D01*
X3374586Y-15441484D02*
X3374586Y-15308150D01*
X3374586Y-15327198D02*
X3384110Y-15317674D01*
X3384110Y-15317674D02*
X3403158Y-15308150D01*
X3403158Y-15308150D02*
X3431729Y-15308150D01*
X3431729Y-15308150D02*
X3450777Y-15317674D01*
X3450777Y-15317674D02*
X3460301Y-15336722D01*
X3460301Y-15336722D02*
X3460301Y-15441484D01*
X3460301Y-15336722D02*
X3469824Y-15317674D01*
X3469824Y-15317674D02*
X3488872Y-15308150D01*
X3488872Y-15308150D02*
X3517443Y-15308150D01*
X3517443Y-15308150D02*
X3536491Y-15317674D01*
X3536491Y-15317674D02*
X3546015Y-15336722D01*
X3546015Y-15336722D02*
X3546015Y-15441484D01*
X3936491Y-15231960D02*
X3765063Y-15489103D01*
X4193634Y-15241484D02*
X4212682Y-15241484D01*
X4212682Y-15241484D02*
X4231729Y-15251008D01*
X4231729Y-15251008D02*
X4241253Y-15260531D01*
X4241253Y-15260531D02*
X4250777Y-15279579D01*
X4250777Y-15279579D02*
X4260301Y-15317674D01*
X4260301Y-15317674D02*
X4260301Y-15365293D01*
X4260301Y-15365293D02*
X4250777Y-15403388D01*
X4250777Y-15403388D02*
X4241253Y-15422436D01*
X4241253Y-15422436D02*
X4231729Y-15431960D01*
X4231729Y-15431960D02*
X4212682Y-15441484D01*
X4212682Y-15441484D02*
X4193634Y-15441484D01*
X4193634Y-15441484D02*
X4174586Y-15431960D01*
X4174586Y-15431960D02*
X4165063Y-15422436D01*
X4165063Y-15422436D02*
X4155539Y-15403388D01*
X4155539Y-15403388D02*
X4146015Y-15365293D01*
X4146015Y-15365293D02*
X4146015Y-15317674D01*
X4146015Y-15317674D02*
X4155539Y-15279579D01*
X4155539Y-15279579D02*
X4165063Y-15260531D01*
X4165063Y-15260531D02*
X4174586Y-15251008D01*
X4174586Y-15251008D02*
X4193634Y-15241484D01*
X4346015Y-15422436D02*
X4355539Y-15431960D01*
X4355539Y-15431960D02*
X4346015Y-15441484D01*
X4346015Y-15441484D02*
X4336491Y-15431960D01*
X4336491Y-15431960D02*
X4346015Y-15422436D01*
X4346015Y-15422436D02*
X4346015Y-15441484D01*
X4479348Y-15241484D02*
X4498396Y-15241484D01*
X4498396Y-15241484D02*
X4517444Y-15251008D01*
X4517444Y-15251008D02*
X4526968Y-15260531D01*
X4526968Y-15260531D02*
X4536491Y-15279579D01*
X4536491Y-15279579D02*
X4546015Y-15317674D01*
X4546015Y-15317674D02*
X4546015Y-15365293D01*
X4546015Y-15365293D02*
X4536491Y-15403388D01*
X4536491Y-15403388D02*
X4526968Y-15422436D01*
X4526968Y-15422436D02*
X4517444Y-15431960D01*
X4517444Y-15431960D02*
X4498396Y-15441484D01*
X4498396Y-15441484D02*
X4479348Y-15441484D01*
X4479348Y-15441484D02*
X4460301Y-15431960D01*
X4460301Y-15431960D02*
X4450777Y-15422436D01*
X4450777Y-15422436D02*
X4441253Y-15403388D01*
X4441253Y-15403388D02*
X4431729Y-15365293D01*
X4431729Y-15365293D02*
X4431729Y-15317674D01*
X4431729Y-15317674D02*
X4441253Y-15279579D01*
X4441253Y-15279579D02*
X4450777Y-15260531D01*
X4450777Y-15260531D02*
X4460301Y-15251008D01*
X4460301Y-15251008D02*
X4479348Y-15241484D01*
X4736491Y-15441484D02*
X4622206Y-15441484D01*
X4679348Y-15441484D02*
X4679348Y-15241484D01*
X4679348Y-15241484D02*
X4660301Y-15270055D01*
X4660301Y-15270055D02*
X4641253Y-15289103D01*
X4641253Y-15289103D02*
X4622206Y-15298627D01*
X4917444Y-15241484D02*
X4822206Y-15241484D01*
X4822206Y-15241484D02*
X4812682Y-15336722D01*
X4812682Y-15336722D02*
X4822206Y-15327198D01*
X4822206Y-15327198D02*
X4841253Y-15317674D01*
X4841253Y-15317674D02*
X4888872Y-15317674D01*
X4888872Y-15317674D02*
X4907920Y-15327198D01*
X4907920Y-15327198D02*
X4917444Y-15336722D01*
X4917444Y-15336722D02*
X4926968Y-15355769D01*
X4926968Y-15355769D02*
X4926968Y-15403388D01*
X4926968Y-15403388D02*
X4917444Y-15422436D01*
X4917444Y-15422436D02*
X4907920Y-15431960D01*
X4907920Y-15431960D02*
X4888872Y-15441484D01*
X4888872Y-15441484D02*
X4841253Y-15441484D01*
X4841253Y-15441484D02*
X4822206Y-15431960D01*
X4822206Y-15431960D02*
X4812682Y-15422436D01*
X4993634Y-15241484D02*
X5126968Y-15241484D01*
X5126968Y-15241484D02*
X5041253Y-15441484D01*
X5193634Y-15241484D02*
X5193634Y-15279579D01*
X5269825Y-15241484D02*
X5269825Y-15279579D01*
X5565063Y-15517674D02*
X5555539Y-15508150D01*
X5555539Y-15508150D02*
X5536491Y-15479579D01*
X5536491Y-15479579D02*
X5526968Y-15460531D01*
X5526968Y-15460531D02*
X5517444Y-15431960D01*
X5517444Y-15431960D02*
X5507920Y-15384341D01*
X5507920Y-15384341D02*
X5507920Y-15346246D01*
X5507920Y-15346246D02*
X5517444Y-15298627D01*
X5517444Y-15298627D02*
X5526968Y-15270055D01*
X5526968Y-15270055D02*
X5536491Y-15251008D01*
X5536491Y-15251008D02*
X5555539Y-15222436D01*
X5555539Y-15222436D02*
X5565063Y-15212912D01*
X5650777Y-15441484D02*
X5688872Y-15441484D01*
X5688872Y-15441484D02*
X5707920Y-15431960D01*
X5707920Y-15431960D02*
X5717444Y-15422436D01*
X5717444Y-15422436D02*
X5736491Y-15393865D01*
X5736491Y-15393865D02*
X5746015Y-15355769D01*
X5746015Y-15355769D02*
X5746015Y-15279579D01*
X5746015Y-15279579D02*
X5736491Y-15260531D01*
X5736491Y-15260531D02*
X5726968Y-15251008D01*
X5726968Y-15251008D02*
X5707920Y-15241484D01*
X5707920Y-15241484D02*
X5669825Y-15241484D01*
X5669825Y-15241484D02*
X5650777Y-15251008D01*
X5650777Y-15251008D02*
X5641253Y-15260531D01*
X5641253Y-15260531D02*
X5631729Y-15279579D01*
X5631729Y-15279579D02*
X5631729Y-15327198D01*
X5631729Y-15327198D02*
X5641253Y-15346246D01*
X5641253Y-15346246D02*
X5650777Y-15355769D01*
X5650777Y-15355769D02*
X5669825Y-15365293D01*
X5669825Y-15365293D02*
X5707920Y-15365293D01*
X5707920Y-15365293D02*
X5726968Y-15355769D01*
X5726968Y-15355769D02*
X5736491Y-15346246D01*
X5736491Y-15346246D02*
X5746015Y-15327198D01*
X5822206Y-15260531D02*
X5831729Y-15251008D01*
X5831729Y-15251008D02*
X5850777Y-15241484D01*
X5850777Y-15241484D02*
X5898396Y-15241484D01*
X5898396Y-15241484D02*
X5917444Y-15251008D01*
X5917444Y-15251008D02*
X5926968Y-15260531D01*
X5926968Y-15260531D02*
X5936491Y-15279579D01*
X5936491Y-15279579D02*
X5936491Y-15298627D01*
X5936491Y-15298627D02*
X5926968Y-15327198D01*
X5926968Y-15327198D02*
X5812682Y-15441484D01*
X5812682Y-15441484D02*
X5936491Y-15441484D01*
X6174587Y-15441484D02*
X6174587Y-15241484D01*
X6260301Y-15441484D02*
X6260301Y-15336722D01*
X6260301Y-15336722D02*
X6250777Y-15317674D01*
X6250777Y-15317674D02*
X6231730Y-15308150D01*
X6231730Y-15308150D02*
X6203158Y-15308150D01*
X6203158Y-15308150D02*
X6184110Y-15317674D01*
X6184110Y-15317674D02*
X6174587Y-15327198D01*
X6384110Y-15441484D02*
X6365063Y-15431960D01*
X6365063Y-15431960D02*
X6355539Y-15422436D01*
X6355539Y-15422436D02*
X6346015Y-15403388D01*
X6346015Y-15403388D02*
X6346015Y-15346246D01*
X6346015Y-15346246D02*
X6355539Y-15327198D01*
X6355539Y-15327198D02*
X6365063Y-15317674D01*
X6365063Y-15317674D02*
X6384110Y-15308150D01*
X6384110Y-15308150D02*
X6412682Y-15308150D01*
X6412682Y-15308150D02*
X6431730Y-15317674D01*
X6431730Y-15317674D02*
X6441253Y-15327198D01*
X6441253Y-15327198D02*
X6450777Y-15346246D01*
X6450777Y-15346246D02*
X6450777Y-15403388D01*
X6450777Y-15403388D02*
X6441253Y-15422436D01*
X6441253Y-15422436D02*
X6431730Y-15431960D01*
X6431730Y-15431960D02*
X6412682Y-15441484D01*
X6412682Y-15441484D02*
X6384110Y-15441484D01*
X6565063Y-15441484D02*
X6546015Y-15431960D01*
X6546015Y-15431960D02*
X6536491Y-15412912D01*
X6536491Y-15412912D02*
X6536491Y-15241484D01*
X6717444Y-15431960D02*
X6698396Y-15441484D01*
X6698396Y-15441484D02*
X6660301Y-15441484D01*
X6660301Y-15441484D02*
X6641253Y-15431960D01*
X6641253Y-15431960D02*
X6631730Y-15412912D01*
X6631730Y-15412912D02*
X6631730Y-15336722D01*
X6631730Y-15336722D02*
X6641253Y-15317674D01*
X6641253Y-15317674D02*
X6660301Y-15308150D01*
X6660301Y-15308150D02*
X6698396Y-15308150D01*
X6698396Y-15308150D02*
X6717444Y-15317674D01*
X6717444Y-15317674D02*
X6726968Y-15336722D01*
X6726968Y-15336722D02*
X6726968Y-15355769D01*
X6726968Y-15355769D02*
X6631730Y-15374817D01*
X6803158Y-15431960D02*
X6822206Y-15441484D01*
X6822206Y-15441484D02*
X6860301Y-15441484D01*
X6860301Y-15441484D02*
X6879349Y-15431960D01*
X6879349Y-15431960D02*
X6888872Y-15412912D01*
X6888872Y-15412912D02*
X6888872Y-15403388D01*
X6888872Y-15403388D02*
X6879349Y-15384341D01*
X6879349Y-15384341D02*
X6860301Y-15374817D01*
X6860301Y-15374817D02*
X6831730Y-15374817D01*
X6831730Y-15374817D02*
X6812682Y-15365293D01*
X6812682Y-15365293D02*
X6803158Y-15346246D01*
X6803158Y-15346246D02*
X6803158Y-15336722D01*
X6803158Y-15336722D02*
X6812682Y-15317674D01*
X6812682Y-15317674D02*
X6831730Y-15308150D01*
X6831730Y-15308150D02*
X6860301Y-15308150D01*
X6860301Y-15308150D02*
X6879349Y-15317674D01*
X6955539Y-15517674D02*
X6965063Y-15508150D01*
X6965063Y-15508150D02*
X6984111Y-15479579D01*
X6984111Y-15479579D02*
X6993634Y-15460531D01*
X6993634Y-15460531D02*
X7003158Y-15431960D01*
X7003158Y-15431960D02*
X7012682Y-15384341D01*
X7012682Y-15384341D02*
X7012682Y-15346246D01*
X7012682Y-15346246D02*
X7003158Y-15298627D01*
X7003158Y-15298627D02*
X6993634Y-15270055D01*
X6993634Y-15270055D02*
X6984111Y-15251008D01*
X6984111Y-15251008D02*
X6965063Y-15222436D01*
X6965063Y-15222436D02*
X6955539Y-15212912D01*
D11*
X1990000Y-15614000D02*
G75*
G03*
X1990000Y-15614000I-25000J0D01*
G01*
D10*
X2288872Y-15505484D02*
X2307920Y-15505484D01*
X2307920Y-15505484D02*
X2326967Y-15515008D01*
X2326967Y-15515008D02*
X2336491Y-15524531D01*
X2336491Y-15524531D02*
X2346015Y-15543579D01*
X2346015Y-15543579D02*
X2355539Y-15581674D01*
X2355539Y-15581674D02*
X2355539Y-15629293D01*
X2355539Y-15629293D02*
X2346015Y-15667388D01*
X2346015Y-15667388D02*
X2336491Y-15686436D01*
X2336491Y-15686436D02*
X2326967Y-15695960D01*
X2326967Y-15695960D02*
X2307920Y-15705484D01*
X2307920Y-15705484D02*
X2288872Y-15705484D01*
X2288872Y-15705484D02*
X2269824Y-15695960D01*
X2269824Y-15695960D02*
X2260301Y-15686436D01*
X2260301Y-15686436D02*
X2250777Y-15667388D01*
X2250777Y-15667388D02*
X2241253Y-15629293D01*
X2241253Y-15629293D02*
X2241253Y-15581674D01*
X2241253Y-15581674D02*
X2250777Y-15543579D01*
X2250777Y-15543579D02*
X2260301Y-15524531D01*
X2260301Y-15524531D02*
X2269824Y-15515008D01*
X2269824Y-15515008D02*
X2288872Y-15505484D01*
X2441253Y-15686436D02*
X2450777Y-15695960D01*
X2450777Y-15695960D02*
X2441253Y-15705484D01*
X2441253Y-15705484D02*
X2431729Y-15695960D01*
X2431729Y-15695960D02*
X2441253Y-15686436D01*
X2441253Y-15686436D02*
X2441253Y-15705484D01*
X2631729Y-15505484D02*
X2536491Y-15505484D01*
X2536491Y-15505484D02*
X2526967Y-15600722D01*
X2526967Y-15600722D02*
X2536491Y-15591198D01*
X2536491Y-15591198D02*
X2555539Y-15581674D01*
X2555539Y-15581674D02*
X2603158Y-15581674D01*
X2603158Y-15581674D02*
X2622205Y-15591198D01*
X2622205Y-15591198D02*
X2631729Y-15600722D01*
X2631729Y-15600722D02*
X2641253Y-15619769D01*
X2641253Y-15619769D02*
X2641253Y-15667388D01*
X2641253Y-15667388D02*
X2631729Y-15686436D01*
X2631729Y-15686436D02*
X2622205Y-15695960D01*
X2622205Y-15695960D02*
X2603158Y-15705484D01*
X2603158Y-15705484D02*
X2555539Y-15705484D01*
X2555539Y-15705484D02*
X2536491Y-15695960D01*
X2536491Y-15695960D02*
X2526967Y-15686436D01*
X2765063Y-15505484D02*
X2784110Y-15505484D01*
X2784110Y-15505484D02*
X2803158Y-15515008D01*
X2803158Y-15515008D02*
X2812682Y-15524531D01*
X2812682Y-15524531D02*
X2822205Y-15543579D01*
X2822205Y-15543579D02*
X2831729Y-15581674D01*
X2831729Y-15581674D02*
X2831729Y-15629293D01*
X2831729Y-15629293D02*
X2822205Y-15667388D01*
X2822205Y-15667388D02*
X2812682Y-15686436D01*
X2812682Y-15686436D02*
X2803158Y-15695960D01*
X2803158Y-15695960D02*
X2784110Y-15705484D01*
X2784110Y-15705484D02*
X2765063Y-15705484D01*
X2765063Y-15705484D02*
X2746015Y-15695960D01*
X2746015Y-15695960D02*
X2736491Y-15686436D01*
X2736491Y-15686436D02*
X2726967Y-15667388D01*
X2726967Y-15667388D02*
X2717444Y-15629293D01*
X2717444Y-15629293D02*
X2717444Y-15581674D01*
X2717444Y-15581674D02*
X2726967Y-15543579D01*
X2726967Y-15543579D02*
X2736491Y-15524531D01*
X2736491Y-15524531D02*
X2746015Y-15515008D01*
X2746015Y-15515008D02*
X2765063Y-15505484D01*
X2955539Y-15505484D02*
X2974586Y-15505484D01*
X2974586Y-15505484D02*
X2993634Y-15515008D01*
X2993634Y-15515008D02*
X3003158Y-15524531D01*
X3003158Y-15524531D02*
X3012682Y-15543579D01*
X3012682Y-15543579D02*
X3022205Y-15581674D01*
X3022205Y-15581674D02*
X3022205Y-15629293D01*
X3022205Y-15629293D02*
X3012682Y-15667388D01*
X3012682Y-15667388D02*
X3003158Y-15686436D01*
X3003158Y-15686436D02*
X2993634Y-15695960D01*
X2993634Y-15695960D02*
X2974586Y-15705484D01*
X2974586Y-15705484D02*
X2955539Y-15705484D01*
X2955539Y-15705484D02*
X2936491Y-15695960D01*
X2936491Y-15695960D02*
X2926967Y-15686436D01*
X2926967Y-15686436D02*
X2917443Y-15667388D01*
X2917443Y-15667388D02*
X2907920Y-15629293D01*
X2907920Y-15629293D02*
X2907920Y-15581674D01*
X2907920Y-15581674D02*
X2917443Y-15543579D01*
X2917443Y-15543579D02*
X2926967Y-15524531D01*
X2926967Y-15524531D02*
X2936491Y-15515008D01*
X2936491Y-15515008D02*
X2955539Y-15505484D01*
X3107920Y-15705484D02*
X3107920Y-15572150D01*
X3107920Y-15591198D02*
X3117443Y-15581674D01*
X3117443Y-15581674D02*
X3136491Y-15572150D01*
X3136491Y-15572150D02*
X3165063Y-15572150D01*
X3165063Y-15572150D02*
X3184110Y-15581674D01*
X3184110Y-15581674D02*
X3193634Y-15600722D01*
X3193634Y-15600722D02*
X3193634Y-15705484D01*
X3193634Y-15600722D02*
X3203158Y-15581674D01*
X3203158Y-15581674D02*
X3222205Y-15572150D01*
X3222205Y-15572150D02*
X3250777Y-15572150D01*
X3250777Y-15572150D02*
X3269824Y-15581674D01*
X3269824Y-15581674D02*
X3279348Y-15600722D01*
X3279348Y-15600722D02*
X3279348Y-15705484D01*
X3374586Y-15705484D02*
X3374586Y-15572150D01*
X3374586Y-15591198D02*
X3384110Y-15581674D01*
X3384110Y-15581674D02*
X3403158Y-15572150D01*
X3403158Y-15572150D02*
X3431729Y-15572150D01*
X3431729Y-15572150D02*
X3450777Y-15581674D01*
X3450777Y-15581674D02*
X3460301Y-15600722D01*
X3460301Y-15600722D02*
X3460301Y-15705484D01*
X3460301Y-15600722D02*
X3469824Y-15581674D01*
X3469824Y-15581674D02*
X3488872Y-15572150D01*
X3488872Y-15572150D02*
X3517443Y-15572150D01*
X3517443Y-15572150D02*
X3536491Y-15581674D01*
X3536491Y-15581674D02*
X3546015Y-15600722D01*
X3546015Y-15600722D02*
X3546015Y-15705484D01*
X3936491Y-15495960D02*
X3765063Y-15753103D01*
X4193634Y-15505484D02*
X4212682Y-15505484D01*
X4212682Y-15505484D02*
X4231729Y-15515008D01*
X4231729Y-15515008D02*
X4241253Y-15524531D01*
X4241253Y-15524531D02*
X4250777Y-15543579D01*
X4250777Y-15543579D02*
X4260301Y-15581674D01*
X4260301Y-15581674D02*
X4260301Y-15629293D01*
X4260301Y-15629293D02*
X4250777Y-15667388D01*
X4250777Y-15667388D02*
X4241253Y-15686436D01*
X4241253Y-15686436D02*
X4231729Y-15695960D01*
X4231729Y-15695960D02*
X4212682Y-15705484D01*
X4212682Y-15705484D02*
X4193634Y-15705484D01*
X4193634Y-15705484D02*
X4174586Y-15695960D01*
X4174586Y-15695960D02*
X4165063Y-15686436D01*
X4165063Y-15686436D02*
X4155539Y-15667388D01*
X4155539Y-15667388D02*
X4146015Y-15629293D01*
X4146015Y-15629293D02*
X4146015Y-15581674D01*
X4146015Y-15581674D02*
X4155539Y-15543579D01*
X4155539Y-15543579D02*
X4165063Y-15524531D01*
X4165063Y-15524531D02*
X4174586Y-15515008D01*
X4174586Y-15515008D02*
X4193634Y-15505484D01*
X4346015Y-15686436D02*
X4355539Y-15695960D01*
X4355539Y-15695960D02*
X4346015Y-15705484D01*
X4346015Y-15705484D02*
X4336491Y-15695960D01*
X4336491Y-15695960D02*
X4346015Y-15686436D01*
X4346015Y-15686436D02*
X4346015Y-15705484D01*
X4479348Y-15505484D02*
X4498396Y-15505484D01*
X4498396Y-15505484D02*
X4517444Y-15515008D01*
X4517444Y-15515008D02*
X4526968Y-15524531D01*
X4526968Y-15524531D02*
X4536491Y-15543579D01*
X4536491Y-15543579D02*
X4546015Y-15581674D01*
X4546015Y-15581674D02*
X4546015Y-15629293D01*
X4546015Y-15629293D02*
X4536491Y-15667388D01*
X4536491Y-15667388D02*
X4526968Y-15686436D01*
X4526968Y-15686436D02*
X4517444Y-15695960D01*
X4517444Y-15695960D02*
X4498396Y-15705484D01*
X4498396Y-15705484D02*
X4479348Y-15705484D01*
X4479348Y-15705484D02*
X4460301Y-15695960D01*
X4460301Y-15695960D02*
X4450777Y-15686436D01*
X4450777Y-15686436D02*
X4441253Y-15667388D01*
X4441253Y-15667388D02*
X4431729Y-15629293D01*
X4431729Y-15629293D02*
X4431729Y-15581674D01*
X4431729Y-15581674D02*
X4441253Y-15543579D01*
X4441253Y-15543579D02*
X4450777Y-15524531D01*
X4450777Y-15524531D02*
X4460301Y-15515008D01*
X4460301Y-15515008D02*
X4479348Y-15505484D01*
X4736491Y-15705484D02*
X4622206Y-15705484D01*
X4679348Y-15705484D02*
X4679348Y-15505484D01*
X4679348Y-15505484D02*
X4660301Y-15534055D01*
X4660301Y-15534055D02*
X4641253Y-15553103D01*
X4641253Y-15553103D02*
X4622206Y-15562627D01*
X4831729Y-15705484D02*
X4869825Y-15705484D01*
X4869825Y-15705484D02*
X4888872Y-15695960D01*
X4888872Y-15695960D02*
X4898396Y-15686436D01*
X4898396Y-15686436D02*
X4917444Y-15657865D01*
X4917444Y-15657865D02*
X4926968Y-15619769D01*
X4926968Y-15619769D02*
X4926968Y-15543579D01*
X4926968Y-15543579D02*
X4917444Y-15524531D01*
X4917444Y-15524531D02*
X4907920Y-15515008D01*
X4907920Y-15515008D02*
X4888872Y-15505484D01*
X4888872Y-15505484D02*
X4850777Y-15505484D01*
X4850777Y-15505484D02*
X4831729Y-15515008D01*
X4831729Y-15515008D02*
X4822206Y-15524531D01*
X4822206Y-15524531D02*
X4812682Y-15543579D01*
X4812682Y-15543579D02*
X4812682Y-15591198D01*
X4812682Y-15591198D02*
X4822206Y-15610246D01*
X4822206Y-15610246D02*
X4831729Y-15619769D01*
X4831729Y-15619769D02*
X4850777Y-15629293D01*
X4850777Y-15629293D02*
X4888872Y-15629293D01*
X4888872Y-15629293D02*
X4907920Y-15619769D01*
X4907920Y-15619769D02*
X4917444Y-15610246D01*
X4917444Y-15610246D02*
X4926968Y-15591198D01*
X4993634Y-15505484D02*
X5126968Y-15505484D01*
X5126968Y-15505484D02*
X5041253Y-15705484D01*
X5193634Y-15505484D02*
X5193634Y-15543579D01*
X5269825Y-15505484D02*
X5269825Y-15543579D01*
X5565063Y-15781674D02*
X5555539Y-15772150D01*
X5555539Y-15772150D02*
X5536491Y-15743579D01*
X5536491Y-15743579D02*
X5526968Y-15724531D01*
X5526968Y-15724531D02*
X5517444Y-15695960D01*
X5517444Y-15695960D02*
X5507920Y-15648341D01*
X5507920Y-15648341D02*
X5507920Y-15610246D01*
X5507920Y-15610246D02*
X5517444Y-15562627D01*
X5517444Y-15562627D02*
X5526968Y-15534055D01*
X5526968Y-15534055D02*
X5536491Y-15515008D01*
X5536491Y-15515008D02*
X5555539Y-15486436D01*
X5555539Y-15486436D02*
X5565063Y-15476912D01*
X5622206Y-15505484D02*
X5746015Y-15505484D01*
X5746015Y-15505484D02*
X5679348Y-15581674D01*
X5679348Y-15581674D02*
X5707920Y-15581674D01*
X5707920Y-15581674D02*
X5726968Y-15591198D01*
X5726968Y-15591198D02*
X5736491Y-15600722D01*
X5736491Y-15600722D02*
X5746015Y-15619769D01*
X5746015Y-15619769D02*
X5746015Y-15667388D01*
X5746015Y-15667388D02*
X5736491Y-15686436D01*
X5736491Y-15686436D02*
X5726968Y-15695960D01*
X5726968Y-15695960D02*
X5707920Y-15705484D01*
X5707920Y-15705484D02*
X5650777Y-15705484D01*
X5650777Y-15705484D02*
X5631729Y-15695960D01*
X5631729Y-15695960D02*
X5622206Y-15686436D01*
X5822206Y-15524531D02*
X5831729Y-15515008D01*
X5831729Y-15515008D02*
X5850777Y-15505484D01*
X5850777Y-15505484D02*
X5898396Y-15505484D01*
X5898396Y-15505484D02*
X5917444Y-15515008D01*
X5917444Y-15515008D02*
X5926968Y-15524531D01*
X5926968Y-15524531D02*
X5936491Y-15543579D01*
X5936491Y-15543579D02*
X5936491Y-15562627D01*
X5936491Y-15562627D02*
X5926968Y-15591198D01*
X5926968Y-15591198D02*
X5812682Y-15705484D01*
X5812682Y-15705484D02*
X5936491Y-15705484D01*
X6174587Y-15705484D02*
X6174587Y-15505484D01*
X6260301Y-15705484D02*
X6260301Y-15600722D01*
X6260301Y-15600722D02*
X6250777Y-15581674D01*
X6250777Y-15581674D02*
X6231730Y-15572150D01*
X6231730Y-15572150D02*
X6203158Y-15572150D01*
X6203158Y-15572150D02*
X6184110Y-15581674D01*
X6184110Y-15581674D02*
X6174587Y-15591198D01*
X6384110Y-15705484D02*
X6365063Y-15695960D01*
X6365063Y-15695960D02*
X6355539Y-15686436D01*
X6355539Y-15686436D02*
X6346015Y-15667388D01*
X6346015Y-15667388D02*
X6346015Y-15610246D01*
X6346015Y-15610246D02*
X6355539Y-15591198D01*
X6355539Y-15591198D02*
X6365063Y-15581674D01*
X6365063Y-15581674D02*
X6384110Y-15572150D01*
X6384110Y-15572150D02*
X6412682Y-15572150D01*
X6412682Y-15572150D02*
X6431730Y-15581674D01*
X6431730Y-15581674D02*
X6441253Y-15591198D01*
X6441253Y-15591198D02*
X6450777Y-15610246D01*
X6450777Y-15610246D02*
X6450777Y-15667388D01*
X6450777Y-15667388D02*
X6441253Y-15686436D01*
X6441253Y-15686436D02*
X6431730Y-15695960D01*
X6431730Y-15695960D02*
X6412682Y-15705484D01*
X6412682Y-15705484D02*
X6384110Y-15705484D01*
X6565063Y-15705484D02*
X6546015Y-15695960D01*
X6546015Y-15695960D02*
X6536491Y-15676912D01*
X6536491Y-15676912D02*
X6536491Y-15505484D01*
X6717444Y-15695960D02*
X6698396Y-15705484D01*
X6698396Y-15705484D02*
X6660301Y-15705484D01*
X6660301Y-15705484D02*
X6641253Y-15695960D01*
X6641253Y-15695960D02*
X6631730Y-15676912D01*
X6631730Y-15676912D02*
X6631730Y-15600722D01*
X6631730Y-15600722D02*
X6641253Y-15581674D01*
X6641253Y-15581674D02*
X6660301Y-15572150D01*
X6660301Y-15572150D02*
X6698396Y-15572150D01*
X6698396Y-15572150D02*
X6717444Y-15581674D01*
X6717444Y-15581674D02*
X6726968Y-15600722D01*
X6726968Y-15600722D02*
X6726968Y-15619769D01*
X6726968Y-15619769D02*
X6631730Y-15638817D01*
X6803158Y-15695960D02*
X6822206Y-15705484D01*
X6822206Y-15705484D02*
X6860301Y-15705484D01*
X6860301Y-15705484D02*
X6879349Y-15695960D01*
X6879349Y-15695960D02*
X6888872Y-15676912D01*
X6888872Y-15676912D02*
X6888872Y-15667388D01*
X6888872Y-15667388D02*
X6879349Y-15648341D01*
X6879349Y-15648341D02*
X6860301Y-15638817D01*
X6860301Y-15638817D02*
X6831730Y-15638817D01*
X6831730Y-15638817D02*
X6812682Y-15629293D01*
X6812682Y-15629293D02*
X6803158Y-15610246D01*
X6803158Y-15610246D02*
X6803158Y-15600722D01*
X6803158Y-15600722D02*
X6812682Y-15581674D01*
X6812682Y-15581674D02*
X6831730Y-15572150D01*
X6831730Y-15572150D02*
X6860301Y-15572150D01*
X6860301Y-15572150D02*
X6879349Y-15581674D01*
X6955539Y-15781674D02*
X6965063Y-15772150D01*
X6965063Y-15772150D02*
X6984111Y-15743579D01*
X6984111Y-15743579D02*
X6993634Y-15724531D01*
X6993634Y-15724531D02*
X7003158Y-15695960D01*
X7003158Y-15695960D02*
X7012682Y-15648341D01*
X7012682Y-15648341D02*
X7012682Y-15610246D01*
X7012682Y-15610246D02*
X7003158Y-15562627D01*
X7003158Y-15562627D02*
X6993634Y-15534055D01*
X6993634Y-15534055D02*
X6984111Y-15515008D01*
X6984111Y-15515008D02*
X6965063Y-15486436D01*
X6965063Y-15486436D02*
X6955539Y-15476912D01*
D11*
X1952500Y-15840500D02*
X1952500Y-15915500D01*
X1915000Y-15878000D02*
X1990000Y-15878000D01*
D10*
X2288872Y-15769484D02*
X2307920Y-15769484D01*
X2307920Y-15769484D02*
X2326967Y-15779008D01*
X2326967Y-15779008D02*
X2336491Y-15788531D01*
X2336491Y-15788531D02*
X2346015Y-15807579D01*
X2346015Y-15807579D02*
X2355539Y-15845674D01*
X2355539Y-15845674D02*
X2355539Y-15893293D01*
X2355539Y-15893293D02*
X2346015Y-15931388D01*
X2346015Y-15931388D02*
X2336491Y-15950436D01*
X2336491Y-15950436D02*
X2326967Y-15959960D01*
X2326967Y-15959960D02*
X2307920Y-15969484D01*
X2307920Y-15969484D02*
X2288872Y-15969484D01*
X2288872Y-15969484D02*
X2269824Y-15959960D01*
X2269824Y-15959960D02*
X2260301Y-15950436D01*
X2260301Y-15950436D02*
X2250777Y-15931388D01*
X2250777Y-15931388D02*
X2241253Y-15893293D01*
X2241253Y-15893293D02*
X2241253Y-15845674D01*
X2241253Y-15845674D02*
X2250777Y-15807579D01*
X2250777Y-15807579D02*
X2260301Y-15788531D01*
X2260301Y-15788531D02*
X2269824Y-15779008D01*
X2269824Y-15779008D02*
X2288872Y-15769484D01*
X2441253Y-15950436D02*
X2450777Y-15959960D01*
X2450777Y-15959960D02*
X2441253Y-15969484D01*
X2441253Y-15969484D02*
X2431729Y-15959960D01*
X2431729Y-15959960D02*
X2441253Y-15950436D01*
X2441253Y-15950436D02*
X2441253Y-15969484D01*
X2517444Y-15769484D02*
X2650777Y-15769484D01*
X2650777Y-15769484D02*
X2565063Y-15969484D01*
X2822205Y-15769484D02*
X2726967Y-15769484D01*
X2726967Y-15769484D02*
X2717444Y-15864722D01*
X2717444Y-15864722D02*
X2726967Y-15855198D01*
X2726967Y-15855198D02*
X2746015Y-15845674D01*
X2746015Y-15845674D02*
X2793634Y-15845674D01*
X2793634Y-15845674D02*
X2812682Y-15855198D01*
X2812682Y-15855198D02*
X2822205Y-15864722D01*
X2822205Y-15864722D02*
X2831729Y-15883769D01*
X2831729Y-15883769D02*
X2831729Y-15931388D01*
X2831729Y-15931388D02*
X2822205Y-15950436D01*
X2822205Y-15950436D02*
X2812682Y-15959960D01*
X2812682Y-15959960D02*
X2793634Y-15969484D01*
X2793634Y-15969484D02*
X2746015Y-15969484D01*
X2746015Y-15969484D02*
X2726967Y-15959960D01*
X2726967Y-15959960D02*
X2717444Y-15950436D01*
X2955539Y-15769484D02*
X2974586Y-15769484D01*
X2974586Y-15769484D02*
X2993634Y-15779008D01*
X2993634Y-15779008D02*
X3003158Y-15788531D01*
X3003158Y-15788531D02*
X3012682Y-15807579D01*
X3012682Y-15807579D02*
X3022205Y-15845674D01*
X3022205Y-15845674D02*
X3022205Y-15893293D01*
X3022205Y-15893293D02*
X3012682Y-15931388D01*
X3012682Y-15931388D02*
X3003158Y-15950436D01*
X3003158Y-15950436D02*
X2993634Y-15959960D01*
X2993634Y-15959960D02*
X2974586Y-15969484D01*
X2974586Y-15969484D02*
X2955539Y-15969484D01*
X2955539Y-15969484D02*
X2936491Y-15959960D01*
X2936491Y-15959960D02*
X2926967Y-15950436D01*
X2926967Y-15950436D02*
X2917443Y-15931388D01*
X2917443Y-15931388D02*
X2907920Y-15893293D01*
X2907920Y-15893293D02*
X2907920Y-15845674D01*
X2907920Y-15845674D02*
X2917443Y-15807579D01*
X2917443Y-15807579D02*
X2926967Y-15788531D01*
X2926967Y-15788531D02*
X2936491Y-15779008D01*
X2936491Y-15779008D02*
X2955539Y-15769484D01*
X3107920Y-15969484D02*
X3107920Y-15836150D01*
X3107920Y-15855198D02*
X3117443Y-15845674D01*
X3117443Y-15845674D02*
X3136491Y-15836150D01*
X3136491Y-15836150D02*
X3165063Y-15836150D01*
X3165063Y-15836150D02*
X3184110Y-15845674D01*
X3184110Y-15845674D02*
X3193634Y-15864722D01*
X3193634Y-15864722D02*
X3193634Y-15969484D01*
X3193634Y-15864722D02*
X3203158Y-15845674D01*
X3203158Y-15845674D02*
X3222205Y-15836150D01*
X3222205Y-15836150D02*
X3250777Y-15836150D01*
X3250777Y-15836150D02*
X3269824Y-15845674D01*
X3269824Y-15845674D02*
X3279348Y-15864722D01*
X3279348Y-15864722D02*
X3279348Y-15969484D01*
X3374586Y-15969484D02*
X3374586Y-15836150D01*
X3374586Y-15855198D02*
X3384110Y-15845674D01*
X3384110Y-15845674D02*
X3403158Y-15836150D01*
X3403158Y-15836150D02*
X3431729Y-15836150D01*
X3431729Y-15836150D02*
X3450777Y-15845674D01*
X3450777Y-15845674D02*
X3460301Y-15864722D01*
X3460301Y-15864722D02*
X3460301Y-15969484D01*
X3460301Y-15864722D02*
X3469824Y-15845674D01*
X3469824Y-15845674D02*
X3488872Y-15836150D01*
X3488872Y-15836150D02*
X3517443Y-15836150D01*
X3517443Y-15836150D02*
X3536491Y-15845674D01*
X3536491Y-15845674D02*
X3546015Y-15864722D01*
X3546015Y-15864722D02*
X3546015Y-15969484D01*
X3936491Y-15759960D02*
X3765063Y-16017103D01*
X4193634Y-15769484D02*
X4212682Y-15769484D01*
X4212682Y-15769484D02*
X4231729Y-15779008D01*
X4231729Y-15779008D02*
X4241253Y-15788531D01*
X4241253Y-15788531D02*
X4250777Y-15807579D01*
X4250777Y-15807579D02*
X4260301Y-15845674D01*
X4260301Y-15845674D02*
X4260301Y-15893293D01*
X4260301Y-15893293D02*
X4250777Y-15931388D01*
X4250777Y-15931388D02*
X4241253Y-15950436D01*
X4241253Y-15950436D02*
X4231729Y-15959960D01*
X4231729Y-15959960D02*
X4212682Y-15969484D01*
X4212682Y-15969484D02*
X4193634Y-15969484D01*
X4193634Y-15969484D02*
X4174586Y-15959960D01*
X4174586Y-15959960D02*
X4165063Y-15950436D01*
X4165063Y-15950436D02*
X4155539Y-15931388D01*
X4155539Y-15931388D02*
X4146015Y-15893293D01*
X4146015Y-15893293D02*
X4146015Y-15845674D01*
X4146015Y-15845674D02*
X4155539Y-15807579D01*
X4155539Y-15807579D02*
X4165063Y-15788531D01*
X4165063Y-15788531D02*
X4174586Y-15779008D01*
X4174586Y-15779008D02*
X4193634Y-15769484D01*
X4346015Y-15950436D02*
X4355539Y-15959960D01*
X4355539Y-15959960D02*
X4346015Y-15969484D01*
X4346015Y-15969484D02*
X4336491Y-15959960D01*
X4336491Y-15959960D02*
X4346015Y-15950436D01*
X4346015Y-15950436D02*
X4346015Y-15969484D01*
X4479348Y-15769484D02*
X4498396Y-15769484D01*
X4498396Y-15769484D02*
X4517444Y-15779008D01*
X4517444Y-15779008D02*
X4526968Y-15788531D01*
X4526968Y-15788531D02*
X4536491Y-15807579D01*
X4536491Y-15807579D02*
X4546015Y-15845674D01*
X4546015Y-15845674D02*
X4546015Y-15893293D01*
X4546015Y-15893293D02*
X4536491Y-15931388D01*
X4536491Y-15931388D02*
X4526968Y-15950436D01*
X4526968Y-15950436D02*
X4517444Y-15959960D01*
X4517444Y-15959960D02*
X4498396Y-15969484D01*
X4498396Y-15969484D02*
X4479348Y-15969484D01*
X4479348Y-15969484D02*
X4460301Y-15959960D01*
X4460301Y-15959960D02*
X4450777Y-15950436D01*
X4450777Y-15950436D02*
X4441253Y-15931388D01*
X4441253Y-15931388D02*
X4431729Y-15893293D01*
X4431729Y-15893293D02*
X4431729Y-15845674D01*
X4431729Y-15845674D02*
X4441253Y-15807579D01*
X4441253Y-15807579D02*
X4450777Y-15788531D01*
X4450777Y-15788531D02*
X4460301Y-15779008D01*
X4460301Y-15779008D02*
X4479348Y-15769484D01*
X4622206Y-15788531D02*
X4631729Y-15779008D01*
X4631729Y-15779008D02*
X4650777Y-15769484D01*
X4650777Y-15769484D02*
X4698396Y-15769484D01*
X4698396Y-15769484D02*
X4717444Y-15779008D01*
X4717444Y-15779008D02*
X4726968Y-15788531D01*
X4726968Y-15788531D02*
X4736491Y-15807579D01*
X4736491Y-15807579D02*
X4736491Y-15826627D01*
X4736491Y-15826627D02*
X4726968Y-15855198D01*
X4726968Y-15855198D02*
X4612682Y-15969484D01*
X4612682Y-15969484D02*
X4736491Y-15969484D01*
X4831729Y-15969484D02*
X4869825Y-15969484D01*
X4869825Y-15969484D02*
X4888872Y-15959960D01*
X4888872Y-15959960D02*
X4898396Y-15950436D01*
X4898396Y-15950436D02*
X4917444Y-15921865D01*
X4917444Y-15921865D02*
X4926968Y-15883769D01*
X4926968Y-15883769D02*
X4926968Y-15807579D01*
X4926968Y-15807579D02*
X4917444Y-15788531D01*
X4917444Y-15788531D02*
X4907920Y-15779008D01*
X4907920Y-15779008D02*
X4888872Y-15769484D01*
X4888872Y-15769484D02*
X4850777Y-15769484D01*
X4850777Y-15769484D02*
X4831729Y-15779008D01*
X4831729Y-15779008D02*
X4822206Y-15788531D01*
X4822206Y-15788531D02*
X4812682Y-15807579D01*
X4812682Y-15807579D02*
X4812682Y-15855198D01*
X4812682Y-15855198D02*
X4822206Y-15874246D01*
X4822206Y-15874246D02*
X4831729Y-15883769D01*
X4831729Y-15883769D02*
X4850777Y-15893293D01*
X4850777Y-15893293D02*
X4888872Y-15893293D01*
X4888872Y-15893293D02*
X4907920Y-15883769D01*
X4907920Y-15883769D02*
X4917444Y-15874246D01*
X4917444Y-15874246D02*
X4926968Y-15855198D01*
X5107920Y-15769484D02*
X5012682Y-15769484D01*
X5012682Y-15769484D02*
X5003158Y-15864722D01*
X5003158Y-15864722D02*
X5012682Y-15855198D01*
X5012682Y-15855198D02*
X5031729Y-15845674D01*
X5031729Y-15845674D02*
X5079349Y-15845674D01*
X5079349Y-15845674D02*
X5098396Y-15855198D01*
X5098396Y-15855198D02*
X5107920Y-15864722D01*
X5107920Y-15864722D02*
X5117444Y-15883769D01*
X5117444Y-15883769D02*
X5117444Y-15931388D01*
X5117444Y-15931388D02*
X5107920Y-15950436D01*
X5107920Y-15950436D02*
X5098396Y-15959960D01*
X5098396Y-15959960D02*
X5079349Y-15969484D01*
X5079349Y-15969484D02*
X5031729Y-15969484D01*
X5031729Y-15969484D02*
X5012682Y-15959960D01*
X5012682Y-15959960D02*
X5003158Y-15950436D01*
X5193634Y-15769484D02*
X5193634Y-15807579D01*
X5269825Y-15769484D02*
X5269825Y-15807579D01*
X5565063Y-16045674D02*
X5555539Y-16036150D01*
X5555539Y-16036150D02*
X5536491Y-16007579D01*
X5536491Y-16007579D02*
X5526968Y-15988531D01*
X5526968Y-15988531D02*
X5517444Y-15959960D01*
X5517444Y-15959960D02*
X5507920Y-15912341D01*
X5507920Y-15912341D02*
X5507920Y-15874246D01*
X5507920Y-15874246D02*
X5517444Y-15826627D01*
X5517444Y-15826627D02*
X5526968Y-15798055D01*
X5526968Y-15798055D02*
X5536491Y-15779008D01*
X5536491Y-15779008D02*
X5555539Y-15750436D01*
X5555539Y-15750436D02*
X5565063Y-15740912D01*
X5746015Y-15969484D02*
X5631729Y-15969484D01*
X5688872Y-15969484D02*
X5688872Y-15769484D01*
X5688872Y-15769484D02*
X5669825Y-15798055D01*
X5669825Y-15798055D02*
X5650777Y-15817103D01*
X5650777Y-15817103D02*
X5631729Y-15826627D01*
X5822206Y-15788531D02*
X5831729Y-15779008D01*
X5831729Y-15779008D02*
X5850777Y-15769484D01*
X5850777Y-15769484D02*
X5898396Y-15769484D01*
X5898396Y-15769484D02*
X5917444Y-15779008D01*
X5917444Y-15779008D02*
X5926968Y-15788531D01*
X5926968Y-15788531D02*
X5936491Y-15807579D01*
X5936491Y-15807579D02*
X5936491Y-15826627D01*
X5936491Y-15826627D02*
X5926968Y-15855198D01*
X5926968Y-15855198D02*
X5812682Y-15969484D01*
X5812682Y-15969484D02*
X5936491Y-15969484D01*
X6174587Y-15969484D02*
X6174587Y-15769484D01*
X6260301Y-15969484D02*
X6260301Y-15864722D01*
X6260301Y-15864722D02*
X6250777Y-15845674D01*
X6250777Y-15845674D02*
X6231730Y-15836150D01*
X6231730Y-15836150D02*
X6203158Y-15836150D01*
X6203158Y-15836150D02*
X6184110Y-15845674D01*
X6184110Y-15845674D02*
X6174587Y-15855198D01*
X6384110Y-15969484D02*
X6365063Y-15959960D01*
X6365063Y-15959960D02*
X6355539Y-15950436D01*
X6355539Y-15950436D02*
X6346015Y-15931388D01*
X6346015Y-15931388D02*
X6346015Y-15874246D01*
X6346015Y-15874246D02*
X6355539Y-15855198D01*
X6355539Y-15855198D02*
X6365063Y-15845674D01*
X6365063Y-15845674D02*
X6384110Y-15836150D01*
X6384110Y-15836150D02*
X6412682Y-15836150D01*
X6412682Y-15836150D02*
X6431730Y-15845674D01*
X6431730Y-15845674D02*
X6441253Y-15855198D01*
X6441253Y-15855198D02*
X6450777Y-15874246D01*
X6450777Y-15874246D02*
X6450777Y-15931388D01*
X6450777Y-15931388D02*
X6441253Y-15950436D01*
X6441253Y-15950436D02*
X6431730Y-15959960D01*
X6431730Y-15959960D02*
X6412682Y-15969484D01*
X6412682Y-15969484D02*
X6384110Y-15969484D01*
X6565063Y-15969484D02*
X6546015Y-15959960D01*
X6546015Y-15959960D02*
X6536491Y-15940912D01*
X6536491Y-15940912D02*
X6536491Y-15769484D01*
X6717444Y-15959960D02*
X6698396Y-15969484D01*
X6698396Y-15969484D02*
X6660301Y-15969484D01*
X6660301Y-15969484D02*
X6641253Y-15959960D01*
X6641253Y-15959960D02*
X6631730Y-15940912D01*
X6631730Y-15940912D02*
X6631730Y-15864722D01*
X6631730Y-15864722D02*
X6641253Y-15845674D01*
X6641253Y-15845674D02*
X6660301Y-15836150D01*
X6660301Y-15836150D02*
X6698396Y-15836150D01*
X6698396Y-15836150D02*
X6717444Y-15845674D01*
X6717444Y-15845674D02*
X6726968Y-15864722D01*
X6726968Y-15864722D02*
X6726968Y-15883769D01*
X6726968Y-15883769D02*
X6631730Y-15902817D01*
X6803158Y-15959960D02*
X6822206Y-15969484D01*
X6822206Y-15969484D02*
X6860301Y-15969484D01*
X6860301Y-15969484D02*
X6879349Y-15959960D01*
X6879349Y-15959960D02*
X6888872Y-15940912D01*
X6888872Y-15940912D02*
X6888872Y-15931388D01*
X6888872Y-15931388D02*
X6879349Y-15912341D01*
X6879349Y-15912341D02*
X6860301Y-15902817D01*
X6860301Y-15902817D02*
X6831730Y-15902817D01*
X6831730Y-15902817D02*
X6812682Y-15893293D01*
X6812682Y-15893293D02*
X6803158Y-15874246D01*
X6803158Y-15874246D02*
X6803158Y-15864722D01*
X6803158Y-15864722D02*
X6812682Y-15845674D01*
X6812682Y-15845674D02*
X6831730Y-15836150D01*
X6831730Y-15836150D02*
X6860301Y-15836150D01*
X6860301Y-15836150D02*
X6879349Y-15845674D01*
X6955539Y-16045674D02*
X6965063Y-16036150D01*
X6965063Y-16036150D02*
X6984111Y-16007579D01*
X6984111Y-16007579D02*
X6993634Y-15988531D01*
X6993634Y-15988531D02*
X7003158Y-15959960D01*
X7003158Y-15959960D02*
X7012682Y-15912341D01*
X7012682Y-15912341D02*
X7012682Y-15874246D01*
X7012682Y-15874246D02*
X7003158Y-15826627D01*
X7003158Y-15826627D02*
X6993634Y-15798055D01*
X6993634Y-15798055D02*
X6984111Y-15779008D01*
X6984111Y-15779008D02*
X6965063Y-15750436D01*
X6965063Y-15750436D02*
X6955539Y-15740912D01*
D11*
X1976820Y-16173820D02*
X1976820Y-16110180D01*
X1913180Y-16110180D01*
X1913180Y-16173820D01*
X1976820Y-16173820D01*
D10*
X2288872Y-16033484D02*
X2307920Y-16033484D01*
X2307920Y-16033484D02*
X2326967Y-16043008D01*
X2326967Y-16043008D02*
X2336491Y-16052531D01*
X2336491Y-16052531D02*
X2346015Y-16071579D01*
X2346015Y-16071579D02*
X2355539Y-16109674D01*
X2355539Y-16109674D02*
X2355539Y-16157293D01*
X2355539Y-16157293D02*
X2346015Y-16195388D01*
X2346015Y-16195388D02*
X2336491Y-16214436D01*
X2336491Y-16214436D02*
X2326967Y-16223960D01*
X2326967Y-16223960D02*
X2307920Y-16233484D01*
X2307920Y-16233484D02*
X2288872Y-16233484D01*
X2288872Y-16233484D02*
X2269824Y-16223960D01*
X2269824Y-16223960D02*
X2260301Y-16214436D01*
X2260301Y-16214436D02*
X2250777Y-16195388D01*
X2250777Y-16195388D02*
X2241253Y-16157293D01*
X2241253Y-16157293D02*
X2241253Y-16109674D01*
X2241253Y-16109674D02*
X2250777Y-16071579D01*
X2250777Y-16071579D02*
X2260301Y-16052531D01*
X2260301Y-16052531D02*
X2269824Y-16043008D01*
X2269824Y-16043008D02*
X2288872Y-16033484D01*
X2441253Y-16214436D02*
X2450777Y-16223960D01*
X2450777Y-16223960D02*
X2441253Y-16233484D01*
X2441253Y-16233484D02*
X2431729Y-16223960D01*
X2431729Y-16223960D02*
X2441253Y-16214436D01*
X2441253Y-16214436D02*
X2441253Y-16233484D01*
X2546015Y-16233484D02*
X2584110Y-16233484D01*
X2584110Y-16233484D02*
X2603158Y-16223960D01*
X2603158Y-16223960D02*
X2612682Y-16214436D01*
X2612682Y-16214436D02*
X2631729Y-16185865D01*
X2631729Y-16185865D02*
X2641253Y-16147769D01*
X2641253Y-16147769D02*
X2641253Y-16071579D01*
X2641253Y-16071579D02*
X2631729Y-16052531D01*
X2631729Y-16052531D02*
X2622205Y-16043008D01*
X2622205Y-16043008D02*
X2603158Y-16033484D01*
X2603158Y-16033484D02*
X2565063Y-16033484D01*
X2565063Y-16033484D02*
X2546015Y-16043008D01*
X2546015Y-16043008D02*
X2536491Y-16052531D01*
X2536491Y-16052531D02*
X2526967Y-16071579D01*
X2526967Y-16071579D02*
X2526967Y-16119198D01*
X2526967Y-16119198D02*
X2536491Y-16138246D01*
X2536491Y-16138246D02*
X2546015Y-16147769D01*
X2546015Y-16147769D02*
X2565063Y-16157293D01*
X2565063Y-16157293D02*
X2603158Y-16157293D01*
X2603158Y-16157293D02*
X2622205Y-16147769D01*
X2622205Y-16147769D02*
X2631729Y-16138246D01*
X2631729Y-16138246D02*
X2641253Y-16119198D01*
X2765063Y-16033484D02*
X2784110Y-16033484D01*
X2784110Y-16033484D02*
X2803158Y-16043008D01*
X2803158Y-16043008D02*
X2812682Y-16052531D01*
X2812682Y-16052531D02*
X2822205Y-16071579D01*
X2822205Y-16071579D02*
X2831729Y-16109674D01*
X2831729Y-16109674D02*
X2831729Y-16157293D01*
X2831729Y-16157293D02*
X2822205Y-16195388D01*
X2822205Y-16195388D02*
X2812682Y-16214436D01*
X2812682Y-16214436D02*
X2803158Y-16223960D01*
X2803158Y-16223960D02*
X2784110Y-16233484D01*
X2784110Y-16233484D02*
X2765063Y-16233484D01*
X2765063Y-16233484D02*
X2746015Y-16223960D01*
X2746015Y-16223960D02*
X2736491Y-16214436D01*
X2736491Y-16214436D02*
X2726967Y-16195388D01*
X2726967Y-16195388D02*
X2717444Y-16157293D01*
X2717444Y-16157293D02*
X2717444Y-16109674D01*
X2717444Y-16109674D02*
X2726967Y-16071579D01*
X2726967Y-16071579D02*
X2736491Y-16052531D01*
X2736491Y-16052531D02*
X2746015Y-16043008D01*
X2746015Y-16043008D02*
X2765063Y-16033484D01*
X2955539Y-16033484D02*
X2974586Y-16033484D01*
X2974586Y-16033484D02*
X2993634Y-16043008D01*
X2993634Y-16043008D02*
X3003158Y-16052531D01*
X3003158Y-16052531D02*
X3012682Y-16071579D01*
X3012682Y-16071579D02*
X3022205Y-16109674D01*
X3022205Y-16109674D02*
X3022205Y-16157293D01*
X3022205Y-16157293D02*
X3012682Y-16195388D01*
X3012682Y-16195388D02*
X3003158Y-16214436D01*
X3003158Y-16214436D02*
X2993634Y-16223960D01*
X2993634Y-16223960D02*
X2974586Y-16233484D01*
X2974586Y-16233484D02*
X2955539Y-16233484D01*
X2955539Y-16233484D02*
X2936491Y-16223960D01*
X2936491Y-16223960D02*
X2926967Y-16214436D01*
X2926967Y-16214436D02*
X2917443Y-16195388D01*
X2917443Y-16195388D02*
X2907920Y-16157293D01*
X2907920Y-16157293D02*
X2907920Y-16109674D01*
X2907920Y-16109674D02*
X2917443Y-16071579D01*
X2917443Y-16071579D02*
X2926967Y-16052531D01*
X2926967Y-16052531D02*
X2936491Y-16043008D01*
X2936491Y-16043008D02*
X2955539Y-16033484D01*
X3107920Y-16233484D02*
X3107920Y-16100150D01*
X3107920Y-16119198D02*
X3117443Y-16109674D01*
X3117443Y-16109674D02*
X3136491Y-16100150D01*
X3136491Y-16100150D02*
X3165063Y-16100150D01*
X3165063Y-16100150D02*
X3184110Y-16109674D01*
X3184110Y-16109674D02*
X3193634Y-16128722D01*
X3193634Y-16128722D02*
X3193634Y-16233484D01*
X3193634Y-16128722D02*
X3203158Y-16109674D01*
X3203158Y-16109674D02*
X3222205Y-16100150D01*
X3222205Y-16100150D02*
X3250777Y-16100150D01*
X3250777Y-16100150D02*
X3269824Y-16109674D01*
X3269824Y-16109674D02*
X3279348Y-16128722D01*
X3279348Y-16128722D02*
X3279348Y-16233484D01*
X3374586Y-16233484D02*
X3374586Y-16100150D01*
X3374586Y-16119198D02*
X3384110Y-16109674D01*
X3384110Y-16109674D02*
X3403158Y-16100150D01*
X3403158Y-16100150D02*
X3431729Y-16100150D01*
X3431729Y-16100150D02*
X3450777Y-16109674D01*
X3450777Y-16109674D02*
X3460301Y-16128722D01*
X3460301Y-16128722D02*
X3460301Y-16233484D01*
X3460301Y-16128722D02*
X3469824Y-16109674D01*
X3469824Y-16109674D02*
X3488872Y-16100150D01*
X3488872Y-16100150D02*
X3517443Y-16100150D01*
X3517443Y-16100150D02*
X3536491Y-16109674D01*
X3536491Y-16109674D02*
X3546015Y-16128722D01*
X3546015Y-16128722D02*
X3546015Y-16233484D01*
X3936491Y-16023960D02*
X3765063Y-16281103D01*
X4193634Y-16033484D02*
X4212682Y-16033484D01*
X4212682Y-16033484D02*
X4231729Y-16043008D01*
X4231729Y-16043008D02*
X4241253Y-16052531D01*
X4241253Y-16052531D02*
X4250777Y-16071579D01*
X4250777Y-16071579D02*
X4260301Y-16109674D01*
X4260301Y-16109674D02*
X4260301Y-16157293D01*
X4260301Y-16157293D02*
X4250777Y-16195388D01*
X4250777Y-16195388D02*
X4241253Y-16214436D01*
X4241253Y-16214436D02*
X4231729Y-16223960D01*
X4231729Y-16223960D02*
X4212682Y-16233484D01*
X4212682Y-16233484D02*
X4193634Y-16233484D01*
X4193634Y-16233484D02*
X4174586Y-16223960D01*
X4174586Y-16223960D02*
X4165063Y-16214436D01*
X4165063Y-16214436D02*
X4155539Y-16195388D01*
X4155539Y-16195388D02*
X4146015Y-16157293D01*
X4146015Y-16157293D02*
X4146015Y-16109674D01*
X4146015Y-16109674D02*
X4155539Y-16071579D01*
X4155539Y-16071579D02*
X4165063Y-16052531D01*
X4165063Y-16052531D02*
X4174586Y-16043008D01*
X4174586Y-16043008D02*
X4193634Y-16033484D01*
X4346015Y-16214436D02*
X4355539Y-16223960D01*
X4355539Y-16223960D02*
X4346015Y-16233484D01*
X4346015Y-16233484D02*
X4336491Y-16223960D01*
X4336491Y-16223960D02*
X4346015Y-16214436D01*
X4346015Y-16214436D02*
X4346015Y-16233484D01*
X4479348Y-16033484D02*
X4498396Y-16033484D01*
X4498396Y-16033484D02*
X4517444Y-16043008D01*
X4517444Y-16043008D02*
X4526968Y-16052531D01*
X4526968Y-16052531D02*
X4536491Y-16071579D01*
X4536491Y-16071579D02*
X4546015Y-16109674D01*
X4546015Y-16109674D02*
X4546015Y-16157293D01*
X4546015Y-16157293D02*
X4536491Y-16195388D01*
X4536491Y-16195388D02*
X4526968Y-16214436D01*
X4526968Y-16214436D02*
X4517444Y-16223960D01*
X4517444Y-16223960D02*
X4498396Y-16233484D01*
X4498396Y-16233484D02*
X4479348Y-16233484D01*
X4479348Y-16233484D02*
X4460301Y-16223960D01*
X4460301Y-16223960D02*
X4450777Y-16214436D01*
X4450777Y-16214436D02*
X4441253Y-16195388D01*
X4441253Y-16195388D02*
X4431729Y-16157293D01*
X4431729Y-16157293D02*
X4431729Y-16109674D01*
X4431729Y-16109674D02*
X4441253Y-16071579D01*
X4441253Y-16071579D02*
X4450777Y-16052531D01*
X4450777Y-16052531D02*
X4460301Y-16043008D01*
X4460301Y-16043008D02*
X4479348Y-16033484D01*
X4612682Y-16033484D02*
X4736491Y-16033484D01*
X4736491Y-16033484D02*
X4669825Y-16109674D01*
X4669825Y-16109674D02*
X4698396Y-16109674D01*
X4698396Y-16109674D02*
X4717444Y-16119198D01*
X4717444Y-16119198D02*
X4726968Y-16128722D01*
X4726968Y-16128722D02*
X4736491Y-16147769D01*
X4736491Y-16147769D02*
X4736491Y-16195388D01*
X4736491Y-16195388D02*
X4726968Y-16214436D01*
X4726968Y-16214436D02*
X4717444Y-16223960D01*
X4717444Y-16223960D02*
X4698396Y-16233484D01*
X4698396Y-16233484D02*
X4641253Y-16233484D01*
X4641253Y-16233484D02*
X4622206Y-16223960D01*
X4622206Y-16223960D02*
X4612682Y-16214436D01*
X4917444Y-16033484D02*
X4822206Y-16033484D01*
X4822206Y-16033484D02*
X4812682Y-16128722D01*
X4812682Y-16128722D02*
X4822206Y-16119198D01*
X4822206Y-16119198D02*
X4841253Y-16109674D01*
X4841253Y-16109674D02*
X4888872Y-16109674D01*
X4888872Y-16109674D02*
X4907920Y-16119198D01*
X4907920Y-16119198D02*
X4917444Y-16128722D01*
X4917444Y-16128722D02*
X4926968Y-16147769D01*
X4926968Y-16147769D02*
X4926968Y-16195388D01*
X4926968Y-16195388D02*
X4917444Y-16214436D01*
X4917444Y-16214436D02*
X4907920Y-16223960D01*
X4907920Y-16223960D02*
X4888872Y-16233484D01*
X4888872Y-16233484D02*
X4841253Y-16233484D01*
X4841253Y-16233484D02*
X4822206Y-16223960D01*
X4822206Y-16223960D02*
X4812682Y-16214436D01*
X5098396Y-16100150D02*
X5098396Y-16233484D01*
X5050777Y-16023960D02*
X5003158Y-16166817D01*
X5003158Y-16166817D02*
X5126968Y-16166817D01*
X5193634Y-16033484D02*
X5193634Y-16071579D01*
X5269825Y-16033484D02*
X5269825Y-16071579D01*
X5565063Y-16309674D02*
X5555539Y-16300150D01*
X5555539Y-16300150D02*
X5536491Y-16271579D01*
X5536491Y-16271579D02*
X5526968Y-16252531D01*
X5526968Y-16252531D02*
X5517444Y-16223960D01*
X5517444Y-16223960D02*
X5507920Y-16176341D01*
X5507920Y-16176341D02*
X5507920Y-16138246D01*
X5507920Y-16138246D02*
X5517444Y-16090627D01*
X5517444Y-16090627D02*
X5526968Y-16062055D01*
X5526968Y-16062055D02*
X5536491Y-16043008D01*
X5536491Y-16043008D02*
X5555539Y-16014436D01*
X5555539Y-16014436D02*
X5565063Y-16004912D01*
X5679348Y-16033484D02*
X5698396Y-16033484D01*
X5698396Y-16033484D02*
X5717444Y-16043008D01*
X5717444Y-16043008D02*
X5726968Y-16052531D01*
X5726968Y-16052531D02*
X5736491Y-16071579D01*
X5736491Y-16071579D02*
X5746015Y-16109674D01*
X5746015Y-16109674D02*
X5746015Y-16157293D01*
X5746015Y-16157293D02*
X5736491Y-16195388D01*
X5736491Y-16195388D02*
X5726968Y-16214436D01*
X5726968Y-16214436D02*
X5717444Y-16223960D01*
X5717444Y-16223960D02*
X5698396Y-16233484D01*
X5698396Y-16233484D02*
X5679348Y-16233484D01*
X5679348Y-16233484D02*
X5660301Y-16223960D01*
X5660301Y-16223960D02*
X5650777Y-16214436D01*
X5650777Y-16214436D02*
X5641253Y-16195388D01*
X5641253Y-16195388D02*
X5631729Y-16157293D01*
X5631729Y-16157293D02*
X5631729Y-16109674D01*
X5631729Y-16109674D02*
X5641253Y-16071579D01*
X5641253Y-16071579D02*
X5650777Y-16052531D01*
X5650777Y-16052531D02*
X5660301Y-16043008D01*
X5660301Y-16043008D02*
X5679348Y-16033484D01*
X5984110Y-16233484D02*
X5984110Y-16033484D01*
X6069825Y-16233484D02*
X6069825Y-16128722D01*
X6069825Y-16128722D02*
X6060301Y-16109674D01*
X6060301Y-16109674D02*
X6041253Y-16100150D01*
X6041253Y-16100150D02*
X6012682Y-16100150D01*
X6012682Y-16100150D02*
X5993634Y-16109674D01*
X5993634Y-16109674D02*
X5984110Y-16119198D01*
X6193634Y-16233484D02*
X6174587Y-16223960D01*
X6174587Y-16223960D02*
X6165063Y-16214436D01*
X6165063Y-16214436D02*
X6155539Y-16195388D01*
X6155539Y-16195388D02*
X6155539Y-16138246D01*
X6155539Y-16138246D02*
X6165063Y-16119198D01*
X6165063Y-16119198D02*
X6174587Y-16109674D01*
X6174587Y-16109674D02*
X6193634Y-16100150D01*
X6193634Y-16100150D02*
X6222206Y-16100150D01*
X6222206Y-16100150D02*
X6241253Y-16109674D01*
X6241253Y-16109674D02*
X6250777Y-16119198D01*
X6250777Y-16119198D02*
X6260301Y-16138246D01*
X6260301Y-16138246D02*
X6260301Y-16195388D01*
X6260301Y-16195388D02*
X6250777Y-16214436D01*
X6250777Y-16214436D02*
X6241253Y-16223960D01*
X6241253Y-16223960D02*
X6222206Y-16233484D01*
X6222206Y-16233484D02*
X6193634Y-16233484D01*
X6374587Y-16233484D02*
X6355539Y-16223960D01*
X6355539Y-16223960D02*
X6346015Y-16204912D01*
X6346015Y-16204912D02*
X6346015Y-16033484D01*
X6526968Y-16223960D02*
X6507920Y-16233484D01*
X6507920Y-16233484D02*
X6469825Y-16233484D01*
X6469825Y-16233484D02*
X6450777Y-16223960D01*
X6450777Y-16223960D02*
X6441253Y-16204912D01*
X6441253Y-16204912D02*
X6441253Y-16128722D01*
X6441253Y-16128722D02*
X6450777Y-16109674D01*
X6450777Y-16109674D02*
X6469825Y-16100150D01*
X6469825Y-16100150D02*
X6507920Y-16100150D01*
X6507920Y-16100150D02*
X6526968Y-16109674D01*
X6526968Y-16109674D02*
X6536491Y-16128722D01*
X6536491Y-16128722D02*
X6536491Y-16147769D01*
X6536491Y-16147769D02*
X6441253Y-16166817D01*
X6612682Y-16223960D02*
X6631730Y-16233484D01*
X6631730Y-16233484D02*
X6669825Y-16233484D01*
X6669825Y-16233484D02*
X6688872Y-16223960D01*
X6688872Y-16223960D02*
X6698396Y-16204912D01*
X6698396Y-16204912D02*
X6698396Y-16195388D01*
X6698396Y-16195388D02*
X6688872Y-16176341D01*
X6688872Y-16176341D02*
X6669825Y-16166817D01*
X6669825Y-16166817D02*
X6641253Y-16166817D01*
X6641253Y-16166817D02*
X6622206Y-16157293D01*
X6622206Y-16157293D02*
X6612682Y-16138246D01*
X6612682Y-16138246D02*
X6612682Y-16128722D01*
X6612682Y-16128722D02*
X6622206Y-16109674D01*
X6622206Y-16109674D02*
X6641253Y-16100150D01*
X6641253Y-16100150D02*
X6669825Y-16100150D01*
X6669825Y-16100150D02*
X6688872Y-16109674D01*
X6936492Y-16157293D02*
X7088873Y-16157293D01*
X7012682Y-16233484D02*
X7012682Y-16081103D01*
X7326968Y-16052531D02*
X7336492Y-16043008D01*
X7336492Y-16043008D02*
X7355539Y-16033484D01*
X7355539Y-16033484D02*
X7403158Y-16033484D01*
X7403158Y-16033484D02*
X7422206Y-16043008D01*
X7422206Y-16043008D02*
X7431730Y-16052531D01*
X7431730Y-16052531D02*
X7441253Y-16071579D01*
X7441253Y-16071579D02*
X7441253Y-16090627D01*
X7441253Y-16090627D02*
X7431730Y-16119198D01*
X7431730Y-16119198D02*
X7317444Y-16233484D01*
X7317444Y-16233484D02*
X7441253Y-16233484D01*
X7669825Y-16223960D02*
X7688873Y-16233484D01*
X7688873Y-16233484D02*
X7726968Y-16233484D01*
X7726968Y-16233484D02*
X7746015Y-16223960D01*
X7746015Y-16223960D02*
X7755539Y-16204912D01*
X7755539Y-16204912D02*
X7755539Y-16195388D01*
X7755539Y-16195388D02*
X7746015Y-16176341D01*
X7746015Y-16176341D02*
X7726968Y-16166817D01*
X7726968Y-16166817D02*
X7698396Y-16166817D01*
X7698396Y-16166817D02*
X7679349Y-16157293D01*
X7679349Y-16157293D02*
X7669825Y-16138246D01*
X7669825Y-16138246D02*
X7669825Y-16128722D01*
X7669825Y-16128722D02*
X7679349Y-16109674D01*
X7679349Y-16109674D02*
X7698396Y-16100150D01*
X7698396Y-16100150D02*
X7726968Y-16100150D01*
X7726968Y-16100150D02*
X7746015Y-16109674D01*
X7869825Y-16233484D02*
X7850777Y-16223960D01*
X7850777Y-16223960D02*
X7841254Y-16204912D01*
X7841254Y-16204912D02*
X7841254Y-16033484D01*
X7974587Y-16233484D02*
X7955539Y-16223960D01*
X7955539Y-16223960D02*
X7946015Y-16214436D01*
X7946015Y-16214436D02*
X7936492Y-16195388D01*
X7936492Y-16195388D02*
X7936492Y-16138246D01*
X7936492Y-16138246D02*
X7946015Y-16119198D01*
X7946015Y-16119198D02*
X7955539Y-16109674D01*
X7955539Y-16109674D02*
X7974587Y-16100150D01*
X7974587Y-16100150D02*
X8003158Y-16100150D01*
X8003158Y-16100150D02*
X8022206Y-16109674D01*
X8022206Y-16109674D02*
X8031730Y-16119198D01*
X8031730Y-16119198D02*
X8041254Y-16138246D01*
X8041254Y-16138246D02*
X8041254Y-16195388D01*
X8041254Y-16195388D02*
X8031730Y-16214436D01*
X8031730Y-16214436D02*
X8022206Y-16223960D01*
X8022206Y-16223960D02*
X8003158Y-16233484D01*
X8003158Y-16233484D02*
X7974587Y-16233484D01*
X8098396Y-16100150D02*
X8174587Y-16100150D01*
X8126968Y-16033484D02*
X8126968Y-16204912D01*
X8126968Y-16204912D02*
X8136492Y-16223960D01*
X8136492Y-16223960D02*
X8155539Y-16233484D01*
X8155539Y-16233484D02*
X8174587Y-16233484D01*
X8231730Y-16223960D02*
X8250777Y-16233484D01*
X8250777Y-16233484D02*
X8288873Y-16233484D01*
X8288873Y-16233484D02*
X8307920Y-16223960D01*
X8307920Y-16223960D02*
X8317444Y-16204912D01*
X8317444Y-16204912D02*
X8317444Y-16195388D01*
X8317444Y-16195388D02*
X8307920Y-16176341D01*
X8307920Y-16176341D02*
X8288873Y-16166817D01*
X8288873Y-16166817D02*
X8260301Y-16166817D01*
X8260301Y-16166817D02*
X8241254Y-16157293D01*
X8241254Y-16157293D02*
X8231730Y-16138246D01*
X8231730Y-16138246D02*
X8231730Y-16128722D01*
X8231730Y-16128722D02*
X8241254Y-16109674D01*
X8241254Y-16109674D02*
X8260301Y-16100150D01*
X8260301Y-16100150D02*
X8288873Y-16100150D01*
X8288873Y-16100150D02*
X8307920Y-16109674D01*
X8384111Y-16309674D02*
X8393635Y-16300150D01*
X8393635Y-16300150D02*
X8412682Y-16271579D01*
X8412682Y-16271579D02*
X8422206Y-16252531D01*
X8422206Y-16252531D02*
X8431730Y-16223960D01*
X8431730Y-16223960D02*
X8441254Y-16176341D01*
X8441254Y-16176341D02*
X8441254Y-16138246D01*
X8441254Y-16138246D02*
X8431730Y-16090627D01*
X8431730Y-16090627D02*
X8422206Y-16062055D01*
X8422206Y-16062055D02*
X8412682Y-16043008D01*
X8412682Y-16043008D02*
X8393635Y-16014436D01*
X8393635Y-16014436D02*
X8384111Y-16004912D01*
D12*
X1930000Y-16466000D02*
X1990000Y-16406000D01*
X1930000Y-16346000D01*
X1870000Y-16406000D01*
X1930000Y-16466000D01*
D10*
X2355539Y-16497484D02*
X2241253Y-16497484D01*
X2298396Y-16497484D02*
X2298396Y-16297484D01*
X2298396Y-16297484D02*
X2279348Y-16326055D01*
X2279348Y-16326055D02*
X2260301Y-16345103D01*
X2260301Y-16345103D02*
X2241253Y-16354627D01*
X2441253Y-16478436D02*
X2450777Y-16487960D01*
X2450777Y-16487960D02*
X2441253Y-16497484D01*
X2441253Y-16497484D02*
X2431729Y-16487960D01*
X2431729Y-16487960D02*
X2441253Y-16478436D01*
X2441253Y-16478436D02*
X2441253Y-16497484D01*
X2526967Y-16316531D02*
X2536491Y-16307008D01*
X2536491Y-16307008D02*
X2555539Y-16297484D01*
X2555539Y-16297484D02*
X2603158Y-16297484D01*
X2603158Y-16297484D02*
X2622205Y-16307008D01*
X2622205Y-16307008D02*
X2631729Y-16316531D01*
X2631729Y-16316531D02*
X2641253Y-16335579D01*
X2641253Y-16335579D02*
X2641253Y-16354627D01*
X2641253Y-16354627D02*
X2631729Y-16383198D01*
X2631729Y-16383198D02*
X2517444Y-16497484D01*
X2517444Y-16497484D02*
X2641253Y-16497484D01*
X2765063Y-16297484D02*
X2784110Y-16297484D01*
X2784110Y-16297484D02*
X2803158Y-16307008D01*
X2803158Y-16307008D02*
X2812682Y-16316531D01*
X2812682Y-16316531D02*
X2822205Y-16335579D01*
X2822205Y-16335579D02*
X2831729Y-16373674D01*
X2831729Y-16373674D02*
X2831729Y-16421293D01*
X2831729Y-16421293D02*
X2822205Y-16459388D01*
X2822205Y-16459388D02*
X2812682Y-16478436D01*
X2812682Y-16478436D02*
X2803158Y-16487960D01*
X2803158Y-16487960D02*
X2784110Y-16497484D01*
X2784110Y-16497484D02*
X2765063Y-16497484D01*
X2765063Y-16497484D02*
X2746015Y-16487960D01*
X2746015Y-16487960D02*
X2736491Y-16478436D01*
X2736491Y-16478436D02*
X2726967Y-16459388D01*
X2726967Y-16459388D02*
X2717444Y-16421293D01*
X2717444Y-16421293D02*
X2717444Y-16373674D01*
X2717444Y-16373674D02*
X2726967Y-16335579D01*
X2726967Y-16335579D02*
X2736491Y-16316531D01*
X2736491Y-16316531D02*
X2746015Y-16307008D01*
X2746015Y-16307008D02*
X2765063Y-16297484D01*
X2955539Y-16297484D02*
X2974586Y-16297484D01*
X2974586Y-16297484D02*
X2993634Y-16307008D01*
X2993634Y-16307008D02*
X3003158Y-16316531D01*
X3003158Y-16316531D02*
X3012682Y-16335579D01*
X3012682Y-16335579D02*
X3022205Y-16373674D01*
X3022205Y-16373674D02*
X3022205Y-16421293D01*
X3022205Y-16421293D02*
X3012682Y-16459388D01*
X3012682Y-16459388D02*
X3003158Y-16478436D01*
X3003158Y-16478436D02*
X2993634Y-16487960D01*
X2993634Y-16487960D02*
X2974586Y-16497484D01*
X2974586Y-16497484D02*
X2955539Y-16497484D01*
X2955539Y-16497484D02*
X2936491Y-16487960D01*
X2936491Y-16487960D02*
X2926967Y-16478436D01*
X2926967Y-16478436D02*
X2917443Y-16459388D01*
X2917443Y-16459388D02*
X2907920Y-16421293D01*
X2907920Y-16421293D02*
X2907920Y-16373674D01*
X2907920Y-16373674D02*
X2917443Y-16335579D01*
X2917443Y-16335579D02*
X2926967Y-16316531D01*
X2926967Y-16316531D02*
X2936491Y-16307008D01*
X2936491Y-16307008D02*
X2955539Y-16297484D01*
X3107920Y-16497484D02*
X3107920Y-16364150D01*
X3107920Y-16383198D02*
X3117443Y-16373674D01*
X3117443Y-16373674D02*
X3136491Y-16364150D01*
X3136491Y-16364150D02*
X3165063Y-16364150D01*
X3165063Y-16364150D02*
X3184110Y-16373674D01*
X3184110Y-16373674D02*
X3193634Y-16392722D01*
X3193634Y-16392722D02*
X3193634Y-16497484D01*
X3193634Y-16392722D02*
X3203158Y-16373674D01*
X3203158Y-16373674D02*
X3222205Y-16364150D01*
X3222205Y-16364150D02*
X3250777Y-16364150D01*
X3250777Y-16364150D02*
X3269824Y-16373674D01*
X3269824Y-16373674D02*
X3279348Y-16392722D01*
X3279348Y-16392722D02*
X3279348Y-16497484D01*
X3374586Y-16497484D02*
X3374586Y-16364150D01*
X3374586Y-16383198D02*
X3384110Y-16373674D01*
X3384110Y-16373674D02*
X3403158Y-16364150D01*
X3403158Y-16364150D02*
X3431729Y-16364150D01*
X3431729Y-16364150D02*
X3450777Y-16373674D01*
X3450777Y-16373674D02*
X3460301Y-16392722D01*
X3460301Y-16392722D02*
X3460301Y-16497484D01*
X3460301Y-16392722D02*
X3469824Y-16373674D01*
X3469824Y-16373674D02*
X3488872Y-16364150D01*
X3488872Y-16364150D02*
X3517443Y-16364150D01*
X3517443Y-16364150D02*
X3536491Y-16373674D01*
X3536491Y-16373674D02*
X3546015Y-16392722D01*
X3546015Y-16392722D02*
X3546015Y-16497484D01*
X3936491Y-16287960D02*
X3765063Y-16545103D01*
X4193634Y-16297484D02*
X4212682Y-16297484D01*
X4212682Y-16297484D02*
X4231729Y-16307008D01*
X4231729Y-16307008D02*
X4241253Y-16316531D01*
X4241253Y-16316531D02*
X4250777Y-16335579D01*
X4250777Y-16335579D02*
X4260301Y-16373674D01*
X4260301Y-16373674D02*
X4260301Y-16421293D01*
X4260301Y-16421293D02*
X4250777Y-16459388D01*
X4250777Y-16459388D02*
X4241253Y-16478436D01*
X4241253Y-16478436D02*
X4231729Y-16487960D01*
X4231729Y-16487960D02*
X4212682Y-16497484D01*
X4212682Y-16497484D02*
X4193634Y-16497484D01*
X4193634Y-16497484D02*
X4174586Y-16487960D01*
X4174586Y-16487960D02*
X4165063Y-16478436D01*
X4165063Y-16478436D02*
X4155539Y-16459388D01*
X4155539Y-16459388D02*
X4146015Y-16421293D01*
X4146015Y-16421293D02*
X4146015Y-16373674D01*
X4146015Y-16373674D02*
X4155539Y-16335579D01*
X4155539Y-16335579D02*
X4165063Y-16316531D01*
X4165063Y-16316531D02*
X4174586Y-16307008D01*
X4174586Y-16307008D02*
X4193634Y-16297484D01*
X4346015Y-16478436D02*
X4355539Y-16487960D01*
X4355539Y-16487960D02*
X4346015Y-16497484D01*
X4346015Y-16497484D02*
X4336491Y-16487960D01*
X4336491Y-16487960D02*
X4346015Y-16478436D01*
X4346015Y-16478436D02*
X4346015Y-16497484D01*
X4479348Y-16297484D02*
X4498396Y-16297484D01*
X4498396Y-16297484D02*
X4517444Y-16307008D01*
X4517444Y-16307008D02*
X4526968Y-16316531D01*
X4526968Y-16316531D02*
X4536491Y-16335579D01*
X4536491Y-16335579D02*
X4546015Y-16373674D01*
X4546015Y-16373674D02*
X4546015Y-16421293D01*
X4546015Y-16421293D02*
X4536491Y-16459388D01*
X4536491Y-16459388D02*
X4526968Y-16478436D01*
X4526968Y-16478436D02*
X4517444Y-16487960D01*
X4517444Y-16487960D02*
X4498396Y-16497484D01*
X4498396Y-16497484D02*
X4479348Y-16497484D01*
X4479348Y-16497484D02*
X4460301Y-16487960D01*
X4460301Y-16487960D02*
X4450777Y-16478436D01*
X4450777Y-16478436D02*
X4441253Y-16459388D01*
X4441253Y-16459388D02*
X4431729Y-16421293D01*
X4431729Y-16421293D02*
X4431729Y-16373674D01*
X4431729Y-16373674D02*
X4441253Y-16335579D01*
X4441253Y-16335579D02*
X4450777Y-16316531D01*
X4450777Y-16316531D02*
X4460301Y-16307008D01*
X4460301Y-16307008D02*
X4479348Y-16297484D01*
X4717444Y-16364150D02*
X4717444Y-16497484D01*
X4669825Y-16287960D02*
X4622206Y-16430817D01*
X4622206Y-16430817D02*
X4746015Y-16430817D01*
X4803158Y-16297484D02*
X4936491Y-16297484D01*
X4936491Y-16297484D02*
X4850777Y-16497484D01*
X5003158Y-16316531D02*
X5012682Y-16307008D01*
X5012682Y-16307008D02*
X5031729Y-16297484D01*
X5031729Y-16297484D02*
X5079349Y-16297484D01*
X5079349Y-16297484D02*
X5098396Y-16307008D01*
X5098396Y-16307008D02*
X5107920Y-16316531D01*
X5107920Y-16316531D02*
X5117444Y-16335579D01*
X5117444Y-16335579D02*
X5117444Y-16354627D01*
X5117444Y-16354627D02*
X5107920Y-16383198D01*
X5107920Y-16383198D02*
X4993634Y-16497484D01*
X4993634Y-16497484D02*
X5117444Y-16497484D01*
X5193634Y-16297484D02*
X5193634Y-16335579D01*
X5269825Y-16297484D02*
X5269825Y-16335579D01*
X5565063Y-16573674D02*
X5555539Y-16564150D01*
X5555539Y-16564150D02*
X5536491Y-16535579D01*
X5536491Y-16535579D02*
X5526968Y-16516531D01*
X5526968Y-16516531D02*
X5517444Y-16487960D01*
X5517444Y-16487960D02*
X5507920Y-16440341D01*
X5507920Y-16440341D02*
X5507920Y-16402246D01*
X5507920Y-16402246D02*
X5517444Y-16354627D01*
X5517444Y-16354627D02*
X5526968Y-16326055D01*
X5526968Y-16326055D02*
X5536491Y-16307008D01*
X5536491Y-16307008D02*
X5555539Y-16278436D01*
X5555539Y-16278436D02*
X5565063Y-16268912D01*
X5726968Y-16297484D02*
X5688872Y-16297484D01*
X5688872Y-16297484D02*
X5669825Y-16307008D01*
X5669825Y-16307008D02*
X5660301Y-16316531D01*
X5660301Y-16316531D02*
X5641253Y-16345103D01*
X5641253Y-16345103D02*
X5631729Y-16383198D01*
X5631729Y-16383198D02*
X5631729Y-16459388D01*
X5631729Y-16459388D02*
X5641253Y-16478436D01*
X5641253Y-16478436D02*
X5650777Y-16487960D01*
X5650777Y-16487960D02*
X5669825Y-16497484D01*
X5669825Y-16497484D02*
X5707920Y-16497484D01*
X5707920Y-16497484D02*
X5726968Y-16487960D01*
X5726968Y-16487960D02*
X5736491Y-16478436D01*
X5736491Y-16478436D02*
X5746015Y-16459388D01*
X5746015Y-16459388D02*
X5746015Y-16411769D01*
X5746015Y-16411769D02*
X5736491Y-16392722D01*
X5736491Y-16392722D02*
X5726968Y-16383198D01*
X5726968Y-16383198D02*
X5707920Y-16373674D01*
X5707920Y-16373674D02*
X5669825Y-16373674D01*
X5669825Y-16373674D02*
X5650777Y-16383198D01*
X5650777Y-16383198D02*
X5641253Y-16392722D01*
X5641253Y-16392722D02*
X5631729Y-16411769D01*
X5984110Y-16497484D02*
X5984110Y-16297484D01*
X6069825Y-16497484D02*
X6069825Y-16392722D01*
X6069825Y-16392722D02*
X6060301Y-16373674D01*
X6060301Y-16373674D02*
X6041253Y-16364150D01*
X6041253Y-16364150D02*
X6012682Y-16364150D01*
X6012682Y-16364150D02*
X5993634Y-16373674D01*
X5993634Y-16373674D02*
X5984110Y-16383198D01*
X6193634Y-16497484D02*
X6174587Y-16487960D01*
X6174587Y-16487960D02*
X6165063Y-16478436D01*
X6165063Y-16478436D02*
X6155539Y-16459388D01*
X6155539Y-16459388D02*
X6155539Y-16402246D01*
X6155539Y-16402246D02*
X6165063Y-16383198D01*
X6165063Y-16383198D02*
X6174587Y-16373674D01*
X6174587Y-16373674D02*
X6193634Y-16364150D01*
X6193634Y-16364150D02*
X6222206Y-16364150D01*
X6222206Y-16364150D02*
X6241253Y-16373674D01*
X6241253Y-16373674D02*
X6250777Y-16383198D01*
X6250777Y-16383198D02*
X6260301Y-16402246D01*
X6260301Y-16402246D02*
X6260301Y-16459388D01*
X6260301Y-16459388D02*
X6250777Y-16478436D01*
X6250777Y-16478436D02*
X6241253Y-16487960D01*
X6241253Y-16487960D02*
X6222206Y-16497484D01*
X6222206Y-16497484D02*
X6193634Y-16497484D01*
X6374587Y-16497484D02*
X6355539Y-16487960D01*
X6355539Y-16487960D02*
X6346015Y-16468912D01*
X6346015Y-16468912D02*
X6346015Y-16297484D01*
X6526968Y-16487960D02*
X6507920Y-16497484D01*
X6507920Y-16497484D02*
X6469825Y-16497484D01*
X6469825Y-16497484D02*
X6450777Y-16487960D01*
X6450777Y-16487960D02*
X6441253Y-16468912D01*
X6441253Y-16468912D02*
X6441253Y-16392722D01*
X6441253Y-16392722D02*
X6450777Y-16373674D01*
X6450777Y-16373674D02*
X6469825Y-16364150D01*
X6469825Y-16364150D02*
X6507920Y-16364150D01*
X6507920Y-16364150D02*
X6526968Y-16373674D01*
X6526968Y-16373674D02*
X6536491Y-16392722D01*
X6536491Y-16392722D02*
X6536491Y-16411769D01*
X6536491Y-16411769D02*
X6441253Y-16430817D01*
X6612682Y-16487960D02*
X6631730Y-16497484D01*
X6631730Y-16497484D02*
X6669825Y-16497484D01*
X6669825Y-16497484D02*
X6688872Y-16487960D01*
X6688872Y-16487960D02*
X6698396Y-16468912D01*
X6698396Y-16468912D02*
X6698396Y-16459388D01*
X6698396Y-16459388D02*
X6688872Y-16440341D01*
X6688872Y-16440341D02*
X6669825Y-16430817D01*
X6669825Y-16430817D02*
X6641253Y-16430817D01*
X6641253Y-16430817D02*
X6622206Y-16421293D01*
X6622206Y-16421293D02*
X6612682Y-16402246D01*
X6612682Y-16402246D02*
X6612682Y-16392722D01*
X6612682Y-16392722D02*
X6622206Y-16373674D01*
X6622206Y-16373674D02*
X6641253Y-16364150D01*
X6641253Y-16364150D02*
X6669825Y-16364150D01*
X6669825Y-16364150D02*
X6688872Y-16373674D01*
X6765063Y-16573674D02*
X6774587Y-16564150D01*
X6774587Y-16564150D02*
X6793634Y-16535579D01*
X6793634Y-16535579D02*
X6803158Y-16516531D01*
X6803158Y-16516531D02*
X6812682Y-16487960D01*
X6812682Y-16487960D02*
X6822206Y-16440341D01*
X6822206Y-16440341D02*
X6822206Y-16402246D01*
X6822206Y-16402246D02*
X6812682Y-16354627D01*
X6812682Y-16354627D02*
X6803158Y-16326055D01*
X6803158Y-16326055D02*
X6793634Y-16307008D01*
X6793634Y-16307008D02*
X6774587Y-16278436D01*
X6774587Y-16278436D02*
X6765063Y-16268912D01*
D13*
X1865000Y-16607500D02*
X1990000Y-16732500D01*
X1990000Y-16607500D02*
X1865000Y-16732500D01*
X1990000Y-16670000D02*
G75*
G03*
X1990000Y-16670000I-62500J0D01*
G01*
D10*
X2355539Y-16761484D02*
X2241253Y-16761484D01*
X2298396Y-16761484D02*
X2298396Y-16561484D01*
X2298396Y-16561484D02*
X2279348Y-16590055D01*
X2279348Y-16590055D02*
X2260301Y-16609103D01*
X2260301Y-16609103D02*
X2241253Y-16618627D01*
X2441253Y-16742436D02*
X2450777Y-16751960D01*
X2450777Y-16751960D02*
X2441253Y-16761484D01*
X2441253Y-16761484D02*
X2431729Y-16751960D01*
X2431729Y-16751960D02*
X2441253Y-16742436D01*
X2441253Y-16742436D02*
X2441253Y-16761484D01*
X2526967Y-16580531D02*
X2536491Y-16571008D01*
X2536491Y-16571008D02*
X2555539Y-16561484D01*
X2555539Y-16561484D02*
X2603158Y-16561484D01*
X2603158Y-16561484D02*
X2622205Y-16571008D01*
X2622205Y-16571008D02*
X2631729Y-16580531D01*
X2631729Y-16580531D02*
X2641253Y-16599579D01*
X2641253Y-16599579D02*
X2641253Y-16618627D01*
X2641253Y-16618627D02*
X2631729Y-16647198D01*
X2631729Y-16647198D02*
X2517444Y-16761484D01*
X2517444Y-16761484D02*
X2641253Y-16761484D01*
X2822205Y-16561484D02*
X2726967Y-16561484D01*
X2726967Y-16561484D02*
X2717444Y-16656722D01*
X2717444Y-16656722D02*
X2726967Y-16647198D01*
X2726967Y-16647198D02*
X2746015Y-16637674D01*
X2746015Y-16637674D02*
X2793634Y-16637674D01*
X2793634Y-16637674D02*
X2812682Y-16647198D01*
X2812682Y-16647198D02*
X2822205Y-16656722D01*
X2822205Y-16656722D02*
X2831729Y-16675769D01*
X2831729Y-16675769D02*
X2831729Y-16723388D01*
X2831729Y-16723388D02*
X2822205Y-16742436D01*
X2822205Y-16742436D02*
X2812682Y-16751960D01*
X2812682Y-16751960D02*
X2793634Y-16761484D01*
X2793634Y-16761484D02*
X2746015Y-16761484D01*
X2746015Y-16761484D02*
X2726967Y-16751960D01*
X2726967Y-16751960D02*
X2717444Y-16742436D01*
X2955539Y-16561484D02*
X2974586Y-16561484D01*
X2974586Y-16561484D02*
X2993634Y-16571008D01*
X2993634Y-16571008D02*
X3003158Y-16580531D01*
X3003158Y-16580531D02*
X3012682Y-16599579D01*
X3012682Y-16599579D02*
X3022205Y-16637674D01*
X3022205Y-16637674D02*
X3022205Y-16685293D01*
X3022205Y-16685293D02*
X3012682Y-16723388D01*
X3012682Y-16723388D02*
X3003158Y-16742436D01*
X3003158Y-16742436D02*
X2993634Y-16751960D01*
X2993634Y-16751960D02*
X2974586Y-16761484D01*
X2974586Y-16761484D02*
X2955539Y-16761484D01*
X2955539Y-16761484D02*
X2936491Y-16751960D01*
X2936491Y-16751960D02*
X2926967Y-16742436D01*
X2926967Y-16742436D02*
X2917443Y-16723388D01*
X2917443Y-16723388D02*
X2907920Y-16685293D01*
X2907920Y-16685293D02*
X2907920Y-16637674D01*
X2907920Y-16637674D02*
X2917443Y-16599579D01*
X2917443Y-16599579D02*
X2926967Y-16580531D01*
X2926967Y-16580531D02*
X2936491Y-16571008D01*
X2936491Y-16571008D02*
X2955539Y-16561484D01*
X3107920Y-16761484D02*
X3107920Y-16628150D01*
X3107920Y-16647198D02*
X3117443Y-16637674D01*
X3117443Y-16637674D02*
X3136491Y-16628150D01*
X3136491Y-16628150D02*
X3165063Y-16628150D01*
X3165063Y-16628150D02*
X3184110Y-16637674D01*
X3184110Y-16637674D02*
X3193634Y-16656722D01*
X3193634Y-16656722D02*
X3193634Y-16761484D01*
X3193634Y-16656722D02*
X3203158Y-16637674D01*
X3203158Y-16637674D02*
X3222205Y-16628150D01*
X3222205Y-16628150D02*
X3250777Y-16628150D01*
X3250777Y-16628150D02*
X3269824Y-16637674D01*
X3269824Y-16637674D02*
X3279348Y-16656722D01*
X3279348Y-16656722D02*
X3279348Y-16761484D01*
X3374586Y-16761484D02*
X3374586Y-16628150D01*
X3374586Y-16647198D02*
X3384110Y-16637674D01*
X3384110Y-16637674D02*
X3403158Y-16628150D01*
X3403158Y-16628150D02*
X3431729Y-16628150D01*
X3431729Y-16628150D02*
X3450777Y-16637674D01*
X3450777Y-16637674D02*
X3460301Y-16656722D01*
X3460301Y-16656722D02*
X3460301Y-16761484D01*
X3460301Y-16656722D02*
X3469824Y-16637674D01*
X3469824Y-16637674D02*
X3488872Y-16628150D01*
X3488872Y-16628150D02*
X3517443Y-16628150D01*
X3517443Y-16628150D02*
X3536491Y-16637674D01*
X3536491Y-16637674D02*
X3546015Y-16656722D01*
X3546015Y-16656722D02*
X3546015Y-16761484D01*
X3936491Y-16551960D02*
X3765063Y-16809103D01*
X4193634Y-16561484D02*
X4212682Y-16561484D01*
X4212682Y-16561484D02*
X4231729Y-16571008D01*
X4231729Y-16571008D02*
X4241253Y-16580531D01*
X4241253Y-16580531D02*
X4250777Y-16599579D01*
X4250777Y-16599579D02*
X4260301Y-16637674D01*
X4260301Y-16637674D02*
X4260301Y-16685293D01*
X4260301Y-16685293D02*
X4250777Y-16723388D01*
X4250777Y-16723388D02*
X4241253Y-16742436D01*
X4241253Y-16742436D02*
X4231729Y-16751960D01*
X4231729Y-16751960D02*
X4212682Y-16761484D01*
X4212682Y-16761484D02*
X4193634Y-16761484D01*
X4193634Y-16761484D02*
X4174586Y-16751960D01*
X4174586Y-16751960D02*
X4165063Y-16742436D01*
X4165063Y-16742436D02*
X4155539Y-16723388D01*
X4155539Y-16723388D02*
X4146015Y-16685293D01*
X4146015Y-16685293D02*
X4146015Y-16637674D01*
X4146015Y-16637674D02*
X4155539Y-16599579D01*
X4155539Y-16599579D02*
X4165063Y-16580531D01*
X4165063Y-16580531D02*
X4174586Y-16571008D01*
X4174586Y-16571008D02*
X4193634Y-16561484D01*
X4346015Y-16742436D02*
X4355539Y-16751960D01*
X4355539Y-16751960D02*
X4346015Y-16761484D01*
X4346015Y-16761484D02*
X4336491Y-16751960D01*
X4336491Y-16751960D02*
X4346015Y-16742436D01*
X4346015Y-16742436D02*
X4346015Y-16761484D01*
X4479348Y-16561484D02*
X4498396Y-16561484D01*
X4498396Y-16561484D02*
X4517444Y-16571008D01*
X4517444Y-16571008D02*
X4526968Y-16580531D01*
X4526968Y-16580531D02*
X4536491Y-16599579D01*
X4536491Y-16599579D02*
X4546015Y-16637674D01*
X4546015Y-16637674D02*
X4546015Y-16685293D01*
X4546015Y-16685293D02*
X4536491Y-16723388D01*
X4536491Y-16723388D02*
X4526968Y-16742436D01*
X4526968Y-16742436D02*
X4517444Y-16751960D01*
X4517444Y-16751960D02*
X4498396Y-16761484D01*
X4498396Y-16761484D02*
X4479348Y-16761484D01*
X4479348Y-16761484D02*
X4460301Y-16751960D01*
X4460301Y-16751960D02*
X4450777Y-16742436D01*
X4450777Y-16742436D02*
X4441253Y-16723388D01*
X4441253Y-16723388D02*
X4431729Y-16685293D01*
X4431729Y-16685293D02*
X4431729Y-16637674D01*
X4431729Y-16637674D02*
X4441253Y-16599579D01*
X4441253Y-16599579D02*
X4450777Y-16580531D01*
X4450777Y-16580531D02*
X4460301Y-16571008D01*
X4460301Y-16571008D02*
X4479348Y-16561484D01*
X4717444Y-16628150D02*
X4717444Y-16761484D01*
X4669825Y-16551960D02*
X4622206Y-16694817D01*
X4622206Y-16694817D02*
X4746015Y-16694817D01*
X4831729Y-16761484D02*
X4869825Y-16761484D01*
X4869825Y-16761484D02*
X4888872Y-16751960D01*
X4888872Y-16751960D02*
X4898396Y-16742436D01*
X4898396Y-16742436D02*
X4917444Y-16713865D01*
X4917444Y-16713865D02*
X4926968Y-16675769D01*
X4926968Y-16675769D02*
X4926968Y-16599579D01*
X4926968Y-16599579D02*
X4917444Y-16580531D01*
X4917444Y-16580531D02*
X4907920Y-16571008D01*
X4907920Y-16571008D02*
X4888872Y-16561484D01*
X4888872Y-16561484D02*
X4850777Y-16561484D01*
X4850777Y-16561484D02*
X4831729Y-16571008D01*
X4831729Y-16571008D02*
X4822206Y-16580531D01*
X4822206Y-16580531D02*
X4812682Y-16599579D01*
X4812682Y-16599579D02*
X4812682Y-16647198D01*
X4812682Y-16647198D02*
X4822206Y-16666246D01*
X4822206Y-16666246D02*
X4831729Y-16675769D01*
X4831729Y-16675769D02*
X4850777Y-16685293D01*
X4850777Y-16685293D02*
X4888872Y-16685293D01*
X4888872Y-16685293D02*
X4907920Y-16675769D01*
X4907920Y-16675769D02*
X4917444Y-16666246D01*
X4917444Y-16666246D02*
X4926968Y-16647198D01*
X5003158Y-16580531D02*
X5012682Y-16571008D01*
X5012682Y-16571008D02*
X5031729Y-16561484D01*
X5031729Y-16561484D02*
X5079349Y-16561484D01*
X5079349Y-16561484D02*
X5098396Y-16571008D01*
X5098396Y-16571008D02*
X5107920Y-16580531D01*
X5107920Y-16580531D02*
X5117444Y-16599579D01*
X5117444Y-16599579D02*
X5117444Y-16618627D01*
X5117444Y-16618627D02*
X5107920Y-16647198D01*
X5107920Y-16647198D02*
X4993634Y-16761484D01*
X4993634Y-16761484D02*
X5117444Y-16761484D01*
X5193634Y-16561484D02*
X5193634Y-16599579D01*
X5269825Y-16561484D02*
X5269825Y-16599579D01*
X5565063Y-16837674D02*
X5555539Y-16828150D01*
X5555539Y-16828150D02*
X5536491Y-16799579D01*
X5536491Y-16799579D02*
X5526968Y-16780531D01*
X5526968Y-16780531D02*
X5517444Y-16751960D01*
X5517444Y-16751960D02*
X5507920Y-16704341D01*
X5507920Y-16704341D02*
X5507920Y-16666246D01*
X5507920Y-16666246D02*
X5517444Y-16618627D01*
X5517444Y-16618627D02*
X5526968Y-16590055D01*
X5526968Y-16590055D02*
X5536491Y-16571008D01*
X5536491Y-16571008D02*
X5555539Y-16542436D01*
X5555539Y-16542436D02*
X5565063Y-16532912D01*
X5746015Y-16761484D02*
X5631729Y-16761484D01*
X5688872Y-16761484D02*
X5688872Y-16561484D01*
X5688872Y-16561484D02*
X5669825Y-16590055D01*
X5669825Y-16590055D02*
X5650777Y-16609103D01*
X5650777Y-16609103D02*
X5631729Y-16618627D01*
X5822206Y-16580531D02*
X5831729Y-16571008D01*
X5831729Y-16571008D02*
X5850777Y-16561484D01*
X5850777Y-16561484D02*
X5898396Y-16561484D01*
X5898396Y-16561484D02*
X5917444Y-16571008D01*
X5917444Y-16571008D02*
X5926968Y-16580531D01*
X5926968Y-16580531D02*
X5936491Y-16599579D01*
X5936491Y-16599579D02*
X5936491Y-16618627D01*
X5936491Y-16618627D02*
X5926968Y-16647198D01*
X5926968Y-16647198D02*
X5812682Y-16761484D01*
X5812682Y-16761484D02*
X5936491Y-16761484D01*
X6174587Y-16761484D02*
X6174587Y-16561484D01*
X6260301Y-16761484D02*
X6260301Y-16656722D01*
X6260301Y-16656722D02*
X6250777Y-16637674D01*
X6250777Y-16637674D02*
X6231730Y-16628150D01*
X6231730Y-16628150D02*
X6203158Y-16628150D01*
X6203158Y-16628150D02*
X6184110Y-16637674D01*
X6184110Y-16637674D02*
X6174587Y-16647198D01*
X6384110Y-16761484D02*
X6365063Y-16751960D01*
X6365063Y-16751960D02*
X6355539Y-16742436D01*
X6355539Y-16742436D02*
X6346015Y-16723388D01*
X6346015Y-16723388D02*
X6346015Y-16666246D01*
X6346015Y-16666246D02*
X6355539Y-16647198D01*
X6355539Y-16647198D02*
X6365063Y-16637674D01*
X6365063Y-16637674D02*
X6384110Y-16628150D01*
X6384110Y-16628150D02*
X6412682Y-16628150D01*
X6412682Y-16628150D02*
X6431730Y-16637674D01*
X6431730Y-16637674D02*
X6441253Y-16647198D01*
X6441253Y-16647198D02*
X6450777Y-16666246D01*
X6450777Y-16666246D02*
X6450777Y-16723388D01*
X6450777Y-16723388D02*
X6441253Y-16742436D01*
X6441253Y-16742436D02*
X6431730Y-16751960D01*
X6431730Y-16751960D02*
X6412682Y-16761484D01*
X6412682Y-16761484D02*
X6384110Y-16761484D01*
X6565063Y-16761484D02*
X6546015Y-16751960D01*
X6546015Y-16751960D02*
X6536491Y-16732912D01*
X6536491Y-16732912D02*
X6536491Y-16561484D01*
X6717444Y-16751960D02*
X6698396Y-16761484D01*
X6698396Y-16761484D02*
X6660301Y-16761484D01*
X6660301Y-16761484D02*
X6641253Y-16751960D01*
X6641253Y-16751960D02*
X6631730Y-16732912D01*
X6631730Y-16732912D02*
X6631730Y-16656722D01*
X6631730Y-16656722D02*
X6641253Y-16637674D01*
X6641253Y-16637674D02*
X6660301Y-16628150D01*
X6660301Y-16628150D02*
X6698396Y-16628150D01*
X6698396Y-16628150D02*
X6717444Y-16637674D01*
X6717444Y-16637674D02*
X6726968Y-16656722D01*
X6726968Y-16656722D02*
X6726968Y-16675769D01*
X6726968Y-16675769D02*
X6631730Y-16694817D01*
X6803158Y-16751960D02*
X6822206Y-16761484D01*
X6822206Y-16761484D02*
X6860301Y-16761484D01*
X6860301Y-16761484D02*
X6879349Y-16751960D01*
X6879349Y-16751960D02*
X6888872Y-16732912D01*
X6888872Y-16732912D02*
X6888872Y-16723388D01*
X6888872Y-16723388D02*
X6879349Y-16704341D01*
X6879349Y-16704341D02*
X6860301Y-16694817D01*
X6860301Y-16694817D02*
X6831730Y-16694817D01*
X6831730Y-16694817D02*
X6812682Y-16685293D01*
X6812682Y-16685293D02*
X6803158Y-16666246D01*
X6803158Y-16666246D02*
X6803158Y-16656722D01*
X6803158Y-16656722D02*
X6812682Y-16637674D01*
X6812682Y-16637674D02*
X6831730Y-16628150D01*
X6831730Y-16628150D02*
X6860301Y-16628150D01*
X6860301Y-16628150D02*
X6879349Y-16637674D01*
X6955539Y-16837674D02*
X6965063Y-16828150D01*
X6965063Y-16828150D02*
X6984111Y-16799579D01*
X6984111Y-16799579D02*
X6993634Y-16780531D01*
X6993634Y-16780531D02*
X7003158Y-16751960D01*
X7003158Y-16751960D02*
X7012682Y-16704341D01*
X7012682Y-16704341D02*
X7012682Y-16666246D01*
X7012682Y-16666246D02*
X7003158Y-16618627D01*
X7003158Y-16618627D02*
X6993634Y-16590055D01*
X6993634Y-16590055D02*
X6984111Y-16571008D01*
X6984111Y-16571008D02*
X6965063Y-16542436D01*
X6965063Y-16542436D02*
X6955539Y-16532912D01*
D14*
X1860000Y-16869000D02*
X1990000Y-16999000D01*
X1990000Y-16869000D02*
X1860000Y-16999000D01*
X1925000Y-16869000D02*
X1925000Y-16999000D01*
X1860000Y-16934000D02*
X1990000Y-16934000D01*
D10*
X2355539Y-17025484D02*
X2241253Y-17025484D01*
X2298396Y-17025484D02*
X2298396Y-16825484D01*
X2298396Y-16825484D02*
X2279348Y-16854055D01*
X2279348Y-16854055D02*
X2260301Y-16873103D01*
X2260301Y-16873103D02*
X2241253Y-16882627D01*
X2441253Y-17006436D02*
X2450777Y-17015960D01*
X2450777Y-17015960D02*
X2441253Y-17025484D01*
X2441253Y-17025484D02*
X2431729Y-17015960D01*
X2431729Y-17015960D02*
X2441253Y-17006436D01*
X2441253Y-17006436D02*
X2441253Y-17025484D01*
X2517444Y-16825484D02*
X2641253Y-16825484D01*
X2641253Y-16825484D02*
X2574586Y-16901674D01*
X2574586Y-16901674D02*
X2603158Y-16901674D01*
X2603158Y-16901674D02*
X2622205Y-16911198D01*
X2622205Y-16911198D02*
X2631729Y-16920722D01*
X2631729Y-16920722D02*
X2641253Y-16939770D01*
X2641253Y-16939770D02*
X2641253Y-16987389D01*
X2641253Y-16987389D02*
X2631729Y-17006436D01*
X2631729Y-17006436D02*
X2622205Y-17015960D01*
X2622205Y-17015960D02*
X2603158Y-17025484D01*
X2603158Y-17025484D02*
X2546015Y-17025484D01*
X2546015Y-17025484D02*
X2526967Y-17015960D01*
X2526967Y-17015960D02*
X2517444Y-17006436D01*
X2765063Y-16825484D02*
X2784110Y-16825484D01*
X2784110Y-16825484D02*
X2803158Y-16835008D01*
X2803158Y-16835008D02*
X2812682Y-16844531D01*
X2812682Y-16844531D02*
X2822205Y-16863579D01*
X2822205Y-16863579D02*
X2831729Y-16901674D01*
X2831729Y-16901674D02*
X2831729Y-16949293D01*
X2831729Y-16949293D02*
X2822205Y-16987389D01*
X2822205Y-16987389D02*
X2812682Y-17006436D01*
X2812682Y-17006436D02*
X2803158Y-17015960D01*
X2803158Y-17015960D02*
X2784110Y-17025484D01*
X2784110Y-17025484D02*
X2765063Y-17025484D01*
X2765063Y-17025484D02*
X2746015Y-17015960D01*
X2746015Y-17015960D02*
X2736491Y-17006436D01*
X2736491Y-17006436D02*
X2726967Y-16987389D01*
X2726967Y-16987389D02*
X2717444Y-16949293D01*
X2717444Y-16949293D02*
X2717444Y-16901674D01*
X2717444Y-16901674D02*
X2726967Y-16863579D01*
X2726967Y-16863579D02*
X2736491Y-16844531D01*
X2736491Y-16844531D02*
X2746015Y-16835008D01*
X2746015Y-16835008D02*
X2765063Y-16825484D01*
X2955539Y-16825484D02*
X2974586Y-16825484D01*
X2974586Y-16825484D02*
X2993634Y-16835008D01*
X2993634Y-16835008D02*
X3003158Y-16844531D01*
X3003158Y-16844531D02*
X3012682Y-16863579D01*
X3012682Y-16863579D02*
X3022205Y-16901674D01*
X3022205Y-16901674D02*
X3022205Y-16949293D01*
X3022205Y-16949293D02*
X3012682Y-16987389D01*
X3012682Y-16987389D02*
X3003158Y-17006436D01*
X3003158Y-17006436D02*
X2993634Y-17015960D01*
X2993634Y-17015960D02*
X2974586Y-17025484D01*
X2974586Y-17025484D02*
X2955539Y-17025484D01*
X2955539Y-17025484D02*
X2936491Y-17015960D01*
X2936491Y-17015960D02*
X2926967Y-17006436D01*
X2926967Y-17006436D02*
X2917443Y-16987389D01*
X2917443Y-16987389D02*
X2907920Y-16949293D01*
X2907920Y-16949293D02*
X2907920Y-16901674D01*
X2907920Y-16901674D02*
X2917443Y-16863579D01*
X2917443Y-16863579D02*
X2926967Y-16844531D01*
X2926967Y-16844531D02*
X2936491Y-16835008D01*
X2936491Y-16835008D02*
X2955539Y-16825484D01*
X3107920Y-17025484D02*
X3107920Y-16892150D01*
X3107920Y-16911198D02*
X3117443Y-16901674D01*
X3117443Y-16901674D02*
X3136491Y-16892150D01*
X3136491Y-16892150D02*
X3165063Y-16892150D01*
X3165063Y-16892150D02*
X3184110Y-16901674D01*
X3184110Y-16901674D02*
X3193634Y-16920722D01*
X3193634Y-16920722D02*
X3193634Y-17025484D01*
X3193634Y-16920722D02*
X3203158Y-16901674D01*
X3203158Y-16901674D02*
X3222205Y-16892150D01*
X3222205Y-16892150D02*
X3250777Y-16892150D01*
X3250777Y-16892150D02*
X3269824Y-16901674D01*
X3269824Y-16901674D02*
X3279348Y-16920722D01*
X3279348Y-16920722D02*
X3279348Y-17025484D01*
X3374586Y-17025484D02*
X3374586Y-16892150D01*
X3374586Y-16911198D02*
X3384110Y-16901674D01*
X3384110Y-16901674D02*
X3403158Y-16892150D01*
X3403158Y-16892150D02*
X3431729Y-16892150D01*
X3431729Y-16892150D02*
X3450777Y-16901674D01*
X3450777Y-16901674D02*
X3460301Y-16920722D01*
X3460301Y-16920722D02*
X3460301Y-17025484D01*
X3460301Y-16920722D02*
X3469824Y-16901674D01*
X3469824Y-16901674D02*
X3488872Y-16892150D01*
X3488872Y-16892150D02*
X3517443Y-16892150D01*
X3517443Y-16892150D02*
X3536491Y-16901674D01*
X3536491Y-16901674D02*
X3546015Y-16920722D01*
X3546015Y-16920722D02*
X3546015Y-17025484D01*
X3936491Y-16815960D02*
X3765063Y-17073103D01*
X4193634Y-16825484D02*
X4212682Y-16825484D01*
X4212682Y-16825484D02*
X4231729Y-16835008D01*
X4231729Y-16835008D02*
X4241253Y-16844531D01*
X4241253Y-16844531D02*
X4250777Y-16863579D01*
X4250777Y-16863579D02*
X4260301Y-16901674D01*
X4260301Y-16901674D02*
X4260301Y-16949293D01*
X4260301Y-16949293D02*
X4250777Y-16987389D01*
X4250777Y-16987389D02*
X4241253Y-17006436D01*
X4241253Y-17006436D02*
X4231729Y-17015960D01*
X4231729Y-17015960D02*
X4212682Y-17025484D01*
X4212682Y-17025484D02*
X4193634Y-17025484D01*
X4193634Y-17025484D02*
X4174586Y-17015960D01*
X4174586Y-17015960D02*
X4165063Y-17006436D01*
X4165063Y-17006436D02*
X4155539Y-16987389D01*
X4155539Y-16987389D02*
X4146015Y-16949293D01*
X4146015Y-16949293D02*
X4146015Y-16901674D01*
X4146015Y-16901674D02*
X4155539Y-16863579D01*
X4155539Y-16863579D02*
X4165063Y-16844531D01*
X4165063Y-16844531D02*
X4174586Y-16835008D01*
X4174586Y-16835008D02*
X4193634Y-16825484D01*
X4346015Y-17006436D02*
X4355539Y-17015960D01*
X4355539Y-17015960D02*
X4346015Y-17025484D01*
X4346015Y-17025484D02*
X4336491Y-17015960D01*
X4336491Y-17015960D02*
X4346015Y-17006436D01*
X4346015Y-17006436D02*
X4346015Y-17025484D01*
X4479348Y-16825484D02*
X4498396Y-16825484D01*
X4498396Y-16825484D02*
X4517444Y-16835008D01*
X4517444Y-16835008D02*
X4526968Y-16844531D01*
X4526968Y-16844531D02*
X4536491Y-16863579D01*
X4536491Y-16863579D02*
X4546015Y-16901674D01*
X4546015Y-16901674D02*
X4546015Y-16949293D01*
X4546015Y-16949293D02*
X4536491Y-16987389D01*
X4536491Y-16987389D02*
X4526968Y-17006436D01*
X4526968Y-17006436D02*
X4517444Y-17015960D01*
X4517444Y-17015960D02*
X4498396Y-17025484D01*
X4498396Y-17025484D02*
X4479348Y-17025484D01*
X4479348Y-17025484D02*
X4460301Y-17015960D01*
X4460301Y-17015960D02*
X4450777Y-17006436D01*
X4450777Y-17006436D02*
X4441253Y-16987389D01*
X4441253Y-16987389D02*
X4431729Y-16949293D01*
X4431729Y-16949293D02*
X4431729Y-16901674D01*
X4431729Y-16901674D02*
X4441253Y-16863579D01*
X4441253Y-16863579D02*
X4450777Y-16844531D01*
X4450777Y-16844531D02*
X4460301Y-16835008D01*
X4460301Y-16835008D02*
X4479348Y-16825484D01*
X4726968Y-16825484D02*
X4631729Y-16825484D01*
X4631729Y-16825484D02*
X4622206Y-16920722D01*
X4622206Y-16920722D02*
X4631729Y-16911198D01*
X4631729Y-16911198D02*
X4650777Y-16901674D01*
X4650777Y-16901674D02*
X4698396Y-16901674D01*
X4698396Y-16901674D02*
X4717444Y-16911198D01*
X4717444Y-16911198D02*
X4726968Y-16920722D01*
X4726968Y-16920722D02*
X4736491Y-16939770D01*
X4736491Y-16939770D02*
X4736491Y-16987389D01*
X4736491Y-16987389D02*
X4726968Y-17006436D01*
X4726968Y-17006436D02*
X4717444Y-17015960D01*
X4717444Y-17015960D02*
X4698396Y-17025484D01*
X4698396Y-17025484D02*
X4650777Y-17025484D01*
X4650777Y-17025484D02*
X4631729Y-17015960D01*
X4631729Y-17015960D02*
X4622206Y-17006436D01*
X4926968Y-17025484D02*
X4812682Y-17025484D01*
X4869825Y-17025484D02*
X4869825Y-16825484D01*
X4869825Y-16825484D02*
X4850777Y-16854055D01*
X4850777Y-16854055D02*
X4831729Y-16873103D01*
X4831729Y-16873103D02*
X4812682Y-16882627D01*
X5003158Y-16844531D02*
X5012682Y-16835008D01*
X5012682Y-16835008D02*
X5031729Y-16825484D01*
X5031729Y-16825484D02*
X5079349Y-16825484D01*
X5079349Y-16825484D02*
X5098396Y-16835008D01*
X5098396Y-16835008D02*
X5107920Y-16844531D01*
X5107920Y-16844531D02*
X5117444Y-16863579D01*
X5117444Y-16863579D02*
X5117444Y-16882627D01*
X5117444Y-16882627D02*
X5107920Y-16911198D01*
X5107920Y-16911198D02*
X4993634Y-17025484D01*
X4993634Y-17025484D02*
X5117444Y-17025484D01*
X5193634Y-16825484D02*
X5193634Y-16863579D01*
X5269825Y-16825484D02*
X5269825Y-16863579D01*
X5565063Y-17101674D02*
X5555539Y-17092150D01*
X5555539Y-17092150D02*
X5536491Y-17063579D01*
X5536491Y-17063579D02*
X5526968Y-17044531D01*
X5526968Y-17044531D02*
X5517444Y-17015960D01*
X5517444Y-17015960D02*
X5507920Y-16968341D01*
X5507920Y-16968341D02*
X5507920Y-16930246D01*
X5507920Y-16930246D02*
X5517444Y-16882627D01*
X5517444Y-16882627D02*
X5526968Y-16854055D01*
X5526968Y-16854055D02*
X5536491Y-16835008D01*
X5536491Y-16835008D02*
X5555539Y-16806436D01*
X5555539Y-16806436D02*
X5565063Y-16796912D01*
X5726968Y-16825484D02*
X5688872Y-16825484D01*
X5688872Y-16825484D02*
X5669825Y-16835008D01*
X5669825Y-16835008D02*
X5660301Y-16844531D01*
X5660301Y-16844531D02*
X5641253Y-16873103D01*
X5641253Y-16873103D02*
X5631729Y-16911198D01*
X5631729Y-16911198D02*
X5631729Y-16987389D01*
X5631729Y-16987389D02*
X5641253Y-17006436D01*
X5641253Y-17006436D02*
X5650777Y-17015960D01*
X5650777Y-17015960D02*
X5669825Y-17025484D01*
X5669825Y-17025484D02*
X5707920Y-17025484D01*
X5707920Y-17025484D02*
X5726968Y-17015960D01*
X5726968Y-17015960D02*
X5736491Y-17006436D01*
X5736491Y-17006436D02*
X5746015Y-16987389D01*
X5746015Y-16987389D02*
X5746015Y-16939770D01*
X5746015Y-16939770D02*
X5736491Y-16920722D01*
X5736491Y-16920722D02*
X5726968Y-16911198D01*
X5726968Y-16911198D02*
X5707920Y-16901674D01*
X5707920Y-16901674D02*
X5669825Y-16901674D01*
X5669825Y-16901674D02*
X5650777Y-16911198D01*
X5650777Y-16911198D02*
X5641253Y-16920722D01*
X5641253Y-16920722D02*
X5631729Y-16939770D01*
X5984110Y-17025484D02*
X5984110Y-16825484D01*
X6069825Y-17025484D02*
X6069825Y-16920722D01*
X6069825Y-16920722D02*
X6060301Y-16901674D01*
X6060301Y-16901674D02*
X6041253Y-16892150D01*
X6041253Y-16892150D02*
X6012682Y-16892150D01*
X6012682Y-16892150D02*
X5993634Y-16901674D01*
X5993634Y-16901674D02*
X5984110Y-16911198D01*
X6193634Y-17025484D02*
X6174587Y-17015960D01*
X6174587Y-17015960D02*
X6165063Y-17006436D01*
X6165063Y-17006436D02*
X6155539Y-16987389D01*
X6155539Y-16987389D02*
X6155539Y-16930246D01*
X6155539Y-16930246D02*
X6165063Y-16911198D01*
X6165063Y-16911198D02*
X6174587Y-16901674D01*
X6174587Y-16901674D02*
X6193634Y-16892150D01*
X6193634Y-16892150D02*
X6222206Y-16892150D01*
X6222206Y-16892150D02*
X6241253Y-16901674D01*
X6241253Y-16901674D02*
X6250777Y-16911198D01*
X6250777Y-16911198D02*
X6260301Y-16930246D01*
X6260301Y-16930246D02*
X6260301Y-16987389D01*
X6260301Y-16987389D02*
X6250777Y-17006436D01*
X6250777Y-17006436D02*
X6241253Y-17015960D01*
X6241253Y-17015960D02*
X6222206Y-17025484D01*
X6222206Y-17025484D02*
X6193634Y-17025484D01*
X6374587Y-17025484D02*
X6355539Y-17015960D01*
X6355539Y-17015960D02*
X6346015Y-16996912D01*
X6346015Y-16996912D02*
X6346015Y-16825484D01*
X6526968Y-17015960D02*
X6507920Y-17025484D01*
X6507920Y-17025484D02*
X6469825Y-17025484D01*
X6469825Y-17025484D02*
X6450777Y-17015960D01*
X6450777Y-17015960D02*
X6441253Y-16996912D01*
X6441253Y-16996912D02*
X6441253Y-16920722D01*
X6441253Y-16920722D02*
X6450777Y-16901674D01*
X6450777Y-16901674D02*
X6469825Y-16892150D01*
X6469825Y-16892150D02*
X6507920Y-16892150D01*
X6507920Y-16892150D02*
X6526968Y-16901674D01*
X6526968Y-16901674D02*
X6536491Y-16920722D01*
X6536491Y-16920722D02*
X6536491Y-16939770D01*
X6536491Y-16939770D02*
X6441253Y-16958817D01*
X6612682Y-17015960D02*
X6631730Y-17025484D01*
X6631730Y-17025484D02*
X6669825Y-17025484D01*
X6669825Y-17025484D02*
X6688872Y-17015960D01*
X6688872Y-17015960D02*
X6698396Y-16996912D01*
X6698396Y-16996912D02*
X6698396Y-16987389D01*
X6698396Y-16987389D02*
X6688872Y-16968341D01*
X6688872Y-16968341D02*
X6669825Y-16958817D01*
X6669825Y-16958817D02*
X6641253Y-16958817D01*
X6641253Y-16958817D02*
X6622206Y-16949293D01*
X6622206Y-16949293D02*
X6612682Y-16930246D01*
X6612682Y-16930246D02*
X6612682Y-16920722D01*
X6612682Y-16920722D02*
X6622206Y-16901674D01*
X6622206Y-16901674D02*
X6641253Y-16892150D01*
X6641253Y-16892150D02*
X6669825Y-16892150D01*
X6669825Y-16892150D02*
X6688872Y-16901674D01*
X6765063Y-17101674D02*
X6774587Y-17092150D01*
X6774587Y-17092150D02*
X6793634Y-17063579D01*
X6793634Y-17063579D02*
X6803158Y-17044531D01*
X6803158Y-17044531D02*
X6812682Y-17015960D01*
X6812682Y-17015960D02*
X6822206Y-16968341D01*
X6822206Y-16968341D02*
X6822206Y-16930246D01*
X6822206Y-16930246D02*
X6812682Y-16882627D01*
X6812682Y-16882627D02*
X6803158Y-16854055D01*
X6803158Y-16854055D02*
X6793634Y-16835008D01*
X6793634Y-16835008D02*
X6774587Y-16806436D01*
X6774587Y-16806436D02*
X6765063Y-16796912D01*
D15*
X1837600Y-17121800D02*
X1990000Y-17274200D01*
X1990000Y-17121800D02*
X1837600Y-17274200D01*
X1967682Y-17251882D02*
X1967682Y-17144118D01*
X1859918Y-17144118D01*
X1859918Y-17251882D01*
X1967682Y-17251882D01*
D10*
X2355539Y-17289484D02*
X2241253Y-17289484D01*
X2298396Y-17289484D02*
X2298396Y-17089484D01*
X2298396Y-17089484D02*
X2279348Y-17118055D01*
X2279348Y-17118055D02*
X2260301Y-17137103D01*
X2260301Y-17137103D02*
X2241253Y-17146627D01*
X2441253Y-17270436D02*
X2450777Y-17279960D01*
X2450777Y-17279960D02*
X2441253Y-17289484D01*
X2441253Y-17289484D02*
X2431729Y-17279960D01*
X2431729Y-17279960D02*
X2441253Y-17270436D01*
X2441253Y-17270436D02*
X2441253Y-17289484D01*
X2631729Y-17089484D02*
X2536491Y-17089484D01*
X2536491Y-17089484D02*
X2526967Y-17184722D01*
X2526967Y-17184722D02*
X2536491Y-17175198D01*
X2536491Y-17175198D02*
X2555539Y-17165674D01*
X2555539Y-17165674D02*
X2603158Y-17165674D01*
X2603158Y-17165674D02*
X2622205Y-17175198D01*
X2622205Y-17175198D02*
X2631729Y-17184722D01*
X2631729Y-17184722D02*
X2641253Y-17203770D01*
X2641253Y-17203770D02*
X2641253Y-17251389D01*
X2641253Y-17251389D02*
X2631729Y-17270436D01*
X2631729Y-17270436D02*
X2622205Y-17279960D01*
X2622205Y-17279960D02*
X2603158Y-17289484D01*
X2603158Y-17289484D02*
X2555539Y-17289484D01*
X2555539Y-17289484D02*
X2536491Y-17279960D01*
X2536491Y-17279960D02*
X2526967Y-17270436D01*
X2717444Y-17108531D02*
X2726967Y-17099008D01*
X2726967Y-17099008D02*
X2746015Y-17089484D01*
X2746015Y-17089484D02*
X2793634Y-17089484D01*
X2793634Y-17089484D02*
X2812682Y-17099008D01*
X2812682Y-17099008D02*
X2822205Y-17108531D01*
X2822205Y-17108531D02*
X2831729Y-17127579D01*
X2831729Y-17127579D02*
X2831729Y-17146627D01*
X2831729Y-17146627D02*
X2822205Y-17175198D01*
X2822205Y-17175198D02*
X2707920Y-17289484D01*
X2707920Y-17289484D02*
X2831729Y-17289484D01*
X3003158Y-17156150D02*
X3003158Y-17289484D01*
X2955539Y-17079960D02*
X2907920Y-17222817D01*
X2907920Y-17222817D02*
X3031729Y-17222817D01*
X3107920Y-17289484D02*
X3107920Y-17156150D01*
X3107920Y-17175198D02*
X3117443Y-17165674D01*
X3117443Y-17165674D02*
X3136491Y-17156150D01*
X3136491Y-17156150D02*
X3165063Y-17156150D01*
X3165063Y-17156150D02*
X3184110Y-17165674D01*
X3184110Y-17165674D02*
X3193634Y-17184722D01*
X3193634Y-17184722D02*
X3193634Y-17289484D01*
X3193634Y-17184722D02*
X3203158Y-17165674D01*
X3203158Y-17165674D02*
X3222205Y-17156150D01*
X3222205Y-17156150D02*
X3250777Y-17156150D01*
X3250777Y-17156150D02*
X3269824Y-17165674D01*
X3269824Y-17165674D02*
X3279348Y-17184722D01*
X3279348Y-17184722D02*
X3279348Y-17289484D01*
X3374586Y-17289484D02*
X3374586Y-17156150D01*
X3374586Y-17175198D02*
X3384110Y-17165674D01*
X3384110Y-17165674D02*
X3403158Y-17156150D01*
X3403158Y-17156150D02*
X3431729Y-17156150D01*
X3431729Y-17156150D02*
X3450777Y-17165674D01*
X3450777Y-17165674D02*
X3460301Y-17184722D01*
X3460301Y-17184722D02*
X3460301Y-17289484D01*
X3460301Y-17184722D02*
X3469824Y-17165674D01*
X3469824Y-17165674D02*
X3488872Y-17156150D01*
X3488872Y-17156150D02*
X3517443Y-17156150D01*
X3517443Y-17156150D02*
X3536491Y-17165674D01*
X3536491Y-17165674D02*
X3546015Y-17184722D01*
X3546015Y-17184722D02*
X3546015Y-17289484D01*
X3936491Y-17079960D02*
X3765063Y-17337103D01*
X4193634Y-17089484D02*
X4212682Y-17089484D01*
X4212682Y-17089484D02*
X4231729Y-17099008D01*
X4231729Y-17099008D02*
X4241253Y-17108531D01*
X4241253Y-17108531D02*
X4250777Y-17127579D01*
X4250777Y-17127579D02*
X4260301Y-17165674D01*
X4260301Y-17165674D02*
X4260301Y-17213293D01*
X4260301Y-17213293D02*
X4250777Y-17251389D01*
X4250777Y-17251389D02*
X4241253Y-17270436D01*
X4241253Y-17270436D02*
X4231729Y-17279960D01*
X4231729Y-17279960D02*
X4212682Y-17289484D01*
X4212682Y-17289484D02*
X4193634Y-17289484D01*
X4193634Y-17289484D02*
X4174586Y-17279960D01*
X4174586Y-17279960D02*
X4165063Y-17270436D01*
X4165063Y-17270436D02*
X4155539Y-17251389D01*
X4155539Y-17251389D02*
X4146015Y-17213293D01*
X4146015Y-17213293D02*
X4146015Y-17165674D01*
X4146015Y-17165674D02*
X4155539Y-17127579D01*
X4155539Y-17127579D02*
X4165063Y-17108531D01*
X4165063Y-17108531D02*
X4174586Y-17099008D01*
X4174586Y-17099008D02*
X4193634Y-17089484D01*
X4346015Y-17270436D02*
X4355539Y-17279960D01*
X4355539Y-17279960D02*
X4346015Y-17289484D01*
X4346015Y-17289484D02*
X4336491Y-17279960D01*
X4336491Y-17279960D02*
X4346015Y-17270436D01*
X4346015Y-17270436D02*
X4346015Y-17289484D01*
X4479348Y-17089484D02*
X4498396Y-17089484D01*
X4498396Y-17089484D02*
X4517444Y-17099008D01*
X4517444Y-17099008D02*
X4526968Y-17108531D01*
X4526968Y-17108531D02*
X4536491Y-17127579D01*
X4536491Y-17127579D02*
X4546015Y-17165674D01*
X4546015Y-17165674D02*
X4546015Y-17213293D01*
X4546015Y-17213293D02*
X4536491Y-17251389D01*
X4536491Y-17251389D02*
X4526968Y-17270436D01*
X4526968Y-17270436D02*
X4517444Y-17279960D01*
X4517444Y-17279960D02*
X4498396Y-17289484D01*
X4498396Y-17289484D02*
X4479348Y-17289484D01*
X4479348Y-17289484D02*
X4460301Y-17279960D01*
X4460301Y-17279960D02*
X4450777Y-17270436D01*
X4450777Y-17270436D02*
X4441253Y-17251389D01*
X4441253Y-17251389D02*
X4431729Y-17213293D01*
X4431729Y-17213293D02*
X4431729Y-17165674D01*
X4431729Y-17165674D02*
X4441253Y-17127579D01*
X4441253Y-17127579D02*
X4450777Y-17108531D01*
X4450777Y-17108531D02*
X4460301Y-17099008D01*
X4460301Y-17099008D02*
X4479348Y-17089484D01*
X4717444Y-17089484D02*
X4679348Y-17089484D01*
X4679348Y-17089484D02*
X4660301Y-17099008D01*
X4660301Y-17099008D02*
X4650777Y-17108531D01*
X4650777Y-17108531D02*
X4631729Y-17137103D01*
X4631729Y-17137103D02*
X4622206Y-17175198D01*
X4622206Y-17175198D02*
X4622206Y-17251389D01*
X4622206Y-17251389D02*
X4631729Y-17270436D01*
X4631729Y-17270436D02*
X4641253Y-17279960D01*
X4641253Y-17279960D02*
X4660301Y-17289484D01*
X4660301Y-17289484D02*
X4698396Y-17289484D01*
X4698396Y-17289484D02*
X4717444Y-17279960D01*
X4717444Y-17279960D02*
X4726968Y-17270436D01*
X4726968Y-17270436D02*
X4736491Y-17251389D01*
X4736491Y-17251389D02*
X4736491Y-17203770D01*
X4736491Y-17203770D02*
X4726968Y-17184722D01*
X4726968Y-17184722D02*
X4717444Y-17175198D01*
X4717444Y-17175198D02*
X4698396Y-17165674D01*
X4698396Y-17165674D02*
X4660301Y-17165674D01*
X4660301Y-17165674D02*
X4641253Y-17175198D01*
X4641253Y-17175198D02*
X4631729Y-17184722D01*
X4631729Y-17184722D02*
X4622206Y-17203770D01*
X4860301Y-17089484D02*
X4879349Y-17089484D01*
X4879349Y-17089484D02*
X4898396Y-17099008D01*
X4898396Y-17099008D02*
X4907920Y-17108531D01*
X4907920Y-17108531D02*
X4917444Y-17127579D01*
X4917444Y-17127579D02*
X4926968Y-17165674D01*
X4926968Y-17165674D02*
X4926968Y-17213293D01*
X4926968Y-17213293D02*
X4917444Y-17251389D01*
X4917444Y-17251389D02*
X4907920Y-17270436D01*
X4907920Y-17270436D02*
X4898396Y-17279960D01*
X4898396Y-17279960D02*
X4879349Y-17289484D01*
X4879349Y-17289484D02*
X4860301Y-17289484D01*
X4860301Y-17289484D02*
X4841253Y-17279960D01*
X4841253Y-17279960D02*
X4831729Y-17270436D01*
X4831729Y-17270436D02*
X4822206Y-17251389D01*
X4822206Y-17251389D02*
X4812682Y-17213293D01*
X4812682Y-17213293D02*
X4812682Y-17165674D01*
X4812682Y-17165674D02*
X4822206Y-17127579D01*
X4822206Y-17127579D02*
X4831729Y-17108531D01*
X4831729Y-17108531D02*
X4841253Y-17099008D01*
X4841253Y-17099008D02*
X4860301Y-17089484D01*
X5050777Y-17089484D02*
X5069825Y-17089484D01*
X5069825Y-17089484D02*
X5088872Y-17099008D01*
X5088872Y-17099008D02*
X5098396Y-17108531D01*
X5098396Y-17108531D02*
X5107920Y-17127579D01*
X5107920Y-17127579D02*
X5117444Y-17165674D01*
X5117444Y-17165674D02*
X5117444Y-17213293D01*
X5117444Y-17213293D02*
X5107920Y-17251389D01*
X5107920Y-17251389D02*
X5098396Y-17270436D01*
X5098396Y-17270436D02*
X5088872Y-17279960D01*
X5088872Y-17279960D02*
X5069825Y-17289484D01*
X5069825Y-17289484D02*
X5050777Y-17289484D01*
X5050777Y-17289484D02*
X5031729Y-17279960D01*
X5031729Y-17279960D02*
X5022206Y-17270436D01*
X5022206Y-17270436D02*
X5012682Y-17251389D01*
X5012682Y-17251389D02*
X5003158Y-17213293D01*
X5003158Y-17213293D02*
X5003158Y-17165674D01*
X5003158Y-17165674D02*
X5012682Y-17127579D01*
X5012682Y-17127579D02*
X5022206Y-17108531D01*
X5022206Y-17108531D02*
X5031729Y-17099008D01*
X5031729Y-17099008D02*
X5050777Y-17089484D01*
X5193634Y-17089484D02*
X5193634Y-17127579D01*
X5269825Y-17089484D02*
X5269825Y-17127579D01*
X5565063Y-17365674D02*
X5555539Y-17356150D01*
X5555539Y-17356150D02*
X5536491Y-17327579D01*
X5536491Y-17327579D02*
X5526968Y-17308531D01*
X5526968Y-17308531D02*
X5517444Y-17279960D01*
X5517444Y-17279960D02*
X5507920Y-17232341D01*
X5507920Y-17232341D02*
X5507920Y-17194246D01*
X5507920Y-17194246D02*
X5517444Y-17146627D01*
X5517444Y-17146627D02*
X5526968Y-17118055D01*
X5526968Y-17118055D02*
X5536491Y-17099008D01*
X5536491Y-17099008D02*
X5555539Y-17070436D01*
X5555539Y-17070436D02*
X5565063Y-17060912D01*
X5631729Y-17108531D02*
X5641253Y-17099008D01*
X5641253Y-17099008D02*
X5660301Y-17089484D01*
X5660301Y-17089484D02*
X5707920Y-17089484D01*
X5707920Y-17089484D02*
X5726968Y-17099008D01*
X5726968Y-17099008D02*
X5736491Y-17108531D01*
X5736491Y-17108531D02*
X5746015Y-17127579D01*
X5746015Y-17127579D02*
X5746015Y-17146627D01*
X5746015Y-17146627D02*
X5736491Y-17175198D01*
X5736491Y-17175198D02*
X5622206Y-17289484D01*
X5622206Y-17289484D02*
X5746015Y-17289484D01*
X5917444Y-17156150D02*
X5917444Y-17289484D01*
X5869825Y-17079960D02*
X5822206Y-17222817D01*
X5822206Y-17222817D02*
X5946015Y-17222817D01*
X6174587Y-17289484D02*
X6174587Y-17089484D01*
X6260301Y-17289484D02*
X6260301Y-17184722D01*
X6260301Y-17184722D02*
X6250777Y-17165674D01*
X6250777Y-17165674D02*
X6231730Y-17156150D01*
X6231730Y-17156150D02*
X6203158Y-17156150D01*
X6203158Y-17156150D02*
X6184110Y-17165674D01*
X6184110Y-17165674D02*
X6174587Y-17175198D01*
X6384110Y-17289484D02*
X6365063Y-17279960D01*
X6365063Y-17279960D02*
X6355539Y-17270436D01*
X6355539Y-17270436D02*
X6346015Y-17251389D01*
X6346015Y-17251389D02*
X6346015Y-17194246D01*
X6346015Y-17194246D02*
X6355539Y-17175198D01*
X6355539Y-17175198D02*
X6365063Y-17165674D01*
X6365063Y-17165674D02*
X6384110Y-17156150D01*
X6384110Y-17156150D02*
X6412682Y-17156150D01*
X6412682Y-17156150D02*
X6431730Y-17165674D01*
X6431730Y-17165674D02*
X6441253Y-17175198D01*
X6441253Y-17175198D02*
X6450777Y-17194246D01*
X6450777Y-17194246D02*
X6450777Y-17251389D01*
X6450777Y-17251389D02*
X6441253Y-17270436D01*
X6441253Y-17270436D02*
X6431730Y-17279960D01*
X6431730Y-17279960D02*
X6412682Y-17289484D01*
X6412682Y-17289484D02*
X6384110Y-17289484D01*
X6565063Y-17289484D02*
X6546015Y-17279960D01*
X6546015Y-17279960D02*
X6536491Y-17260912D01*
X6536491Y-17260912D02*
X6536491Y-17089484D01*
X6717444Y-17279960D02*
X6698396Y-17289484D01*
X6698396Y-17289484D02*
X6660301Y-17289484D01*
X6660301Y-17289484D02*
X6641253Y-17279960D01*
X6641253Y-17279960D02*
X6631730Y-17260912D01*
X6631730Y-17260912D02*
X6631730Y-17184722D01*
X6631730Y-17184722D02*
X6641253Y-17165674D01*
X6641253Y-17165674D02*
X6660301Y-17156150D01*
X6660301Y-17156150D02*
X6698396Y-17156150D01*
X6698396Y-17156150D02*
X6717444Y-17165674D01*
X6717444Y-17165674D02*
X6726968Y-17184722D01*
X6726968Y-17184722D02*
X6726968Y-17203770D01*
X6726968Y-17203770D02*
X6631730Y-17222817D01*
X6803158Y-17279960D02*
X6822206Y-17289484D01*
X6822206Y-17289484D02*
X6860301Y-17289484D01*
X6860301Y-17289484D02*
X6879349Y-17279960D01*
X6879349Y-17279960D02*
X6888872Y-17260912D01*
X6888872Y-17260912D02*
X6888872Y-17251389D01*
X6888872Y-17251389D02*
X6879349Y-17232341D01*
X6879349Y-17232341D02*
X6860301Y-17222817D01*
X6860301Y-17222817D02*
X6831730Y-17222817D01*
X6831730Y-17222817D02*
X6812682Y-17213293D01*
X6812682Y-17213293D02*
X6803158Y-17194246D01*
X6803158Y-17194246D02*
X6803158Y-17184722D01*
X6803158Y-17184722D02*
X6812682Y-17165674D01*
X6812682Y-17165674D02*
X6831730Y-17156150D01*
X6831730Y-17156150D02*
X6860301Y-17156150D01*
X6860301Y-17156150D02*
X6879349Y-17165674D01*
X6955539Y-17365674D02*
X6965063Y-17356150D01*
X6965063Y-17356150D02*
X6984111Y-17327579D01*
X6984111Y-17327579D02*
X6993634Y-17308531D01*
X6993634Y-17308531D02*
X7003158Y-17279960D01*
X7003158Y-17279960D02*
X7012682Y-17232341D01*
X7012682Y-17232341D02*
X7012682Y-17194246D01*
X7012682Y-17194246D02*
X7003158Y-17146627D01*
X7003158Y-17146627D02*
X6993634Y-17118055D01*
X6993634Y-17118055D02*
X6984111Y-17099008D01*
X6984111Y-17099008D02*
X6965063Y-17070436D01*
X6965063Y-17070436D02*
X6955539Y-17060912D01*
D16*
X1830000Y-17390400D02*
X1990000Y-17550400D01*
X1990000Y-17390400D02*
X1830000Y-17550400D01*
X1910000Y-17550400D02*
X1990000Y-17470400D01*
X1910000Y-17390400D01*
X1830000Y-17470400D01*
X1910000Y-17550400D01*
D10*
X2355539Y-17561884D02*
X2241253Y-17561884D01*
X2298396Y-17561884D02*
X2298396Y-17361884D01*
X2298396Y-17361884D02*
X2279348Y-17390455D01*
X2279348Y-17390455D02*
X2260301Y-17409503D01*
X2260301Y-17409503D02*
X2241253Y-17419027D01*
X2441253Y-17542836D02*
X2450777Y-17552360D01*
X2450777Y-17552360D02*
X2441253Y-17561884D01*
X2441253Y-17561884D02*
X2431729Y-17552360D01*
X2431729Y-17552360D02*
X2441253Y-17542836D01*
X2441253Y-17542836D02*
X2441253Y-17561884D01*
X2622205Y-17361884D02*
X2584110Y-17361884D01*
X2584110Y-17361884D02*
X2565063Y-17371408D01*
X2565063Y-17371408D02*
X2555539Y-17380931D01*
X2555539Y-17380931D02*
X2536491Y-17409503D01*
X2536491Y-17409503D02*
X2526967Y-17447598D01*
X2526967Y-17447598D02*
X2526967Y-17523789D01*
X2526967Y-17523789D02*
X2536491Y-17542836D01*
X2536491Y-17542836D02*
X2546015Y-17552360D01*
X2546015Y-17552360D02*
X2565063Y-17561884D01*
X2565063Y-17561884D02*
X2603158Y-17561884D01*
X2603158Y-17561884D02*
X2622205Y-17552360D01*
X2622205Y-17552360D02*
X2631729Y-17542836D01*
X2631729Y-17542836D02*
X2641253Y-17523789D01*
X2641253Y-17523789D02*
X2641253Y-17476170D01*
X2641253Y-17476170D02*
X2631729Y-17457122D01*
X2631729Y-17457122D02*
X2622205Y-17447598D01*
X2622205Y-17447598D02*
X2603158Y-17438074D01*
X2603158Y-17438074D02*
X2565063Y-17438074D01*
X2565063Y-17438074D02*
X2546015Y-17447598D01*
X2546015Y-17447598D02*
X2536491Y-17457122D01*
X2536491Y-17457122D02*
X2526967Y-17476170D01*
X2765063Y-17361884D02*
X2784110Y-17361884D01*
X2784110Y-17361884D02*
X2803158Y-17371408D01*
X2803158Y-17371408D02*
X2812682Y-17380931D01*
X2812682Y-17380931D02*
X2822205Y-17399979D01*
X2822205Y-17399979D02*
X2831729Y-17438074D01*
X2831729Y-17438074D02*
X2831729Y-17485693D01*
X2831729Y-17485693D02*
X2822205Y-17523789D01*
X2822205Y-17523789D02*
X2812682Y-17542836D01*
X2812682Y-17542836D02*
X2803158Y-17552360D01*
X2803158Y-17552360D02*
X2784110Y-17561884D01*
X2784110Y-17561884D02*
X2765063Y-17561884D01*
X2765063Y-17561884D02*
X2746015Y-17552360D01*
X2746015Y-17552360D02*
X2736491Y-17542836D01*
X2736491Y-17542836D02*
X2726967Y-17523789D01*
X2726967Y-17523789D02*
X2717444Y-17485693D01*
X2717444Y-17485693D02*
X2717444Y-17438074D01*
X2717444Y-17438074D02*
X2726967Y-17399979D01*
X2726967Y-17399979D02*
X2736491Y-17380931D01*
X2736491Y-17380931D02*
X2746015Y-17371408D01*
X2746015Y-17371408D02*
X2765063Y-17361884D01*
X2955539Y-17361884D02*
X2974586Y-17361884D01*
X2974586Y-17361884D02*
X2993634Y-17371408D01*
X2993634Y-17371408D02*
X3003158Y-17380931D01*
X3003158Y-17380931D02*
X3012682Y-17399979D01*
X3012682Y-17399979D02*
X3022205Y-17438074D01*
X3022205Y-17438074D02*
X3022205Y-17485693D01*
X3022205Y-17485693D02*
X3012682Y-17523789D01*
X3012682Y-17523789D02*
X3003158Y-17542836D01*
X3003158Y-17542836D02*
X2993634Y-17552360D01*
X2993634Y-17552360D02*
X2974586Y-17561884D01*
X2974586Y-17561884D02*
X2955539Y-17561884D01*
X2955539Y-17561884D02*
X2936491Y-17552360D01*
X2936491Y-17552360D02*
X2926967Y-17542836D01*
X2926967Y-17542836D02*
X2917443Y-17523789D01*
X2917443Y-17523789D02*
X2907920Y-17485693D01*
X2907920Y-17485693D02*
X2907920Y-17438074D01*
X2907920Y-17438074D02*
X2917443Y-17399979D01*
X2917443Y-17399979D02*
X2926967Y-17380931D01*
X2926967Y-17380931D02*
X2936491Y-17371408D01*
X2936491Y-17371408D02*
X2955539Y-17361884D01*
X3107920Y-17561884D02*
X3107920Y-17428550D01*
X3107920Y-17447598D02*
X3117443Y-17438074D01*
X3117443Y-17438074D02*
X3136491Y-17428550D01*
X3136491Y-17428550D02*
X3165063Y-17428550D01*
X3165063Y-17428550D02*
X3184110Y-17438074D01*
X3184110Y-17438074D02*
X3193634Y-17457122D01*
X3193634Y-17457122D02*
X3193634Y-17561884D01*
X3193634Y-17457122D02*
X3203158Y-17438074D01*
X3203158Y-17438074D02*
X3222205Y-17428550D01*
X3222205Y-17428550D02*
X3250777Y-17428550D01*
X3250777Y-17428550D02*
X3269824Y-17438074D01*
X3269824Y-17438074D02*
X3279348Y-17457122D01*
X3279348Y-17457122D02*
X3279348Y-17561884D01*
X3374586Y-17561884D02*
X3374586Y-17428550D01*
X3374586Y-17447598D02*
X3384110Y-17438074D01*
X3384110Y-17438074D02*
X3403158Y-17428550D01*
X3403158Y-17428550D02*
X3431729Y-17428550D01*
X3431729Y-17428550D02*
X3450777Y-17438074D01*
X3450777Y-17438074D02*
X3460301Y-17457122D01*
X3460301Y-17457122D02*
X3460301Y-17561884D01*
X3460301Y-17457122D02*
X3469824Y-17438074D01*
X3469824Y-17438074D02*
X3488872Y-17428550D01*
X3488872Y-17428550D02*
X3517443Y-17428550D01*
X3517443Y-17428550D02*
X3536491Y-17438074D01*
X3536491Y-17438074D02*
X3546015Y-17457122D01*
X3546015Y-17457122D02*
X3546015Y-17561884D01*
X3936491Y-17352360D02*
X3765063Y-17609503D01*
X4193634Y-17361884D02*
X4212682Y-17361884D01*
X4212682Y-17361884D02*
X4231729Y-17371408D01*
X4231729Y-17371408D02*
X4241253Y-17380931D01*
X4241253Y-17380931D02*
X4250777Y-17399979D01*
X4250777Y-17399979D02*
X4260301Y-17438074D01*
X4260301Y-17438074D02*
X4260301Y-17485693D01*
X4260301Y-17485693D02*
X4250777Y-17523789D01*
X4250777Y-17523789D02*
X4241253Y-17542836D01*
X4241253Y-17542836D02*
X4231729Y-17552360D01*
X4231729Y-17552360D02*
X4212682Y-17561884D01*
X4212682Y-17561884D02*
X4193634Y-17561884D01*
X4193634Y-17561884D02*
X4174586Y-17552360D01*
X4174586Y-17552360D02*
X4165063Y-17542836D01*
X4165063Y-17542836D02*
X4155539Y-17523789D01*
X4155539Y-17523789D02*
X4146015Y-17485693D01*
X4146015Y-17485693D02*
X4146015Y-17438074D01*
X4146015Y-17438074D02*
X4155539Y-17399979D01*
X4155539Y-17399979D02*
X4165063Y-17380931D01*
X4165063Y-17380931D02*
X4174586Y-17371408D01*
X4174586Y-17371408D02*
X4193634Y-17361884D01*
X4346015Y-17542836D02*
X4355539Y-17552360D01*
X4355539Y-17552360D02*
X4346015Y-17561884D01*
X4346015Y-17561884D02*
X4336491Y-17552360D01*
X4336491Y-17552360D02*
X4346015Y-17542836D01*
X4346015Y-17542836D02*
X4346015Y-17561884D01*
X4479348Y-17361884D02*
X4498396Y-17361884D01*
X4498396Y-17361884D02*
X4517444Y-17371408D01*
X4517444Y-17371408D02*
X4526968Y-17380931D01*
X4526968Y-17380931D02*
X4536491Y-17399979D01*
X4536491Y-17399979D02*
X4546015Y-17438074D01*
X4546015Y-17438074D02*
X4546015Y-17485693D01*
X4546015Y-17485693D02*
X4536491Y-17523789D01*
X4536491Y-17523789D02*
X4526968Y-17542836D01*
X4526968Y-17542836D02*
X4517444Y-17552360D01*
X4517444Y-17552360D02*
X4498396Y-17561884D01*
X4498396Y-17561884D02*
X4479348Y-17561884D01*
X4479348Y-17561884D02*
X4460301Y-17552360D01*
X4460301Y-17552360D02*
X4450777Y-17542836D01*
X4450777Y-17542836D02*
X4441253Y-17523789D01*
X4441253Y-17523789D02*
X4431729Y-17485693D01*
X4431729Y-17485693D02*
X4431729Y-17438074D01*
X4431729Y-17438074D02*
X4441253Y-17399979D01*
X4441253Y-17399979D02*
X4450777Y-17380931D01*
X4450777Y-17380931D02*
X4460301Y-17371408D01*
X4460301Y-17371408D02*
X4479348Y-17361884D01*
X4717444Y-17361884D02*
X4679348Y-17361884D01*
X4679348Y-17361884D02*
X4660301Y-17371408D01*
X4660301Y-17371408D02*
X4650777Y-17380931D01*
X4650777Y-17380931D02*
X4631729Y-17409503D01*
X4631729Y-17409503D02*
X4622206Y-17447598D01*
X4622206Y-17447598D02*
X4622206Y-17523789D01*
X4622206Y-17523789D02*
X4631729Y-17542836D01*
X4631729Y-17542836D02*
X4641253Y-17552360D01*
X4641253Y-17552360D02*
X4660301Y-17561884D01*
X4660301Y-17561884D02*
X4698396Y-17561884D01*
X4698396Y-17561884D02*
X4717444Y-17552360D01*
X4717444Y-17552360D02*
X4726968Y-17542836D01*
X4726968Y-17542836D02*
X4736491Y-17523789D01*
X4736491Y-17523789D02*
X4736491Y-17476170D01*
X4736491Y-17476170D02*
X4726968Y-17457122D01*
X4726968Y-17457122D02*
X4717444Y-17447598D01*
X4717444Y-17447598D02*
X4698396Y-17438074D01*
X4698396Y-17438074D02*
X4660301Y-17438074D01*
X4660301Y-17438074D02*
X4641253Y-17447598D01*
X4641253Y-17447598D02*
X4631729Y-17457122D01*
X4631729Y-17457122D02*
X4622206Y-17476170D01*
X4803158Y-17361884D02*
X4926968Y-17361884D01*
X4926968Y-17361884D02*
X4860301Y-17438074D01*
X4860301Y-17438074D02*
X4888872Y-17438074D01*
X4888872Y-17438074D02*
X4907920Y-17447598D01*
X4907920Y-17447598D02*
X4917444Y-17457122D01*
X4917444Y-17457122D02*
X4926968Y-17476170D01*
X4926968Y-17476170D02*
X4926968Y-17523789D01*
X4926968Y-17523789D02*
X4917444Y-17542836D01*
X4917444Y-17542836D02*
X4907920Y-17552360D01*
X4907920Y-17552360D02*
X4888872Y-17561884D01*
X4888872Y-17561884D02*
X4831729Y-17561884D01*
X4831729Y-17561884D02*
X4812682Y-17552360D01*
X4812682Y-17552360D02*
X4803158Y-17542836D01*
X5050777Y-17361884D02*
X5069825Y-17361884D01*
X5069825Y-17361884D02*
X5088872Y-17371408D01*
X5088872Y-17371408D02*
X5098396Y-17380931D01*
X5098396Y-17380931D02*
X5107920Y-17399979D01*
X5107920Y-17399979D02*
X5117444Y-17438074D01*
X5117444Y-17438074D02*
X5117444Y-17485693D01*
X5117444Y-17485693D02*
X5107920Y-17523789D01*
X5107920Y-17523789D02*
X5098396Y-17542836D01*
X5098396Y-17542836D02*
X5088872Y-17552360D01*
X5088872Y-17552360D02*
X5069825Y-17561884D01*
X5069825Y-17561884D02*
X5050777Y-17561884D01*
X5050777Y-17561884D02*
X5031729Y-17552360D01*
X5031729Y-17552360D02*
X5022206Y-17542836D01*
X5022206Y-17542836D02*
X5012682Y-17523789D01*
X5012682Y-17523789D02*
X5003158Y-17485693D01*
X5003158Y-17485693D02*
X5003158Y-17438074D01*
X5003158Y-17438074D02*
X5012682Y-17399979D01*
X5012682Y-17399979D02*
X5022206Y-17380931D01*
X5022206Y-17380931D02*
X5031729Y-17371408D01*
X5031729Y-17371408D02*
X5050777Y-17361884D01*
X5193634Y-17361884D02*
X5193634Y-17399979D01*
X5269825Y-17361884D02*
X5269825Y-17399979D01*
X5565063Y-17638074D02*
X5555539Y-17628550D01*
X5555539Y-17628550D02*
X5536491Y-17599979D01*
X5536491Y-17599979D02*
X5526968Y-17580931D01*
X5526968Y-17580931D02*
X5517444Y-17552360D01*
X5517444Y-17552360D02*
X5507920Y-17504741D01*
X5507920Y-17504741D02*
X5507920Y-17466646D01*
X5507920Y-17466646D02*
X5517444Y-17419027D01*
X5517444Y-17419027D02*
X5526968Y-17390455D01*
X5526968Y-17390455D02*
X5536491Y-17371408D01*
X5536491Y-17371408D02*
X5555539Y-17342836D01*
X5555539Y-17342836D02*
X5565063Y-17333312D01*
X5726968Y-17428550D02*
X5726968Y-17561884D01*
X5679348Y-17352360D02*
X5631729Y-17495217D01*
X5631729Y-17495217D02*
X5755539Y-17495217D01*
X5984110Y-17561884D02*
X5984110Y-17361884D01*
X6069825Y-17561884D02*
X6069825Y-17457122D01*
X6069825Y-17457122D02*
X6060301Y-17438074D01*
X6060301Y-17438074D02*
X6041253Y-17428550D01*
X6041253Y-17428550D02*
X6012682Y-17428550D01*
X6012682Y-17428550D02*
X5993634Y-17438074D01*
X5993634Y-17438074D02*
X5984110Y-17447598D01*
X6193634Y-17561884D02*
X6174587Y-17552360D01*
X6174587Y-17552360D02*
X6165063Y-17542836D01*
X6165063Y-17542836D02*
X6155539Y-17523789D01*
X6155539Y-17523789D02*
X6155539Y-17466646D01*
X6155539Y-17466646D02*
X6165063Y-17447598D01*
X6165063Y-17447598D02*
X6174587Y-17438074D01*
X6174587Y-17438074D02*
X6193634Y-17428550D01*
X6193634Y-17428550D02*
X6222206Y-17428550D01*
X6222206Y-17428550D02*
X6241253Y-17438074D01*
X6241253Y-17438074D02*
X6250777Y-17447598D01*
X6250777Y-17447598D02*
X6260301Y-17466646D01*
X6260301Y-17466646D02*
X6260301Y-17523789D01*
X6260301Y-17523789D02*
X6250777Y-17542836D01*
X6250777Y-17542836D02*
X6241253Y-17552360D01*
X6241253Y-17552360D02*
X6222206Y-17561884D01*
X6222206Y-17561884D02*
X6193634Y-17561884D01*
X6374587Y-17561884D02*
X6355539Y-17552360D01*
X6355539Y-17552360D02*
X6346015Y-17533312D01*
X6346015Y-17533312D02*
X6346015Y-17361884D01*
X6526968Y-17552360D02*
X6507920Y-17561884D01*
X6507920Y-17561884D02*
X6469825Y-17561884D01*
X6469825Y-17561884D02*
X6450777Y-17552360D01*
X6450777Y-17552360D02*
X6441253Y-17533312D01*
X6441253Y-17533312D02*
X6441253Y-17457122D01*
X6441253Y-17457122D02*
X6450777Y-17438074D01*
X6450777Y-17438074D02*
X6469825Y-17428550D01*
X6469825Y-17428550D02*
X6507920Y-17428550D01*
X6507920Y-17428550D02*
X6526968Y-17438074D01*
X6526968Y-17438074D02*
X6536491Y-17457122D01*
X6536491Y-17457122D02*
X6536491Y-17476170D01*
X6536491Y-17476170D02*
X6441253Y-17495217D01*
X6612682Y-17552360D02*
X6631730Y-17561884D01*
X6631730Y-17561884D02*
X6669825Y-17561884D01*
X6669825Y-17561884D02*
X6688872Y-17552360D01*
X6688872Y-17552360D02*
X6698396Y-17533312D01*
X6698396Y-17533312D02*
X6698396Y-17523789D01*
X6698396Y-17523789D02*
X6688872Y-17504741D01*
X6688872Y-17504741D02*
X6669825Y-17495217D01*
X6669825Y-17495217D02*
X6641253Y-17495217D01*
X6641253Y-17495217D02*
X6622206Y-17485693D01*
X6622206Y-17485693D02*
X6612682Y-17466646D01*
X6612682Y-17466646D02*
X6612682Y-17457122D01*
X6612682Y-17457122D02*
X6622206Y-17438074D01*
X6622206Y-17438074D02*
X6641253Y-17428550D01*
X6641253Y-17428550D02*
X6669825Y-17428550D01*
X6669825Y-17428550D02*
X6688872Y-17438074D01*
X6765063Y-17638074D02*
X6774587Y-17628550D01*
X6774587Y-17628550D02*
X6793634Y-17599979D01*
X6793634Y-17599979D02*
X6803158Y-17580931D01*
X6803158Y-17580931D02*
X6812682Y-17552360D01*
X6812682Y-17552360D02*
X6822206Y-17504741D01*
X6822206Y-17504741D02*
X6822206Y-17466646D01*
X6822206Y-17466646D02*
X6812682Y-17419027D01*
X6812682Y-17419027D02*
X6803158Y-17390455D01*
X6803158Y-17390455D02*
X6793634Y-17371408D01*
X6793634Y-17371408D02*
X6774587Y-17342836D01*
X6774587Y-17342836D02*
X6765063Y-17333312D01*
X1890000Y-17650400D02*
X1890000Y-17850400D01*
X1790000Y-17750400D02*
X1990000Y-17750400D01*
X1990000Y-17750400D02*
G75*
G03*
X1990000Y-17750400I-100000J0D01*
G01*
X2231729Y-17641884D02*
X2355539Y-17641884D01*
X2355539Y-17641884D02*
X2288872Y-17718074D01*
X2288872Y-17718074D02*
X2317444Y-17718074D01*
X2317444Y-17718074D02*
X2336491Y-17727598D01*
X2336491Y-17727598D02*
X2346015Y-17737122D01*
X2346015Y-17737122D02*
X2355539Y-17756170D01*
X2355539Y-17756170D02*
X2355539Y-17803789D01*
X2355539Y-17803789D02*
X2346015Y-17822836D01*
X2346015Y-17822836D02*
X2336491Y-17832360D01*
X2336491Y-17832360D02*
X2317444Y-17841884D01*
X2317444Y-17841884D02*
X2260301Y-17841884D01*
X2260301Y-17841884D02*
X2241253Y-17832360D01*
X2241253Y-17832360D02*
X2231729Y-17822836D01*
X2441253Y-17822836D02*
X2450777Y-17832360D01*
X2450777Y-17832360D02*
X2441253Y-17841884D01*
X2441253Y-17841884D02*
X2431729Y-17832360D01*
X2431729Y-17832360D02*
X2441253Y-17822836D01*
X2441253Y-17822836D02*
X2441253Y-17841884D01*
X2631729Y-17641884D02*
X2536491Y-17641884D01*
X2536491Y-17641884D02*
X2526967Y-17737122D01*
X2526967Y-17737122D02*
X2536491Y-17727598D01*
X2536491Y-17727598D02*
X2555539Y-17718074D01*
X2555539Y-17718074D02*
X2603158Y-17718074D01*
X2603158Y-17718074D02*
X2622205Y-17727598D01*
X2622205Y-17727598D02*
X2631729Y-17737122D01*
X2631729Y-17737122D02*
X2641253Y-17756170D01*
X2641253Y-17756170D02*
X2641253Y-17803789D01*
X2641253Y-17803789D02*
X2631729Y-17822836D01*
X2631729Y-17822836D02*
X2622205Y-17832360D01*
X2622205Y-17832360D02*
X2603158Y-17841884D01*
X2603158Y-17841884D02*
X2555539Y-17841884D01*
X2555539Y-17841884D02*
X2536491Y-17832360D01*
X2536491Y-17832360D02*
X2526967Y-17822836D01*
X2765063Y-17641884D02*
X2784110Y-17641884D01*
X2784110Y-17641884D02*
X2803158Y-17651408D01*
X2803158Y-17651408D02*
X2812682Y-17660931D01*
X2812682Y-17660931D02*
X2822205Y-17679979D01*
X2822205Y-17679979D02*
X2831729Y-17718074D01*
X2831729Y-17718074D02*
X2831729Y-17765693D01*
X2831729Y-17765693D02*
X2822205Y-17803789D01*
X2822205Y-17803789D02*
X2812682Y-17822836D01*
X2812682Y-17822836D02*
X2803158Y-17832360D01*
X2803158Y-17832360D02*
X2784110Y-17841884D01*
X2784110Y-17841884D02*
X2765063Y-17841884D01*
X2765063Y-17841884D02*
X2746015Y-17832360D01*
X2746015Y-17832360D02*
X2736491Y-17822836D01*
X2736491Y-17822836D02*
X2726967Y-17803789D01*
X2726967Y-17803789D02*
X2717444Y-17765693D01*
X2717444Y-17765693D02*
X2717444Y-17718074D01*
X2717444Y-17718074D02*
X2726967Y-17679979D01*
X2726967Y-17679979D02*
X2736491Y-17660931D01*
X2736491Y-17660931D02*
X2746015Y-17651408D01*
X2746015Y-17651408D02*
X2765063Y-17641884D01*
X2955539Y-17641884D02*
X2974586Y-17641884D01*
X2974586Y-17641884D02*
X2993634Y-17651408D01*
X2993634Y-17651408D02*
X3003158Y-17660931D01*
X3003158Y-17660931D02*
X3012682Y-17679979D01*
X3012682Y-17679979D02*
X3022205Y-17718074D01*
X3022205Y-17718074D02*
X3022205Y-17765693D01*
X3022205Y-17765693D02*
X3012682Y-17803789D01*
X3012682Y-17803789D02*
X3003158Y-17822836D01*
X3003158Y-17822836D02*
X2993634Y-17832360D01*
X2993634Y-17832360D02*
X2974586Y-17841884D01*
X2974586Y-17841884D02*
X2955539Y-17841884D01*
X2955539Y-17841884D02*
X2936491Y-17832360D01*
X2936491Y-17832360D02*
X2926967Y-17822836D01*
X2926967Y-17822836D02*
X2917443Y-17803789D01*
X2917443Y-17803789D02*
X2907920Y-17765693D01*
X2907920Y-17765693D02*
X2907920Y-17718074D01*
X2907920Y-17718074D02*
X2917443Y-17679979D01*
X2917443Y-17679979D02*
X2926967Y-17660931D01*
X2926967Y-17660931D02*
X2936491Y-17651408D01*
X2936491Y-17651408D02*
X2955539Y-17641884D01*
X3107920Y-17841884D02*
X3107920Y-17708550D01*
X3107920Y-17727598D02*
X3117443Y-17718074D01*
X3117443Y-17718074D02*
X3136491Y-17708550D01*
X3136491Y-17708550D02*
X3165063Y-17708550D01*
X3165063Y-17708550D02*
X3184110Y-17718074D01*
X3184110Y-17718074D02*
X3193634Y-17737122D01*
X3193634Y-17737122D02*
X3193634Y-17841884D01*
X3193634Y-17737122D02*
X3203158Y-17718074D01*
X3203158Y-17718074D02*
X3222205Y-17708550D01*
X3222205Y-17708550D02*
X3250777Y-17708550D01*
X3250777Y-17708550D02*
X3269824Y-17718074D01*
X3269824Y-17718074D02*
X3279348Y-17737122D01*
X3279348Y-17737122D02*
X3279348Y-17841884D01*
X3374586Y-17841884D02*
X3374586Y-17708550D01*
X3374586Y-17727598D02*
X3384110Y-17718074D01*
X3384110Y-17718074D02*
X3403158Y-17708550D01*
X3403158Y-17708550D02*
X3431729Y-17708550D01*
X3431729Y-17708550D02*
X3450777Y-17718074D01*
X3450777Y-17718074D02*
X3460301Y-17737122D01*
X3460301Y-17737122D02*
X3460301Y-17841884D01*
X3460301Y-17737122D02*
X3469824Y-17718074D01*
X3469824Y-17718074D02*
X3488872Y-17708550D01*
X3488872Y-17708550D02*
X3517443Y-17708550D01*
X3517443Y-17708550D02*
X3536491Y-17718074D01*
X3536491Y-17718074D02*
X3546015Y-17737122D01*
X3546015Y-17737122D02*
X3546015Y-17841884D01*
X3936491Y-17632360D02*
X3765063Y-17889503D01*
X4193634Y-17641884D02*
X4212682Y-17641884D01*
X4212682Y-17641884D02*
X4231729Y-17651408D01*
X4231729Y-17651408D02*
X4241253Y-17660931D01*
X4241253Y-17660931D02*
X4250777Y-17679979D01*
X4250777Y-17679979D02*
X4260301Y-17718074D01*
X4260301Y-17718074D02*
X4260301Y-17765693D01*
X4260301Y-17765693D02*
X4250777Y-17803789D01*
X4250777Y-17803789D02*
X4241253Y-17822836D01*
X4241253Y-17822836D02*
X4231729Y-17832360D01*
X4231729Y-17832360D02*
X4212682Y-17841884D01*
X4212682Y-17841884D02*
X4193634Y-17841884D01*
X4193634Y-17841884D02*
X4174586Y-17832360D01*
X4174586Y-17832360D02*
X4165063Y-17822836D01*
X4165063Y-17822836D02*
X4155539Y-17803789D01*
X4155539Y-17803789D02*
X4146015Y-17765693D01*
X4146015Y-17765693D02*
X4146015Y-17718074D01*
X4146015Y-17718074D02*
X4155539Y-17679979D01*
X4155539Y-17679979D02*
X4165063Y-17660931D01*
X4165063Y-17660931D02*
X4174586Y-17651408D01*
X4174586Y-17651408D02*
X4193634Y-17641884D01*
X4346015Y-17822836D02*
X4355539Y-17832360D01*
X4355539Y-17832360D02*
X4346015Y-17841884D01*
X4346015Y-17841884D02*
X4336491Y-17832360D01*
X4336491Y-17832360D02*
X4346015Y-17822836D01*
X4346015Y-17822836D02*
X4346015Y-17841884D01*
X4546015Y-17841884D02*
X4431729Y-17841884D01*
X4488872Y-17841884D02*
X4488872Y-17641884D01*
X4488872Y-17641884D02*
X4469825Y-17670455D01*
X4469825Y-17670455D02*
X4450777Y-17689503D01*
X4450777Y-17689503D02*
X4431729Y-17699027D01*
X4612682Y-17641884D02*
X4736491Y-17641884D01*
X4736491Y-17641884D02*
X4669825Y-17718074D01*
X4669825Y-17718074D02*
X4698396Y-17718074D01*
X4698396Y-17718074D02*
X4717444Y-17727598D01*
X4717444Y-17727598D02*
X4726968Y-17737122D01*
X4726968Y-17737122D02*
X4736491Y-17756170D01*
X4736491Y-17756170D02*
X4736491Y-17803789D01*
X4736491Y-17803789D02*
X4726968Y-17822836D01*
X4726968Y-17822836D02*
X4717444Y-17832360D01*
X4717444Y-17832360D02*
X4698396Y-17841884D01*
X4698396Y-17841884D02*
X4641253Y-17841884D01*
X4641253Y-17841884D02*
X4622206Y-17832360D01*
X4622206Y-17832360D02*
X4612682Y-17822836D01*
X4803158Y-17641884D02*
X4936491Y-17641884D01*
X4936491Y-17641884D02*
X4850777Y-17841884D01*
X5041253Y-17727598D02*
X5022206Y-17718074D01*
X5022206Y-17718074D02*
X5012682Y-17708550D01*
X5012682Y-17708550D02*
X5003158Y-17689503D01*
X5003158Y-17689503D02*
X5003158Y-17679979D01*
X5003158Y-17679979D02*
X5012682Y-17660931D01*
X5012682Y-17660931D02*
X5022206Y-17651408D01*
X5022206Y-17651408D02*
X5041253Y-17641884D01*
X5041253Y-17641884D02*
X5079349Y-17641884D01*
X5079349Y-17641884D02*
X5098396Y-17651408D01*
X5098396Y-17651408D02*
X5107920Y-17660931D01*
X5107920Y-17660931D02*
X5117444Y-17679979D01*
X5117444Y-17679979D02*
X5117444Y-17689503D01*
X5117444Y-17689503D02*
X5107920Y-17708550D01*
X5107920Y-17708550D02*
X5098396Y-17718074D01*
X5098396Y-17718074D02*
X5079349Y-17727598D01*
X5079349Y-17727598D02*
X5041253Y-17727598D01*
X5041253Y-17727598D02*
X5022206Y-17737122D01*
X5022206Y-17737122D02*
X5012682Y-17746646D01*
X5012682Y-17746646D02*
X5003158Y-17765693D01*
X5003158Y-17765693D02*
X5003158Y-17803789D01*
X5003158Y-17803789D02*
X5012682Y-17822836D01*
X5012682Y-17822836D02*
X5022206Y-17832360D01*
X5022206Y-17832360D02*
X5041253Y-17841884D01*
X5041253Y-17841884D02*
X5079349Y-17841884D01*
X5079349Y-17841884D02*
X5098396Y-17832360D01*
X5098396Y-17832360D02*
X5107920Y-17822836D01*
X5107920Y-17822836D02*
X5117444Y-17803789D01*
X5117444Y-17803789D02*
X5117444Y-17765693D01*
X5117444Y-17765693D02*
X5107920Y-17746646D01*
X5107920Y-17746646D02*
X5098396Y-17737122D01*
X5098396Y-17737122D02*
X5079349Y-17727598D01*
X5193634Y-17641884D02*
X5193634Y-17679979D01*
X5269825Y-17641884D02*
X5269825Y-17679979D01*
X5565063Y-17918074D02*
X5555539Y-17908550D01*
X5555539Y-17908550D02*
X5536491Y-17879979D01*
X5536491Y-17879979D02*
X5526968Y-17860931D01*
X5526968Y-17860931D02*
X5517444Y-17832360D01*
X5517444Y-17832360D02*
X5507920Y-17784741D01*
X5507920Y-17784741D02*
X5507920Y-17746646D01*
X5507920Y-17746646D02*
X5517444Y-17699027D01*
X5517444Y-17699027D02*
X5526968Y-17670455D01*
X5526968Y-17670455D02*
X5536491Y-17651408D01*
X5536491Y-17651408D02*
X5555539Y-17622836D01*
X5555539Y-17622836D02*
X5565063Y-17613312D01*
X5726968Y-17708550D02*
X5726968Y-17841884D01*
X5679348Y-17632360D02*
X5631729Y-17775217D01*
X5631729Y-17775217D02*
X5755539Y-17775217D01*
X5984110Y-17841884D02*
X5984110Y-17641884D01*
X6069825Y-17841884D02*
X6069825Y-17737122D01*
X6069825Y-17737122D02*
X6060301Y-17718074D01*
X6060301Y-17718074D02*
X6041253Y-17708550D01*
X6041253Y-17708550D02*
X6012682Y-17708550D01*
X6012682Y-17708550D02*
X5993634Y-17718074D01*
X5993634Y-17718074D02*
X5984110Y-17727598D01*
X6193634Y-17841884D02*
X6174587Y-17832360D01*
X6174587Y-17832360D02*
X6165063Y-17822836D01*
X6165063Y-17822836D02*
X6155539Y-17803789D01*
X6155539Y-17803789D02*
X6155539Y-17746646D01*
X6155539Y-17746646D02*
X6165063Y-17727598D01*
X6165063Y-17727598D02*
X6174587Y-17718074D01*
X6174587Y-17718074D02*
X6193634Y-17708550D01*
X6193634Y-17708550D02*
X6222206Y-17708550D01*
X6222206Y-17708550D02*
X6241253Y-17718074D01*
X6241253Y-17718074D02*
X6250777Y-17727598D01*
X6250777Y-17727598D02*
X6260301Y-17746646D01*
X6260301Y-17746646D02*
X6260301Y-17803789D01*
X6260301Y-17803789D02*
X6250777Y-17822836D01*
X6250777Y-17822836D02*
X6241253Y-17832360D01*
X6241253Y-17832360D02*
X6222206Y-17841884D01*
X6222206Y-17841884D02*
X6193634Y-17841884D01*
X6374587Y-17841884D02*
X6355539Y-17832360D01*
X6355539Y-17832360D02*
X6346015Y-17813312D01*
X6346015Y-17813312D02*
X6346015Y-17641884D01*
X6526968Y-17832360D02*
X6507920Y-17841884D01*
X6507920Y-17841884D02*
X6469825Y-17841884D01*
X6469825Y-17841884D02*
X6450777Y-17832360D01*
X6450777Y-17832360D02*
X6441253Y-17813312D01*
X6441253Y-17813312D02*
X6441253Y-17737122D01*
X6441253Y-17737122D02*
X6450777Y-17718074D01*
X6450777Y-17718074D02*
X6469825Y-17708550D01*
X6469825Y-17708550D02*
X6507920Y-17708550D01*
X6507920Y-17708550D02*
X6526968Y-17718074D01*
X6526968Y-17718074D02*
X6536491Y-17737122D01*
X6536491Y-17737122D02*
X6536491Y-17756170D01*
X6536491Y-17756170D02*
X6441253Y-17775217D01*
X6612682Y-17832360D02*
X6631730Y-17841884D01*
X6631730Y-17841884D02*
X6669825Y-17841884D01*
X6669825Y-17841884D02*
X6688872Y-17832360D01*
X6688872Y-17832360D02*
X6698396Y-17813312D01*
X6698396Y-17813312D02*
X6698396Y-17803789D01*
X6698396Y-17803789D02*
X6688872Y-17784741D01*
X6688872Y-17784741D02*
X6669825Y-17775217D01*
X6669825Y-17775217D02*
X6641253Y-17775217D01*
X6641253Y-17775217D02*
X6622206Y-17765693D01*
X6622206Y-17765693D02*
X6612682Y-17746646D01*
X6612682Y-17746646D02*
X6612682Y-17737122D01*
X6612682Y-17737122D02*
X6622206Y-17718074D01*
X6622206Y-17718074D02*
X6641253Y-17708550D01*
X6641253Y-17708550D02*
X6669825Y-17708550D01*
X6669825Y-17708550D02*
X6688872Y-17718074D01*
X6765063Y-17918074D02*
X6774587Y-17908550D01*
X6774587Y-17908550D02*
X6793634Y-17879979D01*
X6793634Y-17879979D02*
X6803158Y-17860931D01*
X6803158Y-17860931D02*
X6812682Y-17832360D01*
X6812682Y-17832360D02*
X6822206Y-17784741D01*
X6822206Y-17784741D02*
X6822206Y-17746646D01*
X6822206Y-17746646D02*
X6812682Y-17699027D01*
X6812682Y-17699027D02*
X6803158Y-17670455D01*
X6803158Y-17670455D02*
X6793634Y-17651408D01*
X6793634Y-17651408D02*
X6774587Y-17622836D01*
X6774587Y-17622836D02*
X6765063Y-17613312D01*
M02*
