G04 #@! TF.GenerationSoftware,KiCad,Pcbnew,7.0.9*
G04 #@! TF.CreationDate,2023-12-29T07:42:44-06:00*
G04 #@! TF.ProjectId,Power Distribution Board Ver.2,506f7765-7220-4446-9973-747269627574,rev?*
G04 #@! TF.SameCoordinates,Original*
G04 #@! TF.FileFunction,Soldermask,Top*
G04 #@! TF.FilePolarity,Negative*
%FSLAX46Y46*%
G04 Gerber Fmt 4.6, Leading zero omitted, Abs format (unit mm)*
G04 Created by KiCad (PCBNEW 7.0.9) date 2023-12-29 07:42:44*
%MOMM*%
%LPD*%
G01*
G04 APERTURE LIST*
G04 Aperture macros list*
%AMRoundRect*
0 Rectangle with rounded corners*
0 $1 Rounding radius*
0 $2 $3 $4 $5 $6 $7 $8 $9 X,Y pos of 4 corners*
0 Add a 4 corners polygon primitive as box body*
4,1,4,$2,$3,$4,$5,$6,$7,$8,$9,$2,$3,0*
0 Add four circle primitives for the rounded corners*
1,1,$1+$1,$2,$3*
1,1,$1+$1,$4,$5*
1,1,$1+$1,$6,$7*
1,1,$1+$1,$8,$9*
0 Add four rect primitives between the rounded corners*
20,1,$1+$1,$2,$3,$4,$5,0*
20,1,$1+$1,$4,$5,$6,$7,0*
20,1,$1+$1,$6,$7,$8,$9,0*
20,1,$1+$1,$8,$9,$2,$3,0*%
%AMHorizOval*
0 Thick line with rounded ends*
0 $1 width*
0 $2 $3 position (X,Y) of the first rounded end (center of the circle)*
0 $4 $5 position (X,Y) of the second rounded end (center of the circle)*
0 Add line between two ends*
20,1,$1,$2,$3,$4,$5,0*
0 Add two circle primitives to create the rounded ends*
1,1,$1,$2,$3*
1,1,$1,$4,$5*%
G04 Aperture macros list end*
%ADD10C,0.800000*%
%ADD11C,7.000000*%
%ADD12RoundRect,0.250000X-0.250000X-0.475000X0.250000X-0.475000X0.250000X0.475000X-0.250000X0.475000X0*%
%ADD13R,3.300000X3.175000*%
%ADD14RoundRect,0.250000X-2.050000X-0.300000X2.050000X-0.300000X2.050000X0.300000X-2.050000X0.300000X0*%
%ADD15RoundRect,0.250002X-4.449998X-5.149998X4.449998X-5.149998X4.449998X5.149998X-4.449998X5.149998X0*%
%ADD16C,1.950000*%
%ADD17C,1.350000*%
%ADD18R,0.300000X0.550000*%
%ADD19R,0.450000X0.300000*%
%ADD20R,0.280000X2.350000*%
%ADD21R,0.730000X0.300000*%
%ADD22R,0.300000X0.725000*%
%ADD23R,0.725000X0.300000*%
%ADD24R,1.050000X1.575000*%
%ADD25R,1.050000X1.150000*%
%ADD26R,1.200000X2.175000*%
%ADD27R,0.455000X0.650000*%
%ADD28R,0.380000X0.580000*%
%ADD29RoundRect,0.250000X-0.450000X0.262500X-0.450000X-0.262500X0.450000X-0.262500X0.450000X0.262500X0*%
%ADD30RoundRect,0.250000X-0.475000X0.250000X-0.475000X-0.250000X0.475000X-0.250000X0.475000X0.250000X0*%
%ADD31HorizOval,2.100000X1.039230X-0.600000X-1.039230X0.600000X0*%
%ADD32HorizOval,2.100000X1.039230X0.600000X-1.039230X-0.600000X0*%
%ADD33RoundRect,0.250000X-0.262500X-0.450000X0.262500X-0.450000X0.262500X0.450000X-0.262500X0.450000X0*%
%ADD34RoundRect,0.250000X0.450000X-0.262500X0.450000X0.262500X-0.450000X0.262500X-0.450000X-0.262500X0*%
%ADD35RoundRect,0.250000X-0.300000X2.050000X-0.300000X-2.050000X0.300000X-2.050000X0.300000X2.050000X0*%
%ADD36RoundRect,0.250002X-5.149998X4.449998X-5.149998X-4.449998X5.149998X-4.449998X5.149998X4.449998X0*%
%ADD37RoundRect,0.250000X0.475000X-0.250000X0.475000X0.250000X-0.475000X0.250000X-0.475000X-0.250000X0*%
%ADD38R,2.400000X2.400000*%
%ADD39C,2.400000*%
%ADD40R,2.124000X2.124000*%
%ADD41C,2.124000*%
%ADD42R,1.950000X1.950000*%
%ADD43C,2.300000*%
G04 APERTURE END LIST*
D10*
X137375000Y-27000000D03*
X138143845Y-25143845D03*
X138143845Y-28856155D03*
X140000000Y-24375000D03*
D11*
X140000000Y-27000000D03*
D10*
X140000000Y-29625000D03*
X141856155Y-25143845D03*
X141856155Y-28856155D03*
X142625000Y-27000000D03*
D12*
X48958845Y-89215000D03*
X50858845Y-89215000D03*
D13*
X47120000Y-95565000D03*
X47120000Y-106995000D03*
D14*
X107563845Y-56130000D03*
D15*
X116713845Y-58670000D03*
D14*
X107563845Y-61210000D03*
D16*
X94863845Y-98500000D03*
D17*
X91113845Y-99350000D03*
X84763845Y-106850000D03*
D16*
X91763845Y-106350000D03*
D12*
X55513845Y-105716920D03*
X57413845Y-105716920D03*
D18*
X45013845Y-76395000D03*
X44563845Y-76395000D03*
X43663845Y-76395000D03*
X43213845Y-76395000D03*
D19*
X42113845Y-76945000D03*
X42113845Y-77395000D03*
X42113845Y-77845000D03*
X42113845Y-78545000D03*
X42113845Y-78995000D03*
D20*
X42478845Y-77970000D03*
D21*
X42253845Y-79445000D03*
D22*
X42763845Y-80357500D03*
X43213845Y-80357500D03*
X43663845Y-80357500D03*
X44113845Y-80357500D03*
X44563845Y-80357500D03*
X45013845Y-80357500D03*
X45463845Y-80357500D03*
D23*
X46126345Y-79895000D03*
X46126345Y-79445000D03*
X46126345Y-78995000D03*
X46126345Y-78545000D03*
X46126345Y-77845000D03*
X46126345Y-77395000D03*
X46126345Y-76945000D03*
D24*
X44938845Y-78907500D03*
D25*
X44938845Y-77245000D03*
D26*
X43513845Y-77757500D03*
D27*
X43886345Y-79170000D03*
D28*
X43198845Y-79405000D03*
D29*
X49773845Y-78377500D03*
X49773845Y-80202500D03*
D30*
X74800845Y-78105000D03*
X74800845Y-80005000D03*
D29*
X32033845Y-82597500D03*
X32033845Y-84422500D03*
D12*
X75833845Y-105716920D03*
X77733845Y-105716920D03*
D31*
X58350000Y-38123000D03*
D32*
X63850000Y-38123000D03*
D33*
X25601345Y-87790000D03*
X27426345Y-87790000D03*
D34*
X48003845Y-76232500D03*
X48003845Y-74407500D03*
D13*
X28703845Y-95565000D03*
X28703845Y-106995000D03*
D12*
X55513845Y-94640000D03*
X57413845Y-94640000D03*
X37333845Y-97409230D03*
X39233845Y-97409230D03*
D29*
X71498845Y-78142500D03*
X71498845Y-79967500D03*
D34*
X30233845Y-76232500D03*
X30233845Y-74407500D03*
D12*
X75833845Y-94640000D03*
X77733845Y-94640000D03*
D35*
X110933845Y-111450000D03*
D36*
X108393845Y-120600000D03*
D35*
X105853845Y-111450000D03*
D16*
X91603845Y-31560000D03*
D17*
X92453845Y-35310000D03*
X99953845Y-41660000D03*
D16*
X99453845Y-34660000D03*
D12*
X70548845Y-89850000D03*
X72448845Y-89850000D03*
D14*
X107563845Y-35810000D03*
D15*
X116713845Y-38350000D03*
D14*
X107563845Y-40890000D03*
D35*
X55053845Y-119070000D03*
D36*
X52513845Y-128220000D03*
D35*
X49973845Y-119070000D03*
D10*
X24375000Y-27000000D03*
X25143845Y-25143845D03*
X25143845Y-28856155D03*
X27000000Y-24375000D03*
D11*
X27000000Y-27000000D03*
D10*
X27000000Y-29625000D03*
X28856155Y-25143845D03*
X28856155Y-28856155D03*
X29625000Y-27000000D03*
D30*
X53210845Y-78359000D03*
X53210845Y-80259000D03*
D16*
X91603845Y-72200000D03*
D17*
X92453845Y-75950000D03*
X99953845Y-82300000D03*
D16*
X99453845Y-75300000D03*
D12*
X55513845Y-108486150D03*
X57413845Y-108486150D03*
X30783845Y-90330000D03*
X32683845Y-90330000D03*
D33*
X73126345Y-82230000D03*
X74951345Y-82230000D03*
X66141345Y-88580000D03*
X67966345Y-88580000D03*
D12*
X75833845Y-108486150D03*
X77733845Y-108486150D03*
D35*
X90613845Y-111450000D03*
D36*
X88073845Y-120600000D03*
D35*
X85533845Y-111450000D03*
D12*
X75833845Y-100000000D03*
X77733845Y-100000000D03*
X55513845Y-111255380D03*
X57413845Y-111255380D03*
X37333845Y-111255380D03*
X39233845Y-111255380D03*
D35*
X131253845Y-111450000D03*
D36*
X128713845Y-120600000D03*
D35*
X126173845Y-111450000D03*
D12*
X55513845Y-102947690D03*
X57413845Y-102947690D03*
X75833845Y-111255380D03*
X77733845Y-111255380D03*
D13*
X66803845Y-95545000D03*
X66803845Y-106975000D03*
D16*
X91603845Y-51880000D03*
D17*
X92453845Y-55630000D03*
X99953845Y-61980000D03*
D16*
X99453845Y-54980000D03*
D35*
X42353845Y-119070000D03*
D36*
X39813845Y-128220000D03*
D35*
X37273845Y-119070000D03*
D30*
X35303845Y-78412500D03*
X35303845Y-80312500D03*
D12*
X37333845Y-100178460D03*
X39233845Y-100178460D03*
X55513845Y-97409230D03*
X57413845Y-97409230D03*
D34*
X68958845Y-76157500D03*
X68958845Y-74332500D03*
D37*
X71498845Y-76195000D03*
X71498845Y-74295000D03*
D12*
X37333845Y-108486150D03*
X39233845Y-108486150D03*
D10*
X24375000Y-140000000D03*
X25143845Y-138143845D03*
X25143845Y-141856155D03*
X27000000Y-137375000D03*
D11*
X27000000Y-140000000D03*
D10*
X27000000Y-142625000D03*
X28856155Y-138143845D03*
X28856155Y-141856155D03*
X29625000Y-140000000D03*
D16*
X132963845Y-98500000D03*
D17*
X129213845Y-99350000D03*
X122863845Y-106850000D03*
D16*
X129863845Y-106350000D03*
D33*
X25601345Y-90330000D03*
X27426345Y-90330000D03*
D12*
X37333845Y-105716920D03*
X39233845Y-105716920D03*
D33*
X52171345Y-82865000D03*
X53996345Y-82865000D03*
D14*
X107563845Y-76450000D03*
D15*
X116713845Y-78990000D03*
D14*
X107563845Y-81530000D03*
D12*
X55513845Y-100178460D03*
X57413845Y-100178460D03*
D18*
X65941345Y-76362500D03*
X65491345Y-76362500D03*
X64591345Y-76362500D03*
X64141345Y-76362500D03*
D19*
X63041345Y-76912500D03*
X63041345Y-77362500D03*
X63041345Y-77812500D03*
X63041345Y-78512500D03*
X63041345Y-78962500D03*
D20*
X63406345Y-77937500D03*
D21*
X63181345Y-79412500D03*
D22*
X63691345Y-80325000D03*
X64141345Y-80325000D03*
X64591345Y-80325000D03*
X65041345Y-80325000D03*
X65491345Y-80325000D03*
X65941345Y-80325000D03*
X66391345Y-80325000D03*
D23*
X67053845Y-79862500D03*
X67053845Y-79412500D03*
X67053845Y-78962500D03*
X67053845Y-78512500D03*
X67053845Y-77812500D03*
X67053845Y-77362500D03*
X67053845Y-76912500D03*
D24*
X65866345Y-78875000D03*
D25*
X65866345Y-77212500D03*
D26*
X64441345Y-77725000D03*
D27*
X64813845Y-79137500D03*
D28*
X64126345Y-79372500D03*
D35*
X67753845Y-119070000D03*
D36*
X65213845Y-128220000D03*
D35*
X62673845Y-119070000D03*
D33*
X66141345Y-86040000D03*
X67966345Y-86040000D03*
D29*
X32033845Y-78430000D03*
X32033845Y-80255000D03*
D12*
X37333845Y-94640000D03*
X39233845Y-94640000D03*
D37*
X50343845Y-76290000D03*
X50343845Y-74390000D03*
D16*
X112643845Y-98500000D03*
D17*
X108893845Y-99350000D03*
X102543845Y-106850000D03*
D16*
X109543845Y-106350000D03*
D18*
X27468845Y-76395000D03*
X27018845Y-76395000D03*
X26118845Y-76395000D03*
X25668845Y-76395000D03*
D19*
X24568845Y-76945000D03*
X24568845Y-77395000D03*
X24568845Y-77845000D03*
X24568845Y-78545000D03*
X24568845Y-78995000D03*
D20*
X24933845Y-77970000D03*
D21*
X24708845Y-79445000D03*
D22*
X25218845Y-80357500D03*
X25668845Y-80357500D03*
X26118845Y-80357500D03*
X26568845Y-80357500D03*
X27018845Y-80357500D03*
X27468845Y-80357500D03*
X27918845Y-80357500D03*
D23*
X28581345Y-79895000D03*
X28581345Y-79445000D03*
X28581345Y-78995000D03*
X28581345Y-78545000D03*
X28581345Y-77845000D03*
X28581345Y-77395000D03*
X28581345Y-76945000D03*
D24*
X27393845Y-78907500D03*
D25*
X27393845Y-77245000D03*
D26*
X25968845Y-77757500D03*
D27*
X26341345Y-79170000D03*
D28*
X25653845Y-79405000D03*
D33*
X44551345Y-88580000D03*
X46376345Y-88580000D03*
D12*
X75833845Y-102947690D03*
X77733845Y-102947690D03*
X75833845Y-97180000D03*
X77733845Y-97180000D03*
X37333845Y-102947690D03*
X39233845Y-102947690D03*
D33*
X44551345Y-86548000D03*
X46376345Y-86548000D03*
D37*
X32453845Y-76290000D03*
X32453845Y-74390000D03*
D10*
X137375000Y-140000000D03*
X138143845Y-138143845D03*
X138143845Y-141856155D03*
X140000000Y-137375000D03*
D11*
X140000000Y-140000000D03*
D10*
X140000000Y-142625000D03*
X141856155Y-138143845D03*
X141856155Y-141856155D03*
X142625000Y-140000000D03*
D38*
X59433845Y-63180000D03*
D39*
X59433845Y-58180000D03*
D40*
X126238000Y-36322000D03*
X126238000Y-40342000D03*
D41*
X136398000Y-46482000D03*
X136398000Y-50502000D03*
X126238000Y-56642000D03*
X126238000Y-60662000D03*
X136398000Y-66802000D03*
X136398000Y-70822000D03*
X126238000Y-76962000D03*
X126238000Y-80982000D03*
X136398000Y-87122000D03*
X136398000Y-91142000D03*
D38*
X42923845Y-62963959D03*
D39*
X42923845Y-57963959D03*
D38*
X27683845Y-63180000D03*
D39*
X27683845Y-58180000D03*
D42*
X29490000Y-47000000D03*
X39650000Y-47000000D03*
D43*
X29490000Y-36840000D03*
X39650000Y-36840000D03*
D40*
X130573845Y-127000000D03*
X126553845Y-127000000D03*
D41*
X120413845Y-137160000D03*
X116393845Y-137160000D03*
X110253845Y-127000000D03*
X106233845Y-127000000D03*
X100093845Y-137160000D03*
X96073845Y-137160000D03*
X89933845Y-127000000D03*
X85913845Y-127000000D03*
X79773845Y-137160000D03*
X75753845Y-137160000D03*
D16*
X41348000Y-140462000D03*
X46348000Y-140462000D03*
X51348000Y-140462000D03*
X56348000Y-140462000D03*
X61348000Y-140462000D03*
X66348000Y-140462000D03*
M02*
