G04 #@! TF.GenerationSoftware,KiCad,Pcbnew,(7.0.0-0)*
G04 #@! TF.CreationDate,2023-12-24T21:08:26+08:00*
G04 #@! TF.ProjectId,Power Distribution Board Ver.2,506f7765-7220-4446-9973-747269627574,rev?*
G04 #@! TF.SameCoordinates,Original*
G04 #@! TF.FileFunction,Paste,Top*
G04 #@! TF.FilePolarity,Positive*
%FSLAX46Y46*%
G04 Gerber Fmt 4.6, Leading zero omitted, Abs format (unit mm)*
G04 Created by KiCad (PCBNEW (7.0.0-0)) date 2023-12-24 21:08:26*
%MOMM*%
%LPD*%
G01*
G04 APERTURE LIST*
G04 Aperture macros list*
%AMRoundRect*
0 Rectangle with rounded corners*
0 $1 Rounding radius*
0 $2 $3 $4 $5 $6 $7 $8 $9 X,Y pos of 4 corners*
0 Add a 4 corners polygon primitive as box body*
4,1,4,$2,$3,$4,$5,$6,$7,$8,$9,$2,$3,0*
0 Add four circle primitives for the rounded corners*
1,1,$1+$1,$2,$3*
1,1,$1+$1,$4,$5*
1,1,$1+$1,$6,$7*
1,1,$1+$1,$8,$9*
0 Add four rect primitives between the rounded corners*
20,1,$1+$1,$2,$3,$4,$5,0*
20,1,$1+$1,$4,$5,$6,$7,0*
20,1,$1+$1,$6,$7,$8,$9,0*
20,1,$1+$1,$8,$9,$2,$3,0*%
G04 Aperture macros list end*
%ADD10RoundRect,0.250000X-0.250000X-0.475000X0.250000X-0.475000X0.250000X0.475000X-0.250000X0.475000X0*%
%ADD11R,3.300000X3.175000*%
%ADD12RoundRect,0.250000X-2.050000X-0.300000X2.050000X-0.300000X2.050000X0.300000X-2.050000X0.300000X0*%
%ADD13RoundRect,0.250000X-2.025000X-2.375000X2.025000X-2.375000X2.025000X2.375000X-2.025000X2.375000X0*%
%ADD14R,0.300000X0.550000*%
%ADD15R,0.450000X0.300000*%
%ADD16R,0.280000X2.350000*%
%ADD17R,0.730000X0.300000*%
%ADD18R,0.300000X0.725000*%
%ADD19R,0.725000X0.300000*%
%ADD20R,1.050000X1.575000*%
%ADD21R,1.050000X1.150000*%
%ADD22R,1.200000X2.175000*%
%ADD23R,0.455000X0.650000*%
%ADD24R,0.380000X0.580000*%
%ADD25RoundRect,0.250000X-0.450000X0.262500X-0.450000X-0.262500X0.450000X-0.262500X0.450000X0.262500X0*%
%ADD26RoundRect,0.250000X-0.475000X0.250000X-0.475000X-0.250000X0.475000X-0.250000X0.475000X0.250000X0*%
%ADD27RoundRect,0.250000X-0.262500X-0.450000X0.262500X-0.450000X0.262500X0.450000X-0.262500X0.450000X0*%
%ADD28RoundRect,0.250000X0.450000X-0.262500X0.450000X0.262500X-0.450000X0.262500X-0.450000X-0.262500X0*%
%ADD29RoundRect,0.250000X-0.300000X2.050000X-0.300000X-2.050000X0.300000X-2.050000X0.300000X2.050000X0*%
%ADD30RoundRect,0.250000X-2.375000X2.025000X-2.375000X-2.025000X2.375000X-2.025000X2.375000X2.025000X0*%
%ADD31RoundRect,0.250000X0.475000X-0.250000X0.475000X0.250000X-0.475000X0.250000X-0.475000X-0.250000X0*%
G04 APERTURE END LIST*
D10*
X48958845Y-89215000D03*
X50858845Y-89215000D03*
D11*
X47119999Y-95564999D03*
X47119999Y-106994999D03*
D12*
X107563845Y-56130000D03*
D13*
X114288845Y-55895000D03*
X114288845Y-61445000D03*
X119138845Y-55895000D03*
X119138845Y-61445000D03*
D12*
X107563845Y-61210000D03*
D10*
X55513845Y-105716920D03*
X57413845Y-105716920D03*
D14*
X45013844Y-76394999D03*
X44563844Y-76394999D03*
X43663844Y-76394999D03*
X43213844Y-76394999D03*
D15*
X42113844Y-76944999D03*
X42113844Y-77394999D03*
X42113844Y-77844999D03*
X42113844Y-78544999D03*
X42113844Y-78994999D03*
D16*
X42478844Y-77969999D03*
D17*
X42253844Y-79444999D03*
D18*
X42763844Y-80357499D03*
X43213844Y-80357499D03*
X43663844Y-80357499D03*
X44113844Y-80357499D03*
X44563844Y-80357499D03*
X45013844Y-80357499D03*
X45463844Y-80357499D03*
D19*
X46126344Y-79894999D03*
X46126344Y-79444999D03*
X46126344Y-78994999D03*
X46126344Y-78544999D03*
X46126344Y-77844999D03*
X46126344Y-77394999D03*
X46126344Y-76944999D03*
D20*
X44938844Y-78907499D03*
D21*
X44938844Y-77244999D03*
D22*
X43513844Y-77757499D03*
D23*
X43886344Y-79169999D03*
D24*
X43198844Y-79404999D03*
D25*
X49773845Y-78377500D03*
X49773845Y-80202500D03*
D26*
X74800845Y-78105000D03*
X74800845Y-80005000D03*
D25*
X32033845Y-82597500D03*
X32033845Y-84422500D03*
D10*
X75833845Y-105716920D03*
X77733845Y-105716920D03*
D27*
X25601345Y-87790000D03*
X27426345Y-87790000D03*
D28*
X48003845Y-76232500D03*
X48003845Y-74407500D03*
D11*
X28703844Y-95564999D03*
X28703844Y-106994999D03*
D10*
X55513845Y-94640000D03*
X57413845Y-94640000D03*
X37333845Y-97409230D03*
X39233845Y-97409230D03*
D25*
X71498845Y-78142500D03*
X71498845Y-79967500D03*
D28*
X30233845Y-76232500D03*
X30233845Y-74407500D03*
D10*
X75833845Y-94640000D03*
X77733845Y-94640000D03*
D29*
X110933845Y-111450000D03*
D30*
X111168845Y-118175000D03*
X105618845Y-118175000D03*
X111168845Y-123025000D03*
X105618845Y-123025000D03*
D29*
X105853845Y-111450000D03*
D10*
X70548845Y-89850000D03*
X72448845Y-89850000D03*
D12*
X107563845Y-35810000D03*
D13*
X114288845Y-35575000D03*
X114288845Y-41125000D03*
X119138845Y-35575000D03*
X119138845Y-41125000D03*
D12*
X107563845Y-40890000D03*
D29*
X55053845Y-119070000D03*
D30*
X55288845Y-125795000D03*
X49738845Y-125795000D03*
X55288845Y-130645000D03*
X49738845Y-130645000D03*
D29*
X49973845Y-119070000D03*
D26*
X53210845Y-78359000D03*
X53210845Y-80259000D03*
D10*
X55513845Y-108486150D03*
X57413845Y-108486150D03*
X30783845Y-90330000D03*
X32683845Y-90330000D03*
D27*
X73126345Y-82230000D03*
X74951345Y-82230000D03*
X66141345Y-88580000D03*
X67966345Y-88580000D03*
D10*
X75833845Y-108486150D03*
X77733845Y-108486150D03*
D29*
X90613845Y-111450000D03*
D30*
X90848845Y-118175000D03*
X85298845Y-118175000D03*
X90848845Y-123025000D03*
X85298845Y-123025000D03*
D29*
X85533845Y-111450000D03*
D10*
X75833845Y-100000000D03*
X77733845Y-100000000D03*
X55513845Y-111255380D03*
X57413845Y-111255380D03*
X37333845Y-111255380D03*
X39233845Y-111255380D03*
D29*
X131253845Y-111450000D03*
D30*
X131488845Y-118175000D03*
X125938845Y-118175000D03*
X131488845Y-123025000D03*
X125938845Y-123025000D03*
D29*
X126173845Y-111450000D03*
D10*
X55513845Y-102947690D03*
X57413845Y-102947690D03*
X75833845Y-111255380D03*
X77733845Y-111255380D03*
D11*
X66803844Y-95544999D03*
X66803844Y-106974999D03*
D29*
X42353845Y-119070000D03*
D30*
X42588845Y-125795000D03*
X37038845Y-125795000D03*
X42588845Y-130645000D03*
X37038845Y-130645000D03*
D29*
X37273845Y-119070000D03*
D26*
X35303845Y-78412500D03*
X35303845Y-80312500D03*
D10*
X37333845Y-100178460D03*
X39233845Y-100178460D03*
X55513845Y-97409230D03*
X57413845Y-97409230D03*
D28*
X68958845Y-76157500D03*
X68958845Y-74332500D03*
D31*
X71498845Y-76195000D03*
X71498845Y-74295000D03*
D10*
X37333845Y-108486150D03*
X39233845Y-108486150D03*
D27*
X25601345Y-90330000D03*
X27426345Y-90330000D03*
D10*
X37333845Y-105716920D03*
X39233845Y-105716920D03*
D27*
X52171345Y-82865000D03*
X53996345Y-82865000D03*
D12*
X107563845Y-76450000D03*
D13*
X114288845Y-76215000D03*
X114288845Y-81765000D03*
X119138845Y-76215000D03*
X119138845Y-81765000D03*
D12*
X107563845Y-81530000D03*
D10*
X55513845Y-100178460D03*
X57413845Y-100178460D03*
D14*
X65941344Y-76362499D03*
X65491344Y-76362499D03*
X64591344Y-76362499D03*
X64141344Y-76362499D03*
D15*
X63041344Y-76912499D03*
X63041344Y-77362499D03*
X63041344Y-77812499D03*
X63041344Y-78512499D03*
X63041344Y-78962499D03*
D16*
X63406344Y-77937499D03*
D17*
X63181344Y-79412499D03*
D18*
X63691344Y-80324999D03*
X64141344Y-80324999D03*
X64591344Y-80324999D03*
X65041344Y-80324999D03*
X65491344Y-80324999D03*
X65941344Y-80324999D03*
X66391344Y-80324999D03*
D19*
X67053844Y-79862499D03*
X67053844Y-79412499D03*
X67053844Y-78962499D03*
X67053844Y-78512499D03*
X67053844Y-77812499D03*
X67053844Y-77362499D03*
X67053844Y-76912499D03*
D20*
X65866344Y-78874999D03*
D21*
X65866344Y-77212499D03*
D22*
X64441344Y-77724999D03*
D23*
X64813844Y-79137499D03*
D24*
X64126344Y-79372499D03*
D29*
X67753845Y-119070000D03*
D30*
X67988845Y-125795000D03*
X62438845Y-125795000D03*
X67988845Y-130645000D03*
X62438845Y-130645000D03*
D29*
X62673845Y-119070000D03*
D27*
X66141345Y-86040000D03*
X67966345Y-86040000D03*
D25*
X32033845Y-78430000D03*
X32033845Y-80255000D03*
D10*
X37333845Y-94640000D03*
X39233845Y-94640000D03*
D31*
X50343845Y-76290000D03*
X50343845Y-74390000D03*
D14*
X27468844Y-76394999D03*
X27018844Y-76394999D03*
X26118844Y-76394999D03*
X25668844Y-76394999D03*
D15*
X24568844Y-76944999D03*
X24568844Y-77394999D03*
X24568844Y-77844999D03*
X24568844Y-78544999D03*
X24568844Y-78994999D03*
D16*
X24933844Y-77969999D03*
D17*
X24708844Y-79444999D03*
D18*
X25218844Y-80357499D03*
X25668844Y-80357499D03*
X26118844Y-80357499D03*
X26568844Y-80357499D03*
X27018844Y-80357499D03*
X27468844Y-80357499D03*
X27918844Y-80357499D03*
D19*
X28581344Y-79894999D03*
X28581344Y-79444999D03*
X28581344Y-78994999D03*
X28581344Y-78544999D03*
X28581344Y-77844999D03*
X28581344Y-77394999D03*
X28581344Y-76944999D03*
D20*
X27393844Y-78907499D03*
D21*
X27393844Y-77244999D03*
D22*
X25968844Y-77757499D03*
D23*
X26341344Y-79169999D03*
D24*
X25653844Y-79404999D03*
D27*
X44551345Y-88580000D03*
X46376345Y-88580000D03*
D10*
X75833845Y-102947690D03*
X77733845Y-102947690D03*
X75833845Y-97180000D03*
X77733845Y-97180000D03*
X37333845Y-102947690D03*
X39233845Y-102947690D03*
D27*
X44551345Y-86548000D03*
X46376345Y-86548000D03*
D31*
X32453845Y-76290000D03*
X32453845Y-74390000D03*
M02*
