%TF.GenerationSoftware,KiCad,Pcbnew,7.0.9*%
%TF.CreationDate,2023-12-29T07:43:00-06:00*%
%TF.ProjectId,Power Distribution Board Ver.2,506f7765-7220-4446-9973-747269627574,rev?*%
%TF.SameCoordinates,Original*%
%TF.FileFunction,Drillmap*%
%TF.FilePolarity,Positive*%
%FSLAX45Y45*%
G04 Gerber Fmt 4.5, Leading zero omitted, Abs format (unit mm)*
G04 Created by KiCad (PCBNEW 7.0.9) date 2023-12-29 07:43:00*
%MOMM*%
%LPD*%
G01*
G04 APERTURE LIST*
%ADD10C,0.200000*%
G04 APERTURE END LIST*
D10*
X14700000Y-14700000D02*
X2000000Y-14700000D01*
X2000000Y-2000000D02*
X14700000Y-2000000D01*
X14700000Y-2000000D02*
X14700000Y-14700000D01*
X2000000Y-14700000D02*
X2000000Y-2000000D01*
X2250777Y-15021484D02*
X2250777Y-14821484D01*
X2250777Y-14821484D02*
X2298396Y-14821484D01*
X2298396Y-14821484D02*
X2326967Y-14831008D01*
X2326967Y-14831008D02*
X2346015Y-14850055D01*
X2346015Y-14850055D02*
X2355539Y-14869103D01*
X2355539Y-14869103D02*
X2365063Y-14907198D01*
X2365063Y-14907198D02*
X2365063Y-14935769D01*
X2365063Y-14935769D02*
X2355539Y-14973865D01*
X2355539Y-14973865D02*
X2346015Y-14992912D01*
X2346015Y-14992912D02*
X2326967Y-15011960D01*
X2326967Y-15011960D02*
X2298396Y-15021484D01*
X2298396Y-15021484D02*
X2250777Y-15021484D01*
X2450777Y-15021484D02*
X2450777Y-14888150D01*
X2450777Y-14926246D02*
X2460301Y-14907198D01*
X2460301Y-14907198D02*
X2469824Y-14897674D01*
X2469824Y-14897674D02*
X2488872Y-14888150D01*
X2488872Y-14888150D02*
X2507920Y-14888150D01*
X2574586Y-15021484D02*
X2574586Y-14888150D01*
X2574586Y-14821484D02*
X2565063Y-14831008D01*
X2565063Y-14831008D02*
X2574586Y-14840531D01*
X2574586Y-14840531D02*
X2584110Y-14831008D01*
X2584110Y-14831008D02*
X2574586Y-14821484D01*
X2574586Y-14821484D02*
X2574586Y-14840531D01*
X2698396Y-15021484D02*
X2679348Y-15011960D01*
X2679348Y-15011960D02*
X2669824Y-14992912D01*
X2669824Y-14992912D02*
X2669824Y-14821484D01*
X2803158Y-15021484D02*
X2784110Y-15011960D01*
X2784110Y-15011960D02*
X2774586Y-14992912D01*
X2774586Y-14992912D02*
X2774586Y-14821484D01*
X3031729Y-15021484D02*
X3031729Y-14821484D01*
X3031729Y-14821484D02*
X3098396Y-14964341D01*
X3098396Y-14964341D02*
X3165062Y-14821484D01*
X3165062Y-14821484D02*
X3165062Y-15021484D01*
X3346015Y-15021484D02*
X3346015Y-14916722D01*
X3346015Y-14916722D02*
X3336491Y-14897674D01*
X3336491Y-14897674D02*
X3317443Y-14888150D01*
X3317443Y-14888150D02*
X3279348Y-14888150D01*
X3279348Y-14888150D02*
X3260301Y-14897674D01*
X3346015Y-15011960D02*
X3326967Y-15021484D01*
X3326967Y-15021484D02*
X3279348Y-15021484D01*
X3279348Y-15021484D02*
X3260301Y-15011960D01*
X3260301Y-15011960D02*
X3250777Y-14992912D01*
X3250777Y-14992912D02*
X3250777Y-14973865D01*
X3250777Y-14973865D02*
X3260301Y-14954817D01*
X3260301Y-14954817D02*
X3279348Y-14945293D01*
X3279348Y-14945293D02*
X3326967Y-14945293D01*
X3326967Y-14945293D02*
X3346015Y-14935769D01*
X3441253Y-14888150D02*
X3441253Y-15088150D01*
X3441253Y-14897674D02*
X3460301Y-14888150D01*
X3460301Y-14888150D02*
X3498396Y-14888150D01*
X3498396Y-14888150D02*
X3517443Y-14897674D01*
X3517443Y-14897674D02*
X3526967Y-14907198D01*
X3526967Y-14907198D02*
X3536491Y-14926246D01*
X3536491Y-14926246D02*
X3536491Y-14983388D01*
X3536491Y-14983388D02*
X3526967Y-15002436D01*
X3526967Y-15002436D02*
X3517443Y-15011960D01*
X3517443Y-15011960D02*
X3498396Y-15021484D01*
X3498396Y-15021484D02*
X3460301Y-15021484D01*
X3460301Y-15021484D02*
X3441253Y-15011960D01*
X3622205Y-15002436D02*
X3631729Y-15011960D01*
X3631729Y-15011960D02*
X3622205Y-15021484D01*
X3622205Y-15021484D02*
X3612682Y-15011960D01*
X3612682Y-15011960D02*
X3622205Y-15002436D01*
X3622205Y-15002436D02*
X3622205Y-15021484D01*
X3622205Y-14897674D02*
X3631729Y-14907198D01*
X3631729Y-14907198D02*
X3622205Y-14916722D01*
X3622205Y-14916722D02*
X3612682Y-14907198D01*
X3612682Y-14907198D02*
X3622205Y-14897674D01*
X3622205Y-14897674D02*
X3622205Y-14916722D01*
M02*
