G04 #@! TF.GenerationSoftware,KiCad,Pcbnew,(7.0.0-0)*
G04 #@! TF.CreationDate,2023-12-24T21:08:26+08:00*
G04 #@! TF.ProjectId,Power Distribution Board Ver.2,506f7765-7220-4446-9973-747269627574,rev?*
G04 #@! TF.SameCoordinates,Original*
G04 #@! TF.FileFunction,Legend,Top*
G04 #@! TF.FilePolarity,Positive*
%FSLAX46Y46*%
G04 Gerber Fmt 4.6, Leading zero omitted, Abs format (unit mm)*
G04 Created by KiCad (PCBNEW (7.0.0-0)) date 2023-12-24 21:08:26*
%MOMM*%
%LPD*%
G01*
G04 APERTURE LIST*
G04 Aperture macros list*
%AMRoundRect*
0 Rectangle with rounded corners*
0 $1 Rounding radius*
0 $2 $3 $4 $5 $6 $7 $8 $9 X,Y pos of 4 corners*
0 Add a 4 corners polygon primitive as box body*
4,1,4,$2,$3,$4,$5,$6,$7,$8,$9,$2,$3,0*
0 Add four circle primitives for the rounded corners*
1,1,$1+$1,$2,$3*
1,1,$1+$1,$4,$5*
1,1,$1+$1,$6,$7*
1,1,$1+$1,$8,$9*
0 Add four rect primitives between the rounded corners*
20,1,$1+$1,$2,$3,$4,$5,0*
20,1,$1+$1,$4,$5,$6,$7,0*
20,1,$1+$1,$6,$7,$8,$9,0*
20,1,$1+$1,$8,$9,$2,$3,0*%
%AMHorizOval*
0 Thick line with rounded ends*
0 $1 width*
0 $2 $3 position (X,Y) of the first rounded end (center of the circle)*
0 $4 $5 position (X,Y) of the second rounded end (center of the circle)*
0 Add line between two ends*
20,1,$1,$2,$3,$4,$5,0*
0 Add two circle primitives to create the rounded ends*
1,1,$1,$2,$3*
1,1,$1,$4,$5*%
G04 Aperture macros list end*
%ADD10C,0.300000*%
%ADD11C,0.150000*%
%ADD12C,0.120000*%
%ADD13C,0.127000*%
%ADD14C,0.240000*%
%ADD15C,0.800000*%
%ADD16C,7.000000*%
%ADD17RoundRect,0.250000X-0.250000X-0.475000X0.250000X-0.475000X0.250000X0.475000X-0.250000X0.475000X0*%
%ADD18R,3.300000X3.175000*%
%ADD19RoundRect,0.250000X-2.050000X-0.300000X2.050000X-0.300000X2.050000X0.300000X-2.050000X0.300000X0*%
%ADD20RoundRect,0.250002X-4.449998X-5.149998X4.449998X-5.149998X4.449998X5.149998X-4.449998X5.149998X0*%
%ADD21C,1.950000*%
%ADD22C,1.350000*%
%ADD23R,0.300000X0.550000*%
%ADD24R,0.450000X0.300000*%
%ADD25R,0.280000X2.350000*%
%ADD26R,0.730000X0.300000*%
%ADD27R,0.300000X0.725000*%
%ADD28R,0.725000X0.300000*%
%ADD29R,1.050000X1.575000*%
%ADD30R,1.050000X1.150000*%
%ADD31R,1.200000X2.175000*%
%ADD32R,0.455000X0.650000*%
%ADD33R,0.380000X0.580000*%
%ADD34RoundRect,0.250000X-0.450000X0.262500X-0.450000X-0.262500X0.450000X-0.262500X0.450000X0.262500X0*%
%ADD35RoundRect,0.250000X-0.475000X0.250000X-0.475000X-0.250000X0.475000X-0.250000X0.475000X0.250000X0*%
%ADD36HorizOval,2.100000X1.039230X-0.600000X-1.039230X0.600000X0*%
%ADD37HorizOval,2.100000X1.039230X0.600000X-1.039230X-0.600000X0*%
%ADD38RoundRect,0.250000X-0.262500X-0.450000X0.262500X-0.450000X0.262500X0.450000X-0.262500X0.450000X0*%
%ADD39RoundRect,0.250000X0.450000X-0.262500X0.450000X0.262500X-0.450000X0.262500X-0.450000X-0.262500X0*%
%ADD40RoundRect,0.250000X-0.300000X2.050000X-0.300000X-2.050000X0.300000X-2.050000X0.300000X2.050000X0*%
%ADD41RoundRect,0.250002X-5.149998X4.449998X-5.149998X-4.449998X5.149998X-4.449998X5.149998X4.449998X0*%
%ADD42RoundRect,0.250000X0.475000X-0.250000X0.475000X0.250000X-0.475000X0.250000X-0.475000X-0.250000X0*%
%ADD43R,2.400000X2.400000*%
%ADD44C,2.400000*%
%ADD45R,2.124000X2.124000*%
%ADD46C,2.124000*%
%ADD47R,1.950000X1.950000*%
%ADD48C,2.300000*%
G04 APERTURE END LIST*
D10*
X88796857Y-131182142D02*
X87654000Y-131182142D01*
X88225428Y-131753571D02*
X88225428Y-130610714D01*
X145143571Y-53932142D02*
X145143571Y-54789285D01*
X145143571Y-54360714D02*
X143643571Y-54360714D01*
X143643571Y-54360714D02*
X143857857Y-54503571D01*
X143857857Y-54503571D02*
X144000714Y-54646428D01*
X144000714Y-54646428D02*
X144072142Y-54789285D01*
X143786428Y-53360714D02*
X143715000Y-53289286D01*
X143715000Y-53289286D02*
X143643571Y-53146429D01*
X143643571Y-53146429D02*
X143643571Y-52789286D01*
X143643571Y-52789286D02*
X143715000Y-52646429D01*
X143715000Y-52646429D02*
X143786428Y-52575000D01*
X143786428Y-52575000D02*
X143929285Y-52503571D01*
X143929285Y-52503571D02*
X144072142Y-52503571D01*
X144072142Y-52503571D02*
X144286428Y-52575000D01*
X144286428Y-52575000D02*
X145143571Y-53432143D01*
X145143571Y-53432143D02*
X145143571Y-52503571D01*
X143643571Y-52075000D02*
X145143571Y-51575000D01*
X145143571Y-51575000D02*
X143643571Y-51075000D01*
X143643571Y-49389286D02*
X143643571Y-49103572D01*
X143643571Y-49103572D02*
X143715000Y-48960715D01*
X143715000Y-48960715D02*
X143857857Y-48817858D01*
X143857857Y-48817858D02*
X144143571Y-48746429D01*
X144143571Y-48746429D02*
X144643571Y-48746429D01*
X144643571Y-48746429D02*
X144929285Y-48817858D01*
X144929285Y-48817858D02*
X145072142Y-48960715D01*
X145072142Y-48960715D02*
X145143571Y-49103572D01*
X145143571Y-49103572D02*
X145143571Y-49389286D01*
X145143571Y-49389286D02*
X145072142Y-49532144D01*
X145072142Y-49532144D02*
X144929285Y-49675001D01*
X144929285Y-49675001D02*
X144643571Y-49746429D01*
X144643571Y-49746429D02*
X144143571Y-49746429D01*
X144143571Y-49746429D02*
X143857857Y-49675001D01*
X143857857Y-49675001D02*
X143715000Y-49532144D01*
X143715000Y-49532144D02*
X143643571Y-49389286D01*
X144143571Y-47460715D02*
X145143571Y-47460715D01*
X144143571Y-48103572D02*
X144929285Y-48103572D01*
X144929285Y-48103572D02*
X145072142Y-48032143D01*
X145072142Y-48032143D02*
X145143571Y-47889286D01*
X145143571Y-47889286D02*
X145143571Y-47675000D01*
X145143571Y-47675000D02*
X145072142Y-47532143D01*
X145072142Y-47532143D02*
X145000714Y-47460715D01*
X144143571Y-46960714D02*
X144143571Y-46389286D01*
X143643571Y-46746429D02*
X144929285Y-46746429D01*
X144929285Y-46746429D02*
X145072142Y-46675000D01*
X145072142Y-46675000D02*
X145143571Y-46532143D01*
X145143571Y-46532143D02*
X145143571Y-46389286D01*
X144143571Y-45889286D02*
X145643571Y-45889286D01*
X144215000Y-45889286D02*
X144143571Y-45746429D01*
X144143571Y-45746429D02*
X144143571Y-45460714D01*
X144143571Y-45460714D02*
X144215000Y-45317857D01*
X144215000Y-45317857D02*
X144286428Y-45246429D01*
X144286428Y-45246429D02*
X144429285Y-45175000D01*
X144429285Y-45175000D02*
X144857857Y-45175000D01*
X144857857Y-45175000D02*
X145000714Y-45246429D01*
X145000714Y-45246429D02*
X145072142Y-45317857D01*
X145072142Y-45317857D02*
X145143571Y-45460714D01*
X145143571Y-45460714D02*
X145143571Y-45746429D01*
X145143571Y-45746429D02*
X145072142Y-45889286D01*
X144143571Y-43889286D02*
X145143571Y-43889286D01*
X144143571Y-44532143D02*
X144929285Y-44532143D01*
X144929285Y-44532143D02*
X145072142Y-44460714D01*
X145072142Y-44460714D02*
X145143571Y-44317857D01*
X145143571Y-44317857D02*
X145143571Y-44103571D01*
X145143571Y-44103571D02*
X145072142Y-43960714D01*
X145072142Y-43960714D02*
X145000714Y-43889286D01*
X144143571Y-43389285D02*
X144143571Y-42817857D01*
X143643571Y-43175000D02*
X144929285Y-43175000D01*
X144929285Y-43175000D02*
X145072142Y-43103571D01*
X145072142Y-43103571D02*
X145143571Y-42960714D01*
X145143571Y-42960714D02*
X145143571Y-42817857D01*
X52093857Y-145152142D02*
X50951000Y-145152142D01*
X51522428Y-145723571D02*
X51522428Y-144580714D01*
X129569857Y-37975142D02*
X128427000Y-37975142D01*
X128998428Y-38546571D02*
X128998428Y-37403714D01*
X62380857Y-145152142D02*
X61238000Y-145152142D01*
X61809428Y-145723571D02*
X61809428Y-144580714D01*
X42060857Y-145152142D02*
X40918000Y-145152142D01*
X41489428Y-145723571D02*
X41489428Y-144580714D01*
X113102857Y-145653571D02*
X112245714Y-145653571D01*
X112674285Y-145653571D02*
X112674285Y-144153571D01*
X112674285Y-144153571D02*
X112531428Y-144367857D01*
X112531428Y-144367857D02*
X112388571Y-144510714D01*
X112388571Y-144510714D02*
X112245714Y-144582142D01*
X113674285Y-144296428D02*
X113745713Y-144225000D01*
X113745713Y-144225000D02*
X113888571Y-144153571D01*
X113888571Y-144153571D02*
X114245713Y-144153571D01*
X114245713Y-144153571D02*
X114388571Y-144225000D01*
X114388571Y-144225000D02*
X114459999Y-144296428D01*
X114459999Y-144296428D02*
X114531428Y-144439285D01*
X114531428Y-144439285D02*
X114531428Y-144582142D01*
X114531428Y-144582142D02*
X114459999Y-144796428D01*
X114459999Y-144796428D02*
X113602856Y-145653571D01*
X113602856Y-145653571D02*
X114531428Y-145653571D01*
X114959999Y-144153571D02*
X115459999Y-145653571D01*
X115459999Y-145653571D02*
X115959999Y-144153571D01*
X117645713Y-144153571D02*
X117931427Y-144153571D01*
X117931427Y-144153571D02*
X118074284Y-144225000D01*
X118074284Y-144225000D02*
X118217141Y-144367857D01*
X118217141Y-144367857D02*
X118288570Y-144653571D01*
X118288570Y-144653571D02*
X118288570Y-145153571D01*
X118288570Y-145153571D02*
X118217141Y-145439285D01*
X118217141Y-145439285D02*
X118074284Y-145582142D01*
X118074284Y-145582142D02*
X117931427Y-145653571D01*
X117931427Y-145653571D02*
X117645713Y-145653571D01*
X117645713Y-145653571D02*
X117502856Y-145582142D01*
X117502856Y-145582142D02*
X117359998Y-145439285D01*
X117359998Y-145439285D02*
X117288570Y-145153571D01*
X117288570Y-145153571D02*
X117288570Y-144653571D01*
X117288570Y-144653571D02*
X117359998Y-144367857D01*
X117359998Y-144367857D02*
X117502856Y-144225000D01*
X117502856Y-144225000D02*
X117645713Y-144153571D01*
X119574285Y-144653571D02*
X119574285Y-145653571D01*
X118931427Y-144653571D02*
X118931427Y-145439285D01*
X118931427Y-145439285D02*
X119002856Y-145582142D01*
X119002856Y-145582142D02*
X119145713Y-145653571D01*
X119145713Y-145653571D02*
X119359999Y-145653571D01*
X119359999Y-145653571D02*
X119502856Y-145582142D01*
X119502856Y-145582142D02*
X119574285Y-145510714D01*
X120074285Y-144653571D02*
X120645713Y-144653571D01*
X120288570Y-144153571D02*
X120288570Y-145439285D01*
X120288570Y-145439285D02*
X120359999Y-145582142D01*
X120359999Y-145582142D02*
X120502856Y-145653571D01*
X120502856Y-145653571D02*
X120645713Y-145653571D01*
X121145713Y-144653571D02*
X121145713Y-146153571D01*
X121145713Y-144725000D02*
X121288571Y-144653571D01*
X121288571Y-144653571D02*
X121574285Y-144653571D01*
X121574285Y-144653571D02*
X121717142Y-144725000D01*
X121717142Y-144725000D02*
X121788571Y-144796428D01*
X121788571Y-144796428D02*
X121859999Y-144939285D01*
X121859999Y-144939285D02*
X121859999Y-145367857D01*
X121859999Y-145367857D02*
X121788571Y-145510714D01*
X121788571Y-145510714D02*
X121717142Y-145582142D01*
X121717142Y-145582142D02*
X121574285Y-145653571D01*
X121574285Y-145653571D02*
X121288571Y-145653571D01*
X121288571Y-145653571D02*
X121145713Y-145582142D01*
X123145714Y-144653571D02*
X123145714Y-145653571D01*
X122502856Y-144653571D02*
X122502856Y-145439285D01*
X122502856Y-145439285D02*
X122574285Y-145582142D01*
X122574285Y-145582142D02*
X122717142Y-145653571D01*
X122717142Y-145653571D02*
X122931428Y-145653571D01*
X122931428Y-145653571D02*
X123074285Y-145582142D01*
X123074285Y-145582142D02*
X123145714Y-145510714D01*
X123645714Y-144653571D02*
X124217142Y-144653571D01*
X123859999Y-144153571D02*
X123859999Y-145439285D01*
X123859999Y-145439285D02*
X123931428Y-145582142D01*
X123931428Y-145582142D02*
X124074285Y-145653571D01*
X124074285Y-145653571D02*
X124217142Y-145653571D01*
X129309857Y-131182142D02*
X128167000Y-131182142D01*
X128738428Y-131753571D02*
X128738428Y-130610714D01*
X129569857Y-58295142D02*
X128427000Y-58295142D01*
X128998428Y-58866571D02*
X128998428Y-57723714D01*
X46791428Y-133936571D02*
X46077142Y-133936571D01*
X46077142Y-133936571D02*
X46005714Y-134650857D01*
X46005714Y-134650857D02*
X46077142Y-134579428D01*
X46077142Y-134579428D02*
X46220000Y-134508000D01*
X46220000Y-134508000D02*
X46577142Y-134508000D01*
X46577142Y-134508000D02*
X46720000Y-134579428D01*
X46720000Y-134579428D02*
X46791428Y-134650857D01*
X46791428Y-134650857D02*
X46862857Y-134793714D01*
X46862857Y-134793714D02*
X46862857Y-135150857D01*
X46862857Y-135150857D02*
X46791428Y-135293714D01*
X46791428Y-135293714D02*
X46720000Y-135365142D01*
X46720000Y-135365142D02*
X46577142Y-135436571D01*
X46577142Y-135436571D02*
X46220000Y-135436571D01*
X46220000Y-135436571D02*
X46077142Y-135365142D01*
X46077142Y-135365142D02*
X46005714Y-135293714D01*
X47291428Y-133936571D02*
X47791428Y-135436571D01*
X47791428Y-135436571D02*
X48291428Y-133936571D01*
X49977142Y-133936571D02*
X50262856Y-133936571D01*
X50262856Y-133936571D02*
X50405713Y-134008000D01*
X50405713Y-134008000D02*
X50548570Y-134150857D01*
X50548570Y-134150857D02*
X50619999Y-134436571D01*
X50619999Y-134436571D02*
X50619999Y-134936571D01*
X50619999Y-134936571D02*
X50548570Y-135222285D01*
X50548570Y-135222285D02*
X50405713Y-135365142D01*
X50405713Y-135365142D02*
X50262856Y-135436571D01*
X50262856Y-135436571D02*
X49977142Y-135436571D01*
X49977142Y-135436571D02*
X49834285Y-135365142D01*
X49834285Y-135365142D02*
X49691427Y-135222285D01*
X49691427Y-135222285D02*
X49619999Y-134936571D01*
X49619999Y-134936571D02*
X49619999Y-134436571D01*
X49619999Y-134436571D02*
X49691427Y-134150857D01*
X49691427Y-134150857D02*
X49834285Y-134008000D01*
X49834285Y-134008000D02*
X49977142Y-133936571D01*
X51905714Y-134436571D02*
X51905714Y-135436571D01*
X51262856Y-134436571D02*
X51262856Y-135222285D01*
X51262856Y-135222285D02*
X51334285Y-135365142D01*
X51334285Y-135365142D02*
X51477142Y-135436571D01*
X51477142Y-135436571D02*
X51691428Y-135436571D01*
X51691428Y-135436571D02*
X51834285Y-135365142D01*
X51834285Y-135365142D02*
X51905714Y-135293714D01*
X52405714Y-134436571D02*
X52977142Y-134436571D01*
X52619999Y-133936571D02*
X52619999Y-135222285D01*
X52619999Y-135222285D02*
X52691428Y-135365142D01*
X52691428Y-135365142D02*
X52834285Y-135436571D01*
X52834285Y-135436571D02*
X52977142Y-135436571D01*
X53477142Y-134436571D02*
X53477142Y-135936571D01*
X53477142Y-134508000D02*
X53620000Y-134436571D01*
X53620000Y-134436571D02*
X53905714Y-134436571D01*
X53905714Y-134436571D02*
X54048571Y-134508000D01*
X54048571Y-134508000D02*
X54120000Y-134579428D01*
X54120000Y-134579428D02*
X54191428Y-134722285D01*
X54191428Y-134722285D02*
X54191428Y-135150857D01*
X54191428Y-135150857D02*
X54120000Y-135293714D01*
X54120000Y-135293714D02*
X54048571Y-135365142D01*
X54048571Y-135365142D02*
X53905714Y-135436571D01*
X53905714Y-135436571D02*
X53620000Y-135436571D01*
X53620000Y-135436571D02*
X53477142Y-135365142D01*
X55477143Y-134436571D02*
X55477143Y-135436571D01*
X54834285Y-134436571D02*
X54834285Y-135222285D01*
X54834285Y-135222285D02*
X54905714Y-135365142D01*
X54905714Y-135365142D02*
X55048571Y-135436571D01*
X55048571Y-135436571D02*
X55262857Y-135436571D01*
X55262857Y-135436571D02*
X55405714Y-135365142D01*
X55405714Y-135365142D02*
X55477143Y-135293714D01*
X55977143Y-134436571D02*
X56548571Y-134436571D01*
X56191428Y-133936571D02*
X56191428Y-135222285D01*
X56191428Y-135222285D02*
X56262857Y-135365142D01*
X56262857Y-135365142D02*
X56405714Y-135436571D01*
X56405714Y-135436571D02*
X56548571Y-135436571D01*
X109053357Y-131182142D02*
X107910500Y-131182142D01*
X108481928Y-131753571D02*
X108481928Y-130610714D01*
X129442857Y-78742142D02*
X128300000Y-78742142D01*
X128871428Y-79313571D02*
X128871428Y-78170714D01*
D11*
X49265987Y-87963142D02*
X49218368Y-88010761D01*
X49218368Y-88010761D02*
X49075511Y-88058380D01*
X49075511Y-88058380D02*
X48980273Y-88058380D01*
X48980273Y-88058380D02*
X48837416Y-88010761D01*
X48837416Y-88010761D02*
X48742178Y-87915523D01*
X48742178Y-87915523D02*
X48694559Y-87820285D01*
X48694559Y-87820285D02*
X48646940Y-87629809D01*
X48646940Y-87629809D02*
X48646940Y-87486952D01*
X48646940Y-87486952D02*
X48694559Y-87296476D01*
X48694559Y-87296476D02*
X48742178Y-87201238D01*
X48742178Y-87201238D02*
X48837416Y-87106000D01*
X48837416Y-87106000D02*
X48980273Y-87058380D01*
X48980273Y-87058380D02*
X49075511Y-87058380D01*
X49075511Y-87058380D02*
X49218368Y-87106000D01*
X49218368Y-87106000D02*
X49265987Y-87153619D01*
X50218368Y-88058380D02*
X49646940Y-88058380D01*
X49932654Y-88058380D02*
X49932654Y-87058380D01*
X49932654Y-87058380D02*
X49837416Y-87201238D01*
X49837416Y-87201238D02*
X49742178Y-87296476D01*
X49742178Y-87296476D02*
X49646940Y-87344095D01*
X50551702Y-87058380D02*
X51218368Y-87058380D01*
X51218368Y-87058380D02*
X50789797Y-88058380D01*
X46948178Y-93392380D02*
X46471988Y-93392380D01*
X46471988Y-93392380D02*
X46471988Y-92392380D01*
X47233893Y-92487619D02*
X47281512Y-92440000D01*
X47281512Y-92440000D02*
X47376750Y-92392380D01*
X47376750Y-92392380D02*
X47614845Y-92392380D01*
X47614845Y-92392380D02*
X47710083Y-92440000D01*
X47710083Y-92440000D02*
X47757702Y-92487619D01*
X47757702Y-92487619D02*
X47805321Y-92582857D01*
X47805321Y-92582857D02*
X47805321Y-92678095D01*
X47805321Y-92678095D02*
X47757702Y-92820952D01*
X47757702Y-92820952D02*
X47186274Y-93392380D01*
X47186274Y-93392380D02*
X47805321Y-93392380D01*
X114475750Y-52387380D02*
X114475750Y-51387380D01*
X114475750Y-51387380D02*
X114713845Y-51387380D01*
X114713845Y-51387380D02*
X114856702Y-51435000D01*
X114856702Y-51435000D02*
X114951940Y-51530238D01*
X114951940Y-51530238D02*
X114999559Y-51625476D01*
X114999559Y-51625476D02*
X115047178Y-51815952D01*
X115047178Y-51815952D02*
X115047178Y-51958809D01*
X115047178Y-51958809D02*
X114999559Y-52149285D01*
X114999559Y-52149285D02*
X114951940Y-52244523D01*
X114951940Y-52244523D02*
X114856702Y-52339761D01*
X114856702Y-52339761D02*
X114713845Y-52387380D01*
X114713845Y-52387380D02*
X114475750Y-52387380D01*
X115380512Y-51387380D02*
X115999559Y-51387380D01*
X115999559Y-51387380D02*
X115666226Y-51768333D01*
X115666226Y-51768333D02*
X115809083Y-51768333D01*
X115809083Y-51768333D02*
X115904321Y-51815952D01*
X115904321Y-51815952D02*
X115951940Y-51863571D01*
X115951940Y-51863571D02*
X115999559Y-51958809D01*
X115999559Y-51958809D02*
X115999559Y-52196904D01*
X115999559Y-52196904D02*
X115951940Y-52292142D01*
X115951940Y-52292142D02*
X115904321Y-52339761D01*
X115904321Y-52339761D02*
X115809083Y-52387380D01*
X115809083Y-52387380D02*
X115523369Y-52387380D01*
X115523369Y-52387380D02*
X115428131Y-52339761D01*
X115428131Y-52339761D02*
X115380512Y-52292142D01*
X96752619Y-100486905D02*
X97752619Y-100486905D01*
X96752619Y-101058333D02*
X97324047Y-100629762D01*
X97752619Y-101058333D02*
X97181190Y-100486905D01*
X97752619Y-101915476D02*
X97752619Y-101725000D01*
X97752619Y-101725000D02*
X97705000Y-101629762D01*
X97705000Y-101629762D02*
X97657380Y-101582143D01*
X97657380Y-101582143D02*
X97514523Y-101486905D01*
X97514523Y-101486905D02*
X97324047Y-101439286D01*
X97324047Y-101439286D02*
X96943095Y-101439286D01*
X96943095Y-101439286D02*
X96847857Y-101486905D01*
X96847857Y-101486905D02*
X96800238Y-101534524D01*
X96800238Y-101534524D02*
X96752619Y-101629762D01*
X96752619Y-101629762D02*
X96752619Y-101820238D01*
X96752619Y-101820238D02*
X96800238Y-101915476D01*
X96800238Y-101915476D02*
X96847857Y-101963095D01*
X96847857Y-101963095D02*
X96943095Y-102010714D01*
X96943095Y-102010714D02*
X97181190Y-102010714D01*
X97181190Y-102010714D02*
X97276428Y-101963095D01*
X97276428Y-101963095D02*
X97324047Y-101915476D01*
X97324047Y-101915476D02*
X97371666Y-101820238D01*
X97371666Y-101820238D02*
X97371666Y-101629762D01*
X97371666Y-101629762D02*
X97324047Y-101534524D01*
X97324047Y-101534524D02*
X97276428Y-101486905D01*
X97276428Y-101486905D02*
X97181190Y-101439286D01*
X42286594Y-74737433D02*
X42286594Y-75549449D01*
X42286594Y-75549449D02*
X42334360Y-75644981D01*
X42334360Y-75644981D02*
X42382125Y-75692746D01*
X42382125Y-75692746D02*
X42477657Y-75740512D01*
X42477657Y-75740512D02*
X42668719Y-75740512D01*
X42668719Y-75740512D02*
X42764251Y-75692746D01*
X42764251Y-75692746D02*
X42812016Y-75644981D01*
X42812016Y-75644981D02*
X42859782Y-75549449D01*
X42859782Y-75549449D02*
X42859782Y-74737433D01*
X43289673Y-74832964D02*
X43337439Y-74785199D01*
X43337439Y-74785199D02*
X43432970Y-74737433D01*
X43432970Y-74737433D02*
X43671799Y-74737433D01*
X43671799Y-74737433D02*
X43767330Y-74785199D01*
X43767330Y-74785199D02*
X43815096Y-74832964D01*
X43815096Y-74832964D02*
X43862861Y-74928496D01*
X43862861Y-74928496D02*
X43862861Y-75024027D01*
X43862861Y-75024027D02*
X43815096Y-75167324D01*
X43815096Y-75167324D02*
X43241908Y-75740512D01*
X43241908Y-75740512D02*
X43862861Y-75740512D01*
X50981464Y-79143333D02*
X51457654Y-78810000D01*
X50981464Y-78571905D02*
X51981464Y-78571905D01*
X51981464Y-78571905D02*
X51981464Y-78952857D01*
X51981464Y-78952857D02*
X51933845Y-79048095D01*
X51933845Y-79048095D02*
X51886225Y-79095714D01*
X51886225Y-79095714D02*
X51790987Y-79143333D01*
X51790987Y-79143333D02*
X51648130Y-79143333D01*
X51648130Y-79143333D02*
X51552892Y-79095714D01*
X51552892Y-79095714D02*
X51505273Y-79048095D01*
X51505273Y-79048095D02*
X51457654Y-78952857D01*
X51457654Y-78952857D02*
X51457654Y-78571905D01*
X51981464Y-79476667D02*
X51981464Y-80095714D01*
X51981464Y-80095714D02*
X51600511Y-79762381D01*
X51600511Y-79762381D02*
X51600511Y-79905238D01*
X51600511Y-79905238D02*
X51552892Y-80000476D01*
X51552892Y-80000476D02*
X51505273Y-80048095D01*
X51505273Y-80048095D02*
X51410035Y-80095714D01*
X51410035Y-80095714D02*
X51171940Y-80095714D01*
X51171940Y-80095714D02*
X51076702Y-80048095D01*
X51076702Y-80048095D02*
X51029083Y-80000476D01*
X51029083Y-80000476D02*
X50981464Y-79905238D01*
X50981464Y-79905238D02*
X50981464Y-79619524D01*
X50981464Y-79619524D02*
X51029083Y-79524286D01*
X51029083Y-79524286D02*
X51076702Y-79476667D01*
X76052702Y-78888333D02*
X76005083Y-78840714D01*
X76005083Y-78840714D02*
X75957464Y-78697857D01*
X75957464Y-78697857D02*
X75957464Y-78602619D01*
X75957464Y-78602619D02*
X76005083Y-78459762D01*
X76005083Y-78459762D02*
X76100321Y-78364524D01*
X76100321Y-78364524D02*
X76195559Y-78316905D01*
X76195559Y-78316905D02*
X76386035Y-78269286D01*
X76386035Y-78269286D02*
X76528892Y-78269286D01*
X76528892Y-78269286D02*
X76719368Y-78316905D01*
X76719368Y-78316905D02*
X76814606Y-78364524D01*
X76814606Y-78364524D02*
X76909845Y-78459762D01*
X76909845Y-78459762D02*
X76957464Y-78602619D01*
X76957464Y-78602619D02*
X76957464Y-78697857D01*
X76957464Y-78697857D02*
X76909845Y-78840714D01*
X76909845Y-78840714D02*
X76862225Y-78888333D01*
X76624130Y-79745476D02*
X75957464Y-79745476D01*
X77005083Y-79507381D02*
X76290797Y-79269286D01*
X76290797Y-79269286D02*
X76290797Y-79888333D01*
X33158464Y-83333333D02*
X33634654Y-83000000D01*
X33158464Y-82761905D02*
X34158464Y-82761905D01*
X34158464Y-82761905D02*
X34158464Y-83142857D01*
X34158464Y-83142857D02*
X34110845Y-83238095D01*
X34110845Y-83238095D02*
X34063225Y-83285714D01*
X34063225Y-83285714D02*
X33967987Y-83333333D01*
X33967987Y-83333333D02*
X33825130Y-83333333D01*
X33825130Y-83333333D02*
X33729892Y-83285714D01*
X33729892Y-83285714D02*
X33682273Y-83238095D01*
X33682273Y-83238095D02*
X33634654Y-83142857D01*
X33634654Y-83142857D02*
X33634654Y-82761905D01*
X34158464Y-84190476D02*
X34158464Y-84000000D01*
X34158464Y-84000000D02*
X34110845Y-83904762D01*
X34110845Y-83904762D02*
X34063225Y-83857143D01*
X34063225Y-83857143D02*
X33920368Y-83761905D01*
X33920368Y-83761905D02*
X33729892Y-83714286D01*
X33729892Y-83714286D02*
X33348940Y-83714286D01*
X33348940Y-83714286D02*
X33253702Y-83761905D01*
X33253702Y-83761905D02*
X33206083Y-83809524D01*
X33206083Y-83809524D02*
X33158464Y-83904762D01*
X33158464Y-83904762D02*
X33158464Y-84095238D01*
X33158464Y-84095238D02*
X33206083Y-84190476D01*
X33206083Y-84190476D02*
X33253702Y-84238095D01*
X33253702Y-84238095D02*
X33348940Y-84285714D01*
X33348940Y-84285714D02*
X33587035Y-84285714D01*
X33587035Y-84285714D02*
X33682273Y-84238095D01*
X33682273Y-84238095D02*
X33729892Y-84190476D01*
X33729892Y-84190476D02*
X33777511Y-84095238D01*
X33777511Y-84095238D02*
X33777511Y-83904762D01*
X33777511Y-83904762D02*
X33729892Y-83809524D01*
X33729892Y-83809524D02*
X33682273Y-83761905D01*
X33682273Y-83761905D02*
X33587035Y-83714286D01*
X63766667Y-28679761D02*
X63909524Y-28727380D01*
X63909524Y-28727380D02*
X64147619Y-28727380D01*
X64147619Y-28727380D02*
X64242857Y-28679761D01*
X64242857Y-28679761D02*
X64290476Y-28632142D01*
X64290476Y-28632142D02*
X64338095Y-28536904D01*
X64338095Y-28536904D02*
X64338095Y-28441666D01*
X64338095Y-28441666D02*
X64290476Y-28346428D01*
X64290476Y-28346428D02*
X64242857Y-28298809D01*
X64242857Y-28298809D02*
X64147619Y-28251190D01*
X64147619Y-28251190D02*
X63957143Y-28203571D01*
X63957143Y-28203571D02*
X63861905Y-28155952D01*
X63861905Y-28155952D02*
X63814286Y-28108333D01*
X63814286Y-28108333D02*
X63766667Y-28013095D01*
X63766667Y-28013095D02*
X63766667Y-27917857D01*
X63766667Y-27917857D02*
X63814286Y-27822619D01*
X63814286Y-27822619D02*
X63861905Y-27775000D01*
X63861905Y-27775000D02*
X63957143Y-27727380D01*
X63957143Y-27727380D02*
X64195238Y-27727380D01*
X64195238Y-27727380D02*
X64338095Y-27775000D01*
X64671429Y-27727380D02*
X64909524Y-28727380D01*
X64909524Y-28727380D02*
X65100000Y-28013095D01*
X65100000Y-28013095D02*
X65290476Y-28727380D01*
X65290476Y-28727380D02*
X65528572Y-27727380D01*
X66433333Y-28727380D02*
X65861905Y-28727380D01*
X66147619Y-28727380D02*
X66147619Y-27727380D01*
X66147619Y-27727380D02*
X66052381Y-27870238D01*
X66052381Y-27870238D02*
X65957143Y-27965476D01*
X65957143Y-27965476D02*
X65861905Y-28013095D01*
X25870987Y-86507380D02*
X25537654Y-86031190D01*
X25299559Y-86507380D02*
X25299559Y-85507380D01*
X25299559Y-85507380D02*
X25680511Y-85507380D01*
X25680511Y-85507380D02*
X25775749Y-85555000D01*
X25775749Y-85555000D02*
X25823368Y-85602619D01*
X25823368Y-85602619D02*
X25870987Y-85697857D01*
X25870987Y-85697857D02*
X25870987Y-85840714D01*
X25870987Y-85840714D02*
X25823368Y-85935952D01*
X25823368Y-85935952D02*
X25775749Y-85983571D01*
X25775749Y-85983571D02*
X25680511Y-86031190D01*
X25680511Y-86031190D02*
X25299559Y-86031190D01*
X26251940Y-85602619D02*
X26299559Y-85555000D01*
X26299559Y-85555000D02*
X26394797Y-85507380D01*
X26394797Y-85507380D02*
X26632892Y-85507380D01*
X26632892Y-85507380D02*
X26728130Y-85555000D01*
X26728130Y-85555000D02*
X26775749Y-85602619D01*
X26775749Y-85602619D02*
X26823368Y-85697857D01*
X26823368Y-85697857D02*
X26823368Y-85793095D01*
X26823368Y-85793095D02*
X26775749Y-85935952D01*
X26775749Y-85935952D02*
X26204321Y-86507380D01*
X26204321Y-86507380D02*
X26823368Y-86507380D01*
X27680511Y-85840714D02*
X27680511Y-86507380D01*
X27442416Y-85459761D02*
X27204321Y-86174047D01*
X27204321Y-86174047D02*
X27823368Y-86174047D01*
X46847225Y-74998857D02*
X46371035Y-75332190D01*
X46847225Y-75570285D02*
X45847225Y-75570285D01*
X45847225Y-75570285D02*
X45847225Y-75189333D01*
X45847225Y-75189333D02*
X45894845Y-75094095D01*
X45894845Y-75094095D02*
X45942464Y-75046476D01*
X45942464Y-75046476D02*
X46037702Y-74998857D01*
X46037702Y-74998857D02*
X46180559Y-74998857D01*
X46180559Y-74998857D02*
X46275797Y-75046476D01*
X46275797Y-75046476D02*
X46323416Y-75094095D01*
X46323416Y-75094095D02*
X46371035Y-75189333D01*
X46371035Y-75189333D02*
X46371035Y-75570285D01*
X46847225Y-74046476D02*
X46847225Y-74617904D01*
X46847225Y-74332190D02*
X45847225Y-74332190D01*
X45847225Y-74332190D02*
X45990083Y-74427428D01*
X45990083Y-74427428D02*
X46085321Y-74522666D01*
X46085321Y-74522666D02*
X46132940Y-74617904D01*
X45847225Y-73713142D02*
X45847225Y-73046476D01*
X45847225Y-73046476D02*
X46847225Y-73475047D01*
X28533178Y-93392380D02*
X28056988Y-93392380D01*
X28056988Y-93392380D02*
X28056988Y-92392380D01*
X28771274Y-92392380D02*
X29390321Y-92392380D01*
X29390321Y-92392380D02*
X29056988Y-92773333D01*
X29056988Y-92773333D02*
X29199845Y-92773333D01*
X29199845Y-92773333D02*
X29295083Y-92820952D01*
X29295083Y-92820952D02*
X29342702Y-92868571D01*
X29342702Y-92868571D02*
X29390321Y-92963809D01*
X29390321Y-92963809D02*
X29390321Y-93201904D01*
X29390321Y-93201904D02*
X29342702Y-93297142D01*
X29342702Y-93297142D02*
X29295083Y-93344761D01*
X29295083Y-93344761D02*
X29199845Y-93392380D01*
X29199845Y-93392380D02*
X28914131Y-93392380D01*
X28914131Y-93392380D02*
X28818893Y-93344761D01*
X28818893Y-93344761D02*
X28771274Y-93297142D01*
X54011463Y-93232142D02*
X53963844Y-93279761D01*
X53963844Y-93279761D02*
X53820987Y-93327380D01*
X53820987Y-93327380D02*
X53725749Y-93327380D01*
X53725749Y-93327380D02*
X53582892Y-93279761D01*
X53582892Y-93279761D02*
X53487654Y-93184523D01*
X53487654Y-93184523D02*
X53440035Y-93089285D01*
X53440035Y-93089285D02*
X53392416Y-92898809D01*
X53392416Y-92898809D02*
X53392416Y-92755952D01*
X53392416Y-92755952D02*
X53440035Y-92565476D01*
X53440035Y-92565476D02*
X53487654Y-92470238D01*
X53487654Y-92470238D02*
X53582892Y-92375000D01*
X53582892Y-92375000D02*
X53725749Y-92327380D01*
X53725749Y-92327380D02*
X53820987Y-92327380D01*
X53820987Y-92327380D02*
X53963844Y-92375000D01*
X53963844Y-92375000D02*
X54011463Y-92422619D01*
X54963844Y-93327380D02*
X54392416Y-93327380D01*
X54678130Y-93327380D02*
X54678130Y-92327380D01*
X54678130Y-92327380D02*
X54582892Y-92470238D01*
X54582892Y-92470238D02*
X54487654Y-92565476D01*
X54487654Y-92565476D02*
X54392416Y-92613095D01*
X55440035Y-93327380D02*
X55630511Y-93327380D01*
X55630511Y-93327380D02*
X55725749Y-93279761D01*
X55725749Y-93279761D02*
X55773368Y-93232142D01*
X55773368Y-93232142D02*
X55868606Y-93089285D01*
X55868606Y-93089285D02*
X55916225Y-92898809D01*
X55916225Y-92898809D02*
X55916225Y-92517857D01*
X55916225Y-92517857D02*
X55868606Y-92422619D01*
X55868606Y-92422619D02*
X55820987Y-92375000D01*
X55820987Y-92375000D02*
X55725749Y-92327380D01*
X55725749Y-92327380D02*
X55535273Y-92327380D01*
X55535273Y-92327380D02*
X55440035Y-92375000D01*
X55440035Y-92375000D02*
X55392416Y-92422619D01*
X55392416Y-92422619D02*
X55344797Y-92517857D01*
X55344797Y-92517857D02*
X55344797Y-92755952D01*
X55344797Y-92755952D02*
X55392416Y-92851190D01*
X55392416Y-92851190D02*
X55440035Y-92898809D01*
X55440035Y-92898809D02*
X55535273Y-92946428D01*
X55535273Y-92946428D02*
X55725749Y-92946428D01*
X55725749Y-92946428D02*
X55820987Y-92898809D01*
X55820987Y-92898809D02*
X55868606Y-92851190D01*
X55868606Y-92851190D02*
X55916225Y-92755952D01*
X56201940Y-92946428D02*
X56249559Y-92898809D01*
X56249559Y-92898809D02*
X56344797Y-92851190D01*
X56344797Y-92851190D02*
X56535273Y-92946428D01*
X56535273Y-92946428D02*
X56630511Y-92898809D01*
X56630511Y-92898809D02*
X56678130Y-92851190D01*
X57630511Y-93232142D02*
X57582892Y-93279761D01*
X57582892Y-93279761D02*
X57440035Y-93327380D01*
X57440035Y-93327380D02*
X57344797Y-93327380D01*
X57344797Y-93327380D02*
X57201940Y-93279761D01*
X57201940Y-93279761D02*
X57106702Y-93184523D01*
X57106702Y-93184523D02*
X57059083Y-93089285D01*
X57059083Y-93089285D02*
X57011464Y-92898809D01*
X57011464Y-92898809D02*
X57011464Y-92755952D01*
X57011464Y-92755952D02*
X57059083Y-92565476D01*
X57059083Y-92565476D02*
X57106702Y-92470238D01*
X57106702Y-92470238D02*
X57201940Y-92375000D01*
X57201940Y-92375000D02*
X57344797Y-92327380D01*
X57344797Y-92327380D02*
X57440035Y-92327380D01*
X57440035Y-92327380D02*
X57582892Y-92375000D01*
X57582892Y-92375000D02*
X57630511Y-92422619D01*
X58011464Y-92422619D02*
X58059083Y-92375000D01*
X58059083Y-92375000D02*
X58154321Y-92327380D01*
X58154321Y-92327380D02*
X58392416Y-92327380D01*
X58392416Y-92327380D02*
X58487654Y-92375000D01*
X58487654Y-92375000D02*
X58535273Y-92422619D01*
X58535273Y-92422619D02*
X58582892Y-92517857D01*
X58582892Y-92517857D02*
X58582892Y-92613095D01*
X58582892Y-92613095D02*
X58535273Y-92755952D01*
X58535273Y-92755952D02*
X57963845Y-93327380D01*
X57963845Y-93327380D02*
X58582892Y-93327380D01*
X59487654Y-92327380D02*
X59011464Y-92327380D01*
X59011464Y-92327380D02*
X58963845Y-92803571D01*
X58963845Y-92803571D02*
X59011464Y-92755952D01*
X59011464Y-92755952D02*
X59106702Y-92708333D01*
X59106702Y-92708333D02*
X59344797Y-92708333D01*
X59344797Y-92708333D02*
X59440035Y-92755952D01*
X59440035Y-92755952D02*
X59487654Y-92803571D01*
X59487654Y-92803571D02*
X59535273Y-92898809D01*
X59535273Y-92898809D02*
X59535273Y-93136904D01*
X59535273Y-93136904D02*
X59487654Y-93232142D01*
X59487654Y-93232142D02*
X59440035Y-93279761D01*
X59440035Y-93279761D02*
X59344797Y-93327380D01*
X59344797Y-93327380D02*
X59106702Y-93327380D01*
X59106702Y-93327380D02*
X59011464Y-93279761D01*
X59011464Y-93279761D02*
X58963845Y-93232142D01*
X72655464Y-78888333D02*
X73131654Y-78555000D01*
X72655464Y-78316905D02*
X73655464Y-78316905D01*
X73655464Y-78316905D02*
X73655464Y-78697857D01*
X73655464Y-78697857D02*
X73607845Y-78793095D01*
X73607845Y-78793095D02*
X73560225Y-78840714D01*
X73560225Y-78840714D02*
X73464987Y-78888333D01*
X73464987Y-78888333D02*
X73322130Y-78888333D01*
X73322130Y-78888333D02*
X73226892Y-78840714D01*
X73226892Y-78840714D02*
X73179273Y-78793095D01*
X73179273Y-78793095D02*
X73131654Y-78697857D01*
X73131654Y-78697857D02*
X73131654Y-78316905D01*
X72655464Y-79840714D02*
X72655464Y-79269286D01*
X72655464Y-79555000D02*
X73655464Y-79555000D01*
X73655464Y-79555000D02*
X73512606Y-79459762D01*
X73512606Y-79459762D02*
X73417368Y-79364524D01*
X73417368Y-79364524D02*
X73369749Y-79269286D01*
X29067225Y-74998857D02*
X28591035Y-75332190D01*
X29067225Y-75570285D02*
X28067225Y-75570285D01*
X28067225Y-75570285D02*
X28067225Y-75189333D01*
X28067225Y-75189333D02*
X28114845Y-75094095D01*
X28114845Y-75094095D02*
X28162464Y-75046476D01*
X28162464Y-75046476D02*
X28257702Y-74998857D01*
X28257702Y-74998857D02*
X28400559Y-74998857D01*
X28400559Y-74998857D02*
X28495797Y-75046476D01*
X28495797Y-75046476D02*
X28543416Y-75094095D01*
X28543416Y-75094095D02*
X28591035Y-75189333D01*
X28591035Y-75189333D02*
X28591035Y-75570285D01*
X29067225Y-74046476D02*
X29067225Y-74617904D01*
X29067225Y-74332190D02*
X28067225Y-74332190D01*
X28067225Y-74332190D02*
X28210083Y-74427428D01*
X28210083Y-74427428D02*
X28305321Y-74522666D01*
X28305321Y-74522666D02*
X28352940Y-74617904D01*
X28495797Y-73475047D02*
X28448178Y-73570285D01*
X28448178Y-73570285D02*
X28400559Y-73617904D01*
X28400559Y-73617904D02*
X28305321Y-73665523D01*
X28305321Y-73665523D02*
X28257702Y-73665523D01*
X28257702Y-73665523D02*
X28162464Y-73617904D01*
X28162464Y-73617904D02*
X28114845Y-73570285D01*
X28114845Y-73570285D02*
X28067225Y-73475047D01*
X28067225Y-73475047D02*
X28067225Y-73284571D01*
X28067225Y-73284571D02*
X28114845Y-73189333D01*
X28114845Y-73189333D02*
X28162464Y-73141714D01*
X28162464Y-73141714D02*
X28257702Y-73094095D01*
X28257702Y-73094095D02*
X28305321Y-73094095D01*
X28305321Y-73094095D02*
X28400559Y-73141714D01*
X28400559Y-73141714D02*
X28448178Y-73189333D01*
X28448178Y-73189333D02*
X28495797Y-73284571D01*
X28495797Y-73284571D02*
X28495797Y-73475047D01*
X28495797Y-73475047D02*
X28543416Y-73570285D01*
X28543416Y-73570285D02*
X28591035Y-73617904D01*
X28591035Y-73617904D02*
X28686273Y-73665523D01*
X28686273Y-73665523D02*
X28876749Y-73665523D01*
X28876749Y-73665523D02*
X28971987Y-73617904D01*
X28971987Y-73617904D02*
X29019606Y-73570285D01*
X29019606Y-73570285D02*
X29067225Y-73475047D01*
X29067225Y-73475047D02*
X29067225Y-73284571D01*
X29067225Y-73284571D02*
X29019606Y-73189333D01*
X29019606Y-73189333D02*
X28971987Y-73141714D01*
X28971987Y-73141714D02*
X28876749Y-73094095D01*
X28876749Y-73094095D02*
X28686273Y-73094095D01*
X28686273Y-73094095D02*
X28591035Y-73141714D01*
X28591035Y-73141714D02*
X28543416Y-73189333D01*
X28543416Y-73189333D02*
X28495797Y-73284571D01*
X74331463Y-93232142D02*
X74283844Y-93279761D01*
X74283844Y-93279761D02*
X74140987Y-93327380D01*
X74140987Y-93327380D02*
X74045749Y-93327380D01*
X74045749Y-93327380D02*
X73902892Y-93279761D01*
X73902892Y-93279761D02*
X73807654Y-93184523D01*
X73807654Y-93184523D02*
X73760035Y-93089285D01*
X73760035Y-93089285D02*
X73712416Y-92898809D01*
X73712416Y-92898809D02*
X73712416Y-92755952D01*
X73712416Y-92755952D02*
X73760035Y-92565476D01*
X73760035Y-92565476D02*
X73807654Y-92470238D01*
X73807654Y-92470238D02*
X73902892Y-92375000D01*
X73902892Y-92375000D02*
X74045749Y-92327380D01*
X74045749Y-92327380D02*
X74140987Y-92327380D01*
X74140987Y-92327380D02*
X74283844Y-92375000D01*
X74283844Y-92375000D02*
X74331463Y-92422619D01*
X74712416Y-92422619D02*
X74760035Y-92375000D01*
X74760035Y-92375000D02*
X74855273Y-92327380D01*
X74855273Y-92327380D02*
X75093368Y-92327380D01*
X75093368Y-92327380D02*
X75188606Y-92375000D01*
X75188606Y-92375000D02*
X75236225Y-92422619D01*
X75236225Y-92422619D02*
X75283844Y-92517857D01*
X75283844Y-92517857D02*
X75283844Y-92613095D01*
X75283844Y-92613095D02*
X75236225Y-92755952D01*
X75236225Y-92755952D02*
X74664797Y-93327380D01*
X74664797Y-93327380D02*
X75283844Y-93327380D01*
X76140987Y-92327380D02*
X75950511Y-92327380D01*
X75950511Y-92327380D02*
X75855273Y-92375000D01*
X75855273Y-92375000D02*
X75807654Y-92422619D01*
X75807654Y-92422619D02*
X75712416Y-92565476D01*
X75712416Y-92565476D02*
X75664797Y-92755952D01*
X75664797Y-92755952D02*
X75664797Y-93136904D01*
X75664797Y-93136904D02*
X75712416Y-93232142D01*
X75712416Y-93232142D02*
X75760035Y-93279761D01*
X75760035Y-93279761D02*
X75855273Y-93327380D01*
X75855273Y-93327380D02*
X76045749Y-93327380D01*
X76045749Y-93327380D02*
X76140987Y-93279761D01*
X76140987Y-93279761D02*
X76188606Y-93232142D01*
X76188606Y-93232142D02*
X76236225Y-93136904D01*
X76236225Y-93136904D02*
X76236225Y-92898809D01*
X76236225Y-92898809D02*
X76188606Y-92803571D01*
X76188606Y-92803571D02*
X76140987Y-92755952D01*
X76140987Y-92755952D02*
X76045749Y-92708333D01*
X76045749Y-92708333D02*
X75855273Y-92708333D01*
X75855273Y-92708333D02*
X75760035Y-92755952D01*
X75760035Y-92755952D02*
X75712416Y-92803571D01*
X75712416Y-92803571D02*
X75664797Y-92898809D01*
X76521940Y-92946428D02*
X76569559Y-92898809D01*
X76569559Y-92898809D02*
X76664797Y-92851190D01*
X76664797Y-92851190D02*
X76855273Y-92946428D01*
X76855273Y-92946428D02*
X76950511Y-92898809D01*
X76950511Y-92898809D02*
X76998130Y-92851190D01*
X77950511Y-93232142D02*
X77902892Y-93279761D01*
X77902892Y-93279761D02*
X77760035Y-93327380D01*
X77760035Y-93327380D02*
X77664797Y-93327380D01*
X77664797Y-93327380D02*
X77521940Y-93279761D01*
X77521940Y-93279761D02*
X77426702Y-93184523D01*
X77426702Y-93184523D02*
X77379083Y-93089285D01*
X77379083Y-93089285D02*
X77331464Y-92898809D01*
X77331464Y-92898809D02*
X77331464Y-92755952D01*
X77331464Y-92755952D02*
X77379083Y-92565476D01*
X77379083Y-92565476D02*
X77426702Y-92470238D01*
X77426702Y-92470238D02*
X77521940Y-92375000D01*
X77521940Y-92375000D02*
X77664797Y-92327380D01*
X77664797Y-92327380D02*
X77760035Y-92327380D01*
X77760035Y-92327380D02*
X77902892Y-92375000D01*
X77902892Y-92375000D02*
X77950511Y-92422619D01*
X78283845Y-92327380D02*
X78902892Y-92327380D01*
X78902892Y-92327380D02*
X78569559Y-92708333D01*
X78569559Y-92708333D02*
X78712416Y-92708333D01*
X78712416Y-92708333D02*
X78807654Y-92755952D01*
X78807654Y-92755952D02*
X78855273Y-92803571D01*
X78855273Y-92803571D02*
X78902892Y-92898809D01*
X78902892Y-92898809D02*
X78902892Y-93136904D01*
X78902892Y-93136904D02*
X78855273Y-93232142D01*
X78855273Y-93232142D02*
X78807654Y-93279761D01*
X78807654Y-93279761D02*
X78712416Y-93327380D01*
X78712416Y-93327380D02*
X78426702Y-93327380D01*
X78426702Y-93327380D02*
X78331464Y-93279761D01*
X78331464Y-93279761D02*
X78283845Y-93232142D01*
X79283845Y-92422619D02*
X79331464Y-92375000D01*
X79331464Y-92375000D02*
X79426702Y-92327380D01*
X79426702Y-92327380D02*
X79664797Y-92327380D01*
X79664797Y-92327380D02*
X79760035Y-92375000D01*
X79760035Y-92375000D02*
X79807654Y-92422619D01*
X79807654Y-92422619D02*
X79855273Y-92517857D01*
X79855273Y-92517857D02*
X79855273Y-92613095D01*
X79855273Y-92613095D02*
X79807654Y-92755952D01*
X79807654Y-92755952D02*
X79236226Y-93327380D01*
X79236226Y-93327380D02*
X79855273Y-93327380D01*
X114676464Y-118361905D02*
X115676464Y-118361905D01*
X115676464Y-118361905D02*
X115676464Y-118600000D01*
X115676464Y-118600000D02*
X115628845Y-118742857D01*
X115628845Y-118742857D02*
X115533606Y-118838095D01*
X115533606Y-118838095D02*
X115438368Y-118885714D01*
X115438368Y-118885714D02*
X115247892Y-118933333D01*
X115247892Y-118933333D02*
X115105035Y-118933333D01*
X115105035Y-118933333D02*
X114914559Y-118885714D01*
X114914559Y-118885714D02*
X114819321Y-118838095D01*
X114819321Y-118838095D02*
X114724083Y-118742857D01*
X114724083Y-118742857D02*
X114676464Y-118600000D01*
X114676464Y-118600000D02*
X114676464Y-118361905D01*
X115343130Y-119790476D02*
X114676464Y-119790476D01*
X115724083Y-119552381D02*
X115009797Y-119314286D01*
X115009797Y-119314286D02*
X115009797Y-119933333D01*
X93011905Y-29647380D02*
X93011905Y-28647380D01*
X93583333Y-29647380D02*
X93154762Y-29075952D01*
X93583333Y-28647380D02*
X93011905Y-29218809D01*
X94535714Y-29647380D02*
X93964286Y-29647380D01*
X94250000Y-29647380D02*
X94250000Y-28647380D01*
X94250000Y-28647380D02*
X94154762Y-28790238D01*
X94154762Y-28790238D02*
X94059524Y-28885476D01*
X94059524Y-28885476D02*
X93964286Y-28933095D01*
X70855987Y-88598142D02*
X70808368Y-88645761D01*
X70808368Y-88645761D02*
X70665511Y-88693380D01*
X70665511Y-88693380D02*
X70570273Y-88693380D01*
X70570273Y-88693380D02*
X70427416Y-88645761D01*
X70427416Y-88645761D02*
X70332178Y-88550523D01*
X70332178Y-88550523D02*
X70284559Y-88455285D01*
X70284559Y-88455285D02*
X70236940Y-88264809D01*
X70236940Y-88264809D02*
X70236940Y-88121952D01*
X70236940Y-88121952D02*
X70284559Y-87931476D01*
X70284559Y-87931476D02*
X70332178Y-87836238D01*
X70332178Y-87836238D02*
X70427416Y-87741000D01*
X70427416Y-87741000D02*
X70570273Y-87693380D01*
X70570273Y-87693380D02*
X70665511Y-87693380D01*
X70665511Y-87693380D02*
X70808368Y-87741000D01*
X70808368Y-87741000D02*
X70855987Y-87788619D01*
X71808368Y-88693380D02*
X71236940Y-88693380D01*
X71522654Y-88693380D02*
X71522654Y-87693380D01*
X71522654Y-87693380D02*
X71427416Y-87836238D01*
X71427416Y-87836238D02*
X71332178Y-87931476D01*
X71332178Y-87931476D02*
X71236940Y-87979095D01*
X72665511Y-87693380D02*
X72475035Y-87693380D01*
X72475035Y-87693380D02*
X72379797Y-87741000D01*
X72379797Y-87741000D02*
X72332178Y-87788619D01*
X72332178Y-87788619D02*
X72236940Y-87931476D01*
X72236940Y-87931476D02*
X72189321Y-88121952D01*
X72189321Y-88121952D02*
X72189321Y-88502904D01*
X72189321Y-88502904D02*
X72236940Y-88598142D01*
X72236940Y-88598142D02*
X72284559Y-88645761D01*
X72284559Y-88645761D02*
X72379797Y-88693380D01*
X72379797Y-88693380D02*
X72570273Y-88693380D01*
X72570273Y-88693380D02*
X72665511Y-88645761D01*
X72665511Y-88645761D02*
X72713130Y-88598142D01*
X72713130Y-88598142D02*
X72760749Y-88502904D01*
X72760749Y-88502904D02*
X72760749Y-88264809D01*
X72760749Y-88264809D02*
X72713130Y-88169571D01*
X72713130Y-88169571D02*
X72665511Y-88121952D01*
X72665511Y-88121952D02*
X72570273Y-88074333D01*
X72570273Y-88074333D02*
X72379797Y-88074333D01*
X72379797Y-88074333D02*
X72284559Y-88121952D01*
X72284559Y-88121952D02*
X72236940Y-88169571D01*
X72236940Y-88169571D02*
X72189321Y-88264809D01*
X114475750Y-32067380D02*
X114475750Y-31067380D01*
X114475750Y-31067380D02*
X114713845Y-31067380D01*
X114713845Y-31067380D02*
X114856702Y-31115000D01*
X114856702Y-31115000D02*
X114951940Y-31210238D01*
X114951940Y-31210238D02*
X114999559Y-31305476D01*
X114999559Y-31305476D02*
X115047178Y-31495952D01*
X115047178Y-31495952D02*
X115047178Y-31638809D01*
X115047178Y-31638809D02*
X114999559Y-31829285D01*
X114999559Y-31829285D02*
X114951940Y-31924523D01*
X114951940Y-31924523D02*
X114856702Y-32019761D01*
X114856702Y-32019761D02*
X114713845Y-32067380D01*
X114713845Y-32067380D02*
X114475750Y-32067380D01*
X115999559Y-32067380D02*
X115428131Y-32067380D01*
X115713845Y-32067380D02*
X115713845Y-31067380D01*
X115713845Y-31067380D02*
X115618607Y-31210238D01*
X115618607Y-31210238D02*
X115523369Y-31305476D01*
X115523369Y-31305476D02*
X115428131Y-31353095D01*
X49043750Y-116125380D02*
X49043750Y-115125380D01*
X49043750Y-115125380D02*
X49281845Y-115125380D01*
X49281845Y-115125380D02*
X49424702Y-115173000D01*
X49424702Y-115173000D02*
X49519940Y-115268238D01*
X49519940Y-115268238D02*
X49567559Y-115363476D01*
X49567559Y-115363476D02*
X49615178Y-115553952D01*
X49615178Y-115553952D02*
X49615178Y-115696809D01*
X49615178Y-115696809D02*
X49567559Y-115887285D01*
X49567559Y-115887285D02*
X49519940Y-115982523D01*
X49519940Y-115982523D02*
X49424702Y-116077761D01*
X49424702Y-116077761D02*
X49281845Y-116125380D01*
X49281845Y-116125380D02*
X49043750Y-116125380D01*
X49948512Y-115125380D02*
X50615178Y-115125380D01*
X50615178Y-115125380D02*
X50186607Y-116125380D01*
X54462702Y-79142333D02*
X54415083Y-79094714D01*
X54415083Y-79094714D02*
X54367464Y-78951857D01*
X54367464Y-78951857D02*
X54367464Y-78856619D01*
X54367464Y-78856619D02*
X54415083Y-78713762D01*
X54415083Y-78713762D02*
X54510321Y-78618524D01*
X54510321Y-78618524D02*
X54605559Y-78570905D01*
X54605559Y-78570905D02*
X54796035Y-78523286D01*
X54796035Y-78523286D02*
X54938892Y-78523286D01*
X54938892Y-78523286D02*
X55129368Y-78570905D01*
X55129368Y-78570905D02*
X55224606Y-78618524D01*
X55224606Y-78618524D02*
X55319845Y-78713762D01*
X55319845Y-78713762D02*
X55367464Y-78856619D01*
X55367464Y-78856619D02*
X55367464Y-78951857D01*
X55367464Y-78951857D02*
X55319845Y-79094714D01*
X55319845Y-79094714D02*
X55272225Y-79142333D01*
X55367464Y-80047095D02*
X55367464Y-79570905D01*
X55367464Y-79570905D02*
X54891273Y-79523286D01*
X54891273Y-79523286D02*
X54938892Y-79570905D01*
X54938892Y-79570905D02*
X54986511Y-79666143D01*
X54986511Y-79666143D02*
X54986511Y-79904238D01*
X54986511Y-79904238D02*
X54938892Y-79999476D01*
X54938892Y-79999476D02*
X54891273Y-80047095D01*
X54891273Y-80047095D02*
X54796035Y-80094714D01*
X54796035Y-80094714D02*
X54557940Y-80094714D01*
X54557940Y-80094714D02*
X54462702Y-80047095D01*
X54462702Y-80047095D02*
X54415083Y-79999476D01*
X54415083Y-79999476D02*
X54367464Y-79904238D01*
X54367464Y-79904238D02*
X54367464Y-79666143D01*
X54367464Y-79666143D02*
X54415083Y-79570905D01*
X54415083Y-79570905D02*
X54462702Y-79523286D01*
X93011905Y-70047380D02*
X93011905Y-69047380D01*
X93583333Y-70047380D02*
X93154762Y-69475952D01*
X93583333Y-69047380D02*
X93011905Y-69618809D01*
X94488095Y-69047380D02*
X94011905Y-69047380D01*
X94011905Y-69047380D02*
X93964286Y-69523571D01*
X93964286Y-69523571D02*
X94011905Y-69475952D01*
X94011905Y-69475952D02*
X94107143Y-69428333D01*
X94107143Y-69428333D02*
X94345238Y-69428333D01*
X94345238Y-69428333D02*
X94440476Y-69475952D01*
X94440476Y-69475952D02*
X94488095Y-69523571D01*
X94488095Y-69523571D02*
X94535714Y-69618809D01*
X94535714Y-69618809D02*
X94535714Y-69856904D01*
X94535714Y-69856904D02*
X94488095Y-69952142D01*
X94488095Y-69952142D02*
X94440476Y-69999761D01*
X94440476Y-69999761D02*
X94345238Y-70047380D01*
X94345238Y-70047380D02*
X94107143Y-70047380D01*
X94107143Y-70047380D02*
X94011905Y-69999761D01*
X94011905Y-69999761D02*
X93964286Y-69952142D01*
X29733987Y-90746857D02*
X29781606Y-90794476D01*
X29781606Y-90794476D02*
X29829225Y-90937333D01*
X29829225Y-90937333D02*
X29829225Y-91032571D01*
X29829225Y-91032571D02*
X29781606Y-91175428D01*
X29781606Y-91175428D02*
X29686368Y-91270666D01*
X29686368Y-91270666D02*
X29591130Y-91318285D01*
X29591130Y-91318285D02*
X29400654Y-91365904D01*
X29400654Y-91365904D02*
X29257797Y-91365904D01*
X29257797Y-91365904D02*
X29067321Y-91318285D01*
X29067321Y-91318285D02*
X28972083Y-91270666D01*
X28972083Y-91270666D02*
X28876845Y-91175428D01*
X28876845Y-91175428D02*
X28829225Y-91032571D01*
X28829225Y-91032571D02*
X28829225Y-90937333D01*
X28829225Y-90937333D02*
X28876845Y-90794476D01*
X28876845Y-90794476D02*
X28924464Y-90746857D01*
X29829225Y-89794476D02*
X29829225Y-90365904D01*
X29829225Y-90080190D02*
X28829225Y-90080190D01*
X28829225Y-90080190D02*
X28972083Y-90175428D01*
X28972083Y-90175428D02*
X29067321Y-90270666D01*
X29067321Y-90270666D02*
X29114940Y-90365904D01*
X29257797Y-89223047D02*
X29210178Y-89318285D01*
X29210178Y-89318285D02*
X29162559Y-89365904D01*
X29162559Y-89365904D02*
X29067321Y-89413523D01*
X29067321Y-89413523D02*
X29019702Y-89413523D01*
X29019702Y-89413523D02*
X28924464Y-89365904D01*
X28924464Y-89365904D02*
X28876845Y-89318285D01*
X28876845Y-89318285D02*
X28829225Y-89223047D01*
X28829225Y-89223047D02*
X28829225Y-89032571D01*
X28829225Y-89032571D02*
X28876845Y-88937333D01*
X28876845Y-88937333D02*
X28924464Y-88889714D01*
X28924464Y-88889714D02*
X29019702Y-88842095D01*
X29019702Y-88842095D02*
X29067321Y-88842095D01*
X29067321Y-88842095D02*
X29162559Y-88889714D01*
X29162559Y-88889714D02*
X29210178Y-88937333D01*
X29210178Y-88937333D02*
X29257797Y-89032571D01*
X29257797Y-89032571D02*
X29257797Y-89223047D01*
X29257797Y-89223047D02*
X29305416Y-89318285D01*
X29305416Y-89318285D02*
X29353035Y-89365904D01*
X29353035Y-89365904D02*
X29448273Y-89413523D01*
X29448273Y-89413523D02*
X29638749Y-89413523D01*
X29638749Y-89413523D02*
X29733987Y-89365904D01*
X29733987Y-89365904D02*
X29781606Y-89318285D01*
X29781606Y-89318285D02*
X29829225Y-89223047D01*
X29829225Y-89223047D02*
X29829225Y-89032571D01*
X29829225Y-89032571D02*
X29781606Y-88937333D01*
X29781606Y-88937333D02*
X29733987Y-88889714D01*
X29733987Y-88889714D02*
X29638749Y-88842095D01*
X29638749Y-88842095D02*
X29448273Y-88842095D01*
X29448273Y-88842095D02*
X29353035Y-88889714D01*
X29353035Y-88889714D02*
X29305416Y-88937333D01*
X29305416Y-88937333D02*
X29257797Y-89032571D01*
X72247225Y-82396666D02*
X71771035Y-82729999D01*
X72247225Y-82968094D02*
X71247225Y-82968094D01*
X71247225Y-82968094D02*
X71247225Y-82587142D01*
X71247225Y-82587142D02*
X71294845Y-82491904D01*
X71294845Y-82491904D02*
X71342464Y-82444285D01*
X71342464Y-82444285D02*
X71437702Y-82396666D01*
X71437702Y-82396666D02*
X71580559Y-82396666D01*
X71580559Y-82396666D02*
X71675797Y-82444285D01*
X71675797Y-82444285D02*
X71723416Y-82491904D01*
X71723416Y-82491904D02*
X71771035Y-82587142D01*
X71771035Y-82587142D02*
X71771035Y-82968094D01*
X71342464Y-82015713D02*
X71294845Y-81968094D01*
X71294845Y-81968094D02*
X71247225Y-81872856D01*
X71247225Y-81872856D02*
X71247225Y-81634761D01*
X71247225Y-81634761D02*
X71294845Y-81539523D01*
X71294845Y-81539523D02*
X71342464Y-81491904D01*
X71342464Y-81491904D02*
X71437702Y-81444285D01*
X71437702Y-81444285D02*
X71532940Y-81444285D01*
X71532940Y-81444285D02*
X71675797Y-81491904D01*
X71675797Y-81491904D02*
X72247225Y-82063332D01*
X72247225Y-82063332D02*
X72247225Y-81444285D01*
X65135225Y-89222857D02*
X64659035Y-89556190D01*
X65135225Y-89794285D02*
X64135225Y-89794285D01*
X64135225Y-89794285D02*
X64135225Y-89413333D01*
X64135225Y-89413333D02*
X64182845Y-89318095D01*
X64182845Y-89318095D02*
X64230464Y-89270476D01*
X64230464Y-89270476D02*
X64325702Y-89222857D01*
X64325702Y-89222857D02*
X64468559Y-89222857D01*
X64468559Y-89222857D02*
X64563797Y-89270476D01*
X64563797Y-89270476D02*
X64611416Y-89318095D01*
X64611416Y-89318095D02*
X64659035Y-89413333D01*
X64659035Y-89413333D02*
X64659035Y-89794285D01*
X65135225Y-88270476D02*
X65135225Y-88841904D01*
X65135225Y-88556190D02*
X64135225Y-88556190D01*
X64135225Y-88556190D02*
X64278083Y-88651428D01*
X64278083Y-88651428D02*
X64373321Y-88746666D01*
X64373321Y-88746666D02*
X64420940Y-88841904D01*
X65135225Y-87794285D02*
X65135225Y-87603809D01*
X65135225Y-87603809D02*
X65087606Y-87508571D01*
X65087606Y-87508571D02*
X65039987Y-87460952D01*
X65039987Y-87460952D02*
X64897130Y-87365714D01*
X64897130Y-87365714D02*
X64706654Y-87318095D01*
X64706654Y-87318095D02*
X64325702Y-87318095D01*
X64325702Y-87318095D02*
X64230464Y-87365714D01*
X64230464Y-87365714D02*
X64182845Y-87413333D01*
X64182845Y-87413333D02*
X64135225Y-87508571D01*
X64135225Y-87508571D02*
X64135225Y-87699047D01*
X64135225Y-87699047D02*
X64182845Y-87794285D01*
X64182845Y-87794285D02*
X64230464Y-87841904D01*
X64230464Y-87841904D02*
X64325702Y-87889523D01*
X64325702Y-87889523D02*
X64563797Y-87889523D01*
X64563797Y-87889523D02*
X64659035Y-87841904D01*
X64659035Y-87841904D02*
X64706654Y-87794285D01*
X64706654Y-87794285D02*
X64754273Y-87699047D01*
X64754273Y-87699047D02*
X64754273Y-87508571D01*
X64754273Y-87508571D02*
X64706654Y-87413333D01*
X64706654Y-87413333D02*
X64659035Y-87365714D01*
X64659035Y-87365714D02*
X64563797Y-87318095D01*
X94356464Y-118361905D02*
X95356464Y-118361905D01*
X95356464Y-118361905D02*
X95356464Y-118600000D01*
X95356464Y-118600000D02*
X95308845Y-118742857D01*
X95308845Y-118742857D02*
X95213606Y-118838095D01*
X95213606Y-118838095D02*
X95118368Y-118885714D01*
X95118368Y-118885714D02*
X94927892Y-118933333D01*
X94927892Y-118933333D02*
X94785035Y-118933333D01*
X94785035Y-118933333D02*
X94594559Y-118885714D01*
X94594559Y-118885714D02*
X94499321Y-118838095D01*
X94499321Y-118838095D02*
X94404083Y-118742857D01*
X94404083Y-118742857D02*
X94356464Y-118600000D01*
X94356464Y-118600000D02*
X94356464Y-118361905D01*
X95356464Y-119790476D02*
X95356464Y-119600000D01*
X95356464Y-119600000D02*
X95308845Y-119504762D01*
X95308845Y-119504762D02*
X95261225Y-119457143D01*
X95261225Y-119457143D02*
X95118368Y-119361905D01*
X95118368Y-119361905D02*
X94927892Y-119314286D01*
X94927892Y-119314286D02*
X94546940Y-119314286D01*
X94546940Y-119314286D02*
X94451702Y-119361905D01*
X94451702Y-119361905D02*
X94404083Y-119409524D01*
X94404083Y-119409524D02*
X94356464Y-119504762D01*
X94356464Y-119504762D02*
X94356464Y-119695238D01*
X94356464Y-119695238D02*
X94404083Y-119790476D01*
X94404083Y-119790476D02*
X94451702Y-119838095D01*
X94451702Y-119838095D02*
X94546940Y-119885714D01*
X94546940Y-119885714D02*
X94785035Y-119885714D01*
X94785035Y-119885714D02*
X94880273Y-119838095D01*
X94880273Y-119838095D02*
X94927892Y-119790476D01*
X94927892Y-119790476D02*
X94975511Y-119695238D01*
X94975511Y-119695238D02*
X94975511Y-119504762D01*
X94975511Y-119504762D02*
X94927892Y-119409524D01*
X94927892Y-119409524D02*
X94880273Y-119361905D01*
X94880273Y-119361905D02*
X94785035Y-119314286D01*
X35899463Y-93424142D02*
X35851844Y-93471761D01*
X35851844Y-93471761D02*
X35708987Y-93519380D01*
X35708987Y-93519380D02*
X35613749Y-93519380D01*
X35613749Y-93519380D02*
X35470892Y-93471761D01*
X35470892Y-93471761D02*
X35375654Y-93376523D01*
X35375654Y-93376523D02*
X35328035Y-93281285D01*
X35328035Y-93281285D02*
X35280416Y-93090809D01*
X35280416Y-93090809D02*
X35280416Y-92947952D01*
X35280416Y-92947952D02*
X35328035Y-92757476D01*
X35328035Y-92757476D02*
X35375654Y-92662238D01*
X35375654Y-92662238D02*
X35470892Y-92567000D01*
X35470892Y-92567000D02*
X35613749Y-92519380D01*
X35613749Y-92519380D02*
X35708987Y-92519380D01*
X35708987Y-92519380D02*
X35851844Y-92567000D01*
X35851844Y-92567000D02*
X35899463Y-92614619D01*
X36232797Y-92519380D02*
X36851844Y-92519380D01*
X36851844Y-92519380D02*
X36518511Y-92900333D01*
X36518511Y-92900333D02*
X36661368Y-92900333D01*
X36661368Y-92900333D02*
X36756606Y-92947952D01*
X36756606Y-92947952D02*
X36804225Y-92995571D01*
X36804225Y-92995571D02*
X36851844Y-93090809D01*
X36851844Y-93090809D02*
X36851844Y-93328904D01*
X36851844Y-93328904D02*
X36804225Y-93424142D01*
X36804225Y-93424142D02*
X36756606Y-93471761D01*
X36756606Y-93471761D02*
X36661368Y-93519380D01*
X36661368Y-93519380D02*
X36375654Y-93519380D01*
X36375654Y-93519380D02*
X36280416Y-93471761D01*
X36280416Y-93471761D02*
X36232797Y-93424142D01*
X37185178Y-92519380D02*
X37804225Y-92519380D01*
X37804225Y-92519380D02*
X37470892Y-92900333D01*
X37470892Y-92900333D02*
X37613749Y-92900333D01*
X37613749Y-92900333D02*
X37708987Y-92947952D01*
X37708987Y-92947952D02*
X37756606Y-92995571D01*
X37756606Y-92995571D02*
X37804225Y-93090809D01*
X37804225Y-93090809D02*
X37804225Y-93328904D01*
X37804225Y-93328904D02*
X37756606Y-93424142D01*
X37756606Y-93424142D02*
X37708987Y-93471761D01*
X37708987Y-93471761D02*
X37613749Y-93519380D01*
X37613749Y-93519380D02*
X37328035Y-93519380D01*
X37328035Y-93519380D02*
X37232797Y-93471761D01*
X37232797Y-93471761D02*
X37185178Y-93424142D01*
X38089940Y-93138428D02*
X38137559Y-93090809D01*
X38137559Y-93090809D02*
X38232797Y-93043190D01*
X38232797Y-93043190D02*
X38423273Y-93138428D01*
X38423273Y-93138428D02*
X38518511Y-93090809D01*
X38518511Y-93090809D02*
X38566130Y-93043190D01*
X39518511Y-93424142D02*
X39470892Y-93471761D01*
X39470892Y-93471761D02*
X39328035Y-93519380D01*
X39328035Y-93519380D02*
X39232797Y-93519380D01*
X39232797Y-93519380D02*
X39089940Y-93471761D01*
X39089940Y-93471761D02*
X38994702Y-93376523D01*
X38994702Y-93376523D02*
X38947083Y-93281285D01*
X38947083Y-93281285D02*
X38899464Y-93090809D01*
X38899464Y-93090809D02*
X38899464Y-92947952D01*
X38899464Y-92947952D02*
X38947083Y-92757476D01*
X38947083Y-92757476D02*
X38994702Y-92662238D01*
X38994702Y-92662238D02*
X39089940Y-92567000D01*
X39089940Y-92567000D02*
X39232797Y-92519380D01*
X39232797Y-92519380D02*
X39328035Y-92519380D01*
X39328035Y-92519380D02*
X39470892Y-92567000D01*
X39470892Y-92567000D02*
X39518511Y-92614619D01*
X39851845Y-92519380D02*
X40470892Y-92519380D01*
X40470892Y-92519380D02*
X40137559Y-92900333D01*
X40137559Y-92900333D02*
X40280416Y-92900333D01*
X40280416Y-92900333D02*
X40375654Y-92947952D01*
X40375654Y-92947952D02*
X40423273Y-92995571D01*
X40423273Y-92995571D02*
X40470892Y-93090809D01*
X40470892Y-93090809D02*
X40470892Y-93328904D01*
X40470892Y-93328904D02*
X40423273Y-93424142D01*
X40423273Y-93424142D02*
X40375654Y-93471761D01*
X40375654Y-93471761D02*
X40280416Y-93519380D01*
X40280416Y-93519380D02*
X39994702Y-93519380D01*
X39994702Y-93519380D02*
X39899464Y-93471761D01*
X39899464Y-93471761D02*
X39851845Y-93424142D01*
X40947083Y-93519380D02*
X41137559Y-93519380D01*
X41137559Y-93519380D02*
X41232797Y-93471761D01*
X41232797Y-93471761D02*
X41280416Y-93424142D01*
X41280416Y-93424142D02*
X41375654Y-93281285D01*
X41375654Y-93281285D02*
X41423273Y-93090809D01*
X41423273Y-93090809D02*
X41423273Y-92709857D01*
X41423273Y-92709857D02*
X41375654Y-92614619D01*
X41375654Y-92614619D02*
X41328035Y-92567000D01*
X41328035Y-92567000D02*
X41232797Y-92519380D01*
X41232797Y-92519380D02*
X41042321Y-92519380D01*
X41042321Y-92519380D02*
X40947083Y-92567000D01*
X40947083Y-92567000D02*
X40899464Y-92614619D01*
X40899464Y-92614619D02*
X40851845Y-92709857D01*
X40851845Y-92709857D02*
X40851845Y-92947952D01*
X40851845Y-92947952D02*
X40899464Y-93043190D01*
X40899464Y-93043190D02*
X40947083Y-93090809D01*
X40947083Y-93090809D02*
X41042321Y-93138428D01*
X41042321Y-93138428D02*
X41232797Y-93138428D01*
X41232797Y-93138428D02*
X41328035Y-93090809D01*
X41328035Y-93090809D02*
X41375654Y-93043190D01*
X41375654Y-93043190D02*
X41423273Y-92947952D01*
X134996464Y-118361905D02*
X135996464Y-118361905D01*
X135996464Y-118361905D02*
X135996464Y-118600000D01*
X135996464Y-118600000D02*
X135948845Y-118742857D01*
X135948845Y-118742857D02*
X135853606Y-118838095D01*
X135853606Y-118838095D02*
X135758368Y-118885714D01*
X135758368Y-118885714D02*
X135567892Y-118933333D01*
X135567892Y-118933333D02*
X135425035Y-118933333D01*
X135425035Y-118933333D02*
X135234559Y-118885714D01*
X135234559Y-118885714D02*
X135139321Y-118838095D01*
X135139321Y-118838095D02*
X135044083Y-118742857D01*
X135044083Y-118742857D02*
X134996464Y-118600000D01*
X134996464Y-118600000D02*
X134996464Y-118361905D01*
X135901225Y-119314286D02*
X135948845Y-119361905D01*
X135948845Y-119361905D02*
X135996464Y-119457143D01*
X135996464Y-119457143D02*
X135996464Y-119695238D01*
X135996464Y-119695238D02*
X135948845Y-119790476D01*
X135948845Y-119790476D02*
X135901225Y-119838095D01*
X135901225Y-119838095D02*
X135805987Y-119885714D01*
X135805987Y-119885714D02*
X135710749Y-119885714D01*
X135710749Y-119885714D02*
X135567892Y-119838095D01*
X135567892Y-119838095D02*
X134996464Y-119266667D01*
X134996464Y-119266667D02*
X134996464Y-119885714D01*
X66633178Y-93392380D02*
X66156988Y-93392380D01*
X66156988Y-93392380D02*
X66156988Y-92392380D01*
X67490321Y-93392380D02*
X66918893Y-93392380D01*
X67204607Y-93392380D02*
X67204607Y-92392380D01*
X67204607Y-92392380D02*
X67109369Y-92535238D01*
X67109369Y-92535238D02*
X67014131Y-92630476D01*
X67014131Y-92630476D02*
X66918893Y-92678095D01*
X93011905Y-49847380D02*
X93011905Y-48847380D01*
X93583333Y-49847380D02*
X93154762Y-49275952D01*
X93583333Y-48847380D02*
X93011905Y-49418809D01*
X93916667Y-48847380D02*
X94535714Y-48847380D01*
X94535714Y-48847380D02*
X94202381Y-49228333D01*
X94202381Y-49228333D02*
X94345238Y-49228333D01*
X94345238Y-49228333D02*
X94440476Y-49275952D01*
X94440476Y-49275952D02*
X94488095Y-49323571D01*
X94488095Y-49323571D02*
X94535714Y-49418809D01*
X94535714Y-49418809D02*
X94535714Y-49656904D01*
X94535714Y-49656904D02*
X94488095Y-49752142D01*
X94488095Y-49752142D02*
X94440476Y-49799761D01*
X94440476Y-49799761D02*
X94345238Y-49847380D01*
X94345238Y-49847380D02*
X94059524Y-49847380D01*
X94059524Y-49847380D02*
X93964286Y-49799761D01*
X93964286Y-49799761D02*
X93916667Y-49752142D01*
X36978750Y-116125380D02*
X36978750Y-115125380D01*
X36978750Y-115125380D02*
X37216845Y-115125380D01*
X37216845Y-115125380D02*
X37359702Y-115173000D01*
X37359702Y-115173000D02*
X37454940Y-115268238D01*
X37454940Y-115268238D02*
X37502559Y-115363476D01*
X37502559Y-115363476D02*
X37550178Y-115553952D01*
X37550178Y-115553952D02*
X37550178Y-115696809D01*
X37550178Y-115696809D02*
X37502559Y-115887285D01*
X37502559Y-115887285D02*
X37454940Y-115982523D01*
X37454940Y-115982523D02*
X37359702Y-116077761D01*
X37359702Y-116077761D02*
X37216845Y-116125380D01*
X37216845Y-116125380D02*
X36978750Y-116125380D01*
X38026369Y-116125380D02*
X38216845Y-116125380D01*
X38216845Y-116125380D02*
X38312083Y-116077761D01*
X38312083Y-116077761D02*
X38359702Y-116030142D01*
X38359702Y-116030142D02*
X38454940Y-115887285D01*
X38454940Y-115887285D02*
X38502559Y-115696809D01*
X38502559Y-115696809D02*
X38502559Y-115315857D01*
X38502559Y-115315857D02*
X38454940Y-115220619D01*
X38454940Y-115220619D02*
X38407321Y-115173000D01*
X38407321Y-115173000D02*
X38312083Y-115125380D01*
X38312083Y-115125380D02*
X38121607Y-115125380D01*
X38121607Y-115125380D02*
X38026369Y-115173000D01*
X38026369Y-115173000D02*
X37978750Y-115220619D01*
X37978750Y-115220619D02*
X37931131Y-115315857D01*
X37931131Y-115315857D02*
X37931131Y-115553952D01*
X37931131Y-115553952D02*
X37978750Y-115649190D01*
X37978750Y-115649190D02*
X38026369Y-115696809D01*
X38026369Y-115696809D02*
X38121607Y-115744428D01*
X38121607Y-115744428D02*
X38312083Y-115744428D01*
X38312083Y-115744428D02*
X38407321Y-115696809D01*
X38407321Y-115696809D02*
X38454940Y-115649190D01*
X38454940Y-115649190D02*
X38502559Y-115553952D01*
X36682702Y-79142333D02*
X36635083Y-79094714D01*
X36635083Y-79094714D02*
X36587464Y-78951857D01*
X36587464Y-78951857D02*
X36587464Y-78856619D01*
X36587464Y-78856619D02*
X36635083Y-78713762D01*
X36635083Y-78713762D02*
X36730321Y-78618524D01*
X36730321Y-78618524D02*
X36825559Y-78570905D01*
X36825559Y-78570905D02*
X37016035Y-78523286D01*
X37016035Y-78523286D02*
X37158892Y-78523286D01*
X37158892Y-78523286D02*
X37349368Y-78570905D01*
X37349368Y-78570905D02*
X37444606Y-78618524D01*
X37444606Y-78618524D02*
X37539845Y-78713762D01*
X37539845Y-78713762D02*
X37587464Y-78856619D01*
X37587464Y-78856619D02*
X37587464Y-78951857D01*
X37587464Y-78951857D02*
X37539845Y-79094714D01*
X37539845Y-79094714D02*
X37492225Y-79142333D01*
X37587464Y-79999476D02*
X37587464Y-79809000D01*
X37587464Y-79809000D02*
X37539845Y-79713762D01*
X37539845Y-79713762D02*
X37492225Y-79666143D01*
X37492225Y-79666143D02*
X37349368Y-79570905D01*
X37349368Y-79570905D02*
X37158892Y-79523286D01*
X37158892Y-79523286D02*
X36777940Y-79523286D01*
X36777940Y-79523286D02*
X36682702Y-79570905D01*
X36682702Y-79570905D02*
X36635083Y-79618524D01*
X36635083Y-79618524D02*
X36587464Y-79713762D01*
X36587464Y-79713762D02*
X36587464Y-79904238D01*
X36587464Y-79904238D02*
X36635083Y-79999476D01*
X36635083Y-79999476D02*
X36682702Y-80047095D01*
X36682702Y-80047095D02*
X36777940Y-80094714D01*
X36777940Y-80094714D02*
X37016035Y-80094714D01*
X37016035Y-80094714D02*
X37111273Y-80047095D01*
X37111273Y-80047095D02*
X37158892Y-79999476D01*
X37158892Y-79999476D02*
X37206511Y-79904238D01*
X37206511Y-79904238D02*
X37206511Y-79713762D01*
X37206511Y-79713762D02*
X37158892Y-79618524D01*
X37158892Y-79618524D02*
X37111273Y-79570905D01*
X37111273Y-79570905D02*
X37016035Y-79523286D01*
X67676225Y-74998857D02*
X67200035Y-75332190D01*
X67676225Y-75570285D02*
X66676225Y-75570285D01*
X66676225Y-75570285D02*
X66676225Y-75189333D01*
X66676225Y-75189333D02*
X66723845Y-75094095D01*
X66723845Y-75094095D02*
X66771464Y-75046476D01*
X66771464Y-75046476D02*
X66866702Y-74998857D01*
X66866702Y-74998857D02*
X67009559Y-74998857D01*
X67009559Y-74998857D02*
X67104797Y-75046476D01*
X67104797Y-75046476D02*
X67152416Y-75094095D01*
X67152416Y-75094095D02*
X67200035Y-75189333D01*
X67200035Y-75189333D02*
X67200035Y-75570285D01*
X67676225Y-74046476D02*
X67676225Y-74617904D01*
X67676225Y-74332190D02*
X66676225Y-74332190D01*
X66676225Y-74332190D02*
X66819083Y-74427428D01*
X66819083Y-74427428D02*
X66914321Y-74522666D01*
X66914321Y-74522666D02*
X66961940Y-74617904D01*
X66676225Y-73189333D02*
X66676225Y-73379809D01*
X66676225Y-73379809D02*
X66723845Y-73475047D01*
X66723845Y-73475047D02*
X66771464Y-73522666D01*
X66771464Y-73522666D02*
X66914321Y-73617904D01*
X66914321Y-73617904D02*
X67104797Y-73665523D01*
X67104797Y-73665523D02*
X67485749Y-73665523D01*
X67485749Y-73665523D02*
X67580987Y-73617904D01*
X67580987Y-73617904D02*
X67628606Y-73570285D01*
X67628606Y-73570285D02*
X67676225Y-73475047D01*
X67676225Y-73475047D02*
X67676225Y-73284571D01*
X67676225Y-73284571D02*
X67628606Y-73189333D01*
X67628606Y-73189333D02*
X67580987Y-73141714D01*
X67580987Y-73141714D02*
X67485749Y-73094095D01*
X67485749Y-73094095D02*
X67247654Y-73094095D01*
X67247654Y-73094095D02*
X67152416Y-73141714D01*
X67152416Y-73141714D02*
X67104797Y-73189333D01*
X67104797Y-73189333D02*
X67057178Y-73284571D01*
X67057178Y-73284571D02*
X67057178Y-73475047D01*
X67057178Y-73475047D02*
X67104797Y-73570285D01*
X67104797Y-73570285D02*
X67152416Y-73617904D01*
X67152416Y-73617904D02*
X67247654Y-73665523D01*
X72750702Y-74602142D02*
X72703083Y-74554523D01*
X72703083Y-74554523D02*
X72655464Y-74411666D01*
X72655464Y-74411666D02*
X72655464Y-74316428D01*
X72655464Y-74316428D02*
X72703083Y-74173571D01*
X72703083Y-74173571D02*
X72798321Y-74078333D01*
X72798321Y-74078333D02*
X72893559Y-74030714D01*
X72893559Y-74030714D02*
X73084035Y-73983095D01*
X73084035Y-73983095D02*
X73226892Y-73983095D01*
X73226892Y-73983095D02*
X73417368Y-74030714D01*
X73417368Y-74030714D02*
X73512606Y-74078333D01*
X73512606Y-74078333D02*
X73607845Y-74173571D01*
X73607845Y-74173571D02*
X73655464Y-74316428D01*
X73655464Y-74316428D02*
X73655464Y-74411666D01*
X73655464Y-74411666D02*
X73607845Y-74554523D01*
X73607845Y-74554523D02*
X73560225Y-74602142D01*
X72655464Y-75554523D02*
X72655464Y-74983095D01*
X72655464Y-75268809D02*
X73655464Y-75268809D01*
X73655464Y-75268809D02*
X73512606Y-75173571D01*
X73512606Y-75173571D02*
X73417368Y-75078333D01*
X73417368Y-75078333D02*
X73369749Y-74983095D01*
X73655464Y-75887857D02*
X73655464Y-76506904D01*
X73655464Y-76506904D02*
X73274511Y-76173571D01*
X73274511Y-76173571D02*
X73274511Y-76316428D01*
X73274511Y-76316428D02*
X73226892Y-76411666D01*
X73226892Y-76411666D02*
X73179273Y-76459285D01*
X73179273Y-76459285D02*
X73084035Y-76506904D01*
X73084035Y-76506904D02*
X72845940Y-76506904D01*
X72845940Y-76506904D02*
X72750702Y-76459285D01*
X72750702Y-76459285D02*
X72703083Y-76411666D01*
X72703083Y-76411666D02*
X72655464Y-76316428D01*
X72655464Y-76316428D02*
X72655464Y-76030714D01*
X72655464Y-76030714D02*
X72703083Y-75935476D01*
X72703083Y-75935476D02*
X72750702Y-75887857D01*
X134772619Y-100486905D02*
X135772619Y-100486905D01*
X134772619Y-101058333D02*
X135344047Y-100629762D01*
X135772619Y-101058333D02*
X135201190Y-100486905D01*
X135677380Y-101439286D02*
X135725000Y-101486905D01*
X135725000Y-101486905D02*
X135772619Y-101582143D01*
X135772619Y-101582143D02*
X135772619Y-101820238D01*
X135772619Y-101820238D02*
X135725000Y-101915476D01*
X135725000Y-101915476D02*
X135677380Y-101963095D01*
X135677380Y-101963095D02*
X135582142Y-102010714D01*
X135582142Y-102010714D02*
X135486904Y-102010714D01*
X135486904Y-102010714D02*
X135344047Y-101963095D01*
X135344047Y-101963095D02*
X134772619Y-101391667D01*
X134772619Y-101391667D02*
X134772619Y-102010714D01*
X24495225Y-90746857D02*
X24019035Y-91080190D01*
X24495225Y-91318285D02*
X23495225Y-91318285D01*
X23495225Y-91318285D02*
X23495225Y-90937333D01*
X23495225Y-90937333D02*
X23542845Y-90842095D01*
X23542845Y-90842095D02*
X23590464Y-90794476D01*
X23590464Y-90794476D02*
X23685702Y-90746857D01*
X23685702Y-90746857D02*
X23828559Y-90746857D01*
X23828559Y-90746857D02*
X23923797Y-90794476D01*
X23923797Y-90794476D02*
X23971416Y-90842095D01*
X23971416Y-90842095D02*
X24019035Y-90937333D01*
X24019035Y-90937333D02*
X24019035Y-91318285D01*
X23590464Y-90365904D02*
X23542845Y-90318285D01*
X23542845Y-90318285D02*
X23495225Y-90223047D01*
X23495225Y-90223047D02*
X23495225Y-89984952D01*
X23495225Y-89984952D02*
X23542845Y-89889714D01*
X23542845Y-89889714D02*
X23590464Y-89842095D01*
X23590464Y-89842095D02*
X23685702Y-89794476D01*
X23685702Y-89794476D02*
X23780940Y-89794476D01*
X23780940Y-89794476D02*
X23923797Y-89842095D01*
X23923797Y-89842095D02*
X24495225Y-90413523D01*
X24495225Y-90413523D02*
X24495225Y-89794476D01*
X24495225Y-88842095D02*
X24495225Y-89413523D01*
X24495225Y-89127809D02*
X23495225Y-89127809D01*
X23495225Y-89127809D02*
X23638083Y-89223047D01*
X23638083Y-89223047D02*
X23733321Y-89318285D01*
X23733321Y-89318285D02*
X23780940Y-89413523D01*
X54875464Y-82698333D02*
X55351654Y-82365000D01*
X54875464Y-82126905D02*
X55875464Y-82126905D01*
X55875464Y-82126905D02*
X55875464Y-82507857D01*
X55875464Y-82507857D02*
X55827845Y-82603095D01*
X55827845Y-82603095D02*
X55780225Y-82650714D01*
X55780225Y-82650714D02*
X55684987Y-82698333D01*
X55684987Y-82698333D02*
X55542130Y-82698333D01*
X55542130Y-82698333D02*
X55446892Y-82650714D01*
X55446892Y-82650714D02*
X55399273Y-82603095D01*
X55399273Y-82603095D02*
X55351654Y-82507857D01*
X55351654Y-82507857D02*
X55351654Y-82126905D01*
X55542130Y-83555476D02*
X54875464Y-83555476D01*
X55923083Y-83317381D02*
X55208797Y-83079286D01*
X55208797Y-83079286D02*
X55208797Y-83698333D01*
X114475750Y-72707380D02*
X114475750Y-71707380D01*
X114475750Y-71707380D02*
X114713845Y-71707380D01*
X114713845Y-71707380D02*
X114856702Y-71755000D01*
X114856702Y-71755000D02*
X114951940Y-71850238D01*
X114951940Y-71850238D02*
X114999559Y-71945476D01*
X114999559Y-71945476D02*
X115047178Y-72135952D01*
X115047178Y-72135952D02*
X115047178Y-72278809D01*
X115047178Y-72278809D02*
X114999559Y-72469285D01*
X114999559Y-72469285D02*
X114951940Y-72564523D01*
X114951940Y-72564523D02*
X114856702Y-72659761D01*
X114856702Y-72659761D02*
X114713845Y-72707380D01*
X114713845Y-72707380D02*
X114475750Y-72707380D01*
X115951940Y-71707380D02*
X115475750Y-71707380D01*
X115475750Y-71707380D02*
X115428131Y-72183571D01*
X115428131Y-72183571D02*
X115475750Y-72135952D01*
X115475750Y-72135952D02*
X115570988Y-72088333D01*
X115570988Y-72088333D02*
X115809083Y-72088333D01*
X115809083Y-72088333D02*
X115904321Y-72135952D01*
X115904321Y-72135952D02*
X115951940Y-72183571D01*
X115951940Y-72183571D02*
X115999559Y-72278809D01*
X115999559Y-72278809D02*
X115999559Y-72516904D01*
X115999559Y-72516904D02*
X115951940Y-72612142D01*
X115951940Y-72612142D02*
X115904321Y-72659761D01*
X115904321Y-72659761D02*
X115809083Y-72707380D01*
X115809083Y-72707380D02*
X115570988Y-72707380D01*
X115570988Y-72707380D02*
X115475750Y-72659761D01*
X115475750Y-72659761D02*
X115428131Y-72612142D01*
X63114594Y-74483433D02*
X63114594Y-75295449D01*
X63114594Y-75295449D02*
X63162360Y-75390981D01*
X63162360Y-75390981D02*
X63210125Y-75438746D01*
X63210125Y-75438746D02*
X63305657Y-75486512D01*
X63305657Y-75486512D02*
X63496719Y-75486512D01*
X63496719Y-75486512D02*
X63592251Y-75438746D01*
X63592251Y-75438746D02*
X63640016Y-75390981D01*
X63640016Y-75390981D02*
X63687782Y-75295449D01*
X63687782Y-75295449D02*
X63687782Y-74483433D01*
X64690861Y-75486512D02*
X64117673Y-75486512D01*
X64404267Y-75486512D02*
X64404267Y-74483433D01*
X64404267Y-74483433D02*
X64308736Y-74626730D01*
X64308736Y-74626730D02*
X64213205Y-74722261D01*
X64213205Y-74722261D02*
X64117673Y-74770027D01*
X61997750Y-116125380D02*
X61997750Y-115125380D01*
X61997750Y-115125380D02*
X62235845Y-115125380D01*
X62235845Y-115125380D02*
X62378702Y-115173000D01*
X62378702Y-115173000D02*
X62473940Y-115268238D01*
X62473940Y-115268238D02*
X62521559Y-115363476D01*
X62521559Y-115363476D02*
X62569178Y-115553952D01*
X62569178Y-115553952D02*
X62569178Y-115696809D01*
X62569178Y-115696809D02*
X62521559Y-115887285D01*
X62521559Y-115887285D02*
X62473940Y-115982523D01*
X62473940Y-115982523D02*
X62378702Y-116077761D01*
X62378702Y-116077761D02*
X62235845Y-116125380D01*
X62235845Y-116125380D02*
X61997750Y-116125380D01*
X63140607Y-115553952D02*
X63045369Y-115506333D01*
X63045369Y-115506333D02*
X62997750Y-115458714D01*
X62997750Y-115458714D02*
X62950131Y-115363476D01*
X62950131Y-115363476D02*
X62950131Y-115315857D01*
X62950131Y-115315857D02*
X62997750Y-115220619D01*
X62997750Y-115220619D02*
X63045369Y-115173000D01*
X63045369Y-115173000D02*
X63140607Y-115125380D01*
X63140607Y-115125380D02*
X63331083Y-115125380D01*
X63331083Y-115125380D02*
X63426321Y-115173000D01*
X63426321Y-115173000D02*
X63473940Y-115220619D01*
X63473940Y-115220619D02*
X63521559Y-115315857D01*
X63521559Y-115315857D02*
X63521559Y-115363476D01*
X63521559Y-115363476D02*
X63473940Y-115458714D01*
X63473940Y-115458714D02*
X63426321Y-115506333D01*
X63426321Y-115506333D02*
X63331083Y-115553952D01*
X63331083Y-115553952D02*
X63140607Y-115553952D01*
X63140607Y-115553952D02*
X63045369Y-115601571D01*
X63045369Y-115601571D02*
X62997750Y-115649190D01*
X62997750Y-115649190D02*
X62950131Y-115744428D01*
X62950131Y-115744428D02*
X62950131Y-115934904D01*
X62950131Y-115934904D02*
X62997750Y-116030142D01*
X62997750Y-116030142D02*
X63045369Y-116077761D01*
X63045369Y-116077761D02*
X63140607Y-116125380D01*
X63140607Y-116125380D02*
X63331083Y-116125380D01*
X63331083Y-116125380D02*
X63426321Y-116077761D01*
X63426321Y-116077761D02*
X63473940Y-116030142D01*
X63473940Y-116030142D02*
X63521559Y-115934904D01*
X63521559Y-115934904D02*
X63521559Y-115744428D01*
X63521559Y-115744428D02*
X63473940Y-115649190D01*
X63473940Y-115649190D02*
X63426321Y-115601571D01*
X63426321Y-115601571D02*
X63331083Y-115553952D01*
X66410987Y-84883380D02*
X66077654Y-84407190D01*
X65839559Y-84883380D02*
X65839559Y-83883380D01*
X65839559Y-83883380D02*
X66220511Y-83883380D01*
X66220511Y-83883380D02*
X66315749Y-83931000D01*
X66315749Y-83931000D02*
X66363368Y-83978619D01*
X66363368Y-83978619D02*
X66410987Y-84073857D01*
X66410987Y-84073857D02*
X66410987Y-84216714D01*
X66410987Y-84216714D02*
X66363368Y-84311952D01*
X66363368Y-84311952D02*
X66315749Y-84359571D01*
X66315749Y-84359571D02*
X66220511Y-84407190D01*
X66220511Y-84407190D02*
X65839559Y-84407190D01*
X66791940Y-83978619D02*
X66839559Y-83931000D01*
X66839559Y-83931000D02*
X66934797Y-83883380D01*
X66934797Y-83883380D02*
X67172892Y-83883380D01*
X67172892Y-83883380D02*
X67268130Y-83931000D01*
X67268130Y-83931000D02*
X67315749Y-83978619D01*
X67315749Y-83978619D02*
X67363368Y-84073857D01*
X67363368Y-84073857D02*
X67363368Y-84169095D01*
X67363368Y-84169095D02*
X67315749Y-84311952D01*
X67315749Y-84311952D02*
X66744321Y-84883380D01*
X66744321Y-84883380D02*
X67363368Y-84883380D01*
X67744321Y-83978619D02*
X67791940Y-83931000D01*
X67791940Y-83931000D02*
X67887178Y-83883380D01*
X67887178Y-83883380D02*
X68125273Y-83883380D01*
X68125273Y-83883380D02*
X68220511Y-83931000D01*
X68220511Y-83931000D02*
X68268130Y-83978619D01*
X68268130Y-83978619D02*
X68315749Y-84073857D01*
X68315749Y-84073857D02*
X68315749Y-84169095D01*
X68315749Y-84169095D02*
X68268130Y-84311952D01*
X68268130Y-84311952D02*
X67696702Y-84883380D01*
X67696702Y-84883380D02*
X68315749Y-84883380D01*
X33158464Y-79269333D02*
X33634654Y-78936000D01*
X33158464Y-78697905D02*
X34158464Y-78697905D01*
X34158464Y-78697905D02*
X34158464Y-79078857D01*
X34158464Y-79078857D02*
X34110845Y-79174095D01*
X34110845Y-79174095D02*
X34063225Y-79221714D01*
X34063225Y-79221714D02*
X33967987Y-79269333D01*
X33967987Y-79269333D02*
X33825130Y-79269333D01*
X33825130Y-79269333D02*
X33729892Y-79221714D01*
X33729892Y-79221714D02*
X33682273Y-79174095D01*
X33682273Y-79174095D02*
X33634654Y-79078857D01*
X33634654Y-79078857D02*
X33634654Y-78697905D01*
X34158464Y-80174095D02*
X34158464Y-79697905D01*
X34158464Y-79697905D02*
X33682273Y-79650286D01*
X33682273Y-79650286D02*
X33729892Y-79697905D01*
X33729892Y-79697905D02*
X33777511Y-79793143D01*
X33777511Y-79793143D02*
X33777511Y-80031238D01*
X33777511Y-80031238D02*
X33729892Y-80126476D01*
X33729892Y-80126476D02*
X33682273Y-80174095D01*
X33682273Y-80174095D02*
X33587035Y-80221714D01*
X33587035Y-80221714D02*
X33348940Y-80221714D01*
X33348940Y-80221714D02*
X33253702Y-80174095D01*
X33253702Y-80174095D02*
X33206083Y-80126476D01*
X33206083Y-80126476D02*
X33158464Y-80031238D01*
X33158464Y-80031238D02*
X33158464Y-79793143D01*
X33158464Y-79793143D02*
X33206083Y-79697905D01*
X33206083Y-79697905D02*
X33253702Y-79650286D01*
X51541702Y-74475142D02*
X51494083Y-74427523D01*
X51494083Y-74427523D02*
X51446464Y-74284666D01*
X51446464Y-74284666D02*
X51446464Y-74189428D01*
X51446464Y-74189428D02*
X51494083Y-74046571D01*
X51494083Y-74046571D02*
X51589321Y-73951333D01*
X51589321Y-73951333D02*
X51684559Y-73903714D01*
X51684559Y-73903714D02*
X51875035Y-73856095D01*
X51875035Y-73856095D02*
X52017892Y-73856095D01*
X52017892Y-73856095D02*
X52208368Y-73903714D01*
X52208368Y-73903714D02*
X52303606Y-73951333D01*
X52303606Y-73951333D02*
X52398845Y-74046571D01*
X52398845Y-74046571D02*
X52446464Y-74189428D01*
X52446464Y-74189428D02*
X52446464Y-74284666D01*
X52446464Y-74284666D02*
X52398845Y-74427523D01*
X52398845Y-74427523D02*
X52351225Y-74475142D01*
X51446464Y-75427523D02*
X51446464Y-74856095D01*
X51446464Y-75141809D02*
X52446464Y-75141809D01*
X52446464Y-75141809D02*
X52303606Y-75046571D01*
X52303606Y-75046571D02*
X52208368Y-74951333D01*
X52208368Y-74951333D02*
X52160749Y-74856095D01*
X52113130Y-76284666D02*
X51446464Y-76284666D01*
X52494083Y-76046571D02*
X51779797Y-75808476D01*
X51779797Y-75808476D02*
X51779797Y-76427523D01*
X114452619Y-100501905D02*
X115452619Y-100501905D01*
X114452619Y-101073333D02*
X115024047Y-100644762D01*
X115452619Y-101073333D02*
X114881190Y-100501905D01*
X115119285Y-101930476D02*
X114452619Y-101930476D01*
X115500238Y-101692381D02*
X114785952Y-101454286D01*
X114785952Y-101454286D02*
X114785952Y-102073333D01*
X24887594Y-74737433D02*
X24887594Y-75549449D01*
X24887594Y-75549449D02*
X24935360Y-75644981D01*
X24935360Y-75644981D02*
X24983125Y-75692746D01*
X24983125Y-75692746D02*
X25078657Y-75740512D01*
X25078657Y-75740512D02*
X25269719Y-75740512D01*
X25269719Y-75740512D02*
X25365251Y-75692746D01*
X25365251Y-75692746D02*
X25413016Y-75644981D01*
X25413016Y-75644981D02*
X25460782Y-75549449D01*
X25460782Y-75549449D02*
X25460782Y-74737433D01*
X25842908Y-74737433D02*
X26463861Y-74737433D01*
X26463861Y-74737433D02*
X26129502Y-75119558D01*
X26129502Y-75119558D02*
X26272799Y-75119558D01*
X26272799Y-75119558D02*
X26368330Y-75167324D01*
X26368330Y-75167324D02*
X26416096Y-75215090D01*
X26416096Y-75215090D02*
X26463861Y-75310621D01*
X26463861Y-75310621D02*
X26463861Y-75549449D01*
X26463861Y-75549449D02*
X26416096Y-75644981D01*
X26416096Y-75644981D02*
X26368330Y-75692746D01*
X26368330Y-75692746D02*
X26272799Y-75740512D01*
X26272799Y-75740512D02*
X25986205Y-75740512D01*
X25986205Y-75740512D02*
X25890673Y-75692746D01*
X25890673Y-75692746D02*
X25842908Y-75644981D01*
X43545225Y-89095857D02*
X43069035Y-89429190D01*
X43545225Y-89667285D02*
X42545225Y-89667285D01*
X42545225Y-89667285D02*
X42545225Y-89286333D01*
X42545225Y-89286333D02*
X42592845Y-89191095D01*
X42592845Y-89191095D02*
X42640464Y-89143476D01*
X42640464Y-89143476D02*
X42735702Y-89095857D01*
X42735702Y-89095857D02*
X42878559Y-89095857D01*
X42878559Y-89095857D02*
X42973797Y-89143476D01*
X42973797Y-89143476D02*
X43021416Y-89191095D01*
X43021416Y-89191095D02*
X43069035Y-89286333D01*
X43069035Y-89286333D02*
X43069035Y-89667285D01*
X42640464Y-88714904D02*
X42592845Y-88667285D01*
X42592845Y-88667285D02*
X42545225Y-88572047D01*
X42545225Y-88572047D02*
X42545225Y-88333952D01*
X42545225Y-88333952D02*
X42592845Y-88238714D01*
X42592845Y-88238714D02*
X42640464Y-88191095D01*
X42640464Y-88191095D02*
X42735702Y-88143476D01*
X42735702Y-88143476D02*
X42830940Y-88143476D01*
X42830940Y-88143476D02*
X42973797Y-88191095D01*
X42973797Y-88191095D02*
X43545225Y-88762523D01*
X43545225Y-88762523D02*
X43545225Y-88143476D01*
X42545225Y-87524428D02*
X42545225Y-87429190D01*
X42545225Y-87429190D02*
X42592845Y-87333952D01*
X42592845Y-87333952D02*
X42640464Y-87286333D01*
X42640464Y-87286333D02*
X42735702Y-87238714D01*
X42735702Y-87238714D02*
X42926178Y-87191095D01*
X42926178Y-87191095D02*
X43164273Y-87191095D01*
X43164273Y-87191095D02*
X43354749Y-87238714D01*
X43354749Y-87238714D02*
X43449987Y-87286333D01*
X43449987Y-87286333D02*
X43497606Y-87333952D01*
X43497606Y-87333952D02*
X43545225Y-87429190D01*
X43545225Y-87429190D02*
X43545225Y-87524428D01*
X43545225Y-87524428D02*
X43497606Y-87619666D01*
X43497606Y-87619666D02*
X43449987Y-87667285D01*
X43449987Y-87667285D02*
X43354749Y-87714904D01*
X43354749Y-87714904D02*
X43164273Y-87762523D01*
X43164273Y-87762523D02*
X42926178Y-87762523D01*
X42926178Y-87762523D02*
X42735702Y-87714904D01*
X42735702Y-87714904D02*
X42640464Y-87667285D01*
X42640464Y-87667285D02*
X42592845Y-87619666D01*
X42592845Y-87619666D02*
X42545225Y-87524428D01*
X44820987Y-85518380D02*
X44487654Y-85042190D01*
X44249559Y-85518380D02*
X44249559Y-84518380D01*
X44249559Y-84518380D02*
X44630511Y-84518380D01*
X44630511Y-84518380D02*
X44725749Y-84566000D01*
X44725749Y-84566000D02*
X44773368Y-84613619D01*
X44773368Y-84613619D02*
X44820987Y-84708857D01*
X44820987Y-84708857D02*
X44820987Y-84851714D01*
X44820987Y-84851714D02*
X44773368Y-84946952D01*
X44773368Y-84946952D02*
X44725749Y-84994571D01*
X44725749Y-84994571D02*
X44630511Y-85042190D01*
X44630511Y-85042190D02*
X44249559Y-85042190D01*
X45201940Y-84613619D02*
X45249559Y-84566000D01*
X45249559Y-84566000D02*
X45344797Y-84518380D01*
X45344797Y-84518380D02*
X45582892Y-84518380D01*
X45582892Y-84518380D02*
X45678130Y-84566000D01*
X45678130Y-84566000D02*
X45725749Y-84613619D01*
X45725749Y-84613619D02*
X45773368Y-84708857D01*
X45773368Y-84708857D02*
X45773368Y-84804095D01*
X45773368Y-84804095D02*
X45725749Y-84946952D01*
X45725749Y-84946952D02*
X45154321Y-85518380D01*
X45154321Y-85518380D02*
X45773368Y-85518380D01*
X46106702Y-84518380D02*
X46725749Y-84518380D01*
X46725749Y-84518380D02*
X46392416Y-84899333D01*
X46392416Y-84899333D02*
X46535273Y-84899333D01*
X46535273Y-84899333D02*
X46630511Y-84946952D01*
X46630511Y-84946952D02*
X46678130Y-84994571D01*
X46678130Y-84994571D02*
X46725749Y-85089809D01*
X46725749Y-85089809D02*
X46725749Y-85327904D01*
X46725749Y-85327904D02*
X46678130Y-85423142D01*
X46678130Y-85423142D02*
X46630511Y-85470761D01*
X46630511Y-85470761D02*
X46535273Y-85518380D01*
X46535273Y-85518380D02*
X46249559Y-85518380D01*
X46249559Y-85518380D02*
X46154321Y-85470761D01*
X46154321Y-85470761D02*
X46106702Y-85423142D01*
X33634702Y-74697142D02*
X33587083Y-74649523D01*
X33587083Y-74649523D02*
X33539464Y-74506666D01*
X33539464Y-74506666D02*
X33539464Y-74411428D01*
X33539464Y-74411428D02*
X33587083Y-74268571D01*
X33587083Y-74268571D02*
X33682321Y-74173333D01*
X33682321Y-74173333D02*
X33777559Y-74125714D01*
X33777559Y-74125714D02*
X33968035Y-74078095D01*
X33968035Y-74078095D02*
X34110892Y-74078095D01*
X34110892Y-74078095D02*
X34301368Y-74125714D01*
X34301368Y-74125714D02*
X34396606Y-74173333D01*
X34396606Y-74173333D02*
X34491845Y-74268571D01*
X34491845Y-74268571D02*
X34539464Y-74411428D01*
X34539464Y-74411428D02*
X34539464Y-74506666D01*
X34539464Y-74506666D02*
X34491845Y-74649523D01*
X34491845Y-74649523D02*
X34444225Y-74697142D01*
X33539464Y-75649523D02*
X33539464Y-75078095D01*
X33539464Y-75363809D02*
X34539464Y-75363809D01*
X34539464Y-75363809D02*
X34396606Y-75268571D01*
X34396606Y-75268571D02*
X34301368Y-75173333D01*
X34301368Y-75173333D02*
X34253749Y-75078095D01*
X34539464Y-76554285D02*
X34539464Y-76078095D01*
X34539464Y-76078095D02*
X34063273Y-76030476D01*
X34063273Y-76030476D02*
X34110892Y-76078095D01*
X34110892Y-76078095D02*
X34158511Y-76173333D01*
X34158511Y-76173333D02*
X34158511Y-76411428D01*
X34158511Y-76411428D02*
X34110892Y-76506666D01*
X34110892Y-76506666D02*
X34063273Y-76554285D01*
X34063273Y-76554285D02*
X33968035Y-76601904D01*
X33968035Y-76601904D02*
X33729940Y-76601904D01*
X33729940Y-76601904D02*
X33634702Y-76554285D01*
X33634702Y-76554285D02*
X33587083Y-76506666D01*
X33587083Y-76506666D02*
X33539464Y-76411428D01*
X33539464Y-76411428D02*
X33539464Y-76173333D01*
X33539464Y-76173333D02*
X33587083Y-76078095D01*
X33587083Y-76078095D02*
X33634702Y-76030476D01*
D12*
X49647593Y-88480000D02*
X50170097Y-88480000D01*
X49647593Y-89950000D02*
X50170097Y-89950000D01*
X53570000Y-94830000D02*
X53570000Y-107730000D01*
X49070000Y-94830000D02*
X53570000Y-94830000D01*
X45170000Y-94830000D02*
X40670000Y-94830000D01*
X40670000Y-94830000D02*
X40670000Y-107730000D01*
X53570000Y-107730000D02*
X49070000Y-107730000D01*
X40670000Y-107730000D02*
X45170000Y-107730000D01*
X110388845Y-53470000D02*
X110388845Y-55280000D01*
X110388845Y-55280000D02*
X105263845Y-55280000D01*
X110388845Y-62060000D02*
X109288845Y-62060000D01*
X110388845Y-63870000D02*
X110388845Y-62060000D01*
X111888845Y-53470000D02*
X110388845Y-53470000D01*
X111888845Y-63870000D02*
X110388845Y-63870000D01*
D11*
X96263845Y-108240000D02*
X96263845Y-96200000D01*
X96263845Y-108240000D02*
X83213845Y-108240000D01*
X96263845Y-96200000D02*
X83213845Y-96200000D01*
X83213845Y-108240000D02*
X83213845Y-96200000D01*
D12*
X56202593Y-104981920D02*
X56725097Y-104981920D01*
X56202593Y-106451920D02*
X56725097Y-106451920D01*
D13*
X46188845Y-76420000D02*
X45688845Y-76420000D01*
X42588845Y-76420000D02*
X42188845Y-76420000D01*
X42188845Y-76420000D02*
X42188845Y-76520000D01*
X42188845Y-79920000D02*
X42188845Y-80420000D01*
X46188845Y-80420000D02*
X45938845Y-80420000D01*
X42188845Y-80420000D02*
X42288845Y-80420000D01*
D14*
X45108845Y-75593000D02*
G75*
G03*
X45108845Y-75593000I-120000J0D01*
G01*
D12*
X50508845Y-79062936D02*
X50508845Y-79517064D01*
X49038845Y-79062936D02*
X49038845Y-79517064D01*
X75535845Y-78793748D02*
X75535845Y-79316252D01*
X74065845Y-78793748D02*
X74065845Y-79316252D01*
X32768845Y-83282936D02*
X32768845Y-83737064D01*
X31298845Y-83282936D02*
X31298845Y-83737064D01*
X76522593Y-104981920D02*
X77045097Y-104981920D01*
X76522593Y-106451920D02*
X77045097Y-106451920D01*
X26286781Y-87055000D02*
X26740909Y-87055000D01*
X26286781Y-88525000D02*
X26740909Y-88525000D01*
X47268845Y-75547064D02*
X47268845Y-75092936D01*
X48738845Y-75547064D02*
X48738845Y-75092936D01*
X35153845Y-94830000D02*
X35153845Y-107730000D01*
X30653845Y-94830000D02*
X35153845Y-94830000D01*
X26753845Y-94830000D02*
X22253845Y-94830000D01*
X22253845Y-94830000D02*
X22253845Y-107730000D01*
X35153845Y-107730000D02*
X30653845Y-107730000D01*
X22253845Y-107730000D02*
X26753845Y-107730000D01*
X56202593Y-93905000D02*
X56725097Y-93905000D01*
X56202593Y-95375000D02*
X56725097Y-95375000D01*
X38022593Y-96674230D02*
X38545097Y-96674230D01*
X38022593Y-98144230D02*
X38545097Y-98144230D01*
X72233845Y-78827936D02*
X72233845Y-79282064D01*
X70763845Y-78827936D02*
X70763845Y-79282064D01*
X29498845Y-75547064D02*
X29498845Y-75092936D01*
X30968845Y-75547064D02*
X30968845Y-75092936D01*
X76522593Y-93905000D02*
X77045097Y-93905000D01*
X76522593Y-95375000D02*
X77045097Y-95375000D01*
X113593845Y-114275000D02*
X111783845Y-114275000D01*
X111783845Y-114275000D02*
X111783845Y-109150000D01*
X105003845Y-114275000D02*
X105003845Y-113175000D01*
X103193845Y-114275000D02*
X105003845Y-114275000D01*
X113593845Y-115775000D02*
X113593845Y-114275000D01*
X103193845Y-115775000D02*
X103193845Y-114275000D01*
D11*
X101343845Y-30160000D02*
X89303845Y-30160000D01*
X101343845Y-30160000D02*
X101343845Y-43210000D01*
X89303845Y-30160000D02*
X89303845Y-43210000D01*
X101343845Y-43210000D02*
X89303845Y-43210000D01*
D12*
X71237593Y-89115000D02*
X71760097Y-89115000D01*
X71237593Y-90585000D02*
X71760097Y-90585000D01*
X110388845Y-33150000D02*
X110388845Y-34960000D01*
X110388845Y-34960000D02*
X105263845Y-34960000D01*
X110388845Y-41740000D02*
X109288845Y-41740000D01*
X110388845Y-43550000D02*
X110388845Y-41740000D01*
X111888845Y-33150000D02*
X110388845Y-33150000D01*
X111888845Y-43550000D02*
X110388845Y-43550000D01*
X57713845Y-121895000D02*
X55903845Y-121895000D01*
X55903845Y-121895000D02*
X55903845Y-116770000D01*
X49123845Y-121895000D02*
X49123845Y-120795000D01*
X47313845Y-121895000D02*
X49123845Y-121895000D01*
X57713845Y-123395000D02*
X57713845Y-121895000D01*
X47313845Y-123395000D02*
X47313845Y-121895000D01*
X53945845Y-79047748D02*
X53945845Y-79570252D01*
X52475845Y-79047748D02*
X52475845Y-79570252D01*
D11*
X101343845Y-70800000D02*
X89303845Y-70800000D01*
X101343845Y-70800000D02*
X101343845Y-83850000D01*
X89303845Y-70800000D02*
X89303845Y-83850000D01*
X101343845Y-83850000D02*
X89303845Y-83850000D01*
D12*
X56202593Y-107751150D02*
X56725097Y-107751150D01*
X56202593Y-109221150D02*
X56725097Y-109221150D01*
X31472593Y-89595000D02*
X31995097Y-89595000D01*
X31472593Y-91065000D02*
X31995097Y-91065000D01*
X73811781Y-81495000D02*
X74265909Y-81495000D01*
X73811781Y-82965000D02*
X74265909Y-82965000D01*
X66826781Y-87845000D02*
X67280909Y-87845000D01*
X66826781Y-89315000D02*
X67280909Y-89315000D01*
X76522593Y-107751150D02*
X77045097Y-107751150D01*
X76522593Y-109221150D02*
X77045097Y-109221150D01*
X93273845Y-114275000D02*
X91463845Y-114275000D01*
X91463845Y-114275000D02*
X91463845Y-109150000D01*
X84683845Y-114275000D02*
X84683845Y-113175000D01*
X82873845Y-114275000D02*
X84683845Y-114275000D01*
X93273845Y-115775000D02*
X93273845Y-114275000D01*
X82873845Y-115775000D02*
X82873845Y-114275000D01*
X76522593Y-99265000D02*
X77045097Y-99265000D01*
X76522593Y-100735000D02*
X77045097Y-100735000D01*
X56202593Y-110520380D02*
X56725097Y-110520380D01*
X56202593Y-111990380D02*
X56725097Y-111990380D01*
X38022593Y-110520380D02*
X38545097Y-110520380D01*
X38022593Y-111990380D02*
X38545097Y-111990380D01*
X133913845Y-114275000D02*
X132103845Y-114275000D01*
X132103845Y-114275000D02*
X132103845Y-109150000D01*
X125323845Y-114275000D02*
X125323845Y-113175000D01*
X123513845Y-114275000D02*
X125323845Y-114275000D01*
X133913845Y-115775000D02*
X133913845Y-114275000D01*
X123513845Y-115775000D02*
X123513845Y-114275000D01*
X56202593Y-102212690D02*
X56725097Y-102212690D01*
X56202593Y-103682690D02*
X56725097Y-103682690D01*
X76522593Y-110520380D02*
X77045097Y-110520380D01*
X76522593Y-111990380D02*
X77045097Y-111990380D01*
X73253845Y-94810000D02*
X73253845Y-107710000D01*
X68753845Y-94810000D02*
X73253845Y-94810000D01*
X64853845Y-94810000D02*
X60353845Y-94810000D01*
X60353845Y-94810000D02*
X60353845Y-107710000D01*
X73253845Y-107710000D02*
X68753845Y-107710000D01*
X60353845Y-107710000D02*
X64853845Y-107710000D01*
D11*
X101343845Y-50480000D02*
X89303845Y-50480000D01*
X101343845Y-50480000D02*
X101343845Y-63530000D01*
X89303845Y-50480000D02*
X89303845Y-63530000D01*
X101343845Y-63530000D02*
X89303845Y-63530000D01*
D12*
X45013845Y-121895000D02*
X43203845Y-121895000D01*
X43203845Y-121895000D02*
X43203845Y-116770000D01*
X36423845Y-121895000D02*
X36423845Y-120795000D01*
X34613845Y-121895000D02*
X36423845Y-121895000D01*
X45013845Y-123395000D02*
X45013845Y-121895000D01*
X34613845Y-123395000D02*
X34613845Y-121895000D01*
X36038845Y-79101248D02*
X36038845Y-79623752D01*
X34568845Y-79101248D02*
X34568845Y-79623752D01*
X38022593Y-99443460D02*
X38545097Y-99443460D01*
X38022593Y-100913460D02*
X38545097Y-100913460D01*
X56202593Y-96674230D02*
X56725097Y-96674230D01*
X56202593Y-98144230D02*
X56725097Y-98144230D01*
X68223845Y-75472064D02*
X68223845Y-75017936D01*
X69693845Y-75472064D02*
X69693845Y-75017936D01*
X70763845Y-75506252D02*
X70763845Y-74983748D01*
X72233845Y-75506252D02*
X72233845Y-74983748D01*
G36*
X74507741Y-28692330D02*
G01*
X84693528Y-28692330D01*
X84693528Y-26049183D01*
X87046574Y-26049183D01*
X87046574Y-33946391D01*
X84693528Y-33946391D01*
X84693528Y-31303244D01*
X74507741Y-31303244D01*
X74507741Y-33946391D01*
X72154696Y-33946391D01*
X72154696Y-26049183D01*
X74507741Y-26049183D01*
X74507741Y-28692330D01*
G37*
G36*
X80822371Y-35783701D02*
G01*
X87046574Y-35783701D01*
X87046547Y-39530846D01*
X87046241Y-40137550D01*
X87045347Y-40704666D01*
X87043883Y-41229745D01*
X87041871Y-41710335D01*
X87039329Y-42143984D01*
X87036278Y-42528243D01*
X87032737Y-42860660D01*
X87028727Y-43138785D01*
X87024267Y-43360166D01*
X87019378Y-43522353D01*
X87014078Y-43622895D01*
X87013245Y-43632559D01*
X86937698Y-44134091D01*
X86809441Y-44603118D01*
X86630508Y-45037095D01*
X86402931Y-45433474D01*
X86128745Y-45789712D01*
X85809983Y-46103261D01*
X85448678Y-46371577D01*
X85046866Y-46592114D01*
X84606579Y-46762325D01*
X84484010Y-46798591D01*
X84161675Y-46888142D01*
X82759518Y-46888142D01*
X82421409Y-46888049D01*
X82140978Y-46887566D01*
X81911437Y-46886389D01*
X81725997Y-46884211D01*
X81577871Y-46880730D01*
X81460268Y-46875640D01*
X81366402Y-46868635D01*
X81289482Y-46859412D01*
X81222722Y-46847665D01*
X81159331Y-46833090D01*
X81092523Y-46815382D01*
X81083392Y-46812878D01*
X80661595Y-46666409D01*
X80278445Y-46469764D01*
X79936034Y-46224103D01*
X79797251Y-46099275D01*
X79623183Y-45931603D01*
X79458800Y-46109747D01*
X79223165Y-46334502D01*
X78964582Y-46518756D01*
X78670007Y-46670413D01*
X78326396Y-46797372D01*
X78320855Y-46799113D01*
X78037310Y-46887955D01*
X75096003Y-46897080D01*
X72154696Y-46906204D01*
X72154696Y-44296384D01*
X74886485Y-44285563D01*
X75387548Y-44283572D01*
X75828364Y-44281638D01*
X76213151Y-44279496D01*
X76546126Y-44276880D01*
X76831509Y-44273523D01*
X77073519Y-44269159D01*
X77276372Y-44263521D01*
X77444289Y-44256344D01*
X77581487Y-44247360D01*
X77692185Y-44236303D01*
X77780601Y-44222908D01*
X77850954Y-44206907D01*
X77907462Y-44188034D01*
X77954343Y-44166023D01*
X77995817Y-44140608D01*
X78036101Y-44111522D01*
X78071594Y-44084449D01*
X78158927Y-43997422D01*
X78237319Y-43886368D01*
X78258717Y-43845573D01*
X78270955Y-43818163D01*
X78281663Y-43789475D01*
X78290957Y-43755202D01*
X78298955Y-43711035D01*
X78305775Y-43652666D01*
X78311534Y-43575790D01*
X78316352Y-43476096D01*
X78320345Y-43349279D01*
X78323632Y-43191031D01*
X78326329Y-42997043D01*
X78328556Y-42763008D01*
X78330430Y-42484619D01*
X78332068Y-42157567D01*
X78333589Y-41777546D01*
X78335111Y-41340248D01*
X78336187Y-41013587D01*
X78344963Y-38330148D01*
X80822371Y-38330148D01*
X80833579Y-40965236D01*
X80836032Y-41478959D01*
X80838785Y-41931178D01*
X80841892Y-42324854D01*
X80845409Y-42662951D01*
X80849388Y-42948430D01*
X80853885Y-43184253D01*
X80858953Y-43373383D01*
X80864646Y-43518781D01*
X80871018Y-43623411D01*
X80878123Y-43690234D01*
X80883835Y-43716934D01*
X80984370Y-43923437D01*
X81131628Y-44086023D01*
X81322620Y-44201788D01*
X81418638Y-44236809D01*
X81479721Y-44248430D01*
X81581566Y-44257887D01*
X81728273Y-44265303D01*
X81923939Y-44270800D01*
X82172662Y-44274502D01*
X82478540Y-44276531D01*
X82759518Y-44277032D01*
X83968274Y-44277229D01*
X84149427Y-44192288D01*
X84376807Y-44055812D01*
X84558334Y-43883471D01*
X84675567Y-43704729D01*
X84757995Y-43539317D01*
X84757995Y-38330148D01*
X80822371Y-38330148D01*
X78344963Y-38330148D01*
X72154696Y-38330148D01*
X72154696Y-35783701D01*
X80822371Y-35783701D01*
G37*
G36*
X77406650Y-52236492D02*
G01*
X77460355Y-52252871D01*
X77515179Y-52270094D01*
X77622604Y-52303476D01*
X77773613Y-52350227D01*
X77959189Y-52407561D01*
X78170314Y-52472688D01*
X78397969Y-52542819D01*
X78407995Y-52545905D01*
X78634990Y-52616623D01*
X78844579Y-52683512D01*
X79027994Y-52743648D01*
X79176470Y-52794108D01*
X79281239Y-52831966D01*
X79333532Y-52854299D01*
X79334708Y-52855016D01*
X79389602Y-52913994D01*
X79407148Y-53007815D01*
X79407234Y-53017444D01*
X79399119Y-53073223D01*
X79375950Y-53183976D01*
X79339491Y-53342445D01*
X79291507Y-53541369D01*
X79233761Y-53773489D01*
X79168017Y-54031544D01*
X79096039Y-54308275D01*
X79064748Y-54426916D01*
X78989006Y-54712987D01*
X78916663Y-54986374D01*
X78849778Y-55239275D01*
X78790413Y-55463890D01*
X78740629Y-55652419D01*
X78702489Y-55797062D01*
X78678052Y-55890017D01*
X78672978Y-55909438D01*
X78623694Y-56098755D01*
X78807226Y-56259741D01*
X78920120Y-56363818D01*
X79003631Y-56458013D01*
X79062453Y-56555135D01*
X79101283Y-56667990D01*
X79124817Y-56809387D01*
X79137750Y-56992133D01*
X79143632Y-57177287D01*
X79147729Y-57364647D01*
X79148918Y-57498702D01*
X79145824Y-57590595D01*
X79137075Y-57651468D01*
X79121297Y-57692466D01*
X79097117Y-57724731D01*
X79073114Y-57749432D01*
X78970688Y-57817201D01*
X78865580Y-57828695D01*
X78772232Y-57785005D01*
X78722008Y-57722865D01*
X78705660Y-57663438D01*
X78690291Y-57551182D01*
X78677118Y-57397734D01*
X78667357Y-57214734D01*
X78666495Y-57191927D01*
X78657609Y-56984787D01*
X78643843Y-56833365D01*
X78618669Y-56728936D01*
X78575559Y-56662773D01*
X78507987Y-56626148D01*
X78409426Y-56610336D01*
X78273348Y-56606610D01*
X78228657Y-56606544D01*
X78047216Y-56612874D01*
X77918638Y-56634155D01*
X77832355Y-56673822D01*
X77777800Y-56735310D01*
X77766880Y-56756665D01*
X77752566Y-56819771D01*
X77741013Y-56931383D01*
X77733456Y-57075557D01*
X77731092Y-57218398D01*
X77728085Y-57421906D01*
X77717480Y-57570945D01*
X77696903Y-57675302D01*
X77663980Y-57744764D01*
X77616334Y-57789117D01*
X77589065Y-57803670D01*
X77473142Y-57826772D01*
X77372601Y-57790281D01*
X77299478Y-57698982D01*
X77293815Y-57686254D01*
X77272059Y-57596366D01*
X77257591Y-57459819D01*
X77250453Y-57294012D01*
X77250685Y-57116345D01*
X77258329Y-56944217D01*
X77273425Y-56795026D01*
X77291490Y-56701650D01*
X77377273Y-56488473D01*
X77505522Y-56321323D01*
X77672812Y-56203456D01*
X77875720Y-56138127D01*
X77886091Y-56136401D01*
X77987698Y-56113751D01*
X78063785Y-56076113D01*
X78122750Y-56012760D01*
X78172992Y-55912968D01*
X78222911Y-55766007D01*
X78250515Y-55670987D01*
X78301079Y-55488742D01*
X78358491Y-55276897D01*
X78420783Y-55043170D01*
X78485992Y-54795276D01*
X78552150Y-54540931D01*
X78617292Y-54287850D01*
X78679452Y-54043749D01*
X78736664Y-53816344D01*
X78786964Y-53613351D01*
X78828384Y-53442485D01*
X78858959Y-53311463D01*
X78876723Y-53227999D01*
X78880096Y-53199880D01*
X78846315Y-53185761D01*
X78759652Y-53154431D01*
X78628482Y-53108775D01*
X78461176Y-53051682D01*
X78266107Y-52986038D01*
X78088031Y-52926768D01*
X77312056Y-52669747D01*
X77312056Y-52446267D01*
X77313809Y-52324248D01*
X77324614Y-52255844D01*
X77352788Y-52230208D01*
X77406650Y-52236492D01*
G37*
G36*
X73725044Y-53144122D02*
G01*
X73848193Y-53148667D01*
X74021075Y-53180934D01*
X74159956Y-53237513D01*
X74182352Y-53252084D01*
X74258731Y-53326727D01*
X74323739Y-53422519D01*
X74329416Y-53433901D01*
X74372473Y-53509072D01*
X74413944Y-53535032D01*
X74454265Y-53529730D01*
X74524655Y-53514993D01*
X74631250Y-53499134D01*
X74709413Y-53490008D01*
X74894967Y-53470902D01*
X75150111Y-53725703D01*
X75283937Y-53865269D01*
X75372636Y-53976124D01*
X75421233Y-54070065D01*
X75434753Y-54158888D01*
X75418220Y-54254388D01*
X75399344Y-54310793D01*
X75372535Y-54404248D01*
X75365557Y-54476531D01*
X75370278Y-54495850D01*
X75408714Y-54535671D01*
X75483536Y-54595187D01*
X75555112Y-54645578D01*
X75640501Y-54708172D01*
X75697826Y-54770408D01*
X75732877Y-54847119D01*
X75751447Y-54953144D01*
X75759327Y-55103316D01*
X75760680Y-55172153D01*
X75760853Y-55352775D01*
X75751485Y-55482665D01*
X75727424Y-55575404D01*
X75683520Y-55644577D01*
X75614623Y-55703768D01*
X75541108Y-55751205D01*
X75358118Y-55862365D01*
X75389700Y-56053330D01*
X75403879Y-56169829D01*
X75398968Y-56265971D01*
X75368915Y-56355463D01*
X75307667Y-56452012D01*
X75209170Y-56569326D01*
X75118690Y-56667040D01*
X74894269Y-56904821D01*
X74725180Y-56882463D01*
X74570262Y-56862883D01*
X74466178Y-56854716D01*
X74399901Y-56860564D01*
X74358404Y-56883032D01*
X74328659Y-56924724D01*
X74308313Y-56965772D01*
X74253329Y-57066324D01*
X74191629Y-57136532D01*
X74110865Y-57181633D01*
X73998686Y-57206863D01*
X73842742Y-57217459D01*
X73711194Y-57218980D01*
X73551813Y-57218369D01*
X73443236Y-57214736D01*
X73371801Y-57205376D01*
X73323844Y-57187589D01*
X73285704Y-57158672D01*
X73256214Y-57128986D01*
X73179990Y-57035871D01*
X73114761Y-56935119D01*
X73113089Y-56932007D01*
X73085699Y-56881459D01*
X73059606Y-56851494D01*
X73020756Y-56840258D01*
X72955092Y-56845895D01*
X72848560Y-56866547D01*
X72759486Y-56885309D01*
X72667151Y-56893774D01*
X72579304Y-56873721D01*
X72484464Y-56818988D01*
X72371150Y-56723414D01*
X72266784Y-56620867D01*
X72139869Y-56484836D01*
X72057938Y-56376165D01*
X72015835Y-56281693D01*
X72008403Y-56188260D01*
X72030487Y-56082704D01*
X72041973Y-56047070D01*
X72068058Y-55953279D01*
X72077082Y-55883525D01*
X72073424Y-55864061D01*
X72034313Y-55830605D01*
X71959761Y-55784842D01*
X71927346Y-55767597D01*
X71830565Y-55709725D01*
X71763632Y-55643322D01*
X71720904Y-55555361D01*
X71696735Y-55432818D01*
X71685480Y-55262666D01*
X71683900Y-55205837D01*
X71683910Y-55200564D01*
X72940556Y-55200564D01*
X72972630Y-55411989D01*
X73025619Y-55544051D01*
X73109718Y-55665489D01*
X73228008Y-55782784D01*
X73359157Y-55877601D01*
X73474163Y-55929588D01*
X73705512Y-55965636D01*
X73918067Y-55940018D01*
X74111841Y-55852730D01*
X74266667Y-55725076D01*
X74409362Y-55539767D01*
X74489948Y-55344107D01*
X74508239Y-55143668D01*
X74464045Y-54944023D01*
X74357179Y-54750743D01*
X74301856Y-54682117D01*
X74142032Y-54536465D01*
X73966064Y-54449643D01*
X73762064Y-54416154D01*
X73725044Y-54415373D01*
X73508217Y-54439218D01*
X73324054Y-54515115D01*
X73191476Y-54617758D01*
X73051916Y-54792628D01*
X72967630Y-54990503D01*
X72940556Y-55200564D01*
X71683910Y-55200564D01*
X71684240Y-55028922D01*
X71693512Y-54892636D01*
X71710901Y-54807791D01*
X71714560Y-54799351D01*
X71766578Y-54732096D01*
X71846621Y-54663175D01*
X71865064Y-54650661D01*
X71977774Y-54578204D01*
X72045566Y-54528801D01*
X72076509Y-54488784D01*
X72078668Y-54444484D01*
X72060111Y-54382232D01*
X72046591Y-54343070D01*
X72016534Y-54232269D01*
X72016012Y-54146641D01*
X72031864Y-54086153D01*
X72091496Y-53968820D01*
X72189274Y-53835885D01*
X72308910Y-53706287D01*
X72434117Y-53598964D01*
X72474891Y-53571022D01*
X72618640Y-53500309D01*
X72752724Y-53484182D01*
X72898261Y-53520587D01*
X72916643Y-53528030D01*
X73017231Y-53558837D01*
X73073335Y-53546844D01*
X73089467Y-53496581D01*
X73112765Y-53436040D01*
X73171498Y-53356623D01*
X73248922Y-53277317D01*
X73328295Y-53217110D01*
X73343116Y-53208937D01*
X73487457Y-53161551D01*
X73663068Y-53141834D01*
X73725044Y-53144122D01*
G37*
G36*
X73733319Y-47710315D02*
G01*
X73744675Y-47710217D01*
X73899201Y-47710882D01*
X74003493Y-47714963D01*
X74071782Y-47725401D01*
X74118300Y-47745133D01*
X74157279Y-47777099D01*
X74179827Y-47800091D01*
X74256023Y-47893161D01*
X74321207Y-47993829D01*
X74322891Y-47996961D01*
X74348258Y-48044702D01*
X74372081Y-48074681D01*
X74407239Y-48088530D01*
X74466614Y-48087877D01*
X74563085Y-48074354D01*
X74709534Y-48049588D01*
X74722041Y-48047467D01*
X74786920Y-48038812D01*
X74838669Y-48043624D01*
X74891906Y-48069294D01*
X74961251Y-48123215D01*
X75061325Y-48212778D01*
X75076609Y-48226744D01*
X75186696Y-48335424D01*
X75286933Y-48448448D01*
X75360339Y-48546225D01*
X75375876Y-48571981D01*
X75422077Y-48665643D01*
X75437515Y-48736617D01*
X75426853Y-48816074D01*
X75417755Y-48851896D01*
X75394699Y-48984037D01*
X75412435Y-49076598D01*
X75475707Y-49143448D01*
X75527315Y-49172241D01*
X75640988Y-49261630D01*
X75718019Y-49403451D01*
X75758039Y-49596845D01*
X75764140Y-49724904D01*
X75759903Y-49857976D01*
X75748153Y-49981459D01*
X75733249Y-50060929D01*
X75697437Y-50141122D01*
X75640274Y-50228203D01*
X75576512Y-50303441D01*
X75520902Y-50348104D01*
X75503048Y-50353244D01*
X75457537Y-50363696D01*
X75397512Y-50384204D01*
X75343465Y-50410197D01*
X75335358Y-50444278D01*
X75362982Y-50505080D01*
X75408445Y-50657210D01*
X75401840Y-50821843D01*
X75345128Y-50976314D01*
X75318660Y-51017253D01*
X75222811Y-51133933D01*
X75111135Y-51247447D01*
X74998367Y-51344749D01*
X74899243Y-51412793D01*
X74845538Y-51436111D01*
X74764295Y-51444675D01*
X74651766Y-51442769D01*
X74587147Y-51437084D01*
X74481994Y-51428136D01*
X74413038Y-51439146D01*
X74360113Y-51481068D01*
X74303058Y-51564857D01*
X74279490Y-51604232D01*
X74214234Y-51687302D01*
X74126435Y-51744357D01*
X74004936Y-51779128D01*
X73838581Y-51795347D01*
X73701069Y-51797708D01*
X73514520Y-51791848D01*
X73379128Y-51771892D01*
X73282170Y-51732424D01*
X73210922Y-51668027D01*
X73152661Y-51573283D01*
X73147002Y-51561815D01*
X73098568Y-51475307D01*
X73053660Y-51416369D01*
X73036586Y-51403554D01*
X72983393Y-51403933D01*
X72895965Y-51423028D01*
X72849811Y-51437339D01*
X72737126Y-51466936D01*
X72647362Y-51465035D01*
X72597878Y-51451833D01*
X72524750Y-51410644D01*
X72426458Y-51332869D01*
X72315815Y-51231478D01*
X72205635Y-51119439D01*
X72108731Y-51009723D01*
X72037916Y-50915299D01*
X72006980Y-50853722D01*
X72005551Y-50760746D01*
X72033855Y-50644260D01*
X72038865Y-50630634D01*
X72067341Y-50537455D01*
X72077218Y-50464642D01*
X72074469Y-50446383D01*
X72037422Y-50405652D01*
X71962724Y-50352993D01*
X71914538Y-50325380D01*
X71799923Y-50244682D01*
X71727360Y-50152179D01*
X71725579Y-50148402D01*
X71698761Y-50049967D01*
X71682972Y-49909938D01*
X71678137Y-49749375D01*
X71678372Y-49743146D01*
X72945081Y-49743146D01*
X72974250Y-49951048D01*
X73049142Y-50135807D01*
X73176394Y-50311022D01*
X73335064Y-50436783D01*
X73515225Y-50513101D01*
X73706949Y-50539985D01*
X73900308Y-50517443D01*
X74085375Y-50445485D01*
X74252221Y-50324120D01*
X74390919Y-50153356D01*
X74402264Y-50134576D01*
X74470027Y-49963299D01*
X74495716Y-49767079D01*
X74478762Y-49570099D01*
X74419555Y-49398352D01*
X74289780Y-49216221D01*
X74121666Y-49084892D01*
X73919992Y-49007236D01*
X73733319Y-48985630D01*
X73512273Y-49011535D01*
X73320429Y-49088787D01*
X73162788Y-49208979D01*
X73044350Y-49363706D01*
X72970115Y-49544564D01*
X72945081Y-49743146D01*
X71678372Y-49743146D01*
X71684180Y-49589336D01*
X71701026Y-49450879D01*
X71728415Y-49355444D01*
X71788785Y-49273898D01*
X71877291Y-49198210D01*
X71901798Y-49182901D01*
X71995010Y-49119115D01*
X72039970Y-49051227D01*
X72044073Y-48959726D01*
X72023957Y-48860573D01*
X72008127Y-48752209D01*
X72022755Y-48651805D01*
X72073357Y-48548265D01*
X72165450Y-48430491D01*
X72304548Y-48287387D01*
X72312915Y-48279292D01*
X72448554Y-48156287D01*
X72558272Y-48079409D01*
X72655378Y-48043624D01*
X72753181Y-48043904D01*
X72858788Y-48072965D01*
X72951912Y-48100446D01*
X73023049Y-48110846D01*
X73041091Y-48108565D01*
X73078038Y-48071664D01*
X73123493Y-47997042D01*
X73140818Y-47961311D01*
X73195905Y-47861292D01*
X73263823Y-47791085D01*
X73356209Y-47745849D01*
X73484699Y-47720748D01*
X73660929Y-47710941D01*
X73733319Y-47710315D01*
G37*
G36*
X85858839Y-48515934D02*
G01*
X87046829Y-48515934D01*
X87038643Y-52472597D01*
X87030457Y-56429259D01*
X85861993Y-56437720D01*
X84693528Y-56446180D01*
X84693528Y-55016867D01*
X85258080Y-55016867D01*
X85262996Y-55190581D01*
X85322406Y-55361893D01*
X85362484Y-55427150D01*
X85492568Y-55562019D01*
X85650824Y-55648090D01*
X85824297Y-55684641D01*
X86000031Y-55670948D01*
X86165073Y-55606286D01*
X86306466Y-55489932D01*
X86314711Y-55480348D01*
X86414066Y-55318743D01*
X86457734Y-55146901D01*
X86450430Y-54975174D01*
X86396866Y-54813916D01*
X86301756Y-54673479D01*
X86169816Y-54564215D01*
X86005758Y-54496479D01*
X85858839Y-54479132D01*
X85673602Y-54507629D01*
X85515420Y-54586133D01*
X85389780Y-54704162D01*
X85302171Y-54851234D01*
X85258080Y-55016867D01*
X84693528Y-55016867D01*
X84693528Y-53769995D01*
X82114848Y-53769995D01*
X81713387Y-53769701D01*
X81331071Y-53768847D01*
X80972725Y-53767479D01*
X80643176Y-53765643D01*
X80347247Y-53763383D01*
X80089766Y-53760745D01*
X79875557Y-53757774D01*
X79709445Y-53754515D01*
X79596257Y-53751013D01*
X79540818Y-53747315D01*
X79535892Y-53745820D01*
X79542780Y-53706542D01*
X79561703Y-53618032D01*
X79589697Y-53493757D01*
X79620950Y-53359267D01*
X79657203Y-53202817D01*
X79679277Y-53093911D01*
X79688025Y-53017405D01*
X79684302Y-52958153D01*
X79668963Y-52901010D01*
X79649751Y-52848861D01*
X79574590Y-52713861D01*
X79492168Y-52638452D01*
X79429100Y-52608673D01*
X79316449Y-52564534D01*
X79166315Y-52510415D01*
X78990797Y-52450697D01*
X78827031Y-52397649D01*
X78603322Y-52326625D01*
X78359885Y-52248895D01*
X78119828Y-52171866D01*
X77906261Y-52102944D01*
X77814154Y-52073031D01*
X77651025Y-52020251D01*
X77507130Y-51974367D01*
X77394855Y-51939279D01*
X77326587Y-51918885D01*
X77314535Y-51915750D01*
X77248008Y-51901419D01*
X77158910Y-51882415D01*
X77158107Y-51882244D01*
X77052508Y-51859824D01*
X77061407Y-52370246D01*
X77070305Y-52880668D01*
X77818991Y-53123872D01*
X78026219Y-53192248D01*
X78211503Y-53255414D01*
X78366497Y-53310358D01*
X78482856Y-53354067D01*
X78552233Y-53383531D01*
X78568419Y-53394349D01*
X78560423Y-53438262D01*
X78539032Y-53522681D01*
X78518525Y-53595808D01*
X78467888Y-53769995D01*
X77054903Y-53769995D01*
X77038071Y-56429259D01*
X76376194Y-56437950D01*
X75714316Y-56446642D01*
X75719091Y-56232855D01*
X75723825Y-56116383D01*
X75736278Y-56045277D01*
X75763583Y-56000438D01*
X75812869Y-55962767D01*
X75822150Y-55956839D01*
X75917794Y-55880989D01*
X75984327Y-55785716D01*
X76031210Y-55654128D01*
X76055954Y-55539341D01*
X76070577Y-55411572D01*
X76076421Y-55251160D01*
X76074179Y-55077200D01*
X76064547Y-54908784D01*
X76048217Y-54765007D01*
X76025883Y-54664962D01*
X76023993Y-54659774D01*
X75984064Y-54596580D01*
X75913650Y-54517559D01*
X75872710Y-54479109D01*
X75803257Y-54413523D01*
X75765794Y-54356393D01*
X75750036Y-54283071D01*
X75745788Y-54174885D01*
X75736766Y-54045900D01*
X75709195Y-53934232D01*
X75655903Y-53826999D01*
X75569718Y-53711324D01*
X75443468Y-53574325D01*
X75370753Y-53501377D01*
X75215318Y-53355772D01*
X75085907Y-53255506D01*
X74970257Y-53194050D01*
X74856106Y-53164874D01*
X74732254Y-53161393D01*
X74629093Y-53160298D01*
X74553162Y-53135759D01*
X74472117Y-53076207D01*
X74456711Y-53062829D01*
X74309286Y-52955006D01*
X74148342Y-52885512D01*
X73951593Y-52845219D01*
X73914547Y-52840789D01*
X73718021Y-52819107D01*
X73708872Y-52472597D01*
X73705949Y-52331652D01*
X73705107Y-52217929D01*
X73706348Y-52144678D01*
X73708872Y-52124114D01*
X73743189Y-52121812D01*
X73824257Y-52117688D01*
X73932778Y-52112711D01*
X74127723Y-52082668D01*
X74301884Y-52015050D01*
X74439426Y-51917274D01*
X74496959Y-51848484D01*
X74540462Y-51797541D01*
X74597420Y-51775877D01*
X74692287Y-51774541D01*
X74698180Y-51774833D01*
X74874378Y-51756721D01*
X75055172Y-51682839D01*
X75245500Y-51550742D01*
X75362956Y-51445767D01*
X75543206Y-51247585D01*
X75662476Y-51056281D01*
X75723225Y-50867267D01*
X75732614Y-50756157D01*
X75738336Y-50649456D01*
X75763916Y-50576098D01*
X75821975Y-50505367D01*
X75845033Y-50482564D01*
X75938948Y-50373708D01*
X76004573Y-50250509D01*
X76045733Y-50100108D01*
X76066249Y-49909646D01*
X76070381Y-49724691D01*
X76062503Y-49508057D01*
X76036534Y-49339432D01*
X75987543Y-49203718D01*
X75910602Y-49085814D01*
X75834818Y-49003167D01*
X75785453Y-48944564D01*
X75758416Y-48877760D01*
X75746482Y-48780009D01*
X75744048Y-48717394D01*
X75738750Y-48515934D01*
X77054188Y-48515934D01*
X77054188Y-51159346D01*
X80865800Y-51151155D01*
X84677411Y-51142965D01*
X84685831Y-49829450D01*
X84694251Y-48515934D01*
X85858839Y-48515934D01*
G37*
G36*
X76530761Y-59093711D02*
G01*
X76539187Y-60372123D01*
X75886091Y-60383468D01*
X75659061Y-60388029D01*
X75486164Y-60393445D01*
X75357065Y-60400734D01*
X75261430Y-60410914D01*
X75188925Y-60425003D01*
X75129216Y-60444019D01*
X75086307Y-60462269D01*
X74871777Y-60594321D01*
X74692340Y-60772387D01*
X74611268Y-60889962D01*
X74523858Y-61038650D01*
X74523858Y-63423929D01*
X74523879Y-63872727D01*
X74524028Y-64261618D01*
X74524430Y-64595164D01*
X74525212Y-64877925D01*
X74526501Y-65114462D01*
X74528423Y-65309335D01*
X74531105Y-65467105D01*
X74534674Y-65592333D01*
X74539257Y-65689580D01*
X74544979Y-65763406D01*
X74551967Y-65818372D01*
X74560349Y-65859039D01*
X74570250Y-65889967D01*
X74581797Y-65915717D01*
X74593652Y-65938142D01*
X74709457Y-66100982D01*
X74867740Y-66252836D01*
X75047186Y-66373416D01*
X75055711Y-66377936D01*
X75094051Y-66397455D01*
X75131551Y-66413306D01*
X75175020Y-66425870D01*
X75231267Y-66435529D01*
X75307100Y-66442665D01*
X75409329Y-66447659D01*
X75544764Y-66450894D01*
X75720212Y-66452752D01*
X75942483Y-66453615D01*
X76218387Y-66453864D01*
X76409518Y-66453879D01*
X76720865Y-66453773D01*
X76974504Y-66453219D01*
X77177193Y-66451863D01*
X77335691Y-66449351D01*
X77456757Y-66445329D01*
X77547149Y-66439444D01*
X77613626Y-66431339D01*
X77662946Y-66420663D01*
X77701868Y-66407060D01*
X77737152Y-66390178D01*
X77749407Y-66383687D01*
X77881402Y-66291617D01*
X78014384Y-66163807D01*
X78124981Y-66024206D01*
X78163686Y-65959205D01*
X78219000Y-65826654D01*
X78275112Y-65647458D01*
X78327627Y-65439230D01*
X78372148Y-65219583D01*
X78404280Y-65006131D01*
X78406643Y-64985803D01*
X78416553Y-64864627D01*
X78424473Y-64693272D01*
X78430430Y-64469459D01*
X78434456Y-64190912D01*
X78436581Y-63855351D01*
X78436835Y-63460500D01*
X78435248Y-63004079D01*
X78434534Y-62874509D01*
X78432324Y-62491749D01*
X78430688Y-62167518D01*
X78429812Y-61895876D01*
X78429882Y-61670888D01*
X78431084Y-61486615D01*
X78433604Y-61337119D01*
X78437626Y-61216462D01*
X78443337Y-61118708D01*
X78450922Y-61037918D01*
X78460568Y-60968154D01*
X78472459Y-60903480D01*
X78486782Y-60837956D01*
X78499992Y-60781462D01*
X78624684Y-60332884D01*
X78777463Y-59933905D01*
X78963952Y-59573699D01*
X79189773Y-59241437D01*
X79460551Y-58926294D01*
X79466969Y-58919562D01*
X79791541Y-58621441D01*
X80145494Y-58377061D01*
X80532077Y-58184949D01*
X80954539Y-58043632D01*
X81416130Y-57951636D01*
X81663579Y-57923589D01*
X81841504Y-57912141D01*
X82061365Y-57904467D01*
X82312921Y-57900355D01*
X82585929Y-57899595D01*
X82870147Y-57901976D01*
X83155335Y-57907287D01*
X83431250Y-57915317D01*
X83687651Y-57925855D01*
X83914295Y-57938690D01*
X84100942Y-57953611D01*
X84237350Y-57970407D01*
X84274493Y-57977371D01*
X84741390Y-58109991D01*
X85172029Y-58294766D01*
X85564074Y-58529619D01*
X85915190Y-58812472D01*
X86223043Y-59141249D01*
X86485296Y-59513872D01*
X86699616Y-59928264D01*
X86819605Y-60241287D01*
X86858280Y-60357962D01*
X86891911Y-60463565D01*
X86920850Y-60563360D01*
X86945448Y-60662613D01*
X86966059Y-60766589D01*
X86983034Y-60880554D01*
X86996726Y-61009772D01*
X87007486Y-61159509D01*
X87015667Y-61335030D01*
X87021620Y-61541601D01*
X87025698Y-61784487D01*
X87028253Y-62068953D01*
X87029637Y-62400264D01*
X87030203Y-62783686D01*
X87030301Y-63224483D01*
X87030291Y-63391696D01*
X87030223Y-63831188D01*
X87029992Y-64211283D01*
X87029457Y-64537053D01*
X87028475Y-64813566D01*
X87026903Y-65045895D01*
X87024601Y-65239108D01*
X87021425Y-65398277D01*
X87017233Y-65528472D01*
X87011884Y-65634763D01*
X87005235Y-65722221D01*
X86997144Y-65795917D01*
X86987468Y-65860920D01*
X86976067Y-65922301D01*
X86962796Y-65985130D01*
X86956812Y-66012353D01*
X86819953Y-66501578D01*
X86635490Y-66949937D01*
X86405456Y-67355549D01*
X86131886Y-67716531D01*
X85816812Y-68031002D01*
X85462270Y-68297079D01*
X85070292Y-68512882D01*
X84642913Y-68676528D01*
X84182167Y-68786135D01*
X83919924Y-68822221D01*
X83773556Y-68833878D01*
X83584358Y-68843712D01*
X83373959Y-68850860D01*
X83163989Y-68854459D01*
X83106028Y-68854716D01*
X82598351Y-68855274D01*
X82598351Y-66283213D01*
X83251079Y-66270799D01*
X83478637Y-66265825D01*
X83652060Y-66260037D01*
X83781681Y-66252410D01*
X83877831Y-66241919D01*
X83950842Y-66227542D01*
X84011048Y-66208254D01*
X84050496Y-66191559D01*
X84264506Y-66060482D01*
X84443947Y-65882733D01*
X84525534Y-65764496D01*
X84612944Y-65615807D01*
X84612944Y-61135351D01*
X84524529Y-60984948D01*
X84383509Y-60799943D01*
X84204252Y-60649433D01*
X84004564Y-60548360D01*
X84004031Y-60548173D01*
X83953985Y-60532745D01*
X83896641Y-60520310D01*
X83824837Y-60510556D01*
X83731414Y-60503165D01*
X83609210Y-60497826D01*
X83451064Y-60494222D01*
X83249816Y-60492040D01*
X82998304Y-60490964D01*
X82695051Y-60490681D01*
X81550762Y-60490681D01*
X81363237Y-60582761D01*
X81200176Y-60687971D01*
X81062254Y-60833619D01*
X80946653Y-61024831D01*
X80850552Y-61266737D01*
X80771134Y-61564463D01*
X80740546Y-61715554D01*
X80724701Y-61806413D01*
X80712097Y-61896095D01*
X80702496Y-61992606D01*
X80695659Y-62103956D01*
X80691348Y-62238151D01*
X80689324Y-62403200D01*
X80689349Y-62607111D01*
X80691184Y-62857892D01*
X80694590Y-63163550D01*
X80695421Y-63230528D01*
X80701226Y-63711260D01*
X80705730Y-64132281D01*
X80708841Y-64498335D01*
X80710470Y-64814167D01*
X80710525Y-65084519D01*
X80708918Y-65314138D01*
X80705556Y-65507767D01*
X80700350Y-65670151D01*
X80693209Y-65806034D01*
X80684044Y-65920159D01*
X80672762Y-66017273D01*
X80659275Y-66102118D01*
X80643491Y-66179439D01*
X80638835Y-66199597D01*
X80493338Y-66695188D01*
X80301814Y-67148639D01*
X80066091Y-67558207D01*
X79787999Y-67922149D01*
X79469369Y-68238721D01*
X79112028Y-68506180D01*
X78717808Y-68722783D01*
X78288538Y-68886787D01*
X77826046Y-68996447D01*
X77680408Y-69018579D01*
X77557199Y-69029305D01*
X77372697Y-69037094D01*
X77130011Y-69041900D01*
X76832250Y-69043678D01*
X76482524Y-69042382D01*
X76226265Y-69039840D01*
X75882764Y-69035171D01*
X75595653Y-69029573D01*
X75356856Y-69022090D01*
X75158296Y-69011766D01*
X74991895Y-68997645D01*
X74849577Y-68978771D01*
X74723266Y-68954189D01*
X74604884Y-68922944D01*
X74486355Y-68884079D01*
X74359602Y-68836639D01*
X74295608Y-68811394D01*
X73943710Y-68651760D01*
X73635312Y-68467501D01*
X73350584Y-68246061D01*
X73232491Y-68138190D01*
X72929010Y-67816901D01*
X72681358Y-67480822D01*
X72480908Y-67116433D01*
X72319036Y-66710216D01*
X72316498Y-66702661D01*
X72278881Y-66589068D01*
X72246235Y-66484839D01*
X72218194Y-66384619D01*
X72194394Y-66283055D01*
X72174468Y-66174793D01*
X72158053Y-66054480D01*
X72144783Y-65916762D01*
X72134292Y-65756285D01*
X72126216Y-65567696D01*
X72120190Y-65345641D01*
X72115848Y-65084767D01*
X72112826Y-64779719D01*
X72110758Y-64425145D01*
X72109279Y-64015691D01*
X72108287Y-63649564D01*
X72107668Y-63268776D01*
X72107740Y-62898881D01*
X72108458Y-62546245D01*
X72109779Y-62217234D01*
X72111660Y-61918213D01*
X72114058Y-61655550D01*
X72116928Y-61435610D01*
X72120228Y-61264760D01*
X72123914Y-61149364D01*
X72125549Y-61119234D01*
X72187768Y-60634674D01*
X72305424Y-60176213D01*
X72475540Y-59747382D01*
X72695138Y-59351707D01*
X72961241Y-58992717D01*
X73270870Y-58673942D01*
X73621049Y-58398909D01*
X74008799Y-58171147D01*
X74431143Y-57994184D01*
X74862310Y-57876209D01*
X74983955Y-57854705D01*
X75120336Y-57838804D01*
X75282912Y-57827806D01*
X75483138Y-57821014D01*
X75732471Y-57817730D01*
X75829315Y-57817291D01*
X76522335Y-57815300D01*
X76530761Y-59093711D01*
G37*
X38022593Y-107751150D02*
X38545097Y-107751150D01*
X38022593Y-109221150D02*
X38545097Y-109221150D01*
D11*
X134363845Y-108240000D02*
X134363845Y-96200000D01*
X134363845Y-108240000D02*
X121313845Y-108240000D01*
X134363845Y-96200000D02*
X121313845Y-96200000D01*
X121313845Y-108240000D02*
X121313845Y-96200000D01*
D12*
X26286781Y-89595000D02*
X26740909Y-89595000D01*
X26286781Y-91065000D02*
X26740909Y-91065000D01*
X38022593Y-104981920D02*
X38545097Y-104981920D01*
X38022593Y-106451920D02*
X38545097Y-106451920D01*
X52856781Y-82130000D02*
X53310909Y-82130000D01*
X52856781Y-83600000D02*
X53310909Y-83600000D01*
X110388845Y-73790000D02*
X110388845Y-75600000D01*
X110388845Y-75600000D02*
X105263845Y-75600000D01*
X110388845Y-82380000D02*
X109288845Y-82380000D01*
X110388845Y-84190000D02*
X110388845Y-82380000D01*
X111888845Y-73790000D02*
X110388845Y-73790000D01*
X111888845Y-84190000D02*
X110388845Y-84190000D01*
X56202593Y-99443460D02*
X56725097Y-99443460D01*
X56202593Y-100913460D02*
X56725097Y-100913460D01*
D13*
X67116345Y-76387500D02*
X66616345Y-76387500D01*
X63516345Y-76387500D02*
X63116345Y-76387500D01*
X63116345Y-76387500D02*
X63116345Y-76487500D01*
X63116345Y-79887500D02*
X63116345Y-80387500D01*
X67116345Y-80387500D02*
X66866345Y-80387500D01*
X63116345Y-80387500D02*
X63216345Y-80387500D01*
D14*
X66036345Y-75560500D02*
G75*
G03*
X66036345Y-75560500I-120000J0D01*
G01*
D12*
X70413845Y-121895000D02*
X68603845Y-121895000D01*
X68603845Y-121895000D02*
X68603845Y-116770000D01*
X61823845Y-121895000D02*
X61823845Y-120795000D01*
X60013845Y-121895000D02*
X61823845Y-121895000D01*
X70413845Y-123395000D02*
X70413845Y-121895000D01*
X60013845Y-123395000D02*
X60013845Y-121895000D01*
X66826781Y-85305000D02*
X67280909Y-85305000D01*
X66826781Y-86775000D02*
X67280909Y-86775000D01*
X32768845Y-79115436D02*
X32768845Y-79569564D01*
X31298845Y-79115436D02*
X31298845Y-79569564D01*
X38022593Y-93905000D02*
X38545097Y-93905000D01*
X38022593Y-95375000D02*
X38545097Y-95375000D01*
X49608845Y-75601252D02*
X49608845Y-75078748D01*
X51078845Y-75601252D02*
X51078845Y-75078748D01*
D11*
X114043845Y-108240000D02*
X114043845Y-96200000D01*
X114043845Y-108240000D02*
X100993845Y-108240000D01*
X114043845Y-96200000D02*
X100993845Y-96200000D01*
X100993845Y-108240000D02*
X100993845Y-96200000D01*
D13*
X28643845Y-76420000D02*
X28143845Y-76420000D01*
X25043845Y-76420000D02*
X24643845Y-76420000D01*
X24643845Y-76420000D02*
X24643845Y-76520000D01*
X24643845Y-79920000D02*
X24643845Y-80420000D01*
X28643845Y-80420000D02*
X28393845Y-80420000D01*
X24643845Y-80420000D02*
X24743845Y-80420000D01*
D14*
X27563845Y-75593000D02*
G75*
G03*
X27563845Y-75593000I-120000J0D01*
G01*
D12*
X45236781Y-87845000D02*
X45690909Y-87845000D01*
X45236781Y-89315000D02*
X45690909Y-89315000D01*
X76522593Y-102212690D02*
X77045097Y-102212690D01*
X76522593Y-103682690D02*
X77045097Y-103682690D01*
X76522593Y-96445000D02*
X77045097Y-96445000D01*
X76522593Y-97915000D02*
X77045097Y-97915000D01*
X38022593Y-102212690D02*
X38545097Y-102212690D01*
X38022593Y-103682690D02*
X38545097Y-103682690D01*
X45236781Y-85813000D02*
X45690909Y-85813000D01*
X45236781Y-87283000D02*
X45690909Y-87283000D01*
X31718845Y-75601252D02*
X31718845Y-75078748D01*
X33188845Y-75601252D02*
X33188845Y-75078748D01*
%LPC*%
D15*
X137375000Y-27000000D03*
X138143845Y-25143845D03*
X138143845Y-28856155D03*
X140000000Y-24375000D03*
D16*
X140000000Y-27000000D03*
D15*
X140000000Y-29625000D03*
X141856155Y-25143845D03*
X141856155Y-28856155D03*
X142625000Y-27000000D03*
D17*
X48958845Y-89215000D03*
X50858845Y-89215000D03*
D18*
X47119999Y-95564999D03*
X47119999Y-106994999D03*
D19*
X107563845Y-56130000D03*
D20*
X116713845Y-58670000D03*
D19*
X107563845Y-61210000D03*
D21*
X94863845Y-98500000D03*
D22*
X91113845Y-99350000D03*
X84763845Y-106850000D03*
D21*
X91763845Y-106350000D03*
D17*
X55513845Y-105716920D03*
X57413845Y-105716920D03*
D23*
X45013844Y-76394999D03*
X44563844Y-76394999D03*
X43663844Y-76394999D03*
X43213844Y-76394999D03*
D24*
X42113844Y-76944999D03*
X42113844Y-77394999D03*
X42113844Y-77844999D03*
X42113844Y-78544999D03*
X42113844Y-78994999D03*
D25*
X42478844Y-77969999D03*
D26*
X42253844Y-79444999D03*
D27*
X42763844Y-80357499D03*
X43213844Y-80357499D03*
X43663844Y-80357499D03*
X44113844Y-80357499D03*
X44563844Y-80357499D03*
X45013844Y-80357499D03*
X45463844Y-80357499D03*
D28*
X46126344Y-79894999D03*
X46126344Y-79444999D03*
X46126344Y-78994999D03*
X46126344Y-78544999D03*
X46126344Y-77844999D03*
X46126344Y-77394999D03*
X46126344Y-76944999D03*
D29*
X44938844Y-78907499D03*
D30*
X44938844Y-77244999D03*
D31*
X43513844Y-77757499D03*
D32*
X43886344Y-79169999D03*
D33*
X43198844Y-79404999D03*
D34*
X49773845Y-78377500D03*
X49773845Y-80202500D03*
D35*
X74800845Y-78105000D03*
X74800845Y-80005000D03*
D34*
X32033845Y-82597500D03*
X32033845Y-84422500D03*
D17*
X75833845Y-105716920D03*
X77733845Y-105716920D03*
D36*
X58349999Y-38122999D03*
D37*
X63849999Y-38122999D03*
D38*
X25601345Y-87790000D03*
X27426345Y-87790000D03*
D39*
X48003845Y-76232500D03*
X48003845Y-74407500D03*
D18*
X28703844Y-95564999D03*
X28703844Y-106994999D03*
D17*
X55513845Y-94640000D03*
X57413845Y-94640000D03*
X37333845Y-97409230D03*
X39233845Y-97409230D03*
D34*
X71498845Y-78142500D03*
X71498845Y-79967500D03*
D39*
X30233845Y-76232500D03*
X30233845Y-74407500D03*
D17*
X75833845Y-94640000D03*
X77733845Y-94640000D03*
D40*
X110933845Y-111450000D03*
D41*
X108393845Y-120600000D03*
D40*
X105853845Y-111450000D03*
D21*
X91603845Y-31560000D03*
D22*
X92453845Y-35310000D03*
X99953845Y-41660000D03*
D21*
X99453845Y-34660000D03*
D17*
X70548845Y-89850000D03*
X72448845Y-89850000D03*
D19*
X107563845Y-35810000D03*
D20*
X116713845Y-38350000D03*
D19*
X107563845Y-40890000D03*
D40*
X55053845Y-119070000D03*
D41*
X52513845Y-128220000D03*
D40*
X49973845Y-119070000D03*
D15*
X24375000Y-27000000D03*
X25143845Y-25143845D03*
X25143845Y-28856155D03*
X27000000Y-24375000D03*
D16*
X27000000Y-27000000D03*
D15*
X27000000Y-29625000D03*
X28856155Y-25143845D03*
X28856155Y-28856155D03*
X29625000Y-27000000D03*
D35*
X53210845Y-78359000D03*
X53210845Y-80259000D03*
D21*
X91603845Y-72200000D03*
D22*
X92453845Y-75950000D03*
X99953845Y-82300000D03*
D21*
X99453845Y-75300000D03*
D17*
X55513845Y-108486150D03*
X57413845Y-108486150D03*
X30783845Y-90330000D03*
X32683845Y-90330000D03*
D38*
X73126345Y-82230000D03*
X74951345Y-82230000D03*
X66141345Y-88580000D03*
X67966345Y-88580000D03*
D17*
X75833845Y-108486150D03*
X77733845Y-108486150D03*
D40*
X90613845Y-111450000D03*
D41*
X88073845Y-120600000D03*
D40*
X85533845Y-111450000D03*
D17*
X75833845Y-100000000D03*
X77733845Y-100000000D03*
X55513845Y-111255380D03*
X57413845Y-111255380D03*
X37333845Y-111255380D03*
X39233845Y-111255380D03*
D40*
X131253845Y-111450000D03*
D41*
X128713845Y-120600000D03*
D40*
X126173845Y-111450000D03*
D17*
X55513845Y-102947690D03*
X57413845Y-102947690D03*
X75833845Y-111255380D03*
X77733845Y-111255380D03*
D18*
X66803844Y-95544999D03*
X66803844Y-106974999D03*
D21*
X91603845Y-51880000D03*
D22*
X92453845Y-55630000D03*
X99953845Y-61980000D03*
D21*
X99453845Y-54980000D03*
D40*
X42353845Y-119070000D03*
D41*
X39813845Y-128220000D03*
D40*
X37273845Y-119070000D03*
D35*
X35303845Y-78412500D03*
X35303845Y-80312500D03*
D17*
X37333845Y-100178460D03*
X39233845Y-100178460D03*
X55513845Y-97409230D03*
X57413845Y-97409230D03*
D39*
X68958845Y-76157500D03*
X68958845Y-74332500D03*
D42*
X71498845Y-76195000D03*
X71498845Y-74295000D03*
D17*
X37333845Y-108486150D03*
X39233845Y-108486150D03*
D15*
X24375000Y-140000000D03*
X25143845Y-138143845D03*
X25143845Y-141856155D03*
X27000000Y-137375000D03*
D16*
X27000000Y-140000000D03*
D15*
X27000000Y-142625000D03*
X28856155Y-138143845D03*
X28856155Y-141856155D03*
X29625000Y-140000000D03*
D21*
X132963845Y-98500000D03*
D22*
X129213845Y-99350000D03*
X122863845Y-106850000D03*
D21*
X129863845Y-106350000D03*
D38*
X25601345Y-90330000D03*
X27426345Y-90330000D03*
D17*
X37333845Y-105716920D03*
X39233845Y-105716920D03*
D38*
X52171345Y-82865000D03*
X53996345Y-82865000D03*
D19*
X107563845Y-76450000D03*
D20*
X116713845Y-78990000D03*
D19*
X107563845Y-81530000D03*
D17*
X55513845Y-100178460D03*
X57413845Y-100178460D03*
D23*
X65941344Y-76362499D03*
X65491344Y-76362499D03*
X64591344Y-76362499D03*
X64141344Y-76362499D03*
D24*
X63041344Y-76912499D03*
X63041344Y-77362499D03*
X63041344Y-77812499D03*
X63041344Y-78512499D03*
X63041344Y-78962499D03*
D25*
X63406344Y-77937499D03*
D26*
X63181344Y-79412499D03*
D27*
X63691344Y-80324999D03*
X64141344Y-80324999D03*
X64591344Y-80324999D03*
X65041344Y-80324999D03*
X65491344Y-80324999D03*
X65941344Y-80324999D03*
X66391344Y-80324999D03*
D28*
X67053844Y-79862499D03*
X67053844Y-79412499D03*
X67053844Y-78962499D03*
X67053844Y-78512499D03*
X67053844Y-77812499D03*
X67053844Y-77362499D03*
X67053844Y-76912499D03*
D29*
X65866344Y-78874999D03*
D30*
X65866344Y-77212499D03*
D31*
X64441344Y-77724999D03*
D32*
X64813844Y-79137499D03*
D33*
X64126344Y-79372499D03*
D40*
X67753845Y-119070000D03*
D41*
X65213845Y-128220000D03*
D40*
X62673845Y-119070000D03*
D38*
X66141345Y-86040000D03*
X67966345Y-86040000D03*
D34*
X32033845Y-78430000D03*
X32033845Y-80255000D03*
D17*
X37333845Y-94640000D03*
X39233845Y-94640000D03*
D42*
X50343845Y-76290000D03*
X50343845Y-74390000D03*
D21*
X112643845Y-98500000D03*
D22*
X108893845Y-99350000D03*
X102543845Y-106850000D03*
D21*
X109543845Y-106350000D03*
D23*
X27468844Y-76394999D03*
X27018844Y-76394999D03*
X26118844Y-76394999D03*
X25668844Y-76394999D03*
D24*
X24568844Y-76944999D03*
X24568844Y-77394999D03*
X24568844Y-77844999D03*
X24568844Y-78544999D03*
X24568844Y-78994999D03*
D25*
X24933844Y-77969999D03*
D26*
X24708844Y-79444999D03*
D27*
X25218844Y-80357499D03*
X25668844Y-80357499D03*
X26118844Y-80357499D03*
X26568844Y-80357499D03*
X27018844Y-80357499D03*
X27468844Y-80357499D03*
X27918844Y-80357499D03*
D28*
X28581344Y-79894999D03*
X28581344Y-79444999D03*
X28581344Y-78994999D03*
X28581344Y-78544999D03*
X28581344Y-77844999D03*
X28581344Y-77394999D03*
X28581344Y-76944999D03*
D29*
X27393844Y-78907499D03*
D30*
X27393844Y-77244999D03*
D31*
X25968844Y-77757499D03*
D32*
X26341344Y-79169999D03*
D33*
X25653844Y-79404999D03*
D38*
X44551345Y-88580000D03*
X46376345Y-88580000D03*
D17*
X75833845Y-102947690D03*
X77733845Y-102947690D03*
X75833845Y-97180000D03*
X77733845Y-97180000D03*
X37333845Y-102947690D03*
X39233845Y-102947690D03*
D38*
X44551345Y-86548000D03*
X46376345Y-86548000D03*
D42*
X32453845Y-76290000D03*
X32453845Y-74390000D03*
D15*
X137375000Y-140000000D03*
X138143845Y-138143845D03*
X138143845Y-141856155D03*
X140000000Y-137375000D03*
D16*
X140000000Y-140000000D03*
D15*
X140000000Y-142625000D03*
X141856155Y-138143845D03*
X141856155Y-141856155D03*
X142625000Y-140000000D03*
D43*
X59433844Y-63179999D03*
D44*
X59433845Y-58180000D03*
D45*
X126237999Y-36321999D03*
X126237999Y-40341999D03*
D46*
X136398000Y-46482000D03*
X136398000Y-50502000D03*
X126238000Y-56642000D03*
X126238000Y-60662000D03*
X136398000Y-66802000D03*
X136398000Y-70822000D03*
X126238000Y-76962000D03*
X126238000Y-80982000D03*
X136398000Y-87122000D03*
X136398000Y-91142000D03*
D43*
X42923844Y-62963958D03*
D44*
X42923845Y-57963959D03*
D43*
X27683844Y-63179999D03*
D44*
X27683845Y-58180000D03*
D47*
X29489999Y-46999999D03*
X39649999Y-46999999D03*
D48*
X29490000Y-36840000D03*
X39650000Y-36840000D03*
D45*
X130573844Y-126999999D03*
X126553844Y-126999999D03*
D46*
X120413845Y-137160000D03*
X116393845Y-137160000D03*
X110253845Y-127000000D03*
X106233845Y-127000000D03*
X100093845Y-137160000D03*
X96073845Y-137160000D03*
X89933845Y-127000000D03*
X85913845Y-127000000D03*
X79773845Y-137160000D03*
X75753845Y-137160000D03*
D21*
X41348000Y-140462000D03*
X46348000Y-140462000D03*
X51348000Y-140462000D03*
X56348000Y-140462000D03*
X61348000Y-140462000D03*
X66348000Y-140462000D03*
M02*
