M48
; DRILL file {KiCad 7.0.9} date Fri Dec 29 07:42:58 2023
; FORMAT={-:-/ absolute / metric / decimal}
; #@! TF.CreationDate,2023-12-29T07:42:58-06:00
; #@! TF.GenerationSoftware,Kicad,Pcbnew,7.0.9
; #@! TF.FileFunction,Plated,1,4,PTH
FMAT,2
METRIC
; #@! TA.AperFunction,Plated,PTH,ViaDrill
T1C0.400
; #@! TA.AperFunction,Plated,PTH,ComponentDrill
T2C0.500
; #@! TA.AperFunction,Plated,PTH,ComponentDrill
T3C0.750
; #@! TA.AperFunction,Plated,PTH,ComponentDrill
T4C0.900
; #@! TA.AperFunction,Plated,PTH,ComponentDrill
T5C1.200
; #@! TA.AperFunction,Plated,PTH,ComponentDrill
T6C1.250
; #@! TA.AperFunction,Plated,PTH,ComponentDrill
T7C1.300
; #@! TA.AperFunction,Plated,PTH,ComponentDrill
T8C1.524
; #@! TA.AperFunction,Plated,PTH,ComponentDrill
T9C1.600
; #@! TA.AperFunction,Plated,PTH,ComponentDrill
T10C3.500
%
G90
G05
T1
X24.749Y-85.415
X24.793Y-81.879
X26.162Y-110.109
X26.654Y-84.78
X26.654Y-86.05
X27.882Y-81.259
X30.429Y-78.676
X30.464Y-79.7
X30.861Y-118.491
X31.369Y-128.143
X33.147Y-103.759
X33.655Y-137.414
X34.163Y-68.707
X34.798Y-91.567
X36.068Y-143.383
X37.592Y-73.279
X37.719Y-89.281
X38.481Y-83.947
X38.735Y-78.486
X42.291Y-69.85
X42.924Y-81.595
X43.465Y-84.159
X45.339Y-91.186
X45.464Y-81.595
X47.369Y-84.77
X47.488Y-83.5
X47.577Y-79.244
X48.481Y-78.745
X52.832Y-104.267
X53.086Y-68.58
X53.975Y-91.44
X55.753Y-87.376
X56.769Y-73.279
X57.658Y-81.026
X59.563Y-134.112
X60.452Y-90.17
X61.722Y-75.057
X62.357Y-69.85
X63.879Y-81.595
X64.008Y-109.093
X64.77Y-42.164
X65.278Y-84.836
X66.191Y-81.595
X66.802Y-46.99
X66.929Y-65.659
X67.691Y-112.903
X68.582Y-84.723
X68.941Y-79.268
X69.078Y-83.448
X69.215Y-31.623
X69.469Y-67.691
X69.594Y-78.512
X70.485Y-92.329
X70.485Y-136.271
X72.644Y-104.013
X73.406Y-127.762
X74.168Y-70.612
X74.93Y-125.095
X76.2Y-89.535
X78.359Y-83.312
X78.613Y-75.946
X81.407Y-112.395
X83.312Y-64.643
X84.074Y-72.898
X84.074Y-82.169
X84.074Y-93.726
X87.63Y-47.371
X90.17Y-90.17
X90.551Y-28.829
X94.996Y-59.182
X95.504Y-38.227
X95.504Y-77.851
X97.663Y-107.442
X98.171Y-129.032
X101.473Y-91.059
X105.918Y-48.387
X106.68Y-27.813
X106.807Y-68.707
X115.062Y-91.186
X117.602Y-96.901
X118.11Y-108.712
X118.491Y-128.651
X124.587Y-91.694
X126.746Y-29.083
X128.778Y-69.596
X130.937Y-49.403
X135.255Y-38.227
X135.255Y-81.28
X136.017Y-58.801
X138.43Y-110.236
X138.557Y-132.715
X139.573Y-121.031
T2
X24.375Y-27.0
X24.375Y-140.0
X25.144Y-25.144
X25.144Y-28.856
X25.144Y-138.144
X25.144Y-141.856
X27.0Y-24.375
X27.0Y-29.625
X27.0Y-137.375
X27.0Y-142.625
X28.856Y-25.144
X28.856Y-28.856
X28.856Y-138.144
X28.856Y-141.856
X29.625Y-27.0
X29.625Y-140.0
X137.375Y-27.0
X137.375Y-140.0
X138.144Y-25.144
X138.144Y-28.856
X138.144Y-138.144
X138.144Y-141.856
X140.0Y-24.375
X140.0Y-29.625
X140.0Y-137.375
X140.0Y-142.625
X141.856Y-25.144
X141.856Y-28.856
X141.856Y-138.144
X141.856Y-141.856
X142.625Y-27.0
X142.625Y-140.0
T3
X84.764Y-106.85
X91.114Y-99.35
X92.454Y-35.31
X92.454Y-55.63
X92.454Y-75.95
X99.954Y-41.66
X99.954Y-61.98
X99.954Y-82.3
X102.544Y-106.85
X108.894Y-99.35
X122.864Y-106.85
X129.214Y-99.35
T5
X27.684Y-58.18
X27.684Y-63.18
X42.924Y-57.964
X42.924Y-62.964
X59.434Y-58.18
X59.434Y-63.18
T6
X91.604Y-31.56
X91.604Y-51.88
X91.604Y-72.2
X91.764Y-106.35
X94.864Y-98.5
X99.454Y-34.66
X99.454Y-54.98
X99.454Y-75.3
X109.544Y-106.35
X112.644Y-98.5
X129.864Y-106.35
X132.964Y-98.5
T7
X41.348Y-140.462
X46.348Y-140.462
X51.348Y-140.462
X56.348Y-140.462
X61.348Y-140.462
X66.348Y-140.462
T8
X75.754Y-137.16
X79.774Y-137.16
X85.914Y-127.0
X89.934Y-127.0
X96.074Y-137.16
X100.094Y-137.16
X106.234Y-127.0
X110.254Y-127.0
X116.394Y-137.16
X120.414Y-137.16
X126.238Y-36.322
X126.238Y-40.342
X126.238Y-56.642
X126.238Y-60.662
X126.238Y-76.962
X126.238Y-80.982
X126.554Y-127.0
X130.574Y-127.0
X136.398Y-46.482
X136.398Y-50.502
X136.398Y-66.802
X136.398Y-70.822
X136.398Y-87.122
X136.398Y-91.142
T9
X29.49Y-36.84
X29.49Y-47.0
X39.65Y-36.84
X39.65Y-47.0
T10
X27.0Y-27.0
X27.0Y-140.0
X140.0Y-27.0
X140.0Y-140.0
T4
X57.311Y-37.523G85X59.389Y-38.723
G05
X62.811Y-38.723G85X64.889Y-37.523
G05
T0
M30
