%TF.GenerationSoftware,KiCad,Pcbnew,8.0.5*%
%TF.CreationDate,2024-10-08T21:35:42-05:00*%
%TF.ProjectId,Arduino Shield,41726475-696e-46f2-9053-6869656c642e,rev?*%
%TF.SameCoordinates,Original*%
%TF.FileFunction,Drillmap*%
%TF.FilePolarity,Positive*%
%FSLAX45Y45*%
G04 Gerber Fmt 4.5, Leading zero omitted, Abs format (unit mm)*
G04 Created by KiCad (PCBNEW 8.0.5) date 2024-10-08 21:35:42*
%MOMM*%
%LPD*%
G01*
G04 APERTURE LIST*
%ADD10C,0.100000*%
%ADD11C,0.200000*%
%ADD12C,0.101600*%
%ADD13C,0.120000*%
G04 APERTURE END LIST*
D10*
X4241800Y-4064000D02*
X4927600Y-4064000D01*
X4927600Y-5080000D01*
X4241800Y-5080000D01*
X4241800Y-4064000D01*
X2000000Y-2000000D02*
X13500000Y-2000000D01*
X13500000Y-9500000D01*
X2000000Y-9500000D01*
X2000000Y-2000000D01*
D11*
D12*
X4082800Y-3279200D02*
X4184400Y-3380800D01*
X4184400Y-3279200D02*
X4082800Y-3380800D01*
X4336800Y-3279200D02*
X4438400Y-3380800D01*
X4438400Y-3279200D02*
X4336800Y-3380800D01*
X4590800Y-3279200D02*
X4692400Y-3380800D01*
X4692400Y-3279200D02*
X4590800Y-3380800D01*
X4844800Y-3279200D02*
X4946400Y-3380800D01*
X4946400Y-3279200D02*
X4844800Y-3380800D01*
X4997200Y-8105200D02*
X5098800Y-8206800D01*
X5098800Y-8105200D02*
X4997200Y-8206800D01*
X5098800Y-3279200D02*
X5200400Y-3380800D01*
X5200400Y-3279200D02*
X5098800Y-3380800D01*
X5251200Y-8105200D02*
X5352800Y-8206800D01*
X5352800Y-8105200D02*
X5251200Y-8206800D01*
X5352800Y-3279200D02*
X5454400Y-3380800D01*
X5454400Y-3279200D02*
X5352800Y-3380800D01*
X5505200Y-8105200D02*
X5606800Y-8206800D01*
X5606800Y-8105200D02*
X5505200Y-8206800D01*
X5606800Y-3279200D02*
X5708400Y-3380800D01*
X5708400Y-3279200D02*
X5606800Y-3380800D01*
X5759200Y-8105200D02*
X5860800Y-8206800D01*
X5860800Y-8105200D02*
X5759200Y-8206800D01*
X5860800Y-3279200D02*
X5962400Y-3380800D01*
X5962400Y-3279200D02*
X5860800Y-3380800D01*
X6013200Y-8105200D02*
X6114800Y-8206800D01*
X6114800Y-8105200D02*
X6013200Y-8206800D01*
X6114800Y-3279200D02*
X6216400Y-3380800D01*
X6216400Y-3279200D02*
X6114800Y-3380800D01*
X6267200Y-8105200D02*
X6368800Y-8206800D01*
X6368800Y-8105200D02*
X6267200Y-8206800D01*
X6368800Y-3279200D02*
X6470400Y-3380800D01*
X6470400Y-3279200D02*
X6368800Y-3380800D01*
X6521200Y-8105200D02*
X6622800Y-8206800D01*
X6622800Y-8105200D02*
X6521200Y-8206800D01*
X6775200Y-3279200D02*
X6876800Y-3380800D01*
X6876800Y-3279200D02*
X6775200Y-3380800D01*
X6775200Y-8105200D02*
X6876800Y-8206800D01*
X6876800Y-8105200D02*
X6775200Y-8206800D01*
X7029200Y-3279200D02*
X7130800Y-3380800D01*
X7130800Y-3279200D02*
X7029200Y-3380800D01*
X7283200Y-3279200D02*
X7384800Y-3380800D01*
X7384800Y-3279200D02*
X7283200Y-3380800D01*
X7283200Y-8105200D02*
X7384800Y-8206800D01*
X7384800Y-8105200D02*
X7283200Y-8206800D01*
X7537200Y-3279200D02*
X7638800Y-3380800D01*
X7638800Y-3279200D02*
X7537200Y-3380800D01*
X7537200Y-8105200D02*
X7638800Y-8206800D01*
X7638800Y-8105200D02*
X7537200Y-8206800D01*
X7791200Y-3279200D02*
X7892800Y-3380800D01*
X7892800Y-3279200D02*
X7791200Y-3380800D01*
X7791200Y-8105200D02*
X7892800Y-8206800D01*
X7892800Y-8105200D02*
X7791200Y-8206800D01*
X8045200Y-3279200D02*
X8146800Y-3380800D01*
X8146800Y-3279200D02*
X8045200Y-3380800D01*
X8045200Y-8105200D02*
X8146800Y-8206800D01*
X8146800Y-8105200D02*
X8045200Y-8206800D01*
X8299200Y-3279200D02*
X8400800Y-3380800D01*
X8400800Y-3279200D02*
X8299200Y-3380800D01*
X8299200Y-8105200D02*
X8400800Y-8206800D01*
X8400800Y-8105200D02*
X8299200Y-8206800D01*
X8553200Y-3279200D02*
X8654800Y-3380800D01*
X8654800Y-3279200D02*
X8553200Y-3380800D01*
X8553200Y-8105200D02*
X8654800Y-8206800D01*
X8654800Y-8105200D02*
X8553200Y-8206800D01*
X8565900Y-5311200D02*
X8667500Y-5412800D01*
X8667500Y-5311200D02*
X8565900Y-5412800D01*
X8565900Y-5565200D02*
X8667500Y-5666800D01*
X8667500Y-5565200D02*
X8565900Y-5666800D01*
X8565900Y-5819200D02*
X8667500Y-5920800D01*
X8667500Y-5819200D02*
X8565900Y-5920800D01*
X8807200Y-8105200D02*
X8908800Y-8206800D01*
X8908800Y-8105200D02*
X8807200Y-8206800D01*
X8819900Y-5311200D02*
X8921500Y-5412800D01*
X8921500Y-5311200D02*
X8819900Y-5412800D01*
X8819900Y-5565200D02*
X8921500Y-5666800D01*
X8921500Y-5565200D02*
X8819900Y-5666800D01*
X8819900Y-5819200D02*
X8921500Y-5920800D01*
X8921500Y-5819200D02*
X8819900Y-5920800D01*
X9061200Y-3279200D02*
X9162800Y-3380800D01*
X9162800Y-3279200D02*
X9061200Y-3380800D01*
X9061200Y-8105200D02*
X9162800Y-8206800D01*
X9162800Y-8105200D02*
X9061200Y-8206800D01*
X9315200Y-3279200D02*
X9416800Y-3380800D01*
X9416800Y-3279200D02*
X9315200Y-3380800D01*
X9569200Y-3279200D02*
X9670800Y-3380800D01*
X9670800Y-3279200D02*
X9569200Y-3380800D01*
X9569200Y-8105200D02*
X9670800Y-8206800D01*
X9670800Y-8105200D02*
X9569200Y-8206800D01*
X9823200Y-3279200D02*
X9924800Y-3380800D01*
X9924800Y-3279200D02*
X9823200Y-3380800D01*
X9823200Y-8105200D02*
X9924800Y-8206800D01*
X9924800Y-8105200D02*
X9823200Y-8206800D01*
X10077200Y-3279200D02*
X10178800Y-3380800D01*
X10178800Y-3279200D02*
X10077200Y-3380800D01*
X10077200Y-8105200D02*
X10178800Y-8206800D01*
X10178800Y-8105200D02*
X10077200Y-8206800D01*
X10331200Y-3279200D02*
X10432800Y-3380800D01*
X10432800Y-3279200D02*
X10331200Y-3380800D01*
X10331200Y-8105200D02*
X10432800Y-8206800D01*
X10432800Y-8105200D02*
X10331200Y-8206800D01*
X10585200Y-3279200D02*
X10686800Y-3380800D01*
X10686800Y-3279200D02*
X10585200Y-3380800D01*
X10585200Y-8105200D02*
X10686800Y-8206800D01*
X10686800Y-8105200D02*
X10585200Y-8206800D01*
X10839200Y-3279200D02*
X10940800Y-3380800D01*
X10940800Y-3279200D02*
X10839200Y-3380800D01*
X10839200Y-8105200D02*
X10940800Y-8206800D01*
X10940800Y-8105200D02*
X10839200Y-8206800D01*
X11093200Y-8105200D02*
X11194800Y-8206800D01*
X11194800Y-8105200D02*
X11093200Y-8206800D01*
X11347200Y-8105200D02*
X11448800Y-8206800D01*
X11448800Y-8105200D02*
X11347200Y-8206800D01*
X11601200Y-3279200D02*
X11702800Y-3380800D01*
X11702800Y-3279200D02*
X11601200Y-3380800D01*
X11601200Y-3533200D02*
X11702800Y-3634800D01*
X11702800Y-3533200D02*
X11601200Y-3634800D01*
X11601200Y-3787200D02*
X11702800Y-3888800D01*
X11702800Y-3787200D02*
X11601200Y-3888800D01*
X11601200Y-4041200D02*
X11702800Y-4142800D01*
X11702800Y-4041200D02*
X11601200Y-4142800D01*
X11601200Y-4295200D02*
X11702800Y-4396800D01*
X11702800Y-4295200D02*
X11601200Y-4396800D01*
X11601200Y-4549200D02*
X11702800Y-4650800D01*
X11702800Y-4549200D02*
X11601200Y-4650800D01*
X11601200Y-4803200D02*
X11702800Y-4904800D01*
X11702800Y-4803200D02*
X11601200Y-4904800D01*
X11601200Y-5057200D02*
X11702800Y-5158800D01*
X11702800Y-5057200D02*
X11601200Y-5158800D01*
X11601200Y-5311200D02*
X11702800Y-5412800D01*
X11702800Y-5311200D02*
X11601200Y-5412800D01*
X11601200Y-5565200D02*
X11702800Y-5666800D01*
X11702800Y-5565200D02*
X11601200Y-5666800D01*
X11601200Y-5819200D02*
X11702800Y-5920800D01*
X11702800Y-5819200D02*
X11601200Y-5920800D01*
X11601200Y-6073200D02*
X11702800Y-6174800D01*
X11702800Y-6073200D02*
X11601200Y-6174800D01*
X11601200Y-6327200D02*
X11702800Y-6428800D01*
X11702800Y-6327200D02*
X11601200Y-6428800D01*
X11601200Y-6581200D02*
X11702800Y-6682800D01*
X11702800Y-6581200D02*
X11601200Y-6682800D01*
X11601200Y-6835200D02*
X11702800Y-6936800D01*
X11702800Y-6835200D02*
X11601200Y-6936800D01*
X11601200Y-7089200D02*
X11702800Y-7190800D01*
X11702800Y-7089200D02*
X11601200Y-7190800D01*
X11601200Y-7343200D02*
X11702800Y-7444800D01*
X11702800Y-7343200D02*
X11601200Y-7444800D01*
X11601200Y-7597200D02*
X11702800Y-7698800D01*
X11702800Y-7597200D02*
X11601200Y-7698800D01*
X11855200Y-3279200D02*
X11956800Y-3380800D01*
X11956800Y-3279200D02*
X11855200Y-3380800D01*
X11855200Y-3533200D02*
X11956800Y-3634800D01*
X11956800Y-3533200D02*
X11855200Y-3634800D01*
X11855200Y-3787200D02*
X11956800Y-3888800D01*
X11956800Y-3787200D02*
X11855200Y-3888800D01*
X11855200Y-4041200D02*
X11956800Y-4142800D01*
X11956800Y-4041200D02*
X11855200Y-4142800D01*
X11855200Y-4295200D02*
X11956800Y-4396800D01*
X11956800Y-4295200D02*
X11855200Y-4396800D01*
X11855200Y-4549200D02*
X11956800Y-4650800D01*
X11956800Y-4549200D02*
X11855200Y-4650800D01*
X11855200Y-4803200D02*
X11956800Y-4904800D01*
X11956800Y-4803200D02*
X11855200Y-4904800D01*
X11855200Y-5057200D02*
X11956800Y-5158800D01*
X11956800Y-5057200D02*
X11855200Y-5158800D01*
X11855200Y-5311200D02*
X11956800Y-5412800D01*
X11956800Y-5311200D02*
X11855200Y-5412800D01*
X11855200Y-5565200D02*
X11956800Y-5666800D01*
X11956800Y-5565200D02*
X11855200Y-5666800D01*
X11855200Y-5819200D02*
X11956800Y-5920800D01*
X11956800Y-5819200D02*
X11855200Y-5920800D01*
X11855200Y-6073200D02*
X11956800Y-6174800D01*
X11956800Y-6073200D02*
X11855200Y-6174800D01*
X11855200Y-6327200D02*
X11956800Y-6428800D01*
X11956800Y-6327200D02*
X11855200Y-6428800D01*
X11855200Y-6581200D02*
X11956800Y-6682800D01*
X11956800Y-6581200D02*
X11855200Y-6682800D01*
X11855200Y-6835200D02*
X11956800Y-6936800D01*
X11956800Y-6835200D02*
X11855200Y-6936800D01*
X11855200Y-7089200D02*
X11956800Y-7190800D01*
X11956800Y-7089200D02*
X11855200Y-7190800D01*
X11855200Y-7343200D02*
X11956800Y-7444800D01*
X11956800Y-7343200D02*
X11855200Y-7444800D01*
X11855200Y-7597200D02*
X11956800Y-7698800D01*
X11956800Y-7597200D02*
X11855200Y-7698800D01*
D13*
X2594000Y-2413000D02*
G75*
G02*
X2474000Y-2413000I-60000J0D01*
G01*
X2474000Y-2413000D02*
G75*
G02*
X2594000Y-2413000I60000J0D01*
G01*
X2944000Y-2413000D02*
G75*
G02*
X2824000Y-2413000I-60000J0D01*
G01*
X2824000Y-2413000D02*
G75*
G02*
X2944000Y-2413000I60000J0D01*
G01*
X3294000Y-2413000D02*
G75*
G02*
X3174000Y-2413000I-60000J0D01*
G01*
X3174000Y-2413000D02*
G75*
G02*
X3294000Y-2413000I60000J0D01*
G01*
X3644000Y-2413000D02*
G75*
G02*
X3524000Y-2413000I-60000J0D01*
G01*
X3524000Y-2413000D02*
G75*
G02*
X3644000Y-2413000I60000J0D01*
G01*
X3662300Y-9067800D02*
G75*
G02*
X3542300Y-9067800I-60000J0D01*
G01*
X3542300Y-9067800D02*
G75*
G02*
X3662300Y-9067800I60000J0D01*
G01*
X3994000Y-2413000D02*
G75*
G02*
X3874000Y-2413000I-60000J0D01*
G01*
X3874000Y-2413000D02*
G75*
G02*
X3994000Y-2413000I60000J0D01*
G01*
X4012300Y-9067800D02*
G75*
G02*
X3892300Y-9067800I-60000J0D01*
G01*
X3892300Y-9067800D02*
G75*
G02*
X4012300Y-9067800I60000J0D01*
G01*
X4344000Y-2413000D02*
G75*
G02*
X4224000Y-2413000I-60000J0D01*
G01*
X4224000Y-2413000D02*
G75*
G02*
X4344000Y-2413000I60000J0D01*
G01*
X4362300Y-9067800D02*
G75*
G02*
X4242300Y-9067800I-60000J0D01*
G01*
X4242300Y-9067800D02*
G75*
G02*
X4362300Y-9067800I60000J0D01*
G01*
X4694000Y-2413000D02*
G75*
G02*
X4574000Y-2413000I-60000J0D01*
G01*
X4574000Y-2413000D02*
G75*
G02*
X4694000Y-2413000I60000J0D01*
G01*
X4712300Y-9067800D02*
G75*
G02*
X4592300Y-9067800I-60000J0D01*
G01*
X4592300Y-9067800D02*
G75*
G02*
X4712300Y-9067800I60000J0D01*
G01*
X5044000Y-2413000D02*
G75*
G02*
X4924000Y-2413000I-60000J0D01*
G01*
X4924000Y-2413000D02*
G75*
G02*
X5044000Y-2413000I60000J0D01*
G01*
X5062300Y-9067800D02*
G75*
G02*
X4942300Y-9067800I-60000J0D01*
G01*
X4942300Y-9067800D02*
G75*
G02*
X5062300Y-9067800I60000J0D01*
G01*
X5394000Y-2413000D02*
G75*
G02*
X5274000Y-2413000I-60000J0D01*
G01*
X5274000Y-2413000D02*
G75*
G02*
X5394000Y-2413000I60000J0D01*
G01*
X5412300Y-9067800D02*
G75*
G02*
X5292300Y-9067800I-60000J0D01*
G01*
X5292300Y-9067800D02*
G75*
G02*
X5412300Y-9067800I60000J0D01*
G01*
X5744000Y-2413000D02*
G75*
G02*
X5624000Y-2413000I-60000J0D01*
G01*
X5624000Y-2413000D02*
G75*
G02*
X5744000Y-2413000I60000J0D01*
G01*
X5762300Y-9067800D02*
G75*
G02*
X5642300Y-9067800I-60000J0D01*
G01*
X5642300Y-9067800D02*
G75*
G02*
X5762300Y-9067800I60000J0D01*
G01*
X6283000Y-4377000D02*
G75*
G02*
X6163000Y-4377000I-60000J0D01*
G01*
X6163000Y-4377000D02*
G75*
G02*
X6283000Y-4377000I60000J0D01*
G01*
X6283000Y-4727000D02*
G75*
G02*
X6163000Y-4727000I-60000J0D01*
G01*
X6163000Y-4727000D02*
G75*
G02*
X6283000Y-4727000I60000J0D01*
G01*
X6283000Y-5077000D02*
G75*
G02*
X6163000Y-5077000I-60000J0D01*
G01*
X6163000Y-5077000D02*
G75*
G02*
X6283000Y-5077000I60000J0D01*
G01*
X6283000Y-5427000D02*
G75*
G02*
X6163000Y-5427000I-60000J0D01*
G01*
X6163000Y-5427000D02*
G75*
G02*
X6283000Y-5427000I60000J0D01*
G01*
X6283000Y-5777000D02*
G75*
G02*
X6163000Y-5777000I-60000J0D01*
G01*
X6163000Y-5777000D02*
G75*
G02*
X6283000Y-5777000I60000J0D01*
G01*
X6283000Y-6127000D02*
G75*
G02*
X6163000Y-6127000I-60000J0D01*
G01*
X6163000Y-6127000D02*
G75*
G02*
X6283000Y-6127000I60000J0D01*
G01*
X6283000Y-6477000D02*
G75*
G02*
X6163000Y-6477000I-60000J0D01*
G01*
X6163000Y-6477000D02*
G75*
G02*
X6283000Y-6477000I60000J0D01*
G01*
X6283000Y-6827000D02*
G75*
G02*
X6163000Y-6827000I-60000J0D01*
G01*
X6163000Y-6827000D02*
G75*
G02*
X6283000Y-6827000I60000J0D01*
G01*
X6350600Y-9067800D02*
G75*
G02*
X6230600Y-9067800I-60000J0D01*
G01*
X6230600Y-9067800D02*
G75*
G02*
X6350600Y-9067800I60000J0D01*
G01*
X6376000Y-2413000D02*
G75*
G02*
X6256000Y-2413000I-60000J0D01*
G01*
X6256000Y-2413000D02*
G75*
G02*
X6376000Y-2413000I60000J0D01*
G01*
X6700600Y-9067800D02*
G75*
G02*
X6580600Y-9067800I-60000J0D01*
G01*
X6580600Y-9067800D02*
G75*
G02*
X6700600Y-9067800I60000J0D01*
G01*
X6726000Y-2413000D02*
G75*
G02*
X6606000Y-2413000I-60000J0D01*
G01*
X6606000Y-2413000D02*
G75*
G02*
X6726000Y-2413000I60000J0D01*
G01*
X7050600Y-9067800D02*
G75*
G02*
X6930600Y-9067800I-60000J0D01*
G01*
X6930600Y-9067800D02*
G75*
G02*
X7050600Y-9067800I60000J0D01*
G01*
X7076000Y-2413000D02*
G75*
G02*
X6956000Y-2413000I-60000J0D01*
G01*
X6956000Y-2413000D02*
G75*
G02*
X7076000Y-2413000I60000J0D01*
G01*
X7400600Y-9067800D02*
G75*
G02*
X7280600Y-9067800I-60000J0D01*
G01*
X7280600Y-9067800D02*
G75*
G02*
X7400600Y-9067800I60000J0D01*
G01*
X7426000Y-2413000D02*
G75*
G02*
X7306000Y-2413000I-60000J0D01*
G01*
X7306000Y-2413000D02*
G75*
G02*
X7426000Y-2413000I60000J0D01*
G01*
X7750600Y-9067800D02*
G75*
G02*
X7630600Y-9067800I-60000J0D01*
G01*
X7630600Y-9067800D02*
G75*
G02*
X7750600Y-9067800I60000J0D01*
G01*
X7776000Y-2413000D02*
G75*
G02*
X7656000Y-2413000I-60000J0D01*
G01*
X7656000Y-2413000D02*
G75*
G02*
X7776000Y-2413000I60000J0D01*
G01*
X7790900Y-4379600D02*
G75*
G02*
X7670900Y-4379600I-60000J0D01*
G01*
X7670900Y-4379600D02*
G75*
G02*
X7790900Y-4379600I60000J0D01*
G01*
X7790900Y-4729600D02*
G75*
G02*
X7670900Y-4729600I-60000J0D01*
G01*
X7670900Y-4729600D02*
G75*
G02*
X7790900Y-4729600I60000J0D01*
G01*
X7790900Y-5079600D02*
G75*
G02*
X7670900Y-5079600I-60000J0D01*
G01*
X7670900Y-5079600D02*
G75*
G02*
X7790900Y-5079600I60000J0D01*
G01*
X7790900Y-5429600D02*
G75*
G02*
X7670900Y-5429600I-60000J0D01*
G01*
X7670900Y-5429600D02*
G75*
G02*
X7790900Y-5429600I60000J0D01*
G01*
X7790900Y-5779600D02*
G75*
G02*
X7670900Y-5779600I-60000J0D01*
G01*
X7670900Y-5779600D02*
G75*
G02*
X7790900Y-5779600I60000J0D01*
G01*
X7790900Y-6129600D02*
G75*
G02*
X7670900Y-6129600I-60000J0D01*
G01*
X7670900Y-6129600D02*
G75*
G02*
X7790900Y-6129600I60000J0D01*
G01*
X7790900Y-6479600D02*
G75*
G02*
X7670900Y-6479600I-60000J0D01*
G01*
X7670900Y-6479600D02*
G75*
G02*
X7790900Y-6479600I60000J0D01*
G01*
X7790900Y-6829600D02*
G75*
G02*
X7670900Y-6829600I-60000J0D01*
G01*
X7670900Y-6829600D02*
G75*
G02*
X7790900Y-6829600I60000J0D01*
G01*
X8100600Y-9067800D02*
G75*
G02*
X7980600Y-9067800I-60000J0D01*
G01*
X7980600Y-9067800D02*
G75*
G02*
X8100600Y-9067800I60000J0D01*
G01*
X8126000Y-2413000D02*
G75*
G02*
X8006000Y-2413000I-60000J0D01*
G01*
X8006000Y-2413000D02*
G75*
G02*
X8126000Y-2413000I60000J0D01*
G01*
X8450600Y-9067800D02*
G75*
G02*
X8330600Y-9067800I-60000J0D01*
G01*
X8330600Y-9067800D02*
G75*
G02*
X8450600Y-9067800I60000J0D01*
G01*
X8476000Y-2413000D02*
G75*
G02*
X8356000Y-2413000I-60000J0D01*
G01*
X8356000Y-2413000D02*
G75*
G02*
X8476000Y-2413000I60000J0D01*
G01*
X8800600Y-9067800D02*
G75*
G02*
X8680600Y-9067800I-60000J0D01*
G01*
X8680600Y-9067800D02*
G75*
G02*
X8800600Y-9067800I60000J0D01*
G01*
X8826000Y-2413000D02*
G75*
G02*
X8706000Y-2413000I-60000J0D01*
G01*
X8706000Y-2413000D02*
G75*
G02*
X8826000Y-2413000I60000J0D01*
G01*
X9336600Y-9067800D02*
G75*
G02*
X9216600Y-9067800I-60000J0D01*
G01*
X9216600Y-9067800D02*
G75*
G02*
X9336600Y-9067800I60000J0D01*
G01*
X9362000Y-2413000D02*
G75*
G02*
X9242000Y-2413000I-60000J0D01*
G01*
X9242000Y-2413000D02*
G75*
G02*
X9362000Y-2413000I60000J0D01*
G01*
X9686600Y-9067800D02*
G75*
G02*
X9566600Y-9067800I-60000J0D01*
G01*
X9566600Y-9067800D02*
G75*
G02*
X9686600Y-9067800I60000J0D01*
G01*
X9712000Y-2413000D02*
G75*
G02*
X9592000Y-2413000I-60000J0D01*
G01*
X9592000Y-2413000D02*
G75*
G02*
X9712000Y-2413000I60000J0D01*
G01*
X10036600Y-9067800D02*
G75*
G02*
X9916600Y-9067800I-60000J0D01*
G01*
X9916600Y-9067800D02*
G75*
G02*
X10036600Y-9067800I60000J0D01*
G01*
X10062000Y-2413000D02*
G75*
G02*
X9942000Y-2413000I-60000J0D01*
G01*
X9942000Y-2413000D02*
G75*
G02*
X10062000Y-2413000I60000J0D01*
G01*
X10386600Y-9067800D02*
G75*
G02*
X10266600Y-9067800I-60000J0D01*
G01*
X10266600Y-9067800D02*
G75*
G02*
X10386600Y-9067800I60000J0D01*
G01*
X10412000Y-2413000D02*
G75*
G02*
X10292000Y-2413000I-60000J0D01*
G01*
X10292000Y-2413000D02*
G75*
G02*
X10412000Y-2413000I60000J0D01*
G01*
X10736600Y-9067800D02*
G75*
G02*
X10616600Y-9067800I-60000J0D01*
G01*
X10616600Y-9067800D02*
G75*
G02*
X10736600Y-9067800I60000J0D01*
G01*
X10762000Y-2413000D02*
G75*
G02*
X10642000Y-2413000I-60000J0D01*
G01*
X10642000Y-2413000D02*
G75*
G02*
X10762000Y-2413000I60000J0D01*
G01*
X11086600Y-9067800D02*
G75*
G02*
X10966600Y-9067800I-60000J0D01*
G01*
X10966600Y-9067800D02*
G75*
G02*
X11086600Y-9067800I60000J0D01*
G01*
X11112000Y-2413000D02*
G75*
G02*
X10992000Y-2413000I-60000J0D01*
G01*
X10992000Y-2413000D02*
G75*
G02*
X11112000Y-2413000I60000J0D01*
G01*
X11436600Y-9067800D02*
G75*
G02*
X11316600Y-9067800I-60000J0D01*
G01*
X11316600Y-9067800D02*
G75*
G02*
X11436600Y-9067800I60000J0D01*
G01*
X11462000Y-2413000D02*
G75*
G02*
X11342000Y-2413000I-60000J0D01*
G01*
X11342000Y-2413000D02*
G75*
G02*
X11462000Y-2413000I60000J0D01*
G01*
X11786600Y-9067800D02*
G75*
G02*
X11666600Y-9067800I-60000J0D01*
G01*
X11666600Y-9067800D02*
G75*
G02*
X11786600Y-9067800I60000J0D01*
G01*
X11812000Y-2413000D02*
G75*
G02*
X11692000Y-2413000I-60000J0D01*
G01*
X11692000Y-2413000D02*
G75*
G02*
X11812000Y-2413000I60000J0D01*
G01*
X13128300Y-2806700D02*
G75*
G02*
X13008300Y-2806700I-60000J0D01*
G01*
X13008300Y-2806700D02*
G75*
G02*
X13128300Y-2806700I60000J0D01*
G01*
X13128300Y-3156700D02*
G75*
G02*
X13008300Y-3156700I-60000J0D01*
G01*
X13008300Y-3156700D02*
G75*
G02*
X13128300Y-3156700I60000J0D01*
G01*
X13128300Y-3506700D02*
G75*
G02*
X13008300Y-3506700I-60000J0D01*
G01*
X13008300Y-3506700D02*
G75*
G02*
X13128300Y-3506700I60000J0D01*
G01*
X13128300Y-3856700D02*
G75*
G02*
X13008300Y-3856700I-60000J0D01*
G01*
X13008300Y-3856700D02*
G75*
G02*
X13128300Y-3856700I60000J0D01*
G01*
X13128300Y-4206700D02*
G75*
G02*
X13008300Y-4206700I-60000J0D01*
G01*
X13008300Y-4206700D02*
G75*
G02*
X13128300Y-4206700I60000J0D01*
G01*
X13128300Y-4556700D02*
G75*
G02*
X13008300Y-4556700I-60000J0D01*
G01*
X13008300Y-4556700D02*
G75*
G02*
X13128300Y-4556700I60000J0D01*
G01*
X13128300Y-4906700D02*
G75*
G02*
X13008300Y-4906700I-60000J0D01*
G01*
X13008300Y-4906700D02*
G75*
G02*
X13128300Y-4906700I60000J0D01*
G01*
X13128300Y-5256700D02*
G75*
G02*
X13008300Y-5256700I-60000J0D01*
G01*
X13008300Y-5256700D02*
G75*
G02*
X13128300Y-5256700I60000J0D01*
G01*
X13128300Y-5854700D02*
G75*
G02*
X13008300Y-5854700I-60000J0D01*
G01*
X13008300Y-5854700D02*
G75*
G02*
X13128300Y-5854700I60000J0D01*
G01*
X13128300Y-6204700D02*
G75*
G02*
X13008300Y-6204700I-60000J0D01*
G01*
X13008300Y-6204700D02*
G75*
G02*
X13128300Y-6204700I60000J0D01*
G01*
X13128300Y-6554700D02*
G75*
G02*
X13008300Y-6554700I-60000J0D01*
G01*
X13008300Y-6554700D02*
G75*
G02*
X13128300Y-6554700I60000J0D01*
G01*
X13128300Y-6904700D02*
G75*
G02*
X13008300Y-6904700I-60000J0D01*
G01*
X13008300Y-6904700D02*
G75*
G02*
X13128300Y-6904700I60000J0D01*
G01*
X13128300Y-7254700D02*
G75*
G02*
X13008300Y-7254700I-60000J0D01*
G01*
X13008300Y-7254700D02*
G75*
G02*
X13128300Y-7254700I60000J0D01*
G01*
X13128300Y-7604700D02*
G75*
G02*
X13008300Y-7604700I-60000J0D01*
G01*
X13008300Y-7604700D02*
G75*
G02*
X13128300Y-7604700I60000J0D01*
G01*
X13128300Y-7954700D02*
G75*
G02*
X13008300Y-7954700I-60000J0D01*
G01*
X13008300Y-7954700D02*
G75*
G02*
X13128300Y-7954700I60000J0D01*
G01*
D11*
X2255777Y-9816484D02*
X2255777Y-9616484D01*
X2255777Y-9616484D02*
X2303396Y-9616484D01*
X2303396Y-9616484D02*
X2331967Y-9626008D01*
X2331967Y-9626008D02*
X2351015Y-9645055D01*
X2351015Y-9645055D02*
X2360539Y-9664103D01*
X2360539Y-9664103D02*
X2370063Y-9702198D01*
X2370063Y-9702198D02*
X2370063Y-9730770D01*
X2370063Y-9730770D02*
X2360539Y-9768865D01*
X2360539Y-9768865D02*
X2351015Y-9787912D01*
X2351015Y-9787912D02*
X2331967Y-9806960D01*
X2331967Y-9806960D02*
X2303396Y-9816484D01*
X2303396Y-9816484D02*
X2255777Y-9816484D01*
X2455777Y-9816484D02*
X2455777Y-9683150D01*
X2455777Y-9721246D02*
X2465301Y-9702198D01*
X2465301Y-9702198D02*
X2474824Y-9692674D01*
X2474824Y-9692674D02*
X2493872Y-9683150D01*
X2493872Y-9683150D02*
X2512920Y-9683150D01*
X2579586Y-9816484D02*
X2579586Y-9683150D01*
X2579586Y-9616484D02*
X2570063Y-9626008D01*
X2570063Y-9626008D02*
X2579586Y-9635531D01*
X2579586Y-9635531D02*
X2589110Y-9626008D01*
X2589110Y-9626008D02*
X2579586Y-9616484D01*
X2579586Y-9616484D02*
X2579586Y-9635531D01*
X2703396Y-9816484D02*
X2684348Y-9806960D01*
X2684348Y-9806960D02*
X2674824Y-9787912D01*
X2674824Y-9787912D02*
X2674824Y-9616484D01*
X2808158Y-9816484D02*
X2789110Y-9806960D01*
X2789110Y-9806960D02*
X2779586Y-9787912D01*
X2779586Y-9787912D02*
X2779586Y-9616484D01*
X3036729Y-9816484D02*
X3036729Y-9616484D01*
X3036729Y-9616484D02*
X3103396Y-9759341D01*
X3103396Y-9759341D02*
X3170062Y-9616484D01*
X3170062Y-9616484D02*
X3170062Y-9816484D01*
X3351015Y-9816484D02*
X3351015Y-9711722D01*
X3351015Y-9711722D02*
X3341491Y-9692674D01*
X3341491Y-9692674D02*
X3322443Y-9683150D01*
X3322443Y-9683150D02*
X3284348Y-9683150D01*
X3284348Y-9683150D02*
X3265301Y-9692674D01*
X3351015Y-9806960D02*
X3331967Y-9816484D01*
X3331967Y-9816484D02*
X3284348Y-9816484D01*
X3284348Y-9816484D02*
X3265301Y-9806960D01*
X3265301Y-9806960D02*
X3255777Y-9787912D01*
X3255777Y-9787912D02*
X3255777Y-9768865D01*
X3255777Y-9768865D02*
X3265301Y-9749817D01*
X3265301Y-9749817D02*
X3284348Y-9740293D01*
X3284348Y-9740293D02*
X3331967Y-9740293D01*
X3331967Y-9740293D02*
X3351015Y-9730770D01*
X3446253Y-9683150D02*
X3446253Y-9883150D01*
X3446253Y-9692674D02*
X3465301Y-9683150D01*
X3465301Y-9683150D02*
X3503396Y-9683150D01*
X3503396Y-9683150D02*
X3522443Y-9692674D01*
X3522443Y-9692674D02*
X3531967Y-9702198D01*
X3531967Y-9702198D02*
X3541491Y-9721246D01*
X3541491Y-9721246D02*
X3541491Y-9778389D01*
X3541491Y-9778389D02*
X3531967Y-9797436D01*
X3531967Y-9797436D02*
X3522443Y-9806960D01*
X3522443Y-9806960D02*
X3503396Y-9816484D01*
X3503396Y-9816484D02*
X3465301Y-9816484D01*
X3465301Y-9816484D02*
X3446253Y-9806960D01*
X3627205Y-9797436D02*
X3636729Y-9806960D01*
X3636729Y-9806960D02*
X3627205Y-9816484D01*
X3627205Y-9816484D02*
X3617682Y-9806960D01*
X3617682Y-9806960D02*
X3627205Y-9797436D01*
X3627205Y-9797436D02*
X3627205Y-9816484D01*
X3627205Y-9692674D02*
X3636729Y-9702198D01*
X3636729Y-9702198D02*
X3627205Y-9711722D01*
X3627205Y-9711722D02*
X3617682Y-9702198D01*
X3617682Y-9702198D02*
X3627205Y-9692674D01*
X3627205Y-9692674D02*
X3627205Y-9711722D01*
D12*
X1893400Y-10094200D02*
X1995000Y-10195800D01*
X1995000Y-10094200D02*
X1893400Y-10195800D01*
D11*
X2360539Y-10236484D02*
X2246253Y-10236484D01*
X2303396Y-10236484D02*
X2303396Y-10036484D01*
X2303396Y-10036484D02*
X2284348Y-10065055D01*
X2284348Y-10065055D02*
X2265301Y-10084103D01*
X2265301Y-10084103D02*
X2246253Y-10093627D01*
X2446253Y-10217436D02*
X2455777Y-10226960D01*
X2455777Y-10226960D02*
X2446253Y-10236484D01*
X2446253Y-10236484D02*
X2436729Y-10226960D01*
X2436729Y-10226960D02*
X2446253Y-10217436D01*
X2446253Y-10217436D02*
X2446253Y-10236484D01*
X2579586Y-10036484D02*
X2598634Y-10036484D01*
X2598634Y-10036484D02*
X2617682Y-10046008D01*
X2617682Y-10046008D02*
X2627205Y-10055531D01*
X2627205Y-10055531D02*
X2636729Y-10074579D01*
X2636729Y-10074579D02*
X2646253Y-10112674D01*
X2646253Y-10112674D02*
X2646253Y-10160293D01*
X2646253Y-10160293D02*
X2636729Y-10198389D01*
X2636729Y-10198389D02*
X2627205Y-10217436D01*
X2627205Y-10217436D02*
X2617682Y-10226960D01*
X2617682Y-10226960D02*
X2598634Y-10236484D01*
X2598634Y-10236484D02*
X2579586Y-10236484D01*
X2579586Y-10236484D02*
X2560539Y-10226960D01*
X2560539Y-10226960D02*
X2551015Y-10217436D01*
X2551015Y-10217436D02*
X2541491Y-10198389D01*
X2541491Y-10198389D02*
X2531967Y-10160293D01*
X2531967Y-10160293D02*
X2531967Y-10112674D01*
X2531967Y-10112674D02*
X2541491Y-10074579D01*
X2541491Y-10074579D02*
X2551015Y-10055531D01*
X2551015Y-10055531D02*
X2560539Y-10046008D01*
X2560539Y-10046008D02*
X2579586Y-10036484D01*
X2836729Y-10236484D02*
X2722444Y-10236484D01*
X2779586Y-10236484D02*
X2779586Y-10036484D01*
X2779586Y-10036484D02*
X2760539Y-10065055D01*
X2760539Y-10065055D02*
X2741491Y-10084103D01*
X2741491Y-10084103D02*
X2722444Y-10093627D01*
X3008158Y-10036484D02*
X2970062Y-10036484D01*
X2970062Y-10036484D02*
X2951015Y-10046008D01*
X2951015Y-10046008D02*
X2941491Y-10055531D01*
X2941491Y-10055531D02*
X2922443Y-10084103D01*
X2922443Y-10084103D02*
X2912920Y-10122198D01*
X2912920Y-10122198D02*
X2912920Y-10198389D01*
X2912920Y-10198389D02*
X2922443Y-10217436D01*
X2922443Y-10217436D02*
X2931967Y-10226960D01*
X2931967Y-10226960D02*
X2951015Y-10236484D01*
X2951015Y-10236484D02*
X2989110Y-10236484D01*
X2989110Y-10236484D02*
X3008158Y-10226960D01*
X3008158Y-10226960D02*
X3017682Y-10217436D01*
X3017682Y-10217436D02*
X3027205Y-10198389D01*
X3027205Y-10198389D02*
X3027205Y-10150770D01*
X3027205Y-10150770D02*
X3017682Y-10131722D01*
X3017682Y-10131722D02*
X3008158Y-10122198D01*
X3008158Y-10122198D02*
X2989110Y-10112674D01*
X2989110Y-10112674D02*
X2951015Y-10112674D01*
X2951015Y-10112674D02*
X2931967Y-10122198D01*
X2931967Y-10122198D02*
X2922443Y-10131722D01*
X2922443Y-10131722D02*
X2912920Y-10150770D01*
X3112920Y-10236484D02*
X3112920Y-10103150D01*
X3112920Y-10122198D02*
X3122443Y-10112674D01*
X3122443Y-10112674D02*
X3141491Y-10103150D01*
X3141491Y-10103150D02*
X3170063Y-10103150D01*
X3170063Y-10103150D02*
X3189110Y-10112674D01*
X3189110Y-10112674D02*
X3198634Y-10131722D01*
X3198634Y-10131722D02*
X3198634Y-10236484D01*
X3198634Y-10131722D02*
X3208158Y-10112674D01*
X3208158Y-10112674D02*
X3227205Y-10103150D01*
X3227205Y-10103150D02*
X3255777Y-10103150D01*
X3255777Y-10103150D02*
X3274824Y-10112674D01*
X3274824Y-10112674D02*
X3284348Y-10131722D01*
X3284348Y-10131722D02*
X3284348Y-10236484D01*
X3379586Y-10236484D02*
X3379586Y-10103150D01*
X3379586Y-10122198D02*
X3389110Y-10112674D01*
X3389110Y-10112674D02*
X3408158Y-10103150D01*
X3408158Y-10103150D02*
X3436729Y-10103150D01*
X3436729Y-10103150D02*
X3455777Y-10112674D01*
X3455777Y-10112674D02*
X3465301Y-10131722D01*
X3465301Y-10131722D02*
X3465301Y-10236484D01*
X3465301Y-10131722D02*
X3474824Y-10112674D01*
X3474824Y-10112674D02*
X3493872Y-10103150D01*
X3493872Y-10103150D02*
X3522443Y-10103150D01*
X3522443Y-10103150D02*
X3541491Y-10112674D01*
X3541491Y-10112674D02*
X3551015Y-10131722D01*
X3551015Y-10131722D02*
X3551015Y-10236484D01*
X3941491Y-10026960D02*
X3770063Y-10284103D01*
X4198634Y-10036484D02*
X4217682Y-10036484D01*
X4217682Y-10036484D02*
X4236729Y-10046008D01*
X4236729Y-10046008D02*
X4246253Y-10055531D01*
X4246253Y-10055531D02*
X4255777Y-10074579D01*
X4255777Y-10074579D02*
X4265301Y-10112674D01*
X4265301Y-10112674D02*
X4265301Y-10160293D01*
X4265301Y-10160293D02*
X4255777Y-10198389D01*
X4255777Y-10198389D02*
X4246253Y-10217436D01*
X4246253Y-10217436D02*
X4236729Y-10226960D01*
X4236729Y-10226960D02*
X4217682Y-10236484D01*
X4217682Y-10236484D02*
X4198634Y-10236484D01*
X4198634Y-10236484D02*
X4179586Y-10226960D01*
X4179586Y-10226960D02*
X4170063Y-10217436D01*
X4170063Y-10217436D02*
X4160539Y-10198389D01*
X4160539Y-10198389D02*
X4151015Y-10160293D01*
X4151015Y-10160293D02*
X4151015Y-10112674D01*
X4151015Y-10112674D02*
X4160539Y-10074579D01*
X4160539Y-10074579D02*
X4170063Y-10055531D01*
X4170063Y-10055531D02*
X4179586Y-10046008D01*
X4179586Y-10046008D02*
X4198634Y-10036484D01*
X4351015Y-10217436D02*
X4360539Y-10226960D01*
X4360539Y-10226960D02*
X4351015Y-10236484D01*
X4351015Y-10236484D02*
X4341491Y-10226960D01*
X4341491Y-10226960D02*
X4351015Y-10217436D01*
X4351015Y-10217436D02*
X4351015Y-10236484D01*
X4484348Y-10036484D02*
X4503396Y-10036484D01*
X4503396Y-10036484D02*
X4522444Y-10046008D01*
X4522444Y-10046008D02*
X4531968Y-10055531D01*
X4531968Y-10055531D02*
X4541491Y-10074579D01*
X4541491Y-10074579D02*
X4551015Y-10112674D01*
X4551015Y-10112674D02*
X4551015Y-10160293D01*
X4551015Y-10160293D02*
X4541491Y-10198389D01*
X4541491Y-10198389D02*
X4531968Y-10217436D01*
X4531968Y-10217436D02*
X4522444Y-10226960D01*
X4522444Y-10226960D02*
X4503396Y-10236484D01*
X4503396Y-10236484D02*
X4484348Y-10236484D01*
X4484348Y-10236484D02*
X4465301Y-10226960D01*
X4465301Y-10226960D02*
X4455777Y-10217436D01*
X4455777Y-10217436D02*
X4446253Y-10198389D01*
X4446253Y-10198389D02*
X4436729Y-10160293D01*
X4436729Y-10160293D02*
X4436729Y-10112674D01*
X4436729Y-10112674D02*
X4446253Y-10074579D01*
X4446253Y-10074579D02*
X4455777Y-10055531D01*
X4455777Y-10055531D02*
X4465301Y-10046008D01*
X4465301Y-10046008D02*
X4484348Y-10036484D01*
X4722444Y-10103150D02*
X4722444Y-10236484D01*
X4674825Y-10026960D02*
X4627206Y-10169817D01*
X4627206Y-10169817D02*
X4751015Y-10169817D01*
X4865301Y-10036484D02*
X4884349Y-10036484D01*
X4884349Y-10036484D02*
X4903396Y-10046008D01*
X4903396Y-10046008D02*
X4912920Y-10055531D01*
X4912920Y-10055531D02*
X4922444Y-10074579D01*
X4922444Y-10074579D02*
X4931968Y-10112674D01*
X4931968Y-10112674D02*
X4931968Y-10160293D01*
X4931968Y-10160293D02*
X4922444Y-10198389D01*
X4922444Y-10198389D02*
X4912920Y-10217436D01*
X4912920Y-10217436D02*
X4903396Y-10226960D01*
X4903396Y-10226960D02*
X4884349Y-10236484D01*
X4884349Y-10236484D02*
X4865301Y-10236484D01*
X4865301Y-10236484D02*
X4846253Y-10226960D01*
X4846253Y-10226960D02*
X4836729Y-10217436D01*
X4836729Y-10217436D02*
X4827206Y-10198389D01*
X4827206Y-10198389D02*
X4817682Y-10160293D01*
X4817682Y-10160293D02*
X4817682Y-10112674D01*
X4817682Y-10112674D02*
X4827206Y-10074579D01*
X4827206Y-10074579D02*
X4836729Y-10055531D01*
X4836729Y-10055531D02*
X4846253Y-10046008D01*
X4846253Y-10046008D02*
X4865301Y-10036484D01*
X5055777Y-10036484D02*
X5074825Y-10036484D01*
X5074825Y-10036484D02*
X5093872Y-10046008D01*
X5093872Y-10046008D02*
X5103396Y-10055531D01*
X5103396Y-10055531D02*
X5112920Y-10074579D01*
X5112920Y-10074579D02*
X5122444Y-10112674D01*
X5122444Y-10112674D02*
X5122444Y-10160293D01*
X5122444Y-10160293D02*
X5112920Y-10198389D01*
X5112920Y-10198389D02*
X5103396Y-10217436D01*
X5103396Y-10217436D02*
X5093872Y-10226960D01*
X5093872Y-10226960D02*
X5074825Y-10236484D01*
X5074825Y-10236484D02*
X5055777Y-10236484D01*
X5055777Y-10236484D02*
X5036729Y-10226960D01*
X5036729Y-10226960D02*
X5027206Y-10217436D01*
X5027206Y-10217436D02*
X5017682Y-10198389D01*
X5017682Y-10198389D02*
X5008158Y-10160293D01*
X5008158Y-10160293D02*
X5008158Y-10112674D01*
X5008158Y-10112674D02*
X5017682Y-10074579D01*
X5017682Y-10074579D02*
X5027206Y-10055531D01*
X5027206Y-10055531D02*
X5036729Y-10046008D01*
X5036729Y-10046008D02*
X5055777Y-10036484D01*
X5198634Y-10036484D02*
X5198634Y-10074579D01*
X5274825Y-10036484D02*
X5274825Y-10074579D01*
X5570063Y-10312674D02*
X5560539Y-10303150D01*
X5560539Y-10303150D02*
X5541491Y-10274579D01*
X5541491Y-10274579D02*
X5531968Y-10255531D01*
X5531968Y-10255531D02*
X5522444Y-10226960D01*
X5522444Y-10226960D02*
X5512920Y-10179341D01*
X5512920Y-10179341D02*
X5512920Y-10141246D01*
X5512920Y-10141246D02*
X5522444Y-10093627D01*
X5522444Y-10093627D02*
X5531968Y-10065055D01*
X5531968Y-10065055D02*
X5541491Y-10046008D01*
X5541491Y-10046008D02*
X5560539Y-10017436D01*
X5560539Y-10017436D02*
X5570063Y-10007912D01*
X5655777Y-10236484D02*
X5693872Y-10236484D01*
X5693872Y-10236484D02*
X5712920Y-10226960D01*
X5712920Y-10226960D02*
X5722444Y-10217436D01*
X5722444Y-10217436D02*
X5741491Y-10188865D01*
X5741491Y-10188865D02*
X5751015Y-10150770D01*
X5751015Y-10150770D02*
X5751015Y-10074579D01*
X5751015Y-10074579D02*
X5741491Y-10055531D01*
X5741491Y-10055531D02*
X5731968Y-10046008D01*
X5731968Y-10046008D02*
X5712920Y-10036484D01*
X5712920Y-10036484D02*
X5674825Y-10036484D01*
X5674825Y-10036484D02*
X5655777Y-10046008D01*
X5655777Y-10046008D02*
X5646253Y-10055531D01*
X5646253Y-10055531D02*
X5636729Y-10074579D01*
X5636729Y-10074579D02*
X5636729Y-10122198D01*
X5636729Y-10122198D02*
X5646253Y-10141246D01*
X5646253Y-10141246D02*
X5655777Y-10150770D01*
X5655777Y-10150770D02*
X5674825Y-10160293D01*
X5674825Y-10160293D02*
X5712920Y-10160293D01*
X5712920Y-10160293D02*
X5731968Y-10150770D01*
X5731968Y-10150770D02*
X5741491Y-10141246D01*
X5741491Y-10141246D02*
X5751015Y-10122198D01*
X5827206Y-10055531D02*
X5836729Y-10046008D01*
X5836729Y-10046008D02*
X5855777Y-10036484D01*
X5855777Y-10036484D02*
X5903396Y-10036484D01*
X5903396Y-10036484D02*
X5922444Y-10046008D01*
X5922444Y-10046008D02*
X5931968Y-10055531D01*
X5931968Y-10055531D02*
X5941491Y-10074579D01*
X5941491Y-10074579D02*
X5941491Y-10093627D01*
X5941491Y-10093627D02*
X5931968Y-10122198D01*
X5931968Y-10122198D02*
X5817682Y-10236484D01*
X5817682Y-10236484D02*
X5941491Y-10236484D01*
X6179587Y-10236484D02*
X6179587Y-10036484D01*
X6265301Y-10236484D02*
X6265301Y-10131722D01*
X6265301Y-10131722D02*
X6255777Y-10112674D01*
X6255777Y-10112674D02*
X6236730Y-10103150D01*
X6236730Y-10103150D02*
X6208158Y-10103150D01*
X6208158Y-10103150D02*
X6189110Y-10112674D01*
X6189110Y-10112674D02*
X6179587Y-10122198D01*
X6389110Y-10236484D02*
X6370063Y-10226960D01*
X6370063Y-10226960D02*
X6360539Y-10217436D01*
X6360539Y-10217436D02*
X6351015Y-10198389D01*
X6351015Y-10198389D02*
X6351015Y-10141246D01*
X6351015Y-10141246D02*
X6360539Y-10122198D01*
X6360539Y-10122198D02*
X6370063Y-10112674D01*
X6370063Y-10112674D02*
X6389110Y-10103150D01*
X6389110Y-10103150D02*
X6417682Y-10103150D01*
X6417682Y-10103150D02*
X6436730Y-10112674D01*
X6436730Y-10112674D02*
X6446253Y-10122198D01*
X6446253Y-10122198D02*
X6455777Y-10141246D01*
X6455777Y-10141246D02*
X6455777Y-10198389D01*
X6455777Y-10198389D02*
X6446253Y-10217436D01*
X6446253Y-10217436D02*
X6436730Y-10226960D01*
X6436730Y-10226960D02*
X6417682Y-10236484D01*
X6417682Y-10236484D02*
X6389110Y-10236484D01*
X6570063Y-10236484D02*
X6551015Y-10226960D01*
X6551015Y-10226960D02*
X6541491Y-10207912D01*
X6541491Y-10207912D02*
X6541491Y-10036484D01*
X6722444Y-10226960D02*
X6703396Y-10236484D01*
X6703396Y-10236484D02*
X6665301Y-10236484D01*
X6665301Y-10236484D02*
X6646253Y-10226960D01*
X6646253Y-10226960D02*
X6636730Y-10207912D01*
X6636730Y-10207912D02*
X6636730Y-10131722D01*
X6636730Y-10131722D02*
X6646253Y-10112674D01*
X6646253Y-10112674D02*
X6665301Y-10103150D01*
X6665301Y-10103150D02*
X6703396Y-10103150D01*
X6703396Y-10103150D02*
X6722444Y-10112674D01*
X6722444Y-10112674D02*
X6731968Y-10131722D01*
X6731968Y-10131722D02*
X6731968Y-10150770D01*
X6731968Y-10150770D02*
X6636730Y-10169817D01*
X6808158Y-10226960D02*
X6827206Y-10236484D01*
X6827206Y-10236484D02*
X6865301Y-10236484D01*
X6865301Y-10236484D02*
X6884349Y-10226960D01*
X6884349Y-10226960D02*
X6893872Y-10207912D01*
X6893872Y-10207912D02*
X6893872Y-10198389D01*
X6893872Y-10198389D02*
X6884349Y-10179341D01*
X6884349Y-10179341D02*
X6865301Y-10169817D01*
X6865301Y-10169817D02*
X6836730Y-10169817D01*
X6836730Y-10169817D02*
X6817682Y-10160293D01*
X6817682Y-10160293D02*
X6808158Y-10141246D01*
X6808158Y-10141246D02*
X6808158Y-10131722D01*
X6808158Y-10131722D02*
X6817682Y-10112674D01*
X6817682Y-10112674D02*
X6836730Y-10103150D01*
X6836730Y-10103150D02*
X6865301Y-10103150D01*
X6865301Y-10103150D02*
X6884349Y-10112674D01*
X6960539Y-10312674D02*
X6970063Y-10303150D01*
X6970063Y-10303150D02*
X6989111Y-10274579D01*
X6989111Y-10274579D02*
X6998634Y-10255531D01*
X6998634Y-10255531D02*
X7008158Y-10226960D01*
X7008158Y-10226960D02*
X7017682Y-10179341D01*
X7017682Y-10179341D02*
X7017682Y-10141246D01*
X7017682Y-10141246D02*
X7008158Y-10093627D01*
X7008158Y-10093627D02*
X6998634Y-10065055D01*
X6998634Y-10065055D02*
X6989111Y-10046008D01*
X6989111Y-10046008D02*
X6970063Y-10017436D01*
X6970063Y-10017436D02*
X6960539Y-10007912D01*
D13*
X1995000Y-10409000D02*
G75*
G02*
X1875000Y-10409000I-60000J0D01*
G01*
X1875000Y-10409000D02*
G75*
G02*
X1995000Y-10409000I60000J0D01*
G01*
D11*
X2360539Y-10500484D02*
X2246253Y-10500484D01*
X2303396Y-10500484D02*
X2303396Y-10300484D01*
X2303396Y-10300484D02*
X2284348Y-10329055D01*
X2284348Y-10329055D02*
X2265301Y-10348103D01*
X2265301Y-10348103D02*
X2246253Y-10357627D01*
X2446253Y-10481436D02*
X2455777Y-10490960D01*
X2455777Y-10490960D02*
X2446253Y-10500484D01*
X2446253Y-10500484D02*
X2436729Y-10490960D01*
X2436729Y-10490960D02*
X2446253Y-10481436D01*
X2446253Y-10481436D02*
X2446253Y-10500484D01*
X2531967Y-10319531D02*
X2541491Y-10310008D01*
X2541491Y-10310008D02*
X2560539Y-10300484D01*
X2560539Y-10300484D02*
X2608158Y-10300484D01*
X2608158Y-10300484D02*
X2627205Y-10310008D01*
X2627205Y-10310008D02*
X2636729Y-10319531D01*
X2636729Y-10319531D02*
X2646253Y-10338579D01*
X2646253Y-10338579D02*
X2646253Y-10357627D01*
X2646253Y-10357627D02*
X2636729Y-10386198D01*
X2636729Y-10386198D02*
X2522444Y-10500484D01*
X2522444Y-10500484D02*
X2646253Y-10500484D01*
X2770063Y-10300484D02*
X2789110Y-10300484D01*
X2789110Y-10300484D02*
X2808158Y-10310008D01*
X2808158Y-10310008D02*
X2817682Y-10319531D01*
X2817682Y-10319531D02*
X2827205Y-10338579D01*
X2827205Y-10338579D02*
X2836729Y-10376674D01*
X2836729Y-10376674D02*
X2836729Y-10424293D01*
X2836729Y-10424293D02*
X2827205Y-10462389D01*
X2827205Y-10462389D02*
X2817682Y-10481436D01*
X2817682Y-10481436D02*
X2808158Y-10490960D01*
X2808158Y-10490960D02*
X2789110Y-10500484D01*
X2789110Y-10500484D02*
X2770063Y-10500484D01*
X2770063Y-10500484D02*
X2751015Y-10490960D01*
X2751015Y-10490960D02*
X2741491Y-10481436D01*
X2741491Y-10481436D02*
X2731967Y-10462389D01*
X2731967Y-10462389D02*
X2722444Y-10424293D01*
X2722444Y-10424293D02*
X2722444Y-10376674D01*
X2722444Y-10376674D02*
X2731967Y-10338579D01*
X2731967Y-10338579D02*
X2741491Y-10319531D01*
X2741491Y-10319531D02*
X2751015Y-10310008D01*
X2751015Y-10310008D02*
X2770063Y-10300484D01*
X2960539Y-10300484D02*
X2979586Y-10300484D01*
X2979586Y-10300484D02*
X2998634Y-10310008D01*
X2998634Y-10310008D02*
X3008158Y-10319531D01*
X3008158Y-10319531D02*
X3017682Y-10338579D01*
X3017682Y-10338579D02*
X3027205Y-10376674D01*
X3027205Y-10376674D02*
X3027205Y-10424293D01*
X3027205Y-10424293D02*
X3017682Y-10462389D01*
X3017682Y-10462389D02*
X3008158Y-10481436D01*
X3008158Y-10481436D02*
X2998634Y-10490960D01*
X2998634Y-10490960D02*
X2979586Y-10500484D01*
X2979586Y-10500484D02*
X2960539Y-10500484D01*
X2960539Y-10500484D02*
X2941491Y-10490960D01*
X2941491Y-10490960D02*
X2931967Y-10481436D01*
X2931967Y-10481436D02*
X2922443Y-10462389D01*
X2922443Y-10462389D02*
X2912920Y-10424293D01*
X2912920Y-10424293D02*
X2912920Y-10376674D01*
X2912920Y-10376674D02*
X2922443Y-10338579D01*
X2922443Y-10338579D02*
X2931967Y-10319531D01*
X2931967Y-10319531D02*
X2941491Y-10310008D01*
X2941491Y-10310008D02*
X2960539Y-10300484D01*
X3112920Y-10500484D02*
X3112920Y-10367150D01*
X3112920Y-10386198D02*
X3122443Y-10376674D01*
X3122443Y-10376674D02*
X3141491Y-10367150D01*
X3141491Y-10367150D02*
X3170063Y-10367150D01*
X3170063Y-10367150D02*
X3189110Y-10376674D01*
X3189110Y-10376674D02*
X3198634Y-10395722D01*
X3198634Y-10395722D02*
X3198634Y-10500484D01*
X3198634Y-10395722D02*
X3208158Y-10376674D01*
X3208158Y-10376674D02*
X3227205Y-10367150D01*
X3227205Y-10367150D02*
X3255777Y-10367150D01*
X3255777Y-10367150D02*
X3274824Y-10376674D01*
X3274824Y-10376674D02*
X3284348Y-10395722D01*
X3284348Y-10395722D02*
X3284348Y-10500484D01*
X3379586Y-10500484D02*
X3379586Y-10367150D01*
X3379586Y-10386198D02*
X3389110Y-10376674D01*
X3389110Y-10376674D02*
X3408158Y-10367150D01*
X3408158Y-10367150D02*
X3436729Y-10367150D01*
X3436729Y-10367150D02*
X3455777Y-10376674D01*
X3455777Y-10376674D02*
X3465301Y-10395722D01*
X3465301Y-10395722D02*
X3465301Y-10500484D01*
X3465301Y-10395722D02*
X3474824Y-10376674D01*
X3474824Y-10376674D02*
X3493872Y-10367150D01*
X3493872Y-10367150D02*
X3522443Y-10367150D01*
X3522443Y-10367150D02*
X3541491Y-10376674D01*
X3541491Y-10376674D02*
X3551015Y-10395722D01*
X3551015Y-10395722D02*
X3551015Y-10500484D01*
X3941491Y-10290960D02*
X3770063Y-10548103D01*
X4198634Y-10300484D02*
X4217682Y-10300484D01*
X4217682Y-10300484D02*
X4236729Y-10310008D01*
X4236729Y-10310008D02*
X4246253Y-10319531D01*
X4246253Y-10319531D02*
X4255777Y-10338579D01*
X4255777Y-10338579D02*
X4265301Y-10376674D01*
X4265301Y-10376674D02*
X4265301Y-10424293D01*
X4265301Y-10424293D02*
X4255777Y-10462389D01*
X4255777Y-10462389D02*
X4246253Y-10481436D01*
X4246253Y-10481436D02*
X4236729Y-10490960D01*
X4236729Y-10490960D02*
X4217682Y-10500484D01*
X4217682Y-10500484D02*
X4198634Y-10500484D01*
X4198634Y-10500484D02*
X4179586Y-10490960D01*
X4179586Y-10490960D02*
X4170063Y-10481436D01*
X4170063Y-10481436D02*
X4160539Y-10462389D01*
X4160539Y-10462389D02*
X4151015Y-10424293D01*
X4151015Y-10424293D02*
X4151015Y-10376674D01*
X4151015Y-10376674D02*
X4160539Y-10338579D01*
X4160539Y-10338579D02*
X4170063Y-10319531D01*
X4170063Y-10319531D02*
X4179586Y-10310008D01*
X4179586Y-10310008D02*
X4198634Y-10300484D01*
X4351015Y-10481436D02*
X4360539Y-10490960D01*
X4360539Y-10490960D02*
X4351015Y-10500484D01*
X4351015Y-10500484D02*
X4341491Y-10490960D01*
X4341491Y-10490960D02*
X4351015Y-10481436D01*
X4351015Y-10481436D02*
X4351015Y-10500484D01*
X4484348Y-10300484D02*
X4503396Y-10300484D01*
X4503396Y-10300484D02*
X4522444Y-10310008D01*
X4522444Y-10310008D02*
X4531968Y-10319531D01*
X4531968Y-10319531D02*
X4541491Y-10338579D01*
X4541491Y-10338579D02*
X4551015Y-10376674D01*
X4551015Y-10376674D02*
X4551015Y-10424293D01*
X4551015Y-10424293D02*
X4541491Y-10462389D01*
X4541491Y-10462389D02*
X4531968Y-10481436D01*
X4531968Y-10481436D02*
X4522444Y-10490960D01*
X4522444Y-10490960D02*
X4503396Y-10500484D01*
X4503396Y-10500484D02*
X4484348Y-10500484D01*
X4484348Y-10500484D02*
X4465301Y-10490960D01*
X4465301Y-10490960D02*
X4455777Y-10481436D01*
X4455777Y-10481436D02*
X4446253Y-10462389D01*
X4446253Y-10462389D02*
X4436729Y-10424293D01*
X4436729Y-10424293D02*
X4436729Y-10376674D01*
X4436729Y-10376674D02*
X4446253Y-10338579D01*
X4446253Y-10338579D02*
X4455777Y-10319531D01*
X4455777Y-10319531D02*
X4465301Y-10310008D01*
X4465301Y-10310008D02*
X4484348Y-10300484D01*
X4722444Y-10367150D02*
X4722444Y-10500484D01*
X4674825Y-10290960D02*
X4627206Y-10433817D01*
X4627206Y-10433817D02*
X4751015Y-10433817D01*
X4808158Y-10300484D02*
X4941491Y-10300484D01*
X4941491Y-10300484D02*
X4855777Y-10500484D01*
X5008158Y-10319531D02*
X5017682Y-10310008D01*
X5017682Y-10310008D02*
X5036729Y-10300484D01*
X5036729Y-10300484D02*
X5084349Y-10300484D01*
X5084349Y-10300484D02*
X5103396Y-10310008D01*
X5103396Y-10310008D02*
X5112920Y-10319531D01*
X5112920Y-10319531D02*
X5122444Y-10338579D01*
X5122444Y-10338579D02*
X5122444Y-10357627D01*
X5122444Y-10357627D02*
X5112920Y-10386198D01*
X5112920Y-10386198D02*
X4998634Y-10500484D01*
X4998634Y-10500484D02*
X5122444Y-10500484D01*
X5198634Y-10300484D02*
X5198634Y-10338579D01*
X5274825Y-10300484D02*
X5274825Y-10338579D01*
X5570063Y-10576674D02*
X5560539Y-10567150D01*
X5560539Y-10567150D02*
X5541491Y-10538579D01*
X5541491Y-10538579D02*
X5531968Y-10519531D01*
X5531968Y-10519531D02*
X5522444Y-10490960D01*
X5522444Y-10490960D02*
X5512920Y-10443341D01*
X5512920Y-10443341D02*
X5512920Y-10405246D01*
X5512920Y-10405246D02*
X5522444Y-10357627D01*
X5522444Y-10357627D02*
X5531968Y-10329055D01*
X5531968Y-10329055D02*
X5541491Y-10310008D01*
X5541491Y-10310008D02*
X5560539Y-10281436D01*
X5560539Y-10281436D02*
X5570063Y-10271912D01*
X5674825Y-10386198D02*
X5655777Y-10376674D01*
X5655777Y-10376674D02*
X5646253Y-10367150D01*
X5646253Y-10367150D02*
X5636729Y-10348103D01*
X5636729Y-10348103D02*
X5636729Y-10338579D01*
X5636729Y-10338579D02*
X5646253Y-10319531D01*
X5646253Y-10319531D02*
X5655777Y-10310008D01*
X5655777Y-10310008D02*
X5674825Y-10300484D01*
X5674825Y-10300484D02*
X5712920Y-10300484D01*
X5712920Y-10300484D02*
X5731968Y-10310008D01*
X5731968Y-10310008D02*
X5741491Y-10319531D01*
X5741491Y-10319531D02*
X5751015Y-10338579D01*
X5751015Y-10338579D02*
X5751015Y-10348103D01*
X5751015Y-10348103D02*
X5741491Y-10367150D01*
X5741491Y-10367150D02*
X5731968Y-10376674D01*
X5731968Y-10376674D02*
X5712920Y-10386198D01*
X5712920Y-10386198D02*
X5674825Y-10386198D01*
X5674825Y-10386198D02*
X5655777Y-10395722D01*
X5655777Y-10395722D02*
X5646253Y-10405246D01*
X5646253Y-10405246D02*
X5636729Y-10424293D01*
X5636729Y-10424293D02*
X5636729Y-10462389D01*
X5636729Y-10462389D02*
X5646253Y-10481436D01*
X5646253Y-10481436D02*
X5655777Y-10490960D01*
X5655777Y-10490960D02*
X5674825Y-10500484D01*
X5674825Y-10500484D02*
X5712920Y-10500484D01*
X5712920Y-10500484D02*
X5731968Y-10490960D01*
X5731968Y-10490960D02*
X5741491Y-10481436D01*
X5741491Y-10481436D02*
X5751015Y-10462389D01*
X5751015Y-10462389D02*
X5751015Y-10424293D01*
X5751015Y-10424293D02*
X5741491Y-10405246D01*
X5741491Y-10405246D02*
X5731968Y-10395722D01*
X5731968Y-10395722D02*
X5712920Y-10386198D01*
X5874825Y-10300484D02*
X5893872Y-10300484D01*
X5893872Y-10300484D02*
X5912920Y-10310008D01*
X5912920Y-10310008D02*
X5922444Y-10319531D01*
X5922444Y-10319531D02*
X5931968Y-10338579D01*
X5931968Y-10338579D02*
X5941491Y-10376674D01*
X5941491Y-10376674D02*
X5941491Y-10424293D01*
X5941491Y-10424293D02*
X5931968Y-10462389D01*
X5931968Y-10462389D02*
X5922444Y-10481436D01*
X5922444Y-10481436D02*
X5912920Y-10490960D01*
X5912920Y-10490960D02*
X5893872Y-10500484D01*
X5893872Y-10500484D02*
X5874825Y-10500484D01*
X5874825Y-10500484D02*
X5855777Y-10490960D01*
X5855777Y-10490960D02*
X5846253Y-10481436D01*
X5846253Y-10481436D02*
X5836729Y-10462389D01*
X5836729Y-10462389D02*
X5827206Y-10424293D01*
X5827206Y-10424293D02*
X5827206Y-10376674D01*
X5827206Y-10376674D02*
X5836729Y-10338579D01*
X5836729Y-10338579D02*
X5846253Y-10319531D01*
X5846253Y-10319531D02*
X5855777Y-10310008D01*
X5855777Y-10310008D02*
X5874825Y-10300484D01*
X6179587Y-10500484D02*
X6179587Y-10300484D01*
X6265301Y-10500484D02*
X6265301Y-10395722D01*
X6265301Y-10395722D02*
X6255777Y-10376674D01*
X6255777Y-10376674D02*
X6236730Y-10367150D01*
X6236730Y-10367150D02*
X6208158Y-10367150D01*
X6208158Y-10367150D02*
X6189110Y-10376674D01*
X6189110Y-10376674D02*
X6179587Y-10386198D01*
X6389110Y-10500484D02*
X6370063Y-10490960D01*
X6370063Y-10490960D02*
X6360539Y-10481436D01*
X6360539Y-10481436D02*
X6351015Y-10462389D01*
X6351015Y-10462389D02*
X6351015Y-10405246D01*
X6351015Y-10405246D02*
X6360539Y-10386198D01*
X6360539Y-10386198D02*
X6370063Y-10376674D01*
X6370063Y-10376674D02*
X6389110Y-10367150D01*
X6389110Y-10367150D02*
X6417682Y-10367150D01*
X6417682Y-10367150D02*
X6436730Y-10376674D01*
X6436730Y-10376674D02*
X6446253Y-10386198D01*
X6446253Y-10386198D02*
X6455777Y-10405246D01*
X6455777Y-10405246D02*
X6455777Y-10462389D01*
X6455777Y-10462389D02*
X6446253Y-10481436D01*
X6446253Y-10481436D02*
X6436730Y-10490960D01*
X6436730Y-10490960D02*
X6417682Y-10500484D01*
X6417682Y-10500484D02*
X6389110Y-10500484D01*
X6570063Y-10500484D02*
X6551015Y-10490960D01*
X6551015Y-10490960D02*
X6541491Y-10471912D01*
X6541491Y-10471912D02*
X6541491Y-10300484D01*
X6722444Y-10490960D02*
X6703396Y-10500484D01*
X6703396Y-10500484D02*
X6665301Y-10500484D01*
X6665301Y-10500484D02*
X6646253Y-10490960D01*
X6646253Y-10490960D02*
X6636730Y-10471912D01*
X6636730Y-10471912D02*
X6636730Y-10395722D01*
X6636730Y-10395722D02*
X6646253Y-10376674D01*
X6646253Y-10376674D02*
X6665301Y-10367150D01*
X6665301Y-10367150D02*
X6703396Y-10367150D01*
X6703396Y-10367150D02*
X6722444Y-10376674D01*
X6722444Y-10376674D02*
X6731968Y-10395722D01*
X6731968Y-10395722D02*
X6731968Y-10414770D01*
X6731968Y-10414770D02*
X6636730Y-10433817D01*
X6808158Y-10490960D02*
X6827206Y-10500484D01*
X6827206Y-10500484D02*
X6865301Y-10500484D01*
X6865301Y-10500484D02*
X6884349Y-10490960D01*
X6884349Y-10490960D02*
X6893872Y-10471912D01*
X6893872Y-10471912D02*
X6893872Y-10462389D01*
X6893872Y-10462389D02*
X6884349Y-10443341D01*
X6884349Y-10443341D02*
X6865301Y-10433817D01*
X6865301Y-10433817D02*
X6836730Y-10433817D01*
X6836730Y-10433817D02*
X6817682Y-10424293D01*
X6817682Y-10424293D02*
X6808158Y-10405246D01*
X6808158Y-10405246D02*
X6808158Y-10395722D01*
X6808158Y-10395722D02*
X6817682Y-10376674D01*
X6817682Y-10376674D02*
X6836730Y-10367150D01*
X6836730Y-10367150D02*
X6865301Y-10367150D01*
X6865301Y-10367150D02*
X6884349Y-10376674D01*
X6960539Y-10576674D02*
X6970063Y-10567150D01*
X6970063Y-10567150D02*
X6989111Y-10538579D01*
X6989111Y-10538579D02*
X6998634Y-10519531D01*
X6998634Y-10519531D02*
X7008158Y-10490960D01*
X7008158Y-10490960D02*
X7017682Y-10443341D01*
X7017682Y-10443341D02*
X7017682Y-10405246D01*
X7017682Y-10405246D02*
X7008158Y-10357627D01*
X7008158Y-10357627D02*
X6998634Y-10329055D01*
X6998634Y-10329055D02*
X6989111Y-10310008D01*
X6989111Y-10310008D02*
X6970063Y-10281436D01*
X6970063Y-10281436D02*
X6960539Y-10271912D01*
M02*
