%TF.GenerationSoftware,KiCad,Pcbnew,9.0.6*%
%TF.CreationDate,2026-03-06T01:43:04-06:00*%
%TF.ProjectId,IRIS_Converter,49524953-5f43-46f6-9e76-65727465722e,rev?*%
%TF.SameCoordinates,Original*%
%TF.FileFunction,Paste,Top*%
%TF.FilePolarity,Positive*%
%FSLAX46Y46*%
G04 Gerber Fmt 4.6, Leading zero omitted, Abs format (unit mm)*
G04 Created by KiCad (PCBNEW 9.0.6) date 2026-03-06 01:43:04*
%MOMM*%
%LPD*%
G01*
G04 APERTURE LIST*
%ADD10C,0.000000*%
%ADD11R,0.439999X0.750001*%
%ADD12R,4.953000X3.225800*%
%ADD13R,1.498600X3.302000*%
%ADD14R,0.299999X0.449999*%
%ADD15R,2.692400X1.244600*%
G04 APERTURE END LIST*
D10*
%TO.C,Q2*%
G36*
X103663788Y-62888175D02*
G01*
X103673298Y-62891058D01*
X103682063Y-62895744D01*
X103689747Y-62902049D01*
X103696054Y-62909732D01*
X103700737Y-62918498D01*
X103703623Y-62928010D01*
X103704598Y-62937901D01*
X103704598Y-63512500D01*
X103703623Y-63522390D01*
X103700737Y-63531903D01*
X103696054Y-63540668D01*
X103689747Y-63548352D01*
X103682063Y-63554656D01*
X103673298Y-63559342D01*
X103663788Y-63562225D01*
X103653897Y-63563201D01*
X102630298Y-63563201D01*
X102620407Y-63562225D01*
X102610897Y-63559342D01*
X102602132Y-63554656D01*
X102594448Y-63548352D01*
X102588141Y-63540668D01*
X102583457Y-63531903D01*
X102580572Y-63522390D01*
X102579599Y-63512500D01*
X102579599Y-62937901D01*
X102580572Y-62928010D01*
X102583457Y-62918498D01*
X102588141Y-62909732D01*
X102594448Y-62902049D01*
X102602132Y-62895744D01*
X102610897Y-62891058D01*
X102620407Y-62888175D01*
X102630298Y-62887200D01*
X103653897Y-62887200D01*
X103663788Y-62888175D01*
G37*
G36*
X103663788Y-62012175D02*
G01*
X103673298Y-62015058D01*
X103682063Y-62019744D01*
X103689747Y-62026048D01*
X103696054Y-62033732D01*
X103700737Y-62042497D01*
X103703623Y-62052010D01*
X103704598Y-62061901D01*
X103704598Y-62636499D01*
X103703623Y-62646390D01*
X103700737Y-62655902D01*
X103696054Y-62664668D01*
X103689747Y-62672351D01*
X103682063Y-62678656D01*
X103673298Y-62683342D01*
X103663788Y-62686225D01*
X103653897Y-62687200D01*
X102630298Y-62687200D01*
X102620407Y-62686225D01*
X102610897Y-62683342D01*
X102602132Y-62678656D01*
X102594448Y-62672351D01*
X102588141Y-62664668D01*
X102583457Y-62655902D01*
X102580572Y-62646390D01*
X102579599Y-62636499D01*
X102579599Y-62061901D01*
X102580572Y-62052010D01*
X102583457Y-62042497D01*
X102588141Y-62033732D01*
X102594448Y-62026048D01*
X102602132Y-62019744D01*
X102610897Y-62015058D01*
X102620407Y-62012175D01*
X102630298Y-62011200D01*
X103653897Y-62011200D01*
X103663788Y-62012175D01*
G37*
G36*
X104988784Y-62888175D02*
G01*
X104998294Y-62891058D01*
X105007059Y-62895744D01*
X105014743Y-62902049D01*
X105021050Y-62909732D01*
X105025733Y-62918498D01*
X105028619Y-62928010D01*
X105029592Y-62937901D01*
X105029592Y-63512500D01*
X105028619Y-63522390D01*
X105025733Y-63531903D01*
X105021050Y-63540668D01*
X105014743Y-63548352D01*
X105007059Y-63554656D01*
X104998294Y-63559342D01*
X104988784Y-63562225D01*
X104978893Y-63563201D01*
X103955294Y-63563201D01*
X103945403Y-63562225D01*
X103935893Y-63559342D01*
X103927128Y-63554656D01*
X103919444Y-63548352D01*
X103913137Y-63540668D01*
X103908454Y-63531903D01*
X103905568Y-63522390D01*
X103904593Y-63512500D01*
X103904593Y-62937901D01*
X103905568Y-62928010D01*
X103908454Y-62918498D01*
X103913137Y-62909732D01*
X103919444Y-62902049D01*
X103927128Y-62895744D01*
X103935893Y-62891058D01*
X103945403Y-62888175D01*
X103955294Y-62887200D01*
X104978893Y-62887200D01*
X104988784Y-62888175D01*
G37*
G36*
X104988784Y-62012175D02*
G01*
X104998294Y-62015058D01*
X105007059Y-62019744D01*
X105014743Y-62026048D01*
X105021050Y-62033732D01*
X105025733Y-62042497D01*
X105028619Y-62052010D01*
X105029592Y-62061901D01*
X105029592Y-62636499D01*
X105028619Y-62646390D01*
X105025733Y-62655902D01*
X105021050Y-62664668D01*
X105014743Y-62672351D01*
X105007059Y-62678656D01*
X104998294Y-62683342D01*
X104988784Y-62686225D01*
X104978893Y-62687200D01*
X103955294Y-62687200D01*
X103945403Y-62686225D01*
X103935893Y-62683342D01*
X103927128Y-62678656D01*
X103919444Y-62672351D01*
X103913137Y-62664668D01*
X103908454Y-62655902D01*
X103905568Y-62646390D01*
X103904593Y-62636499D01*
X103904593Y-62061901D01*
X103905568Y-62052010D01*
X103908454Y-62042497D01*
X103913137Y-62033732D01*
X103919444Y-62026048D01*
X103927128Y-62019744D01*
X103935893Y-62015058D01*
X103945403Y-62012175D01*
X103955294Y-62011200D01*
X104978893Y-62011200D01*
X104988784Y-62012175D01*
G37*
%TO.C,Q1*%
G36*
X104198268Y-58621593D02*
G01*
X104207948Y-58624529D01*
X104216868Y-58629296D01*
X104224687Y-58635715D01*
X104231105Y-58643533D01*
X104235873Y-58652454D01*
X104238809Y-58662133D01*
X104239800Y-58672199D01*
X104239800Y-59469003D01*
X104238809Y-59479069D01*
X104235873Y-59488748D01*
X104231105Y-59497669D01*
X104224687Y-59505487D01*
X104216868Y-59511906D01*
X104207948Y-59516673D01*
X104198268Y-59519609D01*
X104188202Y-59520603D01*
X103431399Y-59520603D01*
X103421333Y-59519609D01*
X103411653Y-59516673D01*
X103402732Y-59511906D01*
X103394914Y-59505487D01*
X103388496Y-59497669D01*
X103383728Y-59488748D01*
X103380792Y-59479069D01*
X103379799Y-59469003D01*
X103379799Y-58672199D01*
X103380792Y-58662133D01*
X103383728Y-58652454D01*
X103388496Y-58643533D01*
X103394914Y-58635715D01*
X103402732Y-58629296D01*
X103411653Y-58624529D01*
X103421333Y-58621593D01*
X103431399Y-58620599D01*
X104188202Y-58620599D01*
X104198268Y-58621593D01*
G37*
G36*
X104890121Y-58626545D02*
G01*
X104899369Y-58629352D01*
X104907891Y-58633909D01*
X104915363Y-58640038D01*
X104921492Y-58647511D01*
X104926049Y-58656032D01*
X104928856Y-58665281D01*
X104929801Y-58674899D01*
X104929801Y-59276300D01*
X104928856Y-59285919D01*
X104926049Y-59295167D01*
X104921492Y-59303689D01*
X104915363Y-59311162D01*
X104907891Y-59317291D01*
X104899369Y-59321848D01*
X104890121Y-59324654D01*
X104880502Y-59325599D01*
X104689103Y-59325599D01*
X104679484Y-59324654D01*
X104670236Y-59321848D01*
X104661714Y-59317291D01*
X104654241Y-59311162D01*
X104648112Y-59303689D01*
X104643555Y-59295167D01*
X104640749Y-59285919D01*
X104639801Y-59276300D01*
X104639801Y-58674899D01*
X104640749Y-58665281D01*
X104643555Y-58656032D01*
X104648112Y-58647511D01*
X104654241Y-58640038D01*
X104661714Y-58633909D01*
X104670236Y-58629352D01*
X104679484Y-58626545D01*
X104689103Y-58625598D01*
X104880502Y-58625598D01*
X104890121Y-58626545D01*
G37*
%TD*%
D11*
%TO.C,Q2*%
X104779600Y-61036200D03*
X104129599Y-61036200D03*
X103479600Y-61036200D03*
X102829599Y-61036200D03*
X102829599Y-64086202D03*
X103479597Y-64086202D03*
X104129599Y-64086202D03*
X104779597Y-64086202D03*
%TD*%
D12*
%TO.C,1.2uH1*%
X82829400Y-57359800D03*
X82829400Y-46564800D03*
%TD*%
D13*
%TO.C,Cout1*%
X101597200Y-39281600D03*
X101597200Y-46190400D03*
%TD*%
D14*
%TO.C,Q1*%
X103484800Y-60045600D03*
X104134801Y-60045600D03*
X104784800Y-60045600D03*
X104784800Y-58095599D03*
X104134801Y-58095599D03*
X103484800Y-58095599D03*
%TD*%
D15*
%TO.C,Cin1*%
X107492800Y-64541400D03*
X107492800Y-61569600D03*
%TD*%
M02*
