%TF.GenerationSoftware,KiCad,Pcbnew,9.0.6*%
%TF.CreationDate,2026-02-14T13:33:51-06:00*%
%TF.ProjectId,IRIS_Converter,49524953-5f43-46f6-9e76-65727465722e,rev?*%
%TF.SameCoordinates,Original*%
%TF.FileFunction,Legend,Top*%
%TF.FilePolarity,Positive*%
%FSLAX46Y46*%
G04 Gerber Fmt 4.6, Leading zero omitted, Abs format (unit mm)*
G04 Created by KiCad (PCBNEW 9.0.6) date 2026-02-14 13:33:51*
%MOMM*%
%LPD*%
G01*
G04 APERTURE LIST*
%ADD10C,0.000000*%
%ADD11C,0.150000*%
%ADD12C,0.152400*%
%ADD13C,0.508000*%
%ADD14C,0.200000*%
G04 APERTURE END LIST*
D10*
G36*
X87536839Y-65123423D02*
G01*
X87553840Y-65130117D01*
X87605018Y-65152238D01*
X87749394Y-65218392D01*
X87898986Y-65288944D01*
X87992817Y-65334117D01*
X88048583Y-65361187D01*
X88105735Y-65388091D01*
X88222399Y-65441445D01*
X88339208Y-65494267D01*
X88452562Y-65546647D01*
X88917362Y-65762207D01*
X88953673Y-65779753D01*
X88960567Y-65782964D01*
X88967011Y-65785768D01*
X88973218Y-65788193D01*
X88979398Y-65790271D01*
X88985763Y-65792033D01*
X88992526Y-65793508D01*
X88999897Y-65794728D01*
X89008090Y-65795723D01*
X89017315Y-65796524D01*
X89027784Y-65797161D01*
X89039709Y-65797665D01*
X89053302Y-65798067D01*
X89073536Y-65798730D01*
X89093797Y-65799645D01*
X89134332Y-65801872D01*
X89174770Y-65804024D01*
X89194909Y-65804846D01*
X89214972Y-65805377D01*
X89295160Y-65807133D01*
X89376109Y-65809569D01*
X89457073Y-65812710D01*
X89537307Y-65816582D01*
X89837372Y-66173227D01*
X90112522Y-66495992D01*
X90122978Y-66507894D01*
X90132600Y-66519465D01*
X90137121Y-66525207D01*
X90141460Y-66530964D01*
X90145626Y-66536768D01*
X90149629Y-66542652D01*
X90153478Y-66548647D01*
X90157181Y-66554786D01*
X90160748Y-66561102D01*
X90164187Y-66567628D01*
X90167508Y-66574394D01*
X90170720Y-66581435D01*
X90173831Y-66588781D01*
X90176852Y-66596467D01*
X90454277Y-67298182D01*
X90474341Y-67349527D01*
X90477531Y-67358351D01*
X90480052Y-67366280D01*
X90481936Y-67373669D01*
X90483213Y-67380872D01*
X90483915Y-67388244D01*
X90484072Y-67396141D01*
X90483714Y-67404916D01*
X90482875Y-67414925D01*
X90479870Y-67440062D01*
X90475307Y-67474392D01*
X90398976Y-68047647D01*
X90395400Y-68069953D01*
X90390917Y-68094103D01*
X90386383Y-68119316D01*
X90384365Y-68132075D01*
X90382656Y-68144807D01*
X90381362Y-68157414D01*
X90380591Y-68169797D01*
X90380450Y-68181859D01*
X90381046Y-68193502D01*
X90382486Y-68204629D01*
X90383556Y-68209968D01*
X90384877Y-68215141D01*
X90386463Y-68220137D01*
X90388326Y-68224942D01*
X90390481Y-68229544D01*
X90392941Y-68233932D01*
X91063231Y-69305147D01*
X91091664Y-69350746D01*
X91102399Y-69368919D01*
X91111016Y-69384902D01*
X91117670Y-69399367D01*
X91122512Y-69412986D01*
X91125696Y-69426432D01*
X91127374Y-69440375D01*
X91127701Y-69455487D01*
X91126829Y-69472441D01*
X91124911Y-69491907D01*
X91122101Y-69514558D01*
X91114413Y-69572100D01*
X91104991Y-69650442D01*
X90934425Y-71220707D01*
X90918636Y-71354430D01*
X90914756Y-71391792D01*
X90913897Y-71406744D01*
X90913787Y-71420598D01*
X90914448Y-71434397D01*
X90915902Y-71449181D01*
X90921277Y-71485872D01*
X90942506Y-71616912D01*
X91116476Y-72748447D01*
X91120496Y-72773071D01*
X91125007Y-72795573D01*
X91130022Y-72816250D01*
X91135553Y-72835397D01*
X91141613Y-72853309D01*
X91148213Y-72870282D01*
X91155368Y-72886611D01*
X91163089Y-72902591D01*
X91246760Y-73053327D01*
X91292167Y-73138439D01*
X91340183Y-73225840D01*
X91440499Y-73404624D01*
X91540617Y-73583908D01*
X91588383Y-73671933D01*
X91633440Y-73757917D01*
X91639469Y-73769364D01*
X91645188Y-73779732D01*
X91655577Y-73798004D01*
X91660188Y-73806294D01*
X91664369Y-73814277D01*
X91668093Y-73822146D01*
X91671327Y-73830095D01*
X91674044Y-73838316D01*
X91676212Y-73847003D01*
X91677803Y-73856348D01*
X91678786Y-73866545D01*
X91679131Y-73877786D01*
X91678810Y-73890265D01*
X91677791Y-73904174D01*
X91676046Y-73919707D01*
X91582476Y-74740598D01*
X91527912Y-75194797D01*
X91504391Y-75362728D01*
X91485551Y-75464507D01*
X91258701Y-76320856D01*
X91254647Y-76336556D01*
X91251315Y-76350430D01*
X91245983Y-76373344D01*
X91243571Y-76382707D01*
X91241052Y-76390890D01*
X91239687Y-76394588D01*
X91238218Y-76398053D01*
X91236619Y-76401302D01*
X91234863Y-76404358D01*
X91232926Y-76407239D01*
X91230780Y-76409966D01*
X91228401Y-76412560D01*
X91225762Y-76415039D01*
X91222838Y-76417426D01*
X91219602Y-76419739D01*
X91216028Y-76421999D01*
X91212092Y-76424226D01*
X91207767Y-76426440D01*
X91203026Y-76428662D01*
X91192197Y-76433208D01*
X91179398Y-76438025D01*
X91164421Y-76443276D01*
X90323160Y-76831091D01*
X90328262Y-76848227D01*
X90333345Y-76863591D01*
X90343289Y-76889504D01*
X90352658Y-76909826D01*
X90361116Y-76925556D01*
X90373967Y-76947228D01*
X90377689Y-76955166D01*
X90378728Y-76958847D01*
X90379163Y-76962502D01*
X90378952Y-76966256D01*
X90378054Y-76970233D01*
X90376427Y-76974559D01*
X90374029Y-76979358D01*
X90366752Y-76990873D01*
X90355888Y-77005777D01*
X90322064Y-77049739D01*
X90298435Y-77080793D01*
X90269881Y-77119226D01*
X90254481Y-77139597D01*
X90234466Y-77165361D01*
X90187700Y-77225562D01*
X90164501Y-77256249D01*
X90143794Y-77284825D01*
X90134930Y-77297735D01*
X90127355Y-77309415D01*
X90121291Y-77319628D01*
X90116961Y-77328142D01*
X90105321Y-77326219D01*
X90094236Y-77323664D01*
X90083664Y-77320557D01*
X90073563Y-77316981D01*
X90063893Y-77313019D01*
X90054611Y-77308752D01*
X90037049Y-77299633D01*
X90004771Y-77281354D01*
X89989393Y-77273509D01*
X89981749Y-77270198D01*
X89974080Y-77267405D01*
X89966345Y-77265210D01*
X89958503Y-77263697D01*
X89950511Y-77262947D01*
X89942328Y-77263043D01*
X89933914Y-77264067D01*
X89925227Y-77266101D01*
X89916225Y-77269228D01*
X89906867Y-77273529D01*
X89897111Y-77279086D01*
X89886917Y-77285982D01*
X89876243Y-77294299D01*
X89865047Y-77304120D01*
X89853288Y-77315525D01*
X89840925Y-77328598D01*
X89827916Y-77343421D01*
X89814220Y-77360075D01*
X89748530Y-77324516D01*
X89737467Y-77318279D01*
X89727286Y-77312337D01*
X89709371Y-77301351D01*
X89694389Y-77291581D01*
X89681941Y-77283054D01*
X89663058Y-77269826D01*
X89655828Y-77265175D01*
X89652592Y-77263351D01*
X89649541Y-77261866D01*
X89646628Y-77260722D01*
X89643801Y-77259924D01*
X89641012Y-77259474D01*
X89638210Y-77259374D01*
X89635345Y-77259629D01*
X89632369Y-77260241D01*
X89629231Y-77261214D01*
X89625881Y-77262551D01*
X89622271Y-77264254D01*
X89618349Y-77266327D01*
X89609375Y-77271595D01*
X89585510Y-77286707D01*
X89565768Y-77301724D01*
X89548323Y-77314277D01*
X89532837Y-77324488D01*
X89525721Y-77328754D01*
X89518968Y-77332480D01*
X89512534Y-77335682D01*
X89506377Y-77338375D01*
X89500454Y-77340575D01*
X89494724Y-77342297D01*
X89489142Y-77343556D01*
X89483668Y-77344367D01*
X89478258Y-77344746D01*
X89472870Y-77344708D01*
X89467462Y-77344269D01*
X89461990Y-77343443D01*
X89456413Y-77342247D01*
X89450688Y-77340695D01*
X89438624Y-77336585D01*
X89425457Y-77331236D01*
X89394456Y-77317313D01*
X89375942Y-77308984D01*
X89354966Y-77299907D01*
X89326549Y-77288079D01*
X89300579Y-77276463D01*
X89276852Y-77265298D01*
X89255164Y-77254825D01*
X89235312Y-77245282D01*
X89217091Y-77236909D01*
X89200298Y-77229946D01*
X89192374Y-77227068D01*
X89184729Y-77224632D01*
X89177340Y-77222669D01*
X89170181Y-77221208D01*
X89163225Y-77220279D01*
X89156448Y-77219912D01*
X89149824Y-77220138D01*
X89143328Y-77220985D01*
X89136934Y-77222485D01*
X89130617Y-77224666D01*
X89124351Y-77227559D01*
X89118110Y-77231195D01*
X89111870Y-77235602D01*
X89105604Y-77240810D01*
X89099288Y-77246851D01*
X89092896Y-77253753D01*
X89086402Y-77261547D01*
X89079780Y-77270262D01*
X89071657Y-77275857D01*
X89064353Y-77281311D01*
X89057736Y-77286589D01*
X89051673Y-77291658D01*
X89040682Y-77301029D01*
X89035488Y-77305261D01*
X89030320Y-77309145D01*
X89025044Y-77312647D01*
X89022325Y-77314244D01*
X89019528Y-77315732D01*
X89016639Y-77317107D01*
X89013641Y-77318365D01*
X89010516Y-77319502D01*
X89007248Y-77320512D01*
X89003822Y-77321393D01*
X89000219Y-77322138D01*
X88996424Y-77322745D01*
X88992421Y-77323209D01*
X88988191Y-77323526D01*
X88983720Y-77323691D01*
X88978991Y-77323699D01*
X88973986Y-77323547D01*
X88970097Y-77320210D01*
X88963998Y-77316243D01*
X88955983Y-77311742D01*
X88946344Y-77306802D01*
X88923370Y-77295985D01*
X88897423Y-77284553D01*
X88810851Y-77247873D01*
X88801047Y-77261566D01*
X88788056Y-77278947D01*
X88772870Y-77298494D01*
X88756479Y-77318683D01*
X88748141Y-77328542D01*
X88739874Y-77337991D01*
X88731801Y-77346840D01*
X88724046Y-77354897D01*
X88716733Y-77361973D01*
X88709986Y-77367877D01*
X88703929Y-77372418D01*
X88701198Y-77374119D01*
X88698686Y-77375407D01*
X88694023Y-77370752D01*
X88686613Y-77364886D01*
X88676846Y-77358011D01*
X88665110Y-77350329D01*
X88637291Y-77333348D01*
X88606269Y-77315558D01*
X88575159Y-77298572D01*
X88547076Y-77284002D01*
X88525133Y-77273463D01*
X88517438Y-77270210D01*
X88512446Y-77268568D01*
X88486121Y-77293655D01*
X88457362Y-77321428D01*
X88442828Y-77335301D01*
X88428594Y-77348618D01*
X88414964Y-77360971D01*
X88402241Y-77371953D01*
X88386986Y-77366624D01*
X88371772Y-77360727D01*
X88356596Y-77354320D01*
X88341457Y-77347463D01*
X88311281Y-77332629D01*
X88281232Y-77316693D01*
X88221459Y-77283380D01*
X88191708Y-77266938D01*
X88162031Y-77251262D01*
X88156921Y-77248949D01*
X88151469Y-77247040D01*
X88145695Y-77245513D01*
X88139619Y-77244348D01*
X88126644Y-77243025D01*
X88112705Y-77242909D01*
X88097965Y-77243838D01*
X88082584Y-77245649D01*
X88066725Y-77248182D01*
X88050549Y-77251273D01*
X88017896Y-77258483D01*
X87985918Y-77265985D01*
X87955912Y-77272481D01*
X87942052Y-77274948D01*
X87929171Y-77276677D01*
X87886634Y-77229613D01*
X87852089Y-77190587D01*
X87824740Y-77158584D01*
X87803790Y-77132592D01*
X87795467Y-77121533D01*
X87788446Y-77111596D01*
X87782626Y-77102656D01*
X87777910Y-77094584D01*
X87774197Y-77087255D01*
X87771387Y-77080541D01*
X87769382Y-77074317D01*
X87768083Y-77068455D01*
X87767388Y-77062829D01*
X87767200Y-77057311D01*
X87767944Y-77046097D01*
X87771130Y-77019401D01*
X87771981Y-77001894D01*
X87771872Y-76991656D01*
X87771276Y-76980261D01*
X87770091Y-76967581D01*
X87768219Y-76953490D01*
X87765561Y-76937861D01*
X87762016Y-76920567D01*
X87734456Y-76915022D01*
X87955529Y-76915022D01*
X87955663Y-76930614D01*
X87956071Y-76947245D01*
X87956703Y-76963906D01*
X87957510Y-76979586D01*
X87958442Y-76993277D01*
X87959450Y-77003969D01*
X87960722Y-77012812D01*
X87962384Y-77020942D01*
X87964424Y-77028385D01*
X87966827Y-77035164D01*
X87969579Y-77041305D01*
X87972666Y-77046833D01*
X87976075Y-77051772D01*
X87979792Y-77056147D01*
X87983803Y-77059983D01*
X87988093Y-77063305D01*
X87992649Y-77066137D01*
X87997457Y-77068504D01*
X88002503Y-77070432D01*
X88007774Y-77071944D01*
X88013254Y-77073066D01*
X88018931Y-77073823D01*
X88024791Y-77074238D01*
X88030818Y-77074338D01*
X88043324Y-77073689D01*
X88056336Y-77072073D01*
X88069745Y-77069690D01*
X88083438Y-77066737D01*
X88097304Y-77063413D01*
X88125111Y-77056444D01*
X88131675Y-77055066D01*
X88138301Y-77054125D01*
X88144985Y-77053600D01*
X88151720Y-77053472D01*
X88158501Y-77053719D01*
X88165324Y-77054323D01*
X88172182Y-77055263D01*
X88179070Y-77056518D01*
X88192916Y-77059895D01*
X88206819Y-77064292D01*
X88220735Y-77069548D01*
X88234622Y-77075501D01*
X88339521Y-77128854D01*
X88342793Y-77132295D01*
X88346008Y-77135353D01*
X88349167Y-77138037D01*
X88352276Y-77140357D01*
X88355337Y-77142320D01*
X88358355Y-77143937D01*
X88361333Y-77145216D01*
X88364274Y-77146165D01*
X88367183Y-77146794D01*
X88370062Y-77147111D01*
X88372916Y-77147125D01*
X88375748Y-77146846D01*
X88378563Y-77146282D01*
X88381362Y-77145441D01*
X88384151Y-77144334D01*
X88386932Y-77142968D01*
X88389710Y-77141352D01*
X88392488Y-77139496D01*
X88395269Y-77137408D01*
X88398058Y-77135097D01*
X88403672Y-77129842D01*
X88409359Y-77123801D01*
X88415149Y-77117046D01*
X88421069Y-77109648D01*
X88427150Y-77101677D01*
X88433421Y-77093204D01*
X88429274Y-77083980D01*
X88566366Y-77083980D01*
X88580042Y-77090670D01*
X88591822Y-77096859D01*
X88613108Y-77108612D01*
X88624317Y-77114617D01*
X88637039Y-77121001D01*
X88644234Y-77124403D01*
X88652127Y-77127983D01*
X88660824Y-77131767D01*
X88670431Y-77135783D01*
X88675988Y-77129450D01*
X88681571Y-77122742D01*
X88692799Y-77108473D01*
X88715387Y-77078373D01*
X88726678Y-77063607D01*
X88732308Y-77056527D01*
X88737921Y-77049739D01*
X88743514Y-77043308D01*
X88749082Y-77037300D01*
X88754621Y-77031783D01*
X88760126Y-77026823D01*
X88766215Y-77027952D01*
X88772570Y-77029466D01*
X88785991Y-77033539D01*
X88800219Y-77038812D01*
X88815083Y-77045055D01*
X88830411Y-77052036D01*
X88846032Y-77059525D01*
X88877467Y-77075106D01*
X88908017Y-77089952D01*
X88922532Y-77096523D01*
X88936312Y-77102218D01*
X88949185Y-77106808D01*
X88960980Y-77110060D01*
X88966420Y-77111113D01*
X88971526Y-77111746D01*
X88976277Y-77111929D01*
X88980651Y-77111633D01*
X88983280Y-77111218D01*
X88985851Y-77110668D01*
X88988367Y-77109989D01*
X88990831Y-77109189D01*
X88993246Y-77108274D01*
X88995616Y-77107250D01*
X88997943Y-77106125D01*
X89000232Y-77104904D01*
X89004705Y-77102206D01*
X89009060Y-77099207D01*
X89013322Y-77095962D01*
X89017518Y-77092524D01*
X89034143Y-77077909D01*
X89038387Y-77074307D01*
X89042718Y-77070832D01*
X89047161Y-77067538D01*
X89051741Y-77064478D01*
X89046653Y-77026408D01*
X89183291Y-77026408D01*
X89194877Y-77030080D01*
X89209373Y-77035450D01*
X89245267Y-77050233D01*
X89331877Y-77088615D01*
X89375287Y-77108007D01*
X89413895Y-77124730D01*
X89444049Y-77136681D01*
X89454815Y-77140210D01*
X89462096Y-77141757D01*
X89463860Y-77141742D01*
X89465935Y-77141427D01*
X89470939Y-77139970D01*
X89476949Y-77137525D01*
X89483804Y-77134230D01*
X89491346Y-77130226D01*
X89499414Y-77125649D01*
X89516492Y-77115337D01*
X89549945Y-77093965D01*
X89563767Y-77085125D01*
X89573951Y-77078998D01*
X89572736Y-77070779D01*
X89692926Y-77070779D01*
X89791621Y-77131084D01*
X89860560Y-77082371D01*
X89884975Y-77065762D01*
X89903956Y-77053708D01*
X89911705Y-77049247D01*
X89918453Y-77045754D01*
X89924318Y-77043171D01*
X89929419Y-77041442D01*
X89933874Y-77040509D01*
X89937804Y-77040316D01*
X89941326Y-77040805D01*
X89944560Y-77041919D01*
X89947624Y-77043601D01*
X89950638Y-77045794D01*
X89956989Y-77051485D01*
X89964565Y-77058534D01*
X89974317Y-77066486D01*
X89980306Y-77070658D01*
X89987196Y-77074884D01*
X89995106Y-77079107D01*
X90004154Y-77083270D01*
X90014460Y-77087316D01*
X90026142Y-77091189D01*
X90039320Y-77094830D01*
X90054111Y-77098183D01*
X90060050Y-77091476D01*
X90065802Y-77084691D01*
X90076841Y-77070921D01*
X90087431Y-77056938D01*
X90097772Y-77042812D01*
X90118510Y-77014402D01*
X90129308Y-77000254D01*
X90140661Y-76986234D01*
X90144318Y-76981784D01*
X90147637Y-76977554D01*
X90150628Y-76973529D01*
X90153302Y-76969695D01*
X90155669Y-76966041D01*
X90157739Y-76962551D01*
X90159522Y-76959212D01*
X90161029Y-76956011D01*
X90162270Y-76952934D01*
X90163256Y-76949967D01*
X90163996Y-76947098D01*
X90164501Y-76944313D01*
X90164782Y-76941598D01*
X90164848Y-76938939D01*
X90164710Y-76936323D01*
X90164378Y-76933736D01*
X90163863Y-76931166D01*
X90163175Y-76928598D01*
X90162324Y-76926019D01*
X90161320Y-76923415D01*
X90158896Y-76918080D01*
X90155986Y-76912483D01*
X90149037Y-76900074D01*
X90145162Y-76893045D01*
X90141131Y-76885323D01*
X90035314Y-76669276D01*
X89975918Y-76550817D01*
X89954406Y-76510469D01*
X89946922Y-76497701D01*
X89942086Y-76490894D01*
X89882200Y-76627199D01*
X89800127Y-76811068D01*
X89726744Y-76979821D01*
X89702959Y-77038941D01*
X89695983Y-77058760D01*
X89692926Y-77070778D01*
X89692926Y-77070779D01*
X89572736Y-77070779D01*
X89572736Y-77070778D01*
X89572486Y-77069088D01*
X89570095Y-77057311D01*
X89562970Y-77029177D01*
X89553438Y-76996645D01*
X89542365Y-76961763D01*
X89530613Y-76926579D01*
X89519047Y-76893141D01*
X89499926Y-76839697D01*
X89461580Y-76721538D01*
X89448963Y-76685251D01*
X89436736Y-76653087D01*
X89431019Y-76639617D01*
X89425700Y-76628457D01*
X89420879Y-76620034D01*
X89418686Y-76616981D01*
X89416656Y-76614773D01*
X89406612Y-76638535D01*
X89394575Y-76662941D01*
X89380840Y-76687908D01*
X89365705Y-76713356D01*
X89332429Y-76765365D01*
X89297127Y-76818312D01*
X89262181Y-76871544D01*
X89245585Y-76898063D01*
X89229972Y-76924407D01*
X89215638Y-76950496D01*
X89202881Y-76976247D01*
X89192000Y-77001578D01*
X89183291Y-77026408D01*
X89046653Y-77026408D01*
X88968331Y-76440424D01*
X88740665Y-76788205D01*
X88675814Y-76890110D01*
X88620807Y-76979529D01*
X88582154Y-77047230D01*
X88570995Y-77070051D01*
X88566366Y-77083978D01*
X88566366Y-77083980D01*
X88429274Y-77083980D01*
X88429273Y-77083978D01*
X88427746Y-77080582D01*
X88416890Y-77061355D01*
X88382341Y-77006630D01*
X88335186Y-76936120D01*
X88280839Y-76856920D01*
X88172220Y-76700815D01*
X88099791Y-76595053D01*
X88096726Y-76590195D01*
X88093894Y-76585493D01*
X88088724Y-76576503D01*
X88083871Y-76567969D01*
X88081435Y-76563839D01*
X88078925Y-76559780D01*
X88076290Y-76555778D01*
X88073479Y-76551820D01*
X88070440Y-76547891D01*
X88067123Y-76543977D01*
X88063476Y-76540064D01*
X88059448Y-76536138D01*
X88054988Y-76532184D01*
X88050046Y-76528188D01*
X87965746Y-76619833D01*
X87965746Y-76619834D01*
X87965745Y-76619834D01*
X87965745Y-76619835D01*
X87964143Y-76642816D01*
X87963291Y-76670065D01*
X87962577Y-76735069D01*
X87962084Y-76771674D01*
X87961081Y-76810246D01*
X87959251Y-76850211D01*
X87956280Y-76890994D01*
X87955718Y-76901479D01*
X87955529Y-76915022D01*
X87734456Y-76915022D01*
X87694856Y-76907055D01*
X87625405Y-76895144D01*
X87554302Y-76884428D01*
X87482186Y-76874502D01*
X87337477Y-76855394D01*
X87266161Y-76845400D01*
X87196391Y-76834572D01*
X87147237Y-76827299D01*
X87094984Y-76821124D01*
X86982726Y-76811665D01*
X86862711Y-76805381D01*
X86738030Y-76801458D01*
X86254526Y-76793121D01*
X86228156Y-76790813D01*
X86194122Y-76785547D01*
X86107948Y-76767868D01*
X86005789Y-76743539D01*
X85897425Y-76716015D01*
X85701213Y-76665202D01*
X85632930Y-76648822D01*
X85610523Y-76644401D01*
X85597571Y-76643067D01*
X85597572Y-76643068D01*
X85588603Y-76644628D01*
X85574330Y-76648543D01*
X85532828Y-76662188D01*
X85478990Y-76681498D01*
X85418739Y-76703969D01*
X85232057Y-76775359D01*
X85106767Y-76822423D01*
X85055772Y-76839443D01*
X85047244Y-76842749D01*
X85040031Y-76846276D01*
X85036858Y-76848215D01*
X85033944Y-76850322D01*
X85031265Y-76852634D01*
X85028798Y-76855189D01*
X85026519Y-76858024D01*
X85024406Y-76861176D01*
X85022433Y-76864684D01*
X85020579Y-76868583D01*
X85017133Y-76877711D01*
X85013879Y-76888858D01*
X85010630Y-76902326D01*
X85007200Y-76918413D01*
X84999047Y-76959648D01*
X85023660Y-76970011D01*
X85047495Y-76980221D01*
X85070788Y-76990368D01*
X85093772Y-77000543D01*
X85124744Y-77014794D01*
X85150684Y-77027485D01*
X85190371Y-77048343D01*
X85218646Y-77063421D01*
X85230319Y-77068889D01*
X85241318Y-77073027D01*
X85252369Y-77075873D01*
X85264199Y-77077465D01*
X85277534Y-77077841D01*
X85293099Y-77077040D01*
X85311623Y-77075101D01*
X85333830Y-77072060D01*
X85392202Y-77062828D01*
X85862447Y-76995758D01*
X85978882Y-77304808D01*
X86000973Y-77357893D01*
X86017193Y-77398570D01*
X86033640Y-77443271D01*
X86041194Y-77465865D01*
X86047900Y-77487946D01*
X86053454Y-77509008D01*
X86057555Y-77528545D01*
X86059902Y-77546052D01*
X86060323Y-77553885D01*
X86060191Y-77561021D01*
X86059471Y-77567395D01*
X86058122Y-77572946D01*
X86056109Y-77577609D01*
X86053392Y-77581322D01*
X86052338Y-77582372D01*
X86051266Y-77583343D01*
X86050176Y-77584237D01*
X86049070Y-77585059D01*
X86047949Y-77585810D01*
X86046813Y-77586494D01*
X86045665Y-77587115D01*
X86044504Y-77587676D01*
X86043332Y-77588179D01*
X86042149Y-77588628D01*
X86039758Y-77589379D01*
X86037339Y-77589952D01*
X86034899Y-77590373D01*
X86032448Y-77590670D01*
X86029993Y-77590866D01*
X86025104Y-77591062D01*
X86020298Y-77591167D01*
X86017947Y-77591250D01*
X86015642Y-77591388D01*
X84842412Y-77652441D01*
X84721454Y-77659911D01*
X84701469Y-77659989D01*
X84683717Y-77658789D01*
X84667263Y-77656032D01*
X84651171Y-77651435D01*
X84634508Y-77644719D01*
X84616337Y-77635601D01*
X84595726Y-77623803D01*
X84571738Y-77609042D01*
X84423327Y-77514757D01*
X84345071Y-77468204D01*
X84814321Y-77468204D01*
X84932610Y-77464191D01*
X85149017Y-77452778D01*
X85262194Y-77445416D01*
X85361714Y-77437547D01*
X85434849Y-77429619D01*
X85457545Y-77425773D01*
X85468871Y-77422079D01*
X85439271Y-77405626D01*
X85378770Y-77375811D01*
X85203987Y-77293609D01*
X85146166Y-77267148D01*
X85523746Y-77267148D01*
X85530025Y-77271685D01*
X85540228Y-77277854D01*
X85570264Y-77294037D01*
X85609569Y-77313589D01*
X85653861Y-77334404D01*
X85698857Y-77354374D01*
X85740275Y-77371392D01*
X85758303Y-77378135D01*
X85773830Y-77383350D01*
X85786322Y-77386774D01*
X85795241Y-77388142D01*
X85794953Y-77380684D01*
X85793814Y-77372148D01*
X85791917Y-77362701D01*
X85789353Y-77352511D01*
X85786217Y-77341748D01*
X85782600Y-77330580D01*
X85778595Y-77319174D01*
X85774295Y-77307700D01*
X85765182Y-77285219D01*
X85756000Y-77264482D01*
X85747493Y-77246838D01*
X85740401Y-77233632D01*
X85715618Y-77235416D01*
X85688595Y-77238199D01*
X85660124Y-77241825D01*
X85630997Y-77246139D01*
X85602004Y-77250984D01*
X85573938Y-77256205D01*
X85547588Y-77261645D01*
X85523746Y-77267148D01*
X85146166Y-77267148D01*
X85022374Y-77210496D01*
X84911781Y-77161494D01*
X84814321Y-77468204D01*
X84345071Y-77468204D01*
X83701602Y-77085417D01*
X83687326Y-77077187D01*
X83683263Y-77074741D01*
X84102221Y-77074741D01*
X84184853Y-77129519D01*
X84369804Y-77248691D01*
X84472510Y-77313096D01*
X84567029Y-77370405D01*
X84642106Y-77412887D01*
X84668837Y-77426152D01*
X84686486Y-77432811D01*
X84692657Y-77420964D01*
X84699332Y-77405701D01*
X84706385Y-77387509D01*
X84713692Y-77366878D01*
X84728576Y-77320252D01*
X84742993Y-77269729D01*
X84755951Y-77219218D01*
X84766459Y-77172626D01*
X84773526Y-77133861D01*
X84775459Y-77118635D01*
X84776161Y-77106831D01*
X84102221Y-77074741D01*
X83683263Y-77074741D01*
X83672830Y-77068458D01*
X83643588Y-77050291D01*
X83614697Y-77032478D01*
X83600639Y-77024193D01*
X83586977Y-77016583D01*
X83592034Y-77004789D01*
X83601398Y-76986108D01*
X83630717Y-76931926D01*
X83636324Y-76922075D01*
X83878056Y-76922075D01*
X83927877Y-76920567D01*
X83978439Y-76920361D01*
X84081401Y-76923143D01*
X84186161Y-76928999D01*
X84291939Y-76936507D01*
X84397955Y-76944243D01*
X84503430Y-76950787D01*
X84607583Y-76954715D01*
X84658921Y-76955254D01*
X84709636Y-76954605D01*
X84702739Y-76939617D01*
X84687051Y-76915250D01*
X84663769Y-76882841D01*
X84634093Y-76843727D01*
X84560353Y-76750723D01*
X84475421Y-76646927D01*
X84215586Y-76337591D01*
X84215586Y-76337589D01*
X84201425Y-76353950D01*
X84165076Y-76417458D01*
X84120785Y-76490157D01*
X84021934Y-76649035D01*
X83974152Y-76728169D01*
X83931986Y-76802402D01*
X83914068Y-76836580D01*
X83898824Y-76868212D01*
X83886679Y-76896857D01*
X83878056Y-76922075D01*
X83636324Y-76922075D01*
X83715404Y-76783142D01*
X83858472Y-76538798D01*
X83976555Y-76345529D01*
X83991132Y-76320951D01*
X84401601Y-76320951D01*
X84412853Y-76338990D01*
X84429712Y-76363290D01*
X84477305Y-76427095D01*
X84538485Y-76505214D01*
X84607356Y-76590494D01*
X84678025Y-76675784D01*
X84744597Y-76753931D01*
X84801177Y-76817782D01*
X84823878Y-76842112D01*
X84841871Y-76860187D01*
X84846807Y-76833253D01*
X84852631Y-76806371D01*
X84859172Y-76779582D01*
X84866264Y-76752930D01*
X84893076Y-76661102D01*
X85028086Y-76661102D01*
X85157526Y-76616431D01*
X85169513Y-76612365D01*
X85186967Y-76606100D01*
X85207969Y-76598220D01*
X85230599Y-76589310D01*
X85252940Y-76579953D01*
X85273072Y-76570731D01*
X85281709Y-76566354D01*
X85289075Y-76562230D01*
X85294929Y-76558431D01*
X85299031Y-76555031D01*
X85075591Y-76485541D01*
X85075591Y-76485542D01*
X85028086Y-76661102D01*
X84893076Y-76661102D01*
X84896741Y-76648550D01*
X84910881Y-76598298D01*
X84917085Y-76573806D01*
X84922486Y-76549795D01*
X84926915Y-76526307D01*
X84930203Y-76503385D01*
X84932181Y-76481072D01*
X84932545Y-76465287D01*
X85675716Y-76465287D01*
X85684364Y-76468680D01*
X85698275Y-76473062D01*
X85738898Y-76484165D01*
X85791609Y-76497337D01*
X85850430Y-76511319D01*
X85962502Y-76536670D01*
X86027301Y-76550143D01*
X85988291Y-76494012D01*
X85724592Y-76163952D01*
X85911431Y-76163952D01*
X85919591Y-76178092D01*
X85930127Y-76194399D01*
X85942735Y-76212575D01*
X85957108Y-76232320D01*
X85989932Y-76275326D01*
X86026158Y-76321030D01*
X86099051Y-76410977D01*
X86130835Y-76450445D01*
X86156256Y-76483057D01*
X86184538Y-76515761D01*
X86212063Y-76543617D01*
X86225636Y-76555833D01*
X86239135Y-76566965D01*
X86252597Y-76577054D01*
X86266060Y-76586143D01*
X86279563Y-76594275D01*
X86293143Y-76601493D01*
X86306840Y-76607837D01*
X86320690Y-76613352D01*
X86334732Y-76618079D01*
X86349005Y-76622061D01*
X86378394Y-76627959D01*
X86409161Y-76631386D01*
X86441613Y-76632680D01*
X86476053Y-76632182D01*
X86512788Y-76630230D01*
X86688776Y-76614682D01*
X86015901Y-76220017D01*
X86009976Y-76216702D01*
X86003891Y-76213109D01*
X85991314Y-76205305D01*
X85964992Y-76188748D01*
X85951515Y-76180859D01*
X85944757Y-76177202D01*
X85938007Y-76173809D01*
X85931283Y-76170733D01*
X85924601Y-76168028D01*
X85917978Y-76165750D01*
X85911431Y-76163952D01*
X85724592Y-76163952D01*
X85691756Y-76122852D01*
X85679301Y-76346582D01*
X85675716Y-76465287D01*
X84932545Y-76465287D01*
X84932681Y-76459411D01*
X84559589Y-76362141D01*
X85146456Y-76362141D01*
X85194709Y-76373875D01*
X85243628Y-76386690D01*
X85342505Y-76413843D01*
X85391983Y-76427323D01*
X85441167Y-76440165D01*
X85489818Y-76451941D01*
X85537696Y-76462221D01*
X85554786Y-76048331D01*
X85543285Y-76054211D01*
X85525354Y-76065658D01*
X85474111Y-76102050D01*
X85408873Y-76151103D01*
X85337462Y-76206413D01*
X85267695Y-76261576D01*
X85207393Y-76310187D01*
X85164373Y-76345843D01*
X85146456Y-76362141D01*
X84559589Y-76362141D01*
X84401601Y-76320951D01*
X83991132Y-76320951D01*
X84008726Y-76291287D01*
X84036961Y-76241494D01*
X84045993Y-76224617D01*
X84605671Y-76224617D01*
X84829596Y-76285823D01*
X84859509Y-76292089D01*
X84888698Y-76296928D01*
X84916817Y-76300005D01*
X84943520Y-76300985D01*
X84956233Y-76300583D01*
X84968463Y-76299532D01*
X84980166Y-76297788D01*
X84991299Y-76295309D01*
X85001819Y-76292055D01*
X85011684Y-76287983D01*
X85020848Y-76283051D01*
X85029271Y-76277216D01*
X85057011Y-76256218D01*
X85088346Y-76233485D01*
X85155837Y-76185025D01*
X85189016Y-76160404D01*
X85219832Y-76136259D01*
X85233888Y-76124538D01*
X85246795Y-76113144D01*
X85258366Y-76102145D01*
X85268416Y-76091611D01*
X85255023Y-76090938D01*
X85230055Y-76093050D01*
X85152108Y-76104269D01*
X85048014Y-76122547D01*
X84931210Y-76145165D01*
X84815136Y-76169401D01*
X84713229Y-76192535D01*
X84638928Y-76211847D01*
X84616329Y-76219219D01*
X84605671Y-76224616D01*
X84605671Y-76224617D01*
X84045993Y-76224617D01*
X84045994Y-76224616D01*
X84048822Y-76219332D01*
X84058762Y-76199560D01*
X84066470Y-76182605D01*
X84071632Y-76168893D01*
X84131662Y-76075392D01*
X84143646Y-76074891D01*
X84162825Y-76072571D01*
X84218962Y-76063409D01*
X84375693Y-76033544D01*
X84461631Y-76016493D01*
X85950716Y-76016493D01*
X85974613Y-76037707D01*
X86012044Y-76065032D01*
X86119879Y-76134244D01*
X86258975Y-76216574D01*
X86414083Y-76304470D01*
X86711342Y-76466741D01*
X86889671Y-76560628D01*
X86875711Y-76525777D01*
X86846472Y-76460505D01*
X86761946Y-76280418D01*
X86675680Y-76103799D01*
X86644266Y-76042864D01*
X86633653Y-76023802D01*
X86627261Y-76014083D01*
X86484322Y-76013023D01*
X86268277Y-76009941D01*
X86158922Y-76009109D01*
X86062589Y-76009532D01*
X85989709Y-76011798D01*
X85965325Y-76013805D01*
X85950716Y-76016493D01*
X84461631Y-76016493D01*
X84540929Y-76000760D01*
X84607698Y-75987950D01*
X84653747Y-75980022D01*
X84768305Y-75960477D01*
X84902939Y-75933770D01*
X85202213Y-75870860D01*
X85351740Y-75840648D01*
X85491122Y-75815262D01*
X85612801Y-75797696D01*
X85664641Y-75792782D01*
X85709222Y-75790947D01*
X86472787Y-75794337D01*
X86469869Y-75778881D01*
X86461542Y-75751358D01*
X86431500Y-75666658D01*
X86337714Y-75424472D01*
X86297300Y-75323421D01*
X86507011Y-75323421D01*
X86640263Y-75654253D01*
X86777108Y-75980626D01*
X86847698Y-76142759D01*
X86920169Y-76304519D01*
X86994851Y-76466155D01*
X87072071Y-76627912D01*
X87226654Y-76654973D01*
X87395782Y-76683054D01*
X87481737Y-76696028D01*
X87566452Y-76707519D01*
X87648302Y-76716947D01*
X87725661Y-76723732D01*
X87097417Y-75972768D01*
X86904613Y-75746731D01*
X86730836Y-75548714D01*
X86592748Y-75400388D01*
X86542294Y-75351630D01*
X86507011Y-75323421D01*
X86297300Y-75323421D01*
X86174182Y-75015582D01*
X86150855Y-74954786D01*
X86146814Y-74943257D01*
X86143448Y-74932515D01*
X86140734Y-74922220D01*
X86138650Y-74912033D01*
X86137176Y-74901611D01*
X86136289Y-74890615D01*
X86136250Y-74889168D01*
X86326201Y-74889168D01*
X86328446Y-74894415D01*
X86331388Y-74900054D01*
X86334957Y-74906036D01*
X86339081Y-74912311D01*
X86343689Y-74918830D01*
X86348710Y-74925543D01*
X86359703Y-74939354D01*
X86371492Y-74953349D01*
X86383505Y-74967132D01*
X86405926Y-74992477D01*
X87228731Y-75941097D01*
X87231995Y-75944811D01*
X87234975Y-75948345D01*
X87237717Y-75951727D01*
X87240266Y-75954986D01*
X87244966Y-75961247D01*
X87249438Y-75967355D01*
X87254043Y-75973539D01*
X87256509Y-75976730D01*
X87259145Y-75980026D01*
X87261995Y-75983454D01*
X87265105Y-75987043D01*
X87268520Y-75990821D01*
X87272286Y-75994817D01*
X87272286Y-75994818D01*
X87399781Y-76143963D01*
X87620196Y-76394298D01*
X87688537Y-76477234D01*
X87709750Y-76502054D01*
X87719912Y-76513503D01*
X87729519Y-76523929D01*
X87738379Y-76533048D01*
X87746297Y-76540572D01*
X87753081Y-76546215D01*
X87755986Y-76548242D01*
X87758536Y-76549692D01*
X87762230Y-76546909D01*
X87765719Y-76544027D01*
X87769025Y-76541055D01*
X87772174Y-76538000D01*
X87775188Y-76534872D01*
X87778092Y-76531680D01*
X87780910Y-76528432D01*
X87783665Y-76525137D01*
X87794541Y-76511661D01*
X87800226Y-76504868D01*
X87803214Y-76501489D01*
X87806331Y-76498132D01*
X87865465Y-76435439D01*
X88148910Y-76435439D01*
X88159827Y-76450406D01*
X88170391Y-76465844D01*
X88180761Y-76481683D01*
X88191097Y-76497853D01*
X88212296Y-76530908D01*
X88223477Y-76547654D01*
X88235256Y-76564453D01*
X88365725Y-76746496D01*
X88398278Y-76793437D01*
X88429505Y-76840440D01*
X88458754Y-76887251D01*
X88472434Y-76910504D01*
X88485376Y-76933614D01*
X88492797Y-76926040D01*
X88505724Y-76908922D01*
X88545217Y-76850869D01*
X88658607Y-76673208D01*
X88779485Y-76477684D01*
X88846467Y-76366728D01*
X89081421Y-76366728D01*
X89095013Y-76461685D01*
X89107495Y-76556600D01*
X89131931Y-76748718D01*
X89131931Y-76748720D01*
X89148807Y-76810445D01*
X89192148Y-76738658D01*
X89246269Y-76647888D01*
X89273150Y-76601558D01*
X89297661Y-76557890D01*
X89318113Y-76519354D01*
X89326288Y-76502782D01*
X89332816Y-76488419D01*
X89314111Y-76477965D01*
X89284456Y-76462222D01*
X89252447Y-76445916D01*
X89507133Y-76445916D01*
X89507771Y-76461001D01*
X89509340Y-76475582D01*
X89511857Y-76490112D01*
X89515344Y-76505041D01*
X89519818Y-76520824D01*
X89525301Y-76537911D01*
X89531811Y-76556755D01*
X89568510Y-76658746D01*
X89586694Y-76707717D01*
X89591451Y-76721242D01*
X89595664Y-76734221D01*
X89597467Y-76740341D01*
X89599017Y-76746127D01*
X89600272Y-76751512D01*
X89601195Y-76756430D01*
X89631881Y-76847246D01*
X89636845Y-76839603D01*
X89644177Y-76825899D01*
X89664620Y-76783561D01*
X89719331Y-76661987D01*
X89809736Y-76453736D01*
X89814052Y-76443653D01*
X90134206Y-76443653D01*
X90136966Y-76451623D01*
X90141041Y-76462394D01*
X90147255Y-76477545D01*
X90154967Y-76495510D01*
X90163536Y-76514725D01*
X90172322Y-76533625D01*
X90180684Y-76550645D01*
X90187980Y-76564221D01*
X90191029Y-76569228D01*
X90193571Y-76572787D01*
X90236996Y-76664673D01*
X90268373Y-76651854D01*
X90299325Y-76638254D01*
X90329955Y-76624049D01*
X90360368Y-76609415D01*
X90420955Y-76579566D01*
X90451337Y-76564704D01*
X90481916Y-76550118D01*
X90478998Y-76547575D01*
X90474549Y-76544757D01*
X90461460Y-76538384D01*
X90443465Y-76531178D01*
X90421380Y-76523321D01*
X90368201Y-76506369D01*
X90308449Y-76488968D01*
X90248649Y-76472556D01*
X90195325Y-76458573D01*
X90134206Y-76443653D01*
X89814052Y-76443653D01*
X89824485Y-76419281D01*
X89837335Y-76387779D01*
X89848494Y-76358787D01*
X89858168Y-76331866D01*
X89866566Y-76306575D01*
X89870563Y-76293427D01*
X90136995Y-76293427D01*
X90139981Y-76296123D01*
X90143233Y-76298594D01*
X90146721Y-76300852D01*
X90150420Y-76302913D01*
X90154300Y-76304789D01*
X90158333Y-76306496D01*
X90162492Y-76308047D01*
X90166749Y-76309455D01*
X90171077Y-76310734D01*
X90175446Y-76311899D01*
X90184199Y-76313942D01*
X90192787Y-76315692D01*
X90200985Y-76317262D01*
X90259521Y-76332791D01*
X90323840Y-76349013D01*
X90461243Y-76383440D01*
X90530033Y-76401596D01*
X90596018Y-76420349D01*
X90657053Y-76439674D01*
X90685043Y-76449544D01*
X90710990Y-76459547D01*
X90714345Y-76454460D01*
X90717666Y-76449117D01*
X90724213Y-76437798D01*
X90730640Y-76425864D01*
X90736959Y-76413588D01*
X90749312Y-76389096D01*
X90755367Y-76377426D01*
X90761356Y-76366502D01*
X90781643Y-76331890D01*
X90957545Y-76331890D01*
X90967793Y-76330113D01*
X90978097Y-76327906D01*
X90988381Y-76325250D01*
X90998569Y-76322131D01*
X91008588Y-76318531D01*
X91018362Y-76314435D01*
X91027817Y-76309827D01*
X91032401Y-76307325D01*
X91036877Y-76304689D01*
X91041236Y-76301917D01*
X91045468Y-76299006D01*
X91049564Y-76295955D01*
X91053514Y-76292762D01*
X91057309Y-76289424D01*
X91060941Y-76285940D01*
X91064399Y-76282307D01*
X91067674Y-76278523D01*
X91070756Y-76274587D01*
X91073637Y-76270496D01*
X91076307Y-76266249D01*
X91078757Y-76261843D01*
X91080977Y-76257276D01*
X91082958Y-76252546D01*
X91084690Y-76247652D01*
X91086165Y-76242590D01*
X91155480Y-75969291D01*
X91150240Y-75984888D01*
X91142134Y-76002964D01*
X91131572Y-76023190D01*
X91118966Y-76045237D01*
X91089258Y-76093475D01*
X91056294Y-76145042D01*
X91023357Y-76197303D01*
X91007925Y-76222870D01*
X90993732Y-76247622D01*
X90981186Y-76271229D01*
X90970700Y-76293362D01*
X90962683Y-76313693D01*
X90959728Y-76323079D01*
X90957545Y-76331890D01*
X90781643Y-76331890D01*
X90871977Y-76177770D01*
X90988449Y-75981679D01*
X91045736Y-75882662D01*
X91100714Y-75783951D01*
X91152126Y-75686261D01*
X91198716Y-75590308D01*
X91005916Y-75714063D01*
X90136996Y-76293427D01*
X90136995Y-76293427D01*
X89870563Y-76293427D01*
X89873894Y-76282473D01*
X89880361Y-76259118D01*
X89886173Y-76236071D01*
X89924638Y-76054138D01*
X90226437Y-76054138D01*
X90356558Y-75968995D01*
X90492463Y-75881967D01*
X90772510Y-75704008D01*
X90912096Y-75613951D01*
X91048352Y-75523757D01*
X91179000Y-75433864D01*
X91301762Y-75344709D01*
X91305670Y-75341718D01*
X91309077Y-75338964D01*
X91312022Y-75336382D01*
X91314548Y-75333903D01*
X91316696Y-75331462D01*
X91318505Y-75328991D01*
X91320017Y-75326424D01*
X91321272Y-75323694D01*
X91322313Y-75320735D01*
X91323178Y-75317478D01*
X91323911Y-75313858D01*
X91324551Y-75309808D01*
X91325716Y-75300149D01*
X91327002Y-75287968D01*
X91448997Y-74224899D01*
X91427782Y-74253013D01*
X91404807Y-74284560D01*
X91380829Y-74318576D01*
X91356607Y-74354100D01*
X91332898Y-74390168D01*
X91310461Y-74425818D01*
X91290052Y-74460088D01*
X91272431Y-74492014D01*
X90357926Y-75850523D01*
X90357927Y-75850523D01*
X90338668Y-75877631D01*
X90337657Y-75879397D01*
X90336821Y-75881148D01*
X90336120Y-75882988D01*
X90335513Y-75885020D01*
X90334960Y-75887348D01*
X90334421Y-75890075D01*
X90333221Y-75897144D01*
X90330130Y-75899224D01*
X90326918Y-75901756D01*
X90320171Y-75908063D01*
X90313065Y-75915851D01*
X90305684Y-75924905D01*
X90298113Y-75935010D01*
X90290436Y-75945952D01*
X90282738Y-75957515D01*
X90275104Y-75969485D01*
X90260362Y-75993789D01*
X90246886Y-76017144D01*
X90226437Y-76054138D01*
X89924638Y-76054138D01*
X89934001Y-76009851D01*
X89960473Y-75888932D01*
X90160631Y-75888932D01*
X91268701Y-74233902D01*
X91385924Y-74062760D01*
X91423135Y-74006567D01*
X91455835Y-73955110D01*
X91469295Y-73932737D01*
X91480189Y-73913441D01*
X91488038Y-73897854D01*
X91492361Y-73886607D01*
X91478663Y-73872593D01*
X91450647Y-73847839D01*
X91359912Y-73772428D01*
X91097380Y-73562203D01*
X90710046Y-73257842D01*
X90702286Y-73306533D01*
X90636604Y-73625049D01*
X90562506Y-73946995D01*
X90404740Y-74596766D01*
X90328907Y-74922384D01*
X90260333Y-75247021D01*
X90202934Y-75569571D01*
X90179651Y-75729720D01*
X90160631Y-75888932D01*
X89960473Y-75888932D01*
X90037202Y-75538454D01*
X90136247Y-75066349D01*
X90332426Y-74121747D01*
X90435595Y-73638750D01*
X90487015Y-73385633D01*
X90508880Y-73269722D01*
X90526731Y-73166072D01*
X90085661Y-73134122D01*
X90076863Y-73133451D01*
X90069413Y-73132840D01*
X90058005Y-73131857D01*
X90055775Y-73131677D01*
X90761910Y-73131677D01*
X90763935Y-73133540D01*
X90765707Y-73135110D01*
X90767262Y-73136420D01*
X90768634Y-73137502D01*
X90769857Y-73138389D01*
X90770967Y-73139111D01*
X90771998Y-73139702D01*
X90772983Y-73140193D01*
X90773959Y-73140617D01*
X90774958Y-73141006D01*
X90777168Y-73141806D01*
X90778448Y-73142282D01*
X90779890Y-73142851D01*
X90781529Y-73143545D01*
X90783400Y-73144397D01*
X90784690Y-73146946D01*
X90786919Y-73150135D01*
X90793963Y-73158259D01*
X90804064Y-73168422D01*
X90816756Y-73180278D01*
X90848044Y-73207682D01*
X90884091Y-73237699D01*
X90921162Y-73267555D01*
X90955522Y-73294479D01*
X90983434Y-73315699D01*
X91001165Y-73328442D01*
X91008668Y-73335401D01*
X91015598Y-73341627D01*
X91022188Y-73347326D01*
X91028667Y-73352703D01*
X91035266Y-73357962D01*
X91042216Y-73363308D01*
X91049747Y-73368946D01*
X91058089Y-73375082D01*
X91085331Y-73396148D01*
X91116394Y-73421269D01*
X91184197Y-73477228D01*
X91218047Y-73504844D01*
X91249935Y-73530069D01*
X91278414Y-73551292D01*
X91290924Y-73559900D01*
X91302040Y-73566902D01*
X91297022Y-73554279D01*
X91286548Y-73532208D01*
X91252289Y-73465232D01*
X91151927Y-73278484D01*
X91049869Y-73094759D01*
X91013490Y-73031561D01*
X90995030Y-73002157D01*
X90987376Y-73005014D01*
X90980371Y-73007780D01*
X90973935Y-73010484D01*
X90967986Y-73013155D01*
X90962445Y-73015821D01*
X90957230Y-73018511D01*
X90952260Y-73021253D01*
X90947454Y-73024076D01*
X90942731Y-73027010D01*
X90938011Y-73030082D01*
X90928254Y-73036756D01*
X90905210Y-73053027D01*
X90761910Y-73131677D01*
X90055775Y-73131677D01*
X90053768Y-73131516D01*
X90050323Y-73131295D01*
X90047533Y-73131211D01*
X90046340Y-73131226D01*
X90045257Y-73131279D01*
X90044269Y-73131375D01*
X90043357Y-73131515D01*
X90042505Y-73131700D01*
X90041694Y-73131933D01*
X90040908Y-73132215D01*
X90040128Y-73132549D01*
X90038521Y-73133380D01*
X90036733Y-73134439D01*
X90034625Y-73135743D01*
X90032059Y-73137307D01*
X90028895Y-73139147D01*
X89950561Y-73626633D01*
X89517211Y-76347102D01*
X89513491Y-76371490D01*
X89510604Y-76393114D01*
X89508569Y-76412424D01*
X89507405Y-76429874D01*
X89507133Y-76445916D01*
X89252447Y-76445916D01*
X89206927Y-76422727D01*
X89166370Y-76402905D01*
X89129495Y-76385654D01*
X89099959Y-76372940D01*
X89089087Y-76368899D01*
X89081421Y-76366728D01*
X88846467Y-76366728D01*
X88861786Y-76341354D01*
X88798915Y-76346482D01*
X88703795Y-76357029D01*
X88466311Y-76387333D01*
X88248346Y-76418168D01*
X88177624Y-76429380D01*
X88148911Y-76435439D01*
X88148910Y-76435439D01*
X87865465Y-76435439D01*
X87911391Y-76386748D01*
X87914362Y-76383293D01*
X87917235Y-76378844D01*
X87922699Y-76367211D01*
X87927795Y-76352346D01*
X87932536Y-76334745D01*
X87936935Y-76314906D01*
X87941005Y-76293327D01*
X87942017Y-76286813D01*
X88130481Y-76286813D01*
X88611646Y-76227822D01*
X89109211Y-76227822D01*
X89122412Y-76231972D01*
X89136908Y-76237222D01*
X89169133Y-76250496D01*
X89204594Y-76266593D01*
X89241996Y-76284460D01*
X89317445Y-76321297D01*
X89352906Y-76338163D01*
X89385131Y-76352592D01*
X89894775Y-73154507D01*
X89861799Y-73159636D01*
X89827737Y-73166080D01*
X89792743Y-73173679D01*
X89756969Y-73182277D01*
X89683696Y-73201839D01*
X89609144Y-73223505D01*
X89461101Y-73268110D01*
X89390062Y-73288529D01*
X89322645Y-73306011D01*
X89318767Y-73353560D01*
X89316448Y-73404422D01*
X89315832Y-73514247D01*
X89319488Y-73631825D01*
X89326106Y-73753492D01*
X89342989Y-73994441D01*
X89350634Y-74106395D01*
X89356000Y-74207787D01*
X89377190Y-74660209D01*
X89380910Y-74785507D01*
X89380057Y-74835838D01*
X89377017Y-74882877D01*
X89371505Y-74930312D01*
X89363236Y-74981832D01*
X89337295Y-75111882D01*
X89296919Y-75302540D01*
X89239836Y-75583317D01*
X89167338Y-75922642D01*
X89128123Y-76112929D01*
X89115085Y-76183978D01*
X89109211Y-76227822D01*
X88611646Y-76227822D01*
X88664131Y-76221387D01*
X88796801Y-76203587D01*
X88760922Y-76177208D01*
X88694735Y-76132911D01*
X88509132Y-76013491D01*
X88188861Y-75811852D01*
X88130481Y-76286813D01*
X87942017Y-76286813D01*
X87948211Y-76246938D01*
X87966496Y-76091243D01*
X88003280Y-75847750D01*
X88008881Y-75805671D01*
X88012732Y-75768138D01*
X88014676Y-75733665D01*
X88014558Y-75700765D01*
X88012221Y-75667952D01*
X88009215Y-75646122D01*
X88175036Y-75646122D01*
X88892795Y-76097447D01*
X88270266Y-73923713D01*
X88266372Y-73932400D01*
X88263009Y-73945410D01*
X88260128Y-73962174D01*
X88257678Y-73982122D01*
X88253875Y-74029298D01*
X88251200Y-74082387D01*
X88247641Y-74188101D01*
X88245959Y-74231624D01*
X88243811Y-74262857D01*
X88175036Y-75646122D01*
X88009215Y-75646122D01*
X88007510Y-75633740D01*
X88000268Y-75596643D01*
X87990339Y-75555174D01*
X87977566Y-75507848D01*
X87961795Y-75453178D01*
X87920631Y-75315863D01*
X87907312Y-75270099D01*
X87894644Y-75223815D01*
X87870607Y-75130291D01*
X87847215Y-75036495D01*
X87823160Y-74943633D01*
X87433611Y-73471833D01*
X87416129Y-73489481D01*
X87406729Y-73499483D01*
X87402053Y-73504704D01*
X87397467Y-73510042D01*
X87393024Y-73515476D01*
X87388778Y-73520983D01*
X87384783Y-73526544D01*
X87381094Y-73532136D01*
X87377765Y-73537737D01*
X87374851Y-73543326D01*
X87372404Y-73548882D01*
X87371374Y-73551640D01*
X87370481Y-73554382D01*
X87367287Y-73556518D01*
X87363814Y-73559232D01*
X87360116Y-73562455D01*
X87356250Y-73566119D01*
X87352271Y-73570154D01*
X87348234Y-73574491D01*
X87344194Y-73579063D01*
X87340208Y-73583800D01*
X87336329Y-73588634D01*
X87332614Y-73593496D01*
X87329118Y-73598317D01*
X87325896Y-73603028D01*
X87323004Y-73607561D01*
X87320497Y-73611847D01*
X87318431Y-73615817D01*
X87316860Y-73619402D01*
X86388051Y-74810802D01*
X86373300Y-74829154D01*
X86356963Y-74849235D01*
X86348721Y-74859501D01*
X86340707Y-74869691D01*
X86333131Y-74879636D01*
X86326201Y-74889168D01*
X86136250Y-74889168D01*
X86135969Y-74878706D01*
X86136193Y-74865541D01*
X86136940Y-74850782D01*
X86138189Y-74834088D01*
X86142107Y-74793532D01*
X86164517Y-74619462D01*
X86369082Y-74619462D01*
X86369216Y-74633442D01*
X87318279Y-73409307D01*
X87613711Y-73409307D01*
X87615414Y-73424181D01*
X87615812Y-73427375D01*
X87616249Y-73430401D01*
X87616748Y-73433277D01*
X87617336Y-73436024D01*
X87618035Y-73438662D01*
X87618872Y-73441211D01*
X87619870Y-73443692D01*
X87620437Y-73444913D01*
X87621054Y-73446125D01*
X87621724Y-73447329D01*
X87622449Y-73448529D01*
X87623234Y-73449726D01*
X87624080Y-73450925D01*
X87624991Y-73452126D01*
X87625971Y-73453332D01*
X87627021Y-73454547D01*
X87628146Y-73455772D01*
X87628139Y-73457536D01*
X87627910Y-73461588D01*
X87627736Y-73467593D01*
X87627891Y-73475212D01*
X87628179Y-73479521D01*
X87628652Y-73484108D01*
X87629345Y-73488930D01*
X87630292Y-73493944D01*
X87631529Y-73499110D01*
X87633089Y-73504383D01*
X87635006Y-73509724D01*
X87637316Y-73515088D01*
X87641013Y-73523050D01*
X87642945Y-73527319D01*
X87643651Y-73528904D01*
X87643714Y-73529006D01*
X87643673Y-73528816D01*
X87643552Y-73528065D01*
X87643606Y-73527756D01*
X87643692Y-73527674D01*
X87643828Y-73527660D01*
X87644022Y-73527732D01*
X87644284Y-73527904D01*
X87645042Y-73528613D01*
X87646170Y-73529913D01*
X87647735Y-73531932D01*
X87648589Y-73544089D01*
X87652562Y-73566552D01*
X87668262Y-73636792D01*
X87719423Y-73839293D01*
X87810765Y-74178532D01*
X87832945Y-74260114D01*
X87854058Y-74341370D01*
X87896300Y-74504407D01*
X88010521Y-74946032D01*
X88073856Y-75175762D01*
X88145484Y-73710918D01*
X88337731Y-73710918D01*
X88385536Y-73894847D01*
X88391008Y-73907152D01*
X88391717Y-73908763D01*
X88391785Y-73908869D01*
X88391745Y-73908675D01*
X88391597Y-73907883D01*
X88391614Y-73907535D01*
X88391673Y-73907427D01*
X88391776Y-73907384D01*
X88391931Y-73907422D01*
X88392146Y-73907556D01*
X88392786Y-73908174D01*
X88393761Y-73909363D01*
X88395131Y-73911248D01*
X88820326Y-75396513D01*
X88820325Y-75396513D01*
X88891560Y-75647384D01*
X88848725Y-74086888D01*
X88817412Y-74063072D01*
X88785575Y-74039412D01*
X88721007Y-73992264D01*
X88656384Y-73944848D01*
X88624479Y-73920854D01*
X88593071Y-73896568D01*
X88337731Y-73710918D01*
X88145484Y-73710918D01*
X88151331Y-73591338D01*
X87962068Y-73527256D01*
X88299725Y-73527256D01*
X88352128Y-73566979D01*
X88416539Y-73617534D01*
X88566203Y-73735158D01*
X88643865Y-73794238D01*
X88718353Y-73848168D01*
X88753221Y-73871953D01*
X88785872Y-73892954D01*
X88815831Y-73910669D01*
X88842625Y-73924600D01*
X88785040Y-72248556D01*
X88669656Y-72541661D01*
X88641079Y-72623626D01*
X88608526Y-72712627D01*
X88535811Y-72903364D01*
X88390191Y-73277161D01*
X88390190Y-73277161D01*
X88339756Y-73404152D01*
X88326684Y-73438845D01*
X88315098Y-73471873D01*
X88310123Y-73487320D01*
X88305833Y-73501817D01*
X88302332Y-73515189D01*
X88299725Y-73527256D01*
X87962068Y-73527256D01*
X87613711Y-73409307D01*
X87318279Y-73409307D01*
X87393471Y-73312322D01*
X87395008Y-73307498D01*
X87395844Y-73301938D01*
X87396016Y-73295690D01*
X87395561Y-73288799D01*
X87392913Y-73273275D01*
X87388193Y-73255739D01*
X87384524Y-73244914D01*
X87583842Y-73244914D01*
X87584770Y-73260632D01*
X87647824Y-73284519D01*
X87740176Y-73317670D01*
X87787440Y-73333716D01*
X87830152Y-73347273D01*
X87864351Y-73356741D01*
X87877022Y-73359440D01*
X87886080Y-73360517D01*
X87886080Y-73360519D01*
X87888152Y-73362657D01*
X87889699Y-73364389D01*
X87890819Y-73365769D01*
X87891610Y-73366851D01*
X87892589Y-73368339D01*
X87892973Y-73368854D01*
X87893416Y-73369289D01*
X87894016Y-73369698D01*
X87894869Y-73370135D01*
X87897725Y-73371312D01*
X87910760Y-73376398D01*
X87997121Y-73397968D01*
X88001568Y-73401930D01*
X88006540Y-73405647D01*
X88011976Y-73409123D01*
X88017819Y-73412363D01*
X88024009Y-73415373D01*
X88030489Y-73418156D01*
X88037199Y-73420718D01*
X88044081Y-73423063D01*
X88051076Y-73425197D01*
X88058125Y-73427124D01*
X88065169Y-73428849D01*
X88072151Y-73430376D01*
X88085691Y-73432860D01*
X88098275Y-73434613D01*
X88094884Y-73422805D01*
X88088121Y-73404060D01*
X88066266Y-73349636D01*
X88001742Y-73200199D01*
X87933288Y-73048359D01*
X87906518Y-72990931D01*
X87889485Y-72956173D01*
X87870807Y-72917466D01*
X87842921Y-72856115D01*
X87772853Y-72698622D01*
X87705941Y-72549967D01*
X87681998Y-72499664D01*
X87673862Y-72484143D01*
X87668840Y-72476423D01*
X87630305Y-72777553D01*
X87629501Y-72800679D01*
X87627649Y-72827620D01*
X87621467Y-72890482D01*
X87603842Y-73034897D01*
X87595058Y-73106603D01*
X87588065Y-73171410D01*
X87584192Y-73224394D01*
X87583842Y-73244914D01*
X87384524Y-73244914D01*
X87381693Y-73236563D01*
X87373705Y-73216118D01*
X87364520Y-73194776D01*
X87354432Y-73172909D01*
X87332711Y-73129089D01*
X87310877Y-73087631D01*
X87276221Y-73023702D01*
X86722386Y-71911782D01*
X86719603Y-71917356D01*
X86716677Y-71926253D01*
X86713643Y-71938041D01*
X86710542Y-71952288D01*
X86704287Y-71986428D01*
X86698219Y-72025213D01*
X86692641Y-72065184D01*
X86687861Y-72102882D01*
X86681915Y-72157622D01*
X86674410Y-72241601D01*
X86658619Y-72377898D01*
X86612325Y-72739352D01*
X86531915Y-73341051D01*
X86450435Y-73965558D01*
X86403565Y-74338796D01*
X86389194Y-74464466D01*
X86384900Y-74520477D01*
X86384901Y-74520477D01*
X86382575Y-74525641D01*
X86380461Y-74531341D01*
X86378551Y-74537517D01*
X86376839Y-74544107D01*
X86375318Y-74551051D01*
X86373981Y-74558288D01*
X86372820Y-74565757D01*
X86371831Y-74573399D01*
X86370334Y-74588956D01*
X86369436Y-74604472D01*
X86369082Y-74619462D01*
X86164517Y-74619462D01*
X86295877Y-73599117D01*
X86311457Y-73483148D01*
X86328879Y-73363039D01*
X86345441Y-73242658D01*
X86352555Y-73183576D01*
X86358442Y-73125877D01*
X86364261Y-73068923D01*
X86371279Y-73010823D01*
X86387524Y-72892947D01*
X86404413Y-72775775D01*
X86412235Y-72718556D01*
X86419182Y-72662836D01*
X86541992Y-71710423D01*
X86545526Y-71682090D01*
X86545586Y-71681606D01*
X86746945Y-71681606D01*
X86749698Y-71691881D01*
X86750701Y-71695388D01*
X86751510Y-71697973D01*
X86752164Y-71699761D01*
X86752446Y-71700396D01*
X86752704Y-71700877D01*
X86752944Y-71701222D01*
X86753171Y-71701445D01*
X86753389Y-71701562D01*
X86753604Y-71701589D01*
X86755807Y-71700423D01*
X86756219Y-71700337D01*
X86756677Y-71700317D01*
X86757188Y-71700378D01*
X86757756Y-71700536D01*
X86758386Y-71700805D01*
X86759084Y-71701202D01*
X86759854Y-71701742D01*
X86760701Y-71702441D01*
X86761212Y-71707273D01*
X86761862Y-71711932D01*
X86762657Y-71716423D01*
X86763608Y-71720749D01*
X86764724Y-71724917D01*
X86766013Y-71728931D01*
X86767485Y-71732796D01*
X86769149Y-71736517D01*
X86771013Y-71740098D01*
X86773088Y-71743545D01*
X86775382Y-71746862D01*
X86777904Y-71750055D01*
X86780663Y-71753127D01*
X86783669Y-71756085D01*
X86786930Y-71758933D01*
X86790456Y-71761675D01*
X86793896Y-71772745D01*
X86801971Y-71792341D01*
X86829572Y-71852442D01*
X86913388Y-72023571D01*
X87002619Y-72200302D01*
X87057980Y-72307876D01*
X87098117Y-72385325D01*
X87137168Y-72462786D01*
X87213663Y-72617893D01*
X87290761Y-72773498D01*
X87330567Y-72851581D01*
X87371760Y-72929901D01*
X87416856Y-73029616D01*
X87504600Y-72234727D01*
X87698955Y-72234727D01*
X87717545Y-72261382D01*
X87720219Y-72273496D01*
X87726806Y-72293137D01*
X87749676Y-72350881D01*
X87782073Y-72426377D01*
X87819914Y-72511389D01*
X87944105Y-72781867D01*
X88177495Y-73291567D01*
X88177494Y-73291566D01*
X88178579Y-73296077D01*
X88180042Y-73301210D01*
X88181857Y-73306866D01*
X88183997Y-73312946D01*
X88186436Y-73319351D01*
X88189147Y-73325982D01*
X88192102Y-73332740D01*
X88195276Y-73339526D01*
X88198641Y-73346240D01*
X88202170Y-73352783D01*
X88205837Y-73359057D01*
X88209616Y-73364962D01*
X88213478Y-73370399D01*
X88217399Y-73375269D01*
X88221350Y-73379473D01*
X88223328Y-73381294D01*
X88225304Y-73382911D01*
X88245442Y-73320171D01*
X88287396Y-73204050D01*
X88410169Y-72878151D01*
X88625090Y-72317086D01*
X88641399Y-72274812D01*
X88659180Y-72230191D01*
X88696374Y-72137074D01*
X88714395Y-72090163D01*
X88731106Y-72044074D01*
X88745809Y-71999599D01*
X88752191Y-71978214D01*
X88757810Y-71957530D01*
X88713342Y-71962022D01*
X88663158Y-71969678D01*
X88608060Y-71980120D01*
X88548854Y-71992970D01*
X88421327Y-72024390D01*
X88287004Y-72060918D01*
X87810330Y-72197755D01*
X87780680Y-72205600D01*
X87765567Y-72209558D01*
X87750310Y-72213411D01*
X87731859Y-72217993D01*
X87724884Y-72219777D01*
X87719213Y-72221285D01*
X87714697Y-72222563D01*
X87711189Y-72223657D01*
X87709766Y-72224150D01*
X87708540Y-72224614D01*
X87707491Y-72225056D01*
X87706602Y-72225481D01*
X87705854Y-72225895D01*
X87705228Y-72226304D01*
X87704706Y-72226713D01*
X87704269Y-72227129D01*
X87703900Y-72227557D01*
X87703578Y-72228002D01*
X87703006Y-72228971D01*
X87702406Y-72230082D01*
X87701629Y-72231380D01*
X87701129Y-72232114D01*
X87700528Y-72232913D01*
X87699810Y-72233782D01*
X87698955Y-72234727D01*
X87504600Y-72234727D01*
X87519877Y-72096331D01*
X87708910Y-72096331D01*
X88471515Y-71906636D01*
X88471514Y-71906636D01*
X88488053Y-71902128D01*
X88967017Y-71902128D01*
X89075171Y-75446118D01*
X89075172Y-75446118D01*
X89076230Y-75439851D01*
X89077344Y-75433915D01*
X89079654Y-75422851D01*
X89081924Y-75412544D01*
X89083979Y-75402616D01*
X89084871Y-75397675D01*
X89085642Y-75392686D01*
X89086271Y-75387601D01*
X89086737Y-75382374D01*
X89087016Y-75376957D01*
X89087087Y-75371301D01*
X89086928Y-75365361D01*
X89086516Y-75359087D01*
X89091143Y-75349780D01*
X89096243Y-75335457D01*
X89107540Y-75294406D01*
X89119761Y-75241219D01*
X89132255Y-75181179D01*
X89172002Y-74978168D01*
X89178193Y-74948401D01*
X89183267Y-74919817D01*
X89187313Y-74892239D01*
X89190416Y-74865487D01*
X89192663Y-74839384D01*
X89194142Y-74813751D01*
X89194939Y-74788409D01*
X89195141Y-74763180D01*
X89194108Y-74712349D01*
X89191739Y-74659828D01*
X89185772Y-74544012D01*
X89169541Y-74099310D01*
X89160814Y-73876417D01*
X89149332Y-73654928D01*
X89138138Y-73430717D01*
X89131414Y-73204808D01*
X89128551Y-72977739D01*
X89128600Y-72948800D01*
X89312626Y-72948800D01*
X89313725Y-73059852D01*
X89317386Y-73165897D01*
X89766120Y-73054936D01*
X89872210Y-73021861D01*
X89867824Y-73007864D01*
X89867078Y-73006145D01*
X90113865Y-73006145D01*
X90139775Y-73009355D01*
X90166148Y-73012036D01*
X90219941Y-73016136D01*
X90329333Y-73021566D01*
X90383571Y-73024197D01*
X90436598Y-73027638D01*
X90487733Y-73032541D01*
X90512378Y-73035743D01*
X90536295Y-73039555D01*
X90500640Y-72500475D01*
X90487170Y-72513510D01*
X90468175Y-72534912D01*
X90417125Y-72597765D01*
X90354514Y-72678936D01*
X90287365Y-72768329D01*
X90167548Y-72931384D01*
X90113866Y-73006145D01*
X90113865Y-73006145D01*
X89867078Y-73006145D01*
X89858022Y-72985296D01*
X89824948Y-72919022D01*
X89790800Y-72855104D01*
X90043540Y-72855104D01*
X90050040Y-72849084D01*
X90343011Y-72477290D01*
X90463811Y-72324419D01*
X90462148Y-72317824D01*
X90459008Y-72309148D01*
X90454576Y-72298683D01*
X90449039Y-72286723D01*
X90438162Y-72265018D01*
X90664566Y-72265018D01*
X90664926Y-72299578D01*
X90666480Y-72337769D01*
X90672596Y-72423117D01*
X90681762Y-72517214D01*
X90692828Y-72616210D01*
X90716053Y-72813495D01*
X90725912Y-72904085D01*
X90733066Y-72984174D01*
X90745855Y-72978716D01*
X90758645Y-72972937D01*
X90784221Y-72960566D01*
X90809787Y-72947349D01*
X90835335Y-72933580D01*
X90886348Y-72905548D01*
X90911797Y-72891867D01*
X90937196Y-72878799D01*
X90933026Y-72828574D01*
X90921176Y-72738073D01*
X90883374Y-72486780D01*
X90813937Y-72056793D01*
X90809621Y-72027701D01*
X90805036Y-71992693D01*
X90794980Y-71913695D01*
X90789472Y-71874091D01*
X90783618Y-71837340D01*
X90777399Y-71805635D01*
X90774147Y-71792360D01*
X90770797Y-71781168D01*
X90708186Y-72053104D01*
X90703856Y-72075542D01*
X90697793Y-72102125D01*
X90683295Y-72161748D01*
X90676271Y-72191802D01*
X90670337Y-72220027D01*
X90668000Y-72232987D01*
X90666200Y-72244930D01*
X90665026Y-72255670D01*
X90664566Y-72265018D01*
X90438162Y-72265018D01*
X90435389Y-72259487D01*
X90419543Y-72229785D01*
X90402984Y-72199959D01*
X90387196Y-72172352D01*
X90363875Y-72133170D01*
X90049590Y-71565290D01*
X90043540Y-72855104D01*
X89790800Y-72855104D01*
X89778558Y-72832188D01*
X89724420Y-72733942D01*
X89541785Y-72409821D01*
X89438159Y-72219153D01*
X89403838Y-72157760D01*
X89372673Y-72103868D01*
X89347927Y-72063975D01*
X89338980Y-72051308D01*
X89332860Y-72044576D01*
X89327421Y-72259456D01*
X89315801Y-72717540D01*
X89313512Y-72834208D01*
X89312626Y-72948800D01*
X89128600Y-72948800D01*
X89128940Y-72750046D01*
X89137037Y-72294938D01*
X89150837Y-71843783D01*
X89114555Y-71850351D01*
X89074743Y-71858370D01*
X89054651Y-71862716D01*
X89035042Y-71867175D01*
X89016370Y-71871665D01*
X88999091Y-71876103D01*
X88992872Y-71877658D01*
X88987609Y-71878795D01*
X88983219Y-71879607D01*
X88979615Y-71880185D01*
X88974432Y-71881004D01*
X88972683Y-71881427D01*
X88971983Y-71881683D01*
X88971384Y-71881983D01*
X88970876Y-71882338D01*
X88970449Y-71882761D01*
X88970092Y-71883262D01*
X88969795Y-71883854D01*
X88969546Y-71884546D01*
X88969336Y-71885352D01*
X88968988Y-71887347D01*
X88968287Y-71893195D01*
X88967765Y-71897230D01*
X88967017Y-71902128D01*
X88488053Y-71902128D01*
X88629425Y-71863591D01*
X88627732Y-71861546D01*
X88626404Y-71859837D01*
X88625374Y-71858422D01*
X88624577Y-71857261D01*
X88623411Y-71855538D01*
X88622910Y-71854894D01*
X88622375Y-71854340D01*
X88621739Y-71853835D01*
X88620936Y-71853339D01*
X88619899Y-71852810D01*
X88618562Y-71852207D01*
X88608880Y-71848246D01*
X88341678Y-71786250D01*
X89335121Y-71786250D01*
X89339753Y-71793056D01*
X89344163Y-71800056D01*
X89348382Y-71807232D01*
X89352441Y-71814569D01*
X89360201Y-71829660D01*
X89367687Y-71845199D01*
X89382824Y-71877103D01*
X89390965Y-71893207D01*
X89395287Y-71901241D01*
X89399816Y-71909241D01*
X89659373Y-72399056D01*
X89734509Y-72537284D01*
X89804491Y-72660079D01*
X89836104Y-72712292D01*
X89864694Y-72756570D01*
X89889682Y-72791554D01*
X89910490Y-72815886D01*
X89910490Y-72815884D01*
X89920566Y-71397195D01*
X89846733Y-71441917D01*
X89772827Y-71488831D01*
X89698977Y-71537398D01*
X89625314Y-71587082D01*
X89335121Y-71786250D01*
X88341678Y-71786250D01*
X87758535Y-71650951D01*
X87743855Y-71762416D01*
X87708910Y-72096331D01*
X87519877Y-72096331D01*
X87571026Y-71632971D01*
X87136152Y-71654172D01*
X86879066Y-71669083D01*
X86790288Y-71675890D01*
X86746945Y-71681606D01*
X86545586Y-71681606D01*
X86547475Y-71666447D01*
X86549690Y-71650573D01*
X86552279Y-71635033D01*
X86553746Y-71627565D01*
X86555348Y-71620392D01*
X86557097Y-71613585D01*
X86559006Y-71607215D01*
X86561090Y-71601352D01*
X86563362Y-71596067D01*
X86591314Y-71550591D01*
X86834555Y-71550591D01*
X87199867Y-71530896D01*
X87808219Y-71530896D01*
X87831925Y-71541089D01*
X87863924Y-71552114D01*
X87948753Y-71576112D01*
X88054605Y-71601800D01*
X88173381Y-71628086D01*
X88417307Y-71678091D01*
X88615729Y-71717401D01*
X88612358Y-71714754D01*
X88609526Y-71712437D01*
X88607162Y-71710398D01*
X88605190Y-71708582D01*
X88603536Y-71706937D01*
X88602127Y-71705409D01*
X88600889Y-71703945D01*
X88599748Y-71702491D01*
X88597460Y-71699401D01*
X88594672Y-71695712D01*
X88592906Y-71693508D01*
X88590792Y-71690995D01*
X88588258Y-71688119D01*
X88585229Y-71684826D01*
X87990249Y-71196086D01*
X87929414Y-71305751D01*
X87808219Y-71530896D01*
X87199867Y-71530896D01*
X87489485Y-71515282D01*
X87605585Y-71508172D01*
X87605584Y-71508172D01*
X87604031Y-71488224D01*
X87599022Y-71454581D01*
X87580409Y-71353735D01*
X87521244Y-71070492D01*
X87456513Y-70778877D01*
X87414640Y-70599322D01*
X87406867Y-70608609D01*
X87399494Y-70618291D01*
X87392510Y-70628254D01*
X87385907Y-70638386D01*
X87379673Y-70648575D01*
X87373801Y-70658709D01*
X87363101Y-70678361D01*
X87345607Y-70712060D01*
X87341991Y-70718662D01*
X87338659Y-70724310D01*
X87335602Y-70728892D01*
X87332809Y-70732297D01*
X87328969Y-70735168D01*
X87325272Y-70738505D01*
X87321715Y-70742258D01*
X87318297Y-70746381D01*
X87315012Y-70750825D01*
X87311860Y-70755540D01*
X87308836Y-70760480D01*
X87305939Y-70765595D01*
X87303164Y-70770837D01*
X87300509Y-70776159D01*
X87295549Y-70786846D01*
X87291033Y-70797269D01*
X87286939Y-70807042D01*
X87279090Y-70816786D01*
X87262765Y-70841020D01*
X87209615Y-70924732D01*
X87055840Y-71175584D01*
X86904519Y-71428053D01*
X86854436Y-71513785D01*
X86834555Y-71550591D01*
X86591314Y-71550591D01*
X86716862Y-71346337D01*
X87278707Y-70428337D01*
X87284441Y-70418204D01*
X87289369Y-70408100D01*
X87293541Y-70398012D01*
X87297005Y-70387931D01*
X87299808Y-70377843D01*
X87301999Y-70367739D01*
X87304739Y-70347433D01*
X87305611Y-70326923D01*
X87304999Y-70306118D01*
X87303291Y-70284927D01*
X87300872Y-70263259D01*
X87295589Y-70219316D01*
X87489032Y-70219316D01*
X87489151Y-70224767D01*
X87489489Y-70230210D01*
X87490035Y-70235609D01*
X87490780Y-70240929D01*
X87491713Y-70246136D01*
X87492824Y-70251192D01*
X87494104Y-70256064D01*
X87495542Y-70260716D01*
X87497130Y-70265112D01*
X87494982Y-70289130D01*
X87494600Y-70315695D01*
X87495803Y-70344448D01*
X87498407Y-70375031D01*
X87502231Y-70407084D01*
X87507094Y-70440248D01*
X87519203Y-70508471D01*
X87533277Y-70576827D01*
X87547859Y-70642441D01*
X87572719Y-70753952D01*
X87598524Y-70872081D01*
X87625895Y-70991173D01*
X87652172Y-71109890D01*
X87664069Y-71168691D01*
X87674695Y-71226897D01*
X87707880Y-71338542D01*
X87843558Y-71083642D01*
X88051730Y-71083642D01*
X88082896Y-71112335D01*
X88159383Y-71179046D01*
X88391798Y-71377104D01*
X88519464Y-71483738D01*
X88635929Y-71578968D01*
X88727061Y-71650437D01*
X88758712Y-71673401D01*
X88778730Y-71685791D01*
X88768163Y-71613112D01*
X88742588Y-71469165D01*
X88664138Y-71053973D01*
X88534515Y-70384132D01*
X88659231Y-70384132D01*
X88660098Y-70399816D01*
X88662010Y-70418328D01*
X88668380Y-70461950D01*
X88677171Y-70511227D01*
X88713125Y-70689452D01*
X88844250Y-71380042D01*
X88879784Y-71575801D01*
X88898502Y-71673407D01*
X88908479Y-71721837D01*
X88919015Y-71769902D01*
X88919015Y-71769903D01*
X89114775Y-71726553D01*
X89157608Y-71718157D01*
X89162501Y-71716985D01*
X89167319Y-71715696D01*
X89172071Y-71714264D01*
X89176766Y-71712663D01*
X89181411Y-71710865D01*
X89186015Y-71708844D01*
X89190587Y-71706574D01*
X89195135Y-71704028D01*
X89193578Y-71693788D01*
X89189958Y-71679588D01*
X89177559Y-71641466D01*
X89160005Y-71593974D01*
X89139361Y-71541430D01*
X89067200Y-71367028D01*
X88860178Y-70864300D01*
X88757582Y-70610198D01*
X88661215Y-70363133D01*
X88659555Y-70371747D01*
X88659231Y-70384132D01*
X88534515Y-70384132D01*
X88522090Y-70319921D01*
X88515268Y-70274166D01*
X88514109Y-70268192D01*
X88512786Y-70262337D01*
X88511274Y-70256655D01*
X88509542Y-70251198D01*
X88507563Y-70246020D01*
X88505308Y-70241173D01*
X88502750Y-70236711D01*
X88501348Y-70234641D01*
X88499860Y-70232686D01*
X88382786Y-70438683D01*
X88252999Y-70670254D01*
X88190872Y-70785749D01*
X88134609Y-70895780D01*
X88087224Y-70996395D01*
X88067802Y-71041936D01*
X88051730Y-71083642D01*
X87843558Y-71083642D01*
X88013815Y-70763777D01*
X88215558Y-70403482D01*
X88275012Y-70292883D01*
X88327057Y-70190490D01*
X88348580Y-70144936D01*
X88366184Y-70104512D01*
X88379182Y-70070244D01*
X88386885Y-70043157D01*
X88163964Y-70073959D01*
X87934425Y-70104201D01*
X87820270Y-70120743D01*
X87708178Y-70139103D01*
X87599386Y-70159932D01*
X87495135Y-70183882D01*
X87493450Y-70188405D01*
X87492052Y-70193167D01*
X87490933Y-70198131D01*
X87490081Y-70203264D01*
X87489486Y-70208529D01*
X87489140Y-70213891D01*
X87489032Y-70219316D01*
X87295589Y-70219316D01*
X87295446Y-70218130D01*
X87293211Y-70194488D01*
X87291808Y-70170006D01*
X87291625Y-70144593D01*
X87293046Y-70118158D01*
X87296458Y-70090612D01*
X87299032Y-70076393D01*
X87302248Y-70061862D01*
X87305517Y-70048991D01*
X87508875Y-70048991D01*
X87663898Y-70024447D01*
X88657870Y-70024447D01*
X89147280Y-71240987D01*
X89200400Y-71360927D01*
X89248700Y-71486782D01*
X89352220Y-70043727D01*
X88657870Y-70024447D01*
X87663898Y-70024447D01*
X88330630Y-69918887D01*
X88330630Y-69918886D01*
X88417865Y-69904366D01*
X88414542Y-69897475D01*
X88413814Y-69896241D01*
X88590490Y-69896241D01*
X89259289Y-69915472D01*
X89254809Y-69900016D01*
X89247761Y-69880982D01*
X89238468Y-69858860D01*
X89227252Y-69834140D01*
X89200336Y-69778868D01*
X89169586Y-69719089D01*
X89059730Y-69513362D01*
X88924995Y-69255347D01*
X89076370Y-69255347D01*
X89078573Y-69262502D01*
X89081655Y-69270877D01*
X89085502Y-69280283D01*
X89090000Y-69290530D01*
X89100487Y-69312795D01*
X89112202Y-69336159D01*
X89124228Y-69359110D01*
X89135648Y-69380136D01*
X89145548Y-69397724D01*
X89153010Y-69410363D01*
X89158138Y-69423614D01*
X89163684Y-69437020D01*
X89175869Y-69464227D01*
X89189244Y-69491845D01*
X89203489Y-69519733D01*
X89262735Y-69631203D01*
X89451290Y-69996577D01*
X89457837Y-70010344D01*
X89463092Y-70023266D01*
X89467172Y-70035484D01*
X89470190Y-70047138D01*
X89472265Y-70058369D01*
X89473511Y-70069317D01*
X89474045Y-70080122D01*
X89473983Y-70090925D01*
X89473440Y-70101867D01*
X89472532Y-70113087D01*
X89470087Y-70136926D01*
X89467576Y-70163565D01*
X89466585Y-70178285D01*
X89465925Y-70194127D01*
X89366425Y-71591753D01*
X89367602Y-71594216D01*
X89369157Y-71596117D01*
X89371069Y-71597483D01*
X89373317Y-71598344D01*
X89375878Y-71598726D01*
X89378732Y-71598660D01*
X89381857Y-71598172D01*
X89385231Y-71597291D01*
X89388832Y-71596045D01*
X89392639Y-71594463D01*
X89400785Y-71590403D01*
X89409496Y-71585336D01*
X89418600Y-71579488D01*
X89484845Y-71531738D01*
X89521017Y-71508810D01*
X89558620Y-71483832D01*
X89636678Y-71430276D01*
X89716152Y-71376169D01*
X89717838Y-71375070D01*
X90170075Y-71375070D01*
X90179951Y-71410943D01*
X90194050Y-71449652D01*
X90211883Y-71490853D01*
X90232957Y-71534205D01*
X90256780Y-71579364D01*
X90282861Y-71625989D01*
X90339830Y-71722260D01*
X90459230Y-71917297D01*
X90513796Y-72010579D01*
X90538075Y-72054961D01*
X90559695Y-72097380D01*
X90695570Y-71484240D01*
X90170075Y-71375070D01*
X89717838Y-71375070D01*
X89755522Y-71350504D01*
X89794170Y-71326613D01*
X89806946Y-71317829D01*
X89819227Y-71309551D01*
X89842659Y-71294063D01*
X89865181Y-71279250D01*
X89876325Y-71271816D01*
X89887510Y-71264213D01*
X89885561Y-71250949D01*
X89882763Y-71236209D01*
X89875009Y-71203128D01*
X89865027Y-71166631D01*
X89853597Y-71128381D01*
X89829510Y-71053270D01*
X89808985Y-70991088D01*
X89499654Y-69974167D01*
X89705690Y-69974167D01*
X89712054Y-70024757D01*
X89724166Y-70085816D01*
X89741283Y-70155907D01*
X89762662Y-70233592D01*
X89815235Y-70405985D01*
X89875940Y-70591490D01*
X89997978Y-70955807D01*
X90047424Y-71111603D01*
X90081230Y-71234483D01*
X90503935Y-71315862D01*
X90663945Y-71349728D01*
X90653455Y-71330750D01*
X90641716Y-71310824D01*
X90615079Y-71268662D01*
X90585224Y-71224302D01*
X90553342Y-71178804D01*
X90429325Y-71006642D01*
X90422130Y-70996222D01*
X90415233Y-70985974D01*
X90401725Y-70965570D01*
X90394808Y-70955203D01*
X90387579Y-70944585D01*
X90379886Y-70933610D01*
X90371575Y-70922173D01*
X89705690Y-69974167D01*
X89499654Y-69974167D01*
X89371315Y-69552252D01*
X89576350Y-69552252D01*
X89580101Y-69562530D01*
X89586714Y-69575973D01*
X89595804Y-69592112D01*
X89606984Y-69610477D01*
X89634069Y-69652010D01*
X89664877Y-69696819D01*
X89725297Y-69781257D01*
X89763511Y-69833767D01*
X90262871Y-70545322D01*
X90382981Y-70716299D01*
X90503815Y-70885610D01*
X90742881Y-71220382D01*
X90928510Y-69526482D01*
X90238403Y-69522323D01*
X90059279Y-69523975D01*
X89886301Y-69528811D01*
X89723861Y-69537885D01*
X89576350Y-69552252D01*
X89371315Y-69552252D01*
X89357490Y-69506803D01*
X89261130Y-69418637D01*
X89520245Y-69418637D01*
X90404571Y-69407132D01*
X90742351Y-69400872D01*
X90687386Y-69370535D01*
X90559544Y-69306120D01*
X90183090Y-69121989D01*
X89808697Y-68942338D01*
X89632075Y-68861027D01*
X89611626Y-68898072D01*
X89520245Y-69418637D01*
X89261130Y-69418637D01*
X89193550Y-69356803D01*
X89186422Y-69349534D01*
X89178866Y-69342264D01*
X89170968Y-69335018D01*
X89162815Y-69327823D01*
X89146087Y-69313697D01*
X89129369Y-69300101D01*
X89098718Y-69275366D01*
X89086162Y-69264659D01*
X89080878Y-69259816D01*
X89076370Y-69255347D01*
X88924995Y-69255347D01*
X88856955Y-69125052D01*
X88796745Y-69297777D01*
X88590490Y-69896241D01*
X88413814Y-69896241D01*
X88409146Y-69888333D01*
X88401934Y-69877240D01*
X88393164Y-69864496D01*
X88371984Y-69835261D01*
X88347667Y-69803036D01*
X88297874Y-69739240D01*
X88260290Y-69692361D01*
X87804240Y-69124531D01*
X87756575Y-69070406D01*
X87734805Y-69165981D01*
X87508875Y-70048991D01*
X87305517Y-70048991D01*
X87450671Y-69477565D01*
X87530843Y-69151430D01*
X87557141Y-69033870D01*
X87567572Y-68972276D01*
X87848610Y-68972276D01*
X87859002Y-68991613D01*
X87876284Y-69018161D01*
X87899492Y-69050851D01*
X87927658Y-69088611D01*
X87995003Y-69175057D01*
X88070593Y-69268932D01*
X88300845Y-69547351D01*
X88443705Y-69723872D01*
X88445709Y-69728251D01*
X88448101Y-69732739D01*
X88450839Y-69737294D01*
X88453880Y-69741871D01*
X88457182Y-69746429D01*
X88460702Y-69750923D01*
X88464397Y-69755311D01*
X88468225Y-69759551D01*
X88472144Y-69763598D01*
X88476110Y-69767410D01*
X88480081Y-69770945D01*
X88484014Y-69774158D01*
X88487867Y-69777007D01*
X88491598Y-69779450D01*
X88495163Y-69781442D01*
X88496870Y-69782256D01*
X88498520Y-69782941D01*
X88696900Y-69218896D01*
X88733030Y-69119903D01*
X88737582Y-69105842D01*
X88741668Y-69092054D01*
X88745147Y-69078734D01*
X88747875Y-69066076D01*
X88749711Y-69054275D01*
X88750513Y-69043525D01*
X88750482Y-69038605D01*
X88750138Y-69034021D01*
X88749465Y-69029796D01*
X88748445Y-69025956D01*
X87848610Y-68972276D01*
X87567572Y-68972276D01*
X87568428Y-68967222D01*
X87423717Y-68960013D01*
X87350996Y-68955648D01*
X87278957Y-68950422D01*
X87218995Y-68946186D01*
X87213673Y-68945911D01*
X88935740Y-68945911D01*
X89302945Y-69277266D01*
X89355425Y-69322592D01*
X89357946Y-69326296D01*
X89360498Y-69329653D01*
X89363082Y-69332699D01*
X89365698Y-69335474D01*
X89368349Y-69338016D01*
X89371036Y-69340363D01*
X89373758Y-69342553D01*
X89376518Y-69344625D01*
X89382154Y-69348566D01*
X89387953Y-69352493D01*
X89390917Y-69354547D01*
X89393924Y-69356713D01*
X89396976Y-69359028D01*
X89400075Y-69361531D01*
X89402895Y-69352167D01*
X89405657Y-69341794D01*
X89410989Y-69318562D01*
X89416049Y-69292922D01*
X89420810Y-69265959D01*
X89436385Y-69166607D01*
X89506237Y-68747186D01*
X89707185Y-68747186D01*
X89719946Y-68751856D01*
X89733458Y-68757185D01*
X89762295Y-68769510D01*
X89792818Y-68783535D01*
X89824150Y-68798633D01*
X89885737Y-68829542D01*
X89940040Y-68857227D01*
X89992388Y-68883441D01*
X90043106Y-68908304D01*
X90093907Y-68932597D01*
X90146505Y-68957101D01*
X90223282Y-68993442D01*
X90302799Y-69032619D01*
X90466759Y-69115086D01*
X90549552Y-69156180D01*
X90631787Y-69195717D01*
X90712640Y-69232597D01*
X90791285Y-69265722D01*
X90225145Y-68353851D01*
X90213495Y-68359032D01*
X90194106Y-68370772D01*
X90136716Y-68410189D01*
X90062185Y-68464615D01*
X89979722Y-68526561D01*
X89754740Y-68699776D01*
X89747313Y-68705251D01*
X89740990Y-68709738D01*
X89735661Y-68713377D01*
X89731217Y-68716309D01*
X89724547Y-68720609D01*
X89722103Y-68722256D01*
X89720108Y-68723755D01*
X89718451Y-68725245D01*
X89717716Y-68726031D01*
X89717025Y-68726867D01*
X89715720Y-68728760D01*
X89714426Y-68731064D01*
X89713035Y-68733919D01*
X89711437Y-68737464D01*
X89707185Y-68747186D01*
X89506237Y-68747186D01*
X89529487Y-68607582D01*
X89665720Y-68607582D01*
X89674732Y-68603002D01*
X89688387Y-68594314D01*
X89727066Y-68566811D01*
X89776649Y-68529465D01*
X89832024Y-68486666D01*
X89939710Y-68402276D01*
X89981799Y-68369466D01*
X90009240Y-68348767D01*
X90047203Y-68321151D01*
X90084832Y-68293269D01*
X90122455Y-68265480D01*
X90160400Y-68238142D01*
X90167546Y-68233020D01*
X90173602Y-68228481D01*
X90178668Y-68224393D01*
X90182846Y-68220623D01*
X90186235Y-68217039D01*
X90187666Y-68215276D01*
X90188938Y-68213509D01*
X90190064Y-68211723D01*
X90191055Y-68209901D01*
X90191925Y-68208025D01*
X90192687Y-68206081D01*
X90193934Y-68201917D01*
X90194899Y-68197277D01*
X90195681Y-68192028D01*
X90196381Y-68186039D01*
X90197941Y-68171307D01*
X90199002Y-68162300D01*
X90200385Y-68152022D01*
X90250104Y-67810122D01*
X90274765Y-67626931D01*
X90283365Y-67553112D01*
X90288075Y-67499081D01*
X90255193Y-67497629D01*
X90201861Y-67496956D01*
X90135195Y-67497090D01*
X90062314Y-67498057D01*
X89990335Y-67499884D01*
X89926376Y-67502598D01*
X89877555Y-67506225D01*
X89861046Y-67508389D01*
X89850990Y-67510791D01*
X89838415Y-67585501D01*
X89825211Y-67640734D01*
X89813229Y-67699854D01*
X89802229Y-67761697D01*
X89791973Y-67825100D01*
X89772740Y-67951929D01*
X89763285Y-68013028D01*
X89753620Y-68071032D01*
X89706489Y-68331869D01*
X89693081Y-68411850D01*
X89682239Y-68483207D01*
X89675569Y-68538673D01*
X89674302Y-68558177D01*
X89674680Y-68570982D01*
X89665720Y-68607582D01*
X89529487Y-68607582D01*
X89672030Y-67751696D01*
X89565043Y-67927183D01*
X89456282Y-68102196D01*
X89236780Y-68450742D01*
X89071155Y-68716567D01*
X88980958Y-68863631D01*
X88950387Y-68916348D01*
X88940781Y-68934459D01*
X88935740Y-68945911D01*
X87213673Y-68945911D01*
X87168452Y-68943583D01*
X87091200Y-68941173D01*
X87062279Y-68940313D01*
X87038354Y-68938980D01*
X87027920Y-68937972D01*
X87018320Y-68936649D01*
X87009415Y-68934944D01*
X87001069Y-68932792D01*
X86993142Y-68930127D01*
X86985497Y-68926883D01*
X86977995Y-68922995D01*
X86970498Y-68918396D01*
X86962867Y-68913020D01*
X86954966Y-68906803D01*
X86937795Y-68891579D01*
X86917879Y-68872196D01*
X86894113Y-68848129D01*
X86884964Y-68838865D01*
X87869190Y-68838865D01*
X87977409Y-68845778D01*
X88089021Y-68854298D01*
X88317777Y-68872638D01*
X88432597Y-68880696D01*
X88546161Y-68886841D01*
X88657308Y-68890190D01*
X88764875Y-68889865D01*
X88760673Y-68872139D01*
X88752082Y-68844910D01*
X88724118Y-68767405D01*
X88685763Y-68668275D01*
X88641796Y-68558442D01*
X88556141Y-68350353D01*
X88505385Y-68230520D01*
X88500655Y-68233364D01*
X88495821Y-68236475D01*
X88490919Y-68239833D01*
X88485983Y-68243418D01*
X88481046Y-68247209D01*
X88476142Y-68251185D01*
X88471306Y-68255326D01*
X88466572Y-68259611D01*
X88461973Y-68264020D01*
X88457544Y-68268533D01*
X88453319Y-68273128D01*
X88449331Y-68277785D01*
X88445616Y-68282484D01*
X88442206Y-68287204D01*
X88439136Y-68291925D01*
X88436440Y-68296626D01*
X88432277Y-68300501D01*
X88427663Y-68304553D01*
X88417308Y-68313174D01*
X88393711Y-68332441D01*
X88381388Y-68343057D01*
X88375298Y-68348604D01*
X88369330Y-68354308D01*
X88363545Y-68360167D01*
X88357998Y-68366179D01*
X88352747Y-68372342D01*
X88347850Y-68378655D01*
X87987565Y-68718740D01*
X87980681Y-68725545D01*
X87973325Y-68732433D01*
X87957541Y-68746471D01*
X87940906Y-68760870D01*
X87924112Y-68775647D01*
X87915872Y-68783182D01*
X87907851Y-68790818D01*
X87900137Y-68798557D01*
X87892816Y-68806401D01*
X87885974Y-68814351D01*
X87879698Y-68822411D01*
X87874074Y-68830582D01*
X87871534Y-68834709D01*
X87869190Y-68838865D01*
X86884964Y-68838865D01*
X86830607Y-68783833D01*
X86813089Y-68766522D01*
X87248500Y-68766522D01*
X87253400Y-68768730D01*
X87258736Y-68770648D01*
X87264452Y-68772299D01*
X87270489Y-68773706D01*
X87276792Y-68774895D01*
X87283304Y-68775888D01*
X87289968Y-68776709D01*
X87296727Y-68777383D01*
X87310302Y-68778381D01*
X87323575Y-68779074D01*
X87347395Y-68780302D01*
X87389309Y-68781635D01*
X87433589Y-68783612D01*
X87526197Y-68789247D01*
X87619107Y-68796702D01*
X87706210Y-68805471D01*
X87706210Y-68805473D01*
X87708925Y-68804492D01*
X87712196Y-68802791D01*
X87720253Y-68797411D01*
X87730070Y-68789701D01*
X87741337Y-68780030D01*
X87753742Y-68768768D01*
X87766976Y-68756284D01*
X87794685Y-68729128D01*
X87876505Y-68645493D01*
X88013955Y-68521252D01*
X88026447Y-68507029D01*
X88040586Y-68491852D01*
X88056083Y-68475914D01*
X88072652Y-68459411D01*
X88107856Y-68425486D01*
X88143899Y-68391635D01*
X88209310Y-68330378D01*
X88234082Y-68306086D01*
X88243479Y-68296204D01*
X88250500Y-68288092D01*
X88255646Y-68284747D01*
X88261790Y-68280183D01*
X88268775Y-68274556D01*
X88276440Y-68268023D01*
X88293182Y-68252868D01*
X88310751Y-68235970D01*
X88327879Y-68218583D01*
X88343301Y-68201962D01*
X88349976Y-68194331D01*
X88355750Y-68187361D01*
X88360464Y-68181209D01*
X88363960Y-68176032D01*
X88351531Y-68171668D01*
X88331198Y-68167009D01*
X88271065Y-68157085D01*
X88244304Y-68153607D01*
X88615010Y-68153607D01*
X88617929Y-68164455D01*
X88618994Y-68168149D01*
X88619852Y-68170867D01*
X88620543Y-68172743D01*
X88620838Y-68173407D01*
X88621107Y-68173911D01*
X88621354Y-68174271D01*
X88621585Y-68174503D01*
X88621805Y-68174626D01*
X88622019Y-68174654D01*
X88624120Y-68173505D01*
X88624508Y-68173439D01*
X88624941Y-68173447D01*
X88625423Y-68173544D01*
X88625961Y-68173747D01*
X88626559Y-68174074D01*
X88627222Y-68174540D01*
X88627956Y-68175162D01*
X88628765Y-68175957D01*
X88630841Y-68188311D01*
X88636562Y-68208174D01*
X88657043Y-68266367D01*
X88686418Y-68342417D01*
X88720899Y-68428203D01*
X88790014Y-68596506D01*
X88834070Y-68706317D01*
X88867805Y-68794452D01*
X88871648Y-68794110D01*
X88874547Y-68794130D01*
X88878209Y-68794596D01*
X88879318Y-68794712D01*
X88880175Y-68794530D01*
X88880955Y-68793886D01*
X88881829Y-68792614D01*
X88889731Y-68777956D01*
X88893673Y-68771075D01*
X88898748Y-68762577D01*
X88905128Y-68752298D01*
X88912986Y-68740072D01*
X89039506Y-68537727D01*
X89412390Y-67938906D01*
X89515860Y-67780199D01*
X89542948Y-67736833D01*
X89568253Y-67694396D01*
X89590643Y-67654093D01*
X89600389Y-67635118D01*
X89608980Y-67617126D01*
X89038127Y-67911620D01*
X88884519Y-67992630D01*
X88753735Y-68064122D01*
X88659368Y-68119859D01*
X88630089Y-68139872D01*
X88615010Y-68153607D01*
X88244304Y-68153607D01*
X88192062Y-68146817D01*
X88102687Y-68136760D01*
X87926822Y-68119498D01*
X87811470Y-68109742D01*
X87807393Y-68117180D01*
X87802549Y-68125268D01*
X87797036Y-68133911D01*
X87790950Y-68143015D01*
X87777457Y-68162222D01*
X87762852Y-68182128D01*
X87709015Y-68253527D01*
X87427230Y-68644142D01*
X87418921Y-68654689D01*
X87410301Y-68664023D01*
X87401353Y-68672319D01*
X87392064Y-68679756D01*
X87382417Y-68686512D01*
X87372399Y-68692762D01*
X87361995Y-68698685D01*
X87351189Y-68704458D01*
X87328312Y-68716264D01*
X87316212Y-68722651D01*
X87303651Y-68729597D01*
X87290615Y-68737280D01*
X87277087Y-68745877D01*
X87263054Y-68755565D01*
X87248500Y-68766522D01*
X86813089Y-68766522D01*
X86793246Y-68746913D01*
X86753004Y-68707815D01*
X86712469Y-68669202D01*
X86674227Y-68633737D01*
X86594078Y-68561568D01*
X86513644Y-68487783D01*
X86473916Y-68450304D01*
X86434832Y-68412446D01*
X86406233Y-68383826D01*
X86662381Y-68383826D01*
X86697857Y-68418996D01*
X86768258Y-68486875D01*
X86806445Y-68522820D01*
X86841232Y-68554630D01*
X86868573Y-68578200D01*
X86878188Y-68585612D01*
X86884426Y-68589426D01*
X86881912Y-68582699D01*
X86876469Y-68571122D01*
X86858363Y-68536244D01*
X86833243Y-68490447D01*
X86804241Y-68439382D01*
X86774492Y-68388704D01*
X86758501Y-68362616D01*
X86903310Y-68362616D01*
X86908156Y-68373259D01*
X86916112Y-68388741D01*
X86939546Y-68431240D01*
X86969994Y-68484142D01*
X87003836Y-68541478D01*
X87037454Y-68597279D01*
X87067228Y-68645575D01*
X87089540Y-68680397D01*
X87096766Y-68690890D01*
X87100770Y-68695776D01*
X87183030Y-68647771D01*
X87188771Y-68645800D01*
X87194404Y-68643700D01*
X87199934Y-68641475D01*
X87205367Y-68639126D01*
X87210708Y-68636655D01*
X87215964Y-68634065D01*
X87221140Y-68631358D01*
X87226243Y-68628536D01*
X87231277Y-68625602D01*
X87236248Y-68622557D01*
X87241163Y-68619403D01*
X87246027Y-68616143D01*
X87250846Y-68612780D01*
X87255626Y-68609314D01*
X87265090Y-68602086D01*
X87263578Y-68598815D01*
X87263381Y-68598430D01*
X87263190Y-68598089D01*
X87263009Y-68597802D01*
X87262922Y-68597683D01*
X87262839Y-68597582D01*
X87262759Y-68597500D01*
X87262682Y-68597439D01*
X87262610Y-68597401D01*
X87262542Y-68597386D01*
X87262479Y-68597396D01*
X87262421Y-68597432D01*
X87262368Y-68597497D01*
X87262320Y-68597591D01*
X87184356Y-68542760D01*
X87079444Y-68470978D01*
X87025830Y-68435453D01*
X86976217Y-68403759D01*
X86934184Y-68378583D01*
X86917128Y-68369280D01*
X86903310Y-68362616D01*
X86758501Y-68362616D01*
X86747129Y-68344064D01*
X86725288Y-68311115D01*
X86717417Y-68300792D01*
X86712101Y-68295511D01*
X86662381Y-68383826D01*
X86406233Y-68383826D01*
X86396629Y-68374216D01*
X86359547Y-68335622D01*
X86353192Y-68329035D01*
X86347489Y-68323399D01*
X86337832Y-68314221D01*
X86333777Y-68310300D01*
X86330169Y-68306572D01*
X86326958Y-68302847D01*
X86324092Y-68298935D01*
X86321520Y-68294646D01*
X86319193Y-68289791D01*
X86317058Y-68284181D01*
X86315064Y-68277626D01*
X86313161Y-68269935D01*
X86311298Y-68260920D01*
X86309424Y-68250391D01*
X86307487Y-68238157D01*
X86301772Y-68199055D01*
X86507511Y-68199055D01*
X86507616Y-68203366D01*
X86507901Y-68207510D01*
X86508358Y-68211492D01*
X86508980Y-68215320D01*
X86509759Y-68219000D01*
X86510687Y-68222537D01*
X86511758Y-68225938D01*
X86512962Y-68229210D01*
X86514294Y-68232357D01*
X86515744Y-68235387D01*
X86517306Y-68238306D01*
X86518972Y-68241119D01*
X86520734Y-68243834D01*
X86522585Y-68246455D01*
X86526523Y-68251446D01*
X86530725Y-68256139D01*
X86535130Y-68260585D01*
X86539677Y-68264834D01*
X86544307Y-68268935D01*
X86553567Y-68276891D01*
X86558077Y-68280845D01*
X86562426Y-68284850D01*
X86567416Y-68277888D01*
X86572450Y-68270371D01*
X86574904Y-68266421D01*
X86577275Y-68262353D01*
X86579531Y-68258172D01*
X86581642Y-68253886D01*
X86583575Y-68249502D01*
X86585299Y-68245025D01*
X86586784Y-68240462D01*
X86587997Y-68235821D01*
X86588907Y-68231108D01*
X86589484Y-68226329D01*
X86589696Y-68221490D01*
X86589655Y-68219051D01*
X86589511Y-68216600D01*
X86552500Y-68208681D01*
X86919800Y-68208681D01*
X86923527Y-68214632D01*
X86927143Y-68219896D01*
X86930703Y-68224557D01*
X86934263Y-68228698D01*
X86937876Y-68232402D01*
X86941600Y-68235752D01*
X86945488Y-68238832D01*
X86949595Y-68241724D01*
X86953977Y-68244511D01*
X86958689Y-68247277D01*
X86969322Y-68253076D01*
X86981936Y-68259788D01*
X86996970Y-68268076D01*
X87087065Y-68321604D01*
X87136935Y-68351513D01*
X87187793Y-68382701D01*
X87237972Y-68414556D01*
X87285803Y-68446464D01*
X87308316Y-68462247D01*
X87329617Y-68477814D01*
X87349496Y-68493087D01*
X87367745Y-68507991D01*
X87374808Y-68500626D01*
X87381655Y-68493085D01*
X87388302Y-68485390D01*
X87394762Y-68477564D01*
X87401050Y-68469627D01*
X87407181Y-68461603D01*
X87419029Y-68445376D01*
X87463035Y-68381306D01*
X87556400Y-68255322D01*
X87581208Y-68220235D01*
X87592791Y-68203022D01*
X87603574Y-68186241D01*
X87613369Y-68170048D01*
X87621986Y-68154603D01*
X87629236Y-68140063D01*
X87634930Y-68126586D01*
X86919800Y-68208681D01*
X86552500Y-68208681D01*
X86507511Y-68199055D01*
X86301772Y-68199055D01*
X86299636Y-68184443D01*
X86296790Y-68162635D01*
X86294694Y-68143659D01*
X86293371Y-68127114D01*
X86292845Y-68112599D01*
X86292888Y-68105977D01*
X86293138Y-68099713D01*
X86293599Y-68093755D01*
X86294274Y-68088055D01*
X86295165Y-68082561D01*
X86296225Y-68077465D01*
X86539640Y-68077465D01*
X86631895Y-68089525D01*
X86673080Y-68091890D01*
X86686973Y-68063916D01*
X86954450Y-68063916D01*
X86964318Y-68065660D01*
X86982112Y-68065879D01*
X87037100Y-68062491D01*
X87110648Y-68055251D01*
X87193992Y-68045656D01*
X87450030Y-68013701D01*
X87524660Y-68005596D01*
X87607759Y-67994391D01*
X87596055Y-67980516D01*
X87939215Y-67980516D01*
X88262630Y-68020526D01*
X88282250Y-68021570D01*
X88300729Y-68023131D01*
X88318399Y-68025063D01*
X88335590Y-68027221D01*
X88369871Y-68031634D01*
X88387625Y-68033598D01*
X88406230Y-68035206D01*
X88398421Y-68015850D01*
X88382478Y-67981314D01*
X88360694Y-67936442D01*
X88335360Y-67886076D01*
X88308770Y-67835061D01*
X88283214Y-67788239D01*
X88260987Y-67750455D01*
X88251838Y-67736465D01*
X88244380Y-67726551D01*
X88214632Y-67750794D01*
X88175356Y-67781649D01*
X88082478Y-67854259D01*
X88036005Y-67891546D01*
X87994260Y-67926507D01*
X87976275Y-67942417D01*
X87960808Y-67956909D01*
X87948307Y-67969701D01*
X87939215Y-67980516D01*
X87596055Y-67980516D01*
X87592926Y-67976807D01*
X87576393Y-67958361D01*
X87558501Y-67939295D01*
X87539589Y-67919854D01*
X87500063Y-67880821D01*
X87460535Y-67843212D01*
X87392342Y-67780068D01*
X87369114Y-67758434D01*
X87361406Y-67750955D01*
X87356755Y-67746026D01*
X87346950Y-67753311D01*
X87344499Y-67755218D01*
X87342027Y-67757238D01*
X87339524Y-67759407D01*
X87338258Y-67760560D01*
X87336980Y-67761766D01*
X87289342Y-67799574D01*
X87240940Y-67836752D01*
X87143272Y-67910454D01*
X87094718Y-67947597D01*
X87046825Y-67985349D01*
X86999950Y-68024019D01*
X86977006Y-68043795D01*
X86954450Y-68063916D01*
X86686973Y-68063916D01*
X86687458Y-68062940D01*
X86709266Y-68016762D01*
X86735634Y-67959273D01*
X86749556Y-67928070D01*
X86896951Y-67928070D01*
X86902341Y-67925470D01*
X86909071Y-67921460D01*
X86916955Y-67916222D01*
X86925807Y-67909937D01*
X86945672Y-67894951D01*
X86967180Y-67877958D01*
X87039891Y-67818975D01*
X87151411Y-67729860D01*
X87121631Y-67728631D01*
X87095685Y-67727317D01*
X87054063Y-67724925D01*
X87037771Y-67724089D01*
X87024081Y-67723657D01*
X87018116Y-67723630D01*
X87012686Y-67723749D01*
X87007753Y-67724030D01*
X87003278Y-67724488D01*
X86999222Y-67725138D01*
X86995547Y-67725995D01*
X86992215Y-67727075D01*
X86989188Y-67728392D01*
X86986426Y-67729963D01*
X86983891Y-67731802D01*
X86981544Y-67733924D01*
X86979348Y-67736345D01*
X86977264Y-67739079D01*
X86975252Y-67742143D01*
X86973276Y-67745551D01*
X86971296Y-67749319D01*
X86967169Y-67757994D01*
X86962566Y-67768290D01*
X86896951Y-67928070D01*
X86749556Y-67928070D01*
X86763691Y-67896390D01*
X86790565Y-67834031D01*
X86813386Y-67778112D01*
X86829283Y-67734551D01*
X86833738Y-67719254D01*
X86835385Y-67709265D01*
X86830759Y-67707119D01*
X86825914Y-67705085D01*
X86820872Y-67703154D01*
X86815656Y-67701320D01*
X86804795Y-67697913D01*
X86793510Y-67694809D01*
X86781984Y-67691950D01*
X86770397Y-67689280D01*
X86747765Y-67684280D01*
X86634343Y-67890753D01*
X86600922Y-67952990D01*
X86571867Y-68008509D01*
X86550375Y-68051828D01*
X86543463Y-68067199D01*
X86539640Y-68077465D01*
X86296225Y-68077465D01*
X86296275Y-68077224D01*
X86297608Y-68071993D01*
X86299165Y-68066819D01*
X86300951Y-68061651D01*
X86302967Y-68056439D01*
X86307704Y-68045684D01*
X86313399Y-68034152D01*
X86320075Y-68021442D01*
X86336462Y-67990887D01*
X86383503Y-67903643D01*
X86431142Y-67817303D01*
X86517176Y-67662380D01*
X87450881Y-67662380D01*
X87462842Y-67672477D01*
X87475919Y-67684199D01*
X87504736Y-67711438D01*
X87568226Y-67773554D01*
X87600158Y-67804119D01*
X87615571Y-67818335D01*
X87630386Y-67831481D01*
X87644434Y-67843286D01*
X87657541Y-67853483D01*
X87669537Y-67861801D01*
X87680251Y-67867970D01*
X87641396Y-67434010D01*
X87635506Y-67438953D01*
X87626865Y-67447408D01*
X87603001Y-67472908D01*
X87573145Y-67506624D01*
X87540635Y-67544668D01*
X87508814Y-67583153D01*
X87481021Y-67618191D01*
X87469679Y-67633203D01*
X87460596Y-67645896D01*
X87454191Y-67655784D01*
X87450881Y-67662380D01*
X86517176Y-67662380D01*
X86527392Y-67643982D01*
X86539428Y-67622753D01*
X86548864Y-67606528D01*
X86552687Y-67599648D01*
X86555956Y-67593244D01*
X86558702Y-67587061D01*
X86560958Y-67580839D01*
X86562755Y-67574321D01*
X86564125Y-67567249D01*
X86565100Y-67559365D01*
X86565354Y-67555636D01*
X86824210Y-67555636D01*
X86855684Y-67570514D01*
X86889950Y-67583139D01*
X86926546Y-67593483D01*
X86965009Y-67601514D01*
X87004879Y-67607204D01*
X87045691Y-67610522D01*
X87086986Y-67611438D01*
X87128300Y-67609923D01*
X87169171Y-67605946D01*
X87209138Y-67599478D01*
X87247738Y-67590489D01*
X87284509Y-67578948D01*
X87318989Y-67564826D01*
X87335226Y-67556788D01*
X87350717Y-67548094D01*
X87365404Y-67538739D01*
X87379230Y-67528720D01*
X87392136Y-67518034D01*
X87404065Y-67506676D01*
X87404066Y-67506676D01*
X87472597Y-67426456D01*
X87766830Y-67426456D01*
X87769636Y-67486344D01*
X87775541Y-67565522D01*
X87783318Y-67654220D01*
X87808560Y-67908796D01*
X87808559Y-67908797D01*
X87846659Y-67878592D01*
X88056465Y-67709467D01*
X88141690Y-67630386D01*
X88135108Y-67624996D01*
X88344535Y-67624996D01*
X88344679Y-67627392D01*
X88345033Y-67629756D01*
X88345596Y-67632123D01*
X88347346Y-67637011D01*
X88349921Y-67642344D01*
X88353313Y-67648409D01*
X88362514Y-67663879D01*
X88368306Y-67673858D01*
X88374881Y-67685716D01*
X88382232Y-67699740D01*
X88390350Y-67716217D01*
X88555445Y-68024702D01*
X89499325Y-67520132D01*
X89499325Y-67520131D01*
X89517782Y-67510213D01*
X89538837Y-67499580D01*
X89584552Y-67476926D01*
X89607115Y-67465282D01*
X89628086Y-67453678D01*
X89637646Y-67447951D01*
X89646415Y-67442304D01*
X89654262Y-67436761D01*
X89661056Y-67431347D01*
X89602428Y-67388895D01*
X89539882Y-67344864D01*
X89407315Y-67254130D01*
X89142230Y-67076486D01*
X88737706Y-66799056D01*
X88698215Y-66867491D01*
X88670670Y-66935217D01*
X88664620Y-66944065D01*
X88653829Y-66963511D01*
X88620538Y-67028749D01*
X88524734Y-67226502D01*
X88423515Y-67441370D01*
X88357135Y-67586247D01*
X88352879Y-67596057D01*
X88349507Y-67604304D01*
X88347009Y-67611274D01*
X88345377Y-67617254D01*
X88344883Y-67619963D01*
X88344603Y-67622531D01*
X88344535Y-67624996D01*
X88135108Y-67624996D01*
X88130451Y-67621182D01*
X88113584Y-67609059D01*
X88066408Y-67577935D01*
X88007044Y-67540767D01*
X87942377Y-67501308D01*
X87824669Y-67430531D01*
X87785396Y-67406718D01*
X87768355Y-67395626D01*
X87766975Y-67406798D01*
X87766830Y-67426456D01*
X87472597Y-67426456D01*
X87477821Y-67420340D01*
X87496337Y-67397657D01*
X87513822Y-67374998D01*
X87522013Y-67363751D01*
X87529747Y-67352597D01*
X87536959Y-67341566D01*
X87543581Y-67330686D01*
X87060631Y-67290501D01*
X87058368Y-67294780D01*
X87056316Y-67298436D01*
X87054440Y-67301545D01*
X87052706Y-67304184D01*
X87051079Y-67306429D01*
X87049524Y-67308357D01*
X87048006Y-67310044D01*
X87046491Y-67311567D01*
X87044944Y-67313001D01*
X87043329Y-67314425D01*
X87039760Y-67317544D01*
X87037735Y-67319392D01*
X87035505Y-67321535D01*
X87033033Y-67324049D01*
X87030286Y-67327011D01*
X87019847Y-67341739D01*
X87007843Y-67356700D01*
X86994539Y-67371830D01*
X86980201Y-67387069D01*
X86965094Y-67402352D01*
X86949485Y-67417619D01*
X86917822Y-67447852D01*
X86887337Y-67477269D01*
X86873201Y-67491516D01*
X86860156Y-67505371D01*
X86848469Y-67518773D01*
X86838405Y-67531660D01*
X86834065Y-67537890D01*
X86830231Y-67543968D01*
X86826934Y-67549886D01*
X86824210Y-67555636D01*
X86565354Y-67555636D01*
X86565711Y-67550412D01*
X86565990Y-67540131D01*
X86565970Y-67528266D01*
X86565158Y-67498747D01*
X86563994Y-67477669D01*
X86562177Y-67456385D01*
X86559874Y-67434928D01*
X86557250Y-67413332D01*
X86551706Y-67369863D01*
X86549117Y-67348058D01*
X86546872Y-67326252D01*
X86544774Y-67299483D01*
X86543502Y-67273710D01*
X86543303Y-67263634D01*
X86741302Y-67263634D01*
X86741462Y-67279949D01*
X86742260Y-67296609D01*
X86743656Y-67313906D01*
X86745612Y-67332133D01*
X86751047Y-67372548D01*
X86758251Y-67420196D01*
X86763320Y-67415793D01*
X86768275Y-67411274D01*
X86773145Y-67406636D01*
X86777958Y-67401877D01*
X86787535Y-67391986D01*
X86797241Y-67381584D01*
X86817978Y-67359172D01*
X86829480Y-67347126D01*
X86842050Y-67334496D01*
X86920969Y-67258253D01*
X86942165Y-67237028D01*
X86961988Y-67216342D01*
X86971079Y-67206421D01*
X86979458Y-67196897D01*
X86987005Y-67187860D01*
X86993595Y-67179396D01*
X86995394Y-67176805D01*
X86997041Y-67174072D01*
X86998542Y-67171205D01*
X86999904Y-67168211D01*
X87002234Y-67161870D01*
X87004080Y-67155108D01*
X87005493Y-67147982D01*
X87006521Y-67140552D01*
X87007214Y-67132876D01*
X87007621Y-67125011D01*
X87007792Y-67117017D01*
X87007777Y-67108951D01*
X87007383Y-67092837D01*
X87006836Y-67077137D01*
X87006531Y-67062316D01*
X87006630Y-67016746D01*
X87135786Y-67016746D01*
X87137055Y-67165016D01*
X87324515Y-67179274D01*
X87379058Y-67182547D01*
X87426637Y-67184471D01*
X87446248Y-67184734D01*
X87462235Y-67184429D01*
X87473974Y-67183479D01*
X87480835Y-67181806D01*
X87313745Y-67028891D01*
X87310596Y-67026379D01*
X87307623Y-67024092D01*
X87302114Y-67020051D01*
X87292201Y-67013120D01*
X87287431Y-67009668D01*
X87285013Y-67007823D01*
X87282542Y-67005852D01*
X87279996Y-67003720D01*
X87277351Y-67001392D01*
X87274585Y-66998832D01*
X87271675Y-66996006D01*
X87136780Y-66882041D01*
X87135786Y-67016746D01*
X87006630Y-67016746D01*
X87006817Y-66930987D01*
X87006119Y-66864768D01*
X87005143Y-66832224D01*
X87005038Y-66830062D01*
X87292220Y-66830062D01*
X87302128Y-66842608D01*
X87315833Y-66857391D01*
X87332819Y-66874081D01*
X87352569Y-66892346D01*
X87398296Y-66932275D01*
X87448882Y-66974532D01*
X87548105Y-67055434D01*
X87588479Y-67088781D01*
X87617185Y-67113861D01*
X87721095Y-67204406D01*
X87951351Y-67348406D01*
X88179935Y-67492346D01*
X88138114Y-67187280D01*
X88124139Y-67094440D01*
X88110596Y-67012827D01*
X88098405Y-66951370D01*
X88094252Y-66935407D01*
X88225213Y-66935407D01*
X88225309Y-66937089D01*
X88225504Y-66938912D01*
X88226118Y-66943032D01*
X88226910Y-66947876D01*
X88229729Y-66981367D01*
X88233671Y-67015325D01*
X88238468Y-67049590D01*
X88243851Y-67084001D01*
X88255305Y-67152623D01*
X88260839Y-67186514D01*
X88265885Y-67219911D01*
X88287120Y-67368736D01*
X88288348Y-67373890D01*
X88289355Y-67378328D01*
X88290899Y-67385372D01*
X88291529Y-67388135D01*
X88292128Y-67390494D01*
X88292743Y-67392530D01*
X88293071Y-67393451D01*
X88293421Y-67394319D01*
X88293799Y-67395146D01*
X88294210Y-67395941D01*
X88294660Y-67396713D01*
X88295156Y-67397473D01*
X88295703Y-67398229D01*
X88296308Y-67398992D01*
X88296975Y-67399772D01*
X88297712Y-67400579D01*
X88299415Y-67402310D01*
X88301465Y-67404263D01*
X88306795Y-67409151D01*
X88311975Y-67394012D01*
X88321923Y-67370140D01*
X88353385Y-67301176D01*
X88443401Y-67113246D01*
X88533021Y-66925065D01*
X88563989Y-66855788D01*
X88573615Y-66831711D01*
X88578425Y-66816337D01*
X88545063Y-66824428D01*
X88512201Y-66833535D01*
X88479707Y-66843432D01*
X88447446Y-66853890D01*
X88383098Y-66875582D01*
X88350745Y-66886361D01*
X88318095Y-66896791D01*
X88300740Y-66902108D01*
X88285627Y-66906638D01*
X88261541Y-66913771D01*
X88252272Y-66916588D01*
X88244655Y-66919051D01*
X88241420Y-66920183D01*
X88238543Y-66921267D01*
X88236006Y-66922315D01*
X88233789Y-66923343D01*
X88231875Y-66924362D01*
X88230245Y-66925387D01*
X88228880Y-66926431D01*
X88227762Y-66927508D01*
X88226874Y-66928631D01*
X88226195Y-66929813D01*
X88225708Y-66931068D01*
X88225394Y-66932410D01*
X88225235Y-66933852D01*
X88225213Y-66935407D01*
X88094252Y-66935407D01*
X88093103Y-66930990D01*
X88088485Y-66918996D01*
X87292220Y-66830062D01*
X87005038Y-66830062D01*
X87003591Y-66800326D01*
X86994369Y-66800977D01*
X86985048Y-66801479D01*
X86975658Y-66801846D01*
X86966232Y-66802094D01*
X86947396Y-66802285D01*
X86928791Y-66802166D01*
X86916464Y-66801950D01*
X86905917Y-66801670D01*
X86889522Y-66801097D01*
X86883356Y-66800891D01*
X86878332Y-66800797D01*
X86876199Y-66800806D01*
X86874292Y-66800859D01*
X86872590Y-66800961D01*
X86871074Y-66801119D01*
X86869725Y-66801338D01*
X86868522Y-66801623D01*
X86867445Y-66801979D01*
X86866474Y-66802413D01*
X86865590Y-66802929D01*
X86864772Y-66803533D01*
X86864001Y-66804231D01*
X86863257Y-66805027D01*
X86862519Y-66805928D01*
X86861769Y-66806939D01*
X86860149Y-66809312D01*
X86858237Y-66812190D01*
X86855876Y-66815616D01*
X86767676Y-67110376D01*
X86761325Y-67134477D01*
X86755925Y-67156579D01*
X86751437Y-67176977D01*
X86747821Y-67195962D01*
X86745039Y-67213827D01*
X86743051Y-67230866D01*
X86741818Y-67247371D01*
X86741302Y-67263634D01*
X86543303Y-67263634D01*
X86543011Y-67248877D01*
X86543256Y-67224930D01*
X86544192Y-67201814D01*
X86545774Y-67179476D01*
X86550699Y-67136910D01*
X86557670Y-67096797D01*
X86566328Y-67058698D01*
X86576314Y-67022178D01*
X86587270Y-66986799D01*
X86633599Y-66847959D01*
X86644012Y-66811734D01*
X86653239Y-66774029D01*
X86660920Y-66734407D01*
X86666698Y-66692432D01*
X86669354Y-66684918D01*
X86673216Y-66677246D01*
X87162630Y-66677246D01*
X87193505Y-66679998D01*
X87224627Y-66683243D01*
X87287311Y-66690734D01*
X87350074Y-66698762D01*
X87412310Y-66706371D01*
X87666352Y-66738135D01*
X87730724Y-66745594D01*
X87794725Y-66752097D01*
X87857997Y-66757265D01*
X87920180Y-66760716D01*
X87817588Y-66661415D01*
X87748206Y-66592586D01*
X87731766Y-66576586D01*
X87941175Y-66576586D01*
X87953342Y-66586699D01*
X87966168Y-66598009D01*
X87993390Y-66623607D01*
X88022029Y-66652151D01*
X88051273Y-66682412D01*
X88158065Y-66796056D01*
X88163999Y-66795432D01*
X88171685Y-66794091D01*
X88180853Y-66792121D01*
X88191232Y-66789608D01*
X88214539Y-66783298D01*
X88239441Y-66775854D01*
X88263774Y-66767967D01*
X88285370Y-66760328D01*
X88294108Y-66756956D01*
X88932930Y-66756956D01*
X88989315Y-66798401D01*
X89046640Y-66838825D01*
X89104666Y-66878510D01*
X89163149Y-66917743D01*
X89280528Y-66995984D01*
X89338940Y-67035561D01*
X89396845Y-67075821D01*
X89757329Y-67320631D01*
X89778135Y-67335649D01*
X89786737Y-67341752D01*
X89794473Y-67346998D01*
X89801594Y-67351449D01*
X89808352Y-67355163D01*
X89814997Y-67358202D01*
X89821782Y-67360626D01*
X89828956Y-67362496D01*
X89836772Y-67363870D01*
X89845481Y-67364811D01*
X89855333Y-67365378D01*
X89866581Y-67365632D01*
X89879474Y-67365633D01*
X89911204Y-67365117D01*
X90256320Y-67358601D01*
X90251928Y-67336737D01*
X90243867Y-67307906D01*
X90218571Y-67233139D01*
X90184107Y-67141888D01*
X90144150Y-67041739D01*
X90002860Y-66703941D01*
X89948792Y-66713021D01*
X89890606Y-66720215D01*
X89828819Y-66725762D01*
X89763948Y-66729901D01*
X89627019Y-66734917D01*
X89483950Y-66737176D01*
X89195925Y-66741087D01*
X89059232Y-66746570D01*
X88994524Y-66751030D01*
X88932930Y-66756956D01*
X88294108Y-66756956D01*
X88294466Y-66756818D01*
X88302066Y-66753629D01*
X88307899Y-66750848D01*
X88311695Y-66748561D01*
X88445415Y-66706641D01*
X88103065Y-66618341D01*
X88807261Y-66618341D01*
X89720020Y-66579342D01*
X89806605Y-66574231D01*
X89889905Y-66570406D01*
X89882175Y-66558656D01*
X89869179Y-66541302D01*
X89830191Y-66492843D01*
X89778546Y-66431158D01*
X89719849Y-66362376D01*
X89526620Y-66138836D01*
X89471651Y-66072248D01*
X89462643Y-66062276D01*
X89454530Y-66054445D01*
X89450654Y-66051249D01*
X89446815Y-66048488D01*
X89442951Y-66046131D01*
X89438999Y-66044142D01*
X89434897Y-66042490D01*
X89430583Y-66041141D01*
X89421069Y-66039219D01*
X89409957Y-66038112D01*
X89396749Y-66037555D01*
X89362051Y-66037029D01*
X89339564Y-66036531D01*
X89312986Y-66035522D01*
X89001890Y-66024211D01*
X88989326Y-66060241D01*
X88807261Y-66618341D01*
X88103065Y-66618341D01*
X87941175Y-66576586D01*
X87731766Y-66576586D01*
X87722144Y-66567222D01*
X87699795Y-66546624D01*
X87679630Y-66529842D01*
X87660118Y-66515924D01*
X87639731Y-66503921D01*
X87616939Y-66492882D01*
X87590211Y-66481856D01*
X87558018Y-66469893D01*
X87344005Y-66393656D01*
X87291378Y-66371168D01*
X87284597Y-66368667D01*
X87277855Y-66366461D01*
X87271176Y-66364620D01*
X87264585Y-66363211D01*
X87258108Y-66362302D01*
X87254920Y-66362057D01*
X87251770Y-66361962D01*
X87248661Y-66362027D01*
X87245596Y-66362259D01*
X87242578Y-66362668D01*
X87239610Y-66363261D01*
X87235921Y-66380422D01*
X87231338Y-66399080D01*
X87220128Y-66439888D01*
X87194001Y-66528451D01*
X87181634Y-66572197D01*
X87171433Y-66612915D01*
X87167543Y-66631512D01*
X87164673Y-66648599D01*
X87162982Y-66663928D01*
X87162630Y-66677246D01*
X86673216Y-66677246D01*
X86673970Y-66675748D01*
X86684866Y-66658686D01*
X86982580Y-66658686D01*
X87020946Y-66661316D01*
X87040280Y-66591636D01*
X87036902Y-66594462D01*
X87033287Y-66597688D01*
X87029482Y-66601265D01*
X87025529Y-66605150D01*
X87017356Y-66613650D01*
X87009120Y-66622816D01*
X87001173Y-66632275D01*
X86997418Y-66636998D01*
X86993867Y-66641654D01*
X86990564Y-66646198D01*
X86987552Y-66650582D01*
X86984876Y-66654761D01*
X86982580Y-66658686D01*
X86684866Y-66658686D01*
X86688547Y-66652922D01*
X86709357Y-66624918D01*
X86735327Y-66592698D01*
X86765385Y-66557226D01*
X86798460Y-66519463D01*
X86869369Y-66440917D01*
X87000207Y-66298701D01*
X87042981Y-66250436D01*
X87054954Y-66235383D01*
X87058118Y-66230547D01*
X87059222Y-66227667D01*
X87054399Y-66216102D01*
X87040561Y-66191472D01*
X86990464Y-66109813D01*
X86832962Y-65864463D01*
X86689738Y-65644401D01*
X86918581Y-65644401D01*
X86931055Y-65672582D01*
X86946570Y-65703161D01*
X86964730Y-65735785D01*
X86985136Y-65770099D01*
X87031102Y-65842383D01*
X87081292Y-65917184D01*
X87181638Y-66063014D01*
X87225442Y-66128383D01*
X87260765Y-66184946D01*
X87265091Y-66191208D01*
X87270762Y-66197612D01*
X87285814Y-66210772D01*
X87305262Y-66224272D01*
X87328445Y-66237957D01*
X87354704Y-66251675D01*
X87383380Y-66265269D01*
X87413812Y-66278588D01*
X87445341Y-66291475D01*
X87509052Y-66315342D01*
X87569235Y-66335636D01*
X87620614Y-66351125D01*
X87657910Y-66360576D01*
X87647591Y-65933651D01*
X87557103Y-65895048D01*
X87466477Y-65857585D01*
X87284722Y-65785199D01*
X86918581Y-65644401D01*
X86689738Y-65644401D01*
X86547687Y-65426142D01*
X86487505Y-65325300D01*
X86469160Y-65295547D01*
X86451774Y-65268534D01*
X86443798Y-65256767D01*
X86436489Y-65246540D01*
X86429989Y-65238136D01*
X86424443Y-65231842D01*
X86428282Y-65205987D01*
X86991206Y-65423782D01*
X87272009Y-65534464D01*
X87550328Y-65648677D01*
X87550079Y-65644078D01*
X87746618Y-65644078D01*
X87747414Y-65743369D01*
X87751577Y-65853954D01*
X87758079Y-65970556D01*
X87786900Y-66391591D01*
X87870985Y-66418906D01*
X87960458Y-66444040D01*
X88053837Y-66467448D01*
X88149644Y-66489581D01*
X88342619Y-66531839D01*
X88436828Y-66552870D01*
X88527544Y-66574441D01*
X88508962Y-66550057D01*
X88092369Y-66003387D01*
X87994054Y-65877501D01*
X87965587Y-65842234D01*
X87935894Y-65803593D01*
X87874132Y-65720509D01*
X87842714Y-65678225D01*
X87811373Y-65636885D01*
X87780433Y-65597569D01*
X87750220Y-65561356D01*
X87747805Y-65600316D01*
X87746618Y-65644078D01*
X87550079Y-65644078D01*
X87545117Y-65552367D01*
X87922655Y-65552367D01*
X87965455Y-65614653D01*
X88055045Y-65735433D01*
X88311574Y-66071158D01*
X88566193Y-66396909D01*
X88653397Y-66505223D01*
X88692854Y-66550056D01*
X88881419Y-65993967D01*
X88853044Y-65980175D01*
X88822664Y-65965857D01*
X88792041Y-65951771D01*
X88762934Y-65938677D01*
X88316308Y-65729788D01*
X88063618Y-65612590D01*
X87973015Y-65572287D01*
X87922655Y-65552367D01*
X87545117Y-65552367D01*
X87527252Y-65222177D01*
X87526832Y-65120262D01*
X87536839Y-65123423D01*
G37*
D11*
X122134980Y-48587066D02*
X121420695Y-48587066D01*
X121420695Y-48587066D02*
X121277838Y-48539447D01*
X121277838Y-48539447D02*
X121182600Y-48444209D01*
X121182600Y-48444209D02*
X121134980Y-48301352D01*
X121134980Y-48301352D02*
X121134980Y-48206114D01*
X122039742Y-49015638D02*
X122087361Y-49063257D01*
X122087361Y-49063257D02*
X122134980Y-49158495D01*
X122134980Y-49158495D02*
X122134980Y-49396590D01*
X122134980Y-49396590D02*
X122087361Y-49491828D01*
X122087361Y-49491828D02*
X122039742Y-49539447D01*
X122039742Y-49539447D02*
X121944504Y-49587066D01*
X121944504Y-49587066D02*
X121849266Y-49587066D01*
X121849266Y-49587066D02*
X121706409Y-49539447D01*
X121706409Y-49539447D02*
X121134980Y-48968019D01*
X121134980Y-48968019D02*
X121134980Y-49587066D01*
X122490580Y-70431066D02*
X121776295Y-70431066D01*
X121776295Y-70431066D02*
X121633438Y-70383447D01*
X121633438Y-70383447D02*
X121538200Y-70288209D01*
X121538200Y-70288209D02*
X121490580Y-70145352D01*
X121490580Y-70145352D02*
X121490580Y-70050114D01*
X121490580Y-71431066D02*
X121490580Y-70859638D01*
X121490580Y-71145352D02*
X122490580Y-71145352D01*
X122490580Y-71145352D02*
X122347723Y-71050114D01*
X122347723Y-71050114D02*
X122252485Y-70954876D01*
X122252485Y-70954876D02*
X122204866Y-70859638D01*
X106660961Y-59173257D02*
X106565723Y-59125638D01*
X106565723Y-59125638D02*
X106470485Y-59030400D01*
X106470485Y-59030400D02*
X106327628Y-58887542D01*
X106327628Y-58887542D02*
X106232390Y-58839923D01*
X106232390Y-58839923D02*
X106137152Y-58839923D01*
X106184771Y-59078019D02*
X106089533Y-59030400D01*
X106089533Y-59030400D02*
X105994295Y-58935161D01*
X105994295Y-58935161D02*
X105946676Y-58744685D01*
X105946676Y-58744685D02*
X105946676Y-58411352D01*
X105946676Y-58411352D02*
X105994295Y-58220876D01*
X105994295Y-58220876D02*
X106089533Y-58125638D01*
X106089533Y-58125638D02*
X106184771Y-58078019D01*
X106184771Y-58078019D02*
X106375247Y-58078019D01*
X106375247Y-58078019D02*
X106470485Y-58125638D01*
X106470485Y-58125638D02*
X106565723Y-58220876D01*
X106565723Y-58220876D02*
X106613342Y-58411352D01*
X106613342Y-58411352D02*
X106613342Y-58744685D01*
X106613342Y-58744685D02*
X106565723Y-58935161D01*
X106565723Y-58935161D02*
X106470485Y-59030400D01*
X106470485Y-59030400D02*
X106375247Y-59078019D01*
X106375247Y-59078019D02*
X106184771Y-59078019D01*
X106994295Y-58173257D02*
X107041914Y-58125638D01*
X107041914Y-58125638D02*
X107137152Y-58078019D01*
X107137152Y-58078019D02*
X107375247Y-58078019D01*
X107375247Y-58078019D02*
X107470485Y-58125638D01*
X107470485Y-58125638D02*
X107518104Y-58173257D01*
X107518104Y-58173257D02*
X107565723Y-58268495D01*
X107565723Y-58268495D02*
X107565723Y-58363733D01*
X107565723Y-58363733D02*
X107518104Y-58506590D01*
X107518104Y-58506590D02*
X106946676Y-59078019D01*
X106946676Y-59078019D02*
X107565723Y-59078019D01*
X77367047Y-62837219D02*
X76795619Y-62837219D01*
X77081333Y-62837219D02*
X77081333Y-61837219D01*
X77081333Y-61837219D02*
X76986095Y-61980076D01*
X76986095Y-61980076D02*
X76890857Y-62075314D01*
X76890857Y-62075314D02*
X76795619Y-62122933D01*
X77795619Y-62741980D02*
X77843238Y-62789600D01*
X77843238Y-62789600D02*
X77795619Y-62837219D01*
X77795619Y-62837219D02*
X77748000Y-62789600D01*
X77748000Y-62789600D02*
X77795619Y-62741980D01*
X77795619Y-62741980D02*
X77795619Y-62837219D01*
X78224190Y-61932457D02*
X78271809Y-61884838D01*
X78271809Y-61884838D02*
X78367047Y-61837219D01*
X78367047Y-61837219D02*
X78605142Y-61837219D01*
X78605142Y-61837219D02*
X78700380Y-61884838D01*
X78700380Y-61884838D02*
X78747999Y-61932457D01*
X78747999Y-61932457D02*
X78795618Y-62027695D01*
X78795618Y-62027695D02*
X78795618Y-62122933D01*
X78795618Y-62122933D02*
X78747999Y-62265790D01*
X78747999Y-62265790D02*
X78176571Y-62837219D01*
X78176571Y-62837219D02*
X78795618Y-62837219D01*
X79652761Y-62170552D02*
X79652761Y-62837219D01*
X79224190Y-62170552D02*
X79224190Y-62694361D01*
X79224190Y-62694361D02*
X79271809Y-62789600D01*
X79271809Y-62789600D02*
X79367047Y-62837219D01*
X79367047Y-62837219D02*
X79509904Y-62837219D01*
X79509904Y-62837219D02*
X79605142Y-62789600D01*
X79605142Y-62789600D02*
X79652761Y-62741980D01*
X80128952Y-62837219D02*
X80128952Y-61837219D01*
X80128952Y-62313409D02*
X80700380Y-62313409D01*
X80700380Y-62837219D02*
X80700380Y-61837219D01*
X81700380Y-62837219D02*
X81128952Y-62837219D01*
X81414666Y-62837219D02*
X81414666Y-61837219D01*
X81414666Y-61837219D02*
X81319428Y-61980076D01*
X81319428Y-61980076D02*
X81224190Y-62075314D01*
X81224190Y-62075314D02*
X81128952Y-62122933D01*
X92902256Y-46257380D02*
X92854637Y-46305000D01*
X92854637Y-46305000D02*
X92711780Y-46352619D01*
X92711780Y-46352619D02*
X92616542Y-46352619D01*
X92616542Y-46352619D02*
X92473685Y-46305000D01*
X92473685Y-46305000D02*
X92378447Y-46209761D01*
X92378447Y-46209761D02*
X92330828Y-46114523D01*
X92330828Y-46114523D02*
X92283209Y-45924047D01*
X92283209Y-45924047D02*
X92283209Y-45781190D01*
X92283209Y-45781190D02*
X92330828Y-45590714D01*
X92330828Y-45590714D02*
X92378447Y-45495476D01*
X92378447Y-45495476D02*
X92473685Y-45400238D01*
X92473685Y-45400238D02*
X92616542Y-45352619D01*
X92616542Y-45352619D02*
X92711780Y-45352619D01*
X92711780Y-45352619D02*
X92854637Y-45400238D01*
X92854637Y-45400238D02*
X92902256Y-45447857D01*
X93473685Y-46352619D02*
X93378447Y-46305000D01*
X93378447Y-46305000D02*
X93330828Y-46257380D01*
X93330828Y-46257380D02*
X93283209Y-46162142D01*
X93283209Y-46162142D02*
X93283209Y-45876428D01*
X93283209Y-45876428D02*
X93330828Y-45781190D01*
X93330828Y-45781190D02*
X93378447Y-45733571D01*
X93378447Y-45733571D02*
X93473685Y-45685952D01*
X93473685Y-45685952D02*
X93616542Y-45685952D01*
X93616542Y-45685952D02*
X93711780Y-45733571D01*
X93711780Y-45733571D02*
X93759399Y-45781190D01*
X93759399Y-45781190D02*
X93807018Y-45876428D01*
X93807018Y-45876428D02*
X93807018Y-46162142D01*
X93807018Y-46162142D02*
X93759399Y-46257380D01*
X93759399Y-46257380D02*
X93711780Y-46305000D01*
X93711780Y-46305000D02*
X93616542Y-46352619D01*
X93616542Y-46352619D02*
X93473685Y-46352619D01*
X94664161Y-45685952D02*
X94664161Y-46352619D01*
X94235590Y-45685952D02*
X94235590Y-46209761D01*
X94235590Y-46209761D02*
X94283209Y-46305000D01*
X94283209Y-46305000D02*
X94378447Y-46352619D01*
X94378447Y-46352619D02*
X94521304Y-46352619D01*
X94521304Y-46352619D02*
X94616542Y-46305000D01*
X94616542Y-46305000D02*
X94664161Y-46257380D01*
X94997495Y-45685952D02*
X95378447Y-45685952D01*
X95140352Y-45352619D02*
X95140352Y-46209761D01*
X95140352Y-46209761D02*
X95187971Y-46305000D01*
X95187971Y-46305000D02*
X95283209Y-46352619D01*
X95283209Y-46352619D02*
X95378447Y-46352619D01*
X96235590Y-46352619D02*
X95664162Y-46352619D01*
X95949876Y-46352619D02*
X95949876Y-45352619D01*
X95949876Y-45352619D02*
X95854638Y-45495476D01*
X95854638Y-45495476D02*
X95759400Y-45590714D01*
X95759400Y-45590714D02*
X95664162Y-45638333D01*
X95764361Y-57674657D02*
X95669123Y-57627038D01*
X95669123Y-57627038D02*
X95573885Y-57531800D01*
X95573885Y-57531800D02*
X95431028Y-57388942D01*
X95431028Y-57388942D02*
X95335790Y-57341323D01*
X95335790Y-57341323D02*
X95240552Y-57341323D01*
X95288171Y-57579419D02*
X95192933Y-57531800D01*
X95192933Y-57531800D02*
X95097695Y-57436561D01*
X95097695Y-57436561D02*
X95050076Y-57246085D01*
X95050076Y-57246085D02*
X95050076Y-56912752D01*
X95050076Y-56912752D02*
X95097695Y-56722276D01*
X95097695Y-56722276D02*
X95192933Y-56627038D01*
X95192933Y-56627038D02*
X95288171Y-56579419D01*
X95288171Y-56579419D02*
X95478647Y-56579419D01*
X95478647Y-56579419D02*
X95573885Y-56627038D01*
X95573885Y-56627038D02*
X95669123Y-56722276D01*
X95669123Y-56722276D02*
X95716742Y-56912752D01*
X95716742Y-56912752D02*
X95716742Y-57246085D01*
X95716742Y-57246085D02*
X95669123Y-57436561D01*
X95669123Y-57436561D02*
X95573885Y-57531800D01*
X95573885Y-57531800D02*
X95478647Y-57579419D01*
X95478647Y-57579419D02*
X95288171Y-57579419D01*
X96669123Y-57579419D02*
X96097695Y-57579419D01*
X96383409Y-57579419D02*
X96383409Y-56579419D01*
X96383409Y-56579419D02*
X96288171Y-56722276D01*
X96288171Y-56722276D02*
X96192933Y-56817514D01*
X96192933Y-56817514D02*
X96097695Y-56865133D01*
X99803057Y-67161580D02*
X99755438Y-67209200D01*
X99755438Y-67209200D02*
X99612581Y-67256819D01*
X99612581Y-67256819D02*
X99517343Y-67256819D01*
X99517343Y-67256819D02*
X99374486Y-67209200D01*
X99374486Y-67209200D02*
X99279248Y-67113961D01*
X99279248Y-67113961D02*
X99231629Y-67018723D01*
X99231629Y-67018723D02*
X99184010Y-66828247D01*
X99184010Y-66828247D02*
X99184010Y-66685390D01*
X99184010Y-66685390D02*
X99231629Y-66494914D01*
X99231629Y-66494914D02*
X99279248Y-66399676D01*
X99279248Y-66399676D02*
X99374486Y-66304438D01*
X99374486Y-66304438D02*
X99517343Y-66256819D01*
X99517343Y-66256819D02*
X99612581Y-66256819D01*
X99612581Y-66256819D02*
X99755438Y-66304438D01*
X99755438Y-66304438D02*
X99803057Y-66352057D01*
X100231629Y-67256819D02*
X100231629Y-66590152D01*
X100231629Y-66256819D02*
X100184010Y-66304438D01*
X100184010Y-66304438D02*
X100231629Y-66352057D01*
X100231629Y-66352057D02*
X100279248Y-66304438D01*
X100279248Y-66304438D02*
X100231629Y-66256819D01*
X100231629Y-66256819D02*
X100231629Y-66352057D01*
X100707819Y-66590152D02*
X100707819Y-67256819D01*
X100707819Y-66685390D02*
X100755438Y-66637771D01*
X100755438Y-66637771D02*
X100850676Y-66590152D01*
X100850676Y-66590152D02*
X100993533Y-66590152D01*
X100993533Y-66590152D02*
X101088771Y-66637771D01*
X101088771Y-66637771D02*
X101136390Y-66733009D01*
X101136390Y-66733009D02*
X101136390Y-67256819D01*
X102136390Y-67256819D02*
X101564962Y-67256819D01*
X101850676Y-67256819D02*
X101850676Y-66256819D01*
X101850676Y-66256819D02*
X101755438Y-66399676D01*
X101755438Y-66399676D02*
X101660200Y-66494914D01*
X101660200Y-66494914D02*
X101564962Y-66542533D01*
D12*
%TO.C,J2*%
X107442000Y-40081200D02*
X107442000Y-55575200D01*
X107442000Y-55575200D02*
X120294400Y-55575200D01*
X120294400Y-40081200D02*
X107442000Y-40081200D01*
X120294400Y-55575200D02*
X120294400Y-40081200D01*
D13*
X122650001Y-54138200D02*
G75*
G02*
X121888001Y-54138200I-381000J0D01*
G01*
X121888001Y-54138200D02*
G75*
G02*
X122650001Y-54138200I381000J0D01*
G01*
D12*
%TO.C,J1*%
X107442000Y-62369700D02*
X107442000Y-77863700D01*
X107442000Y-77863700D02*
X120294400Y-77863700D01*
X120294400Y-62369700D02*
X107442000Y-62369700D01*
X120294400Y-77863700D02*
X120294400Y-62369700D01*
D13*
X105150001Y-73926700D02*
G75*
G02*
X104388001Y-73926700I-381000J0D01*
G01*
X104388001Y-73926700D02*
G75*
G02*
X105150001Y-73926700I381000J0D01*
G01*
D14*
%TO.C,Q2*%
X101120801Y-58093201D02*
X102370801Y-58093201D01*
X101120801Y-58343201D02*
X101120801Y-58093201D01*
X101120801Y-61693199D02*
X101120801Y-61443197D01*
X101120801Y-61693199D02*
X101370803Y-61693199D01*
X104470797Y-58093201D02*
X104720799Y-58093201D01*
X104470797Y-61693199D02*
X104720799Y-61693199D01*
X104720799Y-58343203D02*
X104720799Y-58093201D01*
X104720799Y-61693199D02*
X104720799Y-61443197D01*
D12*
%TO.C,1.2uH1*%
X76250800Y-46977300D02*
X76250800Y-60947300D01*
X76250800Y-60947300D02*
X80020160Y-60947300D01*
X80020160Y-46977300D02*
X76250800Y-46977300D01*
X85638640Y-60947300D02*
X89408000Y-60947300D01*
X89408000Y-46977300D02*
X85638640Y-46977300D01*
X89408000Y-60947300D02*
X89408000Y-46977300D01*
X82905600Y-62090300D02*
G75*
G02*
X82753200Y-62090300I-76200J0D01*
G01*
X82753200Y-62090300D02*
G75*
G02*
X82905600Y-62090300I76200J0D01*
G01*
%TO.C,Cout1*%
X95597200Y-42498000D02*
X95597200Y-41736000D01*
X95978200Y-42117000D02*
X95216200Y-42117000D01*
X97215700Y-42354500D02*
X97215700Y-51117500D01*
X97215700Y-51117500D02*
X100515160Y-51117500D01*
X100515160Y-42354500D02*
X97215700Y-42354500D01*
X102679240Y-51117500D02*
X105978700Y-51117500D01*
X105978700Y-42354500D02*
X102679240Y-42354500D01*
X105978700Y-51117500D02*
X105978700Y-42354500D01*
D14*
%TO.C,Q1*%
X97554400Y-56528201D02*
X98429399Y-56528201D01*
X97554400Y-56628201D02*
X97554400Y-56528201D01*
X97554400Y-58828201D02*
X97554400Y-58728201D01*
X97554400Y-58828201D02*
X97704399Y-58828201D01*
X99704401Y-56528201D02*
X99854400Y-56528201D01*
X99704401Y-58828201D02*
X99854400Y-58828201D01*
X99854400Y-56628201D02*
X99854400Y-56528201D01*
X99854400Y-58828201D02*
X99854400Y-58728201D01*
D12*
%TO.C,Cin1*%
X102793800Y-64455250D02*
X102793800Y-65567350D01*
X105740200Y-65567350D02*
X105740200Y-64455250D01*
X104343200Y-67957700D02*
G75*
G02*
X104190800Y-67957700I-76200J0D01*
G01*
X104190800Y-67957700D02*
G75*
G02*
X104343200Y-67957700I76200J0D01*
G01*
%TD*%
M02*
