%TF.GenerationSoftware,KiCad,Pcbnew,9.0.6*%
%TF.CreationDate,2026-03-06T01:43:04-06:00*%
%TF.ProjectId,IRIS_Converter,49524953-5f43-46f6-9e76-65727465722e,rev?*%
%TF.SameCoordinates,Original*%
%TF.FileFunction,Copper,L1,Top*%
%TF.FilePolarity,Positive*%
%FSLAX46Y46*%
G04 Gerber Fmt 4.6, Leading zero omitted, Abs format (unit mm)*
G04 Created by KiCad (PCBNEW 9.0.6) date 2026-03-06 01:43:04*
%MOMM*%
%LPD*%
G01*
G04 APERTURE LIST*
%TA.AperFunction,ComponentPad*%
%ADD10C,2.463800*%
%TD*%
%TA.AperFunction,SMDPad,CuDef*%
%ADD11R,0.439999X0.750001*%
%TD*%
%TA.AperFunction,SMDPad,CuDef*%
%ADD12R,2.550000X2.500000*%
%TD*%
%TA.AperFunction,ComponentPad*%
%ADD13C,0.499999*%
%TD*%
%TA.AperFunction,SMDPad,CuDef*%
%ADD14R,4.953000X3.225800*%
%TD*%
%TA.AperFunction,SMDPad,CuDef*%
%ADD15R,1.498600X3.302000*%
%TD*%
%TA.AperFunction,SMDPad,CuDef*%
%ADD16R,0.299999X0.449999*%
%TD*%
%TA.AperFunction,SMDPad,CuDef*%
%ADD17R,0.299999X0.750001*%
%TD*%
%TA.AperFunction,SMDPad,CuDef*%
%ADD18R,0.950001X1.000000*%
%TD*%
%TA.AperFunction,SMDPad,CuDef*%
%ADD19R,2.692400X1.244600*%
%TD*%
%TA.AperFunction,ViaPad*%
%ADD20C,0.600000*%
%TD*%
%TA.AperFunction,ViaPad*%
%ADD21C,1.000000*%
%TD*%
%TA.AperFunction,ViaPad*%
%ADD22C,0.800000*%
%TD*%
%TA.AperFunction,Conductor*%
%ADD23C,0.400000*%
%TD*%
%TA.AperFunction,Conductor*%
%ADD24C,0.300000*%
%TD*%
G04 APERTURE END LIST*
D10*
%TO.P,J2,1,1*%
%TO.N,GND*%
X116269001Y-47638200D03*
%TO.P,J2,2,2*%
%TO.N,/Vout*%
X116269001Y-40018200D03*
%TD*%
%TO.P,J1,1,1*%
%TO.N,/Vin*%
X116269001Y-73926700D03*
%TO.P,J1,2,2*%
%TO.N,GND*%
X116269001Y-66306700D03*
%TD*%
D11*
%TO.P,Q2,1*%
%TO.N,/SW*%
X104779600Y-61036200D03*
%TO.P,Q2,2*%
X104129599Y-61036200D03*
%TO.P,Q2,3*%
X103479600Y-61036200D03*
%TO.P,Q2,4*%
%TO.N,Net-(U1-HO)*%
X102829599Y-61036200D03*
%TO.P,Q2,5*%
%TO.N,/Vin*%
X102829599Y-64086202D03*
%TO.P,Q2,6*%
X103479597Y-64086202D03*
%TO.P,Q2,7*%
X104129599Y-64086202D03*
%TO.P,Q2,8*%
X104779597Y-64086202D03*
D12*
%TO.P,Q2,9*%
X103804598Y-63211202D03*
D13*
%TO.P,Q2,V*%
X103804598Y-62349200D03*
X104779597Y-62787200D03*
X102829599Y-62787200D03*
X103804598Y-63225200D03*
X104779597Y-63663200D03*
X102829599Y-63663200D03*
X103804598Y-64101203D03*
%TD*%
D14*
%TO.P,1.2uH1,1,1*%
%TO.N,/SW*%
X82829400Y-57359800D03*
%TO.P,1.2uH1,2,2*%
%TO.N,/Vout*%
X82829400Y-46564800D03*
%TD*%
D15*
%TO.P,Cout1,1*%
%TO.N,/Vout*%
X101597200Y-39281600D03*
%TO.P,Cout1,2*%
%TO.N,GND*%
X101597200Y-46190400D03*
%TD*%
D16*
%TO.P,Q1,1*%
%TO.N,/SW*%
X103484800Y-60045600D03*
%TO.P,Q1,2*%
X104134801Y-60045600D03*
%TO.P,Q1,3*%
%TO.N,Net-(U1-LO)*%
X104784800Y-60045600D03*
%TO.P,Q1,4*%
%TO.N,GND*%
X104784800Y-58095599D03*
%TO.P,Q1,5*%
%TO.N,/SW*%
X104134801Y-58095599D03*
%TO.P,Q1,6*%
X103484800Y-58095599D03*
D17*
%TO.P,Q1,7*%
%TO.N,GND*%
X104784802Y-58975600D03*
D18*
%TO.P,Q1,8*%
%TO.N,/SW*%
X103809800Y-59070601D03*
%TD*%
D19*
%TO.P,Cin1,1*%
%TO.N,/Vin*%
X107492800Y-64541400D03*
%TO.P,Cin1,2*%
%TO.N,GND*%
X107492800Y-61569600D03*
%TD*%
D20*
%TO.N,GND*%
X129438400Y-65074800D03*
X121996200Y-56896000D03*
X91897200Y-48768000D03*
X125400000Y-63900000D03*
X99669600Y-48705000D03*
X110524600Y-47786800D03*
X91897200Y-51816000D03*
X109753400Y-60985400D03*
X74269600Y-69494400D03*
X125400000Y-68599000D03*
X110550000Y-45450000D03*
X126568400Y-65068400D03*
X109330800Y-46618400D03*
X126593800Y-68624400D03*
X113944400Y-52832000D03*
X77724000Y-69519800D03*
X126568400Y-67405200D03*
X109356200Y-50149000D03*
X95453200Y-51816000D03*
X117856000Y-56896000D03*
X91897200Y-45262800D03*
X110550000Y-50174400D03*
X117856000Y-60960000D03*
X125374600Y-66236800D03*
X80848200Y-75996800D03*
X80873600Y-69519800D03*
X100685600Y-48705000D03*
X129438400Y-60985400D03*
X125374600Y-65068400D03*
X109753400Y-56921400D03*
X109356200Y-45450000D03*
X109330800Y-47786800D03*
X126593800Y-63900000D03*
X110524600Y-48955200D03*
X103505000Y-48705000D03*
X118008400Y-52832000D03*
X109905800Y-52857400D03*
X102565200Y-48705000D03*
X129438400Y-52857400D03*
X77698600Y-72821800D03*
X126009400Y-52832000D03*
X103505000Y-47765200D03*
X126568400Y-66236800D03*
X113792000Y-56896000D03*
X101600000Y-48705000D03*
X126009400Y-56896000D03*
X126009400Y-60960000D03*
X95453200Y-45262800D03*
X121996200Y-60960000D03*
X99695000Y-47739800D03*
X95453200Y-48768000D03*
X90576400Y-72898000D03*
X125374600Y-67430600D03*
X129438400Y-56921400D03*
X110524600Y-46618400D03*
X129514600Y-49047400D03*
X80848200Y-72821800D03*
X109330800Y-48980600D03*
X121996200Y-52832000D03*
X126085600Y-49022000D03*
X113792000Y-60960000D03*
%TO.N,Net-(U1-PGOOD)*%
X93980000Y-63855600D03*
X88255000Y-66370200D03*
%TO.N,/EN{slash}UVLO*%
X92786200Y-76276200D03*
X89411100Y-72291500D03*
%TO.N,Net-(U1-HO)*%
X101015800Y-61036200D03*
X100990400Y-62179200D03*
D21*
X93573600Y-71221600D03*
D20*
%TO.N,Net-(U1-LO)*%
X105714800Y-60045600D03*
X106730800Y-60045600D03*
D21*
X93693065Y-67429465D03*
D20*
%TO.N,/Vout*%
X98577400Y-37656000D03*
X103555800Y-37630600D03*
X98602800Y-36640000D03*
X101676200Y-36640000D03*
X104673400Y-37630600D03*
X109407000Y-37220400D03*
D22*
X83845400Y-65532000D03*
D20*
X84988400Y-42164000D03*
X109432400Y-42021000D03*
D22*
X83845400Y-64363600D03*
D20*
X103581200Y-36640000D03*
X109432400Y-40776400D03*
X110397600Y-39557200D03*
D22*
X81838800Y-64389000D03*
X79781400Y-65532000D03*
X82854800Y-64363600D03*
D20*
X82829400Y-42164000D03*
X109407000Y-38363400D03*
X81661000Y-43154600D03*
X104698800Y-36640000D03*
X99745800Y-36640000D03*
D22*
X80848200Y-64389000D03*
D20*
X83921600Y-42164000D03*
X80645000Y-42189400D03*
D22*
X79806800Y-64389000D03*
D20*
X110372200Y-38363400D03*
X102641400Y-36640000D03*
X80645000Y-43154600D03*
X84988400Y-43129200D03*
D22*
X81838800Y-65532000D03*
D20*
X110397600Y-42021000D03*
X110372200Y-37220400D03*
X100761800Y-36640000D03*
D22*
X80797400Y-65532000D03*
D20*
X82829400Y-43129200D03*
D22*
X82854800Y-65532000D03*
D20*
X99720400Y-37656000D03*
X110397600Y-40776400D03*
X109432400Y-39557200D03*
X83921600Y-43129200D03*
X81661000Y-42189400D03*
%TO.N,/Vin*%
X104013000Y-66725800D03*
X109400000Y-72542400D03*
D22*
X100025200Y-74371200D03*
D20*
X102971600Y-65786000D03*
X109400000Y-73660000D03*
D22*
X105130600Y-74345800D03*
X98247200Y-74371200D03*
D20*
X110568400Y-74803000D03*
D22*
X100025200Y-76301600D03*
D20*
X110543000Y-77216000D03*
X104038400Y-65786000D03*
D22*
X101752400Y-74371200D03*
D20*
X105130600Y-66725800D03*
X102946200Y-66725800D03*
D22*
X103403400Y-74371200D03*
D20*
X110568400Y-72517000D03*
D22*
X98247200Y-76301600D03*
D20*
X105156000Y-65786000D03*
X109400000Y-74828400D03*
X110568400Y-73634600D03*
D22*
X105257600Y-76301600D03*
D20*
X110543000Y-76047600D03*
X109374600Y-77241400D03*
D22*
X103403400Y-76301600D03*
D20*
X109374600Y-76073000D03*
D22*
X101752400Y-76301600D03*
D21*
%TO.N,/SW*%
X97028000Y-59131200D03*
X91059000Y-59182000D03*
D20*
%TO.N,/SYNCin*%
X87274400Y-66827400D03*
X93929200Y-62255400D03*
%TD*%
D23*
%TO.N,Net-(U1-HO)*%
X101015800Y-61036200D02*
X102829599Y-61036200D01*
X100990400Y-62179200D02*
X100990400Y-61061600D01*
X100990400Y-61061600D02*
X101015800Y-61036200D01*
D24*
%TO.N,Net-(U1-LO)*%
X106730800Y-60045600D02*
X105714800Y-60045600D01*
X105714800Y-60045600D02*
X104784800Y-60045600D01*
%TD*%
%TA.AperFunction,Conductor*%
%TO.N,/SW*%
G36*
X104235383Y-53342047D02*
G01*
X104281217Y-53394783D01*
X104292500Y-53446463D01*
X104292500Y-57772075D01*
X104291204Y-57789953D01*
X104284300Y-57837338D01*
X104284300Y-58353858D01*
X104291204Y-58401242D01*
X104292500Y-58419121D01*
X104292500Y-58502088D01*
X104291204Y-58519966D01*
X104284302Y-58567338D01*
X104284302Y-59383861D01*
X104294227Y-59451989D01*
X104294229Y-59451993D01*
X104319909Y-59504525D01*
X104324458Y-59515035D01*
X104325855Y-59518722D01*
X104329503Y-59530564D01*
X104331716Y-59534184D01*
X104335823Y-59545020D01*
X104337649Y-59568785D01*
X104343840Y-59591805D01*
X104340478Y-59605611D01*
X104341176Y-59614684D01*
X104335878Y-59624508D01*
X104331273Y-59643428D01*
X104294226Y-59719208D01*
X104284300Y-59787339D01*
X104284300Y-60303860D01*
X104294226Y-60371991D01*
X104294227Y-60371993D01*
X104332059Y-60449381D01*
X104335100Y-60455600D01*
X104347699Y-60510060D01*
X104347699Y-60586596D01*
X104454447Y-60586596D01*
X104508906Y-60599195D01*
X104533407Y-60611173D01*
X104567473Y-60616136D01*
X104601539Y-60621100D01*
X104601540Y-60621100D01*
X104968061Y-60621100D01*
X105002126Y-60616136D01*
X105036193Y-60611173D01*
X105036194Y-60611172D01*
X105045395Y-60608330D01*
X105046081Y-60610552D01*
X105101703Y-60601052D01*
X105166002Y-60628391D01*
X105205313Y-60686153D01*
X105211299Y-60724213D01*
X105211299Y-61445705D01*
X105191614Y-61512744D01*
X105138810Y-61558499D01*
X105087229Y-61567808D01*
X105087229Y-61569700D01*
X103524099Y-61569700D01*
X103457060Y-61550015D01*
X103411305Y-61497211D01*
X103400099Y-61445700D01*
X103400099Y-60627938D01*
X103390172Y-60559807D01*
X103385806Y-60550876D01*
X103338797Y-60454716D01*
X103338795Y-60454714D01*
X103338795Y-60454713D01*
X103256084Y-60372002D01*
X103256061Y-60371991D01*
X103150992Y-60320626D01*
X103150990Y-60320625D01*
X103082860Y-60310699D01*
X103082859Y-60310699D01*
X102576339Y-60310699D01*
X102576338Y-60310699D01*
X102508207Y-60320625D01*
X102403113Y-60372002D01*
X102325735Y-60449381D01*
X102264412Y-60482866D01*
X102238054Y-60485700D01*
X101400401Y-60485700D01*
X101333362Y-60466015D01*
X101331547Y-60464826D01*
X101323927Y-60459735D01*
X101323924Y-60459733D01*
X101323923Y-60459733D01*
X101205544Y-60410699D01*
X101205538Y-60410697D01*
X101079871Y-60385700D01*
X101079869Y-60385700D01*
X100951731Y-60385700D01*
X100951729Y-60385700D01*
X100826061Y-60410697D01*
X100826055Y-60410699D01*
X100707675Y-60459733D01*
X100707666Y-60459738D01*
X100601132Y-60530922D01*
X100585955Y-60546100D01*
X100543481Y-60588573D01*
X100482161Y-60622057D01*
X100455802Y-60624891D01*
X78868933Y-60624891D01*
X78801894Y-60605206D01*
X78756139Y-60552402D01*
X78744934Y-60500457D01*
X78744996Y-60482866D01*
X78750554Y-58893064D01*
X78770473Y-58826096D01*
X78823436Y-58780526D01*
X78874553Y-58769500D01*
X80302100Y-58769500D01*
X80302100Y-55820100D01*
X80321785Y-55753061D01*
X80374589Y-55707306D01*
X80426100Y-55696100D01*
X85232700Y-55696100D01*
X85299739Y-55715785D01*
X85345494Y-55768589D01*
X85356700Y-55820100D01*
X85356700Y-58769500D01*
X89230200Y-58769500D01*
X89230200Y-53468643D01*
X89249885Y-53401604D01*
X89302689Y-53355849D01*
X89354007Y-53344644D01*
X104168319Y-53322464D01*
X104235383Y-53342047D01*
G37*
%TD.AperFunction*%
%TD*%
%TA.AperFunction,Conductor*%
%TO.N,GND*%
G36*
X132780139Y-43921068D02*
G01*
X132825894Y-43973872D01*
X132837100Y-44025383D01*
X132837100Y-70447383D01*
X132817415Y-70514422D01*
X132764611Y-70560177D01*
X132713100Y-70571383D01*
X109953600Y-70571383D01*
X109886561Y-70551698D01*
X109840806Y-70498894D01*
X109829600Y-70447383D01*
X109829600Y-63093600D01*
X109829599Y-63093599D01*
X108913259Y-63101426D01*
X108846054Y-63082315D01*
X108799850Y-63029904D01*
X108788200Y-62977431D01*
X108788200Y-62242700D01*
X106197400Y-62242700D01*
X106197400Y-63001681D01*
X106177715Y-63068720D01*
X106124911Y-63114475D01*
X106074459Y-63125676D01*
X105789059Y-63128114D01*
X105721854Y-63109003D01*
X105675650Y-63056592D01*
X105664000Y-63004119D01*
X105664000Y-60819800D01*
X105683685Y-60752761D01*
X105736489Y-60707006D01*
X105775858Y-60696396D01*
X105778866Y-60696100D01*
X105778869Y-60696100D01*
X105778872Y-60696099D01*
X105778876Y-60696099D01*
X105863037Y-60679357D01*
X105904544Y-60671101D01*
X106022927Y-60622065D01*
X106105341Y-60566998D01*
X106123387Y-60561347D01*
X106139297Y-60551123D01*
X106170256Y-60546671D01*
X106172018Y-60546120D01*
X106174232Y-60546100D01*
X106271368Y-60546100D01*
X106338407Y-60565785D01*
X106340259Y-60566998D01*
X106422666Y-60622061D01*
X106422672Y-60622064D01*
X106422673Y-60622065D01*
X106541056Y-60671101D01*
X106541060Y-60671101D01*
X106541061Y-60671102D01*
X106666728Y-60696100D01*
X106666731Y-60696100D01*
X106794871Y-60696100D01*
X106879415Y-60679282D01*
X106920544Y-60671101D01*
X107038927Y-60622065D01*
X107145469Y-60550876D01*
X107236076Y-60460269D01*
X107307265Y-60353727D01*
X107356301Y-60235344D01*
X107381300Y-60109669D01*
X107381300Y-59981531D01*
X107381300Y-59981528D01*
X107356302Y-59855861D01*
X107356301Y-59855860D01*
X107356301Y-59855856D01*
X107307265Y-59737473D01*
X107307264Y-59737472D01*
X107307261Y-59737466D01*
X107236076Y-59630931D01*
X107236073Y-59630927D01*
X107145472Y-59540326D01*
X107145468Y-59540323D01*
X107038933Y-59469138D01*
X107038924Y-59469133D01*
X106920544Y-59420099D01*
X106920538Y-59420097D01*
X106794871Y-59395100D01*
X106794869Y-59395100D01*
X106666731Y-59395100D01*
X106666729Y-59395100D01*
X106541061Y-59420097D01*
X106541055Y-59420099D01*
X106422675Y-59469133D01*
X106422666Y-59469138D01*
X106340259Y-59524202D01*
X106322212Y-59529852D01*
X106306303Y-59540077D01*
X106275343Y-59544528D01*
X106273582Y-59545080D01*
X106271368Y-59545100D01*
X106174232Y-59545100D01*
X106107193Y-59525415D01*
X106105341Y-59524202D01*
X106022933Y-59469138D01*
X106022924Y-59469133D01*
X105904544Y-59420099D01*
X105904538Y-59420097D01*
X105778871Y-59395100D01*
X105778869Y-59395100D01*
X105650731Y-59395100D01*
X105650729Y-59395100D01*
X105525061Y-59420097D01*
X105525055Y-59420099D01*
X105406675Y-59469133D01*
X105406666Y-59469138D01*
X105324259Y-59524202D01*
X105306212Y-59529852D01*
X105290303Y-59540077D01*
X105259343Y-59544528D01*
X105257582Y-59545080D01*
X105255368Y-59545100D01*
X105197991Y-59545100D01*
X105143531Y-59532501D01*
X105036191Y-59480026D01*
X104968061Y-59470100D01*
X104968060Y-59470100D01*
X104772000Y-59470100D01*
X104704961Y-59450415D01*
X104659206Y-59397611D01*
X104648000Y-59346100D01*
X104648000Y-52537383D01*
X98332267Y-52537383D01*
X98265228Y-52517698D01*
X98219473Y-52464894D01*
X98208272Y-52414477D01*
X98161069Y-47064794D01*
X98180161Y-46997584D01*
X98232559Y-46951365D01*
X98285064Y-46939700D01*
X100797100Y-46939700D01*
X100797100Y-44612600D01*
X100816785Y-44545561D01*
X100869589Y-44499806D01*
X100921100Y-44488600D01*
X102273300Y-44488600D01*
X102340339Y-44508285D01*
X102386094Y-44561089D01*
X102397300Y-44612600D01*
X102397300Y-46939700D01*
X105800900Y-46939700D01*
X105800900Y-44025383D01*
X105820585Y-43958344D01*
X105873389Y-43912589D01*
X105924900Y-43901383D01*
X132713100Y-43901383D01*
X132780139Y-43921068D01*
G37*
%TD.AperFunction*%
%TD*%
%TA.AperFunction,Conductor*%
%TO.N,/Vout*%
G36*
X132780139Y-32625985D02*
G01*
X132825894Y-32678789D01*
X132837100Y-32730300D01*
X132837100Y-43031354D01*
X132817415Y-43098393D01*
X132764611Y-43144148D01*
X132713172Y-43155354D01*
X105924972Y-43170932D01*
X105857921Y-43151286D01*
X105812136Y-43098509D01*
X105800900Y-43046932D01*
X105800900Y-38532300D01*
X102397300Y-38532300D01*
X102397300Y-40859400D01*
X102377615Y-40926439D01*
X102324811Y-40972194D01*
X102273300Y-40983400D01*
X100921100Y-40983400D01*
X100854061Y-40963715D01*
X100808306Y-40910911D01*
X100797100Y-40859400D01*
X100797100Y-38532300D01*
X97393500Y-38532300D01*
X97393500Y-43051966D01*
X97373815Y-43119005D01*
X97321011Y-43164760D01*
X97269572Y-43175966D01*
X90333908Y-43179999D01*
X90333906Y-43180000D01*
X89469976Y-45432376D01*
X89427588Y-45487920D01*
X89361901Y-45511730D01*
X89293768Y-45496246D01*
X89244822Y-45446386D01*
X89230200Y-45387969D01*
X89230200Y-45155100D01*
X85356700Y-45155100D01*
X85356700Y-48104500D01*
X85337015Y-48171539D01*
X85284211Y-48217294D01*
X85232700Y-48228500D01*
X80426100Y-48228500D01*
X80359061Y-48208815D01*
X80313306Y-48156011D01*
X80302100Y-48104500D01*
X80302100Y-45155100D01*
X76428600Y-45155100D01*
X76428600Y-58769500D01*
X78184200Y-58769500D01*
X78251239Y-58789185D01*
X78296994Y-58841989D01*
X78308200Y-58893500D01*
X78308200Y-61214000D01*
X84610400Y-61214000D01*
X84677439Y-61233685D01*
X84723194Y-61286489D01*
X84734400Y-61338000D01*
X84734400Y-67744996D01*
X84714715Y-67812035D01*
X84661911Y-67857790D01*
X84610597Y-67868996D01*
X69962297Y-67892284D01*
X69895226Y-67872706D01*
X69849388Y-67819975D01*
X69838100Y-67768284D01*
X69838100Y-36599911D01*
X72410300Y-36599911D01*
X72410300Y-36842488D01*
X72441961Y-37082985D01*
X72504747Y-37317304D01*
X72597573Y-37541405D01*
X72597576Y-37541412D01*
X72718864Y-37751489D01*
X72718866Y-37751492D01*
X72718867Y-37751493D01*
X72866533Y-37943936D01*
X72866539Y-37943943D01*
X73038056Y-38115460D01*
X73038062Y-38115465D01*
X73230511Y-38263136D01*
X73440588Y-38384424D01*
X73664700Y-38477254D01*
X73899011Y-38540038D01*
X74079386Y-38563784D01*
X74139511Y-38571700D01*
X74139512Y-38571700D01*
X74382089Y-38571700D01*
X74430188Y-38565367D01*
X74622589Y-38540038D01*
X74856900Y-38477254D01*
X75081012Y-38384424D01*
X75291089Y-38263136D01*
X75483538Y-38115465D01*
X75655065Y-37943938D01*
X75802736Y-37751489D01*
X75924024Y-37541412D01*
X76016854Y-37317300D01*
X76079638Y-37082989D01*
X76111300Y-36842488D01*
X76111300Y-36599912D01*
X76111300Y-36599911D01*
X127210300Y-36599911D01*
X127210300Y-36842488D01*
X127241961Y-37082985D01*
X127304747Y-37317304D01*
X127397573Y-37541405D01*
X127397576Y-37541412D01*
X127518864Y-37751489D01*
X127518866Y-37751492D01*
X127518867Y-37751493D01*
X127666533Y-37943936D01*
X127666539Y-37943943D01*
X127838056Y-38115460D01*
X127838062Y-38115465D01*
X128030511Y-38263136D01*
X128240588Y-38384424D01*
X128464700Y-38477254D01*
X128699011Y-38540038D01*
X128879386Y-38563784D01*
X128939511Y-38571700D01*
X128939512Y-38571700D01*
X129182089Y-38571700D01*
X129230188Y-38565367D01*
X129422589Y-38540038D01*
X129656900Y-38477254D01*
X129881012Y-38384424D01*
X130091089Y-38263136D01*
X130283538Y-38115465D01*
X130455065Y-37943938D01*
X130602736Y-37751489D01*
X130724024Y-37541412D01*
X130816854Y-37317300D01*
X130879638Y-37082989D01*
X130911300Y-36842488D01*
X130911300Y-36599912D01*
X130879638Y-36359411D01*
X130816854Y-36125100D01*
X130724024Y-35900988D01*
X130602736Y-35690911D01*
X130455065Y-35498462D01*
X130455060Y-35498456D01*
X130283543Y-35326939D01*
X130283536Y-35326933D01*
X130091093Y-35179267D01*
X130091092Y-35179266D01*
X130091089Y-35179264D01*
X129881012Y-35057976D01*
X129881005Y-35057973D01*
X129656904Y-34965147D01*
X129422585Y-34902361D01*
X129182089Y-34870700D01*
X129182088Y-34870700D01*
X128939512Y-34870700D01*
X128939511Y-34870700D01*
X128699014Y-34902361D01*
X128464695Y-34965147D01*
X128240594Y-35057973D01*
X128240585Y-35057977D01*
X128030506Y-35179267D01*
X127838063Y-35326933D01*
X127838056Y-35326939D01*
X127666539Y-35498456D01*
X127666533Y-35498463D01*
X127518867Y-35690906D01*
X127397577Y-35900985D01*
X127397573Y-35900994D01*
X127304747Y-36125095D01*
X127241961Y-36359414D01*
X127210300Y-36599911D01*
X76111300Y-36599911D01*
X76079638Y-36359411D01*
X76016854Y-36125100D01*
X75924024Y-35900988D01*
X75802736Y-35690911D01*
X75655065Y-35498462D01*
X75655060Y-35498456D01*
X75483543Y-35326939D01*
X75483536Y-35326933D01*
X75291093Y-35179267D01*
X75291092Y-35179266D01*
X75291089Y-35179264D01*
X75081012Y-35057976D01*
X75081005Y-35057973D01*
X74856904Y-34965147D01*
X74622585Y-34902361D01*
X74382089Y-34870700D01*
X74382088Y-34870700D01*
X74139512Y-34870700D01*
X74139511Y-34870700D01*
X73899014Y-34902361D01*
X73664695Y-34965147D01*
X73440594Y-35057973D01*
X73440585Y-35057977D01*
X73230506Y-35179267D01*
X73038063Y-35326933D01*
X73038056Y-35326939D01*
X72866539Y-35498456D01*
X72866533Y-35498463D01*
X72718867Y-35690906D01*
X72597577Y-35900985D01*
X72597573Y-35900994D01*
X72504747Y-36125095D01*
X72441961Y-36359414D01*
X72410300Y-36599911D01*
X69838100Y-36599911D01*
X69838100Y-32730300D01*
X69857785Y-32663261D01*
X69910589Y-32617506D01*
X69962100Y-32606300D01*
X132713100Y-32606300D01*
X132780139Y-32625985D01*
G37*
%TD.AperFunction*%
%TD*%
%TA.AperFunction,Conductor*%
%TO.N,/Vin*%
G36*
X105149839Y-61944885D02*
G01*
X105195594Y-61997689D01*
X105206800Y-62049200D01*
X105206800Y-63500000D01*
X106073400Y-63500000D01*
X106140439Y-63519685D01*
X106186194Y-63572489D01*
X106197400Y-63624000D01*
X106197400Y-63868300D01*
X108839562Y-63868300D01*
X108839562Y-63870406D01*
X108885334Y-63873680D01*
X108941267Y-63915552D01*
X108965684Y-63981016D01*
X108966000Y-63989862D01*
X108966000Y-71170800D01*
X132713100Y-71170800D01*
X132780139Y-71190485D01*
X132825894Y-71243289D01*
X132837100Y-71294800D01*
X132837100Y-79481300D01*
X132817415Y-79548339D01*
X132764611Y-79594094D01*
X132713100Y-79605300D01*
X96878157Y-79605300D01*
X96811118Y-79585615D01*
X96765363Y-79532811D01*
X96754158Y-79480854D01*
X96769162Y-75309911D01*
X127210300Y-75309911D01*
X127210300Y-75552488D01*
X127241961Y-75792985D01*
X127304747Y-76027304D01*
X127397573Y-76251405D01*
X127397576Y-76251412D01*
X127518864Y-76461489D01*
X127518866Y-76461492D01*
X127518867Y-76461493D01*
X127666533Y-76653936D01*
X127666539Y-76653943D01*
X127838056Y-76825460D01*
X127838062Y-76825465D01*
X128030511Y-76973136D01*
X128240588Y-77094424D01*
X128464700Y-77187254D01*
X128699011Y-77250038D01*
X128879386Y-77273784D01*
X128939511Y-77281700D01*
X128939512Y-77281700D01*
X129182089Y-77281700D01*
X129230188Y-77275367D01*
X129422589Y-77250038D01*
X129656900Y-77187254D01*
X129881012Y-77094424D01*
X130091089Y-76973136D01*
X130283538Y-76825465D01*
X130455065Y-76653938D01*
X130602736Y-76461489D01*
X130724024Y-76251412D01*
X130816854Y-76027300D01*
X130879638Y-75792989D01*
X130911300Y-75552488D01*
X130911300Y-75309912D01*
X130879638Y-75069411D01*
X130816854Y-74835100D01*
X130724024Y-74610988D01*
X130602736Y-74400911D01*
X130455065Y-74208462D01*
X130455060Y-74208456D01*
X130283543Y-74036939D01*
X130283536Y-74036933D01*
X130091093Y-73889267D01*
X130091092Y-73889266D01*
X130091089Y-73889264D01*
X129881012Y-73767976D01*
X129881005Y-73767973D01*
X129656904Y-73675147D01*
X129422585Y-73612361D01*
X129182089Y-73580700D01*
X129182088Y-73580700D01*
X128939512Y-73580700D01*
X128939511Y-73580700D01*
X128699014Y-73612361D01*
X128464695Y-73675147D01*
X128240594Y-73767973D01*
X128240585Y-73767977D01*
X128030506Y-73889267D01*
X127838063Y-74036933D01*
X127838056Y-74036939D01*
X127666539Y-74208456D01*
X127666533Y-74208463D01*
X127518867Y-74400906D01*
X127397577Y-74610985D01*
X127397573Y-74610994D01*
X127304747Y-74835095D01*
X127241961Y-75069414D01*
X127210300Y-75309911D01*
X96769162Y-75309911D01*
X96769178Y-75305407D01*
X96772431Y-74400906D01*
X96773816Y-74015899D01*
X96793741Y-73948932D01*
X96810129Y-73928670D01*
X102311200Y-68427600D01*
X102211568Y-62051137D01*
X102230203Y-61983798D01*
X102282286Y-61937224D01*
X102335553Y-61925200D01*
X105082800Y-61925200D01*
X105149839Y-61944885D01*
G37*
%TD.AperFunction*%
%TD*%
M02*
