%TF.GenerationSoftware,KiCad,Pcbnew,9.0.6*%
%TF.CreationDate,2026-02-12T21:20:19-06:00*%
%TF.ProjectId,IRIS_Converter,49524953-5f43-46f6-9e76-65727465722e,rev?*%
%TF.SameCoordinates,Original*%
%TF.FileFunction,Paste,Top*%
%TF.FilePolarity,Positive*%
%FSLAX46Y46*%
G04 Gerber Fmt 4.6, Leading zero omitted, Abs format (unit mm)*
G04 Created by KiCad (PCBNEW 9.0.6) date 2026-02-12 21:20:19*
%MOMM*%
%LPD*%
G01*
G04 APERTURE LIST*
%ADD10C,0.000000*%
%ADD11R,4.953000X3.225800*%
%ADD12R,1.498600X3.302000*%
%ADD13R,0.750001X0.439999*%
%ADD14R,0.449999X0.299999*%
%ADD15R,2.692400X1.244600*%
G04 APERTURE END LIST*
D10*
%TO.C,Q2*%
G36*
X103005989Y-58669179D02*
G01*
X103015501Y-58672065D01*
X103024267Y-58676748D01*
X103031950Y-58683055D01*
X103038255Y-58690739D01*
X103042941Y-58699504D01*
X103045824Y-58709014D01*
X103046799Y-58718905D01*
X103046799Y-59742504D01*
X103045824Y-59752395D01*
X103042941Y-59761905D01*
X103038255Y-59770670D01*
X103031950Y-59778354D01*
X103024267Y-59784661D01*
X103015501Y-59789344D01*
X103005989Y-59792230D01*
X102996098Y-59793205D01*
X102421500Y-59793205D01*
X102411609Y-59792230D01*
X102402096Y-59789344D01*
X102393331Y-59784661D01*
X102385647Y-59778354D01*
X102379343Y-59770670D01*
X102374657Y-59761905D01*
X102371774Y-59752395D01*
X102370799Y-59742504D01*
X102370799Y-58718905D01*
X102371774Y-58709014D01*
X102374657Y-58699504D01*
X102379343Y-58690739D01*
X102385647Y-58683055D01*
X102393331Y-58676748D01*
X102402096Y-58672065D01*
X102411609Y-58669179D01*
X102421500Y-58668206D01*
X102996098Y-58668206D01*
X103005989Y-58669179D01*
G37*
G36*
X103005989Y-59994175D02*
G01*
X103015501Y-59997061D01*
X103024267Y-60001744D01*
X103031950Y-60008051D01*
X103038255Y-60015735D01*
X103042941Y-60024500D01*
X103045824Y-60034010D01*
X103046799Y-60043901D01*
X103046799Y-61067500D01*
X103045824Y-61077391D01*
X103042941Y-61086901D01*
X103038255Y-61095666D01*
X103031950Y-61103350D01*
X103024267Y-61109657D01*
X103015501Y-61114341D01*
X103005989Y-61117226D01*
X102996098Y-61118199D01*
X102421500Y-61118199D01*
X102411609Y-61117226D01*
X102402096Y-61114341D01*
X102393331Y-61109657D01*
X102385647Y-61103350D01*
X102379343Y-61095666D01*
X102374657Y-61086901D01*
X102371774Y-61077391D01*
X102370799Y-61067500D01*
X102370799Y-60043901D01*
X102371774Y-60034010D01*
X102374657Y-60024500D01*
X102379343Y-60015735D01*
X102385647Y-60008051D01*
X102393331Y-60001744D01*
X102402096Y-59997061D01*
X102411609Y-59994175D01*
X102421500Y-59993200D01*
X102996098Y-59993200D01*
X103005989Y-59994175D01*
G37*
G36*
X103881989Y-58669179D02*
G01*
X103891502Y-58672065D01*
X103900267Y-58676748D01*
X103907951Y-58683055D01*
X103914255Y-58690739D01*
X103918941Y-58699504D01*
X103921824Y-58709014D01*
X103922800Y-58718905D01*
X103922800Y-59742504D01*
X103921824Y-59752395D01*
X103918941Y-59761905D01*
X103914255Y-59770670D01*
X103907951Y-59778354D01*
X103900267Y-59784661D01*
X103891502Y-59789344D01*
X103881989Y-59792230D01*
X103872099Y-59793205D01*
X103297500Y-59793205D01*
X103287609Y-59792230D01*
X103278097Y-59789344D01*
X103269331Y-59784661D01*
X103261648Y-59778354D01*
X103255343Y-59770670D01*
X103250657Y-59761905D01*
X103247774Y-59752395D01*
X103246799Y-59742504D01*
X103246799Y-58718905D01*
X103247774Y-58709014D01*
X103250657Y-58699504D01*
X103255343Y-58690739D01*
X103261648Y-58683055D01*
X103269331Y-58676748D01*
X103278097Y-58672065D01*
X103287609Y-58669179D01*
X103297500Y-58668206D01*
X103872099Y-58668206D01*
X103881989Y-58669179D01*
G37*
G36*
X103881989Y-59994175D02*
G01*
X103891502Y-59997061D01*
X103900267Y-60001744D01*
X103907951Y-60008051D01*
X103914255Y-60015735D01*
X103918941Y-60024500D01*
X103921824Y-60034010D01*
X103922800Y-60043901D01*
X103922800Y-61067500D01*
X103921824Y-61077391D01*
X103918941Y-61086901D01*
X103914255Y-61095666D01*
X103907951Y-61103350D01*
X103900267Y-61109657D01*
X103891502Y-61114341D01*
X103881989Y-61117226D01*
X103872099Y-61118199D01*
X103297500Y-61118199D01*
X103287609Y-61117226D01*
X103278097Y-61114341D01*
X103269331Y-61109657D01*
X103261648Y-61103350D01*
X103255343Y-61095666D01*
X103250657Y-61086901D01*
X103247774Y-61077391D01*
X103246799Y-61067500D01*
X103246799Y-60043901D01*
X103247774Y-60034010D01*
X103250657Y-60024500D01*
X103255343Y-60015735D01*
X103261648Y-60008051D01*
X103269331Y-60001744D01*
X103278097Y-59997061D01*
X103287609Y-59994175D01*
X103297500Y-59993200D01*
X103872099Y-59993200D01*
X103881989Y-59994175D01*
G37*
%TO.C,Q1*%
G36*
X99112868Y-56924192D02*
G01*
X99122547Y-56927128D01*
X99131468Y-56931896D01*
X99139286Y-56938314D01*
X99145705Y-56946132D01*
X99150472Y-56955053D01*
X99153408Y-56964733D01*
X99154402Y-56974799D01*
X99154402Y-57731602D01*
X99153408Y-57741668D01*
X99150472Y-57751348D01*
X99145705Y-57760268D01*
X99139286Y-57768087D01*
X99131468Y-57774505D01*
X99122547Y-57779273D01*
X99112868Y-57782209D01*
X99102802Y-57783200D01*
X98305998Y-57783200D01*
X98295932Y-57782209D01*
X98286253Y-57779273D01*
X98277332Y-57774505D01*
X98269514Y-57768087D01*
X98263095Y-57760268D01*
X98258328Y-57751348D01*
X98255392Y-57741668D01*
X98254398Y-57731602D01*
X98254398Y-56974799D01*
X98255392Y-56964733D01*
X98258328Y-56955053D01*
X98263095Y-56946132D01*
X98269514Y-56938314D01*
X98277332Y-56931896D01*
X98286253Y-56927128D01*
X98295932Y-56924192D01*
X98305998Y-56923199D01*
X99102802Y-56923199D01*
X99112868Y-56924192D01*
G37*
G36*
X99109720Y-58184149D02*
G01*
X99118969Y-58186955D01*
X99127490Y-58191512D01*
X99134963Y-58197641D01*
X99141092Y-58205114D01*
X99145649Y-58213636D01*
X99148456Y-58222884D01*
X99149403Y-58232503D01*
X99149403Y-58423902D01*
X99148456Y-58433521D01*
X99145649Y-58442769D01*
X99141092Y-58451291D01*
X99134963Y-58458763D01*
X99127490Y-58464892D01*
X99118969Y-58469449D01*
X99109720Y-58472256D01*
X99100102Y-58473201D01*
X98498701Y-58473201D01*
X98489082Y-58472256D01*
X98479834Y-58469449D01*
X98471312Y-58464892D01*
X98463839Y-58458763D01*
X98457710Y-58451291D01*
X98453153Y-58442769D01*
X98450347Y-58433521D01*
X98449402Y-58423902D01*
X98449402Y-58232503D01*
X98450347Y-58222884D01*
X98453153Y-58213636D01*
X98457710Y-58205114D01*
X98463839Y-58197641D01*
X98471312Y-58191512D01*
X98479834Y-58186955D01*
X98489082Y-58184149D01*
X98498701Y-58183201D01*
X99100102Y-58183201D01*
X99109720Y-58184149D01*
G37*
%TD*%
D11*
%TO.C,1.2uH1*%
X82829400Y-48564800D03*
X82829400Y-59359800D03*
%TD*%
D12*
%TO.C,Cout1*%
X101597200Y-50190400D03*
X101597200Y-43281600D03*
%TD*%
D13*
%TO.C,Q2*%
X101395799Y-58918198D03*
X101395799Y-59568199D03*
X101395799Y-60218198D03*
X101395799Y-60868199D03*
X104445801Y-60868199D03*
X104445801Y-60218201D03*
X104445801Y-59568199D03*
X104445801Y-58918201D03*
%TD*%
D14*
%TO.C,Q1*%
X97729401Y-57028200D03*
X97729401Y-57678201D03*
X97729401Y-58328200D03*
X99679402Y-58328200D03*
X99679402Y-57678201D03*
X99679402Y-57028200D03*
%TD*%
D15*
%TO.C,Cin1*%
X104267000Y-66497200D03*
X104267000Y-63525400D03*
%TD*%
M02*
