%TF.GenerationSoftware,KiCad,Pcbnew,9.0.6*%
%TF.CreationDate,2026-02-14T13:33:51-06:00*%
%TF.ProjectId,IRIS_Converter,49524953-5f43-46f6-9e76-65727465722e,rev?*%
%TF.SameCoordinates,Original*%
%TF.FileFunction,Soldermask,Bot*%
%TF.FilePolarity,Negative*%
%FSLAX46Y46*%
G04 Gerber Fmt 4.6, Leading zero omitted, Abs format (unit mm)*
G04 Created by KiCad (PCBNEW 9.0.6) date 2026-02-14 13:33:51*
%MOMM*%
%LPD*%
G01*
G04 APERTURE LIST*
%ADD10C,2.463800*%
%ADD11C,0.499999*%
%ADD12C,3.200000*%
%ADD13R,0.558800X0.889000*%
%ADD14R,0.499999X0.655599*%
%ADD15R,0.609600X0.508000*%
%ADD16R,0.968200X1.010000*%
%ADD17R,0.655599X0.499999*%
%ADD18R,0.558800X0.508000*%
%ADD19R,0.508000X0.558800*%
%ADD20R,1.803400X0.558800*%
%ADD21R,0.249999X0.599999*%
%ADD22R,0.599999X0.249999*%
%ADD23R,1.699999X2.700000*%
%ADD24R,0.812800X0.762000*%
%ADD25R,0.939800X0.711200*%
%ADD26R,0.508000X0.609600*%
G04 APERTURE END LIST*
D10*
%TO.C,J2*%
X112269001Y-51638200D03*
X112269001Y-44018200D03*
%TD*%
%TO.C,J1*%
X112269001Y-73926700D03*
X112269001Y-66306700D03*
%TD*%
D11*
%TO.C,Q2*%
X102708799Y-59893200D03*
X103146799Y-58918201D03*
X103146799Y-60868199D03*
X103584799Y-59893200D03*
X104022799Y-58918201D03*
X104022799Y-60868199D03*
X104460802Y-59893200D03*
%TD*%
D12*
%TO.C,REF\u002A\u002A*%
X124030800Y-42551200D03*
%TD*%
%TO.C,REF\u002A\u002A*%
X124030800Y-75731200D03*
%TD*%
%TO.C,REF\u002A\u002A*%
X79790800Y-42551200D03*
%TD*%
%TO.C,REF\u002A\u002A*%
X79790800Y-75731200D03*
%TD*%
D13*
%TO.C,Cvin1*%
X90532651Y-74236999D03*
X92386851Y-74236999D03*
%TD*%
D14*
%TO.C,Rfbb1*%
X87160801Y-69668799D03*
X87160801Y-68563201D03*
%TD*%
D15*
%TO.C,Ccomp2*%
X85624101Y-71290599D03*
X84531901Y-71290599D03*
%TD*%
D16*
%TO.C,Cilim1*%
X91662951Y-64124551D03*
X90454751Y-64124551D03*
%TD*%
D15*
%TO.C,Ccomp3*%
X82849500Y-68817201D03*
X83941700Y-68817201D03*
%TD*%
D17*
%TO.C,Ruv1*%
X95009750Y-76265751D03*
X93904152Y-76265751D03*
%TD*%
D18*
%TO.C,Rt1*%
X86684551Y-74284551D03*
X86684551Y-75224351D03*
%TD*%
D19*
%TO.C,Rilim1*%
X91631201Y-65800951D03*
X92571001Y-65800951D03*
%TD*%
D15*
%TO.C,Ccomp1*%
X85573301Y-72814599D03*
X84481101Y-72814599D03*
%TD*%
D17*
%TO.C,Rvin1*%
X95029149Y-74436951D03*
X93923551Y-74436951D03*
%TD*%
D20*
%TO.C,Cvcc1*%
X95447551Y-68467951D03*
X95447551Y-64911951D03*
%TD*%
D18*
%TO.C,Rcomp1*%
X82893601Y-72573299D03*
X82893601Y-71633499D03*
%TD*%
D13*
%TO.C,Cbst1*%
X94831601Y-70138001D03*
X96685801Y-70138001D03*
%TD*%
D21*
%TO.C,U1*%
X90080399Y-71611201D03*
D22*
X89180401Y-71211199D03*
X89180401Y-70711200D03*
X89180401Y-70211198D03*
X89180401Y-69711200D03*
X89180401Y-69211198D03*
X89180401Y-68711199D03*
X89180401Y-68211200D03*
X89180401Y-67711201D03*
D21*
X90080399Y-67311199D03*
X91580401Y-67311199D03*
D22*
X92480399Y-67711201D03*
X92480399Y-68211200D03*
X92480399Y-68711202D03*
X92480399Y-69211200D03*
X92480399Y-69711202D03*
X92480399Y-70211201D03*
X92480399Y-70711200D03*
X92480399Y-71211202D03*
D21*
X91580401Y-71611201D03*
D23*
X90830400Y-69461200D03*
D11*
X90230401Y-69461200D03*
X90830400Y-68361200D03*
X90830400Y-70561200D03*
X91430399Y-69461200D03*
%TD*%
D24*
%TO.C,Rfbt1*%
X85586001Y-67128101D03*
X85586001Y-68677501D03*
%TD*%
D25*
%TO.C,Ruv2*%
X88437151Y-74360751D03*
X88437151Y-75706951D03*
%TD*%
D24*
%TO.C,Rpgood1*%
X94691200Y-61798200D03*
X94691200Y-63347600D03*
%TD*%
%TO.C,Rvcc1*%
X96367600Y-61798200D03*
X96367600Y-63347600D03*
%TD*%
D17*
%TO.C,Rcomp2*%
X83960750Y-66994751D03*
X82855152Y-66994751D03*
%TD*%
D26*
%TO.C,Css1*%
X85058951Y-74259151D03*
X85058951Y-75351351D03*
%TD*%
M02*
