M48
; DRILL file {KiCad 9.0.6} date 2026-02-14T16:13:06-0600
; FORMAT={-:-/ absolute / metric / decimal}
; #@! TF.CreationDate,2026-02-14T16:13:06-06:00
; #@! TF.GenerationSoftware,Kicad,Pcbnew,9.0.6
; #@! TF.FileFunction,Plated,1,4,PTH
FMAT,2
METRIC
; #@! TA.AperFunction,Plated,PTH,ComponentDrill
T1C0.203
; #@! TA.AperFunction,Plated,PTH,ViaDrill
T2C0.300
; #@! TA.AperFunction,Plated,PTH,ViaDrill
T3C0.400
; #@! TA.AperFunction,Plated,PTH,ComponentDrill
T4C1.854
%
G90
G05
T1
X90.23Y-69.461
X90.83Y-68.361
X90.83Y-70.561
X91.43Y-69.461
X102.709Y-59.893
X103.147Y-58.918
X103.147Y-60.868
X103.585Y-59.893
X104.023Y-58.918
X104.023Y-60.868
X104.461Y-59.893
T2
X77.699Y-71.374
X77.724Y-68.072
X80.696Y-44.907
X80.696Y-45.872
X80.848Y-71.374
X80.874Y-68.072
X81.712Y-44.907
X81.712Y-45.872
X82.88Y-44.882
X82.88Y-45.847
X83.972Y-44.882
X83.972Y-45.847
X85.039Y-44.882
X85.039Y-45.847
X89.411Y-72.291
X90.85Y-72.888
X91.948Y-49.276
X91.948Y-52.324
X92.786Y-76.276
X95.504Y-49.276
X95.504Y-52.324
X98.577Y-41.656
X98.603Y-40.64
X98.704Y-56.083
X99.543Y-56.083
X99.67Y-52.705
X99.695Y-51.74
X99.72Y-41.656
X99.746Y-40.64
X100.533Y-58.318
X100.686Y-52.705
X100.762Y-40.64
X101.6Y-52.705
X101.676Y-40.64
X102.565Y-52.705
X102.641Y-40.64
X102.845Y-68.91
X102.87Y-67.97
X103.505Y-51.765
X103.505Y-52.705
X103.556Y-41.631
X103.581Y-40.64
X103.683Y-68.91
X103.708Y-67.97
X104.673Y-41.631
X104.699Y-40.64
X104.75Y-68.885
X104.775Y-67.945
X105.613Y-68.885
X105.639Y-67.945
X106.426Y-62.306
X106.426Y-63.195
X106.426Y-64.059
X109.753Y-56.921
X109.753Y-60.985
X113.792Y-56.896
X113.792Y-60.96
X114.96Y-65.151
X114.96Y-66.319
X114.96Y-67.513
X114.986Y-63.983
X114.986Y-68.682
X115.011Y-76.073
X115.011Y-77.241
X115.037Y-72.542
X115.037Y-73.66
X115.037Y-74.828
X115.189Y-50.495
X115.189Y-51.664
X115.189Y-52.857
X115.214Y-49.327
X115.214Y-54.026
X115.265Y-41.097
X115.265Y-42.24
X115.291Y-43.434
X115.291Y-44.653
X115.291Y-45.898
X116.154Y-65.151
X116.154Y-66.319
X116.154Y-67.488
X116.18Y-63.983
X116.18Y-68.707
X116.18Y-76.048
X116.18Y-77.216
X116.205Y-72.517
X116.205Y-73.635
X116.205Y-74.803
X116.23Y-41.097
X116.23Y-42.24
X116.256Y-43.434
X116.256Y-44.653
X116.256Y-45.898
X116.383Y-50.495
X116.383Y-51.664
X116.383Y-52.832
X116.408Y-49.327
X116.408Y-54.051
X117.856Y-56.896
X117.856Y-60.96
X121.996Y-52.832
X121.996Y-56.896
X121.996Y-60.96
X121.996Y-65.049
X126.009Y-52.832
X126.009Y-56.896
X126.009Y-60.96
X126.009Y-65.049
T3
X79.781Y-65.532
X80.797Y-65.532
X81.839Y-65.532
X82.855Y-64.364
X82.855Y-65.532
X83.845Y-64.364
X83.845Y-65.532
X93.472Y-64.668
X93.693Y-67.429
X93.847Y-71.211
X97.688Y-59.385
X97.688Y-60.401
X97.765Y-67.132
X98.247Y-76.302
X98.247Y-77.953
X99.263Y-76.302
X99.263Y-77.953
X100.279Y-76.302
X100.279Y-77.953
X101.27Y-76.302
X101.27Y-77.953
X101.397Y-61.874
X101.397Y-62.992
X102.26Y-76.302
X102.26Y-77.953
T4
X112.269Y-44.018
X112.269Y-51.638
X112.269Y-66.307
X112.269Y-73.927
M30
