%TF.GenerationSoftware,KiCad,Pcbnew,9.0.6*%
%TF.CreationDate,2026-02-14T16:46:58-06:00*%
%TF.ProjectId,IRIS_Converter,49524953-5f43-46f6-9e76-65727465722e,rev?*%
%TF.SameCoordinates,Original*%
%TF.FileFunction,Legend,Bot*%
%TF.FilePolarity,Positive*%
%FSLAX46Y46*%
G04 Gerber Fmt 4.6, Leading zero omitted, Abs format (unit mm)*
G04 Created by KiCad (PCBNEW 9.0.6) date 2026-02-14 16:46:58*
%MOMM*%
%LPD*%
G01*
G04 APERTURE LIST*
%ADD10C,0.000000*%
%ADD11C,0.200000*%
%ADD12C,0.150000*%
%ADD13C,0.152400*%
%ADD14C,0.508000*%
G04 APERTURE END LIST*
D10*
G36*
X91751297Y-45099379D02*
G01*
X91750430Y-45115267D01*
X91748843Y-45130975D01*
X91746519Y-45146420D01*
X91743441Y-45161517D01*
X91739589Y-45176184D01*
X91734947Y-45190336D01*
X91729495Y-45203889D01*
X91724791Y-45212991D01*
X91719699Y-45221444D01*
X91714232Y-45229286D01*
X91708401Y-45236558D01*
X91702219Y-45243302D01*
X91695698Y-45249558D01*
X91688851Y-45255366D01*
X91681688Y-45260767D01*
X91674224Y-45265802D01*
X91666469Y-45270510D01*
X91658436Y-45274934D01*
X91650137Y-45279112D01*
X91641584Y-45283087D01*
X91632790Y-45286898D01*
X91614526Y-45294192D01*
X91604836Y-45297836D01*
X91611957Y-45310130D01*
X91615284Y-45316271D01*
X91618441Y-45322423D01*
X91621417Y-45328598D01*
X91624202Y-45334808D01*
X91626785Y-45341064D01*
X91629154Y-45347379D01*
X91631300Y-45353763D01*
X91633211Y-45360229D01*
X91634877Y-45366789D01*
X91636287Y-45373453D01*
X91637430Y-45380234D01*
X91638295Y-45387144D01*
X91638871Y-45394194D01*
X91639149Y-45401395D01*
X91638498Y-45411141D01*
X91637301Y-45420593D01*
X91635576Y-45429764D01*
X91633342Y-45438672D01*
X91630621Y-45447329D01*
X91627431Y-45455753D01*
X91623791Y-45463957D01*
X91619723Y-45471958D01*
X91615244Y-45479769D01*
X91610376Y-45487407D01*
X91605137Y-45494886D01*
X91599547Y-45502222D01*
X91593627Y-45509430D01*
X91587394Y-45516525D01*
X91580870Y-45523522D01*
X91574074Y-45530436D01*
X91568456Y-45535960D01*
X91541733Y-45562299D01*
X91528005Y-45575146D01*
X91520994Y-45581391D01*
X91513864Y-45587478D01*
X91506599Y-45593379D01*
X91499182Y-45599067D01*
X91491600Y-45604512D01*
X91483835Y-45609688D01*
X91475871Y-45614564D01*
X91467694Y-45619113D01*
X91459286Y-45623307D01*
X91450633Y-45627118D01*
X91445729Y-45628586D01*
X91440771Y-45629852D01*
X91435768Y-45630914D01*
X91430728Y-45631768D01*
X91425662Y-45632412D01*
X91420577Y-45632840D01*
X91415482Y-45633051D01*
X91410387Y-45633042D01*
X91405301Y-45632808D01*
X91400232Y-45632347D01*
X91395190Y-45631655D01*
X91390183Y-45630729D01*
X91385221Y-45629567D01*
X91380312Y-45628164D01*
X91375466Y-45626518D01*
X91370690Y-45624624D01*
X91363597Y-45621316D01*
X91356335Y-45618044D01*
X91352647Y-45616493D01*
X91348926Y-45615038D01*
X91345175Y-45613707D01*
X91341395Y-45612528D01*
X91337590Y-45611530D01*
X91333762Y-45610743D01*
X91329916Y-45610193D01*
X91326052Y-45609911D01*
X91322174Y-45609925D01*
X91320231Y-45610052D01*
X91318286Y-45610263D01*
X91316338Y-45610563D01*
X91314389Y-45610955D01*
X91312438Y-45611442D01*
X91310487Y-45612028D01*
X91308189Y-45613966D01*
X91306015Y-45615918D01*
X91303957Y-45617890D01*
X91302006Y-45619887D01*
X91300155Y-45621913D01*
X91298396Y-45623972D01*
X91296721Y-45626071D01*
X91295122Y-45628213D01*
X91293590Y-45630403D01*
X91292119Y-45632647D01*
X91290699Y-45634948D01*
X91289323Y-45637312D01*
X91287983Y-45639744D01*
X91286672Y-45642248D01*
X91284100Y-45647493D01*
X91279353Y-45657641D01*
X91274478Y-45667483D01*
X91271950Y-45672282D01*
X91269342Y-45676997D01*
X91266637Y-45681624D01*
X91263819Y-45686161D01*
X91260871Y-45690606D01*
X91257777Y-45694955D01*
X91254521Y-45699206D01*
X91251087Y-45703356D01*
X91247459Y-45707403D01*
X91243620Y-45711343D01*
X91239555Y-45715175D01*
X91235246Y-45718895D01*
X91229476Y-45722623D01*
X91223618Y-45725892D01*
X91217675Y-45728728D01*
X91211651Y-45731153D01*
X91205549Y-45733192D01*
X91199373Y-45734868D01*
X91193126Y-45736205D01*
X91186811Y-45737227D01*
X91180431Y-45737959D01*
X91173991Y-45738423D01*
X91167493Y-45738643D01*
X91160941Y-45738644D01*
X91154338Y-45738450D01*
X91147688Y-45738083D01*
X91134258Y-45736930D01*
X91126277Y-45735920D01*
X91118328Y-45735125D01*
X91110398Y-45734552D01*
X91102474Y-45734203D01*
X91094542Y-45734084D01*
X91086591Y-45734198D01*
X91078608Y-45734551D01*
X91070579Y-45735147D01*
X91057124Y-45736455D01*
X91043952Y-45737294D01*
X91037448Y-45737512D01*
X91030986Y-45737581D01*
X91024556Y-45737491D01*
X91018149Y-45737231D01*
X91011754Y-45736791D01*
X91005362Y-45736160D01*
X90998963Y-45735328D01*
X90992548Y-45734285D01*
X90986107Y-45733019D01*
X90979629Y-45731521D01*
X90973107Y-45729779D01*
X90966528Y-45727783D01*
X90960438Y-45724893D01*
X90954737Y-45721737D01*
X90949402Y-45718324D01*
X90944412Y-45714661D01*
X90939744Y-45710756D01*
X90935376Y-45706619D01*
X90931285Y-45702256D01*
X90927449Y-45697676D01*
X90923847Y-45692888D01*
X90920455Y-45687898D01*
X90917251Y-45682716D01*
X90914213Y-45677349D01*
X90911319Y-45671805D01*
X90908547Y-45666093D01*
X90905873Y-45660221D01*
X90903277Y-45654196D01*
X90900347Y-45646819D01*
X90898853Y-45643159D01*
X90897317Y-45639522D01*
X90895726Y-45635910D01*
X90894063Y-45632327D01*
X90892314Y-45628775D01*
X90890461Y-45625258D01*
X90887444Y-45622168D01*
X90886029Y-45620789D01*
X90884655Y-45619514D01*
X90883305Y-45618338D01*
X90881962Y-45617257D01*
X90880611Y-45616265D01*
X90879233Y-45615359D01*
X90877814Y-45614534D01*
X90876335Y-45613784D01*
X90874782Y-45613106D01*
X90873137Y-45612495D01*
X90871383Y-45611945D01*
X90869505Y-45611452D01*
X90867485Y-45611012D01*
X90865308Y-45610620D01*
X90856768Y-45610995D01*
X90851788Y-45611082D01*
X90850014Y-45611138D01*
X90848470Y-45611218D01*
X90846968Y-45611336D01*
X90845322Y-45611502D01*
X90840852Y-45612028D01*
X90835197Y-45614793D01*
X90829632Y-45617381D01*
X90824137Y-45619788D01*
X90818694Y-45622012D01*
X90813283Y-45624049D01*
X90807888Y-45625896D01*
X90802489Y-45627550D01*
X90797068Y-45629008D01*
X90791606Y-45630267D01*
X90786085Y-45631324D01*
X90780486Y-45632176D01*
X90774790Y-45632818D01*
X90768980Y-45633249D01*
X90763037Y-45633466D01*
X90756942Y-45633464D01*
X90750676Y-45633241D01*
X90746877Y-45632759D01*
X90743156Y-45632165D01*
X90739510Y-45631461D01*
X90735939Y-45630650D01*
X90732438Y-45629735D01*
X90729008Y-45628716D01*
X90725644Y-45627598D01*
X90722345Y-45626382D01*
X90715935Y-45623667D01*
X90709758Y-45620588D01*
X90703799Y-45617166D01*
X90698039Y-45613419D01*
X90692462Y-45609365D01*
X90687051Y-45605024D01*
X90681788Y-45600414D01*
X90676655Y-45595555D01*
X90671636Y-45590464D01*
X90666714Y-45585161D01*
X90661871Y-45579665D01*
X90657090Y-45573995D01*
X90652682Y-45568685D01*
X90648249Y-45563504D01*
X90643760Y-45558447D01*
X90639184Y-45553508D01*
X90634488Y-45548684D01*
X90629641Y-45543969D01*
X90627151Y-45541651D01*
X90624611Y-45539359D01*
X90622018Y-45537092D01*
X90619367Y-45534850D01*
X90608639Y-45525968D01*
X90598164Y-45516945D01*
X90593065Y-45512339D01*
X90588080Y-45507648D01*
X90583229Y-45502856D01*
X90578526Y-45497947D01*
X90573991Y-45492903D01*
X90569640Y-45487708D01*
X90565490Y-45482346D01*
X90561558Y-45476801D01*
X90557862Y-45471055D01*
X90554420Y-45465092D01*
X90551248Y-45458897D01*
X90548363Y-45452451D01*
X90546749Y-45447181D01*
X90545347Y-45441809D01*
X90544161Y-45436350D01*
X90543195Y-45430820D01*
X90542455Y-45425235D01*
X90541944Y-45419611D01*
X90541667Y-45413963D01*
X90541629Y-45408307D01*
X90541834Y-45402658D01*
X90542286Y-45397033D01*
X90542990Y-45391448D01*
X90543950Y-45385916D01*
X90545171Y-45380456D01*
X90546657Y-45375081D01*
X90548413Y-45369808D01*
X90550443Y-45364653D01*
X90553914Y-45356919D01*
X90555469Y-45353206D01*
X90556899Y-45349568D01*
X90558200Y-45345986D01*
X90559369Y-45342439D01*
X90560403Y-45338906D01*
X90561298Y-45335369D01*
X90562050Y-45331806D01*
X90562657Y-45328197D01*
X90563114Y-45324522D01*
X90563419Y-45320761D01*
X90563567Y-45316893D01*
X90563555Y-45312899D01*
X90563381Y-45308758D01*
X90563040Y-45304450D01*
X90561537Y-45301654D01*
X90559926Y-45299045D01*
X90558211Y-45296612D01*
X90556395Y-45294342D01*
X90554481Y-45292221D01*
X90552471Y-45290236D01*
X90550370Y-45288375D01*
X90548181Y-45286625D01*
X90545906Y-45284972D01*
X90543549Y-45283404D01*
X90541113Y-45281908D01*
X90538602Y-45280470D01*
X90536018Y-45279078D01*
X90533365Y-45277719D01*
X90527865Y-45275047D01*
X90518686Y-45270752D01*
X90509657Y-45266386D01*
X90500828Y-45261827D01*
X90496505Y-45259437D01*
X90492251Y-45256953D01*
X90488074Y-45254360D01*
X90483979Y-45251641D01*
X90479974Y-45248783D01*
X90476064Y-45245770D01*
X90472256Y-45242586D01*
X90468556Y-45239216D01*
X90464971Y-45235645D01*
X90461508Y-45231858D01*
X90457440Y-45226022D01*
X90453780Y-45220056D01*
X90450516Y-45213967D01*
X90447639Y-45207764D01*
X90445135Y-45201454D01*
X90442994Y-45195046D01*
X90441205Y-45188547D01*
X90439755Y-45181966D01*
X90438634Y-45175310D01*
X90437829Y-45168587D01*
X90437330Y-45161806D01*
X90437125Y-45154975D01*
X90437203Y-45148101D01*
X90437551Y-45141192D01*
X90438160Y-45134257D01*
X90439016Y-45127303D01*
X90439563Y-45123025D01*
X90440002Y-45118752D01*
X90440347Y-45114482D01*
X90440608Y-45110211D01*
X90440799Y-45105934D01*
X90440930Y-45101649D01*
X90441064Y-45093036D01*
X90441065Y-45092671D01*
X90839279Y-45092671D01*
X90840017Y-45104694D01*
X90841329Y-45116667D01*
X90843207Y-45128566D01*
X90845644Y-45140364D01*
X90848632Y-45152033D01*
X90852164Y-45163547D01*
X90856232Y-45174881D01*
X90860828Y-45186007D01*
X90865945Y-45196899D01*
X90871575Y-45207531D01*
X90877710Y-45217875D01*
X90884344Y-45227905D01*
X90891468Y-45237596D01*
X90899074Y-45246920D01*
X90907156Y-45255851D01*
X90915705Y-45264362D01*
X90923534Y-45271377D01*
X90933858Y-45280273D01*
X90944345Y-45288398D01*
X90955001Y-45295779D01*
X90965833Y-45302439D01*
X90976846Y-45308405D01*
X90988046Y-45313700D01*
X90999439Y-45318351D01*
X91011031Y-45322382D01*
X91022827Y-45325818D01*
X91034834Y-45328685D01*
X91047057Y-45331007D01*
X91059502Y-45332810D01*
X91072176Y-45334118D01*
X91085083Y-45334957D01*
X91098231Y-45335352D01*
X91111624Y-45335327D01*
X91123398Y-45334490D01*
X91135046Y-45333033D01*
X91146552Y-45330973D01*
X91157900Y-45328326D01*
X91169073Y-45325112D01*
X91180058Y-45321346D01*
X91190836Y-45317047D01*
X91201394Y-45312231D01*
X91211714Y-45306915D01*
X91221781Y-45301119D01*
X91231580Y-45294857D01*
X91241095Y-45288149D01*
X91250309Y-45281011D01*
X91259207Y-45273461D01*
X91267774Y-45265515D01*
X91275993Y-45257192D01*
X91284029Y-45248226D01*
X91289697Y-45241703D01*
X91295176Y-45234925D01*
X91300451Y-45227907D01*
X91305507Y-45220666D01*
X91310329Y-45213220D01*
X91314902Y-45205585D01*
X91319210Y-45197779D01*
X91323238Y-45189817D01*
X91326970Y-45181716D01*
X91330393Y-45173494D01*
X91333490Y-45165167D01*
X91336246Y-45156753D01*
X91338647Y-45148267D01*
X91340676Y-45139726D01*
X91342319Y-45131148D01*
X91343560Y-45122549D01*
X91344205Y-45108208D01*
X91344393Y-45094046D01*
X91344097Y-45080066D01*
X91343288Y-45066272D01*
X91341935Y-45052668D01*
X91340012Y-45039256D01*
X91337488Y-45026040D01*
X91334336Y-45013023D01*
X91330525Y-45000209D01*
X91326027Y-44987600D01*
X91320813Y-44975201D01*
X91314855Y-44963015D01*
X91308123Y-44951045D01*
X91300588Y-44939294D01*
X91292222Y-44927766D01*
X91282995Y-44916464D01*
X91274051Y-44907491D01*
X91264820Y-44898877D01*
X91255308Y-44890649D01*
X91245517Y-44882833D01*
X91235454Y-44875454D01*
X91225121Y-44868539D01*
X91214523Y-44862113D01*
X91203665Y-44856203D01*
X91192551Y-44850835D01*
X91181185Y-44846035D01*
X91169571Y-44841828D01*
X91157714Y-44838242D01*
X91145619Y-44835301D01*
X91133288Y-44833033D01*
X91120728Y-44831462D01*
X91107942Y-44830616D01*
X91094597Y-44830650D01*
X91081392Y-44831188D01*
X91068339Y-44832243D01*
X91055450Y-44833831D01*
X91042736Y-44835965D01*
X91030211Y-44838661D01*
X91017884Y-44841932D01*
X91005770Y-44845794D01*
X90993879Y-44850260D01*
X90982224Y-44855346D01*
X90970816Y-44861065D01*
X90959669Y-44867432D01*
X90948792Y-44874461D01*
X90938200Y-44882167D01*
X90927903Y-44890565D01*
X90917914Y-44899669D01*
X90908413Y-44909951D01*
X90899505Y-44920446D01*
X90891192Y-44931160D01*
X90883480Y-44942096D01*
X90876372Y-44953262D01*
X90869872Y-44964662D01*
X90863986Y-44976300D01*
X90858716Y-44988183D01*
X90854068Y-45000316D01*
X90850045Y-45012703D01*
X90846652Y-45025351D01*
X90843893Y-45038263D01*
X90841772Y-45051447D01*
X90840293Y-45064906D01*
X90839461Y-45078645D01*
X90839279Y-45092671D01*
X90441065Y-45092671D01*
X90441083Y-45085962D01*
X90441091Y-45081143D01*
X90441045Y-45076352D01*
X90440933Y-45071580D01*
X90440745Y-45066821D01*
X90440470Y-45062067D01*
X90440098Y-45057308D01*
X90439616Y-45052538D01*
X90439016Y-45047748D01*
X90438053Y-45041119D01*
X90437743Y-45038751D01*
X90437514Y-45036677D01*
X90437342Y-45034648D01*
X90437203Y-45032412D01*
X90436923Y-45026315D01*
X90436949Y-45016509D01*
X90437002Y-45010116D01*
X90437220Y-45003858D01*
X90437642Y-44997703D01*
X90437942Y-44994656D01*
X90438308Y-44991623D01*
X90438743Y-44988602D01*
X90439254Y-44985588D01*
X90439845Y-44982578D01*
X90440521Y-44979569D01*
X90441287Y-44976555D01*
X90442147Y-44973534D01*
X90443107Y-44970502D01*
X90444171Y-44967455D01*
X90447479Y-44960774D01*
X90450923Y-44954458D01*
X90454514Y-44948491D01*
X90458268Y-44942858D01*
X90462198Y-44937541D01*
X90466319Y-44932526D01*
X90470644Y-44927795D01*
X90475188Y-44923333D01*
X90479964Y-44919124D01*
X90484986Y-44915151D01*
X90490269Y-44911398D01*
X90495826Y-44907850D01*
X90501671Y-44904491D01*
X90507819Y-44901303D01*
X90514283Y-44898271D01*
X90521078Y-44895380D01*
X90524619Y-44894056D01*
X90527972Y-44892735D01*
X90531151Y-44891399D01*
X90534170Y-44890030D01*
X90537043Y-44888610D01*
X90539784Y-44887122D01*
X90542408Y-44885547D01*
X90544927Y-44883869D01*
X90547357Y-44882069D01*
X90549712Y-44880130D01*
X90552005Y-44878034D01*
X90554250Y-44875764D01*
X90556462Y-44873301D01*
X90558655Y-44870628D01*
X90560843Y-44867727D01*
X90563040Y-44864580D01*
X90563995Y-44861172D01*
X90564680Y-44857779D01*
X90565113Y-44854399D01*
X90565310Y-44851033D01*
X90565290Y-44847681D01*
X90565071Y-44844342D01*
X90564671Y-44841015D01*
X90564109Y-44837702D01*
X90563401Y-44834401D01*
X90562567Y-44831113D01*
X90561623Y-44827836D01*
X90560588Y-44824572D01*
X90558318Y-44818077D01*
X90555899Y-44811627D01*
X90553114Y-44804387D01*
X90550376Y-44797137D01*
X90547718Y-44789858D01*
X90545172Y-44782531D01*
X90543859Y-44777235D01*
X90542794Y-44771895D01*
X90541976Y-44766521D01*
X90541406Y-44761124D01*
X90541082Y-44755713D01*
X90541006Y-44750298D01*
X90541176Y-44744890D01*
X90541592Y-44739499D01*
X90542254Y-44734135D01*
X90543162Y-44728808D01*
X90544315Y-44723529D01*
X90545714Y-44718307D01*
X90547356Y-44713152D01*
X90549244Y-44708075D01*
X90551375Y-44703086D01*
X90553751Y-44698195D01*
X90558285Y-44691154D01*
X90559219Y-44689675D01*
X90560161Y-44688239D01*
X90561113Y-44686842D01*
X90562079Y-44685482D01*
X90563061Y-44684157D01*
X90564063Y-44682864D01*
X90565087Y-44681602D01*
X90566136Y-44680366D01*
X90567214Y-44679156D01*
X90568322Y-44677968D01*
X90569465Y-44676801D01*
X90570645Y-44675651D01*
X90571866Y-44674516D01*
X90573129Y-44673394D01*
X90574438Y-44672283D01*
X90575797Y-44671179D01*
X90579749Y-44668169D01*
X90583635Y-44665118D01*
X90591226Y-44658892D01*
X90598607Y-44652508D01*
X90605818Y-44645971D01*
X90612897Y-44639285D01*
X90619883Y-44632457D01*
X90626816Y-44625491D01*
X90633733Y-44618394D01*
X90641227Y-44610708D01*
X90648761Y-44603219D01*
X90656377Y-44595925D01*
X90664118Y-44588827D01*
X90672030Y-44581923D01*
X90680154Y-44575212D01*
X90688536Y-44568695D01*
X90697218Y-44562369D01*
X90705005Y-44557592D01*
X90712905Y-44553555D01*
X90720913Y-44550213D01*
X90729021Y-44547523D01*
X90737222Y-44545439D01*
X90745509Y-44543918D01*
X90753875Y-44542916D01*
X90762314Y-44542387D01*
X90770817Y-44542288D01*
X90779379Y-44542575D01*
X90787993Y-44543203D01*
X90796651Y-44544127D01*
X90805346Y-44545304D01*
X90814072Y-44546690D01*
X90831588Y-44549908D01*
X90837699Y-44551090D01*
X90843793Y-44552184D01*
X90849881Y-44553192D01*
X90855971Y-44554116D01*
X90862072Y-44554957D01*
X90868195Y-44555718D01*
X90874347Y-44556399D01*
X90880539Y-44557002D01*
X90880555Y-44554548D01*
X90880592Y-44553502D01*
X90880665Y-44552534D01*
X90880785Y-44551614D01*
X90880964Y-44550709D01*
X90881214Y-44549790D01*
X90881547Y-44548825D01*
X90881974Y-44547782D01*
X90882508Y-44546630D01*
X90883159Y-44545339D01*
X90883941Y-44543877D01*
X90885941Y-44540314D01*
X90888603Y-44535692D01*
X90895718Y-44523543D01*
X90899427Y-44517173D01*
X90902248Y-44512315D01*
X90905043Y-44507445D01*
X90907805Y-44502557D01*
X90910528Y-44497644D01*
X90913948Y-44491309D01*
X90920640Y-44479074D01*
X90923049Y-44474710D01*
X90925457Y-44470596D01*
X90926675Y-44468618D01*
X90927913Y-44466685D01*
X90929175Y-44464792D01*
X90930468Y-44462931D01*
X90931799Y-44461098D01*
X90933173Y-44459287D01*
X90934598Y-44457492D01*
X90936078Y-44455706D01*
X90937622Y-44453925D01*
X90939235Y-44452141D01*
X90940923Y-44450351D01*
X90942693Y-44448546D01*
X90959488Y-44437292D01*
X90967045Y-44432812D01*
X90974524Y-44429069D01*
X90982289Y-44426040D01*
X90990701Y-44423704D01*
X91000124Y-44422038D01*
X91010920Y-44421021D01*
X91023451Y-44420630D01*
X91038081Y-44420844D01*
X91055171Y-44421642D01*
X91075086Y-44423000D01*
X91124834Y-44427313D01*
X91190228Y-44433608D01*
X91198246Y-44434426D01*
X91204853Y-44435134D01*
X91211396Y-44435951D01*
X91217927Y-44436884D01*
X91224497Y-44437940D01*
X91227217Y-44439827D01*
X91229810Y-44441773D01*
X91232284Y-44443779D01*
X91234649Y-44445845D01*
X91236913Y-44447970D01*
X91239085Y-44450155D01*
X91241174Y-44452399D01*
X91243188Y-44454704D01*
X91245136Y-44457068D01*
X91247027Y-44459492D01*
X91248870Y-44461977D01*
X91250673Y-44464521D01*
X91254194Y-44469791D01*
X91257661Y-44475302D01*
X91262515Y-44484062D01*
X91267400Y-44492805D01*
X91272419Y-44501746D01*
X91277414Y-44510700D01*
X91282944Y-44520712D01*
X91287956Y-44529511D01*
X91289233Y-44531732D01*
X91290512Y-44533806D01*
X91291803Y-44535744D01*
X91293113Y-44537557D01*
X91294454Y-44539257D01*
X91295833Y-44540854D01*
X91297261Y-44542361D01*
X91298746Y-44543787D01*
X91300297Y-44545146D01*
X91301924Y-44546448D01*
X91303636Y-44547704D01*
X91305442Y-44548925D01*
X91307352Y-44550124D01*
X91309375Y-44551311D01*
X91311519Y-44552497D01*
X91313794Y-44553695D01*
X91316699Y-44554547D01*
X91319485Y-44555218D01*
X91322169Y-44555718D01*
X91324765Y-44556054D01*
X91327289Y-44556234D01*
X91329758Y-44556266D01*
X91332185Y-44556160D01*
X91334588Y-44555922D01*
X91336980Y-44555561D01*
X91339379Y-44555086D01*
X91341799Y-44554504D01*
X91344255Y-44553824D01*
X91346764Y-44553054D01*
X91349341Y-44552202D01*
X91354761Y-44550284D01*
X91364561Y-44546683D01*
X91374294Y-44543258D01*
X91384015Y-44540126D01*
X91388888Y-44538704D01*
X91393778Y-44537398D01*
X91398693Y-44536223D01*
X91403639Y-44535191D01*
X91408623Y-44534318D01*
X91413652Y-44533618D01*
X91418733Y-44533105D01*
X91423873Y-44532793D01*
X91429078Y-44532697D01*
X91434355Y-44532831D01*
X91437854Y-44533307D01*
X91441302Y-44533882D01*
X91448048Y-44535320D01*
X91454598Y-44537130D01*
X91460957Y-44539299D01*
X91467129Y-44541812D01*
X91473119Y-44544655D01*
X91478931Y-44547815D01*
X91484571Y-44551278D01*
X91490042Y-44555030D01*
X91495350Y-44559057D01*
X91500499Y-44563345D01*
X91505492Y-44567880D01*
X91510336Y-44572648D01*
X91515035Y-44577636D01*
X91519593Y-44582830D01*
X91524014Y-44588215D01*
X91526698Y-44591615D01*
X91529422Y-44594937D01*
X91532185Y-44598188D01*
X91534988Y-44601373D01*
X91540713Y-44607564D01*
X91546599Y-44613555D01*
X91552646Y-44619389D01*
X91558855Y-44625109D01*
X91565227Y-44630757D01*
X91571763Y-44636377D01*
X91579833Y-44643290D01*
X91587713Y-44650287D01*
X91595386Y-44657418D01*
X91602833Y-44664732D01*
X91606467Y-44668473D01*
X91610038Y-44672278D01*
X91613543Y-44676153D01*
X91616981Y-44680105D01*
X91620350Y-44684140D01*
X91623647Y-44688263D01*
X91626869Y-44692481D01*
X91630016Y-44696800D01*
X91631982Y-44700326D01*
X91633763Y-44703898D01*
X91635362Y-44707514D01*
X91636788Y-44711170D01*
X91639143Y-44718594D01*
X91640876Y-44726150D01*
X91642037Y-44733817D01*
X91642677Y-44741574D01*
X91642845Y-44749401D01*
X91642590Y-44757275D01*
X91641963Y-44765178D01*
X91641013Y-44773087D01*
X91639790Y-44780983D01*
X91638344Y-44788844D01*
X91634982Y-44804377D01*
X91631325Y-44819523D01*
X91629626Y-44826469D01*
X91627957Y-44833424D01*
X91624105Y-44849658D01*
X91620191Y-44865878D01*
X91618065Y-44874502D01*
X91627987Y-44874502D01*
X91636541Y-44877930D01*
X91644809Y-44881519D01*
X91652788Y-44885293D01*
X91660477Y-44889276D01*
X91667876Y-44893492D01*
X91674982Y-44897965D01*
X91681795Y-44902720D01*
X91688313Y-44907781D01*
X91694535Y-44913170D01*
X91700460Y-44918914D01*
X91706086Y-44925035D01*
X91711411Y-44931557D01*
X91716435Y-44938506D01*
X91721157Y-44945904D01*
X91725574Y-44953776D01*
X91729686Y-44962145D01*
X91734488Y-44975876D01*
X91738731Y-44990181D01*
X91742398Y-45004978D01*
X91745471Y-45020182D01*
X91747931Y-45035710D01*
X91749762Y-45051477D01*
X91750945Y-45067400D01*
X91751463Y-45083396D01*
X91751352Y-45094046D01*
X91751297Y-45099379D01*
G37*
G36*
X87977597Y-40815640D02*
G01*
X88068605Y-40815655D01*
X88175444Y-40815699D01*
X88366109Y-40815766D01*
X88551308Y-40815843D01*
X88562865Y-40815843D01*
X88574408Y-40815842D01*
X88786793Y-40815884D01*
X88861523Y-40815903D01*
X88953339Y-40815942D01*
X89000286Y-40815975D01*
X89043643Y-40815991D01*
X89059590Y-40816013D01*
X89110429Y-40816917D01*
X89161246Y-40819751D01*
X89211946Y-40824526D01*
X89262435Y-40831255D01*
X89312620Y-40839947D01*
X89362405Y-40850615D01*
X89411696Y-40863271D01*
X89460400Y-40877925D01*
X89508423Y-40894590D01*
X89555669Y-40913276D01*
X89602046Y-40933996D01*
X89647458Y-40956760D01*
X89691812Y-40981581D01*
X89735013Y-41008469D01*
X89776967Y-41037436D01*
X89817581Y-41068495D01*
X89828820Y-41077732D01*
X89836941Y-41084248D01*
X89844965Y-41090825D01*
X89852891Y-41097478D01*
X89860721Y-41104223D01*
X89868455Y-41111078D01*
X89876093Y-41118058D01*
X89883635Y-41125180D01*
X89891081Y-41132459D01*
X89899721Y-41141190D01*
X89916959Y-41158732D01*
X89925463Y-41167585D01*
X89933873Y-41176516D01*
X89942177Y-41185543D01*
X89950363Y-41194684D01*
X89958419Y-41203958D01*
X89966332Y-41213382D01*
X89974342Y-41223252D01*
X89979324Y-41229290D01*
X89984276Y-41235347D01*
X89989189Y-41241435D01*
X89994056Y-41247566D01*
X90000800Y-41256325D01*
X90015824Y-41276243D01*
X90030316Y-41296491D01*
X90044266Y-41317076D01*
X90057665Y-41338003D01*
X90070502Y-41359278D01*
X90082768Y-41380905D01*
X90094453Y-41402892D01*
X90105548Y-41425243D01*
X90111243Y-41437267D01*
X90117014Y-41449255D01*
X90132487Y-41482829D01*
X90146388Y-41516772D01*
X90158795Y-41551059D01*
X90169787Y-41585666D01*
X90179441Y-41620568D01*
X90187838Y-41655742D01*
X90195055Y-41691163D01*
X90201171Y-41726808D01*
X90206264Y-41762652D01*
X90210413Y-41798670D01*
X90213696Y-41834840D01*
X90216193Y-41871137D01*
X90219140Y-41944014D01*
X90219882Y-42017109D01*
X90219838Y-42065189D01*
X90219779Y-42146249D01*
X90219694Y-42239799D01*
X90219653Y-42341156D01*
X90219634Y-42370046D01*
X90219596Y-42415974D01*
X90219561Y-42433098D01*
X90218663Y-42484017D01*
X90215912Y-42534506D01*
X90211277Y-42584520D01*
X90204729Y-42634019D01*
X90196235Y-42682961D01*
X90185765Y-42731302D01*
X90173289Y-42779001D01*
X90158776Y-42826016D01*
X90142196Y-42872305D01*
X90123516Y-42917825D01*
X90102708Y-42962535D01*
X90079741Y-43006392D01*
X90054582Y-43049355D01*
X90027203Y-43091380D01*
X89997572Y-43132427D01*
X89965658Y-43172452D01*
X89961112Y-43177862D01*
X89950645Y-43190020D01*
X89939878Y-43201878D01*
X89928844Y-43213471D01*
X89917578Y-43224833D01*
X89906112Y-43236000D01*
X89894481Y-43247007D01*
X89882718Y-43257889D01*
X89870857Y-43268681D01*
X89865201Y-43273773D01*
X89853006Y-43284560D01*
X89840655Y-43295108D01*
X89828152Y-43305436D01*
X89815501Y-43315564D01*
X89802706Y-43325512D01*
X89789771Y-43335301D01*
X89776699Y-43344951D01*
X89763497Y-43354480D01*
X89756060Y-43359763D01*
X89735485Y-43374038D01*
X89714520Y-43387815D01*
X89693190Y-43401075D01*
X89671519Y-43413798D01*
X89649531Y-43425964D01*
X89627250Y-43437553D01*
X89604700Y-43448545D01*
X89581906Y-43458920D01*
X89574159Y-43462289D01*
X89539697Y-43477031D01*
X89522391Y-43484131D01*
X89505009Y-43491011D01*
X89487535Y-43497642D01*
X89469948Y-43503998D01*
X89452230Y-43510048D01*
X89434363Y-43515764D01*
X89425331Y-43518513D01*
X89392665Y-43528082D01*
X89359859Y-43536883D01*
X89326906Y-43544914D01*
X89293799Y-43552173D01*
X89260531Y-43558657D01*
X89227095Y-43564365D01*
X89193486Y-43569295D01*
X89159695Y-43573445D01*
X89147518Y-43574737D01*
X89070875Y-43582085D01*
X89034940Y-43583954D01*
X88992704Y-43584635D01*
X88938245Y-43584138D01*
X88865644Y-43582476D01*
X88642335Y-43575699D01*
X88297096Y-43565835D01*
X88217024Y-43564788D01*
X88139745Y-43565044D01*
X88065409Y-43566972D01*
X87994165Y-43570940D01*
X87926161Y-43577314D01*
X87861547Y-43586465D01*
X87800473Y-43598758D01*
X87743086Y-43614564D01*
X87715823Y-43623898D01*
X87689537Y-43634248D01*
X87664248Y-43645660D01*
X87639974Y-43658180D01*
X87616734Y-43671854D01*
X87594547Y-43686727D01*
X87573431Y-43702846D01*
X87553404Y-43720258D01*
X87542231Y-43732558D01*
X87532133Y-43745131D01*
X87523062Y-43757974D01*
X87514969Y-43771085D01*
X87507806Y-43784460D01*
X87501524Y-43798099D01*
X87496074Y-43811998D01*
X87491408Y-43826155D01*
X87487477Y-43840567D01*
X87484232Y-43855233D01*
X87481626Y-43870149D01*
X87479608Y-43885313D01*
X87478132Y-43900723D01*
X87477147Y-43916376D01*
X87476605Y-43932270D01*
X87476459Y-43948403D01*
X87476468Y-43967128D01*
X87476435Y-44018419D01*
X87476445Y-44072933D01*
X87476462Y-44164412D01*
X87476474Y-44270639D01*
X87476439Y-44362766D01*
X87476448Y-44417628D01*
X87476445Y-44469862D01*
X87476480Y-44489205D01*
X87476439Y-44521459D01*
X87476688Y-44537584D01*
X87476952Y-44545642D01*
X87477336Y-44553695D01*
X87479318Y-44568314D01*
X87481906Y-44582869D01*
X87485101Y-44597322D01*
X87488905Y-44611638D01*
X87493317Y-44625780D01*
X87498340Y-44639713D01*
X87503974Y-44653400D01*
X87510219Y-44666805D01*
X87517078Y-44679891D01*
X87524551Y-44692624D01*
X87532638Y-44704965D01*
X87541341Y-44716880D01*
X87550661Y-44728332D01*
X87560599Y-44739285D01*
X87571155Y-44749702D01*
X87582330Y-44759548D01*
X87589784Y-44765362D01*
X87595945Y-44770109D01*
X87602188Y-44774677D01*
X87608517Y-44779077D01*
X87614938Y-44783317D01*
X87621454Y-44787409D01*
X87628071Y-44791364D01*
X87634792Y-44795190D01*
X87641622Y-44798900D01*
X87648282Y-44802362D01*
X87656037Y-44806326D01*
X87663819Y-44809918D01*
X87671632Y-44813155D01*
X87679479Y-44816050D01*
X87687365Y-44818621D01*
X87695294Y-44820882D01*
X87703270Y-44822849D01*
X87711298Y-44824537D01*
X87719382Y-44825962D01*
X87727526Y-44827139D01*
X87735733Y-44828085D01*
X87744009Y-44828813D01*
X87752358Y-44829341D01*
X87760783Y-44829683D01*
X87777880Y-44829871D01*
X87786557Y-44829831D01*
X87795235Y-44829826D01*
X87819325Y-44829865D01*
X87843416Y-44829822D01*
X87895961Y-44829766D01*
X87999008Y-44829700D01*
X88119988Y-44829580D01*
X88335493Y-44829400D01*
X88545353Y-44829181D01*
X88558443Y-44829176D01*
X88610584Y-44829157D01*
X88811504Y-44829030D01*
X88871936Y-44828980D01*
X89000236Y-44828851D01*
X89053344Y-44828778D01*
X89102607Y-44828724D01*
X89120510Y-44828687D01*
X89145272Y-44828668D01*
X89152714Y-44828644D01*
X89161223Y-44828473D01*
X89169656Y-44827931D01*
X89178010Y-44827032D01*
X89186286Y-44825789D01*
X89194482Y-44824215D01*
X89202597Y-44822323D01*
X89210631Y-44820126D01*
X89218583Y-44817637D01*
X89226450Y-44814870D01*
X89234234Y-44811838D01*
X89241932Y-44808554D01*
X89249544Y-44805030D01*
X89257069Y-44801281D01*
X89264506Y-44797319D01*
X89271854Y-44793158D01*
X89279112Y-44788810D01*
X89294030Y-44778525D01*
X89307965Y-44767748D01*
X89320956Y-44756482D01*
X89333043Y-44744731D01*
X89344266Y-44732496D01*
X89354665Y-44719782D01*
X89364278Y-44706591D01*
X89373147Y-44692926D01*
X89381309Y-44678791D01*
X89388806Y-44664188D01*
X89395677Y-44649120D01*
X89401961Y-44633592D01*
X89407698Y-44617605D01*
X89412928Y-44601162D01*
X89417690Y-44584268D01*
X89422024Y-44566924D01*
X89425331Y-44183278D01*
X90252154Y-44183278D01*
X90252730Y-44397349D01*
X90250300Y-44503896D01*
X90247486Y-44556856D01*
X90243257Y-44609534D01*
X90237349Y-44661875D01*
X90229501Y-44713824D01*
X90219449Y-44765326D01*
X90206932Y-44816327D01*
X90191687Y-44866772D01*
X90173450Y-44916606D01*
X90151960Y-44965774D01*
X90126955Y-45014222D01*
X90121193Y-45024348D01*
X90118341Y-45029426D01*
X90115513Y-45034520D01*
X90107449Y-45048994D01*
X90099235Y-45063311D01*
X90090843Y-45077473D01*
X90082243Y-45091481D01*
X90073406Y-45105339D01*
X90064302Y-45119047D01*
X90054903Y-45132609D01*
X90045178Y-45146025D01*
X90040487Y-45152315D01*
X90028829Y-45167864D01*
X90022916Y-45175555D01*
X90016926Y-45183180D01*
X90010846Y-45190732D01*
X90004660Y-45198204D01*
X89998354Y-45205589D01*
X89991911Y-45212880D01*
X89986995Y-45218203D01*
X89982104Y-45223543D01*
X89977262Y-45228929D01*
X89974867Y-45231646D01*
X89972494Y-45234384D01*
X89968112Y-45239433D01*
X89963687Y-45244412D01*
X89959213Y-45249322D01*
X89954682Y-45254167D01*
X89950085Y-45258951D01*
X89945417Y-45263675D01*
X89940668Y-45268344D01*
X89935831Y-45272959D01*
X89929280Y-45279025D01*
X89914313Y-45292804D01*
X89899188Y-45306380D01*
X89883867Y-45319734D01*
X89876122Y-45326322D01*
X89868315Y-45332847D01*
X89858586Y-45340830D01*
X89815065Y-45374963D01*
X89770242Y-45406378D01*
X89724197Y-45435145D01*
X89677012Y-45461335D01*
X89628767Y-45485017D01*
X89579544Y-45506261D01*
X89529424Y-45525138D01*
X89478488Y-45541718D01*
X89426817Y-45556071D01*
X89374491Y-45568266D01*
X89321593Y-45578375D01*
X89268203Y-45586467D01*
X89214402Y-45592613D01*
X89160271Y-45596882D01*
X89105891Y-45599344D01*
X89051344Y-45600071D01*
X88999683Y-45600054D01*
X88898151Y-45600051D01*
X88778906Y-45600002D01*
X88566030Y-45599923D01*
X88359361Y-45599840D01*
X88132775Y-45599831D01*
X88108557Y-45599819D01*
X88096520Y-45599813D01*
X88013140Y-45599799D01*
X87910692Y-45599759D01*
X87858254Y-45599712D01*
X87793654Y-45599421D01*
X87761498Y-45598783D01*
X87729410Y-45597612D01*
X87697367Y-45595756D01*
X87665348Y-45593059D01*
X87633331Y-45589369D01*
X87601296Y-45584532D01*
X87594126Y-45583296D01*
X87544259Y-45574023D01*
X87494592Y-45563038D01*
X87445295Y-45550218D01*
X87420838Y-45543082D01*
X87396537Y-45535441D01*
X87372414Y-45527279D01*
X87348489Y-45518581D01*
X87324785Y-45509331D01*
X87301322Y-45499514D01*
X87278121Y-45489115D01*
X87255205Y-45478118D01*
X87232594Y-45466508D01*
X87210309Y-45454268D01*
X87202831Y-45449971D01*
X87183271Y-45438680D01*
X87163801Y-45427163D01*
X87144483Y-45415361D01*
X87125379Y-45403211D01*
X87106551Y-45390654D01*
X87088062Y-45377627D01*
X87069974Y-45364071D01*
X87061100Y-45357076D01*
X87052350Y-45349925D01*
X87045813Y-45344276D01*
X87039256Y-45338674D01*
X87035954Y-45335904D01*
X87032628Y-45333160D01*
X87029271Y-45330447D01*
X87025878Y-45327769D01*
X87017445Y-45321083D01*
X87009126Y-45314227D01*
X87000920Y-45307211D01*
X86992824Y-45300044D01*
X86976959Y-45285293D01*
X86961517Y-45270049D01*
X86946486Y-45254388D01*
X86931853Y-45238384D01*
X86917605Y-45222111D01*
X86903728Y-45205645D01*
X86895253Y-45195310D01*
X86873316Y-45168372D01*
X86852392Y-45140738D01*
X86832483Y-45112439D01*
X86813591Y-45083506D01*
X86795717Y-45053972D01*
X86778862Y-45023868D01*
X86763029Y-44993225D01*
X86748219Y-44962075D01*
X86734433Y-44930451D01*
X86721673Y-44898383D01*
X86709941Y-44865903D01*
X86699237Y-44833044D01*
X86689564Y-44799836D01*
X86680923Y-44766311D01*
X86673316Y-44732501D01*
X86666744Y-44698438D01*
X86664569Y-44685780D01*
X86660846Y-44662623D01*
X86657697Y-44639424D01*
X86655101Y-44616182D01*
X86653037Y-44592899D01*
X86651484Y-44569575D01*
X86650421Y-44546210D01*
X86649826Y-44522805D01*
X86649680Y-44499360D01*
X86649704Y-44480353D01*
X86649712Y-44428019D01*
X86649758Y-44372498D01*
X86649816Y-44279198D01*
X86649901Y-44171050D01*
X86649942Y-44054410D01*
X86649961Y-44021076D01*
X86650000Y-43967914D01*
X86650034Y-43948227D01*
X86650909Y-43902677D01*
X86653567Y-43857098D01*
X86658016Y-43811584D01*
X86664265Y-43766231D01*
X86672322Y-43721133D01*
X86682196Y-43676387D01*
X86693894Y-43632088D01*
X86707424Y-43588330D01*
X86722796Y-43545210D01*
X86740017Y-43502823D01*
X86759096Y-43461264D01*
X86780041Y-43420628D01*
X86802859Y-43381011D01*
X86827561Y-43342508D01*
X86854152Y-43305214D01*
X86882643Y-43269226D01*
X86888547Y-43262324D01*
X86894415Y-43255403D01*
X86900223Y-43248433D01*
X86905950Y-43241385D01*
X86910683Y-43235499D01*
X86915463Y-43229687D01*
X86920300Y-43223948D01*
X86925204Y-43218279D01*
X86930186Y-43212678D01*
X86935254Y-43207143D01*
X86940418Y-43201670D01*
X86945690Y-43196259D01*
X87008031Y-43146035D01*
X87069461Y-43100291D01*
X87130039Y-43058857D01*
X87189824Y-43021567D01*
X87248874Y-42988250D01*
X87307248Y-42958740D01*
X87365004Y-42932868D01*
X87422203Y-42910466D01*
X87478901Y-42891366D01*
X87535159Y-42875399D01*
X87591034Y-42862398D01*
X87646586Y-42852194D01*
X87701873Y-42844619D01*
X87756954Y-42839505D01*
X87811888Y-42836684D01*
X87866733Y-42835988D01*
X87888710Y-42836098D01*
X87967027Y-42836838D01*
X88045300Y-42838534D01*
X88123554Y-42840983D01*
X88201817Y-42843983D01*
X88354049Y-42849781D01*
X88361649Y-42850052D01*
X88429093Y-42852223D01*
X88496531Y-42853843D01*
X88563982Y-42854809D01*
X88631463Y-42855016D01*
X88640056Y-42854987D01*
X88684254Y-42854779D01*
X88728438Y-42854206D01*
X88772606Y-42852990D01*
X88794682Y-42852054D01*
X88816754Y-42850855D01*
X88823404Y-42850440D01*
X88865642Y-42847620D01*
X88907982Y-42844010D01*
X88950300Y-42839389D01*
X88992475Y-42833534D01*
X89034381Y-42826224D01*
X89055195Y-42821954D01*
X89075897Y-42817237D01*
X89096470Y-42812046D01*
X89116898Y-42806352D01*
X89137168Y-42800128D01*
X89157263Y-42793346D01*
X89164055Y-42790909D01*
X89184097Y-42783467D01*
X89194085Y-42779451D01*
X89204025Y-42775228D01*
X89213898Y-42770791D01*
X89223684Y-42766132D01*
X89233363Y-42761242D01*
X89242916Y-42756116D01*
X89252324Y-42750745D01*
X89261567Y-42745120D01*
X89270624Y-42739236D01*
X89279478Y-42733084D01*
X89288107Y-42726656D01*
X89296493Y-42719945D01*
X89304616Y-42712943D01*
X89312457Y-42705643D01*
X89323150Y-42694001D01*
X89332914Y-42682138D01*
X89341781Y-42670049D01*
X89349784Y-42657728D01*
X89356955Y-42645170D01*
X89363327Y-42632370D01*
X89368931Y-42619324D01*
X89373800Y-42606026D01*
X89377966Y-42592471D01*
X89381463Y-42578654D01*
X89384321Y-42564571D01*
X89386574Y-42550215D01*
X89388254Y-42535583D01*
X89389393Y-42520668D01*
X89390024Y-42505466D01*
X89390178Y-42489973D01*
X89390134Y-42469999D01*
X89390101Y-42415338D01*
X89390019Y-42357296D01*
X89389910Y-42260004D01*
X89389741Y-42134305D01*
X89389651Y-42025227D01*
X89389613Y-41990400D01*
X89389533Y-41934718D01*
X89389484Y-41914212D01*
X89389445Y-41885652D01*
X89389416Y-41877023D01*
X89389019Y-41862577D01*
X89387816Y-41848226D01*
X89385831Y-41833994D01*
X89383092Y-41819904D01*
X89379623Y-41805981D01*
X89375451Y-41792248D01*
X89370602Y-41778729D01*
X89365102Y-41765447D01*
X89358977Y-41752426D01*
X89352253Y-41739690D01*
X89344955Y-41727262D01*
X89337110Y-41715166D01*
X89328744Y-41703426D01*
X89319882Y-41692065D01*
X89310552Y-41681108D01*
X89300778Y-41670577D01*
X89289001Y-41659925D01*
X89277005Y-41650026D01*
X89264783Y-41640871D01*
X89252330Y-41632453D01*
X89239638Y-41624762D01*
X89226703Y-41617790D01*
X89213518Y-41611529D01*
X89200076Y-41605970D01*
X89186371Y-41601105D01*
X89172398Y-41596925D01*
X89158149Y-41593422D01*
X89143620Y-41590587D01*
X89128803Y-41588411D01*
X89113692Y-41586887D01*
X89098282Y-41586006D01*
X89082565Y-41585759D01*
X89074660Y-41585782D01*
X89066756Y-41585778D01*
X89044787Y-41585727D01*
X89022818Y-41585738D01*
X88974915Y-41585735D01*
X88880929Y-41585702D01*
X88803868Y-41585732D01*
X88792794Y-41585727D01*
X88770510Y-41585717D01*
X88561746Y-41585761D01*
X88382186Y-41585770D01*
X88172681Y-41585713D01*
X88150315Y-41585722D01*
X88139197Y-41585727D01*
X88061992Y-41585712D01*
X87967043Y-41585718D01*
X87918500Y-41585757D01*
X87873625Y-41585748D01*
X87857160Y-41585795D01*
X87839079Y-41585761D01*
X87830040Y-41585807D01*
X87820999Y-41585916D01*
X87807425Y-41586727D01*
X87793964Y-41588257D01*
X87780639Y-41590489D01*
X87767472Y-41593402D01*
X87754487Y-41596979D01*
X87741705Y-41601200D01*
X87729150Y-41606048D01*
X87716845Y-41611502D01*
X87704813Y-41617545D01*
X87693076Y-41624158D01*
X87681657Y-41631322D01*
X87670578Y-41639018D01*
X87659864Y-41647227D01*
X87649536Y-41655931D01*
X87639617Y-41665112D01*
X87630130Y-41674749D01*
X87622858Y-41682966D01*
X87614446Y-41692777D01*
X87606645Y-41702659D01*
X87599423Y-41712630D01*
X87592747Y-41722708D01*
X87586586Y-41732909D01*
X87580906Y-41743251D01*
X87575675Y-41753752D01*
X87570862Y-41764428D01*
X87566433Y-41775298D01*
X87562356Y-41786378D01*
X87558599Y-41797686D01*
X87555130Y-41809239D01*
X87551916Y-41821055D01*
X87548925Y-41833151D01*
X87543482Y-41858252D01*
X87540175Y-42241898D01*
X86716660Y-42241898D01*
X86712269Y-41996423D01*
X86712577Y-41932776D01*
X86714782Y-41869337D01*
X86716804Y-41837872D01*
X86719550Y-41806668D01*
X86723103Y-41775797D01*
X86727547Y-41745329D01*
X86729062Y-41736710D01*
X86735964Y-41700141D01*
X86743929Y-41663987D01*
X86752963Y-41628262D01*
X86763072Y-41592978D01*
X86774259Y-41558148D01*
X86786532Y-41523787D01*
X86799894Y-41489906D01*
X86814352Y-41456520D01*
X86829910Y-41423642D01*
X86846575Y-41391285D01*
X86864350Y-41359461D01*
X86883242Y-41328185D01*
X86903256Y-41297469D01*
X86924397Y-41267328D01*
X86946671Y-41237773D01*
X86970082Y-41208819D01*
X86974628Y-41203409D01*
X86985096Y-41191250D01*
X86995863Y-41179392D01*
X87006897Y-41167800D01*
X87018163Y-41156438D01*
X87029628Y-41145271D01*
X87041259Y-41134263D01*
X87053022Y-41123381D01*
X87064882Y-41112589D01*
X87070540Y-41107497D01*
X87091405Y-41089196D01*
X87112734Y-41071459D01*
X87134512Y-41054292D01*
X87156722Y-41037701D01*
X87179349Y-41021692D01*
X87202378Y-41006272D01*
X87225793Y-40991446D01*
X87249577Y-40977221D01*
X87273715Y-40963603D01*
X87298191Y-40950598D01*
X87322990Y-40938211D01*
X87348096Y-40926450D01*
X87373493Y-40915320D01*
X87399165Y-40904827D01*
X87425097Y-40894978D01*
X87451273Y-40885778D01*
X87460800Y-40882601D01*
X87487088Y-40874083D01*
X87513456Y-40866142D01*
X87539925Y-40858779D01*
X87566515Y-40851991D01*
X87593245Y-40845776D01*
X87620135Y-40840133D01*
X87647206Y-40835059D01*
X87674477Y-40830554D01*
X87685903Y-40828858D01*
X87716451Y-40824753D01*
X87747039Y-40821583D01*
X87777664Y-40819229D01*
X87808325Y-40817575D01*
X87839019Y-40816505D01*
X87869745Y-40815901D01*
X87931285Y-40815623D01*
X87977597Y-40815640D01*
G37*
G36*
X100435304Y-41567211D02*
G01*
X99588638Y-41567211D01*
X99588638Y-44828200D01*
X100435304Y-44828200D01*
X100435304Y-45578956D01*
X97898612Y-45578956D01*
X97898612Y-44828200D01*
X98755200Y-44828200D01*
X98755200Y-41567211D01*
X97898612Y-41567211D01*
X97898612Y-40816456D01*
X100435304Y-40816456D01*
X100435304Y-41567211D01*
G37*
G36*
X97313221Y-45582263D02*
G01*
X96496320Y-45582263D01*
X96496320Y-43594581D01*
X95701123Y-43596027D01*
X95348812Y-43596654D01*
X95215283Y-43596903D01*
X95099922Y-43597108D01*
X95040405Y-43597225D01*
X94986168Y-43597315D01*
X94966304Y-43597365D01*
X94929071Y-43597420D01*
X94910423Y-43597623D01*
X94891777Y-43598075D01*
X94873152Y-43598874D01*
X94854564Y-43600119D01*
X94836032Y-43601908D01*
X94817572Y-43604339D01*
X94810428Y-43605536D01*
X94800345Y-43607297D01*
X94790293Y-43609276D01*
X94780291Y-43611493D01*
X94770360Y-43613968D01*
X94760517Y-43616721D01*
X94750783Y-43619772D01*
X94741176Y-43623140D01*
X94731717Y-43626845D01*
X94722424Y-43630907D01*
X94713318Y-43635347D01*
X94704417Y-43640183D01*
X94695740Y-43645436D01*
X94687307Y-43651125D01*
X94679138Y-43657271D01*
X94671252Y-43663892D01*
X94663667Y-43671010D01*
X94651925Y-43685848D01*
X94641480Y-43701411D01*
X94632259Y-43717629D01*
X94624186Y-43734432D01*
X94617188Y-43751749D01*
X94611191Y-43769511D01*
X94606121Y-43787647D01*
X94601904Y-43806088D01*
X94598465Y-43824762D01*
X94595731Y-43843601D01*
X94593628Y-43862534D01*
X94592080Y-43881490D01*
X94590359Y-43919195D01*
X94589975Y-43956154D01*
X94589975Y-43976309D01*
X94589881Y-44032465D01*
X94589818Y-44093622D01*
X94589662Y-44206683D01*
X94589557Y-44318894D01*
X94589545Y-44325962D01*
X94589485Y-44361514D01*
X94589165Y-44612698D01*
X94588893Y-44856910D01*
X94588870Y-44872254D01*
X94588684Y-44999121D01*
X94588387Y-45215360D01*
X94588013Y-45582263D01*
X93744653Y-45582263D01*
X93744337Y-44986005D01*
X93744295Y-44856806D01*
X93744290Y-44840908D01*
X93744155Y-44588578D01*
X93744033Y-44328663D01*
X93744027Y-44291862D01*
X93744026Y-44284544D01*
X93743955Y-44168503D01*
X93743900Y-44057726D01*
X93743886Y-43993627D01*
X93745130Y-43901350D01*
X93747070Y-43855336D01*
X93750123Y-43809519D01*
X93754468Y-43763984D01*
X93760283Y-43718815D01*
X93767744Y-43674099D01*
X93777029Y-43629921D01*
X93788315Y-43586365D01*
X93801780Y-43543517D01*
X93817602Y-43501462D01*
X93835957Y-43460286D01*
X93857022Y-43420074D01*
X93880977Y-43380910D01*
X93907996Y-43342881D01*
X93938259Y-43306071D01*
X93946398Y-43296924D01*
X93950644Y-43291913D01*
X93954901Y-43286970D01*
X93959196Y-43282102D01*
X93963555Y-43277315D01*
X93968005Y-43272615D01*
X93972571Y-43268008D01*
X93977280Y-43263500D01*
X93979697Y-43261285D01*
X93982159Y-43259097D01*
X93987675Y-43254400D01*
X93993157Y-43249675D01*
X93998597Y-43244904D01*
X94003992Y-43240067D01*
X94014235Y-43230821D01*
X94019393Y-43226280D01*
X94024592Y-43221797D01*
X94029843Y-43217378D01*
X94035159Y-43213024D01*
X94040550Y-43208739D01*
X94046031Y-43204527D01*
X94048437Y-43202817D01*
X94050314Y-43201472D01*
X94051810Y-43200372D01*
X94053077Y-43199399D01*
X94054263Y-43198433D01*
X94055520Y-43197357D01*
X94056998Y-43196052D01*
X94058846Y-43194398D01*
X94058846Y-43187784D01*
X94056335Y-43186511D01*
X94055251Y-43185929D01*
X94054232Y-43185341D01*
X94053241Y-43184717D01*
X94052242Y-43184025D01*
X94051198Y-43183235D01*
X94050072Y-43182315D01*
X94048826Y-43181233D01*
X94047424Y-43179960D01*
X94044005Y-43176713D01*
X94039520Y-43172324D01*
X94033673Y-43166545D01*
X94026187Y-43159052D01*
X94017576Y-43150347D01*
X94009075Y-43141574D01*
X94000683Y-43132722D01*
X93992402Y-43123780D01*
X93984231Y-43114739D01*
X93976172Y-43105587D01*
X93968224Y-43096313D01*
X93960388Y-43086908D01*
X93956320Y-43081950D01*
X93937003Y-43058040D01*
X93918626Y-43033521D01*
X93901188Y-43008421D01*
X93884687Y-42982767D01*
X93869122Y-42956584D01*
X93854492Y-42929900D01*
X93840796Y-42902741D01*
X93828033Y-42875134D01*
X93816200Y-42847106D01*
X93805297Y-42818684D01*
X93795323Y-42789894D01*
X93786276Y-42760762D01*
X93778154Y-42731316D01*
X93770958Y-42701583D01*
X93764684Y-42671588D01*
X93759333Y-42641359D01*
X93758296Y-42634846D01*
X93753633Y-42602197D01*
X93750082Y-42569508D01*
X93747493Y-42536777D01*
X93745717Y-42504006D01*
X93744604Y-42471194D01*
X93744006Y-42438342D01*
X93743752Y-42372515D01*
X93743762Y-42322851D01*
X93743779Y-42239102D01*
X93743791Y-42142501D01*
X93743756Y-42058285D01*
X93743765Y-42008092D01*
X93743881Y-41945005D01*
X93744302Y-41913512D01*
X93745013Y-41887245D01*
X94586741Y-41887245D01*
X94586769Y-41897096D01*
X94586769Y-41906947D01*
X94586762Y-41960901D01*
X94586810Y-42018298D01*
X94586878Y-42114665D01*
X94586969Y-42226478D01*
X94586987Y-42335177D01*
X94587016Y-42381235D01*
X94587053Y-42436193D01*
X94587105Y-42456618D01*
X94587396Y-42492365D01*
X94587925Y-42510476D01*
X94588827Y-42528661D01*
X94590185Y-42546852D01*
X94592087Y-42564987D01*
X94594619Y-42582999D01*
X94597866Y-42600824D01*
X94601915Y-42618396D01*
X94606853Y-42635652D01*
X94612764Y-42652526D01*
X94619736Y-42668953D01*
X94627853Y-42684869D01*
X94637204Y-42700208D01*
X94642368Y-42707641D01*
X94647873Y-42714906D01*
X94653729Y-42721994D01*
X94659947Y-42728897D01*
X94667242Y-42735429D01*
X94674760Y-42741579D01*
X94690427Y-42752778D01*
X94706862Y-42762587D01*
X94723982Y-42771095D01*
X94741702Y-42778395D01*
X94759939Y-42784577D01*
X94778609Y-42789732D01*
X94797626Y-42793952D01*
X94816908Y-42797327D01*
X94836370Y-42799949D01*
X94855928Y-42801909D01*
X94875498Y-42803298D01*
X94914337Y-42804726D01*
X94952214Y-42804964D01*
X94971367Y-42804938D01*
X95024676Y-42804926D01*
X95082755Y-42804888D01*
X95196688Y-42804837D01*
X95296674Y-42804767D01*
X95303383Y-42804765D01*
X95337132Y-42804759D01*
X95575639Y-42804642D01*
X95807549Y-42804504D01*
X95822117Y-42804499D01*
X95929527Y-42804461D01*
X96496320Y-42804138D01*
X96496320Y-41544060D01*
X95923072Y-41543423D01*
X95806051Y-41543344D01*
X95790937Y-41543333D01*
X95550787Y-41543062D01*
X95303518Y-41542820D01*
X95268565Y-41542807D01*
X95261614Y-41542805D01*
X95151124Y-41542661D01*
X95045721Y-41542552D01*
X94984825Y-41542524D01*
X94928463Y-41542435D01*
X94907839Y-41542469D01*
X94892044Y-41542643D01*
X94876651Y-41543381D01*
X94861641Y-41544703D01*
X94846992Y-41546627D01*
X94832685Y-41549175D01*
X94818699Y-41552367D01*
X94805013Y-41556221D01*
X94791608Y-41560759D01*
X94778462Y-41566000D01*
X94765554Y-41571965D01*
X94752866Y-41578672D01*
X94740376Y-41586142D01*
X94728063Y-41594396D01*
X94715907Y-41603453D01*
X94703889Y-41613332D01*
X94691986Y-41624055D01*
X94679180Y-41638185D01*
X94667203Y-41652591D01*
X94656056Y-41667280D01*
X94645739Y-41682259D01*
X94636252Y-41697536D01*
X94627595Y-41713116D01*
X94619769Y-41729009D01*
X94612773Y-41745220D01*
X94606608Y-41761757D01*
X94601275Y-41778627D01*
X94596773Y-41795838D01*
X94593103Y-41813395D01*
X94590264Y-41831308D01*
X94588257Y-41849582D01*
X94587083Y-41868226D01*
X94586741Y-41887245D01*
X93745013Y-41887245D01*
X93745154Y-41882050D01*
X93746579Y-41850620D01*
X93748719Y-41819218D01*
X93751715Y-41787845D01*
X93755710Y-41756498D01*
X93757263Y-41746631D01*
X93763084Y-41712281D01*
X93769933Y-41678195D01*
X93777806Y-41644399D01*
X93786702Y-41610916D01*
X93796621Y-41577772D01*
X93807560Y-41544991D01*
X93819518Y-41512598D01*
X93832493Y-41480618D01*
X93846485Y-41449075D01*
X93861491Y-41417993D01*
X93877510Y-41387398D01*
X93894541Y-41357314D01*
X93912583Y-41327765D01*
X93931633Y-41298777D01*
X93951690Y-41270373D01*
X93972753Y-41242579D01*
X93982778Y-41229867D01*
X93994236Y-41215175D01*
X94006128Y-41200727D01*
X94018428Y-41186525D01*
X94031110Y-41172572D01*
X94044147Y-41158872D01*
X94057514Y-41145426D01*
X94071183Y-41132239D01*
X94085128Y-41119313D01*
X94099322Y-41106651D01*
X94113741Y-41094257D01*
X94143142Y-41070281D01*
X94173120Y-41047410D01*
X94203463Y-41025668D01*
X94214289Y-41018200D01*
X94241595Y-40999617D01*
X94269587Y-40982013D01*
X94298216Y-40965374D01*
X94327433Y-40949688D01*
X94357187Y-40934938D01*
X94387431Y-40921112D01*
X94418114Y-40908195D01*
X94449189Y-40896174D01*
X94480604Y-40885034D01*
X94512311Y-40874762D01*
X94544262Y-40865342D01*
X94576406Y-40856762D01*
X94608694Y-40849007D01*
X94641077Y-40842064D01*
X94673507Y-40835917D01*
X94705933Y-40830554D01*
X94717410Y-40828858D01*
X94744956Y-40825127D01*
X94772542Y-40822130D01*
X94800166Y-40819797D01*
X94827825Y-40818058D01*
X94855518Y-40816842D01*
X94883242Y-40816079D01*
X94910994Y-40815699D01*
X94938772Y-40815630D01*
X94975961Y-40815650D01*
X95041455Y-40815657D01*
X95140379Y-40815705D01*
X95306970Y-40815750D01*
X95470171Y-40815824D01*
X95699200Y-40815860D01*
X96086629Y-40816042D01*
X97313221Y-40816456D01*
X97313221Y-41544060D01*
X97313221Y-45582263D01*
G37*
G36*
X91788383Y-43256413D02*
G01*
X91793688Y-43256800D01*
X91798971Y-43257495D01*
X91804229Y-43258524D01*
X91809457Y-43259910D01*
X91814652Y-43261678D01*
X91819810Y-43263851D01*
X91828332Y-43269289D01*
X91831866Y-43271763D01*
X91835009Y-43274245D01*
X91837831Y-43276861D01*
X91840404Y-43279741D01*
X91842797Y-43283011D01*
X91845080Y-43286800D01*
X91847325Y-43291236D01*
X91849601Y-43296445D01*
X91851979Y-43302557D01*
X91854529Y-43309699D01*
X91860429Y-43327585D01*
X91867861Y-43351124D01*
X91872784Y-43366705D01*
X91883776Y-43401312D01*
X91898457Y-43447719D01*
X91943251Y-43590033D01*
X91987350Y-43732564D01*
X91999600Y-43772329D01*
X92014369Y-43820258D01*
X92019888Y-43838235D01*
X92027663Y-43863456D01*
X92030036Y-43871214D01*
X92032296Y-43878754D01*
X92034388Y-43886268D01*
X92036334Y-43893776D01*
X92038158Y-43901298D01*
X92039884Y-43908854D01*
X92041534Y-43916464D01*
X92044706Y-43931924D01*
X91899185Y-43931924D01*
X91897241Y-43927934D01*
X91895411Y-43923974D01*
X91893683Y-43920025D01*
X91892047Y-43916067D01*
X91890489Y-43912079D01*
X91888999Y-43908041D01*
X91887563Y-43903933D01*
X91886170Y-43899735D01*
X91883736Y-43892107D01*
X91878333Y-43875380D01*
X91863078Y-43828129D01*
X91859812Y-43818068D01*
X91841234Y-43761367D01*
X91822400Y-43704750D01*
X91815484Y-43684067D01*
X91787477Y-43600371D01*
X91769670Y-43547165D01*
X91762927Y-43526988D01*
X91754662Y-43502434D01*
X91746547Y-43477843D01*
X91742634Y-43465503D01*
X91738864Y-43453119D01*
X91735272Y-43440678D01*
X91731893Y-43428169D01*
X91730513Y-43422601D01*
X91725765Y-43424153D01*
X91720997Y-43425645D01*
X91716209Y-43427073D01*
X91711402Y-43428433D01*
X91700031Y-43431449D01*
X91679947Y-43436771D01*
X91672649Y-43438699D01*
X91583342Y-43462087D01*
X91493962Y-43485191D01*
X91321870Y-43529685D01*
X91149941Y-43574804D01*
X91110798Y-43585188D01*
X91023054Y-43608485D01*
X90991415Y-43616900D01*
X90954055Y-43626830D01*
X90940045Y-43630573D01*
X90912780Y-43637431D01*
X90898793Y-43640981D01*
X90884794Y-43644805D01*
X90870953Y-43649049D01*
X90864144Y-43651375D01*
X90857437Y-43653860D01*
X90850854Y-43656524D01*
X90844416Y-43659384D01*
X90838143Y-43662459D01*
X90832057Y-43665766D01*
X90826937Y-43669582D01*
X90822258Y-43673571D01*
X90817996Y-43677731D01*
X90814124Y-43682059D01*
X90810617Y-43686552D01*
X90807452Y-43691206D01*
X90804602Y-43696019D01*
X90802042Y-43700988D01*
X90799747Y-43706110D01*
X90797693Y-43711382D01*
X90795854Y-43716801D01*
X90794205Y-43722363D01*
X90792721Y-43728067D01*
X90791377Y-43733908D01*
X90789008Y-43745992D01*
X90787297Y-43755345D01*
X90785366Y-43764522D01*
X90783203Y-43773526D01*
X90780793Y-43782364D01*
X90778123Y-43791037D01*
X90775180Y-43799552D01*
X90771950Y-43807911D01*
X90768420Y-43816120D01*
X90764577Y-43824182D01*
X90760406Y-43832101D01*
X90755894Y-43839883D01*
X90751029Y-43847530D01*
X90745796Y-43855047D01*
X90740182Y-43862439D01*
X90734174Y-43869710D01*
X90727758Y-43876863D01*
X90716125Y-43887023D01*
X90704125Y-43896280D01*
X90691776Y-43904668D01*
X90679098Y-43912218D01*
X90666110Y-43918965D01*
X90652831Y-43924942D01*
X90639280Y-43930181D01*
X90625477Y-43934716D01*
X90611440Y-43938580D01*
X90597189Y-43941805D01*
X90582743Y-43944426D01*
X90568120Y-43946474D01*
X90553341Y-43947984D01*
X90538424Y-43948988D01*
X90523389Y-43949519D01*
X90508254Y-43949611D01*
X90500307Y-43949558D01*
X90492359Y-43949531D01*
X90458776Y-43949447D01*
X90437174Y-43949322D01*
X90415572Y-43949255D01*
X90373303Y-43949161D01*
X90365260Y-43949133D01*
X90342128Y-43949043D01*
X90335065Y-43948993D01*
X90330540Y-43948923D01*
X90326163Y-43948756D01*
X90321918Y-43948485D01*
X90317790Y-43948101D01*
X90313765Y-43947598D01*
X90309827Y-43946967D01*
X90305962Y-43946201D01*
X90302155Y-43945291D01*
X90298390Y-43944230D01*
X90294654Y-43943011D01*
X90290932Y-43941625D01*
X90287208Y-43940065D01*
X90283467Y-43938322D01*
X90279695Y-43936390D01*
X90275877Y-43934260D01*
X90271997Y-43931924D01*
X90268788Y-43928664D01*
X90265811Y-43925387D01*
X90263060Y-43922084D01*
X90260526Y-43918745D01*
X90258201Y-43915363D01*
X90256077Y-43911927D01*
X90254145Y-43908428D01*
X90252398Y-43904857D01*
X90250828Y-43901205D01*
X90249426Y-43897463D01*
X90248184Y-43893621D01*
X90247094Y-43889671D01*
X90246148Y-43885603D01*
X90245337Y-43881408D01*
X90244655Y-43877076D01*
X90244092Y-43872600D01*
X90244331Y-43868980D01*
X90244731Y-43865411D01*
X90245289Y-43861894D01*
X90246003Y-43858430D01*
X90246872Y-43855023D01*
X90247893Y-43851673D01*
X90249064Y-43848382D01*
X90250383Y-43845153D01*
X90251847Y-43841987D01*
X90253456Y-43838886D01*
X90255205Y-43835851D01*
X90257094Y-43832886D01*
X90259121Y-43829991D01*
X90261283Y-43827169D01*
X90263577Y-43824422D01*
X90266003Y-43821750D01*
X90275305Y-43816169D01*
X90285047Y-43810408D01*
X90289434Y-43808080D01*
X90293781Y-43806089D01*
X90298301Y-43804411D01*
X90303205Y-43803020D01*
X90308705Y-43801894D01*
X90315013Y-43801007D01*
X90322341Y-43800335D01*
X90330900Y-43799855D01*
X90352564Y-43799371D01*
X90381698Y-43799362D01*
X90419999Y-43799632D01*
X90443311Y-43799782D01*
X90466611Y-43799757D01*
X90489906Y-43799415D01*
X90501554Y-43799080D01*
X90513204Y-43798611D01*
X90521543Y-43798185D01*
X90527509Y-43797832D01*
X90533363Y-43797369D01*
X90539114Y-43796786D01*
X90544772Y-43796076D01*
X90550346Y-43795229D01*
X90555844Y-43794237D01*
X90561277Y-43793091D01*
X90566653Y-43791782D01*
X90571981Y-43790302D01*
X90577271Y-43788642D01*
X90582532Y-43786793D01*
X90587773Y-43784747D01*
X90593003Y-43782495D01*
X90598232Y-43780028D01*
X90603468Y-43777337D01*
X90608721Y-43774415D01*
X90611662Y-43771086D01*
X90614413Y-43767696D01*
X90616983Y-43764243D01*
X90619377Y-43760725D01*
X90621602Y-43757143D01*
X90623666Y-43753495D01*
X90625573Y-43749781D01*
X90627332Y-43746000D01*
X90628948Y-43742150D01*
X90630429Y-43738232D01*
X90631780Y-43734244D01*
X90633009Y-43730185D01*
X90634123Y-43726056D01*
X90635127Y-43721853D01*
X90636028Y-43717578D01*
X90636833Y-43713229D01*
X90639245Y-43691047D01*
X90641310Y-43666924D01*
X90642043Y-43654378D01*
X90642484Y-43641640D01*
X90642567Y-43628807D01*
X90642224Y-43615977D01*
X90641385Y-43603246D01*
X90639984Y-43590713D01*
X90637953Y-43578476D01*
X90635223Y-43566631D01*
X90631726Y-43555276D01*
X90627394Y-43544509D01*
X90624895Y-43539376D01*
X90622161Y-43534427D01*
X90619184Y-43529673D01*
X90615956Y-43525128D01*
X90613277Y-43522680D01*
X90610507Y-43520380D01*
X90604711Y-43516203D01*
X90598604Y-43512561D01*
X90592222Y-43509415D01*
X90585600Y-43506731D01*
X90578773Y-43504472D01*
X90571776Y-43502600D01*
X90564645Y-43501081D01*
X90557416Y-43499876D01*
X90550123Y-43498951D01*
X90542802Y-43498267D01*
X90535488Y-43497790D01*
X90521025Y-43497307D01*
X90507015Y-43497210D01*
X90500196Y-43497194D01*
X90493378Y-43497151D01*
X90475264Y-43496983D01*
X90457150Y-43496871D01*
X90398346Y-43496505D01*
X90387989Y-43496417D01*
X90377632Y-43496370D01*
X90363039Y-43496345D01*
X90348283Y-43496099D01*
X90340894Y-43495794D01*
X90333525Y-43495315D01*
X90326196Y-43494621D01*
X90318928Y-43493675D01*
X90311740Y-43492435D01*
X90304653Y-43490862D01*
X90297687Y-43488916D01*
X90290863Y-43486559D01*
X90284200Y-43483749D01*
X90277719Y-43480447D01*
X90271440Y-43476615D01*
X90268383Y-43474487D01*
X90265383Y-43472211D01*
X90263210Y-43470072D01*
X90261220Y-43467947D01*
X90259402Y-43465826D01*
X90257750Y-43463699D01*
X90256253Y-43461555D01*
X90254902Y-43459384D01*
X90253690Y-43457174D01*
X90252607Y-43454915D01*
X90251644Y-43452598D01*
X90250791Y-43450210D01*
X90250042Y-43447742D01*
X90249385Y-43445183D01*
X90248813Y-43442523D01*
X90248317Y-43439751D01*
X90247888Y-43436856D01*
X90247516Y-43433828D01*
X90247322Y-43424530D01*
X90247345Y-43415588D01*
X90247500Y-43411241D01*
X90247787Y-43406971D01*
X90248229Y-43402773D01*
X90248852Y-43398643D01*
X90249682Y-43394578D01*
X90250745Y-43390573D01*
X90252065Y-43386625D01*
X90253668Y-43382728D01*
X90255579Y-43378879D01*
X90257825Y-43375074D01*
X90260430Y-43371309D01*
X90261875Y-43369440D01*
X90263420Y-43367579D01*
X90272394Y-43358975D01*
X90276300Y-43355496D01*
X90280012Y-43352516D01*
X90283672Y-43349997D01*
X90287425Y-43347903D01*
X90291416Y-43346196D01*
X90295788Y-43344838D01*
X90300686Y-43343792D01*
X90306252Y-43343022D01*
X90312633Y-43342488D01*
X90319971Y-43342155D01*
X90338096Y-43341940D01*
X90361781Y-43342076D01*
X90369466Y-43342129D01*
X90377151Y-43342156D01*
X90409481Y-43342240D01*
X90430340Y-43342364D01*
X90451200Y-43342432D01*
X90491844Y-43342526D01*
X90499606Y-43342555D01*
X90521890Y-43342644D01*
X90528780Y-43342693D01*
X90536646Y-43342764D01*
X90544484Y-43342940D01*
X90548398Y-43343094D01*
X90552312Y-43343305D01*
X90556229Y-43343583D01*
X90560150Y-43343939D01*
X90572871Y-43345738D01*
X90585449Y-43348000D01*
X90597864Y-43350735D01*
X90610096Y-43353955D01*
X90622125Y-43357671D01*
X90633931Y-43361894D01*
X90645494Y-43366634D01*
X90656793Y-43371902D01*
X90667808Y-43377710D01*
X90678519Y-43384068D01*
X90688906Y-43390987D01*
X90698950Y-43398478D01*
X90708628Y-43406552D01*
X90717923Y-43415221D01*
X90726812Y-43424494D01*
X90735277Y-43434383D01*
X90738086Y-43437930D01*
X90740912Y-43441462D01*
X90743762Y-43444975D01*
X90746639Y-43448465D01*
X90758214Y-43462344D01*
X90764164Y-43469523D01*
X90769940Y-43476437D01*
X90775391Y-43483101D01*
X90777478Y-43485696D01*
X90779387Y-43488216D01*
X90781143Y-43490708D01*
X90781971Y-43491958D01*
X90782771Y-43493218D01*
X90783544Y-43494496D01*
X90784296Y-43495796D01*
X90785028Y-43497124D01*
X90785744Y-43498486D01*
X90786448Y-43499889D01*
X90787141Y-43501337D01*
X90788513Y-43504396D01*
X90791242Y-43511898D01*
X90837118Y-43500632D01*
X90882876Y-43488943D01*
X90928544Y-43476905D01*
X90974149Y-43464590D01*
X91124465Y-43424062D01*
X91274968Y-43384238D01*
X91355445Y-43363062D01*
X91580102Y-43304087D01*
X91602065Y-43298369D01*
X91672729Y-43280108D01*
X91695166Y-43274393D01*
X91710483Y-43270429D01*
X91725811Y-43266514D01*
X91735022Y-43264200D01*
X91745645Y-43261530D01*
X91750980Y-43260318D01*
X91756325Y-43259222D01*
X91761675Y-43258264D01*
X91767028Y-43257470D01*
X91772380Y-43256864D01*
X91777725Y-43256470D01*
X91783061Y-43256311D01*
X91788383Y-43256413D01*
G37*
G36*
X93486378Y-45073615D02*
G01*
X93486434Y-45081507D01*
X93486685Y-45089476D01*
X93488459Y-45102428D01*
X93489937Y-45115715D01*
X93490954Y-45129207D01*
X93491238Y-45135991D01*
X93491345Y-45142779D01*
X93491255Y-45149554D01*
X93490947Y-45156302D01*
X93490401Y-45163006D01*
X93489596Y-45169650D01*
X93488511Y-45176218D01*
X93487127Y-45182695D01*
X93485423Y-45189064D01*
X93483378Y-45195310D01*
X93480563Y-45202122D01*
X93477561Y-45208561D01*
X93474364Y-45214646D01*
X93470961Y-45220396D01*
X93467344Y-45225830D01*
X93463504Y-45230966D01*
X93459430Y-45235824D01*
X93455115Y-45240423D01*
X93450549Y-45244781D01*
X93445722Y-45248918D01*
X93440625Y-45252853D01*
X93435249Y-45256604D01*
X93429585Y-45260190D01*
X93423624Y-45263630D01*
X93417356Y-45266944D01*
X93410772Y-45270150D01*
X93400894Y-45274615D01*
X93391032Y-45279116D01*
X93382092Y-45283366D01*
X93378983Y-45284797D01*
X93377559Y-45285476D01*
X93376212Y-45286145D01*
X93374936Y-45286817D01*
X93373722Y-45287503D01*
X93372564Y-45288214D01*
X93371456Y-45288962D01*
X93370388Y-45289759D01*
X93369356Y-45290617D01*
X93368351Y-45291546D01*
X93367366Y-45292559D01*
X93366394Y-45293668D01*
X93365429Y-45294883D01*
X93364463Y-45296217D01*
X93363488Y-45297680D01*
X93362471Y-45300710D01*
X93361655Y-45303683D01*
X93361035Y-45306606D01*
X93360601Y-45309485D01*
X93360345Y-45312327D01*
X93360259Y-45315139D01*
X93360336Y-45317928D01*
X93360567Y-45320701D01*
X93360944Y-45323464D01*
X93361459Y-45326224D01*
X93362105Y-45328988D01*
X93362872Y-45331763D01*
X93363754Y-45334555D01*
X93364741Y-45337371D01*
X93365827Y-45340219D01*
X93367002Y-45343104D01*
X93369338Y-45348772D01*
X93371517Y-45354374D01*
X93373534Y-45359927D01*
X93375382Y-45365442D01*
X93377057Y-45370934D01*
X93378554Y-45376417D01*
X93379867Y-45381904D01*
X93380991Y-45387408D01*
X93381920Y-45392945D01*
X93382648Y-45398527D01*
X93383172Y-45404169D01*
X93383484Y-45409883D01*
X93383580Y-45415684D01*
X93383455Y-45421585D01*
X93383103Y-45427601D01*
X93382518Y-45433745D01*
X93381851Y-45437211D01*
X93381065Y-45440623D01*
X93380162Y-45443982D01*
X93379147Y-45447289D01*
X93378023Y-45450544D01*
X93376793Y-45453747D01*
X93374031Y-45460002D01*
X93370891Y-45466059D01*
X93367399Y-45471923D01*
X93363585Y-45477600D01*
X93359478Y-45483094D01*
X93355105Y-45488411D01*
X93350496Y-45493555D01*
X93345678Y-45498531D01*
X93340680Y-45503345D01*
X93335531Y-45508002D01*
X93330259Y-45512506D01*
X93324892Y-45516863D01*
X93319460Y-45521078D01*
X93316452Y-45523329D01*
X93313588Y-45525566D01*
X93310846Y-45527824D01*
X93309514Y-45528970D01*
X93308204Y-45530133D01*
X93306914Y-45531318D01*
X93305641Y-45532529D01*
X93304382Y-45533769D01*
X93303135Y-45535043D01*
X93301897Y-45536355D01*
X93300665Y-45537709D01*
X93299436Y-45539109D01*
X93298208Y-45540560D01*
X93288694Y-45552695D01*
X93278709Y-45564849D01*
X93273529Y-45570863D01*
X93268220Y-45576795D01*
X93262775Y-45582619D01*
X93257192Y-45588306D01*
X93251465Y-45593828D01*
X93245591Y-45599155D01*
X93239566Y-45604261D01*
X93233384Y-45609116D01*
X93227042Y-45613692D01*
X93220536Y-45617961D01*
X93213861Y-45621895D01*
X93207012Y-45625464D01*
X93200501Y-45627705D01*
X93193867Y-45629591D01*
X93187130Y-45631128D01*
X93180307Y-45632321D01*
X93173418Y-45633178D01*
X93166482Y-45633704D01*
X93159517Y-45633905D01*
X93152541Y-45633787D01*
X93145575Y-45633356D01*
X93138635Y-45632618D01*
X93131742Y-45631580D01*
X93124913Y-45630248D01*
X93118168Y-45628626D01*
X93111525Y-45626723D01*
X93105003Y-45624543D01*
X93098621Y-45622092D01*
X93095081Y-45620646D01*
X93091516Y-45619264D01*
X93087928Y-45617943D01*
X93084319Y-45616679D01*
X93075501Y-45617359D01*
X93071840Y-45617685D01*
X93068579Y-45618031D01*
X93065643Y-45618420D01*
X93062959Y-45618874D01*
X93060451Y-45619415D01*
X93058047Y-45620065D01*
X93055670Y-45620846D01*
X93053248Y-45621782D01*
X93050705Y-45622894D01*
X93047968Y-45624204D01*
X93044962Y-45625734D01*
X93041612Y-45627507D01*
X93033586Y-45631872D01*
X93033586Y-45638487D01*
X93031195Y-45643816D01*
X93028687Y-45649101D01*
X93026061Y-45654335D01*
X93023314Y-45659509D01*
X93020444Y-45664618D01*
X93017448Y-45669653D01*
X93014324Y-45674608D01*
X93011070Y-45679474D01*
X93007682Y-45684244D01*
X93004160Y-45688912D01*
X93000499Y-45693470D01*
X92996699Y-45697910D01*
X92992756Y-45702225D01*
X92988669Y-45706408D01*
X92984434Y-45710451D01*
X92980049Y-45714348D01*
X92973075Y-45718942D01*
X92965896Y-45723008D01*
X92958532Y-45726565D01*
X92950999Y-45729635D01*
X92943318Y-45732239D01*
X92935505Y-45734396D01*
X92927578Y-45736128D01*
X92919557Y-45737456D01*
X92911458Y-45738401D01*
X92903301Y-45738982D01*
X92895103Y-45739221D01*
X92886883Y-45739139D01*
X92878658Y-45738757D01*
X92870447Y-45738094D01*
X92862268Y-45737173D01*
X92854140Y-45736013D01*
X92849698Y-45735307D01*
X92845269Y-45734768D01*
X92840846Y-45734384D01*
X92836424Y-45734144D01*
X92831996Y-45734037D01*
X92827556Y-45734051D01*
X92823097Y-45734175D01*
X92818612Y-45734398D01*
X92805881Y-45736138D01*
X92793148Y-45737488D01*
X92786786Y-45737981D01*
X92780428Y-45738334D01*
X92774076Y-45738531D01*
X92767733Y-45738560D01*
X92761400Y-45738405D01*
X92755078Y-45738053D01*
X92748770Y-45737488D01*
X92742478Y-45736698D01*
X92736202Y-45735667D01*
X92729945Y-45734381D01*
X92723709Y-45732826D01*
X92717494Y-45730987D01*
X92711228Y-45728300D01*
X92705273Y-45725371D01*
X92699616Y-45722204D01*
X92694244Y-45718800D01*
X92689143Y-45715161D01*
X92684301Y-45711291D01*
X92679706Y-45707191D01*
X92675342Y-45702863D01*
X92671198Y-45698310D01*
X92667261Y-45693534D01*
X92663517Y-45688537D01*
X92659953Y-45683322D01*
X92656557Y-45677890D01*
X92653314Y-45672245D01*
X92650213Y-45666387D01*
X92647240Y-45660320D01*
X92639101Y-45642492D01*
X92634850Y-45633526D01*
X92633454Y-45630475D01*
X92632792Y-45629060D01*
X92632138Y-45627712D01*
X92631482Y-45626426D01*
X92630811Y-45625197D01*
X92630114Y-45624021D01*
X92629380Y-45622892D01*
X92628597Y-45621806D01*
X92627753Y-45620758D01*
X92626838Y-45619742D01*
X92625839Y-45618754D01*
X92625305Y-45618268D01*
X92624746Y-45617788D01*
X92624160Y-45617313D01*
X92623546Y-45616841D01*
X92622229Y-45615907D01*
X92620782Y-45614980D01*
X92617198Y-45613657D01*
X92613609Y-45612604D01*
X92610016Y-45611809D01*
X92606422Y-45611259D01*
X92602829Y-45610941D01*
X92599238Y-45610843D01*
X92595651Y-45610951D01*
X92592070Y-45611252D01*
X92588497Y-45611735D01*
X92584934Y-45612385D01*
X92581383Y-45613190D01*
X92577846Y-45614137D01*
X92574324Y-45615214D01*
X92570820Y-45616406D01*
X92567335Y-45617703D01*
X92563871Y-45619089D01*
X92558977Y-45621097D01*
X92554157Y-45622935D01*
X92549396Y-45624608D01*
X92544680Y-45626121D01*
X92539996Y-45627479D01*
X92535329Y-45628686D01*
X92530666Y-45629747D01*
X92525991Y-45630668D01*
X92521292Y-45631452D01*
X92516553Y-45632105D01*
X92511762Y-45632632D01*
X92506903Y-45633037D01*
X92501963Y-45633326D01*
X92496927Y-45633502D01*
X92491782Y-45633572D01*
X92486514Y-45633539D01*
X92483378Y-45633047D01*
X92480300Y-45632463D01*
X92477277Y-45631788D01*
X92474308Y-45631025D01*
X92471393Y-45630176D01*
X92468529Y-45629243D01*
X92462950Y-45627134D01*
X92457562Y-45624717D01*
X92452354Y-45622007D01*
X92447314Y-45619024D01*
X92442431Y-45615784D01*
X92437696Y-45612305D01*
X92433097Y-45608604D01*
X92428624Y-45604699D01*
X92424265Y-45600608D01*
X92420010Y-45596348D01*
X92415848Y-45591936D01*
X92411767Y-45587390D01*
X92407759Y-45582728D01*
X92396892Y-45569728D01*
X92391394Y-45563386D01*
X92385776Y-45557192D01*
X92382905Y-45554160D01*
X92379982Y-45551176D01*
X92377000Y-45548245D01*
X92373953Y-45545371D01*
X92370834Y-45542556D01*
X92367634Y-45539806D01*
X92364347Y-45537124D01*
X92360966Y-45534514D01*
X92350966Y-45526805D01*
X92346018Y-45522794D01*
X92341125Y-45518675D01*
X92336305Y-45514446D01*
X92331574Y-45510103D01*
X92326949Y-45505645D01*
X92322444Y-45501069D01*
X92318078Y-45496372D01*
X92313866Y-45491551D01*
X92309825Y-45486605D01*
X92305971Y-45481530D01*
X92302320Y-45476324D01*
X92298890Y-45470984D01*
X92295695Y-45465508D01*
X92292753Y-45459893D01*
X92290418Y-45453319D01*
X92288419Y-45446827D01*
X92286754Y-45440404D01*
X92285420Y-45434041D01*
X92284415Y-45427727D01*
X92283736Y-45421451D01*
X92283382Y-45415202D01*
X92283349Y-45408969D01*
X92283637Y-45402742D01*
X92284242Y-45396509D01*
X92285162Y-45390261D01*
X92286394Y-45383986D01*
X92287937Y-45377673D01*
X92289789Y-45371311D01*
X92291946Y-45364891D01*
X92294406Y-45358400D01*
X92296962Y-45351988D01*
X92299190Y-45345780D01*
X92300182Y-45342725D01*
X92301095Y-45339687D01*
X92301929Y-45336654D01*
X92302684Y-45333617D01*
X92303361Y-45330562D01*
X92303961Y-45327479D01*
X92304485Y-45324357D01*
X92304933Y-45321184D01*
X92305306Y-45317949D01*
X92305604Y-45314640D01*
X92305829Y-45311247D01*
X92305982Y-45307757D01*
X92304052Y-45304065D01*
X92302100Y-45300665D01*
X92300110Y-45297536D01*
X92298067Y-45294656D01*
X92295956Y-45292002D01*
X92293763Y-45289555D01*
X92291473Y-45287290D01*
X92289070Y-45285188D01*
X92286540Y-45283226D01*
X92283868Y-45281382D01*
X92281040Y-45279634D01*
X92278039Y-45277962D01*
X92274852Y-45276342D01*
X92271463Y-45274754D01*
X92267857Y-45273175D01*
X92264021Y-45271584D01*
X92259402Y-45269703D01*
X92254872Y-45267759D01*
X92250426Y-45265746D01*
X92246061Y-45263658D01*
X92241774Y-45261490D01*
X92237563Y-45259235D01*
X92233424Y-45256888D01*
X92229353Y-45254443D01*
X92225349Y-45251894D01*
X92221408Y-45249235D01*
X92217526Y-45246461D01*
X92213702Y-45243566D01*
X92209931Y-45240544D01*
X92206210Y-45237388D01*
X92202537Y-45234095D01*
X92198908Y-45230656D01*
X92195575Y-45224857D01*
X92192629Y-45219138D01*
X92190046Y-45213478D01*
X92187806Y-45207861D01*
X92185886Y-45202267D01*
X92184263Y-45196678D01*
X92182915Y-45191075D01*
X92181820Y-45185440D01*
X92180956Y-45179754D01*
X92180300Y-45173999D01*
X92179830Y-45168155D01*
X92179524Y-45162205D01*
X92179313Y-45149910D01*
X92179489Y-45136966D01*
X92179816Y-45121040D01*
X92180060Y-45105111D01*
X92180163Y-45097421D01*
X92180233Y-45090864D01*
X92579244Y-45090864D01*
X92579595Y-45103391D01*
X92580487Y-45115934D01*
X92582215Y-45126752D01*
X92584436Y-45137601D01*
X92587144Y-45148443D01*
X92590332Y-45159237D01*
X92593995Y-45169941D01*
X92598126Y-45180516D01*
X92602720Y-45190921D01*
X92607771Y-45201115D01*
X92613271Y-45211058D01*
X92619217Y-45220709D01*
X92625600Y-45230027D01*
X92632416Y-45238973D01*
X92639657Y-45247505D01*
X92647319Y-45255583D01*
X92655395Y-45263166D01*
X92663880Y-45270215D01*
X92669784Y-45274685D01*
X92680818Y-45283663D01*
X92692004Y-45291825D01*
X92703349Y-45299196D01*
X92714859Y-45305800D01*
X92726540Y-45311661D01*
X92738400Y-45316806D01*
X92750444Y-45321257D01*
X92762679Y-45325040D01*
X92775112Y-45328180D01*
X92787749Y-45330701D01*
X92800596Y-45332628D01*
X92813661Y-45333986D01*
X92826949Y-45334799D01*
X92840468Y-45335092D01*
X92854223Y-45334889D01*
X92868221Y-45334216D01*
X92880214Y-45332419D01*
X92892000Y-45330013D01*
X92903572Y-45327017D01*
X92914921Y-45323449D01*
X92926040Y-45319330D01*
X92936918Y-45314677D01*
X92947550Y-45309511D01*
X92957924Y-45303850D01*
X92968035Y-45297714D01*
X92977872Y-45291122D01*
X92987428Y-45284092D01*
X92996694Y-45276645D01*
X93005662Y-45268799D01*
X93014323Y-45260573D01*
X93022669Y-45251986D01*
X93030692Y-45243059D01*
X93038826Y-45231839D01*
X93046222Y-45220439D01*
X93052899Y-45208860D01*
X93058876Y-45197105D01*
X93064174Y-45185176D01*
X93068812Y-45173076D01*
X93072809Y-45160807D01*
X93076186Y-45148371D01*
X93078961Y-45135771D01*
X93081154Y-45123009D01*
X93082785Y-45110088D01*
X93083874Y-45097010D01*
X93084440Y-45083777D01*
X93084503Y-45070392D01*
X93084081Y-45056857D01*
X93083196Y-45043174D01*
X93081656Y-45033218D01*
X93079590Y-45023170D01*
X93077015Y-45013073D01*
X93073948Y-45002971D01*
X93070408Y-44992908D01*
X93066411Y-44982925D01*
X93061977Y-44973068D01*
X93057122Y-44963379D01*
X93051864Y-44953902D01*
X93046222Y-44944679D01*
X93040213Y-44935755D01*
X93033854Y-44927172D01*
X93027163Y-44918974D01*
X93020159Y-44911205D01*
X93012859Y-44903907D01*
X93005280Y-44897124D01*
X92997206Y-44891039D01*
X92986049Y-44882014D01*
X92974581Y-44873700D01*
X92962816Y-44866096D01*
X92950769Y-44859206D01*
X92938456Y-44853031D01*
X92925891Y-44847574D01*
X92913089Y-44842836D01*
X92900065Y-44838819D01*
X92886834Y-44835526D01*
X92873411Y-44832959D01*
X92859812Y-44831119D01*
X92846051Y-44830008D01*
X92832142Y-44829629D01*
X92818102Y-44829984D01*
X92803945Y-44831075D01*
X92789686Y-44832903D01*
X92782232Y-44834815D01*
X92773944Y-44836961D01*
X92765752Y-44839297D01*
X92757660Y-44841830D01*
X92749674Y-44844569D01*
X92741799Y-44847522D01*
X92734041Y-44850697D01*
X92726405Y-44854103D01*
X92718897Y-44857748D01*
X92711522Y-44861641D01*
X92704285Y-44865788D01*
X92697192Y-44870200D01*
X92690249Y-44874883D01*
X92683459Y-44879847D01*
X92676830Y-44885100D01*
X92670366Y-44890649D01*
X92664073Y-44896504D01*
X92656555Y-44904268D01*
X92650659Y-44910335D01*
X92644852Y-44916459D01*
X92639135Y-44922666D01*
X92636310Y-44925809D01*
X92633507Y-44928982D01*
X92625838Y-44939063D01*
X92618770Y-44949458D01*
X92612298Y-44960144D01*
X92606418Y-44971101D01*
X92601126Y-44982306D01*
X92596417Y-44993740D01*
X92592288Y-45005381D01*
X92588734Y-45017207D01*
X92585751Y-45029197D01*
X92583334Y-45041329D01*
X92581479Y-45053584D01*
X92580182Y-45065938D01*
X92579438Y-45078372D01*
X92579244Y-45090864D01*
X92180233Y-45090864D01*
X92180284Y-45086016D01*
X92180273Y-45080333D01*
X92180189Y-45074656D01*
X92180012Y-45068983D01*
X92179723Y-45063310D01*
X92179302Y-45057632D01*
X92178729Y-45051946D01*
X92178077Y-45046974D01*
X92177549Y-45042020D01*
X92177146Y-45037082D01*
X92176869Y-45032159D01*
X92176719Y-45027250D01*
X92176695Y-45022352D01*
X92176799Y-45017465D01*
X92177032Y-45012587D01*
X92177395Y-45007717D01*
X92177887Y-45002853D01*
X92178510Y-44997994D01*
X92179264Y-44993138D01*
X92180151Y-44988284D01*
X92181171Y-44983431D01*
X92182324Y-44978577D01*
X92183612Y-44973721D01*
X92186325Y-44966856D01*
X92189208Y-44960344D01*
X92192273Y-44954169D01*
X92195532Y-44948314D01*
X92198997Y-44942760D01*
X92202680Y-44937491D01*
X92206592Y-44932489D01*
X92210746Y-44927737D01*
X92215153Y-44923216D01*
X92219825Y-44918911D01*
X92224775Y-44914804D01*
X92230014Y-44910876D01*
X92235554Y-44907111D01*
X92241407Y-44903492D01*
X92247584Y-44900001D01*
X92254099Y-44896620D01*
X92259857Y-44893978D01*
X92265308Y-44891361D01*
X92267919Y-44890022D01*
X92270454Y-44888640D01*
X92272914Y-44887199D01*
X92275299Y-44885684D01*
X92277609Y-44884077D01*
X92279845Y-44882364D01*
X92282007Y-44880526D01*
X92284095Y-44878550D01*
X92286110Y-44876417D01*
X92288052Y-44874112D01*
X92288996Y-44872890D01*
X92289922Y-44871619D01*
X92290829Y-44870297D01*
X92291719Y-44868921D01*
X92293826Y-44863429D01*
X92294800Y-44860706D01*
X92295707Y-44857994D01*
X92296536Y-44855289D01*
X92297276Y-44852586D01*
X92297917Y-44849882D01*
X92298448Y-44847172D01*
X92298858Y-44844454D01*
X92299137Y-44841721D01*
X92299274Y-44838972D01*
X92299258Y-44836202D01*
X92299079Y-44833406D01*
X92298726Y-44830581D01*
X92298188Y-44827723D01*
X92297455Y-44824828D01*
X92295308Y-44819091D01*
X92293239Y-44813359D01*
X92292243Y-44810482D01*
X92291276Y-44807590D01*
X92290343Y-44804679D01*
X92289446Y-44801742D01*
X92288547Y-44795298D01*
X92287785Y-44788890D01*
X92287179Y-44782517D01*
X92286747Y-44776182D01*
X92286505Y-44769884D01*
X92286472Y-44763624D01*
X92286665Y-44757403D01*
X92287103Y-44751222D01*
X92287802Y-44745080D01*
X92288781Y-44738979D01*
X92290058Y-44732919D01*
X92291650Y-44726901D01*
X92293575Y-44720925D01*
X92295850Y-44714993D01*
X92298494Y-44709104D01*
X92301525Y-44703259D01*
X92305982Y-44695908D01*
X92313089Y-44684366D01*
X92320812Y-44672741D01*
X92329118Y-44661110D01*
X92337973Y-44649548D01*
X92347344Y-44638130D01*
X92357198Y-44626932D01*
X92367500Y-44616030D01*
X92378218Y-44605499D01*
X92389319Y-44595414D01*
X92400768Y-44585851D01*
X92412533Y-44576885D01*
X92424581Y-44568592D01*
X92436877Y-44561047D01*
X92449389Y-44554326D01*
X92462083Y-44548504D01*
X92474925Y-44543657D01*
X92484230Y-44541406D01*
X92493354Y-44539724D01*
X92502313Y-44538594D01*
X92511125Y-44537996D01*
X92519807Y-44537912D01*
X92528375Y-44538322D01*
X92536846Y-44539208D01*
X92545239Y-44540552D01*
X92553568Y-44542335D01*
X92561853Y-44544537D01*
X92570109Y-44547140D01*
X92578353Y-44550126D01*
X92586604Y-44553475D01*
X92594876Y-44557169D01*
X92603188Y-44561189D01*
X92611557Y-44565516D01*
X92620175Y-44570231D01*
X92624302Y-44557115D01*
X92628736Y-44544157D01*
X92631112Y-44537762D01*
X92633614Y-44531436D01*
X92636262Y-44525188D01*
X92639071Y-44519028D01*
X92642058Y-44512966D01*
X92645241Y-44507012D01*
X92648635Y-44501175D01*
X92652259Y-44495465D01*
X92656129Y-44489891D01*
X92660262Y-44484464D01*
X92664674Y-44479193D01*
X92669383Y-44474088D01*
X92675916Y-44468500D01*
X92682798Y-44463286D01*
X92690010Y-44458438D01*
X92697530Y-44453949D01*
X92713417Y-44446013D01*
X92730296Y-44439413D01*
X92748004Y-44434087D01*
X92766377Y-44429970D01*
X92785254Y-44426998D01*
X92804471Y-44425108D01*
X92823865Y-44424235D01*
X92843274Y-44424315D01*
X92862534Y-44425286D01*
X92881482Y-44427082D01*
X92899957Y-44429640D01*
X92917793Y-44432896D01*
X92934830Y-44436787D01*
X92950903Y-44441247D01*
X92957296Y-44443782D01*
X92963379Y-44446510D01*
X92969167Y-44449438D01*
X92974670Y-44452571D01*
X92979901Y-44455916D01*
X92984873Y-44459478D01*
X92989598Y-44463265D01*
X92994088Y-44467281D01*
X92998356Y-44471534D01*
X93002414Y-44476028D01*
X93006274Y-44480771D01*
X93009950Y-44485769D01*
X93013452Y-44491027D01*
X93016793Y-44496552D01*
X93019987Y-44502350D01*
X93023044Y-44508426D01*
X93025560Y-44513994D01*
X93027998Y-44519243D01*
X93029236Y-44521745D01*
X93030512Y-44524166D01*
X93031845Y-44526505D01*
X93033254Y-44528760D01*
X93034759Y-44530931D01*
X93036378Y-44533018D01*
X93037236Y-44534029D01*
X93038131Y-44535019D01*
X93039063Y-44535988D01*
X93040036Y-44536934D01*
X93041052Y-44537860D01*
X93042113Y-44538763D01*
X93043222Y-44539644D01*
X93044381Y-44540504D01*
X93045593Y-44541342D01*
X93046859Y-44542157D01*
X93048183Y-44542950D01*
X93049567Y-44543721D01*
X93056117Y-44546254D01*
X93066050Y-44547457D01*
X93070184Y-44547907D01*
X93073879Y-44548243D01*
X93077223Y-44548458D01*
X93080303Y-44548542D01*
X93083207Y-44548486D01*
X93086022Y-44548282D01*
X93088837Y-44547921D01*
X93091737Y-44547394D01*
X93094812Y-44546693D01*
X93098148Y-44545808D01*
X93101832Y-44544731D01*
X93105953Y-44543453D01*
X93115855Y-44540259D01*
X93121014Y-44538858D01*
X93126108Y-44537565D01*
X93131168Y-44536405D01*
X93136226Y-44535400D01*
X93141311Y-44534573D01*
X93143874Y-44534234D01*
X93146455Y-44533949D01*
X93149058Y-44533720D01*
X93151688Y-44533550D01*
X93154348Y-44533442D01*
X93157041Y-44533399D01*
X93164742Y-44533875D01*
X93172337Y-44534721D01*
X93179822Y-44535934D01*
X93187188Y-44537509D01*
X93194430Y-44539440D01*
X93201539Y-44541723D01*
X93208510Y-44544353D01*
X93215334Y-44547324D01*
X93222006Y-44550634D01*
X93228519Y-44554276D01*
X93234865Y-44558245D01*
X93241038Y-44562538D01*
X93247030Y-44567148D01*
X93252835Y-44572072D01*
X93258446Y-44577304D01*
X93263856Y-44582840D01*
X93270072Y-44591137D01*
X93276315Y-44599303D01*
X93282652Y-44607316D01*
X93289147Y-44615149D01*
X93292474Y-44618991D01*
X93295864Y-44622779D01*
X93299326Y-44626509D01*
X93302869Y-44630179D01*
X93306499Y-44633786D01*
X93310226Y-44637326D01*
X93314057Y-44640796D01*
X93318000Y-44644193D01*
X93326722Y-44651369D01*
X93335280Y-44658635D01*
X93339467Y-44662332D01*
X93343579Y-44666090D01*
X93347601Y-44669921D01*
X93351524Y-44673837D01*
X93355335Y-44677851D01*
X93359021Y-44681976D01*
X93362573Y-44686224D01*
X93365976Y-44690608D01*
X93369221Y-44695141D01*
X93372294Y-44699835D01*
X93375185Y-44704703D01*
X93377880Y-44709758D01*
X93379932Y-44715611D01*
X93381613Y-44721436D01*
X93382937Y-44727236D01*
X93383919Y-44733014D01*
X93384573Y-44738774D01*
X93384913Y-44744517D01*
X93384955Y-44750248D01*
X93384711Y-44755969D01*
X93384197Y-44761683D01*
X93383427Y-44767393D01*
X93382416Y-44773103D01*
X93381177Y-44778814D01*
X93379725Y-44784531D01*
X93378075Y-44790256D01*
X93376241Y-44795992D01*
X93374237Y-44801742D01*
X93371126Y-44809745D01*
X93368264Y-44817462D01*
X93366968Y-44821251D01*
X93365784Y-44825013D01*
X93364729Y-44828763D01*
X93363819Y-44832517D01*
X93363072Y-44836289D01*
X93362503Y-44840094D01*
X93362129Y-44843948D01*
X93361967Y-44847865D01*
X93362034Y-44851860D01*
X93362346Y-44855948D01*
X93362920Y-44860145D01*
X93363773Y-44864464D01*
X93365587Y-44867420D01*
X93367541Y-44870198D01*
X93369626Y-44872810D01*
X93371835Y-44875264D01*
X93374160Y-44877572D01*
X93376595Y-44879742D01*
X93379132Y-44881784D01*
X93381763Y-44883709D01*
X93384482Y-44885527D01*
X93387281Y-44887247D01*
X93390153Y-44888879D01*
X93393089Y-44890433D01*
X93396084Y-44891920D01*
X93399129Y-44893349D01*
X93405342Y-44896072D01*
X93409835Y-44897977D01*
X93414216Y-44899928D01*
X93418491Y-44901933D01*
X93422666Y-44904002D01*
X93426745Y-44906145D01*
X93430734Y-44908371D01*
X93434639Y-44910690D01*
X93438464Y-44913112D01*
X93442214Y-44915647D01*
X93445896Y-44918303D01*
X93449515Y-44921091D01*
X93453075Y-44924020D01*
X93456583Y-44927100D01*
X93460043Y-44930340D01*
X93463460Y-44933751D01*
X93466841Y-44937341D01*
X93470661Y-44942264D01*
X93474087Y-44947293D01*
X93477136Y-44952425D01*
X93479823Y-44957654D01*
X93482167Y-44962977D01*
X93484183Y-44968391D01*
X93485888Y-44973890D01*
X93487299Y-44979473D01*
X93488433Y-44985134D01*
X93489305Y-44990870D01*
X93489933Y-44996676D01*
X93490334Y-45002550D01*
X93490523Y-45008487D01*
X93490518Y-45014483D01*
X93490336Y-45020535D01*
X93489992Y-45026638D01*
X93488928Y-45034535D01*
X93488047Y-45042376D01*
X93487349Y-45050181D01*
X93486837Y-45057975D01*
X93486512Y-45065778D01*
X93486433Y-45070392D01*
X93486378Y-45073615D01*
G37*
G36*
X93232024Y-41567211D02*
G01*
X92385357Y-41567211D01*
X92385357Y-44021221D01*
X93232024Y-44021221D01*
X93232024Y-44441247D01*
X93207452Y-44436831D01*
X93195614Y-44434836D01*
X93183915Y-44433128D01*
X93172235Y-44431814D01*
X93166365Y-44431339D01*
X93160455Y-44431004D01*
X93154489Y-44430821D01*
X93148453Y-44430805D01*
X93142333Y-44430968D01*
X93136112Y-44431325D01*
X93126993Y-44432940D01*
X93122487Y-44433679D01*
X93117992Y-44434304D01*
X93113488Y-44434763D01*
X93111227Y-44434914D01*
X93108956Y-44435005D01*
X93106674Y-44435028D01*
X93104377Y-44434979D01*
X93102064Y-44434849D01*
X93099732Y-44434633D01*
X93097979Y-44433170D01*
X93096608Y-44431994D01*
X93096030Y-44431473D01*
X93095504Y-44430977D01*
X93095017Y-44430490D01*
X93094555Y-44429995D01*
X93094102Y-44429477D01*
X93093645Y-44428920D01*
X93093169Y-44428309D01*
X93092661Y-44427627D01*
X93091490Y-44425990D01*
X93090016Y-44423884D01*
X93088019Y-44420736D01*
X93085968Y-44417673D01*
X93083862Y-44414690D01*
X93081702Y-44411781D01*
X93079489Y-44408941D01*
X93077222Y-44406164D01*
X93074901Y-44403445D01*
X93072528Y-44400778D01*
X93070102Y-44398158D01*
X93067624Y-44395579D01*
X93065093Y-44393036D01*
X93062509Y-44390524D01*
X93057187Y-44385568D01*
X93051660Y-44380670D01*
X93036892Y-44369770D01*
X93021309Y-44360252D01*
X93005001Y-44352036D01*
X92988054Y-44345042D01*
X92970559Y-44339189D01*
X92952605Y-44334397D01*
X92934279Y-44330586D01*
X92915670Y-44327676D01*
X92896869Y-44325587D01*
X92877962Y-44324238D01*
X92859039Y-44323549D01*
X92840189Y-44323440D01*
X92821501Y-44323830D01*
X92803062Y-44324640D01*
X92767291Y-44327198D01*
X92755203Y-44328656D01*
X92743024Y-44330518D01*
X92730803Y-44332801D01*
X92718590Y-44335521D01*
X92706433Y-44338694D01*
X92694381Y-44342336D01*
X92682484Y-44346465D01*
X92670789Y-44351095D01*
X92659346Y-44356244D01*
X92648204Y-44361928D01*
X92637412Y-44368163D01*
X92627019Y-44374965D01*
X92617073Y-44382351D01*
X92607623Y-44390337D01*
X92598719Y-44398939D01*
X92590409Y-44408174D01*
X92585117Y-44416096D01*
X92582457Y-44419985D01*
X92579728Y-44423801D01*
X92578325Y-44425675D01*
X92576889Y-44427523D01*
X92575413Y-44429344D01*
X92573893Y-44431133D01*
X92572323Y-44432890D01*
X92570697Y-44434612D01*
X92569011Y-44436296D01*
X92567258Y-44437940D01*
X92565039Y-44438318D01*
X92563285Y-44438590D01*
X92562531Y-44438687D01*
X92561832Y-44438759D01*
X92561167Y-44438806D01*
X92560518Y-44438828D01*
X92559862Y-44438826D01*
X92559181Y-44438799D01*
X92558453Y-44438748D01*
X92557659Y-44438674D01*
X92555789Y-44438456D01*
X92553409Y-44438147D01*
X92549214Y-44437258D01*
X92545022Y-44436497D01*
X92540833Y-44435856D01*
X92536645Y-44435331D01*
X92532456Y-44434913D01*
X92528266Y-44434598D01*
X92519876Y-44434247D01*
X92511467Y-44434230D01*
X92503028Y-44434494D01*
X92494549Y-44434989D01*
X92486022Y-44435666D01*
X92474654Y-44437940D01*
X92465985Y-44439824D01*
X92457446Y-44441984D01*
X92449037Y-44444412D01*
X92440753Y-44447099D01*
X92424557Y-44453217D01*
X92408843Y-44460273D01*
X92393596Y-44468203D01*
X92378798Y-44476939D01*
X92364433Y-44486416D01*
X92350487Y-44496569D01*
X92336943Y-44507332D01*
X92323785Y-44518639D01*
X92310997Y-44530425D01*
X92298562Y-44542624D01*
X92286466Y-44555169D01*
X92274692Y-44567997D01*
X92263224Y-44581040D01*
X92252046Y-44594233D01*
X92244288Y-44604163D01*
X92236771Y-44614416D01*
X92229545Y-44624975D01*
X92222655Y-44635821D01*
X92216151Y-44646937D01*
X92210079Y-44658305D01*
X92204487Y-44669907D01*
X92199423Y-44681725D01*
X92194934Y-44693741D01*
X92191067Y-44705938D01*
X92187871Y-44718296D01*
X92185393Y-44730799D01*
X92183681Y-44743429D01*
X92182781Y-44756167D01*
X92182743Y-44768996D01*
X92183612Y-44781898D01*
X92185127Y-44788167D01*
X92185824Y-44791278D01*
X92186473Y-44794388D01*
X92187069Y-44797508D01*
X92187604Y-44800649D01*
X92188073Y-44803822D01*
X92188470Y-44807039D01*
X92187774Y-44810467D01*
X92187432Y-44811895D01*
X92187062Y-44813173D01*
X92186636Y-44814332D01*
X92186130Y-44815402D01*
X92185839Y-44815914D01*
X92185517Y-44816415D01*
X92184773Y-44817400D01*
X92183871Y-44818389D01*
X92182787Y-44819413D01*
X92181493Y-44820501D01*
X92179966Y-44821686D01*
X92178179Y-44822996D01*
X92176106Y-44824464D01*
X92171003Y-44827993D01*
X92165737Y-44831421D01*
X92160680Y-44834880D01*
X92155805Y-44838410D01*
X92153426Y-44840215D01*
X92151082Y-44842054D01*
X92148770Y-44843931D01*
X92146486Y-44845852D01*
X92144226Y-44847822D01*
X92141988Y-44849846D01*
X92139767Y-44851929D01*
X92137560Y-44854077D01*
X92135364Y-44856294D01*
X92133176Y-44858586D01*
X92125053Y-44868465D01*
X92117599Y-44878641D01*
X92110798Y-44889097D01*
X92104634Y-44899817D01*
X92099091Y-44910785D01*
X92094152Y-44921985D01*
X92089802Y-44933400D01*
X92086024Y-44945015D01*
X92082803Y-44956813D01*
X92080122Y-44968778D01*
X92077964Y-44980894D01*
X92076315Y-44993145D01*
X92075157Y-45005514D01*
X92074474Y-45017987D01*
X92074251Y-45030545D01*
X92074471Y-45043174D01*
X92077779Y-45086169D01*
X91852883Y-45086169D01*
X91851611Y-45063318D01*
X91850211Y-45040669D01*
X91849330Y-45029384D01*
X91848255Y-45018107D01*
X91846934Y-45006822D01*
X91845313Y-44995516D01*
X91843119Y-44984962D01*
X91840653Y-44974201D01*
X91837892Y-44963295D01*
X91834811Y-44952312D01*
X91831387Y-44941316D01*
X91827596Y-44930373D01*
X91823416Y-44919548D01*
X91818823Y-44908907D01*
X91813792Y-44898515D01*
X91808302Y-44888438D01*
X91802327Y-44878740D01*
X91795845Y-44869488D01*
X91788832Y-44860746D01*
X91785120Y-44856587D01*
X91781265Y-44852580D01*
X91777266Y-44848734D01*
X91773120Y-44845056D01*
X91768824Y-44841555D01*
X91764374Y-44838238D01*
X91761041Y-44835946D01*
X91757828Y-44833676D01*
X91754722Y-44831388D01*
X91751714Y-44829042D01*
X91750243Y-44827834D01*
X91748792Y-44826597D01*
X91747360Y-44825326D01*
X91745946Y-44824015D01*
X91744547Y-44822660D01*
X91743164Y-44821255D01*
X91741793Y-44819796D01*
X91740435Y-44818278D01*
X91739989Y-44815535D01*
X91739666Y-44813360D01*
X91739548Y-44812421D01*
X91739460Y-44811547D01*
X91739399Y-44810712D01*
X91739366Y-44809890D01*
X91739360Y-44809056D01*
X91739380Y-44808184D01*
X91739427Y-44807248D01*
X91739498Y-44806222D01*
X91739713Y-44803799D01*
X91740022Y-44800708D01*
X91741012Y-44794836D01*
X91741867Y-44789033D01*
X91742587Y-44783272D01*
X91743173Y-44777528D01*
X91743627Y-44771775D01*
X91743950Y-44765985D01*
X91744144Y-44760132D01*
X91744209Y-44754191D01*
X91744156Y-44745725D01*
X91744175Y-44738227D01*
X91744138Y-44730735D01*
X91744006Y-44723245D01*
X91743743Y-44715752D01*
X91742848Y-44710055D01*
X91741773Y-44704453D01*
X91740523Y-44698947D01*
X91739103Y-44693532D01*
X91737518Y-44688208D01*
X91735773Y-44682972D01*
X91733872Y-44677822D01*
X91731821Y-44672757D01*
X91727287Y-44662869D01*
X91722211Y-44653294D01*
X91716632Y-44644013D01*
X91710590Y-44635012D01*
X91704124Y-44626272D01*
X91697274Y-44617779D01*
X91690078Y-44609515D01*
X91682578Y-44601464D01*
X91674811Y-44593609D01*
X91666818Y-44585934D01*
X91658639Y-44578423D01*
X91650311Y-44571058D01*
X91644632Y-44566122D01*
X91639043Y-44561136D01*
X91633558Y-44556076D01*
X91628188Y-44550916D01*
X91622944Y-44545631D01*
X91617839Y-44540196D01*
X91615342Y-44537415D01*
X91612884Y-44534586D01*
X91610467Y-44531707D01*
X91608092Y-44528774D01*
X91602200Y-44521398D01*
X91596221Y-44514251D01*
X91590117Y-44507321D01*
X91583853Y-44500597D01*
X91577390Y-44494065D01*
X91574073Y-44490868D01*
X91570692Y-44487715D01*
X91567243Y-44484604D01*
X91563721Y-44481533D01*
X91560122Y-44478502D01*
X91556441Y-44475509D01*
X91547154Y-44469053D01*
X91537668Y-44463064D01*
X91527994Y-44457551D01*
X91518140Y-44452521D01*
X91508116Y-44447984D01*
X91497931Y-44443947D01*
X91487595Y-44440419D01*
X91477117Y-44437408D01*
X91466507Y-44434922D01*
X91455773Y-44432969D01*
X91444925Y-44431557D01*
X91433973Y-44430696D01*
X91422926Y-44430393D01*
X91411793Y-44430656D01*
X91400583Y-44431494D01*
X91389307Y-44432914D01*
X91382457Y-44434147D01*
X91376441Y-44435081D01*
X91367903Y-44436189D01*
X91353482Y-44437940D01*
X91351178Y-44433114D01*
X91348787Y-44428411D01*
X91346296Y-44423815D01*
X91343693Y-44419310D01*
X91340965Y-44414879D01*
X91338099Y-44410508D01*
X91335082Y-44406179D01*
X91331900Y-44401876D01*
X91327644Y-44396392D01*
X91325129Y-44393091D01*
X91322600Y-44389884D01*
X91320052Y-44386768D01*
X91317474Y-44383738D01*
X91314861Y-44380792D01*
X91312204Y-44377926D01*
X91309495Y-44375135D01*
X91306727Y-44372417D01*
X91303893Y-44369768D01*
X91300983Y-44367183D01*
X91297992Y-44364661D01*
X91294911Y-44362196D01*
X91291733Y-44359785D01*
X91288449Y-44357425D01*
X91285053Y-44355112D01*
X91281536Y-44352842D01*
X91272247Y-44348023D01*
X91256306Y-44342648D01*
X91243701Y-44338577D01*
X91238286Y-44336962D01*
X91233267Y-44335590D01*
X91228501Y-44334434D01*
X91223841Y-44333465D01*
X91219142Y-44332657D01*
X91214258Y-44331982D01*
X91209044Y-44331412D01*
X91203355Y-44330919D01*
X91189968Y-44330056D01*
X91172933Y-44329171D01*
X91160832Y-44328386D01*
X91133934Y-44326877D01*
X91107143Y-44325971D01*
X91080434Y-44325741D01*
X91053786Y-44326260D01*
X91027176Y-44327601D01*
X91000580Y-44329835D01*
X90973976Y-44333036D01*
X90947341Y-44337276D01*
X90939057Y-44339131D01*
X90931053Y-44341346D01*
X90923321Y-44343917D01*
X90915853Y-44346840D01*
X90908643Y-44350112D01*
X90901681Y-44353730D01*
X90894962Y-44357690D01*
X90888478Y-44361989D01*
X90882221Y-44366623D01*
X90876183Y-44371590D01*
X90870359Y-44376885D01*
X90864739Y-44382506D01*
X90859316Y-44388448D01*
X90854084Y-44394710D01*
X90849034Y-44401286D01*
X90844159Y-44408174D01*
X90842206Y-44412850D01*
X90840241Y-44417343D01*
X90839233Y-44419526D01*
X90838195Y-44421668D01*
X90837120Y-44423771D01*
X90835998Y-44425838D01*
X90834821Y-44427869D01*
X90833581Y-44429866D01*
X90832268Y-44431832D01*
X90830874Y-44433768D01*
X90829391Y-44435676D01*
X90827809Y-44437557D01*
X90826120Y-44439414D01*
X90824315Y-44441247D01*
X90821645Y-44441871D01*
X90818990Y-44442408D01*
X90816348Y-44442864D01*
X90813716Y-44443244D01*
X90811092Y-44443552D01*
X90808471Y-44443793D01*
X90805853Y-44443972D01*
X90803233Y-44444093D01*
X90797977Y-44444182D01*
X90792682Y-44444098D01*
X90787324Y-44443878D01*
X90781881Y-44443561D01*
X90778511Y-44443344D01*
X90775139Y-44443148D01*
X90771767Y-44442971D01*
X90768393Y-44442814D01*
X90748687Y-44442087D01*
X90742794Y-44441776D01*
X90736897Y-44441532D01*
X90730997Y-44441356D01*
X90725096Y-44441247D01*
X90698638Y-44444554D01*
X90698638Y-44021221D01*
X91551920Y-44021221D01*
X91551713Y-43791571D01*
X91551606Y-43689768D01*
X91551584Y-43654997D01*
X91551543Y-43617893D01*
X91551544Y-43604083D01*
X91551508Y-43591068D01*
X91551521Y-43579358D01*
X91551537Y-43574893D01*
X91551599Y-43570429D01*
X91551722Y-43565967D01*
X91551920Y-43561508D01*
X91553261Y-43560217D01*
X91553939Y-43559660D01*
X91554700Y-43559134D01*
X91555600Y-43558622D01*
X91556698Y-43558104D01*
X91559714Y-43556972D01*
X91564208Y-43555584D01*
X91570639Y-43553786D01*
X91591155Y-43548343D01*
X91602025Y-43545501D01*
X91612883Y-43542615D01*
X91619951Y-43540725D01*
X91627026Y-43538860D01*
X91633827Y-43537090D01*
X91639335Y-43535695D01*
X91644457Y-43534560D01*
X91646913Y-43534101D01*
X91649321Y-43533719D01*
X91651697Y-43533419D01*
X91654057Y-43533204D01*
X91656417Y-43533078D01*
X91658793Y-43533047D01*
X91661201Y-43533113D01*
X91663658Y-43533280D01*
X91666179Y-43533554D01*
X91668780Y-43533937D01*
X91671478Y-43534434D01*
X91674289Y-43535049D01*
X91783984Y-43865186D01*
X91791517Y-43888053D01*
X91803585Y-43924681D01*
X91808067Y-43938319D01*
X91812254Y-43950998D01*
X91816163Y-43962923D01*
X91817944Y-43968389D01*
X91819695Y-43973864D01*
X91823117Y-43984841D01*
X91833039Y-44021221D01*
X92163768Y-44017914D01*
X92109647Y-43837112D01*
X92107067Y-43828533D01*
X92041258Y-43611931D01*
X92007716Y-43503825D01*
X91973577Y-43395908D01*
X91964594Y-43367757D01*
X91949035Y-43317523D01*
X91944838Y-43304915D01*
X91940370Y-43292423D01*
X91935557Y-43280114D01*
X91930325Y-43268056D01*
X91924601Y-43256316D01*
X91918310Y-43244961D01*
X91911379Y-43234061D01*
X91907649Y-43228802D01*
X91903732Y-43223681D01*
X91899618Y-43218708D01*
X91895298Y-43213891D01*
X91890762Y-43209237D01*
X91886001Y-43204756D01*
X91881005Y-43200456D01*
X91875767Y-43196346D01*
X91870276Y-43192433D01*
X91864523Y-43188727D01*
X91855653Y-43184525D01*
X91846704Y-43180910D01*
X91837683Y-43177861D01*
X91828596Y-43175356D01*
X91819449Y-43173372D01*
X91810249Y-43171887D01*
X91801001Y-43170879D01*
X91791711Y-43170326D01*
X91782387Y-43170207D01*
X91773034Y-43170498D01*
X91763658Y-43171177D01*
X91754266Y-43172224D01*
X91744863Y-43173614D01*
X91735457Y-43175327D01*
X91726052Y-43177341D01*
X91716656Y-43179632D01*
X91708951Y-43181647D01*
X91683611Y-43188208D01*
X91657966Y-43194870D01*
X91641152Y-43199217D01*
X91625757Y-43203211D01*
X91611330Y-43206797D01*
X91551920Y-43220857D01*
X91551920Y-41567211D01*
X90698638Y-41567211D01*
X90698638Y-41182973D01*
X90932350Y-41182973D01*
X90932422Y-41193961D01*
X90932935Y-41204765D01*
X90933906Y-41215390D01*
X90935352Y-41225845D01*
X90937290Y-41236134D01*
X90939738Y-41246266D01*
X90942713Y-41256248D01*
X90946233Y-41266085D01*
X90950314Y-41275786D01*
X90954975Y-41285356D01*
X90960233Y-41294803D01*
X90966104Y-41304133D01*
X90972607Y-41313354D01*
X90979758Y-41322471D01*
X90986342Y-41329190D01*
X90993195Y-41335623D01*
X91000306Y-41341755D01*
X91007664Y-41347566D01*
X91015256Y-41353042D01*
X91023073Y-41358164D01*
X91031103Y-41362915D01*
X91039335Y-41367280D01*
X91047757Y-41371240D01*
X91056359Y-41374779D01*
X91065128Y-41377880D01*
X91074055Y-41380525D01*
X91083127Y-41382698D01*
X91092334Y-41384382D01*
X91101664Y-41385560D01*
X91111106Y-41386214D01*
X91121598Y-41386209D01*
X91131965Y-41385826D01*
X91142202Y-41385052D01*
X91152301Y-41383874D01*
X91162257Y-41382278D01*
X91172064Y-41380251D01*
X91181716Y-41377778D01*
X91191207Y-41374848D01*
X91200531Y-41371446D01*
X91209682Y-41367558D01*
X91218653Y-41363172D01*
X91227439Y-41358273D01*
X91236033Y-41352848D01*
X91244430Y-41346884D01*
X91252623Y-41340368D01*
X91260607Y-41333284D01*
X91267586Y-41325893D01*
X91274163Y-41318323D01*
X91280334Y-41310571D01*
X91286095Y-41302639D01*
X91291442Y-41294523D01*
X91296372Y-41286223D01*
X91300880Y-41277739D01*
X91304963Y-41269068D01*
X91308617Y-41260210D01*
X91311837Y-41251163D01*
X91314622Y-41241927D01*
X91316965Y-41232501D01*
X91318864Y-41222883D01*
X91320315Y-41213072D01*
X91321313Y-41203067D01*
X91321856Y-41192867D01*
X91321357Y-41184429D01*
X91320558Y-41175950D01*
X91319454Y-41167455D01*
X91318036Y-41158972D01*
X91316297Y-41150525D01*
X91314231Y-41142140D01*
X91311831Y-41133844D01*
X91309088Y-41125663D01*
X91305996Y-41117623D01*
X91302548Y-41109749D01*
X91298737Y-41102068D01*
X91294555Y-41094605D01*
X91289995Y-41087387D01*
X91285050Y-41080440D01*
X91279714Y-41073789D01*
X91273978Y-41067461D01*
X91267492Y-41061195D01*
X91256882Y-41051082D01*
X91245767Y-41041713D01*
X91234184Y-41033124D01*
X91222172Y-41025351D01*
X91209768Y-41018431D01*
X91197011Y-41012402D01*
X91183939Y-41007299D01*
X91170590Y-41003160D01*
X91157002Y-41000021D01*
X91143213Y-40997919D01*
X91129262Y-40996890D01*
X91115185Y-40996971D01*
X91101023Y-40998199D01*
X91086811Y-41000611D01*
X91072590Y-41004242D01*
X91058396Y-41009131D01*
X91049909Y-41013023D01*
X91041515Y-41017222D01*
X91033243Y-41021729D01*
X91025122Y-41026545D01*
X91017181Y-41031671D01*
X91009450Y-41037109D01*
X91001955Y-41042859D01*
X90994728Y-41048923D01*
X90987796Y-41055301D01*
X90981188Y-41061995D01*
X90974933Y-41069006D01*
X90969060Y-41076336D01*
X90963598Y-41083984D01*
X90958576Y-41091952D01*
X90954023Y-41100242D01*
X90949967Y-41108854D01*
X90946685Y-41117419D01*
X90944520Y-41122725D01*
X90942501Y-41127999D01*
X90940629Y-41133268D01*
X90938903Y-41138556D01*
X90937323Y-41143890D01*
X90935888Y-41149293D01*
X90934599Y-41154793D01*
X90933456Y-41160414D01*
X90932700Y-41171793D01*
X90932350Y-41182973D01*
X90698638Y-41182973D01*
X90698638Y-40816456D01*
X93232024Y-40816456D01*
X93232024Y-41192867D01*
X93232024Y-41567211D01*
G37*
D11*
X99869048Y-47343409D02*
X99535715Y-47343409D01*
X99458334Y-47867219D02*
X99934525Y-47867219D01*
X99934525Y-47867219D02*
X99809525Y-46867219D01*
X99809525Y-46867219D02*
X99333334Y-46867219D01*
X98886906Y-47867219D02*
X98976191Y-47819600D01*
X98976191Y-47819600D02*
X99011906Y-47724361D01*
X99011906Y-47724361D02*
X98904763Y-46867219D01*
X98119048Y-47819600D02*
X98220238Y-47867219D01*
X98220238Y-47867219D02*
X98410715Y-47867219D01*
X98410715Y-47867219D02*
X98500000Y-47819600D01*
X98500000Y-47819600D02*
X98535715Y-47724361D01*
X98535715Y-47724361D02*
X98488096Y-47343409D01*
X98488096Y-47343409D02*
X98428572Y-47248171D01*
X98428572Y-47248171D02*
X98327381Y-47200552D01*
X98327381Y-47200552D02*
X98136905Y-47200552D01*
X98136905Y-47200552D02*
X98047619Y-47248171D01*
X98047619Y-47248171D02*
X98011905Y-47343409D01*
X98011905Y-47343409D02*
X98023810Y-47438647D01*
X98023810Y-47438647D02*
X98511905Y-47533885D01*
X97214286Y-47819600D02*
X97315476Y-47867219D01*
X97315476Y-47867219D02*
X97505953Y-47867219D01*
X97505953Y-47867219D02*
X97595238Y-47819600D01*
X97595238Y-47819600D02*
X97636905Y-47771980D01*
X97636905Y-47771980D02*
X97672619Y-47676742D01*
X97672619Y-47676742D02*
X97636905Y-47391028D01*
X97636905Y-47391028D02*
X97577381Y-47295790D01*
X97577381Y-47295790D02*
X97523810Y-47248171D01*
X97523810Y-47248171D02*
X97422619Y-47200552D01*
X97422619Y-47200552D02*
X97232143Y-47200552D01*
X97232143Y-47200552D02*
X97142857Y-47248171D01*
X96851190Y-47200552D02*
X96470238Y-47200552D01*
X96666667Y-46867219D02*
X96773810Y-47724361D01*
X96773810Y-47724361D02*
X96738095Y-47819600D01*
X96738095Y-47819600D02*
X96648810Y-47867219D01*
X96648810Y-47867219D02*
X96553571Y-47867219D01*
X96220238Y-47867219D02*
X96136904Y-47200552D01*
X96160714Y-47391028D02*
X96101190Y-47295790D01*
X96101190Y-47295790D02*
X96047619Y-47248171D01*
X96047619Y-47248171D02*
X95946428Y-47200552D01*
X95946428Y-47200552D02*
X95851190Y-47200552D01*
X95601190Y-47867219D02*
X95517856Y-47200552D01*
X95476190Y-46867219D02*
X95529761Y-46914838D01*
X95529761Y-46914838D02*
X95488094Y-46962457D01*
X95488094Y-46962457D02*
X95434523Y-46914838D01*
X95434523Y-46914838D02*
X95476190Y-46867219D01*
X95476190Y-46867219D02*
X95488094Y-46962457D01*
X94690476Y-47819600D02*
X94791666Y-47867219D01*
X94791666Y-47867219D02*
X94982143Y-47867219D01*
X94982143Y-47867219D02*
X95071428Y-47819600D01*
X95071428Y-47819600D02*
X95113095Y-47771980D01*
X95113095Y-47771980D02*
X95148809Y-47676742D01*
X95148809Y-47676742D02*
X95113095Y-47391028D01*
X95113095Y-47391028D02*
X95053571Y-47295790D01*
X95053571Y-47295790D02*
X95000000Y-47248171D01*
X95000000Y-47248171D02*
X94898809Y-47200552D01*
X94898809Y-47200552D02*
X94708333Y-47200552D01*
X94708333Y-47200552D02*
X94619047Y-47248171D01*
X93839285Y-47867219D02*
X93773809Y-47343409D01*
X93773809Y-47343409D02*
X93809523Y-47248171D01*
X93809523Y-47248171D02*
X93898809Y-47200552D01*
X93898809Y-47200552D02*
X94089285Y-47200552D01*
X94089285Y-47200552D02*
X94190476Y-47248171D01*
X93833333Y-47819600D02*
X93934523Y-47867219D01*
X93934523Y-47867219D02*
X94172619Y-47867219D01*
X94172619Y-47867219D02*
X94261904Y-47819600D01*
X94261904Y-47819600D02*
X94297619Y-47724361D01*
X94297619Y-47724361D02*
X94285714Y-47629123D01*
X94285714Y-47629123D02*
X94226190Y-47533885D01*
X94226190Y-47533885D02*
X94125000Y-47486266D01*
X94125000Y-47486266D02*
X93886904Y-47486266D01*
X93886904Y-47486266D02*
X93785714Y-47438647D01*
X93220238Y-47867219D02*
X93309523Y-47819600D01*
X93309523Y-47819600D02*
X93345238Y-47724361D01*
X93345238Y-47724361D02*
X93238095Y-46867219D01*
X91934523Y-47867219D02*
X92023808Y-47819600D01*
X92023808Y-47819600D02*
X92059523Y-47724361D01*
X92059523Y-47724361D02*
X91952380Y-46867219D01*
X91166665Y-47819600D02*
X91267855Y-47867219D01*
X91267855Y-47867219D02*
X91458332Y-47867219D01*
X91458332Y-47867219D02*
X91547617Y-47819600D01*
X91547617Y-47819600D02*
X91583332Y-47724361D01*
X91583332Y-47724361D02*
X91535713Y-47343409D01*
X91535713Y-47343409D02*
X91476189Y-47248171D01*
X91476189Y-47248171D02*
X91374998Y-47200552D01*
X91374998Y-47200552D02*
X91184522Y-47200552D01*
X91184522Y-47200552D02*
X91095236Y-47248171D01*
X91095236Y-47248171D02*
X91059522Y-47343409D01*
X91059522Y-47343409D02*
X91071427Y-47438647D01*
X91071427Y-47438647D02*
X91559522Y-47533885D01*
X90267855Y-47867219D02*
X90202379Y-47343409D01*
X90202379Y-47343409D02*
X90238093Y-47248171D01*
X90238093Y-47248171D02*
X90327379Y-47200552D01*
X90327379Y-47200552D02*
X90517855Y-47200552D01*
X90517855Y-47200552D02*
X90619046Y-47248171D01*
X90261903Y-47819600D02*
X90363093Y-47867219D01*
X90363093Y-47867219D02*
X90601189Y-47867219D01*
X90601189Y-47867219D02*
X90690474Y-47819600D01*
X90690474Y-47819600D02*
X90726189Y-47724361D01*
X90726189Y-47724361D02*
X90714284Y-47629123D01*
X90714284Y-47629123D02*
X90654760Y-47533885D01*
X90654760Y-47533885D02*
X90553570Y-47486266D01*
X90553570Y-47486266D02*
X90315474Y-47486266D01*
X90315474Y-47486266D02*
X90214284Y-47438647D01*
X89363093Y-47867219D02*
X89238093Y-46867219D01*
X89357141Y-47819600D02*
X89458331Y-47867219D01*
X89458331Y-47867219D02*
X89648808Y-47867219D01*
X89648808Y-47867219D02*
X89738093Y-47819600D01*
X89738093Y-47819600D02*
X89779760Y-47771980D01*
X89779760Y-47771980D02*
X89815474Y-47676742D01*
X89815474Y-47676742D02*
X89779760Y-47391028D01*
X89779760Y-47391028D02*
X89720236Y-47295790D01*
X89720236Y-47295790D02*
X89666665Y-47248171D01*
X89666665Y-47248171D02*
X89565474Y-47200552D01*
X89565474Y-47200552D02*
X89374998Y-47200552D01*
X89374998Y-47200552D02*
X89285712Y-47248171D01*
X88928569Y-47819600D02*
X88839284Y-47867219D01*
X88839284Y-47867219D02*
X88648807Y-47867219D01*
X88648807Y-47867219D02*
X88547617Y-47819600D01*
X88547617Y-47819600D02*
X88488093Y-47724361D01*
X88488093Y-47724361D02*
X88482141Y-47676742D01*
X88482141Y-47676742D02*
X88517855Y-47581504D01*
X88517855Y-47581504D02*
X88607141Y-47533885D01*
X88607141Y-47533885D02*
X88749998Y-47533885D01*
X88749998Y-47533885D02*
X88839284Y-47486266D01*
X88839284Y-47486266D02*
X88874998Y-47391028D01*
X88874998Y-47391028D02*
X88869046Y-47343409D01*
X88869046Y-47343409D02*
X88809522Y-47248171D01*
X88809522Y-47248171D02*
X88708331Y-47200552D01*
X88708331Y-47200552D02*
X88565474Y-47200552D01*
X88565474Y-47200552D02*
X88476188Y-47248171D01*
X88065474Y-47771980D02*
X88023807Y-47819600D01*
X88023807Y-47819600D02*
X88077379Y-47867219D01*
X88077379Y-47867219D02*
X88119045Y-47819600D01*
X88119045Y-47819600D02*
X88065474Y-47771980D01*
X88065474Y-47771980D02*
X88077379Y-47867219D01*
X87999998Y-47248171D02*
X87958331Y-47295790D01*
X87958331Y-47295790D02*
X88011902Y-47343409D01*
X88011902Y-47343409D02*
X88053569Y-47295790D01*
X88053569Y-47295790D02*
X87999998Y-47248171D01*
X87999998Y-47248171D02*
X88011902Y-47343409D01*
D12*
X99142856Y-49869819D02*
X99142856Y-48869819D01*
X99142856Y-49346009D02*
X98571428Y-49346009D01*
X98571428Y-49869819D02*
X98571428Y-48869819D01*
X98095237Y-49869819D02*
X98095237Y-49203152D01*
X98095237Y-49393628D02*
X98047618Y-49298390D01*
X98047618Y-49298390D02*
X97999999Y-49250771D01*
X97999999Y-49250771D02*
X97904761Y-49203152D01*
X97904761Y-49203152D02*
X97809523Y-49203152D01*
X97476189Y-49869819D02*
X97476189Y-49203152D01*
X97476189Y-48869819D02*
X97523808Y-48917438D01*
X97523808Y-48917438D02*
X97476189Y-48965057D01*
X97476189Y-48965057D02*
X97428570Y-48917438D01*
X97428570Y-48917438D02*
X97476189Y-48869819D01*
X97476189Y-48869819D02*
X97476189Y-48965057D01*
X96571428Y-49869819D02*
X96571428Y-48869819D01*
X96571428Y-49822200D02*
X96666666Y-49869819D01*
X96666666Y-49869819D02*
X96857142Y-49869819D01*
X96857142Y-49869819D02*
X96952380Y-49822200D01*
X96952380Y-49822200D02*
X96999999Y-49774580D01*
X96999999Y-49774580D02*
X97047618Y-49679342D01*
X97047618Y-49679342D02*
X97047618Y-49393628D01*
X97047618Y-49393628D02*
X96999999Y-49298390D01*
X96999999Y-49298390D02*
X96952380Y-49250771D01*
X96952380Y-49250771D02*
X96857142Y-49203152D01*
X96857142Y-49203152D02*
X96666666Y-49203152D01*
X96666666Y-49203152D02*
X96571428Y-49250771D01*
X95666666Y-49869819D02*
X95666666Y-49346009D01*
X95666666Y-49346009D02*
X95714285Y-49250771D01*
X95714285Y-49250771D02*
X95809523Y-49203152D01*
X95809523Y-49203152D02*
X95999999Y-49203152D01*
X95999999Y-49203152D02*
X96095237Y-49250771D01*
X95666666Y-49822200D02*
X95761904Y-49869819D01*
X95761904Y-49869819D02*
X95999999Y-49869819D01*
X95999999Y-49869819D02*
X96095237Y-49822200D01*
X96095237Y-49822200D02*
X96142856Y-49726961D01*
X96142856Y-49726961D02*
X96142856Y-49631723D01*
X96142856Y-49631723D02*
X96095237Y-49536485D01*
X96095237Y-49536485D02*
X95999999Y-49488866D01*
X95999999Y-49488866D02*
X95761904Y-49488866D01*
X95761904Y-49488866D02*
X95666666Y-49441247D01*
X95285713Y-49203152D02*
X95047618Y-49869819D01*
X94809523Y-49203152D02*
X95047618Y-49869819D01*
X95047618Y-49869819D02*
X95142856Y-50107914D01*
X95142856Y-50107914D02*
X95190475Y-50155533D01*
X95190475Y-50155533D02*
X95285713Y-50203152D01*
X94380951Y-49822200D02*
X94380951Y-49869819D01*
X94380951Y-49869819D02*
X94428570Y-49965057D01*
X94428570Y-49965057D02*
X94476189Y-50012676D01*
X92904761Y-48869819D02*
X92904761Y-49584104D01*
X92904761Y-49584104D02*
X92952380Y-49726961D01*
X92952380Y-49726961D02*
X93047618Y-49822200D01*
X93047618Y-49822200D02*
X93190475Y-49869819D01*
X93190475Y-49869819D02*
X93285713Y-49869819D01*
X91999999Y-49869819D02*
X91999999Y-49346009D01*
X91999999Y-49346009D02*
X92047618Y-49250771D01*
X92047618Y-49250771D02*
X92142856Y-49203152D01*
X92142856Y-49203152D02*
X92333332Y-49203152D01*
X92333332Y-49203152D02*
X92428570Y-49250771D01*
X91999999Y-49822200D02*
X92095237Y-49869819D01*
X92095237Y-49869819D02*
X92333332Y-49869819D01*
X92333332Y-49869819D02*
X92428570Y-49822200D01*
X92428570Y-49822200D02*
X92476189Y-49726961D01*
X92476189Y-49726961D02*
X92476189Y-49631723D01*
X92476189Y-49631723D02*
X92428570Y-49536485D01*
X92428570Y-49536485D02*
X92333332Y-49488866D01*
X92333332Y-49488866D02*
X92095237Y-49488866D01*
X92095237Y-49488866D02*
X91999999Y-49441247D01*
X91523808Y-49203152D02*
X91523808Y-49869819D01*
X91523808Y-49298390D02*
X91476189Y-49250771D01*
X91476189Y-49250771D02*
X91380951Y-49203152D01*
X91380951Y-49203152D02*
X91238094Y-49203152D01*
X91238094Y-49203152D02*
X91142856Y-49250771D01*
X91142856Y-49250771D02*
X91095237Y-49346009D01*
X91095237Y-49346009D02*
X91095237Y-49869819D01*
X90619046Y-49869819D02*
X90619046Y-49203152D01*
X90619046Y-48869819D02*
X90666665Y-48917438D01*
X90666665Y-48917438D02*
X90619046Y-48965057D01*
X90619046Y-48965057D02*
X90571427Y-48917438D01*
X90571427Y-48917438D02*
X90619046Y-48869819D01*
X90619046Y-48869819D02*
X90619046Y-48965057D01*
X90142856Y-49203152D02*
X90142856Y-49869819D01*
X90142856Y-49298390D02*
X90095237Y-49250771D01*
X90095237Y-49250771D02*
X89999999Y-49203152D01*
X89999999Y-49203152D02*
X89857142Y-49203152D01*
X89857142Y-49203152D02*
X89761904Y-49250771D01*
X89761904Y-49250771D02*
X89714285Y-49346009D01*
X89714285Y-49346009D02*
X89714285Y-49869819D01*
X88857142Y-49822200D02*
X88952380Y-49869819D01*
X88952380Y-49869819D02*
X89142856Y-49869819D01*
X89142856Y-49869819D02*
X89238094Y-49822200D01*
X89238094Y-49822200D02*
X89285713Y-49726961D01*
X89285713Y-49726961D02*
X89285713Y-49346009D01*
X89285713Y-49346009D02*
X89238094Y-49250771D01*
X89238094Y-49250771D02*
X89142856Y-49203152D01*
X89142856Y-49203152D02*
X88952380Y-49203152D01*
X88952380Y-49203152D02*
X88857142Y-49250771D01*
X88857142Y-49250771D02*
X88809523Y-49346009D01*
X88809523Y-49346009D02*
X88809523Y-49441247D01*
X88809523Y-49441247D02*
X89285713Y-49536485D01*
D11*
X97267857Y-51867219D02*
X97142857Y-50867219D01*
X97142857Y-50867219D02*
X96898809Y-51581504D01*
X96898809Y-51581504D02*
X96476190Y-50867219D01*
X96476190Y-50867219D02*
X96601190Y-51867219D01*
X95738095Y-51819600D02*
X95839285Y-51867219D01*
X95839285Y-51867219D02*
X96029762Y-51867219D01*
X96029762Y-51867219D02*
X96119047Y-51819600D01*
X96119047Y-51819600D02*
X96154762Y-51724361D01*
X96154762Y-51724361D02*
X96107143Y-51343409D01*
X96107143Y-51343409D02*
X96047619Y-51248171D01*
X96047619Y-51248171D02*
X95946428Y-51200552D01*
X95946428Y-51200552D02*
X95755952Y-51200552D01*
X95755952Y-51200552D02*
X95666666Y-51248171D01*
X95666666Y-51248171D02*
X95630952Y-51343409D01*
X95630952Y-51343409D02*
X95642857Y-51438647D01*
X95642857Y-51438647D02*
X96130952Y-51533885D01*
X95267857Y-51867219D02*
X95184523Y-51200552D01*
X95196428Y-51295790D02*
X95142857Y-51248171D01*
X95142857Y-51248171D02*
X95041666Y-51200552D01*
X95041666Y-51200552D02*
X94898809Y-51200552D01*
X94898809Y-51200552D02*
X94809523Y-51248171D01*
X94809523Y-51248171D02*
X94773809Y-51343409D01*
X94773809Y-51343409D02*
X94839285Y-51867219D01*
X94773809Y-51343409D02*
X94714285Y-51248171D01*
X94714285Y-51248171D02*
X94613095Y-51200552D01*
X94613095Y-51200552D02*
X94470238Y-51200552D01*
X94470238Y-51200552D02*
X94380952Y-51248171D01*
X94380952Y-51248171D02*
X94345238Y-51343409D01*
X94345238Y-51343409D02*
X94410714Y-51867219D01*
X93934524Y-51867219D02*
X93809524Y-50867219D01*
X93857143Y-51248171D02*
X93755952Y-51200552D01*
X93755952Y-51200552D02*
X93565476Y-51200552D01*
X93565476Y-51200552D02*
X93476190Y-51248171D01*
X93476190Y-51248171D02*
X93434524Y-51295790D01*
X93434524Y-51295790D02*
X93398809Y-51391028D01*
X93398809Y-51391028D02*
X93434524Y-51676742D01*
X93434524Y-51676742D02*
X93494047Y-51771980D01*
X93494047Y-51771980D02*
X93547619Y-51819600D01*
X93547619Y-51819600D02*
X93648809Y-51867219D01*
X93648809Y-51867219D02*
X93839286Y-51867219D01*
X93839286Y-51867219D02*
X93928571Y-51819600D01*
X92642857Y-51819600D02*
X92744047Y-51867219D01*
X92744047Y-51867219D02*
X92934524Y-51867219D01*
X92934524Y-51867219D02*
X93023809Y-51819600D01*
X93023809Y-51819600D02*
X93059524Y-51724361D01*
X93059524Y-51724361D02*
X93011905Y-51343409D01*
X93011905Y-51343409D02*
X92952381Y-51248171D01*
X92952381Y-51248171D02*
X92851190Y-51200552D01*
X92851190Y-51200552D02*
X92660714Y-51200552D01*
X92660714Y-51200552D02*
X92571428Y-51248171D01*
X92571428Y-51248171D02*
X92535714Y-51343409D01*
X92535714Y-51343409D02*
X92547619Y-51438647D01*
X92547619Y-51438647D02*
X93035714Y-51533885D01*
X92172619Y-51867219D02*
X92089285Y-51200552D01*
X92113095Y-51391028D02*
X92053571Y-51295790D01*
X92053571Y-51295790D02*
X92000000Y-51248171D01*
X92000000Y-51248171D02*
X91898809Y-51200552D01*
X91898809Y-51200552D02*
X91803571Y-51200552D01*
X91595237Y-51819600D02*
X91505952Y-51867219D01*
X91505952Y-51867219D02*
X91315475Y-51867219D01*
X91315475Y-51867219D02*
X91214285Y-51819600D01*
X91214285Y-51819600D02*
X91154761Y-51724361D01*
X91154761Y-51724361D02*
X91148809Y-51676742D01*
X91148809Y-51676742D02*
X91184523Y-51581504D01*
X91184523Y-51581504D02*
X91273809Y-51533885D01*
X91273809Y-51533885D02*
X91416666Y-51533885D01*
X91416666Y-51533885D02*
X91505952Y-51486266D01*
X91505952Y-51486266D02*
X91541666Y-51391028D01*
X91541666Y-51391028D02*
X91535714Y-51343409D01*
X91535714Y-51343409D02*
X91476190Y-51248171D01*
X91476190Y-51248171D02*
X91374999Y-51200552D01*
X91374999Y-51200552D02*
X91232142Y-51200552D01*
X91232142Y-51200552D02*
X91142856Y-51248171D01*
X90732142Y-51771980D02*
X90690475Y-51819600D01*
X90690475Y-51819600D02*
X90744047Y-51867219D01*
X90744047Y-51867219D02*
X90785713Y-51819600D01*
X90785713Y-51819600D02*
X90732142Y-51771980D01*
X90732142Y-51771980D02*
X90744047Y-51867219D01*
X90666666Y-51248171D02*
X90624999Y-51295790D01*
X90624999Y-51295790D02*
X90678570Y-51343409D01*
X90678570Y-51343409D02*
X90720237Y-51295790D01*
X90720237Y-51295790D02*
X90666666Y-51248171D01*
X90666666Y-51248171D02*
X90678570Y-51343409D01*
D12*
X105714285Y-53759875D02*
X105714285Y-52759875D01*
X105714285Y-52759875D02*
X105142857Y-53759875D01*
X105142857Y-53759875D02*
X105142857Y-52759875D01*
X104238095Y-53759875D02*
X104238095Y-53236065D01*
X104238095Y-53236065D02*
X104285714Y-53140827D01*
X104285714Y-53140827D02*
X104380952Y-53093208D01*
X104380952Y-53093208D02*
X104571428Y-53093208D01*
X104571428Y-53093208D02*
X104666666Y-53140827D01*
X104238095Y-53712256D02*
X104333333Y-53759875D01*
X104333333Y-53759875D02*
X104571428Y-53759875D01*
X104571428Y-53759875D02*
X104666666Y-53712256D01*
X104666666Y-53712256D02*
X104714285Y-53617017D01*
X104714285Y-53617017D02*
X104714285Y-53521779D01*
X104714285Y-53521779D02*
X104666666Y-53426541D01*
X104666666Y-53426541D02*
X104571428Y-53378922D01*
X104571428Y-53378922D02*
X104333333Y-53378922D01*
X104333333Y-53378922D02*
X104238095Y-53331303D01*
X103904761Y-53093208D02*
X103523809Y-53093208D01*
X103761904Y-52759875D02*
X103761904Y-53617017D01*
X103761904Y-53617017D02*
X103714285Y-53712256D01*
X103714285Y-53712256D02*
X103619047Y-53759875D01*
X103619047Y-53759875D02*
X103523809Y-53759875D01*
X103190475Y-53759875D02*
X103190475Y-52759875D01*
X102761904Y-53759875D02*
X102761904Y-53236065D01*
X102761904Y-53236065D02*
X102809523Y-53140827D01*
X102809523Y-53140827D02*
X102904761Y-53093208D01*
X102904761Y-53093208D02*
X103047618Y-53093208D01*
X103047618Y-53093208D02*
X103142856Y-53140827D01*
X103142856Y-53140827D02*
X103190475Y-53188446D01*
X101857142Y-53759875D02*
X101857142Y-53236065D01*
X101857142Y-53236065D02*
X101904761Y-53140827D01*
X101904761Y-53140827D02*
X101999999Y-53093208D01*
X101999999Y-53093208D02*
X102190475Y-53093208D01*
X102190475Y-53093208D02*
X102285713Y-53140827D01*
X101857142Y-53712256D02*
X101952380Y-53759875D01*
X101952380Y-53759875D02*
X102190475Y-53759875D01*
X102190475Y-53759875D02*
X102285713Y-53712256D01*
X102285713Y-53712256D02*
X102333332Y-53617017D01*
X102333332Y-53617017D02*
X102333332Y-53521779D01*
X102333332Y-53521779D02*
X102285713Y-53426541D01*
X102285713Y-53426541D02*
X102190475Y-53378922D01*
X102190475Y-53378922D02*
X101952380Y-53378922D01*
X101952380Y-53378922D02*
X101857142Y-53331303D01*
X101380951Y-53093208D02*
X101380951Y-53759875D01*
X101380951Y-53188446D02*
X101333332Y-53140827D01*
X101333332Y-53140827D02*
X101238094Y-53093208D01*
X101238094Y-53093208D02*
X101095237Y-53093208D01*
X101095237Y-53093208D02*
X100999999Y-53140827D01*
X100999999Y-53140827D02*
X100952380Y-53236065D01*
X100952380Y-53236065D02*
X100952380Y-53759875D01*
X100428570Y-53712256D02*
X100428570Y-53759875D01*
X100428570Y-53759875D02*
X100476189Y-53855113D01*
X100476189Y-53855113D02*
X100523808Y-53902732D01*
X99047618Y-52759875D02*
X98857142Y-52759875D01*
X98857142Y-52759875D02*
X98761904Y-52807494D01*
X98761904Y-52807494D02*
X98666666Y-52902732D01*
X98666666Y-52902732D02*
X98619047Y-53093208D01*
X98619047Y-53093208D02*
X98619047Y-53426541D01*
X98619047Y-53426541D02*
X98666666Y-53617017D01*
X98666666Y-53617017D02*
X98761904Y-53712256D01*
X98761904Y-53712256D02*
X98857142Y-53759875D01*
X98857142Y-53759875D02*
X99047618Y-53759875D01*
X99047618Y-53759875D02*
X99142856Y-53712256D01*
X99142856Y-53712256D02*
X99238094Y-53617017D01*
X99238094Y-53617017D02*
X99285713Y-53426541D01*
X99285713Y-53426541D02*
X99285713Y-53093208D01*
X99285713Y-53093208D02*
X99238094Y-52902732D01*
X99238094Y-52902732D02*
X99142856Y-52807494D01*
X99142856Y-52807494D02*
X99047618Y-52759875D01*
X98285713Y-53093208D02*
X97761904Y-53093208D01*
X97761904Y-53093208D02*
X98285713Y-53759875D01*
X98285713Y-53759875D02*
X97761904Y-53759875D01*
X96952380Y-53759875D02*
X96952380Y-53236065D01*
X96952380Y-53236065D02*
X96999999Y-53140827D01*
X96999999Y-53140827D02*
X97095237Y-53093208D01*
X97095237Y-53093208D02*
X97285713Y-53093208D01*
X97285713Y-53093208D02*
X97380951Y-53140827D01*
X96952380Y-53712256D02*
X97047618Y-53759875D01*
X97047618Y-53759875D02*
X97285713Y-53759875D01*
X97285713Y-53759875D02*
X97380951Y-53712256D01*
X97380951Y-53712256D02*
X97428570Y-53617017D01*
X97428570Y-53617017D02*
X97428570Y-53521779D01*
X97428570Y-53521779D02*
X97380951Y-53426541D01*
X97380951Y-53426541D02*
X97285713Y-53378922D01*
X97285713Y-53378922D02*
X97047618Y-53378922D01*
X97047618Y-53378922D02*
X96952380Y-53331303D01*
X96476189Y-53093208D02*
X96476189Y-53759875D01*
X96476189Y-53188446D02*
X96428570Y-53140827D01*
X96428570Y-53140827D02*
X96333332Y-53093208D01*
X96333332Y-53093208D02*
X96190475Y-53093208D01*
X96190475Y-53093208D02*
X96095237Y-53140827D01*
X96095237Y-53140827D02*
X96047618Y-53236065D01*
X96047618Y-53236065D02*
X96047618Y-53759875D01*
X95523808Y-53712256D02*
X95523808Y-53759875D01*
X95523808Y-53759875D02*
X95571427Y-53855113D01*
X95571427Y-53855113D02*
X95619046Y-53902732D01*
X94333332Y-53759875D02*
X94333332Y-52759875D01*
X93857142Y-53759875D02*
X93857142Y-53093208D01*
X93857142Y-53283684D02*
X93809523Y-53188446D01*
X93809523Y-53188446D02*
X93761904Y-53140827D01*
X93761904Y-53140827D02*
X93666666Y-53093208D01*
X93666666Y-53093208D02*
X93571428Y-53093208D01*
X93238094Y-53759875D02*
X93238094Y-53093208D01*
X93238094Y-53188446D02*
X93190475Y-53140827D01*
X93190475Y-53140827D02*
X93095237Y-53093208D01*
X93095237Y-53093208D02*
X92952380Y-53093208D01*
X92952380Y-53093208D02*
X92857142Y-53140827D01*
X92857142Y-53140827D02*
X92809523Y-53236065D01*
X92809523Y-53236065D02*
X92809523Y-53759875D01*
X92809523Y-53236065D02*
X92761904Y-53140827D01*
X92761904Y-53140827D02*
X92666666Y-53093208D01*
X92666666Y-53093208D02*
X92523809Y-53093208D01*
X92523809Y-53093208D02*
X92428570Y-53140827D01*
X92428570Y-53140827D02*
X92380951Y-53236065D01*
X92380951Y-53236065D02*
X92380951Y-53759875D01*
X91476190Y-53759875D02*
X91476190Y-53236065D01*
X91476190Y-53236065D02*
X91523809Y-53140827D01*
X91523809Y-53140827D02*
X91619047Y-53093208D01*
X91619047Y-53093208D02*
X91809523Y-53093208D01*
X91809523Y-53093208D02*
X91904761Y-53140827D01*
X91476190Y-53712256D02*
X91571428Y-53759875D01*
X91571428Y-53759875D02*
X91809523Y-53759875D01*
X91809523Y-53759875D02*
X91904761Y-53712256D01*
X91904761Y-53712256D02*
X91952380Y-53617017D01*
X91952380Y-53617017D02*
X91952380Y-53521779D01*
X91952380Y-53521779D02*
X91904761Y-53426541D01*
X91904761Y-53426541D02*
X91809523Y-53378922D01*
X91809523Y-53378922D02*
X91571428Y-53378922D01*
X91571428Y-53378922D02*
X91476190Y-53331303D01*
X90999999Y-53759875D02*
X90999999Y-52759875D01*
X90904761Y-53378922D02*
X90619047Y-53759875D01*
X90619047Y-53093208D02*
X90999999Y-53474160D01*
X90142856Y-53712256D02*
X90142856Y-53759875D01*
X90142856Y-53759875D02*
X90190475Y-53855113D01*
X90190475Y-53855113D02*
X90238094Y-53902732D01*
X88999999Y-53474160D02*
X88523809Y-53474160D01*
X89095237Y-53759875D02*
X88761904Y-52759875D01*
X88761904Y-52759875D02*
X88428571Y-53759875D01*
X87666666Y-53759875D02*
X87666666Y-53236065D01*
X87666666Y-53236065D02*
X87714285Y-53140827D01*
X87714285Y-53140827D02*
X87809523Y-53093208D01*
X87809523Y-53093208D02*
X87999999Y-53093208D01*
X87999999Y-53093208D02*
X88095237Y-53140827D01*
X87666666Y-53712256D02*
X87761904Y-53759875D01*
X87761904Y-53759875D02*
X87999999Y-53759875D01*
X87999999Y-53759875D02*
X88095237Y-53712256D01*
X88095237Y-53712256D02*
X88142856Y-53617017D01*
X88142856Y-53617017D02*
X88142856Y-53521779D01*
X88142856Y-53521779D02*
X88095237Y-53426541D01*
X88095237Y-53426541D02*
X87999999Y-53378922D01*
X87999999Y-53378922D02*
X87761904Y-53378922D01*
X87761904Y-53378922D02*
X87666666Y-53331303D01*
X86761904Y-53759875D02*
X86761904Y-52759875D01*
X86761904Y-53712256D02*
X86857142Y-53759875D01*
X86857142Y-53759875D02*
X87047618Y-53759875D01*
X87047618Y-53759875D02*
X87142856Y-53712256D01*
X87142856Y-53712256D02*
X87190475Y-53664636D01*
X87190475Y-53664636D02*
X87238094Y-53569398D01*
X87238094Y-53569398D02*
X87238094Y-53283684D01*
X87238094Y-53283684D02*
X87190475Y-53188446D01*
X87190475Y-53188446D02*
X87142856Y-53140827D01*
X87142856Y-53140827D02*
X87047618Y-53093208D01*
X87047618Y-53093208D02*
X86857142Y-53093208D01*
X86857142Y-53093208D02*
X86761904Y-53140827D01*
X85857142Y-53759875D02*
X85857142Y-53236065D01*
X85857142Y-53236065D02*
X85904761Y-53140827D01*
X85904761Y-53140827D02*
X85999999Y-53093208D01*
X85999999Y-53093208D02*
X86190475Y-53093208D01*
X86190475Y-53093208D02*
X86285713Y-53140827D01*
X85857142Y-53712256D02*
X85952380Y-53759875D01*
X85952380Y-53759875D02*
X86190475Y-53759875D01*
X86190475Y-53759875D02*
X86285713Y-53712256D01*
X86285713Y-53712256D02*
X86333332Y-53617017D01*
X86333332Y-53617017D02*
X86333332Y-53521779D01*
X86333332Y-53521779D02*
X86285713Y-53426541D01*
X86285713Y-53426541D02*
X86190475Y-53378922D01*
X86190475Y-53378922D02*
X85952380Y-53378922D01*
X85952380Y-53378922D02*
X85857142Y-53331303D01*
X85380951Y-53759875D02*
X85380951Y-53093208D01*
X85380951Y-53283684D02*
X85333332Y-53188446D01*
X85333332Y-53188446D02*
X85285713Y-53140827D01*
X85285713Y-53140827D02*
X85190475Y-53093208D01*
X85190475Y-53093208D02*
X85095237Y-53093208D01*
X84809522Y-53712256D02*
X84714284Y-53759875D01*
X84714284Y-53759875D02*
X84523808Y-53759875D01*
X84523808Y-53759875D02*
X84428570Y-53712256D01*
X84428570Y-53712256D02*
X84380951Y-53617017D01*
X84380951Y-53617017D02*
X84380951Y-53569398D01*
X84380951Y-53569398D02*
X84428570Y-53474160D01*
X84428570Y-53474160D02*
X84523808Y-53426541D01*
X84523808Y-53426541D02*
X84666665Y-53426541D01*
X84666665Y-53426541D02*
X84761903Y-53378922D01*
X84761903Y-53378922D02*
X84809522Y-53283684D01*
X84809522Y-53283684D02*
X84809522Y-53236065D01*
X84809522Y-53236065D02*
X84761903Y-53140827D01*
X84761903Y-53140827D02*
X84666665Y-53093208D01*
X84666665Y-53093208D02*
X84523808Y-53093208D01*
X84523808Y-53093208D02*
X84428570Y-53140827D01*
X83952379Y-53759875D02*
X83952379Y-52759875D01*
X83523808Y-53759875D02*
X83523808Y-53236065D01*
X83523808Y-53236065D02*
X83571427Y-53140827D01*
X83571427Y-53140827D02*
X83666665Y-53093208D01*
X83666665Y-53093208D02*
X83809522Y-53093208D01*
X83809522Y-53093208D02*
X83904760Y-53140827D01*
X83904760Y-53140827D02*
X83952379Y-53188446D01*
X82999998Y-53712256D02*
X82999998Y-53759875D01*
X82999998Y-53759875D02*
X83047617Y-53855113D01*
X83047617Y-53855113D02*
X83095236Y-53902732D01*
X98976190Y-55084104D02*
X98500000Y-55084104D01*
X99071428Y-55369819D02*
X98738095Y-54369819D01*
X98738095Y-54369819D02*
X98404762Y-55369819D01*
X98071428Y-55369819D02*
X98071428Y-54369819D01*
X98071428Y-54750771D02*
X97976190Y-54703152D01*
X97976190Y-54703152D02*
X97785714Y-54703152D01*
X97785714Y-54703152D02*
X97690476Y-54750771D01*
X97690476Y-54750771D02*
X97642857Y-54798390D01*
X97642857Y-54798390D02*
X97595238Y-54893628D01*
X97595238Y-54893628D02*
X97595238Y-55179342D01*
X97595238Y-55179342D02*
X97642857Y-55274580D01*
X97642857Y-55274580D02*
X97690476Y-55322200D01*
X97690476Y-55322200D02*
X97785714Y-55369819D01*
X97785714Y-55369819D02*
X97976190Y-55369819D01*
X97976190Y-55369819D02*
X98071428Y-55322200D01*
X97166666Y-55369819D02*
X97166666Y-54369819D01*
X96738095Y-55369819D02*
X96738095Y-54846009D01*
X96738095Y-54846009D02*
X96785714Y-54750771D01*
X96785714Y-54750771D02*
X96880952Y-54703152D01*
X96880952Y-54703152D02*
X97023809Y-54703152D01*
X97023809Y-54703152D02*
X97119047Y-54750771D01*
X97119047Y-54750771D02*
X97166666Y-54798390D01*
X96261904Y-55369819D02*
X96261904Y-54703152D01*
X96261904Y-54369819D02*
X96309523Y-54417438D01*
X96309523Y-54417438D02*
X96261904Y-54465057D01*
X96261904Y-54465057D02*
X96214285Y-54417438D01*
X96214285Y-54417438D02*
X96261904Y-54369819D01*
X96261904Y-54369819D02*
X96261904Y-54465057D01*
X95785714Y-54703152D02*
X95785714Y-55369819D01*
X95785714Y-54798390D02*
X95738095Y-54750771D01*
X95738095Y-54750771D02*
X95642857Y-54703152D01*
X95642857Y-54703152D02*
X95500000Y-54703152D01*
X95500000Y-54703152D02*
X95404762Y-54750771D01*
X95404762Y-54750771D02*
X95357143Y-54846009D01*
X95357143Y-54846009D02*
X95357143Y-55369819D01*
X94452381Y-55369819D02*
X94452381Y-54846009D01*
X94452381Y-54846009D02*
X94500000Y-54750771D01*
X94500000Y-54750771D02*
X94595238Y-54703152D01*
X94595238Y-54703152D02*
X94785714Y-54703152D01*
X94785714Y-54703152D02*
X94880952Y-54750771D01*
X94452381Y-55322200D02*
X94547619Y-55369819D01*
X94547619Y-55369819D02*
X94785714Y-55369819D01*
X94785714Y-55369819D02*
X94880952Y-55322200D01*
X94880952Y-55322200D02*
X94928571Y-55226961D01*
X94928571Y-55226961D02*
X94928571Y-55131723D01*
X94928571Y-55131723D02*
X94880952Y-55036485D01*
X94880952Y-55036485D02*
X94785714Y-54988866D01*
X94785714Y-54988866D02*
X94547619Y-54988866D01*
X94547619Y-54988866D02*
X94452381Y-54941247D01*
X94071428Y-54703152D02*
X93833333Y-55369819D01*
X93833333Y-55369819D02*
X93595238Y-54703152D01*
X93166666Y-55322200D02*
X93166666Y-55369819D01*
X93166666Y-55369819D02*
X93214285Y-55465057D01*
X93214285Y-55465057D02*
X93261904Y-55512676D01*
X91690476Y-54369819D02*
X91690476Y-55084104D01*
X91690476Y-55084104D02*
X91738095Y-55226961D01*
X91738095Y-55226961D02*
X91833333Y-55322200D01*
X91833333Y-55322200D02*
X91976190Y-55369819D01*
X91976190Y-55369819D02*
X92071428Y-55369819D01*
X91071428Y-55369819D02*
X91166666Y-55322200D01*
X91166666Y-55322200D02*
X91214285Y-55274580D01*
X91214285Y-55274580D02*
X91261904Y-55179342D01*
X91261904Y-55179342D02*
X91261904Y-54893628D01*
X91261904Y-54893628D02*
X91214285Y-54798390D01*
X91214285Y-54798390D02*
X91166666Y-54750771D01*
X91166666Y-54750771D02*
X91071428Y-54703152D01*
X91071428Y-54703152D02*
X90928571Y-54703152D01*
X90928571Y-54703152D02*
X90833333Y-54750771D01*
X90833333Y-54750771D02*
X90785714Y-54798390D01*
X90785714Y-54798390D02*
X90738095Y-54893628D01*
X90738095Y-54893628D02*
X90738095Y-55179342D01*
X90738095Y-55179342D02*
X90785714Y-55274580D01*
X90785714Y-55274580D02*
X90833333Y-55322200D01*
X90833333Y-55322200D02*
X90928571Y-55369819D01*
X90928571Y-55369819D02*
X91071428Y-55369819D01*
X90357142Y-55322200D02*
X90261904Y-55369819D01*
X90261904Y-55369819D02*
X90071428Y-55369819D01*
X90071428Y-55369819D02*
X89976190Y-55322200D01*
X89976190Y-55322200D02*
X89928571Y-55226961D01*
X89928571Y-55226961D02*
X89928571Y-55179342D01*
X89928571Y-55179342D02*
X89976190Y-55084104D01*
X89976190Y-55084104D02*
X90071428Y-55036485D01*
X90071428Y-55036485D02*
X90214285Y-55036485D01*
X90214285Y-55036485D02*
X90309523Y-54988866D01*
X90309523Y-54988866D02*
X90357142Y-54893628D01*
X90357142Y-54893628D02*
X90357142Y-54846009D01*
X90357142Y-54846009D02*
X90309523Y-54750771D01*
X90309523Y-54750771D02*
X90214285Y-54703152D01*
X90214285Y-54703152D02*
X90071428Y-54703152D01*
X90071428Y-54703152D02*
X89976190Y-54750771D01*
X89499999Y-55369819D02*
X89499999Y-54369819D01*
X89071428Y-55369819D02*
X89071428Y-54846009D01*
X89071428Y-54846009D02*
X89119047Y-54750771D01*
X89119047Y-54750771D02*
X89214285Y-54703152D01*
X89214285Y-54703152D02*
X89357142Y-54703152D01*
X89357142Y-54703152D02*
X89452380Y-54750771D01*
X89452380Y-54750771D02*
X89499999Y-54798390D01*
X91004219Y-62531428D02*
X90956600Y-62579047D01*
X90956600Y-62579047D02*
X90908980Y-62721904D01*
X90908980Y-62721904D02*
X90908980Y-62817142D01*
X90908980Y-62817142D02*
X90956600Y-62959999D01*
X90956600Y-62959999D02*
X91051838Y-63055237D01*
X91051838Y-63055237D02*
X91147076Y-63102856D01*
X91147076Y-63102856D02*
X91337552Y-63150475D01*
X91337552Y-63150475D02*
X91480409Y-63150475D01*
X91480409Y-63150475D02*
X91670885Y-63102856D01*
X91670885Y-63102856D02*
X91766123Y-63055237D01*
X91766123Y-63055237D02*
X91861361Y-62959999D01*
X91861361Y-62959999D02*
X91908980Y-62817142D01*
X91908980Y-62817142D02*
X91908980Y-62721904D01*
X91908980Y-62721904D02*
X91861361Y-62579047D01*
X91861361Y-62579047D02*
X91813742Y-62531428D01*
X90908980Y-62102856D02*
X91575647Y-62102856D01*
X91908980Y-62102856D02*
X91861361Y-62150475D01*
X91861361Y-62150475D02*
X91813742Y-62102856D01*
X91813742Y-62102856D02*
X91861361Y-62055237D01*
X91861361Y-62055237D02*
X91908980Y-62102856D01*
X91908980Y-62102856D02*
X91813742Y-62102856D01*
X90908980Y-61483809D02*
X90956600Y-61579047D01*
X90956600Y-61579047D02*
X91051838Y-61626666D01*
X91051838Y-61626666D02*
X91908980Y-61626666D01*
X90908980Y-61102856D02*
X91575647Y-61102856D01*
X91908980Y-61102856D02*
X91861361Y-61150475D01*
X91861361Y-61150475D02*
X91813742Y-61102856D01*
X91813742Y-61102856D02*
X91861361Y-61055237D01*
X91861361Y-61055237D02*
X91908980Y-61102856D01*
X91908980Y-61102856D02*
X91813742Y-61102856D01*
X90908980Y-60626666D02*
X91575647Y-60626666D01*
X91480409Y-60626666D02*
X91528028Y-60579047D01*
X91528028Y-60579047D02*
X91575647Y-60483809D01*
X91575647Y-60483809D02*
X91575647Y-60340952D01*
X91575647Y-60340952D02*
X91528028Y-60245714D01*
X91528028Y-60245714D02*
X91432790Y-60198095D01*
X91432790Y-60198095D02*
X90908980Y-60198095D01*
X91432790Y-60198095D02*
X91528028Y-60150476D01*
X91528028Y-60150476D02*
X91575647Y-60055238D01*
X91575647Y-60055238D02*
X91575647Y-59912381D01*
X91575647Y-59912381D02*
X91528028Y-59817142D01*
X91528028Y-59817142D02*
X91432790Y-59769523D01*
X91432790Y-59769523D02*
X90908980Y-59769523D01*
X90908980Y-58769524D02*
X90908980Y-59340952D01*
X90908980Y-59055238D02*
X91908980Y-59055238D01*
X91908980Y-59055238D02*
X91766123Y-59150476D01*
X91766123Y-59150476D02*
X91670885Y-59245714D01*
X91670885Y-59245714D02*
X91623266Y-59340952D01*
X97907370Y-68069313D02*
X97859751Y-68116932D01*
X97859751Y-68116932D02*
X97812131Y-68259789D01*
X97812131Y-68259789D02*
X97812131Y-68355027D01*
X97812131Y-68355027D02*
X97859751Y-68497884D01*
X97859751Y-68497884D02*
X97954989Y-68593122D01*
X97954989Y-68593122D02*
X98050227Y-68640741D01*
X98050227Y-68640741D02*
X98240703Y-68688360D01*
X98240703Y-68688360D02*
X98383560Y-68688360D01*
X98383560Y-68688360D02*
X98574036Y-68640741D01*
X98574036Y-68640741D02*
X98669274Y-68593122D01*
X98669274Y-68593122D02*
X98764512Y-68497884D01*
X98764512Y-68497884D02*
X98812131Y-68355027D01*
X98812131Y-68355027D02*
X98812131Y-68259789D01*
X98812131Y-68259789D02*
X98764512Y-68116932D01*
X98764512Y-68116932D02*
X98716893Y-68069313D01*
X98478798Y-67735979D02*
X97812131Y-67497884D01*
X97812131Y-67497884D02*
X98478798Y-67259789D01*
X97859751Y-66450265D02*
X97812131Y-66545503D01*
X97812131Y-66545503D02*
X97812131Y-66735979D01*
X97812131Y-66735979D02*
X97859751Y-66831217D01*
X97859751Y-66831217D02*
X97907370Y-66878836D01*
X97907370Y-66878836D02*
X98002608Y-66926455D01*
X98002608Y-66926455D02*
X98288322Y-66926455D01*
X98288322Y-66926455D02*
X98383560Y-66878836D01*
X98383560Y-66878836D02*
X98431179Y-66831217D01*
X98431179Y-66831217D02*
X98478798Y-66735979D01*
X98478798Y-66735979D02*
X98478798Y-66545503D01*
X98478798Y-66545503D02*
X98431179Y-66450265D01*
X97859751Y-65593122D02*
X97812131Y-65688360D01*
X97812131Y-65688360D02*
X97812131Y-65878836D01*
X97812131Y-65878836D02*
X97859751Y-65974074D01*
X97859751Y-65974074D02*
X97907370Y-66021693D01*
X97907370Y-66021693D02*
X98002608Y-66069312D01*
X98002608Y-66069312D02*
X98288322Y-66069312D01*
X98288322Y-66069312D02*
X98383560Y-66021693D01*
X98383560Y-66021693D02*
X98431179Y-65974074D01*
X98431179Y-65974074D02*
X98478798Y-65878836D01*
X98478798Y-65878836D02*
X98478798Y-65688360D01*
X98478798Y-65688360D02*
X98431179Y-65593122D01*
X97812131Y-64640741D02*
X97812131Y-65212169D01*
X97812131Y-64926455D02*
X98812131Y-64926455D01*
X98812131Y-64926455D02*
X98669274Y-65021693D01*
X98669274Y-65021693D02*
X98574036Y-65116931D01*
X98574036Y-65116931D02*
X98526417Y-65212169D01*
X92443846Y-76371331D02*
X92491465Y-76418951D01*
X92491465Y-76418951D02*
X92634322Y-76466570D01*
X92634322Y-76466570D02*
X92729560Y-76466570D01*
X92729560Y-76466570D02*
X92872417Y-76418951D01*
X92872417Y-76418951D02*
X92967655Y-76323712D01*
X92967655Y-76323712D02*
X93015274Y-76228474D01*
X93015274Y-76228474D02*
X93062893Y-76037998D01*
X93062893Y-76037998D02*
X93062893Y-75895141D01*
X93062893Y-75895141D02*
X93015274Y-75704665D01*
X93015274Y-75704665D02*
X92967655Y-75609427D01*
X92967655Y-75609427D02*
X92872417Y-75514189D01*
X92872417Y-75514189D02*
X92729560Y-75466570D01*
X92729560Y-75466570D02*
X92634322Y-75466570D01*
X92634322Y-75466570D02*
X92491465Y-75514189D01*
X92491465Y-75514189D02*
X92443846Y-75561808D01*
X92110512Y-75799903D02*
X91872417Y-76466570D01*
X91872417Y-76466570D02*
X91634322Y-75799903D01*
X91253369Y-76466570D02*
X91253369Y-75799903D01*
X91253369Y-75466570D02*
X91300988Y-75514189D01*
X91300988Y-75514189D02*
X91253369Y-75561808D01*
X91253369Y-75561808D02*
X91205750Y-75514189D01*
X91205750Y-75514189D02*
X91253369Y-75466570D01*
X91253369Y-75466570D02*
X91253369Y-75561808D01*
X90777179Y-75799903D02*
X90777179Y-76466570D01*
X90777179Y-75895141D02*
X90729560Y-75847522D01*
X90729560Y-75847522D02*
X90634322Y-75799903D01*
X90634322Y-75799903D02*
X90491465Y-75799903D01*
X90491465Y-75799903D02*
X90396227Y-75847522D01*
X90396227Y-75847522D02*
X90348608Y-75942760D01*
X90348608Y-75942760D02*
X90348608Y-76466570D01*
X89348608Y-76466570D02*
X89920036Y-76466570D01*
X89634322Y-76466570D02*
X89634322Y-75466570D01*
X89634322Y-75466570D02*
X89729560Y-75609427D01*
X89729560Y-75609427D02*
X89824798Y-75704665D01*
X89824798Y-75704665D02*
X89920036Y-75752284D01*
X86661531Y-66954894D02*
X87137722Y-67288227D01*
X86661531Y-67526322D02*
X87661531Y-67526322D01*
X87661531Y-67526322D02*
X87661531Y-67145370D01*
X87661531Y-67145370D02*
X87613912Y-67050132D01*
X87613912Y-67050132D02*
X87566293Y-67002513D01*
X87566293Y-67002513D02*
X87471055Y-66954894D01*
X87471055Y-66954894D02*
X87328198Y-66954894D01*
X87328198Y-66954894D02*
X87232960Y-67002513D01*
X87232960Y-67002513D02*
X87185341Y-67050132D01*
X87185341Y-67050132D02*
X87137722Y-67145370D01*
X87137722Y-67145370D02*
X87137722Y-67526322D01*
X87328198Y-66669179D02*
X87328198Y-66288227D01*
X86661531Y-66526322D02*
X87518674Y-66526322D01*
X87518674Y-66526322D02*
X87613912Y-66478703D01*
X87613912Y-66478703D02*
X87661531Y-66383465D01*
X87661531Y-66383465D02*
X87661531Y-66288227D01*
X86661531Y-65954893D02*
X87661531Y-65954893D01*
X87280579Y-65954893D02*
X87328198Y-65859655D01*
X87328198Y-65859655D02*
X87328198Y-65669179D01*
X87328198Y-65669179D02*
X87280579Y-65573941D01*
X87280579Y-65573941D02*
X87232960Y-65526322D01*
X87232960Y-65526322D02*
X87137722Y-65478703D01*
X87137722Y-65478703D02*
X86852008Y-65478703D01*
X86852008Y-65478703D02*
X86756770Y-65526322D01*
X86756770Y-65526322D02*
X86709151Y-65573941D01*
X86709151Y-65573941D02*
X86661531Y-65669179D01*
X86661531Y-65669179D02*
X86661531Y-65859655D01*
X86661531Y-65859655D02*
X86709151Y-65954893D01*
X86661531Y-65050131D02*
X87661531Y-65050131D01*
X87280579Y-65050131D02*
X87328198Y-64954893D01*
X87328198Y-64954893D02*
X87328198Y-64764417D01*
X87328198Y-64764417D02*
X87280579Y-64669179D01*
X87280579Y-64669179D02*
X87232960Y-64621560D01*
X87232960Y-64621560D02*
X87137722Y-64573941D01*
X87137722Y-64573941D02*
X86852008Y-64573941D01*
X86852008Y-64573941D02*
X86756770Y-64621560D01*
X86756770Y-64621560D02*
X86709151Y-64669179D01*
X86709151Y-64669179D02*
X86661531Y-64764417D01*
X86661531Y-64764417D02*
X86661531Y-64954893D01*
X86661531Y-64954893D02*
X86709151Y-65050131D01*
X86661531Y-63621560D02*
X86661531Y-64192988D01*
X86661531Y-63907274D02*
X87661531Y-63907274D01*
X87661531Y-63907274D02*
X87518674Y-64002512D01*
X87518674Y-64002512D02*
X87423436Y-64097750D01*
X87423436Y-64097750D02*
X87375817Y-64192988D01*
X83046616Y-70206332D02*
X83094235Y-70253952D01*
X83094235Y-70253952D02*
X83237092Y-70301571D01*
X83237092Y-70301571D02*
X83332330Y-70301571D01*
X83332330Y-70301571D02*
X83475187Y-70253952D01*
X83475187Y-70253952D02*
X83570425Y-70158713D01*
X83570425Y-70158713D02*
X83618044Y-70063475D01*
X83618044Y-70063475D02*
X83665663Y-69872999D01*
X83665663Y-69872999D02*
X83665663Y-69730142D01*
X83665663Y-69730142D02*
X83618044Y-69539666D01*
X83618044Y-69539666D02*
X83570425Y-69444428D01*
X83570425Y-69444428D02*
X83475187Y-69349190D01*
X83475187Y-69349190D02*
X83332330Y-69301571D01*
X83332330Y-69301571D02*
X83237092Y-69301571D01*
X83237092Y-69301571D02*
X83094235Y-69349190D01*
X83094235Y-69349190D02*
X83046616Y-69396809D01*
X82189473Y-70253952D02*
X82284711Y-70301571D01*
X82284711Y-70301571D02*
X82475187Y-70301571D01*
X82475187Y-70301571D02*
X82570425Y-70253952D01*
X82570425Y-70253952D02*
X82618044Y-70206332D01*
X82618044Y-70206332D02*
X82665663Y-70111094D01*
X82665663Y-70111094D02*
X82665663Y-69825380D01*
X82665663Y-69825380D02*
X82618044Y-69730142D01*
X82618044Y-69730142D02*
X82570425Y-69682523D01*
X82570425Y-69682523D02*
X82475187Y-69634904D01*
X82475187Y-69634904D02*
X82284711Y-69634904D01*
X82284711Y-69634904D02*
X82189473Y-69682523D01*
X81618044Y-70301571D02*
X81713282Y-70253952D01*
X81713282Y-70253952D02*
X81760901Y-70206332D01*
X81760901Y-70206332D02*
X81808520Y-70111094D01*
X81808520Y-70111094D02*
X81808520Y-69825380D01*
X81808520Y-69825380D02*
X81760901Y-69730142D01*
X81760901Y-69730142D02*
X81713282Y-69682523D01*
X81713282Y-69682523D02*
X81618044Y-69634904D01*
X81618044Y-69634904D02*
X81475187Y-69634904D01*
X81475187Y-69634904D02*
X81379949Y-69682523D01*
X81379949Y-69682523D02*
X81332330Y-69730142D01*
X81332330Y-69730142D02*
X81284711Y-69825380D01*
X81284711Y-69825380D02*
X81284711Y-70111094D01*
X81284711Y-70111094D02*
X81332330Y-70206332D01*
X81332330Y-70206332D02*
X81379949Y-70253952D01*
X81379949Y-70253952D02*
X81475187Y-70301571D01*
X81475187Y-70301571D02*
X81618044Y-70301571D01*
X80856139Y-70301571D02*
X80856139Y-69634904D01*
X80856139Y-69730142D02*
X80808520Y-69682523D01*
X80808520Y-69682523D02*
X80713282Y-69634904D01*
X80713282Y-69634904D02*
X80570425Y-69634904D01*
X80570425Y-69634904D02*
X80475187Y-69682523D01*
X80475187Y-69682523D02*
X80427568Y-69777761D01*
X80427568Y-69777761D02*
X80427568Y-70301571D01*
X80427568Y-69777761D02*
X80379949Y-69682523D01*
X80379949Y-69682523D02*
X80284711Y-69634904D01*
X80284711Y-69634904D02*
X80141854Y-69634904D01*
X80141854Y-69634904D02*
X80046615Y-69682523D01*
X80046615Y-69682523D02*
X79998996Y-69777761D01*
X79998996Y-69777761D02*
X79998996Y-70301571D01*
X79522806Y-69634904D02*
X79522806Y-70634904D01*
X79522806Y-69682523D02*
X79427568Y-69634904D01*
X79427568Y-69634904D02*
X79237092Y-69634904D01*
X79237092Y-69634904D02*
X79141854Y-69682523D01*
X79141854Y-69682523D02*
X79094235Y-69730142D01*
X79094235Y-69730142D02*
X79046616Y-69825380D01*
X79046616Y-69825380D02*
X79046616Y-70111094D01*
X79046616Y-70111094D02*
X79094235Y-70206332D01*
X79094235Y-70206332D02*
X79141854Y-70253952D01*
X79141854Y-70253952D02*
X79237092Y-70301571D01*
X79237092Y-70301571D02*
X79427568Y-70301571D01*
X79427568Y-70301571D02*
X79522806Y-70253952D01*
X78665663Y-69396809D02*
X78618044Y-69349190D01*
X78618044Y-69349190D02*
X78522806Y-69301571D01*
X78522806Y-69301571D02*
X78284711Y-69301571D01*
X78284711Y-69301571D02*
X78189473Y-69349190D01*
X78189473Y-69349190D02*
X78141854Y-69396809D01*
X78141854Y-69396809D02*
X78094235Y-69492047D01*
X78094235Y-69492047D02*
X78094235Y-69587285D01*
X78094235Y-69587285D02*
X78141854Y-69730142D01*
X78141854Y-69730142D02*
X78713282Y-70301571D01*
X78713282Y-70301571D02*
X78094235Y-70301571D01*
X80787770Y-68577217D02*
X80740151Y-68624836D01*
X80740151Y-68624836D02*
X80692531Y-68767693D01*
X80692531Y-68767693D02*
X80692531Y-68862931D01*
X80692531Y-68862931D02*
X80740151Y-69005788D01*
X80740151Y-69005788D02*
X80835389Y-69101026D01*
X80835389Y-69101026D02*
X80930627Y-69148645D01*
X80930627Y-69148645D02*
X81121103Y-69196264D01*
X81121103Y-69196264D02*
X81263960Y-69196264D01*
X81263960Y-69196264D02*
X81454436Y-69148645D01*
X81454436Y-69148645D02*
X81549674Y-69101026D01*
X81549674Y-69101026D02*
X81644912Y-69005788D01*
X81644912Y-69005788D02*
X81692531Y-68862931D01*
X81692531Y-68862931D02*
X81692531Y-68767693D01*
X81692531Y-68767693D02*
X81644912Y-68624836D01*
X81644912Y-68624836D02*
X81597293Y-68577217D01*
X80740151Y-67720074D02*
X80692531Y-67815312D01*
X80692531Y-67815312D02*
X80692531Y-68005788D01*
X80692531Y-68005788D02*
X80740151Y-68101026D01*
X80740151Y-68101026D02*
X80787770Y-68148645D01*
X80787770Y-68148645D02*
X80883008Y-68196264D01*
X80883008Y-68196264D02*
X81168722Y-68196264D01*
X81168722Y-68196264D02*
X81263960Y-68148645D01*
X81263960Y-68148645D02*
X81311579Y-68101026D01*
X81311579Y-68101026D02*
X81359198Y-68005788D01*
X81359198Y-68005788D02*
X81359198Y-67815312D01*
X81359198Y-67815312D02*
X81311579Y-67720074D01*
X80692531Y-67148645D02*
X80740151Y-67243883D01*
X80740151Y-67243883D02*
X80787770Y-67291502D01*
X80787770Y-67291502D02*
X80883008Y-67339121D01*
X80883008Y-67339121D02*
X81168722Y-67339121D01*
X81168722Y-67339121D02*
X81263960Y-67291502D01*
X81263960Y-67291502D02*
X81311579Y-67243883D01*
X81311579Y-67243883D02*
X81359198Y-67148645D01*
X81359198Y-67148645D02*
X81359198Y-67005788D01*
X81359198Y-67005788D02*
X81311579Y-66910550D01*
X81311579Y-66910550D02*
X81263960Y-66862931D01*
X81263960Y-66862931D02*
X81168722Y-66815312D01*
X81168722Y-66815312D02*
X80883008Y-66815312D01*
X80883008Y-66815312D02*
X80787770Y-66862931D01*
X80787770Y-66862931D02*
X80740151Y-66910550D01*
X80740151Y-66910550D02*
X80692531Y-67005788D01*
X80692531Y-67005788D02*
X80692531Y-67148645D01*
X80692531Y-66386740D02*
X81359198Y-66386740D01*
X81263960Y-66386740D02*
X81311579Y-66339121D01*
X81311579Y-66339121D02*
X81359198Y-66243883D01*
X81359198Y-66243883D02*
X81359198Y-66101026D01*
X81359198Y-66101026D02*
X81311579Y-66005788D01*
X81311579Y-66005788D02*
X81216341Y-65958169D01*
X81216341Y-65958169D02*
X80692531Y-65958169D01*
X81216341Y-65958169D02*
X81311579Y-65910550D01*
X81311579Y-65910550D02*
X81359198Y-65815312D01*
X81359198Y-65815312D02*
X81359198Y-65672455D01*
X81359198Y-65672455D02*
X81311579Y-65577216D01*
X81311579Y-65577216D02*
X81216341Y-65529597D01*
X81216341Y-65529597D02*
X80692531Y-65529597D01*
X81359198Y-65053407D02*
X80359198Y-65053407D01*
X81311579Y-65053407D02*
X81359198Y-64958169D01*
X81359198Y-64958169D02*
X81359198Y-64767693D01*
X81359198Y-64767693D02*
X81311579Y-64672455D01*
X81311579Y-64672455D02*
X81263960Y-64624836D01*
X81263960Y-64624836D02*
X81168722Y-64577217D01*
X81168722Y-64577217D02*
X80883008Y-64577217D01*
X80883008Y-64577217D02*
X80787770Y-64624836D01*
X80787770Y-64624836D02*
X80740151Y-64672455D01*
X80740151Y-64672455D02*
X80692531Y-64767693D01*
X80692531Y-64767693D02*
X80692531Y-64958169D01*
X80692531Y-64958169D02*
X80740151Y-65053407D01*
X81692531Y-64243883D02*
X81692531Y-63624836D01*
X81692531Y-63624836D02*
X81311579Y-63958169D01*
X81311579Y-63958169D02*
X81311579Y-63815312D01*
X81311579Y-63815312D02*
X81263960Y-63720074D01*
X81263960Y-63720074D02*
X81216341Y-63672455D01*
X81216341Y-63672455D02*
X81121103Y-63624836D01*
X81121103Y-63624836D02*
X80883008Y-63624836D01*
X80883008Y-63624836D02*
X80787770Y-63672455D01*
X80787770Y-63672455D02*
X80740151Y-63720074D01*
X80740151Y-63720074D02*
X80692531Y-63815312D01*
X80692531Y-63815312D02*
X80692531Y-64101026D01*
X80692531Y-64101026D02*
X80740151Y-64196264D01*
X80740151Y-64196264D02*
X80787770Y-64243883D01*
X95406151Y-78142970D02*
X95739484Y-77666779D01*
X95977579Y-78142970D02*
X95977579Y-77142970D01*
X95977579Y-77142970D02*
X95596627Y-77142970D01*
X95596627Y-77142970D02*
X95501389Y-77190589D01*
X95501389Y-77190589D02*
X95453770Y-77238208D01*
X95453770Y-77238208D02*
X95406151Y-77333446D01*
X95406151Y-77333446D02*
X95406151Y-77476303D01*
X95406151Y-77476303D02*
X95453770Y-77571541D01*
X95453770Y-77571541D02*
X95501389Y-77619160D01*
X95501389Y-77619160D02*
X95596627Y-77666779D01*
X95596627Y-77666779D02*
X95977579Y-77666779D01*
X94549008Y-77476303D02*
X94549008Y-78142970D01*
X94977579Y-77476303D02*
X94977579Y-78000112D01*
X94977579Y-78000112D02*
X94929960Y-78095351D01*
X94929960Y-78095351D02*
X94834722Y-78142970D01*
X94834722Y-78142970D02*
X94691865Y-78142970D01*
X94691865Y-78142970D02*
X94596627Y-78095351D01*
X94596627Y-78095351D02*
X94549008Y-78047731D01*
X94168055Y-77476303D02*
X93929960Y-78142970D01*
X93929960Y-78142970D02*
X93691865Y-77476303D01*
X92787103Y-78142970D02*
X93358531Y-78142970D01*
X93072817Y-78142970D02*
X93072817Y-77142970D01*
X93072817Y-77142970D02*
X93168055Y-77285827D01*
X93168055Y-77285827D02*
X93263293Y-77381065D01*
X93263293Y-77381065D02*
X93358531Y-77428684D01*
X87949732Y-73367770D02*
X88283065Y-72891579D01*
X88521160Y-73367770D02*
X88521160Y-72367770D01*
X88521160Y-72367770D02*
X88140208Y-72367770D01*
X88140208Y-72367770D02*
X88044970Y-72415389D01*
X88044970Y-72415389D02*
X87997351Y-72463008D01*
X87997351Y-72463008D02*
X87949732Y-72558246D01*
X87949732Y-72558246D02*
X87949732Y-72701103D01*
X87949732Y-72701103D02*
X87997351Y-72796341D01*
X87997351Y-72796341D02*
X88044970Y-72843960D01*
X88044970Y-72843960D02*
X88140208Y-72891579D01*
X88140208Y-72891579D02*
X88521160Y-72891579D01*
X87664017Y-72701103D02*
X87283065Y-72701103D01*
X87521160Y-72367770D02*
X87521160Y-73224912D01*
X87521160Y-73224912D02*
X87473541Y-73320151D01*
X87473541Y-73320151D02*
X87378303Y-73367770D01*
X87378303Y-73367770D02*
X87283065Y-73367770D01*
X86425922Y-73367770D02*
X86997350Y-73367770D01*
X86711636Y-73367770D02*
X86711636Y-72367770D01*
X86711636Y-72367770D02*
X86806874Y-72510627D01*
X86806874Y-72510627D02*
X86902112Y-72605865D01*
X86902112Y-72605865D02*
X86997350Y-72653484D01*
X88388731Y-65772179D02*
X88864922Y-66105512D01*
X88388731Y-66343607D02*
X89388731Y-66343607D01*
X89388731Y-66343607D02*
X89388731Y-65962655D01*
X89388731Y-65962655D02*
X89341112Y-65867417D01*
X89341112Y-65867417D02*
X89293493Y-65819798D01*
X89293493Y-65819798D02*
X89198255Y-65772179D01*
X89198255Y-65772179D02*
X89055398Y-65772179D01*
X89055398Y-65772179D02*
X88960160Y-65819798D01*
X88960160Y-65819798D02*
X88912541Y-65867417D01*
X88912541Y-65867417D02*
X88864922Y-65962655D01*
X88864922Y-65962655D02*
X88864922Y-66343607D01*
X88388731Y-65343607D02*
X89055398Y-65343607D01*
X89388731Y-65343607D02*
X89341112Y-65391226D01*
X89341112Y-65391226D02*
X89293493Y-65343607D01*
X89293493Y-65343607D02*
X89341112Y-65295988D01*
X89341112Y-65295988D02*
X89388731Y-65343607D01*
X89388731Y-65343607D02*
X89293493Y-65343607D01*
X88388731Y-64724560D02*
X88436351Y-64819798D01*
X88436351Y-64819798D02*
X88531589Y-64867417D01*
X88531589Y-64867417D02*
X89388731Y-64867417D01*
X88388731Y-64343607D02*
X89055398Y-64343607D01*
X89388731Y-64343607D02*
X89341112Y-64391226D01*
X89341112Y-64391226D02*
X89293493Y-64343607D01*
X89293493Y-64343607D02*
X89341112Y-64295988D01*
X89341112Y-64295988D02*
X89388731Y-64343607D01*
X89388731Y-64343607D02*
X89293493Y-64343607D01*
X88388731Y-63867417D02*
X89055398Y-63867417D01*
X88960160Y-63867417D02*
X89007779Y-63819798D01*
X89007779Y-63819798D02*
X89055398Y-63724560D01*
X89055398Y-63724560D02*
X89055398Y-63581703D01*
X89055398Y-63581703D02*
X89007779Y-63486465D01*
X89007779Y-63486465D02*
X88912541Y-63438846D01*
X88912541Y-63438846D02*
X88388731Y-63438846D01*
X88912541Y-63438846D02*
X89007779Y-63391227D01*
X89007779Y-63391227D02*
X89055398Y-63295989D01*
X89055398Y-63295989D02*
X89055398Y-63153132D01*
X89055398Y-63153132D02*
X89007779Y-63057893D01*
X89007779Y-63057893D02*
X88912541Y-63010274D01*
X88912541Y-63010274D02*
X88388731Y-63010274D01*
X88388731Y-62010275D02*
X88388731Y-62581703D01*
X88388731Y-62295989D02*
X89388731Y-62295989D01*
X89388731Y-62295989D02*
X89245874Y-62391227D01*
X89245874Y-62391227D02*
X89150636Y-62486465D01*
X89150636Y-62486465D02*
X89103017Y-62581703D01*
X83251779Y-73811934D02*
X83299399Y-73764315D01*
X83299399Y-73764315D02*
X83347018Y-73621458D01*
X83347018Y-73621458D02*
X83347018Y-73526220D01*
X83347018Y-73526220D02*
X83299399Y-73383363D01*
X83299399Y-73383363D02*
X83204160Y-73288125D01*
X83204160Y-73288125D02*
X83108922Y-73240506D01*
X83108922Y-73240506D02*
X82918446Y-73192887D01*
X82918446Y-73192887D02*
X82775589Y-73192887D01*
X82775589Y-73192887D02*
X82585113Y-73240506D01*
X82585113Y-73240506D02*
X82489875Y-73288125D01*
X82489875Y-73288125D02*
X82394637Y-73383363D01*
X82394637Y-73383363D02*
X82347018Y-73526220D01*
X82347018Y-73526220D02*
X82347018Y-73621458D01*
X82347018Y-73621458D02*
X82394637Y-73764315D01*
X82394637Y-73764315D02*
X82442256Y-73811934D01*
X83299399Y-74669077D02*
X83347018Y-74573839D01*
X83347018Y-74573839D02*
X83347018Y-74383363D01*
X83347018Y-74383363D02*
X83299399Y-74288125D01*
X83299399Y-74288125D02*
X83251779Y-74240506D01*
X83251779Y-74240506D02*
X83156541Y-74192887D01*
X83156541Y-74192887D02*
X82870827Y-74192887D01*
X82870827Y-74192887D02*
X82775589Y-74240506D01*
X82775589Y-74240506D02*
X82727970Y-74288125D01*
X82727970Y-74288125D02*
X82680351Y-74383363D01*
X82680351Y-74383363D02*
X82680351Y-74573839D01*
X82680351Y-74573839D02*
X82727970Y-74669077D01*
X83347018Y-75240506D02*
X83299399Y-75145268D01*
X83299399Y-75145268D02*
X83251779Y-75097649D01*
X83251779Y-75097649D02*
X83156541Y-75050030D01*
X83156541Y-75050030D02*
X82870827Y-75050030D01*
X82870827Y-75050030D02*
X82775589Y-75097649D01*
X82775589Y-75097649D02*
X82727970Y-75145268D01*
X82727970Y-75145268D02*
X82680351Y-75240506D01*
X82680351Y-75240506D02*
X82680351Y-75383363D01*
X82680351Y-75383363D02*
X82727970Y-75478601D01*
X82727970Y-75478601D02*
X82775589Y-75526220D01*
X82775589Y-75526220D02*
X82870827Y-75573839D01*
X82870827Y-75573839D02*
X83156541Y-75573839D01*
X83156541Y-75573839D02*
X83251779Y-75526220D01*
X83251779Y-75526220D02*
X83299399Y-75478601D01*
X83299399Y-75478601D02*
X83347018Y-75383363D01*
X83347018Y-75383363D02*
X83347018Y-75240506D01*
X83347018Y-76002411D02*
X82680351Y-76002411D01*
X82775589Y-76002411D02*
X82727970Y-76050030D01*
X82727970Y-76050030D02*
X82680351Y-76145268D01*
X82680351Y-76145268D02*
X82680351Y-76288125D01*
X82680351Y-76288125D02*
X82727970Y-76383363D01*
X82727970Y-76383363D02*
X82823208Y-76430982D01*
X82823208Y-76430982D02*
X83347018Y-76430982D01*
X82823208Y-76430982D02*
X82727970Y-76478601D01*
X82727970Y-76478601D02*
X82680351Y-76573839D01*
X82680351Y-76573839D02*
X82680351Y-76716696D01*
X82680351Y-76716696D02*
X82727970Y-76811935D01*
X82727970Y-76811935D02*
X82823208Y-76859554D01*
X82823208Y-76859554D02*
X83347018Y-76859554D01*
X82680351Y-77335744D02*
X83680351Y-77335744D01*
X82727970Y-77335744D02*
X82680351Y-77430982D01*
X82680351Y-77430982D02*
X82680351Y-77621458D01*
X82680351Y-77621458D02*
X82727970Y-77716696D01*
X82727970Y-77716696D02*
X82775589Y-77764315D01*
X82775589Y-77764315D02*
X82870827Y-77811934D01*
X82870827Y-77811934D02*
X83156541Y-77811934D01*
X83156541Y-77811934D02*
X83251779Y-77764315D01*
X83251779Y-77764315D02*
X83299399Y-77716696D01*
X83299399Y-77716696D02*
X83347018Y-77621458D01*
X83347018Y-77621458D02*
X83347018Y-77430982D01*
X83347018Y-77430982D02*
X83299399Y-77335744D01*
X83347018Y-78764315D02*
X83347018Y-78192887D01*
X83347018Y-78478601D02*
X82347018Y-78478601D01*
X82347018Y-78478601D02*
X82489875Y-78383363D01*
X82489875Y-78383363D02*
X82585113Y-78288125D01*
X82585113Y-78288125D02*
X82632732Y-78192887D01*
X99047846Y-75755370D02*
X99381179Y-75279179D01*
X99619274Y-75755370D02*
X99619274Y-74755370D01*
X99619274Y-74755370D02*
X99238322Y-74755370D01*
X99238322Y-74755370D02*
X99143084Y-74802989D01*
X99143084Y-74802989D02*
X99095465Y-74850608D01*
X99095465Y-74850608D02*
X99047846Y-74945846D01*
X99047846Y-74945846D02*
X99047846Y-75088703D01*
X99047846Y-75088703D02*
X99095465Y-75183941D01*
X99095465Y-75183941D02*
X99143084Y-75231560D01*
X99143084Y-75231560D02*
X99238322Y-75279179D01*
X99238322Y-75279179D02*
X99619274Y-75279179D01*
X98714512Y-75088703D02*
X98476417Y-75755370D01*
X98476417Y-75755370D02*
X98238322Y-75088703D01*
X97857369Y-75755370D02*
X97857369Y-75088703D01*
X97857369Y-74755370D02*
X97904988Y-74802989D01*
X97904988Y-74802989D02*
X97857369Y-74850608D01*
X97857369Y-74850608D02*
X97809750Y-74802989D01*
X97809750Y-74802989D02*
X97857369Y-74755370D01*
X97857369Y-74755370D02*
X97857369Y-74850608D01*
X97381179Y-75088703D02*
X97381179Y-75755370D01*
X97381179Y-75183941D02*
X97333560Y-75136322D01*
X97333560Y-75136322D02*
X97238322Y-75088703D01*
X97238322Y-75088703D02*
X97095465Y-75088703D01*
X97095465Y-75088703D02*
X97000227Y-75136322D01*
X97000227Y-75136322D02*
X96952608Y-75231560D01*
X96952608Y-75231560D02*
X96952608Y-75755370D01*
X95952608Y-75755370D02*
X96524036Y-75755370D01*
X96238322Y-75755370D02*
X96238322Y-74755370D01*
X96238322Y-74755370D02*
X96333560Y-74898227D01*
X96333560Y-74898227D02*
X96428798Y-74993465D01*
X96428798Y-74993465D02*
X96524036Y-75041084D01*
X81268616Y-72282771D02*
X81601949Y-71806580D01*
X81840044Y-72282771D02*
X81840044Y-71282771D01*
X81840044Y-71282771D02*
X81459092Y-71282771D01*
X81459092Y-71282771D02*
X81363854Y-71330390D01*
X81363854Y-71330390D02*
X81316235Y-71378009D01*
X81316235Y-71378009D02*
X81268616Y-71473247D01*
X81268616Y-71473247D02*
X81268616Y-71616104D01*
X81268616Y-71616104D02*
X81316235Y-71711342D01*
X81316235Y-71711342D02*
X81363854Y-71758961D01*
X81363854Y-71758961D02*
X81459092Y-71806580D01*
X81459092Y-71806580D02*
X81840044Y-71806580D01*
X80411473Y-72235152D02*
X80506711Y-72282771D01*
X80506711Y-72282771D02*
X80697187Y-72282771D01*
X80697187Y-72282771D02*
X80792425Y-72235152D01*
X80792425Y-72235152D02*
X80840044Y-72187532D01*
X80840044Y-72187532D02*
X80887663Y-72092294D01*
X80887663Y-72092294D02*
X80887663Y-71806580D01*
X80887663Y-71806580D02*
X80840044Y-71711342D01*
X80840044Y-71711342D02*
X80792425Y-71663723D01*
X80792425Y-71663723D02*
X80697187Y-71616104D01*
X80697187Y-71616104D02*
X80506711Y-71616104D01*
X80506711Y-71616104D02*
X80411473Y-71663723D01*
X79840044Y-72282771D02*
X79935282Y-72235152D01*
X79935282Y-72235152D02*
X79982901Y-72187532D01*
X79982901Y-72187532D02*
X80030520Y-72092294D01*
X80030520Y-72092294D02*
X80030520Y-71806580D01*
X80030520Y-71806580D02*
X79982901Y-71711342D01*
X79982901Y-71711342D02*
X79935282Y-71663723D01*
X79935282Y-71663723D02*
X79840044Y-71616104D01*
X79840044Y-71616104D02*
X79697187Y-71616104D01*
X79697187Y-71616104D02*
X79601949Y-71663723D01*
X79601949Y-71663723D02*
X79554330Y-71711342D01*
X79554330Y-71711342D02*
X79506711Y-71806580D01*
X79506711Y-71806580D02*
X79506711Y-72092294D01*
X79506711Y-72092294D02*
X79554330Y-72187532D01*
X79554330Y-72187532D02*
X79601949Y-72235152D01*
X79601949Y-72235152D02*
X79697187Y-72282771D01*
X79697187Y-72282771D02*
X79840044Y-72282771D01*
X79078139Y-72282771D02*
X79078139Y-71616104D01*
X79078139Y-71711342D02*
X79030520Y-71663723D01*
X79030520Y-71663723D02*
X78935282Y-71616104D01*
X78935282Y-71616104D02*
X78792425Y-71616104D01*
X78792425Y-71616104D02*
X78697187Y-71663723D01*
X78697187Y-71663723D02*
X78649568Y-71758961D01*
X78649568Y-71758961D02*
X78649568Y-72282771D01*
X78649568Y-71758961D02*
X78601949Y-71663723D01*
X78601949Y-71663723D02*
X78506711Y-71616104D01*
X78506711Y-71616104D02*
X78363854Y-71616104D01*
X78363854Y-71616104D02*
X78268615Y-71663723D01*
X78268615Y-71663723D02*
X78220996Y-71758961D01*
X78220996Y-71758961D02*
X78220996Y-72282771D01*
X77744806Y-71616104D02*
X77744806Y-72616104D01*
X77744806Y-71663723D02*
X77649568Y-71616104D01*
X77649568Y-71616104D02*
X77459092Y-71616104D01*
X77459092Y-71616104D02*
X77363854Y-71663723D01*
X77363854Y-71663723D02*
X77316235Y-71711342D01*
X77316235Y-71711342D02*
X77268616Y-71806580D01*
X77268616Y-71806580D02*
X77268616Y-72092294D01*
X77268616Y-72092294D02*
X77316235Y-72187532D01*
X77316235Y-72187532D02*
X77363854Y-72235152D01*
X77363854Y-72235152D02*
X77459092Y-72282771D01*
X77459092Y-72282771D02*
X77649568Y-72282771D01*
X77649568Y-72282771D02*
X77744806Y-72235152D01*
X76316235Y-72282771D02*
X76887663Y-72282771D01*
X76601949Y-72282771D02*
X76601949Y-71282771D01*
X76601949Y-71282771D02*
X76697187Y-71425628D01*
X76697187Y-71425628D02*
X76792425Y-71520866D01*
X76792425Y-71520866D02*
X76887663Y-71568485D01*
X97468275Y-72231131D02*
X97515894Y-72278751D01*
X97515894Y-72278751D02*
X97658751Y-72326370D01*
X97658751Y-72326370D02*
X97753989Y-72326370D01*
X97753989Y-72326370D02*
X97896846Y-72278751D01*
X97896846Y-72278751D02*
X97992084Y-72183512D01*
X97992084Y-72183512D02*
X98039703Y-72088274D01*
X98039703Y-72088274D02*
X98087322Y-71897798D01*
X98087322Y-71897798D02*
X98087322Y-71754941D01*
X98087322Y-71754941D02*
X98039703Y-71564465D01*
X98039703Y-71564465D02*
X97992084Y-71469227D01*
X97992084Y-71469227D02*
X97896846Y-71373989D01*
X97896846Y-71373989D02*
X97753989Y-71326370D01*
X97753989Y-71326370D02*
X97658751Y-71326370D01*
X97658751Y-71326370D02*
X97515894Y-71373989D01*
X97515894Y-71373989D02*
X97468275Y-71421608D01*
X97039703Y-72326370D02*
X97039703Y-71326370D01*
X97039703Y-71707322D02*
X96944465Y-71659703D01*
X96944465Y-71659703D02*
X96753989Y-71659703D01*
X96753989Y-71659703D02*
X96658751Y-71707322D01*
X96658751Y-71707322D02*
X96611132Y-71754941D01*
X96611132Y-71754941D02*
X96563513Y-71850179D01*
X96563513Y-71850179D02*
X96563513Y-72135893D01*
X96563513Y-72135893D02*
X96611132Y-72231131D01*
X96611132Y-72231131D02*
X96658751Y-72278751D01*
X96658751Y-72278751D02*
X96753989Y-72326370D01*
X96753989Y-72326370D02*
X96944465Y-72326370D01*
X96944465Y-72326370D02*
X97039703Y-72278751D01*
X96182560Y-72278751D02*
X96087322Y-72326370D01*
X96087322Y-72326370D02*
X95896846Y-72326370D01*
X95896846Y-72326370D02*
X95801608Y-72278751D01*
X95801608Y-72278751D02*
X95753989Y-72183512D01*
X95753989Y-72183512D02*
X95753989Y-72135893D01*
X95753989Y-72135893D02*
X95801608Y-72040655D01*
X95801608Y-72040655D02*
X95896846Y-71993036D01*
X95896846Y-71993036D02*
X96039703Y-71993036D01*
X96039703Y-71993036D02*
X96134941Y-71945417D01*
X96134941Y-71945417D02*
X96182560Y-71850179D01*
X96182560Y-71850179D02*
X96182560Y-71802560D01*
X96182560Y-71802560D02*
X96134941Y-71707322D01*
X96134941Y-71707322D02*
X96039703Y-71659703D01*
X96039703Y-71659703D02*
X95896846Y-71659703D01*
X95896846Y-71659703D02*
X95801608Y-71707322D01*
X95468274Y-71659703D02*
X95087322Y-71659703D01*
X95325417Y-71326370D02*
X95325417Y-72183512D01*
X95325417Y-72183512D02*
X95277798Y-72278751D01*
X95277798Y-72278751D02*
X95182560Y-72326370D01*
X95182560Y-72326370D02*
X95087322Y-72326370D01*
X94230179Y-72326370D02*
X94801607Y-72326370D01*
X94515893Y-72326370D02*
X94515893Y-71326370D01*
X94515893Y-71326370D02*
X94611131Y-71469227D01*
X94611131Y-71469227D02*
X94706369Y-71564465D01*
X94706369Y-71564465D02*
X94801607Y-71612084D01*
X88208455Y-70792970D02*
X88208455Y-71602493D01*
X88208455Y-71602493D02*
X88160836Y-71697731D01*
X88160836Y-71697731D02*
X88113217Y-71745351D01*
X88113217Y-71745351D02*
X88017979Y-71792970D01*
X88017979Y-71792970D02*
X87827503Y-71792970D01*
X87827503Y-71792970D02*
X87732265Y-71745351D01*
X87732265Y-71745351D02*
X87684646Y-71697731D01*
X87684646Y-71697731D02*
X87637027Y-71602493D01*
X87637027Y-71602493D02*
X87637027Y-70792970D01*
X86637027Y-71792970D02*
X87208455Y-71792970D01*
X86922741Y-71792970D02*
X86922741Y-70792970D01*
X86922741Y-70792970D02*
X87017979Y-70935827D01*
X87017979Y-70935827D02*
X87113217Y-71031065D01*
X87113217Y-71031065D02*
X87208455Y-71078684D01*
X100738780Y-74254666D02*
X101738780Y-74254666D01*
X101738780Y-74254666D02*
X101738780Y-74016571D01*
X101738780Y-74016571D02*
X101691161Y-73873714D01*
X101691161Y-73873714D02*
X101595923Y-73778476D01*
X101595923Y-73778476D02*
X101500685Y-73730857D01*
X101500685Y-73730857D02*
X101310209Y-73683238D01*
X101310209Y-73683238D02*
X101167352Y-73683238D01*
X101167352Y-73683238D02*
X100976876Y-73730857D01*
X100976876Y-73730857D02*
X100881638Y-73778476D01*
X100881638Y-73778476D02*
X100786400Y-73873714D01*
X100786400Y-73873714D02*
X100738780Y-74016571D01*
X100738780Y-74016571D02*
X100738780Y-74254666D01*
X100786400Y-72873714D02*
X100738780Y-72968952D01*
X100738780Y-72968952D02*
X100738780Y-73159428D01*
X100738780Y-73159428D02*
X100786400Y-73254666D01*
X100786400Y-73254666D02*
X100881638Y-73302285D01*
X100881638Y-73302285D02*
X101262590Y-73302285D01*
X101262590Y-73302285D02*
X101357828Y-73254666D01*
X101357828Y-73254666D02*
X101405447Y-73159428D01*
X101405447Y-73159428D02*
X101405447Y-72968952D01*
X101405447Y-72968952D02*
X101357828Y-72873714D01*
X101357828Y-72873714D02*
X101262590Y-72826095D01*
X101262590Y-72826095D02*
X101167352Y-72826095D01*
X101167352Y-72826095D02*
X101072114Y-73302285D01*
X100786400Y-72445142D02*
X100738780Y-72349904D01*
X100738780Y-72349904D02*
X100738780Y-72159428D01*
X100738780Y-72159428D02*
X100786400Y-72064190D01*
X100786400Y-72064190D02*
X100881638Y-72016571D01*
X100881638Y-72016571D02*
X100929257Y-72016571D01*
X100929257Y-72016571D02*
X101024495Y-72064190D01*
X101024495Y-72064190D02*
X101072114Y-72159428D01*
X101072114Y-72159428D02*
X101072114Y-72302285D01*
X101072114Y-72302285D02*
X101119733Y-72397523D01*
X101119733Y-72397523D02*
X101214971Y-72445142D01*
X101214971Y-72445142D02*
X101262590Y-72445142D01*
X101262590Y-72445142D02*
X101357828Y-72397523D01*
X101357828Y-72397523D02*
X101405447Y-72302285D01*
X101405447Y-72302285D02*
X101405447Y-72159428D01*
X101405447Y-72159428D02*
X101357828Y-72064190D01*
X100738780Y-71587999D02*
X101405447Y-71587999D01*
X101738780Y-71587999D02*
X101691161Y-71635618D01*
X101691161Y-71635618D02*
X101643542Y-71587999D01*
X101643542Y-71587999D02*
X101691161Y-71540380D01*
X101691161Y-71540380D02*
X101738780Y-71587999D01*
X101738780Y-71587999D02*
X101643542Y-71587999D01*
X101405447Y-70683238D02*
X100595923Y-70683238D01*
X100595923Y-70683238D02*
X100500685Y-70730857D01*
X100500685Y-70730857D02*
X100453066Y-70778476D01*
X100453066Y-70778476D02*
X100405447Y-70873714D01*
X100405447Y-70873714D02*
X100405447Y-71016571D01*
X100405447Y-71016571D02*
X100453066Y-71111809D01*
X100786400Y-70683238D02*
X100738780Y-70778476D01*
X100738780Y-70778476D02*
X100738780Y-70968952D01*
X100738780Y-70968952D02*
X100786400Y-71064190D01*
X100786400Y-71064190D02*
X100834019Y-71111809D01*
X100834019Y-71111809D02*
X100929257Y-71159428D01*
X100929257Y-71159428D02*
X101214971Y-71159428D01*
X101214971Y-71159428D02*
X101310209Y-71111809D01*
X101310209Y-71111809D02*
X101357828Y-71064190D01*
X101357828Y-71064190D02*
X101405447Y-70968952D01*
X101405447Y-70968952D02*
X101405447Y-70778476D01*
X101405447Y-70778476D02*
X101357828Y-70683238D01*
X101405447Y-70207047D02*
X100738780Y-70207047D01*
X101310209Y-70207047D02*
X101357828Y-70159428D01*
X101357828Y-70159428D02*
X101405447Y-70064190D01*
X101405447Y-70064190D02*
X101405447Y-69921333D01*
X101405447Y-69921333D02*
X101357828Y-69826095D01*
X101357828Y-69826095D02*
X101262590Y-69778476D01*
X101262590Y-69778476D02*
X100738780Y-69778476D01*
X100738780Y-68873714D02*
X101262590Y-68873714D01*
X101262590Y-68873714D02*
X101357828Y-68921333D01*
X101357828Y-68921333D02*
X101405447Y-69016571D01*
X101405447Y-69016571D02*
X101405447Y-69207047D01*
X101405447Y-69207047D02*
X101357828Y-69302285D01*
X100786400Y-68873714D02*
X100738780Y-68968952D01*
X100738780Y-68968952D02*
X100738780Y-69207047D01*
X100738780Y-69207047D02*
X100786400Y-69302285D01*
X100786400Y-69302285D02*
X100881638Y-69349904D01*
X100881638Y-69349904D02*
X100976876Y-69349904D01*
X100976876Y-69349904D02*
X101072114Y-69302285D01*
X101072114Y-69302285D02*
X101119733Y-69207047D01*
X101119733Y-69207047D02*
X101119733Y-68968952D01*
X101119733Y-68968952D02*
X101167352Y-68873714D01*
X101405447Y-68540380D02*
X101405447Y-68159428D01*
X101738780Y-68397523D02*
X100881638Y-68397523D01*
X100881638Y-68397523D02*
X100786400Y-68349904D01*
X100786400Y-68349904D02*
X100738780Y-68254666D01*
X100738780Y-68254666D02*
X100738780Y-68159428D01*
X100738780Y-67683237D02*
X100786400Y-67778475D01*
X100786400Y-67778475D02*
X100834019Y-67826094D01*
X100834019Y-67826094D02*
X100929257Y-67873713D01*
X100929257Y-67873713D02*
X101214971Y-67873713D01*
X101214971Y-67873713D02*
X101310209Y-67826094D01*
X101310209Y-67826094D02*
X101357828Y-67778475D01*
X101357828Y-67778475D02*
X101405447Y-67683237D01*
X101405447Y-67683237D02*
X101405447Y-67540380D01*
X101405447Y-67540380D02*
X101357828Y-67445142D01*
X101357828Y-67445142D02*
X101310209Y-67397523D01*
X101310209Y-67397523D02*
X101214971Y-67349904D01*
X101214971Y-67349904D02*
X100929257Y-67349904D01*
X100929257Y-67349904D02*
X100834019Y-67397523D01*
X100834019Y-67397523D02*
X100786400Y-67445142D01*
X100786400Y-67445142D02*
X100738780Y-67540380D01*
X100738780Y-67540380D02*
X100738780Y-67683237D01*
X100738780Y-66921332D02*
X101405447Y-66921332D01*
X101214971Y-66921332D02*
X101310209Y-66873713D01*
X101310209Y-66873713D02*
X101357828Y-66826094D01*
X101357828Y-66826094D02*
X101405447Y-66730856D01*
X101405447Y-66730856D02*
X101405447Y-66635618D01*
X100738780Y-65778475D02*
X100738780Y-66349903D01*
X100738780Y-66064189D02*
X101738780Y-66064189D01*
X101738780Y-66064189D02*
X101595923Y-66159427D01*
X101595923Y-66159427D02*
X101500685Y-66254665D01*
X101500685Y-66254665D02*
X101453066Y-66349903D01*
X101738780Y-65445141D02*
X101738780Y-64826094D01*
X101738780Y-64826094D02*
X101357828Y-65159427D01*
X101357828Y-65159427D02*
X101357828Y-65016570D01*
X101357828Y-65016570D02*
X101310209Y-64921332D01*
X101310209Y-64921332D02*
X101262590Y-64873713D01*
X101262590Y-64873713D02*
X101167352Y-64826094D01*
X101167352Y-64826094D02*
X100929257Y-64826094D01*
X100929257Y-64826094D02*
X100834019Y-64873713D01*
X100834019Y-64873713D02*
X100786400Y-64921332D01*
X100786400Y-64921332D02*
X100738780Y-65016570D01*
X100738780Y-65016570D02*
X100738780Y-65302284D01*
X100738780Y-65302284D02*
X100786400Y-65397522D01*
X100786400Y-65397522D02*
X100834019Y-65445141D01*
X101310209Y-64254665D02*
X101357828Y-64349903D01*
X101357828Y-64349903D02*
X101405447Y-64397522D01*
X101405447Y-64397522D02*
X101500685Y-64445141D01*
X101500685Y-64445141D02*
X101548304Y-64445141D01*
X101548304Y-64445141D02*
X101643542Y-64397522D01*
X101643542Y-64397522D02*
X101691161Y-64349903D01*
X101691161Y-64349903D02*
X101738780Y-64254665D01*
X101738780Y-64254665D02*
X101738780Y-64064189D01*
X101738780Y-64064189D02*
X101691161Y-63968951D01*
X101691161Y-63968951D02*
X101643542Y-63921332D01*
X101643542Y-63921332D02*
X101548304Y-63873713D01*
X101548304Y-63873713D02*
X101500685Y-63873713D01*
X101500685Y-63873713D02*
X101405447Y-63921332D01*
X101405447Y-63921332D02*
X101357828Y-63968951D01*
X101357828Y-63968951D02*
X101310209Y-64064189D01*
X101310209Y-64064189D02*
X101310209Y-64254665D01*
X101310209Y-64254665D02*
X101262590Y-64349903D01*
X101262590Y-64349903D02*
X101214971Y-64397522D01*
X101214971Y-64397522D02*
X101119733Y-64445141D01*
X101119733Y-64445141D02*
X100929257Y-64445141D01*
X100929257Y-64445141D02*
X100834019Y-64397522D01*
X100834019Y-64397522D02*
X100786400Y-64349903D01*
X100786400Y-64349903D02*
X100738780Y-64254665D01*
X100738780Y-64254665D02*
X100738780Y-64064189D01*
X100738780Y-64064189D02*
X100786400Y-63968951D01*
X100786400Y-63968951D02*
X100834019Y-63921332D01*
X100834019Y-63921332D02*
X100929257Y-63873713D01*
X100929257Y-63873713D02*
X101119733Y-63873713D01*
X101119733Y-63873713D02*
X101214971Y-63921332D01*
X101214971Y-63921332D02*
X101262590Y-63968951D01*
X101262590Y-63968951D02*
X101310209Y-64064189D01*
X84756531Y-65442027D02*
X85232722Y-65775360D01*
X84756531Y-66013455D02*
X85756531Y-66013455D01*
X85756531Y-66013455D02*
X85756531Y-65632503D01*
X85756531Y-65632503D02*
X85708912Y-65537265D01*
X85708912Y-65537265D02*
X85661293Y-65489646D01*
X85661293Y-65489646D02*
X85566055Y-65442027D01*
X85566055Y-65442027D02*
X85423198Y-65442027D01*
X85423198Y-65442027D02*
X85327960Y-65489646D01*
X85327960Y-65489646D02*
X85280341Y-65537265D01*
X85280341Y-65537265D02*
X85232722Y-65632503D01*
X85232722Y-65632503D02*
X85232722Y-66013455D01*
X85423198Y-65156312D02*
X85423198Y-64775360D01*
X84756531Y-65013455D02*
X85613674Y-65013455D01*
X85613674Y-65013455D02*
X85708912Y-64965836D01*
X85708912Y-64965836D02*
X85756531Y-64870598D01*
X85756531Y-64870598D02*
X85756531Y-64775360D01*
X84756531Y-64442026D02*
X85756531Y-64442026D01*
X85375579Y-64442026D02*
X85423198Y-64346788D01*
X85423198Y-64346788D02*
X85423198Y-64156312D01*
X85423198Y-64156312D02*
X85375579Y-64061074D01*
X85375579Y-64061074D02*
X85327960Y-64013455D01*
X85327960Y-64013455D02*
X85232722Y-63965836D01*
X85232722Y-63965836D02*
X84947008Y-63965836D01*
X84947008Y-63965836D02*
X84851770Y-64013455D01*
X84851770Y-64013455D02*
X84804151Y-64061074D01*
X84804151Y-64061074D02*
X84756531Y-64156312D01*
X84756531Y-64156312D02*
X84756531Y-64346788D01*
X84756531Y-64346788D02*
X84804151Y-64442026D01*
X85423198Y-63680121D02*
X85423198Y-63299169D01*
X85756531Y-63537264D02*
X84899389Y-63537264D01*
X84899389Y-63537264D02*
X84804151Y-63489645D01*
X84804151Y-63489645D02*
X84756531Y-63394407D01*
X84756531Y-63394407D02*
X84756531Y-63299169D01*
X84756531Y-62442026D02*
X84756531Y-63013454D01*
X84756531Y-62727740D02*
X85756531Y-62727740D01*
X85756531Y-62727740D02*
X85613674Y-62822978D01*
X85613674Y-62822978D02*
X85518436Y-62918216D01*
X85518436Y-62918216D02*
X85470817Y-63013454D01*
X88807800Y-78051819D02*
X89141133Y-77575628D01*
X89379228Y-78051819D02*
X89379228Y-77051819D01*
X89379228Y-77051819D02*
X88998276Y-77051819D01*
X88998276Y-77051819D02*
X88903038Y-77099438D01*
X88903038Y-77099438D02*
X88855419Y-77147057D01*
X88855419Y-77147057D02*
X88807800Y-77242295D01*
X88807800Y-77242295D02*
X88807800Y-77385152D01*
X88807800Y-77385152D02*
X88855419Y-77480390D01*
X88855419Y-77480390D02*
X88903038Y-77528009D01*
X88903038Y-77528009D02*
X88998276Y-77575628D01*
X88998276Y-77575628D02*
X89379228Y-77575628D01*
X87950657Y-77385152D02*
X87950657Y-78051819D01*
X88379228Y-77385152D02*
X88379228Y-77908961D01*
X88379228Y-77908961D02*
X88331609Y-78004200D01*
X88331609Y-78004200D02*
X88236371Y-78051819D01*
X88236371Y-78051819D02*
X88093514Y-78051819D01*
X88093514Y-78051819D02*
X87998276Y-78004200D01*
X87998276Y-78004200D02*
X87950657Y-77956580D01*
X87569704Y-77385152D02*
X87331609Y-78051819D01*
X87331609Y-78051819D02*
X87093514Y-77385152D01*
X86760180Y-77147057D02*
X86712561Y-77099438D01*
X86712561Y-77099438D02*
X86617323Y-77051819D01*
X86617323Y-77051819D02*
X86379228Y-77051819D01*
X86379228Y-77051819D02*
X86283990Y-77099438D01*
X86283990Y-77099438D02*
X86236371Y-77147057D01*
X86236371Y-77147057D02*
X86188752Y-77242295D01*
X86188752Y-77242295D02*
X86188752Y-77337533D01*
X86188752Y-77337533D02*
X86236371Y-77480390D01*
X86236371Y-77480390D02*
X86807799Y-78051819D01*
X86807799Y-78051819D02*
X86188752Y-78051819D01*
X99862971Y-60449619D02*
X100196304Y-59973428D01*
X100434399Y-60449619D02*
X100434399Y-59449619D01*
X100434399Y-59449619D02*
X100053447Y-59449619D01*
X100053447Y-59449619D02*
X99958209Y-59497238D01*
X99958209Y-59497238D02*
X99910590Y-59544857D01*
X99910590Y-59544857D02*
X99862971Y-59640095D01*
X99862971Y-59640095D02*
X99862971Y-59782952D01*
X99862971Y-59782952D02*
X99910590Y-59878190D01*
X99910590Y-59878190D02*
X99958209Y-59925809D01*
X99958209Y-59925809D02*
X100053447Y-59973428D01*
X100053447Y-59973428D02*
X100434399Y-59973428D01*
X99434399Y-59782952D02*
X99434399Y-60782952D01*
X99434399Y-59830571D02*
X99339161Y-59782952D01*
X99339161Y-59782952D02*
X99148685Y-59782952D01*
X99148685Y-59782952D02*
X99053447Y-59830571D01*
X99053447Y-59830571D02*
X99005828Y-59878190D01*
X99005828Y-59878190D02*
X98958209Y-59973428D01*
X98958209Y-59973428D02*
X98958209Y-60259142D01*
X98958209Y-60259142D02*
X99005828Y-60354380D01*
X99005828Y-60354380D02*
X99053447Y-60402000D01*
X99053447Y-60402000D02*
X99148685Y-60449619D01*
X99148685Y-60449619D02*
X99339161Y-60449619D01*
X99339161Y-60449619D02*
X99434399Y-60402000D01*
X98101066Y-59782952D02*
X98101066Y-60592476D01*
X98101066Y-60592476D02*
X98148685Y-60687714D01*
X98148685Y-60687714D02*
X98196304Y-60735333D01*
X98196304Y-60735333D02*
X98291542Y-60782952D01*
X98291542Y-60782952D02*
X98434399Y-60782952D01*
X98434399Y-60782952D02*
X98529637Y-60735333D01*
X98101066Y-60402000D02*
X98196304Y-60449619D01*
X98196304Y-60449619D02*
X98386780Y-60449619D01*
X98386780Y-60449619D02*
X98482018Y-60402000D01*
X98482018Y-60402000D02*
X98529637Y-60354380D01*
X98529637Y-60354380D02*
X98577256Y-60259142D01*
X98577256Y-60259142D02*
X98577256Y-59973428D01*
X98577256Y-59973428D02*
X98529637Y-59878190D01*
X98529637Y-59878190D02*
X98482018Y-59830571D01*
X98482018Y-59830571D02*
X98386780Y-59782952D01*
X98386780Y-59782952D02*
X98196304Y-59782952D01*
X98196304Y-59782952D02*
X98101066Y-59830571D01*
X97482018Y-60449619D02*
X97577256Y-60402000D01*
X97577256Y-60402000D02*
X97624875Y-60354380D01*
X97624875Y-60354380D02*
X97672494Y-60259142D01*
X97672494Y-60259142D02*
X97672494Y-59973428D01*
X97672494Y-59973428D02*
X97624875Y-59878190D01*
X97624875Y-59878190D02*
X97577256Y-59830571D01*
X97577256Y-59830571D02*
X97482018Y-59782952D01*
X97482018Y-59782952D02*
X97339161Y-59782952D01*
X97339161Y-59782952D02*
X97243923Y-59830571D01*
X97243923Y-59830571D02*
X97196304Y-59878190D01*
X97196304Y-59878190D02*
X97148685Y-59973428D01*
X97148685Y-59973428D02*
X97148685Y-60259142D01*
X97148685Y-60259142D02*
X97196304Y-60354380D01*
X97196304Y-60354380D02*
X97243923Y-60402000D01*
X97243923Y-60402000D02*
X97339161Y-60449619D01*
X97339161Y-60449619D02*
X97482018Y-60449619D01*
X96577256Y-60449619D02*
X96672494Y-60402000D01*
X96672494Y-60402000D02*
X96720113Y-60354380D01*
X96720113Y-60354380D02*
X96767732Y-60259142D01*
X96767732Y-60259142D02*
X96767732Y-59973428D01*
X96767732Y-59973428D02*
X96720113Y-59878190D01*
X96720113Y-59878190D02*
X96672494Y-59830571D01*
X96672494Y-59830571D02*
X96577256Y-59782952D01*
X96577256Y-59782952D02*
X96434399Y-59782952D01*
X96434399Y-59782952D02*
X96339161Y-59830571D01*
X96339161Y-59830571D02*
X96291542Y-59878190D01*
X96291542Y-59878190D02*
X96243923Y-59973428D01*
X96243923Y-59973428D02*
X96243923Y-60259142D01*
X96243923Y-60259142D02*
X96291542Y-60354380D01*
X96291542Y-60354380D02*
X96339161Y-60402000D01*
X96339161Y-60402000D02*
X96434399Y-60449619D01*
X96434399Y-60449619D02*
X96577256Y-60449619D01*
X95386780Y-60449619D02*
X95386780Y-59449619D01*
X95386780Y-60402000D02*
X95482018Y-60449619D01*
X95482018Y-60449619D02*
X95672494Y-60449619D01*
X95672494Y-60449619D02*
X95767732Y-60402000D01*
X95767732Y-60402000D02*
X95815351Y-60354380D01*
X95815351Y-60354380D02*
X95862970Y-60259142D01*
X95862970Y-60259142D02*
X95862970Y-59973428D01*
X95862970Y-59973428D02*
X95815351Y-59878190D01*
X95815351Y-59878190D02*
X95767732Y-59830571D01*
X95767732Y-59830571D02*
X95672494Y-59782952D01*
X95672494Y-59782952D02*
X95482018Y-59782952D01*
X95482018Y-59782952D02*
X95386780Y-59830571D01*
X94386780Y-60449619D02*
X94958208Y-60449619D01*
X94672494Y-60449619D02*
X94672494Y-59449619D01*
X94672494Y-59449619D02*
X94767732Y-59592476D01*
X94767732Y-59592476D02*
X94862970Y-59687714D01*
X94862970Y-59687714D02*
X94958208Y-59735333D01*
X101048962Y-63065819D02*
X101382295Y-62589628D01*
X101620390Y-63065819D02*
X101620390Y-62065819D01*
X101620390Y-62065819D02*
X101239438Y-62065819D01*
X101239438Y-62065819D02*
X101144200Y-62113438D01*
X101144200Y-62113438D02*
X101096581Y-62161057D01*
X101096581Y-62161057D02*
X101048962Y-62256295D01*
X101048962Y-62256295D02*
X101048962Y-62399152D01*
X101048962Y-62399152D02*
X101096581Y-62494390D01*
X101096581Y-62494390D02*
X101144200Y-62542009D01*
X101144200Y-62542009D02*
X101239438Y-62589628D01*
X101239438Y-62589628D02*
X101620390Y-62589628D01*
X100715628Y-62399152D02*
X100477533Y-63065819D01*
X100477533Y-63065819D02*
X100239438Y-62399152D01*
X99429914Y-63018200D02*
X99525152Y-63065819D01*
X99525152Y-63065819D02*
X99715628Y-63065819D01*
X99715628Y-63065819D02*
X99810866Y-63018200D01*
X99810866Y-63018200D02*
X99858485Y-62970580D01*
X99858485Y-62970580D02*
X99906104Y-62875342D01*
X99906104Y-62875342D02*
X99906104Y-62589628D01*
X99906104Y-62589628D02*
X99858485Y-62494390D01*
X99858485Y-62494390D02*
X99810866Y-62446771D01*
X99810866Y-62446771D02*
X99715628Y-62399152D01*
X99715628Y-62399152D02*
X99525152Y-62399152D01*
X99525152Y-62399152D02*
X99429914Y-62446771D01*
X98572771Y-63018200D02*
X98668009Y-63065819D01*
X98668009Y-63065819D02*
X98858485Y-63065819D01*
X98858485Y-63065819D02*
X98953723Y-63018200D01*
X98953723Y-63018200D02*
X99001342Y-62970580D01*
X99001342Y-62970580D02*
X99048961Y-62875342D01*
X99048961Y-62875342D02*
X99048961Y-62589628D01*
X99048961Y-62589628D02*
X99001342Y-62494390D01*
X99001342Y-62494390D02*
X98953723Y-62446771D01*
X98953723Y-62446771D02*
X98858485Y-62399152D01*
X98858485Y-62399152D02*
X98668009Y-62399152D01*
X98668009Y-62399152D02*
X98572771Y-62446771D01*
X97620390Y-63065819D02*
X98191818Y-63065819D01*
X97906104Y-63065819D02*
X97906104Y-62065819D01*
X97906104Y-62065819D02*
X98001342Y-62208676D01*
X98001342Y-62208676D02*
X98096580Y-62303914D01*
X98096580Y-62303914D02*
X98191818Y-62351533D01*
X82673731Y-65427617D02*
X83149922Y-65760950D01*
X82673731Y-65999045D02*
X83673731Y-65999045D01*
X83673731Y-65999045D02*
X83673731Y-65618093D01*
X83673731Y-65618093D02*
X83626112Y-65522855D01*
X83626112Y-65522855D02*
X83578493Y-65475236D01*
X83578493Y-65475236D02*
X83483255Y-65427617D01*
X83483255Y-65427617D02*
X83340398Y-65427617D01*
X83340398Y-65427617D02*
X83245160Y-65475236D01*
X83245160Y-65475236D02*
X83197541Y-65522855D01*
X83197541Y-65522855D02*
X83149922Y-65618093D01*
X83149922Y-65618093D02*
X83149922Y-65999045D01*
X82721351Y-64570474D02*
X82673731Y-64665712D01*
X82673731Y-64665712D02*
X82673731Y-64856188D01*
X82673731Y-64856188D02*
X82721351Y-64951426D01*
X82721351Y-64951426D02*
X82768970Y-64999045D01*
X82768970Y-64999045D02*
X82864208Y-65046664D01*
X82864208Y-65046664D02*
X83149922Y-65046664D01*
X83149922Y-65046664D02*
X83245160Y-64999045D01*
X83245160Y-64999045D02*
X83292779Y-64951426D01*
X83292779Y-64951426D02*
X83340398Y-64856188D01*
X83340398Y-64856188D02*
X83340398Y-64665712D01*
X83340398Y-64665712D02*
X83292779Y-64570474D01*
X82673731Y-63999045D02*
X82721351Y-64094283D01*
X82721351Y-64094283D02*
X82768970Y-64141902D01*
X82768970Y-64141902D02*
X82864208Y-64189521D01*
X82864208Y-64189521D02*
X83149922Y-64189521D01*
X83149922Y-64189521D02*
X83245160Y-64141902D01*
X83245160Y-64141902D02*
X83292779Y-64094283D01*
X83292779Y-64094283D02*
X83340398Y-63999045D01*
X83340398Y-63999045D02*
X83340398Y-63856188D01*
X83340398Y-63856188D02*
X83292779Y-63760950D01*
X83292779Y-63760950D02*
X83245160Y-63713331D01*
X83245160Y-63713331D02*
X83149922Y-63665712D01*
X83149922Y-63665712D02*
X82864208Y-63665712D01*
X82864208Y-63665712D02*
X82768970Y-63713331D01*
X82768970Y-63713331D02*
X82721351Y-63760950D01*
X82721351Y-63760950D02*
X82673731Y-63856188D01*
X82673731Y-63856188D02*
X82673731Y-63999045D01*
X82673731Y-63237140D02*
X83340398Y-63237140D01*
X83245160Y-63237140D02*
X83292779Y-63189521D01*
X83292779Y-63189521D02*
X83340398Y-63094283D01*
X83340398Y-63094283D02*
X83340398Y-62951426D01*
X83340398Y-62951426D02*
X83292779Y-62856188D01*
X83292779Y-62856188D02*
X83197541Y-62808569D01*
X83197541Y-62808569D02*
X82673731Y-62808569D01*
X83197541Y-62808569D02*
X83292779Y-62760950D01*
X83292779Y-62760950D02*
X83340398Y-62665712D01*
X83340398Y-62665712D02*
X83340398Y-62522855D01*
X83340398Y-62522855D02*
X83292779Y-62427616D01*
X83292779Y-62427616D02*
X83197541Y-62379997D01*
X83197541Y-62379997D02*
X82673731Y-62379997D01*
X83340398Y-61903807D02*
X82340398Y-61903807D01*
X83292779Y-61903807D02*
X83340398Y-61808569D01*
X83340398Y-61808569D02*
X83340398Y-61618093D01*
X83340398Y-61618093D02*
X83292779Y-61522855D01*
X83292779Y-61522855D02*
X83245160Y-61475236D01*
X83245160Y-61475236D02*
X83149922Y-61427617D01*
X83149922Y-61427617D02*
X82864208Y-61427617D01*
X82864208Y-61427617D02*
X82768970Y-61475236D01*
X82768970Y-61475236D02*
X82721351Y-61522855D01*
X82721351Y-61522855D02*
X82673731Y-61618093D01*
X82673731Y-61618093D02*
X82673731Y-61808569D01*
X82673731Y-61808569D02*
X82721351Y-61903807D01*
X83578493Y-61046664D02*
X83626112Y-60999045D01*
X83626112Y-60999045D02*
X83673731Y-60903807D01*
X83673731Y-60903807D02*
X83673731Y-60665712D01*
X83673731Y-60665712D02*
X83626112Y-60570474D01*
X83626112Y-60570474D02*
X83578493Y-60522855D01*
X83578493Y-60522855D02*
X83483255Y-60475236D01*
X83483255Y-60475236D02*
X83388017Y-60475236D01*
X83388017Y-60475236D02*
X83245160Y-60522855D01*
X83245160Y-60522855D02*
X82673731Y-61094283D01*
X82673731Y-61094283D02*
X82673731Y-60475236D01*
X85373380Y-76874809D02*
X85421000Y-76827190D01*
X85421000Y-76827190D02*
X85468619Y-76684333D01*
X85468619Y-76684333D02*
X85468619Y-76589095D01*
X85468619Y-76589095D02*
X85421000Y-76446238D01*
X85421000Y-76446238D02*
X85325761Y-76351000D01*
X85325761Y-76351000D02*
X85230523Y-76303381D01*
X85230523Y-76303381D02*
X85040047Y-76255762D01*
X85040047Y-76255762D02*
X84897190Y-76255762D01*
X84897190Y-76255762D02*
X84706714Y-76303381D01*
X84706714Y-76303381D02*
X84611476Y-76351000D01*
X84611476Y-76351000D02*
X84516238Y-76446238D01*
X84516238Y-76446238D02*
X84468619Y-76589095D01*
X84468619Y-76589095D02*
X84468619Y-76684333D01*
X84468619Y-76684333D02*
X84516238Y-76827190D01*
X84516238Y-76827190D02*
X84563857Y-76874809D01*
X85421000Y-77255762D02*
X85468619Y-77351000D01*
X85468619Y-77351000D02*
X85468619Y-77541476D01*
X85468619Y-77541476D02*
X85421000Y-77636714D01*
X85421000Y-77636714D02*
X85325761Y-77684333D01*
X85325761Y-77684333D02*
X85278142Y-77684333D01*
X85278142Y-77684333D02*
X85182904Y-77636714D01*
X85182904Y-77636714D02*
X85135285Y-77541476D01*
X85135285Y-77541476D02*
X85135285Y-77398619D01*
X85135285Y-77398619D02*
X85087666Y-77303381D01*
X85087666Y-77303381D02*
X84992428Y-77255762D01*
X84992428Y-77255762D02*
X84944809Y-77255762D01*
X84944809Y-77255762D02*
X84849571Y-77303381D01*
X84849571Y-77303381D02*
X84801952Y-77398619D01*
X84801952Y-77398619D02*
X84801952Y-77541476D01*
X84801952Y-77541476D02*
X84849571Y-77636714D01*
X85421000Y-78065286D02*
X85468619Y-78160524D01*
X85468619Y-78160524D02*
X85468619Y-78351000D01*
X85468619Y-78351000D02*
X85421000Y-78446238D01*
X85421000Y-78446238D02*
X85325761Y-78493857D01*
X85325761Y-78493857D02*
X85278142Y-78493857D01*
X85278142Y-78493857D02*
X85182904Y-78446238D01*
X85182904Y-78446238D02*
X85135285Y-78351000D01*
X85135285Y-78351000D02*
X85135285Y-78208143D01*
X85135285Y-78208143D02*
X85087666Y-78112905D01*
X85087666Y-78112905D02*
X84992428Y-78065286D01*
X84992428Y-78065286D02*
X84944809Y-78065286D01*
X84944809Y-78065286D02*
X84849571Y-78112905D01*
X84849571Y-78112905D02*
X84801952Y-78208143D01*
X84801952Y-78208143D02*
X84801952Y-78351000D01*
X84801952Y-78351000D02*
X84849571Y-78446238D01*
X85468619Y-79446238D02*
X85468619Y-78874810D01*
X85468619Y-79160524D02*
X84468619Y-79160524D01*
X84468619Y-79160524D02*
X84611476Y-79065286D01*
X84611476Y-79065286D02*
X84706714Y-78970048D01*
X84706714Y-78970048D02*
X84754333Y-78874810D01*
D13*
%TO.C,Cilim1*%
X92813100Y-64211200D02*
G75*
G02*
X92660700Y-64211200I-76200J0D01*
G01*
X92660700Y-64211200D02*
G75*
G02*
X92813100Y-64211200I76200J0D01*
G01*
%TO.C,Cvcc1*%
X97273751Y-68439951D02*
G75*
G02*
X97121351Y-68439951I-76200J0D01*
G01*
X97121351Y-68439951D02*
G75*
G02*
X97273751Y-68439951I76200J0D01*
G01*
X96476251Y-65498901D02*
X96476251Y-67881001D01*
X94418851Y-67881001D02*
X94418851Y-65498901D01*
D14*
%TO.C,J2*%
X122650001Y-54138200D02*
G75*
G02*
X121888001Y-54138200I-381000J0D01*
G01*
X121888001Y-54138200D02*
G75*
G02*
X122650001Y-54138200I381000J0D01*
G01*
%TO.C,J1*%
X105150001Y-73926700D02*
G75*
G02*
X104388001Y-73926700I-381000J0D01*
G01*
X104388001Y-73926700D02*
G75*
G02*
X105150001Y-73926700I381000J0D01*
G01*
D13*
%TO.C,Cvin1*%
X91119601Y-73665499D02*
X91799901Y-73665499D01*
X91799901Y-74808499D02*
X91119601Y-74808499D01*
X89491251Y-74236999D02*
G75*
G02*
X89338851Y-74236999I-76200J0D01*
G01*
X89338851Y-74236999D02*
G75*
G02*
X89491251Y-74236999I76200J0D01*
G01*
%TO.C,Cbst1*%
X95418551Y-69566501D02*
X96098851Y-69566501D01*
X96098851Y-70709501D02*
X95418551Y-70709501D01*
X93790201Y-70138001D02*
G75*
G02*
X93637801Y-70138001I-76200J0D01*
G01*
X93637801Y-70138001D02*
G75*
G02*
X93790201Y-70138001I76200J0D01*
G01*
D11*
%TO.C,U1*%
X88880399Y-67011200D02*
X88880399Y-67261199D01*
X88880399Y-67011200D02*
X89130401Y-67011200D01*
X88880399Y-71661201D02*
X88880399Y-71911200D01*
X88880399Y-71911200D02*
X89530400Y-71911200D01*
X92530399Y-67011200D02*
X92780401Y-67011200D01*
X92530399Y-71911200D02*
X92780401Y-71911200D01*
X92780401Y-67011200D02*
X92780401Y-67261199D01*
X92780401Y-71661201D02*
X92780401Y-71911200D01*
D13*
%TO.C,Rfbt1*%
X85052601Y-67988951D02*
X85052601Y-67816651D01*
X86119401Y-67816651D02*
X86119401Y-67988951D01*
%TO.C,Rpgood1*%
X94411800Y-62659050D02*
X94411800Y-62486750D01*
X95478600Y-62486750D02*
X95478600Y-62659050D01*
%TO.C,Rvcc1*%
X96088200Y-62659050D02*
X96088200Y-62486750D01*
X97155000Y-62486750D02*
X97155000Y-62659050D01*
%TD*%
M02*
