%TF.GenerationSoftware,KiCad,Pcbnew,9.0.6*%
%TF.CreationDate,2026-02-12T21:20:19-06:00*%
%TF.ProjectId,IRIS_Converter,49524953-5f43-46f6-9e76-65727465722e,rev?*%
%TF.SameCoordinates,Original*%
%TF.FileFunction,Copper,L1,Top*%
%TF.FilePolarity,Positive*%
%FSLAX46Y46*%
G04 Gerber Fmt 4.6, Leading zero omitted, Abs format (unit mm)*
G04 Created by KiCad (PCBNEW 9.0.6) date 2026-02-12 21:20:19*
%MOMM*%
%LPD*%
G01*
G04 APERTURE LIST*
%TA.AperFunction,SMDPad,CuDef*%
%ADD10R,4.953000X3.225800*%
%TD*%
%TA.AperFunction,ComponentPad*%
%ADD11C,2.463800*%
%TD*%
%TA.AperFunction,SMDPad,CuDef*%
%ADD12R,1.498600X3.302000*%
%TD*%
%TA.AperFunction,SMDPad,CuDef*%
%ADD13R,0.750001X0.439999*%
%TD*%
%TA.AperFunction,SMDPad,CuDef*%
%ADD14R,2.500000X2.550000*%
%TD*%
%TA.AperFunction,ComponentPad*%
%ADD15C,0.499999*%
%TD*%
%TA.AperFunction,SMDPad,CuDef*%
%ADD16R,0.449999X0.299999*%
%TD*%
%TA.AperFunction,SMDPad,CuDef*%
%ADD17R,0.750001X0.299999*%
%TD*%
%TA.AperFunction,SMDPad,CuDef*%
%ADD18R,1.000000X0.950001*%
%TD*%
%TA.AperFunction,SMDPad,CuDef*%
%ADD19R,2.692400X1.244600*%
%TD*%
%TA.AperFunction,ViaPad*%
%ADD20C,0.600000*%
%TD*%
%TA.AperFunction,ViaPad*%
%ADD21C,0.800000*%
%TD*%
%TA.AperFunction,Conductor*%
%ADD22C,0.300000*%
%TD*%
%TA.AperFunction,Conductor*%
%ADD23C,0.200000*%
%TD*%
%TA.AperFunction,Conductor*%
%ADD24C,0.400000*%
%TD*%
G04 APERTURE END LIST*
D10*
%TO.P,1.2uH1,2,2*%
%TO.N,/Vout*%
X82829400Y-48564800D03*
%TO.P,1.2uH1,1,1*%
%TO.N,/SW*%
X82829400Y-59359800D03*
%TD*%
D11*
%TO.P,J2,1,1*%
%TO.N,GND*%
X112269001Y-51638200D03*
%TO.P,J2,2,2*%
%TO.N,/Vout*%
X112269001Y-44018200D03*
%TD*%
D12*
%TO.P,Cout1,2*%
%TO.N,GND*%
X101597200Y-50190400D03*
%TO.P,Cout1,1*%
%TO.N,/Vout*%
X101597200Y-43281600D03*
%TD*%
D11*
%TO.P,J1,2,2*%
%TO.N,GND*%
X112269001Y-66306700D03*
%TO.P,J1,1,1*%
%TO.N,/Vin*%
X112269001Y-73926700D03*
%TD*%
D13*
%TO.P,Q2,1*%
%TO.N,/SW*%
X101395799Y-58918198D03*
%TO.P,Q2,2*%
X101395799Y-59568199D03*
%TO.P,Q2,3*%
X101395799Y-60218198D03*
%TO.P,Q2,4*%
%TO.N,Net-(U1-HO)*%
X101395799Y-60868199D03*
%TO.P,Q2,5*%
%TO.N,GND*%
X104445801Y-60868199D03*
%TO.P,Q2,6*%
X104445801Y-60218201D03*
%TO.P,Q2,7*%
X104445801Y-59568199D03*
%TO.P,Q2,8*%
X104445801Y-58918201D03*
D14*
%TO.P,Q2,9*%
X103570801Y-59893200D03*
D15*
%TO.P,Q2,V*%
X102708799Y-59893200D03*
X103146799Y-58918201D03*
X103146799Y-60868199D03*
X103584799Y-59893200D03*
X104022799Y-58918201D03*
X104022799Y-60868199D03*
X104460802Y-59893200D03*
%TD*%
D16*
%TO.P,Q1,1*%
%TO.N,/SW*%
X97729401Y-57028200D03*
%TO.P,Q1,2*%
X97729401Y-57678201D03*
%TO.P,Q1,3*%
%TO.N,Net-(U1-LO)*%
X97729401Y-58328200D03*
%TO.P,Q1,4*%
%TO.N,GND*%
X99679402Y-58328200D03*
%TO.P,Q1,5*%
%TO.N,/SW*%
X99679402Y-57678201D03*
%TO.P,Q1,6*%
X99679402Y-57028200D03*
D17*
%TO.P,Q1,7*%
X98799401Y-58328202D03*
D18*
%TO.P,Q1,8*%
%TO.N,GND*%
X98704400Y-57353200D03*
%TD*%
D19*
%TO.P,Cin1,1*%
%TO.N,/Vin*%
X104267000Y-66497200D03*
%TO.P,Cin1,2*%
%TO.N,GND*%
X104267000Y-63525400D03*
%TD*%
D20*
%TO.N,GND*%
X80848200Y-71374000D03*
X80873600Y-68072000D03*
X77698600Y-71374000D03*
X126009400Y-52832000D03*
X121996200Y-52832000D03*
X126009400Y-65049400D03*
X121996200Y-65049400D03*
X126009400Y-56896000D03*
X126009400Y-60960000D03*
X121996200Y-60960000D03*
X121996200Y-56896000D03*
X77724000Y-68072000D03*
%TO.N,/Vin*%
X115011200Y-77241400D03*
X115011200Y-76073000D03*
X116179600Y-76047600D03*
X116179600Y-77216000D03*
X115036600Y-74828400D03*
X116205000Y-74803000D03*
X115036600Y-73660000D03*
X116205000Y-73634600D03*
X116205000Y-72517000D03*
X115036600Y-72542400D03*
%TO.N,GND*%
X116154200Y-65151000D03*
X114960400Y-67513200D03*
X116154200Y-67487800D03*
X114960400Y-66319400D03*
X114985800Y-63982600D03*
X116179600Y-68707000D03*
X116179600Y-63982600D03*
X114985800Y-68681600D03*
X114960400Y-65151000D03*
X116154200Y-66319400D03*
X91948000Y-49276000D03*
X99542600Y-56083200D03*
X99669600Y-52705000D03*
X116382800Y-51663600D03*
X91948000Y-52324000D03*
X109753400Y-60985400D03*
X106426000Y-64058800D03*
X116408200Y-49326800D03*
X115189000Y-50495200D03*
X106426000Y-62306200D03*
X115214400Y-54025800D03*
X95504000Y-52324000D03*
X117856000Y-56896000D03*
X116408200Y-54051200D03*
X117856000Y-60960000D03*
X100685600Y-52705000D03*
X109753400Y-56921400D03*
X115214400Y-49326800D03*
X115189000Y-51663600D03*
X116382800Y-52832000D03*
X103505000Y-52705000D03*
X102565200Y-52705000D03*
X103505000Y-51765200D03*
X113792000Y-56896000D03*
X101600000Y-52705000D03*
X99695000Y-51739800D03*
X100533200Y-58318400D03*
X95504000Y-49276000D03*
X106426000Y-63195200D03*
X90850151Y-72887551D03*
X98704400Y-56083200D03*
X116382800Y-50495200D03*
X115189000Y-52857400D03*
X113792000Y-60960000D03*
D21*
%TO.N,Net-(U1-HO)*%
X101396800Y-61874400D03*
X101396800Y-62992000D03*
X93847351Y-71211151D03*
%TO.N,Net-(U1-LO)*%
X93693065Y-67429465D03*
X97688400Y-60401200D03*
X97688400Y-59385200D03*
D20*
%TO.N,/Vout*%
X98577400Y-41656000D03*
X103555800Y-41630600D03*
X98602800Y-40640000D03*
X101676200Y-40640000D03*
X104673400Y-41630600D03*
X115265200Y-41097200D03*
D21*
X83845400Y-65532000D03*
D20*
X85039200Y-44881800D03*
X115290600Y-45897800D03*
D21*
X83845400Y-64363600D03*
D20*
X103581200Y-40640000D03*
X115290600Y-44653200D03*
X116255800Y-43434000D03*
D21*
X79781400Y-65532000D03*
X82854800Y-64363600D03*
D20*
X82880200Y-44881800D03*
X115265200Y-42240200D03*
X81711800Y-45872400D03*
X104698800Y-40640000D03*
X99745800Y-40640000D03*
X83972400Y-44881800D03*
X80695800Y-44907200D03*
X116230400Y-42240200D03*
X102641400Y-40640000D03*
X80695800Y-45872400D03*
X85039200Y-45847000D03*
D21*
X81838800Y-65532000D03*
D20*
X116255800Y-45897800D03*
X116230400Y-41097200D03*
X100761800Y-40640000D03*
D21*
X80797400Y-65532000D03*
D20*
X82880200Y-45847000D03*
D21*
X82854800Y-65532000D03*
D20*
X99720400Y-41656000D03*
X116255800Y-44653200D03*
X115290600Y-43434000D03*
X83972400Y-45847000D03*
X81711800Y-44907200D03*
%TO.N,/Vin*%
X105638600Y-67945000D03*
X102870000Y-67970400D03*
D21*
X99263200Y-76301600D03*
D20*
X104775000Y-67945000D03*
X103682800Y-68910200D03*
X102844600Y-68910200D03*
D21*
X98247200Y-76301600D03*
D20*
X103708200Y-67970400D03*
D21*
X100279200Y-77952600D03*
X102260400Y-76301600D03*
D20*
X105613200Y-68884800D03*
D21*
X101269800Y-76301600D03*
D20*
X104749600Y-68884800D03*
D21*
X101269800Y-77952600D03*
X102260400Y-77952600D03*
X99263200Y-77952600D03*
X98247200Y-77952600D03*
X100279200Y-76301600D03*
%TO.N,/SW*%
X93472000Y-64668400D03*
X97764600Y-67132200D03*
%TD*%
D22*
%TO.N,GND*%
X100533200Y-58318400D02*
X99689202Y-58318400D01*
D23*
X99689202Y-58318400D02*
X99679402Y-58328200D01*
D22*
X98704400Y-57353200D02*
X98704400Y-56083200D01*
D24*
%TO.N,Net-(U1-HO)*%
X101396800Y-61874400D02*
X101396800Y-62992000D01*
X101395799Y-60868199D02*
X101395799Y-61873399D01*
D22*
X101395799Y-61873399D02*
X101396800Y-61874400D01*
%TO.N,Net-(U1-LO)*%
X97729401Y-59344199D02*
X97688400Y-59385200D01*
D24*
X97688400Y-59385200D02*
X97688400Y-60401200D01*
X97729401Y-58328200D02*
X97729401Y-59344199D01*
%TO.N,/SW*%
X100620799Y-60218198D02*
X99212400Y-61626597D01*
X101395799Y-60218198D02*
X100620799Y-60218198D01*
X101395799Y-59568199D02*
X101365200Y-59537600D01*
X101395799Y-60218198D02*
X101395799Y-59568199D01*
X99212400Y-65684400D02*
X97764600Y-67132200D01*
X99212400Y-61626597D02*
X99212400Y-65684400D01*
D22*
X99679402Y-57028200D02*
X99679402Y-57678201D01*
D24*
X99212400Y-61626597D02*
X99212400Y-62509400D01*
X101395799Y-59568199D02*
X101395799Y-58918198D01*
D23*
X81762600Y-59436000D02*
X83273300Y-60946700D01*
D22*
X97729401Y-57678201D02*
X97729401Y-57028200D01*
D24*
X93421200Y-64617600D02*
X93421200Y-61518800D01*
X93472000Y-64668400D02*
X93421200Y-64617600D01*
%TD*%
%TA.AperFunction,Conductor*%
%TO.N,/Vin*%
G36*
X107460005Y-65348485D02*
G01*
X107505760Y-65401289D01*
X107516960Y-65454028D01*
X107499641Y-67202694D01*
X107492799Y-71435781D01*
X107492800Y-71435781D01*
X107492800Y-71435782D01*
X127003174Y-71525828D01*
X127070121Y-71545822D01*
X127115632Y-71598837D01*
X127126600Y-71650227D01*
X127101998Y-79276730D01*
X127082098Y-79343706D01*
X127029146Y-79389290D01*
X126977929Y-79400330D01*
X102737908Y-79386733D01*
X101397910Y-79385982D01*
X101397901Y-79385982D01*
X101397848Y-79385982D01*
X97433094Y-79399956D01*
X97365986Y-79380508D01*
X97320045Y-79327866D01*
X97308663Y-79274711D01*
X97345496Y-75609911D01*
X122180300Y-75609911D01*
X122180300Y-75852488D01*
X122211961Y-76092985D01*
X122274747Y-76327304D01*
X122367573Y-76551405D01*
X122367576Y-76551412D01*
X122488864Y-76761489D01*
X122488866Y-76761492D01*
X122488867Y-76761493D01*
X122636533Y-76953936D01*
X122636539Y-76953943D01*
X122808056Y-77125460D01*
X122808062Y-77125465D01*
X123000511Y-77273136D01*
X123210588Y-77394424D01*
X123434700Y-77487254D01*
X123669011Y-77550038D01*
X123849386Y-77573784D01*
X123909511Y-77581700D01*
X123909512Y-77581700D01*
X124152089Y-77581700D01*
X124200188Y-77575367D01*
X124392589Y-77550038D01*
X124626900Y-77487254D01*
X124851012Y-77394424D01*
X125061089Y-77273136D01*
X125253538Y-77125465D01*
X125425065Y-76953938D01*
X125572736Y-76761489D01*
X125694024Y-76551412D01*
X125786854Y-76327300D01*
X125849638Y-76092989D01*
X125881300Y-75852488D01*
X125881300Y-75609912D01*
X125849638Y-75369411D01*
X125786854Y-75135100D01*
X125694024Y-74910988D01*
X125572736Y-74700911D01*
X125425065Y-74508462D01*
X125425060Y-74508456D01*
X125253543Y-74336939D01*
X125253536Y-74336933D01*
X125061093Y-74189267D01*
X125061092Y-74189266D01*
X125061089Y-74189264D01*
X124851012Y-74067976D01*
X124851005Y-74067973D01*
X124626904Y-73975147D01*
X124392585Y-73912361D01*
X124152089Y-73880700D01*
X124152088Y-73880700D01*
X123909512Y-73880700D01*
X123909511Y-73880700D01*
X123669014Y-73912361D01*
X123434695Y-73975147D01*
X123210594Y-74067973D01*
X123210585Y-74067977D01*
X123000506Y-74189267D01*
X122808063Y-74336933D01*
X122808056Y-74336939D01*
X122636539Y-74508456D01*
X122636533Y-74508463D01*
X122488867Y-74700906D01*
X122367577Y-74910985D01*
X122367573Y-74910994D01*
X122274747Y-75135095D01*
X122211961Y-75369414D01*
X122180300Y-75609911D01*
X97345496Y-75609911D01*
X97345549Y-75604607D01*
X97357584Y-74407087D01*
X97377942Y-74340249D01*
X97407265Y-74309068D01*
X102006400Y-70866000D01*
X102010013Y-70669072D01*
X102105767Y-65450525D01*
X102126678Y-65383858D01*
X102180312Y-65339080D01*
X102229746Y-65328800D01*
X107392966Y-65328800D01*
X107460005Y-65348485D01*
G37*
%TD.AperFunction*%
%TD*%
%TA.AperFunction,Conductor*%
%TO.N,/SW*%
G36*
X102482163Y-54198257D02*
G01*
X102528259Y-54250764D01*
X102539800Y-54303004D01*
X102539800Y-57993700D01*
X102520115Y-58060739D01*
X102467311Y-58106494D01*
X102415801Y-58117700D01*
X102272931Y-58117700D01*
X102272924Y-58117701D01*
X102213317Y-58124108D01*
X102078472Y-58174402D01*
X102078465Y-58174406D01*
X101963256Y-58260652D01*
X101963253Y-58260655D01*
X101877007Y-58375864D01*
X101877003Y-58375871D01*
X101826709Y-58510717D01*
X101820302Y-58570316D01*
X101820301Y-58570335D01*
X101820301Y-60023699D01*
X101800616Y-60090738D01*
X101747812Y-60136493D01*
X101696301Y-60147699D01*
X100972927Y-60147699D01*
X100972921Y-60147700D01*
X100913314Y-60154107D01*
X100778469Y-60204401D01*
X100778462Y-60204405D01*
X100663253Y-60290651D01*
X100663250Y-60290654D01*
X100577004Y-60405863D01*
X100577000Y-60405870D01*
X100526708Y-60540712D01*
X100526707Y-60540716D01*
X100520298Y-60600326D01*
X100520298Y-60600333D01*
X100520298Y-60600334D01*
X100520298Y-61136069D01*
X100520299Y-61136075D01*
X100526706Y-61195682D01*
X100577000Y-61330527D01*
X100577003Y-61330532D01*
X100579998Y-61334533D01*
X100604413Y-61399997D01*
X100595290Y-61456293D01*
X100530906Y-61611734D01*
X100530905Y-61611738D01*
X100530904Y-61611741D01*
X100530903Y-61611741D01*
X100496300Y-61785704D01*
X100496300Y-61963095D01*
X100530903Y-62137058D01*
X100530906Y-62137067D01*
X100598783Y-62300940D01*
X100598790Y-62300952D01*
X100641124Y-62364309D01*
X100647096Y-62383384D01*
X100657604Y-62400394D01*
X100657324Y-62416047D01*
X100662002Y-62430986D01*
X100656713Y-62450263D01*
X100656357Y-62470253D01*
X100644340Y-62495369D01*
X100643518Y-62498366D01*
X100641124Y-62502091D01*
X100604036Y-62557597D01*
X100550424Y-62602402D01*
X100501075Y-62612706D01*
X79726642Y-62636260D01*
X79659580Y-62616651D01*
X79613765Y-62563899D01*
X79602506Y-62513362D01*
X79573912Y-59296504D01*
X96787900Y-59296504D01*
X96787900Y-59473895D01*
X96822503Y-59647858D01*
X96822506Y-59647867D01*
X96890383Y-59811739D01*
X96890385Y-59811742D01*
X96890387Y-59811747D01*
X96890390Y-59811752D01*
X96890391Y-59811753D01*
X96898782Y-59824312D01*
X96919658Y-59890990D01*
X96901172Y-59958370D01*
X96898782Y-59962088D01*
X96890391Y-59974646D01*
X96890383Y-59974660D01*
X96822506Y-60138532D01*
X96822503Y-60138541D01*
X96787900Y-60312504D01*
X96787900Y-60489895D01*
X96822503Y-60663858D01*
X96822506Y-60663867D01*
X96890383Y-60827740D01*
X96890390Y-60827753D01*
X96988935Y-60975234D01*
X96988938Y-60975238D01*
X97114361Y-61100661D01*
X97114365Y-61100664D01*
X97261846Y-61199209D01*
X97261859Y-61199216D01*
X97384763Y-61250123D01*
X97425734Y-61267094D01*
X97425736Y-61267094D01*
X97425741Y-61267096D01*
X97599704Y-61301699D01*
X97599707Y-61301700D01*
X97599709Y-61301700D01*
X97777093Y-61301700D01*
X97777094Y-61301699D01*
X97835082Y-61290164D01*
X97951058Y-61267096D01*
X97951061Y-61267094D01*
X97951066Y-61267094D01*
X98114947Y-61199213D01*
X98262435Y-61100664D01*
X98387864Y-60975235D01*
X98486413Y-60827747D01*
X98554294Y-60663866D01*
X98566932Y-60600334D01*
X98588899Y-60489895D01*
X98588900Y-60489893D01*
X98588900Y-60312506D01*
X98588899Y-60312504D01*
X98554296Y-60138541D01*
X98554293Y-60138532D01*
X98553448Y-60136493D01*
X98486413Y-59974653D01*
X98478020Y-59962092D01*
X98457140Y-59895418D01*
X98475622Y-59828037D01*
X98478017Y-59824312D01*
X98486413Y-59811747D01*
X98554294Y-59647866D01*
X98588900Y-59473891D01*
X98588900Y-59296509D01*
X98588900Y-59296506D01*
X98588899Y-59296504D01*
X98554296Y-59122541D01*
X98554293Y-59122532D01*
X98540046Y-59088137D01*
X98486413Y-58958653D01*
X98486411Y-58958651D01*
X98486411Y-58958649D01*
X98450799Y-58905352D01*
X98445148Y-58887305D01*
X98434924Y-58871396D01*
X98430472Y-58840434D01*
X98429921Y-58838674D01*
X98429901Y-58836461D01*
X98429901Y-58657900D01*
X98437719Y-58614566D01*
X98448491Y-58585685D01*
X98448490Y-58585685D01*
X98448492Y-58585683D01*
X98454901Y-58526073D01*
X98454901Y-58452700D01*
X98474586Y-58385661D01*
X98527390Y-58339906D01*
X98578901Y-58328700D01*
X98829903Y-58328700D01*
X98896942Y-58348385D01*
X98942697Y-58401189D01*
X98953903Y-58452700D01*
X98953903Y-58526076D01*
X98960310Y-58585683D01*
X99010604Y-58720528D01*
X99010608Y-58720535D01*
X99096854Y-58835744D01*
X99096857Y-58835747D01*
X99212066Y-58921993D01*
X99212073Y-58921997D01*
X99257020Y-58938761D01*
X99346919Y-58972291D01*
X99406529Y-58978700D01*
X99952274Y-58978699D01*
X100011885Y-58972291D01*
X100011885Y-58972290D01*
X100018033Y-58971630D01*
X100086793Y-58984037D01*
X100100178Y-58991818D01*
X100154014Y-59027790D01*
X100154027Y-59027797D01*
X100299698Y-59088135D01*
X100299703Y-59088137D01*
X100454353Y-59118899D01*
X100454356Y-59118900D01*
X100454358Y-59118900D01*
X100612044Y-59118900D01*
X100612045Y-59118899D01*
X100766697Y-59088137D01*
X100912379Y-59027794D01*
X101043489Y-58940189D01*
X101154989Y-58828689D01*
X101242594Y-58697579D01*
X101302937Y-58551897D01*
X101333700Y-58397242D01*
X101333700Y-58239558D01*
X101333700Y-58239555D01*
X101333699Y-58239553D01*
X101320740Y-58174404D01*
X101302937Y-58084903D01*
X101265160Y-57993700D01*
X101242597Y-57939227D01*
X101242590Y-57939214D01*
X101154989Y-57808111D01*
X101154986Y-57808107D01*
X101043492Y-57696613D01*
X101043488Y-57696610D01*
X100912385Y-57609009D01*
X100912372Y-57609002D01*
X100766701Y-57548664D01*
X100766689Y-57548661D01*
X100612045Y-57517900D01*
X100612042Y-57517900D01*
X100454358Y-57517900D01*
X100454355Y-57517900D01*
X100299710Y-57548661D01*
X100299698Y-57548664D01*
X100154027Y-57609002D01*
X100154020Y-57609006D01*
X100133128Y-57622966D01*
X100097155Y-57647002D01*
X100079108Y-57652653D01*
X100063200Y-57662877D01*
X100032240Y-57667328D01*
X100030479Y-57667880D01*
X100028265Y-57667900D01*
X99828900Y-57667900D01*
X99761861Y-57648215D01*
X99716106Y-57595411D01*
X99704900Y-57543900D01*
X99704899Y-56965281D01*
X99724583Y-56898242D01*
X99777387Y-56852487D01*
X99781374Y-56850751D01*
X99921779Y-56792594D01*
X100052889Y-56704989D01*
X100164389Y-56593489D01*
X100251994Y-56462379D01*
X100312337Y-56316697D01*
X100343100Y-56162042D01*
X100343100Y-56004358D01*
X100343100Y-56004355D01*
X100343099Y-56004353D01*
X100312338Y-55849710D01*
X100312337Y-55849703D01*
X100312335Y-55849698D01*
X100251997Y-55704027D01*
X100251990Y-55704014D01*
X100164389Y-55572911D01*
X100164386Y-55572907D01*
X100052892Y-55461413D01*
X100052888Y-55461410D01*
X99921785Y-55373809D01*
X99921772Y-55373802D01*
X99776101Y-55313464D01*
X99776089Y-55313461D01*
X99621445Y-55282700D01*
X99621442Y-55282700D01*
X99463758Y-55282700D01*
X99463755Y-55282700D01*
X99309110Y-55313461D01*
X99309098Y-55313464D01*
X99170952Y-55370686D01*
X99101483Y-55378155D01*
X99076048Y-55370686D01*
X98937901Y-55313464D01*
X98937889Y-55313461D01*
X98783245Y-55282700D01*
X98783242Y-55282700D01*
X98625558Y-55282700D01*
X98625555Y-55282700D01*
X98470910Y-55313461D01*
X98470898Y-55313464D01*
X98325227Y-55373802D01*
X98325214Y-55373809D01*
X98194111Y-55461410D01*
X98194107Y-55461413D01*
X98082613Y-55572907D01*
X98082610Y-55572911D01*
X97995009Y-55704014D01*
X97995002Y-55704027D01*
X97934664Y-55849698D01*
X97934661Y-55849710D01*
X97903900Y-56004353D01*
X97903900Y-56162046D01*
X97934661Y-56316689D01*
X97934664Y-56316701D01*
X97941503Y-56333211D01*
X97948972Y-56402680D01*
X97917697Y-56465159D01*
X97901254Y-56479929D01*
X97846852Y-56520654D01*
X97760606Y-56635863D01*
X97760602Y-56635870D01*
X97710308Y-56770716D01*
X97703901Y-56830315D01*
X97703900Y-56830334D01*
X97703900Y-57517284D01*
X97696106Y-57543824D01*
X97691603Y-57571122D01*
X97686400Y-57576880D01*
X97684215Y-57584323D01*
X97663311Y-57602436D01*
X97644763Y-57622966D01*
X97635372Y-57626645D01*
X97631411Y-57630078D01*
X97612362Y-57636960D01*
X97608255Y-57638073D01*
X97525073Y-57654620D01*
X97482980Y-57672054D01*
X97475321Y-57674132D01*
X97470652Y-57674035D01*
X97456113Y-57677745D01*
X97448083Y-57678608D01*
X97396917Y-57684108D01*
X97262072Y-57734402D01*
X97262065Y-57734406D01*
X97146856Y-57820652D01*
X97146853Y-57820655D01*
X97060607Y-57935864D01*
X97060603Y-57935871D01*
X97010311Y-58070713D01*
X97010310Y-58070717D01*
X97003901Y-58130327D01*
X97003901Y-58130334D01*
X97003901Y-58130335D01*
X97003901Y-58526070D01*
X97003902Y-58526076D01*
X97010309Y-58585681D01*
X97021083Y-58614566D01*
X97022098Y-58620196D01*
X97023878Y-58622965D01*
X97028901Y-58657900D01*
X97028901Y-58719837D01*
X97009216Y-58786876D01*
X96992582Y-58807518D01*
X96988938Y-58811161D01*
X96988935Y-58811165D01*
X96890390Y-58958646D01*
X96890383Y-58958659D01*
X96822506Y-59122532D01*
X96822503Y-59122541D01*
X96787900Y-59296504D01*
X79573912Y-59296504D01*
X79573868Y-59291519D01*
X79553917Y-57047068D01*
X79573005Y-56979856D01*
X79625400Y-56933634D01*
X79678470Y-56921967D01*
X90805000Y-56972200D01*
X94659409Y-54251440D01*
X94725529Y-54228862D01*
X94730106Y-54228748D01*
X102414999Y-54179007D01*
X102482163Y-54198257D01*
G37*
%TD.AperFunction*%
%TD*%
%TA.AperFunction,Conductor*%
%TO.N,GND*%
G36*
X127069949Y-48203534D02*
G01*
X127115749Y-48256298D01*
X127127000Y-48307908D01*
X127127000Y-69878574D01*
X127107315Y-69945613D01*
X127054511Y-69991368D01*
X127003174Y-70002574D01*
X109192950Y-70027623D01*
X109125883Y-70008033D01*
X109080054Y-69955293D01*
X109068782Y-69902455D01*
X109118400Y-64643000D01*
X109118400Y-64642999D01*
X102510537Y-64667935D01*
X102443424Y-64648504D01*
X102397470Y-64595873D01*
X102386076Y-64545269D01*
X102363348Y-62431533D01*
X102382311Y-62364286D01*
X102434620Y-62317966D01*
X102487341Y-62306200D01*
X105663999Y-62306200D01*
X105664000Y-62306200D01*
X105740200Y-53314600D01*
X105740198Y-53314600D01*
X105740199Y-53314599D01*
X98017238Y-53339593D01*
X97950135Y-53320126D01*
X97904210Y-53267470D01*
X97892843Y-53214370D01*
X97941185Y-48331863D01*
X97961532Y-48265024D01*
X98014787Y-48219794D01*
X98065069Y-48209093D01*
X127002892Y-48183908D01*
X127069949Y-48203534D01*
G37*
%TD.AperFunction*%
%TD*%
%TA.AperFunction,Conductor*%
%TO.N,/Vout*%
G36*
X126966616Y-39547679D02*
G01*
X127033634Y-39567430D01*
X127079337Y-39620280D01*
X127090459Y-39668861D01*
X127251119Y-46736269D01*
X127232963Y-46803738D01*
X127181213Y-46850682D01*
X127127237Y-46863087D01*
X90537106Y-46888400D01*
X86749707Y-54566257D01*
X86702396Y-54617671D01*
X86638501Y-54635400D01*
X78841600Y-54635400D01*
X78841600Y-63550800D01*
X84443558Y-63525952D01*
X84510683Y-63545339D01*
X84556672Y-63597940D01*
X84568107Y-63649951D01*
X84568107Y-66321307D01*
X84548422Y-66388346D01*
X84495618Y-66434101D01*
X84443019Y-66445302D01*
X76006114Y-66371294D01*
X75939250Y-66351022D01*
X75893960Y-66297819D01*
X75883217Y-66245401D01*
X75922943Y-63649951D01*
X76109907Y-51435000D01*
X76123800Y-46177200D01*
X76123800Y-42429911D01*
X77940300Y-42429911D01*
X77940300Y-42672488D01*
X77971961Y-42912985D01*
X78034747Y-43147304D01*
X78127573Y-43371405D01*
X78127576Y-43371412D01*
X78248864Y-43581489D01*
X78248866Y-43581492D01*
X78248867Y-43581493D01*
X78396533Y-43773936D01*
X78396539Y-43773943D01*
X78568056Y-43945460D01*
X78568062Y-43945465D01*
X78760511Y-44093136D01*
X78970588Y-44214424D01*
X79194700Y-44307254D01*
X79429011Y-44370038D01*
X79609386Y-44393784D01*
X79669511Y-44401700D01*
X79669512Y-44401700D01*
X79912089Y-44401700D01*
X79960188Y-44395367D01*
X80152589Y-44370038D01*
X80386900Y-44307254D01*
X80611012Y-44214424D01*
X80821089Y-44093136D01*
X81013538Y-43945465D01*
X81185065Y-43773938D01*
X81332736Y-43581489D01*
X81454024Y-43371412D01*
X81546854Y-43147300D01*
X81609638Y-42912989D01*
X81641300Y-42672488D01*
X81641300Y-42429912D01*
X81641300Y-42429911D01*
X122180300Y-42429911D01*
X122180300Y-42672488D01*
X122211961Y-42912985D01*
X122274747Y-43147304D01*
X122367573Y-43371405D01*
X122367576Y-43371412D01*
X122488864Y-43581489D01*
X122488866Y-43581492D01*
X122488867Y-43581493D01*
X122636533Y-43773936D01*
X122636539Y-43773943D01*
X122808056Y-43945460D01*
X122808062Y-43945465D01*
X123000511Y-44093136D01*
X123210588Y-44214424D01*
X123434700Y-44307254D01*
X123669011Y-44370038D01*
X123849386Y-44393784D01*
X123909511Y-44401700D01*
X123909512Y-44401700D01*
X124152089Y-44401700D01*
X124200188Y-44395367D01*
X124392589Y-44370038D01*
X124626900Y-44307254D01*
X124851012Y-44214424D01*
X125061089Y-44093136D01*
X125253538Y-43945465D01*
X125425065Y-43773938D01*
X125572736Y-43581489D01*
X125694024Y-43371412D01*
X125786854Y-43147300D01*
X125849638Y-42912989D01*
X125881300Y-42672488D01*
X125881300Y-42429912D01*
X125849638Y-42189411D01*
X125786854Y-41955100D01*
X125694024Y-41730988D01*
X125572736Y-41520911D01*
X125425065Y-41328462D01*
X125425060Y-41328456D01*
X125253543Y-41156939D01*
X125253536Y-41156933D01*
X125061093Y-41009267D01*
X125061092Y-41009266D01*
X125061089Y-41009264D01*
X124851012Y-40887976D01*
X124851005Y-40887973D01*
X124626904Y-40795147D01*
X124392585Y-40732361D01*
X124152089Y-40700700D01*
X124152088Y-40700700D01*
X123909512Y-40700700D01*
X123909511Y-40700700D01*
X123669014Y-40732361D01*
X123434695Y-40795147D01*
X123210594Y-40887973D01*
X123210585Y-40887977D01*
X123000506Y-41009267D01*
X122808063Y-41156933D01*
X122808056Y-41156939D01*
X122636539Y-41328456D01*
X122636533Y-41328463D01*
X122488867Y-41520906D01*
X122367577Y-41730985D01*
X122367573Y-41730994D01*
X122274747Y-41955095D01*
X122211961Y-42189414D01*
X122180300Y-42429911D01*
X81641300Y-42429911D01*
X81609638Y-42189411D01*
X81546854Y-41955100D01*
X81454024Y-41730988D01*
X81332736Y-41520911D01*
X81185065Y-41328462D01*
X81185060Y-41328456D01*
X81013543Y-41156939D01*
X81013536Y-41156933D01*
X80821093Y-41009267D01*
X80821092Y-41009266D01*
X80821089Y-41009264D01*
X80611012Y-40887976D01*
X80611005Y-40887973D01*
X80386904Y-40795147D01*
X80152585Y-40732361D01*
X79912089Y-40700700D01*
X79912088Y-40700700D01*
X79669512Y-40700700D01*
X79669511Y-40700700D01*
X79429014Y-40732361D01*
X79194695Y-40795147D01*
X78970594Y-40887973D01*
X78970585Y-40887977D01*
X78760506Y-41009267D01*
X78568063Y-41156933D01*
X78568056Y-41156939D01*
X78396539Y-41328456D01*
X78396533Y-41328463D01*
X78248867Y-41520906D01*
X78127577Y-41730985D01*
X78127573Y-41730994D01*
X78034747Y-41955095D01*
X77971961Y-42189414D01*
X77940300Y-42429911D01*
X76123800Y-42429911D01*
X76123800Y-39621123D01*
X76143485Y-39554084D01*
X76196289Y-39508329D01*
X76247920Y-39497123D01*
X126966616Y-39547679D01*
G37*
%TD.AperFunction*%
%TD*%
M02*
