M48
; DRILL file {KiCad 9.0.6} date 2026-03-06T01:42:56-0600
; FORMAT={-:-/ absolute / metric / decimal}
; #@! TF.CreationDate,2026-03-06T01:42:56-06:00
; #@! TF.GenerationSoftware,Kicad,Pcbnew,9.0.6
; #@! TF.FileFunction,Plated,1,4,PTH
FMAT,2
METRIC
; #@! TA.AperFunction,Plated,PTH,ComponentDrill
T1C0.203
; #@! TA.AperFunction,Plated,PTH,ViaDrill
T2C0.300
; #@! TA.AperFunction,Plated,PTH,ViaDrill
T3C0.400
; #@! TA.AperFunction,Plated,PTH,ViaDrill
T4C0.500
; #@! TA.AperFunction,Plated,PTH,ComponentDrill
T5C1.854
%
G90
G05
T1
X90.23Y-69.461
X90.83Y-68.361
X90.83Y-70.561
X91.43Y-69.461
X102.83Y-62.787
X102.83Y-63.663
X103.805Y-62.349
X103.805Y-63.225
X103.805Y-64.101
X104.78Y-62.787
X104.78Y-63.663
T2
X74.27Y-69.494
X77.699Y-72.822
X77.724Y-69.52
X80.645Y-42.189
X80.645Y-43.155
X80.848Y-72.822
X80.848Y-75.997
X80.874Y-69.52
X81.661Y-42.189
X81.661Y-43.155
X82.829Y-42.164
X82.829Y-43.129
X83.922Y-42.164
X83.922Y-43.129
X84.988Y-42.164
X84.988Y-43.129
X87.274Y-66.827
X88.255Y-66.37
X89.411Y-72.291
X90.576Y-72.898
X91.897Y-45.263
X91.897Y-48.768
X91.897Y-51.816
X92.786Y-76.276
X93.929Y-62.255
X93.98Y-63.856
X95.453Y-45.263
X95.453Y-48.768
X95.453Y-51.816
X98.577Y-37.656
X98.603Y-36.64
X99.67Y-48.705
X99.695Y-47.74
X99.72Y-37.656
X99.746Y-36.64
X100.686Y-48.705
X100.762Y-36.64
X100.99Y-62.179
X101.016Y-61.036
X101.6Y-48.705
X101.676Y-36.64
X102.565Y-48.705
X102.641Y-36.64
X102.946Y-66.726
X102.972Y-65.786
X103.505Y-47.765
X103.505Y-48.705
X103.556Y-37.631
X103.581Y-36.64
X104.013Y-66.726
X104.038Y-65.786
X104.673Y-37.631
X104.699Y-36.64
X105.131Y-66.726
X105.156Y-65.786
X105.715Y-60.046
X106.731Y-60.046
X109.331Y-46.618
X109.331Y-47.787
X109.331Y-48.981
X109.356Y-45.45
X109.356Y-50.149
X109.375Y-76.073
X109.375Y-77.241
X109.4Y-72.542
X109.4Y-73.66
X109.4Y-74.828
X109.407Y-37.22
X109.407Y-38.363
X109.432Y-39.557
X109.432Y-40.776
X109.432Y-42.021
X109.753Y-56.921
X109.753Y-60.985
X109.906Y-52.857
X110.372Y-37.22
X110.372Y-38.363
X110.398Y-39.557
X110.398Y-40.776
X110.398Y-42.021
X110.525Y-46.618
X110.525Y-47.787
X110.525Y-48.955
X110.543Y-76.048
X110.543Y-77.216
X110.55Y-45.45
X110.55Y-50.174
X110.568Y-72.517
X110.568Y-73.635
X110.568Y-74.803
X113.792Y-56.896
X113.792Y-60.96
X113.944Y-52.832
X117.856Y-56.896
X117.856Y-60.96
X118.008Y-52.832
X121.996Y-52.832
X121.996Y-56.896
X121.996Y-60.96
X125.375Y-65.068
X125.375Y-66.237
X125.375Y-67.431
X125.4Y-63.9
X125.4Y-68.599
X126.009Y-52.832
X126.009Y-56.896
X126.009Y-60.96
X126.086Y-49.022
X126.568Y-65.068
X126.568Y-66.237
X126.568Y-67.405
X126.594Y-63.9
X126.594Y-68.624
X129.438Y-52.857
X129.438Y-56.921
X129.438Y-60.985
X129.438Y-65.075
X129.515Y-49.047
T3
X79.781Y-65.532
X79.807Y-64.389
X80.797Y-65.532
X80.848Y-64.389
X81.839Y-64.389
X81.839Y-65.532
X82.855Y-64.364
X82.855Y-65.532
X83.845Y-64.364
X83.845Y-65.532
X98.247Y-74.371
X98.247Y-76.302
X100.025Y-74.371
X100.025Y-76.302
X101.752Y-74.371
X101.752Y-76.302
X103.403Y-74.371
X103.403Y-76.302
X105.131Y-74.346
X105.258Y-76.302
T4
X91.059Y-59.182
X93.574Y-71.222
X93.693Y-67.429
X97.028Y-59.131
T5
X116.269Y-40.018
X116.269Y-47.638
X116.269Y-66.307
X116.269Y-73.927
M30
