%TF.GenerationSoftware,KiCad,Pcbnew,9.0.6*%
%TF.CreationDate,2026-03-06T01:43:04-06:00*%
%TF.ProjectId,IRIS_Converter,49524953-5f43-46f6-9e76-65727465722e,rev?*%
%TF.SameCoordinates,Original*%
%TF.FileFunction,Soldermask,Top*%
%TF.FilePolarity,Negative*%
%FSLAX46Y46*%
G04 Gerber Fmt 4.6, Leading zero omitted, Abs format (unit mm)*
G04 Created by KiCad (PCBNEW 9.0.6) date 2026-03-06 01:43:04*
%MOMM*%
%LPD*%
G01*
G04 APERTURE LIST*
%ADD10C,0.000000*%
%ADD11C,2.463800*%
%ADD12R,0.439999X0.750001*%
%ADD13C,0.499999*%
%ADD14R,4.953000X3.225800*%
%ADD15R,1.498600X3.302000*%
%ADD16R,0.299999X0.449999*%
%ADD17R,0.299999X0.750001*%
%ADD18R,0.950001X1.000000*%
%ADD19C,3.200000*%
%ADD20R,2.692400X1.244600*%
G04 APERTURE END LIST*
D10*
%TO.C,Q2*%
G36*
X104986737Y-62002223D02*
G01*
X104996727Y-62005253D01*
X105005932Y-62010176D01*
X105014001Y-62016798D01*
X105020623Y-62024867D01*
X105025546Y-62034072D01*
X105028576Y-62044062D01*
X105029597Y-62054451D01*
X105029597Y-63722951D01*
X105028576Y-63733340D01*
X105025546Y-63743330D01*
X105020623Y-63752535D01*
X105014001Y-63760604D01*
X105005932Y-63767226D01*
X104996727Y-63772149D01*
X104986737Y-63775179D01*
X104976348Y-63776202D01*
X102632848Y-63776202D01*
X102622459Y-63775179D01*
X102612469Y-63772149D01*
X102603264Y-63767226D01*
X102595195Y-63760604D01*
X102588573Y-63752535D01*
X102583650Y-63743330D01*
X102580620Y-63733340D01*
X102579599Y-63722951D01*
X102579599Y-62054451D01*
X102580620Y-62044062D01*
X102583650Y-62034072D01*
X102588573Y-62024867D01*
X102595195Y-62016798D01*
X102603264Y-62010176D01*
X102612469Y-62005253D01*
X102622459Y-62002223D01*
X102632848Y-62001202D01*
X104976348Y-62001202D01*
X104986737Y-62002223D01*
G37*
G36*
X102959916Y-63487148D02*
G01*
X102969164Y-63489952D01*
X102977688Y-63494509D01*
X102985158Y-63500640D01*
X102991290Y-63508110D01*
X102995847Y-63516635D01*
X102998651Y-63525883D01*
X102999598Y-63535499D01*
X102999598Y-63936901D01*
X102998651Y-63946517D01*
X102995847Y-63955765D01*
X102991290Y-63964289D01*
X102985158Y-63971760D01*
X102977688Y-63977891D01*
X102969164Y-63982448D01*
X102959916Y-63985252D01*
X102950299Y-63986199D01*
X102708898Y-63986199D01*
X102699281Y-63985252D01*
X102690033Y-63982448D01*
X102681509Y-63977891D01*
X102674039Y-63971760D01*
X102667907Y-63964289D01*
X102663351Y-63955765D01*
X102660546Y-63946517D01*
X102659599Y-63936901D01*
X102659599Y-63535499D01*
X102660546Y-63525883D01*
X102663351Y-63516635D01*
X102667907Y-63508110D01*
X102674039Y-63500640D01*
X102681509Y-63494509D01*
X102690033Y-63489952D01*
X102699281Y-63487148D01*
X102708898Y-63486200D01*
X102950299Y-63486200D01*
X102959916Y-63487148D01*
G37*
G36*
X103609917Y-63487148D02*
G01*
X103619165Y-63489952D01*
X103627690Y-63494509D01*
X103635160Y-63500640D01*
X103641291Y-63508110D01*
X103645848Y-63516635D01*
X103648652Y-63525883D01*
X103649600Y-63535499D01*
X103649600Y-63936901D01*
X103648652Y-63946517D01*
X103645848Y-63955765D01*
X103641291Y-63964289D01*
X103635160Y-63971760D01*
X103627690Y-63977891D01*
X103619165Y-63982448D01*
X103609917Y-63985252D01*
X103600301Y-63986199D01*
X103358899Y-63986199D01*
X103349283Y-63985252D01*
X103340035Y-63982448D01*
X103331510Y-63977891D01*
X103324040Y-63971760D01*
X103317909Y-63964289D01*
X103313352Y-63955765D01*
X103310548Y-63946517D01*
X103309600Y-63936901D01*
X103309600Y-63535499D01*
X103310548Y-63525883D01*
X103313352Y-63516635D01*
X103317909Y-63508110D01*
X103324040Y-63500640D01*
X103331510Y-63494509D01*
X103340035Y-63489952D01*
X103349283Y-63487148D01*
X103358899Y-63486200D01*
X103600301Y-63486200D01*
X103609917Y-63487148D01*
G37*
G36*
X104259913Y-63487148D02*
G01*
X104269161Y-63489952D01*
X104277686Y-63494509D01*
X104285156Y-63500640D01*
X104291287Y-63508110D01*
X104295844Y-63516635D01*
X104298648Y-63525883D01*
X104299596Y-63535499D01*
X104299596Y-63936901D01*
X104298648Y-63946517D01*
X104295844Y-63955765D01*
X104291287Y-63964289D01*
X104285156Y-63971760D01*
X104277686Y-63977891D01*
X104269161Y-63982448D01*
X104259913Y-63985252D01*
X104250297Y-63986199D01*
X104008895Y-63986199D01*
X103999279Y-63985252D01*
X103990031Y-63982448D01*
X103981506Y-63977891D01*
X103974036Y-63971760D01*
X103967905Y-63964289D01*
X103963348Y-63955765D01*
X103960544Y-63946517D01*
X103959596Y-63936901D01*
X103959596Y-63535499D01*
X103960544Y-63525883D01*
X103963348Y-63516635D01*
X103967905Y-63508110D01*
X103974036Y-63500640D01*
X103981506Y-63494509D01*
X103990031Y-63489952D01*
X103999279Y-63487148D01*
X104008895Y-63486200D01*
X104250297Y-63486200D01*
X104259913Y-63487148D01*
G37*
G36*
X104909915Y-63487148D02*
G01*
X104919163Y-63489952D01*
X104927687Y-63494509D01*
X104935157Y-63500640D01*
X104941289Y-63508110D01*
X104945845Y-63516635D01*
X104948650Y-63525883D01*
X104949597Y-63535499D01*
X104949597Y-63936901D01*
X104948650Y-63946517D01*
X104945845Y-63955765D01*
X104941289Y-63964289D01*
X104935157Y-63971760D01*
X104927687Y-63977891D01*
X104919163Y-63982448D01*
X104909915Y-63985252D01*
X104900298Y-63986199D01*
X104658897Y-63986199D01*
X104649280Y-63985252D01*
X104640032Y-63982448D01*
X104631508Y-63977891D01*
X104624038Y-63971760D01*
X104617906Y-63964289D01*
X104613349Y-63955765D01*
X104610545Y-63946517D01*
X104609598Y-63936901D01*
X104609598Y-63535499D01*
X104610545Y-63525883D01*
X104613349Y-63516635D01*
X104617906Y-63508110D01*
X104624038Y-63500640D01*
X104631508Y-63494509D01*
X104640032Y-63489952D01*
X104649280Y-63487148D01*
X104658897Y-63486200D01*
X104900298Y-63486200D01*
X104909915Y-63487148D01*
G37*
%TD*%
D11*
%TO.C,J2*%
X116269001Y-47638200D03*
X116269001Y-40018200D03*
%TD*%
%TO.C,J1*%
X116269001Y-73926700D03*
X116269001Y-66306700D03*
%TD*%
D12*
%TO.C,Q2*%
X104779600Y-61036200D03*
X104129599Y-61036200D03*
X103479600Y-61036200D03*
X102829599Y-61036200D03*
X102829599Y-64086202D03*
X103479597Y-64086202D03*
X104129599Y-64086202D03*
X104779597Y-64086202D03*
D13*
X103804598Y-62349200D03*
X104779597Y-62787200D03*
X102829599Y-62787200D03*
X103804598Y-63225200D03*
X104779597Y-63663200D03*
X102829599Y-63663200D03*
X103804598Y-64101203D03*
%TD*%
D14*
%TO.C,1.2uH1*%
X82829400Y-57359800D03*
X82829400Y-46564800D03*
%TD*%
D15*
%TO.C,Cout1*%
X101597200Y-39281600D03*
X101597200Y-46190400D03*
%TD*%
D16*
%TO.C,Q1*%
X103484800Y-60045600D03*
X104134801Y-60045600D03*
X104784800Y-60045600D03*
X104784800Y-58095599D03*
X104134801Y-58095599D03*
X103484800Y-58095599D03*
D17*
X104784802Y-58975600D03*
D18*
X103809800Y-59070601D03*
%TD*%
D19*
%TO.C,REF\u002A\u002A*%
X129060800Y-36721200D03*
%TD*%
D20*
%TO.C,Cin1*%
X107492800Y-64541400D03*
X107492800Y-61569600D03*
%TD*%
D19*
%TO.C,REF\u002A\u002A*%
X129060800Y-75431200D03*
%TD*%
%TO.C,REF\u002A\u002A*%
X74260800Y-36721200D03*
%TD*%
%TO.C,REF\u002A\u002A*%
X74260800Y-75431200D03*
%TD*%
D13*
%TO.C,U1*%
X90230401Y-69461200D03*
X90830400Y-68361200D03*
X90830400Y-70561200D03*
X91430399Y-69461200D03*
%TD*%
M02*
