%TF.GenerationSoftware,KiCad,Pcbnew,9.0.6*%
%TF.CreationDate,2026-03-06T01:43:04-06:00*%
%TF.ProjectId,IRIS_Converter,49524953-5f43-46f6-9e76-65727465722e,rev?*%
%TF.SameCoordinates,Original*%
%TF.FileFunction,Copper,L4,Bot*%
%TF.FilePolarity,Positive*%
%FSLAX46Y46*%
G04 Gerber Fmt 4.6, Leading zero omitted, Abs format (unit mm)*
G04 Created by KiCad (PCBNEW 9.0.6) date 2026-03-06 01:43:04*
%MOMM*%
%LPD*%
G01*
G04 APERTURE LIST*
%TA.AperFunction,ComponentPad*%
%ADD10C,2.463800*%
%TD*%
%TA.AperFunction,ComponentPad*%
%ADD11C,0.499999*%
%TD*%
%TA.AperFunction,SMDPad,CuDef*%
%ADD12R,0.558800X0.889000*%
%TD*%
%TA.AperFunction,SMDPad,CuDef*%
%ADD13R,0.499999X0.655599*%
%TD*%
%TA.AperFunction,SMDPad,CuDef*%
%ADD14R,0.609600X0.508000*%
%TD*%
%TA.AperFunction,SMDPad,CuDef*%
%ADD15R,0.968200X1.010000*%
%TD*%
%TA.AperFunction,SMDPad,CuDef*%
%ADD16R,0.655599X0.499999*%
%TD*%
%TA.AperFunction,SMDPad,CuDef*%
%ADD17R,0.558800X0.508000*%
%TD*%
%TA.AperFunction,SMDPad,CuDef*%
%ADD18R,0.508000X0.558800*%
%TD*%
%TA.AperFunction,SMDPad,CuDef*%
%ADD19R,1.803400X0.558800*%
%TD*%
%TA.AperFunction,SMDPad,CuDef*%
%ADD20R,0.249999X0.599999*%
%TD*%
%TA.AperFunction,SMDPad,CuDef*%
%ADD21R,0.599999X0.249999*%
%TD*%
%TA.AperFunction,SMDPad,CuDef*%
%ADD22R,1.699999X2.700000*%
%TD*%
%TA.AperFunction,SMDPad,CuDef*%
%ADD23R,0.812800X0.762000*%
%TD*%
%TA.AperFunction,SMDPad,CuDef*%
%ADD24R,0.939800X0.711200*%
%TD*%
%TA.AperFunction,SMDPad,CuDef*%
%ADD25R,0.762000X0.812800*%
%TD*%
%TA.AperFunction,SMDPad,CuDef*%
%ADD26R,0.508000X0.609600*%
%TD*%
%TA.AperFunction,ViaPad*%
%ADD27C,0.600000*%
%TD*%
%TA.AperFunction,ViaPad*%
%ADD28C,1.000000*%
%TD*%
%TA.AperFunction,ViaPad*%
%ADD29C,0.800000*%
%TD*%
%TA.AperFunction,Conductor*%
%ADD30C,0.200000*%
%TD*%
%TA.AperFunction,Conductor*%
%ADD31C,0.250000*%
%TD*%
%TA.AperFunction,Conductor*%
%ADD32C,0.400000*%
%TD*%
%TA.AperFunction,Conductor*%
%ADD33C,0.300000*%
%TD*%
G04 APERTURE END LIST*
D10*
%TO.P,J2,1,1*%
%TO.N,GND*%
X116269001Y-47638200D03*
%TO.P,J2,2,2*%
%TO.N,/Vout*%
X116269001Y-40018200D03*
%TD*%
%TO.P,J1,1,1*%
%TO.N,/Vin*%
X116269001Y-73926700D03*
%TO.P,J1,2,2*%
%TO.N,GND*%
X116269001Y-66306700D03*
%TD*%
D11*
%TO.P,Q2,V*%
%TO.N,/Vin*%
X103804598Y-62349200D03*
X104779597Y-62787200D03*
X102829599Y-62787200D03*
X103804598Y-63225200D03*
X104779597Y-63663200D03*
X102829599Y-63663200D03*
X103804598Y-64101203D03*
%TD*%
D12*
%TO.P,Cvin1,1*%
%TO.N,GND*%
X90532651Y-74236999D03*
%TO.P,Cvin1,2*%
%TO.N,Net-(U1-VIN)*%
X92386851Y-74236999D03*
%TD*%
D13*
%TO.P,Rfbb1,1*%
%TO.N,Net-(U1-FB)*%
X87160801Y-69668799D03*
%TO.P,Rfbb1,2*%
%TO.N,GND*%
X87160801Y-68563201D03*
%TD*%
D14*
%TO.P,Ccomp2,1*%
%TO.N,Net-(U1-COMP)*%
X85572600Y-71069200D03*
%TO.P,Ccomp2,2*%
%TO.N,Net-(U1-FB)*%
X84480400Y-71069200D03*
%TD*%
D15*
%TO.P,Cilim1,1*%
%TO.N,Net-(U1-ILIM)*%
X91369301Y-64211200D03*
%TO.P,Cilim1,2*%
%TO.N,GND*%
X92577501Y-64211200D03*
%TD*%
D14*
%TO.P,Ccomp3,1*%
%TO.N,Net-(Ccomp3-Pad1)*%
X82829400Y-69748400D03*
%TO.P,Ccomp3,2*%
%TO.N,Net-(U1-FB)*%
X83921600Y-69748400D03*
%TD*%
D16*
%TO.P,Ruv1,1*%
%TO.N,/Vin*%
X95009750Y-76265751D03*
%TO.P,Ruv1,2*%
%TO.N,/EN{slash}UVLO*%
X93904152Y-76265751D03*
%TD*%
D17*
%TO.P,Rt1,1*%
%TO.N,Net-(U1-RT)*%
X86684551Y-74284551D03*
%TO.P,Rt1,2*%
%TO.N,GND*%
X86684551Y-75224351D03*
%TD*%
D18*
%TO.P,Rilim1,1*%
%TO.N,Net-(U1-ILIM)*%
X92100400Y-65836800D03*
%TO.P,Rilim1,2*%
%TO.N,/SW*%
X91160600Y-65836800D03*
%TD*%
D14*
%TO.P,Ccomp1,1*%
%TO.N,Net-(U1-COMP)*%
X85559900Y-72440800D03*
%TO.P,Ccomp1,2*%
%TO.N,Net-(Ccomp1-Pad2)*%
X84467700Y-72440800D03*
%TD*%
D16*
%TO.P,Rvin1,1*%
%TO.N,/Vin*%
X95029149Y-74436951D03*
%TO.P,Rvin1,2*%
%TO.N,Net-(U1-VIN)*%
X93923551Y-74436951D03*
%TD*%
D19*
%TO.P,Cvcc1,1*%
%TO.N,Net-(U1-VCC)*%
X95758000Y-68910200D03*
%TO.P,Cvcc1,2*%
%TO.N,GND*%
X95758000Y-65354200D03*
%TD*%
D17*
%TO.P,Rcomp1,1*%
%TO.N,Net-(Ccomp1-Pad2)*%
X82880200Y-72199500D03*
%TO.P,Rcomp1,2*%
%TO.N,Net-(U1-FB)*%
X82880200Y-71259700D03*
%TD*%
D12*
%TO.P,Cbst1,1*%
%TO.N,Net-(U1-BST)*%
X94856300Y-70459600D03*
%TO.P,Cbst1,2*%
%TO.N,/SW*%
X96710500Y-70459600D03*
%TD*%
D20*
%TO.P,U1,1,EN/UVLO*%
%TO.N,/EN{slash}UVLO*%
X90080399Y-71611201D03*
D21*
%TO.P,U1,2,RT*%
%TO.N,Net-(U1-RT)*%
X89180401Y-71211199D03*
%TO.P,U1,3,SS/TRK*%
%TO.N,/SS{slash}TRK*%
X89180401Y-70711200D03*
%TO.P,U1,4,COMP*%
%TO.N,Net-(U1-COMP)*%
X89180401Y-70211198D03*
%TO.P,U1,5,FB*%
%TO.N,Net-(U1-FB)*%
X89180401Y-69711200D03*
%TO.P,U1,6,AGND*%
%TO.N,GND*%
X89180401Y-69211198D03*
%TO.P,U1,7,SYNCOUT*%
%TO.N,unconnected-(U1-SYNCOUT-Pad7)*%
X89180401Y-68711199D03*
%TO.P,U1,8,SYNCIN*%
%TO.N,/SYNCin*%
X89180401Y-68211200D03*
%TO.P,U1,9,NC*%
%TO.N,unconnected-(U1-NC-Pad9)*%
X89180401Y-67711201D03*
D20*
%TO.P,U1,10,PGOOD*%
%TO.N,Net-(U1-PGOOD)*%
X90080399Y-67311199D03*
%TO.P,U1,11,ILIM*%
%TO.N,Net-(U1-ILIM)*%
X91580401Y-67311199D03*
D21*
%TO.P,U1,12,PGND*%
%TO.N,GND*%
X92480399Y-67711201D03*
%TO.P,U1,13,LO*%
%TO.N,Net-(U1-LO)*%
X92480399Y-68211200D03*
%TO.P,U1,14,VCC*%
%TO.N,Net-(U1-VCC)*%
X92480399Y-68711202D03*
%TO.P,U1,15,EP*%
%TO.N,GND*%
X92480399Y-69211200D03*
%TO.P,U1,16,NC__1*%
%TO.N,unconnected-(U1-NC__1-Pad16)*%
X92480399Y-69711202D03*
%TO.P,U1,17,BST*%
%TO.N,Net-(U1-BST)*%
X92480399Y-70211201D03*
%TO.P,U1,18,HO*%
%TO.N,Net-(U1-HO)*%
X92480399Y-70711200D03*
%TO.P,U1,19,SW*%
%TO.N,/SW*%
X92480399Y-71211202D03*
D20*
%TO.P,U1,20,VIN*%
%TO.N,Net-(U1-VIN)*%
X91580401Y-71611201D03*
D22*
%TO.P,U1,21,EP__1*%
%TO.N,GND*%
X90830400Y-69461200D03*
D11*
%TO.P,U1,V,V*%
X90230401Y-69461200D03*
X90830400Y-68361200D03*
X90830400Y-70561200D03*
X91430399Y-69461200D03*
%TD*%
D23*
%TO.P,Rfbt1,1*%
%TO.N,/Vout*%
X85674200Y-67843400D03*
%TO.P,Rfbt1,2*%
%TO.N,Net-(U1-FB)*%
X85674200Y-69392800D03*
%TD*%
D24*
%TO.P,Ruv2,1*%
%TO.N,/EN{slash}UVLO*%
X88437151Y-74360751D03*
%TO.P,Ruv2,2*%
%TO.N,GND*%
X88437151Y-75706951D03*
%TD*%
D25*
%TO.P,Rpgood1,1*%
%TO.N,Net-(U1-PGOOD)*%
X95211900Y-63855600D03*
%TO.P,Rpgood1,2*%
%TO.N,Net-(U1-VCC)*%
X96761300Y-63855600D03*
%TD*%
%TO.P,Rvcc1,1*%
%TO.N,/SYNCin*%
X95199200Y-62255400D03*
%TO.P,Rvcc1,2*%
%TO.N,Net-(U1-VCC)*%
X96748600Y-62255400D03*
%TD*%
D16*
%TO.P,Rcomp2,1*%
%TO.N,/Vout*%
X83947000Y-68427600D03*
%TO.P,Rcomp2,2*%
%TO.N,Net-(Ccomp3-Pad1)*%
X82841402Y-68427600D03*
%TD*%
D26*
%TO.P,Css1,1*%
%TO.N,/SS{slash}TRK*%
X85058951Y-74259151D03*
%TO.P,Css1,2*%
%TO.N,GND*%
X85058951Y-75351351D03*
%TD*%
D27*
%TO.N,GND*%
X129438400Y-65074800D03*
X121996200Y-56896000D03*
X91897200Y-48768000D03*
X125400000Y-63900000D03*
X99669600Y-48705000D03*
X110524600Y-47786800D03*
X91897200Y-51816000D03*
X109753400Y-60985400D03*
X74269600Y-69494400D03*
X125400000Y-68599000D03*
X110550000Y-45450000D03*
X126568400Y-65068400D03*
X109330800Y-46618400D03*
X126593800Y-68624400D03*
X113944400Y-52832000D03*
X77724000Y-69519800D03*
X126568400Y-67405200D03*
X109356200Y-50149000D03*
X95453200Y-51816000D03*
X117856000Y-56896000D03*
X91897200Y-45262800D03*
X110550000Y-50174400D03*
X117856000Y-60960000D03*
X125374600Y-66236800D03*
X80848200Y-75996800D03*
X80873600Y-69519800D03*
X100685600Y-48705000D03*
X129438400Y-60985400D03*
X125374600Y-65068400D03*
X109753400Y-56921400D03*
X109356200Y-45450000D03*
X109330800Y-47786800D03*
X126593800Y-63900000D03*
X110524600Y-48955200D03*
X103505000Y-48705000D03*
X118008400Y-52832000D03*
X109905800Y-52857400D03*
X102565200Y-48705000D03*
X129438400Y-52857400D03*
X77698600Y-72821800D03*
X126009400Y-52832000D03*
X103505000Y-47765200D03*
X126568400Y-66236800D03*
X113792000Y-56896000D03*
X101600000Y-48705000D03*
X126009400Y-56896000D03*
X126009400Y-60960000D03*
X95453200Y-45262800D03*
X121996200Y-60960000D03*
X99695000Y-47739800D03*
X95453200Y-48768000D03*
X90576400Y-72898000D03*
X125374600Y-67430600D03*
X129438400Y-56921400D03*
X110524600Y-46618400D03*
X129514600Y-49047400D03*
X80848200Y-72821800D03*
X109330800Y-48980600D03*
X121996200Y-52832000D03*
X126085600Y-49022000D03*
X113792000Y-60960000D03*
%TO.N,Net-(U1-PGOOD)*%
X93980000Y-63855600D03*
X88255000Y-66370200D03*
%TO.N,/EN{slash}UVLO*%
X92786200Y-76276200D03*
X89411100Y-72291500D03*
%TO.N,Net-(U1-HO)*%
X101015800Y-61036200D03*
X100990400Y-62179200D03*
D28*
X93573600Y-71221600D03*
D27*
%TO.N,Net-(U1-LO)*%
X105714800Y-60045600D03*
X106730800Y-60045600D03*
D28*
X93693065Y-67429465D03*
D27*
%TO.N,/Vout*%
X98577400Y-37656000D03*
X103555800Y-37630600D03*
X98602800Y-36640000D03*
X101676200Y-36640000D03*
X104673400Y-37630600D03*
X109407000Y-37220400D03*
D29*
X83845400Y-65532000D03*
D27*
X84988400Y-42164000D03*
X109432400Y-42021000D03*
D29*
X83845400Y-64363600D03*
D27*
X103581200Y-36640000D03*
X109432400Y-40776400D03*
X110397600Y-39557200D03*
D29*
X81838800Y-64389000D03*
X79781400Y-65532000D03*
X82854800Y-64363600D03*
D27*
X82829400Y-42164000D03*
X109407000Y-38363400D03*
X81661000Y-43154600D03*
X104698800Y-36640000D03*
X99745800Y-36640000D03*
D29*
X80848200Y-64389000D03*
D27*
X83921600Y-42164000D03*
X80645000Y-42189400D03*
D29*
X79806800Y-64389000D03*
D27*
X110372200Y-38363400D03*
X102641400Y-36640000D03*
X80645000Y-43154600D03*
X84988400Y-43129200D03*
D29*
X81838800Y-65532000D03*
D27*
X110397600Y-42021000D03*
X110372200Y-37220400D03*
X100761800Y-36640000D03*
D29*
X80797400Y-65532000D03*
D27*
X82829400Y-43129200D03*
D29*
X82854800Y-65532000D03*
D27*
X99720400Y-37656000D03*
X110397600Y-40776400D03*
X109432400Y-39557200D03*
X83921600Y-43129200D03*
X81661000Y-42189400D03*
%TO.N,/Vin*%
X104013000Y-66725800D03*
X109400000Y-72542400D03*
D29*
X100025200Y-74371200D03*
D27*
X102971600Y-65786000D03*
X109400000Y-73660000D03*
D29*
X105130600Y-74345800D03*
X98247200Y-74371200D03*
D27*
X110568400Y-74803000D03*
D29*
X100025200Y-76301600D03*
D27*
X110543000Y-77216000D03*
X104038400Y-65786000D03*
D29*
X101752400Y-74371200D03*
D27*
X105130600Y-66725800D03*
X102946200Y-66725800D03*
D29*
X103403400Y-74371200D03*
D27*
X110568400Y-72517000D03*
D29*
X98247200Y-76301600D03*
D27*
X105156000Y-65786000D03*
X109400000Y-74828400D03*
X110568400Y-73634600D03*
D29*
X105257600Y-76301600D03*
D27*
X110543000Y-76047600D03*
X109374600Y-77241400D03*
D29*
X103403400Y-76301600D03*
D27*
X109374600Y-76073000D03*
D29*
X101752400Y-76301600D03*
D28*
%TO.N,/SW*%
X97028000Y-59131200D03*
X91059000Y-59182000D03*
D27*
%TO.N,/SYNCin*%
X87274400Y-66827400D03*
X93929200Y-62255400D03*
%TD*%
D30*
%TO.N,Net-(U1-BST)*%
X94831601Y-70138001D02*
X94758401Y-70211201D01*
D31*
X92486000Y-70205600D02*
X94764002Y-70205600D01*
X94764002Y-70205600D02*
X94831601Y-70138001D01*
X92480399Y-70211201D02*
X92486000Y-70205600D01*
D30*
%TO.N,Net-(U1-COMP)*%
X85610700Y-72390000D02*
X85559900Y-72440800D01*
D31*
X89180401Y-70211198D02*
X88211866Y-70211198D01*
X88211866Y-70211198D02*
X87353864Y-71069200D01*
X87353864Y-71069200D02*
X85572600Y-71069200D01*
X85610700Y-71107300D02*
X85610700Y-72390000D01*
X85572600Y-71069200D02*
X85610700Y-71107300D01*
%TO.N,Net-(Ccomp1-Pad2)*%
X82880200Y-72199500D02*
X84226400Y-72199500D01*
X84226400Y-72199500D02*
X84467700Y-72440800D01*
%TO.N,Net-(U1-FB)*%
X84175600Y-71259700D02*
X82880200Y-71259700D01*
X89180401Y-69711200D02*
X87203202Y-69711200D01*
X84277200Y-69392800D02*
X83921600Y-69748400D01*
X84518500Y-70916800D02*
X84175600Y-71259700D01*
X85674200Y-69392800D02*
X84277200Y-69392800D01*
X87160801Y-69668799D02*
X85950199Y-69668799D01*
D30*
X87203202Y-69711200D02*
X87160801Y-69668799D01*
D31*
X85950199Y-69668799D02*
X85674200Y-69392800D01*
X83941700Y-70340000D02*
X84518500Y-70916800D01*
X83941700Y-69768500D02*
X83941700Y-70340000D01*
X83921600Y-69748400D02*
X83941700Y-69768500D01*
D30*
%TO.N,Net-(Ccomp3-Pad1)*%
X82829400Y-68835905D02*
X82848802Y-68816503D01*
D31*
X82841402Y-68427600D02*
X82855152Y-68441350D01*
X82855152Y-69494048D02*
X82829400Y-69519800D01*
D30*
X82829400Y-69519800D02*
X82829400Y-68835905D01*
D31*
X82855152Y-68441350D02*
X82855152Y-69494048D01*
D30*
%TO.N,GND*%
X91363000Y-68581810D02*
X91051010Y-68893800D01*
X90897798Y-68893800D02*
X90830400Y-68961198D01*
X90002169Y-68910201D02*
X90458633Y-68910201D01*
X91363000Y-68428598D02*
X91363000Y-68581810D01*
D31*
X92480399Y-67133201D02*
X93472000Y-66141600D01*
X92480399Y-67711201D02*
X92480399Y-67133201D01*
D30*
X90458633Y-68910201D02*
X90830400Y-69281968D01*
X90830400Y-69281968D02*
X90830400Y-69461200D01*
X90830400Y-68961198D02*
X90830400Y-69461200D01*
D31*
X89180401Y-69211198D02*
X87808798Y-69211198D01*
X92480399Y-69211200D02*
X91080400Y-69211200D01*
D30*
X91051010Y-68893800D02*
X90897798Y-68893800D01*
D31*
X87808798Y-69211198D02*
X87160801Y-68563201D01*
X92080397Y-67711201D02*
X91363000Y-68428598D01*
D30*
X91080400Y-69211200D02*
X90830400Y-69461200D01*
D31*
X89701172Y-69211198D02*
X90002169Y-68910201D01*
X89180401Y-69211198D02*
X89701172Y-69211198D01*
X92480399Y-67711201D02*
X92080397Y-67711201D01*
%TO.N,Net-(U1-ILIM)*%
X91369301Y-64576301D02*
X91369301Y-64211200D01*
X92100400Y-65307400D02*
X91369301Y-64576301D01*
X92100400Y-65836800D02*
X92100400Y-65307400D01*
X91580401Y-67169599D02*
X92100400Y-66649600D01*
X92100400Y-66649600D02*
X92100400Y-65836800D01*
D30*
X91554300Y-64361900D02*
X91654200Y-64262000D01*
D31*
X91580401Y-67311199D02*
X91580401Y-67169599D01*
%TO.N,Net-(U1-VCC)*%
X92480399Y-68711202D02*
X93450802Y-68711202D01*
D32*
X96562958Y-68910200D02*
X97294700Y-68178458D01*
X96761300Y-62242700D02*
X96774000Y-62230000D01*
D31*
X95732600Y-68935600D02*
X95758000Y-68910200D01*
D32*
X97294700Y-64389000D02*
X96761300Y-63855600D01*
D31*
X93450802Y-68711202D02*
X93675200Y-68935600D01*
D32*
X96761300Y-63855600D02*
X96761300Y-62242700D01*
X97294700Y-68178458D02*
X97294700Y-64389000D01*
X95758000Y-68910200D02*
X96562958Y-68910200D01*
D31*
X93675200Y-68935600D02*
X95732600Y-68935600D01*
%TO.N,Net-(U1-VIN)*%
X92386851Y-73336851D02*
X91580401Y-72530401D01*
X92386851Y-74236999D02*
X92386851Y-73336851D01*
X93723599Y-74236999D02*
X93923551Y-74436951D01*
X91580401Y-72530401D02*
X91580401Y-71611201D01*
X92386851Y-74236999D02*
X93723599Y-74236999D01*
%TO.N,Net-(U1-PGOOD)*%
X88255000Y-66385600D02*
X88255000Y-66370200D01*
X89129602Y-67260202D02*
X88255000Y-66385600D01*
D30*
X90054402Y-67285202D02*
X90080399Y-67311199D01*
D31*
X89806400Y-67260202D02*
X89806400Y-67285202D01*
X89129602Y-67260202D02*
X89806400Y-67260202D01*
X93980000Y-63855600D02*
X95211900Y-63855600D01*
X89806400Y-67285202D02*
X90054402Y-67285202D01*
%TO.N,Net-(U1-RT)*%
X86684551Y-73798849D02*
X86684551Y-74284551D01*
X89180401Y-71302999D02*
X86684551Y-73798849D01*
D30*
X89180401Y-71211199D02*
X89180401Y-71302999D01*
X89192801Y-71223599D02*
X89180401Y-71211199D01*
%TO.N,/EN{slash}UVLO*%
X88437151Y-74360751D02*
X88665751Y-74360751D01*
D31*
X93904152Y-76265751D02*
X92796649Y-76265751D01*
X89411100Y-72280500D02*
X89411100Y-72291500D01*
D30*
X92796649Y-76265751D02*
X92786200Y-76276200D01*
D31*
X89411100Y-72291500D02*
X88437151Y-73265449D01*
X88437151Y-73265449D02*
X88437151Y-74360751D01*
X90080399Y-71611201D02*
X89411100Y-72280500D01*
%TO.N,/SS{slash}TRK*%
X88721202Y-70711200D02*
X85173251Y-74259151D01*
D30*
X85173251Y-74259151D02*
X85058951Y-74259151D01*
D31*
X89180401Y-70711200D02*
X88721202Y-70711200D01*
%TO.N,Net-(U1-HO)*%
X93063200Y-70711200D02*
X92480399Y-70711200D01*
X93573600Y-71221600D02*
X93063200Y-70711200D01*
%TO.N,Net-(U1-LO)*%
X93692037Y-67429465D02*
X92910302Y-68211200D01*
X93693065Y-67429465D02*
X93692037Y-67429465D01*
X92910302Y-68211200D02*
X92480399Y-68211200D01*
D33*
%TO.N,/Vout*%
X85674200Y-67843400D02*
X84531200Y-67843400D01*
D32*
X83947000Y-68427600D02*
X83960750Y-68413850D01*
X83947000Y-68072000D02*
X83947000Y-68427600D01*
X83960750Y-68413850D02*
X83960750Y-65647350D01*
D33*
X84531200Y-67843400D02*
X83947000Y-68427600D01*
D30*
X83960750Y-65647350D02*
X83845400Y-65532000D01*
X82854800Y-65532000D02*
X82854800Y-65539202D01*
%TO.N,/Vin*%
X94984350Y-74481750D02*
X95029149Y-74436951D01*
X95029149Y-76246352D02*
X95009750Y-76265751D01*
D33*
X95029149Y-74436951D02*
X95029149Y-76246352D01*
D32*
X95009750Y-76265751D02*
X98211351Y-76265751D01*
D30*
X98211351Y-76265751D02*
X98247200Y-76301600D01*
D31*
%TO.N,/SW*%
X96710500Y-71285100D02*
X96710500Y-70162700D01*
D32*
X91059000Y-59182000D02*
X90982800Y-59182000D01*
X90982800Y-59182000D02*
X90119200Y-60045600D01*
X90754200Y-65836800D02*
X91160600Y-65836800D01*
X90119200Y-60045600D02*
X90119200Y-65201800D01*
D31*
X92480399Y-71211202D02*
X92480399Y-71576199D01*
D32*
X97028000Y-59131200D02*
X98552000Y-60655200D01*
D31*
X93243400Y-72339200D02*
X95656400Y-72339200D01*
X95656400Y-72339200D02*
X96710500Y-71285100D01*
D30*
X96774000Y-70459600D02*
X96710500Y-70459600D01*
D32*
X98552000Y-60655200D02*
X98552000Y-68681600D01*
X98552000Y-68681600D02*
X96774000Y-70459600D01*
D31*
X92480399Y-71576199D02*
X93243400Y-72339200D01*
D32*
X90119200Y-65201800D02*
X90754200Y-65836800D01*
D31*
%TO.N,/SYNCin*%
X93929200Y-62255400D02*
X95199200Y-62255400D01*
X88653402Y-68211200D02*
X87274400Y-66832198D01*
X87274400Y-66832198D02*
X87274400Y-66827400D01*
X89180401Y-68211200D02*
X88653402Y-68211200D01*
%TD*%
%TA.AperFunction,Conductor*%
%TO.N,GND*%
G36*
X132780139Y-32625985D02*
G01*
X132825894Y-32678789D01*
X132837100Y-32730300D01*
X132837100Y-79481300D01*
X132817415Y-79548339D01*
X132764611Y-79594094D01*
X132713100Y-79605300D01*
X69962100Y-79605300D01*
X69895061Y-79585615D01*
X69849306Y-79532811D01*
X69838100Y-79481300D01*
X69838100Y-75309911D01*
X72410300Y-75309911D01*
X72410300Y-75552488D01*
X72441961Y-75792985D01*
X72504747Y-76027304D01*
X72597573Y-76251405D01*
X72597577Y-76251414D01*
X72612700Y-76277607D01*
X72718864Y-76461489D01*
X72718866Y-76461492D01*
X72718867Y-76461493D01*
X72866533Y-76653936D01*
X72866539Y-76653943D01*
X73038056Y-76825460D01*
X73038063Y-76825466D01*
X73137414Y-76901700D01*
X73230511Y-76973136D01*
X73440588Y-77094424D01*
X73664700Y-77187254D01*
X73899011Y-77250038D01*
X74079386Y-77273784D01*
X74139511Y-77281700D01*
X74139512Y-77281700D01*
X74382089Y-77281700D01*
X74430188Y-77275367D01*
X74622589Y-77250038D01*
X74856900Y-77187254D01*
X75081012Y-77094424D01*
X75291089Y-76973136D01*
X75483538Y-76825465D01*
X75655065Y-76653938D01*
X75802736Y-76461489D01*
X75924024Y-76251412D01*
X76016854Y-76027300D01*
X76079638Y-75792989D01*
X76111300Y-75552488D01*
X76111300Y-75309912D01*
X76111084Y-75308275D01*
X76103384Y-75249786D01*
X76079638Y-75069411D01*
X76016854Y-74835100D01*
X75924024Y-74610988D01*
X75802736Y-74400911D01*
X75703729Y-74271882D01*
X75655066Y-74208463D01*
X75655060Y-74208456D01*
X75483543Y-74036939D01*
X75483536Y-74036933D01*
X75291093Y-73889267D01*
X75291092Y-73889266D01*
X75291089Y-73889264D01*
X75081012Y-73767976D01*
X75081005Y-73767973D01*
X74856904Y-73675147D01*
X74666545Y-73624140D01*
X74622589Y-73612362D01*
X74622588Y-73612361D01*
X74622585Y-73612361D01*
X74382089Y-73580700D01*
X74382088Y-73580700D01*
X74139512Y-73580700D01*
X74139511Y-73580700D01*
X73899014Y-73612361D01*
X73664695Y-73675147D01*
X73440594Y-73767973D01*
X73440585Y-73767977D01*
X73230506Y-73889267D01*
X73038063Y-74036933D01*
X73038056Y-74036939D01*
X72866539Y-74208456D01*
X72866533Y-74208463D01*
X72718867Y-74400906D01*
X72597577Y-74610985D01*
X72597573Y-74610994D01*
X72504747Y-74835095D01*
X72441961Y-75069414D01*
X72410300Y-75309911D01*
X69838100Y-75309911D01*
X69838100Y-65605920D01*
X79030899Y-65605920D01*
X79059740Y-65750907D01*
X79059743Y-65750917D01*
X79116312Y-65887488D01*
X79116319Y-65887501D01*
X79198448Y-66010415D01*
X79198451Y-66010419D01*
X79302980Y-66114948D01*
X79302984Y-66114951D01*
X79425898Y-66197080D01*
X79425911Y-66197087D01*
X79534209Y-66241945D01*
X79562487Y-66253658D01*
X79562491Y-66253658D01*
X79562492Y-66253659D01*
X79707479Y-66282500D01*
X79707482Y-66282500D01*
X79855320Y-66282500D01*
X79952862Y-66263096D01*
X80000313Y-66253658D01*
X80125271Y-66201899D01*
X80136888Y-66197087D01*
X80136888Y-66197086D01*
X80136895Y-66197084D01*
X80220509Y-66141214D01*
X80287186Y-66120337D01*
X80354566Y-66138821D01*
X80358291Y-66141215D01*
X80441898Y-66197080D01*
X80441911Y-66197087D01*
X80550209Y-66241945D01*
X80578487Y-66253658D01*
X80578491Y-66253658D01*
X80578492Y-66253659D01*
X80723479Y-66282500D01*
X80723482Y-66282500D01*
X80871320Y-66282500D01*
X80968862Y-66263096D01*
X81016313Y-66253658D01*
X81141271Y-66201899D01*
X81152888Y-66197087D01*
X81152888Y-66197086D01*
X81152895Y-66197084D01*
X81249209Y-66132728D01*
X81315886Y-66111851D01*
X81383266Y-66130335D01*
X81386983Y-66132724D01*
X81407976Y-66146750D01*
X81483298Y-66197080D01*
X81483311Y-66197087D01*
X81591609Y-66241945D01*
X81619887Y-66253658D01*
X81619891Y-66253658D01*
X81619892Y-66253659D01*
X81764879Y-66282500D01*
X81764882Y-66282500D01*
X81912720Y-66282500D01*
X82010262Y-66263096D01*
X82057713Y-66253658D01*
X82182671Y-66201899D01*
X82194288Y-66197087D01*
X82194288Y-66197086D01*
X82194295Y-66197084D01*
X82277909Y-66141214D01*
X82344586Y-66120337D01*
X82411966Y-66138821D01*
X82415691Y-66141215D01*
X82499298Y-66197080D01*
X82499311Y-66197087D01*
X82607609Y-66241945D01*
X82635887Y-66253658D01*
X82635891Y-66253658D01*
X82635892Y-66253659D01*
X82780879Y-66282500D01*
X82780882Y-66282500D01*
X82928720Y-66282500D01*
X83026262Y-66263096D01*
X83073713Y-66253658D01*
X83198671Y-66201899D01*
X83210288Y-66197087D01*
X83210289Y-66197086D01*
X83210295Y-66197084D01*
X83217356Y-66192365D01*
X83284032Y-66171486D01*
X83351413Y-66189968D01*
X83398105Y-66241945D01*
X83410250Y-66295466D01*
X83410250Y-67713998D01*
X83390565Y-67781037D01*
X83337761Y-67826792D01*
X83268603Y-67836736D01*
X83268374Y-67836703D01*
X83238323Y-67832325D01*
X83202462Y-67827100D01*
X82480342Y-67827100D01*
X82480341Y-67827100D01*
X82412210Y-67837026D01*
X82307116Y-67888403D01*
X82224405Y-67971114D01*
X82173028Y-68076208D01*
X82163102Y-68144339D01*
X82163102Y-68710860D01*
X82173028Y-68778991D01*
X82224405Y-68884085D01*
X82307116Y-68966796D01*
X82307117Y-68966796D01*
X82307119Y-68966798D01*
X82309359Y-68967893D01*
X82311888Y-68970203D01*
X82315480Y-68972768D01*
X82315170Y-68973202D01*
X82321340Y-68978839D01*
X82336103Y-68985581D01*
X82346603Y-69001919D01*
X82360941Y-69015019D01*
X82365494Y-69031315D01*
X82373877Y-69044359D01*
X82378900Y-69079294D01*
X82378900Y-69098082D01*
X82359215Y-69165121D01*
X82324309Y-69196195D01*
X82326478Y-69199232D01*
X82318115Y-69205202D01*
X82235403Y-69287914D01*
X82184026Y-69393008D01*
X82174100Y-69461139D01*
X82174100Y-70035660D01*
X82184026Y-70103791D01*
X82235403Y-70208885D01*
X82318114Y-70291596D01*
X82318115Y-70291596D01*
X82318117Y-70291598D01*
X82423207Y-70342973D01*
X82457273Y-70347936D01*
X82491339Y-70352900D01*
X82491340Y-70352900D01*
X83167461Y-70352900D01*
X83190171Y-70349591D01*
X83235593Y-70342973D01*
X83290100Y-70316326D01*
X83308449Y-70313193D01*
X83325283Y-70305234D01*
X83342175Y-70307434D01*
X83358969Y-70304567D01*
X83376104Y-70311853D01*
X83394568Y-70314259D01*
X83407589Y-70325243D01*
X83423267Y-70331910D01*
X83433742Y-70347304D01*
X83447974Y-70359309D01*
X83459837Y-70385651D01*
X83462575Y-70389674D01*
X83463061Y-70391216D01*
X83466200Y-70401404D01*
X83466200Y-70402601D01*
X83498605Y-70523536D01*
X83509807Y-70542939D01*
X83513927Y-70556310D01*
X83514212Y-70577816D01*
X83519284Y-70598721D01*
X83514666Y-70612061D01*
X83514854Y-70626173D01*
X83503468Y-70644418D01*
X83496432Y-70664748D01*
X83485336Y-70673473D01*
X83477864Y-70685448D01*
X83458417Y-70694642D01*
X83441510Y-70707939D01*
X83427459Y-70709280D01*
X83414699Y-70715314D01*
X83393368Y-70712535D01*
X83371957Y-70714580D01*
X83348256Y-70706659D01*
X83345414Y-70706289D01*
X83344275Y-70705328D01*
X83340964Y-70704222D01*
X83260991Y-70665126D01*
X83192861Y-70655200D01*
X83192860Y-70655200D01*
X82567540Y-70655200D01*
X82567539Y-70655200D01*
X82499408Y-70665126D01*
X82394314Y-70716503D01*
X82311603Y-70799214D01*
X82260226Y-70904308D01*
X82250300Y-70972439D01*
X82250300Y-71546960D01*
X82260226Y-71615091D01*
X82289582Y-71675140D01*
X82301340Y-71744013D01*
X82289582Y-71784060D01*
X82260226Y-71844108D01*
X82250300Y-71912239D01*
X82250300Y-72486760D01*
X82260226Y-72554891D01*
X82311603Y-72659985D01*
X82394314Y-72742696D01*
X82394315Y-72742696D01*
X82394317Y-72742698D01*
X82499407Y-72794073D01*
X82517959Y-72796776D01*
X82567539Y-72804000D01*
X82567540Y-72804000D01*
X83192861Y-72804000D01*
X83215571Y-72800691D01*
X83260993Y-72794073D01*
X83366083Y-72742698D01*
X83397461Y-72711320D01*
X83424391Y-72696614D01*
X83450208Y-72680023D01*
X83456406Y-72679131D01*
X83458783Y-72677834D01*
X83485143Y-72675000D01*
X83697427Y-72675000D01*
X83764466Y-72694685D01*
X83810221Y-72747489D01*
X83820130Y-72781118D01*
X83821950Y-72793609D01*
X83822327Y-72796194D01*
X83873703Y-72901285D01*
X83956414Y-72983996D01*
X83956415Y-72983996D01*
X83956417Y-72983998D01*
X84061507Y-73035373D01*
X84095573Y-73040336D01*
X84129639Y-73045300D01*
X84129640Y-73045300D01*
X84805761Y-73045300D01*
X84839826Y-73040336D01*
X84873893Y-73035373D01*
X84959339Y-72993600D01*
X85028212Y-72981841D01*
X85068259Y-72993600D01*
X85147761Y-73032466D01*
X85153707Y-73035373D01*
X85221839Y-73045300D01*
X85221840Y-73045300D01*
X85415281Y-73045300D01*
X85482320Y-73064985D01*
X85528075Y-73117789D01*
X85538019Y-73186947D01*
X85508994Y-73250503D01*
X85502962Y-73256981D01*
X85192411Y-73567532D01*
X85131088Y-73601017D01*
X85104730Y-73603851D01*
X84771690Y-73603851D01*
X84703559Y-73613777D01*
X84598465Y-73665154D01*
X84515754Y-73747865D01*
X84464377Y-73852959D01*
X84454451Y-73921090D01*
X84454451Y-74597211D01*
X84464377Y-74665342D01*
X84515754Y-74770436D01*
X84598465Y-74853147D01*
X84598466Y-74853147D01*
X84598468Y-74853149D01*
X84703558Y-74904524D01*
X84749631Y-74911236D01*
X84813128Y-74940379D01*
X84835796Y-74975796D01*
X84855751Y-74995751D01*
X85262151Y-74995751D01*
X85278026Y-74979875D01*
X85281836Y-74966901D01*
X85334640Y-74921146D01*
X85368266Y-74911237D01*
X85414344Y-74904524D01*
X85519434Y-74853149D01*
X85602149Y-74770434D01*
X85653524Y-74665344D01*
X85663451Y-74597211D01*
X85663451Y-74492772D01*
X85672095Y-74463331D01*
X85678619Y-74433345D01*
X85682373Y-74428329D01*
X85683136Y-74425733D01*
X85699770Y-74405091D01*
X85842970Y-74261891D01*
X85904293Y-74228406D01*
X85973985Y-74233390D01*
X86029918Y-74275262D01*
X86054335Y-74340726D01*
X86054651Y-74349572D01*
X86054651Y-74571811D01*
X86064577Y-74639942D01*
X86115954Y-74745036D01*
X86198665Y-74827747D01*
X86198666Y-74827747D01*
X86198668Y-74827749D01*
X86303758Y-74879124D01*
X86337824Y-74884087D01*
X86371890Y-74889051D01*
X86371891Y-74889051D01*
X86374089Y-74889051D01*
X86374810Y-74889262D01*
X86376371Y-74889376D01*
X86376346Y-74889713D01*
X86441128Y-74908736D01*
X86454549Y-74919551D01*
X86455951Y-74919551D01*
X86917989Y-74919551D01*
X86968655Y-74891885D01*
X86995013Y-74889051D01*
X86997212Y-74889051D01*
X87019922Y-74885742D01*
X87065344Y-74879124D01*
X87170434Y-74827749D01*
X87253149Y-74745034D01*
X87304524Y-74639944D01*
X87314451Y-74571811D01*
X87314451Y-73997291D01*
X87311999Y-73980465D01*
X87303597Y-73922796D01*
X87304255Y-73918156D01*
X87302617Y-73913764D01*
X87309116Y-73883887D01*
X87313410Y-73853619D01*
X87316749Y-73848800D01*
X87317469Y-73845491D01*
X87338617Y-73817240D01*
X87459500Y-73696357D01*
X87520821Y-73662874D01*
X87590513Y-73667858D01*
X87646446Y-73709730D01*
X87670863Y-73775194D01*
X87658580Y-73838499D01*
X87626677Y-73903757D01*
X87626677Y-73903758D01*
X87616751Y-73971890D01*
X87616751Y-74749611D01*
X87626677Y-74817742D01*
X87626678Y-74817744D01*
X87661696Y-74889376D01*
X87678054Y-74922836D01*
X87760765Y-75005547D01*
X87760766Y-75005547D01*
X87760768Y-75005549D01*
X87865858Y-75056924D01*
X87911931Y-75063636D01*
X87975428Y-75092779D01*
X88013093Y-75151627D01*
X88018051Y-75186340D01*
X88018051Y-75300551D01*
X88856251Y-75300551D01*
X88856251Y-75186340D01*
X88875936Y-75119301D01*
X88928740Y-75073546D01*
X88962366Y-75063637D01*
X89008444Y-75056924D01*
X89113534Y-75005549D01*
X89196249Y-74922834D01*
X89247624Y-74817744D01*
X89257551Y-74749611D01*
X89257551Y-73971891D01*
X89257003Y-73968133D01*
X89247624Y-73903759D01*
X89247624Y-73903758D01*
X89196249Y-73798668D01*
X89196247Y-73798666D01*
X89196247Y-73798665D01*
X89113536Y-73715954D01*
X89008442Y-73664577D01*
X89000043Y-73661982D01*
X88978719Y-73647849D01*
X88955448Y-73637222D01*
X88950079Y-73628868D01*
X88941803Y-73623383D01*
X88931505Y-73599965D01*
X88917674Y-73578444D01*
X88915552Y-73563690D01*
X88913677Y-73559425D01*
X88912651Y-73543509D01*
X88912651Y-73513770D01*
X88932336Y-73446731D01*
X88948970Y-73426089D01*
X89172211Y-73202848D01*
X89397087Y-72977971D01*
X89458408Y-72944488D01*
X89472626Y-72942250D01*
X89475165Y-72942000D01*
X89475169Y-72942000D01*
X89475173Y-72941999D01*
X89475175Y-72941999D01*
X89538006Y-72929500D01*
X89600844Y-72917001D01*
X89719227Y-72867965D01*
X89825769Y-72796776D01*
X89916376Y-72706169D01*
X89987565Y-72599627D01*
X90036601Y-72481244D01*
X90058777Y-72369761D01*
X90060419Y-72361509D01*
X90092804Y-72299598D01*
X90153520Y-72265024D01*
X90182036Y-72261701D01*
X90238660Y-72261701D01*
X90261370Y-72258392D01*
X90306792Y-72251774D01*
X90411882Y-72200399D01*
X90494597Y-72117684D01*
X90545972Y-72012594D01*
X90555899Y-71944461D01*
X90555899Y-71673805D01*
X90555900Y-71673802D01*
X90555900Y-71548600D01*
X90555899Y-71548596D01*
X90555899Y-71277941D01*
X90545972Y-71209808D01*
X90494597Y-71104718D01*
X90494595Y-71104716D01*
X90494595Y-71104715D01*
X90411884Y-71022004D01*
X90306790Y-70970627D01*
X90238660Y-70960701D01*
X90238659Y-70960701D01*
X89954901Y-70960701D01*
X89887862Y-70941016D01*
X89842107Y-70888212D01*
X89830901Y-70836701D01*
X89830901Y-70552939D01*
X89820139Y-70479077D01*
X89820139Y-70443321D01*
X89827956Y-70389674D01*
X89830901Y-70369458D01*
X89830901Y-70052938D01*
X89820974Y-69984805D01*
X89820973Y-69984803D01*
X89820139Y-69979078D01*
X89820139Y-69943320D01*
X89820973Y-69937594D01*
X89820974Y-69937593D01*
X89830901Y-69869460D01*
X89830901Y-69552940D01*
X89820974Y-69484807D01*
X89769599Y-69379717D01*
X89769597Y-69379715D01*
X89769597Y-69379714D01*
X89688763Y-69298880D01*
X89655278Y-69237557D01*
X89660262Y-69167865D01*
X89688761Y-69123519D01*
X89769599Y-69042682D01*
X89820974Y-68937592D01*
X89830901Y-68869459D01*
X89830901Y-68552939D01*
X89820974Y-68484806D01*
X89820973Y-68484804D01*
X89820139Y-68479078D01*
X89820139Y-68443320D01*
X89820973Y-68437594D01*
X89820974Y-68437593D01*
X89830901Y-68369460D01*
X89830901Y-68085699D01*
X89850586Y-68018660D01*
X89903390Y-67972905D01*
X89954901Y-67961699D01*
X90238660Y-67961699D01*
X90261370Y-67958390D01*
X90306792Y-67951772D01*
X90411882Y-67900397D01*
X90494597Y-67817682D01*
X90545972Y-67712592D01*
X90555899Y-67644459D01*
X90555899Y-66977939D01*
X90545972Y-66909806D01*
X90494597Y-66804716D01*
X90494595Y-66804714D01*
X90494595Y-66804713D01*
X90411884Y-66722002D01*
X90306790Y-66670625D01*
X90238660Y-66660699D01*
X90238659Y-66660699D01*
X89922139Y-66660699D01*
X89922138Y-66660699D01*
X89854007Y-66670625D01*
X89748913Y-66722002D01*
X89722533Y-66748383D01*
X89661210Y-66781868D01*
X89634852Y-66784702D01*
X89377923Y-66784702D01*
X89310884Y-66765017D01*
X89290242Y-66748383D01*
X88941819Y-66399960D01*
X88908334Y-66338637D01*
X88905500Y-66312279D01*
X88905500Y-66306128D01*
X88880502Y-66180461D01*
X88880501Y-66180460D01*
X88880501Y-66180456D01*
X88831465Y-66062073D01*
X88831464Y-66062072D01*
X88831461Y-66062066D01*
X88760276Y-65955531D01*
X88760273Y-65955527D01*
X88669672Y-65864926D01*
X88669668Y-65864923D01*
X88563133Y-65793738D01*
X88563124Y-65793733D01*
X88444744Y-65744699D01*
X88444738Y-65744697D01*
X88319071Y-65719700D01*
X88319069Y-65719700D01*
X88190931Y-65719700D01*
X88190929Y-65719700D01*
X88065261Y-65744697D01*
X88065255Y-65744699D01*
X87946875Y-65793733D01*
X87946866Y-65793738D01*
X87840331Y-65864923D01*
X87840327Y-65864926D01*
X87749726Y-65955527D01*
X87749723Y-65955531D01*
X87678538Y-66062066D01*
X87678535Y-66062073D01*
X87645154Y-66142660D01*
X87601312Y-66197063D01*
X87535018Y-66219127D01*
X87483143Y-66209768D01*
X87464147Y-66201900D01*
X87464138Y-66201897D01*
X87338471Y-66176900D01*
X87338469Y-66176900D01*
X87210331Y-66176900D01*
X87210329Y-66176900D01*
X87084661Y-66201897D01*
X87084655Y-66201899D01*
X86966275Y-66250933D01*
X86966266Y-66250938D01*
X86859731Y-66322123D01*
X86859727Y-66322126D01*
X86769126Y-66412727D01*
X86769123Y-66412731D01*
X86697938Y-66519266D01*
X86697933Y-66519275D01*
X86648899Y-66637655D01*
X86648897Y-66637661D01*
X86623900Y-66763328D01*
X86623900Y-66763331D01*
X86623900Y-66891469D01*
X86623900Y-66891471D01*
X86623899Y-66891471D01*
X86648897Y-67017138D01*
X86648899Y-67017144D01*
X86697933Y-67135524D01*
X86697938Y-67135533D01*
X86769123Y-67242068D01*
X86769126Y-67242072D01*
X86859727Y-67332673D01*
X86859731Y-67332676D01*
X86966266Y-67403861D01*
X86966272Y-67403864D01*
X86966273Y-67403865D01*
X87084656Y-67452901D01*
X87084660Y-67452901D01*
X87084661Y-67452902D01*
X87216306Y-67479089D01*
X87215924Y-67481008D01*
X87272331Y-67503771D01*
X87283092Y-67513349D01*
X88272906Y-68503163D01*
X88272907Y-68503164D01*
X88361438Y-68591695D01*
X88467902Y-68653161D01*
X88516116Y-68703726D01*
X88529901Y-68760547D01*
X88529901Y-68869459D01*
X88539827Y-68937590D01*
X88539828Y-68937592D01*
X88584074Y-69028100D01*
X88595716Y-69051913D01*
X88593649Y-69052923D01*
X88611970Y-69105651D01*
X88595580Y-69173571D01*
X88545071Y-69221847D01*
X88488118Y-69235700D01*
X87826869Y-69235700D01*
X87759830Y-69216015D01*
X87715468Y-69166159D01*
X87699998Y-69134514D01*
X87617286Y-69051802D01*
X87512192Y-69000425D01*
X87443379Y-68990399D01*
X87379879Y-68961255D01*
X87373577Y-68955376D01*
X87360001Y-68941800D01*
X86961601Y-68941800D01*
X86961600Y-68941800D01*
X86948023Y-68955377D01*
X86886700Y-68988861D01*
X86878222Y-68990399D01*
X86809409Y-69000425D01*
X86704315Y-69051802D01*
X86642781Y-69113337D01*
X86581458Y-69146822D01*
X86511766Y-69141838D01*
X86455833Y-69099966D01*
X86431416Y-69034502D01*
X86431100Y-69025656D01*
X86431100Y-68978539D01*
X86421173Y-68910408D01*
X86421173Y-68910407D01*
X86369798Y-68805317D01*
X86369796Y-68805315D01*
X86369796Y-68805314D01*
X86287088Y-68722606D01*
X86287084Y-68722603D01*
X86287083Y-68722602D01*
X86287081Y-68722601D01*
X86282066Y-68719021D01*
X86238942Y-68664048D01*
X86232384Y-68594486D01*
X86264475Y-68532422D01*
X86282066Y-68517179D01*
X86287076Y-68513601D01*
X86287083Y-68513598D01*
X86369798Y-68430883D01*
X86421173Y-68325793D01*
X86431100Y-68257660D01*
X86431100Y-67429140D01*
X86421173Y-67361007D01*
X86369798Y-67255917D01*
X86369796Y-67255915D01*
X86369796Y-67255914D01*
X86287085Y-67173203D01*
X86181991Y-67121826D01*
X86113861Y-67111900D01*
X86113860Y-67111900D01*
X85234540Y-67111900D01*
X85234539Y-67111900D01*
X85166408Y-67121826D01*
X85061314Y-67173203D01*
X84978603Y-67255914D01*
X84978602Y-67255917D01*
X84971517Y-67270411D01*
X84970075Y-67273360D01*
X84959128Y-67285340D01*
X84952387Y-67300103D01*
X84936046Y-67310604D01*
X84922947Y-67324942D01*
X84906651Y-67329494D01*
X84893609Y-67337877D01*
X84858674Y-67342900D01*
X84635250Y-67342900D01*
X84568211Y-67323215D01*
X84522456Y-67270411D01*
X84511250Y-67218900D01*
X84511250Y-65910310D01*
X84520689Y-65862857D01*
X84549321Y-65793733D01*
X84567058Y-65750913D01*
X84595900Y-65605918D01*
X84595900Y-65458082D01*
X84595900Y-65458079D01*
X84567059Y-65313092D01*
X84567058Y-65313091D01*
X84567058Y-65313087D01*
X84553653Y-65280724D01*
X84510487Y-65176511D01*
X84510480Y-65176498D01*
X84428351Y-65053584D01*
X84428348Y-65053580D01*
X84410249Y-65035481D01*
X84376764Y-64974158D01*
X84381748Y-64904466D01*
X84410249Y-64860119D01*
X84428348Y-64842019D01*
X84428351Y-64842016D01*
X84510484Y-64719095D01*
X84567058Y-64582513D01*
X84582258Y-64506100D01*
X84595900Y-64437520D01*
X84595900Y-64289679D01*
X84567059Y-64144692D01*
X84567058Y-64144691D01*
X84567058Y-64144687D01*
X84553286Y-64111439D01*
X84510487Y-64008111D01*
X84510480Y-64008098D01*
X84428351Y-63885184D01*
X84428348Y-63885180D01*
X84323819Y-63780651D01*
X84323815Y-63780648D01*
X84200901Y-63698519D01*
X84200888Y-63698512D01*
X84064317Y-63641943D01*
X84064307Y-63641940D01*
X83919320Y-63613100D01*
X83919318Y-63613100D01*
X83771482Y-63613100D01*
X83771480Y-63613100D01*
X83626492Y-63641940D01*
X83626482Y-63641943D01*
X83489911Y-63698512D01*
X83489900Y-63698518D01*
X83418990Y-63745899D01*
X83352313Y-63766776D01*
X83284933Y-63748291D01*
X83281210Y-63745899D01*
X83210299Y-63698518D01*
X83210288Y-63698512D01*
X83073717Y-63641943D01*
X83073707Y-63641940D01*
X82928720Y-63613100D01*
X82928718Y-63613100D01*
X82780882Y-63613100D01*
X82780880Y-63613100D01*
X82635892Y-63641940D01*
X82635882Y-63641943D01*
X82499311Y-63698512D01*
X82499293Y-63698522D01*
X82396683Y-63767084D01*
X82330006Y-63787962D01*
X82262626Y-63769477D01*
X82258903Y-63767084D01*
X82194306Y-63723922D01*
X82194288Y-63723912D01*
X82057717Y-63667343D01*
X82057707Y-63667340D01*
X81912720Y-63638500D01*
X81912718Y-63638500D01*
X81764882Y-63638500D01*
X81764880Y-63638500D01*
X81619892Y-63667340D01*
X81619882Y-63667343D01*
X81483311Y-63723912D01*
X81483300Y-63723918D01*
X81412390Y-63771299D01*
X81345713Y-63792176D01*
X81278333Y-63773691D01*
X81274610Y-63771299D01*
X81203699Y-63723918D01*
X81203688Y-63723912D01*
X81067117Y-63667343D01*
X81067107Y-63667340D01*
X80922120Y-63638500D01*
X80922118Y-63638500D01*
X80774282Y-63638500D01*
X80774280Y-63638500D01*
X80629292Y-63667340D01*
X80629282Y-63667343D01*
X80492711Y-63723912D01*
X80492698Y-63723919D01*
X80396391Y-63788270D01*
X80329713Y-63809148D01*
X80262333Y-63790663D01*
X80258609Y-63788270D01*
X80162301Y-63723919D01*
X80162288Y-63723912D01*
X80025717Y-63667343D01*
X80025707Y-63667340D01*
X79880720Y-63638500D01*
X79880718Y-63638500D01*
X79732882Y-63638500D01*
X79732880Y-63638500D01*
X79587892Y-63667340D01*
X79587882Y-63667343D01*
X79451311Y-63723912D01*
X79451298Y-63723919D01*
X79328384Y-63806048D01*
X79328380Y-63806051D01*
X79223851Y-63910580D01*
X79223848Y-63910584D01*
X79141719Y-64033498D01*
X79141712Y-64033511D01*
X79085143Y-64170082D01*
X79085140Y-64170092D01*
X79056300Y-64315079D01*
X79056300Y-64315082D01*
X79056300Y-64462918D01*
X79056300Y-64462920D01*
X79056299Y-64462920D01*
X79085140Y-64607907D01*
X79085143Y-64607917D01*
X79141712Y-64744488D01*
X79141719Y-64744501D01*
X79223848Y-64867415D01*
X79225019Y-64868842D01*
X79225398Y-64869735D01*
X79227233Y-64872481D01*
X79226712Y-64872828D01*
X79252331Y-64933153D01*
X79240538Y-65002020D01*
X79216847Y-65035184D01*
X79198452Y-65053579D01*
X79198448Y-65053584D01*
X79116319Y-65176498D01*
X79116312Y-65176511D01*
X79059743Y-65313082D01*
X79059740Y-65313092D01*
X79030900Y-65458079D01*
X79030900Y-65458082D01*
X79030900Y-65605918D01*
X79030900Y-65605920D01*
X79030899Y-65605920D01*
X69838100Y-65605920D01*
X69838100Y-59973125D01*
X89568700Y-59973125D01*
X89568700Y-65274275D01*
X89606216Y-65414285D01*
X89678690Y-65539815D01*
X90416186Y-66277310D01*
X90502079Y-66326900D01*
X90541715Y-66349784D01*
X90655128Y-66380173D01*
X90660093Y-66381968D01*
X90677116Y-66394444D01*
X90689999Y-66401882D01*
X90691753Y-66399427D01*
X90700113Y-66405395D01*
X90700114Y-66405395D01*
X90700117Y-66405398D01*
X90805207Y-66456773D01*
X90839273Y-66461736D01*
X90873339Y-66466700D01*
X91235165Y-66466700D01*
X91302204Y-66486385D01*
X91347959Y-66539189D01*
X91357903Y-66608347D01*
X91328878Y-66671903D01*
X91289626Y-66702100D01*
X91273817Y-66709828D01*
X91248915Y-66722002D01*
X91166204Y-66804713D01*
X91114827Y-66909807D01*
X91104901Y-66977938D01*
X91104901Y-67644459D01*
X91114827Y-67712590D01*
X91166204Y-67817684D01*
X91248915Y-67900395D01*
X91248916Y-67900395D01*
X91248918Y-67900397D01*
X91354008Y-67951772D01*
X91388074Y-67956735D01*
X91422140Y-67961699D01*
X91705899Y-67961699D01*
X91772938Y-67981384D01*
X91818693Y-68034188D01*
X91829899Y-68085699D01*
X91829899Y-68369460D01*
X91837379Y-68420795D01*
X91840661Y-68443324D01*
X91840661Y-68479078D01*
X91839826Y-68484808D01*
X91839826Y-68484809D01*
X91829899Y-68552942D01*
X91829899Y-68552946D01*
X91829899Y-68869462D01*
X91839825Y-68937593D01*
X91891202Y-69042687D01*
X91972036Y-69123521D01*
X92005521Y-69184844D01*
X92000537Y-69254536D01*
X91972036Y-69298883D01*
X91891202Y-69379716D01*
X91839825Y-69484810D01*
X91835509Y-69514437D01*
X91829899Y-69552942D01*
X91829899Y-69869462D01*
X91838029Y-69925261D01*
X91840661Y-69943324D01*
X91840661Y-69979078D01*
X91839827Y-69984805D01*
X91839826Y-69984808D01*
X91829899Y-70052941D01*
X91829899Y-70052945D01*
X91829899Y-70369461D01*
X91840660Y-70443321D01*
X91840661Y-70479076D01*
X91839826Y-70484806D01*
X91839826Y-70484807D01*
X91829899Y-70552940D01*
X91829899Y-70552944D01*
X91829899Y-70836701D01*
X91810214Y-70903740D01*
X91757410Y-70949495D01*
X91705899Y-70960701D01*
X91422140Y-70960701D01*
X91354009Y-70970627D01*
X91248915Y-71022004D01*
X91166204Y-71104715D01*
X91114827Y-71209809D01*
X91104901Y-71277940D01*
X91104901Y-71277941D01*
X91104901Y-71548600D01*
X91104901Y-72467800D01*
X91104901Y-72593002D01*
X91137306Y-72713937D01*
X91199906Y-72822365D01*
X91541022Y-73163481D01*
X91804519Y-73426977D01*
X91838004Y-73488300D01*
X91833020Y-73557991D01*
X91832446Y-73559500D01*
X91824637Y-73579631D01*
X91818253Y-73586016D01*
X91766878Y-73691106D01*
X91758142Y-73751060D01*
X91753069Y-73764141D01*
X91739977Y-73781162D01*
X91731021Y-73800678D01*
X91719100Y-73808307D01*
X91710473Y-73819525D01*
X91690258Y-73826766D01*
X91672172Y-73838342D01*
X91648512Y-73841720D01*
X91644696Y-73843088D01*
X91642497Y-73842579D01*
X91637461Y-73843299D01*
X90862851Y-73843299D01*
X90862851Y-74630699D01*
X91637461Y-74630699D01*
X91704500Y-74650384D01*
X91750255Y-74703188D01*
X91760165Y-74736821D01*
X91766877Y-74782890D01*
X91818254Y-74887984D01*
X91900965Y-74970695D01*
X91900966Y-74970695D01*
X91900968Y-74970697D01*
X92006058Y-75022072D01*
X92023965Y-75024681D01*
X92074190Y-75031999D01*
X92074191Y-75031999D01*
X92699512Y-75031999D01*
X92722222Y-75028690D01*
X92767644Y-75022072D01*
X92872734Y-74970697D01*
X92955449Y-74887982D01*
X93006824Y-74782892D01*
X93006824Y-74782891D01*
X93007241Y-74782039D01*
X93018187Y-74770057D01*
X93024929Y-74755296D01*
X93041267Y-74744795D01*
X93054369Y-74730456D01*
X93070666Y-74725902D01*
X93083707Y-74717522D01*
X93118642Y-74712499D01*
X93140695Y-74712499D01*
X93207734Y-74732184D01*
X93252096Y-74782039D01*
X93255177Y-74788343D01*
X93255178Y-74788344D01*
X93285131Y-74849615D01*
X93306554Y-74893436D01*
X93389265Y-74976147D01*
X93389266Y-74976147D01*
X93389268Y-74976149D01*
X93494358Y-75027524D01*
X93525072Y-75031999D01*
X93562490Y-75037451D01*
X93562491Y-75037451D01*
X94284612Y-75037451D01*
X94322030Y-75031999D01*
X94352744Y-75027524D01*
X94352745Y-75027523D01*
X94361946Y-75024681D01*
X94362558Y-75026663D01*
X94419048Y-75017012D01*
X94483348Y-75044348D01*
X94522662Y-75102108D01*
X94528649Y-75140173D01*
X94528649Y-75572011D01*
X94508964Y-75639050D01*
X94456160Y-75684805D01*
X94387002Y-75694749D01*
X94350191Y-75683413D01*
X94333343Y-75675177D01*
X94333344Y-75675177D01*
X94265213Y-75665251D01*
X94265212Y-75665251D01*
X93543092Y-75665251D01*
X93543091Y-75665251D01*
X93474960Y-75675177D01*
X93369868Y-75726553D01*
X93347535Y-75748886D01*
X93286211Y-75782370D01*
X93216519Y-75777384D01*
X93190964Y-75764305D01*
X93094333Y-75699738D01*
X93094324Y-75699733D01*
X92975944Y-75650699D01*
X92975938Y-75650697D01*
X92850271Y-75625700D01*
X92850269Y-75625700D01*
X92722131Y-75625700D01*
X92722129Y-75625700D01*
X92596461Y-75650697D01*
X92596455Y-75650699D01*
X92478075Y-75699733D01*
X92478066Y-75699738D01*
X92371531Y-75770923D01*
X92371527Y-75770926D01*
X92280926Y-75861527D01*
X92280923Y-75861531D01*
X92209738Y-75968066D01*
X92209733Y-75968075D01*
X92160699Y-76086455D01*
X92160697Y-76086461D01*
X92135700Y-76212128D01*
X92135700Y-76212131D01*
X92135700Y-76340269D01*
X92135700Y-76340271D01*
X92135699Y-76340271D01*
X92160697Y-76465938D01*
X92160699Y-76465944D01*
X92209733Y-76584324D01*
X92209738Y-76584333D01*
X92280923Y-76690868D01*
X92280926Y-76690872D01*
X92371527Y-76781473D01*
X92371531Y-76781476D01*
X92478066Y-76852661D01*
X92478075Y-76852666D01*
X92504892Y-76863774D01*
X92596456Y-76901701D01*
X92596460Y-76901701D01*
X92596461Y-76901702D01*
X92722128Y-76926700D01*
X92722131Y-76926700D01*
X92850271Y-76926700D01*
X92944951Y-76907866D01*
X92975944Y-76901701D01*
X93094327Y-76852665D01*
X93200869Y-76781476D01*
X93200874Y-76781470D01*
X93203490Y-76779723D01*
X93270168Y-76758845D01*
X93337548Y-76777329D01*
X93360063Y-76795144D01*
X93369866Y-76804947D01*
X93369867Y-76804947D01*
X93369869Y-76804949D01*
X93474959Y-76856324D01*
X93509025Y-76861287D01*
X93543091Y-76866251D01*
X93543092Y-76866251D01*
X94265213Y-76866251D01*
X94299278Y-76861287D01*
X94333345Y-76856324D01*
X94402490Y-76822520D01*
X94471363Y-76810761D01*
X94511410Y-76822520D01*
X94572878Y-76852570D01*
X94580557Y-76856324D01*
X94648689Y-76866251D01*
X94648690Y-76866251D01*
X95370811Y-76866251D01*
X95393521Y-76862942D01*
X95438943Y-76856324D01*
X95495142Y-76828849D01*
X95549602Y-76816251D01*
X97649121Y-76816251D01*
X97716160Y-76835936D01*
X97736802Y-76852570D01*
X97768780Y-76884548D01*
X97768784Y-76884551D01*
X97891698Y-76966680D01*
X97891711Y-76966687D01*
X98028282Y-77023256D01*
X98028287Y-77023258D01*
X98028291Y-77023258D01*
X98028292Y-77023259D01*
X98173279Y-77052100D01*
X98173282Y-77052100D01*
X98321120Y-77052100D01*
X98451046Y-77026255D01*
X98466113Y-77023258D01*
X98571747Y-76979502D01*
X98602688Y-76966687D01*
X98602688Y-76966686D01*
X98602695Y-76966684D01*
X98725616Y-76884551D01*
X98830151Y-76780016D01*
X98912284Y-76657095D01*
X98913593Y-76653936D01*
X98959080Y-76544119D01*
X98968858Y-76520513D01*
X98996583Y-76381133D01*
X98997700Y-76375520D01*
X99274699Y-76375520D01*
X99303540Y-76520507D01*
X99303543Y-76520517D01*
X99360112Y-76657088D01*
X99360119Y-76657101D01*
X99442248Y-76780015D01*
X99442251Y-76780019D01*
X99546780Y-76884548D01*
X99546784Y-76884551D01*
X99669698Y-76966680D01*
X99669711Y-76966687D01*
X99806282Y-77023256D01*
X99806287Y-77023258D01*
X99806291Y-77023258D01*
X99806292Y-77023259D01*
X99951279Y-77052100D01*
X99951282Y-77052100D01*
X100099120Y-77052100D01*
X100229046Y-77026255D01*
X100244113Y-77023258D01*
X100349747Y-76979502D01*
X100380688Y-76966687D01*
X100380688Y-76966686D01*
X100380695Y-76966684D01*
X100503616Y-76884551D01*
X100608151Y-76780016D01*
X100690284Y-76657095D01*
X100691593Y-76653936D01*
X100737080Y-76544119D01*
X100746858Y-76520513D01*
X100767183Y-76418336D01*
X100799568Y-76356425D01*
X100860284Y-76321851D01*
X100930053Y-76325591D01*
X100986725Y-76366458D01*
X101010417Y-76418336D01*
X101030740Y-76520507D01*
X101030743Y-76520517D01*
X101087312Y-76657088D01*
X101087319Y-76657101D01*
X101169448Y-76780015D01*
X101169451Y-76780019D01*
X101273980Y-76884548D01*
X101273984Y-76884551D01*
X101396898Y-76966680D01*
X101396911Y-76966687D01*
X101533482Y-77023256D01*
X101533487Y-77023258D01*
X101533491Y-77023258D01*
X101533492Y-77023259D01*
X101678479Y-77052100D01*
X101678482Y-77052100D01*
X101826320Y-77052100D01*
X101956246Y-77026255D01*
X101971313Y-77023258D01*
X102076947Y-76979502D01*
X102107888Y-76966687D01*
X102107888Y-76966686D01*
X102107895Y-76966684D01*
X102230816Y-76884551D01*
X102335351Y-76780016D01*
X102417484Y-76657095D01*
X102418793Y-76653936D01*
X102463339Y-76546391D01*
X102507179Y-76491987D01*
X102573474Y-76469922D01*
X102641173Y-76487201D01*
X102688784Y-76538338D01*
X102692461Y-76546391D01*
X102738312Y-76657088D01*
X102738319Y-76657101D01*
X102820448Y-76780015D01*
X102820451Y-76780019D01*
X102924980Y-76884548D01*
X102924984Y-76884551D01*
X103047898Y-76966680D01*
X103047911Y-76966687D01*
X103184482Y-77023256D01*
X103184487Y-77023258D01*
X103184491Y-77023258D01*
X103184492Y-77023259D01*
X103329479Y-77052100D01*
X103329482Y-77052100D01*
X103477320Y-77052100D01*
X103607246Y-77026255D01*
X103622313Y-77023258D01*
X103727947Y-76979502D01*
X103758888Y-76966687D01*
X103758888Y-76966686D01*
X103758895Y-76966684D01*
X103881816Y-76884551D01*
X103986351Y-76780016D01*
X104068484Y-76657095D01*
X104069793Y-76653936D01*
X104115280Y-76544119D01*
X104125058Y-76520513D01*
X104152783Y-76381133D01*
X104153900Y-76375520D01*
X104507099Y-76375520D01*
X104535940Y-76520507D01*
X104535943Y-76520517D01*
X104592512Y-76657088D01*
X104592519Y-76657101D01*
X104674648Y-76780015D01*
X104674651Y-76780019D01*
X104779180Y-76884548D01*
X104779184Y-76884551D01*
X104902098Y-76966680D01*
X104902111Y-76966687D01*
X105038682Y-77023256D01*
X105038687Y-77023258D01*
X105038691Y-77023258D01*
X105038692Y-77023259D01*
X105183679Y-77052100D01*
X105183682Y-77052100D01*
X105331520Y-77052100D01*
X105461446Y-77026255D01*
X105476513Y-77023258D01*
X105582147Y-76979502D01*
X105613088Y-76966687D01*
X105613088Y-76966686D01*
X105613095Y-76966684D01*
X105736016Y-76884551D01*
X105840551Y-76780016D01*
X105922684Y-76657095D01*
X105923993Y-76653936D01*
X105969480Y-76544119D01*
X105979258Y-76520513D01*
X106006983Y-76381133D01*
X106008100Y-76375520D01*
X106008100Y-76227679D01*
X105990076Y-76137071D01*
X108724099Y-76137071D01*
X108749097Y-76262738D01*
X108749099Y-76262744D01*
X108798133Y-76381124D01*
X108798138Y-76381133D01*
X108869323Y-76487668D01*
X108869326Y-76487672D01*
X108951173Y-76569519D01*
X108984658Y-76630842D01*
X108979674Y-76700534D01*
X108951173Y-76744881D01*
X108869326Y-76826727D01*
X108869323Y-76826731D01*
X108798138Y-76933266D01*
X108798133Y-76933275D01*
X108749099Y-77051655D01*
X108749097Y-77051661D01*
X108724100Y-77177328D01*
X108724100Y-77177331D01*
X108724100Y-77305469D01*
X108724100Y-77305471D01*
X108724099Y-77305471D01*
X108749097Y-77431138D01*
X108749099Y-77431144D01*
X108798133Y-77549524D01*
X108798138Y-77549533D01*
X108869323Y-77656068D01*
X108869326Y-77656072D01*
X108959927Y-77746673D01*
X108959931Y-77746676D01*
X109066466Y-77817861D01*
X109066472Y-77817864D01*
X109066473Y-77817865D01*
X109184856Y-77866901D01*
X109184860Y-77866901D01*
X109184861Y-77866902D01*
X109310528Y-77891900D01*
X109310531Y-77891900D01*
X109438671Y-77891900D01*
X109523215Y-77875082D01*
X109564344Y-77866901D01*
X109682727Y-77817865D01*
X109789269Y-77746676D01*
X109814672Y-77721273D01*
X109883819Y-77652127D01*
X109945142Y-77618642D01*
X110014834Y-77623626D01*
X110059181Y-77652127D01*
X110128327Y-77721273D01*
X110128331Y-77721276D01*
X110234866Y-77792461D01*
X110234872Y-77792464D01*
X110234873Y-77792465D01*
X110353256Y-77841501D01*
X110353260Y-77841501D01*
X110353261Y-77841502D01*
X110478928Y-77866500D01*
X110478931Y-77866500D01*
X110607071Y-77866500D01*
X110691615Y-77849682D01*
X110732744Y-77841501D01*
X110851127Y-77792465D01*
X110957669Y-77721276D01*
X111048276Y-77630669D01*
X111119465Y-77524127D01*
X111168501Y-77405744D01*
X111188447Y-77305471D01*
X111193500Y-77280071D01*
X111193500Y-77151928D01*
X111168502Y-77026261D01*
X111168501Y-77026260D01*
X111168501Y-77026256D01*
X111119465Y-76907873D01*
X111119464Y-76907872D01*
X111119461Y-76907866D01*
X111048276Y-76801331D01*
X111048273Y-76801327D01*
X110966427Y-76719481D01*
X110932942Y-76658158D01*
X110937926Y-76588466D01*
X110966427Y-76544119D01*
X111048273Y-76462272D01*
X111048276Y-76462269D01*
X111119465Y-76355727D01*
X111168501Y-76237344D01*
X111188447Y-76137071D01*
X111193500Y-76111671D01*
X111193500Y-75983528D01*
X111168502Y-75857861D01*
X111168501Y-75857860D01*
X111168501Y-75857856D01*
X111119465Y-75739473D01*
X111119464Y-75739472D01*
X111119461Y-75739466D01*
X111048276Y-75632931D01*
X111048273Y-75632927D01*
X110957670Y-75542324D01*
X110949531Y-75536886D01*
X110904727Y-75483273D01*
X110896021Y-75413948D01*
X110926177Y-75350921D01*
X110949530Y-75330685D01*
X110983069Y-75308276D01*
X111073676Y-75217669D01*
X111144865Y-75111127D01*
X111193901Y-74992744D01*
X111208143Y-74921146D01*
X111218900Y-74867071D01*
X111218900Y-74738928D01*
X111193902Y-74613261D01*
X111193901Y-74613260D01*
X111193901Y-74613256D01*
X111144865Y-74494873D01*
X111144864Y-74494872D01*
X111144861Y-74494866D01*
X111073676Y-74388331D01*
X111073673Y-74388327D01*
X110991827Y-74306481D01*
X110958342Y-74245158D01*
X110963326Y-74175466D01*
X110991827Y-74131119D01*
X111073673Y-74049272D01*
X111073676Y-74049269D01*
X111144865Y-73942727D01*
X111193901Y-73824344D01*
X111198314Y-73802162D01*
X114686601Y-73802162D01*
X114686601Y-74051238D01*
X114699253Y-74131119D01*
X114725565Y-74297247D01*
X114802531Y-74534128D01*
X114802532Y-74534131D01*
X114905809Y-74736821D01*
X114915611Y-74756058D01*
X115062014Y-74957564D01*
X115238137Y-75133687D01*
X115439643Y-75280090D01*
X115479800Y-75300551D01*
X115661569Y-75393168D01*
X115661572Y-75393169D01*
X115746496Y-75420762D01*
X115898455Y-75470136D01*
X116144463Y-75509100D01*
X116144464Y-75509100D01*
X116393538Y-75509100D01*
X116393539Y-75509100D01*
X116639547Y-75470136D01*
X116876432Y-75393168D01*
X117039832Y-75309911D01*
X127210300Y-75309911D01*
X127210300Y-75552488D01*
X127241961Y-75792985D01*
X127304747Y-76027304D01*
X127397573Y-76251405D01*
X127397577Y-76251414D01*
X127412700Y-76277607D01*
X127518864Y-76461489D01*
X127518866Y-76461492D01*
X127518867Y-76461493D01*
X127666533Y-76653936D01*
X127666539Y-76653943D01*
X127838056Y-76825460D01*
X127838063Y-76825466D01*
X127937414Y-76901700D01*
X128030511Y-76973136D01*
X128240588Y-77094424D01*
X128464700Y-77187254D01*
X128699011Y-77250038D01*
X128879386Y-77273784D01*
X128939511Y-77281700D01*
X128939512Y-77281700D01*
X129182089Y-77281700D01*
X129230188Y-77275367D01*
X129422589Y-77250038D01*
X129656900Y-77187254D01*
X129881012Y-77094424D01*
X130091089Y-76973136D01*
X130283538Y-76825465D01*
X130455065Y-76653938D01*
X130602736Y-76461489D01*
X130724024Y-76251412D01*
X130816854Y-76027300D01*
X130879638Y-75792989D01*
X130911300Y-75552488D01*
X130911300Y-75309912D01*
X130911084Y-75308275D01*
X130903384Y-75249786D01*
X130879638Y-75069411D01*
X130816854Y-74835100D01*
X130724024Y-74610988D01*
X130602736Y-74400911D01*
X130503729Y-74271882D01*
X130455066Y-74208463D01*
X130455060Y-74208456D01*
X130283543Y-74036939D01*
X130283536Y-74036933D01*
X130091093Y-73889267D01*
X130091092Y-73889266D01*
X130091089Y-73889264D01*
X129881012Y-73767976D01*
X129881005Y-73767973D01*
X129656904Y-73675147D01*
X129466545Y-73624140D01*
X129422589Y-73612362D01*
X129422588Y-73612361D01*
X129422585Y-73612361D01*
X129182089Y-73580700D01*
X129182088Y-73580700D01*
X128939512Y-73580700D01*
X128939511Y-73580700D01*
X128699014Y-73612361D01*
X128464695Y-73675147D01*
X128240594Y-73767973D01*
X128240585Y-73767977D01*
X128030506Y-73889267D01*
X127838063Y-74036933D01*
X127838056Y-74036939D01*
X127666539Y-74208456D01*
X127666533Y-74208463D01*
X127518867Y-74400906D01*
X127397577Y-74610985D01*
X127397573Y-74610994D01*
X127304747Y-74835095D01*
X127241961Y-75069414D01*
X127210300Y-75309911D01*
X117039832Y-75309911D01*
X117098359Y-75280090D01*
X117299865Y-75133687D01*
X117475988Y-74957564D01*
X117622391Y-74756058D01*
X117735469Y-74534131D01*
X117812437Y-74297246D01*
X117851401Y-74051238D01*
X117851401Y-73802162D01*
X117812437Y-73556154D01*
X117764772Y-73409454D01*
X117735470Y-73319271D01*
X117735469Y-73319268D01*
X117668047Y-73186947D01*
X117622391Y-73097342D01*
X117475988Y-72895836D01*
X117299865Y-72719713D01*
X117098359Y-72573310D01*
X117062210Y-72554891D01*
X116876432Y-72460231D01*
X116876429Y-72460230D01*
X116639548Y-72383264D01*
X116464688Y-72355569D01*
X116393539Y-72344300D01*
X116144463Y-72344300D01*
X116091712Y-72352655D01*
X115898453Y-72383264D01*
X115661572Y-72460230D01*
X115661569Y-72460231D01*
X115439642Y-72573310D01*
X115324676Y-72656838D01*
X115238137Y-72719713D01*
X115238135Y-72719715D01*
X115238134Y-72719715D01*
X115062016Y-72895833D01*
X115062016Y-72895834D01*
X115062014Y-72895836D01*
X115002338Y-72977973D01*
X114915611Y-73097341D01*
X114802532Y-73319268D01*
X114802531Y-73319271D01*
X114725565Y-73556152D01*
X114701241Y-73709730D01*
X114686601Y-73802162D01*
X111198314Y-73802162D01*
X111204095Y-73773098D01*
X111218900Y-73698671D01*
X111218900Y-73570528D01*
X111193902Y-73444861D01*
X111193901Y-73444860D01*
X111193901Y-73444856D01*
X111144865Y-73326473D01*
X111144864Y-73326472D01*
X111144861Y-73326466D01*
X111073676Y-73219931D01*
X111073673Y-73219927D01*
X111017227Y-73163481D01*
X110983742Y-73102158D01*
X110988726Y-73032466D01*
X111017227Y-72988119D01*
X111073673Y-72931672D01*
X111073676Y-72931669D01*
X111144865Y-72825127D01*
X111193901Y-72706744D01*
X111213847Y-72606471D01*
X111218900Y-72581071D01*
X111218900Y-72452928D01*
X111193902Y-72327261D01*
X111193901Y-72327260D01*
X111193901Y-72327256D01*
X111144865Y-72208873D01*
X111144864Y-72208872D01*
X111144861Y-72208866D01*
X111073676Y-72102331D01*
X111073673Y-72102327D01*
X110983072Y-72011726D01*
X110983068Y-72011723D01*
X110876533Y-71940538D01*
X110876524Y-71940533D01*
X110758144Y-71891499D01*
X110758138Y-71891497D01*
X110632471Y-71866500D01*
X110632469Y-71866500D01*
X110504331Y-71866500D01*
X110504329Y-71866500D01*
X110378661Y-71891497D01*
X110378655Y-71891499D01*
X110260275Y-71940533D01*
X110260266Y-71940538D01*
X110153731Y-72011723D01*
X110153727Y-72011726D01*
X110059181Y-72106273D01*
X109997858Y-72139758D01*
X109928166Y-72134774D01*
X109883819Y-72106273D01*
X109814672Y-72037126D01*
X109814668Y-72037123D01*
X109708133Y-71965938D01*
X109708124Y-71965933D01*
X109589744Y-71916899D01*
X109589738Y-71916897D01*
X109464071Y-71891900D01*
X109464069Y-71891900D01*
X109335931Y-71891900D01*
X109335929Y-71891900D01*
X109210261Y-71916897D01*
X109210255Y-71916899D01*
X109091875Y-71965933D01*
X109091866Y-71965938D01*
X108985331Y-72037123D01*
X108985327Y-72037126D01*
X108894726Y-72127727D01*
X108894723Y-72127731D01*
X108823538Y-72234266D01*
X108823533Y-72234275D01*
X108774499Y-72352655D01*
X108774497Y-72352661D01*
X108749500Y-72478328D01*
X108749500Y-72478331D01*
X108749500Y-72606469D01*
X108749500Y-72606471D01*
X108749499Y-72606471D01*
X108774497Y-72732138D01*
X108774499Y-72732144D01*
X108823533Y-72850524D01*
X108823538Y-72850533D01*
X108894723Y-72957068D01*
X108894726Y-72957072D01*
X108951173Y-73013519D01*
X108984658Y-73074842D01*
X108979674Y-73144534D01*
X108951173Y-73188881D01*
X108894726Y-73245327D01*
X108894723Y-73245331D01*
X108823538Y-73351866D01*
X108823533Y-73351875D01*
X108774499Y-73470255D01*
X108774497Y-73470261D01*
X108749500Y-73595928D01*
X108749500Y-73595931D01*
X108749500Y-73724069D01*
X108749500Y-73724071D01*
X108749499Y-73724071D01*
X108774497Y-73849738D01*
X108774499Y-73849744D01*
X108823533Y-73968124D01*
X108823538Y-73968133D01*
X108894723Y-74074668D01*
X108894726Y-74074672D01*
X108976573Y-74156519D01*
X109010058Y-74217842D01*
X109005074Y-74287534D01*
X108976573Y-74331881D01*
X108894726Y-74413727D01*
X108894723Y-74413731D01*
X108823538Y-74520266D01*
X108823533Y-74520275D01*
X108774499Y-74638655D01*
X108774497Y-74638661D01*
X108749500Y-74764328D01*
X108749500Y-74764331D01*
X108749500Y-74892469D01*
X108749500Y-74892471D01*
X108749499Y-74892471D01*
X108774497Y-75018138D01*
X108774499Y-75018144D01*
X108823533Y-75136524D01*
X108823538Y-75136533D01*
X108894723Y-75243068D01*
X108894726Y-75243072D01*
X108985327Y-75333673D01*
X108985331Y-75333676D01*
X108993466Y-75339112D01*
X109038271Y-75392724D01*
X109046978Y-75462049D01*
X109016823Y-75525077D01*
X108993466Y-75545316D01*
X108959931Y-75567723D01*
X108959927Y-75567726D01*
X108869326Y-75658327D01*
X108869323Y-75658331D01*
X108798138Y-75764866D01*
X108798133Y-75764875D01*
X108749099Y-75883255D01*
X108749097Y-75883261D01*
X108724100Y-76008928D01*
X108724100Y-76008931D01*
X108724100Y-76137069D01*
X108724100Y-76137071D01*
X108724099Y-76137071D01*
X105990076Y-76137071D01*
X105979259Y-76082692D01*
X105979258Y-76082691D01*
X105979258Y-76082687D01*
X105938185Y-75983528D01*
X105922687Y-75946111D01*
X105922680Y-75946098D01*
X105840551Y-75823184D01*
X105840548Y-75823180D01*
X105736019Y-75718651D01*
X105736015Y-75718648D01*
X105613101Y-75636519D01*
X105613088Y-75636512D01*
X105476517Y-75579943D01*
X105476507Y-75579940D01*
X105331520Y-75551100D01*
X105331518Y-75551100D01*
X105183682Y-75551100D01*
X105183680Y-75551100D01*
X105038692Y-75579940D01*
X105038682Y-75579943D01*
X104902111Y-75636512D01*
X104902098Y-75636519D01*
X104779184Y-75718648D01*
X104779180Y-75718651D01*
X104674651Y-75823180D01*
X104674648Y-75823184D01*
X104592519Y-75946098D01*
X104592512Y-75946111D01*
X104535943Y-76082682D01*
X104535940Y-76082692D01*
X104507100Y-76227679D01*
X104507100Y-76227682D01*
X104507100Y-76375518D01*
X104507100Y-76375520D01*
X104507099Y-76375520D01*
X104153900Y-76375520D01*
X104153900Y-76227679D01*
X104125059Y-76082692D01*
X104125058Y-76082691D01*
X104125058Y-76082687D01*
X104102116Y-76027300D01*
X104068487Y-75946111D01*
X104068480Y-75946098D01*
X103986351Y-75823184D01*
X103986348Y-75823180D01*
X103881819Y-75718651D01*
X103881815Y-75718648D01*
X103758901Y-75636519D01*
X103758888Y-75636512D01*
X103622317Y-75579943D01*
X103622307Y-75579940D01*
X103477320Y-75551100D01*
X103477318Y-75551100D01*
X103329482Y-75551100D01*
X103329480Y-75551100D01*
X103184492Y-75579940D01*
X103184482Y-75579943D01*
X103047911Y-75636512D01*
X103047898Y-75636519D01*
X102924984Y-75718648D01*
X102924980Y-75718651D01*
X102820451Y-75823180D01*
X102820448Y-75823184D01*
X102738319Y-75946098D01*
X102738314Y-75946107D01*
X102692461Y-76056809D01*
X102648620Y-76111212D01*
X102582326Y-76133277D01*
X102514627Y-76115998D01*
X102467016Y-76064861D01*
X102463339Y-76056809D01*
X102417485Y-75946107D01*
X102417480Y-75946098D01*
X102335351Y-75823184D01*
X102335348Y-75823180D01*
X102230819Y-75718651D01*
X102230815Y-75718648D01*
X102107901Y-75636519D01*
X102107888Y-75636512D01*
X101971317Y-75579943D01*
X101971307Y-75579940D01*
X101826320Y-75551100D01*
X101826318Y-75551100D01*
X101678482Y-75551100D01*
X101678480Y-75551100D01*
X101533492Y-75579940D01*
X101533482Y-75579943D01*
X101396911Y-75636512D01*
X101396898Y-75636519D01*
X101273984Y-75718648D01*
X101273980Y-75718651D01*
X101169451Y-75823180D01*
X101169448Y-75823184D01*
X101087319Y-75946098D01*
X101087312Y-75946111D01*
X101030743Y-76082682D01*
X101030740Y-76082692D01*
X101010417Y-76184863D01*
X100978032Y-76246774D01*
X100917316Y-76281348D01*
X100847546Y-76277607D01*
X100790875Y-76236741D01*
X100767183Y-76184863D01*
X100746859Y-76082692D01*
X100746858Y-76082691D01*
X100746858Y-76082687D01*
X100723916Y-76027300D01*
X100690287Y-75946111D01*
X100690280Y-75946098D01*
X100608151Y-75823184D01*
X100608148Y-75823180D01*
X100503619Y-75718651D01*
X100503615Y-75718648D01*
X100380701Y-75636519D01*
X100380688Y-75636512D01*
X100244117Y-75579943D01*
X100244107Y-75579940D01*
X100099120Y-75551100D01*
X100099118Y-75551100D01*
X99951282Y-75551100D01*
X99951280Y-75551100D01*
X99806292Y-75579940D01*
X99806282Y-75579943D01*
X99669711Y-75636512D01*
X99669698Y-75636519D01*
X99546784Y-75718648D01*
X99546780Y-75718651D01*
X99442251Y-75823180D01*
X99442248Y-75823184D01*
X99360119Y-75946098D01*
X99360112Y-75946111D01*
X99303543Y-76082682D01*
X99303540Y-76082692D01*
X99274700Y-76227679D01*
X99274700Y-76227682D01*
X99274700Y-76375518D01*
X99274700Y-76375520D01*
X99274699Y-76375520D01*
X98997700Y-76375520D01*
X98997700Y-76227679D01*
X98968859Y-76082692D01*
X98968858Y-76082691D01*
X98968858Y-76082687D01*
X98945916Y-76027300D01*
X98912287Y-75946111D01*
X98912280Y-75946098D01*
X98830151Y-75823184D01*
X98830148Y-75823180D01*
X98725619Y-75718651D01*
X98725615Y-75718648D01*
X98602701Y-75636519D01*
X98602688Y-75636512D01*
X98466117Y-75579943D01*
X98466107Y-75579940D01*
X98321120Y-75551100D01*
X98321118Y-75551100D01*
X98173282Y-75551100D01*
X98173280Y-75551100D01*
X98028292Y-75579940D01*
X98028282Y-75579943D01*
X97891707Y-75636514D01*
X97859062Y-75658327D01*
X97805144Y-75694353D01*
X97738468Y-75715231D01*
X97736255Y-75715251D01*
X95653649Y-75715251D01*
X95586610Y-75695566D01*
X95540855Y-75642762D01*
X95529649Y-75591251D01*
X95529649Y-75061295D01*
X95549334Y-74994256D01*
X95565968Y-74973614D01*
X95646145Y-74893436D01*
X95646147Y-74893434D01*
X95697522Y-74788344D01*
X95707449Y-74720211D01*
X95707449Y-74445120D01*
X97496699Y-74445120D01*
X97525540Y-74590107D01*
X97525543Y-74590117D01*
X97582112Y-74726688D01*
X97582119Y-74726701D01*
X97664248Y-74849615D01*
X97664251Y-74849619D01*
X97768780Y-74954148D01*
X97768784Y-74954151D01*
X97891698Y-75036280D01*
X97891711Y-75036287D01*
X98028096Y-75092779D01*
X98028287Y-75092858D01*
X98028291Y-75092858D01*
X98028292Y-75092859D01*
X98173279Y-75121700D01*
X98173282Y-75121700D01*
X98321120Y-75121700D01*
X98448809Y-75096300D01*
X98466113Y-75092858D01*
X98602695Y-75036284D01*
X98725616Y-74954151D01*
X98830151Y-74849616D01*
X98912284Y-74726695D01*
X98912613Y-74725902D01*
X98960211Y-74610988D01*
X98968858Y-74590113D01*
X98982752Y-74520266D01*
X98997700Y-74445120D01*
X99274699Y-74445120D01*
X99303540Y-74590107D01*
X99303543Y-74590117D01*
X99360112Y-74726688D01*
X99360119Y-74726701D01*
X99442248Y-74849615D01*
X99442251Y-74849619D01*
X99546780Y-74954148D01*
X99546784Y-74954151D01*
X99669698Y-75036280D01*
X99669711Y-75036287D01*
X99806096Y-75092779D01*
X99806287Y-75092858D01*
X99806291Y-75092858D01*
X99806292Y-75092859D01*
X99951279Y-75121700D01*
X99951282Y-75121700D01*
X100099120Y-75121700D01*
X100226809Y-75096300D01*
X100244113Y-75092858D01*
X100380695Y-75036284D01*
X100503616Y-74954151D01*
X100608151Y-74849616D01*
X100690284Y-74726695D01*
X100690613Y-74725902D01*
X100738211Y-74610988D01*
X100746858Y-74590113D01*
X100760752Y-74520266D01*
X100767183Y-74487936D01*
X100799568Y-74426025D01*
X100860284Y-74391451D01*
X100930053Y-74395191D01*
X100986725Y-74436058D01*
X101010417Y-74487936D01*
X101030740Y-74590107D01*
X101030743Y-74590117D01*
X101087312Y-74726688D01*
X101087319Y-74726701D01*
X101169448Y-74849615D01*
X101169451Y-74849619D01*
X101273980Y-74954148D01*
X101273984Y-74954151D01*
X101396898Y-75036280D01*
X101396911Y-75036287D01*
X101533296Y-75092779D01*
X101533487Y-75092858D01*
X101533491Y-75092858D01*
X101533492Y-75092859D01*
X101678479Y-75121700D01*
X101678482Y-75121700D01*
X101826320Y-75121700D01*
X101954009Y-75096300D01*
X101971313Y-75092858D01*
X102107895Y-75036284D01*
X102230816Y-74954151D01*
X102335351Y-74849616D01*
X102417484Y-74726695D01*
X102417813Y-74725902D01*
X102463339Y-74615991D01*
X102507179Y-74561587D01*
X102573474Y-74539522D01*
X102641173Y-74556801D01*
X102688784Y-74607938D01*
X102692461Y-74615991D01*
X102738312Y-74726688D01*
X102738319Y-74726701D01*
X102820448Y-74849615D01*
X102820451Y-74849619D01*
X102924980Y-74954148D01*
X102924984Y-74954151D01*
X103047898Y-75036280D01*
X103047911Y-75036287D01*
X103184296Y-75092779D01*
X103184487Y-75092858D01*
X103184491Y-75092858D01*
X103184492Y-75092859D01*
X103329479Y-75121700D01*
X103329482Y-75121700D01*
X103477320Y-75121700D01*
X103605009Y-75096300D01*
X103622313Y-75092858D01*
X103758895Y-75036284D01*
X103881816Y-74954151D01*
X103986351Y-74849616D01*
X104068484Y-74726695D01*
X104068813Y-74725902D01*
X104116411Y-74610988D01*
X104125058Y-74590113D01*
X104142413Y-74502864D01*
X104147909Y-74475237D01*
X104180294Y-74413326D01*
X104241010Y-74378752D01*
X104310779Y-74382491D01*
X104367451Y-74423358D01*
X104391143Y-74475236D01*
X104408940Y-74564707D01*
X104408943Y-74564717D01*
X104465512Y-74701288D01*
X104465519Y-74701301D01*
X104547648Y-74824215D01*
X104547651Y-74824219D01*
X104652180Y-74928748D01*
X104652184Y-74928751D01*
X104775098Y-75010880D01*
X104775111Y-75010887D01*
X104911682Y-75067456D01*
X104911687Y-75067458D01*
X104911691Y-75067458D01*
X104911692Y-75067459D01*
X105056679Y-75096300D01*
X105056682Y-75096300D01*
X105204520Y-75096300D01*
X105318907Y-75073546D01*
X105349513Y-75067458D01*
X105486095Y-75010884D01*
X105609016Y-74928751D01*
X105713551Y-74824216D01*
X105795684Y-74701295D01*
X105852258Y-74564713D01*
X105877850Y-74436058D01*
X105881100Y-74419720D01*
X105881100Y-74271879D01*
X105852259Y-74126892D01*
X105852258Y-74126891D01*
X105852258Y-74126887D01*
X105852060Y-74126409D01*
X105795687Y-73990311D01*
X105795680Y-73990298D01*
X105713551Y-73867384D01*
X105713548Y-73867380D01*
X105609019Y-73762851D01*
X105609015Y-73762848D01*
X105486101Y-73680719D01*
X105486088Y-73680712D01*
X105349517Y-73624143D01*
X105349507Y-73624140D01*
X105204520Y-73595300D01*
X105204518Y-73595300D01*
X105056682Y-73595300D01*
X105056680Y-73595300D01*
X104911692Y-73624140D01*
X104911682Y-73624143D01*
X104775111Y-73680712D01*
X104775098Y-73680719D01*
X104652184Y-73762848D01*
X104652180Y-73762851D01*
X104547651Y-73867380D01*
X104547648Y-73867384D01*
X104465519Y-73990298D01*
X104465512Y-73990311D01*
X104408943Y-74126882D01*
X104408941Y-74126891D01*
X104386090Y-74241764D01*
X104353704Y-74303674D01*
X104292988Y-74338248D01*
X104223219Y-74334507D01*
X104166547Y-74293640D01*
X104142856Y-74241762D01*
X104139827Y-74226535D01*
X104125058Y-74152287D01*
X104114339Y-74126409D01*
X104068487Y-74015711D01*
X104068480Y-74015698D01*
X103986351Y-73892784D01*
X103986348Y-73892780D01*
X103881819Y-73788251D01*
X103881815Y-73788248D01*
X103758901Y-73706119D01*
X103758888Y-73706112D01*
X103622317Y-73649543D01*
X103622307Y-73649540D01*
X103477320Y-73620700D01*
X103477318Y-73620700D01*
X103329482Y-73620700D01*
X103329480Y-73620700D01*
X103184492Y-73649540D01*
X103184482Y-73649543D01*
X103047911Y-73706112D01*
X103047898Y-73706119D01*
X102924984Y-73788248D01*
X102924980Y-73788251D01*
X102820451Y-73892780D01*
X102820448Y-73892784D01*
X102738319Y-74015698D01*
X102738314Y-74015707D01*
X102692461Y-74126409D01*
X102648620Y-74180812D01*
X102582326Y-74202877D01*
X102514627Y-74185598D01*
X102467016Y-74134461D01*
X102463339Y-74126409D01*
X102417485Y-74015707D01*
X102417480Y-74015698D01*
X102335351Y-73892784D01*
X102335348Y-73892780D01*
X102230819Y-73788251D01*
X102230815Y-73788248D01*
X102107901Y-73706119D01*
X102107888Y-73706112D01*
X101971317Y-73649543D01*
X101971307Y-73649540D01*
X101826320Y-73620700D01*
X101826318Y-73620700D01*
X101678482Y-73620700D01*
X101678480Y-73620700D01*
X101533492Y-73649540D01*
X101533482Y-73649543D01*
X101396911Y-73706112D01*
X101396898Y-73706119D01*
X101273984Y-73788248D01*
X101273980Y-73788251D01*
X101169451Y-73892780D01*
X101169448Y-73892784D01*
X101087319Y-74015698D01*
X101087312Y-74015711D01*
X101030743Y-74152282D01*
X101030740Y-74152292D01*
X101010417Y-74254463D01*
X100978032Y-74316374D01*
X100917316Y-74350948D01*
X100847546Y-74347207D01*
X100790875Y-74306341D01*
X100767183Y-74254463D01*
X100746859Y-74152292D01*
X100746858Y-74152291D01*
X100746858Y-74152287D01*
X100736139Y-74126409D01*
X100690287Y-74015711D01*
X100690280Y-74015698D01*
X100608151Y-73892784D01*
X100608148Y-73892780D01*
X100503619Y-73788251D01*
X100503615Y-73788248D01*
X100380701Y-73706119D01*
X100380688Y-73706112D01*
X100244117Y-73649543D01*
X100244107Y-73649540D01*
X100099120Y-73620700D01*
X100099118Y-73620700D01*
X99951282Y-73620700D01*
X99951280Y-73620700D01*
X99806292Y-73649540D01*
X99806282Y-73649543D01*
X99669711Y-73706112D01*
X99669698Y-73706119D01*
X99546784Y-73788248D01*
X99546780Y-73788251D01*
X99442251Y-73892780D01*
X99442248Y-73892784D01*
X99360119Y-74015698D01*
X99360112Y-74015711D01*
X99303543Y-74152282D01*
X99303540Y-74152292D01*
X99274700Y-74297279D01*
X99274700Y-74297282D01*
X99274700Y-74445118D01*
X99274700Y-74445120D01*
X99274699Y-74445120D01*
X98997700Y-74445120D01*
X98997700Y-74297279D01*
X98968859Y-74152292D01*
X98968858Y-74152291D01*
X98968858Y-74152287D01*
X98958139Y-74126409D01*
X98912287Y-74015711D01*
X98912280Y-74015698D01*
X98830151Y-73892784D01*
X98830148Y-73892780D01*
X98725619Y-73788251D01*
X98725615Y-73788248D01*
X98602701Y-73706119D01*
X98602688Y-73706112D01*
X98466117Y-73649543D01*
X98466107Y-73649540D01*
X98321120Y-73620700D01*
X98321118Y-73620700D01*
X98173282Y-73620700D01*
X98173280Y-73620700D01*
X98028292Y-73649540D01*
X98028282Y-73649543D01*
X97891711Y-73706112D01*
X97891698Y-73706119D01*
X97768784Y-73788248D01*
X97768780Y-73788251D01*
X97664251Y-73892780D01*
X97664248Y-73892784D01*
X97582119Y-74015698D01*
X97582112Y-74015711D01*
X97525543Y-74152282D01*
X97525540Y-74152292D01*
X97496700Y-74297279D01*
X97496700Y-74297282D01*
X97496700Y-74445118D01*
X97496700Y-74445120D01*
X97496699Y-74445120D01*
X95707449Y-74445120D01*
X95707449Y-74153691D01*
X95707245Y-74152294D01*
X95697522Y-74085559D01*
X95692200Y-74074672D01*
X95646147Y-73980468D01*
X95646145Y-73980466D01*
X95646145Y-73980465D01*
X95563434Y-73897754D01*
X95458340Y-73846377D01*
X95390210Y-73836451D01*
X95390209Y-73836451D01*
X94668089Y-73836451D01*
X94668088Y-73836451D01*
X94599957Y-73846377D01*
X94530810Y-73880181D01*
X94461937Y-73891939D01*
X94421890Y-73880181D01*
X94352742Y-73846377D01*
X94284612Y-73836451D01*
X94284611Y-73836451D01*
X94014055Y-73836451D01*
X93952057Y-73819839D01*
X93907135Y-73793904D01*
X93907136Y-73793904D01*
X93859582Y-73781162D01*
X93786200Y-73761499D01*
X93786198Y-73761499D01*
X93118642Y-73761499D01*
X93111313Y-73759347D01*
X93103780Y-73760605D01*
X93078255Y-73749640D01*
X93051603Y-73741814D01*
X93044990Y-73735350D01*
X93039583Y-73733027D01*
X93029441Y-73720149D01*
X93015872Y-73706884D01*
X93007265Y-73694136D01*
X93006824Y-73691106D01*
X92955449Y-73586016D01*
X92890248Y-73520815D01*
X92883581Y-73510940D01*
X92876449Y-73488542D01*
X92865185Y-73467913D01*
X92862790Y-73445644D01*
X92862383Y-73444364D01*
X92862575Y-73443647D01*
X92862351Y-73441555D01*
X92862351Y-73409454D01*
X92862352Y-73409441D01*
X92862352Y-73274251D01*
X92862351Y-73274247D01*
X92857724Y-73256981D01*
X92847797Y-73219931D01*
X92829948Y-73153321D01*
X92829947Y-73153318D01*
X92829946Y-73153315D01*
X92827671Y-73149375D01*
X92816095Y-73129323D01*
X92816095Y-73129324D01*
X92767346Y-73044887D01*
X92678815Y-72956356D01*
X92678814Y-72956355D01*
X92674484Y-72952025D01*
X92674473Y-72952015D01*
X92092220Y-72369761D01*
X92077516Y-72342833D01*
X92060924Y-72317015D01*
X92060032Y-72310814D01*
X92058735Y-72308438D01*
X92055901Y-72282080D01*
X92055901Y-72123522D01*
X92075586Y-72056483D01*
X92128390Y-72010728D01*
X92197548Y-72000784D01*
X92261104Y-72029809D01*
X92267582Y-72035841D01*
X92951436Y-72719695D01*
X93059864Y-72782295D01*
X93180799Y-72814700D01*
X93180801Y-72814700D01*
X95718999Y-72814700D01*
X95719001Y-72814700D01*
X95839936Y-72782295D01*
X95948364Y-72719695D01*
X96992254Y-71675802D01*
X96992259Y-71675799D01*
X97002462Y-71665595D01*
X97002464Y-71665595D01*
X97090995Y-71577064D01*
X97153595Y-71468636D01*
X97161913Y-71437595D01*
X97186001Y-71347701D01*
X97186001Y-71246899D01*
X97187066Y-71238826D01*
X97198045Y-71214024D01*
X97205686Y-71188003D01*
X97214292Y-71177321D01*
X97215349Y-71174936D01*
X97217196Y-71173717D01*
X97222315Y-71167365D01*
X97279098Y-71110583D01*
X97330473Y-71005493D01*
X97340400Y-70937360D01*
X97340400Y-70723087D01*
X97360085Y-70656048D01*
X97376719Y-70635406D01*
X98143825Y-69868300D01*
X98992510Y-69019615D01*
X99064984Y-68894085D01*
X99077397Y-68847761D01*
X99077441Y-68847598D01*
X99086612Y-68813366D01*
X99102500Y-68754075D01*
X99102500Y-66789871D01*
X102295699Y-66789871D01*
X102320697Y-66915538D01*
X102320699Y-66915544D01*
X102369733Y-67033924D01*
X102369738Y-67033933D01*
X102440923Y-67140468D01*
X102440926Y-67140472D01*
X102531527Y-67231073D01*
X102531531Y-67231076D01*
X102638066Y-67302261D01*
X102638072Y-67302264D01*
X102638073Y-67302265D01*
X102756456Y-67351301D01*
X102756460Y-67351301D01*
X102756461Y-67351302D01*
X102882128Y-67376300D01*
X102882131Y-67376300D01*
X103010271Y-67376300D01*
X103094815Y-67359482D01*
X103135944Y-67351301D01*
X103254327Y-67302265D01*
X103360869Y-67231076D01*
X103373045Y-67218900D01*
X103391919Y-67200027D01*
X103453242Y-67166542D01*
X103522934Y-67171526D01*
X103567281Y-67200027D01*
X103598327Y-67231073D01*
X103598331Y-67231076D01*
X103704866Y-67302261D01*
X103704872Y-67302264D01*
X103704873Y-67302265D01*
X103823256Y-67351301D01*
X103823260Y-67351301D01*
X103823261Y-67351302D01*
X103948928Y-67376300D01*
X103948931Y-67376300D01*
X104077071Y-67376300D01*
X104161615Y-67359482D01*
X104202744Y-67351301D01*
X104321127Y-67302265D01*
X104427669Y-67231076D01*
X104439845Y-67218900D01*
X104484119Y-67174627D01*
X104545442Y-67141142D01*
X104615134Y-67146126D01*
X104659481Y-67174627D01*
X104715927Y-67231073D01*
X104715931Y-67231076D01*
X104822466Y-67302261D01*
X104822472Y-67302264D01*
X104822473Y-67302265D01*
X104940856Y-67351301D01*
X104940860Y-67351301D01*
X104940861Y-67351302D01*
X105066528Y-67376300D01*
X105066531Y-67376300D01*
X105194671Y-67376300D01*
X105279215Y-67359482D01*
X105320344Y-67351301D01*
X105438727Y-67302265D01*
X105545269Y-67231076D01*
X105635876Y-67140469D01*
X105707065Y-67033927D01*
X105756101Y-66915544D01*
X105764282Y-66874415D01*
X105781100Y-66789871D01*
X105781100Y-66661728D01*
X105756102Y-66536061D01*
X105756101Y-66536060D01*
X105756101Y-66536056D01*
X105707065Y-66417673D01*
X105707064Y-66417672D01*
X105707061Y-66417666D01*
X105657684Y-66343768D01*
X105636806Y-66277090D01*
X105655291Y-66209710D01*
X105658059Y-66205845D01*
X105657892Y-66205734D01*
X105732461Y-66094133D01*
X105732461Y-66094132D01*
X105732465Y-66094127D01*
X105781501Y-65975744D01*
X105799054Y-65887501D01*
X105806500Y-65850071D01*
X105806500Y-65721928D01*
X105781502Y-65596261D01*
X105781501Y-65596260D01*
X105781501Y-65596256D01*
X105732465Y-65477873D01*
X105732464Y-65477872D01*
X105732461Y-65477866D01*
X105661276Y-65371331D01*
X105661273Y-65371327D01*
X105570672Y-65280726D01*
X105570668Y-65280723D01*
X105464133Y-65209538D01*
X105464124Y-65209533D01*
X105345744Y-65160499D01*
X105345738Y-65160497D01*
X105220071Y-65135500D01*
X105220069Y-65135500D01*
X105091931Y-65135500D01*
X105091929Y-65135500D01*
X104966261Y-65160497D01*
X104966255Y-65160499D01*
X104847875Y-65209533D01*
X104847866Y-65209538D01*
X104741331Y-65280723D01*
X104741327Y-65280726D01*
X104684881Y-65337173D01*
X104623558Y-65370658D01*
X104553866Y-65365674D01*
X104509519Y-65337173D01*
X104453072Y-65280726D01*
X104453068Y-65280723D01*
X104346533Y-65209538D01*
X104346524Y-65209533D01*
X104228144Y-65160499D01*
X104228138Y-65160497D01*
X104102471Y-65135500D01*
X104102469Y-65135500D01*
X103974331Y-65135500D01*
X103974329Y-65135500D01*
X103848661Y-65160497D01*
X103848655Y-65160499D01*
X103730275Y-65209533D01*
X103730266Y-65209538D01*
X103623731Y-65280723D01*
X103623727Y-65280726D01*
X103592681Y-65311773D01*
X103531358Y-65345258D01*
X103461666Y-65340274D01*
X103417319Y-65311773D01*
X103386272Y-65280726D01*
X103386268Y-65280723D01*
X103279733Y-65209538D01*
X103279724Y-65209533D01*
X103161344Y-65160499D01*
X103161338Y-65160497D01*
X103035671Y-65135500D01*
X103035669Y-65135500D01*
X102907531Y-65135500D01*
X102907529Y-65135500D01*
X102781861Y-65160497D01*
X102781855Y-65160499D01*
X102663475Y-65209533D01*
X102663466Y-65209538D01*
X102556931Y-65280723D01*
X102556927Y-65280726D01*
X102466326Y-65371327D01*
X102466323Y-65371331D01*
X102395138Y-65477866D01*
X102395133Y-65477875D01*
X102346099Y-65596255D01*
X102346097Y-65596261D01*
X102321100Y-65721928D01*
X102321100Y-65721931D01*
X102321100Y-65850069D01*
X102321100Y-65850071D01*
X102321099Y-65850071D01*
X102346097Y-65975738D01*
X102346099Y-65975744D01*
X102395133Y-66094124D01*
X102395141Y-66094138D01*
X102444515Y-66168032D01*
X102465393Y-66234709D01*
X102446908Y-66302089D01*
X102444147Y-66305959D01*
X102444308Y-66306066D01*
X102369738Y-66417666D01*
X102369733Y-66417675D01*
X102320699Y-66536055D01*
X102320697Y-66536061D01*
X102295700Y-66661728D01*
X102295700Y-66661731D01*
X102295700Y-66789869D01*
X102295700Y-66789871D01*
X102295699Y-66789871D01*
X99102500Y-66789871D01*
X99102500Y-62243271D01*
X100339899Y-62243271D01*
X100364897Y-62368938D01*
X100364899Y-62368944D01*
X100413933Y-62487324D01*
X100413938Y-62487333D01*
X100485123Y-62593868D01*
X100485126Y-62593872D01*
X100575727Y-62684473D01*
X100575731Y-62684476D01*
X100682266Y-62755661D01*
X100682275Y-62755666D01*
X100700442Y-62763191D01*
X100800656Y-62804701D01*
X100800660Y-62804701D01*
X100800661Y-62804702D01*
X100926328Y-62829700D01*
X100926331Y-62829700D01*
X101054471Y-62829700D01*
X101139015Y-62812882D01*
X101180144Y-62804701D01*
X101298527Y-62755665D01*
X101369649Y-62708143D01*
X102229100Y-62708143D01*
X102229100Y-62866257D01*
X102270023Y-63018984D01*
X102349080Y-63155915D01*
X102349081Y-63155916D01*
X102353144Y-63162953D01*
X102350138Y-63164688D01*
X102369530Y-63215050D01*
X102355399Y-63283476D01*
X102352927Y-63287321D01*
X102353144Y-63287447D01*
X102349081Y-63294483D01*
X102349080Y-63294485D01*
X102318295Y-63347807D01*
X102270024Y-63431413D01*
X102270023Y-63431416D01*
X102229100Y-63584143D01*
X102229100Y-63742257D01*
X102270023Y-63894984D01*
X102349080Y-64031915D01*
X102460884Y-64143719D01*
X102597815Y-64222776D01*
X102750542Y-64263699D01*
X102750544Y-64263699D01*
X102908654Y-64263699D01*
X102908656Y-64263699D01*
X103061383Y-64222776D01*
X103061391Y-64222771D01*
X103068893Y-64219665D01*
X103070204Y-64222830D01*
X103122647Y-64210041D01*
X103188701Y-64232815D01*
X103231957Y-64287684D01*
X103236667Y-64301807D01*
X103245022Y-64332987D01*
X103324079Y-64469918D01*
X103435883Y-64581722D01*
X103572814Y-64660779D01*
X103725541Y-64701702D01*
X103725543Y-64701702D01*
X103883653Y-64701702D01*
X103883655Y-64701702D01*
X104036382Y-64660779D01*
X104173313Y-64581722D01*
X104285117Y-64469918D01*
X104364174Y-64332987D01*
X104372527Y-64301813D01*
X104408888Y-64242156D01*
X104471734Y-64211625D01*
X104540241Y-64219814D01*
X104540303Y-64219665D01*
X104540834Y-64219885D01*
X104541109Y-64219918D01*
X104542042Y-64220385D01*
X104547806Y-64222772D01*
X104547813Y-64222776D01*
X104700540Y-64263699D01*
X104700542Y-64263699D01*
X104858652Y-64263699D01*
X104858654Y-64263699D01*
X105011381Y-64222776D01*
X105148312Y-64143719D01*
X105260116Y-64031915D01*
X105339173Y-63894984D01*
X105380096Y-63742257D01*
X105380096Y-63584143D01*
X105339173Y-63431416D01*
X105260116Y-63294485D01*
X105260114Y-63294483D01*
X105256052Y-63287447D01*
X105259099Y-63285687D01*
X105239691Y-63235665D01*
X105253648Y-63167204D01*
X105256291Y-63163091D01*
X105256052Y-63162953D01*
X105260114Y-63155916D01*
X105260116Y-63155915D01*
X105339173Y-63018984D01*
X105380096Y-62866257D01*
X105380096Y-62708143D01*
X105339173Y-62555416D01*
X105260116Y-62418485D01*
X105148312Y-62306681D01*
X105048072Y-62248808D01*
X105011383Y-62227625D01*
X105011382Y-62227624D01*
X105011381Y-62227624D01*
X104858654Y-62186701D01*
X104700540Y-62186701D01*
X104547813Y-62227624D01*
X104540303Y-62230735D01*
X104539007Y-62227606D01*
X104486282Y-62240345D01*
X104420277Y-62217430D01*
X104377139Y-62162468D01*
X104372525Y-62148584D01*
X104364174Y-62117416D01*
X104285117Y-61980485D01*
X104173313Y-61868681D01*
X104036382Y-61789624D01*
X103883655Y-61748701D01*
X103725541Y-61748701D01*
X103572814Y-61789624D01*
X103572811Y-61789625D01*
X103435881Y-61868682D01*
X103324080Y-61980483D01*
X103245023Y-62117413D01*
X103245021Y-62117418D01*
X103236669Y-62148587D01*
X103200303Y-62208247D01*
X103137455Y-62238775D01*
X103068956Y-62230582D01*
X103068893Y-62230735D01*
X103068350Y-62230510D01*
X103068080Y-62230478D01*
X103067155Y-62230015D01*
X103061385Y-62227625D01*
X103061383Y-62227624D01*
X102908656Y-62186701D01*
X102750542Y-62186701D01*
X102597815Y-62227624D01*
X102597812Y-62227625D01*
X102460882Y-62306682D01*
X102349081Y-62418483D01*
X102270024Y-62555413D01*
X102270023Y-62555416D01*
X102229100Y-62708143D01*
X101369649Y-62708143D01*
X101405069Y-62684476D01*
X101419477Y-62670068D01*
X101477211Y-62612335D01*
X101495673Y-62593872D01*
X101495676Y-62593869D01*
X101566865Y-62487327D01*
X101615901Y-62368944D01*
X101625742Y-62319469D01*
X101640900Y-62243271D01*
X101640900Y-62115128D01*
X101615902Y-61989461D01*
X101615901Y-61989460D01*
X101615901Y-61989456D01*
X101566865Y-61871073D01*
X101566864Y-61871072D01*
X101566861Y-61871066D01*
X101495676Y-61764531D01*
X101495673Y-61764527D01*
X101439227Y-61708081D01*
X101405742Y-61646758D01*
X101410726Y-61577066D01*
X101439227Y-61532719D01*
X101521073Y-61450872D01*
X101521076Y-61450869D01*
X101592265Y-61344327D01*
X101641301Y-61225944D01*
X101666300Y-61100269D01*
X101666300Y-60972131D01*
X101666300Y-60972128D01*
X101641302Y-60846461D01*
X101641301Y-60846460D01*
X101641301Y-60846456D01*
X101592265Y-60728073D01*
X101592264Y-60728072D01*
X101592261Y-60728066D01*
X101521076Y-60621531D01*
X101521073Y-60621527D01*
X101430472Y-60530926D01*
X101430468Y-60530923D01*
X101323933Y-60459738D01*
X101323924Y-60459733D01*
X101205544Y-60410699D01*
X101205538Y-60410697D01*
X101079871Y-60385700D01*
X101079869Y-60385700D01*
X100951731Y-60385700D01*
X100951729Y-60385700D01*
X100826061Y-60410697D01*
X100826055Y-60410699D01*
X100707675Y-60459733D01*
X100707666Y-60459738D01*
X100601131Y-60530923D01*
X100601127Y-60530926D01*
X100510526Y-60621527D01*
X100510523Y-60621531D01*
X100439338Y-60728066D01*
X100439333Y-60728075D01*
X100390299Y-60846455D01*
X100390297Y-60846461D01*
X100365300Y-60972128D01*
X100365300Y-60972131D01*
X100365300Y-61100269D01*
X100365300Y-61100271D01*
X100365299Y-61100271D01*
X100390297Y-61225938D01*
X100390299Y-61225944D01*
X100439333Y-61344324D01*
X100439338Y-61344333D01*
X100510523Y-61450868D01*
X100510526Y-61450872D01*
X100566973Y-61507319D01*
X100600458Y-61568642D01*
X100595474Y-61638334D01*
X100566973Y-61682681D01*
X100485126Y-61764527D01*
X100485123Y-61764531D01*
X100413938Y-61871066D01*
X100413933Y-61871075D01*
X100364899Y-61989455D01*
X100364897Y-61989461D01*
X100339900Y-62115128D01*
X100339900Y-62115131D01*
X100339900Y-62243269D01*
X100339900Y-62243271D01*
X100339899Y-62243271D01*
X99102500Y-62243271D01*
X99102500Y-60582725D01*
X99064984Y-60442715D01*
X98992510Y-60317185D01*
X98784996Y-60109671D01*
X105064299Y-60109671D01*
X105089297Y-60235338D01*
X105089299Y-60235344D01*
X105138333Y-60353724D01*
X105138338Y-60353733D01*
X105209523Y-60460268D01*
X105209526Y-60460272D01*
X105300127Y-60550873D01*
X105300131Y-60550876D01*
X105406666Y-60622061D01*
X105406672Y-60622064D01*
X105406673Y-60622065D01*
X105525056Y-60671101D01*
X105525060Y-60671101D01*
X105525061Y-60671102D01*
X105650728Y-60696100D01*
X105650731Y-60696100D01*
X105778871Y-60696100D01*
X105863415Y-60679282D01*
X105904544Y-60671101D01*
X106022927Y-60622065D01*
X106129469Y-60550876D01*
X106135116Y-60545228D01*
X106196436Y-60511742D01*
X106266128Y-60516723D01*
X106310483Y-60545228D01*
X106316131Y-60550876D01*
X106351485Y-60574498D01*
X106422666Y-60622061D01*
X106422672Y-60622064D01*
X106422673Y-60622065D01*
X106541056Y-60671101D01*
X106541060Y-60671101D01*
X106541061Y-60671102D01*
X106666728Y-60696100D01*
X106666731Y-60696100D01*
X106794871Y-60696100D01*
X106879415Y-60679282D01*
X106920544Y-60671101D01*
X107038927Y-60622065D01*
X107145469Y-60550876D01*
X107236076Y-60460269D01*
X107307265Y-60353727D01*
X107356301Y-60235344D01*
X107381300Y-60109669D01*
X107381300Y-59981531D01*
X107381300Y-59981528D01*
X107356302Y-59855861D01*
X107356301Y-59855860D01*
X107356301Y-59855856D01*
X107307265Y-59737473D01*
X107307264Y-59737472D01*
X107307261Y-59737466D01*
X107236076Y-59630931D01*
X107236073Y-59630927D01*
X107145472Y-59540326D01*
X107145468Y-59540323D01*
X107038933Y-59469138D01*
X107038924Y-59469133D01*
X106920544Y-59420099D01*
X106920538Y-59420097D01*
X106794871Y-59395100D01*
X106794869Y-59395100D01*
X106666731Y-59395100D01*
X106666729Y-59395100D01*
X106541061Y-59420097D01*
X106541055Y-59420099D01*
X106422675Y-59469133D01*
X106422666Y-59469138D01*
X106316131Y-59540323D01*
X106316127Y-59540326D01*
X106310481Y-59545973D01*
X106249158Y-59579458D01*
X106179466Y-59574474D01*
X106135119Y-59545973D01*
X106129472Y-59540326D01*
X106129468Y-59540323D01*
X106022933Y-59469138D01*
X106022924Y-59469133D01*
X105904544Y-59420099D01*
X105904538Y-59420097D01*
X105778871Y-59395100D01*
X105778869Y-59395100D01*
X105650731Y-59395100D01*
X105650729Y-59395100D01*
X105525061Y-59420097D01*
X105525055Y-59420099D01*
X105406675Y-59469133D01*
X105406666Y-59469138D01*
X105300131Y-59540323D01*
X105300127Y-59540326D01*
X105209526Y-59630927D01*
X105209523Y-59630931D01*
X105138338Y-59737466D01*
X105138333Y-59737475D01*
X105089299Y-59855855D01*
X105089297Y-59855861D01*
X105064300Y-59981528D01*
X105064300Y-59981531D01*
X105064300Y-60109669D01*
X105064300Y-60109671D01*
X105064299Y-60109671D01*
X98784996Y-60109671D01*
X97914819Y-59239494D01*
X97881334Y-59178171D01*
X97878500Y-59151813D01*
X97878500Y-59047432D01*
X97878499Y-59047428D01*
X97855922Y-58933925D01*
X97845816Y-58883118D01*
X97781703Y-58728337D01*
X97722569Y-58639837D01*
X97688626Y-58589037D01*
X97570162Y-58470573D01*
X97430860Y-58377495D01*
X97276082Y-58313384D01*
X97276074Y-58313382D01*
X97111771Y-58280700D01*
X97111767Y-58280700D01*
X96944233Y-58280700D01*
X96944228Y-58280700D01*
X96779925Y-58313382D01*
X96779917Y-58313384D01*
X96625139Y-58377495D01*
X96485837Y-58470573D01*
X96367373Y-58589037D01*
X96274295Y-58728339D01*
X96210184Y-58883117D01*
X96210182Y-58883125D01*
X96177500Y-59047428D01*
X96177500Y-59214971D01*
X96210182Y-59379274D01*
X96210184Y-59379282D01*
X96274295Y-59534060D01*
X96367373Y-59673362D01*
X96485836Y-59791825D01*
X96547631Y-59833115D01*
X96625137Y-59884903D01*
X96779918Y-59949016D01*
X96943368Y-59981528D01*
X96944228Y-59981699D01*
X96944232Y-59981700D01*
X96944233Y-59981700D01*
X97048613Y-59981700D01*
X97115652Y-60001385D01*
X97136294Y-60018019D01*
X97965181Y-60846906D01*
X97998666Y-60908229D01*
X98001500Y-60934587D01*
X98001500Y-64049440D01*
X97981815Y-64116479D01*
X97929011Y-64162234D01*
X97859853Y-64172178D01*
X97796297Y-64143153D01*
X97770112Y-64111439D01*
X97735210Y-64050986D01*
X97529119Y-63844894D01*
X97495634Y-63783571D01*
X97492800Y-63757213D01*
X97492800Y-63415939D01*
X97483240Y-63350324D01*
X97482873Y-63347807D01*
X97431498Y-63242717D01*
X97431496Y-63242715D01*
X97431496Y-63242714D01*
X97348119Y-63159337D01*
X97333415Y-63132409D01*
X97316823Y-63106591D01*
X97315931Y-63100390D01*
X97314634Y-63098014D01*
X97311800Y-63071656D01*
X97311800Y-63026644D01*
X97331485Y-62959605D01*
X97348119Y-62938963D01*
X97418796Y-62868285D01*
X97418798Y-62868283D01*
X97470173Y-62763193D01*
X97480100Y-62695060D01*
X97480100Y-61815740D01*
X97470173Y-61747607D01*
X97418798Y-61642517D01*
X97418796Y-61642515D01*
X97418796Y-61642514D01*
X97336085Y-61559803D01*
X97230991Y-61508426D01*
X97162861Y-61498500D01*
X97162860Y-61498500D01*
X96334340Y-61498500D01*
X96334339Y-61498500D01*
X96266208Y-61508426D01*
X96161114Y-61559803D01*
X96078402Y-61642515D01*
X96074818Y-61647536D01*
X96019843Y-61690659D01*
X95950282Y-61697214D01*
X95888219Y-61665121D01*
X95872982Y-61647536D01*
X95869397Y-61642515D01*
X95786685Y-61559803D01*
X95681591Y-61508426D01*
X95613461Y-61498500D01*
X95613460Y-61498500D01*
X94784940Y-61498500D01*
X94784939Y-61498500D01*
X94716808Y-61508426D01*
X94611714Y-61559803D01*
X94529003Y-61642514D01*
X94506080Y-61689403D01*
X94458951Y-61740985D01*
X94391417Y-61758898D01*
X94325789Y-61738043D01*
X94237333Y-61678938D01*
X94237324Y-61678933D01*
X94118944Y-61629899D01*
X94118938Y-61629897D01*
X93993271Y-61604900D01*
X93993269Y-61604900D01*
X93865131Y-61604900D01*
X93865129Y-61604900D01*
X93739461Y-61629897D01*
X93739455Y-61629899D01*
X93621075Y-61678933D01*
X93621066Y-61678938D01*
X93514531Y-61750123D01*
X93514527Y-61750126D01*
X93423926Y-61840727D01*
X93423923Y-61840731D01*
X93352738Y-61947266D01*
X93352733Y-61947275D01*
X93303699Y-62065655D01*
X93303697Y-62065661D01*
X93278700Y-62191328D01*
X93278700Y-62191331D01*
X93278700Y-62319469D01*
X93278700Y-62319471D01*
X93278699Y-62319471D01*
X93303697Y-62445138D01*
X93303699Y-62445144D01*
X93352733Y-62563524D01*
X93352738Y-62563533D01*
X93423923Y-62670068D01*
X93423926Y-62670072D01*
X93514527Y-62760673D01*
X93514531Y-62760676D01*
X93621066Y-62831861D01*
X93621072Y-62831864D01*
X93621073Y-62831865D01*
X93739456Y-62880901D01*
X93739460Y-62880901D01*
X93739461Y-62880902D01*
X93865128Y-62905900D01*
X93865131Y-62905900D01*
X93993271Y-62905900D01*
X94077815Y-62889082D01*
X94118944Y-62880901D01*
X94237327Y-62831865D01*
X94325791Y-62772754D01*
X94392466Y-62751878D01*
X94459846Y-62770362D01*
X94488980Y-62795338D01*
X94499183Y-62807287D01*
X94529002Y-62868283D01*
X94611717Y-62950998D01*
X94629183Y-62959536D01*
X94645897Y-62979111D01*
X94650077Y-62988442D01*
X94657629Y-62995340D01*
X94664119Y-63019792D01*
X94674460Y-63042876D01*
X94672931Y-63052986D01*
X94675555Y-63062871D01*
X94667795Y-63086949D01*
X94664014Y-63111961D01*
X94657261Y-63119640D01*
X94654125Y-63129373D01*
X94631482Y-63152536D01*
X94631682Y-63152736D01*
X94541703Y-63242714D01*
X94528163Y-63270412D01*
X94481035Y-63321995D01*
X94413501Y-63339909D01*
X94347871Y-63319054D01*
X94288133Y-63279138D01*
X94288124Y-63279133D01*
X94169744Y-63230099D01*
X94169738Y-63230097D01*
X94044071Y-63205100D01*
X94044069Y-63205100D01*
X93915931Y-63205100D01*
X93915929Y-63205100D01*
X93790261Y-63230097D01*
X93790255Y-63230099D01*
X93671875Y-63279133D01*
X93671866Y-63279138D01*
X93565331Y-63350323D01*
X93565327Y-63350326D01*
X93474726Y-63440927D01*
X93474723Y-63440931D01*
X93403538Y-63547466D01*
X93403533Y-63547475D01*
X93354499Y-63665855D01*
X93354497Y-63665861D01*
X93329500Y-63791528D01*
X93329500Y-63791531D01*
X93329500Y-63919669D01*
X93329500Y-63919671D01*
X93329499Y-63919671D01*
X93354497Y-64045338D01*
X93354499Y-64045344D01*
X93403533Y-64163724D01*
X93403538Y-64163733D01*
X93474723Y-64270268D01*
X93474726Y-64270272D01*
X93565327Y-64360873D01*
X93565331Y-64360876D01*
X93671866Y-64432061D01*
X93671875Y-64432066D01*
X93685042Y-64437520D01*
X93790256Y-64481101D01*
X93790260Y-64481101D01*
X93790261Y-64481102D01*
X93915928Y-64506100D01*
X93915931Y-64506100D01*
X94044071Y-64506100D01*
X94128615Y-64489282D01*
X94169744Y-64481101D01*
X94288127Y-64432065D01*
X94288132Y-64432061D01*
X94288135Y-64432060D01*
X94347870Y-64392146D01*
X94414547Y-64371267D01*
X94481928Y-64389751D01*
X94528163Y-64440788D01*
X94541702Y-64468484D01*
X94624414Y-64551196D01*
X94624415Y-64551196D01*
X94624417Y-64551198D01*
X94729507Y-64602573D01*
X94763573Y-64607536D01*
X94797639Y-64612500D01*
X94797640Y-64612500D01*
X95626161Y-64612500D01*
X95657642Y-64607913D01*
X95694293Y-64602573D01*
X95799383Y-64551198D01*
X95882098Y-64468483D01*
X95882101Y-64468476D01*
X95885679Y-64463466D01*
X95940652Y-64420342D01*
X96010214Y-64413784D01*
X96072278Y-64445875D01*
X96087521Y-64463466D01*
X96091106Y-64468488D01*
X96173814Y-64551196D01*
X96173815Y-64551196D01*
X96173817Y-64551198D01*
X96278907Y-64602573D01*
X96312973Y-64607536D01*
X96347039Y-64612500D01*
X96347040Y-64612500D01*
X96620200Y-64612500D01*
X96687239Y-64632185D01*
X96732994Y-64684989D01*
X96744200Y-64736500D01*
X96744200Y-65560400D01*
X96724515Y-65627439D01*
X96671711Y-65673194D01*
X96620200Y-65684400D01*
X94907100Y-65684400D01*
X94907100Y-68160810D01*
X94887415Y-68227849D01*
X94834611Y-68273604D01*
X94800978Y-68283514D01*
X94754908Y-68290226D01*
X94649814Y-68341603D01*
X94567637Y-68423781D01*
X94506314Y-68457266D01*
X94479956Y-68460100D01*
X94050746Y-68460100D01*
X93983707Y-68440415D01*
X93937952Y-68387611D01*
X93928008Y-68318453D01*
X93957033Y-68254897D01*
X94003293Y-68221539D01*
X94095928Y-68183168D01*
X94235227Y-68090091D01*
X94353691Y-67971627D01*
X94446768Y-67832328D01*
X94510881Y-67677547D01*
X94543565Y-67513232D01*
X94543565Y-67345698D01*
X94510881Y-67181383D01*
X94446768Y-67026602D01*
X94389946Y-66941562D01*
X94353691Y-66887302D01*
X94235227Y-66768838D01*
X94095925Y-66675760D01*
X93941147Y-66611649D01*
X93941139Y-66611647D01*
X93776836Y-66578965D01*
X93776832Y-66578965D01*
X93609298Y-66578965D01*
X93609293Y-66578965D01*
X93444990Y-66611647D01*
X93444982Y-66611649D01*
X93290204Y-66675760D01*
X93150902Y-66768838D01*
X93032438Y-66887302D01*
X92939360Y-67026604D01*
X92875249Y-67181382D01*
X92875247Y-67181390D01*
X92842565Y-67345693D01*
X92842565Y-67345697D01*
X92842565Y-67345698D01*
X92842565Y-67513232D01*
X92845105Y-67526001D01*
X92844397Y-67533906D01*
X92847171Y-67541343D01*
X92841327Y-67568208D01*
X92838876Y-67595593D01*
X92833628Y-67603600D01*
X92832320Y-67609616D01*
X92811170Y-67637871D01*
X92749663Y-67699380D01*
X92688340Y-67732866D01*
X92661980Y-67735700D01*
X92179901Y-67735700D01*
X92112862Y-67716015D01*
X92067107Y-67663211D01*
X92055901Y-67611700D01*
X92055901Y-67417918D01*
X92075586Y-67350879D01*
X92092216Y-67330241D01*
X92382154Y-67040302D01*
X92382159Y-67040299D01*
X92392362Y-67030095D01*
X92392364Y-67030095D01*
X92480895Y-66941564D01*
X92543495Y-66833136D01*
X92555294Y-66789104D01*
X92575901Y-66712201D01*
X92575901Y-66586999D01*
X92575900Y-66586995D01*
X92575900Y-66441743D01*
X92595585Y-66374704D01*
X92612220Y-66354061D01*
X92643596Y-66322685D01*
X92643598Y-66322683D01*
X92694973Y-66217593D01*
X92704900Y-66149460D01*
X92704900Y-65524140D01*
X92694973Y-65456007D01*
X92643598Y-65350917D01*
X92643596Y-65350915D01*
X92643596Y-65350914D01*
X92611489Y-65318808D01*
X92578003Y-65257486D01*
X92576229Y-65247303D01*
X92575900Y-65244805D01*
X92575900Y-65244799D01*
X92543495Y-65123864D01*
X92480895Y-65015436D01*
X92392364Y-64926905D01*
X92240220Y-64774761D01*
X92206735Y-64713438D01*
X92203901Y-64687080D01*
X92203901Y-63672939D01*
X92193974Y-63604808D01*
X92165945Y-63547473D01*
X92142599Y-63499717D01*
X92142597Y-63499715D01*
X92142597Y-63499714D01*
X92059886Y-63417003D01*
X91954792Y-63365626D01*
X91886662Y-63355700D01*
X91886661Y-63355700D01*
X90851941Y-63355700D01*
X90821637Y-63360115D01*
X90811576Y-63361581D01*
X90742399Y-63351766D01*
X90689510Y-63306110D01*
X90669700Y-63239107D01*
X90669700Y-60324986D01*
X90678344Y-60295545D01*
X90684868Y-60265559D01*
X90688622Y-60260543D01*
X90689385Y-60257947D01*
X90706010Y-60237314D01*
X90875131Y-60068192D01*
X90936451Y-60034710D01*
X90969141Y-60032812D01*
X90969141Y-60032500D01*
X90974522Y-60032500D01*
X90974970Y-60032474D01*
X90975232Y-60032499D01*
X90975233Y-60032500D01*
X90975234Y-60032500D01*
X91142768Y-60032500D01*
X91142769Y-60032499D01*
X91307082Y-59999816D01*
X91461863Y-59935703D01*
X91601162Y-59842626D01*
X91719626Y-59724162D01*
X91812703Y-59584863D01*
X91876816Y-59430082D01*
X91909500Y-59265767D01*
X91909500Y-59098233D01*
X91876816Y-58933918D01*
X91812703Y-58779137D01*
X91778759Y-58728337D01*
X91719626Y-58639837D01*
X91601162Y-58521373D01*
X91461860Y-58428295D01*
X91307082Y-58364184D01*
X91307074Y-58364182D01*
X91142771Y-58331500D01*
X91142767Y-58331500D01*
X90975233Y-58331500D01*
X90975228Y-58331500D01*
X90810925Y-58364182D01*
X90810917Y-58364184D01*
X90656139Y-58428295D01*
X90516837Y-58521373D01*
X90398373Y-58639837D01*
X90305295Y-58779139D01*
X90241184Y-58933917D01*
X90241182Y-58933925D01*
X90208500Y-59098228D01*
X90208500Y-59126413D01*
X90188815Y-59193452D01*
X90172181Y-59214094D01*
X89678691Y-59707583D01*
X89678689Y-59707586D01*
X89636382Y-59780864D01*
X89636380Y-59780867D01*
X89630054Y-59791826D01*
X89606216Y-59833115D01*
X89568700Y-59973125D01*
X69838100Y-59973125D01*
X69838100Y-42253471D01*
X79994499Y-42253471D01*
X80019497Y-42379138D01*
X80019499Y-42379144D01*
X80068533Y-42497524D01*
X80068538Y-42497533D01*
X80139082Y-42603109D01*
X80159960Y-42669787D01*
X80141475Y-42737167D01*
X80139082Y-42740891D01*
X80068538Y-42846466D01*
X80068533Y-42846475D01*
X80019499Y-42964855D01*
X80019497Y-42964861D01*
X79994500Y-43090528D01*
X79994500Y-43090531D01*
X79994500Y-43218669D01*
X79994500Y-43218671D01*
X79994499Y-43218671D01*
X80019497Y-43344338D01*
X80019499Y-43344344D01*
X80068533Y-43462724D01*
X80068538Y-43462733D01*
X80139723Y-43569268D01*
X80139726Y-43569272D01*
X80230327Y-43659873D01*
X80230331Y-43659876D01*
X80336866Y-43731061D01*
X80336872Y-43731064D01*
X80336873Y-43731065D01*
X80455256Y-43780101D01*
X80455260Y-43780101D01*
X80455261Y-43780102D01*
X80580928Y-43805100D01*
X80580931Y-43805100D01*
X80709071Y-43805100D01*
X80793615Y-43788282D01*
X80834744Y-43780101D01*
X80953127Y-43731065D01*
X81059669Y-43659876D01*
X81065316Y-43654228D01*
X81126636Y-43620742D01*
X81196328Y-43625723D01*
X81240683Y-43654228D01*
X81246331Y-43659876D01*
X81281685Y-43683498D01*
X81352866Y-43731061D01*
X81352872Y-43731064D01*
X81352873Y-43731065D01*
X81471256Y-43780101D01*
X81471260Y-43780101D01*
X81471261Y-43780102D01*
X81596928Y-43805100D01*
X81596931Y-43805100D01*
X81725071Y-43805100D01*
X81809615Y-43788282D01*
X81850744Y-43780101D01*
X81969127Y-43731065D01*
X82075669Y-43659876D01*
X82114803Y-43620742D01*
X82170219Y-43565327D01*
X82231542Y-43531842D01*
X82301234Y-43536826D01*
X82345581Y-43565327D01*
X82414727Y-43634473D01*
X82414731Y-43634476D01*
X82521266Y-43705661D01*
X82521272Y-43705664D01*
X82521273Y-43705665D01*
X82639656Y-43754701D01*
X82639660Y-43754701D01*
X82639661Y-43754702D01*
X82765328Y-43779700D01*
X82765331Y-43779700D01*
X82893471Y-43779700D01*
X82978015Y-43762882D01*
X83019144Y-43754701D01*
X83137527Y-43705665D01*
X83244069Y-43634476D01*
X83257803Y-43620742D01*
X83287819Y-43590727D01*
X83349142Y-43557242D01*
X83418834Y-43562226D01*
X83463181Y-43590727D01*
X83506927Y-43634473D01*
X83506931Y-43634476D01*
X83613466Y-43705661D01*
X83613472Y-43705664D01*
X83613473Y-43705665D01*
X83731856Y-43754701D01*
X83731860Y-43754701D01*
X83731861Y-43754702D01*
X83857528Y-43779700D01*
X83857531Y-43779700D01*
X83985671Y-43779700D01*
X84070215Y-43762882D01*
X84111344Y-43754701D01*
X84229727Y-43705665D01*
X84336269Y-43634476D01*
X84350003Y-43620742D01*
X84367319Y-43603427D01*
X84428642Y-43569942D01*
X84498334Y-43574926D01*
X84542681Y-43603427D01*
X84573727Y-43634473D01*
X84573731Y-43634476D01*
X84680266Y-43705661D01*
X84680272Y-43705664D01*
X84680273Y-43705665D01*
X84798656Y-43754701D01*
X84798660Y-43754701D01*
X84798661Y-43754702D01*
X84924328Y-43779700D01*
X84924331Y-43779700D01*
X85052471Y-43779700D01*
X85137015Y-43762882D01*
X85178144Y-43754701D01*
X85296527Y-43705665D01*
X85403069Y-43634476D01*
X85493676Y-43543869D01*
X85564865Y-43437327D01*
X85613901Y-43318944D01*
X85633847Y-43218671D01*
X85638900Y-43193271D01*
X85638900Y-43065128D01*
X85613902Y-42939461D01*
X85613901Y-42939460D01*
X85613901Y-42939456D01*
X85564865Y-42821073D01*
X85494316Y-42715489D01*
X85473439Y-42648814D01*
X85491923Y-42581434D01*
X85494317Y-42577709D01*
X85521800Y-42536578D01*
X85564865Y-42472127D01*
X85613901Y-42353744D01*
X85633847Y-42253471D01*
X85638900Y-42228071D01*
X85638900Y-42099928D01*
X85613902Y-41974261D01*
X85613901Y-41974260D01*
X85613901Y-41974256D01*
X85564865Y-41855873D01*
X85564864Y-41855872D01*
X85564861Y-41855866D01*
X85493676Y-41749331D01*
X85493673Y-41749327D01*
X85403072Y-41658726D01*
X85403068Y-41658723D01*
X85296533Y-41587538D01*
X85296524Y-41587533D01*
X85178144Y-41538499D01*
X85178138Y-41538497D01*
X85052471Y-41513500D01*
X85052469Y-41513500D01*
X84924331Y-41513500D01*
X84924329Y-41513500D01*
X84798661Y-41538497D01*
X84798655Y-41538499D01*
X84680275Y-41587533D01*
X84680266Y-41587538D01*
X84573731Y-41658723D01*
X84573727Y-41658726D01*
X84542681Y-41689773D01*
X84481358Y-41723258D01*
X84411666Y-41718274D01*
X84367319Y-41689773D01*
X84336272Y-41658726D01*
X84336268Y-41658723D01*
X84229733Y-41587538D01*
X84229724Y-41587533D01*
X84111344Y-41538499D01*
X84111338Y-41538497D01*
X83985671Y-41513500D01*
X83985669Y-41513500D01*
X83857531Y-41513500D01*
X83857529Y-41513500D01*
X83731861Y-41538497D01*
X83731855Y-41538499D01*
X83613475Y-41587533D01*
X83613466Y-41587538D01*
X83506931Y-41658723D01*
X83506927Y-41658726D01*
X83463181Y-41702473D01*
X83401858Y-41735958D01*
X83332166Y-41730974D01*
X83287819Y-41702473D01*
X83244072Y-41658726D01*
X83244068Y-41658723D01*
X83137533Y-41587538D01*
X83137524Y-41587533D01*
X83019144Y-41538499D01*
X83019138Y-41538497D01*
X82893471Y-41513500D01*
X82893469Y-41513500D01*
X82765331Y-41513500D01*
X82765329Y-41513500D01*
X82639661Y-41538497D01*
X82639655Y-41538499D01*
X82521275Y-41587533D01*
X82521266Y-41587538D01*
X82414731Y-41658723D01*
X82414727Y-41658726D01*
X82320181Y-41753273D01*
X82258858Y-41786758D01*
X82189166Y-41781774D01*
X82144819Y-41753273D01*
X82075672Y-41684126D01*
X82075668Y-41684123D01*
X81969133Y-41612938D01*
X81969124Y-41612933D01*
X81850744Y-41563899D01*
X81850738Y-41563897D01*
X81725071Y-41538900D01*
X81725069Y-41538900D01*
X81596931Y-41538900D01*
X81596929Y-41538900D01*
X81471261Y-41563897D01*
X81471255Y-41563899D01*
X81352875Y-41612933D01*
X81352866Y-41612938D01*
X81246331Y-41684123D01*
X81246327Y-41684126D01*
X81240681Y-41689773D01*
X81179358Y-41723258D01*
X81109666Y-41718274D01*
X81065319Y-41689773D01*
X81059672Y-41684126D01*
X81059668Y-41684123D01*
X80953133Y-41612938D01*
X80953124Y-41612933D01*
X80834744Y-41563899D01*
X80834738Y-41563897D01*
X80709071Y-41538900D01*
X80709069Y-41538900D01*
X80580931Y-41538900D01*
X80580929Y-41538900D01*
X80455261Y-41563897D01*
X80455255Y-41563899D01*
X80336875Y-41612933D01*
X80336866Y-41612938D01*
X80230331Y-41684123D01*
X80230327Y-41684126D01*
X80139726Y-41774727D01*
X80139723Y-41774731D01*
X80068538Y-41881266D01*
X80068533Y-41881275D01*
X80019499Y-41999655D01*
X80019497Y-41999661D01*
X79994500Y-42125328D01*
X79994500Y-42125331D01*
X79994500Y-42253469D01*
X79994500Y-42253471D01*
X79994499Y-42253471D01*
X69838100Y-42253471D01*
X69838100Y-36599911D01*
X72410300Y-36599911D01*
X72410300Y-36842488D01*
X72441961Y-37082985D01*
X72504747Y-37317304D01*
X72592239Y-37528527D01*
X72597576Y-37541412D01*
X72718864Y-37751489D01*
X72718866Y-37751492D01*
X72718867Y-37751493D01*
X72866533Y-37943936D01*
X72866539Y-37943943D01*
X73038056Y-38115460D01*
X73038062Y-38115465D01*
X73230511Y-38263136D01*
X73440588Y-38384424D01*
X73544513Y-38427471D01*
X73658688Y-38474764D01*
X73664700Y-38477254D01*
X73899011Y-38540038D01*
X74079386Y-38563784D01*
X74139511Y-38571700D01*
X74139512Y-38571700D01*
X74382089Y-38571700D01*
X74430188Y-38565367D01*
X74622589Y-38540038D01*
X74856900Y-38477254D01*
X75081012Y-38384424D01*
X75291089Y-38263136D01*
X75483538Y-38115465D01*
X75655065Y-37943938D01*
X75802736Y-37751489D01*
X75820875Y-37720071D01*
X97926899Y-37720071D01*
X97951897Y-37845738D01*
X97951899Y-37845744D01*
X98000933Y-37964124D01*
X98000938Y-37964133D01*
X98072123Y-38070668D01*
X98072126Y-38070672D01*
X98162727Y-38161273D01*
X98162731Y-38161276D01*
X98269266Y-38232461D01*
X98269272Y-38232464D01*
X98269273Y-38232465D01*
X98387656Y-38281501D01*
X98387660Y-38281501D01*
X98387661Y-38281502D01*
X98513328Y-38306500D01*
X98513331Y-38306500D01*
X98641471Y-38306500D01*
X98726015Y-38289682D01*
X98767144Y-38281501D01*
X98885527Y-38232465D01*
X98992069Y-38161276D01*
X99017472Y-38135873D01*
X99061219Y-38092127D01*
X99122542Y-38058642D01*
X99192234Y-38063626D01*
X99236581Y-38092127D01*
X99305727Y-38161273D01*
X99305731Y-38161276D01*
X99412266Y-38232461D01*
X99412272Y-38232464D01*
X99412273Y-38232465D01*
X99530656Y-38281501D01*
X99530660Y-38281501D01*
X99530661Y-38281502D01*
X99656328Y-38306500D01*
X99656331Y-38306500D01*
X99784471Y-38306500D01*
X99869015Y-38289682D01*
X99910144Y-38281501D01*
X100028527Y-38232465D01*
X100135069Y-38161276D01*
X100225676Y-38070669D01*
X100296865Y-37964127D01*
X100345901Y-37845744D01*
X100364650Y-37751489D01*
X100370900Y-37720071D01*
X100370900Y-37591928D01*
X100345902Y-37466261D01*
X100345901Y-37466260D01*
X100345901Y-37466256D01*
X100313246Y-37387420D01*
X100305777Y-37317950D01*
X100337052Y-37255471D01*
X100397141Y-37219819D01*
X100466966Y-37222313D01*
X100475244Y-37225400D01*
X100572056Y-37265501D01*
X100572060Y-37265501D01*
X100572061Y-37265502D01*
X100697728Y-37290500D01*
X100697731Y-37290500D01*
X100825871Y-37290500D01*
X100911226Y-37273521D01*
X100951544Y-37265501D01*
X101069927Y-37216465D01*
X101150109Y-37162888D01*
X101216786Y-37142011D01*
X101284166Y-37160495D01*
X101287884Y-37162884D01*
X101368073Y-37216465D01*
X101486456Y-37265501D01*
X101486460Y-37265501D01*
X101486461Y-37265502D01*
X101612128Y-37290500D01*
X101612131Y-37290500D01*
X101740271Y-37290500D01*
X101825626Y-37273521D01*
X101865944Y-37265501D01*
X101984327Y-37216465D01*
X102089910Y-37145916D01*
X102156586Y-37125039D01*
X102223966Y-37143523D01*
X102227673Y-37145905D01*
X102333273Y-37216465D01*
X102451656Y-37265501D01*
X102451660Y-37265501D01*
X102451661Y-37265502D01*
X102577328Y-37290500D01*
X102577331Y-37290500D01*
X102705471Y-37290500D01*
X102790827Y-37273521D01*
X102860418Y-37279748D01*
X102915596Y-37322610D01*
X102938841Y-37388500D01*
X102930936Y-37434686D01*
X102932067Y-37435029D01*
X102930297Y-37440861D01*
X102905300Y-37566528D01*
X102905300Y-37566531D01*
X102905300Y-37694669D01*
X102905300Y-37694671D01*
X102905299Y-37694671D01*
X102930297Y-37820338D01*
X102930299Y-37820344D01*
X102979333Y-37938724D01*
X102979338Y-37938733D01*
X103050523Y-38045268D01*
X103050526Y-38045272D01*
X103141127Y-38135873D01*
X103141131Y-38135876D01*
X103247666Y-38207061D01*
X103247672Y-38207064D01*
X103247673Y-38207065D01*
X103366056Y-38256101D01*
X103366060Y-38256101D01*
X103366061Y-38256102D01*
X103491728Y-38281100D01*
X103491731Y-38281100D01*
X103619871Y-38281100D01*
X103710198Y-38263132D01*
X103745544Y-38256101D01*
X103863927Y-38207065D01*
X103970469Y-38135876D01*
X103990885Y-38115460D01*
X104026919Y-38079427D01*
X104088242Y-38045942D01*
X104157934Y-38050926D01*
X104202281Y-38079427D01*
X104258727Y-38135873D01*
X104258731Y-38135876D01*
X104365266Y-38207061D01*
X104365272Y-38207064D01*
X104365273Y-38207065D01*
X104483656Y-38256101D01*
X104483660Y-38256101D01*
X104483661Y-38256102D01*
X104609328Y-38281100D01*
X104609331Y-38281100D01*
X104737471Y-38281100D01*
X104827798Y-38263132D01*
X104863144Y-38256101D01*
X104981527Y-38207065D01*
X105088069Y-38135876D01*
X105178676Y-38045269D01*
X105249865Y-37938727D01*
X105298901Y-37820344D01*
X105312597Y-37751493D01*
X105323900Y-37694671D01*
X105323900Y-37566528D01*
X105298902Y-37440861D01*
X105298901Y-37440860D01*
X105298901Y-37440856D01*
X105249865Y-37322473D01*
X105249864Y-37322472D01*
X105249861Y-37322466D01*
X105224474Y-37284471D01*
X108756499Y-37284471D01*
X108781497Y-37410138D01*
X108781499Y-37410144D01*
X108830533Y-37528524D01*
X108830538Y-37528533D01*
X108901723Y-37635068D01*
X108901726Y-37635072D01*
X108970873Y-37704219D01*
X109004358Y-37765542D01*
X108999374Y-37835234D01*
X108970873Y-37879581D01*
X108901726Y-37948727D01*
X108901723Y-37948731D01*
X108830538Y-38055266D01*
X108830533Y-38055275D01*
X108781499Y-38173655D01*
X108781497Y-38173661D01*
X108756500Y-38299328D01*
X108756500Y-38299331D01*
X108756500Y-38427469D01*
X108756500Y-38427471D01*
X108756499Y-38427471D01*
X108781497Y-38553138D01*
X108781499Y-38553144D01*
X108830533Y-38671524D01*
X108830538Y-38671533D01*
X108901723Y-38778068D01*
X108901726Y-38778072D01*
X108992327Y-38868673D01*
X108997039Y-38872540D01*
X108996185Y-38873580D01*
X109036581Y-38921920D01*
X109045287Y-38991245D01*
X109015130Y-39054272D01*
X109010566Y-39059088D01*
X108927123Y-39142531D01*
X108855938Y-39249066D01*
X108855933Y-39249075D01*
X108806899Y-39367455D01*
X108806897Y-39367461D01*
X108781900Y-39493128D01*
X108781900Y-39493131D01*
X108781900Y-39621269D01*
X108781900Y-39621271D01*
X108781899Y-39621271D01*
X108806897Y-39746938D01*
X108806899Y-39746944D01*
X108855933Y-39865324D01*
X108855938Y-39865333D01*
X108927123Y-39971868D01*
X108927126Y-39971872D01*
X109017729Y-40062475D01*
X109019561Y-40063699D01*
X109020303Y-40064587D01*
X109022439Y-40066340D01*
X109022106Y-40066745D01*
X109064365Y-40117313D01*
X109073071Y-40186638D01*
X109042915Y-40249665D01*
X109019561Y-40269901D01*
X109017729Y-40271124D01*
X108927126Y-40361727D01*
X108927123Y-40361731D01*
X108855938Y-40468266D01*
X108855933Y-40468275D01*
X108806899Y-40586655D01*
X108806897Y-40586661D01*
X108781900Y-40712328D01*
X108781900Y-40712331D01*
X108781900Y-40840469D01*
X108781900Y-40840471D01*
X108781899Y-40840471D01*
X108806897Y-40966138D01*
X108806899Y-40966144D01*
X108855933Y-41084524D01*
X108855938Y-41084533D01*
X108927123Y-41191068D01*
X108927126Y-41191072D01*
X109017727Y-41281673D01*
X109017731Y-41281676D01*
X109038566Y-41295598D01*
X109083371Y-41349211D01*
X109092078Y-41418536D01*
X109061923Y-41481563D01*
X109038566Y-41501802D01*
X109017731Y-41515723D01*
X109017727Y-41515726D01*
X108927126Y-41606327D01*
X108927123Y-41606331D01*
X108855938Y-41712866D01*
X108855933Y-41712875D01*
X108806899Y-41831255D01*
X108806897Y-41831261D01*
X108781900Y-41956928D01*
X108781900Y-41956931D01*
X108781900Y-42085069D01*
X108781900Y-42085071D01*
X108781899Y-42085071D01*
X108806897Y-42210738D01*
X108806899Y-42210744D01*
X108855933Y-42329124D01*
X108855938Y-42329133D01*
X108927123Y-42435668D01*
X108927126Y-42435672D01*
X109017727Y-42526273D01*
X109017731Y-42526276D01*
X109124266Y-42597461D01*
X109124275Y-42597466D01*
X109137899Y-42603109D01*
X109242656Y-42646501D01*
X109242660Y-42646501D01*
X109242661Y-42646502D01*
X109368328Y-42671500D01*
X109368331Y-42671500D01*
X109496471Y-42671500D01*
X109581015Y-42654682D01*
X109622144Y-42646501D01*
X109740527Y-42597465D01*
X109846110Y-42526916D01*
X109912786Y-42506039D01*
X109980166Y-42524523D01*
X109983873Y-42526905D01*
X110059906Y-42577709D01*
X110089467Y-42597461D01*
X110089475Y-42597466D01*
X110103099Y-42603109D01*
X110207856Y-42646501D01*
X110207860Y-42646501D01*
X110207861Y-42646502D01*
X110333528Y-42671500D01*
X110333531Y-42671500D01*
X110461671Y-42671500D01*
X110546215Y-42654682D01*
X110587344Y-42646501D01*
X110705727Y-42597465D01*
X110812269Y-42526276D01*
X110902876Y-42435669D01*
X110974065Y-42329127D01*
X111023101Y-42210744D01*
X111045144Y-42099931D01*
X111048100Y-42085071D01*
X111048100Y-41956928D01*
X111023102Y-41831261D01*
X111023101Y-41831260D01*
X111023101Y-41831256D01*
X110974065Y-41712873D01*
X110974064Y-41712872D01*
X110974061Y-41712866D01*
X110902876Y-41606331D01*
X110902873Y-41606327D01*
X110812272Y-41515726D01*
X110812267Y-41515722D01*
X110791435Y-41501803D01*
X110746629Y-41448191D01*
X110737920Y-41378867D01*
X110768074Y-41315839D01*
X110791435Y-41295597D01*
X110798789Y-41290682D01*
X110812269Y-41281676D01*
X110902876Y-41191069D01*
X110974065Y-41084527D01*
X111023101Y-40966144D01*
X111048100Y-40840469D01*
X111048100Y-40712331D01*
X111048100Y-40712328D01*
X111023102Y-40586661D01*
X111023101Y-40586660D01*
X111023101Y-40586656D01*
X110974065Y-40468273D01*
X110974064Y-40468272D01*
X110974061Y-40468266D01*
X110902876Y-40361731D01*
X110902873Y-40361727D01*
X110812272Y-40271126D01*
X110812268Y-40271123D01*
X110810445Y-40269905D01*
X110809704Y-40269019D01*
X110807561Y-40267260D01*
X110807894Y-40266853D01*
X110765637Y-40216295D01*
X110756927Y-40146970D01*
X110787079Y-40083941D01*
X110810445Y-40063695D01*
X110810932Y-40063369D01*
X110812269Y-40062476D01*
X110902876Y-39971869D01*
X110955132Y-39893662D01*
X114686601Y-39893662D01*
X114686601Y-40142737D01*
X114725565Y-40388747D01*
X114802531Y-40625628D01*
X114802532Y-40625631D01*
X114911999Y-40840469D01*
X114915611Y-40847558D01*
X115062014Y-41049064D01*
X115238137Y-41225187D01*
X115439643Y-41371590D01*
X115531779Y-41418536D01*
X115661569Y-41484668D01*
X115661572Y-41484669D01*
X115750306Y-41513500D01*
X115898455Y-41561636D01*
X116144463Y-41600600D01*
X116144464Y-41600600D01*
X116393538Y-41600600D01*
X116393539Y-41600600D01*
X116639547Y-41561636D01*
X116876432Y-41484668D01*
X117098359Y-41371590D01*
X117299865Y-41225187D01*
X117475988Y-41049064D01*
X117622391Y-40847558D01*
X117735469Y-40625631D01*
X117812437Y-40388746D01*
X117851401Y-40142738D01*
X117851401Y-39893662D01*
X117812437Y-39647654D01*
X117735469Y-39410769D01*
X117735469Y-39410768D01*
X117622390Y-39188841D01*
X117475988Y-38987336D01*
X117299865Y-38811213D01*
X117098359Y-38664810D01*
X116876432Y-38551731D01*
X116876429Y-38551730D01*
X116639548Y-38474764D01*
X116516543Y-38455282D01*
X116393539Y-38435800D01*
X116144463Y-38435800D01*
X116062460Y-38448788D01*
X115898453Y-38474764D01*
X115661572Y-38551730D01*
X115661569Y-38551731D01*
X115439642Y-38664810D01*
X115324676Y-38748338D01*
X115238137Y-38811213D01*
X115238135Y-38811215D01*
X115238134Y-38811215D01*
X115062016Y-38987333D01*
X115062016Y-38987334D01*
X115062014Y-38987336D01*
X115018651Y-39047020D01*
X114915611Y-39188841D01*
X114802532Y-39410768D01*
X114802531Y-39410771D01*
X114725565Y-39647652D01*
X114686601Y-39893662D01*
X110955132Y-39893662D01*
X110974065Y-39865327D01*
X111023101Y-39746944D01*
X111048100Y-39621269D01*
X111048100Y-39493131D01*
X111048100Y-39493128D01*
X111023102Y-39367461D01*
X111023101Y-39367460D01*
X111023101Y-39367456D01*
X110974065Y-39249073D01*
X110974064Y-39249072D01*
X110974061Y-39249066D01*
X110902876Y-39142531D01*
X110902873Y-39142527D01*
X110812272Y-39051926D01*
X110807561Y-39048060D01*
X110808413Y-39047020D01*
X110768015Y-38998673D01*
X110759313Y-38929347D01*
X110789473Y-38866322D01*
X110794015Y-38861529D01*
X110877476Y-38778069D01*
X110948665Y-38671527D01*
X110997701Y-38553144D01*
X111022700Y-38427469D01*
X111022700Y-38299331D01*
X111022700Y-38299328D01*
X110997702Y-38173661D01*
X110997701Y-38173660D01*
X110997701Y-38173656D01*
X110958670Y-38079427D01*
X110948666Y-38055275D01*
X110948661Y-38055266D01*
X110877476Y-37948731D01*
X110877473Y-37948727D01*
X110808327Y-37879581D01*
X110774842Y-37818258D01*
X110779826Y-37748566D01*
X110808327Y-37704219D01*
X110877473Y-37635072D01*
X110877476Y-37635069D01*
X110948665Y-37528527D01*
X110997701Y-37410144D01*
X111005882Y-37369015D01*
X111022700Y-37284471D01*
X111022700Y-37156328D01*
X110997702Y-37030661D01*
X110997701Y-37030660D01*
X110997701Y-37030656D01*
X110948665Y-36912273D01*
X110948664Y-36912272D01*
X110948661Y-36912266D01*
X110877476Y-36805731D01*
X110877473Y-36805727D01*
X110786872Y-36715126D01*
X110786868Y-36715123D01*
X110762671Y-36698955D01*
X110680333Y-36643938D01*
X110680324Y-36643933D01*
X110574044Y-36599911D01*
X127210300Y-36599911D01*
X127210300Y-36842488D01*
X127241961Y-37082985D01*
X127304747Y-37317304D01*
X127392239Y-37528527D01*
X127397576Y-37541412D01*
X127518864Y-37751489D01*
X127518866Y-37751492D01*
X127518867Y-37751493D01*
X127666533Y-37943936D01*
X127666539Y-37943943D01*
X127838056Y-38115460D01*
X127838062Y-38115465D01*
X128030511Y-38263136D01*
X128240588Y-38384424D01*
X128344513Y-38427471D01*
X128458688Y-38474764D01*
X128464700Y-38477254D01*
X128699011Y-38540038D01*
X128879386Y-38563784D01*
X128939511Y-38571700D01*
X128939512Y-38571700D01*
X129182089Y-38571700D01*
X129230188Y-38565367D01*
X129422589Y-38540038D01*
X129656900Y-38477254D01*
X129881012Y-38384424D01*
X130091089Y-38263136D01*
X130283538Y-38115465D01*
X130455065Y-37943938D01*
X130602736Y-37751489D01*
X130724024Y-37541412D01*
X130816854Y-37317300D01*
X130879638Y-37082989D01*
X130911300Y-36842488D01*
X130911300Y-36599912D01*
X130879638Y-36359411D01*
X130816854Y-36125100D01*
X130724024Y-35900988D01*
X130602736Y-35690911D01*
X130455065Y-35498462D01*
X130455060Y-35498456D01*
X130283543Y-35326939D01*
X130283536Y-35326933D01*
X130091093Y-35179267D01*
X130091092Y-35179266D01*
X130091089Y-35179264D01*
X129881012Y-35057976D01*
X129881005Y-35057973D01*
X129656904Y-34965147D01*
X129422585Y-34902361D01*
X129182089Y-34870700D01*
X129182088Y-34870700D01*
X128939512Y-34870700D01*
X128939511Y-34870700D01*
X128699014Y-34902361D01*
X128464695Y-34965147D01*
X128240594Y-35057973D01*
X128240585Y-35057977D01*
X128030506Y-35179267D01*
X127838063Y-35326933D01*
X127838056Y-35326939D01*
X127666539Y-35498456D01*
X127666533Y-35498463D01*
X127518867Y-35690906D01*
X127397577Y-35900985D01*
X127397573Y-35900994D01*
X127304747Y-36125095D01*
X127241961Y-36359414D01*
X127210300Y-36599911D01*
X110574044Y-36599911D01*
X110561944Y-36594899D01*
X110561938Y-36594897D01*
X110436271Y-36569900D01*
X110436269Y-36569900D01*
X110308131Y-36569900D01*
X110308129Y-36569900D01*
X110182461Y-36594897D01*
X110182455Y-36594899D01*
X110064075Y-36643933D01*
X110064066Y-36643938D01*
X109958491Y-36714482D01*
X109891813Y-36735360D01*
X109824433Y-36716875D01*
X109820709Y-36714482D01*
X109715133Y-36643938D01*
X109715124Y-36643933D01*
X109596744Y-36594899D01*
X109596738Y-36594897D01*
X109471071Y-36569900D01*
X109471069Y-36569900D01*
X109342931Y-36569900D01*
X109342929Y-36569900D01*
X109217261Y-36594897D01*
X109217255Y-36594899D01*
X109098875Y-36643933D01*
X109098866Y-36643938D01*
X108992331Y-36715123D01*
X108992327Y-36715126D01*
X108901726Y-36805727D01*
X108901723Y-36805731D01*
X108830538Y-36912266D01*
X108830533Y-36912275D01*
X108781499Y-37030655D01*
X108781497Y-37030661D01*
X108756500Y-37156328D01*
X108756500Y-37156331D01*
X108756500Y-37284469D01*
X108756500Y-37284471D01*
X108756499Y-37284471D01*
X105224474Y-37284471D01*
X105180814Y-37219130D01*
X105180195Y-37218194D01*
X105180176Y-37218165D01*
X105159902Y-37151302D01*
X105178995Y-37084092D01*
X105196215Y-37062529D01*
X105204076Y-37054669D01*
X105275265Y-36948127D01*
X105324301Y-36829744D01*
X105347101Y-36715124D01*
X105349300Y-36704071D01*
X105349300Y-36575928D01*
X105324302Y-36450261D01*
X105324301Y-36450260D01*
X105324301Y-36450256D01*
X105275265Y-36331873D01*
X105275264Y-36331872D01*
X105275261Y-36331866D01*
X105204076Y-36225331D01*
X105204073Y-36225327D01*
X105113472Y-36134726D01*
X105113468Y-36134723D01*
X105006933Y-36063538D01*
X105006924Y-36063533D01*
X104888544Y-36014499D01*
X104888538Y-36014497D01*
X104762871Y-35989500D01*
X104762869Y-35989500D01*
X104634731Y-35989500D01*
X104634729Y-35989500D01*
X104509061Y-36014497D01*
X104509055Y-36014499D01*
X104390675Y-36063533D01*
X104390666Y-36063538D01*
X104284131Y-36134723D01*
X104284127Y-36134726D01*
X104227681Y-36191173D01*
X104166358Y-36224658D01*
X104096666Y-36219674D01*
X104052319Y-36191173D01*
X103995872Y-36134726D01*
X103995868Y-36134723D01*
X103889333Y-36063538D01*
X103889324Y-36063533D01*
X103770944Y-36014499D01*
X103770938Y-36014497D01*
X103645271Y-35989500D01*
X103645269Y-35989500D01*
X103517131Y-35989500D01*
X103517129Y-35989500D01*
X103391461Y-36014497D01*
X103391455Y-36014499D01*
X103273075Y-36063533D01*
X103273066Y-36063538D01*
X103180191Y-36125596D01*
X103113513Y-36146474D01*
X103046133Y-36127989D01*
X103042409Y-36125596D01*
X102949533Y-36063538D01*
X102949524Y-36063533D01*
X102831144Y-36014499D01*
X102831138Y-36014497D01*
X102705471Y-35989500D01*
X102705469Y-35989500D01*
X102577331Y-35989500D01*
X102577329Y-35989500D01*
X102451661Y-36014497D01*
X102451655Y-36014499D01*
X102333275Y-36063533D01*
X102333266Y-36063538D01*
X102227691Y-36134082D01*
X102161013Y-36154960D01*
X102093633Y-36136475D01*
X102089909Y-36134082D01*
X101984333Y-36063538D01*
X101984324Y-36063533D01*
X101865944Y-36014499D01*
X101865938Y-36014497D01*
X101740271Y-35989500D01*
X101740269Y-35989500D01*
X101612131Y-35989500D01*
X101612129Y-35989500D01*
X101486461Y-36014497D01*
X101486455Y-36014499D01*
X101368075Y-36063533D01*
X101368066Y-36063538D01*
X101287891Y-36117110D01*
X101221213Y-36137988D01*
X101153833Y-36119503D01*
X101150109Y-36117110D01*
X101069933Y-36063538D01*
X101069924Y-36063533D01*
X100951544Y-36014499D01*
X100951538Y-36014497D01*
X100825871Y-35989500D01*
X100825869Y-35989500D01*
X100697731Y-35989500D01*
X100697729Y-35989500D01*
X100572061Y-36014497D01*
X100572055Y-36014499D01*
X100453675Y-36063533D01*
X100453666Y-36063538D01*
X100347131Y-36134723D01*
X100347127Y-36134726D01*
X100341481Y-36140373D01*
X100280158Y-36173858D01*
X100210466Y-36168874D01*
X100166119Y-36140373D01*
X100160472Y-36134726D01*
X100160468Y-36134723D01*
X100053933Y-36063538D01*
X100053924Y-36063533D01*
X99935544Y-36014499D01*
X99935538Y-36014497D01*
X99809871Y-35989500D01*
X99809869Y-35989500D01*
X99681731Y-35989500D01*
X99681729Y-35989500D01*
X99556061Y-36014497D01*
X99556055Y-36014499D01*
X99437675Y-36063533D01*
X99437666Y-36063538D01*
X99331131Y-36134723D01*
X99331127Y-36134726D01*
X99261981Y-36203873D01*
X99200658Y-36237358D01*
X99130966Y-36232374D01*
X99086619Y-36203873D01*
X99017472Y-36134726D01*
X99017468Y-36134723D01*
X98910933Y-36063538D01*
X98910924Y-36063533D01*
X98792544Y-36014499D01*
X98792538Y-36014497D01*
X98666871Y-35989500D01*
X98666869Y-35989500D01*
X98538731Y-35989500D01*
X98538729Y-35989500D01*
X98413061Y-36014497D01*
X98413055Y-36014499D01*
X98294675Y-36063533D01*
X98294666Y-36063538D01*
X98188131Y-36134723D01*
X98188127Y-36134726D01*
X98097526Y-36225327D01*
X98097523Y-36225331D01*
X98026338Y-36331866D01*
X98026333Y-36331875D01*
X97977299Y-36450255D01*
X97977297Y-36450261D01*
X97952300Y-36575928D01*
X97952300Y-36575931D01*
X97952300Y-36704069D01*
X97952300Y-36704071D01*
X97952299Y-36704071D01*
X97977297Y-36829738D01*
X97977299Y-36829744D01*
X98026333Y-36948124D01*
X98026338Y-36948133D01*
X98097520Y-37054664D01*
X98098913Y-37056361D01*
X98099364Y-37057424D01*
X98100908Y-37059734D01*
X98100469Y-37060026D01*
X98126228Y-37120670D01*
X98114439Y-37189538D01*
X98090745Y-37222708D01*
X98072127Y-37241326D01*
X98072123Y-37241331D01*
X98000938Y-37347866D01*
X98000933Y-37347875D01*
X97951899Y-37466255D01*
X97951897Y-37466261D01*
X97926900Y-37591928D01*
X97926900Y-37591931D01*
X97926900Y-37720069D01*
X97926900Y-37720071D01*
X97926899Y-37720071D01*
X75820875Y-37720071D01*
X75924024Y-37541412D01*
X75924027Y-37541404D01*
X75924030Y-37541399D01*
X75925280Y-37538382D01*
X76007268Y-37340442D01*
X76016854Y-37317300D01*
X76079638Y-37082989D01*
X76111300Y-36842488D01*
X76111300Y-36599912D01*
X76079638Y-36359411D01*
X76016854Y-36125100D01*
X75924024Y-35900988D01*
X75802736Y-35690911D01*
X75655065Y-35498462D01*
X75655060Y-35498456D01*
X75483543Y-35326939D01*
X75483536Y-35326933D01*
X75291093Y-35179267D01*
X75291092Y-35179266D01*
X75291089Y-35179264D01*
X75081012Y-35057976D01*
X75081005Y-35057973D01*
X74856904Y-34965147D01*
X74622585Y-34902361D01*
X74382089Y-34870700D01*
X74382088Y-34870700D01*
X74139512Y-34870700D01*
X74139511Y-34870700D01*
X73899014Y-34902361D01*
X73664695Y-34965147D01*
X73440594Y-35057973D01*
X73440585Y-35057977D01*
X73230506Y-35179267D01*
X73038063Y-35326933D01*
X73038056Y-35326939D01*
X72866539Y-35498456D01*
X72866533Y-35498463D01*
X72718867Y-35690906D01*
X72597577Y-35900985D01*
X72597573Y-35900994D01*
X72504747Y-36125095D01*
X72441961Y-36359414D01*
X72410300Y-36599911D01*
X69838100Y-36599911D01*
X69838100Y-32730300D01*
X69857785Y-32663261D01*
X69910589Y-32617506D01*
X69962100Y-32606300D01*
X132713100Y-32606300D01*
X132780139Y-32625985D01*
G37*
%TD.AperFunction*%
%TD*%
M02*
