%TF.GenerationSoftware,KiCad,Pcbnew,9.0.6*%
%TF.CreationDate,2026-03-06T01:43:04-06:00*%
%TF.ProjectId,IRIS_Converter,49524953-5f43-46f6-9e76-65727465722e,rev?*%
%TF.SameCoordinates,Original*%
%TF.FileFunction,Paste,Bot*%
%TF.FilePolarity,Positive*%
%FSLAX46Y46*%
G04 Gerber Fmt 4.6, Leading zero omitted, Abs format (unit mm)*
G04 Created by KiCad (PCBNEW 9.0.6) date 2026-03-06 01:43:04*
%MOMM*%
%LPD*%
G01*
G04 APERTURE LIST*
%ADD10C,0.000000*%
%ADD11R,0.558800X0.889000*%
%ADD12R,0.499999X0.655599*%
%ADD13R,0.609600X0.508000*%
%ADD14R,0.968200X1.010000*%
%ADD15R,0.655599X0.499999*%
%ADD16R,0.558800X0.508000*%
%ADD17R,0.508000X0.558800*%
%ADD18R,1.803400X0.558800*%
%ADD19R,0.249999X0.599999*%
%ADD20R,0.599999X0.249999*%
%ADD21R,0.812800X0.762000*%
%ADD22R,0.939800X0.711200*%
%ADD23R,0.762000X0.812800*%
%ADD24R,0.508000X0.609600*%
G04 APERTURE END LIST*
D10*
%TO.C,U1*%
G36*
X91604899Y-69361200D02*
G01*
X90055901Y-69361200D01*
X90055901Y-68173199D01*
X91604899Y-68173199D01*
X91604899Y-69361200D01*
G37*
G36*
X91604899Y-70749204D02*
G01*
X90055901Y-70749204D01*
X90055901Y-69561202D01*
X91604899Y-69561202D01*
X91604899Y-70749204D01*
G37*
%TD*%
D11*
%TO.C,Cvin1*%
X90532651Y-74236999D03*
X92386851Y-74236999D03*
%TD*%
D12*
%TO.C,Rfbb1*%
X87160801Y-69668799D03*
X87160801Y-68563201D03*
%TD*%
D13*
%TO.C,Ccomp2*%
X85572600Y-71069200D03*
X84480400Y-71069200D03*
%TD*%
D14*
%TO.C,Cilim1*%
X91369301Y-64211200D03*
X92577501Y-64211200D03*
%TD*%
D13*
%TO.C,Ccomp3*%
X82829400Y-69748400D03*
X83921600Y-69748400D03*
%TD*%
D15*
%TO.C,Ruv1*%
X95009750Y-76265751D03*
X93904152Y-76265751D03*
%TD*%
D16*
%TO.C,Rt1*%
X86684551Y-74284551D03*
X86684551Y-75224351D03*
%TD*%
D17*
%TO.C,Rilim1*%
X92100400Y-65836800D03*
X91160600Y-65836800D03*
%TD*%
D13*
%TO.C,Ccomp1*%
X85559900Y-72440800D03*
X84467700Y-72440800D03*
%TD*%
D15*
%TO.C,Rvin1*%
X95029149Y-74436951D03*
X93923551Y-74436951D03*
%TD*%
D18*
%TO.C,Cvcc1*%
X95758000Y-68910200D03*
X95758000Y-65354200D03*
%TD*%
D16*
%TO.C,Rcomp1*%
X82880200Y-72199500D03*
X82880200Y-71259700D03*
%TD*%
D11*
%TO.C,Cbst1*%
X94856300Y-70459600D03*
X96710500Y-70459600D03*
%TD*%
D19*
%TO.C,U1*%
X90080399Y-71611201D03*
D20*
X89180401Y-71211199D03*
X89180401Y-70711200D03*
X89180401Y-70211198D03*
X89180401Y-69711200D03*
X89180401Y-69211198D03*
X89180401Y-68711199D03*
X89180401Y-68211200D03*
X89180401Y-67711201D03*
D19*
X90080399Y-67311199D03*
X91580401Y-67311199D03*
D20*
X92480399Y-67711201D03*
X92480399Y-68211200D03*
X92480399Y-68711202D03*
X92480399Y-69211200D03*
X92480399Y-69711202D03*
X92480399Y-70211201D03*
X92480399Y-70711200D03*
X92480399Y-71211202D03*
D19*
X91580401Y-71611201D03*
%TD*%
D21*
%TO.C,Rfbt1*%
X85674200Y-67843400D03*
X85674200Y-69392800D03*
%TD*%
D22*
%TO.C,Ruv2*%
X88437151Y-74360751D03*
X88437151Y-75706951D03*
%TD*%
D23*
%TO.C,Rpgood1*%
X95211900Y-63855600D03*
X96761300Y-63855600D03*
%TD*%
%TO.C,Rvcc1*%
X95199200Y-62255400D03*
X96748600Y-62255400D03*
%TD*%
D15*
%TO.C,Rcomp2*%
X83947000Y-68427600D03*
X82841402Y-68427600D03*
%TD*%
D24*
%TO.C,Css1*%
X85058951Y-74259151D03*
X85058951Y-75351351D03*
%TD*%
M02*
