M48
; DRILL file {KiCad (6.0.0)} date Sun Feb 19 13:32:36 2023
; FORMAT={-:-/ absolute / metric / decimal}
; #@! TF.CreationDate,2023-02-19T13:32:36-06:00
; #@! TF.GenerationSoftware,Kicad,Pcbnew,(6.0.0)
; #@! TF.FileFunction,Plated,1,2,PTH
FMAT,2
METRIC
; #@! TA.AperFunction,Plated,PTH,ViaDrill
T1C0.400
; #@! TA.AperFunction,Plated,PTH,ComponentDrill
T2C0.500
; #@! TA.AperFunction,Plated,PTH,ComponentDrill
T3C0.750
; #@! TA.AperFunction,Plated,PTH,ComponentDrill
T4C0.900
; #@! TA.AperFunction,Plated,PTH,ComponentDrill
T5C1.000
; #@! TA.AperFunction,Plated,PTH,ComponentDrill
T6C1.200
; #@! TA.AperFunction,Plated,PTH,ComponentDrill
T7C1.250
; #@! TA.AperFunction,Plated,PTH,ComponentDrill
T8C1.300
; #@! TA.AperFunction,Plated,PTH,ComponentDrill
T9C1.524
; #@! TA.AperFunction,Plated,PTH,ComponentDrill
T10C1.600
; #@! TA.AperFunction,Plated,PTH,ComponentDrill
T11C3.000
; #@! TA.AperFunction,Plated,PTH,ComponentDrill
T12C3.500
%
G90
G05
T1
X26.25Y-129.35
X26.77Y-86.92
X30.06Y-124.62
X30.845Y-91.8
X31.595Y-92.62
X31.77Y-39.61
X33.905Y-94.54
X34.825Y-96.02
X34.855Y-97.1
X35.79Y-34.23
X35.9Y-76.15
X36.735Y-101.6
X37.21Y-66.89
X37.77Y-83.53
X41.88Y-95.18
X42.01Y-103.12
X45.62Y-84.63
X46.26Y-29.76
X46.55Y-85.98
X47.15Y-119.67
X49.04Y-90.477
X49.74Y-89.277
X49.84Y-100.2
X50.33Y-36.59
X51.31Y-66.11
X52.49Y-93.907
X53.49Y-95.438
X53.54Y-92.207
X54.93Y-98.927
X55.54Y-77.85
X58.99Y-83.91
X59.82Y-119.76
X61.01Y-90.35
X61.02Y-100.63
X62.0Y-81.6
X67.09Y-66.37
X68.13Y-79.77
X69.377Y-82.63
X69.41Y-25.6
X70.13Y-81.48
X73.21Y-85.77
X73.91Y-86.67
X74.06Y-73.7
X74.77Y-84.17
X74.77Y-85.88
X77.12Y-118.01
X77.25Y-135.96
X78.17Y-107.46
X80.36Y-76.7
X81.76Y-94.54
X84.19Y-86.48
X92.05Y-136.4
X95.81Y-99.5
X97.78Y-37.47
X98.35Y-129.53
X99.14Y-58.87
X99.14Y-79.93
X102.2Y-96.34
X102.9Y-109.26
X102.95Y-43.37
X112.09Y-62.33
X112.71Y-136.66
X113.5Y-42.06
X116.08Y-83.56
X118.71Y-131.45
X119.93Y-96.74
X121.29Y-107.94
X122.34Y-43.51
X123.48Y-119.02
X124.05Y-86.1
X124.3Y-67.44
X132.32Y-137.14
X136.17Y-35.36
X136.87Y-53.49
X137.18Y-74.37
X137.35Y-93.94
X140.72Y-133.03
T2
X24.375Y-27.0
X24.375Y-140.0
X25.144Y-25.144
X25.144Y-28.856
X25.144Y-138.144
X25.144Y-141.856
X27.0Y-24.375
X27.0Y-29.625
X27.0Y-137.375
X27.0Y-142.625
X28.856Y-25.144
X28.856Y-28.856
X28.856Y-138.144
X28.856Y-141.856
X29.625Y-27.0
X29.625Y-140.0
X137.375Y-27.0
X137.375Y-140.0
X138.144Y-25.144
X138.144Y-28.856
X138.144Y-138.144
X138.144Y-141.856
X140.0Y-24.375
X140.0Y-29.625
X140.0Y-137.375
X140.0Y-142.625
X141.856Y-25.144
X141.856Y-28.856
X141.856Y-138.144
X141.856Y-141.856
X142.625Y-27.0
X142.625Y-140.0
T3
X80.195Y-101.85
X86.545Y-94.35
X95.585Y-33.095
X95.73Y-55.84
X95.735Y-77.13
X100.135Y-101.83
X103.085Y-39.445
X103.23Y-62.19
X103.235Y-83.48
X106.485Y-94.33
X117.82Y-93.555
X125.32Y-99.905
T5
X32.44Y-134.77
X34.98Y-134.77
X45.87Y-134.77
X48.41Y-134.77
X58.21Y-134.77
X60.75Y-134.77
T6
X28.246Y-59.42
X33.246Y-59.42
X42.256Y-59.42
X47.256Y-59.42
X56.016Y-59.42
X61.016Y-59.42
T7
X87.195Y-101.35
X90.295Y-93.5
X94.735Y-29.345
X94.88Y-52.09
X94.885Y-73.38
X102.585Y-32.445
X102.73Y-55.19
X102.735Y-76.48
X107.135Y-101.33
X110.235Y-93.48
X116.97Y-89.805
X124.82Y-92.905
T8
X38.47Y-141.99
X43.47Y-141.99
X48.47Y-141.99
X53.47Y-141.99
X58.47Y-141.99
X63.47Y-141.99
T9
X75.18Y-140.16
X79.2Y-140.16
X85.34Y-130.0
X89.36Y-130.0
X95.5Y-140.16
X99.52Y-140.16
X105.66Y-130.0
X109.68Y-130.0
X115.82Y-140.16
X119.84Y-140.16
X125.98Y-130.0
X130.0Y-36.98
X130.0Y-41.0
X130.0Y-57.3
X130.0Y-61.32
X130.0Y-77.62
X130.0Y-81.64
X130.0Y-130.0
X140.16Y-47.14
X140.16Y-51.16
X140.16Y-67.46
X140.16Y-71.48
X140.16Y-87.78
X140.16Y-91.8
T10
X28.26Y-37.09
X28.26Y-47.25
X38.42Y-37.09
X38.42Y-47.25
T11
X24.18Y-74.0
X41.78Y-108.0
X46.26Y-74.09
X63.86Y-108.09
X68.34Y-74.18
X85.94Y-108.18
T12
X27.0Y-27.0
X27.0Y-140.0
X140.0Y-27.0
X140.0Y-140.0
T4
X57.311Y-37.523G85X59.389Y-38.723
G05
X62.811Y-38.723G85X64.889Y-37.523
G05
T0
M30
