G04 #@! TF.GenerationSoftware,KiCad,Pcbnew,(6.0.0)*
G04 #@! TF.CreationDate,2023-02-19T13:31:38-06:00*
G04 #@! TF.ProjectId,SIC431,53494334-3331-42e6-9b69-6361645f7063,rev?*
G04 #@! TF.SameCoordinates,Original*
G04 #@! TF.FileFunction,Legend,Bot*
G04 #@! TF.FilePolarity,Positive*
%FSLAX46Y46*%
G04 Gerber Fmt 4.6, Leading zero omitted, Abs format (unit mm)*
G04 Created by KiCad (PCBNEW (6.0.0)) date 2023-02-19 13:31:38*
%MOMM*%
%LPD*%
G01*
G04 APERTURE LIST*
G04 Aperture macros list*
%AMRoundRect*
0 Rectangle with rounded corners*
0 $1 Rounding radius*
0 $2 $3 $4 $5 $6 $7 $8 $9 X,Y pos of 4 corners*
0 Add a 4 corners polygon primitive as box body*
4,1,4,$2,$3,$4,$5,$6,$7,$8,$9,$2,$3,0*
0 Add four circle primitives for the rounded corners*
1,1,$1+$1,$2,$3*
1,1,$1+$1,$4,$5*
1,1,$1+$1,$6,$7*
1,1,$1+$1,$8,$9*
0 Add four rect primitives between the rounded corners*
20,1,$1+$1,$2,$3,$4,$5,0*
20,1,$1+$1,$4,$5,$6,$7,0*
20,1,$1+$1,$6,$7,$8,$9,0*
20,1,$1+$1,$8,$9,$2,$3,0*%
%AMHorizOval*
0 Thick line with rounded ends*
0 $1 width*
0 $2 $3 position (X,Y) of the first rounded end (center of the circle)*
0 $4 $5 position (X,Y) of the second rounded end (center of the circle)*
0 Add line between two ends*
20,1,$1,$2,$3,$4,$5,0*
0 Add two circle primitives to create the rounded ends*
1,1,$1,$2,$3*
1,1,$1,$4,$5*%
G04 Aperture macros list end*
%ADD10C,0.300000*%
%ADD11C,0.150000*%
%ADD12C,0.200000*%
%ADD13C,0.180000*%
%ADD14C,0.450000*%
%ADD15C,0.120000*%
%ADD16C,0.127000*%
%ADD17R,1.700000X1.700000*%
%ADD18O,1.700000X1.700000*%
%ADD19HorizOval,2.100000X1.039230X-0.600000X-1.039230X0.600000X0*%
%ADD20HorizOval,2.100000X1.039230X0.600000X-1.039230X-0.600000X0*%
%ADD21C,1.950000*%
%ADD22C,1.350000*%
%ADD23R,2.400000X2.400000*%
%ADD24C,2.400000*%
%ADD25C,0.800000*%
%ADD26C,7.000000*%
%ADD27R,2.124000X2.124000*%
%ADD28C,2.124000*%
%ADD29R,2.300000X2.300000*%
%ADD30C,2.300000*%
%ADD31RoundRect,0.250000X0.450000X-0.262500X0.450000X0.262500X-0.450000X0.262500X-0.450000X-0.262500X0*%
%ADD32RoundRect,0.250000X-0.250000X-0.475000X0.250000X-0.475000X0.250000X0.475000X-0.250000X0.475000X0*%
%ADD33RoundRect,0.250000X0.262500X0.450000X-0.262500X0.450000X-0.262500X-0.450000X0.262500X-0.450000X0*%
%ADD34RoundRect,0.250000X-0.262500X-0.450000X0.262500X-0.450000X0.262500X0.450000X-0.262500X0.450000X0*%
%ADD35C,3.300000*%
%ADD36RoundRect,0.250000X-0.450000X0.262500X-0.450000X-0.262500X0.450000X-0.262500X0.450000X0.262500X0*%
G04 APERTURE END LIST*
D10*
X126481904Y-79892857D02*
X124958095Y-79892857D01*
X125720000Y-80654761D02*
X125720000Y-79130952D01*
D11*
X48906190Y-132359285D02*
X47953809Y-132359285D01*
X48430000Y-132835476D02*
X48430000Y-131883095D01*
X53966190Y-137419285D02*
X53013809Y-137419285D01*
X53490000Y-137895476D02*
X53490000Y-136943095D01*
D10*
X126481904Y-39052857D02*
X124958095Y-39052857D01*
X125720000Y-39814761D02*
X125720000Y-38290952D01*
D12*
X44595238Y-49590952D02*
X42595238Y-48924285D01*
X44595238Y-48257619D01*
X43642857Y-46924285D02*
X43547619Y-46638571D01*
X43452380Y-46543333D01*
X43261904Y-46448095D01*
X42976190Y-46448095D01*
X42785714Y-46543333D01*
X42690476Y-46638571D01*
X42595238Y-46829047D01*
X42595238Y-47590952D01*
X44595238Y-47590952D01*
X44595238Y-46924285D01*
X44500000Y-46733809D01*
X44404761Y-46638571D01*
X44214285Y-46543333D01*
X44023809Y-46543333D01*
X43833333Y-46638571D01*
X43738095Y-46733809D01*
X43642857Y-46924285D01*
X43642857Y-47590952D01*
X43166666Y-45686190D02*
X43166666Y-44733809D01*
X42595238Y-45876666D02*
X44595238Y-45210000D01*
X42595238Y-44543333D01*
X44595238Y-44162380D02*
X44595238Y-43019523D01*
X42595238Y-43590952D02*
X44595238Y-43590952D01*
X42595238Y-40829047D02*
X44595238Y-40829047D01*
X42595238Y-39876666D02*
X44595238Y-39876666D01*
X42595238Y-38733809D01*
X44595238Y-38733809D01*
X42595238Y-37781428D02*
X44595238Y-37781428D01*
X44595238Y-37019523D01*
X44500000Y-36829047D01*
X44404761Y-36733809D01*
X44214285Y-36638571D01*
X43928571Y-36638571D01*
X43738095Y-36733809D01*
X43642857Y-36829047D01*
X43547619Y-37019523D01*
X43547619Y-37781428D01*
X44595238Y-35781428D02*
X42976190Y-35781428D01*
X42785714Y-35686190D01*
X42690476Y-35590952D01*
X42595238Y-35400476D01*
X42595238Y-35019523D01*
X42690476Y-34829047D01*
X42785714Y-34733809D01*
X42976190Y-34638571D01*
X44595238Y-34638571D01*
X44595238Y-33971904D02*
X44595238Y-32829047D01*
X42595238Y-33400476D02*
X44595238Y-33400476D01*
D13*
X109691904Y-124494761D02*
X110834761Y-124494761D01*
X110263333Y-124494761D02*
X110263333Y-122494761D01*
X110453809Y-122780476D01*
X110644285Y-122970952D01*
X110834761Y-123066190D01*
X108930000Y-122685238D02*
X108834761Y-122590000D01*
X108644285Y-122494761D01*
X108168095Y-122494761D01*
X107977619Y-122590000D01*
X107882380Y-122685238D01*
X107787142Y-122875714D01*
X107787142Y-123066190D01*
X107882380Y-123351904D01*
X109025238Y-124494761D01*
X107787142Y-124494761D01*
X107215714Y-122494761D02*
X106549047Y-124494761D01*
X105882380Y-122494761D01*
X103406190Y-124494761D02*
X103596666Y-124399523D01*
X103691904Y-124304285D01*
X103787142Y-124113809D01*
X103787142Y-123542380D01*
X103691904Y-123351904D01*
X103596666Y-123256666D01*
X103406190Y-123161428D01*
X103120476Y-123161428D01*
X102930000Y-123256666D01*
X102834761Y-123351904D01*
X102739523Y-123542380D01*
X102739523Y-124113809D01*
X102834761Y-124304285D01*
X102930000Y-124399523D01*
X103120476Y-124494761D01*
X103406190Y-124494761D01*
X101025238Y-123161428D02*
X101025238Y-124494761D01*
X101882380Y-123161428D02*
X101882380Y-124209047D01*
X101787142Y-124399523D01*
X101596666Y-124494761D01*
X101310952Y-124494761D01*
X101120476Y-124399523D01*
X101025238Y-124304285D01*
X100358571Y-123161428D02*
X99596666Y-123161428D01*
X100072857Y-122494761D02*
X100072857Y-124209047D01*
X99977619Y-124399523D01*
X99787142Y-124494761D01*
X99596666Y-124494761D01*
X98930000Y-123161428D02*
X98930000Y-125161428D01*
X98930000Y-123256666D02*
X98739523Y-123161428D01*
X98358571Y-123161428D01*
X98168095Y-123256666D01*
X98072857Y-123351904D01*
X97977619Y-123542380D01*
X97977619Y-124113809D01*
X98072857Y-124304285D01*
X98168095Y-124399523D01*
X98358571Y-124494761D01*
X98739523Y-124494761D01*
X98930000Y-124399523D01*
X96263333Y-123161428D02*
X96263333Y-124494761D01*
X97120476Y-123161428D02*
X97120476Y-124209047D01*
X97025238Y-124399523D01*
X96834761Y-124494761D01*
X96549047Y-124494761D01*
X96358571Y-124399523D01*
X96263333Y-124304285D01*
X95596666Y-123161428D02*
X94834761Y-123161428D01*
X95310952Y-122494761D02*
X95310952Y-124209047D01*
X95215714Y-124399523D01*
X95025238Y-124494761D01*
X94834761Y-124494761D01*
X57004761Y-129204761D02*
X57957142Y-129204761D01*
X58052380Y-130157142D01*
X57957142Y-130061904D01*
X57766666Y-129966666D01*
X57290476Y-129966666D01*
X57100000Y-130061904D01*
X57004761Y-130157142D01*
X56909523Y-130347619D01*
X56909523Y-130823809D01*
X57004761Y-131014285D01*
X57100000Y-131109523D01*
X57290476Y-131204761D01*
X57766666Y-131204761D01*
X57957142Y-131109523D01*
X58052380Y-131014285D01*
X56338095Y-129204761D02*
X55671428Y-131204761D01*
X55004761Y-129204761D01*
X52528571Y-131204761D02*
X52719047Y-131109523D01*
X52814285Y-131014285D01*
X52909523Y-130823809D01*
X52909523Y-130252380D01*
X52814285Y-130061904D01*
X52719047Y-129966666D01*
X52528571Y-129871428D01*
X52242857Y-129871428D01*
X52052380Y-129966666D01*
X51957142Y-130061904D01*
X51861904Y-130252380D01*
X51861904Y-130823809D01*
X51957142Y-131014285D01*
X52052380Y-131109523D01*
X52242857Y-131204761D01*
X52528571Y-131204761D01*
X50147619Y-129871428D02*
X50147619Y-131204761D01*
X51004761Y-129871428D02*
X51004761Y-130919047D01*
X50909523Y-131109523D01*
X50719047Y-131204761D01*
X50433333Y-131204761D01*
X50242857Y-131109523D01*
X50147619Y-131014285D01*
X49480952Y-129871428D02*
X48719047Y-129871428D01*
X49195238Y-129204761D02*
X49195238Y-130919047D01*
X49100000Y-131109523D01*
X48909523Y-131204761D01*
X48719047Y-131204761D01*
X48052380Y-129871428D02*
X48052380Y-131871428D01*
X48052380Y-129966666D02*
X47861904Y-129871428D01*
X47480952Y-129871428D01*
X47290476Y-129966666D01*
X47195238Y-130061904D01*
X47100000Y-130252380D01*
X47100000Y-130823809D01*
X47195238Y-131014285D01*
X47290476Y-131109523D01*
X47480952Y-131204761D01*
X47861904Y-131204761D01*
X48052380Y-131109523D01*
X45385714Y-129871428D02*
X45385714Y-131204761D01*
X46242857Y-129871428D02*
X46242857Y-130919047D01*
X46147619Y-131109523D01*
X45957142Y-131204761D01*
X45671428Y-131204761D01*
X45480952Y-131109523D01*
X45385714Y-131014285D01*
X44719047Y-129871428D02*
X43957142Y-129871428D01*
X44433333Y-129204761D02*
X44433333Y-130919047D01*
X44338095Y-131109523D01*
X44147619Y-131204761D01*
X43957142Y-131204761D01*
D11*
X61286190Y-132359285D02*
X60333809Y-132359285D01*
X60810000Y-132835476D02*
X60810000Y-131883095D01*
X64056190Y-137419285D02*
X63103809Y-137419285D01*
X63580000Y-137895476D02*
X63580000Y-136943095D01*
X54356190Y-59559285D02*
X53403809Y-59559285D01*
X53880000Y-60035476D02*
X53880000Y-59083095D01*
X41686190Y-47359285D02*
X40733809Y-47359285D01*
X41210000Y-47835476D02*
X41210000Y-46883095D01*
X26486190Y-59559285D02*
X25533809Y-59559285D01*
X26010000Y-60035476D02*
X26010000Y-59083095D01*
D10*
X128242857Y-125618095D02*
X128242857Y-127141904D01*
X129004761Y-126380000D02*
X127480952Y-126380000D01*
X127708571Y-144048571D02*
X127708571Y-145120000D01*
X127780000Y-145334285D01*
X127922857Y-145477142D01*
X128137142Y-145548571D01*
X128280000Y-145548571D01*
X126280000Y-145548571D02*
X126994285Y-145548571D01*
X126994285Y-144048571D01*
X124922857Y-145405714D02*
X124994285Y-145477142D01*
X125208571Y-145548571D01*
X125351428Y-145548571D01*
X125565714Y-145477142D01*
X125708571Y-145334285D01*
X125780000Y-145191428D01*
X125851428Y-144905714D01*
X125851428Y-144691428D01*
X125780000Y-144405714D01*
X125708571Y-144262857D01*
X125565714Y-144120000D01*
X125351428Y-144048571D01*
X125208571Y-144048571D01*
X124994285Y-144120000D01*
X124922857Y-144191428D01*
X123851428Y-144048571D02*
X123851428Y-145120000D01*
X123922857Y-145334285D01*
X124065714Y-145477142D01*
X124280000Y-145548571D01*
X124422857Y-145548571D01*
X122422857Y-145548571D02*
X123137142Y-145548571D01*
X123137142Y-144048571D01*
X121065714Y-145405714D02*
X121137142Y-145477142D01*
X121351428Y-145548571D01*
X121494285Y-145548571D01*
X121708571Y-145477142D01*
X121851428Y-145334285D01*
X121922857Y-145191428D01*
X121994285Y-144905714D01*
X121994285Y-144691428D01*
X121922857Y-144405714D01*
X121851428Y-144262857D01*
X121708571Y-144120000D01*
X121494285Y-144048571D01*
X121351428Y-144048571D01*
X121137142Y-144120000D01*
X121065714Y-144191428D01*
X119994285Y-144048571D02*
X119994285Y-145120000D01*
X120065714Y-145334285D01*
X120208571Y-145477142D01*
X120422857Y-145548571D01*
X120565714Y-145548571D01*
X118565714Y-145548571D02*
X119280000Y-145548571D01*
X119280000Y-144048571D01*
X117208571Y-145405714D02*
X117280000Y-145477142D01*
X117494285Y-145548571D01*
X117637142Y-145548571D01*
X117851428Y-145477142D01*
X117994285Y-145334285D01*
X118065714Y-145191428D01*
X118137142Y-144905714D01*
X118137142Y-144691428D01*
X118065714Y-144405714D01*
X117994285Y-144262857D01*
X117851428Y-144120000D01*
X117637142Y-144048571D01*
X117494285Y-144048571D01*
X117280000Y-144120000D01*
X117208571Y-144191428D01*
X116137142Y-144048571D02*
X116137142Y-145120000D01*
X116208571Y-145334285D01*
X116351428Y-145477142D01*
X116565714Y-145548571D01*
X116708571Y-145548571D01*
X114708571Y-145548571D02*
X115422857Y-145548571D01*
X115422857Y-144048571D01*
X113351428Y-145405714D02*
X113422857Y-145477142D01*
X113637142Y-145548571D01*
X113780000Y-145548571D01*
X113994285Y-145477142D01*
X114137142Y-145334285D01*
X114208571Y-145191428D01*
X114280000Y-144905714D01*
X114280000Y-144691428D01*
X114208571Y-144405714D01*
X114137142Y-144262857D01*
X113994285Y-144120000D01*
X113780000Y-144048571D01*
X113637142Y-144048571D01*
X113422857Y-144120000D01*
X113351428Y-144191428D01*
D11*
X35496190Y-132359285D02*
X34543809Y-132359285D01*
X35020000Y-132835476D02*
X35020000Y-131883095D01*
D13*
X122734761Y-57488095D02*
X122734761Y-56345238D01*
X122734761Y-56916666D02*
X120734761Y-56916666D01*
X121020476Y-56726190D01*
X121210952Y-56535714D01*
X121306190Y-56345238D01*
X120925238Y-58250000D02*
X120830000Y-58345238D01*
X120734761Y-58535714D01*
X120734761Y-59011904D01*
X120830000Y-59202380D01*
X120925238Y-59297619D01*
X121115714Y-59392857D01*
X121306190Y-59392857D01*
X121591904Y-59297619D01*
X122734761Y-58154761D01*
X122734761Y-59392857D01*
X120734761Y-59964285D02*
X122734761Y-60630952D01*
X120734761Y-61297619D01*
X122734761Y-63773809D02*
X122639523Y-63583333D01*
X122544285Y-63488095D01*
X122353809Y-63392857D01*
X121782380Y-63392857D01*
X121591904Y-63488095D01*
X121496666Y-63583333D01*
X121401428Y-63773809D01*
X121401428Y-64059523D01*
X121496666Y-64250000D01*
X121591904Y-64345238D01*
X121782380Y-64440476D01*
X122353809Y-64440476D01*
X122544285Y-64345238D01*
X122639523Y-64250000D01*
X122734761Y-64059523D01*
X122734761Y-63773809D01*
X121401428Y-66154761D02*
X122734761Y-66154761D01*
X121401428Y-65297619D02*
X122449047Y-65297619D01*
X122639523Y-65392857D01*
X122734761Y-65583333D01*
X122734761Y-65869047D01*
X122639523Y-66059523D01*
X122544285Y-66154761D01*
X121401428Y-66821428D02*
X121401428Y-67583333D01*
X120734761Y-67107142D02*
X122449047Y-67107142D01*
X122639523Y-67202380D01*
X122734761Y-67392857D01*
X122734761Y-67583333D01*
X121401428Y-68250000D02*
X123401428Y-68250000D01*
X121496666Y-68250000D02*
X121401428Y-68440476D01*
X121401428Y-68821428D01*
X121496666Y-69011904D01*
X121591904Y-69107142D01*
X121782380Y-69202380D01*
X122353809Y-69202380D01*
X122544285Y-69107142D01*
X122639523Y-69011904D01*
X122734761Y-68821428D01*
X122734761Y-68440476D01*
X122639523Y-68250000D01*
X121401428Y-70916666D02*
X122734761Y-70916666D01*
X121401428Y-70059523D02*
X122449047Y-70059523D01*
X122639523Y-70154761D01*
X122734761Y-70345238D01*
X122734761Y-70630952D01*
X122639523Y-70821428D01*
X122544285Y-70916666D01*
X121401428Y-71583333D02*
X121401428Y-72345238D01*
X120734761Y-71869047D02*
X122449047Y-71869047D01*
X122639523Y-71964285D01*
X122734761Y-72154761D01*
X122734761Y-72345238D01*
D10*
X107692857Y-125618095D02*
X107692857Y-127141904D01*
X108454761Y-126380000D02*
X106930952Y-126380000D01*
D11*
X43946190Y-137419285D02*
X42993809Y-137419285D01*
X43470000Y-137895476D02*
X43470000Y-136943095D01*
D10*
X87402857Y-125618095D02*
X87402857Y-127141904D01*
X88164761Y-126380000D02*
X86640952Y-126380000D01*
X126481904Y-59342857D02*
X124958095Y-59342857D01*
X125720000Y-60104761D02*
X125720000Y-58580952D01*
D14*
X144624761Y-98653809D02*
X142624761Y-98653809D01*
X142624761Y-99415714D01*
X142720000Y-99606190D01*
X142815238Y-99701428D01*
X143005714Y-99796666D01*
X143291428Y-99796666D01*
X143481904Y-99701428D01*
X143577142Y-99606190D01*
X143672380Y-99415714D01*
X143672380Y-98653809D01*
X144624761Y-101796666D02*
X143672380Y-101130000D01*
X144624761Y-100653809D02*
X142624761Y-100653809D01*
X142624761Y-101415714D01*
X142720000Y-101606190D01*
X142815238Y-101701428D01*
X143005714Y-101796666D01*
X143291428Y-101796666D01*
X143481904Y-101701428D01*
X143577142Y-101606190D01*
X143672380Y-101415714D01*
X143672380Y-100653809D01*
X142624761Y-103034761D02*
X142624761Y-103415714D01*
X142720000Y-103606190D01*
X142910476Y-103796666D01*
X143291428Y-103891904D01*
X143958095Y-103891904D01*
X144339047Y-103796666D01*
X144529523Y-103606190D01*
X144624761Y-103415714D01*
X144624761Y-103034761D01*
X144529523Y-102844285D01*
X144339047Y-102653809D01*
X143958095Y-102558571D01*
X143291428Y-102558571D01*
X142910476Y-102653809D01*
X142720000Y-102844285D01*
X142624761Y-103034761D01*
X143577142Y-105415714D02*
X143672380Y-105701428D01*
X143767619Y-105796666D01*
X143958095Y-105891904D01*
X144243809Y-105891904D01*
X144434285Y-105796666D01*
X144529523Y-105701428D01*
X144624761Y-105510952D01*
X144624761Y-104749047D01*
X142624761Y-104749047D01*
X142624761Y-105415714D01*
X142720000Y-105606190D01*
X142815238Y-105701428D01*
X143005714Y-105796666D01*
X143196190Y-105796666D01*
X143386666Y-105701428D01*
X143481904Y-105606190D01*
X143577142Y-105415714D01*
X143577142Y-104749047D01*
X143577142Y-106749047D02*
X143577142Y-107415714D01*
X144624761Y-107701428D02*
X144624761Y-106749047D01*
X142624761Y-106749047D01*
X142624761Y-107701428D01*
X144624761Y-108558571D02*
X142624761Y-108558571D01*
X142624761Y-109320476D01*
X142720000Y-109510952D01*
X142815238Y-109606190D01*
X143005714Y-109701428D01*
X143291428Y-109701428D01*
X143481904Y-109606190D01*
X143577142Y-109510952D01*
X143672380Y-109320476D01*
X143672380Y-108558571D01*
X144434285Y-111701428D02*
X144529523Y-111606190D01*
X144624761Y-111320476D01*
X144624761Y-111130000D01*
X144529523Y-110844285D01*
X144339047Y-110653809D01*
X144148571Y-110558571D01*
X143767619Y-110463333D01*
X143481904Y-110463333D01*
X143100952Y-110558571D01*
X142910476Y-110653809D01*
X142720000Y-110844285D01*
X142624761Y-111130000D01*
X142624761Y-111320476D01*
X142720000Y-111606190D01*
X142815238Y-111701428D01*
X143577142Y-113225238D02*
X143672380Y-113510952D01*
X143767619Y-113606190D01*
X143958095Y-113701428D01*
X144243809Y-113701428D01*
X144434285Y-113606190D01*
X144529523Y-113510952D01*
X144624761Y-113320476D01*
X144624761Y-112558571D01*
X142624761Y-112558571D01*
X142624761Y-113225238D01*
X142720000Y-113415714D01*
X142815238Y-113510952D01*
X143005714Y-113606190D01*
X143196190Y-113606190D01*
X143386666Y-113510952D01*
X143481904Y-113415714D01*
X143577142Y-113225238D01*
X143577142Y-112558571D01*
X144624761Y-114558571D02*
X142624761Y-114558571D01*
X142624761Y-115320476D01*
X142720000Y-115510952D01*
X142815238Y-115606190D01*
X143005714Y-115701428D01*
X143291428Y-115701428D01*
X143481904Y-115606190D01*
X143577142Y-115510952D01*
X143672380Y-115320476D01*
X143672380Y-114558571D01*
X144434285Y-117701428D02*
X144529523Y-117606190D01*
X144624761Y-117320476D01*
X144624761Y-117130000D01*
X144529523Y-116844285D01*
X144339047Y-116653809D01*
X144148571Y-116558571D01*
X143767619Y-116463333D01*
X143481904Y-116463333D01*
X143100952Y-116558571D01*
X142910476Y-116653809D01*
X142720000Y-116844285D01*
X142624761Y-117130000D01*
X142624761Y-117320476D01*
X142720000Y-117606190D01*
X142815238Y-117701428D01*
X143577142Y-119225238D02*
X143672380Y-119510952D01*
X143767619Y-119606190D01*
X143958095Y-119701428D01*
X144243809Y-119701428D01*
X144434285Y-119606190D01*
X144529523Y-119510952D01*
X144624761Y-119320476D01*
X144624761Y-118558571D01*
X142624761Y-118558571D01*
X142624761Y-119225238D01*
X142720000Y-119415714D01*
X142815238Y-119510952D01*
X143005714Y-119606190D01*
X143196190Y-119606190D01*
X143386666Y-119510952D01*
X143481904Y-119415714D01*
X143577142Y-119225238D01*
X143577142Y-118558571D01*
D11*
X40756190Y-59559285D02*
X39803809Y-59559285D01*
X40280000Y-60035476D02*
X40280000Y-59083095D01*
X52405714Y-139152380D02*
X52405714Y-139866666D01*
X52453333Y-140009523D01*
X52548571Y-140104761D01*
X52691428Y-140152380D01*
X52786666Y-140152380D01*
X51405714Y-140152380D02*
X51977142Y-140152380D01*
X51691428Y-140152380D02*
X51691428Y-139152380D01*
X51786666Y-139295238D01*
X51881904Y-139390476D01*
X51977142Y-139438095D01*
X50786666Y-139152380D02*
X50691428Y-139152380D01*
X50596190Y-139200000D01*
X50548571Y-139247619D01*
X50500952Y-139342857D01*
X50453333Y-139533333D01*
X50453333Y-139771428D01*
X50500952Y-139961904D01*
X50548571Y-140057142D01*
X50596190Y-140104761D01*
X50691428Y-140152380D01*
X50786666Y-140152380D01*
X50881904Y-140104761D01*
X50929523Y-140057142D01*
X50977142Y-139961904D01*
X51024761Y-139771428D01*
X51024761Y-139533333D01*
X50977142Y-139342857D01*
X50929523Y-139247619D01*
X50881904Y-139200000D01*
X50786666Y-139152380D01*
X49596190Y-139485714D02*
X49596190Y-140152380D01*
X49834285Y-139104761D02*
X50072380Y-139819047D01*
X49453333Y-139819047D01*
X132895714Y-144172380D02*
X132895714Y-144886666D01*
X132943333Y-145029523D01*
X133038571Y-145124761D01*
X133181428Y-145172380D01*
X133276666Y-145172380D01*
X131895714Y-145172380D02*
X132467142Y-145172380D01*
X132181428Y-145172380D02*
X132181428Y-144172380D01*
X132276666Y-144315238D01*
X132371904Y-144410476D01*
X132467142Y-144458095D01*
X131276666Y-144172380D02*
X131181428Y-144172380D01*
X131086190Y-144220000D01*
X131038571Y-144267619D01*
X130990952Y-144362857D01*
X130943333Y-144553333D01*
X130943333Y-144791428D01*
X130990952Y-144981904D01*
X131038571Y-145077142D01*
X131086190Y-145124761D01*
X131181428Y-145172380D01*
X131276666Y-145172380D01*
X131371904Y-145124761D01*
X131419523Y-145077142D01*
X131467142Y-144981904D01*
X131514761Y-144791428D01*
X131514761Y-144553333D01*
X131467142Y-144362857D01*
X131419523Y-144267619D01*
X131371904Y-144220000D01*
X131276666Y-144172380D01*
X130610000Y-144172380D02*
X129990952Y-144172380D01*
X130324285Y-144553333D01*
X130181428Y-144553333D01*
X130086190Y-144600952D01*
X130038571Y-144648571D01*
X129990952Y-144743809D01*
X129990952Y-144981904D01*
X130038571Y-145077142D01*
X130086190Y-145124761D01*
X130181428Y-145172380D01*
X130467142Y-145172380D01*
X130562380Y-145124761D01*
X130610000Y-145077142D01*
X38927619Y-43275714D02*
X38213333Y-43275714D01*
X38070476Y-43323333D01*
X37975238Y-43418571D01*
X37927619Y-43561428D01*
X37927619Y-43656666D01*
X37927619Y-42275714D02*
X37927619Y-42847142D01*
X37927619Y-42561428D02*
X38927619Y-42561428D01*
X38784761Y-42656666D01*
X38689523Y-42751904D01*
X38641904Y-42847142D01*
X38927619Y-41656666D02*
X38927619Y-41561428D01*
X38880000Y-41466190D01*
X38832380Y-41418571D01*
X38737142Y-41370952D01*
X38546666Y-41323333D01*
X38308571Y-41323333D01*
X38118095Y-41370952D01*
X38022857Y-41418571D01*
X37975238Y-41466190D01*
X37927619Y-41561428D01*
X37927619Y-41656666D01*
X37975238Y-41751904D01*
X38022857Y-41799523D01*
X38118095Y-41847142D01*
X38308571Y-41894761D01*
X38546666Y-41894761D01*
X38737142Y-41847142D01*
X38832380Y-41799523D01*
X38880000Y-41751904D01*
X38927619Y-41656666D01*
X37927619Y-40370952D02*
X37927619Y-40942380D01*
X37927619Y-40656666D02*
X38927619Y-40656666D01*
X38784761Y-40751904D01*
X38689523Y-40847142D01*
X38641904Y-40942380D01*
X30352380Y-94860952D02*
X29876190Y-94527619D01*
X30352380Y-94289523D02*
X29352380Y-94289523D01*
X29352380Y-94670476D01*
X29400000Y-94765714D01*
X29447619Y-94813333D01*
X29542857Y-94860952D01*
X29685714Y-94860952D01*
X29780952Y-94813333D01*
X29828571Y-94765714D01*
X29876190Y-94670476D01*
X29876190Y-94289523D01*
X30352380Y-95813333D02*
X30352380Y-95241904D01*
X30352380Y-95527619D02*
X29352380Y-95527619D01*
X29495238Y-95432380D01*
X29590476Y-95337142D01*
X29638095Y-95241904D01*
X30352380Y-96765714D02*
X30352380Y-96194285D01*
X30352380Y-96480000D02*
X29352380Y-96480000D01*
X29495238Y-96384761D01*
X29590476Y-96289523D01*
X29638095Y-96194285D01*
X29352380Y-97670476D02*
X29352380Y-97194285D01*
X29828571Y-97146666D01*
X29780952Y-97194285D01*
X29733333Y-97289523D01*
X29733333Y-97527619D01*
X29780952Y-97622857D01*
X29828571Y-97670476D01*
X29923809Y-97718095D01*
X30161904Y-97718095D01*
X30257142Y-97670476D01*
X30304761Y-97622857D01*
X30352380Y-97527619D01*
X30352380Y-97289523D01*
X30304761Y-97194285D01*
X30257142Y-97146666D01*
X77459047Y-78487142D02*
X77506666Y-78534761D01*
X77649523Y-78582380D01*
X77744761Y-78582380D01*
X77887619Y-78534761D01*
X77982857Y-78439523D01*
X78030476Y-78344285D01*
X78078095Y-78153809D01*
X78078095Y-78010952D01*
X78030476Y-77820476D01*
X77982857Y-77725238D01*
X77887619Y-77630000D01*
X77744761Y-77582380D01*
X77649523Y-77582380D01*
X77506666Y-77630000D01*
X77459047Y-77677619D01*
X76506666Y-78582380D02*
X77078095Y-78582380D01*
X76792380Y-78582380D02*
X76792380Y-77582380D01*
X76887619Y-77725238D01*
X76982857Y-77820476D01*
X77078095Y-77868095D01*
X75887619Y-77582380D02*
X75792380Y-77582380D01*
X75697142Y-77630000D01*
X75649523Y-77677619D01*
X75601904Y-77772857D01*
X75554285Y-77963333D01*
X75554285Y-78201428D01*
X75601904Y-78391904D01*
X75649523Y-78487142D01*
X75697142Y-78534761D01*
X75792380Y-78582380D01*
X75887619Y-78582380D01*
X75982857Y-78534761D01*
X76030476Y-78487142D01*
X76078095Y-78391904D01*
X76125714Y-78201428D01*
X76125714Y-77963333D01*
X76078095Y-77772857D01*
X76030476Y-77677619D01*
X75982857Y-77630000D01*
X75887619Y-77582380D01*
X75220952Y-77582380D02*
X74554285Y-77582380D01*
X74982857Y-78582380D01*
X69222380Y-83970952D02*
X68746190Y-83637619D01*
X69222380Y-83399523D02*
X68222380Y-83399523D01*
X68222380Y-83780476D01*
X68270000Y-83875714D01*
X68317619Y-83923333D01*
X68412857Y-83970952D01*
X68555714Y-83970952D01*
X68650952Y-83923333D01*
X68698571Y-83875714D01*
X68746190Y-83780476D01*
X68746190Y-83399523D01*
X69222380Y-84923333D02*
X69222380Y-84351904D01*
X69222380Y-84637619D02*
X68222380Y-84637619D01*
X68365238Y-84542380D01*
X68460476Y-84447142D01*
X68508095Y-84351904D01*
X69222380Y-85875714D02*
X69222380Y-85304285D01*
X69222380Y-85590000D02*
X68222380Y-85590000D01*
X68365238Y-85494761D01*
X68460476Y-85399523D01*
X68508095Y-85304285D01*
X68222380Y-86209047D02*
X68222380Y-86828095D01*
X68603333Y-86494761D01*
X68603333Y-86637619D01*
X68650952Y-86732857D01*
X68698571Y-86780476D01*
X68793809Y-86828095D01*
X69031904Y-86828095D01*
X69127142Y-86780476D01*
X69174761Y-86732857D01*
X69222380Y-86637619D01*
X69222380Y-86351904D01*
X69174761Y-86256666D01*
X69127142Y-86209047D01*
X35314047Y-91772380D02*
X35647380Y-91296190D01*
X35885476Y-91772380D02*
X35885476Y-90772380D01*
X35504523Y-90772380D01*
X35409285Y-90820000D01*
X35361666Y-90867619D01*
X35314047Y-90962857D01*
X35314047Y-91105714D01*
X35361666Y-91200952D01*
X35409285Y-91248571D01*
X35504523Y-91296190D01*
X35885476Y-91296190D01*
X34361666Y-91772380D02*
X34933095Y-91772380D01*
X34647380Y-91772380D02*
X34647380Y-90772380D01*
X34742619Y-90915238D01*
X34837857Y-91010476D01*
X34933095Y-91058095D01*
X33742619Y-90772380D02*
X33647380Y-90772380D01*
X33552142Y-90820000D01*
X33504523Y-90867619D01*
X33456904Y-90962857D01*
X33409285Y-91153333D01*
X33409285Y-91391428D01*
X33456904Y-91581904D01*
X33504523Y-91677142D01*
X33552142Y-91724761D01*
X33647380Y-91772380D01*
X33742619Y-91772380D01*
X33837857Y-91724761D01*
X33885476Y-91677142D01*
X33933095Y-91581904D01*
X33980714Y-91391428D01*
X33980714Y-91153333D01*
X33933095Y-90962857D01*
X33885476Y-90867619D01*
X33837857Y-90820000D01*
X33742619Y-90772380D01*
X32933095Y-91772380D02*
X32742619Y-91772380D01*
X32647380Y-91724761D01*
X32599761Y-91677142D01*
X32504523Y-91534285D01*
X32456904Y-91343809D01*
X32456904Y-90962857D01*
X32504523Y-90867619D01*
X32552142Y-90820000D01*
X32647380Y-90772380D01*
X32837857Y-90772380D01*
X32933095Y-90820000D01*
X32980714Y-90867619D01*
X33028333Y-90962857D01*
X33028333Y-91200952D01*
X32980714Y-91296190D01*
X32933095Y-91343809D01*
X32837857Y-91391428D01*
X32647380Y-91391428D01*
X32552142Y-91343809D01*
X32504523Y-91296190D01*
X32456904Y-91200952D01*
X49242380Y-92080952D02*
X48766190Y-91747619D01*
X49242380Y-91509523D02*
X48242380Y-91509523D01*
X48242380Y-91890476D01*
X48290000Y-91985714D01*
X48337619Y-92033333D01*
X48432857Y-92080952D01*
X48575714Y-92080952D01*
X48670952Y-92033333D01*
X48718571Y-91985714D01*
X48766190Y-91890476D01*
X48766190Y-91509523D01*
X49242380Y-93033333D02*
X49242380Y-92461904D01*
X49242380Y-92747619D02*
X48242380Y-92747619D01*
X48385238Y-92652380D01*
X48480476Y-92557142D01*
X48528095Y-92461904D01*
X49242380Y-93985714D02*
X49242380Y-93414285D01*
X49242380Y-93700000D02*
X48242380Y-93700000D01*
X48385238Y-93604761D01*
X48480476Y-93509523D01*
X48528095Y-93414285D01*
X48575714Y-94842857D02*
X49242380Y-94842857D01*
X48194761Y-94604761D02*
X48909047Y-94366666D01*
X48909047Y-94985714D01*
X145182380Y-35634285D02*
X145896666Y-35634285D01*
X146039523Y-35586666D01*
X146134761Y-35491428D01*
X146182380Y-35348571D01*
X146182380Y-35253333D01*
X146182380Y-36634285D02*
X146182380Y-36062857D01*
X146182380Y-36348571D02*
X145182380Y-36348571D01*
X145325238Y-36253333D01*
X145420476Y-36158095D01*
X145468095Y-36062857D01*
X145182380Y-37253333D02*
X145182380Y-37348571D01*
X145230000Y-37443809D01*
X145277619Y-37491428D01*
X145372857Y-37539047D01*
X145563333Y-37586666D01*
X145801428Y-37586666D01*
X145991904Y-37539047D01*
X146087142Y-37491428D01*
X146134761Y-37443809D01*
X146182380Y-37348571D01*
X146182380Y-37253333D01*
X146134761Y-37158095D01*
X146087142Y-37110476D01*
X145991904Y-37062857D01*
X145801428Y-37015238D01*
X145563333Y-37015238D01*
X145372857Y-37062857D01*
X145277619Y-37110476D01*
X145230000Y-37158095D01*
X145182380Y-37253333D01*
X145277619Y-37967619D02*
X145230000Y-38015238D01*
X145182380Y-38110476D01*
X145182380Y-38348571D01*
X145230000Y-38443809D01*
X145277619Y-38491428D01*
X145372857Y-38539047D01*
X145468095Y-38539047D01*
X145610952Y-38491428D01*
X146182380Y-37920000D01*
X146182380Y-38539047D01*
X78369047Y-83202380D02*
X78702380Y-82726190D01*
X78940476Y-83202380D02*
X78940476Y-82202380D01*
X78559523Y-82202380D01*
X78464285Y-82250000D01*
X78416666Y-82297619D01*
X78369047Y-82392857D01*
X78369047Y-82535714D01*
X78416666Y-82630952D01*
X78464285Y-82678571D01*
X78559523Y-82726190D01*
X78940476Y-82726190D01*
X77416666Y-83202380D02*
X77988095Y-83202380D01*
X77702380Y-83202380D02*
X77702380Y-82202380D01*
X77797619Y-82345238D01*
X77892857Y-82440476D01*
X77988095Y-82488095D01*
X76464285Y-83202380D02*
X77035714Y-83202380D01*
X76750000Y-83202380D02*
X76750000Y-82202380D01*
X76845238Y-82345238D01*
X76940476Y-82440476D01*
X77035714Y-82488095D01*
X75845238Y-82202380D02*
X75750000Y-82202380D01*
X75654761Y-82250000D01*
X75607142Y-82297619D01*
X75559523Y-82392857D01*
X75511904Y-82583333D01*
X75511904Y-82821428D01*
X75559523Y-83011904D01*
X75607142Y-83107142D01*
X75654761Y-83154761D01*
X75750000Y-83202380D01*
X75845238Y-83202380D01*
X75940476Y-83154761D01*
X75988095Y-83107142D01*
X76035714Y-83011904D01*
X76083333Y-82821428D01*
X76083333Y-82583333D01*
X76035714Y-82392857D01*
X75988095Y-82297619D01*
X75940476Y-82250000D01*
X75845238Y-82202380D01*
X48512380Y-69947142D02*
X47512380Y-69947142D01*
X48512380Y-70423333D02*
X47512380Y-70423333D01*
X48512380Y-70994761D01*
X47512380Y-70994761D01*
X48131428Y-71470952D02*
X48131428Y-72232857D01*
X48512380Y-71851904D02*
X47750476Y-71851904D01*
X62512380Y-69947142D02*
X61512380Y-69947142D01*
X62512380Y-70423333D02*
X61512380Y-70423333D01*
X62512380Y-70994761D01*
X61512380Y-70994761D01*
X62131428Y-71470952D02*
X62131428Y-72232857D01*
X61512380Y-109470952D02*
X61512380Y-109661428D01*
X61560000Y-109756666D01*
X61655238Y-109851904D01*
X61845714Y-109899523D01*
X62179047Y-109899523D01*
X62369523Y-109851904D01*
X62464761Y-109756666D01*
X62512380Y-109661428D01*
X62512380Y-109470952D01*
X62464761Y-109375714D01*
X62369523Y-109280476D01*
X62179047Y-109232857D01*
X61845714Y-109232857D01*
X61655238Y-109280476D01*
X61560000Y-109375714D01*
X61512380Y-109470952D01*
X61512380Y-110328095D02*
X62321904Y-110328095D01*
X62417142Y-110375714D01*
X62464761Y-110423333D01*
X62512380Y-110518571D01*
X62512380Y-110709047D01*
X62464761Y-110804285D01*
X62417142Y-110851904D01*
X62321904Y-110899523D01*
X61512380Y-110899523D01*
X61512380Y-111232857D02*
X61512380Y-111804285D01*
X62512380Y-111518571D02*
X61512380Y-111518571D01*
X62131428Y-112137619D02*
X62131428Y-112899523D01*
X62512380Y-112518571D02*
X61750476Y-112518571D01*
X47512380Y-109470952D02*
X47512380Y-109661428D01*
X47560000Y-109756666D01*
X47655238Y-109851904D01*
X47845714Y-109899523D01*
X48179047Y-109899523D01*
X48369523Y-109851904D01*
X48464761Y-109756666D01*
X48512380Y-109661428D01*
X48512380Y-109470952D01*
X48464761Y-109375714D01*
X48369523Y-109280476D01*
X48179047Y-109232857D01*
X47845714Y-109232857D01*
X47655238Y-109280476D01*
X47560000Y-109375714D01*
X47512380Y-109470952D01*
X47512380Y-110328095D02*
X48321904Y-110328095D01*
X48417142Y-110375714D01*
X48464761Y-110423333D01*
X48512380Y-110518571D01*
X48512380Y-110709047D01*
X48464761Y-110804285D01*
X48417142Y-110851904D01*
X48321904Y-110899523D01*
X47512380Y-110899523D01*
X47512380Y-111232857D02*
X47512380Y-111804285D01*
X48512380Y-111518571D02*
X47512380Y-111518571D01*
X48131428Y-112137619D02*
X48131428Y-112899523D01*
X48512380Y-112518571D02*
X47750476Y-112518571D01*
X52956547Y-85349880D02*
X53289880Y-84873690D01*
X53527976Y-85349880D02*
X53527976Y-84349880D01*
X53147023Y-84349880D01*
X53051785Y-84397500D01*
X53004166Y-84445119D01*
X52956547Y-84540357D01*
X52956547Y-84683214D01*
X53004166Y-84778452D01*
X53051785Y-84826071D01*
X53147023Y-84873690D01*
X53527976Y-84873690D01*
X52004166Y-85349880D02*
X52575595Y-85349880D01*
X52289880Y-85349880D02*
X52289880Y-84349880D01*
X52385119Y-84492738D01*
X52480357Y-84587976D01*
X52575595Y-84635595D01*
X51385119Y-84349880D02*
X51289880Y-84349880D01*
X51194642Y-84397500D01*
X51147023Y-84445119D01*
X51099404Y-84540357D01*
X51051785Y-84730833D01*
X51051785Y-84968928D01*
X51099404Y-85159404D01*
X51147023Y-85254642D01*
X51194642Y-85302261D01*
X51289880Y-85349880D01*
X51385119Y-85349880D01*
X51480357Y-85302261D01*
X51527976Y-85254642D01*
X51575595Y-85159404D01*
X51623214Y-84968928D01*
X51623214Y-84730833D01*
X51575595Y-84540357D01*
X51527976Y-84445119D01*
X51480357Y-84397500D01*
X51385119Y-84349880D01*
X50480357Y-84778452D02*
X50575595Y-84730833D01*
X50623214Y-84683214D01*
X50670833Y-84587976D01*
X50670833Y-84540357D01*
X50623214Y-84445119D01*
X50575595Y-84397500D01*
X50480357Y-84349880D01*
X50289880Y-84349880D01*
X50194642Y-84397500D01*
X50147023Y-84445119D01*
X50099404Y-84540357D01*
X50099404Y-84587976D01*
X50147023Y-84683214D01*
X50194642Y-84730833D01*
X50289880Y-84778452D01*
X50480357Y-84778452D01*
X50575595Y-84826071D01*
X50623214Y-84873690D01*
X50670833Y-84968928D01*
X50670833Y-85159404D01*
X50623214Y-85254642D01*
X50575595Y-85302261D01*
X50480357Y-85349880D01*
X50289880Y-85349880D01*
X50194642Y-85302261D01*
X50147023Y-85254642D01*
X50099404Y-85159404D01*
X50099404Y-84968928D01*
X50147023Y-84873690D01*
X50194642Y-84826071D01*
X50289880Y-84778452D01*
X40432380Y-69857142D02*
X39432380Y-69857142D01*
X40432380Y-70333333D02*
X39432380Y-70333333D01*
X40432380Y-70904761D01*
X39432380Y-70904761D01*
X40051428Y-71380952D02*
X40051428Y-72142857D01*
X39432380Y-109380952D02*
X39432380Y-109571428D01*
X39480000Y-109666666D01*
X39575238Y-109761904D01*
X39765714Y-109809523D01*
X40099047Y-109809523D01*
X40289523Y-109761904D01*
X40384761Y-109666666D01*
X40432380Y-109571428D01*
X40432380Y-109380952D01*
X40384761Y-109285714D01*
X40289523Y-109190476D01*
X40099047Y-109142857D01*
X39765714Y-109142857D01*
X39575238Y-109190476D01*
X39480000Y-109285714D01*
X39432380Y-109380952D01*
X39432380Y-110238095D02*
X40241904Y-110238095D01*
X40337142Y-110285714D01*
X40384761Y-110333333D01*
X40432380Y-110428571D01*
X40432380Y-110619047D01*
X40384761Y-110714285D01*
X40337142Y-110761904D01*
X40241904Y-110809523D01*
X39432380Y-110809523D01*
X39432380Y-111142857D02*
X39432380Y-111714285D01*
X40432380Y-111428571D02*
X39432380Y-111428571D01*
X40051428Y-112047619D02*
X40051428Y-112809523D01*
X40432380Y-112428571D02*
X39670476Y-112428571D01*
X26432380Y-69857142D02*
X25432380Y-69857142D01*
X26432380Y-70333333D02*
X25432380Y-70333333D01*
X26432380Y-70904761D01*
X25432380Y-70904761D01*
X26051428Y-71380952D02*
X26051428Y-72142857D01*
X26432380Y-71761904D02*
X25670476Y-71761904D01*
X25432380Y-109380952D02*
X25432380Y-109571428D01*
X25480000Y-109666666D01*
X25575238Y-109761904D01*
X25765714Y-109809523D01*
X26099047Y-109809523D01*
X26289523Y-109761904D01*
X26384761Y-109666666D01*
X26432380Y-109571428D01*
X26432380Y-109380952D01*
X26384761Y-109285714D01*
X26289523Y-109190476D01*
X26099047Y-109142857D01*
X25765714Y-109142857D01*
X25575238Y-109190476D01*
X25480000Y-109285714D01*
X25432380Y-109380952D01*
X25432380Y-110238095D02*
X26241904Y-110238095D01*
X26337142Y-110285714D01*
X26384761Y-110333333D01*
X26432380Y-110428571D01*
X26432380Y-110619047D01*
X26384761Y-110714285D01*
X26337142Y-110761904D01*
X26241904Y-110809523D01*
X25432380Y-110809523D01*
X25432380Y-111142857D02*
X25432380Y-111714285D01*
X26432380Y-111428571D02*
X25432380Y-111428571D01*
X26051428Y-112047619D02*
X26051428Y-112809523D01*
X26432380Y-112428571D02*
X25670476Y-112428571D01*
X57879047Y-88584642D02*
X57926666Y-88632261D01*
X58069523Y-88679880D01*
X58164761Y-88679880D01*
X58307619Y-88632261D01*
X58402857Y-88537023D01*
X58450476Y-88441785D01*
X58498095Y-88251309D01*
X58498095Y-88108452D01*
X58450476Y-87917976D01*
X58402857Y-87822738D01*
X58307619Y-87727500D01*
X58164761Y-87679880D01*
X58069523Y-87679880D01*
X57926666Y-87727500D01*
X57879047Y-87775119D01*
X56926666Y-88679880D02*
X57498095Y-88679880D01*
X57212380Y-88679880D02*
X57212380Y-87679880D01*
X57307619Y-87822738D01*
X57402857Y-87917976D01*
X57498095Y-87965595D01*
X56307619Y-87679880D02*
X56212380Y-87679880D01*
X56117142Y-87727500D01*
X56069523Y-87775119D01*
X56021904Y-87870357D01*
X55974285Y-88060833D01*
X55974285Y-88298928D01*
X56021904Y-88489404D01*
X56069523Y-88584642D01*
X56117142Y-88632261D01*
X56212380Y-88679880D01*
X56307619Y-88679880D01*
X56402857Y-88632261D01*
X56450476Y-88584642D01*
X56498095Y-88489404D01*
X56545714Y-88298928D01*
X56545714Y-88060833D01*
X56498095Y-87870357D01*
X56450476Y-87775119D01*
X56402857Y-87727500D01*
X56307619Y-87679880D01*
X55402857Y-88108452D02*
X55498095Y-88060833D01*
X55545714Y-88013214D01*
X55593333Y-87917976D01*
X55593333Y-87870357D01*
X55545714Y-87775119D01*
X55498095Y-87727500D01*
X55402857Y-87679880D01*
X55212380Y-87679880D01*
X55117142Y-87727500D01*
X55069523Y-87775119D01*
X55021904Y-87870357D01*
X55021904Y-87917976D01*
X55069523Y-88013214D01*
X55117142Y-88060833D01*
X55212380Y-88108452D01*
X55402857Y-88108452D01*
X55498095Y-88156071D01*
X55545714Y-88203690D01*
X55593333Y-88298928D01*
X55593333Y-88489404D01*
X55545714Y-88584642D01*
X55498095Y-88632261D01*
X55402857Y-88679880D01*
X55212380Y-88679880D01*
X55117142Y-88632261D01*
X55069523Y-88584642D01*
X55021904Y-88489404D01*
X55021904Y-88298928D01*
X55069523Y-88203690D01*
X55117142Y-88156071D01*
X55212380Y-88108452D01*
D10*
X133809979Y-108912086D02*
X133737407Y-108766943D01*
X133737407Y-108549229D01*
X133809979Y-108331515D01*
X133955121Y-108186372D01*
X134100264Y-108113800D01*
X134390550Y-108041229D01*
X134608264Y-108041229D01*
X134898550Y-108113800D01*
X135043693Y-108186372D01*
X135188836Y-108331515D01*
X135261407Y-108549229D01*
X135261407Y-108694372D01*
X135188836Y-108912086D01*
X135116264Y-108984658D01*
X134608264Y-108984658D01*
X134608264Y-108694372D01*
X133737407Y-109855515D02*
X134100264Y-109855515D01*
X133955121Y-109492658D02*
X134100264Y-109855515D01*
X133955121Y-110218372D01*
X134390550Y-109637800D02*
X134100264Y-109855515D01*
X134390550Y-110073229D01*
X133737407Y-111016658D02*
X134100264Y-111016658D01*
X133955121Y-110653800D02*
X134100264Y-111016658D01*
X133955121Y-111379515D01*
X134390550Y-110798943D02*
X134100264Y-111016658D01*
X134390550Y-111234372D01*
X133737407Y-112177800D02*
X134100264Y-112177800D01*
X133955121Y-111814943D02*
X134100264Y-112177800D01*
X133955121Y-112540658D01*
X134390550Y-111960086D02*
X134100264Y-112177800D01*
X134390550Y-112395515D01*
D11*
X38962380Y-94980952D02*
X38486190Y-94647619D01*
X38962380Y-94409523D02*
X37962380Y-94409523D01*
X37962380Y-94790476D01*
X38010000Y-94885714D01*
X38057619Y-94933333D01*
X38152857Y-94980952D01*
X38295714Y-94980952D01*
X38390952Y-94933333D01*
X38438571Y-94885714D01*
X38486190Y-94790476D01*
X38486190Y-94409523D01*
X38962380Y-95933333D02*
X38962380Y-95361904D01*
X38962380Y-95647619D02*
X37962380Y-95647619D01*
X38105238Y-95552380D01*
X38200476Y-95457142D01*
X38248095Y-95361904D01*
X38962380Y-96885714D02*
X38962380Y-96314285D01*
X38962380Y-96600000D02*
X37962380Y-96600000D01*
X38105238Y-96504761D01*
X38200476Y-96409523D01*
X38248095Y-96314285D01*
X38057619Y-97266666D02*
X38010000Y-97314285D01*
X37962380Y-97409523D01*
X37962380Y-97647619D01*
X38010000Y-97742857D01*
X38057619Y-97790476D01*
X38152857Y-97838095D01*
X38248095Y-97838095D01*
X38390952Y-97790476D01*
X38962380Y-97219047D01*
X38962380Y-97838095D01*
X51792380Y-88340952D02*
X51316190Y-88007619D01*
X51792380Y-87769523D02*
X50792380Y-87769523D01*
X50792380Y-88150476D01*
X50840000Y-88245714D01*
X50887619Y-88293333D01*
X50982857Y-88340952D01*
X51125714Y-88340952D01*
X51220952Y-88293333D01*
X51268571Y-88245714D01*
X51316190Y-88150476D01*
X51316190Y-87769523D01*
X51792380Y-89293333D02*
X51792380Y-88721904D01*
X51792380Y-89007619D02*
X50792380Y-89007619D01*
X50935238Y-88912380D01*
X51030476Y-88817142D01*
X51078095Y-88721904D01*
X51792380Y-90245714D02*
X51792380Y-89674285D01*
X51792380Y-89960000D02*
X50792380Y-89960000D01*
X50935238Y-89864761D01*
X51030476Y-89769523D01*
X51078095Y-89674285D01*
X51792380Y-91198095D02*
X51792380Y-90626666D01*
X51792380Y-90912380D02*
X50792380Y-90912380D01*
X50935238Y-90817142D01*
X51030476Y-90721904D01*
X51078095Y-90626666D01*
X72809047Y-78542380D02*
X73142380Y-78066190D01*
X73380476Y-78542380D02*
X73380476Y-77542380D01*
X72999523Y-77542380D01*
X72904285Y-77590000D01*
X72856666Y-77637619D01*
X72809047Y-77732857D01*
X72809047Y-77875714D01*
X72856666Y-77970952D01*
X72904285Y-78018571D01*
X72999523Y-78066190D01*
X73380476Y-78066190D01*
X71856666Y-78542380D02*
X72428095Y-78542380D01*
X72142380Y-78542380D02*
X72142380Y-77542380D01*
X72237619Y-77685238D01*
X72332857Y-77780476D01*
X72428095Y-77828095D01*
X71237619Y-77542380D02*
X71142380Y-77542380D01*
X71047142Y-77590000D01*
X70999523Y-77637619D01*
X70951904Y-77732857D01*
X70904285Y-77923333D01*
X70904285Y-78161428D01*
X70951904Y-78351904D01*
X70999523Y-78447142D01*
X71047142Y-78494761D01*
X71142380Y-78542380D01*
X71237619Y-78542380D01*
X71332857Y-78494761D01*
X71380476Y-78447142D01*
X71428095Y-78351904D01*
X71475714Y-78161428D01*
X71475714Y-77923333D01*
X71428095Y-77732857D01*
X71380476Y-77637619D01*
X71332857Y-77590000D01*
X71237619Y-77542380D01*
X70570952Y-77542380D02*
X69904285Y-77542380D01*
X70332857Y-78542380D01*
X69592380Y-109560952D02*
X69592380Y-109751428D01*
X69640000Y-109846666D01*
X69735238Y-109941904D01*
X69925714Y-109989523D01*
X70259047Y-109989523D01*
X70449523Y-109941904D01*
X70544761Y-109846666D01*
X70592380Y-109751428D01*
X70592380Y-109560952D01*
X70544761Y-109465714D01*
X70449523Y-109370476D01*
X70259047Y-109322857D01*
X69925714Y-109322857D01*
X69735238Y-109370476D01*
X69640000Y-109465714D01*
X69592380Y-109560952D01*
X69592380Y-110418095D02*
X70401904Y-110418095D01*
X70497142Y-110465714D01*
X70544761Y-110513333D01*
X70592380Y-110608571D01*
X70592380Y-110799047D01*
X70544761Y-110894285D01*
X70497142Y-110941904D01*
X70401904Y-110989523D01*
X69592380Y-110989523D01*
X69592380Y-111322857D02*
X69592380Y-111894285D01*
X70592380Y-111608571D02*
X69592380Y-111608571D01*
X70211428Y-112227619D02*
X70211428Y-112989523D01*
X70592380Y-112608571D02*
X69830476Y-112608571D01*
X70592380Y-70037142D02*
X69592380Y-70037142D01*
X70592380Y-70513333D02*
X69592380Y-70513333D01*
X70592380Y-71084761D01*
X69592380Y-71084761D01*
X70211428Y-71560952D02*
X70211428Y-72322857D01*
X70592380Y-71941904D02*
X69830476Y-71941904D01*
X83592380Y-109560952D02*
X83592380Y-109751428D01*
X83640000Y-109846666D01*
X83735238Y-109941904D01*
X83925714Y-109989523D01*
X84259047Y-109989523D01*
X84449523Y-109941904D01*
X84544761Y-109846666D01*
X84592380Y-109751428D01*
X84592380Y-109560952D01*
X84544761Y-109465714D01*
X84449523Y-109370476D01*
X84259047Y-109322857D01*
X83925714Y-109322857D01*
X83735238Y-109370476D01*
X83640000Y-109465714D01*
X83592380Y-109560952D01*
X83592380Y-110418095D02*
X84401904Y-110418095D01*
X84497142Y-110465714D01*
X84544761Y-110513333D01*
X84592380Y-110608571D01*
X84592380Y-110799047D01*
X84544761Y-110894285D01*
X84497142Y-110941904D01*
X84401904Y-110989523D01*
X83592380Y-110989523D01*
X83592380Y-111322857D02*
X83592380Y-111894285D01*
X84592380Y-111608571D02*
X83592380Y-111608571D01*
X84211428Y-112227619D02*
X84211428Y-112989523D01*
X84592380Y-112608571D02*
X83830476Y-112608571D01*
X84592380Y-70037142D02*
X83592380Y-70037142D01*
X84592380Y-70513333D02*
X83592380Y-70513333D01*
X84592380Y-71084761D01*
X83592380Y-71084761D01*
X84211428Y-71560952D02*
X84211428Y-72322857D01*
X39899047Y-91707142D02*
X39946666Y-91754761D01*
X40089523Y-91802380D01*
X40184761Y-91802380D01*
X40327619Y-91754761D01*
X40422857Y-91659523D01*
X40470476Y-91564285D01*
X40518095Y-91373809D01*
X40518095Y-91230952D01*
X40470476Y-91040476D01*
X40422857Y-90945238D01*
X40327619Y-90850000D01*
X40184761Y-90802380D01*
X40089523Y-90802380D01*
X39946666Y-90850000D01*
X39899047Y-90897619D01*
X38946666Y-91802380D02*
X39518095Y-91802380D01*
X39232380Y-91802380D02*
X39232380Y-90802380D01*
X39327619Y-90945238D01*
X39422857Y-91040476D01*
X39518095Y-91088095D01*
X38327619Y-90802380D02*
X38232380Y-90802380D01*
X38137142Y-90850000D01*
X38089523Y-90897619D01*
X38041904Y-90992857D01*
X37994285Y-91183333D01*
X37994285Y-91421428D01*
X38041904Y-91611904D01*
X38089523Y-91707142D01*
X38137142Y-91754761D01*
X38232380Y-91802380D01*
X38327619Y-91802380D01*
X38422857Y-91754761D01*
X38470476Y-91707142D01*
X38518095Y-91611904D01*
X38565714Y-91421428D01*
X38565714Y-91183333D01*
X38518095Y-90992857D01*
X38470476Y-90897619D01*
X38422857Y-90850000D01*
X38327619Y-90802380D01*
X37518095Y-91802380D02*
X37327619Y-91802380D01*
X37232380Y-91754761D01*
X37184761Y-91707142D01*
X37089523Y-91564285D01*
X37041904Y-91373809D01*
X37041904Y-90992857D01*
X37089523Y-90897619D01*
X37137142Y-90850000D01*
X37232380Y-90802380D01*
X37422857Y-90802380D01*
X37518095Y-90850000D01*
X37565714Y-90897619D01*
X37613333Y-90992857D01*
X37613333Y-91230952D01*
X37565714Y-91326190D01*
X37518095Y-91373809D01*
X37422857Y-91421428D01*
X37232380Y-91421428D01*
X37137142Y-91373809D01*
X37089523Y-91326190D01*
X37041904Y-91230952D01*
D12*
X66070000Y-138390000D02*
X35870000Y-138390000D01*
X35870000Y-138390000D02*
X35870000Y-146090000D01*
X35870000Y-146090000D02*
X66070000Y-146090000D01*
X66070000Y-146090000D02*
X66070000Y-138390000D01*
D15*
X133790000Y-127610000D02*
X133790000Y-146610000D01*
X71390000Y-127610000D02*
X133790000Y-127610000D01*
X71390000Y-146610000D02*
X71390000Y-127610000D01*
X133790000Y-146610000D02*
X71390000Y-146610000D01*
D16*
X40020000Y-32010000D02*
X21520000Y-32010000D01*
X21520000Y-32010000D02*
X21520000Y-52330000D01*
X40020000Y-32010000D02*
X40020000Y-52330000D01*
X21520000Y-52330000D02*
X40020000Y-52330000D01*
D12*
X38520000Y-52980000D02*
G75*
G03*
X38520000Y-52980000I-100000J0D01*
G01*
D15*
X32300000Y-96207064D02*
X32300000Y-95752936D01*
X30830000Y-96207064D02*
X30830000Y-95752936D01*
X74998748Y-80475000D02*
X75521252Y-80475000D01*
X74998748Y-79005000D02*
X75521252Y-79005000D01*
X71145000Y-85027064D02*
X71145000Y-84572936D01*
X69675000Y-85027064D02*
X69675000Y-84572936D01*
X34422064Y-92235000D02*
X33967936Y-92235000D01*
X34422064Y-93705000D02*
X33967936Y-93705000D01*
X51185000Y-93154564D02*
X51185000Y-92700436D01*
X49715000Y-93154564D02*
X49715000Y-92700436D01*
X146610000Y-33190000D02*
X146610000Y-95590000D01*
X146610000Y-95590000D02*
X127610000Y-95590000D01*
X127610000Y-33190000D02*
X146610000Y-33190000D01*
X127610000Y-95590000D02*
X127610000Y-33190000D01*
X73292936Y-83185000D02*
X73747064Y-83185000D01*
X73292936Y-81715000D02*
X73747064Y-81715000D01*
X65560000Y-69090000D02*
X44560000Y-69090000D01*
X44560000Y-69090000D02*
X44560000Y-113090000D01*
X44560000Y-113090000D02*
X65560000Y-113090000D01*
X65560000Y-69090000D02*
X65560000Y-113090000D01*
X52064564Y-87282500D02*
X51610436Y-87282500D01*
X52064564Y-85812500D02*
X51610436Y-85812500D01*
X22480000Y-69000000D02*
X22480000Y-113000000D01*
X22480000Y-113000000D02*
X43480000Y-113000000D01*
X43480000Y-69000000D02*
X43480000Y-113000000D01*
X43480000Y-69000000D02*
X22480000Y-69000000D01*
X55226248Y-87282500D02*
X55748752Y-87282500D01*
X55226248Y-85812500D02*
X55748752Y-85812500D01*
G36*
X140564386Y-100593509D02*
G01*
X140867141Y-100841224D01*
X140899400Y-100867618D01*
X141176105Y-101215745D01*
X141380099Y-101634270D01*
X141424571Y-101777940D01*
X141485233Y-102207513D01*
X141453430Y-102652025D01*
X141332937Y-103083958D01*
X141127528Y-103475790D01*
X141122015Y-103483866D01*
X140882295Y-103776259D01*
X140594801Y-104010362D01*
X140228193Y-104211824D01*
X140183002Y-104231711D01*
X139831023Y-104330868D01*
X139434267Y-104364337D01*
X139031772Y-104331611D01*
X138662577Y-104232183D01*
X138623445Y-104216320D01*
X138235708Y-103996534D01*
X137899088Y-103691399D01*
X137630616Y-103319591D01*
X137621285Y-103298219D01*
X138201365Y-103298219D01*
X138388540Y-103454480D01*
X138641123Y-103630852D01*
X139040497Y-103805390D01*
X139060073Y-103811146D01*
X139110786Y-103817981D01*
X139141784Y-103790799D01*
X139157920Y-103710436D01*
X139164044Y-103557726D01*
X139164616Y-103412588D01*
X139663467Y-103412588D01*
X139671565Y-103597945D01*
X139688990Y-103739325D01*
X139715948Y-103806311D01*
X139735972Y-103812902D01*
X139848184Y-103796907D01*
X140010950Y-103735067D01*
X140193639Y-103640569D01*
X140365623Y-103526600D01*
X140407782Y-103493195D01*
X140508269Y-103400408D01*
X140548449Y-103340937D01*
X140524023Y-103310476D01*
X140425531Y-103235503D01*
X140276662Y-103137046D01*
X140104672Y-103031656D01*
X139936818Y-102935885D01*
X139800356Y-102866285D01*
X139722544Y-102839407D01*
X139720193Y-102839710D01*
X139693059Y-102896814D01*
X139674422Y-103031606D01*
X139664489Y-103213669D01*
X139663467Y-103412588D01*
X139164616Y-103412588D01*
X139165007Y-103313506D01*
X139163501Y-103174270D01*
X139154980Y-102973456D01*
X139140619Y-102835407D01*
X139122347Y-102784069D01*
X139101219Y-102790776D01*
X138999297Y-102840529D01*
X138837832Y-102928200D01*
X138640526Y-103041144D01*
X138201365Y-103298219D01*
X137621285Y-103298219D01*
X137447328Y-102899784D01*
X137351861Y-102590387D01*
X136794447Y-102557245D01*
X136921193Y-103016518D01*
X137050696Y-103484107D01*
X137181194Y-103949848D01*
X137288536Y-104324842D01*
X137375529Y-104617918D01*
X137444978Y-104837907D01*
X137484913Y-104951579D01*
X137499689Y-104993638D01*
X137542469Y-105093943D01*
X137576123Y-105147650D01*
X137603457Y-105163590D01*
X137689641Y-105176556D01*
X137873539Y-105256733D01*
X138057218Y-105387880D01*
X138199977Y-105544040D01*
X138239464Y-105609825D01*
X138324362Y-105875681D01*
X138322442Y-106164036D01*
X138232340Y-106437220D01*
X138226041Y-106448580D01*
X138107572Y-106594903D01*
X137940410Y-106733331D01*
X137762645Y-106836775D01*
X137612364Y-106878148D01*
X137579834Y-106900201D01*
X137533105Y-106983023D01*
X137472675Y-107136186D01*
X137395269Y-107368951D01*
X137297611Y-107690576D01*
X137176425Y-108110322D01*
X137119853Y-108309166D01*
X137023381Y-108646743D01*
X136938558Y-108941647D01*
X136870004Y-109177922D01*
X136822333Y-109339611D01*
X136800163Y-109410758D01*
X136809902Y-109447531D01*
X136898689Y-109472372D01*
X137083923Y-109479930D01*
X137194572Y-109478683D01*
X137322740Y-109466464D01*
X137380651Y-109433701D01*
X137394201Y-109371330D01*
X137404405Y-109299384D01*
X137446024Y-109142079D01*
X137508783Y-108956483D01*
X137620689Y-108725605D01*
X138279974Y-108725605D01*
X138320886Y-108770421D01*
X138435146Y-108853773D01*
X138597677Y-108958978D01*
X138783307Y-109070401D01*
X138966862Y-109172405D01*
X139123171Y-109249356D01*
X139134421Y-109234717D01*
X139150170Y-109135243D01*
X139160987Y-108961888D01*
X139163229Y-108836748D01*
X139662888Y-108836748D01*
X139663552Y-109046393D01*
X139678817Y-109173316D01*
X139725019Y-109223423D01*
X139725386Y-109223821D01*
X139819960Y-109204208D01*
X139979244Y-109120780D01*
X140219939Y-108979837D01*
X140274259Y-108947963D01*
X140442197Y-108847266D01*
X140559606Y-108773493D01*
X140603787Y-108740783D01*
X140601238Y-108735632D01*
X140549337Y-108677261D01*
X140451608Y-108580178D01*
X140439388Y-108568814D01*
X140300314Y-108464851D01*
X140127342Y-108364812D01*
X139951742Y-108283395D01*
X139804786Y-108235300D01*
X139717746Y-108235226D01*
X139705888Y-108254484D01*
X139683921Y-108364048D01*
X139668724Y-108544757D01*
X139663046Y-108769726D01*
X139662888Y-108836748D01*
X139163229Y-108836748D01*
X139165007Y-108737482D01*
X139164270Y-108597495D01*
X139160130Y-108396598D01*
X139153161Y-108258510D01*
X139144296Y-108207163D01*
X139122720Y-108208363D01*
X138980586Y-108246539D01*
X138802109Y-108326129D01*
X138615047Y-108430483D01*
X138447164Y-108542948D01*
X138326219Y-108646872D01*
X138279974Y-108725605D01*
X137620689Y-108725605D01*
X137629523Y-108707379D01*
X137874609Y-108377153D01*
X137991834Y-108268654D01*
X138188131Y-108086969D01*
X138545628Y-107862637D01*
X138646298Y-107814122D01*
X138816923Y-107743129D01*
X138973975Y-107703153D01*
X139144296Y-107686947D01*
X139158829Y-107685564D01*
X139412863Y-107681730D01*
X139519972Y-107682278D01*
X139717746Y-107690042D01*
X139747001Y-107691191D01*
X139921784Y-107717733D01*
X140086718Y-107770483D01*
X140284199Y-107858017D01*
X140300131Y-107865631D01*
X140709621Y-108122134D01*
X140879570Y-108290172D01*
X141049176Y-108457870D01*
X141304914Y-108859220D01*
X141355228Y-108967021D01*
X141409905Y-109114078D01*
X141441289Y-109266763D01*
X141455576Y-109460060D01*
X141458961Y-109728949D01*
X141457715Y-109912250D01*
X141448036Y-110128542D01*
X141423473Y-110291723D01*
X141377831Y-110436775D01*
X141304914Y-110598679D01*
X141297257Y-110614237D01*
X141038094Y-111013755D01*
X140695856Y-111346520D01*
X140284199Y-111599150D01*
X140253388Y-111613576D01*
X140054808Y-111698278D01*
X139884051Y-111746765D01*
X139695039Y-111768553D01*
X139441696Y-111773161D01*
X139173752Y-111761096D01*
X138761564Y-111682241D01*
X138399611Y-111522447D01*
X138063955Y-111273022D01*
X138001778Y-111215848D01*
X137755836Y-110948150D01*
X137637126Y-110755297D01*
X138279604Y-110755297D01*
X138287121Y-110776714D01*
X138365576Y-110855182D01*
X138507006Y-110955103D01*
X138683566Y-111060549D01*
X138867413Y-111155589D01*
X139030704Y-111224294D01*
X139145596Y-111250736D01*
X139150718Y-111231887D01*
X139158072Y-111125912D01*
X139163127Y-110947477D01*
X139164124Y-110827100D01*
X139662923Y-110827100D01*
X139671031Y-111012675D01*
X139688882Y-111154458D01*
X139716736Y-111222049D01*
X139757969Y-111225807D01*
X139880479Y-111198134D01*
X140042256Y-111138292D01*
X140133521Y-111094652D01*
X140320035Y-110982562D01*
X140458811Y-110870295D01*
X140603534Y-110719236D01*
X140195263Y-110486947D01*
X140126920Y-110448548D01*
X139941678Y-110349544D01*
X139798892Y-110280557D01*
X139725019Y-110254658D01*
X139722713Y-110254928D01*
X139694453Y-110311648D01*
X139674894Y-110446185D01*
X139664297Y-110628136D01*
X139662923Y-110827100D01*
X139164124Y-110827100D01*
X139165007Y-110720515D01*
X139165007Y-110190293D01*
X138985160Y-110298198D01*
X138914832Y-110340042D01*
X138732144Y-110447201D01*
X138542458Y-110556989D01*
X138437313Y-110621329D01*
X138323725Y-110703753D01*
X138279604Y-110755297D01*
X137637126Y-110755297D01*
X137580757Y-110663722D01*
X137448464Y-110319050D01*
X137351649Y-110005638D01*
X136902555Y-109989565D01*
X136453460Y-109973493D01*
X136452645Y-112811788D01*
X136452616Y-112892161D01*
X136451906Y-113530227D01*
X136450195Y-114067422D01*
X136447244Y-114512536D01*
X136442814Y-114874360D01*
X136436666Y-115161682D01*
X136428562Y-115383294D01*
X136418263Y-115547984D01*
X136405530Y-115664543D01*
X136390125Y-115741760D01*
X136371808Y-115788427D01*
X136309122Y-115899256D01*
X136253314Y-116003016D01*
X136250055Y-116014857D01*
X136266366Y-116117581D01*
X136325301Y-116284657D01*
X136417946Y-116489731D01*
X136621052Y-116900201D01*
X136986394Y-116883856D01*
X137351737Y-116867512D01*
X137448508Y-116554099D01*
X137584976Y-116200669D01*
X137608956Y-116162291D01*
X138217656Y-116162291D01*
X138661084Y-116418060D01*
X138765573Y-116477845D01*
X138945922Y-116578471D01*
X139076627Y-116647927D01*
X139134760Y-116673830D01*
X139142713Y-116655141D01*
X139154187Y-116549399D01*
X139162074Y-116371167D01*
X139163930Y-116227639D01*
X139662869Y-116227639D01*
X139663418Y-116448890D01*
X139678545Y-116583133D01*
X139690715Y-116597406D01*
X139725004Y-116637621D01*
X139819552Y-116619608D01*
X139978945Y-116536346D01*
X140219939Y-116395088D01*
X140273880Y-116363383D01*
X140441998Y-116261630D01*
X140559549Y-116185873D01*
X140603787Y-116150600D01*
X140566998Y-116099018D01*
X140461825Y-116008226D01*
X140316828Y-115901690D01*
X140160852Y-115800500D01*
X140022741Y-115725748D01*
X139912276Y-115676362D01*
X139790959Y-115635193D01*
X139717225Y-115648269D01*
X139679227Y-115729697D01*
X139665117Y-115893586D01*
X139663046Y-116154042D01*
X139662869Y-116227639D01*
X139163930Y-116227639D01*
X139165007Y-116144392D01*
X139164973Y-116061980D01*
X139162983Y-115846634D01*
X139154392Y-115717114D01*
X139134348Y-115654217D01*
X139098000Y-115638739D01*
X139040497Y-115651476D01*
X138946681Y-115682452D01*
X138709258Y-115785680D01*
X138492889Y-115909749D01*
X138340823Y-116031186D01*
X138217656Y-116162291D01*
X137608956Y-116162291D01*
X137768266Y-115907324D01*
X137994059Y-115666530D01*
X138025449Y-115633055D01*
X138321596Y-115404130D01*
X138723507Y-115204953D01*
X139098000Y-115112857D01*
X139145757Y-115101112D01*
X139574067Y-115089644D01*
X139790959Y-115129884D01*
X139994155Y-115167583D01*
X140391739Y-115331966D01*
X140752539Y-115579829D01*
X140819609Y-115650936D01*
X141062273Y-115908206D01*
X141306661Y-116314135D01*
X141319602Y-116342120D01*
X141393236Y-116521385D01*
X141436303Y-116687319D01*
X141456499Y-116881174D01*
X141461521Y-117144200D01*
X141461120Y-117241442D01*
X141452724Y-117471305D01*
X141427031Y-117646728D01*
X141375671Y-117809632D01*
X141290276Y-118001934D01*
X141283017Y-118017042D01*
X141024353Y-118429277D01*
X140686343Y-118764579D01*
X140271761Y-119020174D01*
X140199702Y-119053850D01*
X140022482Y-119126406D01*
X139860378Y-119167829D01*
X139671517Y-119186438D01*
X139414027Y-119190549D01*
X139407982Y-119190540D01*
X139143399Y-119184622D01*
X138947882Y-119163049D01*
X138780904Y-119118487D01*
X138601938Y-119043604D01*
X138549586Y-119018331D01*
X138161124Y-118770454D01*
X137833479Y-118452534D01*
X137641975Y-118170389D01*
X138279604Y-118170389D01*
X138280719Y-118178965D01*
X138339687Y-118257160D01*
X138467979Y-118359142D01*
X138637271Y-118467965D01*
X138819237Y-118566678D01*
X138985553Y-118638335D01*
X139107892Y-118665986D01*
X139117661Y-118660470D01*
X139143048Y-118574932D01*
X139155277Y-118440023D01*
X139670460Y-118440023D01*
X139674972Y-118587604D01*
X139684838Y-118650886D01*
X139711647Y-118660132D01*
X139821133Y-118640735D01*
X139979396Y-118580329D01*
X140156556Y-118491316D01*
X140322730Y-118386101D01*
X140401719Y-118325506D01*
X140507144Y-118229936D01*
X140548449Y-118169484D01*
X140538667Y-118152542D01*
X140456822Y-118083630D01*
X140309863Y-117983551D01*
X140119582Y-117867644D01*
X139690715Y-117618910D01*
X139674711Y-118121832D01*
X139671806Y-118234409D01*
X139670460Y-118440023D01*
X139155277Y-118440023D01*
X139159288Y-118395777D01*
X139165007Y-118135765D01*
X139165007Y-117605544D01*
X138985160Y-117713449D01*
X138914832Y-117755293D01*
X138732144Y-117862452D01*
X138542458Y-117972240D01*
X138437305Y-118036571D01*
X138323723Y-118118935D01*
X138279604Y-118170389D01*
X137641975Y-118170389D01*
X137583005Y-118083508D01*
X137426057Y-117682306D01*
X137359437Y-117420888D01*
X136564354Y-117405473D01*
X136475790Y-117403632D01*
X136152976Y-117392982D01*
X135922416Y-117375033D01*
X135769145Y-117345696D01*
X135678195Y-117300886D01*
X135634601Y-117236513D01*
X135623395Y-117148492D01*
X135635311Y-117061534D01*
X135664983Y-117020214D01*
X137902014Y-117020214D01*
X137903606Y-117219038D01*
X137914248Y-117412601D01*
X137932806Y-117565814D01*
X137958147Y-117643586D01*
X137980221Y-117644295D01*
X138081789Y-117607127D01*
X138242893Y-117528964D01*
X138440711Y-117420362D01*
X138550954Y-117356472D01*
X138724059Y-117254701D01*
X138843059Y-117182753D01*
X138878730Y-117158739D01*
X140010838Y-117158739D01*
X140017068Y-117171884D01*
X140091577Y-117233915D01*
X140232804Y-117328089D01*
X140419480Y-117439779D01*
X140607188Y-117543376D01*
X140754995Y-117612265D01*
X140842575Y-117631042D01*
X140887072Y-117605792D01*
X140910324Y-117520207D01*
X140926356Y-117356798D01*
X140932946Y-117155420D01*
X140929833Y-116953112D01*
X140916759Y-116786908D01*
X140893463Y-116693846D01*
X140890806Y-116690418D01*
X140819609Y-116686171D01*
X140670035Y-116746929D01*
X140437774Y-116874398D01*
X140358630Y-116921458D01*
X140184443Y-117029977D01*
X140060921Y-117114127D01*
X140010838Y-117158739D01*
X138878730Y-117158739D01*
X138886971Y-117153191D01*
X138871847Y-117142617D01*
X138781195Y-117088529D01*
X138627002Y-116999734D01*
X138430435Y-116888504D01*
X138388650Y-116865049D01*
X138190916Y-116756096D01*
X138066023Y-116695628D01*
X137994059Y-116678146D01*
X137955115Y-116698156D01*
X137929278Y-116750159D01*
X137910607Y-116851221D01*
X137902014Y-117020214D01*
X135664983Y-117020214D01*
X135723121Y-116939254D01*
X135883482Y-116895180D01*
X135927290Y-116894201D01*
X135987672Y-116878056D01*
X135997091Y-116826263D01*
X135954081Y-116718760D01*
X135857174Y-116535485D01*
X135706175Y-116258797D01*
X134571866Y-116231128D01*
X134432238Y-116227599D01*
X134068385Y-116216462D01*
X133795142Y-116203855D01*
X133597350Y-116188326D01*
X133459849Y-116168420D01*
X133367480Y-116142685D01*
X133305084Y-116109665D01*
X133119813Y-115934055D01*
X133004364Y-115697475D01*
X132967550Y-115393593D01*
X132966326Y-115297725D01*
X132951458Y-115149194D01*
X132909748Y-115058939D01*
X132828842Y-114991119D01*
X132807533Y-114976334D01*
X132706767Y-114852741D01*
X132713870Y-114717161D01*
X132828842Y-114580884D01*
X132862386Y-114551922D01*
X132954491Y-114403539D01*
X132940407Y-114246539D01*
X132820439Y-114098448D01*
X132764669Y-114050130D01*
X132702689Y-113952018D01*
X132712284Y-113827676D01*
X132766755Y-113716350D01*
X132859030Y-113645632D01*
X132940750Y-113589685D01*
X132968394Y-113475682D01*
X132927334Y-113339422D01*
X132820439Y-113213045D01*
X132775121Y-113174394D01*
X132704555Y-113072971D01*
X132709892Y-112951800D01*
X132760551Y-112849014D01*
X132856639Y-112772482D01*
X132941780Y-112705443D01*
X132967186Y-112563253D01*
X132964108Y-112471630D01*
X132943370Y-112429513D01*
X132891747Y-112470141D01*
X132870644Y-112498410D01*
X132795429Y-112613472D01*
X132677784Y-112801300D01*
X132525398Y-113049024D01*
X132345961Y-113343773D01*
X132147161Y-113672677D01*
X131936687Y-114022866D01*
X131722229Y-114381470D01*
X131511475Y-114735617D01*
X131312115Y-115072437D01*
X131131838Y-115379060D01*
X130978332Y-115642616D01*
X130859288Y-115850234D01*
X130782394Y-115989044D01*
X130755339Y-116046174D01*
X130765502Y-116067970D01*
X130832525Y-116166982D01*
X130953562Y-116331290D01*
X131118475Y-116548151D01*
X131317124Y-116804827D01*
X131539371Y-117088576D01*
X131775078Y-117386657D01*
X132014104Y-117686331D01*
X132246313Y-117974856D01*
X132461564Y-118239492D01*
X132649720Y-118467498D01*
X132800641Y-118646134D01*
X132904189Y-118762658D01*
X132950224Y-118804331D01*
X132953805Y-118803773D01*
X133024717Y-118760566D01*
X133157491Y-118658464D01*
X133334507Y-118511563D01*
X133538146Y-118333960D01*
X134065539Y-117863590D01*
X134069739Y-117571942D01*
X134073940Y-117280295D01*
X134288329Y-117389668D01*
X134501129Y-117528214D01*
X134738246Y-117782390D01*
X134902704Y-118088749D01*
X134992182Y-118427110D01*
X135004356Y-118777295D01*
X134936906Y-119119123D01*
X134787509Y-119432415D01*
X134553842Y-119696991D01*
X134416673Y-119800147D01*
X134068147Y-119972269D01*
X133695562Y-120048518D01*
X133318675Y-120028848D01*
X132957242Y-119913211D01*
X132631019Y-119701560D01*
X132626390Y-119697359D01*
X132552923Y-119616928D01*
X132420934Y-119460878D01*
X132238858Y-119239610D01*
X132015131Y-118963525D01*
X131758189Y-118643026D01*
X131476469Y-118288515D01*
X131178405Y-117910393D01*
X131060338Y-117759810D01*
X130717789Y-117319838D01*
X130439961Y-116957303D01*
X130222471Y-116666131D01*
X130060938Y-116440245D01*
X129950982Y-116273571D01*
X129888222Y-116160032D01*
X129868275Y-116093552D01*
X129874940Y-116064685D01*
X129931777Y-115936146D01*
X130045489Y-115717620D01*
X130214663Y-115411599D01*
X130437887Y-115020573D01*
X130713749Y-114547032D01*
X131040834Y-113993465D01*
X131417730Y-113362365D01*
X132967186Y-110779352D01*
X132967186Y-109867294D01*
X130366314Y-109867294D01*
X130366314Y-110139456D01*
X130364656Y-110227114D01*
X130352336Y-110394605D01*
X130331940Y-110501198D01*
X130303626Y-110547583D01*
X130182043Y-110646238D01*
X130014867Y-110722258D01*
X129846400Y-110752697D01*
X129708352Y-110752697D01*
X129843651Y-111058632D01*
X129864768Y-111106779D01*
X129942857Y-111303152D01*
X129971841Y-111433950D01*
X129954094Y-111526087D01*
X129891991Y-111606478D01*
X129885605Y-111612490D01*
X129826438Y-111646215D01*
X129726556Y-111669453D01*
X129568483Y-111683923D01*
X129334744Y-111691345D01*
X129007864Y-111693437D01*
X128860693Y-111693363D01*
X128590604Y-111691656D01*
X128404376Y-111685520D01*
X128283276Y-111672134D01*
X128208574Y-111648677D01*
X128161540Y-111612330D01*
X128123443Y-111560273D01*
X128122745Y-111559206D01*
X128078757Y-111478322D01*
X128070026Y-111397900D01*
X128100203Y-111284263D01*
X128172939Y-111103737D01*
X128309687Y-110780366D01*
X128109878Y-110745835D01*
X127947342Y-110688677D01*
X127782418Y-110562902D01*
X127774997Y-110554209D01*
X127726749Y-110489535D01*
X127693468Y-110415806D01*
X127672392Y-110312701D01*
X127660759Y-110159896D01*
X127655805Y-109937067D01*
X127654768Y-109623892D01*
X127654841Y-109603777D01*
X137902023Y-109603777D01*
X137903594Y-109803240D01*
X137914223Y-109997148D01*
X137932783Y-110150511D01*
X137958147Y-110228335D01*
X137980221Y-110229045D01*
X138081789Y-110191877D01*
X138242893Y-110113713D01*
X138440711Y-110005112D01*
X138550886Y-109941277D01*
X138724210Y-109839479D01*
X138843543Y-109767511D01*
X138844244Y-109767043D01*
X140038700Y-109767043D01*
X140079197Y-109799830D01*
X140197195Y-109878019D01*
X140356539Y-109974101D01*
X140530146Y-110072833D01*
X140690935Y-110158974D01*
X140811824Y-110217281D01*
X140865730Y-110232511D01*
X140871297Y-110223949D01*
X140902238Y-110137250D01*
X140939332Y-109996188D01*
X140975677Y-109799863D01*
X140976911Y-109602029D01*
X140930370Y-109387447D01*
X140879570Y-109211958D01*
X140434023Y-109464389D01*
X140349940Y-109513154D01*
X140167593Y-109629927D01*
X140059643Y-109717774D01*
X140038700Y-109767043D01*
X138844244Y-109767043D01*
X138887849Y-109737941D01*
X138872520Y-109726996D01*
X138781785Y-109672079D01*
X138627714Y-109582200D01*
X138431313Y-109469702D01*
X138374174Y-109437251D01*
X138181824Y-109330159D01*
X138060986Y-109271488D01*
X137991834Y-109255773D01*
X137954540Y-109277550D01*
X137929278Y-109331358D01*
X137910635Y-109433752D01*
X137902023Y-109603777D01*
X127654841Y-109603777D01*
X127655760Y-109349016D01*
X127661127Y-109105874D01*
X127673739Y-108931225D01*
X127696444Y-108802184D01*
X127732090Y-108695869D01*
X127783526Y-108589396D01*
X127825663Y-108519461D01*
X127976920Y-108332090D01*
X128147883Y-108179494D01*
X128218502Y-108131531D01*
X128336067Y-108067502D01*
X128464386Y-108028783D01*
X128636766Y-108007001D01*
X128886515Y-107993780D01*
X128969634Y-107991429D01*
X129223150Y-107994221D01*
X129446165Y-108010134D01*
X129598748Y-108036758D01*
X129780772Y-108111457D01*
X130045613Y-108308120D01*
X130245976Y-108577302D01*
X130364006Y-108898884D01*
X130398520Y-109064897D01*
X132939517Y-109064897D01*
X132955515Y-108871215D01*
X132953318Y-108815881D01*
X132933432Y-108730149D01*
X132890916Y-108611064D01*
X132821441Y-108449505D01*
X132720680Y-108236352D01*
X132584302Y-107962483D01*
X132407981Y-107618778D01*
X132187387Y-107196116D01*
X131918193Y-106685376D01*
X131676035Y-106224106D01*
X131445143Y-105777044D01*
X131247077Y-105385539D01*
X131085914Y-105057889D01*
X130965732Y-104802391D01*
X130890605Y-104627342D01*
X130864613Y-104541041D01*
X130864541Y-104524931D01*
X130856184Y-104447480D01*
X130815422Y-104406949D01*
X130716166Y-104391393D01*
X130532327Y-104388862D01*
X130200301Y-104388862D01*
X130200301Y-104578592D01*
X130194274Y-104682712D01*
X130149606Y-104811702D01*
X130046910Y-104891088D01*
X129869167Y-104931168D01*
X129599359Y-104942239D01*
X129570783Y-104942074D01*
X129186475Y-104901589D01*
X128878851Y-104792465D01*
X128652969Y-104618503D01*
X128513890Y-104383504D01*
X128466673Y-104091270D01*
X128494477Y-103847103D01*
X128606912Y-103601774D01*
X128807411Y-103420087D01*
X129097845Y-103300471D01*
X129480089Y-103241356D01*
X129727387Y-103232643D01*
X129954675Y-103255231D01*
X130100195Y-103321849D01*
X130177540Y-103439555D01*
X130200301Y-103615410D01*
X130200301Y-103835485D01*
X130864354Y-103835485D01*
X130864354Y-103632326D01*
X130865392Y-103583302D01*
X130899068Y-103409921D01*
X130991956Y-103300438D01*
X131159910Y-103243255D01*
X131418789Y-103226771D01*
X131790058Y-103226771D01*
X131884175Y-102980330D01*
X131897347Y-102947450D01*
X132071567Y-102668271D01*
X132324593Y-102463089D01*
X132646589Y-102340165D01*
X132774962Y-102318951D01*
X133023017Y-102297937D01*
X133324259Y-102287624D01*
X133655301Y-102287294D01*
X133992754Y-102296233D01*
X134313230Y-102313724D01*
X134593341Y-102339051D01*
X134809699Y-102371498D01*
X134938917Y-102410349D01*
X135114082Y-102533648D01*
X135321283Y-102763487D01*
X135462707Y-103026979D01*
X135510608Y-103133369D01*
X135594832Y-103208263D01*
X135745093Y-103243366D01*
X135862781Y-103266166D01*
X136128142Y-103387733D01*
X136328180Y-103598560D01*
X136336058Y-103611258D01*
X136358431Y-103659293D01*
X136377132Y-103726831D01*
X136392653Y-103824001D01*
X136405484Y-103960933D01*
X136416116Y-104147759D01*
X136425039Y-104394607D01*
X136432744Y-104711608D01*
X136439723Y-105108891D01*
X136446464Y-105596588D01*
X136453460Y-106184827D01*
X136481129Y-108622196D01*
X137014681Y-106766012D01*
X136877170Y-106602590D01*
X136848752Y-106567561D01*
X136691908Y-106289859D01*
X136646772Y-106021324D01*
X137172850Y-106021324D01*
X137209772Y-106163907D01*
X137319039Y-106275589D01*
X137467879Y-106326265D01*
X137622911Y-106305458D01*
X137750758Y-106202693D01*
X137807577Y-106106982D01*
X137836903Y-106021324D01*
X137815372Y-105952079D01*
X137750758Y-105839955D01*
X137638618Y-105744153D01*
X137484913Y-105715002D01*
X137333798Y-105758463D01*
X137218650Y-105864063D01*
X137172850Y-106021324D01*
X136646772Y-106021324D01*
X136643800Y-106003641D01*
X136704454Y-105718480D01*
X136873897Y-105443948D01*
X137014697Y-105276617D01*
X136631972Y-103933502D01*
X136249248Y-102590387D01*
X136006579Y-102572748D01*
X135950061Y-102567766D01*
X135758128Y-102526105D01*
X135654465Y-102444949D01*
X135627741Y-102332059D01*
X137893088Y-102332059D01*
X137894034Y-102433912D01*
X137907361Y-102620810D01*
X137949444Y-102720095D01*
X138036645Y-102739148D01*
X138185328Y-102685350D01*
X138411854Y-102566082D01*
X138494742Y-102519955D01*
X138667893Y-102420803D01*
X138788019Y-102347947D01*
X138832981Y-102314606D01*
X138832394Y-102314115D01*
X139939735Y-102314115D01*
X139945228Y-102320214D01*
X140016545Y-102368379D01*
X140150069Y-102450096D01*
X140319995Y-102550435D01*
X140500518Y-102654465D01*
X140665833Y-102747257D01*
X140790138Y-102813881D01*
X140847627Y-102839407D01*
X140854313Y-102835219D01*
X140889933Y-102763781D01*
X140932904Y-102631891D01*
X140941621Y-102598156D01*
X140974448Y-102373008D01*
X140973393Y-102143843D01*
X140940911Y-101947818D01*
X140879451Y-101822088D01*
X140867141Y-101819818D01*
X140779428Y-101847038D01*
X140632810Y-101911750D01*
X140453673Y-102000139D01*
X140268409Y-102098387D01*
X140103405Y-102192677D01*
X139985050Y-102269192D01*
X139939735Y-102314115D01*
X138832394Y-102314115D01*
X138795853Y-102283558D01*
X138686304Y-102213846D01*
X138531306Y-102121934D01*
X138358215Y-102023373D01*
X138194391Y-101933717D01*
X138067192Y-101868518D01*
X138003975Y-101843329D01*
X138000558Y-101843441D01*
X137940071Y-101900512D01*
X137904347Y-102062944D01*
X137893088Y-102332059D01*
X135627741Y-102332059D01*
X135623395Y-102313699D01*
X135623920Y-102289614D01*
X135641156Y-102206135D01*
X135693885Y-102145824D01*
X135797140Y-102104489D01*
X135965951Y-102077939D01*
X136215352Y-102061981D01*
X136560374Y-102052426D01*
X137351478Y-102037010D01*
X137448379Y-101723598D01*
X137453528Y-101707081D01*
X137591215Y-101357455D01*
X137612159Y-101324576D01*
X138206878Y-101324576D01*
X138649303Y-101583953D01*
X138753588Y-101644496D01*
X138934854Y-101746582D01*
X139067517Y-101817048D01*
X139122347Y-101840729D01*
X139128367Y-101843329D01*
X139137837Y-101825411D01*
X139151815Y-101720794D01*
X139161430Y-101543519D01*
X139163255Y-101428260D01*
X139664549Y-101428260D01*
X139671670Y-101607850D01*
X139687104Y-101737891D01*
X139711060Y-101787991D01*
X139722512Y-101785475D01*
X139722544Y-101785461D01*
X139813383Y-101744941D01*
X139965742Y-101665167D01*
X140153762Y-101559483D01*
X140215317Y-101523374D01*
X140385292Y-101418061D01*
X140503885Y-101335976D01*
X140548449Y-101292441D01*
X140538932Y-101260584D01*
X140456187Y-101167678D01*
X140312519Y-101060222D01*
X140137384Y-100954971D01*
X139960240Y-100868677D01*
X139810542Y-100818094D01*
X139717746Y-100819975D01*
X139714993Y-100822201D01*
X139690963Y-100896090D01*
X139674405Y-101041990D01*
X139665531Y-101229510D01*
X139664549Y-101428260D01*
X139163255Y-101428260D01*
X139165007Y-101317620D01*
X139163224Y-101137563D01*
X139152484Y-100937296D01*
X139130576Y-100826697D01*
X139095835Y-100793128D01*
X139074902Y-100794988D01*
X138934616Y-100839239D01*
X138750561Y-100928020D01*
X138558805Y-101042284D01*
X138395419Y-101162985D01*
X138206878Y-101324576D01*
X137612159Y-101324576D01*
X137775214Y-101068604D01*
X138003975Y-100826586D01*
X138035093Y-100793665D01*
X138136466Y-100705928D01*
X138518841Y-100459917D01*
X138929333Y-100309642D01*
X139095835Y-100286814D01*
X139353538Y-100251483D01*
X139777051Y-100281821D01*
X139810542Y-100291269D01*
X140185468Y-100397036D01*
X140564386Y-100593509D01*
G37*
X37510000Y-95632936D02*
X37510000Y-96087064D01*
X36040000Y-95632936D02*
X36040000Y-96087064D01*
X53732500Y-89120436D02*
X53732500Y-89574564D01*
X52262500Y-89120436D02*
X52262500Y-89574564D01*
X71917064Y-80475000D02*
X71462936Y-80475000D01*
X71917064Y-79005000D02*
X71462936Y-79005000D01*
X87640000Y-69180000D02*
X87640000Y-113180000D01*
X66640000Y-69180000D02*
X66640000Y-113180000D01*
X87640000Y-69180000D02*
X66640000Y-69180000D01*
X66640000Y-113180000D02*
X87640000Y-113180000D01*
X37463748Y-93705000D02*
X37986252Y-93705000D01*
X37463748Y-92235000D02*
X37986252Y-92235000D01*
%LPC*%
D17*
X34980000Y-134770000D03*
D18*
X32440000Y-134770000D03*
D19*
X58350000Y-38123000D03*
D20*
X63850000Y-38123000D03*
D21*
X110235000Y-93480000D03*
D22*
X106485000Y-94330000D03*
X100135000Y-101830000D03*
D21*
X107135000Y-101330000D03*
D23*
X56016041Y-59420000D03*
D24*
X61016041Y-59420000D03*
D25*
X24375000Y-27000000D03*
X28856155Y-28856155D03*
D26*
X27000000Y-27000000D03*
D25*
X25143845Y-25143845D03*
X27000000Y-24375000D03*
X29625000Y-27000000D03*
X25143845Y-28856155D03*
X27000000Y-29625000D03*
X28856155Y-25143845D03*
D21*
X90295000Y-93500000D03*
D22*
X86545000Y-94350000D03*
X80195000Y-101850000D03*
D21*
X87195000Y-101350000D03*
D25*
X29625000Y-140000000D03*
X27000000Y-142625000D03*
X25143845Y-138143845D03*
X27000000Y-137375000D03*
X24375000Y-140000000D03*
X28856155Y-138143845D03*
D26*
X27000000Y-140000000D03*
D25*
X25143845Y-141856155D03*
X28856155Y-141856155D03*
X138143845Y-25143845D03*
X140000000Y-24375000D03*
X140000000Y-29625000D03*
X141856155Y-28856155D03*
D26*
X140000000Y-27000000D03*
D25*
X137375000Y-27000000D03*
X141856155Y-25143845D03*
X138143845Y-28856155D03*
X142625000Y-27000000D03*
D23*
X28246041Y-59420000D03*
D24*
X33246041Y-59420000D03*
D21*
X94880000Y-52090000D03*
D22*
X95730000Y-55840000D03*
X103230000Y-62190000D03*
D21*
X102730000Y-55190000D03*
X94735000Y-29345000D03*
D22*
X95585000Y-33095000D03*
X103085000Y-39445000D03*
D21*
X102585000Y-32445000D03*
D17*
X48410000Y-134770000D03*
D18*
X45870000Y-134770000D03*
D21*
X94885000Y-73380000D03*
D22*
X95735000Y-77130000D03*
X103235000Y-83480000D03*
D21*
X102735000Y-76480000D03*
D23*
X42256041Y-59420000D03*
D24*
X47256041Y-59420000D03*
D21*
X116970000Y-89805000D03*
D22*
X117820000Y-93555000D03*
X125320000Y-99905000D03*
D21*
X124820000Y-92905000D03*
D25*
X140000000Y-137375000D03*
X137375000Y-140000000D03*
X138143845Y-141856155D03*
X141856155Y-141856155D03*
X142625000Y-140000000D03*
X140000000Y-142625000D03*
X141856155Y-138143845D03*
D26*
X140000000Y-140000000D03*
D25*
X138143845Y-138143845D03*
D17*
X60750000Y-134770000D03*
D18*
X58210000Y-134770000D03*
D21*
X63470000Y-141990000D03*
X58470000Y-141990000D03*
X53470000Y-141990000D03*
X48470000Y-141990000D03*
X43470000Y-141990000D03*
X38470000Y-141990000D03*
D27*
X125980000Y-130000000D03*
X130000000Y-130000000D03*
D28*
X119840000Y-140160000D03*
X115820000Y-140160000D03*
X109680000Y-130000000D03*
X105660000Y-130000000D03*
X95500000Y-140160000D03*
X99520000Y-140160000D03*
X85340000Y-130000000D03*
X89360000Y-130000000D03*
X79200000Y-140160000D03*
X75180000Y-140160000D03*
D29*
X28260000Y-47250000D03*
X38420000Y-47250000D03*
D30*
X28260000Y-37090000D03*
X38420000Y-37090000D03*
D31*
X31565000Y-96892500D03*
X31565000Y-95067500D03*
D32*
X74310000Y-79740000D03*
X76210000Y-79740000D03*
D31*
X70410000Y-85712500D03*
X70410000Y-83887500D03*
D33*
X35107500Y-92970000D03*
X33282500Y-92970000D03*
D31*
X50450000Y-93840000D03*
X50450000Y-92015000D03*
D27*
X130000000Y-41000000D03*
X130000000Y-36980000D03*
D28*
X140160000Y-51160000D03*
X140160000Y-47140000D03*
X130000000Y-57300000D03*
X130000000Y-61320000D03*
X140160000Y-67460000D03*
X140160000Y-71480000D03*
X130000000Y-77620000D03*
X130000000Y-81640000D03*
X140160000Y-87780000D03*
X140160000Y-91800000D03*
D34*
X72607500Y-82450000D03*
X74432500Y-82450000D03*
D35*
X46260000Y-74090000D03*
X63860000Y-108090000D03*
D33*
X52750000Y-86547500D03*
X50925000Y-86547500D03*
D35*
X24180000Y-74000000D03*
X41780000Y-108000000D03*
D32*
X54537500Y-86547500D03*
X56437500Y-86547500D03*
D36*
X36775000Y-94947500D03*
X36775000Y-96772500D03*
X52997500Y-88435000D03*
X52997500Y-90260000D03*
D33*
X72602500Y-79740000D03*
X70777500Y-79740000D03*
D35*
X85940000Y-108180000D03*
X68340000Y-74180000D03*
D32*
X36775000Y-92970000D03*
X38675000Y-92970000D03*
M02*
