%FSLAX45Y45*%
G04 Gerber Fmt 4.5, Leading zero omitted, Abs format (unit mm)*
G04 Created by KiCad (PCBNEW (6.0.0)) date 2023-02-19 13:33:10*
%MOMM*%
%LPD*%
G01*
G04 APERTURE LIST*
%TA.AperFunction,Profile*%
%ADD10C,0.200000*%
%TD*%
%ADD11C,0.200000*%
G04 APERTURE END LIST*
D10*
X14700000Y-2000000D02*
X14700000Y-14700000D01*
X14700000Y-14700000D02*
X2000000Y-14700000D01*
X2000000Y-2000000D02*
X14700000Y-2000000D01*
X2000000Y-2000000D02*
X2000000Y-14700000D01*
D11*
X2247619Y-15020476D02*
X2247619Y-14820476D01*
X2295238Y-14820476D01*
X2323810Y-14830000D01*
X2342857Y-14849048D01*
X2352381Y-14868095D01*
X2361905Y-14906190D01*
X2361905Y-14934762D01*
X2352381Y-14972857D01*
X2342857Y-14991905D01*
X2323810Y-15010952D01*
X2295238Y-15020476D01*
X2247619Y-15020476D01*
X2447619Y-15020476D02*
X2447619Y-14887143D01*
X2447619Y-14925238D02*
X2457143Y-14906190D01*
X2466667Y-14896667D01*
X2485714Y-14887143D01*
X2504762Y-14887143D01*
X2571429Y-15020476D02*
X2571429Y-14887143D01*
X2571429Y-14820476D02*
X2561905Y-14830000D01*
X2571429Y-14839524D01*
X2580952Y-14830000D01*
X2571429Y-14820476D01*
X2571429Y-14839524D01*
X2695238Y-15020476D02*
X2676190Y-15010952D01*
X2666667Y-14991905D01*
X2666667Y-14820476D01*
X2800000Y-15020476D02*
X2780952Y-15010952D01*
X2771429Y-14991905D01*
X2771429Y-14820476D01*
X3028571Y-15020476D02*
X3028571Y-14820476D01*
X3095238Y-14963333D01*
X3161905Y-14820476D01*
X3161905Y-15020476D01*
X3342857Y-15020476D02*
X3342857Y-14915714D01*
X3333333Y-14896667D01*
X3314286Y-14887143D01*
X3276190Y-14887143D01*
X3257143Y-14896667D01*
X3342857Y-15010952D02*
X3323809Y-15020476D01*
X3276190Y-15020476D01*
X3257143Y-15010952D01*
X3247619Y-14991905D01*
X3247619Y-14972857D01*
X3257143Y-14953809D01*
X3276190Y-14944286D01*
X3323809Y-14944286D01*
X3342857Y-14934762D01*
X3438095Y-14887143D02*
X3438095Y-15087143D01*
X3438095Y-14896667D02*
X3457143Y-14887143D01*
X3495238Y-14887143D01*
X3514286Y-14896667D01*
X3523809Y-14906190D01*
X3533333Y-14925238D01*
X3533333Y-14982381D01*
X3523809Y-15001428D01*
X3514286Y-15010952D01*
X3495238Y-15020476D01*
X3457143Y-15020476D01*
X3438095Y-15010952D01*
X3619048Y-15001428D02*
X3628571Y-15010952D01*
X3619048Y-15020476D01*
X3609524Y-15010952D01*
X3619048Y-15001428D01*
X3619048Y-15020476D01*
X3619048Y-14896667D02*
X3628571Y-14906190D01*
X3619048Y-14915714D01*
X3609524Y-14906190D01*
X3619048Y-14896667D01*
X3619048Y-14915714D01*
M02*
