%TF.GenerationSoftware,KiCad,Pcbnew,(7.0.0-0)*%
%TF.CreationDate,2023-12-24T21:06:33+08:00*%
%TF.ProjectId,Arduino Shield,41726475-696e-46f2-9053-6869656c642e,rev?*%
%TF.SameCoordinates,Original*%
%TF.FileFunction,Drillmap*%
%TF.FilePolarity,Positive*%
%FSLAX45Y45*%
G04 Gerber Fmt 4.5, Leading zero omitted, Abs format (unit mm)*
G04 Created by KiCad (PCBNEW (7.0.0-0)) date 2023-12-24 21:06:33*
%MOMM*%
%LPD*%
G01*
G04 APERTURE LIST*
%ADD10C,0.100000*%
%ADD11C,0.200000*%
G04 APERTURE END LIST*
D10*
X4241800Y-4064000D02*
X4927600Y-4064000D01*
X4927600Y-4064000D02*
X4927600Y-5080000D01*
X4927600Y-5080000D02*
X4241800Y-5080000D01*
X4241800Y-5080000D02*
X4241800Y-4064000D01*
X2000000Y-2000000D02*
X13500000Y-2000000D01*
X13500000Y-2000000D02*
X13500000Y-9500000D01*
X13500000Y-9500000D02*
X2000000Y-9500000D01*
X2000000Y-9500000D02*
X2000000Y-2000000D01*
D11*
X2242619Y-9798476D02*
X2242619Y-9598476D01*
X2242619Y-9598476D02*
X2290238Y-9598476D01*
X2290238Y-9598476D02*
X2318810Y-9608000D01*
X2318810Y-9608000D02*
X2337857Y-9627048D01*
X2337857Y-9627048D02*
X2347381Y-9646095D01*
X2347381Y-9646095D02*
X2356905Y-9684190D01*
X2356905Y-9684190D02*
X2356905Y-9712762D01*
X2356905Y-9712762D02*
X2347381Y-9750857D01*
X2347381Y-9750857D02*
X2337857Y-9769905D01*
X2337857Y-9769905D02*
X2318810Y-9788952D01*
X2318810Y-9788952D02*
X2290238Y-9798476D01*
X2290238Y-9798476D02*
X2242619Y-9798476D01*
X2442619Y-9798476D02*
X2442619Y-9665143D01*
X2442619Y-9703238D02*
X2452143Y-9684190D01*
X2452143Y-9684190D02*
X2461667Y-9674667D01*
X2461667Y-9674667D02*
X2480714Y-9665143D01*
X2480714Y-9665143D02*
X2499762Y-9665143D01*
X2566429Y-9798476D02*
X2566429Y-9665143D01*
X2566429Y-9598476D02*
X2556905Y-9608000D01*
X2556905Y-9608000D02*
X2566429Y-9617524D01*
X2566429Y-9617524D02*
X2575952Y-9608000D01*
X2575952Y-9608000D02*
X2566429Y-9598476D01*
X2566429Y-9598476D02*
X2566429Y-9617524D01*
X2690238Y-9798476D02*
X2671190Y-9788952D01*
X2671190Y-9788952D02*
X2661667Y-9769905D01*
X2661667Y-9769905D02*
X2661667Y-9598476D01*
X2795000Y-9798476D02*
X2775952Y-9788952D01*
X2775952Y-9788952D02*
X2766429Y-9769905D01*
X2766429Y-9769905D02*
X2766429Y-9598476D01*
X2991190Y-9798476D02*
X2991190Y-9598476D01*
X2991190Y-9598476D02*
X3057857Y-9741333D01*
X3057857Y-9741333D02*
X3124524Y-9598476D01*
X3124524Y-9598476D02*
X3124524Y-9798476D01*
X3305476Y-9798476D02*
X3305476Y-9693714D01*
X3305476Y-9693714D02*
X3295952Y-9674667D01*
X3295952Y-9674667D02*
X3276905Y-9665143D01*
X3276905Y-9665143D02*
X3238809Y-9665143D01*
X3238809Y-9665143D02*
X3219762Y-9674667D01*
X3305476Y-9788952D02*
X3286428Y-9798476D01*
X3286428Y-9798476D02*
X3238809Y-9798476D01*
X3238809Y-9798476D02*
X3219762Y-9788952D01*
X3219762Y-9788952D02*
X3210238Y-9769905D01*
X3210238Y-9769905D02*
X3210238Y-9750857D01*
X3210238Y-9750857D02*
X3219762Y-9731810D01*
X3219762Y-9731810D02*
X3238809Y-9722286D01*
X3238809Y-9722286D02*
X3286428Y-9722286D01*
X3286428Y-9722286D02*
X3305476Y-9712762D01*
X3400714Y-9665143D02*
X3400714Y-9865143D01*
X3400714Y-9674667D02*
X3419762Y-9665143D01*
X3419762Y-9665143D02*
X3457857Y-9665143D01*
X3457857Y-9665143D02*
X3476905Y-9674667D01*
X3476905Y-9674667D02*
X3486428Y-9684190D01*
X3486428Y-9684190D02*
X3495952Y-9703238D01*
X3495952Y-9703238D02*
X3495952Y-9760381D01*
X3495952Y-9760381D02*
X3486428Y-9779429D01*
X3486428Y-9779429D02*
X3476905Y-9788952D01*
X3476905Y-9788952D02*
X3457857Y-9798476D01*
X3457857Y-9798476D02*
X3419762Y-9798476D01*
X3419762Y-9798476D02*
X3400714Y-9788952D01*
X3581667Y-9779429D02*
X3591190Y-9788952D01*
X3591190Y-9788952D02*
X3581667Y-9798476D01*
X3581667Y-9798476D02*
X3572143Y-9788952D01*
X3572143Y-9788952D02*
X3581667Y-9779429D01*
X3581667Y-9779429D02*
X3581667Y-9798476D01*
X3581667Y-9674667D02*
X3591190Y-9684190D01*
X3591190Y-9684190D02*
X3581667Y-9693714D01*
X3581667Y-9693714D02*
X3572143Y-9684190D01*
X3572143Y-9684190D02*
X3581667Y-9674667D01*
X3581667Y-9674667D02*
X3581667Y-9693714D01*
M02*
