G04 #@! TF.GenerationSoftware,KiCad,Pcbnew,(7.0.0-0)*
G04 #@! TF.CreationDate,2023-12-24T21:03:28+08:00*
G04 #@! TF.ProjectId,Arduino Shield,41726475-696e-46f2-9053-6869656c642e,rev?*
G04 #@! TF.SameCoordinates,Original*
G04 #@! TF.FileFunction,Legend,Bot*
G04 #@! TF.FilePolarity,Positive*
%FSLAX46Y46*%
G04 Gerber Fmt 4.6, Leading zero omitted, Abs format (unit mm)*
G04 Created by KiCad (PCBNEW (7.0.0-0)) date 2023-12-24 21:03:28*
%MOMM*%
%LPD*%
G01*
G04 APERTURE LIST*
%ADD10C,0.300000*%
%ADD11C,0.150000*%
%ADD12R,2.400000X2.400000*%
%ADD13C,2.400000*%
%ADD14O,1.727200X1.727200*%
%ADD15R,1.727200X1.727200*%
G04 APERTURE END LIST*
D10*
X133326285Y-92153571D02*
X133326285Y-93225000D01*
X133326285Y-93225000D02*
X133397714Y-93439285D01*
X133397714Y-93439285D02*
X133540571Y-93582142D01*
X133540571Y-93582142D02*
X133754857Y-93653571D01*
X133754857Y-93653571D02*
X133897714Y-93653571D01*
X131897714Y-93653571D02*
X132612000Y-93653571D01*
X132612000Y-93653571D02*
X132612000Y-92153571D01*
X130540571Y-93510714D02*
X130611999Y-93582142D01*
X130611999Y-93582142D02*
X130826285Y-93653571D01*
X130826285Y-93653571D02*
X130969142Y-93653571D01*
X130969142Y-93653571D02*
X131183428Y-93582142D01*
X131183428Y-93582142D02*
X131326285Y-93439285D01*
X131326285Y-93439285D02*
X131397714Y-93296428D01*
X131397714Y-93296428D02*
X131469142Y-93010714D01*
X131469142Y-93010714D02*
X131469142Y-92796428D01*
X131469142Y-92796428D02*
X131397714Y-92510714D01*
X131397714Y-92510714D02*
X131326285Y-92367857D01*
X131326285Y-92367857D02*
X131183428Y-92225000D01*
X131183428Y-92225000D02*
X130969142Y-92153571D01*
X130969142Y-92153571D02*
X130826285Y-92153571D01*
X130826285Y-92153571D02*
X130611999Y-92225000D01*
X130611999Y-92225000D02*
X130540571Y-92296428D01*
X129469142Y-92153571D02*
X129469142Y-93225000D01*
X129469142Y-93225000D02*
X129540571Y-93439285D01*
X129540571Y-93439285D02*
X129683428Y-93582142D01*
X129683428Y-93582142D02*
X129897714Y-93653571D01*
X129897714Y-93653571D02*
X130040571Y-93653571D01*
X128040571Y-93653571D02*
X128754857Y-93653571D01*
X128754857Y-93653571D02*
X128754857Y-92153571D01*
X126683428Y-93510714D02*
X126754856Y-93582142D01*
X126754856Y-93582142D02*
X126969142Y-93653571D01*
X126969142Y-93653571D02*
X127111999Y-93653571D01*
X127111999Y-93653571D02*
X127326285Y-93582142D01*
X127326285Y-93582142D02*
X127469142Y-93439285D01*
X127469142Y-93439285D02*
X127540571Y-93296428D01*
X127540571Y-93296428D02*
X127611999Y-93010714D01*
X127611999Y-93010714D02*
X127611999Y-92796428D01*
X127611999Y-92796428D02*
X127540571Y-92510714D01*
X127540571Y-92510714D02*
X127469142Y-92367857D01*
X127469142Y-92367857D02*
X127326285Y-92225000D01*
X127326285Y-92225000D02*
X127111999Y-92153571D01*
X127111999Y-92153571D02*
X126969142Y-92153571D01*
X126969142Y-92153571D02*
X126754856Y-92225000D01*
X126754856Y-92225000D02*
X126683428Y-92296428D01*
X125611999Y-92153571D02*
X125611999Y-93225000D01*
X125611999Y-93225000D02*
X125683428Y-93439285D01*
X125683428Y-93439285D02*
X125826285Y-93582142D01*
X125826285Y-93582142D02*
X126040571Y-93653571D01*
X126040571Y-93653571D02*
X126183428Y-93653571D01*
X124183428Y-93653571D02*
X124897714Y-93653571D01*
X124897714Y-93653571D02*
X124897714Y-92153571D01*
X122826285Y-93510714D02*
X122897713Y-93582142D01*
X122897713Y-93582142D02*
X123111999Y-93653571D01*
X123111999Y-93653571D02*
X123254856Y-93653571D01*
X123254856Y-93653571D02*
X123469142Y-93582142D01*
X123469142Y-93582142D02*
X123611999Y-93439285D01*
X123611999Y-93439285D02*
X123683428Y-93296428D01*
X123683428Y-93296428D02*
X123754856Y-93010714D01*
X123754856Y-93010714D02*
X123754856Y-92796428D01*
X123754856Y-92796428D02*
X123683428Y-92510714D01*
X123683428Y-92510714D02*
X123611999Y-92367857D01*
X123611999Y-92367857D02*
X123469142Y-92225000D01*
X123469142Y-92225000D02*
X123254856Y-92153571D01*
X123254856Y-92153571D02*
X123111999Y-92153571D01*
X123111999Y-92153571D02*
X122897713Y-92225000D01*
X122897713Y-92225000D02*
X122826285Y-92296428D01*
X121754856Y-92153571D02*
X121754856Y-93225000D01*
X121754856Y-93225000D02*
X121826285Y-93439285D01*
X121826285Y-93439285D02*
X121969142Y-93582142D01*
X121969142Y-93582142D02*
X122183428Y-93653571D01*
X122183428Y-93653571D02*
X122326285Y-93653571D01*
X120326285Y-93653571D02*
X121040571Y-93653571D01*
X121040571Y-93653571D02*
X121040571Y-92153571D01*
X118969142Y-93510714D02*
X119040570Y-93582142D01*
X119040570Y-93582142D02*
X119254856Y-93653571D01*
X119254856Y-93653571D02*
X119397713Y-93653571D01*
X119397713Y-93653571D02*
X119611999Y-93582142D01*
X119611999Y-93582142D02*
X119754856Y-93439285D01*
X119754856Y-93439285D02*
X119826285Y-93296428D01*
X119826285Y-93296428D02*
X119897713Y-93010714D01*
X119897713Y-93010714D02*
X119897713Y-92796428D01*
X119897713Y-92796428D02*
X119826285Y-92510714D01*
X119826285Y-92510714D02*
X119754856Y-92367857D01*
X119754856Y-92367857D02*
X119611999Y-92225000D01*
X119611999Y-92225000D02*
X119397713Y-92153571D01*
X119397713Y-92153571D02*
X119254856Y-92153571D01*
X119254856Y-92153571D02*
X119040570Y-92225000D01*
X119040570Y-92225000D02*
X118969142Y-92296428D01*
D11*
X85024000Y-52368142D02*
X85071619Y-52415761D01*
X85071619Y-52415761D02*
X85024000Y-52463380D01*
X85024000Y-52463380D02*
X84976381Y-52415761D01*
X84976381Y-52415761D02*
X85024000Y-52368142D01*
X85024000Y-52368142D02*
X85024000Y-52463380D01*
X22540000Y-30760000D02*
X22540000Y-84100000D01*
X22540000Y-30760000D02*
X120076000Y-30760000D01*
X22540000Y-84100000D02*
X121600000Y-84100000D01*
X120076000Y-30760000D02*
X121600000Y-32284000D01*
X121600000Y-43460000D02*
X121600000Y-32284000D01*
X121600000Y-82830000D02*
X124140000Y-80290000D01*
X121600000Y-84100000D02*
X121600000Y-82830000D01*
X124140000Y-46000000D02*
X121600000Y-43460000D01*
X124140000Y-80290000D02*
X124140000Y-46000000D01*
%LPC*%
D12*
X117265999Y-90677999D03*
D13*
X113766000Y-90678000D03*
X110266000Y-90678000D03*
X106766000Y-90678000D03*
X103266000Y-90678000D03*
X99766000Y-90678000D03*
X96266000Y-90678000D03*
X92766000Y-90678000D03*
D12*
X25339999Y-24129999D03*
D13*
X28840000Y-24130000D03*
X32340000Y-24130000D03*
X35840000Y-24130000D03*
X39340000Y-24130000D03*
X42840000Y-24130000D03*
X46340000Y-24130000D03*
X49840000Y-24130000D03*
X53340000Y-24130000D03*
X56840000Y-24130000D03*
D12*
X130682999Y-58546999D03*
D13*
X130683000Y-62047000D03*
X130683000Y-65547000D03*
X130683000Y-69047000D03*
X130683000Y-72547000D03*
X130683000Y-76047000D03*
X130683000Y-79547000D03*
D12*
X63159999Y-24129999D03*
D13*
X66660000Y-24130000D03*
X70160000Y-24130000D03*
X73660000Y-24130000D03*
X77160000Y-24130000D03*
X80660000Y-24130000D03*
X84160000Y-24130000D03*
X87660000Y-24130000D03*
D12*
X93019999Y-24129999D03*
D13*
X96520000Y-24130000D03*
X100020000Y-24130000D03*
X103520000Y-24130000D03*
X107020000Y-24130000D03*
X110520000Y-24130000D03*
X114020000Y-24130000D03*
X117520000Y-24130000D03*
D12*
X75879999Y-67959999D03*
D13*
X75880000Y-64460000D03*
X75880000Y-60960000D03*
X75880000Y-57460000D03*
X75880000Y-53960000D03*
X75880000Y-50460000D03*
X75880000Y-46960000D03*
X75880000Y-43460000D03*
D12*
X57022999Y-90677999D03*
D13*
X53523000Y-90678000D03*
X50023000Y-90678000D03*
X46523000Y-90678000D03*
X43023000Y-90678000D03*
X39523000Y-90678000D03*
X36023000Y-90678000D03*
D12*
X130682999Y-28066999D03*
D13*
X130683000Y-31567000D03*
X130683000Y-35067000D03*
X130683000Y-38567000D03*
X130683000Y-42067000D03*
X130683000Y-45567000D03*
X130683000Y-49067000D03*
X130683000Y-52567000D03*
D12*
X87405999Y-90677999D03*
D13*
X83906000Y-90678000D03*
X80406000Y-90678000D03*
X76906000Y-90678000D03*
X73406000Y-90678000D03*
X69906000Y-90678000D03*
X66406000Y-90678000D03*
X62906000Y-90678000D03*
D14*
X50479999Y-81559999D03*
X86039999Y-33299999D03*
X83499999Y-33299999D03*
X80959999Y-33299999D03*
X78419999Y-33299999D03*
X58099999Y-81559999D03*
X75879999Y-33299999D03*
X73339999Y-33299999D03*
X88706999Y-53619999D03*
X60639999Y-81559999D03*
X116519999Y-33299999D03*
X119059999Y-33299999D03*
X70799999Y-33299999D03*
X68259999Y-33299999D03*
X64195999Y-33299999D03*
X61655999Y-33299999D03*
X59115999Y-33299999D03*
X56575999Y-33299999D03*
X54035999Y-33299999D03*
X51495999Y-33299999D03*
X91119999Y-33299999D03*
X93659999Y-33299999D03*
X96199999Y-33299999D03*
X98739999Y-33299999D03*
X101279999Y-33299999D03*
X103819999Y-33299999D03*
X106359999Y-33299999D03*
X108899999Y-33299999D03*
X116519999Y-35839999D03*
X119059999Y-35839999D03*
X116519999Y-38379999D03*
X119059999Y-38379999D03*
X116519999Y-40919999D03*
X119059999Y-40919999D03*
X116519999Y-43459999D03*
X119059999Y-43459999D03*
X116519999Y-45999999D03*
X119059999Y-45999999D03*
X116519999Y-48539999D03*
X119059999Y-48539999D03*
X116519999Y-51079999D03*
X119059999Y-51079999D03*
X116519999Y-53619999D03*
X119059999Y-53619999D03*
X116519999Y-56159999D03*
X119059999Y-56159999D03*
X116519999Y-58699999D03*
X119059999Y-58699999D03*
X116519999Y-61239999D03*
X119059999Y-61239999D03*
X116519999Y-63779999D03*
X119059999Y-63779999D03*
X116519999Y-66319999D03*
X119059999Y-66319999D03*
X116519999Y-68859999D03*
X119059999Y-68859999D03*
X116519999Y-71399999D03*
X119059999Y-71399999D03*
X116519999Y-73939999D03*
X119059999Y-73939999D03*
X73339999Y-81559999D03*
X75879999Y-81559999D03*
X78419999Y-81559999D03*
X80959999Y-81559999D03*
X83499999Y-81559999D03*
X86039999Y-81559999D03*
X88579999Y-81559999D03*
X91119999Y-81559999D03*
X96199999Y-81559999D03*
X98739999Y-81559999D03*
X101279999Y-81559999D03*
X103819999Y-81559999D03*
X46415999Y-33299999D03*
X111439999Y-81559999D03*
X113979999Y-81559999D03*
X106359999Y-81559999D03*
X108899999Y-81559999D03*
D15*
X63179999Y-81559999D03*
X65719999Y-81559999D03*
X48955999Y-33299999D03*
X88706999Y-58699999D03*
X116519999Y-76479999D03*
X119059999Y-76479999D03*
D14*
X53019999Y-81559999D03*
X86166999Y-53619999D03*
X88706999Y-56159999D03*
X55559999Y-81559999D03*
X86166999Y-58699999D03*
X86166999Y-56159999D03*
X41335999Y-33299999D03*
X43875999Y-33299999D03*
X68259999Y-81559999D03*
D12*
X63179999Y-68239999D03*
D13*
X63180000Y-64740000D03*
X63180000Y-61240000D03*
X63180000Y-57740000D03*
X63180000Y-54240000D03*
X63180000Y-50740000D03*
X63180000Y-47240000D03*
X63180000Y-43740000D03*
M02*
