G04 #@! TF.GenerationSoftware,KiCad,Pcbnew,(7.0.0-0)*
G04 #@! TF.CreationDate,2023-12-24T21:03:28+08:00*
G04 #@! TF.ProjectId,Arduino Shield,41726475-696e-46f2-9053-6869656c642e,rev?*
G04 #@! TF.SameCoordinates,Original*
G04 #@! TF.FileFunction,Soldermask,Top*
G04 #@! TF.FilePolarity,Negative*
%FSLAX46Y46*%
G04 Gerber Fmt 4.6, Leading zero omitted, Abs format (unit mm)*
G04 Created by KiCad (PCBNEW (7.0.0-0)) date 2023-12-24 21:03:28*
%MOMM*%
%LPD*%
G01*
G04 APERTURE LIST*
G04 Aperture macros list*
%AMRoundRect*
0 Rectangle with rounded corners*
0 $1 Rounding radius*
0 $2 $3 $4 $5 $6 $7 $8 $9 X,Y pos of 4 corners*
0 Add a 4 corners polygon primitive as box body*
4,1,4,$2,$3,$4,$5,$6,$7,$8,$9,$2,$3,0*
0 Add four circle primitives for the rounded corners*
1,1,$1+$1,$2,$3*
1,1,$1+$1,$4,$5*
1,1,$1+$1,$6,$7*
1,1,$1+$1,$8,$9*
0 Add four rect primitives between the rounded corners*
20,1,$1+$1,$2,$3,$4,$5,0*
20,1,$1+$1,$4,$5,$6,$7,0*
20,1,$1+$1,$6,$7,$8,$9,0*
20,1,$1+$1,$8,$9,$2,$3,0*%
G04 Aperture macros list end*
%ADD10R,2.400000X2.400000*%
%ADD11C,2.400000*%
%ADD12RoundRect,0.243750X-0.243750X-0.456250X0.243750X-0.456250X0.243750X0.456250X-0.243750X0.456250X0*%
%ADD13RoundRect,0.250000X-0.262500X-0.450000X0.262500X-0.450000X0.262500X0.450000X-0.262500X0.450000X0*%
%ADD14O,1.727200X1.727200*%
%ADD15R,1.727200X1.727200*%
G04 APERTURE END LIST*
D10*
X117265999Y-90677999D03*
D11*
X113766000Y-90678000D03*
X110266000Y-90678000D03*
X106766000Y-90678000D03*
X103266000Y-90678000D03*
X99766000Y-90678000D03*
X96266000Y-90678000D03*
X92766000Y-90678000D03*
D12*
X100342500Y-54102000D03*
X102217500Y-54102000D03*
D10*
X25339999Y-24129999D03*
D11*
X28840000Y-24130000D03*
X32340000Y-24130000D03*
X35840000Y-24130000D03*
X39340000Y-24130000D03*
X42840000Y-24130000D03*
X46340000Y-24130000D03*
X49840000Y-24130000D03*
X53340000Y-24130000D03*
X56840000Y-24130000D03*
D13*
X107075000Y-58166000D03*
X108900000Y-58166000D03*
D10*
X130682999Y-58546999D03*
D11*
X130683000Y-62047000D03*
X130683000Y-65547000D03*
X130683000Y-69047000D03*
X130683000Y-72547000D03*
X130683000Y-76047000D03*
X130683000Y-79547000D03*
D10*
X63159999Y-24129999D03*
D11*
X66660000Y-24130000D03*
X70160000Y-24130000D03*
X73660000Y-24130000D03*
X77160000Y-24130000D03*
X80660000Y-24130000D03*
X84160000Y-24130000D03*
X87660000Y-24130000D03*
D13*
X107037500Y-50292000D03*
X108862500Y-50292000D03*
D12*
X100342500Y-46228000D03*
X102217500Y-46228000D03*
D10*
X93019999Y-24129999D03*
D11*
X96520000Y-24130000D03*
X100020000Y-24130000D03*
X103520000Y-24130000D03*
X107020000Y-24130000D03*
X110520000Y-24130000D03*
X114020000Y-24130000D03*
X117520000Y-24130000D03*
D13*
X107075000Y-61976000D03*
X108900000Y-61976000D03*
D10*
X75879999Y-67959999D03*
D11*
X75880000Y-64460000D03*
X75880000Y-60960000D03*
X75880000Y-57460000D03*
X75880000Y-53960000D03*
X75880000Y-50460000D03*
X75880000Y-46960000D03*
X75880000Y-43460000D03*
D10*
X57022999Y-90677999D03*
D11*
X53523000Y-90678000D03*
X50023000Y-90678000D03*
X46523000Y-90678000D03*
X43023000Y-90678000D03*
X39523000Y-90678000D03*
X36023000Y-90678000D03*
D10*
X130682999Y-28066999D03*
D11*
X130683000Y-31567000D03*
X130683000Y-35067000D03*
X130683000Y-38567000D03*
X130683000Y-42067000D03*
X130683000Y-45567000D03*
X130683000Y-49067000D03*
X130683000Y-52567000D03*
D12*
X100342500Y-61976000D03*
X102217500Y-61976000D03*
X100342500Y-58166000D03*
X102217500Y-58166000D03*
D10*
X87405999Y-90677999D03*
D11*
X83906000Y-90678000D03*
X80406000Y-90678000D03*
X76906000Y-90678000D03*
X73406000Y-90678000D03*
X69906000Y-90678000D03*
X66406000Y-90678000D03*
X62906000Y-90678000D03*
D12*
X100305000Y-50292000D03*
X102180000Y-50292000D03*
D13*
X107075000Y-54102000D03*
X108900000Y-54102000D03*
X107075000Y-46228000D03*
X108900000Y-46228000D03*
D14*
X50479999Y-81559999D03*
X86039999Y-33299999D03*
X83499999Y-33299999D03*
X80959999Y-33299999D03*
X78419999Y-33299999D03*
X58099999Y-81559999D03*
X75879999Y-33299999D03*
X73339999Y-33299999D03*
X88706999Y-53619999D03*
X60639999Y-81559999D03*
X116519999Y-33299999D03*
X119059999Y-33299999D03*
X70799999Y-33299999D03*
X68259999Y-33299999D03*
X64195999Y-33299999D03*
X61655999Y-33299999D03*
X59115999Y-33299999D03*
X56575999Y-33299999D03*
X54035999Y-33299999D03*
X51495999Y-33299999D03*
X91119999Y-33299999D03*
X93659999Y-33299999D03*
X96199999Y-33299999D03*
X98739999Y-33299999D03*
X101279999Y-33299999D03*
X103819999Y-33299999D03*
X106359999Y-33299999D03*
X108899999Y-33299999D03*
X116519999Y-35839999D03*
X119059999Y-35839999D03*
X116519999Y-38379999D03*
X119059999Y-38379999D03*
X116519999Y-40919999D03*
X119059999Y-40919999D03*
X116519999Y-43459999D03*
X119059999Y-43459999D03*
X116519999Y-45999999D03*
X119059999Y-45999999D03*
X116519999Y-48539999D03*
X119059999Y-48539999D03*
X116519999Y-51079999D03*
X119059999Y-51079999D03*
X116519999Y-53619999D03*
X119059999Y-53619999D03*
X116519999Y-56159999D03*
X119059999Y-56159999D03*
X116519999Y-58699999D03*
X119059999Y-58699999D03*
X116519999Y-61239999D03*
X119059999Y-61239999D03*
X116519999Y-63779999D03*
X119059999Y-63779999D03*
X116519999Y-66319999D03*
X119059999Y-66319999D03*
X116519999Y-68859999D03*
X119059999Y-68859999D03*
X116519999Y-71399999D03*
X119059999Y-71399999D03*
X116519999Y-73939999D03*
X119059999Y-73939999D03*
X73339999Y-81559999D03*
X75879999Y-81559999D03*
X78419999Y-81559999D03*
X80959999Y-81559999D03*
X83499999Y-81559999D03*
X86039999Y-81559999D03*
X88579999Y-81559999D03*
X91119999Y-81559999D03*
X96199999Y-81559999D03*
X98739999Y-81559999D03*
X101279999Y-81559999D03*
X103819999Y-81559999D03*
X46415999Y-33299999D03*
X111439999Y-81559999D03*
X113979999Y-81559999D03*
X106359999Y-81559999D03*
X108899999Y-81559999D03*
D15*
X63179999Y-81559999D03*
X65719999Y-81559999D03*
X48955999Y-33299999D03*
X88706999Y-58699999D03*
X116519999Y-76479999D03*
X119059999Y-76479999D03*
D14*
X53019999Y-81559999D03*
X86166999Y-53619999D03*
X88706999Y-56159999D03*
X55559999Y-81559999D03*
X86166999Y-58699999D03*
X86166999Y-56159999D03*
X41335999Y-33299999D03*
X43875999Y-33299999D03*
X68259999Y-81559999D03*
D10*
X63179999Y-68239999D03*
D11*
X63180000Y-64740000D03*
X63180000Y-61240000D03*
X63180000Y-57740000D03*
X63180000Y-54240000D03*
X63180000Y-50740000D03*
X63180000Y-47240000D03*
X63180000Y-43740000D03*
M02*
