M48
; DRILL file {KiCad 7.0.9} date Fri Dec 29 07:46:44 2023
; FORMAT={-:-/ absolute / metric / decimal}
; #@! TF.CreationDate,2023-12-29T07:46:44-06:00
; #@! TF.GenerationSoftware,Kicad,Pcbnew,7.0.9
; #@! TF.FileFunction,Plated,1,2,PTH
FMAT,2
METRIC
; #@! TA.AperFunction,Plated,PTH,ComponentDrill
T1C1.016
; #@! TA.AperFunction,Plated,PTH,ComponentDrill
T2C1.200
%
G90
G05
T1
X41.336Y-33.3
X43.876Y-33.3
X46.416Y-33.3
X48.956Y-33.3
X50.48Y-81.56
X51.496Y-33.3
X53.02Y-81.56
X54.036Y-33.3
X55.56Y-81.56
X56.576Y-33.3
X58.1Y-81.56
X59.116Y-33.3
X60.64Y-81.56
X61.656Y-33.3
X63.18Y-81.56
X64.196Y-33.3
X65.72Y-81.56
X68.26Y-33.3
X68.26Y-81.56
X70.8Y-33.3
X73.34Y-33.3
X73.34Y-81.56
X75.88Y-33.3
X75.88Y-81.56
X78.42Y-33.3
X78.42Y-81.56
X80.96Y-33.3
X80.96Y-81.56
X83.5Y-33.3
X83.5Y-81.56
X86.04Y-33.3
X86.04Y-81.56
X86.167Y-53.62
X86.167Y-56.16
X86.167Y-58.7
X88.58Y-81.56
X88.707Y-53.62
X88.707Y-56.16
X88.707Y-58.7
X91.12Y-33.3
X91.12Y-81.56
X93.66Y-33.3
X96.2Y-33.3
X96.2Y-81.56
X98.74Y-33.3
X98.74Y-81.56
X101.28Y-33.3
X101.28Y-81.56
X103.82Y-33.3
X103.82Y-81.56
X106.36Y-33.3
X106.36Y-81.56
X108.9Y-33.3
X108.9Y-81.56
X111.44Y-81.56
X113.98Y-81.56
X116.52Y-33.3
X116.52Y-35.84
X116.52Y-38.38
X116.52Y-40.92
X116.52Y-43.46
X116.52Y-46.0
X116.52Y-48.54
X116.52Y-51.08
X116.52Y-53.62
X116.52Y-56.16
X116.52Y-58.7
X116.52Y-61.24
X116.52Y-63.78
X116.52Y-66.32
X116.52Y-68.86
X116.52Y-71.4
X116.52Y-73.94
X116.52Y-76.48
X119.06Y-33.3
X119.06Y-35.84
X119.06Y-38.38
X119.06Y-40.92
X119.06Y-43.46
X119.06Y-46.0
X119.06Y-48.54
X119.06Y-51.08
X119.06Y-53.62
X119.06Y-56.16
X119.06Y-58.7
X119.06Y-61.24
X119.06Y-63.78
X119.06Y-66.32
X119.06Y-68.86
X119.06Y-71.4
X119.06Y-73.94
X119.06Y-76.48
T2
X25.34Y-24.13
X28.84Y-24.13
X32.34Y-24.13
X35.84Y-24.13
X36.023Y-90.678
X39.34Y-24.13
X39.523Y-90.678
X42.84Y-24.13
X43.023Y-90.678
X46.34Y-24.13
X46.523Y-90.678
X49.84Y-24.13
X50.023Y-90.678
X53.34Y-24.13
X53.523Y-90.678
X56.84Y-24.13
X57.023Y-90.678
X62.906Y-90.678
X63.16Y-24.13
X63.18Y-43.74
X63.18Y-47.24
X63.18Y-50.74
X63.18Y-54.24
X63.18Y-57.74
X63.18Y-61.24
X63.18Y-64.74
X63.18Y-68.24
X66.406Y-90.678
X66.66Y-24.13
X69.906Y-90.678
X70.16Y-24.13
X73.406Y-90.678
X73.66Y-24.13
X75.88Y-43.46
X75.88Y-46.96
X75.88Y-50.46
X75.88Y-53.96
X75.88Y-57.46
X75.88Y-60.96
X75.88Y-64.46
X75.88Y-67.96
X76.906Y-90.678
X77.16Y-24.13
X80.406Y-90.678
X80.66Y-24.13
X83.906Y-90.678
X84.16Y-24.13
X87.406Y-90.678
X87.66Y-24.13
X92.766Y-90.678
X93.02Y-24.13
X96.266Y-90.678
X96.52Y-24.13
X99.766Y-90.678
X100.02Y-24.13
X103.266Y-90.678
X103.52Y-24.13
X106.766Y-90.678
X107.02Y-24.13
X110.266Y-90.678
X110.52Y-24.13
X113.766Y-90.678
X114.02Y-24.13
X117.266Y-90.678
X117.52Y-24.13
X130.683Y-28.067
X130.683Y-31.567
X130.683Y-35.067
X130.683Y-38.567
X130.683Y-42.067
X130.683Y-45.567
X130.683Y-49.067
X130.683Y-52.567
X130.683Y-58.547
X130.683Y-62.047
X130.683Y-65.547
X130.683Y-69.047
X130.683Y-72.547
X130.683Y-76.047
X130.683Y-79.547
T0
M30
