G04 #@! TF.GenerationSoftware,KiCad,Pcbnew,7.0.9*
G04 #@! TF.CreationDate,2023-12-29T07:46:22-06:00*
G04 #@! TF.ProjectId,Arduino Shield,41726475-696e-46f2-9053-6869656c642e,rev?*
G04 #@! TF.SameCoordinates,Original*
G04 #@! TF.FileFunction,Soldermask,Top*
G04 #@! TF.FilePolarity,Negative*
%FSLAX46Y46*%
G04 Gerber Fmt 4.6, Leading zero omitted, Abs format (unit mm)*
G04 Created by KiCad (PCBNEW 7.0.9) date 2023-12-29 07:46:22*
%MOMM*%
%LPD*%
G01*
G04 APERTURE LIST*
G04 Aperture macros list*
%AMRoundRect*
0 Rectangle with rounded corners*
0 $1 Rounding radius*
0 $2 $3 $4 $5 $6 $7 $8 $9 X,Y pos of 4 corners*
0 Add a 4 corners polygon primitive as box body*
4,1,4,$2,$3,$4,$5,$6,$7,$8,$9,$2,$3,0*
0 Add four circle primitives for the rounded corners*
1,1,$1+$1,$2,$3*
1,1,$1+$1,$4,$5*
1,1,$1+$1,$6,$7*
1,1,$1+$1,$8,$9*
0 Add four rect primitives between the rounded corners*
20,1,$1+$1,$2,$3,$4,$5,0*
20,1,$1+$1,$4,$5,$6,$7,0*
20,1,$1+$1,$6,$7,$8,$9,0*
20,1,$1+$1,$8,$9,$2,$3,0*%
G04 Aperture macros list end*
%ADD10R,2.400000X2.400000*%
%ADD11C,2.400000*%
%ADD12RoundRect,0.243750X-0.243750X-0.456250X0.243750X-0.456250X0.243750X0.456250X-0.243750X0.456250X0*%
%ADD13RoundRect,0.250000X-0.262500X-0.450000X0.262500X-0.450000X0.262500X0.450000X-0.262500X0.450000X0*%
%ADD14O,1.727200X1.727200*%
%ADD15R,1.727200X1.727200*%
G04 APERTURE END LIST*
D10*
X117266000Y-90678000D03*
D11*
X113766000Y-90678000D03*
X110266000Y-90678000D03*
X106766000Y-90678000D03*
X103266000Y-90678000D03*
X99766000Y-90678000D03*
X96266000Y-90678000D03*
X92766000Y-90678000D03*
D12*
X100342500Y-54102000D03*
X102217500Y-54102000D03*
D10*
X25340000Y-24130000D03*
D11*
X28840000Y-24130000D03*
X32340000Y-24130000D03*
X35840000Y-24130000D03*
X39340000Y-24130000D03*
X42840000Y-24130000D03*
X46340000Y-24130000D03*
X49840000Y-24130000D03*
X53340000Y-24130000D03*
X56840000Y-24130000D03*
D13*
X107075000Y-58166000D03*
X108900000Y-58166000D03*
D10*
X130683000Y-58547000D03*
D11*
X130683000Y-62047000D03*
X130683000Y-65547000D03*
X130683000Y-69047000D03*
X130683000Y-72547000D03*
X130683000Y-76047000D03*
X130683000Y-79547000D03*
D10*
X63160000Y-24130000D03*
D11*
X66660000Y-24130000D03*
X70160000Y-24130000D03*
X73660000Y-24130000D03*
X77160000Y-24130000D03*
X80660000Y-24130000D03*
X84160000Y-24130000D03*
X87660000Y-24130000D03*
D13*
X107037500Y-50292000D03*
X108862500Y-50292000D03*
D12*
X100342500Y-46228000D03*
X102217500Y-46228000D03*
D10*
X93020000Y-24130000D03*
D11*
X96520000Y-24130000D03*
X100020000Y-24130000D03*
X103520000Y-24130000D03*
X107020000Y-24130000D03*
X110520000Y-24130000D03*
X114020000Y-24130000D03*
X117520000Y-24130000D03*
D13*
X107075000Y-61976000D03*
X108900000Y-61976000D03*
D10*
X75880000Y-67960000D03*
D11*
X75880000Y-64460000D03*
X75880000Y-60960000D03*
X75880000Y-57460000D03*
X75880000Y-53960000D03*
X75880000Y-50460000D03*
X75880000Y-46960000D03*
X75880000Y-43460000D03*
D10*
X57023000Y-90678000D03*
D11*
X53523000Y-90678000D03*
X50023000Y-90678000D03*
X46523000Y-90678000D03*
X43023000Y-90678000D03*
X39523000Y-90678000D03*
X36023000Y-90678000D03*
D10*
X130683000Y-28067000D03*
D11*
X130683000Y-31567000D03*
X130683000Y-35067000D03*
X130683000Y-38567000D03*
X130683000Y-42067000D03*
X130683000Y-45567000D03*
X130683000Y-49067000D03*
X130683000Y-52567000D03*
D12*
X100342500Y-61976000D03*
X102217500Y-61976000D03*
X100342500Y-58166000D03*
X102217500Y-58166000D03*
D10*
X87406000Y-90678000D03*
D11*
X83906000Y-90678000D03*
X80406000Y-90678000D03*
X76906000Y-90678000D03*
X73406000Y-90678000D03*
X69906000Y-90678000D03*
X66406000Y-90678000D03*
X62906000Y-90678000D03*
D12*
X100305000Y-50292000D03*
X102180000Y-50292000D03*
D13*
X107075000Y-54102000D03*
X108900000Y-54102000D03*
X107075000Y-46228000D03*
X108900000Y-46228000D03*
D14*
X50480000Y-81560000D03*
X86040000Y-33300000D03*
X83500000Y-33300000D03*
X80960000Y-33300000D03*
X78420000Y-33300000D03*
X58100000Y-81560000D03*
X75880000Y-33300000D03*
X73340000Y-33300000D03*
X88707000Y-53620000D03*
X60640000Y-81560000D03*
X116520000Y-33300000D03*
X119060000Y-33300000D03*
X70800000Y-33300000D03*
X68260000Y-33300000D03*
X64196000Y-33300000D03*
X61656000Y-33300000D03*
X59116000Y-33300000D03*
X56576000Y-33300000D03*
X54036000Y-33300000D03*
X51496000Y-33300000D03*
X91120000Y-33300000D03*
X93660000Y-33300000D03*
X96200000Y-33300000D03*
X98740000Y-33300000D03*
X101280000Y-33300000D03*
X103820000Y-33300000D03*
X106360000Y-33300000D03*
X108900000Y-33300000D03*
X116520000Y-35840000D03*
X119060000Y-35840000D03*
X116520000Y-38380000D03*
X119060000Y-38380000D03*
X116520000Y-40920000D03*
X119060000Y-40920000D03*
X116520000Y-43460000D03*
X119060000Y-43460000D03*
X116520000Y-46000000D03*
X119060000Y-46000000D03*
X116520000Y-48540000D03*
X119060000Y-48540000D03*
X116520000Y-51080000D03*
X119060000Y-51080000D03*
X116520000Y-53620000D03*
X119060000Y-53620000D03*
X116520000Y-56160000D03*
X119060000Y-56160000D03*
X116520000Y-58700000D03*
X119060000Y-58700000D03*
X116520000Y-61240000D03*
X119060000Y-61240000D03*
X116520000Y-63780000D03*
X119060000Y-63780000D03*
X116520000Y-66320000D03*
X119060000Y-66320000D03*
X116520000Y-68860000D03*
X119060000Y-68860000D03*
X116520000Y-71400000D03*
X119060000Y-71400000D03*
X116520000Y-73940000D03*
X119060000Y-73940000D03*
X73340000Y-81560000D03*
X75880000Y-81560000D03*
X78420000Y-81560000D03*
X80960000Y-81560000D03*
X83500000Y-81560000D03*
X86040000Y-81560000D03*
X88580000Y-81560000D03*
X91120000Y-81560000D03*
X96200000Y-81560000D03*
X98740000Y-81560000D03*
X101280000Y-81560000D03*
X103820000Y-81560000D03*
X46416000Y-33300000D03*
X111440000Y-81560000D03*
X113980000Y-81560000D03*
X106360000Y-81560000D03*
X108900000Y-81560000D03*
D15*
X63180000Y-81560000D03*
X65720000Y-81560000D03*
X48956000Y-33300000D03*
X88707000Y-58700000D03*
X116520000Y-76480000D03*
X119060000Y-76480000D03*
D14*
X53020000Y-81560000D03*
X86167000Y-53620000D03*
X88707000Y-56160000D03*
X55560000Y-81560000D03*
X86167000Y-58700000D03*
X86167000Y-56160000D03*
X41336000Y-33300000D03*
X43876000Y-33300000D03*
X68260000Y-81560000D03*
D10*
X63180000Y-68240000D03*
D11*
X63180000Y-64740000D03*
X63180000Y-61240000D03*
X63180000Y-57740000D03*
X63180000Y-54240000D03*
X63180000Y-50740000D03*
X63180000Y-47240000D03*
X63180000Y-43740000D03*
M02*
